# Blender 5.2.1 LTS
# www.blender.org
mtllib anoxic_colony_a.mtl
o anoxic_colony_a
v -1.700000 -0.000000 -0.200000
v -0.141150 0.027500 -0.200000
v -0.350000 0.027500 0.276310
v -0.920580 0.027500 0.625000
v -1.700000 0.027500 0.752630
v -2.479420 0.027500 0.625000
v -3.050000 0.027500 0.276310
v -3.258850 0.027500 -0.200000
v -3.050000 0.027500 -0.676310
v -2.479420 0.027500 -1.025000
v -1.700000 0.027500 -1.152630
v -0.920580 0.027500 -1.025000
v -0.350000 0.027500 -0.676310
v -0.141150 0.082500 -0.200000
v -0.350000 0.082500 0.276310
v -0.920580 0.082500 0.625000
v -1.700000 0.082500 0.752630
v -2.479420 0.082500 0.625000
v -3.050000 0.082500 0.276310
v -3.258850 0.082500 -0.200000
v -3.050000 0.082500 -0.676310
v -2.479420 0.082500 -1.025000
v -1.700000 0.082500 -1.152630
v -0.920580 0.082500 -1.025000
v -0.350000 0.082500 -0.676310
v -1.700000 0.110000 -0.200000
v 0.600000 0.000000 0.500000
v 2.418650 0.027500 0.500000
v 2.175000 0.027500 1.041270
v 1.509330 0.027500 1.437500
v 0.600000 0.027500 1.582530
v -0.309330 0.027500 1.437500
v -0.975000 0.027500 1.041270
v -1.218650 0.027500 0.500000
v -0.975000 0.027500 -0.041270
v -0.309330 0.027500 -0.437500
v 0.600000 0.027500 -0.582530
v 1.509330 0.027500 -0.437500
v 2.175000 0.027500 -0.041270
v 2.418650 0.082500 0.500000
v 2.175000 0.082500 1.041270
v 1.509330 0.082500 1.437500
v 0.600000 0.082500 1.582530
v -0.309330 0.082500 1.437500
v -0.975000 0.082500 1.041270
v -1.218650 0.082500 0.500000
v -0.975000 0.082500 -0.041270
v -0.309330 0.082500 -0.437500
v 0.600000 0.082500 -0.582530
v 1.509330 0.082500 -0.437500
v 2.175000 0.082500 -0.041270
v 0.600000 0.110000 0.500000
v 2.200000 -0.000000 -0.600000
v 3.239230 0.027500 -0.600000
v 3.100000 0.027500 -0.253590
v 2.719620 0.027500 -0.000000
v 2.200000 0.027500 0.092820
v 1.680380 0.027500 -0.000000
v 1.300000 0.027500 -0.253590
v 1.160770 0.027500 -0.600000
v 1.300000 0.027500 -0.946410
v 1.680380 0.027500 -1.200000
v 2.200000 0.027500 -1.292820
v 2.719620 0.027500 -1.200000
v 3.100000 0.027500 -0.946410
v 3.239230 0.082500 -0.600000
v 3.100000 0.082500 -0.253590
v 2.719620 0.082500 -0.000000
v 2.200000 0.082500 0.092820
v 1.680380 0.082500 -0.000000
v 1.300000 0.082500 -0.253590
v 1.160770 0.082500 -0.600000
v 1.300000 0.082500 -0.946410
v 1.680380 0.082500 -1.200000
v 2.200000 0.082500 -1.292820
v 2.719620 0.082500 -1.200000
v 3.100000 0.082500 -0.946410
v 2.200000 0.110000 -0.600000
v -2.000000 0.060000 -0.300000
v -1.776640 0.190440 -0.300000
v -1.828900 0.190440 -0.156430
v -1.961210 0.190440 -0.080030
v -2.111680 0.190440 -0.106570
v -2.209890 0.190440 -0.223610
v -2.209890 0.190440 -0.376390
v -2.111680 0.190440 -0.493430
v -1.961210 0.190440 -0.519970
v -1.828900 0.190440 -0.443570
v -1.638600 0.531940 -0.300000
v -1.723150 0.531940 -0.067700
v -1.937240 0.531940 0.055910
v -2.180700 0.531940 0.012980
v -2.339610 0.531940 -0.176390
v -2.339610 0.531940 -0.423610
v -2.180700 0.531940 -0.612980
v -1.937240 0.531940 -0.655910
v -1.723150 0.531940 -0.532300
v -1.638600 0.954060 -0.300000
v -1.723150 0.954060 -0.067700
v -1.937240 0.954060 0.055910
v -2.180700 0.954060 0.012980
v -2.339610 0.954060 -0.176390
v -2.339610 0.954060 -0.423610
v -2.180700 0.954060 -0.612980
v -1.937240 0.954060 -0.655910
v -1.723150 0.954060 -0.532300
v -1.776640 1.295560 -0.300000
v -1.828900 1.295560 -0.156430
v -1.961210 1.295560 -0.080030
v -2.111680 1.295560 -0.106570
v -2.209890 1.295560 -0.223610
v -2.209890 1.295560 -0.376390
v -2.111680 1.295560 -0.493430
v -1.961210 1.295560 -0.519970
v -1.828900 1.295560 -0.443570
v -2.000000 1.426000 -0.300000
v -2.000000 0.080000 -0.345600
v -2.000000 0.350000 -0.345600
v -2.039490 0.080000 -0.322800
v -2.039490 0.350000 -0.322800
v -2.039490 0.080000 -0.277200
v -2.039490 0.350000 -0.277200
v -2.000000 0.080000 -0.254400
v -2.000000 0.350000 -0.254400
v -1.960510 0.080000 -0.277200
v -1.960510 0.350000 -0.277200
v -1.960510 0.080000 -0.322800
v -1.960510 0.350000 -0.322800
v -0.800000 0.060000 0.700000
v -0.635420 0.183760 0.700000
v -0.673920 0.183760 0.805790
v -0.771420 0.183760 0.862080
v -0.882290 0.183760 0.842530
v -0.954650 0.183760 0.756290
v -0.954650 0.183760 0.643710
v -0.882290 0.183760 0.557470
v -0.771420 0.183760 0.537920
v -0.673920 0.183760 0.594210
v -0.533700 0.507760 0.700000
v -0.596010 0.507760 0.871170
v -0.753760 0.507760 0.962250
v -0.933150 0.507760 0.930620
v -1.050240 0.507760 0.791080
v -1.050240 0.507760 0.608920
v -0.933150 0.507760 0.469380
v -0.753760 0.507760 0.437750
v -0.596010 0.507760 0.528830
v -0.533700 0.908240 0.700000
v -0.596010 0.908240 0.871170
v -0.753760 0.908240 0.962250
v -0.933150 0.908240 0.930620
v -1.050240 0.908240 0.791080
v -1.050240 0.908240 0.608920
v -0.933150 0.908240 0.469380
v -0.753760 0.908240 0.437750
v -0.596010 0.908240 0.528830
v -0.635420 1.232240 0.700000
v -0.673920 1.232240 0.805790
v -0.771420 1.232240 0.862080
v -0.882290 1.232240 0.842530
v -0.954650 1.232240 0.756290
v -0.954650 1.232240 0.643710
v -0.882290 1.232240 0.557470
v -0.771420 1.232240 0.537920
v -0.673920 1.232240 0.594210
v -0.800000 1.356000 0.700000
v -0.800000 0.080000 0.666400
v -0.800000 0.350000 0.666400
v -0.829100 0.080000 0.683200
v -0.829100 0.350000 0.683200
v -0.829100 0.080000 0.716800
v -0.829100 0.350000 0.716800
v -0.800000 0.080000 0.733600
v -0.800000 0.350000 0.733600
v -0.770900 0.080000 0.716800
v -0.770900 0.350000 0.716800
v -0.770900 0.080000 0.683200
v -0.770900 0.350000 0.683200
v 0.250000 0.060000 -0.400000
v 0.520380 0.195790 -0.400000
v 0.457120 0.195790 -0.226200
v 0.296950 0.195790 -0.133730
v 0.114810 0.195790 -0.165840
v -0.004080 0.195790 -0.307520
v -0.004080 0.195790 -0.492480
v 0.114810 0.195790 -0.634160
v 0.296950 0.195790 -0.666270
v 0.457120 0.195790 -0.573800
v 0.687490 0.551290 -0.400000
v 0.585130 0.551290 -0.118790
v 0.325970 0.551290 0.030840
v 0.031260 0.551290 -0.021130
v -0.161100 0.551290 -0.250370
v -0.161100 0.551290 -0.549630
v 0.031260 0.551290 -0.778870
v 0.325970 0.551290 -0.830840
v 0.585130 0.551290 -0.681210
v 0.687490 0.990710 -0.400000
v 0.585130 0.990710 -0.118790
v 0.325970 0.990710 0.030840
v 0.031260 0.990710 -0.021130
v -0.161100 0.990710 -0.250370
v -0.161100 0.990710 -0.549630
v 0.031260 0.990710 -0.778870
v 0.325970 0.990710 -0.830840
v 0.585130 0.990710 -0.681210
v 0.520380 1.346210 -0.400000
v 0.457120 1.346210 -0.226200
v 0.296950 1.346210 -0.133730
v 0.114810 1.346210 -0.165840
v -0.004080 1.346210 -0.307520
v -0.004080 1.346210 -0.492480
v 0.114810 1.346210 -0.634160
v 0.296950 1.346210 -0.666270
v 0.457120 1.346210 -0.573800
v 0.250000 1.482000 -0.400000
v 0.250000 0.080000 -0.455200
v 0.250000 0.350000 -0.455200
v 0.202200 0.080000 -0.427600
v 0.202200 0.350000 -0.427600
v 0.202200 0.080000 -0.372400
v 0.202200 0.350000 -0.372400
v 0.250000 0.080000 -0.344800
v 0.250000 0.350000 -0.344800
v 0.297800 0.080000 -0.372400
v 0.297800 0.350000 -0.372400
v 0.297800 0.080000 -0.427600
v 0.297800 0.350000 -0.427600
v 1.250000 0.060000 0.550000
v 1.449850 0.187770 0.550000
v 1.403090 0.187770 0.678460
v 1.284700 0.187770 0.746810
v 1.150080 0.187770 0.723070
v 1.062210 0.187770 0.618350
v 1.062210 0.187770 0.481650
v 1.150080 0.187770 0.376930
v 1.284700 0.187770 0.353190
v 1.403090 0.187770 0.421540
v 1.573360 0.522270 0.550000
v 1.497710 0.522270 0.757850
v 1.306150 0.522270 0.868450
v 1.088320 0.522270 0.830040
v 0.946140 0.522270 0.660600
v 0.946140 0.522270 0.439400
v 1.088320 0.522270 0.269960
v 1.306150 0.522270 0.231550
v 1.497710 0.522270 0.342150
v 1.573360 0.935730 0.550000
v 1.497710 0.935730 0.757850
v 1.306150 0.935730 0.868450
v 1.088320 0.935730 0.830040
v 0.946140 0.935730 0.660600
v 0.946140 0.935730 0.439400
v 1.088320 0.935730 0.269960
v 1.306150 0.935730 0.231550
v 1.497710 0.935730 0.342150
v 1.449850 1.270230 0.550000
v 1.403090 1.270230 0.678460
v 1.284700 1.270230 0.746810
v 1.150080 1.270230 0.723070
v 1.062210 1.270230 0.618350
v 1.062210 1.270230 0.481650
v 1.150080 1.270230 0.376930
v 1.284700 1.270230 0.353190
v 1.403090 1.270230 0.421540
v 1.250000 1.398000 0.550000
v 1.250000 0.080000 0.509200
v 1.250000 0.350000 0.509200
v 1.214670 0.080000 0.529600
v 1.214670 0.350000 0.529600
v 1.214670 0.080000 0.570400
v 1.214670 0.350000 0.570400
v 1.250000 0.080000 0.590800
v 1.250000 0.350000 0.590800
v 1.285330 0.080000 0.570400
v 1.285330 0.350000 0.570400
v 1.285330 0.080000 0.529600
v 1.285330 0.350000 0.529600
v 2.250000 0.060000 -0.500000
v 2.426340 0.185090 -0.500000
v 2.385080 0.185090 -0.386650
v 2.280620 0.185090 -0.326340
v 2.161830 0.185090 -0.347290
v 2.084300 0.185090 -0.439690
v 2.084300 0.185090 -0.560310
v 2.161830 0.185090 -0.652710
v 2.280620 0.185090 -0.673660
v 2.385080 0.185090 -0.613350
v 2.535320 0.512590 -0.500000
v 2.468570 0.512590 -0.316600
v 2.299540 0.512590 -0.219020
v 2.107340 0.512590 -0.252910
v 1.981890 0.512590 -0.402420
v 1.981890 0.512590 -0.597580
v 2.107340 0.512590 -0.747090
v 2.299540 0.512590 -0.780980
v 2.468570 0.512590 -0.683400
v 2.535320 0.917410 -0.500000
v 2.468570 0.917410 -0.316600
v 2.299540 0.917410 -0.219020
v 2.107340 0.917410 -0.252910
v 1.981890 0.917410 -0.402420
v 1.981890 0.917410 -0.597580
v 2.107340 0.917410 -0.747090
v 2.299540 0.917410 -0.780980
v 2.468570 0.917410 -0.683400
v 2.426340 1.244910 -0.500000
v 2.385080 1.244910 -0.386650
v 2.280620 1.244910 -0.326340
v 2.161830 1.244910 -0.347290
v 2.084300 1.244910 -0.439690
v 2.084300 1.244910 -0.560310
v 2.161830 1.244910 -0.652710
v 2.280620 1.244910 -0.673660
v 2.385080 1.244910 -0.613350
v 2.250000 1.370000 -0.500000
v 2.250000 0.080000 -0.536000
v 2.250000 0.350000 -0.536000
v 2.218820 0.080000 -0.518000
v 2.218820 0.350000 -0.518000
v 2.218820 0.080000 -0.482000
v 2.218820 0.350000 -0.482000
v 2.250000 0.080000 -0.464000
v 2.250000 0.350000 -0.464000
v 2.281180 0.080000 -0.482000
v 2.281180 0.350000 -0.482000
v 2.281180 0.080000 -0.518000
v 2.281180 0.350000 -0.518000
vn -0.0000 -1.0000 -0.0000
vn 0.7834 -0.6215 -0.0000
vn 0.5799 -0.6390 0.5054
vn 0.2628 -0.6577 0.7059
vn -0.0000 -0.6628 0.7488
vn -0.2628 -0.6577 0.7059
vn -0.5799 -0.6390 0.5054
vn -0.7834 -0.6215 -0.0000
vn -0.5799 -0.6390 -0.5054
vn -0.2628 -0.6577 -0.7059
vn -0.0000 -0.6628 -0.7488
vn 0.2628 -0.6577 -0.7059
vn 0.5799 -0.6390 -0.5054
vn 0.7834 0.6215 -0.0000
vn 0.5799 0.6390 0.5054
vn 0.2628 0.6577 0.7059
vn -0.0000 0.6628 0.7488
vn -0.2628 0.6577 0.7059
vn -0.5799 0.6390 0.5054
vn -0.7834 0.6215 -0.0000
vn -0.5799 0.6390 -0.5054
vn -0.2628 0.6577 -0.7059
vn -0.0000 0.6628 -0.7488
vn 0.2628 0.6577 -0.7059
vn 0.5799 0.6390 -0.5054
vn -0.0000 1.0000 -0.0000
vn 0.7841 -0.6207 -0.0000
vn 0.5740 -0.6397 0.5112
vn 0.2566 -0.6595 0.7065
vn -0.0000 -0.6648 0.7471
vn -0.2566 -0.6595 0.7065
vn -0.5740 -0.6397 0.5112
vn -0.7841 -0.6207 -0.0000
vn -0.5740 -0.6397 -0.5112
vn -0.2566 -0.6595 -0.7065
vn -0.0000 -0.6648 -0.7471
vn 0.2566 -0.6595 -0.7065
vn 0.5740 -0.6397 -0.5112
vn 0.7841 0.6207 -0.0000
vn 0.5740 0.6397 0.5112
vn 0.2566 0.6595 0.7065
vn -0.0000 0.6648 0.7471
vn -0.2566 0.6595 0.7065
vn -0.5740 0.6397 0.5112
vn -0.7841 0.6207 -0.0000
vn -0.5740 0.6397 -0.5112
vn -0.2566 0.6595 -0.7065
vn -0.0000 0.6648 -0.7471
vn 0.2566 0.6595 -0.7065
vn 0.5740 0.6397 -0.5112
vn 0.7816 -0.6238 -0.0000
vn 0.5989 -0.6367 0.4857
vn 0.2837 -0.6519 0.7032
vn -0.0000 -0.6563 0.7545
vn -0.2837 -0.6519 0.7032
vn -0.5989 -0.6367 0.4857
vn -0.7816 -0.6238 -0.0000
vn -0.5989 -0.6367 -0.4857
vn -0.2837 -0.6519 -0.7032
vn -0.0000 -0.6563 -0.7545
vn 0.2837 -0.6519 -0.7032
vn 0.5989 -0.6367 -0.4857
vn 0.7816 0.6238 -0.0000
vn 0.5989 0.6367 0.4857
vn 0.2837 0.6519 0.7032
vn -0.0000 0.6563 0.7545
vn -0.2837 0.6519 0.7032
vn -0.5989 0.6367 0.4857
vn -0.7816 0.6238 -0.0000
vn -0.5989 0.6367 -0.4857
vn -0.2837 0.6519 -0.7032
vn -0.0000 0.6563 -0.7545
vn 0.2837 0.6519 -0.7032
vn 0.5989 0.6367 -0.4857
vn 0.7837 -0.6212 -0.0000
vn 0.6003 -0.6212 0.5037
vn 0.1361 -0.6212 0.7718
vn -0.3919 -0.6212 0.6787
vn -0.7364 -0.6212 0.2680
vn -0.7364 -0.6212 -0.2680
vn -0.3919 -0.6212 -0.6787
vn 0.1361 -0.6212 -0.7718
vn 0.6003 -0.6212 -0.5037
vn 0.9830 -0.1835 -0.0000
vn 0.7530 -0.1835 0.6319
vn 0.1707 -0.1835 0.9681
vn -0.4915 -0.1835 0.8513
vn -0.9237 -0.1835 0.3362
vn -0.9237 -0.1835 -0.3362
vn -0.4915 -0.1835 -0.8513
vn 0.1707 -0.1835 -0.9681
vn 0.7530 -0.1835 -0.6319
vn 0.9830 0.1835 -0.0000
vn 0.7530 0.1835 0.6319
vn 0.1707 0.1835 0.9681
vn -0.4915 0.1835 0.8513
vn -0.9237 0.1835 0.3362
vn -0.9237 0.1835 -0.3362
vn -0.4915 0.1835 -0.8513
vn 0.1707 0.1835 -0.9681
vn 0.7530 0.1835 -0.6319
vn 0.7837 0.6212 -0.0000
vn 0.6003 0.6212 0.5037
vn 0.1361 0.6212 0.7718
vn -0.3919 0.6212 0.6787
vn -0.7364 0.6212 0.2680
vn -0.7364 0.6212 -0.2680
vn -0.3919 0.6212 -0.6787
vn 0.1361 0.6212 -0.7718
vn 0.6003 0.6212 -0.5037
vn -0.0000 -0.6100 -0.7924
vn -0.0000 0.6100 -0.7924
vn -0.6862 -0.6100 -0.3962
vn -0.6862 0.6100 -0.3962
vn -0.6862 -0.6100 0.3962
vn -0.6862 0.6100 0.3962
vn -0.0000 -0.6100 0.7924
vn -0.0000 0.6100 0.7924
vn 0.6862 -0.6100 0.3962
vn 0.6862 0.6100 0.3962
vn 0.6862 -0.6100 -0.3962
vn 0.6862 0.6100 -0.3962
vn 0.8368 -0.5475 -0.0000
vn 0.6411 -0.5475 0.5379
vn 0.1453 -0.5475 0.8241
vn -0.4184 -0.5475 0.7247
vn -0.7864 -0.5475 0.2862
vn -0.7864 -0.5475 -0.2862
vn -0.4184 -0.5475 -0.7247
vn 0.1453 -0.5475 -0.8241
vn 0.6411 -0.5475 -0.5379
vn 0.9892 -0.1468 -0.0000
vn 0.7577 -0.1468 0.6358
vn 0.1718 -0.1468 0.9741
vn -0.4946 -0.1468 0.8566
vn -0.9295 -0.1468 0.3383
vn -0.9295 -0.1468 -0.3383
vn -0.4946 -0.1468 -0.8567
vn 0.1718 -0.1468 -0.9741
vn 0.7577 -0.1468 -0.6358
vn 0.9892 0.1468 -0.0000
vn 0.7577 0.1468 0.6358
vn 0.1718 0.1468 0.9741
vn -0.4946 0.1468 0.8567
vn -0.9295 0.1468 0.3383
vn -0.9295 0.1468 -0.3383
vn -0.4946 0.1468 -0.8566
vn 0.1718 0.1468 -0.9741
vn 0.7577 0.1468 -0.6358
vn 0.8368 0.5475 -0.0000
vn 0.6411 0.5475 0.5379
vn 0.1453 0.5475 0.8241
vn -0.4184 0.5475 0.7247
vn -0.7864 0.5475 0.2862
vn -0.7864 0.5475 -0.2862
vn -0.4184 0.5475 -0.7247
vn 0.1453 0.5475 -0.8241
vn 0.6411 0.5475 -0.5379
vn 0.7479 -0.6638 -0.0000
vn 0.5729 -0.6638 0.4808
vn 0.1299 -0.6638 0.7366
vn -0.3739 -0.6638 0.6477
vn -0.7028 -0.6638 0.2558
vn -0.7028 -0.6638 -0.2558
vn -0.3739 -0.6638 -0.6477
vn 0.1299 -0.6638 -0.7366
vn 0.5729 -0.6638 -0.4808
vn 0.9780 -0.2085 -0.0000
vn 0.7492 -0.2085 0.6287
vn 0.1698 -0.2085 0.9632
vn -0.4890 -0.2085 0.8470
vn -0.9190 -0.2085 0.3345
vn -0.9190 -0.2085 -0.3345
vn -0.4890 -0.2085 -0.8470
vn 0.1698 -0.2085 -0.9632
vn 0.7492 -0.2085 -0.6287
vn 0.9780 0.2085 -0.0000
vn 0.7492 0.2085 0.6287
vn 0.1698 0.2085 0.9632
vn -0.4890 0.2085 0.8470
vn -0.9190 0.2085 0.3345
vn -0.9190 0.2085 -0.3345
vn -0.4890 0.2085 -0.8470
vn 0.1698 0.2085 -0.9632
vn 0.7492 0.2085 -0.6287
vn 0.7479 0.6638 -0.0000
vn 0.5729 0.6638 0.4808
vn 0.1299 0.6638 0.7366
vn -0.3739 0.6638 0.6477
vn -0.7028 0.6638 0.2558
vn -0.7028 0.6638 -0.2558
vn -0.3739 0.6638 -0.6477
vn 0.1299 0.6638 -0.7366
vn 0.5729 0.6638 -0.4808
vn 0.6863 -0.6100 0.3962
vn 0.6863 0.6100 -0.3962
vn 0.8037 -0.5950 -0.0000
vn 0.6157 -0.5950 0.5166
vn 0.1395 -0.5950 0.7915
vn -0.4019 -0.5950 0.6960
vn -0.7552 -0.5950 0.2749
vn -0.7552 -0.5950 -0.2749
vn -0.4019 -0.5950 -0.6960
vn 0.1395 -0.5950 -0.7915
vn 0.6157 -0.5950 -0.5166
vn 0.9855 -0.1696 -0.0000
vn 0.7549 -0.1696 0.6335
vn 0.1711 -0.1696 0.9705
vn -0.4928 -0.1696 0.8535
vn -0.9261 -0.1696 0.3371
vn -0.9261 -0.1697 -0.3371
vn -0.4928 -0.1696 -0.8535
vn 0.1711 -0.1696 -0.9705
vn 0.7549 -0.1696 -0.6335
vn 0.9855 0.1696 -0.0000
vn 0.7549 0.1696 0.6335
vn 0.1711 0.1696 0.9705
vn -0.4928 0.1696 0.8535
vn -0.9261 0.1697 0.3371
vn -0.9261 0.1696 -0.3371
vn -0.4928 0.1696 -0.8535
vn 0.1711 0.1696 -0.9705
vn 0.7549 0.1696 -0.6335
vn 0.8037 0.5950 -0.0000
vn 0.6157 0.5950 0.5166
vn 0.1395 0.5950 0.7915
vn -0.4019 0.5950 0.6960
vn -0.7552 0.5950 0.2749
vn -0.7552 0.5950 -0.2749
vn -0.4019 0.5950 -0.6960
vn 0.1395 0.5950 -0.7915
vn 0.6157 0.5950 -0.5166
vn -0.6863 0.6100 -0.3962
vn -0.6863 -0.6100 0.3962
vn 0.8253 -0.5647 -0.0000
vn 0.6322 -0.5646 0.5305
vn 0.1433 -0.5646 0.8128
vn -0.4127 -0.5646 0.7148
vn -0.7756 -0.5646 0.2823
vn -0.7756 -0.5646 -0.2823
vn -0.4127 -0.5646 -0.7148
vn 0.1433 -0.5646 -0.8128
vn 0.6322 -0.5646 -0.5305
vn 0.9880 -0.1547 -0.0000
vn 0.7568 -0.1547 0.6351
vn 0.1715 -0.1547 0.9730
vn -0.4940 -0.1547 0.8556
vn -0.9284 -0.1547 0.3379
vn -0.9284 -0.1547 -0.3379
vn -0.4940 -0.1547 -0.8556
vn 0.1715 -0.1547 -0.9730
vn 0.7568 -0.1547 -0.6351
vn 0.9880 0.1547 -0.0000
vn 0.7568 0.1547 0.6351
vn 0.1715 0.1547 0.9730
vn -0.4940 0.1547 0.8556
vn -0.9284 0.1547 0.3379
vn -0.9284 0.1547 -0.3379
vn -0.4940 0.1547 -0.8556
vn 0.1715 0.1547 -0.9730
vn 0.7568 0.1547 -0.6351
vn 0.8253 0.5647 -0.0000
vn 0.6322 0.5646 0.5305
vn 0.1433 0.5646 0.8128
vn -0.4127 0.5646 0.7148
vn -0.7756 0.5646 0.2823
vn -0.7756 0.5646 -0.2823
vn -0.4127 0.5646 -0.7148
vn 0.1433 0.5646 -0.8128
vn 0.6322 0.5646 -0.5305
s 1
usemtl verdant_anoxic
f 1//1 2//2 3//3
f 1//1 3//3 4//4
f 1//1 4//4 5//5
f 1//1 5//5 6//6
f 1//1 6//6 7//7
f 1//1 7//7 8//8
f 1//1 8//8 9//9
f 1//1 9//9 10//10
f 1//1 10//10 11//11
f 1//1 11//11 12//12
f 1//1 12//12 13//13
f 1//1 13//13 2//2
f 14//14 3//3 2//2
f 15//15 4//4 3//3
f 16//16 5//5 4//4
f 17//17 6//6 5//5
f 18//18 7//7 6//6
f 19//19 8//8 7//7
f 20//20 9//9 8//8
f 21//21 10//10 9//9
f 22//22 11//11 10//10
f 23//23 12//12 11//11
f 24//24 13//13 12//12
f 25//25 2//2 13//13
f 14//14 26//26 15//15
f 15//15 26//26 16//16
f 16//16 26//26 17//17
f 17//17 26//26 18//18
f 18//18 26//26 19//19
f 19//19 26//26 20//20
f 20//20 26//26 21//21
f 21//21 26//26 22//22
f 22//22 26//26 23//23
f 23//23 26//26 24//24
f 24//24 26//26 25//25
f 25//25 26//26 14//14
f 27//1 28//27 29//28
f 27//1 29//28 30//29
f 27//1 30//29 31//30
f 27//1 31//30 32//31
f 27//1 32//31 33//32
f 27//1 33//32 34//33
f 27//1 34//33 35//34
f 27//1 35//34 36//35
f 27//1 36//35 37//36
f 27//1 37//36 38//37
f 27//1 38//37 39//38
f 27//1 39//38 28//27
f 40//39 29//28 28//27
f 41//40 30//29 29//28
f 42//41 31//30 30//29
f 43//42 32//31 31//30
f 44//43 33//32 32//31
f 45//44 34//33 33//32
f 46//45 35//34 34//33
f 47//46 36//35 35//34
f 48//47 37//36 36//35
f 49//48 38//37 37//36
f 50//49 39//38 38//37
f 51//50 28//27 39//38
f 40//39 52//26 41//40
f 41//40 52//26 42//41
f 42//41 52//26 43//42
f 43//42 52//26 44//43
f 44//43 52//26 45//44
f 45//44 52//26 46//45
f 46//45 52//26 47//46
f 47//46 52//26 48//47
f 48//47 52//26 49//48
f 49//48 52//26 50//49
f 50//49 52//26 51//50
f 51//50 52//26 40//39
f 53//1 54//51 55//52
f 53//1 55//52 56//53
f 53//1 56//53 57//54
f 53//1 57//54 58//55
f 53//1 58//55 59//56
f 53//1 59//56 60//57
f 53//1 60//57 61//58
f 53//1 61//58 62//59
f 53//1 62//59 63//60
f 53//1 63//60 64//61
f 53//1 64//61 65//62
f 53//1 65//62 54//51
f 66//63 55//52 54//51
f 67//64 56//53 55//52
f 68//65 57//54 56//53
f 69//66 58//55 57//54
f 70//67 59//56 58//55
f 71//68 60//57 59//56
f 72//69 61//58 60//57
f 73//70 62//59 61//58
f 74//71 63//60 62//59
f 75//72 64//61 63//60
f 76//73 65//62 64//61
f 77//74 54//51 65//62
f 66//63 78//26 67//64
f 67//64 78//26 68//65
f 68//65 78//26 69//66
f 69//66 78//26 70//67
f 70//67 78//26 71//68
f 71//68 78//26 72//69
f 72//69 78//26 73//70
f 73//70 78//26 74//71
f 74//71 78//26 75//72
f 75//72 78//26 76//73
f 76//73 78//26 77//74
f 77//74 78//26 66//63
f 14//14 15//15 3//3
f 15//15 16//16 4//4
f 16//16 17//17 5//5
f 17//17 18//18 6//6
f 18//18 19//19 7//7
f 19//19 20//20 8//8
f 20//20 21//21 9//9
f 21//21 22//22 10//10
f 22//22 23//23 11//11
f 23//23 24//24 12//12
f 24//24 25//25 13//13
f 25//25 14//14 2//2
f 40//39 41//40 29//28
f 41//40 42//41 30//29
f 42//41 43//42 31//30
f 43//42 44//43 32//31
f 44//43 45//44 33//32
f 45//44 46//45 34//33
f 46//45 47//46 35//34
f 47//46 48//47 36//35
f 48//47 49//48 37//36
f 49//48 50//49 38//37
f 50//49 51//50 39//38
f 51//50 40//39 28//27
f 66//63 67//64 55//52
f 67//64 68//65 56//53
f 68//65 69//66 57//54
f 69//66 70//67 58//55
f 70//67 71//68 59//56
f 71//68 72//69 60//57
f 72//69 73//70 61//58
f 73//70 74//71 62//59
f 74//71 75//72 63//60
f 75//72 76//73 64//61
f 76//73 77//74 65//62
f 77//74 66//63 54//51
usemtl verdant_anoxic
f 79//1 80//75 81//76
f 79//1 81//76 82//77
f 79//1 82//77 83//78
f 79//1 83//78 84//79
f 79//1 84//79 85//80
f 79//1 85//80 86//81
f 79//1 86//81 87//82
f 79//1 87//82 88//83
f 79//1 88//83 80//75
f 80//75 90//85 81//76
f 90//85 82//77 81//76
f 82//77 92//87 83//78
f 83//78 93//88 84//79
f 84//79 94//89 85//80
f 94//89 86//81 85//80
f 95//90 87//82 86//81
f 87//82 97//92 88//83
f 97//92 80//75 88//83
f 98//93 90//85 89//84
f 99//94 91//86 90//85
f 100//95 92//87 91//86
f 101//96 93//88 92//87
f 102//97 94//89 93//88
f 103//98 95//90 94//89
f 104//99 96//91 95//90
f 105//100 97//92 96//91
f 106//101 89//84 97//92
f 107//102 99//94 98//93
f 99//94 109//104 100//95
f 109//104 101//96 100//95
f 110//105 102//97 101//96
f 111//106 103//98 102//97
f 103//98 113//108 104//99
f 104//99 114//109 105//100
f 114//109 106//101 105//100
f 106//101 107//102 98//93
f 107//102 116//26 108//103
f 108//103 116//26 109//104
f 109//104 116//26 110//105
f 110//105 116//26 111//106
f 111//106 116//26 112//107
f 112//107 116//26 113//108
f 113//108 116//26 114//109
f 114//109 116//26 115//110
f 115//110 116//26 107//102
f 129//1 130//123 131//124
f 129//1 131//124 132//125
f 129//1 132//125 133//126
f 129//1 133//126 134//127
f 129//1 134//127 135//128
f 129//1 135//128 136//129
f 129//1 136//129 137//130
f 129//1 137//130 138//131
f 129//1 138//131 130//123
f 130//123 140//133 131//124
f 140//133 132//125 131//124
f 141//134 133//126 132//125
f 142//135 134//127 133//126
f 143//136 135//128 134//127
f 135//128 145//138 136//129
f 136//129 146//139 137//130
f 137//130 147//140 138//131
f 147//140 130//123 138//131
f 148//141 140//133 139//132
f 149//142 141//134 140//133
f 150//143 142//135 141//134
f 151//144 143//136 142//135
f 152//145 144//137 143//136
f 153//146 145//138 144//137
f 154//147 146//139 145//138
f 155//148 147//140 146//139
f 156//149 139//132 147//140
f 157//150 149//142 148//141
f 149//142 159//152 150//143
f 150//143 160//153 151//144
f 151//144 161//154 152//145
f 161//154 153//146 152//145
f 162//155 154//147 153//146
f 163//156 155//148 154//147
f 164//157 156//149 155//148
f 156//149 157//150 148//141
f 157//150 166//26 158//151
f 158//151 166//26 159//152
f 159//152 166//26 160//153
f 160//153 166//26 161//154
f 161//154 166//26 162//155
f 162//155 166//26 163//156
f 163//156 166//26 164//157
f 164//157 166//26 165//158
f 165//158 166//26 157//150
f 179//1 180//159 181//160
f 179//1 181//160 182//161
f 179//1 182//161 183//162
f 179//1 183//162 184//163
f 179//1 184//163 185//164
f 179//1 185//164 186//165
f 179//1 186//165 187//166
f 179//1 187//166 188//167
f 179//1 188//167 180//159
f 180//159 190//169 181//160
f 181//160 191//170 182//161
f 182//161 192//171 183//162
f 192//171 184//163 183//162
f 193//172 185//164 184//163
f 185//164 195//174 186//165
f 195//174 187//166 186//165
f 196//175 188//167 187//166
f 197//176 180//159 188//167
f 198//177 190//169 189//168
f 199//178 191//170 190//169
f 200//179 192//171 191//170
f 201//180 193//172 192//171
f 202//181 194//173 193//172
f 203//182 195//174 194//173
f 204//183 196//175 195//174
f 205//184 197//176 196//175
f 206//185 189//168 197//176
f 207//186 199//178 198//177
f 208//187 200//179 199//178
f 209//188 201//180 200//179
f 201//180 211//190 202//181
f 211//190 203//182 202//181
f 212//191 204//183 203//182
f 204//183 214//193 205//184
f 205//184 215//194 206//185
f 206//185 207//186 198//177
f 207//186 216//26 208//187
f 208//187 216//26 209//188
f 209//188 216//26 210//189
f 210//189 216//26 211//190
f 211//190 216//26 212//191
f 212//191 216//26 213//192
f 213//192 216//26 214//193
f 214//193 216//26 215//194
f 215//194 216//26 207//186
f 229//1 230//197 231//198
f 229//1 231//198 232//199
f 229//1 232//199 233//200
f 229//1 233//200 234//201
f 229//1 234//201 235//202
f 229//1 235//202 236//203
f 229//1 236//203 237//204
f 229//1 237//204 238//205
f 229//1 238//205 230//197
f 230//197 240//207 231//198
f 231//198 241//208 232//199
f 232//199 242//209 233//200
f 233//200 243//210 234//201
f 243//210 235//202 234//201
f 244//211 236//203 235//202
f 245//212 237//204 236//203
f 246//213 238//205 237//204
f 247//214 230//197 238//205
f 248//215 240//207 239//206
f 249//216 241//208 240//207
f 250//217 242//209 241//208
f 251//218 243//210 242//209
f 252//219 244//211 243//210
f 253//220 245//212 244//211
f 254//221 246//213 245//212
f 255//222 247//214 246//213
f 256//223 239//206 247//214
f 257//224 249//216 248//215
f 258//225 250//217 249//216
f 259//226 251//218 250//217
f 260//227 252//219 251//218
f 261//228 253//220 252//219
f 253//220 263//230 254//221
f 254//221 264//231 255//222
f 255//222 265//232 256//223
f 256//223 257//224 248//215
f 257//224 266//26 258//225
f 258//225 266//26 259//226
f 259//226 266//26 260//227
f 260//227 266//26 261//228
f 261//228 266//26 262//229
f 262//229 266//26 263//230
f 263//230 266//26 264//231
f 264//231 266//26 265//232
f 265//232 266//26 257//224
f 279//1 280//235 281//236
f 279//1 281//236 282//237
f 279//1 282//237 283//238
f 279//1 283//238 284//239
f 279//1 284//239 285//240
f 279//1 285//240 286//241
f 279//1 286//241 287//242
f 279//1 287//242 288//243
f 279//1 288//243 280//235
f 280//235 290//245 281//236
f 281//236 291//246 282//237
f 291//246 283//238 282//237
f 292//247 284//239 283//238
f 284//239 294//249 285//240
f 285//240 295//250 286//241
f 286//241 296//251 287//242
f 296//251 288//243 287//242
f 297//252 280//235 288//243
f 298//253 290//245 289//244
f 299//254 291//246 290//245
f 300//255 292//247 291//246
f 301//256 293//248 292//247
f 302//257 294//249 293//248
f 303//258 295//250 294//249
f 304//259 296//251 295//250
f 305//260 297//252 296//251
f 306//261 289//244 297//252
f 307//262 299//254 298//253
f 308//263 300//255 299//254
f 300//255 310//265 301//256
f 301//256 311//266 302//257
f 302//257 312//267 303//258
f 312//267 304//259 303//258
f 313//268 305//260 304//259
f 305//260 315//270 306//261
f 306//261 307//262 298//253
f 307//262 316//26 308//263
f 308//263 316//26 309//264
f 309//264 316//26 310//265
f 310//265 316//26 311//266
f 311//266 316//26 312//267
f 312//267 316//26 313//268
f 313//268 316//26 314//269
f 314//269 316//26 315//270
f 315//270 316//26 307//262
f 80//75 89//84 90//85
f 90//85 91//86 82//77
f 82//77 91//86 92//87
f 83//78 92//87 93//88
f 84//79 93//88 94//89
f 94//89 95//90 86//81
f 95//90 96//91 87//82
f 87//82 96//91 97//92
f 97//92 89//84 80//75
f 98//93 99//94 90//85
f 99//94 100//95 91//86
f 100//95 101//96 92//87
f 101//96 102//97 93//88
f 102//97 103//98 94//89
f 103//98 104//99 95//90
f 104//99 105//100 96//91
f 105//100 106//101 97//92
f 106//101 98//93 89//84
f 107//102 108//103 99//94
f 99//94 108//103 109//104
f 109//104 110//105 101//96
f 110//105 111//106 102//97
f 111//106 112//107 103//98
f 103//98 112//107 113//108
f 104//99 113//108 114//109
f 114//109 115//110 106//101
f 106//101 115//110 107//102
f 130//123 139//132 140//133
f 140//133 141//134 132//125
f 141//134 142//135 133//126
f 142//135 143//136 134//127
f 143//136 144//137 135//128
f 135//128 144//137 145//138
f 136//129 145//138 146//139
f 137//130 146//139 147//140
f 147//140 139//132 130//123
f 148//141 149//142 140//133
f 149//142 150//143 141//134
f 150//143 151//144 142//135
f 151//144 152//145 143//136
f 152//145 153//146 144//137
f 153//146 154//147 145//138
f 154//147 155//148 146//139
f 155//148 156//149 147//140
f 156//149 148//141 139//132
f 157//150 158//151 149//142
f 149//142 158//151 159//152
f 150//143 159//152 160//153
f 151//144 160//153 161//154
f 161//154 162//155 153//146
f 162//155 163//156 154//147
f 163//156 164//157 155//148
f 164//157 165//158 156//149
f 156//149 165//158 157//150
f 180//159 189//168 190//169
f 181//160 190//169 191//170
f 182//161 191//170 192//171
f 192//171 193//172 184//163
f 193//172 194//173 185//164
f 185//164 194//173 195//174
f 195//174 196//175 187//166
f 196//175 197//176 188//167
f 197//176 189//168 180//159
f 198//177 199//178 190//169
f 199//178 200//179 191//170
f 200//179 201//180 192//171
f 201//180 202//181 193//172
f 202//181 203//182 194//173
f 203//182 204//183 195//174
f 204//183 205//184 196//175
f 205//184 206//185 197//176
f 206//185 198//177 189//168
f 207//186 208//187 199//178
f 208//187 209//188 200//179
f 209//188 210//189 201//180
f 201//180 210//189 211//190
f 211//190 212//191 203//182
f 212//191 213//192 204//183
f 204//183 213//192 214//193
f 205//184 214//193 215//194
f 206//185 215//194 207//186
f 230//197 239//206 240//207
f 231//198 240//207 241//208
f 232//199 241//208 242//209
f 233//200 242//209 243//210
f 243//210 244//211 235//202
f 244//211 245//212 236//203
f 245//212 246//213 237//204
f 246//213 247//214 238//205
f 247//214 239//206 230//197
f 248//215 249//216 240//207
f 249//216 250//217 241//208
f 250//217 251//218 242//209
f 251//218 252//219 243//210
f 252//219 253//220 244//211
f 253//220 254//221 245//212
f 254//221 255//222 246//213
f 255//222 256//223 247//214
f 256//223 248//215 239//206
f 257//224 258//225 249//216
f 258//225 259//226 250//217
f 259//226 260//227 251//218
f 260//227 261//228 252//219
f 261//228 262//229 253//220
f 253//220 262//229 263//230
f 254//221 263//230 264//231
f 255//222 264//231 265//232
f 256//223 265//232 257//224
f 280//235 289//244 290//245
f 281//236 290//245 291//246
f 291//246 292//247 283//238
f 292//247 293//248 284//239
f 284//239 293//248 294//249
f 285//240 294//249 295//250
f 286//241 295//250 296//251
f 296//251 297//252 288//243
f 297//252 289//244 280//235
f 298//253 299//254 290//245
f 299//254 300//255 291//246
f 300//255 301//256 292//247
f 301//256 302//257 293//248
f 302//257 303//258 294//249
f 303//258 304//259 295//250
f 304//259 305//260 296//251
f 305//260 306//261 297//252
f 306//261 298//253 289//244
f 307//262 308//263 299//254
f 308//263 309//264 300//255
f 300//255 309//264 310//265
f 301//256 310//265 311//266
f 302//257 311//266 312//267
f 312//267 313//268 304//259
f 313//268 314//269 305//260
f 305//260 314//269 315//270
f 306//261 315//270 307//262
usemtl verdant_anoxic
f 125//119 121//115 117//111
f 120//114 124//118 128//122
f 119//113 118//112 117//111
f 121//115 120//114 119//113
f 123//117 122//116 121//115
f 125//119 124//118 123//117
f 127//121 126//120 125//119
f 117//111 128//122 127//121
f 175//119 171//115 167//111
f 170//114 174//118 178//122
f 169//113 168//112 167//111
f 171//115 170//114 169//113
f 173//117 172//116 171//115
f 175//119 174//118 173//117
f 177//121 176//120 175//119
f 167//111 178//122 177//121
f 225//195 221//115 217//111
f 220//114 224//118 228//196
f 219//113 218//112 217//111
f 221//115 220//114 219//113
f 223//117 222//116 221//115
f 225//195 224//118 223//117
f 227//121 226//120 225//195
f 217//111 228//196 227//121
f 275//195 271//234 267//111
f 270//233 274//118 278//196
f 269//113 268//112 267//111
f 271//234 270//233 269//113
f 273//117 272//116 271//234
f 275//195 274//118 273//117
f 277//121 276//120 275//195
f 267//111 278//196 277//121
f 325//119 321//115 317//111
f 320//114 324//118 328//122
f 319//113 318//112 317//111
f 321//115 320//114 319//113
f 323//117 322//116 321//115
f 325//119 324//118 323//117
f 327//121 326//120 325//119
f 317//111 328//122 327//121
f 117//111 127//121 125//119
f 125//119 123//117 121//115
f 121//115 119//113 117//111
f 128//122 118//112 120//114
f 120//114 122//116 124//118
f 124//118 126//120 128//122
f 119//113 120//114 118//112
f 121//115 122//116 120//114
f 123//117 124//118 122//116
f 125//119 126//120 124//118
f 127//121 128//122 126//120
f 117//111 118//112 128//122
f 167//111 177//121 175//119
f 175//119 173//117 171//115
f 171//115 169//113 167//111
f 178//122 168//112 170//114
f 170//114 172//116 174//118
f 174//118 176//120 178//122
f 169//113 170//114 168//112
f 171//115 172//116 170//114
f 173//117 174//118 172//116
f 175//119 176//120 174//118
f 177//121 178//122 176//120
f 167//111 168//112 178//122
f 217//111 227//121 225//195
f 225//195 223//117 221//115
f 221//115 219//113 217//111
f 228//196 218//112 220//114
f 220//114 222//116 224//118
f 224//118 226//120 228//196
f 219//113 220//114 218//112
f 221//115 222//116 220//114
f 223//117 224//118 222//116
f 225//195 226//120 224//118
f 227//121 228//196 226//120
f 217//111 218//112 228//196
f 267//111 277//121 275//195
f 275//195 273//117 271//234
f 271//234 269//113 267//111
f 278//196 268//112 270//233
f 270//233 272//116 274//118
f 274//118 276//120 278//196
f 269//113 270//233 268//112
f 271//234 272//116 270//233
f 273//117 274//118 272//116
f 275//195 276//120 274//118
f 277//121 278//196 276//120
f 267//111 268//112 278//196
f 317//111 327//121 325//119
f 325//119 323//117 321//115
f 321//115 319//113 317//111
f 328//122 318//112 320//114
f 320//114 322//116 324//118
f 324//118 326//120 328//122
f 319//113 320//114 318//112
f 321//115 322//116 320//114
f 323//117 324//118 322//116
f 325//119 326//120 324//118
f 327//121 328//122 326//120
f 317//111 318//112 328//122
