# Blender 5.2.1 LTS
# www.blender.org
mtllib boulder_b.mtl
o boulder_b
v 0.000000 0.000000 0.000000
v 0.440840 0.210080 -0.000000
v 0.337700 0.210080 0.264470
v 0.076550 0.210080 0.405200
v -0.220420 0.210080 0.356330
v -0.414250 0.210080 0.140720
v -0.414250 0.210080 -0.140720
v -0.220420 0.210080 -0.356330
v 0.076550 0.210080 -0.405200
v 0.337700 0.210080 -0.264470
v 0.713290 0.760080 -0.000000
v 0.546410 0.760080 0.427930
v 0.123860 0.760080 0.655630
v -0.356650 0.760080 0.576550
v -0.670280 0.760080 0.227700
v -0.670280 0.760080 -0.227700
v -0.356650 0.760080 -0.576550
v 0.123860 0.760080 -0.655630
v 0.546410 0.760080 -0.427930
v 0.713290 1.439920 -0.000000
v 0.546410 1.439920 0.427930
v 0.123860 1.439920 0.655630
v -0.356650 1.439920 0.576550
v -0.670280 1.439920 0.227700
v -0.670280 1.439920 -0.227700
v -0.356650 1.439920 -0.576550
v 0.123860 1.439920 -0.655630
v 0.546410 1.439920 -0.427930
v 0.440840 1.989920 -0.000000
v 0.337700 1.989920 0.264470
v 0.076550 1.989920 0.405200
v -0.220420 1.989920 0.356330
v -0.414250 1.989920 0.140720
v -0.414250 1.989920 -0.140720
v -0.220420 1.989920 -0.356330
v 0.076550 1.989920 -0.405200
v 0.337700 1.989920 -0.264470
v 0.000000 2.200000 -0.000000
vn 0.4243 -0.8903 0.1655
vn 0.2236 -0.8819 0.4150
vn -0.0774 -0.8791 0.4704
vn -0.3443 -0.8863 0.3096
vn -0.4523 -0.8919 -0.0000
vn -0.3443 -0.8863 -0.3096
vn -0.0774 -0.8791 -0.4704
vn 0.2236 -0.8819 -0.4150
vn 0.4243 -0.8903 -0.1655
vn 0.8459 -0.4190 0.3299
vn 0.4340 -0.4040 0.8053
vn -0.1489 -0.3991 0.9047
vn -0.6777 -0.4118 0.6092
vn -0.9066 -0.4220 -0.0000
vn -0.6777 -0.4118 -0.6092
vn -0.1489 -0.3991 -0.9047
vn 0.4340 -0.4040 -0.8053
vn 0.8459 -0.4190 -0.3299
vn 0.9317 -0.0000 0.3633
vn 0.4744 -0.0000 0.8803
vn -0.1624 -0.0000 0.9867
vn -0.7436 -0.0000 0.6686
vn -1.0000 -0.0000 -0.0000
vn -0.7436 -0.0000 -0.6686
vn -0.1624 -0.0000 -0.9867
vn 0.4744 -0.0000 -0.8803
vn 0.9317 -0.0000 -0.3633
vn 0.8459 0.4190 0.3299
vn 0.4339 0.4040 0.8053
vn -0.1489 0.3991 0.9047
vn -0.6777 0.4118 0.6092
vn -0.9066 0.4220 -0.0000
vn -0.6777 0.4118 -0.6092
vn -0.1489 0.3991 -0.9047
vn 0.4339 0.4040 -0.8053
vn 0.8459 0.4190 -0.3299
vn 0.4243 0.8903 0.1655
vn 0.2236 0.8819 0.4150
vn -0.0774 0.8791 0.4704
vn -0.3443 0.8863 0.3096
vn -0.4523 0.8919 -0.0000
vn -0.3443 0.8863 -0.3096
vn -0.0774 0.8791 -0.4704
vn 0.2236 0.8819 -0.4150
vn 0.4243 0.8903 -0.1655
vn 0.4339 -0.4040 0.8053
vn 0.4339 -0.4040 -0.8053
vn 0.4340 0.4040 0.8053
vn 0.4340 0.4040 -0.8053
s 0
usemtl verdant_rock
f 1//1 2//1 3//1
f 1//2 3//2 4//2
f 1//3 4//3 5//3
f 1//4 5//4 6//4
f 1//5 6//5 7//5
f 1//6 7//6 8//6
f 1//7 8//7 9//7
f 1//8 9//8 10//8
f 1//9 10//9 2//9
f 2//10 12//10 3//10
f 3//11 13//11 4//11
f 13//12 5//12 4//12
f 14//13 6//13 5//13
f 15//14 7//14 6//14
f 7//15 17//15 8//15
f 8//16 18//16 9//16
f 18//17 10//17 9//17
f 19//18 2//18 10//18
f 20//19 12//19 11//19
f 21//20 13//20 12//20
f 22//21 14//21 13//21
f 23//22 15//22 14//22
f 24//23 16//23 15//23
f 25//24 17//24 16//24
f 26//25 18//25 17//25
f 27//26 19//26 18//26
f 28//27 11//27 19//27
f 29//28 21//28 20//28
f 30//29 22//29 21//29
f 22//30 32//30 23//30
f 23//31 33//31 24//31
f 24//32 34//32 25//32
f 34//33 26//33 25//33
f 35//34 27//34 26//34
f 27//35 37//35 28//35
f 28//36 29//36 20//36
f 29//37 38//37 30//37
f 30//38 38//38 31//38
f 31//39 38//39 32//39
f 32//40 38//40 33//40
f 33//41 38//41 34//41
f 34//42 38//42 35//42
f 35//43 38//43 36//43
f 36//44 38//44 37//44
f 37//45 38//45 29//45
f 2//10 11//10 12//10
f 3//46 12//46 13//46
f 13//12 14//12 5//12
f 14//13 15//13 6//13
f 15//14 16//14 7//14
f 7//15 16//15 17//15
f 8//16 17//16 18//16
f 18//47 19//47 10//47
f 19//18 11//18 2//18
f 20//19 21//19 12//19
f 21//20 22//20 13//20
f 22//21 23//21 14//21
f 23//22 24//22 15//22
f 24//23 25//23 16//23
f 25//24 26//24 17//24
f 26//25 27//25 18//25
f 27//26 28//26 19//26
f 28//27 20//27 11//27
f 29//28 30//28 21//28
f 30//48 31//48 22//48
f 22//30 31//30 32//30
f 23//31 32//31 33//31
f 24//32 33//32 34//32
f 34//33 35//33 26//33
f 35//34 36//34 27//34
f 27//49 36//49 37//49
f 28//36 37//36 29//36
