# Blender 5.2.1 LTS
# www.blender.org
mtllib boulder_c.mtl
o boulder_c
v 0.000000 0.000000 0.000000
v 0.822900 0.085940 -0.000000
v 0.630380 0.085940 0.415600
v 0.142890 0.085940 0.636740
v -0.411450 0.085940 0.559940
v -0.773270 0.085940 0.221140
v -0.773270 0.085940 -0.221140
v -0.411450 0.085940 -0.559940
v 0.142890 0.085940 -0.636740
v 0.630380 0.085940 -0.415600
v 1.331480 0.310940 -0.000000
v 1.019970 0.310940 0.672460
v 0.231210 0.310940 1.030270
v -0.665740 0.310940 0.906000
v -1.251180 0.310940 0.357810
v -1.251180 0.310940 -0.357810
v -0.665740 0.310940 -0.906000
v 0.231210 0.310940 -1.030270
v 1.019970 0.310940 -0.672460
v 1.331480 0.589060 -0.000000
v 1.019970 0.589060 0.672460
v 0.231210 0.589060 1.030270
v -0.665740 0.589060 0.906000
v -1.251180 0.589060 0.357810
v -1.251180 0.589060 -0.357810
v -0.665740 0.589060 -0.906000
v 0.231210 0.589060 -1.030270
v 1.019970 0.589060 -0.672460
v 0.822900 0.814060 -0.000000
v 0.630380 0.814060 0.415600
v 0.142890 0.814060 0.636740
v -0.411450 0.814060 0.559940
v -0.773270 0.814060 0.221140
v -0.773270 0.814060 -0.221140
v -0.411450 0.814060 -0.559940
v 0.142890 0.814060 -0.636740
v 0.630380 0.814060 -0.415600
v 0.000000 0.900000 -0.000000
vn 0.1038 -0.9934 0.0481
vn 0.0551 -0.9911 0.1214
vn -0.0191 -0.9903 0.1379
vn -0.0845 -0.9923 0.0902
vn -0.1105 -0.9939 -0.0000
vn -0.0845 -0.9923 -0.0902
vn -0.0191 -0.9903 -0.1379
vn 0.0551 -0.9911 -0.1214
vn 0.1038 -0.9934 -0.0481
vn 0.3977 -0.8989 0.1842
vn 0.2045 -0.8688 0.4509
vn -0.0702 -0.8591 0.5070
vn -0.3190 -0.8844 0.3406
vn -0.4260 -0.9047 -0.0000
vn -0.3190 -0.8844 -0.3406
vn -0.0702 -0.8591 -0.5070
vn 0.2045 -0.8688 -0.4509
vn 0.3977 -0.8989 -0.1842
vn 0.9074 -0.0000 0.4203
vn 0.4131 -0.0000 0.9107
vn -0.1372 -0.0000 0.9905
vn -0.6835 -0.0000 0.7299
vn -1.0000 -0.0000 -0.0000
vn -0.6835 -0.0000 -0.7299
vn -0.1372 -0.0000 -0.9905
vn 0.4131 -0.0000 -0.9107
vn 0.9074 -0.0000 -0.4203
vn 0.3977 0.8989 0.1842
vn 0.2045 0.8688 0.4509
vn -0.0702 0.8591 0.5070
vn -0.3190 0.8844 0.3406
vn -0.4260 0.9047 -0.0000
vn -0.3190 0.8844 -0.3406
vn -0.0702 0.8591 -0.5070
vn 0.2045 0.8688 -0.4509
vn 0.3977 0.8989 -0.1842
vn 0.1038 0.9934 0.0481
vn 0.0551 0.9911 0.1214
vn -0.0191 0.9903 0.1379
vn -0.0845 0.9923 0.0902
vn -0.1105 0.9939 -0.0000
vn -0.0845 0.9923 -0.0902
vn -0.0191 0.9903 -0.1379
vn 0.0551 0.9911 -0.1214
vn 0.1038 0.9934 -0.0481
s 0
usemtl verdant_rock
f 1//1 2//1 3//1
f 1//2 3//2 4//2
f 1//3 4//3 5//3
f 1//4 5//4 6//4
f 1//5 6//5 7//5
f 1//6 7//6 8//6
f 1//7 8//7 9//7
f 1//8 9//8 10//8
f 1//9 10//9 2//9
f 2//10 12//10 3//10
f 3//11 13//11 4//11
f 13//12 5//12 4//12
f 14//13 6//13 5//13
f 15//14 7//14 6//14
f 7//15 17//15 8//15
f 8//16 18//16 9//16
f 18//17 10//17 9//17
f 19//18 2//18 10//18
f 20//19 12//19 11//19
f 21//20 13//20 12//20
f 22//21 14//21 13//21
f 23//22 15//22 14//22
f 24//23 16//23 15//23
f 25//24 17//24 16//24
f 26//25 18//25 17//25
f 27//26 19//26 18//26
f 28//27 11//27 19//27
f 29//28 21//28 20//28
f 30//29 22//29 21//29
f 22//30 32//30 23//30
f 23//31 33//31 24//31
f 24//32 34//32 25//32
f 34//33 26//33 25//33
f 35//34 27//34 26//34
f 27//35 37//35 28//35
f 28//36 29//36 20//36
f 29//37 38//37 30//37
f 30//38 38//38 31//38
f 31//39 38//39 32//39
f 32//40 38//40 33//40
f 33//41 38//41 34//41
f 34//42 38//42 35//42
f 35//43 38//43 36//43
f 36//44 38//44 37//44
f 37//45 38//45 29//45
f 2//10 11//10 12//10
f 3//11 12//11 13//11
f 13//12 14//12 5//12
f 14//13 15//13 6//13
f 15//14 16//14 7//14
f 7//15 16//15 17//15
f 8//16 17//16 18//16
f 18//17 19//17 10//17
f 19//18 11//18 2//18
f 20//19 21//19 12//19
f 21//20 22//20 13//20
f 22//21 23//21 14//21
f 23//22 24//22 15//22
f 24//23 25//23 16//23
f 25//24 26//24 17//24
f 26//25 27//25 18//25
f 27//26 28//26 19//26
f 28//27 20//27 11//27
f 29//28 30//28 21//28
f 30//29 31//29 22//29
f 22//30 31//30 32//30
f 23//31 32//31 33//31
f 24//32 33//32 34//32
f 34//33 35//33 26//33
f 35//34 36//34 27//34
f 27//35 36//35 37//35
f 28//36 37//36 29//36
