# Blender 5.2.1 LTS
# www.blender.org
mtllib carbonate_shelf_a.mtl
o carbonate_shelf_a
v -2.200000 0.000000 0.100000
v -0.432230 0.058580 0.100000
v -0.634720 0.058580 0.625770
v -1.195790 0.058580 1.031100
v -1.986920 0.058580 1.223120
v -2.826860 0.058580 1.157850
v -3.523190 0.058580 0.850240
v -3.916400 0.058580 0.370750
v -3.916400 0.058580 -0.170750
v -3.523190 0.058580 -0.650240
v -2.826860 0.058580 -0.957850
v -1.986920 0.058580 -1.023120
v -1.195790 0.058580 -0.831100
v -0.634720 0.058580 -0.425770
v 0.300000 0.200000 0.100000
v 0.013640 0.200000 0.843560
v -0.779840 0.200000 1.416770
v -1.898660 0.200000 1.688330
v -3.086510 0.200000 1.596030
v -4.071280 0.200000 1.161000
v -4.627350 0.200000 0.482910
v -4.627350 0.200000 -0.282910
v -4.071280 0.200000 -0.961000
v -3.086510 0.200000 -1.396030
v -1.898660 0.200000 -1.488330
v -0.779840 0.200000 -1.216770
v 0.013640 0.200000 -0.643560
v -0.432230 0.341420 0.100000
v -0.634720 0.341420 0.625770
v -1.195790 0.341420 1.031100
v -1.986920 0.341420 1.223120
v -2.826860 0.341420 1.157850
v -3.523190 0.341420 0.850240
v -3.916400 0.341420 0.370750
v -3.916400 0.341420 -0.170750
v -3.523190 0.341420 -0.650240
v -2.826860 0.341420 -0.957850
v -1.986920 0.341420 -1.023120
v -1.195790 0.341420 -0.831100
v -0.634720 0.341420 -0.425770
v -2.200000 0.400000 0.100000
v 0.200000 0.220000 -0.350000
v 2.250610 0.287370 -0.350000
v 2.015720 0.287370 0.241500
v 1.364880 0.287370 0.697490
v 0.447170 0.287370 0.913510
v -0.527160 0.287370 0.840080
v -1.334900 0.287370 0.494020
v -1.791020 0.287370 -0.045400
v -1.791020 0.287370 -0.654600
v -1.334900 0.287370 -1.194020
v -0.527160 0.287370 -1.540080
v 0.447170 0.287370 -1.613510
v 1.364880 0.287370 -1.397490
v 2.015720 0.287370 -0.941500
v 3.100000 0.450000 -0.350000
v 2.767820 0.450000 0.486500
v 1.847390 0.450000 1.131370
v 0.549560 0.450000 1.436880
v -0.828350 0.450000 1.333030
v -1.970680 0.450000 0.843620
v -2.615730 0.450000 0.080770
v -2.615730 0.450000 -0.780770
v -1.970680 0.450000 -1.543620
v -0.828350 0.450000 -2.033030
v 0.549560 0.450000 -2.136880
v 1.847390 0.450000 -1.831370
v 2.767820 0.450000 -1.186500
v 2.250610 0.612630 -0.350000
v 2.015720 0.612630 0.241500
v 1.364880 0.612630 0.697490
v 0.447170 0.612630 0.913510
v -0.527160 0.612630 0.840080
v -1.334900 0.612630 0.494020
v -1.791020 0.612630 -0.045400
v -1.791020 0.612630 -0.654600
v -1.334900 0.612630 -1.194020
v -0.527160 0.612630 -1.540080
v 0.447170 0.612630 -1.613510
v 1.364880 0.612630 -1.397490
v 2.015720 0.612630 -0.941500
v 0.200000 0.680000 -0.350000
v 2.300000 0.430000 0.400000
v 3.572790 0.482720 0.400000
v 3.427000 0.482720 0.810760
v 3.023030 0.482720 1.127420
v 2.453420 0.482720 1.277440
v 1.848660 0.482720 1.226450
v 1.347300 0.482720 0.986120
v 1.064190 0.482720 0.611530
v 1.064190 0.482720 0.188470
v 1.347300 0.482720 -0.186120
v 1.848660 0.482720 -0.426450
v 2.453420 0.482720 -0.477440
v 3.023030 0.482720 -0.327420
v 3.427000 0.482720 -0.010760
v 4.100000 0.610000 0.400000
v 3.893820 0.610000 0.980900
v 3.322520 0.610000 1.428730
v 2.516970 0.610000 1.640890
v 1.661710 0.610000 1.568770
v 0.952680 0.610000 1.228900
v 0.552300 0.610000 0.699140
v 0.552300 0.610000 0.100860
v 0.952680 0.610000 -0.428900
v 1.661710 0.610000 -0.768770
v 2.516970 0.610000 -0.840890
v 3.322520 0.610000 -0.628730
v 3.893820 0.610000 -0.180900
v 3.572790 0.737280 0.400000
v 3.427000 0.737280 0.810760
v 3.023030 0.737280 1.127420
v 2.453420 0.737280 1.277440
v 1.848660 0.737280 1.226450
v 1.347300 0.737280 0.986120
v 1.064190 0.737280 0.611530
v 1.064190 0.737280 0.188470
v 1.347300 0.737280 -0.186120
v 1.848660 0.737280 -0.426450
v 2.453420 0.737280 -0.477440
v 3.023030 0.737280 -0.327420
v 3.427000 0.737280 -0.010760
v 2.300000 0.790000 0.400000
v -0.700000 0.520000 0.550000
v 0.572790 0.566860 0.550000
v 0.427000 0.566860 0.878610
v 0.023030 0.566860 1.131940
v -0.546580 0.566860 1.251950
v -1.151340 0.566860 1.211160
v -1.652700 0.566860 1.018900
v -1.935810 0.566860 0.719220
v -1.935810 0.566860 0.380780
v -1.652700 0.566860 0.081100
v -1.151340 0.566860 -0.111160
v -0.546580 0.566860 -0.151950
v 0.023030 0.566860 -0.031940
v 0.427000 0.566860 0.221390
v 1.100000 0.680000 0.550000
v 0.893820 0.680000 1.014720
v 0.322520 0.680000 1.372980
v -0.483030 0.680000 1.542710
v -1.338290 0.680000 1.485020
v -2.047320 0.680000 1.213120
v -2.447700 0.680000 0.789320
v -2.447700 0.680000 0.310680
v -2.047320 0.680000 -0.113120
v -1.338290 0.680000 -0.385020
v -0.483030 0.680000 -0.442710
v 0.322520 0.680000 -0.272980
v 0.893820 0.680000 0.085280
v 0.572790 0.793140 0.550000
v 0.427000 0.793140 0.878610
v 0.023030 0.793140 1.131940
v -0.546580 0.793140 1.251950
v -1.151340 0.793140 1.211160
v -1.652700 0.793140 1.018900
v -1.935810 0.793140 0.719220
v -1.935810 0.793140 0.380780
v -1.652700 0.793140 0.081100
v -1.151340 0.793140 -0.111160
v -0.546580 0.793140 -0.151950
v 0.023030 0.793140 -0.031940
v 0.427000 0.793140 0.221390
v -0.700000 0.840000 0.550000
v -2.800000 0.100000 -0.700000
v -2.559580 0.193730 -0.700000
v -2.630000 0.193730 -0.530000
v -2.800000 0.193730 -0.459580
v -2.970000 0.193730 -0.530000
v -3.040420 0.193730 -0.700000
v -2.970000 0.193730 -0.870000
v -2.800000 0.193730 -0.940420
v -2.630000 0.193730 -0.870000
v -2.460000 0.420000 -0.700000
v -2.559580 0.420000 -0.459580
v -2.800000 0.420000 -0.360000
v -3.040420 0.420000 -0.459580
v -3.140000 0.420000 -0.700000
v -3.040420 0.420000 -0.940420
v -2.800000 0.420000 -1.040000
v -2.559580 0.420000 -0.940420
v -2.559580 0.646270 -0.700000
v -2.630000 0.646270 -0.530000
v -2.800000 0.646270 -0.459580
v -2.970000 0.646270 -0.530000
v -3.040420 0.646270 -0.700000
v -2.970000 0.646270 -0.870000
v -2.800000 0.646270 -0.940420
v -2.630000 0.646270 -0.870000
v -2.800000 0.740000 -0.700000
v -1.200000 0.100000 0.800000
v -1.016150 0.193730 0.800000
v -1.070000 0.193730 0.930000
v -1.200000 0.193730 0.983850
v -1.330000 0.193730 0.930000
v -1.383850 0.193730 0.800000
v -1.330000 0.193730 0.670000
v -1.200000 0.193730 0.616150
v -1.070000 0.193730 0.670000
v -0.940000 0.420000 0.800000
v -1.016150 0.420000 0.983850
v -1.200000 0.420000 1.060000
v -1.383850 0.420000 0.983850
v -1.460000 0.420000 0.800000
v -1.383850 0.420000 0.616150
v -1.200000 0.420000 0.540000
v -1.016150 0.420000 0.616150
v -1.016150 0.646270 0.800000
v -1.070000 0.646270 0.930000
v -1.200000 0.646270 0.983850
v -1.330000 0.646270 0.930000
v -1.383850 0.646270 0.800000
v -1.330000 0.646270 0.670000
v -1.200000 0.646270 0.616150
v -1.070000 0.646270 0.670000
v -1.200000 0.740000 0.800000
v 0.600000 0.100000 -0.800000
v 0.896980 0.193730 -0.800000
v 0.810000 0.193730 -0.590000
v 0.600000 0.193730 -0.503020
v 0.390000 0.193730 -0.590000
v 0.303020 0.193730 -0.800000
v 0.390000 0.193730 -1.010000
v 0.600000 0.193730 -1.096980
v 0.810000 0.193730 -1.010000
v 1.020000 0.420000 -0.800000
v 0.896980 0.420000 -0.503020
v 0.600000 0.420000 -0.380000
v 0.303020 0.420000 -0.503020
v 0.180000 0.420000 -0.800000
v 0.303020 0.420000 -1.096980
v 0.600000 0.420000 -1.220000
v 0.896980 0.420000 -1.096980
v 0.896980 0.646270 -0.800000
v 0.810000 0.646270 -0.590000
v 0.600000 0.646270 -0.503020
v 0.390000 0.646270 -0.590000
v 0.303020 0.646270 -0.800000
v 0.390000 0.646270 -1.010000
v 0.600000 0.646270 -1.096980
v 0.810000 0.646270 -1.010000
v 0.600000 0.740000 -0.800000
v 2.100000 0.100000 0.650000
v 2.312130 0.193730 0.650000
v 2.250000 0.193730 0.800000
v 2.100000 0.193730 0.862130
v 1.950000 0.193730 0.800000
v 1.887870 0.193730 0.650000
v 1.950000 0.193730 0.500000
v 2.100000 0.193730 0.437870
v 2.250000 0.193730 0.500000
v 2.400000 0.420000 0.650000
v 2.312130 0.420000 0.862130
v 2.100000 0.420000 0.950000
v 1.887870 0.420000 0.862130
v 1.800000 0.420000 0.650000
v 1.887870 0.420000 0.437870
v 2.100000 0.420000 0.350000
v 2.312130 0.420000 0.437870
v 2.312130 0.646270 0.650000
v 2.250000 0.646270 0.800000
v 2.100000 0.646270 0.862130
v 1.950000 0.646270 0.800000
v 1.887870 0.646270 0.650000
v 1.950000 0.646270 0.500000
v 2.100000 0.646270 0.437870
v 2.250000 0.646270 0.500000
v 2.100000 0.740000 0.650000
vn 0.0331 -0.9994 0.0128
vn 0.0255 -0.9990 0.0353
vn 0.0121 -0.9987 0.0498
vn -0.0041 -0.9986 0.0529
vn -0.0194 -0.9989 0.0438
vn -0.0302 -0.9992 0.0248
vn -0.0341 -0.9994 -0.0000
vn -0.0302 -0.9992 -0.0248
vn -0.0194 -0.9989 -0.0438
vn -0.0041 -0.9986 -0.0529
vn 0.0121 -0.9987 -0.0498
vn 0.0255 -0.9990 -0.0353
vn 0.0331 -0.9994 -0.0128
vn 0.1891 -0.9792 0.0728
vn 0.1443 -0.9692 0.1997
vn 0.0676 -0.9581 0.2784
vn -0.0229 -0.9553 0.2947
vn -0.1088 -0.9631 0.2463
vn -0.1717 -0.9750 0.1408
vn -0.1951 -0.9808 -0.0000
vn -0.1717 -0.9750 -0.1408
vn -0.1088 -0.9631 -0.2463
vn -0.0229 -0.9553 -0.2947
vn 0.0676 -0.9581 -0.2784
vn 0.1443 -0.9692 -0.1997
vn 0.1891 -0.9792 -0.0728
vn 0.1891 0.9792 0.0728
vn 0.1443 0.9692 0.1997
vn 0.0676 0.9581 0.2784
vn -0.0229 0.9553 0.2947
vn -0.1088 0.9631 0.2463
vn -0.1717 0.9750 0.1408
vn -0.1951 0.9808 -0.0000
vn -0.1717 0.9750 -0.1408
vn -0.1088 0.9631 -0.2463
vn -0.0229 0.9553 -0.2947
vn 0.0676 0.9581 -0.2784
vn 0.1443 0.9692 -0.1997
vn 0.1891 0.9792 -0.0728
vn 0.0331 0.9994 0.0128
vn 0.0255 0.9990 0.0353
vn 0.0121 0.9987 0.0498
vn -0.0041 0.9986 0.0529
vn -0.0194 0.9989 0.0438
vn -0.0302 0.9992 0.0248
vn -0.0341 0.9994 -0.0000
vn -0.0302 0.9992 -0.0248
vn -0.0194 0.9989 -0.0438
vn -0.0041 0.9986 -0.0529
vn 0.0121 0.9987 -0.0498
vn 0.0255 0.9990 -0.0353
vn 0.0331 0.9994 -0.0128
vn 0.0328 -0.9994 0.0130
vn 0.0253 -0.9990 0.0361
vn 0.0120 -0.9986 0.0509
vn -0.0041 -0.9985 0.0540
vn -0.0192 -0.9988 0.0448
vn -0.0299 -0.9992 0.0253
vn -0.0338 -0.9994 -0.0000
vn -0.0299 -0.9992 -0.0253
vn -0.0192 -0.9988 -0.0448
vn -0.0041 -0.9985 -0.0540
vn 0.0120 -0.9986 -0.0509
vn 0.0253 -0.9990 -0.0361
vn 0.0328 -0.9994 -0.0130
vn 0.1875 -0.9794 0.0745
vn 0.1430 -0.9685 0.2040
vn 0.0669 -0.9565 0.2841
vn -0.0227 -0.9534 0.3007
vn -0.1077 -0.9618 0.2515
vn -0.1702 -0.9748 0.1439
vn -0.1935 -0.9811 -0.0000
vn -0.1702 -0.9748 -0.1439
vn -0.1077 -0.9618 -0.2515
vn -0.0227 -0.9534 -0.3007
vn 0.0669 -0.9565 -0.2841
vn 0.1430 -0.9685 -0.2040
vn 0.1875 -0.9794 -0.0745
vn 0.1875 0.9794 0.0745
vn 0.1430 0.9685 0.2040
vn 0.0669 0.9565 0.2841
vn -0.0227 0.9534 0.3007
vn -0.1077 0.9618 0.2515
vn -0.1702 0.9748 0.1439
vn -0.1935 0.9811 -0.0000
vn -0.1702 0.9748 -0.1439
vn -0.1077 0.9618 -0.2515
vn -0.0227 0.9534 -0.3007
vn 0.0669 0.9565 -0.2841
vn 0.1430 0.9685 -0.2040
vn 0.1875 0.9794 -0.0745
vn 0.0328 0.9994 0.0130
vn 0.0253 0.9990 0.0361
vn 0.0120 0.9986 0.0509
vn -0.0041 0.9985 0.0540
vn -0.0192 0.9988 0.0448
vn -0.0299 0.9992 0.0253
vn -0.0338 0.9994 -0.0000
vn -0.0299 0.9992 -0.0253
vn -0.0192 0.9988 -0.0448
vn -0.0041 0.9985 -0.0540
vn 0.0120 0.9986 -0.0509
vn 0.0253 0.9990 -0.0361
vn 0.0328 0.9994 -0.0130
vn 0.0414 -0.9990 0.0147
vn 0.0319 -0.9987 0.0407
vn 0.0151 -0.9982 0.0573
vn -0.0051 -0.9981 0.0609
vn -0.0242 -0.9984 0.0505
vn -0.0377 -0.9989 0.0285
vn -0.0426 -0.9991 -0.0000
vn -0.0377 -0.9989 -0.0285
vn -0.0242 -0.9984 -0.0505
vn -0.0051 -0.9981 -0.0609
vn 0.0151 -0.9982 -0.0573
vn 0.0319 -0.9987 -0.0407
vn 0.0414 -0.9990 -0.0147
vn 0.2339 -0.9687 0.0830
vn 0.1782 -0.9574 0.2273
vn 0.0833 -0.9450 0.3164
vn -0.0282 -0.9419 0.3348
vn -0.1343 -0.9505 0.2801
vn -0.2122 -0.9640 0.1604
vn -0.2413 -0.9705 -0.0000
vn -0.2122 -0.9640 -0.1604
vn -0.1343 -0.9505 -0.2801
vn -0.0282 -0.9419 -0.3348
vn 0.0833 -0.9450 -0.3164
vn 0.1782 -0.9574 -0.2273
vn 0.2339 -0.9687 -0.0830
vn 0.2339 0.9687 0.0830
vn 0.1782 0.9574 0.2273
vn 0.0833 0.9450 0.3164
vn -0.0282 0.9419 0.3348
vn -0.1343 0.9505 0.2801
vn -0.2122 0.9640 0.1604
vn -0.2413 0.9705 -0.0000
vn -0.2122 0.9640 -0.1604
vn -0.1343 0.9505 -0.2801
vn -0.0282 0.9419 -0.3348
vn 0.0833 0.9450 -0.3164
vn 0.1782 0.9574 -0.2273
vn 0.2339 0.9687 -0.0830
vn 0.0414 0.9990 0.0147
vn 0.0319 0.9987 0.0407
vn 0.0151 0.9982 0.0573
vn -0.0051 0.9981 0.0609
vn -0.0242 0.9984 0.0505
vn -0.0377 0.9989 0.0285
vn -0.0426 0.9991 -0.0000
vn -0.0377 0.9989 -0.0285
vn -0.0242 0.9984 -0.0505
vn -0.0051 0.9981 -0.0609
vn 0.0151 0.9982 -0.0573
vn 0.0319 0.9987 -0.0407
vn 0.0414 0.9990 -0.0147
vn 0.0368 -0.9992 0.0163
vn 0.0283 -0.9986 0.0452
vn 0.0134 -0.9979 0.0637
vn -0.0046 -0.9977 0.0676
vn -0.0215 -0.9982 0.0561
vn -0.0335 -0.9989 0.0317
vn -0.0379 -0.9993 -0.0000
vn -0.0335 -0.9989 -0.0317
vn -0.0215 -0.9982 -0.0561
vn -0.0046 -0.9977 -0.0676
vn 0.0134 -0.9979 -0.0637
vn 0.0283 -0.9986 -0.0452
vn 0.0368 -0.9992 -0.0163
vn 0.2089 -0.9735 0.0927
vn 0.1580 -0.9548 0.2519
vn 0.0733 -0.9347 0.3477
vn -0.0248 -0.9298 0.3672
vn -0.1185 -0.9437 0.3090
vn -0.1890 -0.9656 0.1785
vn -0.2158 -0.9764 -0.0000
vn -0.1890 -0.9656 -0.1785
vn -0.1185 -0.9437 -0.3090
vn -0.0248 -0.9298 -0.3672
vn 0.0733 -0.9347 -0.3477
vn 0.1580 -0.9548 -0.2519
vn 0.2089 -0.9735 -0.0927
vn 0.2089 0.9735 0.0927
vn 0.1580 0.9548 0.2519
vn 0.0733 0.9347 0.3477
vn -0.0248 0.9298 0.3672
vn -0.1185 0.9437 0.3090
vn -0.1890 0.9656 0.1785
vn -0.2158 0.9764 -0.0000
vn -0.1890 0.9656 -0.1785
vn -0.1185 0.9437 -0.3090
vn -0.0248 0.9298 -0.3672
vn 0.0733 0.9347 -0.3477
vn 0.1580 0.9548 -0.2519
vn 0.2089 0.9735 -0.0927
vn 0.0368 0.9992 0.0163
vn 0.0283 0.9986 0.0452
vn 0.0134 0.9979 0.0637
vn -0.0046 0.9977 0.0676
vn -0.0215 0.9982 0.0561
vn -0.0335 0.9989 0.0317
vn -0.0379 0.9993 -0.0000
vn -0.0335 0.9989 -0.0317
vn -0.0215 0.9982 -0.0561
vn -0.0046 0.9977 -0.0676
vn 0.0134 0.9979 -0.0637
vn 0.0283 0.9986 -0.0452
vn 0.0368 0.9992 -0.0163
vn 0.3592 -0.9213 0.1488
vn 0.1488 -0.9213 0.3592
vn -0.1488 -0.9213 0.3592
vn -0.3592 -0.9213 0.1488
vn -0.3592 -0.9213 -0.1488
vn -0.1488 -0.9213 -0.3592
vn 0.1488 -0.9213 -0.3592
vn 0.3592 -0.9213 -0.1488
vn 0.8558 -0.3766 0.3545
vn 0.3545 -0.3766 0.8558
vn -0.3545 -0.3766 0.8558
vn -0.8558 -0.3766 0.3545
vn -0.8558 -0.3766 -0.3545
vn -0.3545 -0.3766 -0.8558
vn 0.3545 -0.3766 -0.8558
vn 0.8558 -0.3766 -0.3545
vn 0.8558 0.3767 0.3545
vn 0.3545 0.3767 0.8558
vn -0.3545 0.3767 0.8558
vn -0.8558 0.3767 0.3545
vn -0.8558 0.3767 -0.3545
vn -0.3545 0.3767 -0.8558
vn 0.3545 0.3767 -0.8558
vn 0.8558 0.3767 -0.3545
vn 0.3592 0.9213 0.1488
vn 0.1488 0.9213 0.3592
vn -0.1488 0.9213 0.3592
vn -0.3592 0.9213 0.1488
vn -0.3592 0.9213 -0.1488
vn -0.1488 0.9213 -0.3592
vn 0.1488 0.9213 -0.3592
vn 0.3592 0.9213 -0.1488
vn 0.4464 -0.8755 0.1849
vn 0.1849 -0.8755 0.4464
vn -0.1849 -0.8755 0.4464
vn -0.4464 -0.8755 0.1849
vn -0.4464 -0.8755 -0.1849
vn -0.1849 -0.8755 -0.4464
vn 0.1849 -0.8755 -0.4464
vn 0.4464 -0.8755 -0.1849
vn 0.8822 -0.2969 0.3654
vn 0.3654 -0.2969 0.8822
vn -0.3654 -0.2969 0.8822
vn -0.8822 -0.2969 0.3654
vn -0.8822 -0.2969 -0.3654
vn -0.3654 -0.2969 -0.8822
vn 0.3654 -0.2969 -0.8822
vn 0.8822 -0.2969 -0.3654
vn 0.8822 0.2969 0.3654
vn 0.3654 0.2969 0.8822
vn -0.3654 0.2969 0.8822
vn -0.8822 0.2969 0.3654
vn -0.8822 0.2969 -0.3654
vn -0.3654 0.2969 -0.8822
vn 0.3654 0.2969 -0.8822
vn 0.8822 0.2969 -0.3654
vn 0.4464 0.8755 0.1849
vn 0.1849 0.8755 0.4464
vn -0.1849 0.8755 0.4464
vn -0.4464 0.8755 0.1849
vn -0.4464 0.8755 -0.1849
vn -0.1849 0.8755 -0.4464
vn 0.1849 0.8755 -0.4464
vn 0.4464 0.8755 -0.1849
vn 0.2987 -0.9463 0.1237
vn 0.1237 -0.9463 0.2987
vn -0.1237 -0.9463 0.2987
vn -0.2987 -0.9463 0.1237
vn -0.2987 -0.9463 -0.1237
vn -0.1237 -0.9463 -0.2987
vn 0.1237 -0.9463 -0.2987
vn 0.2987 -0.9463 -0.1237
vn 0.8256 -0.4488 0.3420
vn 0.3420 -0.4488 0.8256
vn -0.3420 -0.4488 0.8256
vn -0.8256 -0.4488 0.3420
vn -0.8256 -0.4488 -0.3420
vn -0.3420 -0.4488 -0.8256
vn 0.3420 -0.4488 -0.8256
vn 0.8256 -0.4488 -0.3420
vn 0.8256 0.4489 0.3420
vn 0.3420 0.4489 0.8256
vn -0.3420 0.4489 0.8256
vn -0.8256 0.4489 0.3420
vn -0.8256 0.4489 -0.3420
vn -0.3420 0.4489 -0.8256
vn 0.3420 0.4489 -0.8256
vn 0.8256 0.4489 -0.3420
vn 0.2987 0.9463 0.1237
vn 0.1237 0.9463 0.2987
vn -0.1237 0.9463 0.2987
vn -0.2987 0.9463 0.1237
vn -0.2987 0.9463 -0.1237
vn -0.1237 0.9463 -0.2987
vn 0.1237 0.9463 -0.2987
vn 0.2987 0.9463 -0.1237
vn 0.3986 -0.9021 0.1651
vn 0.1651 -0.9021 0.3986
vn -0.1651 -0.9021 0.3986
vn -0.3986 -0.9021 0.1651
vn -0.3986 -0.9021 -0.1651
vn -0.1651 -0.9021 -0.3986
vn 0.1651 -0.9021 -0.3986
vn 0.3986 -0.9021 -0.1651
vn 0.8696 -0.3377 0.3602
vn 0.3602 -0.3377 0.8696
vn -0.3602 -0.3377 0.8696
vn -0.8696 -0.3377 0.3602
vn -0.8696 -0.3377 -0.3602
vn -0.3602 -0.3377 -0.8696
vn 0.3602 -0.3377 -0.8696
vn 0.8696 -0.3377 -0.3602
vn 0.8696 0.3377 0.3602
vn 0.3602 0.3377 0.8696
vn -0.3602 0.3377 0.8696
vn -0.8696 0.3377 0.3602
vn -0.8696 0.3377 -0.3602
vn -0.3602 0.3377 -0.8696
vn 0.3602 0.3377 -0.8696
vn 0.8696 0.3377 -0.3602
vn 0.3986 0.9021 0.1651
vn 0.1651 0.9021 0.3986
vn -0.1651 0.9021 0.3986
vn -0.3986 0.9021 0.1651
vn -0.3986 0.9021 -0.1651
vn -0.1651 0.9021 -0.3986
vn 0.1651 0.9021 -0.3986
vn 0.3986 0.9021 -0.1651
vn 0.8558 -0.3767 0.3545
vn 0.3545 -0.3767 0.8558
vn -0.3545 -0.3767 0.8558
vn -0.8558 -0.3767 0.3545
vn -0.8558 -0.3767 -0.3545
vn -0.3545 -0.3767 -0.8558
vn 0.3545 -0.3767 -0.8558
vn 0.8558 -0.3767 -0.3545
vn 0.8558 0.3766 0.3545
vn 0.3545 0.3766 0.8558
vn -0.3545 0.3766 0.8558
vn -0.8558 0.3766 0.3545
vn -0.8558 0.3766 -0.3545
vn -0.3545 0.3766 -0.8558
vn 0.3545 0.3766 -0.8558
vn 0.8558 0.3766 -0.3545
vn 0.8256 -0.4489 0.3420
vn 0.3420 -0.4489 0.8256
vn -0.3420 -0.4489 0.8256
vn -0.8256 -0.4489 0.3420
vn -0.8256 -0.4489 -0.3420
vn -0.3420 -0.4489 -0.8256
vn 0.3420 -0.4489 -0.8256
vn 0.8256 -0.4489 -0.3420
vn 0.8256 0.4488 0.3420
vn 0.3420 0.4488 0.8256
vn -0.3420 0.4488 0.8256
vn -0.8256 0.4488 0.3420
vn -0.8256 0.4488 -0.3420
vn -0.3420 0.4488 -0.8256
vn 0.3420 0.4488 -0.8256
vn 0.8256 0.4488 -0.3420
s 0
usemtl verdant_carbonate
f 1//1 2//1 3//1
f 1//2 3//2 4//2
f 1//3 4//3 5//3
f 1//4 5//4 6//4
f 1//5 6//5 7//5
f 1//6 7//6 8//6
f 1//7 8//7 9//7
f 1//8 9//8 10//8
f 1//9 10//9 11//9
f 1//10 11//10 12//10
f 1//11 12//11 13//11
f 1//12 13//12 14//12
f 1//13 14//13 2//13
f 2//14 16//14 3//14
f 3//15 17//15 4//15
f 4//16 18//16 5//16
f 18//17 6//17 5//17
f 19//18 7//18 6//18
f 20//19 8//19 7//19
f 21//20 9//20 8//20
f 9//21 23//21 10//21
f 10//22 24//22 11//22
f 11//23 25//23 12//23
f 25//24 13//24 12//24
f 26//25 14//25 13//25
f 27//26 2//26 14//26
f 28//27 16//27 15//27
f 29//28 17//28 16//28
f 30//29 18//29 17//29
f 18//30 32//30 19//30
f 19//31 33//31 20//31
f 20//32 34//32 21//32
f 34//33 22//33 21//33
f 35//34 23//34 22//34
f 36//35 24//35 23//35
f 37//36 25//36 24//36
f 25//37 39//37 26//37
f 26//38 40//38 27//38
f 27//39 28//39 15//39
f 28//40 41//40 29//40
f 29//41 41//41 30//41
f 30//42 41//42 31//42
f 31//43 41//43 32//43
f 32//44 41//44 33//44
f 33//45 41//45 34//45
f 34//46 41//46 35//46
f 35//47 41//47 36//47
f 36//48 41//48 37//48
f 37//49 41//49 38//49
f 38//50 41//50 39//50
f 39//51 41//51 40//51
f 40//52 41//52 28//52
f 42//53 43//53 44//53
f 42//54 44//54 45//54
f 42//55 45//55 46//55
f 42//56 46//56 47//56
f 42//57 47//57 48//57
f 42//58 48//58 49//58
f 42//59 49//59 50//59
f 42//60 50//60 51//60
f 42//61 51//61 52//61
f 42//62 52//62 53//62
f 42//63 53//63 54//63
f 42//64 54//64 55//64
f 42//65 55//65 43//65
f 43//66 57//66 44//66
f 44//67 58//67 45//67
f 45//68 59//68 46//68
f 59//69 47//69 46//69
f 60//70 48//70 47//70
f 61//71 49//71 48//71
f 49//72 63//72 50//72
f 50//73 64//73 51//73
f 51//74 65//74 52//74
f 52//75 66//75 53//75
f 66//76 54//76 53//76
f 67//77 55//77 54//77
f 68//78 43//78 55//78
f 69//79 57//79 56//79
f 70//80 58//80 57//80
f 71//81 59//81 58//81
f 59//82 73//82 60//82
f 60//83 74//83 61//83
f 61//84 75//84 62//84
f 75//85 63//85 62//85
f 76//86 64//86 63//86
f 77//87 65//87 64//87
f 78//88 66//88 65//88
f 66//89 80//89 67//89
f 67//90 81//90 68//90
f 68//91 69//91 56//91
f 69//92 82//92 70//92
f 70//93 82//93 71//93
f 71//94 82//94 72//94
f 72//95 82//95 73//95
f 73//96 82//96 74//96
f 74//97 82//97 75//97
f 75//98 82//98 76//98
f 76//99 82//99 77//99
f 77//100 82//100 78//100
f 78//101 82//101 79//101
f 79//102 82//102 80//102
f 80//103 82//103 81//103
f 81//104 82//104 69//104
f 83//105 84//105 85//105
f 83//106 85//106 86//106
f 83//107 86//107 87//107
f 83//108 87//108 88//108
f 83//109 88//109 89//109
f 83//110 89//110 90//110
f 83//111 90//111 91//111
f 83//112 91//112 92//112
f 83//113 92//113 93//113
f 83//114 93//114 94//114
f 83//115 94//115 95//115
f 83//116 95//116 96//116
f 83//117 96//117 84//117
f 84//118 98//118 85//118
f 85//119 99//119 86//119
f 86//120 100//120 87//120
f 100//121 88//121 87//121
f 101//122 89//122 88//122
f 102//123 90//123 89//123
f 103//124 91//124 90//124
f 91//125 105//125 92//125
f 92//126 106//126 93//126
f 93//127 107//127 94//127
f 107//128 95//128 94//128
f 108//129 96//129 95//129
f 109//130 84//130 96//130
f 110//131 98//131 97//131
f 111//132 99//132 98//132
f 112//133 100//133 99//133
f 100//134 114//134 101//134
f 101//135 115//135 102//135
f 102//136 116//136 103//136
f 116//137 104//137 103//137
f 117//138 105//138 104//138
f 118//139 106//139 105//139
f 119//140 107//140 106//140
f 107//141 121//141 108//141
f 108//142 122//142 109//142
f 109//143 110//143 97//143
f 110//144 123//144 111//144
f 111//145 123//145 112//145
f 112//146 123//146 113//146
f 113//147 123//147 114//147
f 114//148 123//148 115//148
f 115//149 123//149 116//149
f 116//150 123//150 117//150
f 117//151 123//151 118//151
f 118//152 123//152 119//152
f 119//153 123//153 120//153
f 120//154 123//154 121//154
f 121//155 123//155 122//155
f 122//156 123//156 110//156
f 124//157 125//157 126//157
f 124//158 126//158 127//158
f 124//159 127//159 128//159
f 124//160 128//160 129//160
f 124//161 129//161 130//161
f 124//162 130//162 131//162
f 124//163 131//163 132//163
f 124//164 132//164 133//164
f 124//165 133//165 134//165
f 124//166 134//166 135//166
f 124//167 135//167 136//167
f 124//168 136//168 137//168
f 124//169 137//169 125//169
f 125//170 139//170 126//170
f 126//171 140//171 127//171
f 127//172 141//172 128//172
f 141//173 129//173 128//173
f 142//174 130//174 129//174
f 143//175 131//175 130//175
f 144//176 132//176 131//176
f 132//177 146//177 133//177
f 133//178 147//178 134//178
f 134//179 148//179 135//179
f 148//180 136//180 135//180
f 149//181 137//181 136//181
f 150//182 125//182 137//182
f 151//183 139//183 138//183
f 152//184 140//184 139//184
f 153//185 141//185 140//185
f 141//186 155//186 142//186
f 142//187 156//187 143//187
f 143//188 157//188 144//188
f 157//189 145//189 144//189
f 158//190 146//190 145//190
f 159//191 147//191 146//191
f 160//192 148//192 147//192
f 148//193 162//193 149//193
f 149//194 163//194 150//194
f 150//195 151//195 138//195
f 151//196 164//196 152//196
f 152//197 164//197 153//197
f 153//198 164//198 154//198
f 154//199 164//199 155//199
f 155//200 164//200 156//200
f 156//201 164//201 157//201
f 157//202 164//202 158//202
f 158//203 164//203 159//203
f 159//204 164//204 160//204
f 160//205 164//205 161//205
f 161//206 164//206 162//206
f 162//207 164//207 163//207
f 163//208 164//208 151//208
f 2//14 15//14 16//14
f 3//15 16//15 17//15
f 4//16 17//16 18//16
f 18//17 19//17 6//17
f 19//18 20//18 7//18
f 20//19 21//19 8//19
f 21//20 22//20 9//20
f 9//21 22//21 23//21
f 10//22 23//22 24//22
f 11//23 24//23 25//23
f 25//24 26//24 13//24
f 26//25 27//25 14//25
f 27//26 15//26 2//26
f 28//27 29//27 16//27
f 29//28 30//28 17//28
f 30//29 31//29 18//29
f 18//30 31//30 32//30
f 19//31 32//31 33//31
f 20//32 33//32 34//32
f 34//33 35//33 22//33
f 35//34 36//34 23//34
f 36//35 37//35 24//35
f 37//36 38//36 25//36
f 25//37 38//37 39//37
f 26//38 39//38 40//38
f 27//39 40//39 28//39
f 43//66 56//66 57//66
f 44//67 57//67 58//67
f 45//68 58//68 59//68
f 59//69 60//69 47//69
f 60//70 61//70 48//70
f 61//71 62//71 49//71
f 49//72 62//72 63//72
f 50//73 63//73 64//73
f 51//74 64//74 65//74
f 52//75 65//75 66//75
f 66//76 67//76 54//76
f 67//77 68//77 55//77
f 68//78 56//78 43//78
f 69//79 70//79 57//79
f 70//80 71//80 58//80
f 71//81 72//81 59//81
f 59//82 72//82 73//82
f 60//83 73//83 74//83
f 61//84 74//84 75//84
f 75//85 76//85 63//85
f 76//86 77//86 64//86
f 77//87 78//87 65//87
f 78//88 79//88 66//88
f 66//89 79//89 80//89
f 67//90 80//90 81//90
f 68//91 81//91 69//91
f 84//118 97//118 98//118
f 85//119 98//119 99//119
f 86//120 99//120 100//120
f 100//121 101//121 88//121
f 101//122 102//122 89//122
f 102//123 103//123 90//123
f 103//124 104//124 91//124
f 91//125 104//125 105//125
f 92//126 105//126 106//126
f 93//127 106//127 107//127
f 107//128 108//128 95//128
f 108//129 109//129 96//129
f 109//130 97//130 84//130
f 110//131 111//131 98//131
f 111//132 112//132 99//132
f 112//133 113//133 100//133
f 100//134 113//134 114//134
f 101//135 114//135 115//135
f 102//136 115//136 116//136
f 116//137 117//137 104//137
f 117//138 118//138 105//138
f 118//139 119//139 106//139
f 119//140 120//140 107//140
f 107//141 120//141 121//141
f 108//142 121//142 122//142
f 109//143 122//143 110//143
f 125//170 138//170 139//170
f 126//171 139//171 140//171
f 127//172 140//172 141//172
f 141//173 142//173 129//173
f 142//174 143//174 130//174
f 143//175 144//175 131//175
f 144//176 145//176 132//176
f 132//177 145//177 146//177
f 133//178 146//178 147//178
f 134//179 147//179 148//179
f 148//180 149//180 136//180
f 149//181 150//181 137//181
f 150//182 138//182 125//182
f 151//183 152//183 139//183
f 152//184 153//184 140//184
f 153//185 154//185 141//185
f 141//186 154//186 155//186
f 142//187 155//187 156//187
f 143//188 156//188 157//188
f 157//189 158//189 145//189
f 158//190 159//190 146//190
f 159//191 160//191 147//191
f 160//192 161//192 148//192
f 148//193 161//193 162//193
f 149//194 162//194 163//194
f 150//195 163//195 151//195
usemtl verdant_carbonate
f 165//209 166//209 167//209
f 165//210 167//210 168//210
f 165//211 168//211 169//211
f 165//212 169//212 170//212
f 165//213 170//213 171//213
f 165//214 171//214 172//214
f 165//215 172//215 173//215
f 165//216 173//216 166//216
f 174//217 167//217 166//217
f 167//218 176//218 168//218
f 176//219 169//219 168//219
f 169//220 178//220 170//220
f 178//221 171//221 170//221
f 171//222 180//222 172//222
f 180//223 173//223 172//223
f 173//224 174//224 166//224
f 174//225 183//225 175//225
f 183//226 176//226 175//226
f 176//227 185//227 177//227
f 185//228 178//228 177//228
f 178//229 187//229 179//229
f 187//230 180//230 179//230
f 180//231 189//231 181//231
f 189//232 174//232 181//232
f 182//233 190//233 183//233
f 183//234 190//234 184//234
f 184//235 190//235 185//235
f 185//236 190//236 186//236
f 186//237 190//237 187//237
f 187//238 190//238 188//238
f 188//239 190//239 189//239
f 189//240 190//240 182//240
f 191//241 192//241 193//241
f 191//242 193//242 194//242
f 191//243 194//243 195//243
f 191//244 195//244 196//244
f 191//245 196//245 197//245
f 191//246 197//246 198//246
f 191//247 198//247 199//247
f 191//248 199//248 192//248
f 200//249 193//249 192//249
f 193//250 202//250 194//250
f 202//251 195//251 194//251
f 195//252 204//252 196//252
f 204//253 197//253 196//253
f 197//254 206//254 198//254
f 206//255 199//255 198//255
f 199//256 200//256 192//256
f 200//257 209//257 201//257
f 209//258 202//258 201//258
f 202//259 211//259 203//259
f 211//260 204//260 203//260
f 204//261 213//261 205//261
f 213//262 206//262 205//262
f 206//263 215//263 207//263
f 215//264 200//264 207//264
f 208//265 216//265 209//265
f 209//266 216//266 210//266
f 210//267 216//267 211//267
f 211//268 216//268 212//268
f 212//269 216//269 213//269
f 213//270 216//270 214//270
f 214//271 216//271 215//271
f 215//272 216//272 208//272
f 217//273 218//273 219//273
f 217//274 219//274 220//274
f 217//275 220//275 221//275
f 217//276 221//276 222//276
f 217//277 222//277 223//277
f 217//278 223//278 224//278
f 217//279 224//279 225//279
f 217//280 225//280 218//280
f 218//281 227//281 219//281
f 227//282 220//282 219//282
f 220//283 229//283 221//283
f 229//284 222//284 221//284
f 222//285 231//285 223//285
f 231//286 224//286 223//286
f 224//287 233//287 225//287
f 233//288 218//288 225//288
f 234//289 227//289 226//289
f 227//290 236//290 228//290
f 236//291 229//291 228//291
f 229//292 238//292 230//292
f 238//293 231//293 230//293
f 231//294 240//294 232//294
f 240//295 233//295 232//295
f 233//296 234//296 226//296
f 234//297 242//297 235//297
f 235//298 242//298 236//298
f 236//299 242//299 237//299
f 237//300 242//300 238//300
f 238//301 242//301 239//301
f 239//302 242//302 240//302
f 240//303 242//303 241//303
f 241//304 242//304 234//304
f 243//305 244//305 245//305
f 243//306 245//306 246//306
f 243//307 246//307 247//307
f 243//308 247//308 248//308
f 243//309 248//309 249//309
f 243//310 249//310 250//310
f 243//311 250//311 251//311
f 243//312 251//312 244//312
f 244//313 253//313 245//313
f 253//314 246//314 245//314
f 246//315 255//315 247//315
f 255//316 248//316 247//316
f 248//317 257//317 249//317
f 257//318 250//318 249//318
f 250//319 259//319 251//319
f 259//320 244//320 251//320
f 260//321 253//321 252//321
f 253//322 262//322 254//322
f 262//323 255//323 254//323
f 255//324 264//324 256//324
f 264//325 257//325 256//325
f 257//326 266//326 258//326
f 266//327 259//327 258//327
f 259//328 260//328 252//328
f 260//329 268//329 261//329
f 261//330 268//330 262//330
f 262//331 268//331 263//331
f 263//332 268//332 264//332
f 264//333 268//333 265//333
f 265//334 268//334 266//334
f 266//335 268//335 267//335
f 267//336 268//336 260//336
f 174//337 175//337 167//337
f 167//338 175//338 176//338
f 176//339 177//339 169//339
f 169//340 177//340 178//340
f 178//341 179//341 171//341
f 171//342 179//342 180//342
f 180//343 181//343 173//343
f 173//344 181//344 174//344
f 174//345 182//345 183//345
f 183//346 184//346 176//346
f 176//347 184//347 185//347
f 185//348 186//348 178//348
f 178//349 186//349 187//349
f 187//350 188//350 180//350
f 180//351 188//351 189//351
f 189//352 182//352 174//352
f 200//249 201//249 193//249
f 193//250 201//250 202//250
f 202//251 203//251 195//251
f 195//252 203//252 204//252
f 204//253 205//253 197//253
f 197//254 205//254 206//254
f 206//255 207//255 199//255
f 199//256 207//256 200//256
f 200//257 208//257 209//257
f 209//258 210//258 202//258
f 202//259 210//259 211//259
f 211//260 212//260 204//260
f 204//261 212//261 213//261
f 213//262 214//262 206//262
f 206//263 214//263 215//263
f 215//264 208//264 200//264
f 218//353 226//353 227//353
f 227//354 228//354 220//354
f 220//355 228//355 229//355
f 229//356 230//356 222//356
f 222//357 230//357 231//357
f 231//358 232//358 224//358
f 224//359 232//359 233//359
f 233//360 226//360 218//360
f 234//361 235//361 227//361
f 227//362 235//362 236//362
f 236//363 237//363 229//363
f 229//364 237//364 238//364
f 238//365 239//365 231//365
f 231//366 239//366 240//366
f 240//367 241//367 233//367
f 233//368 241//368 234//368
f 244//313 252//313 253//313
f 253//314 254//314 246//314
f 246//315 254//315 255//315
f 255//316 256//316 248//316
f 248//317 256//317 257//317
f 257//318 258//318 250//318
f 250//319 258//319 259//319
f 259//320 252//320 244//320
f 260//321 261//321 253//321
f 253//322 261//322 262//322
f 262//323 263//323 255//323
f 255//324 263//324 264//324
f 264//325 265//325 257//325
f 257//326 265//326 266//326
f 266//327 267//327 259//327
f 259//328 267//328 260//328
