# Blender 5.2.1 LTS
# www.blender.org
mtllib carbonate_colony_a.mtl
o carbonate_colony_a
v -1.800000 -0.000000 -0.200000
v -0.154550 0.035000 -0.200000
v -0.375000 0.035000 0.276310
v -0.977280 0.035000 0.625000
v -1.800000 0.035000 0.752630
v -2.622720 0.035000 0.625000
v -3.225000 0.035000 0.276310
v -3.445450 0.035000 -0.200000
v -3.225000 0.035000 -0.676310
v -2.622720 0.035000 -1.025000
v -1.800000 0.035000 -1.152630
v -0.977280 0.035000 -1.025000
v -0.375000 0.035000 -0.676310
v -0.154550 0.105000 -0.200000
v -0.375000 0.105000 0.276310
v -0.977280 0.105000 0.625000
v -1.800000 0.105000 0.752630
v -2.622720 0.105000 0.625000
v -3.225000 0.105000 0.276310
v -3.445450 0.105000 -0.200000
v -3.225000 0.105000 -0.676310
v -2.622720 0.105000 -1.025000
v -1.800000 0.105000 -1.152630
v -0.977280 0.105000 -1.025000
v -0.375000 0.105000 -0.676310
v -1.800000 0.140000 -0.200000
v 0.400000 0.000000 0.500000
v 2.305260 0.035000 0.500000
v 2.050000 0.035000 1.062920
v 1.352630 0.035000 1.475000
v 0.400000 0.035000 1.625830
v -0.552630 0.035000 1.475000
v -1.250000 0.035000 1.062920
v -1.505260 0.035000 0.500000
v -1.250000 0.035000 -0.062920
v -0.552630 0.035000 -0.475000
v 0.400000 0.035000 -0.625830
v 1.352630 0.035000 -0.475000
v 2.050000 0.035000 -0.062920
v 2.305260 0.105000 0.500000
v 2.050000 0.105000 1.062920
v 1.352630 0.105000 1.475000
v 0.400000 0.105000 1.625830
v -0.552630 0.105000 1.475000
v -1.250000 0.105000 1.062920
v -1.505260 0.105000 0.500000
v -1.250000 0.105000 -0.062920
v -0.552630 0.105000 -0.475000
v 0.400000 0.105000 -0.625830
v 1.352630 0.105000 -0.475000
v 2.050000 0.105000 -0.062920
v 0.400000 0.140000 0.500000
v 2.000000 -0.000000 -0.600000
v 3.169130 0.035000 -0.600000
v 3.012500 0.035000 -0.231940
v 2.584570 0.035000 0.037500
v 2.000000 0.035000 0.136120
v 1.415430 0.035000 0.037500
v 0.987500 0.035000 -0.231940
v 0.830870 0.035000 -0.600000
v 0.987500 0.035000 -0.968060
v 1.415430 0.035000 -1.237500
v 2.000000 0.035000 -1.336120
v 2.584570 0.035000 -1.237500
v 3.012500 0.035000 -0.968060
v 3.169130 0.105000 -0.600000
v 3.012500 0.105000 -0.231940
v 2.584570 0.105000 0.037500
v 2.000000 0.105000 0.136120
v 1.415430 0.105000 0.037500
v 0.987500 0.105000 -0.231940
v 0.830870 0.105000 -0.600000
v 0.987500 0.105000 -0.968060
v 1.415430 0.105000 -1.237500
v 2.000000 0.105000 -1.336120
v 2.584570 0.105000 -1.237500
v 3.012500 0.105000 -0.968060
v 2.000000 0.140000 -0.600000
v 0.435130 0.060000 0.229000
v 0.435130 0.350000 0.229000
v 0.356940 0.060000 0.266650
v 0.356940 0.350000 0.266650
v 0.337630 0.060000 0.351250
v 0.337630 0.350000 0.351250
v 0.391740 0.060000 0.419090
v 0.391740 0.350000 0.419090
v 0.478520 0.060000 0.419090
v 0.478520 0.350000 0.419090
v 0.532620 0.060000 0.351250
v 0.532620 0.350000 0.351250
v 0.513310 0.060000 0.266650
v 0.513310 0.350000 0.266650
v 0.435130 0.280000 0.329000
v 0.608330 0.330000 0.329000
v 0.543120 0.330000 0.464410
v 0.396590 0.330000 0.497860
v 0.279070 0.330000 0.404150
v 0.279070 0.330000 0.253850
v 0.396590 0.330000 0.160130
v 0.543120 0.330000 0.193580
v 0.608330 0.430000 0.329000
v 0.543120 0.430000 0.464410
v 0.396590 0.430000 0.497860
v 0.279070 0.430000 0.404150
v 0.279070 0.430000 0.253850
v 0.396590 0.430000 0.160130
v 0.543120 0.430000 0.193580
v 0.435130 0.480000 0.329000
v -2.370330 0.060000 -0.325730
v -2.370330 0.800000 -0.325730
v -2.448510 0.060000 -0.288080
v -2.448510 0.800000 -0.288080
v -2.467820 0.060000 -0.203480
v -2.467820 0.800000 -0.203480
v -2.413720 0.060000 -0.135630
v -2.413720 0.800000 -0.135630
v -2.326940 0.060000 -0.135630
v -2.326940 0.800000 -0.135630
v -2.272840 0.060000 -0.203480
v -2.272840 0.800000 -0.203480
v -2.292150 0.060000 -0.288080
v -2.292150 0.800000 -0.288080
v -2.370330 0.730000 -0.225730
v -2.197120 0.780000 -0.225730
v -2.262340 0.780000 -0.090310
v -2.408870 0.780000 -0.056870
v -2.526380 0.780000 -0.150580
v -2.526380 0.780000 -0.300880
v -2.408870 0.780000 -0.394590
v -2.262340 0.780000 -0.361150
v -2.197120 0.880000 -0.225730
v -2.262340 0.880000 -0.090310
v -2.408870 0.880000 -0.056870
v -2.526380 0.880000 -0.150580
v -2.526380 0.880000 -0.300880
v -2.408870 0.880000 -0.394590
v -2.262340 0.880000 -0.361150
v -2.370330 0.930000 -0.225730
v 1.150380 0.060000 -0.557350
v 1.150380 0.350000 -0.557350
v 1.072200 0.060000 -0.519700
v 1.072200 0.350000 -0.519700
v 1.052890 0.060000 -0.435100
v 1.052890 0.350000 -0.435100
v 1.106990 0.060000 -0.367250
v 1.106990 0.350000 -0.367250
v 1.193770 0.060000 -0.367250
v 1.193770 0.350000 -0.367250
v 1.247870 0.060000 -0.435100
v 1.247870 0.350000 -0.435100
v 1.228560 0.060000 -0.519700
v 1.228560 0.350000 -0.519700
v 1.150380 0.280000 -0.457350
v 1.323590 0.330000 -0.457350
v 1.258370 0.330000 -0.321930
v 1.111840 0.330000 -0.288490
v 0.994330 0.330000 -0.382200
v 0.994330 0.330000 -0.532500
v 1.111840 0.330000 -0.626210
v 1.258370 0.330000 -0.592770
v 1.323590 0.430000 -0.457350
v 1.258370 0.430000 -0.321930
v 1.111840 0.430000 -0.288490
v 0.994330 0.430000 -0.382200
v 0.994330 0.430000 -0.532500
v 1.111840 0.430000 -0.626210
v 1.258370 0.430000 -0.592770
v 1.150380 0.480000 -0.457350
v -0.741150 0.060000 1.693700
v -0.741150 0.800000 1.693700
v -0.819330 0.060000 1.731350
v -0.819330 0.800000 1.731350
v -0.838640 0.060000 1.815950
v -0.838640 0.800000 1.815950
v -0.784540 0.060000 1.883800
v -0.784540 0.800000 1.883800
v -0.697760 0.060000 1.883800
v -0.697760 0.800000 1.883800
v -0.643660 0.060000 1.815950
v -0.643660 0.800000 1.815950
v -0.662970 0.060000 1.731350
v -0.662970 0.800000 1.731350
v -0.741150 0.730000 1.793700
v -0.567950 0.780000 1.793700
v -0.633160 0.780000 1.929120
v -0.779690 0.780000 1.962560
v -0.897200 0.780000 1.868850
v -0.897200 0.780000 1.718550
v -0.779690 0.780000 1.624840
v -0.633160 0.780000 1.658280
v -0.567950 0.880000 1.793700
v -0.633160 0.880000 1.929120
v -0.779690 0.880000 1.962560
v -0.897200 0.880000 1.868850
v -0.897200 0.880000 1.718550
v -0.779690 0.880000 1.624840
v -0.633160 0.880000 1.658280
v -0.741150 0.930000 1.793700
v -0.986850 0.060000 -1.184940
v -0.986850 0.350000 -1.184940
v -1.065030 0.060000 -1.147290
v -1.065030 0.350000 -1.147290
v -1.084340 0.060000 -1.062690
v -1.084340 0.350000 -1.062690
v -1.030240 0.060000 -0.994850
v -1.030240 0.350000 -0.994850
v -0.943460 0.060000 -0.994850
v -0.943460 0.350000 -0.994850
v -0.889350 0.060000 -1.062690
v -0.889350 0.350000 -1.062690
v -0.908660 0.060000 -1.147290
v -0.908660 0.350000 -1.147290
v -0.986850 0.280000 -1.084940
v -0.813640 0.330000 -1.084940
v -0.878860 0.330000 -0.949530
v -1.025390 0.330000 -0.916080
v -1.142900 0.330000 -1.009790
v -1.142900 0.330000 -1.160100
v -1.025390 0.330000 -1.253810
v -0.878860 0.330000 -1.220360
v -0.813640 0.430000 -1.084940
v -0.878860 0.430000 -0.949530
v -1.025390 0.430000 -0.916080
v -1.142900 0.430000 -1.009790
v -1.142900 0.430000 -1.160100
v -1.025390 0.430000 -1.253810
v -0.878860 0.430000 -1.220360
v -0.986850 0.480000 -1.084940
v 0.984350 0.060000 0.101390
v 0.984350 0.800000 0.101390
v 0.906160 0.060000 0.139040
v 0.906160 0.800000 0.139040
v 0.886850 0.060000 0.223650
v 0.886850 0.800000 0.223650
v 0.940960 0.060000 0.291490
v 0.940960 0.800000 0.291490
v 1.027730 0.060000 0.291490
v 1.027730 0.800000 0.291490
v 1.081840 0.060000 0.223650
v 1.081840 0.800000 0.223650
v 1.062530 0.060000 0.139040
v 1.062530 0.800000 0.139040
v 0.984350 0.730000 0.201390
v 1.157550 0.780000 0.201390
v 1.092340 0.780000 0.336810
v 0.945800 0.780000 0.370260
v 0.828290 0.780000 0.276540
v 0.828290 0.780000 0.126240
v 0.945800 0.780000 0.032530
v 1.092340 0.780000 0.065980
v 1.157550 0.880000 0.201390
v 1.092340 0.880000 0.336810
v 0.945800 0.880000 0.370260
v 0.828290 0.880000 0.276540
v 0.828290 0.880000 0.126240
v 0.945800 0.880000 0.032530
v 1.092340 0.880000 0.065980
v 0.984350 0.930000 0.201390
v -2.508560 0.060000 0.561280
v -2.508560 0.350000 0.561280
v -2.586750 0.060000 0.598940
v -2.586750 0.350000 0.598940
v -2.606060 0.060000 0.683540
v -2.606060 0.350000 0.683540
v -2.551950 0.060000 0.751380
v -2.551950 0.350000 0.751380
v -2.465170 0.060000 0.751380
v -2.465170 0.350000 0.751380
v -2.411070 0.060000 0.683540
v -2.411070 0.350000 0.683540
v -2.430380 0.060000 0.598940
v -2.430380 0.350000 0.598940
v -2.508560 0.280000 0.661280
v -2.335360 0.330000 0.661280
v -2.400570 0.330000 0.796700
v -2.547100 0.330000 0.830150
v -2.664620 0.330000 0.736440
v -2.664620 0.330000 0.586130
v -2.547100 0.330000 0.492420
v -2.400570 0.330000 0.525870
v -2.335360 0.430000 0.661280
v -2.400570 0.430000 0.796700
v -2.547100 0.430000 0.830150
v -2.664620 0.430000 0.736440
v -2.664620 0.430000 0.586130
v -2.547100 0.430000 0.492420
v -2.400570 0.430000 0.525870
v -2.508560 0.480000 0.661280
v 0.692290 0.060000 -1.044720
v 0.692290 0.800000 -1.044720
v 0.614110 0.060000 -1.007060
v 0.614110 0.800000 -1.007060
v 0.594800 0.060000 -0.922460
v 0.594800 0.800000 -0.922460
v 0.648900 0.060000 -0.854620
v 0.648900 0.800000 -0.854620
v 0.735680 0.060000 -0.854620
v 0.735680 0.800000 -0.854620
v 0.789780 0.060000 -0.922460
v 0.789780 0.800000 -0.922460
v 0.770470 0.060000 -1.007060
v 0.770470 0.800000 -1.007060
v 0.692290 0.730000 -0.944720
v 0.865500 0.780000 -0.944720
v 0.800280 0.780000 -0.809300
v 0.653750 0.780000 -0.775850
v 0.536240 0.780000 -0.869560
v 0.536240 0.780000 -1.019870
v 0.653750 0.780000 -1.113580
v 0.800280 0.780000 -1.080130
v 0.865500 0.880000 -0.944720
v 0.800280 0.880000 -0.809300
v 0.653750 0.880000 -0.775850
v 0.536240 0.880000 -0.869560
v 0.536240 0.880000 -1.019870
v 0.653750 0.880000 -1.113580
v 0.800280 0.880000 -1.080130
v 0.692290 0.930000 -0.944720
v 0.225740 0.060000 0.297560
v 0.225740 0.350000 0.297560
v 0.147560 0.060000 0.335210
v 0.147560 0.350000 0.335210
v 0.128250 0.060000 0.419810
v 0.128250 0.350000 0.419810
v 0.182350 0.060000 0.487660
v 0.182350 0.350000 0.487660
v 0.269130 0.060000 0.487660
v 0.269130 0.350000 0.487660
v 0.323230 0.060000 0.419810
v 0.323230 0.350000 0.419810
v 0.303920 0.060000 0.335210
v 0.303920 0.350000 0.335210
v 0.225740 0.280000 0.397560
v 0.398940 0.330000 0.397560
v 0.333730 0.330000 0.532980
v 0.187200 0.330000 0.566420
v 0.069690 0.330000 0.472710
v 0.069690 0.330000 0.322410
v 0.187200 0.330000 0.228700
v 0.333730 0.330000 0.262140
v 0.398940 0.430000 0.397560
v 0.333730 0.430000 0.532980
v 0.187200 0.430000 0.566420
v 0.069690 0.430000 0.472710
v 0.069690 0.430000 0.322410
v 0.187200 0.430000 0.228700
v 0.333730 0.430000 0.262140
v 0.225740 0.480000 0.397560
vn 0.0213 -0.9997 0.0098
vn 0.0156 -0.9995 0.0269
vn 0.0057 -0.9993 0.0367
vn -0.0057 -0.9993 0.0367
vn -0.0156 -0.9995 0.0269
vn -0.0213 -0.9997 0.0098
vn -0.0213 -0.9997 -0.0098
vn -0.0156 -0.9995 -0.0269
vn -0.0057 -0.9993 -0.0367
vn 0.0057 -0.9993 -0.0367
vn 0.0156 -0.9995 -0.0269
vn 0.0213 -0.9997 -0.0098
vn 0.9075 -0.0000 0.4200
vn 0.5010 -0.0000 0.8654
vn 0.1533 -0.0000 0.9882
vn -0.1533 -0.0000 0.9882
vn -0.5010 -0.0000 0.8654
vn -0.9075 -0.0000 0.4200
vn -0.9075 -0.0000 -0.4200
vn -0.5010 -0.0000 -0.8654
vn -0.1533 -0.0000 -0.9882
vn 0.1533 -0.0000 -0.9882
vn 0.5010 -0.0000 -0.8654
vn 0.9075 -0.0000 -0.4200
vn 0.0213 0.9997 0.0098
vn 0.0156 0.9995 0.0269
vn 0.0057 0.9993 0.0367
vn -0.0057 0.9993 0.0367
vn -0.0156 0.9995 0.0269
vn -0.0213 0.9997 0.0098
vn -0.0213 0.9997 -0.0098
vn -0.0156 0.9995 -0.0269
vn -0.0057 0.9993 -0.0367
vn 0.0057 0.9993 -0.0367
vn 0.0156 0.9995 -0.0269
vn 0.0213 0.9997 -0.0098
vn 0.0184 -0.9998 0.0083
vn 0.0134 -0.9997 0.0228
vn 0.0049 -0.9995 0.0311
vn -0.0049 -0.9995 0.0311
vn -0.0134 -0.9997 0.0228
vn -0.0184 -0.9998 0.0083
vn -0.0184 -0.9998 -0.0083
vn -0.0134 -0.9997 -0.0228
vn -0.0049 -0.9995 -0.0311
vn 0.0049 -0.9995 -0.0311
vn 0.0134 -0.9997 -0.0228
vn 0.0184 -0.9998 -0.0083
vn 0.9107 -0.0000 0.4130
vn 0.5087 -0.0000 0.8609
vn 0.1564 -0.0000 0.9877
vn -0.1564 -0.0000 0.9877
vn -0.5087 -0.0000 0.8609
vn -0.9107 -0.0000 0.4130
vn -0.9107 -0.0000 -0.4130
vn -0.5087 -0.0000 -0.8609
vn -0.1564 -0.0000 -0.9877
vn 0.1564 -0.0000 -0.9877
vn 0.5087 -0.0000 -0.8609
vn 0.9107 -0.0000 -0.4130
vn 0.0184 0.9998 0.0083
vn 0.0134 0.9997 0.0228
vn 0.0049 0.9995 0.0311
vn -0.0049 0.9995 0.0311
vn -0.0134 0.9997 0.0228
vn -0.0184 0.9998 0.0083
vn -0.0184 0.9998 -0.0083
vn -0.0134 0.9997 -0.0228
vn -0.0049 0.9995 -0.0311
vn 0.0049 0.9995 -0.0311
vn 0.0134 0.9997 -0.0228
vn 0.0184 0.9998 -0.0083
vn 0.0299 -0.9995 0.0127
vn 0.0219 -0.9992 0.0348
vn 0.0080 -0.9988 0.0475
vn -0.0080 -0.9988 0.0475
vn -0.0219 -0.9992 0.0348
vn -0.0299 -0.9995 0.0127
vn -0.0299 -0.9995 -0.0127
vn -0.0219 -0.9992 -0.0348
vn -0.0080 -0.9988 -0.0475
vn 0.0080 -0.9988 -0.0475
vn 0.0219 -0.9992 -0.0348
vn 0.0299 -0.9995 -0.0127
vn 0.9201 -0.0000 0.3916
vn 0.5328 -0.0000 0.8462
vn 0.1664 -0.0000 0.9861
vn -0.1664 -0.0000 0.9861
vn -0.5328 -0.0000 0.8462
vn -0.9201 -0.0000 0.3916
vn -0.9201 -0.0000 -0.3916
vn -0.5328 -0.0000 -0.8462
vn -0.1664 -0.0000 -0.9861
vn 0.1664 -0.0000 -0.9861
vn 0.5328 -0.0000 -0.8462
vn 0.9201 -0.0000 -0.3916
vn 0.0299 0.9995 0.0127
vn 0.0219 0.9992 0.0348
vn 0.0080 0.9988 0.0475
vn -0.0080 0.9988 0.0475
vn -0.0219 0.9992 0.0348
vn -0.0299 0.9995 0.0127
vn -0.0299 0.9995 -0.0127
vn -0.0219 0.9992 -0.0348
vn -0.0080 0.9988 -0.0475
vn 0.0080 0.9988 -0.0475
vn 0.0219 0.9992 -0.0348
vn 0.0299 0.9995 -0.0127
vn -0.0000 -1.0000 -0.0000
vn -0.0000 1.0000 -0.0000
vn -0.4338 -0.0000 -0.9010
vn -0.9749 -0.0000 -0.2225
vn -0.7818 -0.0000 0.6236
vn -0.0000 -0.0000 1.0000
vn 0.7818 -0.0000 0.6235
vn 0.9749 -0.0000 -0.2225
vn 0.4339 -0.0000 -0.9010
vn 0.8467 -0.5321 -0.0000
vn 0.5279 -0.5320 0.6620
vn -0.1884 -0.5321 0.8255
vn -0.7629 -0.5321 0.3674
vn -0.7629 -0.5321 -0.3674
vn -0.1884 -0.5321 -0.8255
vn 0.5279 -0.5321 -0.6620
vn 0.8467 0.5321 -0.0000
vn 0.5279 0.5320 0.6620
vn -0.1884 0.5321 0.8255
vn -0.7629 0.5321 0.3674
vn -0.7629 0.5321 -0.3674
vn -0.1884 0.5321 -0.8255
vn 0.5279 0.5321 -0.6620
vn -0.4339 -0.0000 -0.9010
vn -0.7819 -0.0000 0.6234
vn 0.7819 -0.0000 0.6234
vn 0.8467 -0.5320 -0.0000
vn 0.5279 -0.5321 0.6620
vn -0.7629 -0.5320 0.3674
vn -0.7629 -0.5320 -0.3674
vn 0.8467 0.5320 -0.0000
vn 0.5279 0.5321 0.6620
vn -0.7629 0.5320 0.3674
vn -0.7629 0.5320 -0.3674
vn 0.5279 -0.5320 -0.6620
vn 0.5279 0.5320 -0.6620
vn -0.7818 -0.0000 0.6235
vn 0.7818 -0.0000 0.6236
vn 0.4338 -0.0000 -0.9010
vn -0.1884 -0.5320 0.8255
vn -0.1884 0.5320 0.8255
vn -0.1884 -0.5320 -0.8255
vn -0.1884 0.5320 -0.8255
vn -0.4339 -0.0000 -0.9009
vn 0.4340 -0.0000 -0.9009
vn -0.4340 -0.0000 -0.9009
s 0
usemtl verdant_carbonate
f 1//1 2//1 3//1
f 1//2 3//2 4//2
f 1//3 4//3 5//3
f 1//4 5//4 6//4
f 1//5 6//5 7//5
f 1//6 7//6 8//6
f 1//7 8//7 9//7
f 1//8 9//8 10//8
f 1//9 10//9 11//9
f 1//10 11//10 12//10
f 1//11 12//11 13//11
f 1//12 13//12 2//12
f 14//13 3//13 2//13
f 15//14 4//14 3//14
f 16//15 5//15 4//15
f 17//16 6//16 5//16
f 18//17 7//17 6//17
f 19//18 8//18 7//18
f 20//19 9//19 8//19
f 21//20 10//20 9//20
f 22//21 11//21 10//21
f 23//22 12//22 11//22
f 24//23 13//23 12//23
f 25//24 2//24 13//24
f 14//25 26//25 15//25
f 15//26 26//26 16//26
f 16//27 26//27 17//27
f 17//28 26//28 18//28
f 18//29 26//29 19//29
f 19//30 26//30 20//30
f 20//31 26//31 21//31
f 21//32 26//32 22//32
f 22//33 26//33 23//33
f 23//34 26//34 24//34
f 24//35 26//35 25//35
f 25//36 26//36 14//36
f 27//37 28//37 29//37
f 27//38 29//38 30//38
f 27//39 30//39 31//39
f 27//40 31//40 32//40
f 27//41 32//41 33//41
f 27//42 33//42 34//42
f 27//43 34//43 35//43
f 27//44 35//44 36//44
f 27//45 36//45 37//45
f 27//46 37//46 38//46
f 27//47 38//47 39//47
f 27//48 39//48 28//48
f 40//49 29//49 28//49
f 41//50 30//50 29//50
f 42//51 31//51 30//51
f 43//52 32//52 31//52
f 44//53 33//53 32//53
f 45//54 34//54 33//54
f 46//55 35//55 34//55
f 47//56 36//56 35//56
f 48//57 37//57 36//57
f 49//58 38//58 37//58
f 50//59 39//59 38//59
f 51//60 28//60 39//60
f 40//61 52//61 41//61
f 41//62 52//62 42//62
f 42//63 52//63 43//63
f 43//64 52//64 44//64
f 44//65 52//65 45//65
f 45//66 52//66 46//66
f 46//67 52//67 47//67
f 47//68 52//68 48//68
f 48//69 52//69 49//69
f 49//70 52//70 50//70
f 50//71 52//71 51//71
f 51//72 52//72 40//72
f 53//73 54//73 55//73
f 53//74 55//74 56//74
f 53//75 56//75 57//75
f 53//76 57//76 58//76
f 53//77 58//77 59//77
f 53//78 59//78 60//78
f 53//79 60//79 61//79
f 53//80 61//80 62//80
f 53//81 62//81 63//81
f 53//82 63//82 64//82
f 53//83 64//83 65//83
f 53//84 65//84 54//84
f 66//85 55//85 54//85
f 67//86 56//86 55//86
f 68//87 57//87 56//87
f 69//88 58//88 57//88
f 70//89 59//89 58//89
f 71//90 60//90 59//90
f 72//91 61//91 60//91
f 73//92 62//92 61//92
f 74//93 63//93 62//93
f 75//94 64//94 63//94
f 76//95 65//95 64//95
f 77//96 54//96 65//96
f 66//97 78//97 67//97
f 67//98 78//98 68//98
f 68//99 78//99 69//99
f 69//100 78//100 70//100
f 70//101 78//101 71//101
f 71//102 78//102 72//102
f 72//103 78//103 73//103
f 73//104 78//104 74//104
f 74//105 78//105 75//105
f 75//106 78//106 76//106
f 76//107 78//107 77//107
f 77//108 78//108 66//108
f 14//13 15//13 3//13
f 15//14 16//14 4//14
f 16//15 17//15 5//15
f 17//16 18//16 6//16
f 18//17 19//17 7//17
f 19//18 20//18 8//18
f 20//19 21//19 9//19
f 21//20 22//20 10//20
f 22//21 23//21 11//21
f 23//22 24//22 12//22
f 24//23 25//23 13//23
f 25//24 14//24 2//24
f 40//49 41//49 29//49
f 41//50 42//50 30//50
f 42//51 43//51 31//51
f 43//52 44//52 32//52
f 44//53 45//53 33//53
f 45//54 46//54 34//54
f 46//55 47//55 35//55
f 47//56 48//56 36//56
f 48//57 49//57 37//57
f 49//58 50//58 38//58
f 50//59 51//59 39//59
f 51//60 40//60 28//60
f 66//85 67//85 55//85
f 67//86 68//86 56//86
f 68//87 69//87 57//87
f 69//88 70//88 58//88
f 70//89 71//89 59//89
f 71//90 72//90 60//90
f 72//91 73//91 61//91
f 73//92 74//92 62//92
f 74//93 75//93 63//93
f 75//94 76//94 64//94
f 76//95 77//95 65//95
f 77//96 66//96 54//96
usemtl verdant_carbonate
f 89//109 85//109 81//109
f 82//110 86//110 90//110
f 81//111 80//111 79//111
f 83//112 82//112 81//112
f 85//113 84//113 83//113
f 87//114 86//114 85//114
f 89//115 88//115 87//115
f 91//116 90//116 89//116
f 79//117 92//117 91//117
f 119//109 115//109 111//109
f 112//110 116//110 120//110
f 111//132 110//132 109//132
f 113//112 112//112 111//112
f 115//133 114//133 113//133
f 117//114 116//114 115//114
f 119//134 118//134 117//134
f 121//116 120//116 119//116
f 109//117 122//117 121//117
f 149//109 145//109 141//109
f 142//110 146//110 150//110
f 141//132 140//132 139//132
f 143//112 142//112 141//112
f 145//133 144//133 143//133
f 147//114 146//114 145//114
f 149//134 148//134 147//134
f 151//116 150//116 149//116
f 139//117 152//117 151//117
f 179//109 175//109 171//109
f 172//110 176//110 180//110
f 171//132 170//132 169//132
f 173//112 172//112 171//112
f 175//133 174//133 173//133
f 177//114 176//114 175//114
f 179//134 178//134 177//134
f 181//116 180//116 179//116
f 169//117 182//117 181//117
f 209//109 205//109 201//109
f 202//110 206//110 210//110
f 201//132 200//132 199//132
f 203//112 202//112 201//112
f 205//145 204//145 203//145
f 207//114 206//114 205//114
f 209//146 208//146 207//146
f 211//116 210//116 209//116
f 199//147 212//147 211//147
f 239//109 235//109 231//109
f 232//110 236//110 240//110
f 231//111 230//111 229//111
f 233//112 232//112 231//112
f 235//113 234//113 233//113
f 237//114 236//114 235//114
f 239//146 238//146 237//146
f 241//116 240//116 239//116
f 229//117 242//117 241//117
f 269//109 265//109 261//109
f 262//110 266//110 270//110
f 261//152 260//152 259//152
f 263//112 262//112 261//112
f 265//113 264//113 263//113
f 267//114 266//114 265//114
f 269//115 268//115 267//115
f 271//116 270//116 269//116
f 259//153 272//153 271//153
f 299//109 295//109 291//109
f 292//110 296//110 300//110
f 291//154 290//154 289//154
f 293//112 292//112 291//112
f 295//145 294//145 293//145
f 297//114 296//114 295//114
f 299//115 298//115 297//115
f 301//116 300//116 299//116
f 289//153 302//153 301//153
f 329//109 325//109 321//109
f 322//110 326//110 330//110
f 321//132 320//132 319//132
f 323//112 322//112 321//112
f 325//133 324//133 323//133
f 327//114 326//114 325//114
f 329//134 328//134 327//134
f 331//116 330//116 329//116
f 319//117 332//117 331//117
f 79//109 91//109 89//109
f 89//109 87//109 85//109
f 85//109 83//109 81//109
f 81//109 79//109 89//109
f 92//110 80//110 82//110
f 82//110 84//110 86//110
f 86//110 88//110 90//110
f 90//110 92//110 82//110
f 81//111 82//111 80//111
f 83//112 84//112 82//112
f 85//113 86//113 84//113
f 87//114 88//114 86//114
f 89//115 90//115 88//115
f 91//116 92//116 90//116
f 79//117 80//117 92//117
f 109//109 121//109 119//109
f 119//109 117//109 115//109
f 115//109 113//109 111//109
f 111//109 109//109 119//109
f 122//110 110//110 112//110
f 112//110 114//110 116//110
f 116//110 118//110 120//110
f 120//110 122//110 112//110
f 111//132 112//132 110//132
f 113//112 114//112 112//112
f 115//133 116//133 114//133
f 117//114 118//114 116//114
f 119//134 120//134 118//134
f 121//116 122//116 120//116
f 109//117 110//117 122//117
f 139//109 151//109 149//109
f 149//109 147//109 145//109
f 145//109 143//109 141//109
f 141//109 139//109 149//109
f 152//110 140//110 142//110
f 142//110 144//110 146//110
f 146//110 148//110 150//110
f 150//110 152//110 142//110
f 141//132 142//132 140//132
f 143//112 144//112 142//112
f 145//133 146//133 144//133
f 147//114 148//114 146//114
f 149//134 150//134 148//134
f 151//116 152//116 150//116
f 139//117 140//117 152//117
f 169//109 181//109 179//109
f 179//109 177//109 175//109
f 175//109 173//109 171//109
f 171//109 169//109 179//109
f 182//110 170//110 172//110
f 172//110 174//110 176//110
f 176//110 178//110 180//110
f 180//110 182//110 172//110
f 171//132 172//132 170//132
f 173//112 174//112 172//112
f 175//133 176//133 174//133
f 177//114 178//114 176//114
f 179//134 180//134 178//134
f 181//116 182//116 180//116
f 169//117 170//117 182//117
f 199//109 211//109 209//109
f 209//109 207//109 205//109
f 205//109 203//109 201//109
f 201//109 199//109 209//109
f 212//110 200//110 202//110
f 202//110 204//110 206//110
f 206//110 208//110 210//110
f 210//110 212//110 202//110
f 201//132 202//132 200//132
f 203//112 204//112 202//112
f 205//145 206//145 204//145
f 207//114 208//114 206//114
f 209//146 210//146 208//146
f 211//116 212//116 210//116
f 199//147 200//147 212//147
f 229//109 241//109 239//109
f 239//109 237//109 235//109
f 235//109 233//109 231//109
f 231//109 229//109 239//109
f 242//110 230//110 232//110
f 232//110 234//110 236//110
f 236//110 238//110 240//110
f 240//110 242//110 232//110
f 231//111 232//111 230//111
f 233//112 234//112 232//112
f 235//113 236//113 234//113
f 237//114 238//114 236//114
f 239//146 240//146 238//146
f 241//116 242//116 240//116
f 229//117 230//117 242//117
f 259//109 271//109 269//109
f 269//109 267//109 265//109
f 265//109 263//109 261//109
f 261//109 259//109 269//109
f 272//110 260//110 262//110
f 262//110 264//110 266//110
f 266//110 268//110 270//110
f 270//110 272//110 262//110
f 261//152 262//152 260//152
f 263//112 264//112 262//112
f 265//113 266//113 264//113
f 267//114 268//114 266//114
f 269//115 270//115 268//115
f 271//116 272//116 270//116
f 259//153 260//153 272//153
f 289//109 301//109 299//109
f 299//109 297//109 295//109
f 295//109 293//109 291//109
f 291//109 289//109 299//109
f 302//110 290//110 292//110
f 292//110 294//110 296//110
f 296//110 298//110 300//110
f 300//110 302//110 292//110
f 291//154 292//154 290//154
f 293//112 294//112 292//112
f 295//145 296//145 294//145
f 297//114 298//114 296//114
f 299//115 300//115 298//115
f 301//116 302//116 300//116
f 289//153 290//153 302//153
f 319//109 331//109 329//109
f 329//109 327//109 325//109
f 325//109 323//109 321//109
f 321//109 319//109 329//109
f 332//110 320//110 322//110
f 322//110 324//110 326//110
f 326//110 328//110 330//110
f 330//110 332//110 322//110
f 321//132 322//132 320//132
f 323//112 324//112 322//112
f 325//133 326//133 324//133
f 327//114 328//114 326//114
f 329//134 330//134 328//134
f 331//116 332//116 330//116
f 319//117 320//117 332//117
s 1
usemtl verdant_growth
f 93//109 94//118 95//119
f 93//109 95//119 96//120
f 93//109 96//120 97//121
f 93//109 97//121 98//122
f 93//109 98//122 99//123
f 93//109 99//123 100//124
f 93//109 100//124 94//118
f 101//125 95//119 94//118
f 102//126 96//120 95//119
f 103//127 97//121 96//120
f 104//128 98//122 97//121
f 105//129 99//123 98//122
f 106//130 100//124 99//123
f 107//131 94//118 100//124
f 101//125 108//110 102//126
f 102//126 108//110 103//127
f 103//127 108//110 104//128
f 104//128 108//110 105//129
f 105//129 108//110 106//130
f 106//130 108//110 107//131
f 107//131 108//110 101//125
f 123//109 124//135 125//136
f 123//109 125//136 126//120
f 123//109 126//120 127//137
f 123//109 127//137 128//138
f 123//109 128//138 129//123
f 123//109 129//123 130//124
f 123//109 130//124 124//135
f 131//139 125//136 124//135
f 132//140 126//120 125//136
f 133//127 127//137 126//120
f 134//141 128//138 127//137
f 135//142 129//123 128//138
f 136//130 130//124 129//123
f 137//131 124//135 130//124
f 131//139 138//110 132//140
f 132//140 138//110 133//127
f 133//127 138//110 134//141
f 134//141 138//110 135//142
f 135//142 138//110 136//130
f 136//130 138//110 137//131
f 137//131 138//110 131//139
f 153//109 154//135 155//136
f 153//109 155//136 156//120
f 153//109 156//120 157//137
f 153//109 157//137 158//138
f 153//109 158//138 159//123
f 153//109 159//123 160//124
f 153//109 160//124 154//135
f 161//139 155//136 154//135
f 162//140 156//120 155//136
f 163//127 157//137 156//120
f 164//141 158//138 157//137
f 165//142 159//123 158//138
f 166//130 160//124 159//123
f 167//131 154//135 160//124
f 161//139 168//110 162//140
f 162//140 168//110 163//127
f 163//127 168//110 164//141
f 164//141 168//110 165//142
f 165//142 168//110 166//130
f 166//130 168//110 167//131
f 167//131 168//110 161//139
f 183//109 184//118 185//119
f 183//109 185//119 186//120
f 183//109 186//120 187//137
f 183//109 187//137 188//138
f 183//109 188//138 189//123
f 183//109 189//123 190//143
f 183//109 190//143 184//118
f 191//125 185//119 184//118
f 192//126 186//120 185//119
f 193//127 187//137 186//120
f 194//141 188//138 187//137
f 195//142 189//123 188//138
f 196//130 190//143 189//123
f 197//144 184//118 190//143
f 191//125 198//110 192//126
f 192//126 198//110 193//127
f 193//127 198//110 194//141
f 194//141 198//110 195//142
f 195//142 198//110 196//130
f 196//130 198//110 197//144
f 197//144 198//110 191//125
f 213//109 214//135 215//136
f 213//109 215//136 216//148
f 213//109 216//148 217//137
f 213//109 217//137 218//122
f 213//109 218//122 219//123
f 213//109 219//123 220//124
f 213//109 220//124 214//135
f 221//139 215//136 214//135
f 222//140 216//148 215//136
f 223//149 217//137 216//148
f 224//141 218//122 217//137
f 225//129 219//123 218//122
f 226//130 220//124 219//123
f 227//131 214//135 220//124
f 221//139 228//110 222//140
f 222//140 228//110 223//149
f 223//149 228//110 224//141
f 224//141 228//110 225//129
f 225//129 228//110 226//130
f 226//130 228//110 227//131
f 227//131 228//110 221//139
f 243//109 244//135 245//136
f 243//109 245//136 246//120
f 243//109 246//120 247//121
f 243//109 247//121 248//122
f 243//109 248//122 249//150
f 243//109 249//150 250//143
f 243//109 250//143 244//135
f 251//139 245//136 244//135
f 252//140 246//120 245//136
f 253//127 247//121 246//120
f 254//128 248//122 247//121
f 255//129 249//150 248//122
f 256//151 250//143 249//150
f 257//144 244//135 250//143
f 251//139 258//110 252//140
f 252//140 258//110 253//127
f 253//127 258//110 254//128
f 254//128 258//110 255//129
f 255//129 258//110 256//151
f 256//151 258//110 257//144
f 257//144 258//110 251//139
f 273//109 274//118 275//136
f 273//109 275//136 276//120
f 273//109 276//120 277//121
f 273//109 277//121 278//122
f 273//109 278//122 279//150
f 273//109 279//150 280//143
f 273//109 280//143 274//118
f 281//125 275//136 274//118
f 282//140 276//120 275//136
f 283//127 277//121 276//120
f 284//128 278//122 277//121
f 285//129 279//150 278//122
f 286//151 280//143 279//150
f 287//144 274//118 280//143
f 281//125 288//110 282//140
f 282//140 288//110 283//127
f 283//127 288//110 284//128
f 284//128 288//110 285//129
f 285//129 288//110 286//151
f 286//151 288//110 287//144
f 287//144 288//110 281//125
f 303//109 304//135 305//136
f 303//109 305//136 306//120
f 303//109 306//120 307//121
f 303//109 307//121 308//138
f 303//109 308//138 309//150
f 303//109 309//150 310//124
f 303//109 310//124 304//135
f 311//139 305//136 304//135
f 312//140 306//120 305//136
f 313//127 307//121 306//120
f 314//128 308//138 307//121
f 315//142 309//150 308//138
f 316//151 310//124 309//150
f 317//131 304//135 310//124
f 311//139 318//110 312//140
f 312//140 318//110 313//127
f 313//127 318//110 314//128
f 314//128 318//110 315//142
f 315//142 318//110 316//151
f 316//151 318//110 317//131
f 317//131 318//110 311//139
f 333//109 334//118 335//119
f 333//109 335//119 336//120
f 333//109 336//120 337//137
f 333//109 337//137 338//138
f 333//109 338//138 339//123
f 333//109 339//123 340//143
f 333//109 340//143 334//118
f 341//125 335//119 334//118
f 342//126 336//120 335//119
f 343//127 337//137 336//120
f 344//141 338//138 337//137
f 345//142 339//123 338//138
f 346//130 340//143 339//123
f 347//144 334//118 340//143
f 341//125 348//110 342//126
f 342//126 348//110 343//127
f 343//127 348//110 344//141
f 344//141 348//110 345//142
f 345//142 348//110 346//130
f 346//130 348//110 347//144
f 347//144 348//110 341//125
f 101//125 102//126 95//119
f 102//126 103//127 96//120
f 103//127 104//128 97//121
f 104//128 105//129 98//122
f 105//129 106//130 99//123
f 106//130 107//131 100//124
f 107//131 101//125 94//118
f 131//139 132//140 125//136
f 132//140 133//127 126//120
f 133//127 134//141 127//137
f 134//141 135//142 128//138
f 135//142 136//130 129//123
f 136//130 137//131 130//124
f 137//131 131//139 124//135
f 161//139 162//140 155//136
f 162//140 163//127 156//120
f 163//127 164//141 157//137
f 164//141 165//142 158//138
f 165//142 166//130 159//123
f 166//130 167//131 160//124
f 167//131 161//139 154//135
f 191//125 192//126 185//119
f 192//126 193//127 186//120
f 193//127 194//141 187//137
f 194//141 195//142 188//138
f 195//142 196//130 189//123
f 196//130 197//144 190//143
f 197//144 191//125 184//118
f 221//139 222//140 215//136
f 222//140 223//149 216//148
f 223//149 224//141 217//137
f 224//141 225//129 218//122
f 225//129 226//130 219//123
f 226//130 227//131 220//124
f 227//131 221//139 214//135
f 251//139 252//140 245//136
f 252//140 253//127 246//120
f 253//127 254//128 247//121
f 254//128 255//129 248//122
f 255//129 256//151 249//150
f 256//151 257//144 250//143
f 257//144 251//139 244//135
f 281//125 282//140 275//136
f 282//140 283//127 276//120
f 283//127 284//128 277//121
f 284//128 285//129 278//122
f 285//129 286//151 279//150
f 286//151 287//144 280//143
f 287//144 281//125 274//118
f 311//139 312//140 305//136
f 312//140 313//127 306//120
f 313//127 314//128 307//121
f 314//128 315//142 308//138
f 315//142 316//151 309//150
f 316//151 317//131 310//124
f 317//131 311//139 304//135
f 341//125 342//126 335//119
f 342//126 343//127 336//120
f 343//127 344//141 337//137
f 344//141 345//142 338//138
f 345//142 346//130 339//123
f 346//130 347//144 340//143
f 347//144 341//125 334//118
