# Blender 5.2.1 LTS
# www.blender.org
mtllib channel_bank_straight_a.mtl
o channel_bank_straight_a
v -4.300000 -0.000000 -4.000000
v -2.200000 -0.000000 -4.000000
v -2.200000 0.440000 -4.000000
v -4.300000 0.440000 -4.000000
v -4.300000 0.000000 4.000000
v -2.200000 0.000000 4.000000
v -2.200000 0.440000 4.000000
v -4.300000 0.440000 4.000000
v -2.350000 0.250000 -3.000000
v -1.180870 0.340000 -3.000000
v -1.523300 0.340000 -2.112060
v -2.350000 0.340000 -1.744260
v -3.176700 0.340000 -2.112060
v -3.519130 0.340000 -3.000000
v -3.176700 0.340000 -3.887940
v -2.350000 0.340000 -4.255740
v -1.523300 0.340000 -3.887940
v -1.180870 0.520000 -3.000000
v -1.523300 0.520000 -2.112060
v -2.350000 0.520000 -1.744260
v -3.176700 0.520000 -2.112060
v -3.519130 0.520000 -3.000000
v -3.176700 0.520000 -3.887940
v -2.350000 0.520000 -4.255740
v -1.523300 0.520000 -3.887940
v -2.350000 0.610000 -3.000000
v -2.350000 0.250000 -1.000000
v -1.180870 0.340000 -1.000000
v -1.523300 0.340000 -0.112060
v -2.350000 0.340000 0.255740
v -3.176700 0.340000 -0.112060
v -3.519130 0.340000 -1.000000
v -3.176700 0.340000 -1.887940
v -2.350000 0.340000 -2.255740
v -1.523300 0.340000 -1.887940
v -1.180870 0.520000 -1.000000
v -1.523300 0.520000 -0.112060
v -2.350000 0.520000 0.255740
v -3.176700 0.520000 -0.112060
v -3.519130 0.520000 -1.000000
v -3.176700 0.520000 -1.887940
v -2.350000 0.520000 -2.255740
v -1.523300 0.520000 -1.887940
v -2.350000 0.610000 -1.000000
v -2.350000 0.250000 1.000000
v -1.180870 0.340000 1.000000
v -1.523300 0.340000 1.887940
v -2.350000 0.340000 2.255740
v -3.176700 0.340000 1.887940
v -3.519130 0.340000 1.000000
v -3.176700 0.340000 0.112060
v -2.350000 0.340000 -0.255740
v -1.523300 0.340000 0.112060
v -1.180870 0.520000 1.000000
v -1.523300 0.520000 1.887940
v -2.350000 0.520000 2.255740
v -3.176700 0.520000 1.887940
v -3.519130 0.520000 1.000000
v -3.176700 0.520000 0.112060
v -2.350000 0.520000 -0.255740
v -1.523300 0.520000 0.112060
v -2.350000 0.610000 1.000000
v -2.350000 0.250000 3.000000
v -1.180870 0.340000 3.000000
v -1.523300 0.340000 3.887940
v -2.350000 0.340000 4.255740
v -3.176700 0.340000 3.887940
v -3.519130 0.340000 3.000000
v -3.176700 0.340000 2.112060
v -2.350000 0.340000 1.744260
v -1.523300 0.340000 2.112060
v -1.180870 0.520000 3.000000
v -1.523300 0.520000 3.887940
v -2.350000 0.520000 4.255740
v -3.176700 0.520000 3.887940
v -3.519130 0.520000 3.000000
v -3.176700 0.520000 2.112060
v -2.350000 0.520000 1.744260
v -1.523300 0.520000 2.112060
v -2.350000 0.610000 3.000000
v 2.200000 -0.000000 -4.000000
v 4.300000 -0.000000 -4.000000
v 4.300000 0.440000 -4.000000
v 2.200000 0.440000 -4.000000
v 2.200000 0.000000 4.000000
v 4.300000 0.000000 4.000000
v 4.300000 0.440000 4.000000
v 2.200000 0.440000 4.000000
v 2.350000 0.250000 -3.000000
v 3.519130 0.340000 -3.000000
v 3.176700 0.340000 -2.112060
v 2.350000 0.340000 -1.744260
v 1.523300 0.340000 -2.112060
v 1.180870 0.340000 -3.000000
v 1.523300 0.340000 -3.887940
v 2.350000 0.340000 -4.255740
v 3.176700 0.340000 -3.887940
v 3.519130 0.520000 -3.000000
v 3.176700 0.520000 -2.112060
v 2.350000 0.520000 -1.744260
v 1.523300 0.520000 -2.112060
v 1.180870 0.520000 -3.000000
v 1.523300 0.520000 -3.887940
v 2.350000 0.520000 -4.255740
v 3.176700 0.520000 -3.887940
v 2.350000 0.610000 -3.000000
v 2.350000 0.250000 -1.000000
v 3.519130 0.340000 -1.000000
v 3.176700 0.340000 -0.112060
v 2.350000 0.340000 0.255740
v 1.523300 0.340000 -0.112060
v 1.180870 0.340000 -1.000000
v 1.523300 0.340000 -1.887940
v 2.350000 0.340000 -2.255740
v 3.176700 0.340000 -1.887940
v 3.519130 0.520000 -1.000000
v 3.176700 0.520000 -0.112060
v 2.350000 0.520000 0.255740
v 1.523300 0.520000 -0.112060
v 1.180870 0.520000 -1.000000
v 1.523300 0.520000 -1.887940
v 2.350000 0.520000 -2.255740
v 3.176700 0.520000 -1.887940
v 2.350000 0.610000 -1.000000
v 2.350000 0.250000 1.000000
v 3.519130 0.340000 1.000000
v 3.176700 0.340000 1.887940
v 2.350000 0.340000 2.255740
v 1.523300 0.340000 1.887940
v 1.180870 0.340000 1.000000
v 1.523300 0.340000 0.112060
v 2.350000 0.340000 -0.255740
v 3.176700 0.340000 0.112060
v 3.519130 0.520000 1.000000
v 3.176700 0.520000 1.887940
v 2.350000 0.520000 2.255740
v 1.523300 0.520000 1.887940
v 1.180870 0.520000 1.000000
v 1.523300 0.520000 0.112060
v 2.350000 0.520000 -0.255740
v 3.176700 0.520000 0.112060
v 2.350000 0.610000 1.000000
v 2.350000 0.250000 3.000000
v 3.519130 0.340000 3.000000
v 3.176700 0.340000 3.887940
v 2.350000 0.340000 4.255740
v 1.523300 0.340000 3.887940
v 1.180870 0.340000 3.000000
v 1.523300 0.340000 2.112060
v 2.350000 0.340000 1.744260
v 3.176700 0.340000 2.112060
v 3.519130 0.520000 3.000000
v 3.176700 0.520000 3.887940
v 2.350000 0.520000 4.255740
v 1.523300 0.520000 3.887940
v 1.180870 0.520000 3.000000
v 1.523300 0.520000 2.112060
v 2.350000 0.520000 1.744260
v 3.176700 0.520000 2.112060
v 2.350000 0.610000 3.000000
vn -0.0000 -0.0000 -1.0000
vn -0.0000 -0.0000 1.0000
vn -0.0000 -1.0000 -0.0000
vn 1.0000 -0.0000 -0.0000
vn -0.0000 1.0000 -0.0000
vn -1.0000 -0.0000 -0.0000
vn 0.0767 -0.9966 0.0296
vn 0.0318 -0.9969 0.0715
vn -0.0318 -0.9969 0.0715
vn -0.0767 -0.9966 0.0296
vn -0.0767 -0.9966 -0.0296
vn -0.0318 -0.9969 -0.0715
vn 0.0318 -0.9969 -0.0715
vn 0.0767 -0.9966 -0.0296
vn 0.9330 -0.0000 0.3598
vn 0.4065 -0.0000 0.9137
vn -0.4065 -0.0000 0.9137
vn -0.9330 -0.0000 0.3598
vn -0.9330 -0.0000 -0.3598
vn -0.4065 -0.0000 -0.9137
vn 0.4065 -0.0000 -0.9137
vn 0.9330 -0.0000 -0.3598
vn 0.0767 0.9966 0.0296
vn 0.0318 0.9969 0.0715
vn -0.0318 0.9969 0.0715
vn -0.0767 0.9966 0.0296
vn -0.0767 0.9966 -0.0296
vn -0.0318 0.9969 -0.0715
vn 0.0318 0.9969 -0.0715
vn 0.0767 0.9966 -0.0296
s 0
usemtl verdant_silt
f 4//1 2//1 1//1
f 6//2 8//2 5//2
f 2//3 5//3 1//3
f 3//4 6//4 2//4
f 4//5 7//5 3//5
f 8//6 1//6 5//6
f 9//7 10//7 11//7
f 9//8 11//8 12//8
f 9//9 12//9 13//9
f 9//10 13//10 14//10
f 9//11 14//11 15//11
f 9//12 15//12 16//12
f 9//13 16//13 17//13
f 9//14 17//14 10//14
f 18//15 11//15 10//15
f 19//16 12//16 11//16
f 20//17 13//17 12//17
f 21//18 14//18 13//18
f 22//19 15//19 14//19
f 23//20 16//20 15//20
f 24//21 17//21 16//21
f 25//22 10//22 17//22
f 18//23 26//23 19//23
f 19//24 26//24 20//24
f 20//25 26//25 21//25
f 21//26 26//26 22//26
f 22//27 26//27 23//27
f 23//28 26//28 24//28
f 24//29 26//29 25//29
f 25//30 26//30 18//30
f 27//7 28//7 29//7
f 27//8 29//8 30//8
f 27//9 30//9 31//9
f 27//10 31//10 32//10
f 27//11 32//11 33//11
f 27//12 33//12 34//12
f 27//13 34//13 35//13
f 27//14 35//14 28//14
f 36//15 29//15 28//15
f 37//16 30//16 29//16
f 38//17 31//17 30//17
f 39//18 32//18 31//18
f 40//19 33//19 32//19
f 41//20 34//20 33//20
f 42//21 35//21 34//21
f 43//22 28//22 35//22
f 36//23 44//23 37//23
f 37//24 44//24 38//24
f 38//25 44//25 39//25
f 39//26 44//26 40//26
f 40//27 44//27 41//27
f 41//28 44//28 42//28
f 42//29 44//29 43//29
f 43//30 44//30 36//30
f 45//7 46//7 47//7
f 45//8 47//8 48//8
f 45//9 48//9 49//9
f 45//10 49//10 50//10
f 45//11 50//11 51//11
f 45//12 51//12 52//12
f 45//13 52//13 53//13
f 45//14 53//14 46//14
f 54//15 47//15 46//15
f 55//16 48//16 47//16
f 56//17 49//17 48//17
f 57//18 50//18 49//18
f 58//19 51//19 50//19
f 59//20 52//20 51//20
f 60//21 53//21 52//21
f 61//22 46//22 53//22
f 54//23 62//23 55//23
f 55//24 62//24 56//24
f 56//25 62//25 57//25
f 57//26 62//26 58//26
f 58//27 62//27 59//27
f 59//28 62//28 60//28
f 60//29 62//29 61//29
f 61//30 62//30 54//30
f 63//7 64//7 65//7
f 63//8 65//8 66//8
f 63//9 66//9 67//9
f 63//10 67//10 68//10
f 63//11 68//11 69//11
f 63//12 69//12 70//12
f 63//13 70//13 71//13
f 63//14 71//14 64//14
f 72//15 65//15 64//15
f 73//16 66//16 65//16
f 74//17 67//17 66//17
f 75//18 68//18 67//18
f 76//19 69//19 68//19
f 77//20 70//20 69//20
f 78//21 71//21 70//21
f 79//22 64//22 71//22
f 72//23 80//23 73//23
f 73//24 80//24 74//24
f 74//25 80//25 75//25
f 75//26 80//26 76//26
f 76//27 80//27 77//27
f 77//28 80//28 78//28
f 78//29 80//29 79//29
f 79//30 80//30 72//30
f 84//1 82//1 81//1
f 86//2 88//2 85//2
f 82//3 85//3 81//3
f 83//4 86//4 82//4
f 84//5 87//5 83//5
f 88//6 81//6 85//6
f 89//7 90//7 91//7
f 89//8 91//8 92//8
f 89//9 92//9 93//9
f 89//10 93//10 94//10
f 89//11 94//11 95//11
f 89//12 95//12 96//12
f 89//13 96//13 97//13
f 89//14 97//14 90//14
f 98//15 91//15 90//15
f 99//16 92//16 91//16
f 100//17 93//17 92//17
f 101//18 94//18 93//18
f 102//19 95//19 94//19
f 103//20 96//20 95//20
f 104//21 97//21 96//21
f 105//22 90//22 97//22
f 98//23 106//23 99//23
f 99//24 106//24 100//24
f 100//25 106//25 101//25
f 101//26 106//26 102//26
f 102//27 106//27 103//27
f 103//28 106//28 104//28
f 104//29 106//29 105//29
f 105//30 106//30 98//30
f 107//7 108//7 109//7
f 107//8 109//8 110//8
f 107//9 110//9 111//9
f 107//10 111//10 112//10
f 107//11 112//11 113//11
f 107//12 113//12 114//12
f 107//13 114//13 115//13
f 107//14 115//14 108//14
f 116//15 109//15 108//15
f 117//16 110//16 109//16
f 118//17 111//17 110//17
f 119//18 112//18 111//18
f 120//19 113//19 112//19
f 121//20 114//20 113//20
f 122//21 115//21 114//21
f 123//22 108//22 115//22
f 116//23 124//23 117//23
f 117//24 124//24 118//24
f 118//25 124//25 119//25
f 119//26 124//26 120//26
f 120//27 124//27 121//27
f 121//28 124//28 122//28
f 122//29 124//29 123//29
f 123//30 124//30 116//30
f 125//7 126//7 127//7
f 125//8 127//8 128//8
f 125//9 128//9 129//9
f 125//10 129//10 130//10
f 125//11 130//11 131//11
f 125//12 131//12 132//12
f 125//13 132//13 133//13
f 125//14 133//14 126//14
f 134//15 127//15 126//15
f 135//16 128//16 127//16
f 136//17 129//17 128//17
f 137//18 130//18 129//18
f 138//19 131//19 130//19
f 139//20 132//20 131//20
f 140//21 133//21 132//21
f 141//22 126//22 133//22
f 134//23 142//23 135//23
f 135//24 142//24 136//24
f 136//25 142//25 137//25
f 137//26 142//26 138//26
f 138//27 142//27 139//27
f 139//28 142//28 140//28
f 140//29 142//29 141//29
f 141//30 142//30 134//30
f 143//7 144//7 145//7
f 143//8 145//8 146//8
f 143//9 146//9 147//9
f 143//10 147//10 148//10
f 143//11 148//11 149//11
f 143//12 149//12 150//12
f 143//13 150//13 151//13
f 143//14 151//14 144//14
f 152//15 145//15 144//15
f 153//16 146//16 145//16
f 154//17 147//17 146//17
f 155//18 148//18 147//18
f 156//19 149//19 148//19
f 157//20 150//20 149//20
f 158//21 151//21 150//21
f 159//22 144//22 151//22
f 152//23 160//23 153//23
f 153//24 160//24 154//24
f 154//25 160//25 155//25
f 155//26 160//26 156//26
f 156//27 160//27 157//27
f 157//28 160//28 158//28
f 158//29 160//29 159//29
f 159//30 160//30 152//30
f 4//1 3//1 2//1
f 6//2 7//2 8//2
f 2//3 6//3 5//3
f 3//4 7//4 6//4
f 4//5 8//5 7//5
f 8//6 4//6 1//6
f 18//15 19//15 11//15
f 19//16 20//16 12//16
f 20//17 21//17 13//17
f 21//18 22//18 14//18
f 22//19 23//19 15//19
f 23//20 24//20 16//20
f 24//21 25//21 17//21
f 25//22 18//22 10//22
f 36//15 37//15 29//15
f 37//16 38//16 30//16
f 38//17 39//17 31//17
f 39//18 40//18 32//18
f 40//19 41//19 33//19
f 41//20 42//20 34//20
f 42//21 43//21 35//21
f 43//22 36//22 28//22
f 54//15 55//15 47//15
f 55//16 56//16 48//16
f 56//17 57//17 49//17
f 57//18 58//18 50//18
f 58//19 59//19 51//19
f 59//20 60//20 52//20
f 60//21 61//21 53//21
f 61//22 54//22 46//22
f 72//15 73//15 65//15
f 73//16 74//16 66//16
f 74//17 75//17 67//17
f 75//18 76//18 68//18
f 76//19 77//19 69//19
f 77//20 78//20 70//20
f 78//21 79//21 71//21
f 79//22 72//22 64//22
f 84//1 83//1 82//1
f 86//2 87//2 88//2
f 82//3 86//3 85//3
f 83//4 87//4 86//4
f 84//5 88//5 87//5
f 88//6 84//6 81//6
f 98//15 99//15 91//15
f 99//16 100//16 92//16
f 100//17 101//17 93//17
f 101//18 102//18 94//18
f 102//19 103//19 95//19
f 103//20 104//20 96//20
f 104//21 105//21 97//21
f 105//22 98//22 90//22
f 116//15 117//15 109//15
f 117//16 118//16 110//16
f 118//17 119//17 111//17
f 119//18 120//18 112//18
f 120//19 121//19 113//19
f 121//20 122//20 114//20
f 122//21 123//21 115//21
f 123//22 116//22 108//22
f 134//15 135//15 127//15
f 135//16 136//16 128//16
f 136//17 137//17 129//17
f 137//18 138//18 130//18
f 138//19 139//19 131//19
f 139//20 140//20 132//20
f 140//21 141//21 133//21
f 141//22 134//22 126//22
f 152//15 153//15 145//15
f 153//16 154//16 146//16
f 154//17 155//17 147//17
f 155//18 156//18 148//18
f 156//19 157//19 149//19
f 157//20 158//20 150//20
f 158//21 159//21 151//21
f 159//22 152//22 144//22
