# Blender 5.2.1 LTS
# www.blender.org
mtllib channel_bank_bend_a.mtl
o channel_bank_bend_a
v -3.900000 -0.000000 -4.000000
v -1.700000 -0.000000 -4.000000
v -1.700000 0.440000 -4.000000
v -3.900000 0.440000 -4.000000
v -3.900000 0.000000 1.000000
v -1.700000 0.000000 1.000000
v -1.700000 0.440000 1.000000
v -3.900000 0.440000 1.000000
v -4.000000 -0.000000 -3.900000
v 1.000000 -0.000000 -3.900000
v 1.000000 0.440000 -3.900000
v -4.000000 0.440000 -3.900000
v -4.000000 -0.000000 -1.700000
v 1.000000 -0.000000 -1.700000
v 1.000000 0.440000 -1.700000
v -4.000000 0.440000 -1.700000
v 1.800000 0.180000 1.800000
v 3.705260 0.260000 1.800000
v 3.259510 0.260000 3.024670
v 2.130840 0.260000 3.676310
v 0.847370 0.260000 3.450000
v 0.009650 0.260000 2.451640
v 0.009650 0.260000 1.148360
v 0.847370 0.260000 0.150000
v 2.130840 0.260000 -0.076310
v 3.259510 0.260000 0.575330
v 3.705260 0.420000 1.800000
v 3.259510 0.420000 3.024670
v 2.130840 0.420000 3.676310
v 0.847370 0.420000 3.450000
v 0.009650 0.420000 2.451640
v 0.009650 0.420000 1.148360
v 0.847370 0.420000 0.150000
v 2.130840 0.420000 -0.076310
v 3.259510 0.420000 0.575330
v 1.800000 0.500000 1.800000
vn -0.0000 -0.0000 -1.0000
vn -0.0000 -0.0000 1.0000
vn -0.0000 -1.0000 -0.0000
vn 1.0000 -0.0000 -0.0000
vn -0.0000 1.0000 -0.0000
vn -1.0000 -0.0000 -0.0000
vn 0.0419 -0.9990 0.0153
vn 0.0223 -0.9990 0.0387
vn -0.0078 -0.9990 0.0440
vn -0.0342 -0.9990 0.0287
vn -0.0446 -0.9990 -0.0000
vn -0.0342 -0.9990 -0.0287
vn -0.0078 -0.9990 -0.0440
vn 0.0223 -0.9990 -0.0387
vn 0.0419 -0.9990 -0.0153
vn 0.9397 -0.0000 0.3420
vn 0.5000 -0.0000 0.8660
vn -0.1736 -0.0000 0.9848
vn -0.7660 -0.0000 0.6428
vn -0.7660 -0.0000 -0.6428
vn -0.1736 -0.0000 -0.9848
vn 0.5000 -0.0000 -0.8660
vn 0.9397 -0.0000 -0.3420
vn 0.0419 0.9990 0.0153
vn 0.0223 0.9990 0.0387
vn -0.0078 0.9990 0.0440
vn -0.0342 0.9990 0.0287
vn -0.0446 0.9990 -0.0000
vn -0.0342 0.9990 -0.0287
vn -0.0078 0.9990 -0.0440
vn 0.0223 0.9990 -0.0387
vn 0.0419 0.9990 -0.0153
s 0
usemtl verdant_silt
f 4//1 2//1 1//1
f 6//2 8//2 5//2
f 2//3 5//3 1//3
f 3//4 6//4 2//4
f 4//5 7//5 3//5
f 8//6 1//6 5//6
f 12//1 10//1 9//1
f 14//2 16//2 13//2
f 10//3 13//3 9//3
f 11//4 14//4 10//4
f 12//5 15//5 11//5
f 16//6 9//6 13//6
f 17//7 18//7 19//7
f 17//8 19//8 20//8
f 17//9 20//9 21//9
f 17//10 21//10 22//10
f 17//11 22//11 23//11
f 17//12 23//12 24//12
f 17//13 24//13 25//13
f 17//14 25//14 26//14
f 17//15 26//15 18//15
f 27//16 19//16 18//16
f 28//17 20//17 19//17
f 29//18 21//18 20//18
f 30//19 22//19 21//19
f 31//6 23//6 22//6
f 32//20 24//20 23//20
f 33//21 25//21 24//21
f 34//22 26//22 25//22
f 35//23 18//23 26//23
f 27//24 36//24 28//24
f 28//25 36//25 29//25
f 29//26 36//26 30//26
f 30//27 36//27 31//27
f 31//28 36//28 32//28
f 32//29 36//29 33//29
f 33//30 36//30 34//30
f 34//31 36//31 35//31
f 35//32 36//32 27//32
f 4//1 3//1 2//1
f 6//2 7//2 8//2
f 2//3 6//3 5//3
f 3//4 7//4 6//4
f 4//5 8//5 7//5
f 8//6 4//6 1//6
f 12//1 11//1 10//1
f 14//2 15//2 16//2
f 10//3 14//3 13//3
f 11//4 15//4 14//4
f 12//5 16//5 15//5
f 16//6 12//6 9//6
f 27//16 28//16 19//16
f 28//17 29//17 20//17
f 29//18 30//18 21//18
f 30//19 31//19 22//19
f 31//6 32//6 23//6
f 32//20 33//20 24//20
f 33//21 34//21 25//21
f 34//22 35//22 26//22
f 35//23 27//23 18//23
