# Blender 5.2.1 LTS
# www.blender.org
mtllib delta_island_a.mtl
o delta_island_a
v 0.000000 0.000000 0.000000
v 3.889090 0.070290 -0.000000
v 3.503950 0.070290 0.736330
v 2.424810 0.070290 1.326810
v 0.865400 0.070290 1.654510
v -0.865400 0.070290 1.654510
v -2.424810 0.070290 1.326810
v -3.503950 0.070290 0.736330
v -3.889090 0.070290 -0.000000
v -3.503950 0.070290 -0.736330
v -2.424810 0.070290 -1.326810
v -0.865400 0.070290 -1.654510
v 0.865400 0.070290 -1.654510
v 2.424810 0.070290 -1.326810
v 3.503950 0.070290 -0.736330
v 5.500000 0.240000 -0.000000
v 4.955330 0.240000 1.041320
v 3.429190 0.240000 1.876400
v 1.223870 0.240000 2.339830
v -1.223870 0.240000 2.339830
v -3.429190 0.240000 1.876400
v -4.955330 0.240000 1.041320
v -5.500000 0.240000 -0.000000
v -4.955330 0.240000 -1.041320
v -3.429190 0.240000 -1.876400
v -1.223870 0.240000 -2.339830
v 1.223870 0.240000 -2.339830
v 3.429190 0.240000 -1.876400
v 4.955330 0.240000 -1.041320
v 3.889090 0.409710 -0.000000
v 3.503950 0.409710 0.736330
v 2.424810 0.409710 1.326810
v 0.865400 0.409710 1.654510
v -0.865400 0.409710 1.654510
v -2.424810 0.409710 1.326810
v -3.503950 0.409710 0.736330
v -3.889090 0.409710 -0.000000
v -3.503950 0.409710 -0.736330
v -2.424810 0.409710 -1.326810
v -0.865400 0.409710 -1.654510
v 0.865400 0.409710 -1.654510
v 2.424810 0.409710 -1.326810
v 3.503950 0.409710 -0.736330
v 0.000000 0.480000 -0.000000
v -3.800000 0.228790 -0.059350
v -3.620000 1.038790 0.060650
v -3.850750 0.235430 -0.028040
v -3.670750 1.045430 0.091960
v -3.850750 0.226640 0.031310
v -3.670750 1.036640 0.151310
v -3.800000 0.211210 0.059350
v -3.620000 1.021210 0.179350
v -3.749250 0.204570 0.028040
v -3.569250 1.014570 0.148040
v -3.749250 0.213360 -0.031310
v -3.569250 1.023360 0.088690
v -2.550000 0.229770 0.427720
v -2.370000 0.957020 0.547720
v -2.600480 0.237050 0.459330
v -2.420480 0.964300 0.579330
v -2.600480 0.227280 0.518530
v -2.420480 0.954530 0.638530
v -2.550000 0.210230 0.546120
v -2.370000 0.937490 0.666120
v -2.499520 0.202950 0.514520
v -2.319520 0.930210 0.634520
v -2.499520 0.212720 0.455320
v -2.319520 0.939980 0.575320
v -1.300000 0.232680 -0.279910
v -1.120000 0.787770 -0.159910
v -1.349530 0.241680 -0.247270
v -1.169530 0.796780 -0.127270
v -1.349530 0.229010 -0.188620
v -1.169530 0.784100 -0.068620
v -1.300000 0.207320 -0.162610
v -1.120000 0.762420 -0.042610
v -1.250470 0.198320 -0.195250
v -1.070470 0.753410 -0.075250
v -1.250470 0.210990 -0.253900
v -1.070470 0.766090 -0.133900
v -0.050000 0.235400 -0.444370
v 0.130000 0.687200 -0.324370
v -0.098490 0.245750 -0.410580
v 0.081510 0.697550 -0.290580
v -0.098490 0.230340 -0.352590
v 0.081510 0.682150 -0.232590
v -0.050000 0.204600 -0.328390
v 0.130000 0.656400 -0.208390
v -0.001510 0.194250 -0.362180
v 0.178490 0.646050 -0.242180
v -0.001510 0.209660 -0.420170
v 0.178490 0.661460 -0.300170
v 1.200000 0.233680 0.338410
v 1.380000 0.746030 0.458410
v 1.150840 0.243220 0.371460
v 1.330840 0.755560 0.491460
v 1.150840 0.229530 0.429880
v 1.330840 0.741880 0.549880
v 1.200000 0.206320 0.455250
v 1.380000 0.718660 0.575250
v 1.249160 0.196780 0.422210
v 1.429160 0.709130 0.542210
v 1.249160 0.210470 0.363790
v 1.429160 0.722810 0.483790
v 2.450000 0.230410 0.146970
v 2.630000 0.911470 0.266970
v 2.399710 0.238100 0.178790
v 2.579710 0.919160 0.298790
v 2.399710 0.227680 0.237880
v 2.579710 0.908740 0.357880
v 2.450000 0.209590 0.265150
v 2.630000 0.890650 0.385150
v 2.500290 0.201900 0.233330
v 2.680290 0.882960 0.353330
v 2.500290 0.212320 0.174240
v 2.680290 0.893370 0.294240
v 3.700000 0.228870 -0.549810
v 3.880000 1.031700 -0.429810
v 3.649270 0.235560 -0.518480
v 3.829270 1.038390 -0.398480
v 3.649270 0.226690 -0.459130
v 3.829270 1.029520 -0.339130
v 3.700000 0.211130 -0.431130
v 3.880000 1.013960 -0.311130
v 3.750730 0.204440 -0.462460
v 3.930730 1.007270 -0.342460
v 3.750730 0.213310 -0.521800
v 3.930730 1.016140 -0.401800
vn 0.0181 -0.9998 0.0095
vn 0.0145 -0.9995 0.0265
vn 0.0080 -0.9992 0.0382
vn -0.0000 -0.9991 0.0424
vn -0.0080 -0.9992 0.0382
vn -0.0145 -0.9995 0.0265
vn -0.0181 -0.9998 0.0095
vn -0.0181 -0.9998 -0.0095
vn -0.0145 -0.9995 -0.0265
vn -0.0080 -0.9992 -0.0382
vn -0.0000 -0.9991 -0.0424
vn 0.0080 -0.9992 -0.0382
vn 0.0145 -0.9995 -0.0265
vn 0.0181 -0.9998 -0.0095
vn 0.1046 -0.9930 0.0547
vn 0.0832 -0.9849 0.1521
vn 0.0457 -0.9750 0.2175
vn -0.0000 -0.9707 0.2404
vn -0.0457 -0.9750 0.2175
vn -0.0832 -0.9849 0.1521
vn -0.1046 -0.9930 0.0547
vn -0.1046 -0.9930 -0.0547
vn -0.0832 -0.9849 -0.1521
vn -0.0457 -0.9750 -0.2175
vn -0.0000 -0.9707 -0.2404
vn 0.0457 -0.9750 -0.2175
vn 0.0832 -0.9849 -0.1521
vn 0.1046 -0.9930 -0.0547
vn 0.1046 0.9930 0.0547
vn 0.0832 0.9849 0.1521
vn 0.0457 0.9750 0.2175
vn -0.0000 0.9707 0.2404
vn -0.0457 0.9750 0.2175
vn -0.0832 0.9849 0.1521
vn -0.1046 0.9930 0.0547
vn -0.1046 0.9930 -0.0547
vn -0.0832 0.9849 -0.1521
vn -0.0457 0.9750 -0.2175
vn -0.0000 0.9707 -0.2404
vn 0.0457 0.9750 -0.2175
vn 0.0832 0.9849 -0.1521
vn 0.1046 0.9930 -0.0547
vn 0.0181 0.9998 0.0095
vn 0.0145 0.9995 0.0265
vn 0.0080 0.9992 0.0382
vn -0.0000 0.9991 0.0424
vn -0.0080 0.9992 0.0382
vn -0.0145 0.9995 0.0265
vn -0.0181 0.9998 0.0095
vn -0.0181 0.9998 -0.0095
vn -0.0145 0.9995 -0.0265
vn -0.0080 0.9992 -0.0382
vn -0.0000 0.9991 -0.0424
vn 0.0080 0.9992 -0.0382
vn 0.0145 0.9995 -0.0265
vn 0.0181 0.9998 -0.0095
vn 0.5393 -0.7931 0.2831
vn -0.8012 -0.5016 0.3262
vn -0.1310 -0.4732 -0.8711
vn -0.5393 0.7931 -0.2830
vn 0.1310 0.4732 0.8711
vn 0.8012 0.5016 -0.3262
vn -0.8012 -0.3855 -0.4576
vn 0.1310 0.7054 -0.6966
vn -0.1310 -0.7054 0.6966
vn -0.5393 0.6770 0.5008
vn 0.8012 0.3855 0.4576
vn 0.5393 -0.6770 -0.5008
vn 0.5219 -0.8098 0.2680
vn -0.8114 -0.4885 0.3210
vn -0.1447 -0.4557 -0.8783
vn -0.5220 0.8098 -0.2679
vn 0.1447 0.4557 0.8783
vn 0.8114 0.4886 -0.3209
vn -0.8114 -0.3595 -0.4609
vn 0.1447 0.7136 -0.6854
vn -0.5220 0.6807 0.5139
vn -0.1447 -0.7137 0.6853
vn 0.8113 0.3595 0.4609
vn 0.5220 -0.6808 -0.5139
vn 0.4699 -0.8547 0.2206
vn -0.8385 -0.4494 0.3082
vn -0.1843 -0.4009 -0.8974
vn -0.4699 0.8547 -0.2206
vn 0.1843 0.4009 0.8974
vn 0.8385 0.4494 -0.3082
vn -0.8384 -0.2821 -0.4663
vn 0.1843 0.7357 -0.6517
vn -0.4699 0.6873 0.5539
vn -0.1843 -0.7358 0.6516
vn 0.8385 0.2819 0.4663
vn 0.4698 -0.6874 -0.5539
vn 0.4212 -0.8902 0.1735
vn -0.8596 -0.4136 0.3001
vn -0.2192 -0.3468 -0.9120
vn -0.4212 0.8902 -0.1735
vn 0.2192 0.3467 0.9120
vn 0.8596 0.4136 -0.3001
vn -0.8596 -0.2100 -0.4657
vn 0.2192 0.7535 -0.6198
vn -0.4212 0.6868 0.5924
vn -0.2192 -0.7535 0.6198
vn 0.8596 0.2100 0.4657
vn 0.4213 -0.6867 -0.5924
vn 0.4519 -0.8686 0.2035
vn -0.8467 -0.4360 0.3048
vn -0.1974 -0.3812 -0.9031
vn -0.4519 0.8686 -0.2034
vn 0.1974 0.3812 0.9032
vn 0.8468 0.4360 -0.3047
vn -0.8468 -0.2552 -0.4667
vn 0.1974 0.7427 -0.6399
vn -0.4518 0.6879 0.5680
vn -0.1974 -0.7426 0.6400
vn 0.8467 0.2554 0.4667
vn 0.4520 -0.6878 -0.5680
vn 0.5105 -0.8204 0.2577
vn -0.8177 -0.4799 0.3178
vn -0.1537 -0.4439 -0.8828
vn -0.5104 0.8204 -0.2577
vn 0.1537 0.4439 0.8828
vn 0.8178 0.4798 -0.3178
vn -0.8178 -0.3423 -0.4626
vn 0.1536 0.7189 -0.6780
vn -0.5105 0.6828 0.5227
vn -0.1536 -0.7188 0.6780
vn 0.8178 0.3423 0.4626
vn 0.5105 -0.6828 -0.5227
vn 0.5379 -0.7945 0.2819
vn -0.8020 -0.5006 0.3258
vn -0.1320 -0.4718 -0.8717
vn -0.5379 0.7945 -0.2819
vn 0.1321 0.4718 0.8717
vn 0.8020 0.5006 -0.3258
vn 0.1321 0.7061 -0.6957
vn -0.8020 -0.3835 -0.4579
vn -0.5379 0.6773 0.5019
vn -0.1320 -0.7062 0.6956
vn 0.5379 -0.6773 -0.5018
vn 0.8020 0.3835 0.4579
s 0
usemtl verdant_silt
f 1//1 2//1 3//1
f 1//2 3//2 4//2
f 1//3 4//3 5//3
f 1//4 5//4 6//4
f 1//5 6//5 7//5
f 1//6 7//6 8//6
f 1//7 8//7 9//7
f 1//8 9//8 10//8
f 1//9 10//9 11//9
f 1//10 11//10 12//10
f 1//11 12//11 13//11
f 1//12 13//12 14//12
f 1//13 14//13 15//13
f 1//14 15//14 2//14
f 2//15 17//15 3//15
f 3//16 18//16 4//16
f 4//17 19//17 5//17
f 5//18 20//18 6//18
f 20//19 7//19 6//19
f 21//20 8//20 7//20
f 22//21 9//21 8//21
f 9//22 24//22 10//22
f 10//23 25//23 11//23
f 11//24 26//24 12//24
f 12//25 27//25 13//25
f 27//26 14//26 13//26
f 28//27 15//27 14//27
f 29//28 2//28 15//28
f 30//29 17//29 16//29
f 31//30 18//30 17//30
f 32//31 19//31 18//31
f 33//32 20//32 19//32
f 20//33 35//33 21//33
f 21//34 36//34 22//34
f 22//35 37//35 23//35
f 37//36 24//36 23//36
f 38//37 25//37 24//37
f 39//38 26//38 25//38
f 40//39 27//39 26//39
f 27//40 42//40 28//40
f 28//41 43//41 29//41
f 29//42 30//42 16//42
f 30//43 44//43 31//43
f 31//44 44//44 32//44
f 32//45 44//45 33//45
f 33//46 44//46 34//46
f 34//47 44//47 35//47
f 35//48 44//48 36//48
f 36//49 44//49 37//49
f 37//50 44//50 38//50
f 38//51 44//51 39//51
f 39//52 44//52 40//52
f 40//53 44//53 41//53
f 41//54 44//54 42//54
f 42//55 44//55 43//55
f 43//56 44//56 30//56
f 2//15 16//15 17//15
f 3//16 17//16 18//16
f 4//17 18//17 19//17
f 5//18 19//18 20//18
f 20//19 21//19 7//19
f 21//20 22//20 8//20
f 22//21 23//21 9//21
f 9//22 23//22 24//22
f 10//23 24//23 25//23
f 11//24 25//24 26//24
f 12//25 26//25 27//25
f 27//26 28//26 14//26
f 28//27 29//27 15//27
f 29//28 16//28 2//28
f 30//29 31//29 17//29
f 31//30 32//30 18//30
f 32//31 33//31 19//31
f 33//32 34//32 20//32
f 20//33 34//33 35//33
f 21//34 35//34 36//34
f 22//35 36//35 37//35
f 37//36 38//36 24//36
f 38//37 39//37 25//37
f 39//38 40//38 26//38
f 40//39 41//39 27//39
f 27//40 41//40 42//40
f 28//41 42//41 43//41
f 29//42 43//42 30//42
s 1
usemtl verdant_growth
f 53//57 49//58 45//59
f 48//60 52//61 56//62
f 47//63 46//64 45//59
f 49//58 48//60 47//63
f 51//65 50//66 49//58
f 51//65 54//67 52//61
f 53//57 56//62 54//67
f 55//68 46//64 56//62
f 65//69 61//70 57//71
f 60//72 64//73 68//74
f 59//75 58//76 57//71
f 59//75 62//77 60//72
f 63//78 62//77 61//70
f 63//78 66//79 64//73
f 67//80 66//79 65//69
f 67//80 58//76 68//74
f 77//81 73//82 69//83
f 72//84 76//85 80//86
f 71//87 70//88 69//83
f 73//82 72//84 71//87
f 73//82 76//85 74//89
f 77//81 76//85 75//90
f 77//81 80//86 78//91
f 69//83 80//86 79//92
f 89//93 85//94 81//95
f 84//96 88//97 92//98
f 83//99 82//100 81//95
f 83//99 86//101 84//96
f 87//102 86//101 85//94
f 87//102 90//103 88//97
f 91//104 90//103 89//93
f 91//104 82//100 92//98
f 101//105 97//106 93//107
f 96//108 100//109 104//110
f 95//111 94//112 93//107
f 95//111 98//113 96//108
f 97//106 100//109 98//113
f 99//114 102//115 100//109
f 103//116 102//115 101//105
f 103//116 94//112 104//110
f 113//117 109//118 105//119
f 108//120 112//121 116//122
f 107//123 106//124 105//119
f 107//123 110//125 108//120
f 111//126 110//125 109//118
f 111//126 114//127 112//121
f 115//128 114//127 113//117
f 115//128 106//124 116//122
f 125//129 121//130 117//131
f 120//132 124//133 128//134
f 117//131 120//132 118//135
f 121//130 120//132 119//136
f 121//130 124//133 122//137
f 125//129 124//133 123//138
f 127//139 126//140 125//129
f 127//139 118//135 128//134
f 45//59 55//68 53//57
f 53//57 51//65 49//58
f 49//58 47//63 45//59
f 56//62 46//64 48//60
f 48//60 50//66 52//61
f 52//61 54//67 56//62
f 47//63 48//60 46//64
f 49//58 50//66 48//60
f 51//65 52//61 50//66
f 51//65 53//57 54//67
f 53//57 55//68 56//62
f 55//68 45//59 46//64
f 57//71 67//80 65//69
f 65//69 63//78 61//70
f 61//70 59//75 57//71
f 68//74 58//76 60//72
f 60//72 62//77 64//73
f 64//73 66//79 68//74
f 59//75 60//72 58//76
f 59//75 61//70 62//77
f 63//78 64//73 62//77
f 63//78 65//69 66//79
f 67//80 68//74 66//79
f 67//80 57//71 58//76
f 69//83 79//92 77//81
f 77//81 75//90 73//82
f 73//82 71//87 69//83
f 80//86 70//88 72//84
f 72//84 74//89 76//85
f 76//85 78//91 80//86
f 71//87 72//84 70//88
f 73//82 74//89 72//84
f 73//82 75//90 76//85
f 77//81 78//91 76//85
f 77//81 79//92 80//86
f 69//83 70//88 80//86
f 81//95 91//104 89//93
f 89//93 87//102 85//94
f 85//94 83//99 81//95
f 92//98 82//100 84//96
f 84//96 86//101 88//97
f 88//97 90//103 92//98
f 83//99 84//96 82//100
f 83//99 85//94 86//101
f 87//102 88//97 86//101
f 87//102 89//93 90//103
f 91//104 92//98 90//103
f 91//104 81//95 82//100
f 93//107 103//116 101//105
f 101//105 99//114 97//106
f 97//106 95//111 93//107
f 104//110 94//112 96//108
f 96//108 98//113 100//109
f 100//109 102//115 104//110
f 95//111 96//108 94//112
f 95//111 97//106 98//113
f 97//106 99//114 100//109
f 99//114 101//105 102//115
f 103//116 104//110 102//115
f 103//116 93//107 94//112
f 105//119 115//128 113//117
f 113//117 111//126 109//118
f 109//118 107//123 105//119
f 116//122 106//124 108//120
f 108//120 110//125 112//121
f 112//121 114//127 116//122
f 107//123 108//120 106//124
f 107//123 109//118 110//125
f 111//126 112//121 110//125
f 111//126 113//117 114//127
f 115//128 116//122 114//127
f 115//128 105//119 106//124
f 117//131 127//139 125//129
f 125//129 123//138 121//130
f 121//130 119//136 117//131
f 128//134 118//135 120//132
f 120//132 122//137 124//133
f 124//133 126//140 128//134
f 117//131 119//136 120//132
f 121//130 122//137 120//132
f 121//130 123//138 124//133
f 125//129 126//140 124//133
f 127//139 128//134 126//140
f 127//139 117//131 118//135
