# Blender 5.2.1 LTS
# www.blender.org
mtllib detail_scar_a.mtl
o detail_scar_a
v -1.213360 0.050000 -0.467650
v 1.086640 0.050000 0.482350
v -1.204130 0.016710 -0.490000
v 1.095870 0.016710 0.460000
v -1.189190 0.029430 -0.526170
v 1.110810 0.029430 0.423830
v -1.189190 0.070570 -0.526170
v 1.110810 0.070570 0.423830
v -1.204130 0.083290 -0.490000
v 1.095870 0.083290 0.460000
v -0.878030 0.050000 0.627240
v 0.671970 0.050000 -0.622760
v -0.893210 0.016710 0.608420
v 0.656790 0.016710 -0.641580
v -0.917780 0.029430 0.577960
v 0.632220 0.029430 -0.672040
v -0.917780 0.070570 0.577960
v 0.632220 0.070570 -0.672040
v -0.893210 0.083290 0.608420
v 0.656790 0.083290 -0.641580
v -0.266800 0.050000 0.761070
v 0.233200 0.050000 -0.738930
v -0.289740 0.016710 0.753420
v 0.210260 0.016710 -0.746580
v -0.326860 0.029430 0.741050
v 0.173140 0.029430 -0.758950
v -0.326860 0.070570 0.741050
v 0.173140 0.070570 -0.758950
v -0.289740 0.083290 0.753420
v 0.210260 0.083290 -0.746580
vn -0.9243 -0.0000 -0.3817
vn 0.9243 -0.0000 0.3818
vn -0.3089 -0.5877 0.7478
vn 0.1180 -0.9510 -0.2857
vn 0.3818 -0.0000 -0.9243
vn 0.1180 0.9510 -0.2857
vn -0.3089 0.5877 0.7478
vn -0.7784 -0.0000 0.6278
vn 0.7783 -0.0000 -0.6278
vn 0.5079 -0.5877 0.6298
vn -0.1940 -0.9510 -0.2406
vn -0.6278 -0.0000 -0.7784
vn -0.1940 0.9510 -0.2406
vn 0.5079 0.5877 0.6298
vn -0.3163 -0.0001 0.9487
vn 0.3162 -0.0000 -0.9487
vn 0.7676 -0.5877 0.2559
vn -0.2933 -0.9510 -0.0978
vn -0.9487 -0.0000 -0.3162
vn -0.2933 0.9510 -0.0978
vn 0.7676 0.5877 0.2559
vn -0.9243 -0.0000 -0.3818
vn 0.9243 -0.0000 0.3817
vn -0.7783 -0.0000 0.6278
vn 0.7784 -0.0000 -0.6278
vn -0.3162 0.0001 0.9487
vn -0.3162 -0.0000 0.9487
vn 0.3164 -0.0000 -0.9486
vn 0.3161 -0.0000 -0.9487
s 0
usemtl verdant_rock
f 7//1 3//1 1//1
f 4//2 8//2 10//2
f 1//3 4//3 2//3
f 3//4 6//4 4//4
f 7//5 6//5 5//5
f 7//6 10//6 8//6
f 1//7 10//7 9//7
f 17//8 13//8 11//8
f 14//9 18//9 20//9
f 11//10 14//10 12//10
f 13//11 16//11 14//11
f 17//12 16//12 15//12
f 19//13 18//13 17//13
f 11//14 20//14 19//14
f 27//15 23//15 21//15
f 24//16 28//16 30//16
f 23//17 22//17 21//17
f 23//18 26//18 24//18
f 27//19 26//19 25//19
f 29//20 28//20 27//20
f 29//21 22//21 30//21
f 1//22 9//22 7//22
f 7//22 5//22 3//22
f 10//23 2//23 4//23
f 4//2 6//2 8//2
f 1//3 3//3 4//3
f 3//4 5//4 6//4
f 7//5 8//5 6//5
f 7//6 9//6 10//6
f 1//7 2//7 10//7
f 11//24 19//24 17//24
f 17//24 15//24 13//24
f 20//25 12//25 14//25
f 14//9 16//9 18//9
f 11//10 13//10 14//10
f 13//11 15//11 16//11
f 17//12 18//12 16//12
f 19//13 20//13 18//13
f 11//14 12//14 20//14
f 21//26 29//26 27//26
f 27//27 25//27 23//27
f 30//28 22//28 24//28
f 24//29 26//29 28//29
f 23//17 24//17 22//17
f 23//18 25//18 26//18
f 27//19 28//19 26//19
f 29//20 30//20 28//20
f 29//21 21//21 22//21
