# Blender 5.2.1 LTS
# www.blender.org
mtllib detail_pebbles_a.mtl
o detail_pebbles_a
v -0.800000 -0.000000 -0.300000
v -0.609470 0.049500 -0.300000
v -0.704740 0.049500 -0.168000
v -0.895260 0.049500 -0.168000
v -0.990530 0.049500 -0.300000
v -0.895260 0.049500 -0.432000
v -0.704740 0.049500 -0.432000
v -0.609470 0.148500 -0.300000
v -0.704740 0.148500 -0.168000
v -0.895260 0.148500 -0.168000
v -0.990530 0.148500 -0.300000
v -0.895260 0.148500 -0.432000
v -0.704740 0.148500 -0.432000
v -0.800000 0.198000 -0.300000
v -0.250000 0.000000 0.200000
v -0.111440 0.036000 0.200000
v -0.180720 0.036000 0.296000
v -0.319280 0.036000 0.296000
v -0.388560 0.036000 0.200000
v -0.319280 0.036000 0.104000
v -0.180720 0.036000 0.104000
v -0.111440 0.108000 0.200000
v -0.180720 0.108000 0.296000
v -0.319280 0.108000 0.296000
v -0.388560 0.108000 0.200000
v -0.319280 0.108000 0.104000
v -0.180720 0.108000 0.104000
v -0.250000 0.144000 0.200000
v 0.220000 -0.000000 -0.150000
v 0.384540 0.042750 -0.150000
v 0.302270 0.042750 -0.036000
v 0.137730 0.042750 -0.036000
v 0.055460 0.042750 -0.150000
v 0.137730 0.042750 -0.264000
v 0.302270 0.042750 -0.264000
v 0.384540 0.128250 -0.150000
v 0.302270 0.128250 -0.036000
v 0.137730 0.128250 -0.036000
v 0.055460 0.128250 -0.150000
v 0.137730 0.128250 -0.264000
v 0.302270 0.128250 -0.264000
v 0.220000 0.171000 -0.150000
v 0.700000 0.000000 0.250000
v 0.916510 0.056250 0.250000
v 0.808250 0.056250 0.400000
v 0.591750 0.056250 0.400000
v 0.483490 0.056250 0.250000
v 0.591750 0.056250 0.100000
v 0.808250 0.056250 0.100000
v 0.916510 0.168750 0.250000
v 0.808250 0.168750 0.400000
v 0.591750 0.168750 0.400000
v 0.483490 0.168750 0.250000
v 0.591750 0.168750 0.100000
v 0.808250 0.168750 0.100000
v 0.700000 0.225000 0.250000
v 0.050000 0.000000 0.550000
v 0.153920 0.027000 0.550000
v 0.101960 0.027000 0.622000
v -0.001960 0.027000 0.622000
v -0.053920 0.027000 0.550000
v -0.001960 0.027000 0.478000
v 0.101960 0.027000 0.478000
v 0.153920 0.081000 0.550000
v 0.101960 0.081000 0.622000
v -0.001960 0.081000 0.622000
v -0.053920 0.081000 0.550000
v -0.001960 0.081000 0.478000
v 0.101960 0.081000 0.478000
v 0.050000 0.108000 0.550000
vn 0.2474 -0.9523 0.1786
vn -0.0000 -0.9363 0.3511
vn -0.2474 -0.9523 0.1786
vn -0.2474 -0.9523 -0.1786
vn -0.0000 -0.9363 -0.3511
vn 0.2474 -0.9523 -0.1786
vn 0.8109 -0.0000 0.5852
vn -0.0000 -0.0000 1.0000
vn -0.8109 -0.0000 0.5852
vn -0.8109 -0.0000 -0.5852
vn -0.0000 -0.0000 -1.0000
vn 0.8109 -0.0000 -0.5852
vn 0.2474 0.9523 0.1786
vn -0.0000 0.9363 0.3511
vn -0.2474 0.9523 0.1786
vn -0.2474 0.9523 -0.1786
vn -0.0000 0.9363 -0.3511
vn 0.2474 0.9523 -0.1786
s 0
usemtl verdant_rock
f 1//1 2//1 3//1
f 1//2 3//2 4//2
f 1//3 4//3 5//3
f 1//4 5//4 6//4
f 1//5 6//5 7//5
f 1//6 7//6 2//6
f 8//7 3//7 2//7
f 9//8 4//8 3//8
f 10//9 5//9 4//9
f 11//10 6//10 5//10
f 12//11 7//11 6//11
f 13//12 2//12 7//12
f 8//13 14//13 9//13
f 9//14 14//14 10//14
f 10//15 14//15 11//15
f 11//16 14//16 12//16
f 12//17 14//17 13//17
f 13//18 14//18 8//18
f 15//1 16//1 17//1
f 15//2 17//2 18//2
f 15//3 18//3 19//3
f 15//4 19//4 20//4
f 15//5 20//5 21//5
f 15//6 21//6 16//6
f 22//7 17//7 16//7
f 23//8 18//8 17//8
f 24//9 19//9 18//9
f 25//10 20//10 19//10
f 26//11 21//11 20//11
f 27//12 16//12 21//12
f 22//13 28//13 23//13
f 23//14 28//14 24//14
f 24//15 28//15 25//15
f 25//16 28//16 26//16
f 26//17 28//17 27//17
f 27//18 28//18 22//18
f 29//1 30//1 31//1
f 29//2 31//2 32//2
f 29//3 32//3 33//3
f 29//4 33//4 34//4
f 29//5 34//5 35//5
f 29//6 35//6 30//6
f 36//7 31//7 30//7
f 37//8 32//8 31//8
f 38//9 33//9 32//9
f 39//10 34//10 33//10
f 40//11 35//11 34//11
f 41//12 30//12 35//12
f 36//13 42//13 37//13
f 37//14 42//14 38//14
f 38//15 42//15 39//15
f 39//16 42//16 40//16
f 40//17 42//17 41//17
f 41//18 42//18 36//18
f 43//1 44//1 45//1
f 43//2 45//2 46//2
f 43//3 46//3 47//3
f 43//4 47//4 48//4
f 43//5 48//5 49//5
f 43//6 49//6 44//6
f 50//7 45//7 44//7
f 51//8 46//8 45//8
f 52//9 47//9 46//9
f 53//10 48//10 47//10
f 54//11 49//11 48//11
f 55//12 44//12 49//12
f 50//13 56//13 51//13
f 51//14 56//14 52//14
f 52//15 56//15 53//15
f 53//16 56//16 54//16
f 54//17 56//17 55//17
f 55//18 56//18 50//18
f 57//1 58//1 59//1
f 57//2 59//2 60//2
f 57//3 60//3 61//3
f 57//4 61//4 62//4
f 57//5 62//5 63//5
f 57//6 63//6 58//6
f 64//7 59//7 58//7
f 65//8 60//8 59//8
f 66//9 61//9 60//9
f 67//10 62//10 61//10
f 68//11 63//11 62//11
f 69//12 58//12 63//12
f 64//13 70//13 65//13
f 65//14 70//14 66//14
f 66//15 70//15 67//15
f 67//16 70//16 68//16
f 68//17 70//17 69//17
f 69//18 70//18 64//18
f 8//7 9//7 3//7
f 9//8 10//8 4//8
f 10//9 11//9 5//9
f 11//10 12//10 6//10
f 12//11 13//11 7//11
f 13//12 8//12 2//12
f 22//7 23//7 17//7
f 23//8 24//8 18//8
f 24//9 25//9 19//9
f 25//10 26//10 20//10
f 26//11 27//11 21//11
f 27//12 22//12 16//12
f 36//7 37//7 31//7
f 37//8 38//8 32//8
f 38//9 39//9 33//9
f 39//10 40//10 34//10
f 40//11 41//11 35//11
f 41//12 36//12 30//12
f 50//7 51//7 45//7
f 51//8 52//8 46//8
f 52//9 53//9 47//9
f 53//10 54//10 48//10
f 54//11 55//11 49//11
f 55//12 50//12 44//12
f 64//7 65//7 59//7
f 65//8 66//8 60//8
f 66//9 67//9 61//9
f 67//10 68//10 62//10
f 68//11 69//11 63//11
f 69//12 64//12 58//12
