# Blender 5.2.1 LTS
# www.blender.org
mtllib detail_ripple_a.mtl
o detail_ripple_a
v -1.200000 0.025000 -0.525000
v 1.200000 0.025000 -0.525000
v -1.200000 0.001220 -0.542270
v 1.200000 0.001220 -0.542270
v -1.200000 0.010310 -0.570230
v 1.200000 0.010310 -0.570230
v -1.200000 0.039690 -0.570230
v 1.200000 0.039690 -0.570230
v -1.200000 0.048780 -0.542270
v 1.200000 0.048780 -0.542270
v -1.200000 0.025000 0.025000
v 1.200000 0.025000 0.025000
v -1.200000 0.001220 0.007730
v 1.200000 0.001220 0.007730
v -1.200000 0.010310 -0.020230
v 1.200000 0.010310 -0.020230
v -1.200000 0.039690 -0.020230
v 1.200000 0.039690 -0.020230
v -1.200000 0.048780 0.007730
v 1.200000 0.048780 0.007730
v -1.200000 0.025000 0.575000
v 1.200000 0.025000 0.575000
v -1.200000 0.001220 0.557730
v 1.200000 0.001220 0.557730
v -1.200000 0.010310 0.529770
v 1.200000 0.010310 0.529770
v -1.200000 0.039690 0.529770
v 1.200000 0.039690 0.529770
v -1.200000 0.048780 0.557730
v 1.200000 0.048780 0.557730
vn -1.0000 -0.0000 -0.0000
vn 1.0000 -0.0000 -0.0000
vn -0.0000 -0.5876 0.8091
vn -0.0000 -0.9510 -0.3092
vn -0.0000 -0.0000 -1.0000
vn -0.0000 0.9510 -0.3092
vn -0.0000 0.5876 0.8091
s 0
usemtl verdant_silt
f 7//1 3//1 1//1
f 4//2 8//2 10//2
f 3//3 2//3 1//3
f 5//4 4//4 3//4
f 7//5 6//5 5//5
f 9//6 8//6 7//6
f 1//7 10//7 9//7
f 17//1 13//1 11//1
f 14//2 18//2 20//2
f 13//3 12//3 11//3
f 15//4 14//4 13//4
f 17//5 16//5 15//5
f 19//6 18//6 17//6
f 11//7 20//7 19//7
f 27//1 23//1 21//1
f 24//2 28//2 30//2
f 23//3 22//3 21//3
f 25//4 24//4 23//4
f 27//5 26//5 25//5
f 29//6 28//6 27//6
f 21//7 30//7 29//7
f 1//1 9//1 7//1
f 7//1 5//1 3//1
f 10//2 2//2 4//2
f 4//2 6//2 8//2
f 3//3 4//3 2//3
f 5//4 6//4 4//4
f 7//5 8//5 6//5
f 9//6 10//6 8//6
f 1//7 2//7 10//7
f 11//1 19//1 17//1
f 17//1 15//1 13//1
f 20//2 12//2 14//2
f 14//2 16//2 18//2
f 13//3 14//3 12//3
f 15//4 16//4 14//4
f 17//5 18//5 16//5
f 19//6 20//6 18//6
f 11//7 12//7 20//7
f 21//1 29//1 27//1
f 27//1 25//1 23//1
f 30//2 22//2 24//2
f 24//2 26//2 28//2
f 23//3 24//3 22//3
f 25//4 26//4 24//4
f 27//5 28//5 26//5
f 29//6 30//6 28//6
f 21//7 22//7 30//7
