# Blender 5.2.1 LTS
# www.blender.org
mtllib filter_grove_a.mtl
o filter_grove_a
v -1.800000 -0.000000 -0.600000
v -0.154550 0.027500 -0.600000
v -0.415760 0.027500 -0.131790
v -1.116460 0.027500 0.187760
v -2.034170 0.027500 0.257210
v -2.877540 0.027500 0.054500
v -3.378800 0.027500 -0.356010
v -3.378800 0.027500 -0.843990
v -2.877540 0.027500 -1.254500
v -2.034170 0.027500 -1.457210
v -1.116460 0.027500 -1.387760
v -0.415760 0.027500 -1.068210
v -0.154550 0.082500 -0.600000
v -0.415760 0.082500 -0.131790
v -1.116460 0.082500 0.187760
v -2.034170 0.082500 0.257210
v -2.877540 0.082500 0.054500
v -3.378800 0.082500 -0.356010
v -3.378800 0.082500 -0.843990
v -2.877540 0.082500 -1.254500
v -2.034170 0.082500 -1.457210
v -1.116460 0.082500 -1.387760
v -0.415760 0.082500 -1.068210
v -1.800000 0.110000 -0.600000
v 0.400000 0.000000 0.500000
v 2.305260 0.027500 0.500000
v 2.002800 0.027500 1.085260
v 1.191470 0.027500 1.484710
v 0.128850 0.027500 1.571510
v -0.847680 0.027500 1.318120
v -1.428080 0.027500 0.804980
v -1.428080 0.027500 0.195020
v -0.847680 0.027500 -0.318120
v 0.128850 0.027500 -0.571510
v 1.191470 0.027500 -0.484710
v 2.002800 0.027500 -0.085260
v 2.305260 0.082500 0.500000
v 2.002800 0.082500 1.085260
v 1.191470 0.082500 1.484710
v 0.128850 0.082500 1.571510
v -0.847680 0.082500 1.318120
v -1.428080 0.082500 0.804980
v -1.428080 0.082500 0.195020
v -0.847680 0.082500 -0.318120
v 0.128850 0.082500 -0.571510
v 1.191470 0.082500 -0.484710
v 2.002800 0.082500 -0.085260
v 0.400000 0.110000 0.500000
v 2.100000 -0.000000 -0.400000
v 3.355740 0.027500 -0.400000
v 3.156390 0.027500 0.021390
v 2.621650 0.027500 0.308990
v 1.921290 0.027500 0.371490
v 1.277670 0.027500 0.189050
v 0.895130 0.027500 -0.180410
v 0.895130 0.027500 -0.619590
v 1.277670 0.027500 -0.989050
v 1.921290 0.027500 -1.171490
v 2.621650 0.027500 -1.108990
v 3.156390 0.027500 -0.821390
v 3.355740 0.082500 -0.400000
v 3.156390 0.082500 0.021390
v 2.621650 0.082500 0.308990
v 1.921290 0.082500 0.371490
v 1.277670 0.082500 0.189050
v 0.895130 0.082500 -0.180410
v 0.895130 0.082500 -0.619590
v 1.277670 0.082500 -0.989050
v 1.921290 0.082500 -1.171490
v 2.621650 0.082500 -1.108990
v 3.156390 0.082500 -0.821390
v 2.100000 0.110000 -0.400000
v 0.644740 0.078360 0.039520
v 0.820800 1.268360 0.223730
v 0.551910 0.084860 0.086240
v 0.727970 1.274860 0.270450
v 0.528980 0.072640 0.187080
v 0.705040 1.262640 0.371290
v 0.593220 0.050900 0.266100
v 0.769290 1.240900 0.450310
v 0.696260 0.036020 0.263800
v 0.872320 1.226020 0.448010
v 0.760500 0.039190 0.181900
v 0.936570 1.229190 0.366120
v 0.737580 0.058030 0.082090
v 0.913640 1.248030 0.266300
v 0.660290 0.625000 0.115870
v 0.340290 0.865000 -0.001930
v 0.626430 0.590000 0.136540
v 0.306430 0.830000 0.018740
v 0.617880 0.603370 0.187010
v 0.297880 0.843370 0.069200
v 0.646450 0.646630 0.197530
v 0.326450 0.886630 0.079720
v 0.672660 0.660000 0.153560
v 0.352660 0.900000 0.035760
v 0.324740 0.865000 0.040300
v 0.445990 0.955000 0.040300
v 0.385360 0.955000 0.107800
v 0.264120 0.955000 0.107800
v 0.203500 0.955000 0.040300
v 0.264120 0.955000 -0.027200
v 0.385360 0.955000 -0.027200
v 0.445990 1.135000 0.040300
v 0.385360 1.135000 0.107800
v 0.264120 1.135000 0.107800
v 0.203500 1.135000 0.040300
v 0.264120 1.135000 -0.027200
v 0.385360 1.135000 -0.027200
v 0.324740 1.225000 0.040300
v 0.629200 0.925000 0.200330
v 0.949200 1.165000 0.318140
v 0.663050 0.890000 0.179660
v 0.983050 1.130000 0.297470
v 0.671610 0.903370 0.129200
v 0.991610 1.143370 0.247010
v 0.643030 0.946630 0.118680
v 0.963030 1.186630 0.236490
v 0.616820 0.960000 0.162640
v 0.936820 1.200000 0.280450
v 0.964740 1.165000 0.275910
v 1.085990 1.255000 0.275910
v 1.025360 1.255000 0.343410
v 0.904120 1.255000 0.343410
v 0.843500 1.255000 0.275910
v 0.904120 1.255000 0.208410
v 1.025360 1.255000 0.208410
v 1.085990 1.435000 0.275910
v 1.025360 1.435000 0.343410
v 0.904120 1.435000 0.343410
v 0.843500 1.435000 0.275910
v 0.904120 1.435000 0.208410
v 1.025360 1.435000 0.208410
v 0.964740 1.525000 0.275910
v 0.820800 1.150000 0.342320
v 1.045970 1.225000 0.342320
v 0.961190 1.225000 0.518360
v 0.770700 1.225000 0.561840
v 0.617940 1.225000 0.440010
v 0.617940 1.225000 0.244620
v 0.770700 1.225000 0.122790
v 0.961190 1.225000 0.166270
v 1.045970 1.375000 0.342320
v 0.961190 1.375000 0.518360
v 0.770700 1.375000 0.561840
v 0.617940 1.375000 0.440010
v 0.617940 1.375000 0.244620
v 0.770700 1.375000 0.122790
v 0.961190 1.375000 0.166270
v 0.820800 1.450000 0.342320
v -1.977960 0.054430 0.324350
v -2.257670 2.924430 0.135970
v -2.044110 0.050110 0.356700
v -2.323810 2.920110 0.168320
v -2.060440 0.053230 0.428560
v -2.340150 2.923230 0.240180
v -2.014670 0.061450 0.485810
v -2.294370 2.931450 0.297440
v -1.941260 0.068580 0.485350
v -2.220960 2.938580 0.296970
v -1.895480 0.069240 0.427510
v -2.175190 2.939240 0.239130
v -1.911820 0.062950 0.355860
v -2.191520 2.932950 0.167480
v -1.977960 1.465000 0.364160
v -2.347960 1.705000 0.364160
v -2.001250 1.429090 0.395260
v -2.371250 1.669090 0.395260
v -1.992360 1.442810 0.445570
v -2.362360 1.682810 0.445570
v -1.963570 1.487190 0.445570
v -2.333570 1.727190 0.445570
v -1.954670 1.500910 0.395260
v -2.324670 1.740910 0.395260
v -2.347960 1.705000 0.409160
v -2.226720 1.795000 0.409160
v -2.287340 1.795000 0.476660
v -2.408580 1.795000 0.476660
v -2.469210 1.795000 0.409160
v -2.408580 1.795000 0.341660
v -2.287340 1.795000 0.341660
v -2.226720 1.975000 0.409160
v -2.287340 1.975000 0.476660
v -2.408580 1.975000 0.476660
v -2.469210 1.975000 0.409160
v -2.408580 1.975000 0.341660
v -2.287340 1.975000 0.341660
v -2.347960 2.065000 0.409160
v -1.992600 2.168200 0.451710
v -1.622600 2.408200 0.579020
v -1.961330 2.131720 0.429590
v -1.591330 2.371720 0.556890
v -1.953040 2.145650 0.379240
v -1.583040 2.385650 0.506540
v -1.979200 2.190750 0.370240
v -1.609200 2.430750 0.497540
v -2.003650 2.204680 0.415030
v -1.633650 2.444680 0.542330
v -1.607960 2.408200 0.536460
v -1.486720 2.498200 0.536460
v -1.547340 2.498200 0.603960
v -1.668580 2.498200 0.603960
v -1.729210 2.498200 0.536460
v -1.668580 2.498200 0.468960
v -1.547340 2.498200 0.468960
v -1.486720 2.678200 0.536460
v -1.547340 2.678200 0.603960
v -1.668580 2.678200 0.603960
v -1.729210 2.678200 0.536460
v -1.668580 2.678200 0.468960
v -1.547340 2.678200 0.468960
v -1.607960 2.768200 0.536460
v 1.633620 0.063320 -1.880250
v 1.788980 2.453320 -1.786900
v 1.567300 0.066370 -1.848100
v 1.722660 2.456370 -1.754750
v 1.550930 0.064630 -1.776200
v 1.706280 2.454630 -1.682850
v 1.596820 0.059400 -1.718690
v 1.752180 2.449400 -1.625340
v 1.670420 0.054620 -1.718880
v 1.825780 2.444620 -1.625530
v 1.716320 0.053890 -1.776620
v 1.871670 2.443890 -1.683270
v 1.699940 0.057760 -1.848440
v 1.855290 2.447760 -1.755090
v 1.621470 1.225000 -1.838640
v 1.201470 1.465000 -1.720830
v 1.610000 1.187500 -1.803130
v 1.190000 1.427500 -1.685320
v 1.631180 1.201830 -1.756820
v 1.211180 1.441830 -1.639010
v 1.655730 1.248170 -1.763700
v 1.235730 1.488170 -1.645900
v 1.649730 1.262500 -1.814270
v 1.229730 1.502500 -1.696470
v 1.213620 1.465000 -1.677510
v 1.334860 1.555000 -1.677510
v 1.274240 1.555000 -1.610010
v 1.153000 1.555000 -1.610010
v 1.092380 1.555000 -1.677510
v 1.153000 1.555000 -1.745010
v 1.274240 1.555000 -1.745010
v 1.334860 1.735000 -1.677510
v 1.274240 1.735000 -1.610010
v 1.153000 1.735000 -1.610010
v 1.092380 1.735000 -1.677510
v 1.153000 1.735000 -1.745010
v 1.274240 1.735000 -1.745010
v 1.213620 1.825000 -1.677510
v 1.631510 1.813000 -1.750360
v 2.051510 2.053000 -1.730600
v 1.654160 1.775830 -1.780420
v 2.074160 2.015830 -1.760670
v 1.648430 1.790030 -1.831060
v 2.068430 2.030030 -1.811300
v 1.622230 1.835970 -1.832290
v 2.042230 2.075970 -1.812540
v 1.611780 1.850170 -1.782420
v 2.031780 2.090170 -1.762660
v 2.053620 2.053000 -1.775550
v 2.174860 2.143000 -1.775550
v 2.114240 2.143000 -1.708050
v 1.993000 2.143000 -1.708050
v 1.932380 2.143000 -1.775550
v 1.993000 2.143000 -1.843050
v 2.114240 2.143000 -1.843050
v 2.174860 2.323000 -1.775550
v 2.114240 2.323000 -1.708050
v 1.993000 2.323000 -1.708050
v 1.932380 2.323000 -1.775550
v 1.993000 2.323000 -1.843050
v 2.114240 2.323000 -1.843050
v 2.053620 2.413000 -1.775550
v 0.462580 0.062260 0.935970
v 0.558200 1.972260 0.986800
v 0.396200 0.064730 0.968050
v 0.491830 1.974730 1.018880
v 0.379810 0.063640 1.039950
v 0.475430 1.973640 1.090790
v 0.425740 0.059810 1.097540
v 0.521370 1.969810 1.148370
v 0.499410 0.056120 1.097440
v 0.595030 1.966120 1.148270
v 0.545340 0.055360 1.039730
v 0.640970 1.965360 1.090570
v 0.528950 0.058090 0.967870
v 0.624570 1.968090 1.018700
v 0.445940 0.985000 0.979120
v 0.125940 1.225000 1.106420
v 0.434700 0.949890 1.017060
v 0.114700 1.189890 1.144360
v 0.461980 0.963300 1.060350
v 0.141980 1.203300 1.187650
v 0.490080 1.006700 1.049170
v 0.170080 1.246700 1.176470
v 0.480170 1.020110 0.998970
v 0.160170 1.260110 1.126270
v 0.142580 1.225000 1.148240
v 0.263820 1.315000 1.148240
v 0.203200 1.315000 1.215740
v 0.081950 1.315000 1.215740
v 0.021330 1.315000 1.148240
v 0.081950 1.315000 1.080740
v 0.203200 1.315000 1.080740
v 0.263820 1.495000 1.148240
v 0.203200 1.495000 1.215740
v 0.081950 1.495000 1.215740
v 0.021330 1.495000 1.148240
v 0.081950 1.495000 1.080740
v 0.203200 1.495000 1.080740
v 0.142580 1.585000 1.148240
v 0.476720 1.457800 1.063650
v 0.796720 1.697800 0.957700
v 0.490510 1.422940 1.026330
v 0.810510 1.662940 0.920380
v 0.465700 1.436250 0.981550
v 0.785700 1.676250 0.875600
v 0.436570 1.479350 0.991200
v 0.756570 1.719350 0.885240
v 0.443380 1.492660 1.041940
v 0.763380 1.732660 0.935990
v 0.782580 1.697800 0.914980
v 0.903820 1.787800 0.914980
v 0.843200 1.787800 0.982480
v 0.721950 1.787800 0.982480
v 0.661330 1.787800 0.914980
v 0.721950 1.787800 0.847480
v 0.843200 1.787800 0.847480
v 0.903820 1.967800 0.914980
v 0.843200 1.967800 0.982480
v 0.721950 1.967800 0.982480
v 0.661330 1.967800 0.914980
v 0.721950 1.967800 0.847480
v 0.843200 1.967800 0.847480
v 0.782580 2.057800 0.914980
v 0.558200 1.870000 1.071770
v 0.783370 1.945000 1.071770
v 0.698590 1.945000 1.247810
v 0.508100 1.945000 1.291290
v 0.355330 1.945000 1.169460
v 0.355330 1.945000 0.974070
v 0.508100 1.945000 0.852250
v 0.698590 1.945000 0.895730
v 0.783370 2.095000 1.071770
v 0.698590 2.095000 1.247810
v 0.508100 2.095000 1.291290
v 0.355330 2.095000 1.169460
v 0.355330 2.095000 0.974070
v 0.508100 2.095000 0.852250
v 0.698590 2.095000 0.895730
v 0.558200 2.170000 1.071770
v -2.708800 0.045980 -1.128920
v -2.977460 1.475980 -1.297160
v -2.801020 0.034170 -1.082030
v -3.069680 1.464170 -1.250280
v -2.823800 0.041810 -0.980710
v -3.092460 1.471810 -1.148960
v -2.759980 0.063150 -0.901250
v -3.028640 1.493150 -1.069490
v -2.657610 0.082120 -0.903480
v -2.926270 1.512120 -1.071730
v -2.593790 0.084430 -0.985730
v -2.862450 1.514430 -1.153970
v -2.616570 0.068350 -1.086050
v -2.885230 1.498350 -1.254300
v -2.711200 0.745000 -1.054670
v -3.081200 0.985000 -1.034920
v -2.732770 0.709080 -1.022380
v -3.102770 0.949080 -1.002630
v -2.721210 0.722800 -0.972620
v -3.091210 0.962800 -0.952860
v -2.692500 0.767200 -0.974150
v -3.062500 1.007200 -0.954390
v -2.686300 0.780920 -1.024860
v -3.056300 1.020920 -1.005110
v -3.078800 0.985000 -0.989980
v -2.957550 1.075000 -0.989980
v -3.018170 1.075000 -0.922480
v -3.139420 1.075000 -0.922480
v -3.200040 1.075000 -0.989980
v -3.139420 1.075000 -1.057480
v -3.018170 1.075000 -1.057480
v -2.957550 1.255000 -0.989980
v -3.018170 1.255000 -0.922480
v -3.139420 1.255000 -0.922480
v -3.200040 1.255000 -0.989980
v -3.139420 1.255000 -1.057480
v -3.018170 1.255000 -1.057480
v -3.078800 1.345000 -0.989980
v -2.693450 1.102600 -0.967440
v -2.323450 1.342600 -1.101690
v -2.683110 1.066060 -1.004270
v -2.313110 1.306060 -1.138510
v -2.708270 1.080020 -1.048660
v -2.338270 1.320020 -1.182910
v -2.734160 1.125180 -1.039260
v -2.364160 1.365180 -1.173510
v -2.725000 1.139140 -0.989070
v -2.355000 1.379140 -1.123320
v -2.338800 1.342600 -1.143990
v -2.217550 1.432600 -1.143990
v -2.278170 1.432600 -1.076490
v -2.399420 1.432600 -1.076490
v -2.460040 1.432600 -1.143990
v -2.399420 1.432600 -1.211490
v -2.278170 1.432600 -1.211490
v -2.217550 1.612600 -1.143990
v -2.278170 1.612600 -1.076490
v -2.399420 1.612600 -1.076490
v -2.460040 1.612600 -1.143990
v -2.399420 1.612600 -1.211490
v -2.278170 1.612600 -1.211490
v -2.338800 1.702600 -1.143990
v 1.517440 0.065380 -0.237150
v 1.740150 3.175380 -0.040080
v 1.451160 0.068080 -0.204910
v 1.673860 3.178080 -0.007840
v 1.434780 0.064700 -0.133070
v 1.657490 3.174700 0.064000
v 1.480660 0.057780 -0.075720
v 1.703360 3.167780 0.121350
v 1.554230 0.052530 -0.076060
v 1.776940 3.162530 0.121010
v 1.600100 0.052910 -0.133820
v 1.822810 3.162910 0.063250
v 1.583730 0.058620 -0.205510
v 1.806440 3.168620 -0.008440
v 1.528450 1.585000 -0.195950
v 1.108450 1.825000 -0.301910
v 1.500730 1.547560 -0.170880
v 1.080730 1.787560 -0.276830
v 1.496110 1.561860 -0.120160
v 1.076110 1.801860 -0.226110
v 1.520970 1.608140 -0.113880
v 1.100970 1.848140 -0.219840
v 1.540960 1.622440 -0.160730
v 1.120960 1.862440 -0.266680
v 1.097440 1.825000 -0.258270
v 1.218690 1.915000 -0.258270
v 1.158060 1.915000 -0.190770
v 1.036820 1.915000 -0.190770
v 0.976200 1.915000 -0.258270
v 1.036820 1.915000 -0.325770
v 1.158060 1.915000 -0.325770
v 1.218690 2.095000 -0.258270
v 1.158060 2.095000 -0.190770
v 1.036820 2.095000 -0.190770
v 0.976200 2.095000 -0.258270
v 1.036820 2.095000 -0.325770
v 1.158060 2.095000 -0.325770
v 1.097440 2.185000 -0.258270
v 1.521620 2.345800 -0.107510
v 1.941620 2.585800 -0.146630
v 1.539800 2.308600 -0.140440
v 1.959800 2.548600 -0.179560
v 1.527090 2.322810 -0.189780
v 1.947090 2.562810 -0.228900
v 1.501040 2.368790 -0.187360
v 1.921040 2.608790 -0.226470
v 1.497660 2.383000 -0.136510
v 1.917660 2.623000 -0.175630
v 1.937440 2.585800 -0.191440
v 2.058690 2.675800 -0.191440
v 1.998060 2.675800 -0.123940
v 1.876820 2.675800 -0.123940
v 1.816200 2.675800 -0.191440
v 1.876820 2.675800 -0.258940
v 1.998060 2.675800 -0.258940
v 2.058690 2.855800 -0.191440
v 1.998060 2.855800 -0.123940
v 1.876820 2.855800 -0.123940
v 1.816200 2.855800 -0.191440
v 1.876820 2.855800 -0.258940
v 1.998060 2.855800 -0.258940
v 1.937440 2.945800 -0.191440
v -1.795200 0.056060 1.265490
v -1.790420 2.686060 1.143370
v -1.861650 0.057660 1.297450
v -1.856880 2.687660 1.175330
v -1.878070 0.061030 1.369290
v -1.873290 2.691030 1.247160
v -1.832080 0.063620 1.426900
v -1.827300 2.693620 1.304770
v -1.758320 0.063490 1.426900
v -1.753540 2.693490 1.304780
v -1.712330 0.060730 1.369300
v -1.707550 2.690730 1.247180
v -1.728740 0.057420 1.297460
v -1.723970 2.687420 1.175340
v -1.777790 1.345000 1.308900
v -2.097790 1.585000 1.174650
v -1.812270 1.309800 1.328160
v -2.132270 1.549800 1.193910
v -1.823160 1.323250 1.378150
v -2.143160 1.563250 1.243900
v -1.795410 1.366750 1.389790
v -2.115410 1.606750 1.255540
v -1.767370 1.380200 1.346990
v -2.087370 1.620200 1.212740
v -2.115200 1.585000 1.216150
v -1.993960 1.675000 1.216150
v -2.054580 1.675000 1.283650
v -2.175820 1.675000 1.283650
v -2.236440 1.675000 1.216150
v -2.175820 1.675000 1.148650
v -2.054580 1.675000 1.148650
v -1.993960 1.855000 1.216150
v -2.054580 1.855000 1.283650
v -2.175820 1.855000 1.283650
v -2.236440 1.855000 1.216150
v -2.175820 1.855000 1.148650
v -2.054580 1.855000 1.148650
v -2.115200 1.945000 1.216150
v -1.807630 1.990600 1.393650
v -1.487630 2.230600 1.485630
v -1.774990 1.955880 1.370680
v -1.454990 2.195880 1.462650
v -1.770280 1.969140 1.319680
v -1.450280 2.209140 1.411660
v -1.800010 2.012060 1.311140
v -1.480010 2.252060 1.403120
v -1.823090 2.025320 1.356850
v -1.503090 2.265320 1.448830
v -1.475200 2.230600 1.442380
v -1.353960 2.320600 1.442380
v -1.414580 2.320600 1.509880
v -1.535820 2.320600 1.509880
v -1.596440 2.320600 1.442380
v -1.535820 2.320600 1.374880
v -1.414580 2.320600 1.374880
v -1.353960 2.500600 1.442380
v -1.414580 2.500600 1.509880
v -1.535820 2.500600 1.509880
v -1.596440 2.500600 1.442380
v -1.535820 2.500600 1.374880
v -1.414580 2.500600 1.374880
v -1.475200 2.590600 1.442380
v -1.790420 2.590000 1.228280
v -1.565260 2.665000 1.228280
v -1.650030 2.665000 1.404320
v -1.840530 2.665000 1.447800
v -1.993290 2.665000 1.325970
v -1.993290 2.665000 1.130580
v -1.840530 2.665000 1.008760
v -1.650030 2.665000 1.052230
v -1.565260 2.815000 1.228280
v -1.650030 2.815000 1.404320
v -1.840530 2.815000 1.447800
v -1.993290 2.815000 1.325970
v -1.993290 2.815000 1.130580
v -1.840530 2.815000 1.008760
v -1.650030 2.815000 1.052230
v -1.790420 2.890000 1.228280
v -0.107920 0.059320 -0.813110
v -0.336290 2.209320 -0.830240
v -0.174010 0.052560 -0.781050
v -0.402380 2.202560 -0.798180
v -0.190330 0.051400 -0.709130
v -0.418700 2.201400 -0.726260
v -0.144600 0.056720 -0.651500
v -0.372970 2.206720 -0.668630
v -0.071250 0.064510 -0.651570
v -0.299620 2.214510 -0.668700
v -0.025520 0.068900 -0.709270
v -0.253890 2.218900 -0.726400
v -0.041840 0.066600 -0.781170
v -0.270210 2.216600 -0.798300
v -0.103190 1.105000 -0.772860
v -0.473190 1.345000 -0.811980
v -0.129530 1.069040 -0.744380
v -0.499530 1.309040 -0.783500
v -0.126010 1.082770 -0.693420
v -0.496010 1.322770 -0.732540
v -0.097490 1.127230 -0.690400
v -0.467490 1.367230 -0.729520
v -0.083390 1.140960 -0.739500
v -0.453390 1.380960 -0.778620
v -0.477920 1.345000 -0.767230
v -0.356680 1.435000 -0.767230
v -0.417300 1.435000 -0.699730
v -0.538550 1.435000 -0.699730
v -0.599170 1.435000 -0.767230
v -0.538550 1.435000 -0.834730
v -0.417300 1.435000 -0.834730
v -0.356680 1.615000 -0.767230
v -0.417300 1.615000 -0.699730
v -0.538550 1.615000 -0.699730
v -0.599170 1.615000 -0.767230
v -0.538550 1.615000 -0.834730
v -0.417300 1.615000 -0.834730
v -0.477920 1.705000 -0.767230
v -0.123700 1.635400 -0.685970
v 0.246300 1.875400 -0.547460
v -0.091990 1.598820 -0.707300
v 0.278010 1.838820 -0.568790
v -0.082300 1.612790 -0.757390
v 0.287700 1.852790 -0.618880
v -0.108020 1.658010 -0.767020
v 0.261980 1.898010 -0.628510
v -0.133610 1.671980 -0.722880
v 0.236390 1.911980 -0.584370
v 0.262080 1.875400 -0.589600
v 0.383320 1.965400 -0.589600
v 0.322700 1.965400 -0.522100
v 0.201450 1.965400 -0.522100
v 0.140830 1.965400 -0.589600
v 0.201450 1.965400 -0.657100
v 0.322700 1.965400 -0.657100
v 0.383320 2.145400 -0.589600
v 0.322700 2.145400 -0.522100
v 0.201450 2.145400 -0.522100
v 0.140830 2.145400 -0.589600
v 0.201450 2.145400 -0.657100
v 0.322700 2.145400 -0.657100
v 0.262080 2.235400 -0.589600
v 1.959940 0.070550 0.923540
v 2.225750 1.740550 1.070900
v 1.867270 0.081210 0.969840
v 2.133090 1.751210 1.117200
v 1.844390 0.075900 1.071280
v 2.110200 1.745900 1.218650
v 1.908510 0.058620 1.151490
v 2.174330 1.728620 1.298850
v 2.011360 0.042370 1.150050
v 2.277170 1.712370 1.297420
v 2.075480 0.039400 1.068060
v 2.341300 1.709400 1.215430
v 2.052600 0.051940 0.967250
v 2.318410 1.721940 1.114620
v 1.950310 0.865000 0.999110
v 1.530310 1.105000 1.091090
v 1.936590 0.827630 1.033950
v 1.516590 1.067630 1.125930
v 1.955130 0.841900 1.081390
v 1.535130 1.081900 1.173370
v 1.980320 0.888100 1.075880
v 1.560320 1.128100 1.167860
v 1.977340 0.902370 1.025030
v 1.557340 1.142370 1.117000
v 1.539940 1.105000 1.135050
v 1.661180 1.195000 1.135050
v 1.600560 1.195000 1.202550
v 1.479320 1.195000 1.202550
v 1.418690 1.195000 1.135050
v 1.479320 1.195000 1.067550
v 1.600560 1.195000 1.067550
v 1.661180 1.375000 1.135050
v 1.600560 1.375000 1.202550
v 1.479320 1.375000 1.202550
v 1.418690 1.375000 1.135050
v 1.479320 1.375000 1.067550
v 1.600560 1.375000 1.067550
v 1.539940 1.465000 1.135050
v 1.953810 1.280200 1.087650
v 2.373810 1.520200 1.145350
v 1.978930 1.242960 1.059720
v 2.398930 1.482960 1.117420
v 1.977800 1.257180 1.008780
v 2.397800 1.497180 1.066480
v 1.951980 1.303220 1.005230
v 2.371980 1.543220 1.062930
v 1.937160 1.317440 1.053980
v 2.357160 1.557440 1.111680
v 2.379940 1.520200 1.100770
v 2.501180 1.610200 1.100770
v 2.440560 1.610200 1.168270
v 2.319320 1.610200 1.168270
v 2.258690 1.610200 1.100770
v 2.319320 1.610200 1.033270
v 2.440560 1.610200 1.033270
v 2.501180 1.790200 1.100770
v 2.440560 1.790200 1.168270
v 2.319320 1.790200 1.168270
v 2.258690 1.790200 1.100770
v 2.319320 1.790200 1.033270
v 2.440560 1.790200 1.033270
v 2.379940 1.880200 1.100770
v -0.980000 0.045910 -0.083740
v -1.066590 1.235910 -0.283740
v -1.046290 0.046530 -0.051390
v -1.132880 1.236530 -0.251390
v -1.062660 0.057290 0.019720
v -1.149250 1.247290 -0.180280
v -1.016790 0.070090 0.076050
v -1.103380 1.260090 -0.123950
v -0.943210 0.075300 0.075170
v -1.029810 1.265300 -0.124830
v -0.897340 0.068980 0.017750
v -0.983940 1.258980 -0.182250
v -0.913710 0.055910 -0.052970
v -1.000310 1.245910 -0.252970
v -0.997880 0.625000 -0.041210
v -1.317880 0.865000 0.097300
v -1.007790 0.589750 -0.003040
v -1.327790 0.829750 0.135470
v -0.979300 0.603210 0.039450
v -1.299300 0.843210 0.177960
v -0.951780 0.646790 0.027540
v -1.271780 0.886790 0.166050
v -0.963260 0.660250 -0.022320
v -1.283260 0.900250 0.116190
v -1.300000 0.865000 0.138590
v -1.178760 0.955000 0.138590
v -1.239380 0.955000 0.206090
v -1.360620 0.955000 0.206090
v -1.421240 0.955000 0.138590
v -1.360620 0.955000 0.071090
v -1.239380 0.955000 0.071090
v -1.178760 1.135000 0.138590
v -1.239380 1.135000 0.206090
v -1.360620 1.135000 0.206090
v -1.421240 1.135000 0.138590
v -1.360620 1.135000 0.071090
v -1.239380 1.135000 0.071090
v -1.300000 1.225000 0.138590
v -0.969580 0.925000 0.043860
v -0.649580 1.165000 -0.032300
v -0.952240 0.890430 0.007770
v -0.632240 1.130430 -0.068390
v -0.973260 0.903630 -0.038940
v -0.653260 1.143630 -0.115100
v -1.003600 0.946370 -0.031720
v -0.683600 1.186370 -0.107890
v -1.001320 0.959570 0.019450
v -0.681320 1.199570 -0.056710
v -0.660000 1.165000 -0.076080
v -0.538760 1.255000 -0.076080
v -0.599380 1.255000 -0.008580
v -0.720620 1.255000 -0.008580
v -0.781240 1.255000 -0.076080
v -0.720620 1.255000 -0.143580
v -0.599380 1.255000 -0.143580
v -0.538760 1.435000 -0.076080
v -0.599380 1.435000 -0.008580
v -0.720620 1.435000 -0.008580
v -0.781240 1.435000 -0.076080
v -0.720620 1.435000 -0.143580
v -0.599380 1.435000 -0.143580
v -0.660000 1.525000 -0.076080
v -1.066590 1.150000 -0.199920
v -0.841430 1.225000 -0.199920
v -0.926200 1.225000 -0.023870
v -1.116700 1.225000 0.019610
v -1.269460 1.225000 -0.102220
v -1.269460 1.225000 -0.297610
v -1.116700 1.225000 -0.419440
v -0.926200 1.225000 -0.375960
v -0.841430 1.375000 -0.199920
v -0.926200 1.375000 -0.023870
v -1.116700 1.375000 0.019610
v -1.269460 1.375000 -0.102220
v -1.269460 1.375000 -0.297610
v -1.116700 1.375000 -0.419440
v -0.926200 1.375000 -0.375960
v -1.066590 1.450000 -0.199920
v 1.753150 0.064360 -1.018470
v 1.589940 2.934360 -0.871140
v 1.686800 0.058950 -0.986700
v 1.523590 2.928950 -0.839370
v 1.670410 0.054340 -0.914930
v 1.507200 2.924340 -0.767610
v 1.716330 0.053990 -0.857200
v 1.553120 2.923990 -0.709880
v 1.789970 0.058160 -0.856990
v 1.626760 2.928160 -0.709670
v 1.835880 0.063720 -0.914450
v 1.672670 2.933720 -0.767120
v 1.819500 0.066480 -0.986310
v 1.656290 2.936480 -0.838990
v 1.746220 1.465000 -0.978040
v 1.376220 1.705000 -0.920340
v 1.728190 1.428970 -0.943760
v 1.358190 1.668970 -0.886060
v 1.744660 1.442730 -0.895410
v 1.374660 1.682730 -0.837710
v 1.772860 1.487270 -0.899810
v 1.402860 1.727270 -0.842110
v 1.773820 1.501030 -0.950880
v 1.403820 1.741030 -0.893180
v 1.383150 1.705000 -0.875880
v 1.504390 1.795000 -0.875880
v 1.443770 1.795000 -0.808380
v 1.322530 1.795000 -0.808380
v 1.261910 1.795000 -0.875880
v 1.322530 1.795000 -0.943380
v 1.443770 1.795000 -0.943380
v 1.504390 1.975000 -0.875880
v 1.443770 1.975000 -0.808380
v 1.322530 1.975000 -0.808380
v 1.261910 1.975000 -0.875880
v 1.322530 1.975000 -0.943380
v 1.443770 1.975000 -0.943380
v 1.383150 2.065000 -0.875880
v 1.769070 2.168200 -0.891490
v 2.139070 2.408200 -1.031490
v 1.778830 2.131610 -0.928430
v 2.148830 2.371610 -1.068430
v 1.753100 2.145590 -0.972480
v 2.123100 2.385590 -1.112480
v 1.727430 2.190810 -0.962770
v 2.097430 2.430810 -1.102770
v 1.737310 2.204790 -0.912720
v 2.107310 2.444790 -1.052710
v 2.123150 2.408200 -1.073580
v 2.244390 2.498200 -1.073580
v 2.183770 2.498200 -1.006080
v 2.062530 2.498200 -1.006080
v 2.001910 2.498200 -1.073580
v 2.062530 2.498200 -1.141080
v 2.183770 2.498200 -1.141080
v 2.244390 2.678200 -1.073580
v 2.183770 2.678200 -1.006080
v 2.062530 2.678200 -1.006080
v 2.001910 2.678200 -1.073580
v 2.062530 2.678200 -1.141080
v 2.183770 2.678200 -1.141080
v 2.123150 2.768200 -1.073580
v -0.059750 0.059390 0.319520
v 0.220230 2.449390 0.302450
v -0.125760 0.067350 0.351470
v 0.154230 2.457350 0.334400
v -0.142060 0.069780 0.423360
v 0.137920 2.459780 0.406290
v -0.096380 0.064840 0.481070
v 0.183600 2.454840 0.464000
v -0.023120 0.056260 0.481130
v 0.256860 2.446260 0.464060
v 0.022560 0.050490 0.423500
v 0.302540 2.440490 0.406430
v 0.006250 0.051890 0.351580
v 0.286230 2.441890 0.334510
v -0.051720 1.225000 0.360240
v -0.471720 1.465000 0.284080
v -0.077910 1.187690 0.387090
v -0.497910 1.427690 0.310930
v -0.079000 1.201940 0.438030
v -0.499000 1.441940 0.361860
v -0.053490 1.248060 0.442650
v -0.473490 1.488060 0.366490
v -0.036630 1.262310 0.394580
v -0.456630 1.502310 0.318420
v -0.479750 1.465000 0.328360
v -0.358510 1.555000 0.328360
v -0.419130 1.555000 0.395860
v -0.540370 1.555000 0.395860
v -0.600990 1.555000 0.328360
v -0.540370 1.555000 0.260860
v -0.419130 1.555000 0.260860
v -0.358510 1.735000 0.328360
v -0.419130 1.735000 0.395860
v -0.540370 1.735000 0.395860
v -0.600990 1.735000 0.328360
v -0.540370 1.735000 0.260860
v -0.419130 1.735000 0.260860
v -0.479750 1.825000 0.328360
v -0.051830 1.813000 0.448820
v 0.368170 2.053000 0.373700
v -0.036650 1.775700 0.414510
v 0.383350 2.015700 0.339390
v -0.053400 1.789950 0.366400
v 0.366600 2.029950 0.291280
v -0.078930 1.836050 0.370960
v 0.341070 2.076050 0.295840
v -0.077960 1.850300 0.421900
v 0.342040 2.090300 0.346780
v 0.360250 2.053000 0.329400
v 0.481490 2.143000 0.329400
v 0.420870 2.143000 0.396900
v 0.299630 2.143000 0.396900
v 0.239010 2.143000 0.329400
v 0.299630 2.143000 0.261900
v 0.420870 2.143000 0.261900
v 0.481490 2.323000 0.329400
v 0.420870 2.323000 0.396900
v 0.299630 2.323000 0.396900
v 0.239010 2.323000 0.329400
v 0.299630 2.323000 0.261900
v 0.420870 2.323000 0.261900
v 0.360250 2.413000 0.329400
v -1.282780 0.052340 -1.084100
v -1.451310 1.962340 -1.206270
v -1.376240 0.047010 -1.038490
v -1.544770 1.957010 -1.160660
v -1.399320 0.051460 -0.937050
v -1.567850 1.961460 -1.059220
v -1.334640 0.062340 -0.856160
v -1.503180 1.972340 -0.978330
v -1.230910 0.071460 -0.856750
v -1.399450 1.981460 -0.978910
v -1.166240 0.071950 -0.938360
v -1.334770 1.981950 -1.060530
v -1.189320 0.063440 -1.039540
v -1.357850 1.973440 -1.161710
v -1.264740 0.985000 -1.005580
v -1.584740 1.225000 -1.145580
v -1.299410 0.949730 -0.986800
v -1.619410 1.189730 -1.126800
v -1.311090 0.963200 -0.937000
v -1.631090 1.203200 -1.077000
v -1.283650 1.006800 -0.924990
v -1.603650 1.246800 -1.064990
v -1.255000 1.020270 -0.967380
v -1.575000 1.260270 -1.107370
v -1.602780 1.225000 -1.104350
v -1.481540 1.315000 -1.104350
v -1.542160 1.315000 -1.036850
v -1.663400 1.315000 -1.036850
v -1.724020 1.315000 -1.104350
v -1.663400 1.315000 -1.171850
v -1.542160 1.315000 -1.171850
v -1.481540 1.495000 -1.104350
v -1.542160 1.495000 -1.036850
v -1.663400 1.495000 -1.036850
v -1.724020 1.495000 -1.104350
v -1.663400 1.495000 -1.171850
v -1.542160 1.495000 -1.171850
v -1.602780 1.585000 -1.104350
v -1.290910 1.457800 -0.920090
v -0.970910 1.697800 -0.861270
v -1.260310 1.423360 -0.946080
v -0.940310 1.663360 -0.887260
v -1.260750 1.436510 -0.997320
v -0.940750 1.676510 -0.938490
v -1.291640 1.479090 -1.002990
v -0.971640 1.719090 -0.944170
v -1.310280 1.492240 -0.955270
v -0.990280 1.732240 -0.896440
v -0.962780 1.697800 -0.905530
v -0.841540 1.787800 -0.905530
v -0.902160 1.787800 -0.838030
v -1.023400 1.787800 -0.838030
v -1.084020 1.787800 -0.905530
v -1.023400 1.787800 -0.973030
v -0.902160 1.787800 -0.973030
v -0.841540 1.967800 -0.905530
v -0.902160 1.967800 -0.838030
v -1.023400 1.967800 -0.838030
v -1.084020 1.967800 -0.905530
v -1.023400 1.967800 -0.973030
v -0.902160 1.967800 -0.973030
v -0.962780 2.057800 -0.905530
v -1.451310 1.870000 -1.086520
v -1.226150 1.945000 -1.086520
v -1.310920 1.945000 -0.910480
v -1.501420 1.945000 -0.867000
v -1.654180 1.945000 -0.988820
v -1.654180 1.945000 -1.184220
v -1.501420 1.945000 -1.306040
v -1.310920 1.945000 -1.262560
v -1.226150 2.095000 -1.086520
v -1.310920 2.095000 -0.910480
v -1.501420 2.095000 -0.867000
v -1.654180 2.095000 -0.988820
v -1.654180 2.095000 -1.184220
v -1.501420 2.095000 -1.306040
v -1.310920 2.095000 -1.262560
v -1.451310 2.170000 -1.086520
vn -0.0000 -1.0000 -0.0000
vn 0.7946 -0.6072 -0.0000
vn 0.5235 -0.6367 0.5662
vn 0.1879 -0.6601 0.7273
vn -0.0603 -0.6632 0.7460
vn -0.3383 -0.6520 0.6786
vn -0.7116 -0.6169 0.3363
vn -0.7116 -0.6169 -0.3363
vn -0.3383 -0.6520 -0.6786
vn -0.0603 -0.6632 -0.7460
vn 0.1879 -0.6601 -0.7273
vn 0.5235 -0.6367 -0.5662
vn 0.7946 0.6072 -0.0000
vn 0.5235 0.6367 0.5662
vn 0.1879 0.6601 0.7273
vn -0.0603 0.6632 0.7460
vn -0.3383 0.6520 0.6786
vn -0.7116 0.6169 0.3363
vn -0.7116 0.6169 -0.3363
vn -0.3383 0.6520 -0.6786
vn -0.0603 0.6632 -0.7460
vn 0.1879 0.6601 -0.7273
vn 0.5235 0.6367 -0.5662
vn -0.0000 1.0000 -0.0000
vn 0.7904 -0.6126 -0.0000
vn 0.5400 -0.6375 0.5495
vn 0.2007 -0.6596 0.7243
vn -0.0647 -0.6629 0.7459
vn -0.3570 -0.6516 0.6693
vn -0.7150 -0.6206 0.3217
vn -0.7150 -0.6206 -0.3217
vn -0.3570 -0.6516 -0.6693
vn -0.0647 -0.6629 -0.7459
vn 0.2007 -0.6596 -0.7243
vn 0.5400 -0.6375 -0.5495
vn 0.7904 0.6126 -0.0000
vn 0.5400 0.6375 0.5495
vn 0.2007 0.6596 0.7243
vn -0.0647 0.6629 0.7459
vn -0.3570 0.6516 0.6693
vn -0.7150 0.6206 0.3217
vn -0.7150 0.6206 -0.3217
vn -0.3570 0.6516 -0.6693
vn -0.0647 0.6629 -0.7459
vn 0.2007 0.6596 -0.7243
vn 0.5400 0.6375 -0.5495
vn 0.7880 -0.6157 -0.0000
vn 0.5608 -0.6350 0.5313
vn 0.2180 -0.6537 0.7247
vn -0.0708 -0.6567 0.7508
vn -0.3813 -0.6467 0.6606
vn -0.7212 -0.6218 0.3055
vn -0.7212 -0.6218 -0.3055
vn -0.3813 -0.6467 -0.6606
vn -0.0708 -0.6567 -0.7508
vn 0.2180 -0.6537 -0.7247
vn 0.5608 -0.6350 -0.5313
vn 0.7880 0.6157 -0.0000
vn 0.5608 0.6350 0.5313
vn 0.2180 0.6537 0.7247
vn -0.0708 0.6567 0.7508
vn -0.3813 0.6467 0.6606
vn -0.7212 0.6218 0.3055
vn -0.7212 0.6218 -0.3055
vn -0.3813 0.6467 -0.6606
vn -0.0708 0.6567 -0.7508
vn 0.2180 0.6537 -0.7247
vn 0.5608 0.6350 -0.5313
vn 0.6661 -0.7434 0.0614
vn -0.4263 -0.6669 0.6112
vn -0.6961 -0.4451 -0.5633
vn -0.5163 0.7698 -0.3752
vn -0.2466 0.5481 0.7993
vn 0.8458 0.4716 0.2495
vn -0.0899 -0.4876 -0.8684
vn 0.0899 0.7274 -0.6803
vn -0.6661 0.6900 0.2833
vn -0.8458 -0.5249 0.0952
vn 0.2466 -0.7640 0.5962
vn 0.4262 0.4509 0.7842
vn 0.6961 0.5946 -0.4024
vn 0.5163 -0.6203 -0.5904
vn 0.7674 -0.5756 0.2825
vn -0.7674 0.5755 -0.2825
vn -0.0380 -0.4807 -0.8761
vn -0.6205 -0.7777 0.1009
vn -0.3455 -0.0000 0.9384
vn 0.4069 0.7777 0.4791
vn 0.5970 0.4807 -0.6423
vn 0.9223 -0.3866 -0.0000
vn 0.3968 -0.3460 0.8502
vn -0.3968 -0.3460 0.8502
vn -0.9223 -0.3866 -0.0000
vn -0.3968 -0.3460 -0.8502
vn 0.3968 -0.3460 -0.8502
vn 0.9223 0.3866 -0.0000
vn 0.3968 0.3460 0.8502
vn -0.3968 0.3460 0.8502
vn -0.9223 0.3866 -0.0000
vn -0.3968 0.3460 -0.8502
vn 0.3968 0.3460 -0.8502
vn -0.7675 -0.5755 -0.2824
vn 0.7674 0.5755 0.2825
vn 0.0380 -0.4807 0.8761
vn 0.6204 -0.7778 -0.1008
vn 0.3455 -0.0000 -0.9384
vn -0.4069 0.7777 -0.4791
vn -0.5970 0.4806 0.6424
vn 0.8551 -0.5185 -0.0000
vn 0.5331 -0.5185 0.6685
vn -0.1903 -0.5185 0.8336
vn -0.7704 -0.5185 0.3710
vn -0.7704 -0.5185 -0.3710
vn -0.1903 -0.5185 -0.8336
vn 0.5331 -0.5185 -0.6685
vn 0.8551 0.5185 -0.0000
vn 0.5331 0.5185 0.6685
vn -0.1903 0.5185 0.8336
vn -0.7704 0.5185 0.3710
vn -0.7704 0.5185 -0.3710
vn -0.1903 0.5185 -0.8336
vn 0.5331 0.5185 -0.6685
vn 0.8205 -0.5318 0.2096
vn -0.2783 -0.6036 0.7471
vn -0.5497 -0.7082 -0.4432
vn -0.6699 0.5258 -0.5242
vn -0.3985 0.6304 0.6662
vn 0.7002 0.7022 0.1287
vn -0.0601 0.5656 -0.8225
vn 0.0602 -0.6683 -0.7414
vn -0.8205 0.5546 0.1383
vn -0.7002 -0.6794 0.2193
vn 0.3985 -0.5378 0.7429
vn 0.2783 0.6961 0.6618
vn 0.6699 -0.5898 -0.4510
vn 0.5496 0.6442 -0.5319
vn 0.8390 -0.5441 -0.0000
vn -0.8390 0.5441 -0.0000
vn -0.3199 -0.4932 -0.8090
vn -0.5176 -0.7979 0.3090
vn -0.0000 -0.0000 1.0000
vn 0.5175 0.7979 0.3091
vn 0.3199 0.4932 -0.8090
vn -0.8061 -0.5228 -0.2773
vn 0.8060 0.5229 0.2774
vn 0.0275 -0.5011 0.8649
vn 0.5707 -0.8107 -0.1303
vn 0.3253 -0.0000 -0.9456
vn -0.3697 0.8107 -0.4539
vn -0.5538 0.5010 0.6651
vn 0.7221 -0.6758 0.1481
vn -0.3796 -0.6250 0.6822
vn -0.6517 -0.5607 -0.5108
vn -0.5711 0.6782 -0.4625
vn -0.2990 0.6139 0.7305
vn 0.8026 0.5632 0.1965
vn -0.0403 -0.5888 -0.8072
vn 0.0403 0.6501 -0.7588
vn -0.8026 -0.5768 0.1520
vn -0.7221 0.6622 0.2004
vn 0.3796 0.5699 0.7288
vn 0.2990 -0.6691 0.6804
vn 0.5711 -0.6401 -0.5140
vn 0.6516 0.5988 -0.4656
vn 0.8436 -0.4821 -0.2366
vn -0.8436 0.4821 0.2367
vn -0.4913 -0.5149 -0.7025
vn -0.3579 -0.8332 0.4215
vn 0.2701 0.0001 0.9628
vn 0.5249 0.8332 0.1738
vn 0.0543 0.5149 -0.8555
vn -0.8675 -0.4957 -0.0407
vn 0.8676 0.4957 0.0406
vn 0.2531 -0.5106 0.8218
vn 0.4855 -0.8260 -0.2865
vn 0.0471 -0.0001 -0.9989
vn -0.4564 0.8260 -0.3308
vn -0.3291 0.5105 0.7944
vn 0.7320 -0.6630 0.1568
vn -0.3706 -0.6220 0.6897
vn -0.6429 -0.5767 -0.5041
vn -0.5808 0.6638 -0.4711
vn -0.3085 0.6185 0.7227
vn 0.7941 0.5774 0.1898
vn 0.0310 0.6411 -0.7669
vn -0.0310 -0.5994 -0.7998
vn -0.7941 -0.5867 0.1588
vn -0.7320 0.6538 0.1918
vn 0.3706 0.5844 0.7219
vn 0.3085 -0.6561 0.6888
vn 0.6429 0.6026 -0.4728
vn 0.5808 -0.6379 -0.5057
vn 0.7623 -0.5717 -0.3032
vn -0.7623 0.5718 0.3032
vn -0.6113 -0.4823 -0.6274
vn -0.3910 -0.7803 0.4881
vn 0.3697 -0.0000 0.9292
vn 0.6195 0.7803 0.0861
vn 0.0133 0.4823 -0.8759
vn -0.7733 -0.5800 0.2560
vn 0.7733 0.5801 -0.2559
vn 0.5779 -0.4788 0.6608
vn 0.4266 -0.7748 -0.4666
vn -0.3144 0.0001 -0.9493
vn -0.6208 0.7748 -0.1199
vn -0.0693 0.4788 0.8752
vn -0.1902 0.5185 -0.8336
vn 0.8650 -0.4470 0.2281
vn -0.2203 -0.5860 0.7798
vn -0.4883 -0.7752 -0.4007
vn -0.7162 0.4378 -0.5435
vn -0.4482 0.6271 0.6371
vn 0.6371 0.7661 0.0854
vn 0.1139 -0.6981 -0.7069
vn -0.1140 0.5150 -0.8496
vn -0.8650 0.4877 0.1182
vn -0.6371 -0.7253 0.2609
vn 0.4482 -0.4621 0.7653
vn 0.2203 0.7510 0.6225
vn 0.7162 -0.5520 -0.4270
vn 0.4883 0.6610 -0.5697
vn 0.8382 -0.5436 -0.0448
vn -0.8381 0.5437 0.0446
vn -0.3622 -0.4934 -0.7908
vn -0.4998 -0.7982 0.3361
vn 0.0533 -0.0001 0.9986
vn 0.5328 0.7982 0.2810
vn 0.2759 0.4933 -0.8249
vn -0.8026 -0.5207 0.2912
vn 0.8026 0.5206 -0.2913
vn 0.5636 -0.5018 0.6562
vn 0.3600 -0.8120 -0.4594
vn -0.3411 0.0001 -0.9400
vn -0.5708 0.8120 -0.1217
vn -0.0117 0.5019 0.8649
vn 0.7178 -0.6838 0.1314
vn -0.3834 -0.6389 0.6670
vn -0.6553 -0.5440 -0.5240
vn -0.5668 0.6929 -0.4456
vn -0.2948 0.5979 0.7453
vn 0.8063 0.5531 0.2098
vn -0.0443 -0.5688 -0.8213
vn 0.0443 0.6680 -0.7428
vn -0.8063 -0.5751 0.1383
vn -0.7177 0.6618 0.2166
vn 0.3835 0.5495 0.7423
vn 0.2949 -0.6873 0.6638
vn 0.6554 0.6057 -0.4512
vn 0.5668 -0.6312 -0.5295
vn 0.8481 -0.4847 0.2140
vn -0.8481 0.4847 -0.2140
vn -0.0783 -0.5142 -0.8541
vn -0.5225 -0.8319 0.1869
vn -0.2447 -0.0001 0.9696
vn 0.3713 0.8319 0.4124
vn 0.4741 0.5141 -0.7148
vn -0.8655 -0.4944 0.0807
vn 0.8655 0.4945 -0.0807
vn 0.3645 -0.5110 0.7785
vn 0.4396 -0.8266 -0.3513
vn -0.0928 0.0001 -0.9957
vn -0.4970 0.8266 -0.2640
vn -0.2144 0.5109 0.8325
vn 0.7628 -0.6139 0.2031
vn -0.3411 -0.5872 0.7341
vn -0.6137 -0.6422 -0.4593
vn -0.6115 0.5990 -0.5169
vn -0.3389 0.6539 0.6764
vn 0.7651 0.6273 0.1454
vn -0.0011 -0.6569 -0.7540
vn 0.0011 0.5843 -0.8115
vn -0.7651 -0.6111 0.2029
vn -0.7628 0.6301 0.1453
vn 0.3389 -0.5884 0.7341
vn 0.3411 0.6527 0.6765
vn 0.6138 0.5968 -0.5169
vn 0.6115 -0.6444 -0.4592
vn 0.7584 -0.5688 0.3182
vn -0.7584 0.5688 -0.3181
vn 0.0046 -0.4835 -0.8753
vn -0.6184 -0.7822 0.0757
vn -0.3868 -0.0000 0.9221
vn 0.3793 0.7822 0.4943
vn 0.6213 0.4834 -0.6167
vn -0.7797 -0.5847 -0.2241
vn 0.7797 0.5847 0.2241
vn 0.1069 -0.4769 0.8724
vn 0.6198 -0.7715 -0.1434
vn 0.2762 0.0001 -0.9611
vn -0.4491 0.7715 -0.4506
vn -0.5538 0.4768 0.6826
vn 0.5332 -0.5185 0.6685
vn 0.8253 -0.5357 0.1787
vn -0.2725 -0.6480 0.7112
vn -0.5436 -0.6863 -0.4831
vn -0.6748 0.5491 -0.4930
vn -0.4037 0.5875 0.7014
vn 0.6941 0.6998 0.1688
vn -0.0656 0.6114 -0.7886
vn 0.0656 -0.6240 -0.7786
vn -0.6941 -0.6971 0.1799
vn -0.8253 0.5384 0.1701
vn 0.2725 0.6593 0.7007
vn 0.4037 -0.5762 0.7106
vn 0.6749 -0.5568 -0.4842
vn 0.5436 0.6786 -0.4940
vn 0.8357 -0.5421 0.0884
vn -0.8357 0.5421 -0.0884
vn -0.2318 -0.4939 -0.8380
vn -0.5452 -0.7992 0.2530
vn -0.1052 -0.0001 0.9945
vn 0.4802 0.7992 0.3614
vn 0.4019 0.4940 -0.7710
vn -0.8004 -0.5191 -0.2997
vn 0.8004 0.5192 0.2997
vn 0.0021 -0.5023 0.8647
vn 0.5708 -0.8128 -0.1163
vn 0.3506 -0.0000 -0.9365
vn -0.3541 0.8128 -0.4625
vn -0.5694 0.5023 0.6507
vn 0.6572 -0.7457 0.1093
vn -0.4331 -0.6202 0.6541
vn -0.7024 -0.4727 -0.5322
vn -0.5078 0.7497 -0.4243
vn -0.2385 0.6022 0.7619
vn 0.8518 0.4767 0.2171
vn -0.0973 -0.5423 -0.8345
vn 0.0973 0.6801 -0.7266
vn -0.6573 0.7150 0.2382
vn -0.8518 -0.5074 0.1303
vn 0.4331 0.4961 0.7526
vn 0.2385 -0.7263 0.6446
vn 0.5078 -0.6638 -0.5491
vn 0.7024 0.5586 -0.4412
vn 0.8530 -0.4873 -0.1868
vn -0.8530 0.4874 0.1867
vn -0.4530 -0.5133 -0.7289
vn -0.3867 -0.8305 0.4009
vn 0.2139 -0.0001 0.9769
vn 0.5189 0.8305 0.2026
vn 0.1069 0.5133 -0.8515
vn -0.8621 -0.4927 -0.1185
vn 0.8621 0.4926 0.1184
vn 0.1767 -0.5115 0.8409
vn 0.5062 -0.8277 -0.2423
vn 0.1361 -0.0000 -0.9907
vn -0.4222 0.8277 -0.3698
vn -0.3970 0.5115 0.7621
vn 0.8065 -0.5283 0.2656
vn -0.2947 -0.5181 0.8030
vn -0.5666 -0.7353 -0.3718
vn -0.6555 0.4869 -0.5773
vn -0.3836 0.7041 0.5976
vn 0.7176 0.6939 0.0602
vn -0.0445 0.4811 -0.8755
vn 0.0444 -0.7410 -0.6700
vn -0.8065 0.5861 0.0783
vn -0.7176 -0.6361 0.2837
vn 0.3836 -0.4700 0.7949
vn 0.2947 0.7522 0.5894
vn 0.6556 -0.6487 -0.3865
vn 0.5666 0.5734 -0.5918
vn 0.7560 -0.5669 -0.3273
vn -0.7560 0.5670 0.3271
vn -0.6272 -0.4842 -0.6100
vn -0.3722 -0.7834 0.4977
vn 0.3972 -0.0000 0.9177
vn 0.6176 0.7834 0.0693
vn -0.0156 0.4841 -0.8749
vn -0.7858 -0.5895 0.1871
vn 0.7859 0.5894 -0.1870
vn 0.5244 -0.4749 0.7068
vn 0.4738 -0.7683 -0.4303
vn -0.2314 -0.0002 -0.9729
vn -0.6169 0.7683 -0.1707
vn -0.1497 0.4749 0.8672
vn 0.5332 0.5185 -0.6685
vn 0.7980 -0.5851 0.1446
vn -0.3042 -0.6748 0.6723
vn -0.5764 -0.6291 -0.5215
vn -0.6469 0.6098 -0.4579
vn -0.3746 0.5640 0.7359
vn 0.7275 0.6538 0.2082
vn 0.0353 -0.5792 -0.8144
vn -0.0353 0.6597 -0.7507
vn -0.7275 -0.6716 0.1402
vn -0.7980 0.5672 0.2037
vn 0.3043 0.6024 0.7379
vn 0.3747 -0.6364 0.6742
vn 0.6469 -0.5597 -0.5179
vn 0.5765 0.6792 -0.4543
vn 0.8319 -0.5396 -0.1297
vn -0.8319 0.5396 0.1297
vn -0.4380 -0.4949 -0.7505
vn -0.4594 -0.8007 0.3844
vn 0.1541 -0.0000 0.9881
vn 0.5547 0.8007 0.2262
vn 0.1887 0.4949 -0.8482
vn -0.7996 -0.5187 0.3026
vn 0.7996 0.5187 -0.3027
vn 0.5715 -0.5025 0.6488
vn 0.3520 -0.8131 -0.4637
vn -0.3539 -0.0000 -0.9353
vn -0.5707 0.8131 -0.1145
vn 0.0012 0.5025 0.8646
vn 0.6865 -0.7046 0.1794
vn -0.4100 -0.5724 0.7101
vn -0.6808 -0.5492 -0.4846
vn -0.5362 0.6848 -0.4935
vn -0.2654 0.6616 0.7013
vn 0.8311 0.5293 0.1706
vn -0.0723 -0.6226 -0.7792
vn 0.0723 0.6114 -0.7880
vn -0.8311 -0.5268 0.1782
vn -0.6865 0.7072 0.1693
vn 0.2654 -0.6515 0.7107
vn 0.4100 0.5826 0.7018
vn 0.5362 -0.6918 -0.4837
vn 0.6807 0.5423 -0.4925
vn 0.8577 -0.4901 0.1556
vn -0.8577 0.4901 -0.1555
vn -0.1391 -0.5123 -0.8475
vn -0.5138 -0.8290 0.2210
vn -0.1784 0.0001 0.9840
vn 0.4035 0.8290 0.3873
vn 0.4278 0.5123 -0.7446
vn -0.8579 -0.4903 0.1535
vn 0.8579 0.4903 -0.1535
vn 0.4261 -0.5124 0.7456
vn 0.4046 -0.8289 -0.3864
vn -0.1760 -0.0001 -0.9844
vn -0.5134 0.8289 -0.2221
vn -0.1413 0.5124 0.8471
vn 0.8155 -0.5396 0.2092
vn -0.2842 -0.6023 0.7460
vn -0.5558 -0.7024 -0.4447
vn -0.6648 0.5328 -0.5237
vn -0.3932 0.6329 0.6670
vn 0.7065 0.6956 0.1302
vn 0.0545 -0.6676 -0.7425
vn -0.0545 0.5676 -0.8215
vn -0.8155 0.5618 0.1388
vn -0.7065 -0.6733 0.2178
vn 0.3932 -0.5427 0.7422
vn 0.2842 0.6924 0.6632
vn 0.5558 0.6400 -0.5305
vn 0.6648 -0.5951 -0.4515
vn 0.7551 -0.5663 0.3304
vn -0.7550 0.5664 -0.3304
vn 0.0192 -0.4845 -0.8746
vn -0.6173 -0.7838 0.0672
vn -0.4009 -0.0001 0.9161
vn 0.3696 0.7838 0.4990
vn 0.6292 0.4845 -0.6078
vn -0.7916 -0.5935 -0.1455
vn 0.7915 0.5936 0.1456
vn 0.1969 -0.4731 0.8587
vn 0.6111 -0.7654 -0.2017
vn 0.1807 0.0001 -0.9835
vn -0.4994 0.7654 -0.4059
vn -0.4895 0.4730 0.7326
vn 0.7675 -0.5755 0.2825
vn 0.7674 -0.5755 0.2825
vn -0.7674 0.5755 -0.2826
vn -0.6204 -0.7777 0.1009
vn -0.7674 -0.5756 -0.2825
vn -0.7673 -0.5757 -0.2827
vn 0.7675 0.5755 0.2823
vn 0.7673 0.5757 0.2827
vn 0.8390 -0.5442 -0.0000
vn 0.8389 -0.5442 0.0002
vn -0.8389 0.5442 -0.0002
vn -0.8060 -0.5230 -0.2773
vn -0.8060 -0.5229 -0.2774
vn 0.8061 0.5229 0.2771
vn 0.0274 -0.5010 0.8650
vn -0.5538 0.5011 0.6650
vn 0.8436 -0.4820 -0.2367
vn 0.8436 -0.4820 -0.2366
vn -0.8436 0.4821 0.2366
vn 0.2700 -0.0001 0.9629
vn 0.0543 0.5150 -0.8555
vn -0.8676 -0.4956 -0.0407
vn -0.8675 -0.4958 -0.0409
vn 0.8676 0.4957 0.0408
vn 0.8675 0.4958 0.0409
vn 0.2530 -0.5104 0.8218
vn 0.4855 -0.8260 -0.2866
vn 0.0470 -0.0000 -0.9989
vn 0.7623 -0.5718 -0.3032
vn 0.7623 -0.5717 -0.3033
vn -0.7623 0.5718 0.3033
vn -0.7623 0.5717 0.3033
vn -0.7733 -0.5801 0.2560
vn -0.7733 -0.5800 0.2561
vn 0.7733 0.5801 -0.2561
vn 0.7733 0.5800 -0.2561
vn -0.3143 -0.0001 -0.9493
vn 0.8380 -0.5438 -0.0447
vn 0.8382 -0.5435 -0.0449
vn -0.8381 0.5437 0.0449
vn -0.8382 0.5435 0.0449
vn -0.4998 -0.7982 0.3362
vn 0.5328 0.7982 0.2811
vn 0.2760 0.4933 -0.8249
vn -0.8026 -0.5206 0.2913
vn -0.8026 -0.5207 0.2911
vn 0.8026 0.5206 -0.2912
vn 0.8026 0.5207 -0.2911
vn 0.5636 -0.5019 0.6561
vn 0.3600 -0.8120 -0.4593
vn -0.0117 0.5018 0.8649
vn 0.8482 -0.4846 0.2139
vn -0.8481 0.4847 -0.2139
vn -0.8482 0.4846 -0.2139
vn -0.0783 -0.5140 -0.8542
vn -0.2446 -0.0000 0.9696
vn -0.8654 -0.4945 0.0807
vn -0.8654 -0.4945 0.0805
vn 0.8654 0.4945 -0.0808
vn 0.8654 0.4946 -0.0805
vn -0.0927 -0.0001 -0.9957
vn -0.4970 0.8266 -0.2641
vn 0.7585 -0.5688 0.3182
vn 0.7583 -0.5689 0.3183
vn -0.7584 0.5688 -0.3182
vn -0.7583 0.5689 -0.3183
vn -0.7797 -0.5847 -0.2240
vn 0.1068 -0.4768 0.8725
vn 0.8356 -0.5421 0.0884
vn 0.8357 -0.5421 0.0883
vn -0.8357 0.5421 -0.0883
vn -0.8004 -0.5192 -0.2997
vn -0.8005 -0.5191 -0.2996
vn 0.8004 0.5192 0.2996
vn 0.8005 0.5191 0.2996
vn 0.8530 -0.4874 -0.1868
vn -0.8530 0.4874 0.1869
vn -0.8530 0.4874 0.1868
vn 0.1068 0.5132 -0.8516
vn -0.8622 -0.4926 -0.1184
vn -0.8621 -0.4926 -0.1184
vn 0.8621 0.4926 0.1185
vn 0.7559 -0.5671 -0.3271
vn -0.7559 0.5670 0.3273
vn -0.7560 0.5669 0.3273
vn -0.7859 -0.5894 0.1871
vn 0.7859 0.5894 -0.1871
vn -0.2315 -0.0000 -0.9728
vn 0.8319 -0.5395 -0.1297
vn 0.8319 -0.5395 -0.1298
vn -0.8319 0.5396 0.1296
vn -0.8319 0.5395 0.1298
vn -0.7997 -0.5185 0.3027
vn -0.7996 -0.5188 0.3024
vn 0.7997 0.5187 -0.3025
vn 0.7996 0.5188 -0.3024
vn 0.5714 -0.5025 0.6488
vn -0.5707 0.8131 -0.1144
vn 0.0011 0.5026 0.8645
vn 0.8577 -0.4900 0.1554
vn -0.8577 0.4901 -0.1556
vn -0.8577 0.4900 -0.1555
vn -0.5138 -0.8290 0.2209
vn -0.1785 -0.0001 0.9839
vn -0.8580 -0.4903 0.1535
vn 0.8579 0.4903 -0.1534
vn 0.4045 -0.8289 -0.3864
vn 0.7552 -0.5662 0.3303
vn -0.7551 0.5664 -0.3303
vn -0.7552 0.5663 -0.3303
vn 0.3696 0.7839 0.4989
vn 0.6293 0.4845 -0.6077
vn -0.7914 -0.5937 -0.1455
vn -0.7915 -0.5936 -0.1455
vn 0.7915 0.5936 0.1453
vn 0.1808 -0.0000 -0.9835
vn -0.4994 0.7654 -0.4060
vn -0.4894 0.4730 0.7327
s 1
usemtl verdant_growth
f 1//1 2//2 3//3
f 1//1 3//3 4//4
f 1//1 4//4 5//5
f 1//1 5//5 6//6
f 1//1 6//6 7//7
f 1//1 7//7 8//8
f 1//1 8//8 9//9
f 1//1 9//9 10//10
f 1//1 10//10 11//11
f 1//1 11//11 12//12
f 1//1 12//12 2//2
f 13//13 3//3 2//2
f 14//14 4//4 3//3
f 15//15 5//5 4//4
f 16//16 6//6 5//5
f 17//17 7//7 6//6
f 18//18 8//8 7//7
f 19//19 9//9 8//8
f 20//20 10//10 9//9
f 21//21 11//11 10//10
f 22//22 12//12 11//11
f 23//23 2//2 12//12
f 13//13 24//24 14//14
f 14//14 24//24 15//15
f 15//15 24//24 16//16
f 16//16 24//24 17//17
f 17//17 24//24 18//18
f 18//18 24//24 19//19
f 19//19 24//24 20//20
f 20//20 24//24 21//21
f 21//21 24//24 22//22
f 22//22 24//24 23//23
f 23//23 24//24 13//13
f 25//1 26//25 27//26
f 25//1 27//26 28//27
f 25//1 28//27 29//28
f 25//1 29//28 30//29
f 25//1 30//29 31//30
f 25//1 31//30 32//31
f 25//1 32//31 33//32
f 25//1 33//32 34//33
f 25//1 34//33 35//34
f 25//1 35//34 36//35
f 25//1 36//35 26//25
f 37//36 27//26 26//25
f 38//37 28//27 27//26
f 39//38 29//28 28//27
f 40//39 30//29 29//28
f 41//40 31//30 30//29
f 42//41 32//31 31//30
f 43//42 33//32 32//31
f 44//43 34//33 33//32
f 45//44 35//34 34//33
f 46//45 36//35 35//34
f 47//46 26//25 36//35
f 37//36 48//24 38//37
f 38//37 48//24 39//38
f 39//38 48//24 40//39
f 40//39 48//24 41//40
f 41//40 48//24 42//41
f 42//41 48//24 43//42
f 43//42 48//24 44//43
f 44//43 48//24 45//44
f 45//44 48//24 46//45
f 46//45 48//24 47//46
f 47//46 48//24 37//36
f 49//1 50//47 51//48
f 49//1 51//48 52//49
f 49//1 52//49 53//50
f 49//1 53//50 54//51
f 49//1 54//51 55//52
f 49//1 55//52 56//53
f 49//1 56//53 57//54
f 49//1 57//54 58//55
f 49//1 58//55 59//56
f 49//1 59//56 60//57
f 49//1 60//57 50//47
f 61//58 51//48 50//47
f 62//59 52//49 51//48
f 63//60 53//50 52//49
f 64//61 54//51 53//50
f 65//62 55//52 54//51
f 66//63 56//53 55//52
f 67//64 57//54 56//53
f 68//65 58//55 57//54
f 69//66 59//56 58//55
f 70//67 60//57 59//56
f 71//68 50//47 60//57
f 61//58 72//24 62//59
f 62//59 72//24 63//60
f 63//60 72//24 64//61
f 64//61 72//24 65//62
f 65//62 72//24 66//63
f 66//63 72//24 67//64
f 67//64 72//24 68//65
f 68//65 72//24 69//66
f 69//66 72//24 70//67
f 70//67 72//24 71//68
f 71//68 72//24 61//58
f 13//13 14//14 3//3
f 14//14 15//15 4//4
f 15//15 16//16 5//5
f 16//16 17//17 6//6
f 17//17 18//18 7//7
f 18//18 19//19 8//8
f 19//19 20//20 9//9
f 20//20 21//21 10//10
f 21//21 22//22 11//11
f 22//22 23//23 12//12
f 23//23 13//13 2//2
f 37//36 38//37 27//26
f 38//37 39//38 28//27
f 39//38 40//39 29//28
f 40//39 41//40 30//29
f 41//40 42//41 31//30
f 42//41 43//42 32//31
f 43//42 44//43 33//32
f 44//43 45//44 34//33
f 45//44 46//45 35//34
f 46//45 47//46 36//35
f 47//46 37//36 26//25
f 61//58 62//59 51//48
f 62//59 63//60 52//49
f 63//60 64//61 53//50
f 64//61 65//62 54//51
f 65//62 66//63 55//52
f 66//63 67//64 56//53
f 67//64 68//65 57//54
f 68//65 69//66 58//55
f 69//66 70//67 59//56
f 70//67 71//68 60//57
f 71//68 61//58 50//47
usemtl verdant_growth
f 83//69 79//70 75//71
f 76//72 80//73 84//74
f 73//75 76//72 74//76
f 75//71 78//77 76//72
f 77//78 80//73 78//77
f 81//79 80//73 79//70
f 81//79 84//74 82//80
f 83//69 86//81 84//74
f 73//75 86//81 85//82
f 161//123 157//124 153//125
f 154//126 158//127 162//128
f 153//125 152//129 151//130
f 153//125 156//131 154//126
f 157//124 156//131 155//132
f 159//133 158//127 157//124
f 159//133 162//128 160//134
f 163//135 162//128 161//123
f 163//135 152//129 164//136
f 223//151 219//152 215//153
f 216//154 220//155 224//156
f 213//157 216//154 214//158
f 217//159 216//154 215//153
f 217//159 220//155 218//160
f 219//152 222//161 220//155
f 221//162 224//156 222//161
f 225//163 224//156 223//151
f 213//157 226//164 225//163
f 285//179 281//180 277//181
f 278//182 282//183 286//184
f 277//181 276//185 275//186
f 279//187 278//182 277//181
f 281//180 280//188 279//187
f 281//180 284//189 282//183
f 285//179 284//189 283//190
f 285//179 288//191 286//184
f 287//192 276//185 288//191
f 363//208 359//209 355//210
f 356//211 360//212 364//213
f 353//214 356//211 354//215
f 355//210 358//216 356//211
f 359//209 358//216 357//217
f 361//218 360//212 359//209
f 361//218 364//213 362//219
f 365//220 364//213 363//208
f 353//214 366//221 365//220
f 425//236 421//237 417//238
f 418//239 422//240 426//241
f 415//242 418//239 416//243
f 419//244 418//239 417//238
f 419//244 422//240 420//245
f 421//237 424//246 422//240
f 425//236 424//246 423//247
f 425//236 428//248 426//241
f 415//242 428//248 427//249
f 487//264 483//265 479//266
f 480//267 484//268 488//269
f 477//270 480//267 478//271
f 481//272 480//267 479//266
f 481//272 484//268 482//273
f 485//274 484//268 483//265
f 485//274 488//269 486//275
f 487//264 490//276 488//269
f 477//270 490//276 489//277
f 565//293 561//294 557//295
f 558//296 562//297 566//298
f 557//295 556//299 555//300
f 559//301 558//296 557//295
f 561//294 560//302 559//301
f 561//294 564//303 562//297
f 563//304 566//298 564//303
f 567//305 566//298 565//293
f 567//305 556//299 568//306
f 627//321 623//322 619//323
f 620//324 624//325 628//326
f 617//327 620//324 618//328
f 619//323 622//329 620//324
f 623//322 622//329 621//330
f 623//322 626//331 624//325
f 627//321 626//331 625//332
f 629//333 628//326 627//321
f 617//327 630//334 629//333
f 689//349 685//350 681//351
f 682//352 686//353 690//354
f 681//351 680//355 679//356
f 681//351 684//357 682//352
f 683//358 686//353 684//357
f 687//359 686//353 685//350
f 687//359 690//354 688//360
f 691//361 690//354 689//349
f 691//361 680//355 692//362
f 767//378 763//379 759//380
f 760//381 764//382 768//383
f 757//384 760//381 758//385
f 761//386 760//381 759//380
f 763//379 762//387 761//386
f 763//379 766//388 764//382
f 767//378 766//388 765//389
f 769//390 768//383 767//378
f 757//384 770//391 769//390
f 829//406 825//407 821//408
f 822//409 826//410 830//411
f 819//412 822//409 820//413
f 823//414 822//409 821//408
f 823//414 826//410 824//415
f 827//416 826//410 825//407
f 827//416 830//411 828//417
f 831//418 830//411 829//406
f 831//418 820//413 832//419
f 891//434 887//435 883//436
f 884//437 888//438 892//439
f 881//440 884//437 882//441
f 883//436 886//442 884//437
f 885//443 888//438 886//442
f 889//444 888//438 887//435
f 891//434 890//445 889//444
f 891//434 894//446 892//439
f 893//447 882//441 894//446
f 73//75 85//82 83//69
f 83//69 81//79 79//70
f 79//70 77//78 75//71
f 75//71 73//75 83//69
f 86//81 74//76 76//72
f 76//72 78//77 80//73
f 80//73 82//80 84//74
f 84//74 86//81 76//72
f 73//75 75//71 76//72
f 75//71 77//78 78//77
f 77//78 79//70 80//73
f 81//79 82//80 80//73
f 81//79 83//69 84//74
f 83//69 85//82 86//81
f 73//75 74//76 86//81
f 151//130 163//135 161//123
f 161//123 159//133 157//124
f 157//124 155//132 153//125
f 153//125 151//130 161//123
f 164//136 152//129 154//126
f 154//126 156//131 158//127
f 158//127 160//134 162//128
f 162//128 164//136 154//126
f 153//125 154//126 152//129
f 153//125 155//132 156//131
f 157//124 158//127 156//131
f 159//133 160//134 158//127
f 159//133 161//123 162//128
f 163//135 164//136 162//128
f 163//135 151//130 152//129
f 213//157 225//163 223//151
f 223//151 221//162 219//152
f 219//152 217//159 215//153
f 215//153 213//157 223//151
f 226//164 214//158 216//154
f 216//154 218//160 220//155
f 220//155 222//161 224//156
f 224//156 226//164 216//154
f 213//157 215//153 216//154
f 217//159 218//160 216//154
f 217//159 219//152 220//155
f 219//152 221//162 222//161
f 221//162 223//151 224//156
f 225//163 226//164 224//156
f 213//157 214//158 226//164
f 275//186 287//192 285//179
f 285//179 283//190 281//180
f 281//180 279//187 277//181
f 277//181 275//186 285//179
f 288//191 276//185 278//182
f 278//182 280//188 282//183
f 282//183 284//189 286//184
f 286//184 288//191 278//182
f 277//181 278//182 276//185
f 279//187 280//188 278//182
f 281//180 282//183 280//188
f 281//180 283//190 284//189
f 285//179 286//184 284//189
f 285//179 287//192 288//191
f 287//192 275//186 276//185
f 353//214 365//220 363//208
f 363//208 361//218 359//209
f 359//209 357//217 355//210
f 355//210 353//214 363//208
f 366//221 354//215 356//211
f 356//211 358//216 360//212
f 360//212 362//219 364//213
f 364//213 366//221 356//211
f 353//214 355//210 356//211
f 355//210 357//217 358//216
f 359//209 360//212 358//216
f 361//218 362//219 360//212
f 361//218 363//208 364//213
f 365//220 366//221 364//213
f 353//214 354//215 366//221
f 415//242 427//249 425//236
f 425//236 423//247 421//237
f 421//237 419//244 417//238
f 417//238 415//242 425//236
f 428//248 416//243 418//239
f 418//239 420//245 422//240
f 422//240 424//246 426//241
f 426//241 428//248 418//239
f 415//242 417//238 418//239
f 419//244 420//245 418//239
f 419//244 421//237 422//240
f 421//237 423//247 424//246
f 425//236 426//241 424//246
f 425//236 427//249 428//248
f 415//242 416//243 428//248
f 477//270 489//277 487//264
f 487//264 485//274 483//265
f 483//265 481//272 479//266
f 479//266 477//270 487//264
f 490//276 478//271 480//267
f 480//267 482//273 484//268
f 484//268 486//275 488//269
f 488//269 490//276 480//267
f 477//270 479//266 480//267
f 481//272 482//273 480//267
f 481//272 483//265 484//268
f 485//274 486//275 484//268
f 485//274 487//264 488//269
f 487//264 489//277 490//276
f 477//270 478//271 490//276
f 555//300 567//305 565//293
f 565//293 563//304 561//294
f 561//294 559//301 557//295
f 557//295 555//300 565//293
f 568//306 556//299 558//296
f 558//296 560//302 562//297
f 562//297 564//303 566//298
f 566//298 568//306 558//296
f 557//295 558//296 556//299
f 559//301 560//302 558//296
f 561//294 562//297 560//302
f 561//294 563//304 564//303
f 563//304 565//293 566//298
f 567//305 568//306 566//298
f 567//305 555//300 556//299
f 617//327 629//333 627//321
f 627//321 625//332 623//322
f 623//322 621//330 619//323
f 619//323 617//327 627//321
f 630//334 618//328 620//324
f 620//324 622//329 624//325
f 624//325 626//331 628//326
f 628//326 630//334 620//324
f 617//327 619//323 620//324
f 619//323 621//330 622//329
f 623//322 624//325 622//329
f 623//322 625//332 626//331
f 627//321 628//326 626//331
f 629//333 630//334 628//326
f 617//327 618//328 630//334
f 679//356 691//361 689//349
f 689//349 687//359 685//350
f 685//350 683//358 681//351
f 681//351 679//356 689//349
f 692//362 680//355 682//352
f 682//352 684//357 686//353
f 686//353 688//360 690//354
f 690//354 692//362 682//352
f 681//351 682//352 680//355
f 681//351 683//358 684//357
f 683//358 685//350 686//353
f 687//359 688//360 686//353
f 687//359 689//349 690//354
f 691//361 692//362 690//354
f 691//361 679//356 680//355
f 757//384 769//390 767//378
f 767//378 765//389 763//379
f 763//379 761//386 759//380
f 759//380 757//384 767//378
f 770//391 758//385 760//381
f 760//381 762//387 764//382
f 764//382 766//388 768//383
f 768//383 770//391 760//381
f 757//384 759//380 760//381
f 761//386 762//387 760//381
f 763//379 764//382 762//387
f 763//379 765//389 766//388
f 767//378 768//383 766//388
f 769//390 770//391 768//383
f 757//384 758//385 770//391
f 819//412 831//418 829//406
f 829//406 827//416 825//407
f 825//407 823//414 821//408
f 821//408 819//412 829//406
f 832//419 820//413 822//409
f 822//409 824//415 826//410
f 826//410 828//417 830//411
f 830//411 832//419 822//409
f 819//412 821//408 822//409
f 823//414 824//415 822//409
f 823//414 825//407 826//410
f 827//416 828//417 826//410
f 827//416 829//406 830//411
f 831//418 832//419 830//411
f 831//418 819//412 820//413
f 881//440 893//447 891//434
f 891//434 889//444 887//435
f 887//435 885//443 883//436
f 883//436 881//440 891//434
f 894//446 882//441 884//437
f 884//437 886//442 888//438
f 888//438 890//445 892//439
f 892//439 894//446 884//437
f 881//440 883//436 884//437
f 883//436 885//443 886//442
f 885//443 887//435 888//438
f 889//444 890//445 888//438
f 891//434 892//439 890//445
f 891//434 893//447 894//446
f 893//447 881//440 882//441
s 0
usemtl verdant_silica
f 93//83 89//83 87//83
f 90//84 94//84 96//84
f 89//85 88//85 87//85
f 89//86 92//86 90//86
f 93//87 92//87 91//87
f 95//88 94//88 93//88
f 95//89 88//89 96//89
f 117//102 113//102 111//102
f 114//103 118//103 120//103
f 111//104 114//104 112//104
f 115//105 114//105 113//105
f 115//106 118//106 116//106
f 119//107 118//107 117//107
f 111//108 120//108 119//108
f 171//137 167//137 165//137
f 168//138 172//138 174//138
f 165//139 168//139 166//139
f 169//140 168//140 167//140
f 169//141 172//141 170//141
f 171//142 174//142 172//142
f 173//143 166//143 174//143
f 195//144 191//144 189//144
f 192//145 196//145 198//145
f 189//146 192//146 190//146
f 193//147 192//147 191//147
f 193//148 196//148 194//148
f 195//149 198//149 196//149
f 189//150 198//150 197//150
f 233//165 229//165 227//165
f 230//166 234//166 236//166
f 229//167 228//167 227//167
f 229//168 232//168 230//168
f 231//169 234//169 232//169
f 235//170 234//170 233//170
f 235//171 228//171 236//171
f 257//172 253//172 251//172
f 254//173 258//173 260//173
f 251//174 254//174 252//174
f 255//175 254//175 253//175
f 255//176 258//176 256//176
f 259//177 258//177 257//177
f 259//178 252//178 260//178
f 295//193 291//193 289//193
f 292//194 296//194 298//194
f 291//195 290//195 289//195
f 291//196 294//196 292//196
f 295//197 294//197 293//197
f 295//198 298//198 296//198
f 289//199 298//199 297//199
f 319//200 315//200 313//200
f 316//201 320//201 322//201
f 315//202 314//202 313//202
f 315//203 318//203 316//203
f 319//204 318//204 317//204
f 319//205 322//205 320//205
f 313//206 322//206 321//206
f 373//222 369//222 367//222
f 370//223 374//223 376//223
f 367//224 370//224 368//224
f 369//225 372//225 370//225
f 373//226 372//226 371//226
f 373//227 376//227 374//227
f 367//228 376//228 375//228
f 397//229 393//229 391//229
f 394//230 398//230 400//230
f 391//231 394//231 392//231
f 395//232 394//232 393//232
f 395//233 398//233 396//233
f 399//234 398//234 397//234
f 391//235 400//235 399//235
f 435//250 431//250 429//250
f 432//251 436//251 438//251
f 429//252 432//252 430//252
f 431//253 434//253 432//253
f 435//254 434//254 433//254
f 435//255 438//255 436//255
f 429//256 438//256 437//256
f 459//257 455//257 453//257
f 456//258 460//258 462//258
f 453//259 456//259 454//259
f 457//260 456//260 455//260
f 457//261 460//261 458//261
f 461//262 460//262 459//262
f 453//263 462//263 461//263
f 497//278 493//278 491//278
f 494//279 498//279 500//279
f 493//280 492//280 491//280
f 495//281 494//281 493//281
f 495//282 498//282 496//282
f 499//283 498//283 497//283
f 491//284 500//284 499//284
f 521//285 517//285 515//285
f 518//286 522//286 524//286
f 515//287 518//287 516//287
f 517//288 520//288 518//288
f 521//289 520//289 519//289
f 523//290 522//290 521//290
f 523//291 516//291 524//291
f 575//307 571//307 569//307
f 572//308 576//308 578//308
f 571//309 570//309 569//309
f 571//310 574//310 572//310
f 573//311 576//311 574//311
f 575//312 578//312 576//312
f 569//313 578//313 577//313
f 599//314 595//314 593//314
f 596//315 600//315 602//315
f 593//316 596//316 594//316
f 597//317 596//317 595//317
f 599//318 598//318 597//318
f 599//319 602//319 600//319
f 601//320 594//320 602//320
f 637//335 633//335 631//335
f 634//336 638//336 640//336
f 631//337 634//337 632//337
f 635//338 634//338 633//338
f 637//339 636//339 635//339
f 637//340 640//340 638//340
f 631//341 640//341 639//341
f 661//342 657//342 655//342
f 658//343 662//343 664//343
f 657//344 656//344 655//344
f 657//345 660//345 658//345
f 661//346 660//346 659//346
f 663//347 662//347 661//347
f 663//348 656//348 664//348
f 699//363 695//363 693//363
f 696//364 700//364 702//364
f 693//365 696//365 694//365
f 695//366 698//366 696//366
f 699//367 698//367 697//367
f 699//368 702//368 700//368
f 693//369 702//369 701//369
f 723//370 719//370 717//370
f 720//371 724//371 726//371
f 719//372 718//372 717//372
f 719//373 722//373 720//373
f 721//374 724//374 722//374
f 723//375 726//375 724//375
f 717//376 726//376 725//376
f 777//392 773//392 771//392
f 774//393 778//393 780//393
f 773//394 772//394 771//394
f 773//395 776//395 774//395
f 777//396 776//396 775//396
f 779//397 778//397 777//397
f 779//398 772//398 780//398
f 801//399 797//399 795//399
f 798//400 802//400 804//400
f 797//401 796//401 795//401
f 799//402 798//402 797//402
f 799//403 802//403 800//403
f 803//404 802//404 801//404
f 803//405 796//405 804//405
f 839//420 835//420 833//420
f 836//421 840//421 842//421
f 835//422 834//422 833//422
f 835//423 838//423 836//423
f 839//424 838//424 837//424
f 839//425 842//425 840//425
f 841//426 834//426 842//426
f 863//427 859//427 857//427
f 860//428 864//428 866//428
f 859//429 858//429 857//429
f 859//430 862//430 860//430
f 861//431 864//431 862//431
f 865//432 864//432 863//432
f 857//433 866//433 865//433
f 901//448 897//448 895//448
f 898//449 902//449 904//449
f 897//450 896//450 895//450
f 897//451 900//451 898//451
f 901//452 900//452 899//452
f 901//453 904//453 902//453
f 895//454 904//454 903//454
f 925//455 921//455 919//455
f 922//456 926//456 928//456
f 919//457 922//457 920//457
f 923//458 922//458 921//458
f 925//459 924//459 923//459
f 925//460 928//460 926//460
f 919//461 928//461 927//461
f 87//462 95//462 93//462
f 93//463 91//463 89//463
f 96//464 88//464 90//464
f 90//84 92//84 94//84
f 89//85 90//85 88//85
f 89//465 91//465 92//465
f 93//87 94//87 92//87
f 95//88 96//88 94//88
f 95//89 87//89 88//89
f 111//466 119//466 117//466
f 117//467 115//467 113//467
f 120//468 112//468 114//468
f 114//469 116//469 118//469
f 111//104 113//104 114//104
f 115//105 116//105 114//105
f 115//106 117//106 118//106
f 119//107 120//107 118//107
f 111//108 112//108 120//108
f 165//470 173//470 171//470
f 171//471 169//471 167//471
f 174//138 166//138 168//138
f 168//472 170//472 172//472
f 165//139 167//139 168//139
f 169//140 170//140 168//140
f 169//141 171//141 172//141
f 171//142 173//142 174//142
f 173//143 165//143 166//143
f 189//473 197//473 195//473
f 195//474 193//474 191//474
f 198//475 190//475 192//475
f 192//145 194//145 196//145
f 189//476 191//476 192//476
f 193//147 194//147 192//147
f 193//148 195//148 196//148
f 195//149 197//149 198//149
f 189//477 190//477 198//477
f 227//478 235//478 233//478
f 233//479 231//479 229//479
f 236//480 228//480 230//480
f 230//480 232//480 234//480
f 229//167 230//167 228//167
f 229//168 231//168 232//168
f 231//481 233//481 234//481
f 235//170 236//170 234//170
f 235//482 227//482 228//482
f 251//483 259//483 257//483
f 257//484 255//484 253//484
f 260//485 252//485 254//485
f 254//486 256//486 258//486
f 251//487 253//487 254//487
f 255//488 256//488 254//488
f 255//489 257//489 258//489
f 259//177 260//177 258//177
f 259//178 251//178 252//178
f 289//490 297//490 295//490
f 295//491 293//491 291//491
f 298//492 290//492 292//492
f 292//493 294//493 296//493
f 291//195 292//195 290//195
f 291//196 293//196 294//196
f 295//197 296//197 294//197
f 295//198 297//198 298//198
f 289//199 290//199 298//199
f 313//494 321//494 319//494
f 319//495 317//495 315//495
f 322//496 314//496 316//496
f 316//497 318//497 320//497
f 315//202 316//202 314//202
f 315//203 317//203 318//203
f 319//498 320//498 318//498
f 319//205 321//205 322//205
f 313//206 314//206 322//206
f 367//499 375//499 373//499
f 373//500 371//500 369//500
f 376//501 368//501 370//501
f 370//502 372//502 374//502
f 367//224 369//224 370//224
f 369//503 371//503 372//503
f 373//226 374//226 372//226
f 373//504 375//504 376//504
f 367//505 368//505 376//505
f 391//506 399//506 397//506
f 397//507 395//507 393//507
f 400//508 392//508 394//508
f 394//509 396//509 398//509
f 391//510 393//510 394//510
f 395//511 396//511 394//511
f 395//233 397//233 398//233
f 399//234 400//234 398//234
f 391//512 392//512 400//512
f 429//250 437//250 435//250
f 435//513 433//513 431//513
f 438//514 430//514 432//514
f 432//515 434//515 436//515
f 429//516 431//516 432//516
f 431//253 433//253 434//253
f 435//517 436//517 434//517
f 435//255 437//255 438//255
f 429//256 430//256 438//256
f 453//518 461//518 459//518
f 459//519 457//519 455//519
f 462//520 454//520 456//520
f 456//521 458//521 460//521
f 453//259 455//259 456//259
f 457//260 458//260 456//260
f 457//522 459//522 460//522
f 461//523 462//523 460//523
f 453//263 454//263 462//263
f 491//524 499//524 497//524
f 497//525 495//525 493//525
f 500//526 492//526 494//526
f 494//527 496//527 498//527
f 493//280 494//280 492//280
f 495//281 496//281 494//281
f 495//282 497//282 498//282
f 499//283 500//283 498//283
f 491//284 492//284 500//284
f 515//285 523//285 521//285
f 521//528 519//528 517//528
f 524//286 516//286 518//286
f 518//286 520//286 522//286
f 515//529 517//529 518//529
f 517//288 519//288 520//288
f 521//289 522//289 520//289
f 523//290 524//290 522//290
f 523//291 515//291 516//291
f 569//530 577//530 575//530
f 575//531 573//531 571//531
f 578//308 570//308 572//308
f 572//532 574//532 576//532
f 571//309 572//309 570//309
f 571//310 573//310 574//310
f 573//311 575//311 576//311
f 575//312 577//312 578//312
f 569//313 570//313 578//313
f 593//533 601//533 599//533
f 599//534 597//534 595//534
f 602//535 594//535 596//535
f 596//536 598//536 600//536
f 593//316 595//316 596//316
f 597//317 598//317 596//317
f 599//318 600//318 598//318
f 599//319 601//319 602//319
f 601//320 593//320 594//320
f 631//537 639//537 637//537
f 637//537 635//537 633//537
f 640//538 632//538 634//538
f 634//539 636//539 638//539
f 631//337 633//337 634//337
f 635//338 636//338 634//338
f 637//339 638//339 636//339
f 637//340 639//340 640//340
f 631//540 632//540 640//540
f 655//541 663//541 661//541
f 661//542 659//542 657//542
f 664//543 656//543 658//543
f 658//343 660//343 662//343
f 657//344 658//344 656//344
f 657//345 659//345 660//345
f 661//346 662//346 660//346
f 663//347 664//347 662//347
f 663//348 655//348 656//348
f 693//544 701//544 699//544
f 699//363 697//363 695//363
f 702//545 694//545 696//545
f 696//546 698//546 700//546
f 693//365 695//365 696//365
f 695//366 697//366 698//366
f 699//367 700//367 698//367
f 699//368 701//368 702//368
f 693//369 694//369 702//369
f 717//547 725//547 723//547
f 723//370 721//370 719//370
f 726//371 718//371 720//371
f 720//548 722//548 724//548
f 719//372 720//372 718//372
f 719//373 721//373 722//373
f 721//549 723//549 724//549
f 723//375 725//375 726//375
f 717//376 718//376 726//376
f 771//550 779//550 777//550
f 777//551 775//551 773//551
f 780//552 772//552 774//552
f 774//553 776//553 778//553
f 773//394 774//394 772//394
f 773//395 775//395 776//395
f 777//396 778//396 776//396
f 779//397 780//397 778//397
f 779//398 771//398 772//398
f 795//554 803//554 801//554
f 801//555 799//555 797//555
f 804//556 796//556 798//556
f 798//557 800//557 802//557
f 797//558 798//558 796//558
f 799//402 800//402 798//402
f 799//403 801//403 802//403
f 803//559 804//559 802//559
f 803//560 795//560 796//560
f 833//420 841//420 839//420
f 839//561 837//561 835//561
f 842//562 834//562 836//562
f 836//563 838//563 840//563
f 835//422 836//422 834//422
f 835//564 837//564 838//564
f 839//565 840//565 838//565
f 839//425 841//425 842//425
f 841//426 833//426 834//426
f 857//566 865//566 863//566
f 863//427 861//427 859//427
f 866//567 858//567 860//567
f 860//428 862//428 864//428
f 859//429 860//429 858//429
f 859//568 861//568 862//568
f 861//431 863//431 864//431
f 865//432 866//432 864//432
f 857//433 858//433 866//433
f 895//448 903//448 901//448
f 901//569 899//569 897//569
f 904//570 896//570 898//570
f 898//571 900//571 902//571
f 897//450 898//450 896//450
f 897//451 899//451 900//451
f 901//452 902//452 900//452
f 901//572 903//572 904//572
f 895//573 896//573 904//573
f 919//574 927//574 925//574
f 925//575 923//575 921//575
f 928//576 920//576 922//576
f 922//456 924//456 926//456
f 919//457 921//457 922//457
f 923//458 924//458 922//458
f 925//577 926//577 924//577
f 925//578 927//578 928//578
f 919//579 920//579 928//579
s 1
usemtl verdant_growth
f 97//1 98//90 99//91
f 97//1 99//91 100//92
f 97//1 100//92 101//93
f 97//1 101//93 102//94
f 97//1 102//94 103//95
f 97//1 103//95 98//90
f 104//96 99//91 98//90
f 105//97 100//92 99//91
f 106//98 101//93 100//92
f 107//99 102//94 101//93
f 108//100 103//95 102//94
f 109//101 98//90 103//95
f 104//96 110//24 105//97
f 105//97 110//24 106//98
f 106//98 110//24 107//99
f 107//99 110//24 108//100
f 108//100 110//24 109//101
f 109//101 110//24 104//96
f 121//1 122//90 123//91
f 121//1 123//91 124//92
f 121//1 124//92 125//93
f 121//1 125//93 126//94
f 121//1 126//94 127//95
f 121//1 127//95 122//90
f 128//96 123//91 122//90
f 129//97 124//92 123//91
f 130//98 125//93 124//92
f 131//99 126//94 125//93
f 132//100 127//95 126//94
f 133//101 122//90 127//95
f 128//96 134//24 129//97
f 129//97 134//24 130//98
f 130//98 134//24 131//99
f 131//99 134//24 132//100
f 132//100 134//24 133//101
f 133//101 134//24 128//96
f 135//1 136//109 137//110
f 135//1 137//110 138//111
f 135//1 138//111 139//112
f 135//1 139//112 140//113
f 135//1 140//113 141//114
f 135//1 141//114 142//115
f 135//1 142//115 136//109
f 143//116 137//110 136//109
f 144//117 138//111 137//110
f 145//118 139//112 138//111
f 146//119 140//113 139//112
f 147//120 141//114 140//113
f 148//121 142//115 141//114
f 149//122 136//109 142//115
f 143//116 150//24 144//117
f 144//117 150//24 145//118
f 145//118 150//24 146//119
f 146//119 150//24 147//120
f 147//120 150//24 148//121
f 148//121 150//24 149//122
f 149//122 150//24 143//116
f 175//1 176//90 177//91
f 175//1 177//91 178//92
f 175//1 178//92 179//93
f 175//1 179//93 180//94
f 175//1 180//94 181//95
f 175//1 181//95 176//90
f 182//96 177//91 176//90
f 183//97 178//92 177//91
f 184//98 179//93 178//92
f 185//99 180//94 179//93
f 186//100 181//95 180//94
f 187//101 176//90 181//95
f 182//96 188//24 183//97
f 183//97 188//24 184//98
f 184//98 188//24 185//99
f 185//99 188//24 186//100
f 186//100 188//24 187//101
f 187//101 188//24 182//96
f 199//1 200//90 201//91
f 199//1 201//91 202//92
f 199//1 202//92 203//93
f 199//1 203//93 204//94
f 199//1 204//94 205//95
f 199//1 205//95 200//90
f 206//96 201//91 200//90
f 207//97 202//92 201//91
f 208//98 203//93 202//92
f 209//99 204//94 203//93
f 210//100 205//95 204//94
f 211//101 200//90 205//95
f 206//96 212//24 207//97
f 207//97 212//24 208//98
f 208//98 212//24 209//99
f 209//99 212//24 210//100
f 210//100 212//24 211//101
f 211//101 212//24 206//96
f 237//1 238//90 239//91
f 237//1 239//91 240//92
f 237//1 240//92 241//93
f 237//1 241//93 242//94
f 237//1 242//94 243//95
f 237//1 243//95 238//90
f 244//96 239//91 238//90
f 245//97 240//92 239//91
f 246//98 241//93 240//92
f 247//99 242//94 241//93
f 248//100 243//95 242//94
f 249//101 238//90 243//95
f 244//96 250//24 245//97
f 245//97 250//24 246//98
f 246//98 250//24 247//99
f 247//99 250//24 248//100
f 248//100 250//24 249//101
f 249//101 250//24 244//96
f 261//1 262//90 263//91
f 261//1 263//91 264//92
f 261//1 264//92 265//93
f 261//1 265//93 266//94
f 261//1 266//94 267//95
f 261//1 267//95 262//90
f 268//96 263//91 262//90
f 269//97 264//92 263//91
f 270//98 265//93 264//92
f 271//99 266//94 265//93
f 272//100 267//95 266//94
f 273//101 262//90 267//95
f 268//96 274//24 269//97
f 269//97 274//24 270//98
f 270//98 274//24 271//99
f 271//99 274//24 272//100
f 272//100 274//24 273//101
f 273//101 274//24 268//96
f 299//1 300//90 301//91
f 299//1 301//91 302//92
f 299//1 302//92 303//93
f 299//1 303//93 304//94
f 299//1 304//94 305//95
f 299//1 305//95 300//90
f 306//96 301//91 300//90
f 307//97 302//92 301//91
f 308//98 303//93 302//92
f 309//99 304//94 303//93
f 310//100 305//95 304//94
f 311//101 300//90 305//95
f 306//96 312//24 307//97
f 307//97 312//24 308//98
f 308//98 312//24 309//99
f 309//99 312//24 310//100
f 310//100 312//24 311//101
f 311//101 312//24 306//96
f 323//1 324//90 325//91
f 323//1 325//91 326//92
f 323//1 326//92 327//93
f 323//1 327//93 328//94
f 323//1 328//94 329//95
f 323//1 329//95 324//90
f 330//96 325//91 324//90
f 331//97 326//92 325//91
f 332//98 327//93 326//92
f 333//99 328//94 327//93
f 334//100 329//95 328//94
f 335//101 324//90 329//95
f 330//96 336//24 331//97
f 331//97 336//24 332//98
f 332//98 336//24 333//99
f 333//99 336//24 334//100
f 334//100 336//24 335//101
f 335//101 336//24 330//96
f 337//1 338//109 339//110
f 337//1 339//110 340//111
f 337//1 340//111 341//112
f 337//1 341//112 342//113
f 337//1 342//113 343//114
f 337//1 343//114 344//115
f 337//1 344//115 338//109
f 345//116 339//110 338//109
f 346//117 340//111 339//110
f 347//118 341//112 340//111
f 348//119 342//113 341//112
f 349//120 343//114 342//113
f 350//207 344//115 343//114
f 351//122 338//109 344//115
f 345//116 352//24 346//117
f 346//117 352//24 347//118
f 347//118 352//24 348//119
f 348//119 352//24 349//120
f 349//120 352//24 350//207
f 350//207 352//24 351//122
f 351//122 352//24 345//116
f 377//1 378//90 379//91
f 377//1 379//91 380//92
f 377//1 380//92 381//93
f 377//1 381//93 382//94
f 377//1 382//94 383//95
f 377//1 383//95 378//90
f 384//96 379//91 378//90
f 385//97 380//92 379//91
f 386//98 381//93 380//92
f 387//99 382//94 381//93
f 388//100 383//95 382//94
f 389//101 378//90 383//95
f 384//96 390//24 385//97
f 385//97 390//24 386//98
f 386//98 390//24 387//99
f 387//99 390//24 388//100
f 388//100 390//24 389//101
f 389//101 390//24 384//96
f 401//1 402//90 403//91
f 401//1 403//91 404//92
f 401//1 404//92 405//93
f 401//1 405//93 406//94
f 401//1 406//94 407//95
f 401//1 407//95 402//90
f 408//96 403//91 402//90
f 409//97 404//92 403//91
f 410//98 405//93 404//92
f 411//99 406//94 405//93
f 412//100 407//95 406//94
f 413//101 402//90 407//95
f 408//96 414//24 409//97
f 409//97 414//24 410//98
f 410//98 414//24 411//99
f 411//99 414//24 412//100
f 412//100 414//24 413//101
f 413//101 414//24 408//96
f 439//1 440//90 441//91
f 439//1 441//91 442//92
f 439//1 442//92 443//93
f 439//1 443//93 444//94
f 439//1 444//94 445//95
f 439//1 445//95 440//90
f 446//96 441//91 440//90
f 447//97 442//92 441//91
f 448//98 443//93 442//92
f 449//99 444//94 443//93
f 450//100 445//95 444//94
f 451//101 440//90 445//95
f 446//96 452//24 447//97
f 447//97 452//24 448//98
f 448//98 452//24 449//99
f 449//99 452//24 450//100
f 450//100 452//24 451//101
f 451//101 452//24 446//96
f 463//1 464//90 465//91
f 463//1 465//91 466//92
f 463//1 466//92 467//93
f 463//1 467//93 468//94
f 463//1 468//94 469//95
f 463//1 469//95 464//90
f 470//96 465//91 464//90
f 471//97 466//92 465//91
f 472//98 467//93 466//92
f 473//99 468//94 467//93
f 474//100 469//95 468//94
f 475//101 464//90 469//95
f 470//96 476//24 471//97
f 471//97 476//24 472//98
f 472//98 476//24 473//99
f 473//99 476//24 474//100
f 474//100 476//24 475//101
f 475//101 476//24 470//96
f 501//1 502//90 503//91
f 501//1 503//91 504//92
f 501//1 504//92 505//93
f 501//1 505//93 506//94
f 501//1 506//94 507//95
f 501//1 507//95 502//90
f 508//96 503//91 502//90
f 509//97 504//92 503//91
f 510//98 505//93 504//92
f 511//99 506//94 505//93
f 512//100 507//95 506//94
f 513//101 502//90 507//95
f 508//96 514//24 509//97
f 509//97 514//24 510//98
f 510//98 514//24 511//99
f 511//99 514//24 512//100
f 512//100 514//24 513//101
f 513//101 514//24 508//96
f 525//1 526//90 527//91
f 525//1 527//91 528//92
f 525//1 528//92 529//93
f 525//1 529//93 530//94
f 525//1 530//94 531//95
f 525//1 531//95 526//90
f 532//96 527//91 526//90
f 533//97 528//92 527//91
f 534//98 529//93 528//92
f 535//99 530//94 529//93
f 536//100 531//95 530//94
f 537//101 526//90 531//95
f 532//96 538//24 533//97
f 533//97 538//24 534//98
f 534//98 538//24 535//99
f 535//99 538//24 536//100
f 536//100 538//24 537//101
f 537//101 538//24 532//96
f 539//1 540//109 541//292
f 539//1 541//292 542//111
f 539//1 542//111 543//112
f 539//1 543//112 544//113
f 539//1 544//113 545//114
f 539//1 545//114 546//115
f 539//1 546//115 540//109
f 547//116 541//292 540//109
f 548//117 542//111 541//292
f 549//118 543//112 542//111
f 550//119 544//113 543//112
f 551//120 545//114 544//113
f 552//121 546//115 545//114
f 553//122 540//109 546//115
f 547//116 554//24 548//117
f 548//117 554//24 549//118
f 549//118 554//24 550//119
f 550//119 554//24 551//120
f 551//120 554//24 552//121
f 552//121 554//24 553//122
f 553//122 554//24 547//116
f 579//1 580//90 581//91
f 579//1 581//91 582//92
f 579//1 582//92 583//93
f 579//1 583//93 584//94
f 579//1 584//94 585//95
f 579//1 585//95 580//90
f 586//96 581//91 580//90
f 587//97 582//92 581//91
f 588//98 583//93 582//92
f 589//99 584//94 583//93
f 590//100 585//95 584//94
f 591//101 580//90 585//95
f 586//96 592//24 587//97
f 587//97 592//24 588//98
f 588//98 592//24 589//99
f 589//99 592//24 590//100
f 590//100 592//24 591//101
f 591//101 592//24 586//96
f 603//1 604//90 605//91
f 603//1 605//91 606//92
f 603//1 606//92 607//93
f 603//1 607//93 608//94
f 603//1 608//94 609//95
f 603//1 609//95 604//90
f 610//96 605//91 604//90
f 611//97 606//92 605//91
f 612//98 607//93 606//92
f 613//99 608//94 607//93
f 614//100 609//95 608//94
f 615//101 604//90 609//95
f 610//96 616//24 611//97
f 611//97 616//24 612//98
f 612//98 616//24 613//99
f 613//99 616//24 614//100
f 614//100 616//24 615//101
f 615//101 616//24 610//96
f 641//1 642//90 643//91
f 641//1 643//91 644//92
f 641//1 644//92 645//93
f 641//1 645//93 646//94
f 641//1 646//94 647//95
f 641//1 647//95 642//90
f 648//96 643//91 642//90
f 649//97 644//92 643//91
f 650//98 645//93 644//92
f 651//99 646//94 645//93
f 652//100 647//95 646//94
f 653//101 642//90 647//95
f 648//96 654//24 649//97
f 649//97 654//24 650//98
f 650//98 654//24 651//99
f 651//99 654//24 652//100
f 652//100 654//24 653//101
f 653//101 654//24 648//96
f 665//1 666//90 667//91
f 665//1 667//91 668//92
f 665//1 668//92 669//93
f 665//1 669//93 670//94
f 665//1 670//94 671//95
f 665//1 671//95 666//90
f 672//96 667//91 666//90
f 673//97 668//92 667//91
f 674//98 669//93 668//92
f 675//99 670//94 669//93
f 676//100 671//95 670//94
f 677//101 666//90 671//95
f 672//96 678//24 673//97
f 673//97 678//24 674//98
f 674//98 678//24 675//99
f 675//99 678//24 676//100
f 676//100 678//24 677//101
f 677//101 678//24 672//96
f 703//1 704//90 705//91
f 703//1 705//91 706//92
f 703//1 706//92 707//93
f 703//1 707//93 708//94
f 703//1 708//94 709//95
f 703//1 709//95 704//90
f 710//96 705//91 704//90
f 711//97 706//92 705//91
f 712//98 707//93 706//92
f 713//99 708//94 707//93
f 714//100 709//95 708//94
f 715//101 704//90 709//95
f 710//96 716//24 711//97
f 711//97 716//24 712//98
f 712//98 716//24 713//99
f 713//99 716//24 714//100
f 714//100 716//24 715//101
f 715//101 716//24 710//96
f 727//1 728//90 729//91
f 727//1 729//91 730//92
f 727//1 730//92 731//93
f 727//1 731//93 732//94
f 727//1 732//94 733//95
f 727//1 733//95 728//90
f 734//96 729//91 728//90
f 735//97 730//92 729//91
f 736//98 731//93 730//92
f 737//99 732//94 731//93
f 738//100 733//95 732//94
f 739//101 728//90 733//95
f 734//96 740//24 735//97
f 735//97 740//24 736//98
f 736//98 740//24 737//99
f 737//99 740//24 738//100
f 738//100 740//24 739//101
f 739//101 740//24 734//96
f 741//1 742//109 743//292
f 741//1 743//292 744//111
f 741//1 744//111 745//112
f 741//1 745//112 746//113
f 741//1 746//113 747//114
f 741//1 747//114 748//115
f 741//1 748//115 742//109
f 749//116 743//292 742//109
f 750//117 744//111 743//292
f 751//118 745//112 744//111
f 752//119 746//113 745//112
f 753//120 747//114 746//113
f 754//121 748//115 747//114
f 755//377 742//109 748//115
f 749//116 756//24 750//117
f 750//117 756//24 751//118
f 751//118 756//24 752//119
f 752//119 756//24 753//120
f 753//120 756//24 754//121
f 754//121 756//24 755//377
f 755//377 756//24 749//116
f 781//1 782//90 783//91
f 781//1 783//91 784//92
f 781//1 784//92 785//93
f 781//1 785//93 786//94
f 781//1 786//94 787//95
f 781//1 787//95 782//90
f 788//96 783//91 782//90
f 789//97 784//92 783//91
f 790//98 785//93 784//92
f 791//99 786//94 785//93
f 792//100 787//95 786//94
f 793//101 782//90 787//95
f 788//96 794//24 789//97
f 789//97 794//24 790//98
f 790//98 794//24 791//99
f 791//99 794//24 792//100
f 792//100 794//24 793//101
f 793//101 794//24 788//96
f 805//1 806//90 807//91
f 805//1 807//91 808//92
f 805//1 808//92 809//93
f 805//1 809//93 810//94
f 805//1 810//94 811//95
f 805//1 811//95 806//90
f 812//96 807//91 806//90
f 813//97 808//92 807//91
f 814//98 809//93 808//92
f 815//99 810//94 809//93
f 816//100 811//95 810//94
f 817//101 806//90 811//95
f 812//96 818//24 813//97
f 813//97 818//24 814//98
f 814//98 818//24 815//99
f 815//99 818//24 816//100
f 816//100 818//24 817//101
f 817//101 818//24 812//96
f 843//1 844//90 845//91
f 843//1 845//91 846//92
f 843//1 846//92 847//93
f 843//1 847//93 848//94
f 843//1 848//94 849//95
f 843//1 849//95 844//90
f 850//96 845//91 844//90
f 851//97 846//92 845//91
f 852//98 847//93 846//92
f 853//99 848//94 847//93
f 854//100 849//95 848//94
f 855//101 844//90 849//95
f 850//96 856//24 851//97
f 851//97 856//24 852//98
f 852//98 856//24 853//99
f 853//99 856//24 854//100
f 854//100 856//24 855//101
f 855//101 856//24 850//96
f 867//1 868//90 869//91
f 867//1 869//91 870//92
f 867//1 870//92 871//93
f 867//1 871//93 872//94
f 867//1 872//94 873//95
f 867//1 873//95 868//90
f 874//96 869//91 868//90
f 875//97 870//92 869//91
f 876//98 871//93 870//92
f 877//99 872//94 871//93
f 878//100 873//95 872//94
f 879//101 868//90 873//95
f 874//96 880//24 875//97
f 875//97 880//24 876//98
f 876//98 880//24 877//99
f 877//99 880//24 878//100
f 878//100 880//24 879//101
f 879//101 880//24 874//96
f 905//1 906//90 907//91
f 905//1 907//91 908//92
f 905//1 908//92 909//93
f 905//1 909//93 910//94
f 905//1 910//94 911//95
f 905//1 911//95 906//90
f 912//96 907//91 906//90
f 913//97 908//92 907//91
f 914//98 909//93 908//92
f 915//99 910//94 909//93
f 916//100 911//95 910//94
f 917//101 906//90 911//95
f 912//96 918//24 913//97
f 913//97 918//24 914//98
f 914//98 918//24 915//99
f 915//99 918//24 916//100
f 916//100 918//24 917//101
f 917//101 918//24 912//96
f 929//1 930//90 931//91
f 929//1 931//91 932//92
f 929//1 932//92 933//93
f 929//1 933//93 934//94
f 929//1 934//94 935//95
f 929//1 935//95 930//90
f 936//96 931//91 930//90
f 937//97 932//92 931//91
f 938//98 933//93 932//92
f 939//99 934//94 933//93
f 940//100 935//95 934//94
f 941//101 930//90 935//95
f 936//96 942//24 937//97
f 937//97 942//24 938//98
f 938//98 942//24 939//99
f 939//99 942//24 940//100
f 940//100 942//24 941//101
f 941//101 942//24 936//96
f 943//1 944//109 945//292
f 943//1 945//292 946//111
f 943//1 946//111 947//112
f 943//1 947//112 948//113
f 943//1 948//113 949//114
f 943//1 949//114 950//115
f 943//1 950//115 944//109
f 951//116 945//292 944//109
f 952//117 946//111 945//292
f 953//118 947//112 946//111
f 954//119 948//113 947//112
f 955//120 949//114 948//113
f 956//121 950//115 949//114
f 957//377 944//109 950//115
f 951//116 958//24 952//117
f 952//117 958//24 953//118
f 953//118 958//24 954//119
f 954//119 958//24 955//120
f 955//120 958//24 956//121
f 956//121 958//24 957//377
f 957//377 958//24 951//116
f 104//96 105//97 99//91
f 105//97 106//98 100//92
f 106//98 107//99 101//93
f 107//99 108//100 102//94
f 108//100 109//101 103//95
f 109//101 104//96 98//90
f 128//96 129//97 123//91
f 129//97 130//98 124//92
f 130//98 131//99 125//93
f 131//99 132//100 126//94
f 132//100 133//101 127//95
f 133//101 128//96 122//90
f 143//116 144//117 137//110
f 144//117 145//118 138//111
f 145//118 146//119 139//112
f 146//119 147//120 140//113
f 147//120 148//121 141//114
f 148//121 149//122 142//115
f 149//122 143//116 136//109
f 182//96 183//97 177//91
f 183//97 184//98 178//92
f 184//98 185//99 179//93
f 185//99 186//100 180//94
f 186//100 187//101 181//95
f 187//101 182//96 176//90
f 206//96 207//97 201//91
f 207//97 208//98 202//92
f 208//98 209//99 203//93
f 209//99 210//100 204//94
f 210//100 211//101 205//95
f 211//101 206//96 200//90
f 244//96 245//97 239//91
f 245//97 246//98 240//92
f 246//98 247//99 241//93
f 247//99 248//100 242//94
f 248//100 249//101 243//95
f 249//101 244//96 238//90
f 268//96 269//97 263//91
f 269//97 270//98 264//92
f 270//98 271//99 265//93
f 271//99 272//100 266//94
f 272//100 273//101 267//95
f 273//101 268//96 262//90
f 306//96 307//97 301//91
f 307//97 308//98 302//92
f 308//98 309//99 303//93
f 309//99 310//100 304//94
f 310//100 311//101 305//95
f 311//101 306//96 300//90
f 330//96 331//97 325//91
f 331//97 332//98 326//92
f 332//98 333//99 327//93
f 333//99 334//100 328//94
f 334//100 335//101 329//95
f 335//101 330//96 324//90
f 345//116 346//117 339//110
f 346//117 347//118 340//111
f 347//118 348//119 341//112
f 348//119 349//120 342//113
f 349//120 350//207 343//114
f 350//207 351//122 344//115
f 351//122 345//116 338//109
f 384//96 385//97 379//91
f 385//97 386//98 380//92
f 386//98 387//99 381//93
f 387//99 388//100 382//94
f 388//100 389//101 383//95
f 389//101 384//96 378//90
f 408//96 409//97 403//91
f 409//97 410//98 404//92
f 410//98 411//99 405//93
f 411//99 412//100 406//94
f 412//100 413//101 407//95
f 413//101 408//96 402//90
f 446//96 447//97 441//91
f 447//97 448//98 442//92
f 448//98 449//99 443//93
f 449//99 450//100 444//94
f 450//100 451//101 445//95
f 451//101 446//96 440//90
f 470//96 471//97 465//91
f 471//97 472//98 466//92
f 472//98 473//99 467//93
f 473//99 474//100 468//94
f 474//100 475//101 469//95
f 475//101 470//96 464//90
f 508//96 509//97 503//91
f 509//97 510//98 504//92
f 510//98 511//99 505//93
f 511//99 512//100 506//94
f 512//100 513//101 507//95
f 513//101 508//96 502//90
f 532//96 533//97 527//91
f 533//97 534//98 528//92
f 534//98 535//99 529//93
f 535//99 536//100 530//94
f 536//100 537//101 531//95
f 537//101 532//96 526//90
f 547//116 548//117 541//292
f 548//117 549//118 542//111
f 549//118 550//119 543//112
f 550//119 551//120 544//113
f 551//120 552//121 545//114
f 552//121 553//122 546//115
f 553//122 547//116 540//109
f 586//96 587//97 581//91
f 587//97 588//98 582//92
f 588//98 589//99 583//93
f 589//99 590//100 584//94
f 590//100 591//101 585//95
f 591//101 586//96 580//90
f 610//96 611//97 605//91
f 611//97 612//98 606//92
f 612//98 613//99 607//93
f 613//99 614//100 608//94
f 614//100 615//101 609//95
f 615//101 610//96 604//90
f 648//96 649//97 643//91
f 649//97 650//98 644//92
f 650//98 651//99 645//93
f 651//99 652//100 646//94
f 652//100 653//101 647//95
f 653//101 648//96 642//90
f 672//96 673//97 667//91
f 673//97 674//98 668//92
f 674//98 675//99 669//93
f 675//99 676//100 670//94
f 676//100 677//101 671//95
f 677//101 672//96 666//90
f 710//96 711//97 705//91
f 711//97 712//98 706//92
f 712//98 713//99 707//93
f 713//99 714//100 708//94
f 714//100 715//101 709//95
f 715//101 710//96 704//90
f 734//96 735//97 729//91
f 735//97 736//98 730//92
f 736//98 737//99 731//93
f 737//99 738//100 732//94
f 738//100 739//101 733//95
f 739//101 734//96 728//90
f 749//116 750//117 743//292
f 750//117 751//118 744//111
f 751//118 752//119 745//112
f 752//119 753//120 746//113
f 753//120 754//121 747//114
f 754//121 755//377 748//115
f 755//377 749//116 742//109
f 788//96 789//97 783//91
f 789//97 790//98 784//92
f 790//98 791//99 785//93
f 791//99 792//100 786//94
f 792//100 793//101 787//95
f 793//101 788//96 782//90
f 812//96 813//97 807//91
f 813//97 814//98 808//92
f 814//98 815//99 809//93
f 815//99 816//100 810//94
f 816//100 817//101 811//95
f 817//101 812//96 806//90
f 850//96 851//97 845//91
f 851//97 852//98 846//92
f 852//98 853//99 847//93
f 853//99 854//100 848//94
f 854//100 855//101 849//95
f 855//101 850//96 844//90
f 874//96 875//97 869//91
f 875//97 876//98 870//92
f 876//98 877//99 871//93
f 877//99 878//100 872//94
f 878//100 879//101 873//95
f 879//101 874//96 868//90
f 912//96 913//97 907//91
f 913//97 914//98 908//92
f 914//98 915//99 909//93
f 915//99 916//100 910//94
f 916//100 917//101 911//95
f 917//101 912//96 906//90
f 936//96 937//97 931//91
f 937//97 938//98 932//92
f 938//98 939//99 933//93
f 939//99 940//100 934//94
f 940//100 941//101 935//95
f 941//101 936//96 930//90
f 951//116 952//117 945//292
f 952//117 953//118 946//111
f 953//118 954//119 947//112
f 954//119 955//120 948//113
f 955//120 956//121 949//114
f 956//121 957//377 950//115
f 957//377 951//116 944//109
