# Blender 5.2.1 LTS
# www.blender.org
mtllib filter_grove_b.mtl
o filter_grove_b
v -1.800000 -0.000000 -0.600000
v -0.154550 0.027500 -0.600000
v -0.415760 0.027500 -0.131790
v -1.116460 0.027500 0.187760
v -2.034170 0.027500 0.257210
v -2.877540 0.027500 0.054500
v -3.378800 0.027500 -0.356010
v -3.378800 0.027500 -0.843990
v -2.877540 0.027500 -1.254500
v -2.034170 0.027500 -1.457210
v -1.116460 0.027500 -1.387760
v -0.415760 0.027500 -1.068210
v -0.154550 0.082500 -0.600000
v -0.415760 0.082500 -0.131790
v -1.116460 0.082500 0.187760
v -2.034170 0.082500 0.257210
v -2.877540 0.082500 0.054500
v -3.378800 0.082500 -0.356010
v -3.378800 0.082500 -0.843990
v -2.877540 0.082500 -1.254500
v -2.034170 0.082500 -1.457210
v -1.116460 0.082500 -1.387760
v -0.415760 0.082500 -1.068210
v -1.800000 0.110000 -0.600000
v 0.400000 0.000000 0.500000
v 2.305260 0.027500 0.500000
v 2.002800 0.027500 1.085260
v 1.191470 0.027500 1.484710
v 0.128850 0.027500 1.571510
v -0.847680 0.027500 1.318120
v -1.428080 0.027500 0.804980
v -1.428080 0.027500 0.195020
v -0.847680 0.027500 -0.318120
v 0.128850 0.027500 -0.571510
v 1.191470 0.027500 -0.484710
v 2.002800 0.027500 -0.085260
v 2.305260 0.082500 0.500000
v 2.002800 0.082500 1.085260
v 1.191470 0.082500 1.484710
v 0.128850 0.082500 1.571510
v -0.847680 0.082500 1.318120
v -1.428080 0.082500 0.804980
v -1.428080 0.082500 0.195020
v -0.847680 0.082500 -0.318120
v 0.128850 0.082500 -0.571510
v 1.191470 0.082500 -0.484710
v 2.002800 0.082500 -0.085260
v 0.400000 0.110000 0.500000
v 2.100000 -0.000000 -0.400000
v 3.355740 0.027500 -0.400000
v 3.156390 0.027500 0.021390
v 2.621650 0.027500 0.308990
v 1.921290 0.027500 0.371490
v 1.277670 0.027500 0.189050
v 0.895130 0.027500 -0.180410
v 0.895130 0.027500 -0.619590
v 1.277670 0.027500 -0.989050
v 1.921290 0.027500 -1.171490
v 2.621650 0.027500 -1.108990
v 3.156390 0.027500 -0.821390
v 3.355740 0.082500 -0.400000
v 3.156390 0.082500 0.021390
v 2.621650 0.082500 0.308990
v 1.921290 0.082500 0.371490
v 1.277670 0.082500 0.189050
v 0.895130 0.082500 -0.180410
v 0.895130 0.082500 -0.619590
v 1.277670 0.082500 -0.989050
v 1.921290 0.082500 -1.171490
v 2.621650 0.082500 -1.108990
v 3.156390 0.082500 -0.821390
v 2.100000 0.110000 -0.400000
v -0.411950 0.048190 0.208830
v -0.569680 1.238190 0.091130
v -0.504960 0.040430 0.255000
v -0.662700 1.230430 0.137300
v -0.527940 0.047400 0.356330
v -0.685670 1.237400 0.238630
v -0.463570 0.063870 0.436510
v -0.621300 1.253870 0.318810
v -0.360330 0.077420 0.435170
v -0.518060 1.267420 0.317470
v -0.295960 0.077850 0.353320
v -0.453700 1.267850 0.235620
v -0.318940 0.064850 0.252590
v -0.476670 1.254850 0.134890
v -0.396400 0.625000 0.286020
v -0.716400 0.865000 0.168210
v -0.430260 0.590000 0.306690
v -0.750260 0.830000 0.188880
v -0.438810 0.603370 0.357150
v -0.758810 0.843370 0.239350
v -0.410240 0.646630 0.367670
v -0.730240 0.886630 0.249870
v -0.384030 0.660000 0.323710
v -0.704030 0.900000 0.205900
v -0.731950 0.865000 0.210440
v -0.610710 0.955000 0.210440
v -0.671330 0.955000 0.277940
v -0.792570 0.955000 0.277940
v -0.853190 0.955000 0.210440
v -0.792570 0.955000 0.142940
v -0.671330 0.955000 0.142940
v -0.610710 1.135000 0.210440
v -0.671330 1.135000 0.277940
v -0.792570 1.135000 0.277940
v -0.853190 1.135000 0.210440
v -0.792570 1.135000 0.142940
v -0.671330 1.135000 0.142940
v -0.731950 1.225000 0.210440
v -0.427500 0.925000 0.370480
v -0.107500 1.165000 0.488280
v -0.393640 0.890000 0.349810
v -0.073640 1.130000 0.467610
v -0.385090 0.903370 0.299340
v -0.065090 1.143370 0.417150
v -0.413660 0.946630 0.288830
v -0.093660 1.186630 0.406630
v -0.439870 0.960000 0.332790
v -0.119870 1.200000 0.450600
v -0.091950 1.165000 0.446060
v 0.029290 1.255000 0.446060
v -0.031330 1.255000 0.513560
v -0.152570 1.255000 0.513560
v -0.213190 1.255000 0.446060
v -0.152570 1.255000 0.378560
v -0.031330 1.255000 0.378560
v 0.029290 1.435000 0.446060
v -0.031330 1.435000 0.513560
v -0.152570 1.435000 0.513560
v -0.213190 1.435000 0.446060
v -0.152570 1.435000 0.378560
v -0.031330 1.435000 0.378560
v -0.091950 1.525000 0.446060
v -0.569680 1.150000 0.210550
v -0.344520 1.225000 0.210550
v -0.429290 1.225000 0.386590
v -0.619790 1.225000 0.430070
v -0.772550 1.225000 0.308250
v -0.772550 1.225000 0.112850
v -0.619790 1.225000 -0.008970
v -0.429290 1.225000 0.034510
v -0.344520 1.375000 0.210550
v -0.429290 1.375000 0.386590
v -0.619790 1.375000 0.430070
v -0.772550 1.375000 0.308250
v -0.772550 1.375000 0.112850
v -0.619790 1.375000 -0.008970
v -0.429290 1.375000 0.034510
v -0.569680 1.450000 0.210550
v -0.237610 0.059330 -1.295180
v 0.042210 2.929330 -1.317810
v -0.303750 0.066030 -1.263220
v -0.023930 2.936030 -1.285850
v -0.320080 0.068190 -1.191330
v -0.040260 2.938190 -1.213960
v -0.274310 0.064180 -1.133630
v 0.005510 2.934180 -1.156260
v -0.200900 0.057030 -1.133570
v 0.078920 2.927030 -1.156200
v -0.155130 0.052110 -1.191200
v 0.124690 2.922110 -1.213830
v -0.171460 0.053130 -1.263120
v 0.108360 2.923130 -1.285750
v -0.237610 1.465000 -1.255180
v -0.607610 1.705000 -1.255180
v -0.260900 1.429090 -1.224080
v -0.630900 1.669090 -1.224080
v -0.252000 1.442810 -1.173770
v -0.622000 1.682810 -1.173770
v -0.223210 1.487190 -1.173770
v -0.593210 1.727190 -1.173770
v -0.214320 1.500910 -1.224080
v -0.584320 1.740910 -1.224080
v -0.607610 1.705000 -1.210180
v -0.486360 1.795000 -1.210180
v -0.546990 1.795000 -1.142680
v -0.668230 1.795000 -1.142680
v -0.728850 1.795000 -1.210180
v -0.668230 1.795000 -1.277680
v -0.546990 1.795000 -1.277680
v -0.486360 1.975000 -1.210180
v -0.546990 1.975000 -1.142680
v -0.668230 1.975000 -1.142680
v -0.728850 1.975000 -1.210180
v -0.668230 1.975000 -1.277680
v -0.546990 1.975000 -1.277680
v -0.607610 2.065000 -1.210180
v -0.252250 2.168200 -1.167630
v 0.117750 2.408200 -1.040320
v -0.220970 2.131720 -1.189750
v 0.149030 2.371720 -1.062450
v -0.212690 2.145650 -1.240100
v 0.157310 2.385650 -1.112800
v -0.238840 2.190750 -1.249100
v 0.131160 2.430750 -1.121800
v -0.263290 2.204680 -1.204310
v 0.106710 2.444680 -1.077010
v 0.132390 2.408200 -1.082880
v 0.253640 2.498200 -1.082880
v 0.193010 2.498200 -1.015380
v 0.071770 2.498200 -1.015380
v 0.011150 2.498200 -1.082880
v 0.071770 2.498200 -1.150380
v 0.193010 2.498200 -1.150380
v 0.253640 2.678200 -1.082880
v 0.193010 2.678200 -1.015380
v 0.071770 2.678200 -1.015380
v 0.011150 2.678200 -1.082880
v 0.071770 2.678200 -1.150380
v 0.193010 2.678200 -1.150380
v 0.132390 2.768200 -1.082880
v 2.643250 0.065360 1.245790
v 2.469430 2.455360 1.396830
v 2.576970 0.058540 1.277420
v 2.403140 2.448540 1.428470
v 2.560600 0.052820 1.349120
v 2.386770 2.442820 1.500160
v 2.606470 0.052510 1.406880
v 2.432640 2.442510 1.557920
v 2.680030 0.057830 1.407220
v 2.506210 2.447830 1.558260
v 2.725900 0.064790 1.349870
v 2.552080 2.454790 1.500920
v 2.709530 0.068140 1.278030
v 2.535710 2.458140 1.429070
v 2.631100 1.225000 1.287290
v 2.211100 1.465000 1.405100
v 2.619630 1.187500 1.322800
v 2.199630 1.427500 1.440610
v 2.640810 1.201830 1.369120
v 2.220810 1.441830 1.486920
v 2.665360 1.248170 1.362230
v 2.245360 1.488170 1.480030
v 2.659360 1.262500 1.311660
v 2.239360 1.502500 1.429460
v 2.223250 1.465000 1.448430
v 2.344500 1.555000 1.448430
v 2.283870 1.555000 1.515930
v 2.162630 1.555000 1.515930
v 2.102010 1.555000 1.448430
v 2.162630 1.555000 1.380930
v 2.283870 1.555000 1.380930
v 2.344500 1.735000 1.448430
v 2.283870 1.735000 1.515930
v 2.162630 1.735000 1.515930
v 2.102010 1.735000 1.448430
v 2.162630 1.735000 1.380930
v 2.283870 1.735000 1.380930
v 2.223250 1.825000 1.448430
v 2.641140 1.813000 1.375570
v 3.061140 2.053000 1.395330
v 2.663790 1.775830 1.345510
v 3.083790 2.015830 1.365260
v 2.658060 1.790030 1.294870
v 3.078060 2.030030 1.314630
v 2.631860 1.835970 1.293640
v 3.051860 2.075970 1.313390
v 2.621410 1.850170 1.343510
v 3.041410 2.090170 1.363270
v 3.063250 2.053000 1.350380
v 3.184500 2.143000 1.350380
v 3.123870 2.143000 1.417880
v 3.002630 2.143000 1.417880
v 2.942010 2.143000 1.350380
v 3.002630 2.143000 1.282880
v 3.123870 2.143000 1.282880
v 3.184500 2.323000 1.350380
v 3.123870 2.323000 1.417880
v 3.002630 2.323000 1.417880
v 2.942010 2.323000 1.350380
v 3.002630 2.323000 1.282880
v 3.123870 2.323000 1.282880
v 3.063250 2.413000 1.350380
v -1.819300 0.051150 -0.055220
v -1.893160 1.961150 -0.255140
v -1.885700 0.051940 -0.023120
v -1.959560 1.961940 -0.223050
v -1.902110 0.058800 0.048460
v -1.975960 1.968800 -0.151460
v -1.856150 0.066560 0.105630
v -1.930010 1.976560 -0.094290
v -1.782450 0.069380 0.105340
v -1.856300 1.979380 -0.094590
v -1.736490 0.065140 0.047800
v -1.810350 1.975140 -0.152120
v -1.752890 0.057020 -0.023660
v -1.826750 1.967020 -0.223580
v -1.835930 0.985000 -0.012490
v -2.155930 1.225000 0.114810
v -1.847170 0.949890 0.025440
v -2.167170 1.189890 0.152740
v -1.819890 0.963300 0.068740
v -2.139890 1.203300 0.196040
v -1.791790 1.006700 0.057560
v -2.111790 1.246700 0.184860
v -1.801700 1.020110 0.007350
v -2.121700 1.260110 0.134650
v -2.139300 1.225000 0.156620
v -2.018050 1.315000 0.156620
v -2.078680 1.315000 0.224120
v -2.199920 1.315000 0.224120
v -2.260540 1.315000 0.156620
v -2.199920 1.315000 0.089120
v -2.078680 1.315000 0.089120
v -2.018050 1.495000 0.156620
v -2.078680 1.495000 0.224120
v -2.199920 1.495000 0.224120
v -2.260540 1.495000 0.156620
v -2.199920 1.495000 0.089120
v -2.078680 1.495000 0.089120
v -2.139300 1.585000 0.156620
v -1.805150 1.457800 0.072040
v -1.485150 1.697800 -0.033910
v -1.791360 1.422940 0.034720
v -1.471360 1.662940 -0.071230
v -1.816180 1.436250 -0.010060
v -1.496180 1.676250 -0.116020
v -1.845300 1.479350 -0.000420
v -1.525300 1.719350 -0.106370
v -1.838490 1.492660 0.050320
v -1.518490 1.732660 -0.055630
v -1.499300 1.697800 -0.076630
v -1.378050 1.787800 -0.076630
v -1.438680 1.787800 -0.009130
v -1.559920 1.787800 -0.009130
v -1.620540 1.787800 -0.076630
v -1.559920 1.787800 -0.144130
v -1.438680 1.787800 -0.144130
v -1.378050 1.967800 -0.076630
v -1.438680 1.967800 -0.009130
v -1.559920 1.967800 -0.009130
v -1.620540 1.967800 -0.076630
v -1.559920 1.967800 -0.144130
v -1.438680 1.967800 -0.144130
v -1.499300 2.057800 -0.076630
v -1.893160 1.870000 -0.170600
v -1.667990 1.945000 -0.170600
v -1.752770 1.945000 0.005440
v -1.943260 1.945000 0.048920
v -2.096020 1.945000 -0.072910
v -2.096020 1.945000 -0.268300
v -1.943260 1.945000 -0.390130
v -1.752770 1.945000 -0.346650
v -1.667990 2.095000 -0.170600
v -1.752770 2.095000 0.005440
v -1.943260 2.095000 0.048920
v -2.096020 2.095000 -0.072910
v -2.096020 2.095000 -0.268300
v -1.943260 2.095000 -0.390130
v -1.752770 2.095000 -0.346650
v -1.893160 2.170000 -0.170600
v 2.310840 0.071980 -1.420000
v 2.572180 1.501980 -1.276470
v 2.218540 0.084170 -1.373370
v 2.479870 1.514170 -1.229840
v 2.195740 0.078160 -1.271940
v 2.457080 1.508160 -1.128410
v 2.259620 0.058470 -1.192090
v 2.520950 1.488470 -1.048560
v 2.362070 0.039930 -1.193950
v 2.623410 1.469930 -1.050420
v 2.425950 0.036510 -1.276120
v 2.687280 1.466510 -1.132590
v 2.403150 0.050770 -1.376720
v 2.664490 1.480770 -1.233190
v 2.308440 0.745000 -1.345530
v 1.938440 0.985000 -1.325780
v 2.286870 0.709080 -1.313240
v 1.916870 0.949080 -1.293490
v 2.298420 0.722800 -1.263480
v 1.928420 0.962800 -1.243720
v 2.327140 0.767200 -1.265010
v 1.957140 1.007200 -1.245250
v 2.333330 0.780920 -1.315730
v 1.963330 1.020920 -1.295970
v 1.940840 0.985000 -1.280840
v 2.062090 1.075000 -1.280840
v 2.001460 1.075000 -1.213340
v 1.880220 1.075000 -1.213340
v 1.819600 1.075000 -1.280840
v 1.880220 1.075000 -1.348340
v 2.001460 1.075000 -1.348340
v 2.062090 1.255000 -1.280840
v 2.001460 1.255000 -1.213340
v 1.880220 1.255000 -1.213340
v 1.819600 1.255000 -1.280840
v 1.880220 1.255000 -1.348340
v 2.001460 1.255000 -1.348340
v 1.940840 1.345000 -1.280840
v 2.326190 1.102600 -1.258300
v 2.696190 1.342600 -1.392550
v 2.336530 1.066060 -1.295130
v 2.706530 1.306060 -1.429380
v 2.311370 1.080020 -1.339520
v 2.681370 1.320020 -1.473770
v 2.285480 1.125180 -1.330120
v 2.655480 1.365180 -1.464370
v 2.294640 1.139140 -1.279930
v 2.664640 1.379140 -1.414180
v 2.680840 1.342600 -1.434850
v 2.802090 1.432600 -1.434850
v 2.741460 1.432600 -1.367350
v 2.620220 1.432600 -1.367350
v 2.559600 1.432600 -1.434850
v 2.620220 1.432600 -1.502350
v 2.741460 1.432600 -1.502350
v 2.802090 1.612600 -1.434850
v 2.741460 1.612600 -1.367350
v 2.620220 1.612600 -1.367350
v 2.559600 1.612600 -1.434850
v 2.620220 1.612600 -1.502350
v 2.741460 1.612600 -1.502350
v 2.680840 1.702600 -1.434850
v -0.089010 0.059680 0.806710
v -0.324810 3.169680 0.795150
v -0.155280 0.054780 0.838730
v -0.391080 3.164780 0.827170
v -0.171640 0.053810 0.910640
v -0.407440 3.163810 0.899080
v -0.125790 0.057500 0.968300
v -0.361590 3.167500 0.956740
v -0.052240 0.063070 0.968280
v -0.288040 3.173070 0.956720
v -0.006380 0.066340 0.910600
v -0.242180 3.176340 0.899040
v -0.022750 0.064830 0.838690
v -0.258550 3.174830 0.827130
v -0.078010 1.585000 0.848070
v -0.498010 1.825000 0.742120
v -0.105720 1.547560 0.873150
v -0.525720 1.787560 0.767200
v -0.110350 1.561860 0.923870
v -0.530350 1.801860 0.817920
v -0.085490 1.608140 0.930140
v -0.505490 1.848140 0.824190
v -0.065500 1.622440 0.883300
v -0.485500 1.862440 0.777340
v -0.509010 1.825000 0.785750
v -0.387770 1.915000 0.785750
v -0.448390 1.915000 0.853250
v -0.569640 1.915000 0.853250
v -0.630260 1.915000 0.785750
v -0.569640 1.915000 0.718250
v -0.448390 1.915000 0.718250
v -0.387770 2.095000 0.785750
v -0.448390 2.095000 0.853250
v -0.569640 2.095000 0.853250
v -0.630260 2.095000 0.785750
v -0.569640 2.095000 0.718250
v -0.448390 2.095000 0.718250
v -0.509010 2.185000 0.785750
v -0.084840 2.345800 0.936510
v 0.335160 2.585800 0.897390
v -0.066650 2.308600 0.903590
v 0.353350 2.548600 0.864470
v -0.079370 2.322810 0.854240
v 0.340630 2.562810 0.815130
v -0.105410 2.368790 0.856670
v 0.314590 2.608790 0.817550
v -0.108800 2.383000 0.907520
v 0.311200 2.623000 0.868400
v 0.330990 2.585800 0.852590
v 0.452230 2.675800 0.852590
v 0.391610 2.675800 0.920090
v 0.270360 2.675800 0.920090
v 0.209740 2.675800 0.852590
v 0.270360 2.675800 0.785090
v 0.391610 2.675800 0.785090
v 0.452230 2.855800 0.852590
v 0.391610 2.855800 0.920090
v 0.270360 2.855800 0.920090
v 0.209740 2.855800 0.852590
v 0.270360 2.855800 0.785090
v 0.391610 2.855800 0.785090
v 0.330990 2.945800 0.852590
v -1.859510 0.055920 -1.405700
v -1.841450 2.685920 -1.532200
v -1.925970 0.057910 -1.373760
v -1.907910 2.687910 -1.500250
v -1.942380 0.061480 -1.301930
v -1.924320 2.691480 -1.428430
v -1.896390 0.063930 -1.244320
v -1.878330 2.693930 -1.370810
v -1.822630 0.063430 -1.244290
v -1.804580 2.693430 -1.370790
v -1.776640 0.060340 -1.301880
v -1.758590 2.690340 -1.428380
v -1.793060 0.057000 -1.373710
v -1.775000 2.687000 -1.500210
v -1.842100 1.345000 -1.362290
v -2.162100 1.585000 -1.496540
v -1.876580 1.309800 -1.343040
v -2.196580 1.549800 -1.477290
v -1.887470 1.323250 -1.293050
v -2.207470 1.563250 -1.427300
v -1.859720 1.366750 -1.281410
v -2.179720 1.606750 -1.415660
v -1.831680 1.380200 -1.324200
v -2.151680 1.620200 -1.458450
v -2.179510 1.585000 -1.455050
v -2.058270 1.675000 -1.455050
v -2.118890 1.675000 -1.387550
v -2.240130 1.675000 -1.387550
v -2.300750 1.675000 -1.455050
v -2.240130 1.675000 -1.522550
v -2.118890 1.675000 -1.522550
v -2.058270 1.855000 -1.455050
v -2.118890 1.855000 -1.387550
v -2.240130 1.855000 -1.387550
v -2.300750 1.855000 -1.455050
v -2.240130 1.855000 -1.522550
v -2.118890 1.855000 -1.522550
v -2.179510 1.945000 -1.455050
v -1.871940 1.990600 -1.277550
v -1.551940 2.230600 -1.185570
v -1.839300 1.955880 -1.300520
v -1.519300 2.195880 -1.208540
v -1.834590 1.969140 -1.351520
v -1.514590 2.209140 -1.259540
v -1.864320 2.012060 -1.360060
v -1.544320 2.252060 -1.268080
v -1.887400 2.025320 -1.314350
v -1.567400 2.265320 -1.222370
v -1.539510 2.230600 -1.228820
v -1.418270 2.320600 -1.228820
v -1.478890 2.320600 -1.161320
v -1.600130 2.320600 -1.161320
v -1.660750 2.320600 -1.228820
v -1.600130 2.320600 -1.296320
v -1.478890 2.320600 -1.296320
v -1.418270 2.500600 -1.228820
v -1.478890 2.500600 -1.161320
v -1.600130 2.500600 -1.161320
v -1.660750 2.500600 -1.228820
v -1.600130 2.500600 -1.296320
v -1.478890 2.500600 -1.296320
v -1.539510 2.590600 -1.228820
v -1.841450 2.590000 -1.447300
v -1.616290 2.665000 -1.447300
v -1.701070 2.665000 -1.271250
v -1.891560 2.665000 -1.227770
v -2.044320 2.665000 -1.349600
v -2.044320 2.665000 -1.544990
v -1.891560 2.665000 -1.666820
v -1.701070 2.665000 -1.623340
v -1.616290 2.815000 -1.447300
v -1.701070 2.815000 -1.271250
v -1.891560 2.815000 -1.227770
v -2.044320 2.815000 -1.349600
v -2.044320 2.815000 -1.544990
v -1.891560 2.815000 -1.666820
v -1.701070 2.815000 -1.623340
v -1.841450 2.890000 -1.447300
v 1.247060 0.067790 0.019830
v 1.461460 2.217790 0.217770
v 1.180930 0.071400 0.052300
v 1.395330 2.221400 0.250240
v 1.164600 0.066420 0.124060
v 1.379000 2.216420 0.322000
v 1.210360 0.056610 0.181060
v 1.424760 2.206610 0.379010
v 1.283760 0.049350 0.180400
v 1.498160 2.199350 0.378340
v 1.329520 0.050110 0.122550
v 1.543930 2.200110 0.320500
v 1.313190 0.058320 0.051090
v 1.527590 2.208320 0.249040
v 1.251790 1.105000 0.059720
v 0.881790 1.345000 0.020600
v 1.225450 1.069040 0.088200
v 0.855450 1.309040 0.049080
v 1.228970 1.082770 0.139170
v 0.858970 1.322770 0.100050
v 1.257490 1.127230 0.142180
v 0.887490 1.367230 0.103060
v 1.271590 1.140960 0.093080
v 0.901590 1.380960 0.053960
v 0.877060 1.345000 0.065350
v 0.998300 1.435000 0.065350
v 0.937680 1.435000 0.132850
v 0.816440 1.435000 0.132850
v 0.755820 1.435000 0.065350
v 0.816440 1.435000 -0.002150
v 0.937680 1.435000 -0.002150
v 0.998300 1.615000 0.065350
v 0.937680 1.615000 0.132850
v 0.816440 1.615000 0.132850
v 0.755820 1.615000 0.065350
v 0.816440 1.615000 -0.002150
v 0.937680 1.615000 -0.002150
v 0.877060 1.705000 0.065350
v 1.231280 1.635400 0.146610
v 1.601280 1.875400 0.285120
v 1.262990 1.598820 0.125280
v 1.632990 1.838820 0.263790
v 1.272680 1.612790 0.075190
v 1.642680 1.852790 0.213700
v 1.246960 1.658010 0.065560
v 1.616960 1.898010 0.204070
v 1.221370 1.671980 0.109700
v 1.591370 1.911980 0.248210
v 1.617060 1.875400 0.242980
v 1.738300 1.965400 0.242980
v 1.677680 1.965400 0.310480
v 1.556440 1.965400 0.310480
v 1.495820 1.965400 0.242980
v 1.556440 1.965400 0.175480
v 1.677680 1.965400 0.175480
v 1.738300 2.145400 0.242980
v 1.677680 2.145400 0.310480
v 1.556440 2.145400 0.310480
v 1.495820 2.145400 0.242980
v 1.556440 2.145400 0.175480
v 1.677680 2.145400 0.175480
v 1.617060 2.235400 0.242980
v -2.196670 0.048190 0.750630
v -2.468770 1.718190 0.585470
v -2.289280 0.037690 0.797070
v -2.561380 1.707690 0.631910
v -2.312150 0.043990 0.898460
v -2.584260 1.713990 0.733300
v -2.248070 0.062350 0.978460
v -2.520170 1.732350 0.813290
v -2.145280 0.078930 0.976820
v -2.417380 1.748930 0.811650
v -2.081190 0.081260 0.894780
v -2.353290 1.751260 0.729610
v -2.104060 0.067580 0.794110
v -2.376160 1.737580 0.628950
v -2.206300 0.865000 0.826090
v -2.626300 1.105000 0.918070
v -2.220020 0.827630 0.860920
v -2.640020 1.067630 0.952900
v -2.201480 0.841900 0.908370
v -2.621480 1.081900 1.000340
v -2.176290 0.888100 0.902850
v -2.596290 1.128100 0.994830
v -2.179270 0.902370 0.852000
v -2.599270 1.142370 0.943980
v -2.616670 1.105000 0.962020
v -2.495430 1.195000 0.962020
v -2.556050 1.195000 1.029520
v -2.677290 1.195000 1.029520
v -2.737910 1.195000 0.962020
v -2.677290 1.195000 0.894520
v -2.556050 1.195000 0.894520
v -2.495430 1.375000 0.962020
v -2.556050 1.375000 1.029520
v -2.677290 1.375000 1.029520
v -2.737910 1.375000 0.962020
v -2.677290 1.375000 0.894520
v -2.556050 1.375000 0.894520
v -2.616670 1.465000 0.962020
v -2.202790 1.280200 0.914630
v -1.782790 1.520200 0.972320
v -2.177680 1.242960 0.886690
v -1.757680 1.482960 0.944390
v -2.178810 1.257180 0.835750
v -1.758810 1.497180 0.893450
v -2.204630 1.303220 0.832210
v -1.784630 1.543220 0.889900
v -2.219450 1.317440 0.880950
v -1.799450 1.557440 0.938650
v -1.776670 1.520200 0.927740
v -1.655430 1.610200 0.927740
v -1.716050 1.610200 0.995240
v -1.837290 1.610200 0.995240
v -1.897910 1.610200 0.927740
v -1.837290 1.610200 0.860240
v -1.716050 1.610200 0.860240
v -1.655430 1.790200 0.927740
v -1.716050 1.790200 0.995240
v -1.837290 1.790200 0.995240
v -1.897910 1.790200 0.927740
v -1.837290 1.790200 0.860240
v -1.716050 1.790200 0.860240
v -1.776670 1.880200 0.927740
v 0.222520 0.063240 -0.638490
v 0.330520 1.253240 -0.593080
v 0.156330 0.068020 -0.606280
v 0.264340 1.258020 -0.560870
v 0.139990 0.066760 -0.534370
v 0.247990 1.256760 -0.488960
v 0.185790 0.060410 -0.476900
v 0.293790 1.250410 -0.431490
v 0.259250 0.053750 -0.477150
v 0.367250 1.243750 -0.431740
v 0.305050 0.051800 -0.534940
v 0.413050 1.241800 -0.489530
v 0.288700 0.056020 -0.606740
v 0.396710 1.246020 -0.561330
v 0.204640 0.625000 -0.594850
v -0.115360 0.865000 -0.456340
v 0.194720 0.589750 -0.556680
v -0.125280 0.829750 -0.418170
v 0.223220 0.603210 -0.514190
v -0.096780 0.843210 -0.375680
v 0.250740 0.646790 -0.526100
v -0.069260 0.886790 -0.387590
v 0.239260 0.660250 -0.575950
v -0.080740 0.900250 -0.437440
v -0.097480 0.865000 -0.415040
v 0.023760 0.955000 -0.415040
v -0.036860 0.955000 -0.347540
v -0.158110 0.955000 -0.347540
v -0.218730 0.955000 -0.415040
v -0.158110 0.955000 -0.482540
v -0.036860 0.955000 -0.482540
v 0.023760 1.135000 -0.415040
v -0.036860 1.135000 -0.347540
v -0.158110 1.135000 -0.347540
v -0.218730 1.135000 -0.415040
v -0.158110 1.135000 -0.482540
v -0.036860 1.135000 -0.482540
v -0.097480 1.225000 -0.415040
v 0.232940 0.925000 -0.509780
v 0.552940 1.165000 -0.585940
v 0.250280 0.890430 -0.545870
v 0.570280 1.130430 -0.622030
v 0.229250 0.903630 -0.592580
v 0.549250 1.143630 -0.668740
v 0.198920 0.946370 -0.585360
v 0.518920 1.186370 -0.661520
v 0.201200 0.959570 -0.534190
v 0.521200 1.199570 -0.610350
v 0.542520 1.165000 -0.629720
v 0.663760 1.255000 -0.629720
v 0.603140 1.255000 -0.562220
v 0.481890 1.255000 -0.562220
v 0.421270 1.255000 -0.629720
v 0.481890 1.255000 -0.697220
v 0.603140 1.255000 -0.697220
v 0.663760 1.435000 -0.629720
v 0.603140 1.435000 -0.562220
v 0.481890 1.435000 -0.562220
v 0.421270 1.435000 -0.629720
v 0.481890 1.435000 -0.697220
v 0.603140 1.435000 -0.697220
v 0.542520 1.525000 -0.629720
v 0.330520 1.150000 -0.508140
v 0.555690 1.225000 -0.508140
v 0.470910 1.225000 -0.332100
v 0.280420 1.225000 -0.288620
v 0.127650 1.225000 -0.410450
v 0.127650 1.225000 -0.605840
v 0.280420 1.225000 -0.727660
v 0.470910 1.225000 -0.684190
v 0.555690 1.375000 -0.508140
v 0.470910 1.375000 -0.332100
v 0.280420 1.375000 -0.288620
v 0.127650 1.375000 -0.410450
v 0.127650 1.375000 -0.605840
v 0.280420 1.375000 -0.727660
v 0.470910 1.375000 -0.684190
v 0.330520 1.450000 -0.508140
v 1.169200 0.062910 1.117390
v 1.313330 2.932910 1.215650
v 1.102830 0.065140 1.149490
v 1.246960 2.935140 1.247750
v 1.086440 0.063500 1.221390
v 1.230560 2.933500 1.319640
v 1.132370 0.059230 1.278950
v 1.276500 2.929230 1.377200
v 1.206040 0.055530 1.278820
v 1.350160 2.925530 1.377070
v 1.251970 0.055200 1.221110
v 1.396090 2.925200 1.319360
v 1.235570 0.058480 1.149270
v 1.379700 2.928480 1.247520
v 1.162270 1.465000 1.157880
v 0.792270 1.705000 1.215580
v 1.144240 1.428970 1.192160
v 0.774240 1.668970 1.249860
v 1.160710 1.442730 1.240520
v 0.790710 1.682730 1.298210
v 1.188910 1.487270 1.236120
v 0.818910 1.727270 1.293810
v 1.189880 1.501030 1.185050
v 0.819880 1.741030 1.242740
v 0.799200 1.705000 1.260040
v 0.920450 1.795000 1.260040
v 0.859820 1.795000 1.327540
v 0.738580 1.795000 1.327540
v 0.677960 1.795000 1.260040
v 0.738580 1.795000 1.192540
v 0.859820 1.795000 1.192540
v 0.920450 1.975000 1.260040
v 0.859820 1.975000 1.327540
v 0.738580 1.975000 1.327540
v 0.677960 1.975000 1.260040
v 0.738580 1.975000 1.192540
v 0.859820 1.975000 1.192540
v 0.799200 2.065000 1.260040
v 1.185130 2.168200 1.244430
v 1.555130 2.408200 1.104430
v 1.194890 2.131610 1.207500
v 1.564890 2.371610 1.067500
v 1.169150 2.145590 1.163440
v 1.539150 2.385590 1.023440
v 1.143490 2.190810 1.173150
v 1.513490 2.430810 1.033150
v 1.153360 2.204790 1.223210
v 1.523360 2.444790 1.083210
v 1.539200 2.408200 1.062350
v 1.660450 2.498200 1.062350
v 1.599820 2.498200 1.129850
v 1.478580 2.498200 1.129850
v 1.417960 2.498200 1.062350
v 1.478580 2.498200 0.994850
v 1.599820 2.498200 0.994850
v 1.660450 2.678200 1.062350
v 1.599820 2.678200 1.129850
v 1.478580 2.678200 1.129850
v 1.417960 2.678200 1.062350
v 1.478580 2.678200 0.994850
v 1.599820 2.678200 0.994850
v 1.539200 2.768200 1.062350
v -0.665630 0.053260 -0.210390
v -0.944410 2.443260 -0.400570
v -0.731640 0.048140 -0.177880
v -1.010420 2.438140 -0.368060
v -0.747940 0.051960 -0.106040
v -1.026720 2.441960 -0.296220
v -0.702260 0.061830 -0.048980
v -0.981040 2.451830 -0.239160
v -0.629000 0.070320 -0.049650
v -0.907780 2.460320 -0.239830
v -0.583320 0.071040 -0.107560
v -0.862100 2.461040 -0.297740
v -0.599620 0.063450 -0.179100
v -0.878400 2.453450 -0.369280
v -0.657600 1.225000 -0.169930
v -1.077600 1.465000 -0.246100
v -0.683790 1.187690 -0.143080
v -1.103790 1.427690 -0.219240
v -0.684880 1.201940 -0.092150
v -1.104880 1.441940 -0.168310
v -0.659370 1.248060 -0.087520
v -1.079370 1.488060 -0.163680
v -0.642510 1.262310 -0.135600
v -1.062510 1.502310 -0.211760
v -1.085630 1.465000 -0.201820
v -0.964390 1.555000 -0.201820
v -1.025010 1.555000 -0.134320
v -1.146250 1.555000 -0.134320
v -1.206870 1.555000 -0.201820
v -1.146250 1.555000 -0.269320
v -1.025010 1.555000 -0.269320
v -0.964390 1.735000 -0.201820
v -1.025010 1.735000 -0.134320
v -1.146250 1.735000 -0.134320
v -1.206870 1.735000 -0.201820
v -1.146250 1.735000 -0.269320
v -1.025010 1.735000 -0.269320
v -1.085630 1.825000 -0.201820
v -0.657710 1.813000 -0.081360
v -0.237710 2.053000 -0.156480
v -0.642530 1.775700 -0.115660
v -0.222530 2.015700 -0.190780
v -0.659270 1.789950 -0.163780
v -0.239270 2.029950 -0.238900
v -0.684800 1.836050 -0.159210
v -0.264800 2.076050 -0.234330
v -0.683840 1.850300 -0.108270
v -0.263840 2.090300 -0.183390
v -0.245630 2.053000 -0.200780
v -0.124390 2.143000 -0.200780
v -0.185010 2.143000 -0.133280
v -0.306250 2.143000 -0.133280
v -0.366870 2.143000 -0.200780
v -0.306250 2.143000 -0.268280
v -0.185010 2.143000 -0.268280
v -0.124390 2.323000 -0.200780
v -0.185010 2.323000 -0.133280
v -0.306250 2.323000 -0.133280
v -0.366870 2.323000 -0.200780
v -0.306250 2.323000 -0.268280
v -0.185010 2.323000 -0.268280
v -0.245630 2.413000 -0.200780
v 1.910640 0.071380 -0.624910
v 2.096840 1.981380 -0.442950
v 1.817260 0.076120 -0.579070
v 2.003450 1.986120 -0.397110
v 1.794190 0.068720 -0.477800
v 1.980390 1.978720 -0.295830
v 1.858820 0.054750 -0.397350
v 2.045010 1.964750 -0.215380
v 1.962460 0.044740 -0.398300
v 2.148660 1.954740 -0.216330
v 2.027080 0.046220 -0.479940
v 2.213280 1.956220 -0.297980
v 2.004020 0.058070 -0.580790
v 2.190220 1.968070 -0.398830
v 1.928680 0.985000 -0.546680
v 1.608680 1.225000 -0.686680
v 1.894010 0.949730 -0.527910
v 1.574010 1.189730 -0.667910
v 1.882320 0.963200 -0.478100
v 1.562320 1.203200 -0.618100
v 1.909770 1.006800 -0.466090
v 1.589770 1.246800 -0.606090
v 1.938420 1.020270 -0.508480
v 1.618420 1.260270 -0.648480
v 1.590640 1.225000 -0.645450
v 1.711880 1.315000 -0.645450
v 1.651260 1.315000 -0.577950
v 1.530020 1.315000 -0.577950
v 1.469400 1.315000 -0.645450
v 1.530020 1.315000 -0.712950
v 1.651260 1.315000 -0.712950
v 1.711880 1.495000 -0.645450
v 1.651260 1.495000 -0.577950
v 1.530020 1.495000 -0.577950
v 1.469400 1.495000 -0.645450
v 1.530020 1.495000 -0.712950
v 1.651260 1.495000 -0.712950
v 1.590640 1.585000 -0.645450
v 1.902500 1.457800 -0.461190
v 2.222500 1.697800 -0.402370
v 1.933110 1.423360 -0.487180
v 2.253110 1.663360 -0.428360
v 1.932660 1.436510 -0.538420
v 2.252660 1.676510 -0.479600
v 1.901780 1.479090 -0.544100
v 2.221780 1.719090 -0.485270
v 1.883140 1.492240 -0.496370
v 2.203140 1.732240 -0.437550
v 2.230640 1.697800 -0.446630
v 2.351880 1.787800 -0.446630
v 2.291260 1.787800 -0.379130
v 2.170020 1.787800 -0.379130
v 2.109400 1.787800 -0.446630
v 2.170020 1.787800 -0.514130
v 2.291260 1.787800 -0.514130
v 2.351880 1.967800 -0.446630
v 2.291260 1.967800 -0.379130
v 2.170020 1.967800 -0.379130
v 2.109400 1.967800 -0.446630
v 2.170020 1.967800 -0.514130
v 2.291260 1.967800 -0.514130
v 2.230640 2.057800 -0.446630
v 2.096840 1.870000 -0.323490
v 2.322000 1.945000 -0.323490
v 2.237220 1.945000 -0.147440
v 2.046730 1.945000 -0.103970
v 1.893970 1.945000 -0.225790
v 1.893970 1.945000 -0.421180
v 2.046730 1.945000 -0.543010
v 2.237220 1.945000 -0.499530
v 2.322000 2.095000 -0.323490
v 2.237220 2.095000 -0.147440
v 2.046730 2.095000 -0.103970
v 1.893970 2.095000 -0.225790
v 1.893970 2.095000 -0.421180
v 2.046730 2.095000 -0.543010
v 2.237220 2.095000 -0.499530
v 2.096840 2.170000 -0.323490
vn -0.0000 -1.0000 -0.0000
vn 0.7946 -0.6072 -0.0000
vn 0.5235 -0.6367 0.5662
vn 0.1879 -0.6601 0.7273
vn -0.0603 -0.6632 0.7460
vn -0.3383 -0.6520 0.6786
vn -0.7116 -0.6169 0.3363
vn -0.7116 -0.6169 -0.3363
vn -0.3383 -0.6520 -0.6786
vn -0.0603 -0.6632 -0.7460
vn 0.1879 -0.6601 -0.7273
vn 0.5235 -0.6367 -0.5662
vn 0.7946 0.6072 -0.0000
vn 0.5235 0.6367 0.5662
vn 0.1879 0.6601 0.7273
vn -0.0603 0.6632 0.7460
vn -0.3383 0.6520 0.6786
vn -0.7116 0.6169 0.3363
vn -0.7116 0.6169 -0.3363
vn -0.3383 0.6520 -0.6786
vn -0.0603 0.6632 -0.7460
vn 0.1879 0.6601 -0.7273
vn 0.5235 0.6367 -0.5662
vn -0.0000 1.0000 -0.0000
vn 0.7904 -0.6126 -0.0000
vn 0.5400 -0.6375 0.5495
vn 0.2007 -0.6596 0.7243
vn -0.0647 -0.6629 0.7459
vn -0.3570 -0.6516 0.6693
vn -0.7150 -0.6206 0.3217
vn -0.7150 -0.6206 -0.3217
vn -0.3570 -0.6516 -0.6693
vn -0.0647 -0.6629 -0.7459
vn 0.2007 -0.6596 -0.7243
vn 0.5400 -0.6375 -0.5495
vn 0.7904 0.6126 -0.0000
vn 0.5400 0.6375 0.5495
vn 0.2007 0.6596 0.7243
vn -0.0647 0.6629 0.7459
vn -0.3570 0.6516 0.6693
vn -0.7150 0.6206 0.3217
vn -0.7150 0.6206 -0.3217
vn -0.3570 0.6516 -0.6693
vn -0.0647 0.6629 -0.7459
vn 0.2007 0.6596 -0.7243
vn 0.5400 0.6375 -0.5495
vn 0.7880 -0.6157 -0.0000
vn 0.5608 -0.6350 0.5313
vn 0.2180 -0.6537 0.7247
vn -0.0708 -0.6567 0.7508
vn -0.3813 -0.6467 0.6606
vn -0.7212 -0.6218 0.3055
vn -0.7212 -0.6218 -0.3055
vn -0.3813 -0.6467 -0.6606
vn -0.0708 -0.6567 -0.7508
vn 0.2180 -0.6537 -0.7247
vn 0.5608 -0.6350 -0.5313
vn 0.7880 0.6157 -0.0000
vn 0.5608 0.6350 0.5313
vn 0.2180 0.6537 0.7247
vn -0.0708 0.6567 0.7508
vn -0.3813 0.6467 0.6606
vn -0.7212 0.6218 0.3055
vn -0.7212 0.6218 -0.3055
vn -0.3813 0.6467 -0.6606
vn -0.0708 0.6567 -0.7508
vn 0.2180 0.6537 -0.7247
vn 0.5608 0.6350 -0.5313
vn 0.8386 -0.4963 0.2243
vn -0.2558 -0.5876 0.7676
vn -0.5261 -0.7407 -0.4177
vn -0.6886 0.4851 -0.5389
vn -0.4183 0.6382 0.6463
vn 0.6762 0.7295 0.1031
vn -0.0812 0.5357 -0.8405
vn 0.0813 -0.6900 -0.7192
vn -0.8387 0.5306 0.1228
vn -0.6761 -0.6952 0.2440
vn 0.2559 0.7267 0.6376
vn 0.4183 -0.4992 0.7589
vn 0.6887 -0.5812 -0.4335
vn 0.5262 0.6446 -0.5547
vn 0.7674 -0.5755 0.2825
vn -0.7675 0.5755 -0.2825
vn -0.0380 -0.4807 -0.8761
vn -0.6204 -0.7777 0.1009
vn -0.3455 -0.0000 0.9384
vn 0.4069 0.7777 0.4791
vn 0.5970 0.4807 -0.6423
vn 0.9223 -0.3866 -0.0000
vn 0.3968 -0.3460 0.8502
vn -0.3968 -0.3460 0.8502
vn -0.9223 -0.3866 -0.0000
vn -0.3968 -0.3460 -0.8502
vn 0.3968 -0.3460 -0.8502
vn 0.9223 0.3866 -0.0000
vn 0.3968 0.3460 0.8502
vn -0.3968 0.3460 0.8502
vn -0.9223 0.3866 -0.0000
vn -0.3968 0.3460 -0.8502
vn 0.3968 0.3460 -0.8502
vn -0.7674 -0.5755 -0.2825
vn 0.7675 0.5755 0.2825
vn 0.0380 -0.4807 0.8761
vn 0.6204 -0.7777 -0.1009
vn 0.3454 0.0001 -0.9385
vn -0.4069 0.7777 -0.4791
vn -0.5970 0.4806 0.6424
vn 0.8551 -0.5185 -0.0000
vn 0.5332 -0.5185 0.6685
vn -0.1903 -0.5185 0.8336
vn -0.7704 -0.5185 0.3710
vn -0.7704 -0.5185 -0.3710
vn -0.1903 -0.5185 -0.8336
vn 0.5331 -0.5185 -0.6685
vn 0.8551 0.5185 -0.0000
vn 0.5331 0.5185 0.6685
vn -0.1903 0.5185 0.8336
vn -0.7704 0.5185 0.3710
vn -0.7704 0.5185 -0.3710
vn -0.1903 0.5185 -0.8336
vn 0.5332 0.5185 -0.6685
vn 0.7001 -0.6910 0.1799
vn -0.3987 -0.5797 0.7106
vn -0.6701 -0.5627 -0.4841
vn -0.5495 0.6739 -0.4939
vn -0.2781 0.6568 0.7009
vn 0.8206 0.5456 0.1701
vn -0.0603 -0.6245 -0.7787
vn 0.0603 0.6121 -0.7885
vn -0.8207 -0.5428 0.1787
vn -0.7001 0.6938 0.1689
vn 0.2781 -0.6456 0.7112
vn 0.3986 0.5909 0.7013
vn 0.6701 0.5550 -0.4930
vn 0.5495 -0.6816 -0.4832
vn 0.8390 -0.5442 -0.0001
vn -0.8390 0.5441 0.0001
vn -0.3199 -0.4932 -0.8090
vn -0.5175 -0.7979 0.3091
vn -0.0000 -0.0000 1.0000
vn 0.5176 0.7979 0.3090
vn 0.3199 0.4932 -0.8090
vn -0.8060 -0.5229 -0.2774
vn 0.8060 0.5229 0.2774
vn 0.0274 -0.5010 0.8650
vn 0.5707 -0.8107 -0.1304
vn 0.3254 -0.0000 -0.9456
vn -0.3697 0.8107 -0.4539
vn -0.5538 0.5011 0.6649
vn 0.8069 -0.5742 0.1384
vn -0.2942 -0.6874 0.6640
vn -0.5661 -0.6318 -0.5295
vn -0.6560 0.6049 -0.4513
vn -0.3841 0.5493 0.7421
vn 0.7170 0.6626 0.2166
vn -0.0450 0.6678 -0.7430
vn 0.0450 -0.5689 -0.8211
vn -0.7170 -0.6846 0.1315
vn -0.8070 0.5522 0.2096
vn 0.2941 0.5984 0.7453
vn 0.3840 -0.6384 0.6671
vn 0.6560 -0.5433 -0.5239
vn 0.5661 0.6934 -0.4457
vn 0.8436 -0.4821 -0.2366
vn -0.8436 0.4821 0.2367
vn -0.4913 -0.5149 -0.7025
vn -0.3579 -0.8332 0.4215
vn 0.2701 0.0001 0.9628
vn 0.5249 0.8332 0.1738
vn 0.0543 0.5149 -0.8555
vn -0.8675 -0.4957 -0.0407
vn 0.8676 0.4957 0.0406
vn 0.2531 -0.5106 0.8218
vn 0.4855 -0.8260 -0.2865
vn 0.0471 -0.0001 -0.9989
vn -0.4564 0.8260 -0.3308
vn -0.3291 0.5105 0.7944
vn 0.7873 -0.5700 0.2350
vn -0.3159 -0.5569 0.7682
vn -0.5883 -0.6917 -0.4188
vn -0.6361 0.5431 -0.5481
vn -0.3636 0.6779 0.6389
vn 0.7395 0.6648 0.1058
vn 0.0238 -0.6990 -0.7147
vn -0.0239 0.5359 -0.8440
vn -0.7396 -0.6284 0.2411
vn -0.7873 0.6064 0.1118
vn 0.3636 -0.5309 0.7654
vn 0.3159 0.7039 0.6362
vn 0.5883 0.5899 -0.5530
vn 0.6361 -0.6449 -0.4237
vn 0.7624 -0.5717 -0.3033
vn -0.7624 0.5718 0.3032
vn -0.6113 -0.4822 -0.6275
vn -0.3911 -0.7803 0.4880
vn 0.3697 -0.0000 0.9292
vn 0.6195 0.7803 0.0861
vn 0.0132 0.4822 -0.8760
vn -0.7733 -0.5800 0.2560
vn 0.7733 0.5800 -0.2560
vn 0.5779 -0.4788 0.6608
vn 0.4266 -0.7748 -0.4666
vn -0.3143 -0.0000 -0.9493
vn -0.6208 0.7748 -0.1199
vn -0.0694 0.4789 0.8751
vn 0.5331 -0.5185 0.6685
vn 0.5331 0.5185 -0.6685
vn 0.6405 -0.7616 0.0988
vn -0.4457 -0.6181 0.6475
vn -0.7139 -0.4503 -0.5362
vn -0.4917 0.7660 -0.4142
vn -0.2234 0.5982 0.7696
vn 0.8628 0.4548 0.2209
vn 0.1111 0.6864 -0.7187
vn -0.1112 -0.5299 -0.8407
vn -0.8628 -0.4896 0.1261
vn -0.6405 0.7268 0.2482
vn 0.4457 0.4771 0.7575
vn 0.2234 -0.7392 0.6353
vn 0.7139 0.5479 -0.4360
vn 0.4916 -0.6684 -0.5581
vn 0.8382 -0.5436 -0.0448
vn -0.8382 0.5436 0.0448
vn -0.3622 -0.4934 -0.7908
vn -0.4998 -0.7982 0.3361
vn 0.0533 -0.0001 0.9986
vn 0.5328 0.7983 0.2810
vn 0.2760 0.4934 -0.8249
vn -0.8026 -0.5207 0.2912
vn 0.8026 0.5206 -0.2913
vn 0.5636 -0.5019 0.6561
vn 0.3600 -0.8120 -0.4594
vn -0.3411 0.0001 -0.9400
vn -0.5708 0.8120 -0.1217
vn -0.0117 0.5019 0.8649
vn 0.8088 -0.5610 0.1765
vn -0.2921 -0.6425 0.7084
vn -0.5640 -0.6676 -0.4861
vn -0.6579 0.5713 -0.4907
vn -0.3860 0.5964 0.7038
vn 0.7148 0.6779 0.1719
vn -0.0470 0.6165 -0.7860
vn 0.0470 -0.6224 -0.7813
vn -0.7148 -0.6766 0.1769
vn -0.8087 0.5624 0.1723
vn 0.2921 0.6477 0.7037
vn 0.3860 -0.5912 0.7082
vn 0.5639 0.6640 -0.4911
vn 0.6579 -0.5749 -0.4865
vn 0.8482 -0.4845 0.2139
vn -0.8482 0.4846 -0.2140
vn -0.0783 -0.5142 -0.8541
vn -0.5225 -0.8319 0.1869
vn -0.2446 -0.0000 0.9696
vn 0.3713 0.8319 0.4124
vn 0.4741 0.5141 -0.7147
vn -0.8654 -0.4945 0.0806
vn 0.8654 0.4945 -0.0805
vn 0.3644 -0.5108 0.7786
vn 0.4396 -0.8266 -0.3514
vn -0.0928 0.0001 -0.9957
vn -0.4969 0.8266 -0.2641
vn -0.2143 0.5108 0.8326
vn 0.7597 -0.6174 0.2042
vn -0.3442 -0.5843 0.7349
vn -0.6169 -0.6398 -0.4584
vn -0.6084 0.6012 -0.5180
vn -0.3357 0.6567 0.6753
vn 0.7682 0.6237 0.1446
vn -0.0042 -0.6581 -0.7529
vn 0.0043 0.5829 -0.8125
vn -0.7682 -0.6068 0.2038
vn -0.7596 0.6342 0.1441
vn 0.3357 -0.5888 0.7352
vn 0.3442 0.6522 0.6754
vn 0.6084 -0.6482 -0.4580
vn 0.6169 0.5929 -0.5176
vn 0.7584 -0.5689 0.3182
vn -0.7584 0.5688 -0.3182
vn 0.0047 -0.4834 -0.8754
vn -0.6184 -0.7822 0.0757
vn -0.3868 -0.0000 0.9221
vn 0.3792 0.7822 0.4944
vn 0.6213 0.4834 -0.6167
vn -0.7797 -0.5847 -0.2241
vn 0.7797 0.5847 0.2241
vn 0.1068 -0.4768 0.8725
vn 0.6198 -0.7715 -0.1433
vn 0.2762 0.0001 -0.9611
vn -0.4491 0.7715 -0.4506
vn -0.5538 0.4768 0.6826
vn 0.6988 -0.7068 0.1100
vn -0.3998 -0.6469 0.6494
vn -0.6711 -0.5105 -0.5376
vn -0.5483 0.7207 -0.4243
vn -0.2770 0.5843 0.7628
vn 0.8216 0.5244 0.2234
vn 0.0614 0.6874 -0.7237
vn -0.0614 -0.5438 -0.8370
vn -0.6989 0.6748 0.2372
vn -0.8216 -0.5564 0.1239
vn 0.3997 0.5174 0.7567
vn 0.2769 -0.7138 0.6433
vn 0.5483 -0.6310 -0.5488
vn 0.6710 0.6001 -0.4354
vn 0.8357 -0.5421 0.0884
vn -0.8357 0.5421 -0.0884
vn -0.2318 -0.4939 -0.8380
vn -0.5452 -0.7992 0.2529
vn -0.1051 0.0001 0.9945
vn 0.4802 0.7992 0.3614
vn 0.4019 0.4940 -0.7710
vn -0.8004 -0.5191 -0.2997
vn 0.8004 0.5192 0.2997
vn 0.0021 -0.5023 0.8647
vn 0.5708 -0.8128 -0.1163
vn 0.3506 -0.0000 -0.9365
vn -0.3541 0.8128 -0.4625
vn -0.5694 0.5023 0.6507
vn 0.8535 -0.4714 0.2219
vn -0.2362 -0.5949 0.7683
vn -0.5053 -0.7559 -0.4162
vn -0.7042 0.4646 -0.5369
vn -0.4350 0.6256 0.6476
vn 0.6547 0.7491 0.1011
vn 0.0994 -0.6874 -0.7195
vn -0.0995 0.5331 -0.8402
vn -0.8536 0.5057 0.1252
vn -0.6547 -0.7148 0.2459
vn 0.2362 0.7339 0.6369
vn 0.4350 -0.4867 0.7576
vn 0.7042 -0.5607 -0.4355
vn 0.5053 0.6598 -0.5562
vn 0.8530 -0.4873 -0.1868
vn -0.8530 0.4874 0.1868
vn -0.4529 -0.5132 -0.7290
vn -0.3868 -0.8305 0.4009
vn 0.2139 0.0001 0.9768
vn 0.5189 0.8305 0.2026
vn 0.1068 0.5132 -0.8516
vn -0.8622 -0.4926 -0.1183
vn 0.8621 0.4926 0.1184
vn 0.1768 -0.5115 0.8409
vn 0.5062 -0.8277 -0.2423
vn 0.1360 0.0001 -0.9907
vn -0.4221 0.8277 -0.3698
vn -0.3970 0.5116 0.7620
vn 0.7048 -0.6938 0.1480
vn -0.3948 -0.6145 0.6831
vn -0.6663 -0.5443 -0.5097
vn -0.5540 0.6922 -0.4625
vn -0.2825 0.6220 0.7303
vn 0.8169 0.5427 0.1952
vn 0.0561 0.6481 -0.7595
vn -0.0561 -0.5884 -0.8066
vn -0.8170 -0.5559 0.1533
vn -0.7047 0.6806 0.2004
vn 0.3947 0.5606 0.7279
vn 0.2825 -0.6759 0.6807
vn 0.6663 0.5816 -0.4668
vn 0.5540 -0.6550 -0.5139
vn 0.7559 -0.5670 -0.3272
vn -0.7559 0.5670 0.3272
vn -0.6272 -0.4841 -0.6101
vn -0.3721 -0.7834 0.4978
vn 0.3972 -0.0000 0.9177
vn 0.6176 0.7834 0.0693
vn -0.0155 0.4842 -0.8748
vn -0.7858 -0.5895 0.1871
vn 0.7858 0.5894 -0.1871
vn 0.5244 -0.4749 0.7068
vn 0.4738 -0.7683 -0.4304
vn -0.2315 -0.0000 -0.9728
vn -0.6169 0.7683 -0.1707
vn -0.1497 0.4749 0.8672
vn 0.7319 -0.6643 0.1517
vn -0.3707 -0.6272 0.6850
vn -0.6430 -0.5727 -0.5084
vn -0.5807 0.6675 -0.4660
vn -0.3084 0.6130 0.7274
vn 0.7941 0.5759 0.1942
vn -0.0311 -0.5933 -0.8044
vn 0.0311 0.6470 -0.7619
vn -0.7319 0.6523 0.1968
vn -0.7941 -0.5879 0.1544
vn 0.3707 0.5789 0.7263
vn 0.3084 -0.6613 0.6838
vn 0.6430 0.6061 -0.4681
vn 0.5807 -0.6341 -0.5105
vn 0.8319 -0.5396 -0.1296
vn -0.8318 0.5397 0.1296
vn -0.4380 -0.4949 -0.7505
vn -0.4594 -0.8007 0.3844
vn 0.1541 -0.0000 0.9881
vn 0.5547 0.8007 0.2263
vn 0.1888 0.4949 -0.8482
vn -0.7996 -0.5187 0.3026
vn 0.7996 0.5187 -0.3025
vn 0.5714 -0.5025 0.6488
vn 0.3520 -0.8131 -0.4636
vn -0.3539 -0.0000 -0.9353
vn -0.5708 0.8131 -0.1145
vn 0.0012 0.5025 0.8646
vn 0.8306 -0.5134 0.2158
vn -0.2660 -0.5983 0.7559
vn -0.5368 -0.7245 -0.4325
vn -0.6803 0.5058 -0.5304
vn -0.4095 0.6320 0.6579
vn 0.6871 0.7169 0.1179
vn 0.0718 -0.6773 -0.7322
vn -0.0718 0.5530 -0.8301
vn -0.6871 -0.6892 0.2298
vn -0.8306 0.5410 0.1319
vn 0.2660 0.7103 0.6518
vn 0.4095 -0.5200 0.7496
vn 0.6803 -0.5833 -0.4437
vn 0.5368 0.6470 -0.5416
vn 0.8577 -0.4901 0.1556
vn -0.8577 0.4901 -0.1555
vn -0.1391 -0.5124 -0.8474
vn -0.5138 -0.8290 0.2209
vn -0.1785 -0.0001 0.9839
vn 0.4035 0.8290 0.3872
vn 0.4278 0.5123 -0.7446
vn -0.8580 -0.4902 0.1534
vn 0.8580 0.4903 -0.1533
vn 0.4261 -0.5123 0.7457
vn 0.4046 -0.8289 -0.3862
vn -0.1761 0.0001 -0.9844
vn -0.5134 0.8289 -0.2222
vn -0.1412 0.5123 0.8471
vn 0.7004 -0.7055 0.1080
vn -0.3984 -0.6498 0.6473
vn -0.6698 -0.5103 -0.5394
vn -0.5498 0.7208 -0.4221
vn -0.2784 0.5813 0.7646
vn 0.8204 0.5256 0.2252
vn 0.0600 0.6899 -0.7214
vn -0.0600 -0.5412 -0.8387
vn -0.8204 -0.5586 0.1219
vn -0.7004 0.6725 0.2393
vn 0.2784 -0.7152 0.6411
vn 0.3984 0.5159 0.7584
vn 0.6698 0.6029 -0.4334
vn 0.5498 -0.6282 -0.5506
vn 0.7550 -0.5664 0.3304
vn -0.7551 0.5664 -0.3304
vn 0.0193 -0.4844 -0.8746
vn -0.6173 -0.7839 0.0671
vn -0.4008 -0.0000 0.9162
vn 0.3696 0.7839 0.4989
vn 0.6292 0.4845 -0.6077
vn -0.7915 -0.5936 -0.1456
vn 0.7915 0.5936 0.1456
vn 0.1969 -0.4730 0.8588
vn 0.6111 -0.7654 -0.2018
vn 0.1808 -0.0001 -0.9835
vn -0.4994 0.7654 -0.4060
vn -0.4895 0.4731 0.7325
vn -0.7674 0.5755 -0.2826
vn -0.7674 0.5755 -0.2825
vn -0.6205 -0.7777 0.1009
vn 0.4069 0.7778 0.4791
vn -0.7675 -0.5755 -0.2825
vn 0.7674 0.5755 0.2826
vn 0.7674 0.5755 0.2825
vn 0.3455 -0.0000 -0.9384
vn -0.4069 0.7778 -0.4791
vn -0.5970 0.4807 0.6423
vn 0.8390 -0.5441 -0.0001
vn 0.8389 -0.5442 -0.0000
vn -0.8390 0.5441 -0.0000
vn -0.8389 0.5442 -0.0000
vn 0.5175 0.7979 0.3091
vn -0.8060 -0.5228 -0.2774
vn -0.8062 -0.5227 -0.2772
vn 0.8062 0.5227 0.2772
vn 0.0275 -0.5011 0.8649
vn -0.5538 0.5011 0.6650
vn 0.8436 -0.4820 -0.2367
vn -0.8436 0.4821 0.2366
vn -0.3579 -0.8332 0.4214
vn 0.0543 0.5150 -0.8555
vn -0.8676 -0.4956 -0.0407
vn -0.8675 -0.4958 -0.0409
vn 0.8676 0.4957 0.0408
vn 0.8675 0.4958 0.0409
vn 0.2530 -0.5104 0.8218
vn 0.4855 -0.8260 -0.2866
vn 0.0470 -0.0000 -0.9989
vn 0.7623 -0.5718 -0.3032
vn 0.7624 -0.5717 -0.3032
vn -0.7623 0.5718 0.3034
vn -0.7624 0.5717 0.3032
vn -0.7733 -0.5801 0.2560
vn -0.7734 -0.5798 0.2563
vn 0.7733 0.5800 -0.2561
vn 0.7734 0.5799 -0.2562
vn 0.4265 -0.7748 -0.4667
vn -0.3144 0.0001 -0.9493
vn 0.8381 -0.5436 -0.0448
vn 0.8381 -0.5437 -0.0446
vn -0.8381 0.5437 0.0446
vn -0.4998 -0.7983 0.3361
vn 0.5328 0.7982 0.2810
vn 0.2759 0.4932 -0.8250
vn -0.8026 -0.5206 0.2913
vn -0.8026 -0.5207 0.2911
vn 0.8026 0.5206 -0.2912
vn 0.8026 0.5207 -0.2911
vn 0.8481 -0.4847 0.2140
vn 0.8481 -0.4846 0.2141
vn -0.8482 0.4846 -0.2138
vn -0.8481 0.4846 -0.2141
vn -0.5225 -0.8319 0.1868
vn 0.4741 0.5141 -0.7148
vn -0.8654 -0.4946 0.0805
vn -0.8655 -0.4944 0.0807
vn 0.8654 0.4945 -0.0807
vn 0.8655 0.4944 -0.0807
vn 0.4396 -0.8266 -0.3513
vn -0.0927 -0.0001 -0.9957
vn 0.7584 -0.5688 0.3182
vn 0.7583 -0.5689 0.3183
vn -0.7583 0.5689 -0.3183
vn -0.3869 -0.0000 0.9221
vn -0.7797 -0.5847 -0.2240
vn 0.7797 0.5847 0.2240
vn 0.8357 -0.5421 0.0883
vn -0.8357 0.5421 -0.0883
vn -0.8004 -0.5192 -0.2997
vn -0.8005 -0.5191 -0.2996
vn 0.8004 0.5192 0.2996
vn 0.8005 0.5191 0.2996
vn 0.8529 -0.4874 -0.1868
vn 0.8530 -0.4874 -0.1867
vn -0.8530 0.4874 0.1869
vn 0.2139 -0.0001 0.9769
vn -0.8621 -0.4927 -0.1184
vn -0.8622 -0.4926 -0.1184
vn 0.8622 0.4926 0.1183
vn 0.1768 -0.5116 0.8408
vn 0.1361 -0.0001 -0.9907
vn -0.4222 0.8277 -0.3698
vn -0.3970 0.5115 0.7621
vn 0.7559 -0.5669 -0.3275
vn -0.7559 0.5669 0.3275
vn -0.7859 -0.5894 0.1871
vn -0.7859 -0.5893 0.1873
vn 0.7859 0.5894 -0.1870
vn 0.7859 0.5893 -0.1873
vn 0.8318 -0.5397 -0.1296
vn 0.8319 -0.5395 -0.1298
vn -0.8318 0.5397 0.1297
vn -0.8319 0.5395 0.1298
vn -0.4595 -0.8007 0.3843
vn 0.1887 0.4948 -0.8483
vn -0.7996 -0.5188 0.3025
vn 0.7996 0.5187 -0.3027
vn 0.5714 -0.5025 0.6489
vn -0.5707 0.8131 -0.1145
vn 0.8577 -0.4900 0.1555
vn -0.8577 0.4901 -0.1556
vn -0.8577 0.4900 -0.1555
vn -0.1391 -0.5123 -0.8475
vn 0.4278 0.5122 -0.7447
vn -0.8579 -0.4904 0.1533
vn -0.8580 -0.4903 0.1533
vn 0.8579 0.4903 -0.1535
vn 0.7551 -0.5663 0.3304
vn -0.7550 0.5664 -0.3304
vn -0.7916 -0.5935 -0.1454
vn 0.7916 0.5935 0.1454
vn 0.1807 0.0001 -0.9835
vn -0.4994 0.7654 -0.4059
s 1
usemtl verdant_growth
f 1//1 2//2 3//3
f 1//1 3//3 4//4
f 1//1 4//4 5//5
f 1//1 5//5 6//6
f 1//1 6//6 7//7
f 1//1 7//7 8//8
f 1//1 8//8 9//9
f 1//1 9//9 10//10
f 1//1 10//10 11//11
f 1//1 11//11 12//12
f 1//1 12//12 2//2
f 13//13 3//3 2//2
f 14//14 4//4 3//3
f 15//15 5//5 4//4
f 16//16 6//6 5//5
f 17//17 7//7 6//6
f 18//18 8//8 7//7
f 19//19 9//9 8//8
f 20//20 10//10 9//9
f 21//21 11//11 10//10
f 22//22 12//12 11//11
f 23//23 2//2 12//12
f 13//13 24//24 14//14
f 14//14 24//24 15//15
f 15//15 24//24 16//16
f 16//16 24//24 17//17
f 17//17 24//24 18//18
f 18//18 24//24 19//19
f 19//19 24//24 20//20
f 20//20 24//24 21//21
f 21//21 24//24 22//22
f 22//22 24//24 23//23
f 23//23 24//24 13//13
f 25//1 26//25 27//26
f 25//1 27//26 28//27
f 25//1 28//27 29//28
f 25//1 29//28 30//29
f 25//1 30//29 31//30
f 25//1 31//30 32//31
f 25//1 32//31 33//32
f 25//1 33//32 34//33
f 25//1 34//33 35//34
f 25//1 35//34 36//35
f 25//1 36//35 26//25
f 37//36 27//26 26//25
f 38//37 28//27 27//26
f 39//38 29//28 28//27
f 40//39 30//29 29//28
f 41//40 31//30 30//29
f 42//41 32//31 31//30
f 43//42 33//32 32//31
f 44//43 34//33 33//32
f 45//44 35//34 34//33
f 46//45 36//35 35//34
f 47//46 26//25 36//35
f 37//36 48//24 38//37
f 38//37 48//24 39//38
f 39//38 48//24 40//39
f 40//39 48//24 41//40
f 41//40 48//24 42//41
f 42//41 48//24 43//42
f 43//42 48//24 44//43
f 44//43 48//24 45//44
f 45//44 48//24 46//45
f 46//45 48//24 47//46
f 47//46 48//24 37//36
f 49//1 50//47 51//48
f 49//1 51//48 52//49
f 49//1 52//49 53//50
f 49//1 53//50 54//51
f 49//1 54//51 55//52
f 49//1 55//52 56//53
f 49//1 56//53 57//54
f 49//1 57//54 58//55
f 49//1 58//55 59//56
f 49//1 59//56 60//57
f 49//1 60//57 50//47
f 61//58 51//48 50//47
f 62//59 52//49 51//48
f 63//60 53//50 52//49
f 64//61 54//51 53//50
f 65//62 55//52 54//51
f 66//63 56//53 55//52
f 67//64 57//54 56//53
f 68//65 58//55 57//54
f 69//66 59//56 58//55
f 70//67 60//57 59//56
f 71//68 50//47 60//57
f 61//58 72//24 62//59
f 62//59 72//24 63//60
f 63//60 72//24 64//61
f 64//61 72//24 65//62
f 65//62 72//24 66//63
f 66//63 72//24 67//64
f 67//64 72//24 68//65
f 68//65 72//24 69//66
f 69//66 72//24 70//67
f 70//67 72//24 71//68
f 71//68 72//24 61//58
f 13//13 14//14 3//3
f 14//14 15//15 4//4
f 15//15 16//16 5//5
f 16//16 17//17 6//6
f 17//17 18//18 7//7
f 18//18 19//19 8//8
f 19//19 20//20 9//9
f 20//20 21//21 10//10
f 21//21 22//22 11//11
f 22//22 23//23 12//12
f 23//23 13//13 2//2
f 37//36 38//37 27//26
f 38//37 39//38 28//27
f 39//38 40//39 29//28
f 40//39 41//40 30//29
f 41//40 42//41 31//30
f 42//41 43//42 32//31
f 43//42 44//43 33//32
f 44//43 45//44 34//33
f 45//44 46//45 35//34
f 46//45 47//46 36//35
f 47//46 37//36 26//25
f 61//58 62//59 51//48
f 62//59 63//60 52//49
f 63//60 64//61 53//50
f 64//61 65//62 54//51
f 65//62 66//63 55//52
f 66//63 67//64 56//53
f 67//64 68//65 57//54
f 68//65 69//66 58//55
f 69//66 70//67 59//56
f 70//67 71//68 60//57
f 71//68 61//58 50//47
usemtl verdant_growth
f 83//69 79//70 75//71
f 76//72 80//73 84//74
f 75//71 74//75 73//76
f 75//71 78//77 76//72
f 79//70 78//77 77//78
f 79//70 82//79 80//73
f 81//80 84//74 82//79
f 85//81 84//74 83//69
f 85//81 74//75 86//82
f 161//123 157//124 153//125
f 154//126 158//127 162//128
f 151//129 154//126 152//130
f 155//131 154//126 153//125
f 155//131 158//127 156//132
f 159//133 158//127 157//124
f 159//133 162//128 160//134
f 161//123 164//135 162//128
f 151//129 164//135 163//136
f 223//151 219//152 215//153
f 216//154 220//155 224//156
f 215//153 214//157 213//158
f 217//159 216//154 215//153
f 219//152 218//160 217//159
f 219//152 222//161 220//155
f 221//162 224//156 222//161
f 225//163 224//156 223//151
f 213//158 226//164 225//163
f 285//179 281//180 277//181
f 278//182 282//183 286//184
f 275//185 278//182 276//186
f 279//187 278//182 277//181
f 279//187 282//183 280//188
f 283//189 282//183 281//180
f 285//179 284//190 283//189
f 285//179 288//191 286//184
f 275//185 288//191 287//192
f 363//209 359//210 355//211
f 356//212 360//213 364//214
f 355//211 354//215 353//216
f 357//217 356//212 355//211
f 357//217 360//213 358//218
f 359//210 362//219 360//213
f 363//209 362//219 361//220
f 363//209 366//221 364//214
f 365//222 354//215 366//221
f 425//237 421//238 417//239
f 418//240 422//241 426//242
f 417//239 416//243 415//244
f 419//245 418//240 417//239
f 419//245 422//241 420//246
f 421//238 424//247 422//241
f 425//237 424//247 423//248
f 425//237 428//249 426//242
f 427//250 416//243 428//249
f 487//265 483//266 479//267
f 480//268 484//269 488//270
f 477//271 480//268 478//272
f 481//273 480//268 479//267
f 481//273 484//269 482//274
f 485//275 484//269 483//266
f 485//275 488//270 486//276
f 489//277 488//270 487//265
f 477//271 490//278 489//277
f 565//293 561//294 557//295
f 558//296 562//297 566//298
f 557//295 556//299 555//300
f 557//295 560//301 558//296
f 561//294 560//301 559//302
f 561//294 564//303 562//297
f 563//304 566//298 564//303
f 567//305 566//298 565//293
f 567//305 556//299 568//306
f 627//321 623//322 619//323
f 620//324 624//325 628//326
f 617//327 620//324 618//328
f 619//323 622//329 620//324
f 623//322 622//329 621//330
f 623//322 626//331 624//325
f 627//321 626//331 625//332
f 629//333 628//326 627//321
f 629//333 618//328 630//334
f 689//349 685//350 681//351
f 682//352 686//353 690//354
f 681//351 680//355 679//356
f 683//357 682//352 681//351
f 683//357 686//353 684//358
f 685//350 688//359 686//353
f 689//349 688//359 687//360
f 689//349 692//361 690//354
f 679//356 692//361 691//362
f 767//377 763//378 759//379
f 760//380 764//381 768//382
f 757//383 760//380 758//384
f 759//379 762//385 760//380
f 763//378 762//385 761//386
f 763//378 766//387 764//381
f 767//377 766//387 765//388
f 767//377 770//389 768//382
f 757//383 770//389 769//390
f 829//405 825//406 821//407
f 822//408 826//409 830//410
f 819//411 822//408 820//412
f 823//413 822//408 821//407
f 825//406 824//414 823//413
f 825//406 828//415 826//409
f 827//416 830//410 828//415
f 831//417 830//410 829//405
f 819//411 832//418 831//417
f 891//433 887//434 883//435
f 884//436 888//437 892//438
f 883//435 882//439 881//440
f 885//441 884//436 883//435
f 885//441 888//437 886//442
f 889//443 888//437 887//434
f 891//433 890//444 889//443
f 891//433 894//445 892//438
f 881//440 894//445 893//446
f 73//76 85//81 83//69
f 83//69 81//80 79//70
f 79//70 77//78 75//71
f 75//71 73//76 83//69
f 86//82 74//75 76//72
f 76//72 78//77 80//73
f 80//73 82//79 84//74
f 84//74 86//82 76//72
f 75//71 76//72 74//75
f 75//71 77//78 78//77
f 79//70 80//73 78//77
f 79//70 81//80 82//79
f 81//80 83//69 84//74
f 85//81 86//82 84//74
f 85//81 73//76 74//75
f 151//129 163//136 161//123
f 161//123 159//133 157//124
f 157//124 155//131 153//125
f 153//125 151//129 161//123
f 164//135 152//130 154//126
f 154//126 156//132 158//127
f 158//127 160//134 162//128
f 162//128 164//135 154//126
f 151//129 153//125 154//126
f 155//131 156//132 154//126
f 155//131 157//124 158//127
f 159//133 160//134 158//127
f 159//133 161//123 162//128
f 161//123 163//136 164//135
f 151//129 152//130 164//135
f 213//158 225//163 223//151
f 223//151 221//162 219//152
f 219//152 217//159 215//153
f 215//153 213//158 223//151
f 226//164 214//157 216//154
f 216//154 218//160 220//155
f 220//155 222//161 224//156
f 224//156 226//164 216//154
f 215//153 216//154 214//157
f 217//159 218//160 216//154
f 219//152 220//155 218//160
f 219//152 221//162 222//161
f 221//162 223//151 224//156
f 225//163 226//164 224//156
f 213//158 214//157 226//164
f 275//185 287//192 285//179
f 285//179 283//189 281//180
f 281//180 279//187 277//181
f 277//181 275//185 285//179
f 288//191 276//186 278//182
f 278//182 280//188 282//183
f 282//183 284//190 286//184
f 286//184 288//191 278//182
f 275//185 277//181 278//182
f 279//187 280//188 278//182
f 279//187 281//180 282//183
f 283//189 284//190 282//183
f 285//179 286//184 284//190
f 285//179 287//192 288//191
f 275//185 276//186 288//191
f 353//216 365//222 363//209
f 363//209 361//220 359//210
f 359//210 357//217 355//211
f 355//211 353//216 363//209
f 366//221 354//215 356//212
f 356//212 358//218 360//213
f 360//213 362//219 364//214
f 364//214 366//221 356//212
f 355//211 356//212 354//215
f 357//217 358//218 356//212
f 357//217 359//210 360//213
f 359//210 361//220 362//219
f 363//209 364//214 362//219
f 363//209 365//222 366//221
f 365//222 353//216 354//215
f 415//244 427//250 425//237
f 425//237 423//248 421//238
f 421//238 419//245 417//239
f 417//239 415//244 425//237
f 428//249 416//243 418//240
f 418//240 420//246 422//241
f 422//241 424//247 426//242
f 426//242 428//249 418//240
f 417//239 418//240 416//243
f 419//245 420//246 418//240
f 419//245 421//238 422//241
f 421//238 423//248 424//247
f 425//237 426//242 424//247
f 425//237 427//250 428//249
f 427//250 415//244 416//243
f 477//271 489//277 487//265
f 487//265 485//275 483//266
f 483//266 481//273 479//267
f 479//267 477//271 487//265
f 490//278 478//272 480//268
f 480//268 482//274 484//269
f 484//269 486//276 488//270
f 488//270 490//278 480//268
f 477//271 479//267 480//268
f 481//273 482//274 480//268
f 481//273 483//266 484//269
f 485//275 486//276 484//269
f 485//275 487//265 488//270
f 489//277 490//278 488//270
f 477//271 478//272 490//278
f 555//300 567//305 565//293
f 565//293 563//304 561//294
f 561//294 559//302 557//295
f 557//295 555//300 565//293
f 568//306 556//299 558//296
f 558//296 560//301 562//297
f 562//297 564//303 566//298
f 566//298 568//306 558//296
f 557//295 558//296 556//299
f 557//295 559//302 560//301
f 561//294 562//297 560//301
f 561//294 563//304 564//303
f 563//304 565//293 566//298
f 567//305 568//306 566//298
f 567//305 555//300 556//299
f 617//327 629//333 627//321
f 627//321 625//332 623//322
f 623//322 621//330 619//323
f 619//323 617//327 627//321
f 630//334 618//328 620//324
f 620//324 622//329 624//325
f 624//325 626//331 628//326
f 628//326 630//334 620//324
f 617//327 619//323 620//324
f 619//323 621//330 622//329
f 623//322 624//325 622//329
f 623//322 625//332 626//331
f 627//321 628//326 626//331
f 629//333 630//334 628//326
f 629//333 617//327 618//328
f 679//356 691//362 689//349
f 689//349 687//360 685//350
f 685//350 683//357 681//351
f 681//351 679//356 689//349
f 692//361 680//355 682//352
f 682//352 684//358 686//353
f 686//353 688//359 690//354
f 690//354 692//361 682//352
f 681//351 682//352 680//355
f 683//357 684//358 682//352
f 683//357 685//350 686//353
f 685//350 687//360 688//359
f 689//349 690//354 688//359
f 689//349 691//362 692//361
f 679//356 680//355 692//361
f 757//383 769//390 767//377
f 767//377 765//388 763//378
f 763//378 761//386 759//379
f 759//379 757//383 767//377
f 770//389 758//384 760//380
f 760//380 762//385 764//381
f 764//381 766//387 768//382
f 768//382 770//389 760//380
f 757//383 759//379 760//380
f 759//379 761//386 762//385
f 763//378 764//381 762//385
f 763//378 765//388 766//387
f 767//377 768//382 766//387
f 767//377 769//390 770//389
f 757//383 758//384 770//389
f 819//411 831//417 829//405
f 829//405 827//416 825//406
f 825//406 823//413 821//407
f 821//407 819//411 829//405
f 832//418 820//412 822//408
f 822//408 824//414 826//409
f 826//409 828//415 830//410
f 830//410 832//418 822//408
f 819//411 821//407 822//408
f 823//413 824//414 822//408
f 825//406 826//409 824//414
f 825//406 827//416 828//415
f 827//416 829//405 830//410
f 831//417 832//418 830//410
f 819//411 820//412 832//418
f 881//440 893//446 891//433
f 891//433 889//443 887//434
f 887//434 885//441 883//435
f 883//435 881//440 891//433
f 894//445 882//439 884//436
f 884//436 886//442 888//437
f 888//437 890//444 892//438
f 892//438 894//445 884//436
f 883//435 884//436 882//439
f 885//441 886//442 884//436
f 885//441 887//434 888//437
f 889//443 890//444 888//437
f 891//433 892//438 890//444
f 891//433 893//446 894//445
f 881//440 882//439 894//445
s 0
usemtl verdant_silica
f 93//83 89//83 87//83
f 90//84 94//84 96//84
f 89//85 88//85 87//85
f 89//86 92//86 90//86
f 93//87 92//87 91//87
f 95//88 94//88 93//88
f 95//89 88//89 96//89
f 117//102 113//102 111//102
f 114//103 118//103 120//103
f 113//104 112//104 111//104
f 113//105 116//105 114//105
f 117//106 116//106 115//106
f 119//107 118//107 117//107
f 119//108 112//108 120//108
f 171//137 167//137 165//137
f 168//138 172//138 174//138
f 165//139 168//139 166//139
f 167//140 170//140 168//140
f 169//141 172//141 170//141
f 173//142 172//142 171//142
f 173//143 166//143 174//143
f 195//144 191//144 189//144
f 192//145 196//145 198//145
f 191//146 190//146 189//146
f 191//147 194//147 192//147
f 195//148 194//148 193//148
f 195//149 198//149 196//149
f 197//150 190//150 198//150
f 233//165 229//165 227//165
f 230//166 234//166 236//166
f 229//167 228//167 227//167
f 229//168 232//168 230//168
f 231//169 234//169 232//169
f 235//170 234//170 233//170
f 235//171 228//171 236//171
f 257//172 253//172 251//172
f 254//173 258//173 260//173
f 251//174 254//174 252//174
f 255//175 254//175 253//175
f 255//176 258//176 256//176
f 259//177 258//177 257//177
f 259//178 252//178 260//178
f 295//193 291//193 289//193
f 292//194 296//194 298//194
f 289//195 292//195 290//195
f 293//196 292//196 291//196
f 295//197 294//197 293//197
f 295//198 298//198 296//198
f 289//199 298//199 297//199
f 319//200 315//200 313//200
f 316//201 320//201 322//201
f 315//202 314//202 313//202
f 315//203 318//203 316//203
f 319//204 318//204 317//204
f 319//205 322//205 320//205
f 313//206 322//206 321//206
f 373//223 369//223 367//223
f 370//224 374//224 376//224
f 367//225 370//225 368//225
f 371//226 370//226 369//226
f 371//227 374//227 372//227
f 375//228 374//228 373//228
f 375//229 368//229 376//229
f 397//230 393//230 391//230
f 394//231 398//231 400//231
f 393//232 392//232 391//232
f 395//233 394//233 393//233
f 395//234 398//234 396//234
f 399//235 398//235 397//235
f 391//236 400//236 399//236
f 435//251 431//251 429//251
f 432//252 436//252 438//252
f 429//253 432//253 430//253
f 433//254 432//254 431//254
f 435//255 434//255 433//255
f 435//256 438//256 436//256
f 429//257 438//257 437//257
f 459//258 455//258 453//258
f 456//259 460//259 462//259
f 453//260 456//260 454//260
f 455//261 458//261 456//261
f 459//262 458//262 457//262
f 459//263 462//263 460//263
f 453//264 462//264 461//264
f 497//279 493//279 491//279
f 494//280 498//280 500//280
f 493//281 492//281 491//281
f 495//282 494//282 493//282
f 495//283 498//283 496//283
f 497//284 500//284 498//284
f 499//285 492//285 500//285
f 521//286 517//286 515//286
f 518//287 522//287 524//287
f 515//288 518//288 516//288
f 517//289 520//289 518//289
f 521//290 520//290 519//290
f 523//291 522//291 521//291
f 523//292 516//292 524//292
f 575//307 571//307 569//307
f 572//308 576//308 578//308
f 571//309 570//309 569//309
f 571//310 574//310 572//310
f 575//311 574//311 573//311
f 575//312 578//312 576//312
f 569//313 578//313 577//313
f 599//314 595//314 593//314
f 596//315 600//315 602//315
f 593//316 596//316 594//316
f 597//317 596//317 595//317
f 599//318 598//318 597//318
f 599//319 602//319 600//319
f 601//320 594//320 602//320
f 637//335 633//335 631//335
f 634//336 638//336 640//336
f 631//337 634//337 632//337
f 635//338 634//338 633//338
f 637//339 636//339 635//339
f 637//340 640//340 638//340
f 631//341 640//341 639//341
f 661//342 657//342 655//342
f 658//343 662//343 664//343
f 655//344 658//344 656//344
f 657//345 660//345 658//345
f 661//346 660//346 659//346
f 663//347 662//347 661//347
f 655//348 664//348 663//348
f 699//363 695//363 693//363
f 696//364 700//364 702//364
f 695//365 694//365 693//365
f 695//366 698//366 696//366
f 699//367 698//367 697//367
f 699//368 702//368 700//368
f 693//369 702//369 701//369
f 723//370 719//370 717//370
f 720//371 724//371 726//371
f 719//372 718//372 717//372
f 719//373 722//373 720//373
f 723//374 722//374 721//374
f 725//375 724//375 723//375
f 717//376 726//376 725//376
f 777//391 773//391 771//391
f 774//392 778//392 780//392
f 773//393 772//393 771//393
f 773//394 776//394 774//394
f 777//395 776//395 775//395
f 777//396 780//396 778//396
f 771//397 780//397 779//397
f 801//398 797//398 795//398
f 798//399 802//399 804//399
f 795//400 798//400 796//400
f 797//401 800//401 798//401
f 799//402 802//402 800//402
f 801//403 804//403 802//403
f 795//404 804//404 803//404
f 839//419 835//419 833//419
f 836//420 840//420 842//420
f 833//421 836//421 834//421
f 835//422 838//422 836//422
f 839//423 838//423 837//423
f 841//424 840//424 839//424
f 841//425 834//425 842//425
f 863//426 859//426 857//426
f 860//427 864//427 866//427
f 859//428 858//428 857//428
f 861//429 860//429 859//429
f 861//430 864//430 862//430
f 863//431 866//431 864//431
f 857//432 866//432 865//432
f 901//447 897//447 895//447
f 898//448 902//448 904//448
f 897//449 896//449 895//449
f 899//450 898//450 897//450
f 899//451 902//451 900//451
f 901//452 904//452 902//452
f 895//453 904//453 903//453
f 925//454 921//454 919//454
f 922//455 926//455 928//455
f 921//456 920//456 919//456
f 921//457 924//457 922//457
f 925//458 924//458 923//458
f 925//459 928//459 926//459
f 927//460 920//460 928//460
f 87//83 95//83 93//83
f 93//83 91//83 89//83
f 96//461 88//461 90//461
f 90//462 92//462 94//462
f 89//85 90//85 88//85
f 89//463 91//463 92//463
f 93//87 94//87 92//87
f 95//464 96//464 94//464
f 95//89 87//89 88//89
f 111//102 119//102 117//102
f 117//465 115//465 113//465
f 120//466 112//466 114//466
f 114//467 116//467 118//467
f 113//104 114//104 112//104
f 113//105 115//105 116//105
f 117//468 118//468 116//468
f 119//469 120//469 118//469
f 119//470 111//470 112//470
f 165//471 173//471 171//471
f 171//472 169//472 167//472
f 174//473 166//473 168//473
f 168//474 170//474 172//474
f 165//139 167//139 168//139
f 167//140 169//140 170//140
f 169//141 171//141 172//141
f 173//475 174//475 172//475
f 173//143 165//143 166//143
f 189//476 197//476 195//476
f 195//477 193//477 191//477
f 198//145 190//145 192//145
f 192//478 194//478 196//478
f 191//479 192//479 190//479
f 191//147 193//147 194//147
f 195//148 196//148 194//148
f 195//149 197//149 198//149
f 197//480 189//480 190//480
f 227//481 235//481 233//481
f 233//165 231//165 229//165
f 236//482 228//482 230//482
f 230//482 232//482 234//482
f 229//167 230//167 228//167
f 229//483 231//483 232//483
f 231//169 233//169 234//169
f 235//170 236//170 234//170
f 235//484 227//484 228//484
f 251//485 259//485 257//485
f 257//486 255//486 253//486
f 260//487 252//487 254//487
f 254//488 256//488 258//488
f 251//489 253//489 254//489
f 255//490 256//490 254//490
f 255//491 257//491 258//491
f 259//177 260//177 258//177
f 259//178 251//178 252//178
f 289//492 297//492 295//492
f 295//493 293//493 291//493
f 298//494 290//494 292//494
f 292//495 294//495 296//495
f 289//195 291//195 292//195
f 293//196 294//196 292//196
f 295//197 296//197 294//197
f 295//198 297//198 298//198
f 289//199 290//199 298//199
f 313//496 321//496 319//496
f 319//497 317//497 315//497
f 322//498 314//498 316//498
f 316//499 318//499 320//499
f 315//202 316//202 314//202
f 315//500 317//500 318//500
f 319//501 320//501 318//501
f 319//205 321//205 322//205
f 313//206 314//206 322//206
f 367//502 375//502 373//502
f 373//503 371//503 369//503
f 376//224 368//224 370//224
f 370//504 372//504 374//504
f 367//225 369//225 370//225
f 371//505 372//505 370//505
f 371//227 373//227 374//227
f 375//506 376//506 374//506
f 375//507 367//507 368//507
f 391//508 399//508 397//508
f 397//509 395//509 393//509
f 400//510 392//510 394//510
f 394//511 396//511 398//511
f 393//232 394//232 392//232
f 395//233 396//233 394//233
f 395//234 397//234 398//234
f 399//235 400//235 398//235
f 391//236 392//236 400//236
f 429//512 437//512 435//512
f 435//513 433//513 431//513
f 438//514 430//514 432//514
f 432//515 434//515 436//515
f 429//253 431//253 432//253
f 433//516 434//516 432//516
f 435//255 436//255 434//255
f 435//256 437//256 438//256
f 429//517 430//517 438//517
f 453//518 461//518 459//518
f 459//519 457//519 455//519
f 462//520 454//520 456//520
f 456//521 458//521 460//521
f 453//260 455//260 456//260
f 455//522 457//522 458//522
f 459//523 460//523 458//523
f 459//263 461//263 462//263
f 453//264 454//264 462//264
f 491//524 499//524 497//524
f 497//525 495//525 493//525
f 500//280 492//280 494//280
f 494//526 496//526 498//526
f 493//281 494//281 492//281
f 495//282 496//282 494//282
f 495//527 497//527 498//527
f 497//284 499//284 500//284
f 499//285 491//285 492//285
f 515//286 523//286 521//286
f 521//528 519//528 517//528
f 524//287 516//287 518//287
f 518//529 520//529 522//529
f 515//288 517//288 518//288
f 517//289 519//289 520//289
f 521//290 522//290 520//290
f 523//291 524//291 522//291
f 523//292 515//292 516//292
f 569//307 577//307 575//307
f 575//530 573//530 571//530
f 578//308 570//308 572//308
f 572//531 574//531 576//531
f 571//309 572//309 570//309
f 571//310 573//310 574//310
f 575//311 576//311 574//311
f 575//312 577//312 578//312
f 569//313 570//313 578//313
f 593//532 601//532 599//532
f 599//533 597//533 595//533
f 602//534 594//534 596//534
f 596//535 598//535 600//535
f 593//316 595//316 596//316
f 597//317 598//317 596//317
f 599//318 600//318 598//318
f 599//319 601//319 602//319
f 601//320 593//320 594//320
f 631//536 639//536 637//536
f 637//537 635//537 633//537
f 640//538 632//538 634//538
f 634//336 636//336 638//336
f 631//337 633//337 634//337
f 635//338 636//338 634//338
f 637//539 638//539 636//539
f 637//340 639//340 640//340
f 631//341 632//341 640//341
f 655//540 663//540 661//540
f 661//541 659//541 657//541
f 664//542 656//542 658//542
f 658//343 660//343 662//343
f 655//543 657//543 658//543
f 657//345 659//345 660//345
f 661//544 662//544 660//544
f 663//545 664//545 662//545
f 655//546 656//546 664//546
f 693//363 701//363 699//363
f 699//547 697//547 695//547
f 702//364 694//364 696//364
f 696//548 698//548 700//548
f 695//365 696//365 694//365
f 695//366 697//366 698//366
f 699//367 700//367 698//367
f 699//368 701//368 702//368
f 693//369 694//369 702//369
f 717//549 725//549 723//549
f 723//550 721//550 719//550
f 726//551 718//551 720//551
f 720//552 722//552 724//552
f 719//372 720//372 718//372
f 719//373 721//373 722//373
f 723//374 724//374 722//374
f 725//375 726//375 724//375
f 717//376 718//376 726//376
f 771//553 779//553 777//553
f 777//554 775//554 773//554
f 780//555 772//555 774//555
f 774//556 776//556 778//556
f 773//393 774//393 772//393
f 773//557 775//557 776//557
f 777//395 778//395 776//395
f 777//396 779//396 780//396
f 771//558 772//558 780//558
f 795//559 803//559 801//559
f 801//398 799//398 797//398
f 804//560 796//560 798//560
f 798//399 800//399 802//399
f 795//561 797//561 798//561
f 797//401 799//401 800//401
f 799//402 801//402 802//402
f 801//562 803//562 804//562
f 795//404 796//404 804//404
f 833//563 841//563 839//563
f 839//563 837//563 835//563
f 842//564 834//564 836//564
f 836//565 838//565 840//565
f 833//566 835//566 836//566
f 835//422 837//422 838//422
f 839//423 840//423 838//423
f 841//424 842//424 840//424
f 841//567 833//567 834//567
f 857//568 865//568 863//568
f 863//569 861//569 859//569
f 866//570 858//570 860//570
f 860//427 862//427 864//427
f 859//428 860//428 858//428
f 861//429 862//429 860//429
f 861//430 863//430 864//430
f 863//431 865//431 866//431
f 857//432 858//432 866//432
f 895//571 903//571 901//571
f 901//447 899//447 897//447
f 904//572 896//572 898//572
f 898//572 900//572 902//572
f 897//449 898//449 896//449
f 899//450 900//450 898//450
f 899//451 901//451 902//451
f 901//452 903//452 904//452
f 895//453 896//453 904//453
f 919//454 927//454 925//454
f 925//573 923//573 921//573
f 928//455 920//455 922//455
f 922//574 924//574 926//574
f 921//456 922//456 920//456
f 921//457 923//457 924//457
f 925//575 926//575 924//575
f 925//576 927//576 928//576
f 927//460 919//460 920//460
s 1
usemtl verdant_growth
f 97//1 98//90 99//91
f 97//1 99//91 100//92
f 97//1 100//92 101//93
f 97//1 101//93 102//94
f 97//1 102//94 103//95
f 97//1 103//95 98//90
f 104//96 99//91 98//90
f 105//97 100//92 99//91
f 106//98 101//93 100//92
f 107//99 102//94 101//93
f 108//100 103//95 102//94
f 109//101 98//90 103//95
f 104//96 110//24 105//97
f 105//97 110//24 106//98
f 106//98 110//24 107//99
f 107//99 110//24 108//100
f 108//100 110//24 109//101
f 109//101 110//24 104//96
f 121//1 122//90 123//91
f 121//1 123//91 124//92
f 121//1 124//92 125//93
f 121//1 125//93 126//94
f 121//1 126//94 127//95
f 121//1 127//95 122//90
f 128//96 123//91 122//90
f 129//97 124//92 123//91
f 130//98 125//93 124//92
f 131//99 126//94 125//93
f 132//100 127//95 126//94
f 133//101 122//90 127//95
f 128//96 134//24 129//97
f 129//97 134//24 130//98
f 130//98 134//24 131//99
f 131//99 134//24 132//100
f 132//100 134//24 133//101
f 133//101 134//24 128//96
f 135//1 136//109 137//110
f 135//1 137//110 138//111
f 135//1 138//111 139//112
f 135//1 139//112 140//113
f 135//1 140//113 141//114
f 135//1 141//114 142//115
f 135//1 142//115 136//109
f 143//116 137//110 136//109
f 144//117 138//111 137//110
f 145//118 139//112 138//111
f 146//119 140//113 139//112
f 147//120 141//114 140//113
f 148//121 142//115 141//114
f 149//122 136//109 142//115
f 143//116 150//24 144//117
f 144//117 150//24 145//118
f 145//118 150//24 146//119
f 146//119 150//24 147//120
f 147//120 150//24 148//121
f 148//121 150//24 149//122
f 149//122 150//24 143//116
f 175//1 176//90 177//91
f 175//1 177//91 178//92
f 175//1 178//92 179//93
f 175//1 179//93 180//94
f 175//1 180//94 181//95
f 175//1 181//95 176//90
f 182//96 177//91 176//90
f 183//97 178//92 177//91
f 184//98 179//93 178//92
f 185//99 180//94 179//93
f 186//100 181//95 180//94
f 187//101 176//90 181//95
f 182//96 188//24 183//97
f 183//97 188//24 184//98
f 184//98 188//24 185//99
f 185//99 188//24 186//100
f 186//100 188//24 187//101
f 187//101 188//24 182//96
f 199//1 200//90 201//91
f 199//1 201//91 202//92
f 199//1 202//92 203//93
f 199//1 203//93 204//94
f 199//1 204//94 205//95
f 199//1 205//95 200//90
f 206//96 201//91 200//90
f 207//97 202//92 201//91
f 208//98 203//93 202//92
f 209//99 204//94 203//93
f 210//100 205//95 204//94
f 211//101 200//90 205//95
f 206//96 212//24 207//97
f 207//97 212//24 208//98
f 208//98 212//24 209//99
f 209//99 212//24 210//100
f 210//100 212//24 211//101
f 211//101 212//24 206//96
f 237//1 238//90 239//91
f 237//1 239//91 240//92
f 237//1 240//92 241//93
f 237//1 241//93 242//94
f 237//1 242//94 243//95
f 237//1 243//95 238//90
f 244//96 239//91 238//90
f 245//97 240//92 239//91
f 246//98 241//93 240//92
f 247//99 242//94 241//93
f 248//100 243//95 242//94
f 249//101 238//90 243//95
f 244//96 250//24 245//97
f 245//97 250//24 246//98
f 246//98 250//24 247//99
f 247//99 250//24 248//100
f 248//100 250//24 249//101
f 249//101 250//24 244//96
f 261//1 262//90 263//91
f 261//1 263//91 264//92
f 261//1 264//92 265//93
f 261//1 265//93 266//94
f 261//1 266//94 267//95
f 261//1 267//95 262//90
f 268//96 263//91 262//90
f 269//97 264//92 263//91
f 270//98 265//93 264//92
f 271//99 266//94 265//93
f 272//100 267//95 266//94
f 273//101 262//90 267//95
f 268//96 274//24 269//97
f 269//97 274//24 270//98
f 270//98 274//24 271//99
f 271//99 274//24 272//100
f 272//100 274//24 273//101
f 273//101 274//24 268//96
f 299//1 300//90 301//91
f 299//1 301//91 302//92
f 299//1 302//92 303//93
f 299//1 303//93 304//94
f 299//1 304//94 305//95
f 299//1 305//95 300//90
f 306//96 301//91 300//90
f 307//97 302//92 301//91
f 308//98 303//93 302//92
f 309//99 304//94 303//93
f 310//100 305//95 304//94
f 311//101 300//90 305//95
f 306//96 312//24 307//97
f 307//97 312//24 308//98
f 308//98 312//24 309//99
f 309//99 312//24 310//100
f 310//100 312//24 311//101
f 311//101 312//24 306//96
f 323//1 324//90 325//91
f 323//1 325//91 326//92
f 323//1 326//92 327//93
f 323//1 327//93 328//94
f 323//1 328//94 329//95
f 323//1 329//95 324//90
f 330//96 325//91 324//90
f 331//97 326//92 325//91
f 332//98 327//93 326//92
f 333//99 328//94 327//93
f 334//100 329//95 328//94
f 335//101 324//90 329//95
f 330//96 336//24 331//97
f 331//97 336//24 332//98
f 332//98 336//24 333//99
f 333//99 336//24 334//100
f 334//100 336//24 335//101
f 335//101 336//24 330//96
f 337//1 338//109 339//207
f 337//1 339//207 340//111
f 337//1 340//111 341//112
f 337//1 341//112 342//113
f 337//1 342//113 343//114
f 337//1 343//114 344//115
f 337//1 344//115 338//109
f 345//116 339//207 338//109
f 346//117 340//111 339//207
f 347//118 341//112 340//111
f 348//119 342//113 341//112
f 349//120 343//114 342//113
f 350//121 344//115 343//114
f 351//208 338//109 344//115
f 345//116 352//24 346//117
f 346//117 352//24 347//118
f 347//118 352//24 348//119
f 348//119 352//24 349//120
f 349//120 352//24 350//121
f 350//121 352//24 351//208
f 351//208 352//24 345//116
f 377//1 378//90 379//91
f 377//1 379//91 380//92
f 377//1 380//92 381//93
f 377//1 381//93 382//94
f 377//1 382//94 383//95
f 377//1 383//95 378//90
f 384//96 379//91 378//90
f 385//97 380//92 379//91
f 386//98 381//93 380//92
f 387//99 382//94 381//93
f 388//100 383//95 382//94
f 389//101 378//90 383//95
f 384//96 390//24 385//97
f 385//97 390//24 386//98
f 386//98 390//24 387//99
f 387//99 390//24 388//100
f 388//100 390//24 389//101
f 389//101 390//24 384//96
f 401//1 402//90 403//91
f 401//1 403//91 404//92
f 401//1 404//92 405//93
f 401//1 405//93 406//94
f 401//1 406//94 407//95
f 401//1 407//95 402//90
f 408//96 403//91 402//90
f 409//97 404//92 403//91
f 410//98 405//93 404//92
f 411//99 406//94 405//93
f 412//100 407//95 406//94
f 413//101 402//90 407//95
f 408//96 414//24 409//97
f 409//97 414//24 410//98
f 410//98 414//24 411//99
f 411//99 414//24 412//100
f 412//100 414//24 413//101
f 413//101 414//24 408//96
f 439//1 440//90 441//91
f 439//1 441//91 442//92
f 439//1 442//92 443//93
f 439//1 443//93 444//94
f 439//1 444//94 445//95
f 439//1 445//95 440//90
f 446//96 441//91 440//90
f 447//97 442//92 441//91
f 448//98 443//93 442//92
f 449//99 444//94 443//93
f 450//100 445//95 444//94
f 451//101 440//90 445//95
f 446//96 452//24 447//97
f 447//97 452//24 448//98
f 448//98 452//24 449//99
f 449//99 452//24 450//100
f 450//100 452//24 451//101
f 451//101 452//24 446//96
f 463//1 464//90 465//91
f 463//1 465//91 466//92
f 463//1 466//92 467//93
f 463//1 467//93 468//94
f 463//1 468//94 469//95
f 463//1 469//95 464//90
f 470//96 465//91 464//90
f 471//97 466//92 465//91
f 472//98 467//93 466//92
f 473//99 468//94 467//93
f 474//100 469//95 468//94
f 475//101 464//90 469//95
f 470//96 476//24 471//97
f 471//97 476//24 472//98
f 472//98 476//24 473//99
f 473//99 476//24 474//100
f 474//100 476//24 475//101
f 475//101 476//24 470//96
f 501//1 502//90 503//91
f 501//1 503//91 504//92
f 501//1 504//92 505//93
f 501//1 505//93 506//94
f 501//1 506//94 507//95
f 501//1 507//95 502//90
f 508//96 503//91 502//90
f 509//97 504//92 503//91
f 510//98 505//93 504//92
f 511//99 506//94 505//93
f 512//100 507//95 506//94
f 513//101 502//90 507//95
f 508//96 514//24 509//97
f 509//97 514//24 510//98
f 510//98 514//24 511//99
f 511//99 514//24 512//100
f 512//100 514//24 513//101
f 513//101 514//24 508//96
f 525//1 526//90 527//91
f 525//1 527//91 528//92
f 525//1 528//92 529//93
f 525//1 529//93 530//94
f 525//1 530//94 531//95
f 525//1 531//95 526//90
f 532//96 527//91 526//90
f 533//97 528//92 527//91
f 534//98 529//93 528//92
f 535//99 530//94 529//93
f 536//100 531//95 530//94
f 537//101 526//90 531//95
f 532//96 538//24 533//97
f 533//97 538//24 534//98
f 534//98 538//24 535//99
f 535//99 538//24 536//100
f 536//100 538//24 537//101
f 537//101 538//24 532//96
f 539//1 540//109 541//207
f 539//1 541//207 542//111
f 539//1 542//111 543//112
f 539//1 543//112 544//113
f 539//1 544//113 545//114
f 539//1 545//114 546//115
f 539//1 546//115 540//109
f 547//116 541//207 540//109
f 548//117 542//111 541//207
f 549//118 543//112 542//111
f 550//119 544//113 543//112
f 551//120 545//114 544//113
f 552//121 546//115 545//114
f 553//208 540//109 546//115
f 547//116 554//24 548//117
f 548//117 554//24 549//118
f 549//118 554//24 550//119
f 550//119 554//24 551//120
f 551//120 554//24 552//121
f 552//121 554//24 553//208
f 553//208 554//24 547//116
f 579//1 580//90 581//91
f 579//1 581//91 582//92
f 579//1 582//92 583//93
f 579//1 583//93 584//94
f 579//1 584//94 585//95
f 579//1 585//95 580//90
f 586//96 581//91 580//90
f 587//97 582//92 581//91
f 588//98 583//93 582//92
f 589//99 584//94 583//93
f 590//100 585//95 584//94
f 591//101 580//90 585//95
f 586//96 592//24 587//97
f 587//97 592//24 588//98
f 588//98 592//24 589//99
f 589//99 592//24 590//100
f 590//100 592//24 591//101
f 591//101 592//24 586//96
f 603//1 604//90 605//91
f 603//1 605//91 606//92
f 603//1 606//92 607//93
f 603//1 607//93 608//94
f 603//1 608//94 609//95
f 603//1 609//95 604//90
f 610//96 605//91 604//90
f 611//97 606//92 605//91
f 612//98 607//93 606//92
f 613//99 608//94 607//93
f 614//100 609//95 608//94
f 615//101 604//90 609//95
f 610//96 616//24 611//97
f 611//97 616//24 612//98
f 612//98 616//24 613//99
f 613//99 616//24 614//100
f 614//100 616//24 615//101
f 615//101 616//24 610//96
f 641//1 642//90 643//91
f 641//1 643//91 644//92
f 641//1 644//92 645//93
f 641//1 645//93 646//94
f 641//1 646//94 647//95
f 641//1 647//95 642//90
f 648//96 643//91 642//90
f 649//97 644//92 643//91
f 650//98 645//93 644//92
f 651//99 646//94 645//93
f 652//100 647//95 646//94
f 653//101 642//90 647//95
f 648//96 654//24 649//97
f 649//97 654//24 650//98
f 650//98 654//24 651//99
f 651//99 654//24 652//100
f 652//100 654//24 653//101
f 653//101 654//24 648//96
f 665//1 666//90 667//91
f 665//1 667//91 668//92
f 665//1 668//92 669//93
f 665//1 669//93 670//94
f 665//1 670//94 671//95
f 665//1 671//95 666//90
f 672//96 667//91 666//90
f 673//97 668//92 667//91
f 674//98 669//93 668//92
f 675//99 670//94 669//93
f 676//100 671//95 670//94
f 677//101 666//90 671//95
f 672//96 678//24 673//97
f 673//97 678//24 674//98
f 674//98 678//24 675//99
f 675//99 678//24 676//100
f 676//100 678//24 677//101
f 677//101 678//24 672//96
f 703//1 704//90 705//91
f 703//1 705//91 706//92
f 703//1 706//92 707//93
f 703//1 707//93 708//94
f 703//1 708//94 709//95
f 703//1 709//95 704//90
f 710//96 705//91 704//90
f 711//97 706//92 705//91
f 712//98 707//93 706//92
f 713//99 708//94 707//93
f 714//100 709//95 708//94
f 715//101 704//90 709//95
f 710//96 716//24 711//97
f 711//97 716//24 712//98
f 712//98 716//24 713//99
f 713//99 716//24 714//100
f 714//100 716//24 715//101
f 715//101 716//24 710//96
f 727//1 728//90 729//91
f 727//1 729//91 730//92
f 727//1 730//92 731//93
f 727//1 731//93 732//94
f 727//1 732//94 733//95
f 727//1 733//95 728//90
f 734//96 729//91 728//90
f 735//97 730//92 729//91
f 736//98 731//93 730//92
f 737//99 732//94 731//93
f 738//100 733//95 732//94
f 739//101 728//90 733//95
f 734//96 740//24 735//97
f 735//97 740//24 736//98
f 736//98 740//24 737//99
f 737//99 740//24 738//100
f 738//100 740//24 739//101
f 739//101 740//24 734//96
f 741//1 742//109 743//207
f 741//1 743//207 744//111
f 741//1 744//111 745//112
f 741//1 745//112 746//113
f 741//1 746//113 747//114
f 741//1 747//114 748//115
f 741//1 748//115 742//109
f 749//116 743//207 742//109
f 750//117 744//111 743//207
f 751//118 745//112 744//111
f 752//119 746//113 745//112
f 753//120 747//114 746//113
f 754//121 748//115 747//114
f 755//208 742//109 748//115
f 749//116 756//24 750//117
f 750//117 756//24 751//118
f 751//118 756//24 752//119
f 752//119 756//24 753//120
f 753//120 756//24 754//121
f 754//121 756//24 755//208
f 755//208 756//24 749//116
f 781//1 782//90 783//91
f 781//1 783//91 784//92
f 781//1 784//92 785//93
f 781//1 785//93 786//94
f 781//1 786//94 787//95
f 781//1 787//95 782//90
f 788//96 783//91 782//90
f 789//97 784//92 783//91
f 790//98 785//93 784//92
f 791//99 786//94 785//93
f 792//100 787//95 786//94
f 793//101 782//90 787//95
f 788//96 794//24 789//97
f 789//97 794//24 790//98
f 790//98 794//24 791//99
f 791//99 794//24 792//100
f 792//100 794//24 793//101
f 793//101 794//24 788//96
f 805//1 806//90 807//91
f 805//1 807//91 808//92
f 805//1 808//92 809//93
f 805//1 809//93 810//94
f 805//1 810//94 811//95
f 805//1 811//95 806//90
f 812//96 807//91 806//90
f 813//97 808//92 807//91
f 814//98 809//93 808//92
f 815//99 810//94 809//93
f 816//100 811//95 810//94
f 817//101 806//90 811//95
f 812//96 818//24 813//97
f 813//97 818//24 814//98
f 814//98 818//24 815//99
f 815//99 818//24 816//100
f 816//100 818//24 817//101
f 817//101 818//24 812//96
f 843//1 844//90 845//91
f 843//1 845//91 846//92
f 843//1 846//92 847//93
f 843//1 847//93 848//94
f 843//1 848//94 849//95
f 843//1 849//95 844//90
f 850//96 845//91 844//90
f 851//97 846//92 845//91
f 852//98 847//93 846//92
f 853//99 848//94 847//93
f 854//100 849//95 848//94
f 855//101 844//90 849//95
f 850//96 856//24 851//97
f 851//97 856//24 852//98
f 852//98 856//24 853//99
f 853//99 856//24 854//100
f 854//100 856//24 855//101
f 855//101 856//24 850//96
f 867//1 868//90 869//91
f 867//1 869//91 870//92
f 867//1 870//92 871//93
f 867//1 871//93 872//94
f 867//1 872//94 873//95
f 867//1 873//95 868//90
f 874//96 869//91 868//90
f 875//97 870//92 869//91
f 876//98 871//93 870//92
f 877//99 872//94 871//93
f 878//100 873//95 872//94
f 879//101 868//90 873//95
f 874//96 880//24 875//97
f 875//97 880//24 876//98
f 876//98 880//24 877//99
f 877//99 880//24 878//100
f 878//100 880//24 879//101
f 879//101 880//24 874//96
f 905//1 906//90 907//91
f 905//1 907//91 908//92
f 905//1 908//92 909//93
f 905//1 909//93 910//94
f 905//1 910//94 911//95
f 905//1 911//95 906//90
f 912//96 907//91 906//90
f 913//97 908//92 907//91
f 914//98 909//93 908//92
f 915//99 910//94 909//93
f 916//100 911//95 910//94
f 917//101 906//90 911//95
f 912//96 918//24 913//97
f 913//97 918//24 914//98
f 914//98 918//24 915//99
f 915//99 918//24 916//100
f 916//100 918//24 917//101
f 917//101 918//24 912//96
f 929//1 930//90 931//91
f 929//1 931//91 932//92
f 929//1 932//92 933//93
f 929//1 933//93 934//94
f 929//1 934//94 935//95
f 929//1 935//95 930//90
f 936//96 931//91 930//90
f 937//97 932//92 931//91
f 938//98 933//93 932//92
f 939//99 934//94 933//93
f 940//100 935//95 934//94
f 941//101 930//90 935//95
f 936//96 942//24 937//97
f 937//97 942//24 938//98
f 938//98 942//24 939//99
f 939//99 942//24 940//100
f 940//100 942//24 941//101
f 941//101 942//24 936//96
f 943//1 944//109 945//207
f 943//1 945//207 946//111
f 943//1 946//111 947//112
f 943//1 947//112 948//113
f 943//1 948//113 949//114
f 943//1 949//114 950//115
f 943//1 950//115 944//109
f 951//116 945//207 944//109
f 952//117 946//111 945//207
f 953//118 947//112 946//111
f 954//119 948//113 947//112
f 955//120 949//114 948//113
f 956//121 950//115 949//114
f 957//208 944//109 950//115
f 951//116 958//24 952//117
f 952//117 958//24 953//118
f 953//118 958//24 954//119
f 954//119 958//24 955//120
f 955//120 958//24 956//121
f 956//121 958//24 957//208
f 957//208 958//24 951//116
f 104//96 105//97 99//91
f 105//97 106//98 100//92
f 106//98 107//99 101//93
f 107//99 108//100 102//94
f 108//100 109//101 103//95
f 109//101 104//96 98//90
f 128//96 129//97 123//91
f 129//97 130//98 124//92
f 130//98 131//99 125//93
f 131//99 132//100 126//94
f 132//100 133//101 127//95
f 133//101 128//96 122//90
f 143//116 144//117 137//110
f 144//117 145//118 138//111
f 145//118 146//119 139//112
f 146//119 147//120 140//113
f 147//120 148//121 141//114
f 148//121 149//122 142//115
f 149//122 143//116 136//109
f 182//96 183//97 177//91
f 183//97 184//98 178//92
f 184//98 185//99 179//93
f 185//99 186//100 180//94
f 186//100 187//101 181//95
f 187//101 182//96 176//90
f 206//96 207//97 201//91
f 207//97 208//98 202//92
f 208//98 209//99 203//93
f 209//99 210//100 204//94
f 210//100 211//101 205//95
f 211//101 206//96 200//90
f 244//96 245//97 239//91
f 245//97 246//98 240//92
f 246//98 247//99 241//93
f 247//99 248//100 242//94
f 248//100 249//101 243//95
f 249//101 244//96 238//90
f 268//96 269//97 263//91
f 269//97 270//98 264//92
f 270//98 271//99 265//93
f 271//99 272//100 266//94
f 272//100 273//101 267//95
f 273//101 268//96 262//90
f 306//96 307//97 301//91
f 307//97 308//98 302//92
f 308//98 309//99 303//93
f 309//99 310//100 304//94
f 310//100 311//101 305//95
f 311//101 306//96 300//90
f 330//96 331//97 325//91
f 331//97 332//98 326//92
f 332//98 333//99 327//93
f 333//99 334//100 328//94
f 334//100 335//101 329//95
f 335//101 330//96 324//90
f 345//116 346//117 339//207
f 346//117 347//118 340//111
f 347//118 348//119 341//112
f 348//119 349//120 342//113
f 349//120 350//121 343//114
f 350//121 351//208 344//115
f 351//208 345//116 338//109
f 384//96 385//97 379//91
f 385//97 386//98 380//92
f 386//98 387//99 381//93
f 387//99 388//100 382//94
f 388//100 389//101 383//95
f 389//101 384//96 378//90
f 408//96 409//97 403//91
f 409//97 410//98 404//92
f 410//98 411//99 405//93
f 411//99 412//100 406//94
f 412//100 413//101 407//95
f 413//101 408//96 402//90
f 446//96 447//97 441//91
f 447//97 448//98 442//92
f 448//98 449//99 443//93
f 449//99 450//100 444//94
f 450//100 451//101 445//95
f 451//101 446//96 440//90
f 470//96 471//97 465//91
f 471//97 472//98 466//92
f 472//98 473//99 467//93
f 473//99 474//100 468//94
f 474//100 475//101 469//95
f 475//101 470//96 464//90
f 508//96 509//97 503//91
f 509//97 510//98 504//92
f 510//98 511//99 505//93
f 511//99 512//100 506//94
f 512//100 513//101 507//95
f 513//101 508//96 502//90
f 532//96 533//97 527//91
f 533//97 534//98 528//92
f 534//98 535//99 529//93
f 535//99 536//100 530//94
f 536//100 537//101 531//95
f 537//101 532//96 526//90
f 547//116 548//117 541//207
f 548//117 549//118 542//111
f 549//118 550//119 543//112
f 550//119 551//120 544//113
f 551//120 552//121 545//114
f 552//121 553//208 546//115
f 553//208 547//116 540//109
f 586//96 587//97 581//91
f 587//97 588//98 582//92
f 588//98 589//99 583//93
f 589//99 590//100 584//94
f 590//100 591//101 585//95
f 591//101 586//96 580//90
f 610//96 611//97 605//91
f 611//97 612//98 606//92
f 612//98 613//99 607//93
f 613//99 614//100 608//94
f 614//100 615//101 609//95
f 615//101 610//96 604//90
f 648//96 649//97 643//91
f 649//97 650//98 644//92
f 650//98 651//99 645//93
f 651//99 652//100 646//94
f 652//100 653//101 647//95
f 653//101 648//96 642//90
f 672//96 673//97 667//91
f 673//97 674//98 668//92
f 674//98 675//99 669//93
f 675//99 676//100 670//94
f 676//100 677//101 671//95
f 677//101 672//96 666//90
f 710//96 711//97 705//91
f 711//97 712//98 706//92
f 712//98 713//99 707//93
f 713//99 714//100 708//94
f 714//100 715//101 709//95
f 715//101 710//96 704//90
f 734//96 735//97 729//91
f 735//97 736//98 730//92
f 736//98 737//99 731//93
f 737//99 738//100 732//94
f 738//100 739//101 733//95
f 739//101 734//96 728//90
f 749//116 750//117 743//207
f 750//117 751//118 744//111
f 751//118 752//119 745//112
f 752//119 753//120 746//113
f 753//120 754//121 747//114
f 754//121 755//208 748//115
f 755//208 749//116 742//109
f 788//96 789//97 783//91
f 789//97 790//98 784//92
f 790//98 791//99 785//93
f 791//99 792//100 786//94
f 792//100 793//101 787//95
f 793//101 788//96 782//90
f 812//96 813//97 807//91
f 813//97 814//98 808//92
f 814//98 815//99 809//93
f 815//99 816//100 810//94
f 816//100 817//101 811//95
f 817//101 812//96 806//90
f 850//96 851//97 845//91
f 851//97 852//98 846//92
f 852//98 853//99 847//93
f 853//99 854//100 848//94
f 854//100 855//101 849//95
f 855//101 850//96 844//90
f 874//96 875//97 869//91
f 875//97 876//98 870//92
f 876//98 877//99 871//93
f 877//99 878//100 872//94
f 878//100 879//101 873//95
f 879//101 874//96 868//90
f 912//96 913//97 907//91
f 913//97 914//98 908//92
f 914//98 915//99 909//93
f 915//99 916//100 910//94
f 916//100 917//101 911//95
f 917//101 912//96 906//90
f 936//96 937//97 931//91
f 937//97 938//98 932//92
f 938//98 939//99 933//93
f 939//99 940//100 934//94
f 940//100 941//101 935//95
f 941//101 936//96 930//90
f 951//116 952//117 945//207
f 952//117 953//118 946//111
f 953//118 954//119 947//112
f 954//119 955//120 948//113
f 955//120 956//121 949//114
f 956//121 957//208 950//115
f 957//208 951//116 944//109
