# Blender 5.2.1 LTS
# www.blender.org
mtllib floodplain_shelf_a.mtl
o floodplain_shelf_a
v 0.000000 0.000000 0.000000
v 4.101220 0.082010 -0.000000
v 3.695070 0.082010 1.165850
v 2.557070 0.082010 2.100790
v 0.912610 0.082010 2.619640
v -0.912610 0.082010 2.619640
v -2.557070 0.082010 2.100790
v -3.695070 0.082010 1.165850
v -4.101220 0.082010 -0.000000
v -3.695070 0.082010 -1.165850
v -2.557070 0.082010 -2.100790
v -0.912610 0.082010 -2.619640
v 0.912610 0.082010 -2.619640
v 2.557070 0.082010 -2.100790
v 3.695070 0.082010 -1.165850
v 5.800000 0.280000 -0.000000
v 5.225620 0.280000 1.648760
v 3.616240 0.280000 2.970960
v 1.290620 0.280000 3.704730
v -1.290620 0.280000 3.704730
v -3.616240 0.280000 2.970960
v -5.225620 0.280000 1.648760
v -5.800000 0.280000 -0.000000
v -5.225620 0.280000 -1.648760
v -3.616240 0.280000 -2.970960
v -1.290620 0.280000 -3.704730
v 1.290620 0.280000 -3.704730
v 3.616240 0.280000 -2.970960
v 5.225620 0.280000 -1.648760
v 4.101220 0.477990 -0.000000
v 3.695070 0.477990 1.165850
v 2.557070 0.477990 2.100790
v 0.912610 0.477990 2.619640
v -0.912610 0.477990 2.619640
v -2.557070 0.477990 2.100790
v -3.695070 0.477990 1.165850
v -4.101220 0.477990 -0.000000
v -3.695070 0.477990 -1.165850
v -2.557070 0.477990 -2.100790
v -0.912610 0.477990 -2.619640
v 0.912610 0.477990 -2.619640
v 2.557070 0.477990 -2.100790
v 3.695070 0.477990 -1.165850
v 0.000000 0.560000 -0.000000
v -4.501360 0.310000 -2.045020
v 4.398640 0.310000 -1.825020
v -4.500680 0.262370 -2.072510
v 4.399320 0.262370 -1.852510
v -4.499320 0.262370 -2.127490
v 4.400680 0.262370 -1.907490
v -4.498640 0.310000 -2.154980
v 4.401360 0.310000 -1.934980
v -4.499320 0.357630 -2.127490
v 4.400680 0.357630 -1.907490
v -4.500680 0.357630 -2.072510
v 4.399320 0.357630 -1.852510
v -4.501360 0.310000 -0.645020
v 4.398640 0.310000 -0.425020
v -4.500680 0.262370 -0.672510
v 4.399320 0.262370 -0.452510
v -4.499320 0.262370 -0.727490
v 4.400680 0.262370 -0.507490
v -4.498640 0.310000 -0.754980
v 4.401360 0.310000 -0.534980
v -4.499320 0.357630 -0.727490
v 4.400680 0.357630 -0.507490
v -4.500680 0.357630 -0.672510
v 4.399320 0.357630 -0.452510
v -4.501360 0.310000 0.754980
v 4.398640 0.310000 0.974980
v -4.500680 0.262370 0.727490
v 4.399320 0.262370 0.947490
v -4.499320 0.262370 0.672510
v 4.400680 0.262370 0.892510
v -4.498640 0.310000 0.645020
v 4.401360 0.310000 0.865020
v -4.499320 0.357630 0.672510
v 4.400680 0.357630 0.892510
v -4.500680 0.357630 0.727490
v 4.399320 0.357630 0.947490
v -4.501360 0.310000 2.154980
v 4.398640 0.310000 2.374980
v -4.500680 0.262370 2.127490
v 4.399320 0.262370 2.347490
v -4.499320 0.262370 2.072510
v 4.400680 0.262370 2.292510
v -4.498640 0.310000 2.045020
v 4.401360 0.310000 2.265020
v -4.499320 0.357630 2.072510
v 4.400680 0.357630 2.292510
v -4.500680 0.357630 2.127490
v 4.399320 0.357630 2.347490
v -3.400000 0.280000 -2.600000
v -2.966990 0.360000 -2.600000
v -3.130020 0.360000 -2.092190
v -3.496350 0.360000 -1.966770
v -3.790130 0.360000 -2.318180
v -3.790130 0.360000 -2.881820
v -3.496350 0.360000 -3.233230
v -3.130020 0.360000 -3.107810
v -2.966990 0.520000 -2.600000
v -3.130020 0.520000 -2.092190
v -3.496350 0.520000 -1.966770
v -3.790130 0.520000 -2.318180
v -3.790130 0.520000 -2.881820
v -3.496350 0.520000 -3.233230
v -3.130020 0.520000 -3.107810
v -3.400000 0.600000 -2.600000
v 0.000000 0.280000 -2.600000
v 0.433010 0.360000 -2.600000
v 0.269980 0.360000 -2.092190
v -0.096350 0.360000 -1.966770
v -0.390130 0.360000 -2.318180
v -0.390130 0.360000 -2.881820
v -0.096350 0.360000 -3.233230
v 0.269980 0.360000 -3.107810
v 0.433010 0.520000 -2.600000
v 0.269980 0.520000 -2.092190
v -0.096350 0.520000 -1.966770
v -0.390130 0.520000 -2.318180
v -0.390130 0.520000 -2.881820
v -0.096350 0.520000 -3.233230
v 0.269980 0.520000 -3.107810
v 0.000000 0.600000 -2.600000
v 3.000000 0.280000 -2.600000
v 3.433010 0.360000 -2.600000
v 3.269980 0.360000 -2.092190
v 2.903650 0.360000 -1.966770
v 2.609870 0.360000 -2.318180
v 2.609870 0.360000 -2.881820
v 2.903650 0.360000 -3.233230
v 3.269980 0.360000 -3.107810
v 3.433010 0.520000 -2.600000
v 3.269980 0.520000 -2.092190
v 2.903650 0.520000 -1.966770
v 2.609870 0.520000 -2.318180
v 2.609870 0.520000 -2.881820
v 2.903650 0.520000 -3.233230
v 3.269980 0.520000 -3.107810
v 3.000000 0.600000 -2.600000
vn 0.0200 -0.9998 0.0070
vn 0.0160 -0.9997 0.0195
vn 0.0089 -0.9996 0.0282
vn -0.0000 -0.9995 0.0313
vn -0.0089 -0.9996 0.0282
vn -0.0160 -0.9997 0.0195
vn -0.0200 -0.9998 0.0070
vn -0.0200 -0.9998 -0.0070
vn -0.0160 -0.9997 -0.0195
vn -0.0089 -0.9996 -0.0282
vn -0.0000 -0.9995 -0.0313
vn 0.0089 -0.9996 -0.0282
vn 0.0160 -0.9997 -0.0195
vn 0.0200 -0.9998 -0.0070
vn 0.1157 -0.9925 0.0403
vn 0.0925 -0.9893 0.1126
vn 0.0511 -0.9855 0.1620
vn -0.0000 -0.9838 0.1795
vn -0.0511 -0.9855 0.1620
vn -0.0925 -0.9893 0.1126
vn -0.1157 -0.9925 0.0403
vn -0.1157 -0.9925 -0.0403
vn -0.0925 -0.9893 -0.1126
vn -0.0511 -0.9855 -0.1620
vn -0.0000 -0.9838 -0.1795
vn 0.0511 -0.9855 -0.1620
vn 0.0925 -0.9893 -0.1126
vn 0.1157 -0.9925 -0.0403
vn 0.1157 0.9925 0.0403
vn 0.0925 0.9893 0.1126
vn 0.0511 0.9855 0.1620
vn -0.0000 0.9838 0.1795
vn -0.0511 0.9855 0.1620
vn -0.0925 0.9893 0.1126
vn -0.1157 0.9925 0.0403
vn -0.1157 0.9925 -0.0403
vn -0.0925 0.9893 -0.1126
vn -0.0511 0.9855 -0.1620
vn -0.0000 0.9838 -0.1795
vn 0.0511 0.9855 -0.1620
vn 0.0925 0.9893 -0.1126
vn 0.1157 0.9925 -0.0403
vn 0.0200 0.9998 0.0070
vn 0.0160 0.9997 0.0195
vn 0.0089 0.9996 0.0282
vn -0.0000 0.9995 0.0313
vn -0.0089 0.9996 0.0282
vn -0.0160 0.9997 0.0195
vn -0.0200 0.9998 0.0070
vn -0.0200 0.9998 -0.0070
vn -0.0160 0.9997 -0.0195
vn -0.0089 0.9996 -0.0282
vn -0.0000 0.9995 -0.0313
vn 0.0089 0.9996 -0.0282
vn 0.0160 0.9997 -0.0195
vn 0.0200 0.9998 -0.0070
vn -0.9997 -0.0000 -0.0247
vn 0.9997 -0.0000 0.0247
vn -0.0214 -0.5000 0.8658
vn -0.0000 -1.0000 -0.0000
vn 0.0214 -0.5000 -0.8658
vn 0.0214 0.5000 -0.8658
vn -0.0000 1.0000 -0.0000
vn -0.0214 0.5000 0.8658
vn -0.0002 -1.0000 -0.0000
vn 0.8115 -0.5844 -0.0000
vn 0.5805 -0.5749 0.5766
vn -0.2204 -0.5625 0.7969
vn -0.7620 -0.5832 0.2814
vn -0.7620 -0.5832 -0.2814
vn -0.2204 -0.5625 -0.7969
vn 0.5805 -0.5749 -0.5766
vn 0.8115 0.5844 -0.0000
vn 0.5805 0.5749 0.5766
vn -0.2204 0.5625 0.7969
vn -0.7620 0.5832 0.2814
vn -0.7620 0.5832 -0.2814
vn -0.2204 0.5625 -0.7969
vn 0.5805 0.5749 -0.5766
vn -0.0002 1.0000 -0.0000
s 0
usemtl verdant_silt
f 1//1 2//1 3//1
f 1//2 3//2 4//2
f 1//3 4//3 5//3
f 1//4 5//4 6//4
f 1//5 6//5 7//5
f 1//6 7//6 8//6
f 1//7 8//7 9//7
f 1//8 9//8 10//8
f 1//9 10//9 11//9
f 1//10 11//10 12//10
f 1//11 12//11 13//11
f 1//12 13//12 14//12
f 1//13 14//13 15//13
f 1//14 15//14 2//14
f 2//15 17//15 3//15
f 3//16 18//16 4//16
f 4//17 19//17 5//17
f 19//18 6//18 5//18
f 20//19 7//19 6//19
f 21//20 8//20 7//20
f 22//21 9//21 8//21
f 9//22 24//22 10//22
f 10//23 25//23 11//23
f 11//24 26//24 12//24
f 26//25 13//25 12//25
f 27//26 14//26 13//26
f 28//27 15//27 14//27
f 29//28 2//28 15//28
f 30//29 17//29 16//29
f 31//30 18//30 17//30
f 32//31 19//31 18//31
f 33//32 20//32 19//32
f 20//33 35//33 21//33
f 21//34 36//34 22//34
f 22//35 37//35 23//35
f 37//36 24//36 23//36
f 38//37 25//37 24//37
f 39//38 26//38 25//38
f 40//39 27//39 26//39
f 27//40 42//40 28//40
f 28//41 43//41 29//41
f 29//42 30//42 16//42
f 30//43 44//43 31//43
f 31//44 44//44 32//44
f 32//45 44//45 33//45
f 33//46 44//46 34//46
f 34//47 44//47 35//47
f 35//48 44//48 36//48
f 36//49 44//49 37//49
f 37//50 44//50 38//50
f 38//51 44//51 39//51
f 39//52 44//52 40//52
f 40//53 44//53 41//53
f 41//54 44//54 42//54
f 42//55 44//55 43//55
f 43//56 44//56 30//56
f 2//15 16//15 17//15
f 3//16 17//16 18//16
f 4//17 18//17 19//17
f 19//18 20//18 6//18
f 20//19 21//19 7//19
f 21//20 22//20 8//20
f 22//21 23//21 9//21
f 9//22 23//22 24//22
f 10//23 24//23 25//23
f 11//24 25//24 26//24
f 26//25 27//25 13//25
f 27//26 28//26 14//26
f 28//27 29//27 15//27
f 29//28 16//28 2//28
f 30//29 31//29 17//29
f 31//30 32//30 18//30
f 32//31 33//31 19//31
f 33//32 34//32 20//32
f 20//33 34//33 35//33
f 21//34 35//34 36//34
f 22//35 36//35 37//35
f 37//36 38//36 24//36
f 38//37 39//37 25//37
f 39//38 40//38 26//38
f 40//39 41//39 27//39
f 27//40 41//40 42//40
f 28//41 42//41 43//41
f 29//42 43//42 30//42
usemtl verdant_carbonate
f 53//57 49//57 45//57
f 48//58 52//58 56//58
f 47//59 46//59 45//59
f 49//60 48//60 47//60
f 51//61 50//61 49//61
f 53//62 52//62 51//62
f 55//63 54//63 53//63
f 45//64 56//64 55//64
f 65//57 61//57 57//57
f 60//58 64//58 68//58
f 57//59 60//59 58//59
f 59//60 62//60 60//60
f 63//61 62//61 61//61
f 63//62 66//62 64//62
f 67//63 66//63 65//63
f 57//64 68//64 67//64
f 77//57 73//57 69//57
f 72//58 76//58 80//58
f 71//59 70//59 69//59
f 71//60 74//60 72//60
f 73//61 76//61 74//61
f 77//62 76//62 75//62
f 77//63 80//63 78//63
f 69//64 80//64 79//64
f 89//57 85//57 81//57
f 84//58 88//58 92//58
f 83//59 82//59 81//59
f 85//60 84//60 83//60
f 87//61 86//61 85//61
f 89//62 88//62 87//62
f 91//63 90//63 89//63
f 81//64 92//64 91//64
f 45//57 55//57 53//57
f 53//57 51//57 49//57
f 49//57 47//57 45//57
f 56//58 46//58 48//58
f 48//58 50//58 52//58
f 52//58 54//58 56//58
f 47//59 48//59 46//59
f 49//60 50//60 48//60
f 51//61 52//61 50//61
f 53//62 54//62 52//62
f 55//63 56//63 54//63
f 45//64 46//64 56//64
f 57//57 67//57 65//57
f 65//57 63//57 61//57
f 61//57 59//57 57//57
f 68//58 58//58 60//58
f 60//58 62//58 64//58
f 64//58 66//58 68//58
f 57//59 59//59 60//59
f 59//60 61//60 62//60
f 63//61 64//61 62//61
f 63//62 65//62 66//62
f 67//63 68//63 66//63
f 57//64 58//64 68//64
f 69//57 79//57 77//57
f 77//57 75//57 73//57
f 73//57 71//57 69//57
f 80//58 70//58 72//58
f 72//58 74//58 76//58
f 76//58 78//58 80//58
f 71//59 72//59 70//59
f 71//60 73//60 74//60
f 73//61 75//61 76//61
f 77//62 78//62 76//62
f 77//63 79//63 80//63
f 69//64 70//64 80//64
f 81//57 91//57 89//57
f 89//57 87//57 85//57
f 85//57 83//57 81//57
f 92//58 82//58 84//58
f 84//58 86//58 88//58
f 88//58 90//58 92//58
f 83//59 84//59 82//59
f 85//60 86//60 84//60
f 87//61 88//61 86//61
f 89//62 90//62 88//62
f 91//63 92//63 90//63
f 81//64 82//64 92//64
s 1
usemtl verdant_growth
f 93//65 94//66 95//67
f 93//65 95//67 96//68
f 93//65 96//68 97//69
f 93//65 97//69 98//70
f 93//65 98//70 99//71
f 93//65 99//71 100//72
f 93//65 100//72 94//66
f 101//73 95//67 94//66
f 102//74 96//68 95//67
f 103//75 97//69 96//68
f 104//76 98//70 97//69
f 105//77 99//71 98//70
f 106//78 100//72 99//71
f 107//79 94//66 100//72
f 101//73 108//80 102//74
f 102//74 108//80 103//75
f 103//75 108//80 104//76
f 104//76 108//80 105//77
f 105//77 108//80 106//78
f 106//78 108//80 107//79
f 107//79 108//80 101//73
f 109//65 110//66 111//67
f 109//65 111//67 112//68
f 109//65 112//68 113//69
f 109//65 113//69 114//70
f 109//65 114//70 115//71
f 109//65 115//71 116//72
f 109//65 116//72 110//66
f 117//73 111//67 110//66
f 118//74 112//68 111//67
f 119//75 113//69 112//68
f 120//76 114//70 113//69
f 121//77 115//71 114//70
f 122//78 116//72 115//71
f 123//79 110//66 116//72
f 117//73 124//80 118//74
f 118//74 124//80 119//75
f 119//75 124//80 120//76
f 120//76 124//80 121//77
f 121//77 124//80 122//78
f 122//78 124//80 123//79
f 123//79 124//80 117//73
f 125//65 126//66 127//67
f 125//65 127//67 128//68
f 125//65 128//68 129//69
f 125//65 129//69 130//70
f 125//65 130//70 131//71
f 125//65 131//71 132//72
f 125//65 132//72 126//66
f 133//73 127//67 126//66
f 134//74 128//68 127//67
f 135//75 129//69 128//68
f 136//76 130//70 129//69
f 137//77 131//71 130//70
f 138//78 132//72 131//71
f 139//79 126//66 132//72
f 133//73 140//80 134//74
f 134//74 140//80 135//75
f 135//75 140//80 136//76
f 136//76 140//80 137//77
f 137//77 140//80 138//78
f 138//78 140//80 139//79
f 139//79 140//80 133//73
f 101//73 102//74 95//67
f 102//74 103//75 96//68
f 103//75 104//76 97//69
f 104//76 105//77 98//70
f 105//77 106//78 99//71
f 106//78 107//79 100//72
f 107//79 101//73 94//66
f 117//73 118//74 111//67
f 118//74 119//75 112//68
f 119//75 120//76 113//69
f 120//76 121//77 114//70
f 121//77 122//78 115//71
f 122//78 123//79 116//72
f 123//79 117//73 110//66
f 133//73 134//74 127//67
f 134//74 135//75 128//68
f 135//75 136//76 129//69
f 136//76 137//77 130//70
f 137//77 138//78 131//71
f 138//78 139//79 132//72
f 139//79 133//73 126//66
