# Blender 5.2.1 LTS
# www.blender.org
mtllib ledge_straight_a.mtl
o ledge_straight_a
v -4.000000 -0.000000 -1.000000
v 4.000000 -0.000000 -1.000000
v 4.000000 0.900000 -1.000000
v -4.000000 0.900000 -1.000000
v -4.000000 0.000000 1.000000
v 4.000000 0.000000 1.000000
v 4.000000 0.900000 1.000000
v -4.000000 0.900000 1.000000
v -3.100000 0.700000 -0.050000
v -2.640380 0.831800 -0.050000
v -2.747910 0.831800 0.359070
v -3.020190 0.831800 0.576730
v -3.329810 0.831800 0.501140
v -3.531900 0.831800 0.167660
v -3.531900 0.831800 -0.267660
v -3.329810 0.831800 -0.601140
v -3.020190 0.831800 -0.676730
v -2.747910 0.831800 -0.459070
v -2.450000 1.150000 -0.050000
v -2.602070 1.150000 0.528510
v -2.987130 1.150000 0.836330
v -3.425000 1.150000 0.729420
v -3.710800 1.150000 0.257820
v -3.710800 1.150000 -0.357820
v -3.425000 1.150000 -0.829420
v -2.987130 1.150000 -0.936330
v -2.602070 1.150000 -0.628510
v -2.640380 1.468200 -0.050000
v -2.747910 1.468200 0.359070
v -3.020190 1.468200 0.576730
v -3.329810 1.468200 0.501140
v -3.531900 1.468200 0.167660
v -3.531900 1.468200 -0.267660
v -3.329810 1.468200 -0.601140
v -3.020190 1.468200 -0.676730
v -2.747910 1.468200 -0.459070
v -3.100000 1.600000 -0.050000
v -1.600000 0.700000 -0.050000
v -0.998960 0.831800 -0.050000
v -1.139580 0.831800 0.359070
v -1.495630 0.831800 0.576730
v -1.900520 0.831800 0.501140
v -2.164790 0.831800 0.167660
v -2.164790 0.831800 -0.267660
v -1.900520 0.831800 -0.601140
v -1.495630 0.831800 -0.676730
v -1.139580 0.831800 -0.459070
v -0.750000 1.150000 -0.050000
v -0.948860 1.150000 0.528510
v -1.452400 1.150000 0.836330
v -2.025000 1.150000 0.729420
v -2.398740 1.150000 0.257820
v -2.398740 1.150000 -0.357820
v -2.025000 1.150000 -0.829420
v -1.452400 1.150000 -0.936330
v -0.948860 1.150000 -0.628510
v -0.998960 1.468200 -0.050000
v -1.139580 1.468200 0.359070
v -1.495630 1.468200 0.576730
v -1.900520 1.468200 0.501140
v -2.164790 1.468200 0.167660
v -2.164790 1.468200 -0.267660
v -1.900520 1.468200 -0.601140
v -1.495630 1.468200 -0.676730
v -1.139580 1.468200 -0.459070
v -1.600000 1.600000 -0.050000
v 0.000000 0.700000 -0.050000
v 0.509120 0.831800 -0.050000
v 0.390010 0.831800 0.359070
v 0.088410 0.831800 0.576730
v -0.254560 0.831800 0.501140
v -0.478410 0.831800 0.167660
v -0.478410 0.831800 -0.267660
v -0.254560 0.831800 -0.601140
v 0.088410 0.831800 -0.676730
v 0.390010 0.831800 -0.459070
v 0.720000 1.150000 -0.050000
v 0.551550 1.150000 0.528510
v 0.125030 1.150000 0.836330
v -0.360000 1.150000 0.729420
v -0.676580 1.150000 0.257820
v -0.676580 1.150000 -0.357820
v -0.360000 1.150000 -0.829420
v 0.125030 1.150000 -0.936330
v 0.551550 1.150000 -0.628510
v 0.509120 1.468200 -0.050000
v 0.390010 1.468200 0.359070
v 0.088410 1.468200 0.576730
v -0.254560 1.468200 0.501140
v -0.478410 1.468200 0.167660
v -0.478410 1.468200 -0.267660
v -0.254560 1.468200 -0.601140
v 0.088410 1.468200 -0.676730
v 0.390010 1.468200 -0.459070
v 0.000000 1.600000 -0.050000
v 1.800000 0.700000 -0.050000
v 2.436400 0.831800 -0.050000
v 2.287510 0.831800 0.359070
v 1.910510 0.831800 0.576730
v 1.481800 0.831800 0.501140
v 1.201980 0.831800 0.167660
v 1.201980 0.831800 -0.267660
v 1.481800 0.831800 -0.601140
v 1.910510 0.831800 -0.676730
v 2.287510 0.831800 -0.459070
v 2.700000 1.150000 -0.050000
v 2.489440 1.150000 0.528510
v 1.956280 1.150000 0.836330
v 1.350000 1.150000 0.729420
v 0.954280 1.150000 0.257820
v 0.954280 1.150000 -0.357820
v 1.350000 1.150000 -0.829420
v 1.956280 1.150000 -0.936330
v 2.489440 1.150000 -0.628510
v 2.436400 1.468200 -0.050000
v 2.287510 1.468200 0.359070
v 1.910510 1.468200 0.576730
v 1.481800 1.468200 0.501140
v 1.201980 1.468200 0.167660
v 1.201980 1.468200 -0.267660
v 1.481800 1.468200 -0.601140
v 1.910510 1.468200 -0.676730
v 2.287510 1.468200 -0.459070
v 1.800000 1.600000 -0.050000
v 3.350000 0.700000 -0.050000
v 3.760120 0.831800 -0.050000
v 3.664170 0.831800 0.359070
v 3.421220 0.831800 0.576730
v 3.144940 0.831800 0.501140
v 2.964610 0.831800 0.167660
v 2.964610 0.831800 -0.267660
v 3.144940 0.831800 -0.601140
v 3.421220 0.831800 -0.676730
v 3.664170 0.831800 -0.459070
v 3.930000 1.150000 -0.050000
v 3.794310 1.150000 0.528510
v 3.450720 1.150000 0.836330
v 3.060000 1.150000 0.729420
v 2.804980 1.150000 0.257820
v 2.804980 1.150000 -0.357820
v 3.060000 1.150000 -0.829420
v 3.450720 1.150000 -0.936330
v 3.794310 1.150000 -0.628510
v 3.760120 1.468200 -0.050000
v 3.664170 1.468200 0.359070
v 3.421220 1.468200 0.576730
v 3.144940 1.468200 0.501140
v 2.964610 1.468200 0.167660
v 2.964610 1.468200 -0.267660
v 3.144940 1.468200 -0.601140
v 3.421220 1.468200 -0.676730
v 3.664170 1.468200 -0.459070
v 3.350000 1.600000 -0.050000
vn -0.0000 -0.0000 -1.0000
vn -0.0000 -0.0000 1.0000
vn -0.0000 -1.0000 -0.0000
vn 1.0000 -0.0000 -0.0000
vn -0.0000 1.0000 -0.0000
vn -1.0000 -0.0000 -0.0000
vn 0.2749 -0.9587 0.0723
vn 0.1482 -0.9714 0.1854
vn -0.0517 -0.9759 0.2118
vn -0.2255 -0.9646 0.1367
vn -0.2919 -0.9565 -0.0000
vn -0.2255 -0.9646 -0.1367
vn -0.0517 -0.9759 -0.2118
vn 0.1482 -0.9714 -0.1854
vn 0.2749 -0.9587 -0.0723
vn 0.8371 -0.5008 0.2200
vn 0.5110 -0.5746 0.6393
vn -0.1881 -0.6090 0.7705
vn -0.7244 -0.5316 0.4390
vn -0.8717 -0.4901 -0.0000
vn -0.7244 -0.5316 -0.4390
vn -0.1881 -0.6090 -0.7705
vn 0.5110 -0.5746 -0.6393
vn 0.8371 -0.5008 -0.2200
vn 0.8371 0.5008 0.2200
vn 0.5110 0.5746 0.6393
vn -0.1881 0.6091 0.7705
vn -0.7244 0.5316 0.4390
vn -0.8717 0.4901 -0.0000
vn -0.7244 0.5316 -0.4390
vn -0.1881 0.6091 -0.7705
vn 0.5110 0.5746 -0.6393
vn 0.8371 0.5008 -0.2200
vn 0.2749 0.9587 0.0723
vn 0.1482 0.9714 0.1854
vn -0.0517 0.9759 0.2118
vn -0.2255 0.9646 0.1367
vn -0.2919 0.9565 -0.0000
vn -0.2255 0.9646 -0.1367
vn -0.0517 0.9759 -0.2118
vn 0.1482 0.9714 -0.1854
vn 0.2749 0.9587 -0.0723
vn 0.2136 -0.9742 0.0734
vn 0.1139 -0.9759 0.1863
vn -0.0396 -0.9765 0.2119
vn -0.1743 -0.9750 0.1381
vn -0.2273 -0.9738 -0.0000
vn -0.1743 -0.9750 -0.1381
vn -0.0396 -0.9765 -0.2119
vn 0.1139 -0.9759 -0.1863
vn 0.2136 -0.9742 -0.0734
vn 0.7602 -0.5948 0.2613
vn 0.4139 -0.6086 0.6770
vn -0.1449 -0.6136 0.7762
vn -0.6263 -0.6011 0.4963
vn -0.8057 -0.5924 -0.0000
vn -0.6263 -0.6011 -0.4963
vn -0.1449 -0.6136 -0.7762
vn 0.4139 -0.6086 -0.6770
vn 0.7602 -0.5948 -0.2613
vn 0.7602 0.5948 0.2613
vn 0.4139 0.6086 0.6770
vn -0.1449 0.6136 0.7762
vn -0.6263 0.6011 0.4964
vn -0.8057 0.5924 -0.0000
vn -0.6263 0.6011 -0.4964
vn -0.1449 0.6136 -0.7762
vn 0.4139 0.6086 -0.6770
vn 0.7602 0.5948 -0.2613
vn 0.2136 0.9742 0.0734
vn 0.1139 0.9759 0.1863
vn -0.0396 0.9765 0.2119
vn -0.1743 0.9750 0.1381
vn -0.2273 0.9738 -0.0000
vn -0.1743 0.9750 -0.1381
vn -0.0396 0.9765 -0.2119
vn 0.1139 0.9759 -0.1863
vn 0.2136 0.9742 -0.0734
vn 0.2500 -0.9655 0.0728
vn 0.1341 -0.9734 0.1858
vn -0.0467 -0.9762 0.2119
vn -0.2045 -0.9692 0.1373
vn -0.2656 -0.9641 -0.0000
vn -0.2045 -0.9692 -0.1373
vn -0.0467 -0.9762 -0.2119
vn 0.1341 -0.9734 -0.1858
vn 0.2500 -0.9655 -0.0728
vn 0.8100 -0.5368 0.2359
vn 0.4729 -0.5890 0.6553
vn -0.1704 -0.6110 0.7730
vn -0.6882 -0.5595 0.4619
vn -0.8488 -0.5286 -0.0000
vn -0.6882 -0.5595 -0.4619
vn -0.1704 -0.6110 -0.7730
vn 0.4729 -0.5890 -0.6553
vn 0.8100 -0.5368 -0.2359
vn 0.8100 0.5368 0.2359
vn 0.4729 0.5890 0.6553
vn -0.1704 0.6111 0.7730
vn -0.6882 0.5595 0.4620
vn -0.8488 0.5286 -0.0000
vn -0.6882 0.5595 -0.4620
vn -0.1704 0.6111 -0.7730
vn 0.4729 0.5890 -0.6553
vn 0.8100 0.5368 -0.2359
vn 0.2500 0.9655 0.0728
vn 0.1341 0.9734 0.1858
vn -0.0467 0.9762 0.2119
vn -0.2045 0.9692 0.1373
vn -0.2656 0.9641 -0.0000
vn -0.2045 0.9692 -0.1373
vn -0.0467 0.9762 -0.2119
vn 0.1341 0.9734 -0.1858
vn 0.2500 0.9655 -0.0728
vn 0.2022 -0.9766 0.0736
vn 0.1076 -0.9766 0.1864
vn -0.0374 -0.9766 0.2120
vn -0.1649 -0.9766 0.1383
vn -0.2152 -0.9766 -0.0000
vn -0.1649 -0.9766 -0.1383
vn -0.0374 -0.9766 -0.2120
vn 0.1076 -0.9766 -0.1864
vn 0.2022 -0.9766 -0.0736
vn 0.7415 -0.6143 0.2699
vn 0.3945 -0.6143 0.6834
vn -0.1370 -0.6143 0.7771
vn -0.6045 -0.6143 0.5072
vn -0.7891 -0.6143 -0.0000
vn -0.6045 -0.6143 -0.5072
vn -0.1370 -0.6143 -0.7771
vn 0.3945 -0.6143 -0.6834
vn 0.7415 -0.6143 -0.2699
vn 0.7415 0.6143 0.2699
vn 0.3945 0.6143 0.6834
vn -0.1370 0.6143 0.7771
vn -0.6045 0.6143 0.5072
vn -0.7891 0.6143 -0.0000
vn -0.6045 0.6143 -0.5072
vn -0.1370 0.6143 -0.7771
vn 0.3945 0.6143 -0.6834
vn 0.7415 0.6143 -0.2699
vn 0.2022 0.9766 0.0736
vn 0.1076 0.9766 0.1864
vn -0.0374 0.9766 0.2120
vn -0.1649 0.9766 0.1383
vn -0.2152 0.9766 -0.0000
vn -0.1649 0.9766 -0.1383
vn -0.0374 0.9766 -0.2120
vn 0.1076 0.9766 -0.1864
vn 0.2022 0.9766 -0.0736
vn 0.3052 -0.9496 0.0716
vn 0.1656 -0.9687 0.1849
vn -0.0579 -0.9756 0.2118
vn -0.2511 -0.9584 0.1358
vn -0.3236 -0.9462 -0.0000
vn -0.2511 -0.9584 -0.1358
vn -0.0579 -0.9756 -0.2118
vn 0.1656 -0.9687 -0.1849
vn 0.3052 -0.9496 -0.0716
vn 0.8639 -0.4612 0.2026
vn 0.5545 -0.5563 0.6189
vn -0.2099 -0.6063 0.7670
vn -0.7622 -0.4992 0.4122
vn -0.8938 -0.4484 -0.0000
vn -0.7622 -0.4992 -0.4122
vn -0.2099 -0.6063 -0.7670
vn 0.5545 -0.5563 -0.6189
vn 0.8639 -0.4612 -0.2026
vn 0.8639 0.4612 0.2026
vn 0.5545 0.5563 0.6189
vn -0.2099 0.6063 0.7670
vn -0.7622 0.4992 0.4122
vn -0.8938 0.4484 -0.0000
vn -0.7622 0.4992 -0.4122
vn -0.2099 0.6063 -0.7670
vn 0.5545 0.5563 -0.6189
vn 0.8639 0.4612 -0.2026
vn 0.3052 0.9496 0.0716
vn 0.1656 0.9687 0.1849
vn -0.0579 0.9756 0.2118
vn -0.2511 0.9584 0.1358
vn -0.3236 0.9462 -0.0000
vn -0.2511 0.9584 -0.1358
vn -0.0579 0.9756 -0.2118
vn 0.1656 0.9687 -0.1849
vn 0.3052 0.9496 -0.0716
vn -0.1881 -0.6091 0.7705
vn -0.1881 -0.6091 -0.7705
vn -0.1881 0.6090 0.7705
vn -0.1881 0.6090 -0.7705
vn -0.6263 -0.6011 0.4964
vn -0.6263 -0.6011 -0.4964
vn -0.6263 0.6011 0.4963
vn -0.6263 0.6011 -0.4963
vn -0.1704 -0.6111 0.7730
vn -0.6882 -0.5595 0.4620
vn -0.6882 -0.5595 -0.4620
vn -0.1704 -0.6111 -0.7730
vn -0.1704 0.6110 0.7730
vn -0.6882 0.5595 0.4619
vn -0.6882 0.5595 -0.4619
vn -0.1704 0.6110 -0.7730
s 0
usemtl verdant_rock
f 4//1 2//1 1//1
f 6//2 8//2 5//2
f 2//3 5//3 1//3
f 3//4 6//4 2//4
f 4//5 7//5 3//5
f 8//6 1//6 5//6
f 9//7 10//7 11//7
f 9//8 11//8 12//8
f 9//9 12//9 13//9
f 9//10 13//10 14//10
f 9//11 14//11 15//11
f 9//12 15//12 16//12
f 9//13 16//13 17//13
f 9//14 17//14 18//14
f 9//15 18//15 10//15
f 19//16 11//16 10//16
f 20//17 12//17 11//17
f 12//18 22//18 13//18
f 13//19 23//19 14//19
f 23//20 15//20 14//20
f 24//21 16//21 15//21
f 25//22 17//22 16//22
f 17//23 27//23 18//23
f 18//24 19//24 10//24
f 19//25 29//25 20//25
f 20//26 30//26 21//26
f 30//27 22//27 21//27
f 31//28 23//28 22//28
f 32//29 24//29 23//29
f 24//30 34//30 25//30
f 25//31 35//31 26//31
f 35//32 27//32 26//32
f 36//33 19//33 27//33
f 28//34 37//34 29//34
f 29//35 37//35 30//35
f 30//36 37//36 31//36
f 31//37 37//37 32//37
f 32//38 37//38 33//38
f 33//39 37//39 34//39
f 34//40 37//40 35//40
f 35//41 37//41 36//41
f 36//42 37//42 28//42
f 38//43 39//43 40//43
f 38//44 40//44 41//44
f 38//45 41//45 42//45
f 38//46 42//46 43//46
f 38//47 43//47 44//47
f 38//48 44//48 45//48
f 38//49 45//49 46//49
f 38//50 46//50 47//50
f 38//51 47//51 39//51
f 48//52 40//52 39//52
f 49//53 41//53 40//53
f 41//54 51//54 42//54
f 42//55 52//55 43//55
f 43//56 53//56 44//56
f 53//57 45//57 44//57
f 54//58 46//58 45//58
f 46//59 56//59 47//59
f 47//60 48//60 39//60
f 48//61 58//61 49//61
f 49//62 59//62 50//62
f 59//63 51//63 50//63
f 60//64 52//64 51//64
f 61//65 53//65 52//65
f 53//66 63//66 54//66
f 54//67 64//67 55//67
f 64//68 56//68 55//68
f 65//69 48//69 56//69
f 57//70 66//70 58//70
f 58//71 66//71 59//71
f 59//72 66//72 60//72
f 60//73 66//73 61//73
f 61//74 66//74 62//74
f 62//75 66//75 63//75
f 63//76 66//76 64//76
f 64//77 66//77 65//77
f 65//78 66//78 57//78
f 67//79 68//79 69//79
f 67//80 69//80 70//80
f 67//81 70//81 71//81
f 67//82 71//82 72//82
f 67//83 72//83 73//83
f 67//84 73//84 74//84
f 67//85 74//85 75//85
f 67//86 75//86 76//86
f 67//87 76//87 68//87
f 77//88 69//88 68//88
f 78//89 70//89 69//89
f 70//90 80//90 71//90
f 71//91 81//91 72//91
f 81//92 73//92 72//92
f 82//93 74//93 73//93
f 83//94 75//94 74//94
f 75//95 85//95 76//95
f 76//96 77//96 68//96
f 77//97 87//97 78//97
f 78//98 88//98 79//98
f 88//99 80//99 79//99
f 89//100 81//100 80//100
f 90//101 82//101 81//101
f 82//102 92//102 83//102
f 83//103 93//103 84//103
f 93//104 85//104 84//104
f 94//105 77//105 85//105
f 86//106 95//106 87//106
f 87//107 95//107 88//107
f 88//108 95//108 89//108
f 89//109 95//109 90//109
f 90//110 95//110 91//110
f 91//111 95//111 92//111
f 92//112 95//112 93//112
f 93//113 95//113 94//113
f 94//114 95//114 86//114
f 96//115 97//115 98//115
f 96//116 98//116 99//116
f 96//117 99//117 100//117
f 96//118 100//118 101//118
f 96//119 101//119 102//119
f 96//120 102//120 103//120
f 96//121 103//121 104//121
f 96//122 104//122 105//122
f 96//123 105//123 97//123
f 106//124 98//124 97//124
f 107//125 99//125 98//125
f 108//126 100//126 99//126
f 100//127 110//127 101//127
f 110//128 102//128 101//128
f 111//129 103//129 102//129
f 103//130 113//130 104//130
f 104//131 114//131 105//131
f 105//132 106//132 97//132
f 115//133 107//133 106//133
f 107//134 117//134 108//134
f 108//135 118//135 109//135
f 118//136 110//136 109//136
f 119//137 111//137 110//137
f 111//138 121//138 112//138
f 121//139 113//139 112//139
f 122//140 114//140 113//140
f 123//141 106//141 114//141
f 115//142 124//142 116//142
f 116//143 124//143 117//143
f 117//144 124//144 118//144
f 118//145 124//145 119//145
f 119//146 124//146 120//146
f 120//147 124//147 121//147
f 121//148 124//148 122//148
f 122//149 124//149 123//149
f 123//150 124//150 115//150
f 125//151 126//151 127//151
f 125//152 127//152 128//152
f 125//153 128//153 129//153
f 125//154 129//154 130//154
f 125//155 130//155 131//155
f 125//156 131//156 132//156
f 125//157 132//157 133//157
f 125//158 133//158 134//158
f 125//159 134//159 126//159
f 135//160 127//160 126//160
f 136//161 128//161 127//161
f 128//162 138//162 129//162
f 129//163 139//163 130//163
f 139//164 131//164 130//164
f 140//165 132//165 131//165
f 141//166 133//166 132//166
f 133//167 143//167 134//167
f 134//168 135//168 126//168
f 135//169 145//169 136//169
f 136//170 146//170 137//170
f 146//171 138//171 137//171
f 147//172 139//172 138//172
f 139//173 149//173 140//173
f 140//174 150//174 141//174
f 141//175 151//175 142//175
f 151//176 143//176 142//176
f 152//177 135//177 143//177
f 144//178 153//178 145//178
f 145//179 153//179 146//179
f 146//180 153//180 147//180
f 147//181 153//181 148//181
f 148//182 153//182 149//182
f 149//183 153//183 150//183
f 150//184 153//184 151//184
f 151//185 153//185 152//185
f 152//186 153//186 144//186
f 4//1 3//1 2//1
f 6//2 7//2 8//2
f 2//3 6//3 5//3
f 3//4 7//4 6//4
f 4//5 8//5 7//5
f 8//6 4//6 1//6
f 19//16 20//16 11//16
f 20//17 21//17 12//17
f 12//187 21//187 22//187
f 13//19 22//19 23//19
f 23//20 24//20 15//20
f 24//21 25//21 16//21
f 25//188 26//188 17//188
f 17//23 26//23 27//23
f 18//24 27//24 19//24
f 19//25 28//25 29//25
f 20//26 29//26 30//26
f 30//189 31//189 22//189
f 31//28 32//28 23//28
f 32//29 33//29 24//29
f 24//30 33//30 34//30
f 25//190 34//190 35//190
f 35//32 36//32 27//32
f 36//33 28//33 19//33
f 48//52 49//52 40//52
f 49//53 50//53 41//53
f 41//54 50//54 51//54
f 42//191 51//191 52//191
f 43//56 52//56 53//56
f 53//192 54//192 45//192
f 54//58 55//58 46//58
f 46//59 55//59 56//59
f 47//60 56//60 48//60
f 48//61 57//61 58//61
f 49//62 58//62 59//62
f 59//63 60//63 51//63
f 60//193 61//193 52//193
f 61//65 62//65 53//65
f 53//194 62//194 63//194
f 54//67 63//67 64//67
f 64//68 65//68 56//68
f 65//69 57//69 48//69
f 77//88 78//88 69//88
f 78//89 79//89 70//89
f 70//195 79//195 80//195
f 71//196 80//196 81//196
f 81//92 82//92 73//92
f 82//197 83//197 74//197
f 83//198 84//198 75//198
f 75//95 84//95 85//95
f 76//96 85//96 77//96
f 77//97 86//97 87//97
f 78//98 87//98 88//98
f 88//199 89//199 80//199
f 89//200 90//200 81//200
f 90//101 91//101 82//101
f 82//201 91//201 92//201
f 83//202 92//202 93//202
f 93//104 94//104 85//104
f 94//105 86//105 77//105
f 106//124 107//124 98//124
f 107//125 108//125 99//125
f 108//126 109//126 100//126
f 100//127 109//127 110//127
f 110//128 111//128 102//128
f 111//129 112//129 103//129
f 103//130 112//130 113//130
f 104//131 113//131 114//131
f 105//132 114//132 106//132
f 115//133 116//133 107//133
f 107//134 116//134 117//134
f 108//135 117//135 118//135
f 118//136 119//136 110//136
f 119//137 120//137 111//137
f 111//138 120//138 121//138
f 121//139 122//139 113//139
f 122//140 123//140 114//140
f 123//141 115//141 106//141
f 135//160 136//160 127//160
f 136//161 137//161 128//161
f 128//162 137//162 138//162
f 129//163 138//163 139//163
f 139//164 140//164 131//164
f 140//165 141//165 132//165
f 141//166 142//166 133//166
f 133//167 142//167 143//167
f 134//168 143//168 135//168
f 135//169 144//169 145//169
f 136//170 145//170 146//170
f 146//171 147//171 138//171
f 147//172 148//172 139//172
f 139//173 148//173 149//173
f 140//174 149//174 150//174
f 141//175 150//175 151//175
f 151//176 152//176 143//176
f 152//177 144//177 135//177
