# Blender 5.2.1 LTS
# www.blender.org
mtllib ledge_corner_a.mtl
o ledge_corner_a
v -4.000000 -0.000000 -1.000000
v 1.000000 -0.000000 -1.000000
v 1.000000 0.900000 -1.000000
v -4.000000 0.900000 -1.000000
v -4.000000 0.000000 1.000000
v 1.000000 0.000000 1.000000
v 1.000000 0.900000 1.000000
v -4.000000 0.900000 1.000000
v -1.000000 -0.000000 -1.000000
v -1.000000 0.900000 -1.000000
v -1.000000 0.000000 4.000000
v 1.000000 0.000000 4.000000
v 1.000000 0.900000 4.000000
v -1.000000 0.900000 4.000000
v 0.000000 0.650000 -0.000000
v 0.883880 0.796450 -0.000000
v 0.677090 0.796450 0.568150
v 0.153480 0.796450 0.870460
v -0.441940 0.796450 0.765470
v -0.830580 0.796450 0.302310
v -0.830580 0.796450 -0.302310
v -0.441940 0.796450 -0.765470
v 0.153480 0.796450 -0.870460
v 0.677090 0.796450 -0.568150
v 1.250000 1.150000 -0.000000
v 0.957560 1.150000 0.803480
v 0.217060 1.150000 1.231010
v -0.625000 1.150000 1.082530
v -1.174620 1.150000 0.427530
v -1.174620 1.150000 -0.427530
v -0.625000 1.150000 -1.082530
v 0.217060 1.150000 -1.231010
v 0.957560 1.150000 -0.803480
v 0.883880 1.503550 -0.000000
v 0.677090 1.503550 0.568150
v 0.153480 1.503550 0.870460
v -0.441940 1.503550 0.765470
v -0.830580 1.503550 0.302310
v -0.830580 1.503550 -0.302310
v -0.441940 1.503550 -0.765470
v 0.153480 1.503550 -0.870460
v 0.677090 1.503550 -0.568150
v 0.000000 1.650000 -0.000000
vn -0.0000 -0.0000 -1.0000
vn -0.0000 -0.0000 1.0000
vn -0.0000 -1.0000 -0.0000
vn 1.0000 -0.0000 -0.0000
vn -0.0000 1.0000 -0.0000
vn -1.0000 -0.0000 -0.0000
vn 0.1632 -0.9848 0.0594
vn 0.0868 -0.9848 0.1504
vn -0.0302 -0.9848 0.1710
vn -0.1330 -0.9848 0.1116
vn -0.1736 -0.9848 -0.0000
vn -0.1330 -0.9848 -0.1116
vn -0.0302 -0.9848 -0.1710
vn 0.0868 -0.9848 -0.1504
vn 0.1632 -0.9848 -0.0594
vn 0.6735 -0.6974 0.2451
vn 0.3583 -0.6974 0.6207
vn -0.1245 -0.6974 0.7058
vn -0.5490 -0.6974 0.4607
vn -0.7167 -0.6974 -0.0000
vn -0.5490 -0.6974 -0.4607
vn -0.1245 -0.6974 -0.7058
vn 0.3583 -0.6974 -0.6207
vn 0.6735 -0.6974 -0.2451
vn 0.6735 0.6974 0.2451
vn 0.3583 0.6974 0.6207
vn -0.1245 0.6974 0.7058
vn -0.5490 0.6974 0.4607
vn -0.7167 0.6974 -0.0000
vn -0.5490 0.6974 -0.4607
vn -0.1245 0.6974 -0.7058
vn 0.3583 0.6974 -0.6207
vn 0.6735 0.6974 -0.2451
vn 0.1632 0.9848 0.0594
vn 0.0868 0.9848 0.1504
vn -0.0302 0.9848 0.1710
vn -0.1330 0.9848 0.1116
vn -0.1736 0.9848 -0.0000
vn -0.1330 0.9848 -0.1116
vn -0.0302 0.9848 -0.1710
vn 0.0868 0.9848 -0.1504
vn 0.1632 0.9848 -0.0594
s 0
usemtl verdant_rock
f 4//1 2//1 1//1
f 6//2 8//2 5//2
f 2//3 5//3 1//3
f 3//4 6//4 2//4
f 4//5 7//5 3//5
f 8//6 1//6 5//6
f 10//1 2//1 9//1
f 12//2 14//2 11//2
f 2//3 11//3 9//3
f 3//4 12//4 2//4
f 10//5 13//5 3//5
f 14//6 9//6 11//6
f 15//7 16//7 17//7
f 15//8 17//8 18//8
f 15//9 18//9 19//9
f 15//10 19//10 20//10
f 15//11 20//11 21//11
f 15//12 21//12 22//12
f 15//13 22//13 23//13
f 15//14 23//14 24//14
f 15//15 24//15 16//15
f 16//16 26//16 17//16
f 17//17 27//17 18//17
f 18//18 28//18 19//18
f 28//19 20//19 19//19
f 29//20 21//20 20//20
f 21//21 31//21 22//21
f 31//22 23//22 22//22
f 32//23 24//23 23//23
f 33//24 16//24 24//24
f 34//25 26//25 25//25
f 35//26 27//26 26//26
f 36//27 28//27 27//27
f 28//28 38//28 29//28
f 38//29 30//29 29//29
f 39//30 31//30 30//30
f 31//31 41//31 32//31
f 32//32 42//32 33//32
f 33//33 34//33 25//33
f 34//34 43//34 35//34
f 35//35 43//35 36//35
f 36//36 43//36 37//36
f 37//37 43//37 38//37
f 38//38 43//38 39//38
f 39//39 43//39 40//39
f 40//40 43//40 41//40
f 41//41 43//41 42//41
f 42//42 43//42 34//42
f 4//1 3//1 2//1
f 6//2 7//2 8//2
f 2//3 6//3 5//3
f 3//4 7//4 6//4
f 4//5 8//5 7//5
f 8//6 4//6 1//6
f 10//1 3//1 2//1
f 12//2 13//2 14//2
f 2//3 12//3 11//3
f 3//4 13//4 12//4
f 10//5 14//5 13//5
f 14//6 10//6 9//6
f 16//16 25//16 26//16
f 17//17 26//17 27//17
f 18//18 27//18 28//18
f 28//19 29//19 20//19
f 29//20 30//20 21//20
f 21//21 30//21 31//21
f 31//22 32//22 23//22
f 32//23 33//23 24//23
f 33//24 25//24 16//24
f 34//25 35//25 26//25
f 35//26 36//26 27//26
f 36//27 37//27 28//27
f 28//28 37//28 38//28
f 38//29 39//29 30//29
f 39//30 40//30 31//30
f 31//31 40//31 41//31
f 32//32 41//32 42//32
f 33//33 42//33 34//33
