# Blender 5.2.1 LTS
# www.blender.org
mtllib methane_seep_a.mtl
o methane_seep_a
v -2.800000 -0.000000 -0.400000
v -0.461730 0.040000 -0.400000
v -0.693290 0.040000 0.276360
v -1.342110 0.040000 0.818750
v -2.279690 0.040000 1.119760
v -3.320310 0.040000 1.119760
v -4.257890 0.040000 0.818750
v -4.906710 0.040000 0.276360
v -5.138270 0.040000 -0.400000
v -4.906710 0.040000 -1.076360
v -4.257890 0.040000 -1.618750
v -3.320310 0.040000 -1.919760
v -2.279690 0.040000 -1.919760
v -1.342110 0.040000 -1.618750
v -0.693290 0.040000 -1.076360
v -0.461730 0.120000 -0.400000
v -0.693290 0.120000 0.276360
v -1.342110 0.120000 0.818750
v -2.279690 0.120000 1.119760
v -3.320310 0.120000 1.119760
v -4.257890 0.120000 0.818750
v -4.906710 0.120000 0.276360
v -5.138270 0.120000 -0.400000
v -4.906710 0.120000 -1.076360
v -4.257890 0.120000 -1.618750
v -3.320310 0.120000 -1.919760
v -2.279690 0.120000 -1.919760
v -1.342110 0.120000 -1.618750
v -0.693290 0.120000 -1.076360
v -2.800000 0.160000 -0.400000
v -2.550000 0.070000 -0.520000
v -0.959980 0.120000 -0.520000
v -1.142100 0.120000 -0.070850
v -1.646760 0.120000 0.275400
v -2.358340 0.120000 0.439440
v -3.113830 0.120000 0.383680
v -3.740150 0.120000 0.120900
v -4.093820 0.120000 -0.288710
v -4.093820 0.120000 -0.751290
v -3.740150 0.120000 -1.160900
v -3.113830 0.120000 -1.423680
v -2.358340 0.120000 -1.479440
v -1.646760 0.120000 -1.315400
v -1.142100 0.120000 -0.969150
v -0.959980 0.220000 -0.520000
v -1.142100 0.220000 -0.070850
v -1.646760 0.220000 0.275400
v -2.358340 0.220000 0.439440
v -3.113830 0.220000 0.383680
v -3.740150 0.220000 0.120900
v -4.093820 0.220000 -0.288710
v -4.093820 0.220000 -0.751290
v -3.740150 0.220000 -1.160900
v -3.113830 0.220000 -1.423680
v -2.358340 0.220000 -1.479440
v -1.646760 0.220000 -1.315400
v -1.142100 0.220000 -0.969150
v -2.550000 0.270000 -0.520000
v 0.200000 0.000000 0.700000
v 3.144490 0.040000 0.700000
v 2.852890 0.040000 1.526660
v 2.035860 0.040000 2.189590
v 0.855210 0.040000 2.557490
v -0.455210 0.040000 2.557490
v -1.635860 0.040000 2.189590
v -2.452890 0.040000 1.526660
v -2.744490 0.040000 0.700000
v -2.452890 0.040000 -0.126660
v -1.635860 0.040000 -0.789590
v -0.455210 0.040000 -1.157490
v 0.855210 0.040000 -1.157490
v 2.035860 0.040000 -0.789590
v 2.852890 0.040000 -0.126660
v 3.144490 0.120000 0.700000
v 2.852890 0.120000 1.526660
v 2.035860 0.120000 2.189590
v 0.855210 0.120000 2.557490
v -0.455210 0.120000 2.557490
v -1.635860 0.120000 2.189590
v -2.452890 0.120000 1.526660
v -2.744490 0.120000 0.700000
v -2.452890 0.120000 -0.126660
v -1.635860 0.120000 -0.789590
v -0.455210 0.120000 -1.157490
v 0.855210 0.120000 -1.157490
v 2.035860 0.120000 -0.789590
v 2.852890 0.120000 -0.126660
v 0.200000 0.160000 0.700000
v 0.450000 0.070000 0.580000
v 2.452250 0.120000 0.580000
v 2.222900 0.120000 1.128960
v 1.587410 0.120000 1.552160
v 0.691340 0.120000 1.752650
v -0.260010 0.120000 1.684500
v -1.048710 0.120000 1.363320
v -1.494070 0.120000 0.862690
v -1.494070 0.120000 0.297310
v -1.048710 0.120000 -0.203320
v -0.260010 0.120000 -0.524500
v 0.691340 0.120000 -0.592650
v 1.587410 0.120000 -0.392160
v 2.222900 0.120000 0.031040
v 2.452250 0.220000 0.580000
v 2.222900 0.220000 1.128960
v 1.587410 0.220000 1.552160
v 0.691340 0.220000 1.752650
v -0.260010 0.220000 1.684500
v -1.048710 0.220000 1.363320
v -1.494070 0.220000 0.862690
v -1.494070 0.220000 0.297310
v -1.048710 0.220000 -0.203320
v -0.260010 0.220000 -0.524500
v 0.691340 0.220000 -0.592650
v 1.587410 0.220000 -0.392160
v 2.222900 0.220000 0.031040
v 0.450000 0.270000 0.580000
v 3.100000 -0.000000 -1.200000
v 4.832050 0.040000 -1.200000
v 4.660520 0.040000 -0.655160
v 4.179920 0.040000 -0.218230
v 3.485420 0.040000 0.024250
v 2.714580 0.040000 0.024250
v 2.020080 0.040000 -0.218230
v 1.539480 0.040000 -0.655160
v 1.367950 0.040000 -1.200000
v 1.539480 0.040000 -1.744840
v 2.020080 0.040000 -2.181770
v 2.714580 0.040000 -2.424250
v 3.485420 0.040000 -2.424250
v 4.179920 0.040000 -2.181770
v 4.660520 0.040000 -1.744840
v 4.832050 0.120000 -1.200000
v 4.660520 0.120000 -0.655160
v 4.179920 0.120000 -0.218230
v 3.485420 0.120000 0.024250
v 2.714580 0.120000 0.024250
v 2.020080 0.120000 -0.218230
v 1.539480 0.120000 -0.655160
v 1.367950 0.120000 -1.200000
v 1.539480 0.120000 -1.744840
v 2.020080 0.120000 -2.181770
v 2.714580 0.120000 -2.424250
v 3.485420 0.120000 -2.424250
v 4.179920 0.120000 -2.181770
v 4.660520 0.120000 -1.744840
v 3.100000 0.160000 -1.200000
v 3.350000 0.070000 -1.320000
v 4.527790 0.120000 -1.320000
v 4.392890 0.120000 -0.958190
v 4.019060 0.120000 -0.679260
v 3.491970 0.120000 -0.547120
v 2.932350 0.120000 -0.592040
v 2.468410 0.120000 -0.803720
v 2.206430 0.120000 -1.133680
v 2.206430 0.120000 -1.506320
v 2.468410 0.120000 -1.836280
v 2.932350 0.120000 -2.047960
v 3.491970 0.120000 -2.092880
v 4.019060 0.120000 -1.960740
v 4.392890 0.120000 -1.681810
v 4.527790 0.220000 -1.320000
v 4.392890 0.220000 -0.958190
v 4.019060 0.220000 -0.679260
v 3.491970 0.220000 -0.547120
v 2.932350 0.220000 -0.592040
v 2.468410 0.220000 -0.803720
v 2.206430 0.220000 -1.133680
v 2.206430 0.220000 -1.506320
v 2.468410 0.220000 -1.836280
v 2.932350 0.220000 -2.047960
v 3.491970 0.220000 -2.092880
v 4.019060 0.220000 -1.960740
v 4.392890 0.220000 -1.681810
v 3.350000 0.270000 -1.320000
v -3.400000 0.130000 -0.600000
v -2.905030 0.223730 -0.600000
v -3.020830 0.223730 -0.363650
v -3.314050 0.223730 -0.237890
v -3.647490 0.223730 -0.281570
v -3.865120 0.223730 -0.474240
v -3.865120 0.223730 -0.725760
v -3.647490 0.223730 -0.918430
v -3.314050 0.223730 -0.962110
v -3.020830 0.223730 -0.836350
v -2.700000 0.450000 -0.600000
v -2.863770 0.450000 -0.265750
v -3.278450 0.450000 -0.087900
v -3.750000 0.450000 -0.149670
v -4.057780 0.450000 -0.422150
v -4.057780 0.450000 -0.777850
v -3.750000 0.450000 -1.050330
v -3.278450 0.450000 -1.112100
v -2.863770 0.450000 -0.934250
v -2.905030 0.676270 -0.600000
v -3.020830 0.676270 -0.363650
v -3.314050 0.676270 -0.237890
v -3.647490 0.676270 -0.281570
v -3.865120 0.676270 -0.474240
v -3.865120 0.676270 -0.725760
v -3.647490 0.676270 -0.918430
v -3.314050 0.676270 -0.962110
v -3.020830 0.676270 -0.836350
v -3.400000 0.770000 -0.600000
v -3.400000 0.440000 -0.600000
v -3.145390 0.525000 -0.600000
v -3.219960 0.525000 -0.466260
v -3.400000 0.525000 -0.410860
v -3.580040 0.525000 -0.466260
v -3.654610 0.525000 -0.600000
v -3.580040 0.525000 -0.733740
v -3.400000 0.525000 -0.789140
v -3.219960 0.525000 -0.733740
v -3.145390 0.695000 -0.600000
v -3.219960 0.695000 -0.466260
v -3.400000 0.695000 -0.410860
v -3.580040 0.695000 -0.466260
v -3.654610 0.695000 -0.600000
v -3.580040 0.695000 -0.733740
v -3.400000 0.695000 -0.789140
v -3.219960 0.695000 -0.733740
v -3.400000 0.780000 -0.600000
v -1.000000 0.130000 0.700000
v -0.611090 0.223730 0.700000
v -0.702080 0.223730 0.890900
v -0.932470 0.223730 0.992470
v -1.194450 0.223730 0.957200
v -1.365450 0.223730 0.801570
v -1.365450 0.223730 0.598430
v -1.194450 0.223730 0.442800
v -0.932470 0.223730 0.407530
v -0.702080 0.223730 0.509100
v -0.450000 0.450000 0.700000
v -0.578680 0.450000 0.969970
v -0.904490 0.450000 1.113620
v -1.275000 0.450000 1.063730
v -1.516830 0.450000 0.843650
v -1.516830 0.450000 0.556350
v -1.275000 0.450000 0.336270
v -0.904490 0.450000 0.286380
v -0.578680 0.450000 0.430030
v -0.611090 0.676270 0.700000
v -0.702080 0.676270 0.890900
v -0.932470 0.676270 0.992470
v -1.194450 0.676270 0.957200
v -1.365450 0.676270 0.801570
v -1.365450 0.676270 0.598430
v -1.194450 0.676270 0.442800
v -0.932470 0.676270 0.407530
v -0.702080 0.676270 0.509100
v -1.000000 0.770000 0.700000
v -1.000000 0.440000 0.700000
v -0.799950 0.525000 0.700000
v -0.858540 0.525000 0.808020
v -1.000000 0.525000 0.852770
v -1.141460 0.525000 0.808020
v -1.200050 0.525000 0.700000
v -1.141460 0.525000 0.591980
v -1.000000 0.525000 0.547230
v -0.858540 0.525000 0.591980
v -0.799950 0.695000 0.700000
v -0.858540 0.695000 0.808020
v -1.000000 0.695000 0.852770
v -1.141460 0.695000 0.808020
v -1.200050 0.695000 0.700000
v -1.141460 0.695000 0.591980
v -1.000000 0.695000 0.547230
v -0.858540 0.695000 0.591980
v -1.000000 0.780000 0.700000
v 1.200000 0.130000 0.250000
v 1.836400 0.223730 0.250000
v 1.687510 0.223730 0.531800
v 1.310510 0.223730 0.681750
v 0.881800 0.223730 0.629670
v 0.601980 0.223730 0.399940
v 0.601980 0.223730 0.100060
v 0.881800 0.223730 -0.129670
v 1.310510 0.223730 -0.181750
v 1.687510 0.223730 -0.031800
v 2.100000 0.450000 0.250000
v 1.889440 0.450000 0.648530
v 1.356280 0.450000 0.860580
v 0.750000 0.450000 0.786940
v 0.354280 0.450000 0.462050
v 0.354280 0.450000 0.037950
v 0.750000 0.450000 -0.286940
v 1.356280 0.450000 -0.360580
v 1.889440 0.450000 -0.148530
v 1.836400 0.676270 0.250000
v 1.687510 0.676270 0.531800
v 1.310510 0.676270 0.681750
v 0.881800 0.676270 0.629670
v 0.601980 0.676270 0.399940
v 0.601980 0.676270 0.100060
v 0.881800 0.676270 -0.129670
v 1.310510 0.676270 -0.181750
v 1.687510 0.676270 -0.031800
v 1.200000 0.770000 0.250000
v 1.200000 0.440000 0.250000
v 1.527360 0.525000 0.250000
v 1.431480 0.525000 0.409460
v 1.200000 0.525000 0.475510
v 0.968520 0.525000 0.409460
v 0.872640 0.525000 0.250000
v 0.968520 0.525000 0.090540
v 1.200000 0.525000 0.024490
v 1.431480 0.525000 0.090540
v 1.527360 0.695000 0.250000
v 1.431480 0.695000 0.409460
v 1.200000 0.695000 0.475510
v 0.968520 0.695000 0.409460
v 0.872640 0.695000 0.250000
v 0.968520 0.695000 0.090540
v 1.200000 0.695000 0.024490
v 1.431480 0.695000 0.090540
v 1.200000 0.780000 0.250000
v 3.400000 0.130000 -1.250000
v 3.838410 0.223730 -1.250000
v 3.735840 0.223730 -1.031830
v 3.476130 0.223730 -0.915750
v 3.180800 0.223730 -0.956060
v 2.988030 0.223730 -1.133910
v 2.988030 0.223730 -1.366090
v 3.180800 0.223730 -1.543940
v 3.476130 0.223730 -1.584250
v 3.735840 0.223730 -1.468170
v 4.020000 0.450000 -1.250000
v 3.874950 0.450000 -0.941460
v 3.507660 0.450000 -0.777290
v 3.090000 0.450000 -0.834310
v 2.817390 0.450000 -1.085830
v 2.817390 0.450000 -1.414170
v 3.090000 0.450000 -1.665690
v 3.507660 0.450000 -1.722710
v 3.874950 0.450000 -1.558540
v 3.838410 0.676270 -1.250000
v 3.735840 0.676270 -1.031830
v 3.476130 0.676270 -0.915750
v 3.180800 0.676270 -0.956060
v 2.988030 0.676270 -1.133910
v 2.988030 0.676270 -1.366090
v 3.180800 0.676270 -1.543940
v 3.476130 0.676270 -1.584250
v 3.735840 0.676270 -1.468170
v 3.400000 0.770000 -1.250000
v 3.400000 0.440000 -1.250000
v 3.625510 0.525000 -1.250000
v 3.559460 0.525000 -1.126550
v 3.400000 0.525000 -1.075410
v 3.240540 0.525000 -1.126550
v 3.174490 0.525000 -1.250000
v 3.240540 0.525000 -1.373450
v 3.400000 0.525000 -1.424590
v 3.559460 0.525000 -1.373450
v 3.625510 0.695000 -1.250000
v 3.559460 0.695000 -1.126550
v 3.400000 0.695000 -1.075410
v 3.240540 0.695000 -1.126550
v 3.174490 0.695000 -1.250000
v 3.240540 0.695000 -1.373450
v 3.400000 0.695000 -1.424590
v 3.559460 0.695000 -1.373450
v 3.400000 0.780000 -1.250000
vn -0.0000 -1.0000 -0.0000
vn 0.7721 -0.6355 -0.0000
vn 0.6299 -0.6453 0.4323
vn 0.3634 -0.6590 0.6585
vn 0.1157 -0.6654 0.7375
vn -0.1157 -0.6654 0.7375
vn -0.3634 -0.6590 0.6585
vn -0.6299 -0.6453 0.4323
vn -0.7721 -0.6355 -0.0000
vn -0.6299 -0.6453 -0.4323
vn -0.3634 -0.6590 -0.6585
vn -0.1157 -0.6654 -0.7375
vn 0.1157 -0.6654 -0.7375
vn 0.3634 -0.6590 -0.6585
vn 0.6299 -0.6453 -0.4323
vn 0.7721 0.6355 -0.0000
vn 0.6299 0.6453 0.4323
vn 0.3634 0.6590 0.6585
vn 0.1157 0.6654 0.7375
vn -0.1157 0.6654 0.7375
vn -0.3634 0.6590 0.6585
vn -0.6299 0.6453 0.4323
vn -0.7721 0.6355 -0.0000
vn -0.6299 0.6453 -0.4323
vn -0.3634 0.6590 -0.6585
vn -0.1157 0.6654 -0.7375
vn 0.1157 0.6654 -0.7375
vn 0.3634 0.6590 -0.6585
vn 0.6299 0.6453 -0.4323
vn -0.0000 1.0000 -0.0000
vn 0.7832 -0.6217 -0.0000
vn 0.6019 -0.6362 0.4826
vn 0.3060 -0.6525 0.6933
vn 0.0579 -0.6575 0.7512
vn -0.1770 -0.6560 0.7337
vn -0.4496 -0.6459 0.6170
vn -0.7310 -0.6262 0.2712
vn -0.7310 -0.6262 -0.2712
vn -0.4496 -0.6459 -0.6170
vn -0.1770 -0.6560 -0.7337
vn 0.0579 -0.6575 -0.7512
vn 0.3060 -0.6525 -0.6933
vn 0.6019 -0.6362 -0.4826
vn 0.7832 0.6217 -0.0000
vn 0.6019 0.6362 0.4826
vn 0.3060 0.6525 0.6933
vn 0.0579 0.6575 0.7512
vn -0.1770 0.6560 0.7337
vn -0.4496 0.6459 0.6170
vn -0.7310 0.6262 0.2712
vn -0.7310 0.6262 -0.2712
vn -0.4496 0.6459 -0.6170
vn -0.1770 0.6560 -0.7337
vn 0.0579 0.6575 -0.7512
vn 0.3060 0.6525 -0.6933
vn 0.6019 0.6362 -0.4826
vn 0.7725 -0.6350 -0.0000
vn 0.6241 -0.6460 0.4395
vn 0.3548 -0.6610 0.6612
vn 0.1122 -0.6678 0.7358
vn -0.1122 -0.6678 0.7358
vn -0.3548 -0.6610 0.6612
vn -0.6241 -0.6460 0.4396
vn -0.7725 -0.6350 -0.0000
vn -0.6241 -0.6460 -0.4395
vn -0.3548 -0.6610 -0.6612
vn -0.1122 -0.6678 -0.7358
vn 0.1122 -0.6678 -0.7358
vn 0.3548 -0.6610 -0.6612
vn 0.6241 -0.6460 -0.4396
vn 0.7725 0.6350 -0.0000
vn 0.6241 0.6460 0.4396
vn 0.3548 0.6610 0.6612
vn 0.1122 0.6678 0.7358
vn -0.1122 0.6678 0.7358
vn -0.3548 0.6610 0.6612
vn -0.6241 0.6460 0.4395
vn -0.7725 0.6350 -0.0000
vn -0.6241 0.6460 -0.4396
vn -0.3548 0.6610 -0.6612
vn -0.1122 0.6678 -0.7358
vn 0.1122 0.6678 -0.7358
vn 0.3548 0.6610 -0.6612
vn 0.6241 0.6460 -0.4395
vn 0.7830 -0.6220 -0.0000
vn 0.5946 -0.6382 0.4890
vn 0.2976 -0.6560 0.6936
vn 0.0560 -0.6615 0.7478
vn -0.1714 -0.6599 0.7315
vn -0.4401 -0.6489 0.6207
vn -0.7283 -0.6271 0.2764
vn -0.7283 -0.6271 -0.2764
vn -0.4401 -0.6489 -0.6207
vn -0.1714 -0.6599 -0.7315
vn 0.0560 -0.6615 -0.7478
vn 0.2976 -0.6560 -0.6936
vn 0.5946 -0.6382 -0.4890
vn 0.7830 0.6220 -0.0000
vn 0.5946 0.6382 0.4890
vn 0.2976 0.6560 0.6936
vn 0.0560 0.6615 0.7478
vn -0.1714 0.6599 0.7315
vn -0.4401 0.6489 0.6207
vn -0.7283 0.6271 0.2764
vn -0.7283 0.6271 -0.2764
vn -0.4401 0.6489 -0.6207
vn -0.1714 0.6599 -0.7315
vn 0.0560 0.6615 -0.7478
vn 0.2976 0.6560 -0.6936
vn 0.5946 0.6382 -0.4890
vn 0.7701 -0.6380 -0.0000
vn 0.6442 -0.6448 0.4114
vn 0.3868 -0.6554 0.6487
vn 0.1257 -0.6608 0.7400
vn -0.1257 -0.6608 0.7400
vn -0.3868 -0.6554 0.6487
vn -0.6442 -0.6448 0.4114
vn -0.7701 -0.6380 -0.0000
vn -0.6442 -0.6448 -0.4114
vn -0.3868 -0.6554 -0.6487
vn -0.1257 -0.6608 -0.7400
vn 0.1257 -0.6608 -0.7400
vn 0.3868 -0.6554 -0.6487
vn 0.6442 -0.6448 -0.4114
vn 0.7701 0.6380 -0.0000
vn 0.6442 0.6448 0.4114
vn 0.3868 0.6554 0.6487
vn 0.1257 0.6608 0.7400
vn -0.1257 0.6608 0.7400
vn -0.3868 0.6554 0.6487
vn -0.6442 0.6448 0.4114
vn -0.7701 0.6380 -0.0000
vn -0.6442 0.6448 -0.4114
vn -0.3868 0.6554 -0.6487
vn -0.1257 0.6608 -0.7400
vn 0.1257 0.6608 -0.7400
vn 0.3868 0.6554 -0.6487
vn 0.6442 0.6448 -0.4114
vn 0.7823 -0.6229 -0.0000
vn 0.6198 -0.6336 0.4631
vn 0.3285 -0.6464 0.6886
vn 0.0631 -0.6507 0.7567
vn -0.1921 -0.6495 0.7357
vn -0.4741 -0.6411 0.6035
vn -0.7365 -0.6261 0.2560
vn -0.7365 -0.6261 -0.2560
vn -0.4741 -0.6411 -0.6035
vn -0.1921 -0.6495 -0.7357
vn 0.0631 -0.6507 -0.7567
vn 0.3286 -0.6464 -0.6886
vn 0.6198 -0.6336 -0.4631
vn 0.7823 0.6229 -0.0000
vn 0.6198 0.6336 0.4631
vn 0.3286 0.6464 0.6886
vn 0.0631 0.6507 0.7567
vn -0.1921 0.6495 0.7357
vn -0.4741 0.6411 0.6035
vn -0.7365 0.6261 0.2560
vn -0.7365 0.6261 -0.2560
vn -0.4741 0.6411 -0.6035
vn -0.1921 0.6495 -0.7357
vn 0.0631 0.6507 -0.7567
vn 0.3285 0.6464 -0.6886
vn 0.6198 0.6336 -0.4631
vn 0.5524 -0.8336 -0.0000
vn 0.3874 -0.8138 0.4331
vn 0.0801 -0.7910 0.6066
vn -0.2384 -0.7997 0.5511
vn -0.5054 -0.8276 0.2443
vn -0.5054 -0.8276 -0.2443
vn -0.2384 -0.7997 -0.5511
vn 0.0801 -0.7910 -0.6066
vn 0.3874 -0.8138 -0.4331
vn 1.0000 -0.0000 -0.0000
vn 0.7101 -0.0000 0.7041
vn 0.1449 -0.0000 0.9894
vn -0.4346 -0.0000 0.9006
vn -0.9206 -0.0000 0.3904
vn -0.9206 -0.0000 -0.3904
vn -0.4346 -0.0000 -0.9006
vn 0.1449 -0.0000 -0.9894
vn 0.7101 -0.0000 -0.7041
vn 0.5524 0.8336 -0.0000
vn 0.3874 0.8138 0.4331
vn 0.0801 0.7910 0.6066
vn -0.2384 0.7997 0.5511
vn -0.5054 0.8276 0.2443
vn -0.5054 0.8276 -0.2443
vn -0.2384 0.7997 -0.5511
vn 0.0801 0.7910 -0.6066
vn 0.3874 0.8138 -0.4331
vn 0.8594 -0.5113 -0.0000
vn 0.5475 -0.5101 0.6633
vn -0.0000 -0.5012 0.8653
vn -0.5475 -0.5101 0.6633
vn -0.8594 -0.5113 -0.0000
vn -0.5475 -0.5101 -0.6633
vn -0.0000 -0.5012 -0.8653
vn 0.5475 -0.5101 -0.6633
vn 0.8594 0.5113 -0.0000
vn 0.5475 0.5101 0.6633
vn -0.0000 0.5012 0.8653
vn -0.5475 0.5101 0.6633
vn -0.8594 0.5113 -0.0000
vn -0.5475 0.5101 -0.6633
vn -0.0000 0.5012 -0.8653
vn 0.5475 0.5101 -0.6633
vn 0.6203 -0.7844 -0.0000
vn 0.4387 -0.7655 0.4706
vn 0.0913 -0.7424 0.6637
vn -0.2711 -0.7513 0.6016
vn -0.5690 -0.7789 0.2639
vn -0.5690 -0.7789 -0.2639
vn -0.2711 -0.7513 -0.6016
vn 0.0913 -0.7424 -0.6637
vn 0.4387 -0.7655 -0.4706
vn 0.7133 -0.0000 0.7009
vn 0.1466 -0.0000 0.9892
vn -0.4385 -0.0000 0.8987
vn -0.9216 -0.0000 0.3882
vn -0.9216 -0.0000 -0.3882
vn -0.4385 -0.0000 -0.8987
vn 0.1466 -0.0000 -0.9892
vn 0.7133 -0.0000 -0.7009
vn 0.6203 0.7844 -0.0000
vn 0.4387 0.7655 0.4706
vn 0.0913 0.7424 0.6637
vn -0.2711 0.7513 0.6016
vn -0.5690 0.7789 0.2639
vn -0.5690 0.7789 -0.2639
vn -0.2711 0.7513 -0.6016
vn 0.0913 0.7424 -0.6637
vn 0.4387 0.7655 -0.4706
vn 0.8740 -0.4859 -0.0000
vn 0.5651 -0.4803 0.6708
vn -0.0000 -0.4684 0.8835
vn -0.5651 -0.4803 0.6708
vn -0.8740 -0.4859 -0.0000
vn -0.5651 -0.4803 -0.6708
vn -0.0000 -0.4684 -0.8835
vn 0.5651 -0.4803 -0.6708
vn 0.8740 0.4859 -0.0000
vn 0.5651 0.4803 0.6708
vn -0.0000 0.4684 0.8835
vn -0.5651 0.4803 0.6708
vn -0.8740 0.4859 -0.0000
vn -0.5651 0.4803 -0.6708
vn -0.0000 0.4684 -0.8835
vn 0.5651 0.4803 -0.6708
vn 0.4804 -0.8770 -0.0000
vn 0.3289 -0.8539 0.4033
vn 0.0668 -0.8292 0.5549
vn -0.1999 -0.8384 0.5071
vn -0.4361 -0.8698 0.2307
vn -0.4361 -0.8698 -0.2307
vn -0.1999 -0.8384 -0.5071
vn 0.0668 -0.8292 -0.5549
vn 0.3289 -0.8539 -0.4033
vn 0.6976 -0.0000 0.7165
vn 0.1389 -0.0000 0.9903
vn -0.4204 -0.0000 0.9073
vn -0.9168 -0.0000 0.3994
vn -0.9168 -0.0000 -0.3994
vn -0.4204 -0.0000 -0.9073
vn 0.1389 -0.0000 -0.9903
vn 0.6976 -0.0000 -0.7165
vn 0.4804 0.8770 -0.0000
vn 0.3289 0.8539 0.4033
vn 0.0668 0.8292 0.5549
vn -0.1999 0.8384 0.5071
vn -0.4361 0.8698 0.2307
vn -0.4361 0.8698 -0.2307
vn -0.1999 0.8384 -0.5071
vn 0.0668 0.8292 -0.5549
vn 0.3289 0.8539 -0.4033
vn 0.8482 -0.5297 -0.0000
vn 0.5212 -0.5339 0.6658
vn -0.0000 -0.5266 0.8501
vn -0.5212 -0.5339 0.6658
vn -0.8482 -0.5297 -0.0000
vn -0.5212 -0.5339 -0.6658
vn -0.0000 -0.5266 -0.8501
vn 0.5212 -0.5339 -0.6658
vn 0.8482 0.5297 -0.0000
vn 0.5212 0.5339 0.6658
vn -0.0000 0.5266 0.8501
vn -0.5212 0.5339 0.6658
vn -0.8482 0.5297 -0.0000
vn -0.5212 0.5339 -0.6658
vn -0.0000 0.5266 -0.8501
vn 0.5212 0.5339 -0.6658
vn 0.5859 -0.8104 -0.0000
vn 0.4164 -0.7931 0.4446
vn 0.0870 -0.7723 0.6293
vn -0.2581 -0.7802 0.5697
vn -0.5383 -0.8053 0.2486
vn -0.5383 -0.8053 -0.2486
vn -0.2581 -0.7802 -0.5697
vn 0.0870 -0.7723 -0.6293
vn 0.4164 -0.7931 -0.4446
vn 0.7173 -0.0000 0.6968
vn 0.1484 -0.0000 0.9889
vn -0.4429 -0.0000 0.8966
vn -0.9230 -0.0000 0.3849
vn -0.9230 -0.0000 -0.3849
vn -0.4429 -0.0000 -0.8966
vn 0.1484 -0.0000 -0.9889
vn 0.7173 -0.0000 -0.6968
vn 0.5859 0.8104 -0.0000
vn 0.4164 0.7931 0.4446
vn 0.0870 0.7723 0.6293
vn -0.2581 0.7802 0.5697
vn -0.5383 0.8053 0.2486
vn -0.5383 0.8053 -0.2486
vn -0.2581 0.7802 -0.5697
vn 0.0870 0.7723 -0.6293
vn 0.4164 0.7931 -0.4446
vn 0.8657 -0.5005 -0.0000
vn 0.5614 -0.4973 0.6614
vn -0.0000 -0.4884 0.8726
vn -0.5614 -0.4973 0.6614
vn -0.8657 -0.5005 -0.0000
vn -0.5614 -0.4973 -0.6614
vn -0.0000 -0.4884 -0.8726
vn 0.5614 -0.4973 -0.6614
vn 0.8657 0.5005 -0.0000
vn 0.5614 0.4973 0.6614
vn -0.0000 0.4884 0.8726
vn -0.5614 0.4973 0.6614
vn -0.8657 0.5005 -0.0000
vn -0.5614 0.4973 -0.6614
vn -0.0000 0.4884 -0.8726
vn 0.5614 0.4973 -0.6614
s 1
usemtl verdant_anoxic
f 1//1 2//2 3//3
f 1//1 3//3 4//4
f 1//1 4//4 5//5
f 1//1 5//5 6//6
f 1//1 6//6 7//7
f 1//1 7//7 8//8
f 1//1 8//8 9//9
f 1//1 9//9 10//10
f 1//1 10//10 11//11
f 1//1 11//11 12//12
f 1//1 12//12 13//13
f 1//1 13//13 14//14
f 1//1 14//14 15//15
f 1//1 15//15 2//2
f 16//16 3//3 2//2
f 17//17 4//4 3//3
f 18//18 5//5 4//4
f 19//19 6//6 5//5
f 20//20 7//7 6//6
f 21//21 8//8 7//7
f 22//22 9//9 8//8
f 23//23 10//10 9//9
f 24//24 11//11 10//10
f 25//25 12//12 11//11
f 26//26 13//13 12//12
f 27//27 14//14 13//13
f 28//28 15//15 14//14
f 29//29 2//2 15//15
f 16//16 30//30 17//17
f 17//17 30//30 18//18
f 18//18 30//30 19//19
f 19//19 30//30 20//20
f 20//20 30//30 21//21
f 21//21 30//30 22//22
f 22//22 30//30 23//23
f 23//23 30//30 24//24
f 24//24 30//30 25//25
f 25//25 30//30 26//26
f 26//26 30//30 27//27
f 27//27 30//30 28//28
f 28//28 30//30 29//29
f 29//29 30//30 16//16
f 59//1 60//57 61//58
f 59//1 61//58 62//59
f 59//1 62//59 63//60
f 59//1 63//60 64//61
f 59//1 64//61 65//62
f 59//1 65//62 66//63
f 59//1 66//63 67//64
f 59//1 67//64 68//65
f 59//1 68//65 69//66
f 59//1 69//66 70//67
f 59//1 70//67 71//68
f 59//1 71//68 72//69
f 59//1 72//69 73//70
f 59//1 73//70 60//57
f 74//71 61//58 60//57
f 75//72 62//59 61//58
f 76//73 63//60 62//59
f 77//74 64//61 63//60
f 78//75 65//62 64//61
f 79//76 66//63 65//62
f 80//77 67//64 66//63
f 81//78 68//65 67//64
f 82//79 69//66 68//65
f 83//80 70//67 69//66
f 84//81 71//68 70//67
f 85//82 72//69 71//68
f 86//83 73//70 72//69
f 87//84 60//57 73//70
f 74//71 88//30 75//72
f 75//72 88//30 76//73
f 76//73 88//30 77//74
f 77//74 88//30 78//75
f 78//75 88//30 79//76
f 79//76 88//30 80//77
f 80//77 88//30 81//78
f 81//78 88//30 82//79
f 82//79 88//30 83//80
f 83//80 88//30 84//81
f 84//81 88//30 85//82
f 85//82 88//30 86//83
f 86//83 88//30 87//84
f 87//84 88//30 74//71
f 117//1 118//111 119//112
f 117//1 119//112 120//113
f 117//1 120//113 121//114
f 117//1 121//114 122//115
f 117//1 122//115 123//116
f 117//1 123//116 124//117
f 117//1 124//117 125//118
f 117//1 125//118 126//119
f 117//1 126//119 127//120
f 117//1 127//120 128//121
f 117//1 128//121 129//122
f 117//1 129//122 130//123
f 117//1 130//123 131//124
f 117//1 131//124 118//111
f 132//125 119//112 118//111
f 133//126 120//113 119//112
f 134//127 121//114 120//113
f 135//128 122//115 121//114
f 136//129 123//116 122//115
f 137//130 124//117 123//116
f 138//131 125//118 124//117
f 139//132 126//119 125//118
f 140//133 127//120 126//119
f 141//134 128//121 127//120
f 142//135 129//122 128//121
f 143//136 130//123 129//122
f 144//137 131//124 130//123
f 145//138 118//111 131//124
f 132//125 146//30 133//126
f 133//126 146//30 134//127
f 134//127 146//30 135//128
f 135//128 146//30 136//129
f 136//129 146//30 137//130
f 137//130 146//30 138//131
f 138//131 146//30 139//132
f 139//132 146//30 140//133
f 140//133 146//30 141//134
f 141//134 146//30 142//135
f 142//135 146//30 143//136
f 143//136 146//30 144//137
f 144//137 146//30 145//138
f 145//138 146//30 132//125
f 204//1 205//192 206//193
f 204//1 206//193 207//194
f 204//1 207//194 208//195
f 204//1 208//195 209//196
f 204//1 209//196 210//197
f 204//1 210//197 211//198
f 204//1 211//198 212//199
f 204//1 212//199 205//192
f 213//200 206//193 205//192
f 214//201 207//194 206//193
f 215//202 208//195 207//194
f 216//203 209//196 208//195
f 217//204 210//197 209//196
f 218//205 211//198 210//197
f 219//206 212//199 211//198
f 220//207 205//192 212//199
f 213//200 221//30 214//201
f 214//201 221//30 215//202
f 215//202 221//30 216//203
f 216//203 221//30 217//204
f 217//204 221//30 218//205
f 218//205 221//30 219//206
f 219//206 221//30 220//207
f 220//207 221//30 213//200
f 251//1 252//234 253//235
f 251//1 253//235 254//236
f 251//1 254//236 255//237
f 251//1 255//237 256//238
f 251//1 256//238 257//239
f 251//1 257//239 258//240
f 251//1 258//240 259//241
f 251//1 259//241 252//234
f 260//242 253//235 252//234
f 261//243 254//236 253//235
f 262//244 255//237 254//236
f 263//245 256//238 255//237
f 264//246 257//239 256//238
f 265//247 258//240 257//239
f 266//248 259//241 258//240
f 267//249 252//234 259//241
f 260//242 268//30 261//243
f 261//243 268//30 262//244
f 262//244 268//30 263//245
f 263//245 268//30 264//246
f 264//246 268//30 265//247
f 265//247 268//30 266//248
f 266//248 268//30 267//249
f 267//249 268//30 260//242
f 298//1 299//276 300//277
f 298//1 300//277 301//278
f 298//1 301//278 302//279
f 298//1 302//279 303//280
f 298//1 303//280 304//281
f 298//1 304//281 305//282
f 298//1 305//282 306//283
f 298//1 306//283 299//276
f 307//284 300//277 299//276
f 308//285 301//278 300//277
f 309//286 302//279 301//278
f 310//287 303//280 302//279
f 311//288 304//281 303//280
f 312//289 305//282 304//281
f 313//290 306//283 305//282
f 314//291 299//276 306//283
f 307//284 315//30 308//285
f 308//285 315//30 309//286
f 309//286 315//30 310//287
f 310//287 315//30 311//288
f 311//288 315//30 312//289
f 312//289 315//30 313//290
f 313//290 315//30 314//291
f 314//291 315//30 307//284
f 345//1 346//318 347//319
f 345//1 347//319 348//320
f 345//1 348//320 349//321
f 345//1 349//321 350//322
f 345//1 350//322 351//323
f 345//1 351//323 352//324
f 345//1 352//324 353//325
f 345//1 353//325 346//318
f 354//326 347//319 346//318
f 355//327 348//320 347//319
f 356//328 349//321 348//320
f 357//329 350//322 349//321
f 358//330 351//323 350//322
f 359//331 352//324 351//323
f 360//332 353//325 352//324
f 361//333 346//318 353//325
f 354//326 362//30 355//327
f 355//327 362//30 356//328
f 356//328 362//30 357//329
f 357//329 362//30 358//330
f 358//330 362//30 359//331
f 359//331 362//30 360//332
f 360//332 362//30 361//333
f 361//333 362//30 354//326
f 16//16 17//17 3//3
f 17//17 18//18 4//4
f 18//18 19//19 5//5
f 19//19 20//20 6//6
f 20//20 21//21 7//7
f 21//21 22//22 8//8
f 22//22 23//23 9//9
f 23//23 24//24 10//10
f 24//24 25//25 11//11
f 25//25 26//26 12//12
f 26//26 27//27 13//13
f 27//27 28//28 14//14
f 28//28 29//29 15//15
f 29//29 16//16 2//2
f 74//71 75//72 61//58
f 75//72 76//73 62//59
f 76//73 77//74 63//60
f 77//74 78//75 64//61
f 78//75 79//76 65//62
f 79//76 80//77 66//63
f 80//77 81//78 67//64
f 81//78 82//79 68//65
f 82//79 83//80 69//66
f 83//80 84//81 70//67
f 84//81 85//82 71//68
f 85//82 86//83 72//69
f 86//83 87//84 73//70
f 87//84 74//71 60//57
f 132//125 133//126 119//112
f 133//126 134//127 120//113
f 134//127 135//128 121//114
f 135//128 136//129 122//115
f 136//129 137//130 123//116
f 137//130 138//131 124//117
f 138//131 139//132 125//118
f 139//132 140//133 126//119
f 140//133 141//134 127//120
f 141//134 142//135 128//121
f 142//135 143//136 129//122
f 143//136 144//137 130//123
f 144//137 145//138 131//124
f 145//138 132//125 118//111
f 213//200 214//201 206//193
f 214//201 215//202 207//194
f 215//202 216//203 208//195
f 216//203 217//204 209//196
f 217//204 218//205 210//197
f 218//205 219//206 211//198
f 219//206 220//207 212//199
f 220//207 213//200 205//192
f 260//242 261//243 253//235
f 261//243 262//244 254//236
f 262//244 263//245 255//237
f 263//245 264//246 256//238
f 264//246 265//247 257//239
f 265//247 266//248 258//240
f 266//248 267//249 259//241
f 267//249 260//242 252//234
f 307//284 308//285 300//277
f 308//285 309//286 301//278
f 309//286 310//287 302//279
f 310//287 311//288 303//280
f 311//288 312//289 304//281
f 312//289 313//290 305//282
f 313//290 314//291 306//283
f 314//291 307//284 299//276
f 354//326 355//327 347//319
f 355//327 356//328 348//320
f 356//328 357//329 349//321
f 357//329 358//330 350//322
f 358//330 359//331 351//323
f 359//331 360//332 352//324
f 360//332 361//333 353//325
f 361//333 354//326 346//318
usemtl verdant_anoxic
f 31//1 32//31 33//32
f 31//1 33//32 34//33
f 31//1 34//33 35//34
f 31//1 35//34 36//35
f 31//1 36//35 37//36
f 31//1 37//36 38//37
f 31//1 38//37 39//38
f 31//1 39//38 40//39
f 31//1 40//39 41//40
f 31//1 41//40 42//41
f 31//1 42//41 43//42
f 31//1 43//42 44//43
f 31//1 44//43 32//31
f 45//44 33//32 32//31
f 46//45 34//33 33//32
f 47//46 35//34 34//33
f 48//47 36//35 35//34
f 49//48 37//36 36//35
f 50//49 38//37 37//36
f 51//50 39//38 38//37
f 52//51 40//39 39//38
f 53//52 41//40 40//39
f 54//53 42//41 41//40
f 55//54 43//42 42//41
f 56//55 44//43 43//42
f 57//56 32//31 44//43
f 45//44 58//30 46//45
f 46//45 58//30 47//46
f 47//46 58//30 48//47
f 48//47 58//30 49//48
f 49//48 58//30 50//49
f 50//49 58//30 51//50
f 51//50 58//30 52//51
f 52//51 58//30 53//52
f 53//52 58//30 54//53
f 54//53 58//30 55//54
f 55//54 58//30 56//55
f 56//55 58//30 57//56
f 57//56 58//30 45//44
f 89//1 90//85 91//86
f 89//1 91//86 92//87
f 89//1 92//87 93//88
f 89//1 93//88 94//89
f 89//1 94//89 95//90
f 89//1 95//90 96//91
f 89//1 96//91 97//92
f 89//1 97//92 98//93
f 89//1 98//93 99//94
f 89//1 99//94 100//95
f 89//1 100//95 101//96
f 89//1 101//96 102//97
f 89//1 102//97 90//85
f 103//98 91//86 90//85
f 104//99 92//87 91//86
f 105//100 93//88 92//87
f 106//101 94//89 93//88
f 107//102 95//90 94//89
f 108//103 96//91 95//90
f 109//104 97//92 96//91
f 110//105 98//93 97//92
f 111//106 99//94 98//93
f 112//107 100//95 99//94
f 113//108 101//96 100//95
f 114//109 102//97 101//96
f 115//110 90//85 102//97
f 103//98 116//30 104//99
f 104//99 116//30 105//100
f 105//100 116//30 106//101
f 106//101 116//30 107//102
f 107//102 116//30 108//103
f 108//103 116//30 109//104
f 109//104 116//30 110//105
f 110//105 116//30 111//106
f 111//106 116//30 112//107
f 112//107 116//30 113//108
f 113//108 116//30 114//109
f 114//109 116//30 115//110
f 115//110 116//30 103//98
f 147//1 148//139 149//140
f 147//1 149//140 150//141
f 147//1 150//141 151//142
f 147//1 151//142 152//143
f 147//1 152//143 153//144
f 147//1 153//144 154//145
f 147//1 154//145 155//146
f 147//1 155//146 156//147
f 147//1 156//147 157//148
f 147//1 157//148 158//149
f 147//1 158//149 159//150
f 147//1 159//150 160//151
f 147//1 160//151 148//139
f 161//152 149//140 148//139
f 162//153 150//141 149//140
f 163//154 151//142 150//141
f 164//155 152//143 151//142
f 165//156 153//144 152//143
f 166//157 154//145 153//144
f 167//158 155//146 154//145
f 168//159 156//147 155//146
f 169//160 157//148 156//147
f 170//161 158//149 157//148
f 171//162 159//150 158//149
f 172//163 160//151 159//150
f 173//164 148//139 160//151
f 161//152 174//30 162//153
f 162//153 174//30 163//154
f 163//154 174//30 164//155
f 164//155 174//30 165//156
f 165//156 174//30 166//157
f 166//157 174//30 167//158
f 167//158 174//30 168//159
f 168//159 174//30 169//160
f 169//160 174//30 170//161
f 170//161 174//30 171//162
f 171//162 174//30 172//163
f 172//163 174//30 173//164
f 173//164 174//30 161//152
f 45//44 46//45 33//32
f 46//45 47//46 34//33
f 47//46 48//47 35//34
f 48//47 49//48 36//35
f 49//48 50//49 37//36
f 50//49 51//50 38//37
f 51//50 52//51 39//38
f 52//51 53//52 40//39
f 53//52 54//53 41//40
f 54//53 55//54 42//41
f 55//54 56//55 43//42
f 56//55 57//56 44//43
f 57//56 45//44 32//31
f 103//98 104//99 91//86
f 104//99 105//100 92//87
f 105//100 106//101 93//88
f 106//101 107//102 94//89
f 107//102 108//103 95//90
f 108//103 109//104 96//91
f 109//104 110//105 97//92
f 110//105 111//106 98//93
f 111//106 112//107 99//94
f 112//107 113//108 100//95
f 113//108 114//109 101//96
f 114//109 115//110 102//97
f 115//110 103//98 90//85
f 161//152 162//153 149//140
f 162//153 163//154 150//141
f 163//154 164//155 151//142
f 164//155 165//156 152//143
f 165//156 166//157 153//144
f 166//157 167//158 154//145
f 167//158 168//159 155//146
f 168//159 169//160 156//147
f 169//160 170//161 157//148
f 170//161 171//162 158//149
f 171//162 172//163 159//150
f 172//163 173//164 160//151
f 173//164 161//152 148//139
usemtl verdant_anoxic
f 175//1 176//165 177//166
f 175//1 177//166 178//167
f 175//1 178//167 179//168
f 175//1 179//168 180//169
f 175//1 180//169 181//170
f 175//1 181//170 182//171
f 175//1 182//171 183//172
f 175//1 183//172 184//173
f 175//1 184//173 176//165
f 176//165 186//175 177//166
f 177//166 187//176 178//167
f 187//176 179//168 178//167
f 188//177 180//169 179//168
f 189//178 181//170 180//169
f 181//170 191//180 182//171
f 182//171 192//181 183//172
f 192//181 184//173 183//172
f 193//182 176//165 184//173
f 194//183 186//175 185//174
f 195//184 187//176 186//175
f 187//176 197//186 188//177
f 188//177 198//187 189//178
f 198//187 190//179 189//178
f 199//188 191//180 190//179
f 200//189 192//181 191//180
f 192//181 202//191 193//182
f 193//182 194//183 185//174
f 194//183 203//30 195//184
f 195//184 203//30 196//185
f 196//185 203//30 197//186
f 197//186 203//30 198//187
f 198//187 203//30 199//188
f 199//188 203//30 200//189
f 200//189 203//30 201//190
f 201//190 203//30 202//191
f 202//191 203//30 194//183
f 222//1 223//208 224//209
f 222//1 224//209 225//210
f 222//1 225//210 226//211
f 222//1 226//211 227//212
f 222//1 227//212 228//213
f 222//1 228//213 229//214
f 222//1 229//214 230//215
f 222//1 230//215 231//216
f 222//1 231//216 223//208
f 223//208 233//217 224//209
f 224//209 234//218 225//210
f 234//218 226//211 225//210
f 235//219 227//212 226//211
f 236//220 228//213 227//212
f 228//213 238//222 229//214
f 229//214 239//223 230//215
f 239//223 231//216 230//215
f 240//224 223//208 231//216
f 241//225 233//217 232//174
f 242//226 234//218 233//217
f 234//218 244//228 235//219
f 235//219 245//229 236//220
f 245//229 237//221 236//220
f 246//230 238//222 237//221
f 247//231 239//223 238//222
f 239//223 249//233 240//224
f 240//224 241//225 232//174
f 241//225 250//30 242//226
f 242//226 250//30 243//227
f 243//227 250//30 244//228
f 244//228 250//30 245//229
f 245//229 250//30 246//230
f 246//230 250//30 247//231
f 247//231 250//30 248//232
f 248//232 250//30 249//233
f 249//233 250//30 241//225
f 269//1 270//250 271//251
f 269//1 271//251 272//252
f 269//1 272//252 273//253
f 269//1 273//253 274//254
f 269//1 274//254 275//255
f 269//1 275//255 276//256
f 269//1 276//256 277//257
f 269//1 277//257 278//258
f 269//1 278//258 270//250
f 270//250 280//259 271//251
f 271//251 281//260 272//252
f 281//260 273//253 272//252
f 282//261 274//254 273//253
f 283//262 275//255 274//254
f 275//255 285//264 276//256
f 276//256 286//265 277//257
f 286//265 278//258 277//257
f 287//266 270//250 278//258
f 288//267 280//259 279//174
f 289//268 281//260 280//259
f 281//260 291//270 282//261
f 282//261 292//271 283//262
f 292//271 284//263 283//262
f 293//272 285//264 284//263
f 294//273 286//265 285//264
f 286//265 296//275 287//266
f 287//266 288//267 279//174
f 288//267 297//30 289//268
f 289//268 297//30 290//269
f 290//269 297//30 291//270
f 291//270 297//30 292//271
f 292//271 297//30 293//272
f 293//272 297//30 294//273
f 294//273 297//30 295//274
f 295//274 297//30 296//275
f 296//275 297//30 288//267
f 316//1 317//292 318//293
f 316//1 318//293 319//294
f 316//1 319//294 320//295
f 316//1 320//295 321//296
f 316//1 321//296 322//297
f 316//1 322//297 323//298
f 316//1 323//298 324//299
f 316//1 324//299 325//300
f 316//1 325//300 317//292
f 317//292 327//301 318//293
f 318//293 328//302 319//294
f 328//302 320//295 319//294
f 329//303 321//296 320//295
f 330//304 322//297 321//296
f 322//297 332//306 323//298
f 323//298 333//307 324//299
f 333//307 325//300 324//299
f 334//308 317//292 325//300
f 335//309 327//301 326//174
f 336//310 328//302 327//301
f 328//302 338//312 329//303
f 329//303 339//313 330//304
f 339//313 331//305 330//304
f 340//314 332//306 331//305
f 341//315 333//307 332//306
f 333//307 343//317 334//308
f 334//308 335//309 326//174
f 335//309 344//30 336//310
f 336//310 344//30 337//311
f 337//311 344//30 338//312
f 338//312 344//30 339//313
f 339//313 344//30 340//314
f 340//314 344//30 341//315
f 341//315 344//30 342//316
f 342//316 344//30 343//317
f 343//317 344//30 335//309
f 176//165 185//174 186//175
f 177//166 186//175 187//176
f 187//176 188//177 179//168
f 188//177 189//178 180//169
f 189//178 190//179 181//170
f 181//170 190//179 191//180
f 182//171 191//180 192//181
f 192//181 193//182 184//173
f 193//182 185//174 176//165
f 194//183 195//184 186//175
f 195//184 196//185 187//176
f 187//176 196//185 197//186
f 188//177 197//186 198//187
f 198//187 199//188 190//179
f 199//188 200//189 191//180
f 200//189 201//190 192//181
f 192//181 201//190 202//191
f 193//182 202//191 194//183
f 223//208 232//174 233//217
f 224//209 233//217 234//218
f 234//218 235//219 226//211
f 235//219 236//220 227//212
f 236//220 237//221 228//213
f 228//213 237//221 238//222
f 229//214 238//222 239//223
f 239//223 240//224 231//216
f 240//224 232//174 223//208
f 241//225 242//226 233//217
f 242//226 243//227 234//218
f 234//218 243//227 244//228
f 235//219 244//228 245//229
f 245//229 246//230 237//221
f 246//230 247//231 238//222
f 247//231 248//232 239//223
f 239//223 248//232 249//233
f 240//224 249//233 241//225
f 270//250 279//174 280//259
f 271//251 280//259 281//260
f 281//260 282//261 273//253
f 282//261 283//262 274//254
f 283//262 284//263 275//255
f 275//255 284//263 285//264
f 276//256 285//264 286//265
f 286//265 287//266 278//258
f 287//266 279//174 270//250
f 288//267 289//268 280//259
f 289//268 290//269 281//260
f 281//260 290//269 291//270
f 282//261 291//270 292//271
f 292//271 293//272 284//263
f 293//272 294//273 285//264
f 294//273 295//274 286//265
f 286//265 295//274 296//275
f 287//266 296//275 288//267
f 317//292 326//174 327//301
f 318//293 327//301 328//302
f 328//302 329//303 320//295
f 329//303 330//304 321//296
f 330//304 331//305 322//297
f 322//297 331//305 332//306
f 323//298 332//306 333//307
f 333//307 334//308 325//300
f 334//308 326//174 317//292
f 335//309 336//310 327//301
f 336//310 337//311 328//302
f 328//302 337//311 338//312
f 329//303 338//312 339//313
f 339//313 340//314 331//305
f 340//314 341//315 332//306
f 341//315 342//316 333//307
f 333//307 342//316 343//317
f 334//308 343//317 335//309
