# Blender 5.2.1 LTS
# www.blender.org
mtllib methane_crater_b.mtl
o methane_crater_b
v 0.000000 0.000000 0.000000
v 2.771280 0.030000 -0.000000
v 2.496840 0.030000 0.826660
v 1.727870 0.030000 1.489590
v 0.616670 0.030000 1.857490
v -0.616670 0.030000 1.857490
v -1.727870 0.030000 1.489590
v -2.496840 0.030000 0.826660
v -2.771280 0.030000 -0.000000
v -2.496840 0.030000 -0.826660
v -1.727870 0.030000 -1.489590
v -0.616670 0.030000 -1.857490
v 0.616670 0.030000 -1.857490
v 1.727870 0.030000 -1.489590
v 2.496840 0.030000 -0.826660
v 2.771280 0.090000 -0.000000
v 2.496840 0.090000 0.826660
v 1.727870 0.090000 1.489590
v 0.616670 0.090000 1.857490
v -0.616670 0.090000 1.857490
v -1.727870 0.090000 1.489590
v -2.496840 0.090000 0.826660
v -2.771280 0.090000 -0.000000
v -2.496840 0.090000 -0.826660
v -1.727870 0.090000 -1.489590
v -0.616670 0.090000 -1.857490
v 0.616670 0.090000 -1.857490
v 1.727870 0.090000 -1.489590
v 2.496840 0.090000 -0.826660
v 0.000000 0.120000 -0.000000
v 2.700000 0.040000 -0.000000
v 3.230330 0.116150 -0.000000
v 3.075000 0.116150 0.290000
v 2.700000 0.116150 0.410120
v 2.325000 0.116150 0.290000
v 2.169670 0.116150 -0.000000
v 2.325000 0.116150 -0.290000
v 2.700000 0.116150 -0.410120
v 3.075000 0.116150 -0.290000
v 3.450000 0.300000 -0.000000
v 3.230330 0.300000 0.410120
v 2.700000 0.300000 0.580000
v 2.169670 0.300000 0.410120
v 1.950000 0.300000 -0.000000
v 2.169670 0.300000 -0.410120
v 2.700000 0.300000 -0.580000
v 3.230330 0.300000 -0.410120
v 3.230330 0.483850 -0.000000
v 3.075000 0.483850 0.290000
v 2.700000 0.483850 0.410120
v 2.325000 0.483850 0.290000
v 2.169670 0.483850 -0.000000
v 2.325000 0.483850 -0.290000
v 2.700000 0.483850 -0.410120
v 3.075000 0.483850 -0.290000
v 2.700000 0.560000 -0.000000
v 2.068320 0.040000 1.157020
v 2.598650 0.116150 1.157020
v 2.443320 0.116150 1.447020
v 2.068320 0.116150 1.567140
v 1.693320 0.116150 1.447020
v 1.537990 0.116150 1.157020
v 1.693320 0.116150 0.867020
v 2.068320 0.116150 0.746900
v 2.443320 0.116150 0.867020
v 2.818320 0.300000 1.157020
v 2.598650 0.300000 1.567140
v 2.068320 0.300000 1.737020
v 1.537990 0.300000 1.567140
v 1.318320 0.300000 1.157020
v 1.537990 0.300000 0.746900
v 2.068320 0.300000 0.577020
v 2.598650 0.300000 0.746900
v 2.598650 0.483850 1.157020
v 2.443320 0.483850 1.447020
v 2.068320 0.483850 1.567140
v 1.693320 0.483850 1.447020
v 1.537990 0.483850 1.157020
v 1.693320 0.483850 0.867020
v 2.068320 0.483850 0.746900
v 2.443320 0.483850 0.867020
v 2.068320 0.560000 1.157020
v 0.468850 0.040000 1.772650
v 0.999180 0.116150 1.772650
v 0.843850 0.116150 2.062650
v 0.468850 0.116150 2.182780
v 0.093850 0.116150 2.062650
v -0.061480 0.116150 1.772650
v 0.093850 0.116150 1.482650
v 0.468850 0.116150 1.362530
v 0.843850 0.116150 1.482650
v 1.218850 0.300000 1.772650
v 0.999180 0.300000 2.182780
v 0.468850 0.300000 2.352650
v -0.061480 0.300000 2.182780
v -0.281150 0.300000 1.772650
v -0.061480 0.300000 1.362530
v 0.468850 0.300000 1.192650
v 0.999180 0.300000 1.362530
v 0.999180 0.483850 1.772650
v 0.843850 0.483850 2.062650
v 0.468850 0.483850 2.182780
v 0.093850 0.483850 2.062650
v -0.061480 0.483850 1.772650
v 0.093850 0.483850 1.482650
v 0.468850 0.483850 1.362530
v 0.843850 0.483850 1.482650
v 0.468850 0.560000 1.772650
v -1.350000 0.040000 1.558850
v -0.819670 0.116150 1.558850
v -0.975000 0.116150 1.848850
v -1.350000 0.116150 1.968970
v -1.725000 0.116150 1.848850
v -1.880330 0.116150 1.558850
v -1.725000 0.116150 1.268850
v -1.350000 0.116150 1.148720
v -0.975000 0.116150 1.268850
v -0.600000 0.300000 1.558850
v -0.819670 0.300000 1.968970
v -1.350000 0.300000 2.138850
v -1.880330 0.300000 1.968970
v -2.100000 0.300000 1.558850
v -1.880330 0.300000 1.148720
v -1.350000 0.300000 0.978850
v -0.819670 0.300000 1.148720
v -0.819670 0.483850 1.558850
v -0.975000 0.483850 1.848850
v -1.350000 0.483850 1.968970
v -1.725000 0.483850 1.848850
v -1.880330 0.483850 1.558850
v -1.725000 0.483850 1.268850
v -1.350000 0.483850 1.148720
v -0.975000 0.483850 1.268850
v -1.350000 0.560000 1.558850
v -2.537170 0.040000 0.615640
v -2.006840 0.116150 0.615640
v -2.162170 0.116150 0.905640
v -2.537170 0.116150 1.025760
v -2.912170 0.116150 0.905640
v -3.067500 0.116150 0.615640
v -2.912170 0.116150 0.325640
v -2.537170 0.116150 0.205510
v -2.162170 0.116150 0.325640
v -1.787170 0.300000 0.615640
v -2.006840 0.300000 1.025760
v -2.537170 0.300000 1.195640
v -3.067500 0.300000 1.025760
v -3.287170 0.300000 0.615640
v -3.067500 0.300000 0.205510
v -2.537170 0.300000 0.035640
v -2.006840 0.300000 0.205510
v -2.006840 0.483850 0.615640
v -2.162170 0.483850 0.905640
v -2.537170 0.483850 1.025760
v -2.912170 0.483850 0.905640
v -3.067500 0.483850 0.615640
v -2.912170 0.483850 0.325640
v -2.537170 0.483850 0.205510
v -2.162170 0.483850 0.325640
v -2.537170 0.560000 0.615640
v -2.537170 0.040000 -0.615640
v -2.006840 0.116150 -0.615640
v -2.162170 0.116150 -0.325640
v -2.537170 0.116150 -0.205510
v -2.912170 0.116150 -0.325640
v -3.067500 0.116150 -0.615640
v -2.912170 0.116150 -0.905640
v -2.537170 0.116150 -1.025760
v -2.162170 0.116150 -0.905640
v -1.787170 0.300000 -0.615640
v -2.006840 0.300000 -0.205510
v -2.537170 0.300000 -0.035640
v -3.067500 0.300000 -0.205510
v -3.287170 0.300000 -0.615640
v -3.067500 0.300000 -1.025760
v -2.537170 0.300000 -1.195640
v -2.006840 0.300000 -1.025760
v -2.006840 0.483850 -0.615640
v -2.162170 0.483850 -0.325640
v -2.537170 0.483850 -0.205510
v -2.912170 0.483850 -0.325640
v -3.067500 0.483850 -0.615640
v -2.912170 0.483850 -0.905640
v -2.537170 0.483850 -1.025760
v -2.162170 0.483850 -0.905640
v -2.537170 0.560000 -0.615640
v -1.350000 0.040000 -1.558850
v -0.819670 0.116150 -1.558850
v -0.975000 0.116150 -1.268850
v -1.350000 0.116150 -1.148720
v -1.725000 0.116150 -1.268850
v -1.880330 0.116150 -1.558850
v -1.725000 0.116150 -1.848850
v -1.350000 0.116150 -1.968970
v -0.975000 0.116150 -1.848850
v -0.600000 0.300000 -1.558850
v -0.819670 0.300000 -1.148720
v -1.350000 0.300000 -0.978850
v -1.880330 0.300000 -1.148720
v -2.100000 0.300000 -1.558850
v -1.880330 0.300000 -1.968970
v -1.350000 0.300000 -2.138850
v -0.819670 0.300000 -1.968970
v -0.819670 0.483850 -1.558850
v -0.975000 0.483850 -1.268850
v -1.350000 0.483850 -1.148720
v -1.725000 0.483850 -1.268850
v -1.880330 0.483850 -1.558850
v -1.725000 0.483850 -1.848850
v -1.350000 0.483850 -1.968970
v -0.975000 0.483850 -1.848850
v -1.350000 0.560000 -1.558850
v 0.468850 0.040000 -1.772650
v 0.999180 0.116150 -1.772650
v 0.843850 0.116150 -1.482650
v 0.468850 0.116150 -1.362530
v 0.093850 0.116150 -1.482650
v -0.061480 0.116150 -1.772650
v 0.093850 0.116150 -2.062650
v 0.468850 0.116150 -2.182780
v 0.843850 0.116150 -2.062650
v 1.218850 0.300000 -1.772650
v 0.999180 0.300000 -1.362530
v 0.468850 0.300000 -1.192650
v -0.061480 0.300000 -1.362530
v -0.281150 0.300000 -1.772650
v -0.061480 0.300000 -2.182780
v 0.468850 0.300000 -2.352650
v 0.999180 0.300000 -2.182780
v 0.999180 0.483850 -1.772650
v 0.843850 0.483850 -1.482650
v 0.468850 0.483850 -1.362530
v 0.093850 0.483850 -1.482650
v -0.061480 0.483850 -1.772650
v 0.093850 0.483850 -2.062650
v 0.468850 0.483850 -2.182780
v 0.843850 0.483850 -2.062650
v 0.468850 0.560000 -1.772650
v 2.068320 0.040000 -1.157020
v 2.598650 0.116150 -1.157020
v 2.443320 0.116150 -0.867020
v 2.068320 0.116150 -0.746900
v 1.693320 0.116150 -0.867020
v 1.537990 0.116150 -1.157020
v 1.693320 0.116150 -1.447020
v 2.068320 0.116150 -1.567140
v 2.443320 0.116150 -1.447020
v 2.818320 0.300000 -1.157020
v 2.598650 0.300000 -0.746900
v 2.068320 0.300000 -0.577020
v 1.537990 0.300000 -0.746900
v 1.318320 0.300000 -1.157020
v 1.537990 0.300000 -1.567140
v 2.068320 0.300000 -1.737020
v 2.598650 0.300000 -1.567140
v 2.598650 0.483850 -1.157020
v 2.443320 0.483850 -0.867020
v 2.068320 0.483850 -0.746900
v 1.693320 0.483850 -0.867020
v 1.537990 0.483850 -1.157020
v 1.693320 0.483850 -1.447020
v 2.068320 0.483850 -1.567140
v 2.443320 0.483850 -1.447020
v 2.068320 0.560000 -1.157020
v -0.900000 0.080000 0.200000
v -0.673730 0.191300 0.200000
v -0.740000 0.191300 0.360000
v -0.900000 0.191300 0.426270
v -1.060000 0.191300 0.360000
v -1.126270 0.191300 0.200000
v -1.060000 0.191300 0.040000
v -0.900000 0.191300 -0.026270
v -0.740000 0.191300 0.040000
v -0.580000 0.460000 0.200000
v -0.673730 0.460000 0.426270
v -0.900000 0.460000 0.520000
v -1.126270 0.460000 0.426270
v -1.220000 0.460000 0.200000
v -1.126270 0.460000 -0.026270
v -0.900000 0.460000 -0.120000
v -0.673730 0.460000 -0.026270
v -0.673730 0.728700 0.200000
v -0.740000 0.728700 0.360000
v -0.900000 0.728700 0.426270
v -1.060000 0.728700 0.360000
v -1.126270 0.728700 0.200000
v -1.060000 0.728700 0.040000
v -0.900000 0.728700 -0.026270
v -0.740000 0.728700 0.040000
v -0.900000 0.840000 0.200000
v 0.500000 0.080000 -0.400000
v 0.796980 0.191300 -0.400000
v 0.710000 0.191300 -0.190000
v 0.500000 0.191300 -0.103020
v 0.290000 0.191300 -0.190000
v 0.203020 0.191300 -0.400000
v 0.290000 0.191300 -0.610000
v 0.500000 0.191300 -0.696980
v 0.710000 0.191300 -0.610000
v 0.920000 0.460000 -0.400000
v 0.796980 0.460000 -0.103020
v 0.500000 0.460000 0.020000
v 0.203020 0.460000 -0.103020
v 0.080000 0.460000 -0.400000
v 0.203020 0.460000 -0.696980
v 0.500000 0.460000 -0.820000
v 0.796980 0.460000 -0.696980
v 0.796980 0.728700 -0.400000
v 0.710000 0.728700 -0.190000
v 0.500000 0.728700 -0.103020
v 0.290000 0.728700 -0.190000
v 0.203020 0.728700 -0.400000
v 0.290000 0.728700 -0.610000
v 0.500000 0.728700 -0.696980
v 0.710000 0.728700 -0.610000
v 0.500000 0.840000 -0.400000
v 1.250000 0.080000 0.550000
v 1.440920 0.191300 0.550000
v 1.385000 0.191300 0.685000
v 1.250000 0.191300 0.740920
v 1.115000 0.191300 0.685000
v 1.059080 0.191300 0.550000
v 1.115000 0.191300 0.415000
v 1.250000 0.191300 0.359080
v 1.385000 0.191300 0.415000
v 1.520000 0.460000 0.550000
v 1.440920 0.460000 0.740920
v 1.250000 0.460000 0.820000
v 1.059080 0.460000 0.740920
v 0.980000 0.460000 0.550000
v 1.059080 0.460000 0.359080
v 1.250000 0.460000 0.280000
v 1.440920 0.460000 0.359080
v 1.440920 0.728700 0.550000
v 1.385000 0.728700 0.685000
v 1.250000 0.728700 0.740920
v 1.115000 0.728700 0.685000
v 1.059080 0.728700 0.550000
v 1.115000 0.728700 0.415000
v 1.250000 0.728700 0.359080
v 1.385000 0.728700 0.415000
v 1.250000 0.840000 0.550000
vn -0.0000 -1.0000 -0.0000
vn 0.7691 -0.6391 -0.0000
vn 0.6330 -0.6480 0.4235
vn 0.3702 -0.6612 0.6525
vn 0.1186 -0.6678 0.7349
vn -0.1186 -0.6678 0.7349
vn -0.3702 -0.6612 0.6525
vn -0.6330 -0.6480 0.4235
vn -0.7691 -0.6391 -0.0000
vn -0.6330 -0.6480 -0.4235
vn -0.3702 -0.6612 -0.6525
vn -0.1186 -0.6678 -0.7349
vn 0.1186 -0.6678 -0.7349
vn 0.3702 -0.6612 -0.6525
vn 0.6330 -0.6480 -0.4235
vn 0.7691 0.6391 -0.0000
vn 0.6330 0.6480 0.4235
vn 0.3702 0.6612 0.6525
vn 0.1186 0.6678 0.7349
vn -0.1186 0.6678 0.7349
vn -0.3702 0.6612 0.6525
vn -0.6330 0.6480 0.4235
vn -0.7691 0.6391 -0.0000
vn -0.6330 0.6480 -0.4235
vn -0.3702 0.6612 -0.6525
vn -0.1186 0.6678 -0.7349
vn 0.1186 0.6678 -0.7349
vn 0.3702 0.6612 -0.6525
vn 0.6330 0.6480 -0.4235
vn -0.0000 1.0000 -0.0000
vn 0.4734 -0.8808 -0.0000
vn 0.3073 -0.8637 0.3994
vn -0.0000 -0.8493 0.5278
vn -0.3073 -0.8637 0.3994
vn -0.4734 -0.8808 -0.0000
vn -0.3073 -0.8637 -0.3994
vn -0.0000 -0.8493 -0.5278
vn 0.3073 -0.8637 -0.3994
vn 1.0000 -0.0000 -0.0000
vn 0.6630 -0.0000 0.7486
vn -0.0000 -0.0000 1.0000
vn -0.6630 -0.0000 0.7486
vn -1.0000 -0.0000 -0.0000
vn -0.6630 -0.0000 -0.7486
vn -0.0000 -0.0000 -1.0000
vn 0.6630 -0.0000 -0.7486
vn 0.4734 0.8808 -0.0000
vn 0.3073 0.8637 0.3994
vn -0.0000 0.8493 0.5278
vn -0.3073 0.8637 0.3994
vn -0.4734 0.8808 -0.0000
vn -0.3073 0.8637 -0.3994
vn -0.0000 0.8493 -0.5278
vn 0.3073 0.8637 -0.3994
vn 0.3073 -0.8638 0.3994
vn -0.0000 -0.8493 0.5279
vn -0.3073 -0.8638 0.3994
vn 0.3073 0.8638 0.3994
vn -0.0000 0.8493 0.5279
vn -0.3073 0.8638 0.3994
vn -0.3073 -0.8638 -0.3994
vn -0.0000 -0.8493 -0.5279
vn 0.3073 -0.8638 -0.3994
vn -0.3073 0.8638 -0.3994
vn -0.0000 0.8493 -0.5279
vn 0.3073 0.8638 -0.3994
vn 0.7847 -0.6199 -0.0000
vn 0.5548 -0.6199 0.5548
vn -0.0000 -0.6199 0.7847
vn -0.5548 -0.6199 0.5548
vn -0.7847 -0.6199 -0.0000
vn -0.5548 -0.6199 -0.5548
vn -0.0000 -0.6199 -0.7847
vn 0.5548 -0.6199 -0.5548
vn 0.7071 -0.0000 0.7071
vn -0.7071 -0.0000 0.7071
vn -0.7071 -0.0000 -0.7071
vn 0.7071 -0.0000 -0.7071
vn 0.7847 0.6199 -0.0000
vn 0.5548 0.6199 0.5548
vn -0.0000 0.6199 0.7847
vn -0.5548 0.6199 0.5548
vn -0.7847 0.6199 -0.0000
vn -0.5548 0.6199 -0.5548
vn -0.0000 0.6199 -0.7847
vn 0.5548 0.6199 -0.5548
vn 0.7262 -0.6875 -0.0000
vn 0.5135 -0.6875 0.5135
vn -0.0000 -0.6875 0.7262
vn -0.5135 -0.6875 0.5135
vn -0.7262 -0.6875 -0.0000
vn -0.5135 -0.6875 -0.5135
vn -0.0000 -0.6875 -0.7262
vn 0.5135 -0.6875 -0.5135
vn 0.7262 0.6875 -0.0000
vn 0.5135 0.6875 0.5135
vn -0.0000 0.6875 0.7262
vn -0.5135 0.6875 0.5135
vn -0.7262 0.6875 -0.0000
vn -0.5135 0.6875 -0.5135
vn -0.0000 0.6875 -0.7262
vn 0.5135 0.6875 -0.5135
vn 0.8173 -0.5762 -0.0000
vn 0.5779 -0.5762 0.5779
vn -0.0000 -0.5762 0.8173
vn -0.5779 -0.5762 0.5779
vn -0.8173 -0.5762 -0.0000
vn -0.5779 -0.5762 -0.5779
vn -0.0000 -0.5762 -0.8173
vn 0.5779 -0.5762 -0.5779
vn 0.8173 0.5762 -0.0000
vn 0.5779 0.5762 0.5779
vn -0.0000 0.5762 0.8173
vn -0.5779 0.5762 0.5779
vn -0.8173 0.5762 -0.0000
vn -0.5779 0.5762 -0.5779
vn -0.0000 0.5762 -0.8173
vn 0.5779 0.5762 -0.5779
s 1
usemtl verdant_anoxic
f 1//1 2//2 3//3
f 1//1 3//3 4//4
f 1//1 4//4 5//5
f 1//1 5//5 6//6
f 1//1 6//6 7//7
f 1//1 7//7 8//8
f 1//1 8//8 9//9
f 1//1 9//9 10//10
f 1//1 10//10 11//11
f 1//1 11//11 12//12
f 1//1 12//12 13//13
f 1//1 13//13 14//14
f 1//1 14//14 15//15
f 1//1 15//15 2//2
f 16//16 3//3 2//2
f 17//17 4//4 3//3
f 18//18 5//5 4//4
f 19//19 6//6 5//5
f 20//20 7//7 6//6
f 21//21 8//8 7//7
f 22//22 9//9 8//8
f 23//23 10//10 9//9
f 24//24 11//11 10//10
f 25//25 12//12 11//11
f 26//26 13//13 12//12
f 27//27 14//14 13//13
f 28//28 15//15 14//14
f 29//29 2//2 15//15
f 16//16 30//30 17//17
f 17//17 30//30 18//18
f 18//18 30//30 19//19
f 19//19 30//30 20//20
f 20//20 30//30 21//21
f 21//21 30//30 22//22
f 22//22 30//30 23//23
f 23//23 30//30 24//24
f 24//24 30//30 25//25
f 25//25 30//30 26//26
f 26//26 30//30 27//27
f 27//27 30//30 28//28
f 28//28 30//30 29//29
f 29//29 30//30 16//16
f 16//16 17//17 3//3
f 17//17 18//18 4//4
f 18//18 19//19 5//5
f 19//19 20//20 6//6
f 20//20 21//21 7//7
f 21//21 22//22 8//8
f 22//22 23//23 9//9
f 23//23 24//24 10//10
f 24//24 25//25 11//11
f 25//25 26//26 12//12
f 26//26 27//27 13//13
f 27//27 28//28 14//14
f 28//28 29//29 15//15
f 29//29 16//16 2//2
usemtl verdant_anoxic
f 31//1 32//31 33//32
f 31//1 33//32 34//33
f 31//1 34//33 35//34
f 31//1 35//34 36//35
f 31//1 36//35 37//36
f 31//1 37//36 38//37
f 31//1 38//37 39//38
f 31//1 39//38 32//31
f 32//31 41//40 33//32
f 33//32 42//41 34//33
f 42//41 35//34 34//33
f 43//42 36//35 35//34
f 36//35 45//44 37//36
f 37//36 46//45 38//37
f 46//45 39//38 38//37
f 47//46 32//31 39//38
f 48//47 41//40 40//39
f 49//48 42//41 41//40
f 42//41 51//50 43//42
f 43//42 52//51 44//43
f 52//51 45//44 44//43
f 53//52 46//45 45//44
f 46//45 55//54 47//46
f 47//46 48//47 40//39
f 48//47 56//30 49//48
f 49//48 56//30 50//49
f 50//49 56//30 51//50
f 51//50 56//30 52//51
f 52//51 56//30 53//52
f 53//52 56//30 54//53
f 54//53 56//30 55//54
f 55//54 56//30 48//47
f 57//1 58//31 59//32
f 57//1 59//32 60//33
f 57//1 60//33 61//34
f 57//1 61//34 62//35
f 57//1 62//35 63//36
f 57//1 63//36 64//37
f 57//1 64//37 65//38
f 57//1 65//38 58//31
f 58//31 67//40 59//32
f 59//32 68//41 60//33
f 68//41 61//34 60//33
f 69//42 62//35 61//34
f 62//35 71//44 63//36
f 63//36 72//45 64//37
f 72//45 65//38 64//37
f 73//46 58//31 65//38
f 74//47 67//40 66//39
f 75//48 68//41 67//40
f 68//41 77//50 69//42
f 69//42 78//51 70//43
f 78//51 71//44 70//43
f 79//52 72//45 71//44
f 72//45 81//54 73//46
f 73//46 74//47 66//39
f 74//47 82//30 75//48
f 75//48 82//30 76//49
f 76//49 82//30 77//50
f 77//50 82//30 78//51
f 78//51 82//30 79//52
f 79//52 82//30 80//53
f 80//53 82//30 81//54
f 81//54 82//30 74//47
f 83//1 84//31 85//55
f 83//1 85//55 86//56
f 83//1 86//56 87//57
f 83//1 87//57 88//35
f 83//1 88//35 89//36
f 83//1 89//36 90//37
f 83//1 90//37 91//38
f 83//1 91//38 84//31
f 84//31 93//40 85//55
f 85//55 94//41 86//56
f 94//41 87//57 86//56
f 95//42 88//35 87//57
f 88//35 97//44 89//36
f 89//36 98//45 90//37
f 98//45 91//38 90//37
f 99//46 84//31 91//38
f 100//47 93//40 92//39
f 101//58 94//41 93//40
f 94//41 103//60 95//42
f 95//42 104//51 96//43
f 104//51 97//44 96//43
f 105//52 98//45 97//44
f 98//45 107//54 99//46
f 99//46 100//47 92//39
f 100//47 108//30 101//58
f 101//58 108//30 102//59
f 102//59 108//30 103//60
f 103//60 108//30 104//51
f 104//51 108//30 105//52
f 105//52 108//30 106//53
f 106//53 108//30 107//54
f 107//54 108//30 100//47
f 109//1 110//31 111//32
f 109//1 111//32 112//33
f 109//1 112//33 113//34
f 109//1 113//34 114//35
f 109//1 114//35 115//61
f 109//1 115//61 116//62
f 109//1 116//62 117//63
f 109//1 117//63 110//31
f 110//31 119//40 111//32
f 111//32 120//41 112//33
f 120//41 113//34 112//33
f 121//42 114//35 113//34
f 114//35 123//44 115//61
f 115//61 124//45 116//62
f 124//45 117//63 116//62
f 125//46 110//31 117//63
f 126//47 119//40 118//39
f 127//48 120//41 119//40
f 120//41 129//50 121//42
f 121//42 130//51 122//43
f 130//51 123//44 122//43
f 131//64 124//45 123//44
f 124//45 133//66 125//46
f 125//46 126//47 118//39
f 126//47 134//30 127//48
f 127//48 134//30 128//49
f 128//49 134//30 129//50
f 129//50 134//30 130//51
f 130//51 134//30 131//64
f 131//64 134//30 132//65
f 132//65 134//30 133//66
f 133//66 134//30 126//47
f 135//1 136//31 137//32
f 135//1 137//32 138//33
f 135//1 138//33 139//34
f 135//1 139//34 140//35
f 135//1 140//35 141//61
f 135//1 141//61 142//62
f 135//1 142//62 143//63
f 135//1 143//63 136//31
f 136//31 145//40 137//32
f 137//32 146//41 138//33
f 146//41 139//34 138//33
f 147//42 140//35 139//34
f 140//35 149//44 141//61
f 141//61 150//45 142//62
f 150//45 143//63 142//62
f 151//46 136//31 143//63
f 152//47 145//40 144//39
f 153//48 146//41 145//40
f 146//41 155//50 147//42
f 147//42 156//51 148//43
f 156//51 149//44 148//43
f 157//64 150//45 149//44
f 150//45 159//66 151//46
f 151//46 152//47 144//39
f 152//47 160//30 153//48
f 153//48 160//30 154//49
f 154//49 160//30 155//50
f 155//50 160//30 156//51
f 156//51 160//30 157//64
f 157//64 160//30 158//65
f 158//65 160//30 159//66
f 159//66 160//30 152//47
f 161//1 162//31 163//55
f 161//1 163//55 164//56
f 161//1 164//56 165//57
f 161//1 165//57 166//35
f 161//1 166//35 167//36
f 161//1 167//36 168//37
f 161//1 168//37 169//38
f 161//1 169//38 162//31
f 162//31 171//40 163//55
f 163//55 172//41 164//56
f 172//41 165//57 164//56
f 173//42 166//35 165//57
f 166//35 175//44 167//36
f 167//36 176//45 168//37
f 176//45 169//38 168//37
f 177//46 162//31 169//38
f 178//47 171//40 170//39
f 179//58 172//41 171//40
f 172//41 181//60 173//42
f 173//42 182//51 174//43
f 182//51 175//44 174//43
f 183//52 176//45 175//44
f 176//45 185//54 177//46
f 177//46 178//47 170//39
f 178//47 186//30 179//58
f 179//58 186//30 180//59
f 180//59 186//30 181//60
f 181//60 186//30 182//51
f 182//51 186//30 183//52
f 183//52 186//30 184//53
f 184//53 186//30 185//54
f 185//54 186//30 178//47
f 187//1 188//31 189//55
f 187//1 189//55 190//56
f 187//1 190//56 191//57
f 187//1 191//57 192//35
f 187//1 192//35 193//36
f 187//1 193//36 194//37
f 187//1 194//37 195//38
f 187//1 195//38 188//31
f 188//31 197//40 189//55
f 189//55 198//41 190//56
f 198//41 191//57 190//56
f 199//42 192//35 191//57
f 192//35 201//44 193//36
f 193//36 202//45 194//37
f 202//45 195//38 194//37
f 203//46 188//31 195//38
f 204//47 197//40 196//39
f 205//58 198//41 197//40
f 198//41 207//60 199//42
f 199//42 208//51 200//43
f 208//51 201//44 200//43
f 209//52 202//45 201//44
f 202//45 211//54 203//46
f 203//46 204//47 196//39
f 204//47 212//30 205//58
f 205//58 212//30 206//59
f 206//59 212//30 207//60
f 207//60 212//30 208//51
f 208//51 212//30 209//52
f 209//52 212//30 210//53
f 210//53 212//30 211//54
f 211//54 212//30 204//47
f 213//1 214//31 215//32
f 213//1 215//32 216//33
f 213//1 216//33 217//34
f 213//1 217//34 218//35
f 213//1 218//35 219//61
f 213//1 219//61 220//62
f 213//1 220//62 221//63
f 213//1 221//63 214//31
f 214//31 223//40 215//32
f 215//32 224//41 216//33
f 224//41 217//34 216//33
f 225//42 218//35 217//34
f 218//35 227//44 219//61
f 219//61 228//45 220//62
f 228//45 221//63 220//62
f 229//46 214//31 221//63
f 230//47 223//40 222//39
f 231//48 224//41 223//40
f 224//41 233//50 225//42
f 225//42 234//51 226//43
f 234//51 227//44 226//43
f 235//64 228//45 227//44
f 228//45 237//66 229//46
f 229//46 230//47 222//39
f 230//47 238//30 231//48
f 231//48 238//30 232//49
f 232//49 238//30 233//50
f 233//50 238//30 234//51
f 234//51 238//30 235//64
f 235//64 238//30 236//65
f 236//65 238//30 237//66
f 237//66 238//30 230//47
f 239//1 240//31 241//32
f 239//1 241//32 242//33
f 239//1 242//33 243//34
f 239//1 243//34 244//35
f 239//1 244//35 245//36
f 239//1 245//36 246//37
f 239//1 246//37 247//38
f 239//1 247//38 240//31
f 240//31 249//40 241//32
f 241//32 250//41 242//33
f 250//41 243//34 242//33
f 251//42 244//35 243//34
f 244//35 253//44 245//36
f 245//36 254//45 246//37
f 254//45 247//38 246//37
f 255//46 240//31 247//38
f 256//47 249//40 248//39
f 257//48 250//41 249//40
f 250//41 259//50 251//42
f 251//42 260//51 252//43
f 260//51 253//44 252//43
f 261//52 254//45 253//44
f 254//45 263//54 255//46
f 255//46 256//47 248//39
f 256//47 264//30 257//48
f 257//48 264//30 258//49
f 258//49 264//30 259//50
f 259//50 264//30 260//51
f 260//51 264//30 261//52
f 261//52 264//30 262//53
f 262//53 264//30 263//54
f 263//54 264//30 256//47
f 32//31 40//39 41//40
f 33//32 41//40 42//41
f 42//41 43//42 35//34
f 43//42 44//43 36//35
f 36//35 44//43 45//44
f 37//36 45//44 46//45
f 46//45 47//46 39//38
f 47//46 40//39 32//31
f 48//47 49//48 41//40
f 49//48 50//49 42//41
f 42//41 50//49 51//50
f 43//42 51//50 52//51
f 52//51 53//52 45//44
f 53//52 54//53 46//45
f 46//45 54//53 55//54
f 47//46 55//54 48//47
f 58//31 66//39 67//40
f 59//32 67//40 68//41
f 68//41 69//42 61//34
f 69//42 70//43 62//35
f 62//35 70//43 71//44
f 63//36 71//44 72//45
f 72//45 73//46 65//38
f 73//46 66//39 58//31
f 74//47 75//48 67//40
f 75//48 76//49 68//41
f 68//41 76//49 77//50
f 69//42 77//50 78//51
f 78//51 79//52 71//44
f 79//52 80//53 72//45
f 72//45 80//53 81//54
f 73//46 81//54 74//47
f 84//31 92//39 93//40
f 85//55 93//40 94//41
f 94//41 95//42 87//57
f 95//42 96//43 88//35
f 88//35 96//43 97//44
f 89//36 97//44 98//45
f 98//45 99//46 91//38
f 99//46 92//39 84//31
f 100//47 101//58 93//40
f 101//58 102//59 94//41
f 94//41 102//59 103//60
f 95//42 103//60 104//51
f 104//51 105//52 97//44
f 105//52 106//53 98//45
f 98//45 106//53 107//54
f 99//46 107//54 100//47
f 110//31 118//39 119//40
f 111//32 119//40 120//41
f 120//41 121//42 113//34
f 121//42 122//43 114//35
f 114//35 122//43 123//44
f 115//61 123//44 124//45
f 124//45 125//46 117//63
f 125//46 118//39 110//31
f 126//47 127//48 119//40
f 127//48 128//49 120//41
f 120//41 128//49 129//50
f 121//42 129//50 130//51
f 130//51 131//64 123//44
f 131//64 132//65 124//45
f 124//45 132//65 133//66
f 125//46 133//66 126//47
f 136//31 144//39 145//40
f 137//32 145//40 146//41
f 146//41 147//42 139//34
f 147//42 148//43 140//35
f 140//35 148//43 149//44
f 141//61 149//44 150//45
f 150//45 151//46 143//63
f 151//46 144//39 136//31
f 152//47 153//48 145//40
f 153//48 154//49 146//41
f 146//41 154//49 155//50
f 147//42 155//50 156//51
f 156//51 157//64 149//44
f 157//64 158//65 150//45
f 150//45 158//65 159//66
f 151//46 159//66 152//47
f 162//31 170//39 171//40
f 163//55 171//40 172//41
f 172//41 173//42 165//57
f 173//42 174//43 166//35
f 166//35 174//43 175//44
f 167//36 175//44 176//45
f 176//45 177//46 169//38
f 177//46 170//39 162//31
f 178//47 179//58 171//40
f 179//58 180//59 172//41
f 172//41 180//59 181//60
f 173//42 181//60 182//51
f 182//51 183//52 175//44
f 183//52 184//53 176//45
f 176//45 184//53 185//54
f 177//46 185//54 178//47
f 188//31 196//39 197//40
f 189//55 197//40 198//41
f 198//41 199//42 191//57
f 199//42 200//43 192//35
f 192//35 200//43 201//44
f 193//36 201//44 202//45
f 202//45 203//46 195//38
f 203//46 196//39 188//31
f 204//47 205//58 197//40
f 205//58 206//59 198//41
f 198//41 206//59 207//60
f 199//42 207//60 208//51
f 208//51 209//52 201//44
f 209//52 210//53 202//45
f 202//45 210//53 211//54
f 203//46 211//54 204//47
f 214//31 222//39 223//40
f 215//32 223//40 224//41
f 224//41 225//42 217//34
f 225//42 226//43 218//35
f 218//35 226//43 227//44
f 219//61 227//44 228//45
f 228//45 229//46 221//63
f 229//46 222//39 214//31
f 230//47 231//48 223//40
f 231//48 232//49 224//41
f 224//41 232//49 233//50
f 225//42 233//50 234//51
f 234//51 235//64 227//44
f 235//64 236//65 228//45
f 228//45 236//65 237//66
f 229//46 237//66 230//47
f 240//31 248//39 249//40
f 241//32 249//40 250//41
f 250//41 251//42 243//34
f 251//42 252//43 244//35
f 244//35 252//43 253//44
f 245//36 253//44 254//45
f 254//45 255//46 247//38
f 255//46 248//39 240//31
f 256//47 257//48 249//40
f 257//48 258//49 250//41
f 250//41 258//49 259//50
f 251//42 259//50 260//51
f 260//51 261//52 253//44
f 261//52 262//53 254//45
f 254//45 262//53 263//54
f 255//46 263//54 256//47
usemtl verdant_anoxic
f 265//1 266//67 267//68
f 265//1 267//68 268//69
f 265//1 268//69 269//70
f 265//1 269//70 270//71
f 265//1 270//71 271//72
f 265//1 271//72 272//73
f 265//1 272//73 273//74
f 265//1 273//74 266//67
f 266//67 275//75 267//68
f 275//75 268//69 267//68
f 268//69 277//76 269//70
f 277//76 270//71 269//70
f 270//71 279//77 271//72
f 279//77 272//73 271//72
f 272//73 281//78 273//74
f 281//78 266//67 273//74
f 282//79 275//75 274//39
f 275//75 284//81 276//41
f 284//81 277//76 276//41
f 277//76 286//83 278//43
f 286//83 279//77 278//43
f 279//77 288//85 280//45
f 288//85 281//78 280//45
f 281//78 282//79 274//39
f 282//79 290//30 283//80
f 283//80 290//30 284//81
f 284//81 290//30 285//82
f 285//82 290//30 286//83
f 286//83 290//30 287//84
f 287//84 290//30 288//85
f 288//85 290//30 289//86
f 289//86 290//30 282//79
f 291//1 292//87 293//88
f 291//1 293//88 294//89
f 291//1 294//89 295//90
f 291//1 295//90 296//91
f 291//1 296//91 297//92
f 291//1 297//92 298//93
f 291//1 298//93 299//94
f 291//1 299//94 292//87
f 292//87 301//75 293//88
f 301//75 294//89 293//88
f 294//89 303//76 295//90
f 303//76 296//91 295//90
f 296//91 305//77 297//92
f 305//77 298//93 297//92
f 298//93 307//78 299//94
f 307//78 292//87 299//94
f 308//95 301//75 300//39
f 301//75 310//97 302//41
f 310//97 303//76 302//41
f 303//76 312//99 304//43
f 312//99 305//77 304//43
f 305//77 314//101 306//45
f 314//101 307//78 306//45
f 307//78 308//95 300//39
f 308//95 316//30 309//96
f 309//96 316//30 310//97
f 310//97 316//30 311//98
f 311//98 316//30 312//99
f 312//99 316//30 313//100
f 313//100 316//30 314//101
f 314//101 316//30 315//102
f 315//102 316//30 308//95
f 317//1 318//103 319//104
f 317//1 319//104 320//105
f 317//1 320//105 321//106
f 317//1 321//106 322//107
f 317//1 322//107 323//108
f 317//1 323//108 324//109
f 317//1 324//109 325//110
f 317//1 325//110 318//103
f 326//39 319//104 318//103
f 319//104 328//41 320//105
f 328//41 321//106 320//105
f 321//106 330//43 322//107
f 330//43 323//108 322//107
f 323//108 332//45 324//109
f 332//45 325//110 324//109
f 325//110 326//39 318//103
f 326//39 335//112 327//75
f 335//112 328//41 327//75
f 328//41 337//114 329//76
f 337//114 330//43 329//76
f 330//43 339//116 331//77
f 339//116 332//45 331//77
f 332//45 341//118 333//78
f 341//118 326//39 333//78
f 334//111 342//30 335//112
f 335//112 342//30 336//113
f 336//113 342//30 337//114
f 337//114 342//30 338//115
f 338//115 342//30 339//116
f 339//116 342//30 340//117
f 340//117 342//30 341//118
f 341//118 342//30 334//111
f 266//67 274//39 275//75
f 275//75 276//41 268//69
f 268//69 276//41 277//76
f 277//76 278//43 270//71
f 270//71 278//43 279//77
f 279//77 280//45 272//73
f 272//73 280//45 281//78
f 281//78 274//39 266//67
f 282//79 283//80 275//75
f 275//75 283//80 284//81
f 284//81 285//82 277//76
f 277//76 285//82 286//83
f 286//83 287//84 279//77
f 279//77 287//84 288//85
f 288//85 289//86 281//78
f 281//78 289//86 282//79
f 292//87 300//39 301//75
f 301//75 302//41 294//89
f 294//89 302//41 303//76
f 303//76 304//43 296//91
f 296//91 304//43 305//77
f 305//77 306//45 298//93
f 298//93 306//45 307//78
f 307//78 300//39 292//87
f 308//95 309//96 301//75
f 301//75 309//96 310//97
f 310//97 311//98 303//76
f 303//76 311//98 312//99
f 312//99 313//100 305//77
f 305//77 313//100 314//101
f 314//101 315//102 307//78
f 307//78 315//102 308//95
f 326//39 327//75 319//104
f 319//104 327//75 328//41
f 328//41 329//76 321//106
f 321//106 329//76 330//43
f 330//43 331//77 323//108
f 323//108 331//77 332//45
f 332//45 333//78 325//110
f 325//110 333//78 326//39
f 326//39 334//111 335//112
f 335//112 336//113 328//41
f 328//41 336//113 337//114
f 337//114 338//115 330//43
f 330//43 338//115 339//116
f 339//116 340//117 332//45
f 332//45 340//117 341//118
f 341//118 334//111 326//39
