# Blender 5.2.1 LTS
# www.blender.org
mtllib node_building_intake_a.mtl
o muscular_chamber
v 0.130000 0.820000 -0.000000
v 0.130000 0.766410 -0.385000
v 0.130000 0.620000 -0.666840
v 0.130000 0.420000 -0.770000
v 0.130000 0.220000 -0.666840
v 0.130000 0.073590 -0.385000
v 0.130000 0.020000 -0.000000
v 0.347500 0.766410 -0.333420
v 0.506721 0.620000 -0.577500
v 0.565000 0.420000 -0.666840
v 0.506721 0.220000 -0.577500
v 0.347500 0.073590 -0.333420
v 0.506721 0.766410 -0.192500
v 0.782500 0.620000 -0.333420
v 0.883442 0.420000 -0.385000
v 0.782500 0.220000 -0.333420
v 0.506721 0.073590 -0.192500
v 0.565000 0.766410 -0.000000
v 0.883442 0.620000 -0.000000
v 1.000000 0.420000 -0.000000
v 0.883442 0.220000 -0.000000
v 0.565000 0.073590 -0.000000
v 0.506721 0.766410 0.192500
v 0.782500 0.620000 0.333420
v 0.883442 0.420000 0.385000
v 0.782500 0.220000 0.333420
v 0.506721 0.073590 0.192500
v 0.347500 0.766410 0.333420
v 0.506721 0.620000 0.577500
v 0.565000 0.420000 0.666840
v 0.506721 0.220000 0.577500
v 0.347500 0.073590 0.333420
v 0.130000 0.766410 0.385000
v 0.130000 0.620000 0.666839
v 0.130000 0.420000 0.770000
v 0.130000 0.220000 0.666839
v 0.130000 0.073590 0.385000
v -0.087500 0.766410 0.333420
v -0.246721 0.620000 0.577500
v -0.305000 0.420000 0.666840
v -0.246721 0.220000 0.577500
v -0.087500 0.073590 0.333420
v -0.246721 0.766410 0.192500
v -0.522500 0.620000 0.333420
v -0.623442 0.420000 0.385000
v -0.522500 0.220000 0.333420
v -0.246721 0.073590 0.192500
v -0.305000 0.766410 -0.000000
v -0.623442 0.620000 -0.000000
v -0.740000 0.420000 -0.000000
v -0.623442 0.220000 -0.000000
v -0.305000 0.073590 -0.000000
v -0.246721 0.766410 -0.192500
v -0.522500 0.620000 -0.333420
v -0.623442 0.420000 -0.385000
v -0.522500 0.220000 -0.333420
v -0.246721 0.073590 -0.192500
v -0.087500 0.766410 -0.333420
v -0.246721 0.620000 -0.577500
v -0.305000 0.420000 -0.666840
v -0.246721 0.220000 -0.577500
v -0.087500 0.073590 -0.333420
vn 0.1087 -0.8821 -0.4583
vn 0.1087 -0.8822 -0.4583
vn 0.2062 0.4486 -0.8696
vn 0.0327 0.9899 -0.1378
vn 0.0327 -0.9899 -0.1378
vn 0.2062 -0.4486 -0.8696
vn 0.1087 0.8821 -0.4583
vn 0.5862 0.4667 -0.6623
vn 0.0894 0.9909 -0.1010
vn 0.0894 -0.9909 -0.1010
vn 0.5862 -0.4667 -0.6623
vn 0.3001 0.8916 -0.3391
vn 0.3001 -0.8916 -0.3391
vn 0.1222 0.9918 -0.0370
vn 0.1222 -0.9918 -0.0370
vn 0.8359 -0.4871 -0.2531
vn 0.4144 0.9014 -0.1255
vn 0.4144 -0.9014 -0.1255
vn 0.8359 0.4871 -0.2531
vn 0.1222 -0.9918 0.0370
vn 0.8359 -0.4871 0.2531
vn 0.4144 0.9014 0.1255
vn 0.4144 -0.9014 0.1255
vn 0.8359 0.4871 0.2531
vn 0.1222 0.9918 0.0370
vn 0.0894 -0.9909 0.1010
vn 0.5862 -0.4667 0.6623
vn 0.3001 0.8916 0.3391
vn 0.3001 -0.8916 0.3391
vn 0.5862 0.4667 0.6623
vn 0.0894 0.9909 0.1010
vn 0.0327 -0.9899 0.1378
vn 0.2062 -0.4486 0.8696
vn 0.1087 0.8821 0.4583
vn 0.1087 -0.8821 0.4583
vn 0.2062 0.4486 0.8696
vn 0.0327 0.9899 0.1378
vn -0.2062 -0.4486 0.8696
vn -0.1087 0.8821 0.4583
vn -0.1087 -0.8821 0.4583
vn -0.2062 0.4486 0.8696
vn -0.0327 0.9899 0.1378
vn -0.0327 -0.9899 0.1378
vn -0.3001 0.8916 0.3391
vn -0.3001 -0.8916 0.3391
vn -0.5862 0.4667 0.6623
vn -0.0894 0.9909 0.1010
vn -0.0894 -0.9909 0.1010
vn -0.5862 -0.4667 0.6623
vn -0.4144 -0.9014 0.1255
vn -0.8359 0.4871 0.2531
vn -0.1222 0.9918 0.0370
vn -0.1222 -0.9918 0.0370
vn -0.8359 -0.4871 0.2531
vn -0.4144 0.9014 0.1255
vn -0.4144 -0.9014 -0.1255
vn -0.8359 0.4871 -0.2531
vn -0.1222 0.9918 -0.0370
vn -0.1222 -0.9918 -0.0370
vn -0.8359 -0.4871 -0.2531
vn -0.4144 0.9014 -0.1255
vn -0.3001 -0.8916 -0.3391
vn -0.5862 0.4667 -0.6623
vn -0.0894 0.9909 -0.1010
vn -0.0894 -0.9909 -0.1010
vn -0.5862 -0.4667 -0.6623
vn -0.3001 0.8916 -0.3391
vn -0.1087 -0.8821 -0.4583
vn -0.1087 -0.8822 -0.4583
vn -0.2062 0.4486 -0.8696
vn -0.0327 0.9899 -0.1378
vn -0.0327 -0.9899 -0.1378
vn -0.2062 -0.4486 -0.8696
vn -0.1087 0.8821 -0.4583
vn 0.1087 0.8822 -0.4583
vn -0.1087 0.8822 -0.4583
vt 0.750000 0.333333
vt 0.666667 0.166667
vt 0.750000 0.166667
vt 0.750000 0.500000
vt 0.666667 0.666667
vt 0.666667 0.500000
vt 0.750000 0.833333
vt 0.708333 1.000000
vt 0.666667 0.833333
vt 0.708333 0.000000
vt 0.666667 0.333333
vt 0.750000 0.666667
vt 0.583333 0.666667
vt 0.583333 0.500000
vt 0.625000 1.000000
vt 0.583333 0.833333
vt 0.625000 0.000000
vt 0.583333 0.166667
vt 0.583333 0.333333
vt 0.541667 1.000000
vt 0.500000 0.833333
vt 0.541667 0.000000
vt 0.500000 0.166667
vt 0.500000 0.333333
vt 0.500000 0.666667
vt 0.500000 0.500000
vt 0.458333 0.000000
vt 0.416667 0.166667
vt 0.416667 0.500000
vt 0.416667 0.333333
vt 0.416667 0.666667
vt 0.458333 1.000000
vt 0.416667 0.833333
vt 0.375000 0.000000
vt 0.333333 0.166667
vt 0.333333 0.500000
vt 0.333333 0.333333
vt 0.333333 0.666667
vt 0.375000 1.000000
vt 0.333333 0.833333
vt 0.291667 0.000000
vt 0.250000 0.166667
vt 0.250000 0.500000
vt 0.250000 0.333333
vt 0.250000 0.666667
vt 0.291667 1.000000
vt 0.250000 0.833333
vt 0.166667 0.333333
vt 0.166667 0.833333
vt 0.166667 0.666667
vt 0.166667 0.166667
vt 0.166667 0.500000
vt 0.208333 1.000000
vt 0.208333 0.000000
vt 0.083333 0.833333
vt 0.083333 0.666667
vt 0.083333 0.166667
vt 0.083333 0.500000
vt 0.125000 1.000000
vt 0.125000 0.000000
vt 0.083333 0.333333
vt 0.000000 0.166667
vt 0.000000 0.666667
vt 0.000000 0.500000
vt 0.041667 1.000000
vt 0.000000 0.833333
vt 0.041667 0.000000
vt 0.000000 0.333333
vt 1.000000 0.166667
vt 0.916667 0.333333
vt 0.916667 0.166667
vt 1.000000 0.666667
vt 0.916667 0.500000
vt 1.000000 0.500000
vt 1.000000 0.833333
vt 0.958333 1.000000
vt 0.916667 0.833333
vt 0.958333 0.000000
vt 1.000000 0.333333
vt 0.916667 0.666667
vt 0.833333 0.333333
vt 0.833333 0.166667
vt 0.833333 0.500000
vt 0.875000 1.000000
vt 0.833333 0.833333
vt 0.875000 0.000000
vt 0.833333 0.666667
vt 0.791667 1.000000
vt 0.791667 0.000000
s 1
usemtl verdant_membrane
f 5/1/1 12/2/1 6/3/2
f 4/4/3 9/5/3 10/6/3
f 2/7/4 1/8/4 8/9/4
f 7/10/5 6/3/5 12/2/5
f 4/4/6 11/11/6 5/1/6
f 3/12/7 8/9/7 9/5/7
f 10/6/8 14/13/8 15/14/8
f 8/9/9 1/15/9 13/16/9
f 7/17/10 12/2/10 17/18/10
f 10/6/11 16/19/11 11/11/11
f 9/5/12 13/16/12 14/13/12
f 11/11/13 17/18/13 12/2/13
f 13/16/14 1/20/14 18/21/14
f 7/22/15 17/18/15 22/23/15
f 15/14/16 21/24/16 16/19/16
f 14/13/17 18/21/17 19/25/17
f 16/19/18 22/23/18 17/18/18
f 15/14/19 19/25/19 20/26/19
f 7/27/20 22/23/20 27/28/20
f 21/24/21 25/29/21 26/30/21
f 18/21/22 24/31/22 19/25/22
f 22/23/23 26/30/23 27/28/23
f 19/25/24 25/29/24 20/26/24
f 18/21/25 1/32/25 23/33/25
f 7/34/26 27/28/26 32/35/26
f 26/30/27 30/36/27 31/37/27
f 23/33/28 29/38/28 24/31/28
f 27/28/29 31/37/29 32/35/29
f 24/31/30 30/36/30 25/29/30
f 23/33/31 1/39/31 28/40/31
f 7/41/32 32/35/32 37/42/32
f 31/37/33 35/43/33 36/44/33
f 28/40/34 34/45/34 29/38/34
f 32/35/35 36/44/35 37/42/35
f 29/38/36 35/43/36 30/36/36
f 28/40/37 1/46/37 33/47/37
f 35/43/38 41/48/38 36/44/38
f 34/45/39 38/49/39 39/50/39
f 36/44/40 42/51/40 37/42/40
f 35/43/41 39/50/41 40/52/41
f 33/47/42 1/53/42 38/49/42
f 7/54/43 37/42/43 42/51/43
f 39/50/44 43/55/44 44/56/44
f 41/48/45 47/57/45 42/51/45
f 40/52/46 44/56/46 45/58/46
f 38/49/47 1/59/47 43/55/47
f 7/60/48 42/51/48 47/57/48
f 40/52/49 46/61/49 41/48/49
f 46/61/50 52/62/50 47/57/50
f 45/58/51 49/63/51 50/64/51
f 43/55/52 1/65/52 48/66/52
f 7/67/53 47/57/53 52/62/53
f 45/58/54 51/68/54 46/61/54
f 44/56/55 48/66/55 49/63/55
f 52/69/56 56/70/56 57/71/56
f 49/72/57 55/73/57 50/74/57
f 48/75/58 1/76/58 53/77/58
f 7/78/59 52/69/59 57/71/59
f 51/79/60 55/73/60 56/70/60
f 48/75/61 54/80/61 49/72/61
f 57/71/62 61/81/62 62/82/62
f 54/80/63 60/83/63 55/73/63
f 53/77/64 1/84/64 58/85/64
f 7/86/65 57/71/65 62/82/65
f 56/70/66 60/83/66 61/81/66
f 53/77/67 59/87/67 54/80/67
f 62/82/68 5/1/68 6/3/69
f 59/87/70 4/4/70 60/83/70
f 58/85/71 1/88/71 2/7/71
f 7/89/72 62/82/72 6/3/72
f 61/81/73 4/4/73 5/1/73
f 58/85/74 3/12/74 59/87/74
f 5/1/1 11/11/1 12/2/1
f 4/4/3 3/12/3 9/5/3
f 4/4/6 10/6/6 11/11/6
f 3/12/7 2/7/75 8/9/7
f 10/6/8 9/5/8 14/13/8
f 10/6/11 15/14/11 16/19/11
f 9/5/12 8/9/12 13/16/12
f 11/11/13 16/19/13 17/18/13
f 15/14/16 20/26/16 21/24/16
f 14/13/17 13/16/17 18/21/17
f 16/19/18 21/24/18 22/23/18
f 15/14/19 14/13/19 19/25/19
f 21/24/21 20/26/21 25/29/21
f 18/21/22 23/33/22 24/31/22
f 22/23/23 21/24/23 26/30/23
f 19/25/24 24/31/24 25/29/24
f 26/30/27 25/29/27 30/36/27
f 23/33/28 28/40/28 29/38/28
f 27/28/29 26/30/29 31/37/29
f 24/31/30 29/38/30 30/36/30
f 31/37/33 30/36/33 35/43/33
f 28/40/34 33/47/34 34/45/34
f 32/35/35 31/37/35 36/44/35
f 29/38/36 34/45/36 35/43/36
f 35/43/38 40/52/38 41/48/38
f 34/45/39 33/47/39 38/49/39
f 36/44/40 41/48/40 42/51/40
f 35/43/41 34/45/41 39/50/41
f 39/50/44 38/49/44 43/55/44
f 41/48/45 46/61/45 47/57/45
f 40/52/46 39/50/46 44/56/46
f 40/52/49 45/58/49 46/61/49
f 46/61/50 51/68/50 52/62/50
f 45/58/51 44/56/51 49/63/51
f 45/58/54 50/64/54 51/68/54
f 44/56/55 43/55/55 48/66/55
f 52/69/56 51/79/56 56/70/56
f 49/72/57 54/80/57 55/73/57
f 51/79/60 50/74/60 55/73/60
f 48/75/61 53/77/61 54/80/61
f 57/71/62 56/70/62 61/81/62
f 54/80/63 59/87/63 60/83/63
f 56/70/66 55/73/66 60/83/66
f 53/77/67 58/85/67 59/87/67
f 62/82/68 61/81/68 5/1/68
f 59/87/70 3/12/70 4/4/70
f 61/81/73 60/83/73 4/4/73
f 58/85/74 2/7/76 3/12/74
o outward_intake_cilium_0
v 1.295493 0.634200 0.496800
v 1.582440 0.726515 0.496800
v 1.302062 0.617478 0.472073
v 1.584209 0.722013 0.490143
v 1.312691 0.590422 0.481518
v 1.587071 0.714729 0.492685
v 1.312691 0.590422 0.512082
v 1.587071 0.714729 0.500914
v 1.302062 0.617478 0.521527
v 1.584209 0.722013 0.503457
vn -0.2479 0.7706 -0.5871
vn -0.2479 0.7707 -0.5870
vn 0.1603 -0.2685 -0.9498
vn 0.1603 -0.2686 -0.9498
vn 0.4127 -0.9109 -0.0000
vn 0.9307 0.3657 -0.0000
vn 0.1604 -0.2686 0.9498
vn 0.1603 -0.2686 0.9498
vn -0.2479 0.7706 0.5871
vn -0.2479 0.7707 0.5870
vn -0.9308 -0.3656 -0.0000
vt 1.000000 1.000000
vt 0.800000 0.500000
vt 1.000000 0.500000
vt 0.800000 1.000000
vt 0.600000 0.500000
vt 0.400000 1.000000
vt 0.400000 0.500000
vt 0.250000 0.490000
vt 0.108932 0.055836
vt 0.391068 0.055836
vt 0.200000 0.500000
vt 0.200000 1.000000
vt 0.000000 0.500000
vt 0.978254 0.324164
vt 0.608932 0.055836
vt 0.521746 0.324164
vt 0.600000 1.000000
vt 0.478254 0.324164
vt 0.021746 0.324164
vt 0.000000 1.000000
vt 0.750000 0.490000
vt 0.891068 0.055836
s 1
usemtl verdant_membrane
f 64/90/77 65/91/78 63/92/78
f 66/93/79 67/94/80 65/91/80
f 67/94/81 70/95/81 69/96/81
f 64/97/82 70/98/82 68/99/82
f 70/95/83 71/100/84 69/96/84
f 72/101/85 63/102/86 71/100/86
f 65/103/87 69/104/87 71/105/87
f 64/90/77 66/93/77 65/91/78
f 66/93/79 68/106/79 67/94/80
f 67/94/81 68/106/81 70/95/81
f 68/99/82 66/107/82 64/97/82
f 64/97/82 72/108/82 70/98/82
f 70/95/83 72/101/83 71/100/84
f 72/101/85 64/109/85 63/102/86
f 71/105/87 63/110/87 65/103/87
f 65/103/87 67/111/87 69/104/87
o outward_intake_cilium_1
v 1.295252 0.634104 0.372600
v 1.642375 0.753989 0.372600
v 1.301988 0.617448 0.347873
v 1.644189 0.749505 0.365943
v 1.312886 0.590500 0.357318
v 1.647123 0.742250 0.368485
v 1.312886 0.590500 0.387882
v 1.647123 0.742250 0.376714
v 1.301988 0.617448 0.397327
v 1.644189 0.749505 0.379257
vn -0.2642 0.7650 -0.5873
vn 0.1545 -0.2705 -0.9502
vn 0.1546 -0.2705 -0.9502
vn 0.4134 -0.9105 -0.0000
vn 0.9270 0.3749 -0.0000
vn 0.9270 0.3750 -0.0000
vn 0.1546 -0.2706 0.9502
vn 0.1546 -0.2705 0.9502
vn -0.2642 0.7650 0.5873
vn -0.9271 -0.3749 -0.0000
vn 0.9270 0.3749 0.0001
vn 0.9271 0.3749 -0.0001
vt 1.000000 1.000000
vt 0.800000 0.500000
vt 1.000000 0.500000
vt 0.800000 1.000000
vt 0.600000 0.500000
vt 0.400000 1.000000
vt 0.400000 0.500000
vt 0.250000 0.490000
vt 0.108932 0.055836
vt 0.391068 0.055836
vt 0.200000 0.500000
vt 0.200000 1.000000
vt 0.000000 0.500000
vt 0.978254 0.324164
vt 0.608932 0.055836
vt 0.521746 0.324164
vt 0.600000 1.000000
vt 0.478254 0.324164
vt 0.021746 0.324164
vt 0.000000 1.000000
vt 0.750000 0.490000
vt 0.891068 0.055836
s 1
usemtl verdant_membrane
f 74/112/88 75/113/88 73/114/88
f 76/115/89 77/116/90 75/113/90
f 77/116/91 80/117/91 79/118/91
f 74/119/92 80/120/92 78/121/93
f 80/117/94 81/122/95 79/118/95
f 82/123/96 73/124/96 81/122/96
f 75/125/97 79/126/97 81/127/97
f 74/112/88 76/115/88 75/113/88
f 76/115/89 78/128/89 77/116/90
f 77/116/91 78/128/91 80/117/91
f 78/121/93 76/129/98 74/119/92
f 74/119/92 82/130/99 80/120/92
f 80/117/94 82/123/94 81/122/95
f 82/123/96 74/131/96 73/124/96
f 81/127/97 73/132/97 75/125/97
f 75/125/97 77/133/97 79/126/97
o outward_intake_cilium_2
v 1.295085 0.634035 0.248400
v 1.702331 0.781471 0.248400
v 1.301936 0.617427 0.223673
v 1.704175 0.777000 0.241743
v 1.313021 0.590555 0.233118
v 1.707159 0.769765 0.244285
v 1.313021 0.590555 0.263682
v 1.707159 0.769765 0.252514
v 1.301936 0.617427 0.273127
v 1.704175 0.777000 0.255057
vn -0.2755 0.7610 -0.5874
vn -0.2755 0.7609 -0.5874
vn 0.1505 -0.2719 -0.9505
vn 0.1506 -0.2719 -0.9505
vn 0.1506 -0.2720 -0.9505
vn 0.4139 -0.9103 -0.0000
vn 0.9245 0.3813 -0.0000
vn 0.1506 -0.2720 0.9505
vn -0.2755 0.7610 0.5874
vn -0.2755 0.7609 0.5874
vn -0.9244 -0.3813 -0.0000
vt 1.000000 1.000000
vt 0.800000 0.500000
vt 1.000000 0.500000
vt 0.800000 1.000000
vt 0.600000 0.500000
vt 0.600000 1.000000
vt 0.400000 0.500000
vt 0.250000 0.490000
vt 0.108932 0.055836
vt 0.391068 0.055836
vt 0.400000 1.000000
vt 0.200000 0.500000
vt 0.200000 1.000000
vt 0.000000 0.500000
vt 0.978254 0.324164
vt 0.608932 0.055836
vt 0.521746 0.324164
vt 0.478254 0.324164
vt 0.021746 0.324164
vt 0.000000 1.000000
vt 0.750000 0.490000
vt 0.891068 0.055836
s 1
usemtl verdant_membrane
f 84/134/100 85/135/101 83/136/101
f 86/137/102 87/138/103 85/135/104
f 88/139/105 89/140/105 87/138/105
f 84/141/106 90/142/106 88/143/106
f 90/144/107 91/145/107 89/140/107
f 92/146/108 83/147/109 91/145/109
f 85/148/110 89/149/110 91/150/110
f 84/134/100 86/137/100 85/135/101
f 86/137/102 88/139/102 87/138/103
f 88/139/105 90/144/105 89/140/105
f 88/143/106 86/151/106 84/141/106
f 84/141/106 92/152/106 90/142/106
f 90/144/107 92/146/107 91/145/107
f 92/146/108 84/153/108 83/147/109
f 91/150/110 83/154/110 85/148/110
f 85/148/110 87/155/110 89/149/110
o outward_intake_cilium_3
v 1.290270 0.631425 0.124200
v 1.581034 0.808268 0.124200
v 1.300448 0.616621 0.099473
v 1.583774 0.804282 0.117543
v 1.316916 0.592667 0.108918
v 1.588208 0.797833 0.120085
v 1.316916 0.592667 0.139482
v 1.588208 0.797833 0.128314
v 1.300448 0.616621 0.148927
v 1.583774 0.804282 0.130857
vn -0.4206 0.6916 -0.5872
vn 0.2121 -0.2288 -0.9501
vn 0.2121 -0.2287 -0.9501
vn 0.6032 -0.7976 -0.0000
vn 0.8240 0.5665 -0.0000
vn 0.2121 -0.2288 0.9501
vn -0.4206 0.6916 0.5872
vn -0.8240 -0.5665 -0.0000
vn 0.8240 0.5666 -0.0001
vn 0.8240 0.5665 0.0001
vt 1.000000 1.000000
vt 0.800000 0.500000
vt 1.000000 0.500000
vt 0.600000 1.000000
vt 0.600000 0.500000
vt 0.400000 0.500000
vt 0.250000 0.490000
vt 0.108932 0.055836
vt 0.391068 0.055836
vt 0.400000 1.000000
vt 0.200000 0.500000
vt 0.200000 1.000000
vt 0.000000 0.500000
vt 0.978254 0.324164
vt 0.608932 0.055836
vt 0.521746 0.324164
vt 0.800000 1.000000
vt 0.478254 0.324164
vt 0.021746 0.324164
vt 0.000000 1.000000
vt 0.750000 0.490000
vt 0.891068 0.055836
s 1
usemtl verdant_membrane
f 94/156/111 95/157/111 93/158/111
f 95/157/112 98/159/113 97/160/112
f 98/159/114 99/161/114 97/160/114
f 94/162/115 100/163/115 98/164/115
f 100/165/116 101/166/116 99/161/116
f 102/167/117 93/168/117 101/166/117
f 95/169/118 99/170/118 101/171/118
f 94/156/111 96/172/111 95/157/111
f 95/157/112 96/172/113 98/159/113
f 98/159/114 100/165/114 99/161/114
f 98/164/115 96/173/119 94/162/115
f 94/162/115 102/174/120 100/163/115
f 100/165/116 102/167/116 101/166/116
f 102/167/117 94/175/117 93/168/117
f 101/171/118 93/176/118 95/169/118
f 95/169/118 97/177/118 99/170/118
o outward_intake_cilium_4
v 1.290875 0.631829 -0.000000
v 1.641197 0.835877 -0.000000
v 1.300635 0.616745 -0.024727
v 1.643825 0.831816 -0.006657
v 1.316427 0.592340 -0.015282
v 1.648076 0.825245 -0.004115
v 1.316427 0.592340 0.015282
v 1.648076 0.825245 0.004114
v 1.300635 0.616745 0.024727
v 1.643825 0.831816 0.006657
vn -0.4073 0.6993 -0.5874
vn 0.1995 -0.2386 -0.9504
vn 0.1996 -0.2386 -0.9504
vn 0.5747 -0.8184 -0.0000
vn 0.8396 0.5432 -0.0000
vn 0.1996 -0.2386 0.9504
vn 0.1996 -0.2387 0.9504
vn -0.4073 0.6993 0.5874
vn -0.8396 -0.5433 -0.0000
vn 0.8396 0.5432 0.0001
vn 0.8396 0.5432 -0.0001
vn -0.8396 -0.5432 -0.0000
vt 1.000000 0.500000
vt 0.800000 1.000000
vt 0.800000 0.500000
vt 0.600000 0.500000
vt 0.600000 1.000000
vt 0.400000 0.500000
vt 0.250000 0.490000
vt 0.108932 0.055836
vt 0.391068 0.055836
vt 0.200000 1.000000
vt 0.200000 0.500000
vt 0.000000 0.500000
vt 0.978254 0.324164
vt 0.608932 0.055836
vt 0.521746 0.324164
vt 1.000000 1.000000
vt 0.400000 1.000000
vt 0.478254 0.324164
vt 0.021746 0.324164
vt 0.000000 1.000000
vt 0.750000 0.490000
vt 0.891068 0.055836
s 1
usemtl verdant_membrane
f 103/178/121 106/179/121 105/180/121
f 106/179/122 107/181/123 105/180/123
f 108/182/124 109/183/124 107/181/124
f 104/184/125 110/185/125 108/186/125
f 109/183/126 112/187/127 111/188/126
f 112/187/128 103/189/128 111/188/128
f 105/190/129 109/191/129 111/192/129
f 103/178/121 104/193/121 106/179/121
f 106/179/122 108/182/122 107/181/123
f 108/182/124 110/194/124 109/183/124
f 108/186/125 106/195/130 104/184/125
f 104/184/125 112/196/131 110/185/125
f 109/183/126 110/194/127 112/187/127
f 112/187/128 104/197/128 103/189/128
f 111/192/129 103/198/132 105/190/129
f 105/190/129 107/199/129 109/191/129
o outward_intake_cilium_5
v 1.293725 0.633428 -0.124200
v 1.701964 0.808808 -0.124200
v 1.301516 0.617240 -0.148927
v 1.704062 0.804449 -0.130857
v 1.314121 0.591046 -0.139482
v 1.707456 0.797397 -0.128315
v 1.314121 0.591046 -0.108918
v 1.707456 0.797397 -0.120086
v 1.301516 0.617240 -0.099473
v 1.704062 0.804449 -0.117543
vn -0.3194 0.7435 -0.5875
vn -0.3194 0.7436 -0.5874
vn 0.1651 -0.2632 -0.9505
vn 0.1651 -0.2633 -0.9505
vn 0.4646 -0.8855 -0.0000
vn 0.9011 0.4337 -0.0000
vn 0.1651 -0.2633 0.9505
vn -0.3194 0.7436 0.5874
vn -0.3194 0.7435 0.5875
vn -0.9011 -0.4336 -0.0000
vn -0.9011 -0.4337 -0.0000
vt 1.000000 1.000000
vt 0.800000 0.500000
vt 1.000000 0.500000
vt 0.800000 1.000000
vt 0.600000 0.500000
vt 0.400000 1.000000
vt 0.400000 0.500000
vt 0.250000 0.490000
vt 0.108932 0.055836
vt 0.391068 0.055836
vt 0.200000 0.500000
vt 0.000000 1.000000
vt 0.000000 0.500000
vt 0.978254 0.324164
vt 0.608932 0.055836
vt 0.521746 0.324164
vt 0.600000 1.000000
vt 0.478254 0.324164
vt 0.021746 0.324164
vt 0.200000 1.000000
vt 0.750000 0.490000
vt 0.891068 0.055836
s 1
usemtl verdant_membrane
f 114/200/133 115/201/134 113/202/134
f 116/203/135 117/204/136 115/201/136
f 117/204/137 120/205/137 119/206/137
f 114/207/138 120/208/138 118/209/138
f 120/205/139 121/210/139 119/206/139
f 121/210/140 114/211/141 113/212/140
f 115/213/142 119/214/142 121/215/142
f 114/200/133 116/203/133 115/201/134
f 116/203/135 118/216/135 117/204/136
f 117/204/137 118/216/137 120/205/137
f 118/209/138 116/217/138 114/207/138
f 114/207/138 122/218/138 120/208/138
f 120/205/139 122/219/139 121/210/139
f 121/210/140 122/219/141 114/211/141
f 121/215/142 113/220/143 115/213/142
f 115/213/142 117/221/142 119/214/142
o outward_intake_cilium_6
v 1.291800 0.632400 -0.248400
v 1.581446 0.781031 -0.248400
v 1.300921 0.616922 -0.273127
v 1.583902 0.776864 -0.255057
v 1.315679 0.591878 -0.263682
v 1.587875 0.770121 -0.252515
v 1.315679 0.591878 -0.233118
v 1.587875 0.770121 -0.244286
v 1.300921 0.616922 -0.223673
v 1.583902 0.776864 -0.241743
vn -0.3696 0.7202 -0.5872
vn -0.3696 0.7202 -0.5871
vn 0.1974 -0.2419 -0.9500
vn 0.5478 -0.8366 -0.0000
vn 0.8615 0.5077 -0.0000
vn 0.1974 -0.2420 0.9500
vn 0.1974 -0.2419 0.9500
vn -0.3696 0.7202 0.5871
vn -0.8615 -0.5077 -0.0000
vn 0.8615 0.5077 0.0001
vn 0.8616 0.5077 -0.0001
vn -0.3696 0.7202 0.5872
vt 1.000000 1.000000
vt 0.800000 0.500000
vt 1.000000 0.500000
vt 0.800000 1.000000
vt 0.600000 0.500000
vt 0.600000 1.000000
vt 0.400000 0.500000
vt 0.250000 0.490000
vt 0.108932 0.055836
vt 0.391068 0.055836
vt 0.400000 1.000000
vt 0.200000 0.500000
vt 0.200000 1.000000
vt 0.000000 0.500000
vt 0.978254 0.324164
vt 0.608932 0.055836
vt 0.521746 0.324164
vt 0.478254 0.324164
vt 0.021746 0.324164
vt 0.000000 1.000000
vt 0.750000 0.490000
vt 0.891068 0.055836
s 1
usemtl verdant_membrane
f 124/222/144 125/223/145 123/224/145
f 126/225/146 127/226/146 125/223/146
f 128/227/147 129/228/147 127/226/147
f 124/229/148 130/230/148 128/231/148
f 130/232/149 131/233/150 129/228/150
f 132/234/151 123/235/151 131/233/151
f 125/236/152 129/237/152 131/238/152
f 124/222/144 126/225/144 125/223/145
f 126/225/146 128/227/146 127/226/146
f 128/227/147 130/232/147 129/228/147
f 128/231/148 126/239/153 124/229/148
f 124/229/148 132/240/154 130/230/148
f 130/232/149 132/234/149 131/233/150
f 132/234/151 124/241/155 123/235/151
f 131/238/152 123/242/152 125/236/152
f 125/236/152 127/243/152 129/237/152
o outward_intake_cilium_7
v 1.295252 0.634104 -0.372600
v 1.642375 0.753989 -0.372600
v 1.301988 0.617448 -0.397327
v 1.644189 0.749505 -0.379257
v 1.312886 0.590500 -0.387882
v 1.647123 0.742250 -0.376714
v 1.312886 0.590500 -0.357318
v 1.647123 0.742250 -0.368486
v 1.301988 0.617448 -0.347872
v 1.644189 0.749505 -0.365943
vn -0.2642 0.7650 -0.5873
vn 0.1546 -0.2706 -0.9502
vn 0.1546 -0.2705 -0.9502
vn 0.4134 -0.9105 -0.0000
vn 0.9270 0.3749 -0.0000
vn 0.9270 0.3750 -0.0000
vn 0.1546 -0.2706 0.9502
vn -0.2642 0.7650 0.5873
vn -0.9271 -0.3749 -0.0000
vn 0.9271 0.3749 0.0001
vn 0.9271 0.3749 -0.0001
vt 1.000000 1.000000
vt 0.800000 0.500000
vt 1.000000 0.500000
vt 0.800000 1.000000
vt 0.600000 0.500000
vt 0.400000 1.000000
vt 0.400000 0.500000
vt 0.250000 0.490000
vt 0.108932 0.055836
vt 0.391068 0.055836
vt 0.200000 0.500000
vt 0.200000 1.000000
vt 0.000000 0.500000
vt 0.978254 0.324164
vt 0.608932 0.055836
vt 0.521746 0.324164
vt 0.600000 1.000000
vt 0.478254 0.324164
vt 0.021746 0.324164
vt 0.000000 1.000000
vt 0.750000 0.490000
vt 0.891068 0.055836
s 1
usemtl verdant_membrane
f 134/244/156 135/245/156 133/246/156
f 136/247/157 137/248/158 135/245/158
f 137/248/159 140/249/159 139/250/159
f 134/251/160 140/252/161 138/253/160
f 140/249/162 141/254/162 139/250/162
f 142/255/163 133/256/163 141/254/163
f 135/257/164 139/258/164 141/259/164
f 134/244/156 136/247/156 135/245/156
f 136/247/157 138/260/157 137/248/158
f 137/248/159 138/260/159 140/249/159
f 138/253/160 136/261/165 134/251/160
f 134/251/160 142/262/166 140/252/161
f 140/249/162 142/255/162 141/254/162
f 142/255/163 134/263/163 133/256/163
f 141/259/164 133/264/164 135/257/164
f 135/257/164 137/265/164 139/258/164
o outward_intake_cilium_8
v 1.298106 0.635069 -0.496800
v 1.703144 0.726749 -0.496800
v 1.302870 0.617747 -0.521527
v 1.704426 0.722086 -0.503457
v 1.310577 0.589719 -0.512082
v 1.706501 0.714540 -0.500915
v 1.310577 0.589719 -0.481518
v 1.706501 0.714540 -0.492686
v 1.302870 0.617747 -0.472073
v 1.704426 0.722086 -0.490143
vn -0.1787 0.7894 -0.5873
vn -0.1787 0.7893 -0.5874
vn 0.1176 -0.2879 -0.9504
vn 0.3007 -0.9537 -0.0000
vn 0.9642 0.2651 -0.0000
vn 0.1176 -0.2880 0.9504
vn 0.1176 -0.2879 0.9504
vn -0.1787 0.7894 0.5873
vn -0.1787 0.7893 0.5874
vn -0.9642 -0.2652 -0.0000
vn -0.9642 -0.2651 -0.0000
vn 0.1176 -0.2878 -0.9504
vn 0.9642 0.2652 -0.0000
vt 1.000000 1.000000
vt 0.800000 0.500000
vt 1.000000 0.500000
vt 0.800000 1.000000
vt 0.600000 0.500000
vt 0.600000 1.000000
vt 0.400000 0.500000
vt 0.250000 0.490000
vt 0.108932 0.055836
vt 0.391068 0.055836
vt 0.400000 1.000000
vt 0.200000 0.500000
vt 0.200000 1.000000
vt 0.000000 0.500000
vt 0.978254 0.324164
vt 0.608932 0.055836
vt 0.521746 0.324164
vt 0.478254 0.324164
vt 0.021746 0.324164
vt 0.000000 1.000000
vt 0.750000 0.490000
vt 0.891068 0.055836
s 1
usemtl verdant_membrane
f 144/266/167 145/267/168 143/268/168
f 146/269/169 147/270/169 145/267/169
f 148/271/170 149/272/170 147/270/170
f 144/273/171 150/274/171 148/275/171
f 150/276/172 151/277/173 149/272/173
f 152/278/174 143/279/175 151/277/175
f 145/280/176 149/281/177 151/282/176
f 144/266/167 146/269/167 145/267/168
f 146/269/169 148/271/178 147/270/169
f 148/271/170 150/276/170 149/272/170
f 148/275/171 146/283/179 144/273/171
f 144/273/171 152/284/179 150/274/171
f 150/276/172 152/278/172 151/277/173
f 152/278/174 144/285/174 143/279/175
f 151/282/176 143/286/176 145/280/176
f 145/280/176 147/287/177 149/281/177
o outward_intake_hollow_throat
v 1.295000 0.830000 -0.000000
v 1.290311 1.005500 -0.000000
v 1.277500 1.133975 -0.000000
v 1.260000 1.181000 -0.000000
v 1.242500 1.133975 -0.000000
v 1.229689 1.005500 -0.000000
v 1.225000 0.830000 -0.000000
v 1.290311 0.981987 -0.087750
v 1.277500 1.093250 -0.151987
v 1.260000 1.133975 -0.175500
v 1.242500 1.093250 -0.151987
v 1.229689 0.981987 -0.087750
v 1.290311 0.917750 -0.151987
v 1.277500 0.981987 -0.263250
v 1.260000 1.005500 -0.303975
v 1.242500 0.981987 -0.263250
v 1.229689 0.917750 -0.151987
v 1.290311 0.830000 -0.175500
v 1.277500 0.830000 -0.303975
v 1.260000 0.830000 -0.351000
v 1.242500 0.830000 -0.303975
v 1.229689 0.830000 -0.175500
v 1.290311 0.742250 -0.151987
v 1.277500 0.678012 -0.263250
v 1.260000 0.654500 -0.303975
v 1.242500 0.678012 -0.263250
v 1.229689 0.742250 -0.151987
v 1.290311 0.678012 -0.087750
v 1.277500 0.566750 -0.151987
v 1.260000 0.526025 -0.175500
v 1.242500 0.566750 -0.151987
v 1.229689 0.678012 -0.087750
v 1.290311 0.654500 -0.000000
v 1.277500 0.526025 -0.000000
v 1.260000 0.479000 -0.000000
v 1.242500 0.526025 -0.000000
v 1.229689 0.654500 -0.000000
v 1.290311 0.678012 0.087750
v 1.277500 0.566750 0.151987
v 1.260000 0.526025 0.175500
v 1.242500 0.566750 0.151987
v 1.229689 0.678012 0.087750
v 1.290311 0.742250 0.151987
v 1.277500 0.678013 0.263250
v 1.260000 0.654500 0.303975
v 1.242500 0.678013 0.263250
v 1.229689 0.742250 0.151987
v 1.290311 0.830000 0.175500
v 1.277500 0.830000 0.303975
v 1.260000 0.830000 0.351000
v 1.242500 0.830000 0.303975
v 1.229689 0.830000 0.175500
v 1.290311 0.917750 0.151987
v 1.277500 0.981987 0.263250
v 1.260000 1.005500 0.303975
v 1.242500 0.981987 0.263250
v 1.229689 0.917750 0.151987
v 1.290311 0.981987 0.087750
v 1.277500 1.093250 0.151987
v 1.260000 1.133975 0.175500
v 1.242500 1.093250 0.151987
v 1.229689 0.981987 0.087750
vn -0.9947 0.0992 -0.0266
vn 0.9331 0.3473 -0.0930
vn 0.9996 0.0267 -0.0072
vn -0.9996 0.0267 -0.0072
vn -0.9331 0.3473 -0.0930
vn 0.9947 0.0992 -0.0266
vn 0.9331 0.2542 -0.2542
vn 0.9996 0.0196 -0.0196
vn -0.9996 0.0196 -0.0196
vn -0.9331 0.2542 -0.2542
vn 0.9947 0.0726 -0.0726
vn -0.9947 0.0726 -0.0726
vn 0.9996 0.0072 -0.0267
vn -0.9996 0.0072 -0.0267
vn -0.9331 0.0930 -0.3473
vn 0.9947 0.0266 -0.0992
vn -0.9947 0.0266 -0.0992
vn 0.9331 0.0930 -0.3473
vn -0.9996 -0.0072 -0.0267
vn -0.9331 -0.0930 -0.3473
vn 0.9947 -0.0266 -0.0992
vn -0.9947 -0.0266 -0.0992
vn 0.9331 -0.0930 -0.3473
vn 0.9996 -0.0072 -0.0267
vn -0.9996 -0.0196 -0.0196
vn -0.9331 -0.2542 -0.2542
vn 0.9947 -0.0726 -0.0726
vn -0.9947 -0.0726 -0.0726
vn 0.9331 -0.2542 -0.2542
vn 0.9996 -0.0196 -0.0196
vn -0.9996 -0.0267 -0.0072
vn -0.9331 -0.3473 -0.0930
vn 0.9947 -0.0992 -0.0266
vn -0.9947 -0.0992 -0.0266
vn 0.9331 -0.3473 -0.0930
vn 0.9996 -0.0267 -0.0072
vn -0.9331 -0.3473 0.0930
vn 0.9947 -0.0992 0.0266
vn -0.9947 -0.0992 0.0266
vn 0.9331 -0.3473 0.0930
vn 0.9996 -0.0267 0.0072
vn -0.9996 -0.0267 0.0072
vn 0.9947 -0.0726 0.0726
vn -0.9947 -0.0726 0.0726
vn 0.9331 -0.2542 0.2542
vn 0.9996 -0.0196 0.0196
vn -0.9996 -0.0196 0.0196
vn -0.9331 -0.2542 0.2542
vn -0.9947 -0.0266 0.0992
vn 0.9331 -0.0930 0.3473
vn 0.9996 -0.0072 0.0267
vn -0.9996 -0.0072 0.0267
vn -0.9331 -0.0930 0.3473
vn 0.9947 -0.0266 0.0992
vn -0.9947 0.0266 0.0992
vn 0.9331 0.0930 0.3473
vn 0.9996 0.0072 0.0267
vn -0.9996 0.0072 0.0267
vn -0.9331 0.0930 0.3473
vn 0.9947 0.0266 0.0992
vn -0.9947 0.0726 0.0726
vn 0.9331 0.2542 0.2542
vn 0.9996 0.0196 0.0196
vn -0.9996 0.0196 0.0196
vn -0.9331 0.2542 0.2542
vn 0.9947 0.0726 0.0726
vn -0.9947 0.0992 0.0266
vn 0.9331 0.3473 0.0930
vn 0.9996 0.0267 0.0072
vn -0.9996 0.0267 0.0072
vn -0.9331 0.3473 0.0930
vn 0.9947 0.0992 0.0266
vt 0.750000 0.333333
vt 0.666667 0.166667
vt 0.750000 0.166667
vt 0.750000 0.666667
vt 0.666667 0.500000
vt 0.750000 0.500000
vt 0.750000 0.833333
vt 0.708333 1.000000
vt 0.666667 0.833333
vt 0.708333 0.000000
vt 0.666667 0.333333
vt 0.666667 0.666667
vt 0.583333 0.500000
vt 0.625000 1.000000
vt 0.583333 0.833333
vt 0.625000 0.000000
vt 0.583333 0.166667
vt 0.583333 0.333333
vt 0.583333 0.666667
vt 0.541667 1.000000
vt 0.500000 0.833333
vt 0.541667 0.000000
vt 0.500000 0.166667
vt 0.500000 0.500000
vt 0.500000 0.333333
vt 0.500000 0.666667
vt 0.458333 0.000000
vt 0.416667 0.166667
vt 0.416667 0.500000
vt 0.416667 0.333333
vt 0.416667 0.833333
vt 0.416667 0.666667
vt 0.458333 1.000000
vt 0.375000 0.000000
vt 0.333333 0.166667
vt 0.333333 0.500000
vt 0.333333 0.333333
vt 0.333333 0.666667
vt 0.375000 1.000000
vt 0.333333 0.833333
vt 0.291667 0.000000
vt 0.250000 0.166667
vt 0.250000 0.500000
vt 0.250000 0.333333
vt 0.250000 0.833333
vt 0.250000 0.666667
vt 0.291667 1.000000
vt 0.166667 0.500000
vt 0.166667 0.333333
vt 0.166667 0.833333
vt 0.166667 0.666667
vt 0.166667 0.166667
vt 0.208333 1.000000
vt 0.208333 0.000000
vt 0.083333 0.833333
vt 0.083333 0.666667
vt 0.083333 0.166667
vt 0.083333 0.500000
vt 0.125000 1.000000
vt 0.125000 0.000000
vt 0.083333 0.333333
vt 0.000000 0.166667
vt 0.000000 0.500000
vt 0.041667 1.000000
vt 0.000000 0.833333
vt 0.041667 0.000000
vt 0.000000 0.333333
vt 0.000000 0.666667
vt 1.000000 0.333333
vt 0.916667 0.166667
vt 1.000000 0.166667
vt 1.000000 0.666667
vt 0.916667 0.500000
vt 1.000000 0.500000
vt 1.000000 0.833333
vt 0.958333 1.000000
vt 0.916667 0.833333
vt 0.958333 0.000000
vt 0.916667 0.333333
vt 0.916667 0.666667
vt 0.833333 0.166667
vt 0.833333 0.500000
vt 0.875000 1.000000
vt 0.833333 0.833333
vt 0.875000 0.000000
vt 0.833333 0.333333
vt 0.833333 0.666667
vt 0.791667 1.000000
vt 0.791667 0.000000
s 1
usemtl verdant_shell
f 157/288/180 164/289/180 158/290/180
f 155/291/181 162/292/181 156/293/181
f 154/294/182 153/295/182 160/296/182
f 159/297/183 158/290/183 164/289/183
f 156/293/184 163/298/184 157/288/184
f 154/294/185 161/299/185 155/291/185
f 161/299/186 167/300/186 162/292/186
f 160/296/187 153/301/187 165/302/187
f 159/303/188 164/289/188 169/304/188
f 163/298/189 167/300/189 168/305/189
f 160/296/190 166/306/190 161/299/190
f 163/298/191 169/304/191 164/289/191
f 165/302/192 153/307/192 170/308/192
f 159/309/193 169/304/193 174/310/193
f 168/305/194 172/311/194 173/312/194
f 165/302/195 171/313/195 166/306/195
f 168/305/196 174/310/196 169/304/196
f 166/306/197 172/311/197 167/300/197
f 159/314/198 174/310/198 179/315/198
f 173/312/199 177/316/199 178/317/199
f 171/313/200 175/318/200 176/319/200
f 173/312/201 179/315/201 174/310/201
f 171/313/202 177/316/202 172/311/202
f 170/308/203 153/320/203 175/318/203
f 159/321/204 179/315/204 184/322/204
f 178/317/205 182/323/205 183/324/205
f 175/318/206 181/325/206 176/319/206
f 178/317/207 184/322/207 179/315/207
f 176/319/208 182/323/208 177/316/208
f 175/318/209 153/326/209 180/327/209
f 159/328/210 184/322/210 189/329/210
f 183/324/211 187/330/211 188/331/211
f 181/325/212 185/332/212 186/333/212
f 183/324/213 189/329/213 184/322/213
f 181/325/214 187/330/214 182/323/214
f 180/327/215 153/334/215 185/332/215
f 188/331/216 192/335/216 193/336/216
f 186/333/217 190/337/217 191/338/217
f 188/331/218 194/339/218 189/329/218
f 186/333/219 192/335/219 187/330/219
f 185/332/220 153/340/220 190/337/220
f 159/341/221 189/329/221 194/339/221
f 191/338/222 195/342/222 196/343/222
f 193/336/223 199/344/223 194/339/223
f 191/338/224 197/345/224 192/335/224
f 190/337/225 153/346/225 195/342/225
f 159/347/226 194/339/226 199/344/226
f 193/336/227 197/345/227 198/348/227
f 198/348/228 204/349/228 199/344/228
f 196/343/229 202/350/229 197/345/229
f 195/342/230 153/351/230 200/352/230
f 159/353/231 199/344/231 204/349/231
f 198/348/232 202/350/232 203/354/232
f 196/343/233 200/352/233 201/355/233
f 203/356/234 209/357/234 204/358/234
f 201/359/235 207/360/235 202/361/235
f 200/362/236 153/363/236 205/364/236
f 159/365/237 204/358/237 209/357/237
f 203/356/238 207/360/238 208/366/238
f 201/359/239 205/364/239 206/367/239
f 208/366/240 214/368/240 209/357/240
f 206/367/241 212/369/241 207/360/241
f 205/364/242 153/370/242 210/371/242
f 159/372/243 209/357/243 214/368/243
f 208/366/244 212/369/244 213/373/244
f 206/367/245 210/371/245 211/374/245
f 213/373/246 158/290/246 214/368/246
f 212/369/247 155/291/247 156/293/247
f 210/371/248 153/375/248 154/294/248
f 159/376/249 214/368/249 158/290/249
f 213/373/250 156/293/250 157/288/250
f 210/371/251 155/291/251 211/374/251
f 157/288/180 163/298/180 164/289/180
f 155/291/181 161/299/181 162/292/181
f 156/293/184 162/292/184 163/298/184
f 154/294/185 160/296/185 161/299/185
f 161/299/186 166/306/186 167/300/186
f 163/298/189 162/292/189 167/300/189
f 160/296/190 165/302/190 166/306/190
f 163/298/191 168/305/191 169/304/191
f 168/305/194 167/300/194 172/311/194
f 165/302/195 170/308/195 171/313/195
f 168/305/196 173/312/196 174/310/196
f 166/306/197 171/313/197 172/311/197
f 173/312/199 172/311/199 177/316/199
f 171/313/200 170/308/200 175/318/200
f 173/312/201 178/317/201 179/315/201
f 171/313/202 176/319/202 177/316/202
f 178/317/205 177/316/205 182/323/205
f 175/318/206 180/327/206 181/325/206
f 178/317/207 183/324/207 184/322/207
f 176/319/208 181/325/208 182/323/208
f 183/324/211 182/323/211 187/330/211
f 181/325/212 180/327/212 185/332/212
f 183/324/213 188/331/213 189/329/213
f 181/325/214 186/333/214 187/330/214
f 188/331/216 187/330/216 192/335/216
f 186/333/217 185/332/217 190/337/217
f 188/331/218 193/336/218 194/339/218
f 186/333/219 191/338/219 192/335/219
f 191/338/222 190/337/222 195/342/222
f 193/336/223 198/348/223 199/344/223
f 191/338/224 196/343/224 197/345/224
f 193/336/227 192/335/227 197/345/227
f 198/348/228 203/354/228 204/349/228
f 196/343/229 201/355/229 202/350/229
f 198/348/232 197/345/232 202/350/232
f 196/343/233 195/342/233 200/352/233
f 203/356/234 208/366/234 209/357/234
f 201/359/235 206/367/235 207/360/235
f 203/356/238 202/361/238 207/360/238
f 201/359/239 200/362/239 205/364/239
f 208/366/240 213/373/240 214/368/240
f 206/367/241 211/374/241 212/369/241
f 208/366/244 207/360/244 212/369/244
f 206/367/245 205/364/245 210/371/245
f 213/373/246 157/288/246 158/290/246
f 212/369/247 211/374/247 155/291/247
f 213/373/250 212/369/250 156/293/250
f 210/371/251 154/294/251 155/291/251
o outward_intake_living_rim
v 1.305000 0.830000 -0.634644
v 1.385840 0.830000 -0.575004
v 1.354962 0.830000 -0.478505
v 1.255038 0.830000 -0.478505
v 1.224160 0.830000 -0.575004
v 1.305000 1.052089 -0.610184
v 1.385840 1.031218 -0.552842
v 1.354962 0.997449 -0.460062
v 1.255038 0.997449 -0.460062
v 1.224160 1.031218 -0.552842
v 1.305000 1.220109 -0.464913
v 1.385840 1.183449 -0.421224
v 1.354962 1.124132 -0.350533
v 1.255038 1.124132 -0.350533
v 1.224160 1.183449 -0.421224
v 1.305000 1.355627 -0.303471
v 1.385840 1.306232 -0.274953
v 1.354962 1.226309 -0.228809
v 1.255038 1.226309 -0.228809
v 1.224160 1.306232 -0.274953
v 1.305000 1.469505 -0.112762
v 1.385840 1.409408 -0.102165
v 1.354962 1.312170 -0.085020
v 1.255038 1.312170 -0.085020
v 1.224160 1.409408 -0.102165
v 1.305000 1.454954 0.110196
v 1.385840 1.396224 0.099841
v 1.354962 1.301199 0.083085
v 1.255038 1.301199 0.083085
v 1.224160 1.396224 0.099841
v 1.305000 1.347275 0.298649
v 1.385840 1.298665 0.270584
v 1.354962 1.220012 0.225173
v 1.255038 1.220012 0.225173
v 1.224160 1.298665 0.270584
v 1.305000 1.231759 0.478798
v 1.385840 1.194005 0.433803
v 1.354962 1.132916 0.361001
v 1.255038 1.132916 0.361001
v 1.224160 1.194005 0.433803
v 1.305000 1.053234 0.613331
v 1.385840 1.032256 0.555694
v 1.354962 0.998313 0.462435
v 1.255038 0.998313 0.462435
v 1.224160 1.032256 0.555694
v 1.305000 0.830000 0.615356
v 1.385840 0.830000 0.557529
v 1.354962 0.830000 0.463962
v 1.255038 0.830000 0.463962
v 1.224160 0.830000 0.557529
v 1.305000 0.624564 0.564432
v 1.385840 0.643869 0.511390
v 1.354962 0.675106 0.425567
v 1.255038 0.675106 0.425567
v 1.224160 0.643869 0.511390
v 1.305000 0.416624 0.492642
v 1.385840 0.455471 0.446347
v 1.354962 0.518326 0.371439
v 1.255038 0.518326 0.371439
v 1.224160 0.455471 0.446347
v 1.305000 0.273095 0.321529
v 1.385840 0.325429 0.291314
v 1.354962 0.410108 0.242424
v 1.255038 0.410108 0.242424
v 1.224160 0.325429 0.291314
v 1.305000 0.238495 0.104298
v 1.385840 0.294081 0.094497
v 1.354962 0.384021 0.078638
v 1.255038 0.384021 0.078638
v 1.224160 0.294081 0.094497
v 1.305000 0.223944 -0.106864
v 1.385840 0.280897 -0.096822
v 1.354962 0.373050 -0.080573
v 1.255038 0.373050 -0.080573
v 1.224160 0.280897 -0.096822
v 1.305000 0.264743 -0.326351
v 1.385840 0.317862 -0.295683
v 1.354962 0.403811 -0.246060
v 1.255038 0.403811 -0.246060
v 1.224160 0.317862 -0.295683
v 1.305000 0.428275 -0.478758
v 1.385840 0.466026 -0.433767
v 1.354962 0.527110 -0.360971
v 1.255038 0.527110 -0.360971
v 1.224160 0.466026 -0.433767
v 1.305000 0.625709 -0.561285
v 1.385840 0.644907 -0.508539
v 1.354962 0.675970 -0.423194
v 1.255038 0.675970 -0.423194
v 1.224160 0.644907 -0.508539
vn 0.5914 0.0883 -0.8016
vn 0.9519 -0.0335 0.3046
vn -0.0000 -0.1095 0.9940
vn -0.9519 -0.0335 0.3046
vn -0.5914 0.0883 -0.8016
vn 0.5764 0.5344 -0.6181
vn 0.9483 -0.2076 0.2401
vn -0.0000 -0.6540 0.7565
vn -0.9483 -0.2076 0.2401
vn -0.5764 0.5344 -0.6181
vn 0.5706 0.6290 -0.5280
vn 0.9468 -0.2464 0.2068
vn -0.0000 -0.7659 0.6429
vn -0.9468 -0.2464 0.2068
vn -0.5706 0.6290 -0.5280
vn 0.5765 0.7016 -0.4189
vn 0.9483 -0.2725 0.1627
vn -0.0000 -0.8586 0.5127
vn -0.9483 -0.2725 0.1627
vn -0.9483 -0.2724 0.1627
vn -0.5765 0.7016 -0.4189
vn 0.5913 0.8047 0.0525
vn 0.9519 -0.3058 -0.0200
vn -0.0000 -0.9979 -0.0651
vn -0.9519 -0.3058 -0.0200
vn -0.5913 0.8047 0.0525
vn 0.5703 0.7132 0.4075
vn 0.9468 -0.2795 -0.1597
vn -0.0000 -0.8683 -0.4961
vn -0.9468 -0.2795 -0.1597
vn -0.5703 0.7132 0.4075
vn 0.5699 0.6917 0.4435
vn 0.9467 -0.2712 -0.1739
vn -0.0000 -0.8418 -0.5398
vn -0.9467 -0.2712 -0.1739
vn -0.5699 0.6917 0.4435
vn 0.5873 0.4871 0.6464
vn 0.9509 -0.1862 -0.2471
vn -0.0000 -0.6018 -0.7986
vn -0.9509 -0.1862 -0.2471
vn -0.5873 0.4871 0.6464
vn 0.5818 0.0074 0.8133
vn 0.9496 -0.0028 -0.3134
vn -0.0000 -0.0091 -1.0000
vn -0.9496 -0.0028 -0.3134
vn -0.5818 0.0074 0.8133
vn 0.5703 -0.1976 0.7973
vn 0.9468 0.0774 -0.3124
vn 0.9468 0.0775 -0.3124
vn -0.0000 0.2406 -0.9706
vn -0.9468 0.0774 -0.3124
vn -0.5703 -0.1976 0.7973
vn 0.5724 -0.2676 0.7751
vn 0.9473 0.1045 -0.3028
vn -0.0000 0.3263 -0.9453
vn -0.9473 0.1045 -0.3028
vn -0.5724 -0.2676 0.7751
vn 0.5929 -0.6170 0.5175
vn 0.9522 0.2339 -0.1962
vn -0.0000 0.7662 -0.6427
vn -0.9522 0.2339 -0.1962
vn -0.5929 -0.6170 0.5175
vn 0.5724 -0.8098 0.1290
vn 0.9473 0.3163 -0.0504
vn -0.0000 0.9876 -0.1573
vn -0.9473 0.3163 -0.0504
vn -0.5724 -0.8098 0.1290
vn 0.5703 -0.8195 0.0565
vn 0.9468 0.3211 -0.0221
vn -0.0000 0.9976 -0.0687
vn -0.9468 0.3211 -0.0221
vn -0.5703 -0.8195 0.0565
vn 0.5818 -0.7996 -0.1486
vn 0.9496 0.3081 0.0573
vn -0.0000 0.9832 0.1828
vn -0.9496 0.3081 0.0573
vn -0.5818 -0.7996 -0.1486
vn 0.5872 -0.5518 -0.5921
vn 0.9509 0.2109 0.2263
vn -0.0000 0.6818 0.7316
vn -0.9509 0.2109 0.2263
vn -0.5872 -0.5518 -0.5921
vn 0.5699 -0.3169 -0.7581
vn 0.9467 0.1243 0.2973
vn -0.0000 0.3857 0.9226
vn -0.9467 0.1243 0.2973
vn -0.5699 -0.3169 -0.7581
vn 0.5703 -0.2776 -0.7731
vn 0.9468 0.1088 0.3030
vn -0.0000 0.3380 0.9412
vn -0.9468 0.1088 0.3030
vn -0.5703 -0.2776 -0.7731
vn -0.9509 0.2110 0.2263
vt 0.500000 0.600000
vt 0.555556 0.800000
vt 0.500000 0.800000
vt 0.555556 1.000000
vt 0.500000 1.000000
vt 0.555556 0.000000
vt 0.500000 0.200000
vt 0.500000 0.000000
vt 0.555556 0.200000
vt 0.500000 0.400000
vt 0.555556 0.400000
vt 0.611111 0.600000
vt 0.555556 0.600000
vt 0.611111 0.800000
vt 0.611111 0.000000
vt 0.611111 0.400000
vt 0.666667 0.800000
vt 0.666667 1.000000
vt 0.611111 1.000000
vt 0.666667 0.000000
vt 0.611111 0.200000
vt 0.666667 0.200000
vt 0.666667 0.400000
vt 0.666667 0.600000
vt 0.722222 0.800000
vt 0.722222 1.000000
vt 0.722222 0.000000
vt 0.722222 0.200000
vt 0.722222 0.400000
vt 0.777778 0.600000
vt 0.722222 0.600000
vt 0.777778 0.800000
vt 0.777778 0.000000
vt 0.777778 0.400000
vt 0.833333 0.600000
vt 0.833333 0.800000
vt 0.777778 1.000000
vt 0.833333 0.000000
vt 0.777778 0.200000
vt 0.833333 0.400000
vt 0.888889 0.800000
vt 0.888889 1.000000
vt 0.833333 1.000000
vt 0.888889 0.000000
vt 0.833333 0.200000
vt 0.888889 0.200000
vt 0.888889 0.400000
vt 0.888889 0.600000
vt 0.944444 0.800000
vt 0.944444 1.000000
vt 0.944444 0.000000
vt 0.944444 0.200000
vt 0.944444 0.400000
vt 1.000000 0.600000
vt 0.944444 0.600000
vt 1.000000 0.800000
vt 1.000000 0.000000
vt 1.000000 0.400000
vt 0.055556 0.600000
vt 0.000000 0.800000
vt 0.000000 0.600000
vt 0.055556 0.800000
vt 0.000000 1.000000
vt 0.055556 0.000000
vt 0.000000 0.200000
vt 0.000000 0.000000
vt 0.055556 0.400000
vt 0.000000 0.400000
vt 0.111111 0.800000
vt 0.111111 1.000000
vt 0.055556 1.000000
vt 0.111111 0.000000
vt 0.055556 0.200000
vt 0.111111 0.200000
vt 0.111111 0.400000
vt 0.166667 0.600000
vt 0.111111 0.600000
vt 0.166667 0.800000
vt 0.166667 0.000000
vt 0.166667 0.400000
vt 0.222222 0.600000
vt 0.222222 0.800000
vt 0.166667 1.000000
vt 0.222222 0.000000
vt 0.166667 0.200000
vt 0.222222 0.400000
vt 0.277778 0.800000
vt 0.277778 1.000000
vt 0.222222 1.000000
vt 0.277778 0.000000
vt 0.222222 0.200000
vt 0.277778 0.200000
vt 0.277778 0.400000
vt 0.277778 0.600000
vt 0.333333 0.800000
vt 0.333333 1.000000
vt 0.333333 0.000000
vt 0.333333 0.200000
vt 0.333333 0.400000
vt 0.388889 0.600000
vt 0.333333 0.600000
vt 0.388889 0.800000
vt 0.388889 0.000000
vt 0.388889 0.400000
vt 0.444444 0.600000
vt 0.444444 0.800000
vt 0.388889 1.000000
vt 0.444444 0.000000
vt 0.388889 0.200000
vt 0.444444 0.400000
vt 0.444444 1.000000
vt 0.444444 0.200000
vt 1.000000 1.000000
vt 1.000000 0.200000
s 1
usemtl verdant_shell
f 215/377/252 221/378/252 216/379/252
f 216/379/253 222/380/253 217/381/253
f 222/382/254 218/383/254 217/384/254
f 223/385/255 219/386/255 218/383/255
f 224/387/256 215/377/256 219/386/256
f 225/388/257 221/378/257 220/389/257
f 226/390/258 222/380/258 221/378/258
f 227/391/259 223/385/259 222/382/259
f 223/385/260 229/392/260 224/387/260
f 224/387/261 225/388/261 220/389/261
f 225/388/262 231/393/262 226/390/262
f 226/390/263 232/394/263 227/395/263
f 232/396/264 228/397/264 227/391/264
f 233/398/265 229/392/265 228/397/265
f 234/399/266 225/388/266 229/392/266
f 230/400/267 236/401/267 231/393/267
f 231/393/268 237/402/268 232/394/268
f 237/403/269 233/398/269 232/396/269
f 238/404/270 234/399/270 233/398/271
f 239/405/272 230/400/272 234/399/272
f 240/406/273 236/401/273 235/407/273
f 241/408/274 237/402/274 236/401/274
f 242/409/275 238/404/275 237/403/275
f 238/404/276 244/410/276 239/405/276
f 239/405/277 240/406/277 235/407/277
f 245/411/278 241/408/278 240/406/278
f 246/412/279 242/413/279 241/408/279
f 247/414/280 243/415/280 242/409/280
f 243/415/281 249/416/281 244/410/281
f 244/410/282 245/411/282 240/406/282
f 245/411/283 251/417/283 246/412/283
f 246/412/284 252/418/284 247/419/284
f 252/420/285 248/421/285 247/414/285
f 253/422/286 249/416/286 248/421/286
f 254/423/287 245/411/287 249/416/287
f 250/424/288 256/425/288 251/417/288
f 251/417/289 257/426/289 252/418/289
f 257/427/290 253/422/290 252/420/290
f 258/428/291 254/423/291 253/422/291
f 259/429/292 250/424/292 254/423/292
f 260/430/293 256/425/293 255/431/293
f 261/432/294 257/426/294 256/425/294
f 262/433/295 258/428/295 257/427/295
f 258/428/296 264/434/296 259/429/296
f 259/429/297 260/430/297 255/431/297
f 265/435/298 261/436/298 260/437/298
f 266/438/299 262/439/300 261/436/300
f 267/440/301 263/441/301 262/442/301
f 263/441/302 269/443/302 264/444/302
f 264/444/303 265/435/303 260/437/303
f 265/435/304 271/445/304 266/438/304
f 266/438/305 272/446/305 267/447/305
f 272/448/306 268/449/306 267/440/306
f 273/450/307 269/443/307 268/449/307
f 274/451/308 265/435/308 269/443/308
f 275/452/309 271/445/309 270/453/309
f 276/454/310 272/446/310 271/445/310
f 277/455/311 273/450/311 272/448/311
f 273/450/312 279/456/312 274/451/312
f 274/451/313 275/452/313 270/453/313
f 280/457/314 276/454/314 275/452/314
f 281/458/315 277/459/315 276/454/315
f 282/460/316 278/461/316 277/455/316
f 278/461/317 284/462/317 279/456/317
f 279/456/318 280/457/318 275/452/318
f 280/457/319 286/463/319 281/458/319
f 281/458/320 287/464/320 282/465/320
f 287/466/321 283/467/321 282/460/321
f 288/468/322 284/462/322 283/467/322
f 289/469/323 280/457/323 284/462/323
f 285/470/324 291/471/324 286/463/324
f 286/463/325 292/472/325 287/464/325
f 292/473/326 288/468/326 287/466/326
f 293/474/327 289/469/327 288/468/327
f 294/475/328 285/470/328 289/469/328
f 295/476/329 291/471/329 290/477/329
f 296/478/330 292/472/330 291/471/330
f 297/479/331 293/474/331 292/473/331
f 293/474/332 299/480/332 294/475/332
f 294/475/333 295/476/333 290/477/333
f 300/481/334 296/478/334 295/476/334
f 301/482/335 297/483/335 296/478/335
f 302/484/336 298/485/336 297/479/336
f 298/485/337 304/486/337 299/480/337
f 299/480/338 300/481/338 295/476/338
f 300/481/339 216/379/339 301/482/339
f 301/482/340 217/381/340 302/487/340
f 217/384/341 303/488/341 302/484/341
f 218/383/342 304/486/342 303/488/342
f 219/386/343 300/481/343 304/486/343
f 215/377/252 220/389/252 221/378/252
f 216/379/253 221/378/253 222/380/253
f 222/382/254 223/385/254 218/383/254
f 223/385/255 224/387/255 219/386/255
f 224/387/256 220/389/256 215/377/256
f 225/388/257 226/390/257 221/378/257
f 226/390/258 227/395/258 222/380/258
f 227/391/259 228/397/259 223/385/259
f 223/385/260 228/397/260 229/392/260
f 224/387/261 229/392/261 225/388/261
f 225/388/262 230/400/262 231/393/262
f 226/390/263 231/393/263 232/394/263
f 232/396/264 233/398/264 228/397/264
f 233/398/265 234/399/265 229/392/265
f 234/399/266 230/400/266 225/388/266
f 230/400/267 235/407/267 236/401/267
f 231/393/268 236/401/268 237/402/268
f 237/403/269 238/404/269 233/398/269
f 238/404/270 239/405/270 234/399/270
f 239/405/272 235/407/272 230/400/272
f 240/406/273 241/408/273 236/401/273
f 241/408/274 242/413/274 237/402/274
f 242/409/275 243/415/275 238/404/275
f 238/404/276 243/415/276 244/410/276
f 239/405/277 244/410/277 240/406/277
f 245/411/278 246/412/278 241/408/278
f 246/412/279 247/419/279 242/413/279
f 247/414/280 248/421/280 243/415/280
f 243/415/281 248/421/281 249/416/281
f 244/410/282 249/416/282 245/411/282
f 245/411/283 250/424/283 251/417/283
f 246/412/284 251/417/284 252/418/284
f 252/420/285 253/422/285 248/421/285
f 253/422/286 254/423/286 249/416/286
f 254/423/287 250/424/287 245/411/287
f 250/424/288 255/431/288 256/425/288
f 251/417/289 256/425/289 257/426/289
f 257/427/290 258/428/290 253/422/290
f 258/428/291 259/429/291 254/423/291
f 259/429/292 255/431/292 250/424/292
f 260/430/293 261/432/293 256/425/293
f 261/432/294 262/489/294 257/426/294
f 262/433/295 263/490/295 258/428/295
f 258/428/296 263/490/296 264/434/296
f 259/429/297 264/434/297 260/430/297
f 265/435/298 266/438/298 261/436/298
f 266/438/299 267/447/299 262/439/300
f 267/440/301 268/449/301 263/441/301
f 263/441/302 268/449/302 269/443/302
f 264/444/303 269/443/303 265/435/303
f 265/435/304 270/453/304 271/445/304
f 266/438/305 271/445/305 272/446/305
f 272/448/306 273/450/306 268/449/306
f 273/450/307 274/451/307 269/443/307
f 274/451/308 270/453/308 265/435/308
f 275/452/309 276/454/309 271/445/309
f 276/454/310 277/459/310 272/446/310
f 277/455/311 278/461/311 273/450/311
f 273/450/312 278/461/312 279/456/312
f 274/451/313 279/456/313 275/452/313
f 280/457/314 281/458/314 276/454/314
f 281/458/315 282/465/315 277/459/315
f 282/460/316 283/467/316 278/461/316
f 278/461/317 283/467/317 284/462/317
f 279/456/318 284/462/318 280/457/318
f 280/457/319 285/470/319 286/463/319
f 281/458/320 286/463/320 287/464/320
f 287/466/321 288/468/321 283/467/321
f 288/468/322 289/469/322 284/462/322
f 289/469/323 285/470/323 280/457/323
f 285/470/324 290/477/324 291/471/324
f 286/463/325 291/471/325 292/472/325
f 292/473/326 293/474/326 288/468/326
f 293/474/327 294/475/327 289/469/327
f 294/475/328 290/477/328 285/470/328
f 295/476/329 296/478/329 291/471/329
f 296/478/330 297/483/330 292/472/330
f 297/479/331 298/485/331 293/474/331
f 293/474/332 298/485/344 299/480/332
f 294/475/333 299/480/333 295/476/333
f 300/481/334 301/482/334 296/478/334
f 301/482/335 302/487/335 297/483/335
f 302/484/336 303/488/336 298/485/336
f 298/485/337 303/488/337 304/486/337
f 299/480/338 304/486/338 300/481/338
f 300/481/339 215/377/339 216/379/339
f 301/482/340 216/379/340 217/381/340
f 217/384/341 218/383/341 303/488/341
f 218/383/342 219/386/342 304/486/342
f 219/386/343 215/377/343 300/481/343
o outward_intake_neck
v 0.292836 0.426117 -0.000000
v 1.040448 1.104822 -0.000000
v 0.313892 0.398502 -0.129600
v 1.068523 1.068003 -0.172800
v 0.371418 0.323058 -0.224474
v 1.145224 0.967411 -0.299298
v 0.450000 0.220000 -0.259200
v 1.250000 0.830000 -0.345600
v 0.528582 0.116942 -0.224474
v 1.354776 0.692589 -0.299298
v 0.586108 0.041498 -0.129600
v 1.431477 0.591997 -0.172800
v 0.607164 0.013883 -0.000000
v 1.459552 0.555178 -0.000000
v 0.586108 0.041498 0.129600
v 1.431477 0.591997 0.172800
v 0.528582 0.116942 0.224474
v 1.354776 0.692589 0.299298
v 0.450000 0.220000 0.259200
v 1.250000 0.830000 0.345600
v 0.371418 0.323058 0.224474
v 1.145224 0.967411 0.299298
v 0.313892 0.398502 0.129600
v 1.068523 1.068003 0.172800
vn -0.6494 0.7154 -0.2579
vn -0.4930 0.5102 -0.7047
vn -0.2221 0.1550 -0.9626
vn 0.0907 -0.2552 -0.9626
vn 0.3615 -0.6105 -0.7047
vn 0.5179 -0.8156 -0.2579
vn 0.5179 -0.8156 0.2579
vn 0.3615 -0.6105 0.7047
vn 0.0907 -0.2552 0.9626
vn -0.2221 0.1550 0.9626
vn 0.7952 0.6063 -0.0000
vn -0.4930 0.5102 0.7047
vn -0.6494 0.7154 0.2579
vn -0.7952 -0.6063 -0.0000
vt 1.000000 1.000000
vt 0.916667 0.500000
vt 1.000000 0.500000
vt 0.916667 1.000000
vt 0.833333 0.500000
vt 0.833333 1.000000
vt 0.750000 0.500000
vt 0.750000 1.000000
vt 0.666667 0.500000
vt 0.666667 1.000000
vt 0.583333 0.500000
vt 0.583333 1.000000
vt 0.500000 0.500000
vt 0.500000 1.000000
vt 0.416667 0.500000
vt 0.416667 1.000000
vt 0.333333 0.500000
vt 0.333333 1.000000
vt 0.250000 0.500000
vt 0.250000 1.000000
vt 0.166667 0.500000
vt 0.042154 0.370000
vt 0.250000 0.010000
vt 0.457846 0.370000
vt 0.166667 1.000000
vt 0.083333 0.500000
vt 0.083333 1.000000
vt 0.000000 0.500000
vt 0.990000 0.250000
vt 0.630000 0.042154
vt 0.630000 0.457846
vt 0.370000 0.457846
vt 0.250000 0.490000
vt 0.130000 0.457846
vt 0.010000 0.250000
vt 0.042154 0.130000
vt 0.130000 0.042154
vt 0.370000 0.042154
vt 0.457846 0.130000
vt 0.490000 0.250000
vt 0.000000 1.000000
vt 0.750000 0.490000
vt 0.870000 0.457846
vt 0.957846 0.370000
vt 0.957846 0.130000
vt 0.870000 0.042154
vt 0.750000 0.010000
vt 0.542154 0.130000
vt 0.510000 0.250000
vt 0.542154 0.370000
s 1
usemtl verdant_shell
f 306/491/345 307/492/345 305/493/345
f 308/494/346 309/495/346 307/492/346
f 310/496/347 311/497/347 309/495/347
f 312/498/348 313/499/348 311/497/348
f 314/500/349 315/501/349 313/499/349
f 316/502/350 317/503/350 315/501/350
f 318/504/351 319/505/351 317/503/351
f 320/506/352 321/507/352 319/505/352
f 322/508/353 323/509/353 321/507/353
f 324/510/354 325/511/354 323/509/354
f 326/512/355 318/513/355 310/514/355
f 326/515/356 327/516/356 325/511/356
f 328/517/357 305/518/357 327/516/357
f 311/519/358 319/520/358 327/521/358
f 306/491/345 308/494/345 307/492/345
f 308/494/346 310/496/346 309/495/346
f 310/496/347 312/498/347 311/497/347
f 312/498/348 314/500/348 313/499/348
f 314/500/349 316/502/349 315/501/349
f 316/502/350 318/504/350 317/503/350
f 318/504/351 320/506/351 319/505/351
f 320/506/352 322/508/352 321/507/352
f 322/508/353 324/510/353 323/509/353
f 324/510/354 326/515/354 325/511/354
f 310/514/355 308/522/355 306/523/355
f 306/523/355 328/524/355 326/512/355
f 326/512/355 324/525/355 322/526/355
f 322/526/355 320/527/355 318/513/355
f 318/513/355 316/528/355 314/529/355
f 314/529/355 312/530/355 310/514/355
f 310/514/355 306/523/355 326/512/355
f 326/512/355 322/526/355 318/513/355
f 318/513/355 314/529/355 310/514/355
f 326/515/356 328/517/356 327/516/356
f 328/517/357 306/531/357 305/518/357
f 327/521/358 305/532/358 307/533/358
f 307/533/358 309/534/358 311/519/358
f 311/519/358 313/535/358 315/536/358
f 315/536/358 317/537/358 319/520/358
f 319/520/358 321/538/358 323/539/358
f 323/539/358 325/540/358 327/521/358
f 327/521/358 307/533/358 311/519/358
f 311/519/358 315/536/358 319/520/358
f 319/520/358 323/539/358 327/521/358
o return_vein_-1
v -0.725305 0.240624 0.236095
v -0.771450 0.240624 0.295218
v -0.776145 0.180000 0.339124
v -0.734695 0.119376 0.323905
v -0.688550 0.119376 0.264782
v -0.683855 0.180000 0.220876
v -0.325842 0.436421 0.550933
v -0.347424 0.446219 0.622089
v -0.341581 0.389799 0.671156
v -0.314158 0.323579 0.649067
v -0.292576 0.313781 0.577911
v -0.298419 0.370201 0.528844
v 0.520993 0.609181 0.431370
v 0.535593 0.630287 0.501843
v 0.564599 0.581106 0.550473
v 0.579007 0.510819 0.528629
v 0.564407 0.489713 0.458157
v 0.535401 0.538894 0.409527
v 1.160503 0.865548 0.125386
v 1.183102 0.889425 0.192796
v 1.222599 0.843877 0.237411
v 1.239497 0.774452 0.214614
v 1.216898 0.750575 0.147204
v 1.177401 0.796123 0.102589
vn 0.0680 0.8086 -0.5844
vn 0.2860 -0.1184 -0.9509
vn 0.6231 0.0036 -0.7821
vn -0.5513 0.8085 0.2059
vn -0.1229 0.8175 -0.5626
vn -0.6115 0.0024 0.7913
vn -0.3743 0.8475 0.3764
vn 0.0413 -0.6888 0.7238
vn -0.0616 -0.8071 0.5872
vn 0.3507 -0.9177 -0.1868
vn 0.5580 -0.8049 -0.2020
vn -0.3874 0.6664 -0.6371
vn -0.1747 0.9244 0.3391
vn 0.2042 0.2498 0.9465
vn -0.2881 0.1387 0.9475
vn 0.3854 -0.6461 0.6588
vn 0.2063 -0.9472 -0.2454
vn -0.3022 -0.3184 -0.8985
vn -0.1848 -0.3175 -0.9301
vn -0.2258 0.9256 0.3039
vn 0.3010 0.3179 0.8991
vn 0.5260 -0.6074 0.5953
vn 0.2251 -0.9258 -0.3039
vn -0.5277 0.6068 -0.5944
vt 0.000000 1.000000
vt 0.333333 0.833333
vt 0.000000 0.833333
vt 0.000000 0.166667
vt 0.333333 0.000000
vt 0.000000 0.000000
vt 0.000000 0.333333
vt 0.333333 0.166667
vt 0.333333 0.500000
vt 0.000000 0.500000
vt 0.333333 0.666667
vt 0.000000 0.666667
vt 0.666667 1.000000
vt 0.333333 1.000000
vt 0.666667 0.166667
vt 0.666667 0.333333
vt 0.333333 0.333333
vt 0.666667 0.500000
vt 0.666667 0.666667
vt 1.000000 0.833333
vt 0.666667 0.833333
vt 1.000000 0.166667
vt 0.666667 0.000000
vt 1.000000 0.333333
vt 1.000000 0.500000
vt 1.000000 0.666667
vt 1.000000 1.000000
vt 1.000000 0.000000
s 1
usemtl verdant_shell
f 329/541/359 340/542/360 334/543/361
f 330/544/362 335/545/363 329/546/359
f 331/547/364 336/548/365 330/544/362
f 338/549/366 331/547/364 332/550/367
f 339/551/368 332/550/367 333/552/369
f 340/542/360 333/552/369 334/543/361
f 341/553/370 340/542/360 335/554/363
f 342/555/371 335/545/363 336/548/365
f 343/556/372 336/548/365 337/557/373
f 338/549/366 343/556/372 337/557/373
f 339/551/368 344/558/374 338/549/366
f 340/542/360 345/559/375 339/551/368
f 341/553/370 352/560/376 346/561/377
f 348/562/378 341/563/370 342/555/371
f 349/564/379 342/555/371 343/556/372
f 350/565/380 343/556/372 344/558/374
f 345/559/375 350/565/380 344/558/374
f 346/561/377 351/566/381 345/559/375
f 329/541/359 335/554/363 340/542/360
f 330/544/362 336/548/365 335/545/363
f 331/547/364 337/557/373 336/548/365
f 338/549/366 337/557/373 331/547/364
f 339/551/368 338/549/366 332/550/367
f 340/542/360 339/551/368 333/552/369
f 341/553/370 346/561/377 340/542/360
f 342/555/371 341/563/370 335/545/363
f 343/556/372 342/555/371 336/548/365
f 338/549/366 344/558/374 343/556/372
f 339/551/368 345/559/375 344/558/374
f 340/542/360 346/561/377 345/559/375
f 341/553/370 347/567/382 352/560/376
f 348/562/378 347/568/382 341/563/370
f 349/564/379 348/562/378 342/555/371
f 350/565/380 349/564/379 343/556/372
f 345/559/375 351/566/381 350/565/380
f 346/561/377 352/560/376 351/566/381
o return_vein_1
v -0.771450 0.240624 -0.295218
v -0.725305 0.240624 -0.236095
v -0.683855 0.180000 -0.220876
v -0.688550 0.119376 -0.264782
v -0.734695 0.119376 -0.323905
v -0.776145 0.180000 -0.339124
v -0.347424 0.446219 -0.622089
v -0.325842 0.436421 -0.550933
v -0.298419 0.370201 -0.528844
v -0.292576 0.313781 -0.577911
v -0.314158 0.323579 -0.649067
v -0.341581 0.389799 -0.671156
v 0.535593 0.630287 -0.501843
v 0.520993 0.609181 -0.431370
v 0.535401 0.538894 -0.409527
v 0.564407 0.489713 -0.458157
v 0.579007 0.510819 -0.528629
v 0.564599 0.581106 -0.550473
v 1.183102 0.889425 -0.192796
v 1.160503 0.865548 -0.125386
v 1.177401 0.796123 -0.102589
v 1.216898 0.750575 -0.147204
v 1.239497 0.774452 -0.214614
v 1.222599 0.843877 -0.237411
vn -0.3743 0.8475 -0.3764
vn -0.6115 0.0024 -0.7913
vn -0.5513 0.8085 -0.2059
vn -0.1229 0.8175 0.5626
vn 0.0680 0.8086 0.5844
vn 0.2860 -0.1184 0.9509
vn 0.6231 0.0036 0.7821
vn 0.5580 -0.8049 0.2020
vn -0.0616 -0.8071 -0.5872
vn 0.3507 -0.9177 0.1868
vn 0.0413 -0.6888 -0.7238
vn 0.2042 0.2498 -0.9465
vn -0.2881 0.1387 -0.9475
vn -0.1747 0.9244 -0.3391
vn -0.3874 0.6664 0.6371
vn 0.2063 -0.9472 0.2454
vn 0.3854 -0.6461 -0.6588
vn 0.3010 0.3179 -0.8991
vn -0.2258 0.9256 -0.3039
vn -0.3022 -0.3184 0.8985
vn -0.1848 -0.3175 0.9301
vn 0.2251 -0.9258 0.3039
vn 0.5260 -0.6074 -0.5953
vn -0.5277 0.6068 0.5944
vt 0.333333 1.000000
vt 0.000000 0.833333
vt 0.000000 1.000000
vt 0.333333 0.166667
vt 0.000000 0.000000
vt 0.000000 0.166667
vt 0.333333 0.333333
vt 0.000000 0.333333
vt 0.000000 0.500000
vt 0.000000 0.666667
vt 0.333333 0.500000
vt 0.333333 0.666667
vt 0.666667 0.833333
vt 0.333333 0.833333
vt 0.666667 0.000000
vt 0.333333 0.000000
vt 0.666667 0.166667
vt 0.666667 0.500000
vt 0.666667 0.666667
vt 0.666667 1.000000
vt 1.000000 0.833333
vt 1.000000 0.000000
vt 1.000000 0.333333
vt 0.666667 0.333333
vt 1.000000 0.500000
vt 1.000000 0.666667
vt 1.000000 1.000000
vt 1.000000 0.166667
s 1
usemtl verdant_shell
f 359/569/383 358/570/384 353/571/385
f 360/572/386 353/573/385 354/574/387
f 361/575/388 354/574/387 355/576/389
f 356/577/390 361/575/388 355/576/389
f 357/578/391 362/579/392 356/577/390
f 358/570/384 363/580/393 357/578/391
f 359/569/383 370/581/394 364/582/395
f 360/572/386 365/583/396 359/584/383
f 361/575/388 366/585/397 360/572/386
f 368/586/398 361/575/388 362/579/392
f 369/587/399 362/579/392 363/580/393
f 370/581/394 363/580/393 364/582/395
f 365/588/396 376/589/400 370/581/394
f 366/585/397 371/590/401 365/583/396
f 373/591/402 366/585/397 367/592/403
f 374/593/404 367/592/403 368/586/398
f 375/594/405 368/586/398 369/587/399
f 370/581/394 375/594/405 369/587/399
f 359/569/383 364/582/395 358/570/384
f 360/572/386 359/584/383 353/573/385
f 361/575/388 360/572/386 354/574/387
f 356/577/390 362/579/392 361/575/388
f 357/578/391 363/580/393 362/579/392
f 358/570/384 364/582/395 363/580/393
f 359/569/383 365/588/396 370/581/394
f 360/572/386 366/585/397 365/583/396
f 361/575/388 367/592/403 366/585/397
f 368/586/398 367/592/403 361/575/388
f 369/587/399 368/586/398 362/579/392
f 370/581/394 369/587/399 363/580/393
f 365/588/396 371/595/401 376/589/400
f 366/585/397 372/596/406 371/590/401
f 373/591/402 372/596/406 366/585/397
f 374/593/404 373/591/402 367/592/403
f 375/594/405 374/593/404 368/586/398
f 370/581/394 376/589/400 375/594/405
o rooted_mounting_pad
v 0.000000 0.320000 -0.000000
v 0.000000 0.293205 -0.518887
v 0.000000 0.220000 -0.898739
v 0.000000 0.120000 -1.037774
v 0.000000 0.020000 -0.898739
v 0.000000 -0.053205 -0.518887
v 0.000000 -0.080000 0.000000
v 0.309766 0.293205 -0.457370
v 0.536530 0.220000 -0.792187
v 0.619531 0.120000 -0.914739
v 0.536530 0.020000 -0.792187
v 0.309766 -0.053205 -0.457370
v 0.508972 0.293205 -0.250499
v 0.881566 0.220000 -0.433878
v 1.017944 0.120000 -0.500999
v 0.881566 0.020000 -0.433878
v 0.508972 -0.053205 -0.250499
v 0.646849 0.293205 -0.000000
v 1.120376 0.220000 -0.000000
v 1.293699 0.120000 -0.000000
v 1.120376 0.020000 -0.000000
v 0.646849 -0.053205 0.000000
v 0.511323 0.293205 0.251656
v 0.885637 0.220000 0.435882
v 1.022646 0.120000 0.503313
v 0.885637 0.020000 0.435882
v 0.511323 -0.053205 0.251656
v 0.298017 0.293205 0.440022
v 0.516180 0.220000 0.762141
v 0.596033 0.120000 0.880044
v 0.516180 0.020000 0.762141
v 0.298017 -0.053205 0.440022
v 0.000000 0.293205 0.557513
v 0.000000 0.220000 0.965640
v 0.000000 0.120000 1.115026
v 0.000000 0.020000 0.965640
v 0.000000 -0.053205 0.557513
v -0.284764 0.293205 0.420455
v -0.493226 0.220000 0.728249
v -0.569529 0.120000 0.840910
v -0.493226 0.020000 0.728249
v -0.284764 -0.053205 0.420455
v -0.538120 0.293205 0.264845
v -0.932052 0.220000 0.458725
v -1.076241 0.120000 0.529691
v -0.932052 0.020000 0.458725
v -0.538120 -0.053205 0.264845
v -0.615851 0.293205 -0.000000
v -1.066684 0.220000 -0.000000
v -1.231701 0.120000 -0.000000
v -1.066684 0.020000 -0.000000
v -0.615851 -0.053205 0.000000
v -0.535770 0.293205 -0.263688
v -0.927980 0.220000 -0.456722
v -1.071539 0.120000 -0.527377
v -0.927980 0.020000 -0.456722
v -0.535770 -0.053205 -0.263688
v -0.296513 0.293205 -0.437802
v -0.513576 0.220000 -0.758296
v -0.593027 0.120000 -0.875605
v -0.513576 0.020000 -0.758296
v -0.296513 -0.053205 -0.437802
vn 0.0376 -0.9812 -0.1891
vn 0.1152 0.8064 -0.5800
vn 0.0102 0.9986 -0.0516
vn 0.0102 -0.9986 -0.0516
vn 0.1152 -0.8064 -0.5800
vn 0.0376 0.9812 -0.1891
vn 0.4093 0.8228 -0.3942
vn 0.0357 0.9988 -0.0344
vn 0.0408 0.9987 -0.0305
vn 0.0341 0.9986 -0.0406
vn 0.0408 -0.9987 -0.0305
vn 0.0357 -0.9988 -0.0344
vn 0.0341 -0.9986 -0.0406
vn 0.4093 -0.8228 -0.3942
vn 0.1311 0.9833 -0.1262
vn 0.1311 -0.9833 -0.1262
vn 0.0349 0.9991 -0.0230
vn 0.0442 0.9989 -0.0170
vn 0.0414 0.9989 -0.0228
vn 0.0442 -0.9989 -0.0170
vn 0.0349 -0.9991 -0.0230
vn 0.0414 -0.9989 -0.0228
vn 0.4819 -0.8352 -0.2652
vn 0.1522 0.9848 -0.0838
vn 0.1522 -0.9848 -0.0838
vn 0.4818 0.8352 -0.2652
vn 0.0414 -0.9989 0.0223
vn 0.4826 -0.8364 0.2599
vn 0.1523 0.9849 0.0820
vn 0.1523 -0.9849 0.0820
vn 0.4826 0.8364 0.2599
vn 0.0414 0.9989 0.0223
vn 0.0336 -0.9987 0.0381
vn 0.3825 -0.8161 0.4331
vn 0.1234 0.9825 0.1397
vn 0.1234 -0.9825 0.1397
vn 0.3825 0.8161 0.4331
vn 0.0336 0.9987 0.0381
vn 0.0189 -0.9987 0.0480
vn 0.2142 -0.8117 0.5434
vn 0.0694 0.9819 0.1761
vn 0.0694 -0.9819 0.1761
vn 0.2142 0.8117 0.5434
vn 0.0189 0.9987 0.0480
vn -0.2586 -0.8027 0.5373
vn -0.0847 0.9808 0.1759
vn -0.0847 -0.9808 0.1759
vn -0.2586 0.8027 0.5373
vn -0.0231 0.9986 0.0480
vn -0.0257 0.9986 0.0472
vn -0.0207 0.9986 0.0493
vn -0.0257 -0.9986 0.0472
vn -0.0231 -0.9986 0.0480
vn -0.0207 -0.9986 0.0493
vn -0.1012 0.9811 0.1648
vn -0.1012 -0.9811 0.1648
vn -0.3101 0.8055 0.5049
vn -0.0259 0.9987 0.0428
vn -0.0295 0.9986 0.0430
vn -0.0276 0.9986 0.0449
vn -0.0295 -0.9986 0.0430
vn -0.0259 -0.9987 0.0428
vn -0.0276 -0.9986 0.0449
vn -0.3101 -0.8055 0.5049
vn -0.1601 -0.9860 0.0470
vn -0.5124 0.8455 0.1504
vn -0.0435 0.9990 0.0128
vn -0.0435 -0.9990 0.0128
vn -0.5124 -0.8455 0.1504
vn -0.1601 0.9860 0.0470
vn -0.1601 -0.9859 -0.0486
vn -0.5120 0.8448 -0.1555
vn -0.0435 0.9990 -0.0132
vn -0.0435 -0.9990 -0.0132
vn -0.5120 -0.8448 -0.1555
vn -0.1601 0.9859 -0.0486
vn -0.1094 -0.9826 -0.1503
vn -0.3394 0.8168 -0.4664
vn -0.0298 0.9987 -0.0409
vn -0.0298 -0.9987 -0.0409
vn -0.3394 -0.8168 -0.4664
vn -0.1094 0.9826 -0.1503
vn -0.0517 -0.9806 -0.1890
vn -0.1577 0.8017 -0.5766
vn -0.0141 0.9986 -0.0516
vn -0.0141 -0.9986 -0.0516
vn -0.1577 -0.8017 -0.5766
vn -0.0517 0.9806 -0.1890
vn 0.4818 -0.8352 -0.2652
vn 0.4819 0.8352 -0.2652
vt 0.750000 0.333333
vt 0.666667 0.166667
vt 0.750000 0.166667
vt 0.750000 0.500000
vt 0.666667 0.666667
vt 0.666667 0.500000
vt 0.750000 0.833333
vt 0.708333 1.000000
vt 0.666667 0.833333
vt 0.708333 0.000000
vt 0.666667 0.333333
vt 0.750000 0.666667
vt 0.583333 0.666667
vt 0.583333 0.500000
vt 0.625000 1.000000
vt 0.583333 0.833333
vt 0.625000 0.000000
vt 0.583333 0.166667
vt 0.583333 0.333333
vt 0.541667 1.000000
vt 0.500000 0.833333
vt 0.541667 0.000000
vt 0.500000 0.166667
vt 0.500000 0.333333
vt 0.500000 0.666667
vt 0.500000 0.500000
vt 0.458333 0.000000
vt 0.416667 0.166667
vt 0.416667 0.500000
vt 0.416667 0.333333
vt 0.416667 0.666667
vt 0.458333 1.000000
vt 0.416667 0.833333
vt 0.375000 0.000000
vt 0.333333 0.166667
vt 0.333333 0.500000
vt 0.333333 0.333333
vt 0.333333 0.666667
vt 0.375000 1.000000
vt 0.333333 0.833333
vt 0.291667 0.000000
vt 0.250000 0.166667
vt 0.250000 0.333333
vt 0.250000 0.833333
vt 0.250000 0.666667
vt 0.250000 0.500000
vt 0.291667 1.000000
vt 0.166667 0.500000
vt 0.166667 0.333333
vt 0.166667 0.666667
vt 0.166667 0.166667
vt 0.208333 1.000000
vt 0.166667 0.833333
vt 0.208333 0.000000
vt 0.083333 0.833333
vt 0.083333 0.666667
vt 0.083333 0.166667
vt 0.083333 0.500000
vt 0.125000 1.000000
vt 0.125000 0.000000
vt 0.083333 0.333333
vt 0.000000 0.166667
vt 0.000000 0.666667
vt 0.000000 0.500000
vt 0.041667 1.000000
vt 0.000000 0.833333
vt 0.041667 0.000000
vt 0.000000 0.333333
vt 1.000000 0.166667
vt 0.916667 0.333333
vt 0.916667 0.166667
vt 1.000000 0.666667
vt 0.916667 0.500000
vt 1.000000 0.500000
vt 1.000000 0.833333
vt 0.958333 1.000000
vt 0.916667 0.833333
vt 0.958333 0.000000
vt 1.000000 0.333333
vt 0.916667 0.666667
vt 0.833333 0.333333
vt 0.833333 0.166667
vt 0.833333 0.500000
vt 0.875000 1.000000
vt 0.833333 0.833333
vt 0.875000 0.000000
vt 0.833333 0.666667
vt 0.791667 1.000000
vt 0.791667 0.000000
s 0
usemtl verdant_carbonate
f 381/597/407 388/598/407 382/599/407
f 380/600/408 385/601/408 386/602/408
f 378/603/409 377/604/409 384/605/409
f 383/606/410 382/599/410 388/598/410
f 380/600/411 387/607/411 381/597/411
f 379/608/412 384/605/412 385/601/412
f 386/602/413 390/609/413 391/610/413
f 384/605/414 377/611/415 389/612/416
f 383/613/417 388/598/418 393/614/419
f 386/602/420 392/615/420 387/607/420
f 385/601/421 389/612/421 390/609/421
f 387/607/422 393/614/422 388/598/422
f 389/612/423 377/616/424 394/617/425
f 383/618/426 393/614/427 398/619/428
f 391/610/429 397/620/429 392/615/429
f 390/609/430 394/617/430 395/621/430
f 392/615/431 398/619/431 393/614/431
f 391/610/432 395/621/432 396/622/432
f 383/623/433 398/619/433 403/624/433
f 397/620/434 401/625/434 402/626/434
f 394/617/435 400/627/435 395/621/435
f 398/619/436 402/626/436 403/624/436
f 395/621/437 401/625/437 396/622/437
f 394/617/438 377/628/438 399/629/438
f 383/630/439 403/624/439 408/631/439
f 402/626/440 406/632/440 407/633/440
f 399/629/441 405/634/441 400/627/441
f 403/624/442 407/633/442 408/631/442
f 400/627/443 406/632/443 401/625/443
f 399/629/444 377/635/444 404/636/444
f 383/637/445 408/631/445 413/638/445
f 406/632/446 412/639/446 407/633/446
f 405/634/447 409/640/447 410/641/447
f 407/633/448 413/638/448 408/631/448
f 406/632/449 410/641/449 411/642/449
f 404/636/450 377/643/450 409/640/450
f 412/639/451 416/644/451 417/645/451
f 409/640/452 415/646/452 410/641/452
f 413/638/453 417/645/453 418/647/453
f 410/641/454 416/644/454 411/642/454
f 409/640/455 377/648/456 414/649/457
f 383/650/458 413/638/459 418/647/460
f 415/646/461 419/651/461 420/652/461
f 417/645/462 423/653/462 418/647/462
f 416/644/463 420/652/463 421/654/463
f 414/649/464 377/655/465 419/651/466
f 383/656/467 418/647/468 423/653/469
f 416/644/470 422/657/470 417/645/470
f 422/657/471 428/658/471 423/653/471
f 421/654/472 425/659/472 426/660/472
f 419/651/473 377/661/473 424/662/473
f 383/663/474 423/653/474 428/658/474
f 421/654/475 427/664/475 422/657/475
f 420/652/476 424/662/476 425/659/476
f 428/665/477 432/666/477 433/667/477
f 425/668/478 431/669/478 426/670/478
f 424/671/479 377/672/479 429/673/479
f 383/674/480 428/665/480 433/667/480
f 427/675/481 431/669/481 432/666/481
f 424/671/482 430/676/482 425/668/482
f 433/667/483 437/677/483 438/678/483
f 430/676/484 436/679/484 431/669/484
f 429/673/485 377/680/485 434/681/485
f 383/682/486 433/667/486 438/678/486
f 432/666/487 436/679/487 437/677/487
f 429/673/488 435/683/488 430/676/488
f 438/678/489 381/597/489 382/599/489
f 435/683/490 380/600/490 436/679/490
f 434/681/491 377/684/491 378/603/491
f 383/685/492 438/678/492 382/599/492
f 437/677/493 380/600/493 381/597/493
f 434/681/494 379/608/494 435/683/494
f 381/597/407 387/607/407 388/598/407
f 380/600/408 379/608/408 385/601/408
f 380/600/411 386/602/411 387/607/411
f 379/608/412 378/603/412 384/605/412
f 386/602/413 385/601/413 390/609/413
f 386/602/420 391/610/420 392/615/420
f 385/601/421 384/605/421 389/612/421
f 387/607/422 392/615/422 393/614/422
f 391/610/495 396/622/495 397/620/495
f 390/609/430 389/612/430 394/617/430
f 392/615/431 397/620/431 398/619/431
f 391/610/496 390/609/496 395/621/496
f 397/620/434 396/622/434 401/625/434
f 394/617/435 399/629/435 400/627/435
f 398/619/436 397/620/436 402/626/436
f 395/621/437 400/627/437 401/625/437
f 402/626/440 401/625/440 406/632/440
f 399/629/441 404/636/441 405/634/441
f 403/624/442 402/626/442 407/633/442
f 400/627/443 405/634/443 406/632/443
f 406/632/446 411/642/446 412/639/446
f 405/634/447 404/636/447 409/640/447
f 407/633/448 412/639/448 413/638/448
f 406/632/449 405/634/449 410/641/449
f 412/639/451 411/642/451 416/644/451
f 409/640/452 414/649/452 415/646/452
f 413/638/453 412/639/453 417/645/453
f 410/641/454 415/646/454 416/644/454
f 415/646/461 414/649/461 419/651/461
f 417/645/462 422/657/462 423/653/462
f 416/644/463 415/646/463 420/652/463
f 416/644/470 421/654/470 422/657/470
f 422/657/471 427/664/471 428/658/471
f 421/654/472 420/652/472 425/659/472
f 421/654/475 426/660/475 427/664/475
f 420/652/476 419/651/476 424/662/476
f 428/665/477 427/675/477 432/666/477
f 425/668/478 430/676/478 431/669/478
f 427/675/481 426/670/481 431/669/481
f 424/671/482 429/673/482 430/676/482
f 433/667/483 432/666/483 437/677/483
f 430/676/484 435/683/484 436/679/484
f 432/666/487 431/669/487 436/679/487
f 429/673/488 434/681/488 435/683/488
f 438/678/489 437/677/489 381/597/489
f 435/683/490 379/608/490 380/600/490
f 437/677/493 436/679/493 380/600/493
f 434/681/494 378/603/494 379/608/494
o signal_bead_-1_0
v -0.240000 0.330000 0.640000
v -0.240000 0.309497 0.590503
v -0.240000 0.260000 0.570000
v -0.240000 0.210503 0.590503
v -0.240000 0.190000 0.640000
v -0.205000 0.309497 0.605000
v -0.190503 0.260000 0.590503
v -0.205000 0.210503 0.605000
v -0.190503 0.309497 0.640000
v -0.170000 0.260000 0.640000
v -0.190503 0.210503 0.640000
v -0.205000 0.309497 0.675000
v -0.190503 0.260000 0.689497
v -0.205000 0.210503 0.675000
v -0.240000 0.309497 0.689497
v -0.240000 0.260000 0.710000
v -0.240000 0.210503 0.689497
v -0.275000 0.309497 0.675000
v -0.289497 0.260000 0.689497
v -0.275000 0.210503 0.675000
v -0.289497 0.309497 0.640000
v -0.310000 0.260000 0.640000
v -0.289497 0.210503 0.640000
v -0.275000 0.309497 0.605000
v -0.289497 0.260000 0.590503
v -0.275000 0.210503 0.605000
vn 0.3574 -0.3574 -0.8629
vn 0.1566 0.9125 -0.3780
vn 0.1566 -0.9125 -0.3780
vn 0.3574 0.3574 -0.8629
vn 0.3574 0.3574 -0.8628
vn 0.8629 -0.3574 -0.3574
vn 0.3780 0.9125 -0.1566
vn 0.3780 -0.9125 -0.1566
vn 0.8629 0.3574 -0.3574
vn 0.8629 -0.3574 0.3574
vn 0.3780 0.9125 0.1566
vn 0.3780 -0.9125 0.1566
vn 0.8629 0.3574 0.3574
vn 0.8628 0.3574 0.3574
vn 0.3574 -0.3574 0.8629
vn 0.1566 0.9125 0.3780
vn 0.1566 -0.9125 0.3780
vn 0.3574 0.3574 0.8629
vn -0.3574 -0.3574 0.8629
vn -0.1566 0.9125 0.3780
vn -0.1566 -0.9125 0.3780
vn -0.3574 0.3574 0.8629
vn -0.3574 0.3574 0.8628
vn -0.8629 0.3574 0.3574
vn -0.8629 -0.3574 0.3574
vn -0.3780 0.9125 0.1566
vn -0.3780 -0.9125 0.1566
vn -0.3780 -0.9125 -0.1566
vn -0.8629 0.3574 -0.3574
vn -0.8628 0.3574 -0.3574
vn -0.8629 -0.3574 -0.3574
vn -0.3780 0.9125 -0.1566
vn -0.1566 -0.9125 -0.3780
vn -0.3574 0.3574 -0.8629
vn -0.3574 -0.3574 -0.8629
vn -0.1566 0.9125 -0.3780
vn 0.3574 -0.3574 0.8628
vn -0.8628 -0.3574 0.3574
vt 0.750000 0.500000
vt 0.625000 0.250000
vt 0.750000 0.250000
vt 0.750000 0.750000
vt 0.687500 1.000000
vt 0.625000 0.750000
vt 0.687500 0.000000
vt 0.625000 0.500000
vt 0.500000 0.500000
vt 0.500000 0.250000
vt 0.562500 1.000000
vt 0.500000 0.750000
vt 0.562500 0.000000
vt 0.375000 0.250000
vt 0.437500 1.000000
vt 0.375000 0.750000
vt 0.437500 0.000000
vt 0.375000 0.500000
vt 0.250000 0.250000
vt 0.312500 1.000000
vt 0.250000 0.750000
vt 0.312500 0.000000
vt 0.250000 0.500000
vt 0.125000 0.250000
vt 0.187500 1.000000
vt 0.125000 0.750000
vt 0.187500 0.000000
vt 0.125000 0.500000
vt 0.000000 0.500000
vt 0.000000 0.250000
vt 0.062500 1.000000
vt 0.000000 0.750000
vt 0.062500 0.000000
vt 0.937500 0.000000
vt 1.000000 0.250000
vt 0.875000 0.250000
vt 1.000000 0.750000
vt 0.875000 0.500000
vt 1.000000 0.500000
vt 0.937500 1.000000
vt 0.875000 0.750000
vt 0.812500 0.000000
vt 0.812500 1.000000
s 1
usemtl verdant_amber
f 441/686/497 446/687/497 442/688/497
f 440/689/498 439/690/498 444/691/498
f 443/692/499 442/688/499 446/687/499
f 440/689/500 445/693/500 441/686/501
f 446/687/502 448/694/502 449/695/502
f 444/691/503 439/696/503 447/697/503
f 443/698/504 446/687/504 449/695/504
f 444/691/505 448/694/505 445/693/505
f 448/694/506 452/699/506 449/695/506
f 447/697/507 439/700/507 450/701/507
f 443/702/508 449/695/508 452/699/508
f 447/697/509 451/703/509 448/694/510
f 451/703/511 455/704/511 452/699/511
f 450/701/512 439/705/512 453/706/512
f 443/707/513 452/699/513 455/704/513
f 450/701/514 454/708/514 451/703/514
f 454/708/515 458/709/515 455/704/515
f 453/706/516 439/710/516 456/711/516
f 443/712/517 455/704/517 458/709/517
f 453/706/518 457/713/518 454/708/519
f 456/711/520 460/714/520 457/713/520
f 457/713/521 461/715/521 458/709/521
f 456/711/522 439/716/522 459/717/522
f 443/718/523 458/709/523 461/715/523
f 443/719/524 461/720/524 464/721/524
f 459/722/525 463/723/525 460/724/526
f 460/724/527 464/721/527 461/720/527
f 459/722/528 439/725/528 462/726/528
f 443/727/529 464/721/529 442/688/529
f 462/726/530 441/686/530 463/723/530
f 464/721/531 441/686/531 442/688/531
f 462/726/532 439/728/532 440/689/532
f 441/686/497 445/693/497 446/687/497
f 440/689/500 444/691/500 445/693/500
f 446/687/502 445/693/502 448/694/502
f 444/691/505 447/697/505 448/694/505
f 448/694/506 451/703/506 452/699/506
f 447/697/509 450/701/509 451/703/509
f 451/703/511 454/708/533 455/704/511
f 450/701/514 453/706/514 454/708/514
f 454/708/515 457/713/515 458/709/515
f 453/706/518 456/711/518 457/713/518
f 456/711/520 459/717/520 460/714/520
f 457/713/521 460/714/534 461/715/521
f 459/722/525 462/726/525 463/723/525
f 460/724/527 463/723/527 464/721/527
f 462/726/530 440/689/530 441/686/530
f 464/721/531 463/723/531 441/686/531
o signal_bead_-1_1
v 0.040000 0.500000 0.640000
v 0.040000 0.479497 0.590503
v 0.040000 0.430000 0.570000
v 0.040000 0.380503 0.590503
v 0.040000 0.360000 0.640000
v 0.075000 0.479497 0.605000
v 0.089497 0.430000 0.590503
v 0.075000 0.380503 0.605000
v 0.089497 0.479497 0.640000
v 0.110000 0.430000 0.640000
v 0.089497 0.380503 0.640000
v 0.075000 0.479497 0.675000
v 0.089497 0.430000 0.689497
v 0.075000 0.380503 0.675000
v 0.040000 0.479497 0.689497
v 0.040000 0.430000 0.710000
v 0.040000 0.380503 0.689497
v 0.005000 0.479497 0.675000
v -0.009497 0.430000 0.689497
v 0.005000 0.380503 0.675000
v -0.009497 0.479497 0.640000
v -0.030000 0.430000 0.640000
v -0.009497 0.380503 0.640000
v 0.005000 0.479497 0.605000
v -0.009497 0.430000 0.590503
v 0.005000 0.380503 0.605000
vn 0.3574 -0.3574 -0.8629
vn 0.1566 0.9125 -0.3780
vn 0.1566 -0.9125 -0.3780
vn 0.3574 0.3574 -0.8629
vn 0.3574 0.3574 -0.8628
vn 0.8629 -0.3574 -0.3574
vn 0.3780 0.9125 -0.1566
vn 0.3780 -0.9125 -0.1566
vn 0.8629 0.3574 -0.3574
vn 0.8629 -0.3574 0.3574
vn 0.3780 0.9125 0.1566
vn 0.3780 -0.9125 0.1566
vn 0.8629 0.3574 0.3574
vn 0.8628 0.3574 0.3574
vn 0.3574 -0.3574 0.8629
vn 0.1566 0.9125 0.3780
vn 0.1566 -0.9125 0.3780
vn 0.3574 0.3574 0.8629
vn -0.3574 -0.3574 0.8629
vn -0.1566 0.9125 0.3780
vn -0.1566 -0.9125 0.3780
vn -0.3574 0.3574 0.8629
vn -0.3574 0.3574 0.8628
vn -0.8629 0.3574 0.3574
vn -0.8629 -0.3574 0.3574
vn -0.3780 0.9125 0.1566
vn -0.3780 -0.9125 0.1566
vn -0.3780 -0.9125 -0.1566
vn -0.8629 0.3574 -0.3574
vn -0.8628 0.3574 -0.3574
vn -0.8629 -0.3574 -0.3574
vn -0.3780 0.9125 -0.1566
vn -0.1566 -0.9125 -0.3780
vn -0.3574 0.3574 -0.8629
vn -0.3574 -0.3574 -0.8629
vn -0.1566 0.9125 -0.3780
vn 0.3574 -0.3574 0.8628
vn -0.8628 -0.3574 0.3574
vt 0.750000 0.500000
vt 0.625000 0.250000
vt 0.750000 0.250000
vt 0.750000 0.750000
vt 0.687500 1.000000
vt 0.625000 0.750000
vt 0.687500 0.000000
vt 0.625000 0.500000
vt 0.500000 0.500000
vt 0.500000 0.250000
vt 0.562500 1.000000
vt 0.500000 0.750000
vt 0.562500 0.000000
vt 0.375000 0.250000
vt 0.437500 1.000000
vt 0.375000 0.750000
vt 0.437500 0.000000
vt 0.375000 0.500000
vt 0.250000 0.250000
vt 0.312500 1.000000
vt 0.250000 0.750000
vt 0.312500 0.000000
vt 0.250000 0.500000
vt 0.125000 0.250000
vt 0.187500 1.000000
vt 0.125000 0.750000
vt 0.187500 0.000000
vt 0.125000 0.500000
vt 0.000000 0.500000
vt 0.000000 0.250000
vt 0.062500 1.000000
vt 0.000000 0.750000
vt 0.062500 0.000000
vt 0.937500 0.000000
vt 1.000000 0.250000
vt 0.875000 0.250000
vt 1.000000 0.750000
vt 0.875000 0.500000
vt 1.000000 0.500000
vt 0.937500 1.000000
vt 0.875000 0.750000
vt 0.812500 0.000000
vt 0.812500 1.000000
s 1
usemtl verdant_amber
f 467/729/535 472/730/535 468/731/535
f 466/732/536 465/733/536 470/734/536
f 469/735/537 468/731/537 472/730/537
f 466/732/538 471/736/538 467/729/539
f 472/730/540 474/737/540 475/738/540
f 470/734/541 465/739/541 473/740/541
f 469/741/542 472/730/542 475/738/542
f 470/734/543 474/737/543 471/736/543
f 474/737/544 478/742/544 475/738/544
f 473/740/545 465/743/545 476/744/545
f 469/745/546 475/738/546 478/742/546
f 473/740/547 477/746/547 474/737/548
f 477/746/549 481/747/549 478/742/549
f 476/744/550 465/748/550 479/749/550
f 469/750/551 478/742/551 481/747/551
f 476/744/552 480/751/552 477/746/552
f 480/751/553 484/752/553 481/747/553
f 479/749/554 465/753/554 482/754/554
f 469/755/555 481/747/555 484/752/555
f 479/749/556 483/756/556 480/751/557
f 482/754/558 486/757/558 483/756/558
f 483/756/559 487/758/559 484/752/559
f 482/754/560 465/759/560 485/760/560
f 469/761/561 484/752/561 487/758/561
f 469/762/562 487/763/562 490/764/562
f 485/765/563 489/766/563 486/767/564
f 486/767/565 490/764/565 487/763/565
f 485/765/566 465/768/566 488/769/566
f 469/770/567 490/764/567 468/731/567
f 488/769/568 467/729/568 489/766/568
f 490/764/569 467/729/569 468/731/569
f 488/769/570 465/771/570 466/732/570
f 467/729/535 471/736/535 472/730/535
f 466/732/538 470/734/538 471/736/538
f 472/730/540 471/736/540 474/737/540
f 470/734/543 473/740/543 474/737/543
f 474/737/544 477/746/544 478/742/544
f 473/740/547 476/744/547 477/746/547
f 477/746/549 480/751/571 481/747/549
f 476/744/552 479/749/552 480/751/552
f 480/751/553 483/756/553 484/752/553
f 479/749/556 482/754/556 483/756/556
f 482/754/558 485/760/558 486/757/558
f 483/756/559 486/757/572 487/758/559
f 485/765/563 488/769/563 489/766/563
f 486/767/565 489/766/565 490/764/565
f 488/769/568 466/732/568 467/729/568
f 490/764/569 489/766/569 467/729/569
o signal_bead_-1_2
v 0.320000 0.670000 0.640000
v 0.320000 0.649498 0.590503
v 0.320000 0.600000 0.570000
v 0.320000 0.550503 0.590503
v 0.320000 0.530000 0.640000
v 0.355000 0.649498 0.605000
v 0.369497 0.600000 0.590503
v 0.355000 0.550503 0.605000
v 0.369497 0.649498 0.640000
v 0.390000 0.600000 0.640000
v 0.369497 0.550503 0.640000
v 0.355000 0.649498 0.675000
v 0.369497 0.600000 0.689497
v 0.355000 0.550503 0.675000
v 0.320000 0.649498 0.689497
v 0.320000 0.600000 0.710000
v 0.320000 0.550503 0.689497
v 0.285000 0.649498 0.675000
v 0.270503 0.600000 0.689497
v 0.285000 0.550503 0.675000
v 0.270503 0.649498 0.640000
v 0.250000 0.600000 0.640000
v 0.270503 0.550503 0.640000
v 0.285000 0.649498 0.605000
v 0.270503 0.600000 0.590503
v 0.285000 0.550503 0.605000
vn 0.3574 -0.3574 -0.8629
vn 0.1566 0.9125 -0.3780
vn 0.1566 -0.9125 -0.3780
vn 0.3574 0.3574 -0.8629
vn 0.8629 -0.3574 -0.3574
vn 0.3780 0.9125 -0.1566
vn 0.3780 -0.9125 -0.1566
vn 0.8629 0.3574 -0.3574
vn 0.8629 -0.3574 0.3574
vn 0.3780 0.9125 0.1566
vn 0.3780 -0.9125 0.1566
vn 0.8629 0.3574 0.3574
vn 0.3574 -0.3574 0.8629
vn 0.1566 0.9125 0.3780
vn 0.1566 -0.9125 0.3780
vn 0.3574 0.3574 0.8629
vn -0.3574 -0.3574 0.8629
vn -0.1566 0.9125 0.3780
vn -0.1566 -0.9125 0.3780
vn -0.3574 0.3574 0.8629
vn -0.8629 0.3574 0.3574
vn -0.8629 -0.3574 0.3574
vn -0.3780 0.9125 0.1566
vn -0.3780 -0.9125 0.1566
vn -0.3780 -0.9125 -0.1566
vn -0.8629 0.3574 -0.3574
vn -0.8629 -0.3574 -0.3574
vn -0.3780 0.9125 -0.1565
vn -0.1566 -0.9125 -0.3780
vn -0.3574 0.3574 -0.8629
vn -0.3574 -0.3574 -0.8629
vn -0.1566 0.9125 -0.3780
vn 0.3574 -0.3574 0.8628
vn -0.8628 -0.3574 0.3574
vt 0.750000 0.500000
vt 0.625000 0.250000
vt 0.750000 0.250000
vt 0.750000 0.750000
vt 0.687500 1.000000
vt 0.625000 0.750000
vt 0.687500 0.000000
vt 0.625000 0.500000
vt 0.500000 0.500000
vt 0.500000 0.250000
vt 0.562500 1.000000
vt 0.500000 0.750000
vt 0.562500 0.000000
vt 0.375000 0.250000
vt 0.437500 1.000000
vt 0.375000 0.750000
vt 0.437500 0.000000
vt 0.375000 0.500000
vt 0.250000 0.250000
vt 0.312500 1.000000
vt 0.250000 0.750000
vt 0.312500 0.000000
vt 0.250000 0.500000
vt 0.125000 0.250000
vt 0.187500 1.000000
vt 0.125000 0.750000
vt 0.187500 0.000000
vt 0.125000 0.500000
vt 0.000000 0.500000
vt 0.000000 0.250000
vt 0.062500 1.000000
vt 0.000000 0.750000
vt 0.062500 0.000000
vt 0.937500 0.000000
vt 1.000000 0.250000
vt 0.875000 0.250000
vt 1.000000 0.750000
vt 0.875000 0.500000
vt 1.000000 0.500000
vt 0.937500 1.000000
vt 0.875000 0.750000
vt 0.812500 0.000000
vt 0.812500 1.000000
s 1
usemtl verdant_amber
f 493/772/573 498/773/573 494/774/573
f 492/775/574 491/776/574 496/777/574
f 495/778/575 494/774/575 498/773/575
f 492/775/576 497/779/576 493/772/576
f 498/773/577 500/780/577 501/781/577
f 496/777/578 491/782/578 499/783/578
f 495/784/579 498/773/579 501/781/579
f 496/777/580 500/780/580 497/779/580
f 500/780/581 504/785/581 501/781/581
f 499/783/582 491/786/582 502/787/582
f 495/788/583 501/781/583 504/785/583
f 499/783/584 503/789/584 500/780/584
f 503/789/585 507/790/585 504/785/585
f 502/787/586 491/791/586 505/792/586
f 495/793/587 504/785/587 507/790/587
f 502/787/588 506/794/588 503/789/588
f 506/794/589 510/795/589 507/790/589
f 505/792/590 491/796/590 508/797/590
f 495/798/591 507/790/591 510/795/591
f 505/792/592 509/799/592 506/794/592
f 508/797/593 512/800/593 509/799/593
f 509/799/594 513/801/594 510/795/594
f 508/797/595 491/802/595 511/803/595
f 495/804/596 510/795/596 513/801/596
f 495/805/597 513/806/597 516/807/597
f 511/808/598 515/809/598 512/810/598
f 512/810/599 516/807/599 513/806/599
f 511/808/600 491/811/600 514/812/600
f 495/813/601 516/807/601 494/774/601
f 514/812/602 493/772/602 515/809/602
f 516/807/603 493/772/603 494/774/603
f 514/812/604 491/814/604 492/775/604
f 493/772/573 497/779/573 498/773/573
f 492/775/576 496/777/576 497/779/576
f 498/773/577 497/779/577 500/780/577
f 496/777/580 499/783/580 500/780/580
f 500/780/581 503/789/581 504/785/581
f 499/783/584 502/787/584 503/789/584
f 503/789/585 506/794/605 507/790/585
f 502/787/588 505/792/588 506/794/588
f 506/794/589 509/799/589 510/795/589
f 505/792/592 508/797/592 509/799/592
f 508/797/593 511/803/593 512/800/593
f 509/799/594 512/800/606 513/801/594
f 511/808/598 514/812/598 515/809/598
f 512/810/599 515/809/599 516/807/599
f 514/812/602 492/775/602 493/772/602
f 516/807/603 515/809/603 493/772/603
o signal_bead_1_0
v -0.240000 0.330000 -0.640000
v -0.240000 0.309497 -0.689497
v -0.240000 0.260000 -0.710000
v -0.240000 0.210503 -0.689497
v -0.240000 0.190000 -0.640000
v -0.205000 0.309497 -0.675000
v -0.190503 0.260000 -0.689497
v -0.205000 0.210503 -0.675000
v -0.190503 0.309497 -0.640000
v -0.170000 0.260000 -0.640000
v -0.190503 0.210503 -0.640000
v -0.205000 0.309497 -0.605000
v -0.190503 0.260000 -0.590503
v -0.205000 0.210503 -0.605000
v -0.240000 0.309497 -0.590503
v -0.240000 0.260000 -0.570000
v -0.240000 0.210503 -0.590503
v -0.275000 0.309497 -0.605000
v -0.289497 0.260000 -0.590503
v -0.275000 0.210503 -0.605000
v -0.289497 0.309497 -0.640000
v -0.310000 0.260000 -0.640000
v -0.289497 0.210503 -0.640000
v -0.275000 0.309497 -0.675000
v -0.289497 0.260000 -0.689497
v -0.275000 0.210503 -0.675000
vn 0.3574 -0.3574 -0.8629
vn 0.1566 0.9125 -0.3780
vn 0.1566 -0.9125 -0.3780
vn 0.3574 0.3574 -0.8629
vn 0.3574 0.3574 -0.8628
vn 0.8629 -0.3574 -0.3574
vn 0.3780 0.9125 -0.1566
vn 0.3780 -0.9125 -0.1566
vn 0.8629 0.3574 -0.3574
vn 0.8629 -0.3574 0.3574
vn 0.3780 0.9125 0.1566
vn 0.3780 -0.9125 0.1566
vn 0.8629 0.3574 0.3574
vn 0.8628 0.3574 0.3574
vn 0.3574 -0.3574 0.8629
vn 0.1566 0.9125 0.3780
vn 0.1566 -0.9125 0.3780
vn 0.3574 0.3574 0.8629
vn -0.3574 -0.3574 0.8629
vn -0.1566 0.9125 0.3780
vn -0.1566 -0.9125 0.3780
vn -0.3574 0.3574 0.8629
vn -0.3574 0.3574 0.8628
vn -0.8629 0.3574 0.3574
vn -0.8629 -0.3574 0.3574
vn -0.3780 0.9125 0.1566
vn -0.3780 -0.9125 0.1566
vn -0.3780 -0.9125 -0.1566
vn -0.8629 0.3574 -0.3574
vn -0.8628 0.3574 -0.3574
vn -0.8629 -0.3574 -0.3574
vn -0.3780 0.9125 -0.1566
vn -0.1566 -0.9125 -0.3780
vn -0.3574 0.3574 -0.8629
vn -0.3574 -0.3574 -0.8629
vn -0.1566 0.9125 -0.3780
vn 0.3574 -0.3574 0.8628
vn -0.8628 -0.3574 0.3574
vt 0.750000 0.500000
vt 0.625000 0.250000
vt 0.750000 0.250000
vt 0.750000 0.750000
vt 0.687500 1.000000
vt 0.625000 0.750000
vt 0.687500 0.000000
vt 0.625000 0.500000
vt 0.500000 0.500000
vt 0.500000 0.250000
vt 0.562500 1.000000
vt 0.500000 0.750000
vt 0.562500 0.000000
vt 0.375000 0.250000
vt 0.437500 1.000000
vt 0.375000 0.750000
vt 0.437500 0.000000
vt 0.375000 0.500000
vt 0.250000 0.250000
vt 0.312500 1.000000
vt 0.250000 0.750000
vt 0.312500 0.000000
vt 0.250000 0.500000
vt 0.125000 0.250000
vt 0.187500 1.000000
vt 0.125000 0.750000
vt 0.187500 0.000000
vt 0.125000 0.500000
vt 0.000000 0.500000
vt 0.000000 0.250000
vt 0.062500 1.000000
vt 0.000000 0.750000
vt 0.062500 0.000000
vt 0.937500 0.000000
vt 1.000000 0.250000
vt 0.875000 0.250000
vt 1.000000 0.750000
vt 0.875000 0.500000
vt 1.000000 0.500000
vt 0.937500 1.000000
vt 0.875000 0.750000
vt 0.812500 0.000000
vt 0.812500 1.000000
s 1
usemtl verdant_amber
f 519/815/607 524/816/607 520/817/607
f 518/818/608 517/819/608 522/820/608
f 521/821/609 520/817/609 524/816/609
f 518/818/610 523/822/610 519/815/611
f 524/816/612 526/823/612 527/824/612
f 522/820/613 517/825/613 525/826/613
f 521/827/614 524/816/614 527/824/614
f 522/820/615 526/823/615 523/822/615
f 526/823/616 530/828/616 527/824/616
f 525/826/617 517/829/617 528/830/617
f 521/831/618 527/824/618 530/828/618
f 525/826/619 529/832/619 526/823/620
f 529/832/621 533/833/621 530/828/621
f 528/830/622 517/834/622 531/835/622
f 521/836/623 530/828/623 533/833/623
f 528/830/624 532/837/624 529/832/624
f 532/837/625 536/838/625 533/833/625
f 531/835/626 517/839/626 534/840/626
f 521/841/627 533/833/627 536/838/627
f 531/835/628 535/842/628 532/837/629
f 534/840/630 538/843/630 535/842/630
f 535/842/631 539/844/631 536/838/631
f 534/840/632 517/845/632 537/846/632
f 521/847/633 536/838/633 539/844/633
f 521/848/634 539/849/634 542/850/634
f 537/851/635 541/852/635 538/853/636
f 538/853/637 542/850/637 539/849/637
f 537/851/638 517/854/638 540/855/638
f 521/856/639 542/850/639 520/817/639
f 540/855/640 519/815/640 541/852/640
f 542/850/641 519/815/641 520/817/641
f 540/855/642 517/857/642 518/818/642
f 519/815/607 523/822/607 524/816/607
f 518/818/610 522/820/610 523/822/610
f 524/816/612 523/822/612 526/823/612
f 522/820/615 525/826/615 526/823/615
f 526/823/616 529/832/616 530/828/616
f 525/826/619 528/830/619 529/832/619
f 529/832/621 532/837/643 533/833/621
f 528/830/624 531/835/624 532/837/624
f 532/837/625 535/842/625 536/838/625
f 531/835/628 534/840/628 535/842/628
f 534/840/630 537/846/630 538/843/630
f 535/842/631 538/843/644 539/844/631
f 537/851/635 540/855/635 541/852/635
f 538/853/637 541/852/637 542/850/637
f 540/855/640 518/818/640 519/815/640
f 542/850/641 541/852/641 519/815/641
o signal_bead_1_1
v 0.040000 0.500000 -0.640000
v 0.040000 0.479497 -0.689497
v 0.040000 0.430000 -0.710000
v 0.040000 0.380503 -0.689497
v 0.040000 0.360000 -0.640000
v 0.075000 0.479497 -0.675000
v 0.089497 0.430000 -0.689497
v 0.075000 0.380503 -0.675000
v 0.089497 0.479497 -0.640000
v 0.110000 0.430000 -0.640000
v 0.089497 0.380503 -0.640000
v 0.075000 0.479497 -0.605000
v 0.089497 0.430000 -0.590503
v 0.075000 0.380503 -0.605000
v 0.040000 0.479497 -0.590503
v 0.040000 0.430000 -0.570000
v 0.040000 0.380503 -0.590503
v 0.005000 0.479497 -0.605000
v -0.009497 0.430000 -0.590503
v 0.005000 0.380503 -0.605000
v -0.009497 0.479497 -0.640000
v -0.030000 0.430000 -0.640000
v -0.009497 0.380503 -0.640000
v 0.005000 0.479497 -0.675000
v -0.009497 0.430000 -0.689497
v 0.005000 0.380503 -0.675000
vn 0.3574 -0.3574 -0.8629
vn 0.1566 0.9125 -0.3780
vn 0.1566 -0.9125 -0.3780
vn 0.3574 0.3574 -0.8629
vn 0.3574 0.3574 -0.8628
vn 0.8629 -0.3574 -0.3574
vn 0.3780 0.9125 -0.1566
vn 0.3780 -0.9125 -0.1566
vn 0.8629 0.3574 -0.3574
vn 0.8629 -0.3574 0.3574
vn 0.3780 0.9125 0.1566
vn 0.3780 -0.9125 0.1566
vn 0.8629 0.3574 0.3574
vn 0.8628 0.3574 0.3574
vn 0.3574 -0.3574 0.8629
vn 0.1566 0.9125 0.3780
vn 0.1566 -0.9125 0.3780
vn 0.3574 0.3574 0.8629
vn -0.3574 -0.3574 0.8629
vn -0.1566 0.9125 0.3780
vn -0.1566 -0.9125 0.3780
vn -0.3574 0.3574 0.8629
vn -0.3574 0.3574 0.8628
vn -0.8629 0.3574 0.3574
vn -0.8629 -0.3574 0.3574
vn -0.3780 0.9125 0.1566
vn -0.3780 -0.9125 0.1566
vn -0.3780 -0.9125 -0.1566
vn -0.8629 0.3574 -0.3574
vn -0.8628 0.3574 -0.3574
vn -0.8629 -0.3574 -0.3574
vn -0.3780 0.9125 -0.1566
vn -0.1566 -0.9125 -0.3780
vn -0.3574 0.3574 -0.8629
vn -0.3574 -0.3574 -0.8629
vn -0.1566 0.9125 -0.3780
vn 0.3574 -0.3574 0.8628
vn -0.8628 -0.3574 0.3574
vt 0.750000 0.500000
vt 0.625000 0.250000
vt 0.750000 0.250000
vt 0.750000 0.750000
vt 0.687500 1.000000
vt 0.625000 0.750000
vt 0.687500 0.000000
vt 0.625000 0.500000
vt 0.500000 0.500000
vt 0.500000 0.250000
vt 0.562500 1.000000
vt 0.500000 0.750000
vt 0.562500 0.000000
vt 0.375000 0.250000
vt 0.437500 1.000000
vt 0.375000 0.750000
vt 0.437500 0.000000
vt 0.375000 0.500000
vt 0.250000 0.250000
vt 0.312500 1.000000
vt 0.250000 0.750000
vt 0.312500 0.000000
vt 0.250000 0.500000
vt 0.125000 0.250000
vt 0.187500 1.000000
vt 0.125000 0.750000
vt 0.187500 0.000000
vt 0.125000 0.500000
vt 0.000000 0.500000
vt 0.000000 0.250000
vt 0.062500 1.000000
vt 0.000000 0.750000
vt 0.062500 0.000000
vt 0.937500 0.000000
vt 1.000000 0.250000
vt 0.875000 0.250000
vt 1.000000 0.750000
vt 0.875000 0.500000
vt 1.000000 0.500000
vt 0.937500 1.000000
vt 0.875000 0.750000
vt 0.812500 0.000000
vt 0.812500 1.000000
s 1
usemtl verdant_amber
f 545/858/645 550/859/645 546/860/645
f 544/861/646 543/862/646 548/863/646
f 547/864/647 546/860/647 550/859/647
f 544/861/648 549/865/648 545/858/649
f 550/859/650 552/866/650 553/867/650
f 548/863/651 543/868/651 551/869/651
f 547/870/652 550/859/652 553/867/652
f 548/863/653 552/866/653 549/865/653
f 552/866/654 556/871/654 553/867/654
f 551/869/655 543/872/655 554/873/655
f 547/874/656 553/867/656 556/871/656
f 551/869/657 555/875/657 552/866/658
f 555/875/659 559/876/659 556/871/659
f 554/873/660 543/877/660 557/878/660
f 547/879/661 556/871/661 559/876/661
f 554/873/662 558/880/662 555/875/662
f 558/880/663 562/881/663 559/876/663
f 557/878/664 543/882/664 560/883/664
f 547/884/665 559/876/665 562/881/665
f 557/878/666 561/885/666 558/880/667
f 560/883/668 564/886/668 561/885/668
f 561/885/669 565/887/669 562/881/669
f 560/883/670 543/888/670 563/889/670
f 547/890/671 562/881/671 565/887/671
f 547/891/672 565/892/672 568/893/672
f 563/894/673 567/895/673 564/896/674
f 564/896/675 568/893/675 565/892/675
f 563/894/676 543/897/676 566/898/676
f 547/899/677 568/893/677 546/860/677
f 566/898/678 545/858/678 567/895/678
f 568/893/679 545/858/679 546/860/679
f 566/898/680 543/900/680 544/861/680
f 545/858/645 549/865/645 550/859/645
f 544/861/648 548/863/648 549/865/648
f 550/859/650 549/865/650 552/866/650
f 548/863/653 551/869/653 552/866/653
f 552/866/654 555/875/654 556/871/654
f 551/869/657 554/873/657 555/875/657
f 555/875/659 558/880/681 559/876/659
f 554/873/662 557/878/662 558/880/662
f 558/880/663 561/885/663 562/881/663
f 557/878/666 560/883/666 561/885/666
f 560/883/668 563/889/668 564/886/668
f 561/885/669 564/886/682 565/887/669
f 563/894/673 566/898/673 567/895/673
f 564/896/675 567/895/675 568/893/675
f 566/898/678 544/861/678 545/858/678
f 568/893/679 567/895/679 545/858/679
o signal_bead_1_2
v 0.320000 0.670000 -0.640000
v 0.320000 0.649498 -0.689497
v 0.320000 0.600000 -0.710000
v 0.320000 0.550503 -0.689497
v 0.320000 0.530000 -0.640000
v 0.355000 0.649498 -0.675000
v 0.369497 0.600000 -0.689497
v 0.355000 0.550503 -0.675000
v 0.369497 0.649498 -0.640000
v 0.390000 0.600000 -0.640000
v 0.369497 0.550503 -0.640000
v 0.355000 0.649498 -0.605000
v 0.369497 0.600000 -0.590503
v 0.355000 0.550503 -0.605000
v 0.320000 0.649498 -0.590503
v 0.320000 0.600000 -0.570000
v 0.320000 0.550503 -0.590503
v 0.285000 0.649498 -0.605000
v 0.270503 0.600000 -0.590503
v 0.285000 0.550503 -0.605000
v 0.270503 0.649498 -0.640000
v 0.250000 0.600000 -0.640000
v 0.270503 0.550503 -0.640000
v 0.285000 0.649498 -0.675000
v 0.270503 0.600000 -0.689497
v 0.285000 0.550503 -0.675000
vn 0.3574 -0.3574 -0.8629
vn 0.1566 0.9125 -0.3780
vn 0.1566 -0.9125 -0.3780
vn 0.3574 0.3574 -0.8629
vn 0.8629 -0.3574 -0.3574
vn 0.3780 0.9125 -0.1566
vn 0.3780 -0.9125 -0.1566
vn 0.8629 0.3574 -0.3574
vn 0.8629 -0.3574 0.3574
vn 0.3780 0.9125 0.1566
vn 0.3780 -0.9125 0.1566
vn 0.8629 0.3574 0.3574
vn 0.3574 -0.3574 0.8629
vn 0.1566 0.9125 0.3780
vn 0.1566 -0.9125 0.3780
vn 0.3574 0.3574 0.8629
vn -0.3574 -0.3574 0.8629
vn -0.1566 0.9125 0.3780
vn -0.1566 -0.9125 0.3780
vn -0.3574 0.3574 0.8629
vn -0.8629 0.3574 0.3574
vn -0.8629 -0.3574 0.3574
vn -0.3780 0.9125 0.1566
vn -0.3780 -0.9125 0.1566
vn -0.3780 -0.9125 -0.1566
vn -0.8629 0.3574 -0.3574
vn -0.8629 -0.3574 -0.3574
vn -0.3780 0.9125 -0.1565
vn -0.1566 -0.9125 -0.3780
vn -0.3574 0.3574 -0.8629
vn -0.3574 -0.3574 -0.8629
vn -0.1566 0.9125 -0.3780
vn 0.3574 -0.3574 0.8628
vn -0.8628 -0.3574 0.3574
vt 0.750000 0.500000
vt 0.625000 0.250000
vt 0.750000 0.250000
vt 0.750000 0.750000
vt 0.687500 1.000000
vt 0.625000 0.750000
vt 0.687500 0.000000
vt 0.625000 0.500000
vt 0.500000 0.500000
vt 0.500000 0.250000
vt 0.562500 1.000000
vt 0.500000 0.750000
vt 0.562500 0.000000
vt 0.375000 0.250000
vt 0.437500 1.000000
vt 0.375000 0.750000
vt 0.437500 0.000000
vt 0.375000 0.500000
vt 0.250000 0.250000
vt 0.312500 1.000000
vt 0.250000 0.750000
vt 0.312500 0.000000
vt 0.250000 0.500000
vt 0.125000 0.250000
vt 0.187500 1.000000
vt 0.125000 0.750000
vt 0.187500 0.000000
vt 0.125000 0.500000
vt 0.000000 0.500000
vt 0.000000 0.250000
vt 0.062500 1.000000
vt 0.000000 0.750000
vt 0.062500 0.000000
vt 0.937500 0.000000
vt 1.000000 0.250000
vt 0.875000 0.250000
vt 1.000000 0.750000
vt 0.875000 0.500000
vt 1.000000 0.500000
vt 0.937500 1.000000
vt 0.875000 0.750000
vt 0.812500 0.000000
vt 0.812500 1.000000
s 1
usemtl verdant_amber
f 571/901/683 576/902/683 572/903/683
f 570/904/684 569/905/684 574/906/684
f 573/907/685 572/903/685 576/902/685
f 570/904/686 575/908/686 571/901/686
f 576/902/687 578/909/687 579/910/687
f 574/906/688 569/911/688 577/912/688
f 573/913/689 576/902/689 579/910/689
f 574/906/690 578/909/690 575/908/690
f 578/909/691 582/914/691 579/910/691
f 577/912/692 569/915/692 580/916/692
f 573/917/693 579/910/693 582/914/693
f 577/912/694 581/918/694 578/909/694
f 581/918/695 585/919/695 582/914/695
f 580/916/696 569/920/696 583/921/696
f 573/922/697 582/914/697 585/919/697
f 580/916/698 584/923/698 581/918/698
f 584/923/699 588/924/699 585/919/699
f 583/921/700 569/925/700 586/926/700
f 573/927/701 585/919/701 588/924/701
f 583/921/702 587/928/702 584/923/702
f 586/926/703 590/929/703 587/928/703
f 587/928/704 591/930/704 588/924/704
f 586/926/705 569/931/705 589/932/705
f 573/933/706 588/924/706 591/930/706
f 573/934/707 591/935/707 594/936/707
f 589/937/708 593/938/708 590/939/708
f 590/939/709 594/936/709 591/935/709
f 589/937/710 569/940/710 592/941/710
f 573/942/711 594/936/711 572/903/711
f 592/941/712 571/901/712 593/938/712
f 594/936/713 571/901/713 572/903/713
f 592/941/714 569/943/714 570/904/714
f 571/901/683 575/908/683 576/902/683
f 570/904/686 574/906/686 575/908/686
f 576/902/687 575/908/687 578/909/687
f 574/906/690 577/912/690 578/909/690
f 578/909/691 581/918/691 582/914/691
f 577/912/694 580/916/694 581/918/694
f 581/918/695 584/923/715 585/919/695
f 580/916/698 583/921/698 584/923/698
f 584/923/699 587/928/699 588/924/699
f 583/921/702 586/926/702 587/928/702
f 586/926/703 589/932/703 590/929/703
f 587/928/704 590/929/716 591/930/704
f 589/937/708 592/941/708 593/938/708
f 590/939/709 593/938/709 594/936/709
f 592/941/712 570/904/712 571/901/712
f 594/936/713 593/938/713 571/901/713
