# Blender 5.2.1 LTS
# www.blender.org
mtllib plant_branch_a.mtl
o plant_branch_a
v 0.000000 0.110000 -0.110000
v 0.000000 1.550000 -0.110000
v -0.086000 0.110000 -0.068580
v -0.086000 1.550000 -0.068580
v -0.107240 0.110000 0.024480
v -0.107240 1.550000 0.024480
v -0.047730 0.110000 0.099110
v -0.047730 1.550000 0.099110
v 0.047730 0.110000 0.099110
v 0.047730 1.550000 0.099110
v 0.107240 0.110000 0.024480
v 0.107240 1.550000 0.024480
v 0.086000 0.110000 -0.068580
v 0.086000 1.550000 -0.068580
v 0.000000 0.350000 0.070000
v 0.450000 0.670000 0.070000
v 0.035130 0.300600 0.035000
v 0.485130 0.620600 0.035000
v 0.035130 0.300600 -0.035000
v 0.485130 0.620600 -0.035000
v 0.000000 0.350000 -0.070000
v 0.450000 0.670000 -0.070000
v -0.035130 0.399400 -0.035000
v 0.414870 0.719400 -0.035000
v -0.035130 0.399400 0.035000
v 0.414870 0.719400 0.035000
v 0.450000 0.670000 -0.000000
v 0.588560 0.770000 -0.000000
v 0.519280 0.770000 0.060000
v 0.380720 0.770000 0.060000
v 0.311440 0.770000 -0.000000
v 0.380720 0.770000 -0.060000
v 0.519280 0.770000 -0.060000
v 0.588560 0.970000 -0.000000
v 0.519280 0.970000 0.060000
v 0.380720 0.970000 0.060000
v 0.311440 0.970000 -0.000000
v 0.380720 0.970000 -0.060000
v 0.519280 0.970000 -0.060000
v 0.450000 1.070000 -0.000000
v -0.012870 0.634170 -0.068810
v -0.552870 0.954170 0.032170
v -0.036430 0.581780 -0.028800
v -0.576430 0.901780 0.072180
v -0.023560 0.581780 0.040010
v -0.563560 0.901780 0.140990
v 0.012870 0.634170 0.068810
v -0.527130 0.954170 0.169780
v 0.036430 0.686550 0.028800
v -0.503570 1.006550 0.129770
v 0.023560 0.686550 -0.040010
v -0.516440 1.006550 0.060960
v -0.540000 0.954170 0.100980
v -0.401440 1.054170 0.100980
v -0.470720 1.054170 0.160980
v -0.609280 1.054170 0.160980
v -0.678560 1.054170 0.100980
v -0.609280 1.054170 0.040980
v -0.470720 1.054170 0.040980
v -0.401440 1.254170 0.100980
v -0.470720 1.254170 0.160980
v -0.609280 1.254170 0.160980
v -0.678560 1.254170 0.100980
v -0.609280 1.254170 0.040980
v -0.470720 1.254170 0.040980
v -0.540000 1.354170 0.100980
v -0.011950 0.918330 0.068970
v 0.618050 1.238330 0.178090
v 0.020760 0.864120 0.039120
v 0.650760 1.184120 0.148230
v 0.032710 0.864120 -0.029860
v 0.662710 1.184120 0.079260
v 0.011950 0.918330 -0.068970
v 0.641950 1.238330 0.040140
v -0.020760 0.972540 -0.039120
v 0.609240 1.292540 0.070000
v -0.032710 0.972540 0.029860
v 0.597290 1.292540 0.138970
v 0.630000 1.238330 0.109120
v 0.768560 1.338330 0.109120
v 0.699280 1.338330 0.169120
v 0.560720 1.338330 0.169120
v 0.491440 1.338330 0.109120
v 0.560720 1.338330 0.049120
v 0.699280 1.338330 0.049120
v 0.768560 1.538330 0.109120
v 0.699280 1.538330 0.169120
v 0.560720 1.538330 0.169120
v 0.491440 1.538330 0.109120
v 0.560720 1.538330 0.049120
v 0.699280 1.538330 0.049120
v 0.630000 1.638330 0.109120
v -0.001650 1.202500 -0.069980
v -0.721650 1.522500 -0.053050
v -0.025430 1.147100 -0.034410
v -0.745430 1.467100 -0.017480
v -0.023790 1.147100 0.035570
v -0.743790 1.467100 0.052500
v 0.001650 1.202500 0.069980
v -0.718350 1.522500 0.086920
v 0.025430 1.257900 0.034410
v -0.694570 1.577900 0.051350
v 0.023790 1.257900 -0.035570
v -0.696210 1.577900 -0.018630
v -0.720000 1.522500 0.016930
v -0.581440 1.622500 0.016930
v -0.650720 1.622500 0.076930
v -0.789280 1.622500 0.076930
v -0.858560 1.622500 0.016930
v -0.789280 1.622500 -0.043070
v -0.650720 1.622500 -0.043070
v -0.581440 1.822500 0.016930
v -0.650720 1.822500 0.076930
v -0.789280 1.822500 0.076930
v -0.858560 1.822500 0.016930
v -0.789280 1.822500 -0.043070
v -0.650720 1.822500 -0.043070
v -0.720000 1.922500 0.016930
vn -0.0000 -0.6212 -0.7836
vn -0.0000 0.6212 -0.7836
vn -0.6127 -0.6213 -0.4886
vn -0.6127 0.6212 -0.4886
vn -0.7640 -0.6212 0.1744
vn -0.7640 0.6212 0.1744
vn -0.3400 -0.6212 0.7060
vn -0.3400 0.6212 0.7060
vn 0.3400 -0.6212 0.7060
vn 0.3400 0.6212 0.7060
vn 0.7640 -0.6212 0.1744
vn 0.7640 0.6213 0.1744
vn 0.6127 -0.6212 -0.4886
vn 0.6127 0.6212 -0.4886
vn -0.4971 -0.3535 0.7924
vn 0.4971 0.3535 0.7924
vn -0.0994 -0.9128 0.3962
vn 0.8948 -0.2058 0.3962
vn -0.0994 -0.9128 -0.3962
vn 0.8948 -0.2057 -0.3962
vn -0.4971 -0.3535 -0.7924
vn 0.4971 0.3535 -0.7924
vn -0.8948 0.2058 -0.3962
vn 0.0994 0.9128 -0.3962
vn -0.8948 0.2057 0.3962
vn 0.0994 0.9128 0.3962
vn -0.0000 -1.0000 -0.0000
vn 0.9232 -0.3844 -0.0000
vn 0.3530 -0.3176 0.8800
vn -0.3530 -0.3176 0.8801
vn -0.9232 -0.3844 -0.0000
vn -0.3530 -0.3176 -0.8800
vn 0.3530 -0.3176 -0.8801
vn 0.9232 0.3844 -0.0000
vn 0.3530 0.3176 0.8801
vn -0.3530 0.3176 0.8800
vn -0.9232 0.3844 -0.0000
vn -0.3530 0.3176 -0.8801
vn 0.3530 0.3176 -0.8800
vn -0.0000 1.0000 -0.0000
vn 0.3725 -0.3070 -0.8758
vn -0.6638 0.3071 -0.6820
vn 0.1058 -0.9000 -0.4229
vn -0.9305 -0.2859 -0.2291
vn 0.2514 -0.9000 0.3560
vn -0.7848 -0.2859 0.5499
vn 0.6637 -0.3070 0.6820
vn -0.3724 0.3071 0.8758
vn 0.9305 0.2859 0.2291
vn -0.1057 0.9000 0.4228
vn 0.7848 0.2859 -0.5498
vn -0.2514 0.9000 -0.3561
vn -0.3530 -0.3176 -0.8801
vn -0.6727 -0.2730 0.6877
vn 0.4022 0.2730 0.8739
vn -0.3025 -0.8867 0.3497
vn 0.7725 -0.3407 0.5359
vn -0.1672 -0.8867 -0.4311
vn 0.9077 -0.3407 -0.2448
vn -0.4022 -0.2730 -0.8739
vn 0.6727 0.2730 -0.6877
vn -0.7725 0.3407 -0.5359
vn 0.3025 0.8867 -0.3497
vn -0.9077 0.3407 0.2449
vn 0.1672 0.8867 0.4311
vn -0.3530 0.3176 0.8801
vn 0.3530 0.3176 -0.8801
vn 0.5386 -0.2477 -0.8053
vn -0.5760 0.2477 -0.7790
vn 0.2695 -0.8748 -0.4026
vn -0.8452 -0.3794 -0.3764
vn 0.2880 -0.8748 0.3895
vn -0.8266 -0.3794 0.4157
vn 0.5760 -0.2477 0.7790
vn -0.5386 0.2477 0.8053
vn 0.8452 0.3794 0.3764
vn -0.2695 0.8748 0.4026
vn 0.8266 0.3794 -0.4157
vn -0.2880 0.8748 -0.3895
s 1
usemtl verdant_fibre
f 11//11 7//7 3//3
f 4//4 8//8 12//12
f 3//3 2//2 1//1
f 5//5 4//4 3//3
f 7//7 6//6 5//5
f 9//9 8//8 7//7
f 11//11 10//10 9//9
f 13//13 12//12 11//11
f 1//1 14//14 13//13
f 23//23 19//19 15//15
f 18//18 22//22 26//26
f 17//17 16//16 15//15
f 19//19 18//18 17//17
f 19//19 22//22 20//20
f 21//21 24//24 22//22
f 25//25 24//24 23//23
f 15//15 26//26 25//25
f 49//49 45//45 41//41
f 44//44 48//48 52//52
f 41//41 44//44 42//42
f 43//43 46//46 44//44
f 47//47 46//46 45//45
f 47//47 50//50 48//48
f 51//51 50//50 49//49
f 41//41 52//52 51//51
f 75//62 71//58 67//54
f 70//57 74//61 78//65
f 69//56 68//55 67//54
f 71//58 70//57 69//56
f 73//60 72//59 71//58
f 73//60 76//63 74//61
f 75//62 78//65 76//63
f 77//64 68//55 78//65
f 101//76 97//72 93//68
f 96//71 100//75 104//79
f 93//68 96//71 94//69
f 97//72 96//71 95//70
f 97//72 100//75 98//73
f 101//76 100//75 99//74
f 101//76 104//79 102//77
f 93//68 104//79 103//78
f 1//1 13//13 11//11
f 11//11 9//9 7//7
f 7//7 5//5 3//3
f 3//3 1//1 11//11
f 14//14 2//2 4//4
f 4//4 6//6 8//8
f 8//8 10//10 12//12
f 12//12 14//14 4//4
f 3//3 4//4 2//2
f 5//5 6//6 4//4
f 7//7 8//8 6//6
f 9//9 10//10 8//8
f 11//11 12//12 10//10
f 13//13 14//14 12//12
f 1//1 2//2 14//14
f 15//15 25//25 23//23
f 23//23 21//21 19//19
f 19//19 17//17 15//15
f 26//26 16//16 18//18
f 18//18 20//20 22//22
f 22//22 24//24 26//26
f 17//17 18//18 16//16
f 19//19 20//20 18//18
f 19//19 21//21 22//22
f 21//21 23//23 24//24
f 25//25 26//26 24//24
f 15//15 16//16 26//26
f 41//41 51//51 49//49
f 49//49 47//47 45//45
f 45//45 43//43 41//41
f 52//52 42//42 44//44
f 44//44 46//46 48//48
f 48//48 50//50 52//52
f 41//41 43//43 44//44
f 43//43 45//45 46//46
f 47//47 48//48 46//46
f 47//47 49//49 50//50
f 51//51 52//52 50//50
f 41//41 42//42 52//52
f 67//54 77//64 75//62
f 75//62 73//60 71//58
f 71//58 69//56 67//54
f 78//65 68//55 70//57
f 70//57 72//59 74//61
f 74//61 76//63 78//65
f 69//56 70//57 68//55
f 71//58 72//59 70//57
f 73//60 74//61 72//59
f 73//60 75//62 76//63
f 75//62 77//64 78//65
f 77//64 67//54 68//55
f 93//68 103//78 101//76
f 101//76 99//74 97//72
f 97//72 95//70 93//68
f 104//79 94//69 96//71
f 96//71 98//73 100//75
f 100//75 102//77 104//79
f 93//68 95//70 96//71
f 97//72 98//73 96//71
f 97//72 99//74 100//75
f 101//76 102//77 100//75
f 101//76 103//78 104//79
f 93//68 94//69 104//79
usemtl verdant_membrane
f 27//27 28//28 29//29
f 27//27 29//29 30//30
f 27//27 30//30 31//31
f 27//27 31//31 32//32
f 27//27 32//32 33//33
f 27//27 33//33 28//28
f 34//34 29//29 28//28
f 35//35 30//30 29//29
f 36//36 31//31 30//30
f 37//37 32//32 31//31
f 38//38 33//33 32//32
f 39//39 28//28 33//33
f 34//34 40//40 35//35
f 35//35 40//40 36//36
f 36//36 40//40 37//37
f 37//37 40//40 38//38
f 38//38 40//40 39//39
f 39//39 40//40 34//34
f 53//27 54//28 55//29
f 53//27 55//29 56//30
f 53//27 56//30 57//31
f 53//27 57//31 58//53
f 53//27 58//53 59//33
f 53//27 59//33 54//28
f 60//34 55//29 54//28
f 61//35 56//30 55//29
f 62//36 57//31 56//30
f 63//37 58//53 57//31
f 64//38 59//33 58//53
f 65//39 54//28 59//33
f 60//34 66//40 61//35
f 61//35 66//40 62//36
f 62//36 66//40 63//37
f 63//37 66//40 64//38
f 64//38 66//40 65//39
f 65//39 66//40 60//34
f 79//27 80//28 81//29
f 79//27 81//29 82//30
f 79//27 82//30 83//31
f 79//27 83//31 84//32
f 79//27 84//32 85//33
f 79//27 85//33 80//28
f 86//34 81//29 80//28
f 87//35 82//30 81//29
f 88//66 83//31 82//30
f 89//37 84//32 83//31
f 90//38 85//33 84//32
f 91//67 80//28 85//33
f 86//34 92//40 87//35
f 87//35 92//40 88//66
f 88//66 92//40 89//37
f 89//37 92//40 90//38
f 90//38 92//40 91//67
f 91//67 92//40 86//34
f 105//27 106//28 107//29
f 105//27 107//29 108//30
f 105//27 108//30 109//31
f 105//27 109//31 110//32
f 105//27 110//32 111//33
f 105//27 111//33 106//28
f 112//34 107//29 106//28
f 113//35 108//30 107//29
f 114//36 109//31 108//30
f 115//37 110//32 109//31
f 116//38 111//33 110//32
f 117//67 106//28 111//33
f 112//34 118//40 113//35
f 113//35 118//40 114//36
f 114//36 118//40 115//37
f 115//37 118//40 116//38
f 116//38 118//40 117//67
f 117//67 118//40 112//34
f 34//34 35//35 29//29
f 35//35 36//36 30//30
f 36//36 37//37 31//31
f 37//37 38//38 32//32
f 38//38 39//39 33//33
f 39//39 34//34 28//28
f 60//34 61//35 55//29
f 61//35 62//36 56//30
f 62//36 63//37 57//31
f 63//37 64//38 58//53
f 64//38 65//39 59//33
f 65//39 60//34 54//28
f 86//34 87//35 81//29
f 87//35 88//66 82//30
f 88//66 89//37 83//31
f 89//37 90//38 84//32
f 90//38 91//67 85//33
f 91//67 86//34 80//28
f 112//34 113//35 107//29
f 113//35 114//36 108//30
f 114//36 115//37 109//31
f 115//37 116//38 110//32
f 116//38 117//67 111//33
f 117//67 112//34 106//28
