# Blender 5.2.1 LTS
# www.blender.org
mtllib plant_current_meadow_02.mtl
o bent_living_blade.122
v -0.704762 0.030000 0.491589
v -0.704762 0.030000 0.491589
v -0.704762 0.030000 0.491589
v -0.631065 0.130725 0.595350
v -0.697436 0.161340 0.487097
v -0.763806 0.130725 0.378844
v -0.566991 0.231451 0.650533
v -0.675457 0.288019 0.473622
v -0.783922 0.231451 0.296710
v -0.504488 0.332176 0.670272
v -0.638825 0.406086 0.451163
v -0.773162 0.332176 0.232053
v -0.444419 0.432901 0.653156
v -0.587540 0.512901 0.419720
v -0.730661 0.432901 0.186283
v -0.387266 0.533626 0.598402
v -0.521603 0.607537 0.379293
v -0.655940 0.533626 0.160184
v -0.332547 0.634352 0.506794
v -0.441013 0.690920 0.329883
v -0.549478 0.634352 0.152971
v -0.279399 0.735077 0.379742
v -0.345770 0.765692 0.271489
v -0.412140 0.735077 0.163236
v -0.235874 0.835802 0.204111
v -0.235874 0.835802 0.204111
v -0.235874 0.835802 0.204111
vn -0.4070 0.8761 0.2584
vn -0.2322 0.9629 0.1374
vn -0.0000 1.0000 -0.0000
vn -0.8189 0.1605 0.5510
vn -0.8438 0.1427 0.5173
vn -0.8625 0.1607 0.4799
vn -0.7704 0.2932 0.5661
vn -0.8170 0.2857 0.5009
vn -0.8540 0.2932 0.4298
vn -0.7037 0.4217 0.5717
vn -0.7696 0.4302 0.4718
vn -0.8288 0.4217 0.3678
vn -0.6192 0.5451 0.5653
vn -0.6984 0.5735 0.4282
vn -0.7846 0.5451 0.2954
vn -0.5229 0.6565 0.5437
vn -0.6100 0.6986 0.3740
vn -0.7217 0.6565 0.2194
vn -0.4270 0.7484 0.5075
vn -0.5202 0.7922 0.3190
vn -0.6460 0.7484 0.1503
vn -0.3454 0.8197 0.4569
vn -0.4386 0.8575 0.2689
vn -0.5639 0.8197 0.1006
vn -0.0526 0.9957 0.0763
vn -0.1574 0.9873 0.0210
s 1
usemtl verdant_membrane
f 1//1 5//5 2//2
f 2//2 6//6 3//3
f 4//4 8//8 5//5
f 8//8 6//6 5//5
f 10//10 8//8 7//7
f 8//8 12//12 9//9
f 13//13 11//11 10//10
f 11//11 15//15 12//12
f 16//16 14//14 13//13
f 14//14 18//18 15//15
f 19//19 17//17 16//16
f 17//17 21//21 18//18
f 22//22 20//20 19//19
f 20//20 24//24 21//21
f 22//22 26//25 23//23
f 23//23 27//26 24//24
f 1//1 4//4 5//5
f 2//2 5//5 6//6
f 4//4 7//7 8//8
f 8//8 9//9 6//6
f 10//10 11//11 8//8
f 8//8 11//11 12//12
f 13//13 14//14 11//11
f 11//11 14//14 15//15
f 16//16 17//17 14//14
f 14//14 17//17 18//18
f 19//19 20//20 17//17
f 17//17 20//20 21//21
f 22//22 23//23 20//20
f 20//20 23//23 24//24
f 22//22 25//3 26//25
f 23//23 26//25 27//26
o leaf_midrib.122
v -0.728699 0.043741 0.491589
v -0.712086 0.043550 0.514392
v -0.685352 0.041217 0.505682
v -0.685443 0.039966 0.477496
v -0.712233 0.041526 0.468786
v -0.720444 0.146072 0.487097
v -0.704266 0.145683 0.509124
v -0.678649 0.141206 0.500710
v -0.678995 0.138828 0.473484
v -0.704826 0.141836 0.465071
v -0.697061 0.249736 0.473622
v -0.681124 0.248862 0.494713
v -0.657355 0.240509 0.486657
v -0.658602 0.236222 0.460586
v -0.683142 0.241924 0.452530
v -0.627456 0.344176 0.469705
v -0.619614 0.334750 0.447268
v -0.638321 0.338350 0.430213
v -0.657724 0.350001 0.442110
v -0.651009 0.353602 0.466517
v -0.576564 0.444901 0.437623
v -0.570085 0.433642 0.416630
v -0.587729 0.437942 0.399907
v -0.605112 0.451860 0.410565
v -0.598212 0.456160 0.433874
v -0.511018 0.545626 0.396557
v -0.505842 0.533126 0.376970
v -0.522446 0.537901 0.360594
v -0.537885 0.553352 0.370059
v -0.530822 0.558126 0.392286
v -0.430820 0.646352 0.346507
v -0.426816 0.633084 0.328247
v -0.442431 0.638152 0.312247
v -0.456086 0.654551 0.320620
v -0.448910 0.659619 0.341793
v -0.335969 0.747077 0.287474
v -0.332982 0.733404 0.270445
v -0.347667 0.738626 0.254859
v -0.359730 0.755527 0.262255
v -0.352500 0.760750 0.282412
v -0.226465 0.847802 0.219457
v -0.223981 0.834313 0.203344
v -0.237932 0.839465 0.188292
v -0.249039 0.856139 0.195101
v -0.241952 0.861291 0.214362
vn -0.8462 -0.5322 0.0268
vn -0.2889 -0.5384 0.7916
vn 0.6087 -0.6167 0.4992
vn 0.6057 -0.6587 -0.4464
vn -0.2934 -0.6068 -0.7387
vn -0.9885 0.1504 0.0150
vn -0.3114 0.1342 0.9408
vn 0.7920 -0.0545 0.6081
vn 0.7927 -0.1599 -0.5882
vn -0.3452 -0.0265 -0.9382
vn -0.8914 0.4529 -0.0185
vn -0.2105 0.4189 0.8833
vn 0.8302 0.0682 0.5533
vn 0.7879 -0.1228 -0.6035
vn -0.3046 0.1258 -0.9441
vn 0.4239 -0.1548 0.8924
vn 0.7954 -0.5932 -0.1240
vn -0.0690 -0.4256 -0.9023
vn -0.9315 0.1033 -0.3488
vn -0.6274 0.2637 0.7327
vn 0.5101 0.0173 0.8599
vn 0.8372 -0.5278 -0.1431
vn -0.0211 -0.3169 -0.9482
vn -0.8389 0.3430 -0.4225
vn -0.5110 0.5404 0.6685
vn 0.5137 0.0163 0.8578
vn 0.7844 -0.6101 -0.1119
vn -0.0504 -0.3682 -0.9284
vn -0.8048 0.3925 -0.4453
vn -0.4572 0.6211 0.6366
vn 0.5165 0.0148 0.8562
vn 0.7339 -0.6743 -0.0820
vn -0.0790 -0.4086 -0.9093
vn -0.7726 0.4305 -0.4666
vn -0.4061 0.6838 0.6062
vn 0.5185 0.0131 0.8550
vn 0.6874 -0.7242 -0.0544
vn -0.1056 -0.4403 -0.8916
vn -0.7434 0.4597 -0.4859
vn -0.3595 0.7323 0.5784
vn 0.8205 0.3678 0.4376
vn 0.9312 -0.2331 -0.2802
vn 0.3096 -0.0036 -0.9508
vn -0.1852 0.7393 -0.6474
vn 0.1305 0.9688 0.2107
s 1
usemtl verdant_fibre
f 28//27 34//33 33//32
f 29//28 35//34 34//33
f 30//29 36//35 35//34
f 32//31 36//35 31//30
f 28//27 37//36 32//31
f 34//33 38//37 33//32
f 35//34 39//38 34//33
f 36//35 40//39 35//34
f 37//36 41//40 36//35
f 33//32 42//41 37//36
f 38//37 44//43 43//42
f 39//38 45//44 44//43
f 40//39 46//45 45//44
f 41//40 47//46 46//45
f 42//41 43//42 47//46
f 44//43 48//47 43//42
f 44//43 50//49 49//48
f 45//44 51//50 50//49
f 46//45 52//51 51//50
f 43//42 52//51 47//46
f 49//48 53//52 48//47
f 49//48 55//54 54//53
f 50//49 56//55 55//54
f 51//50 57//56 56//55
f 48//47 57//56 52//51
f 54//53 58//57 53//52
f 54//53 60//59 59//58
f 55//54 61//60 60//59
f 56//55 62//61 61//60
f 53//52 62//61 57//56
f 59//58 63//62 58//57
f 59//58 65//64 64//63
f 60//59 66//65 65//64
f 61//60 67//66 66//65
f 58//57 67//66 62//61
f 64//63 68//67 63//62
f 64//63 70//69 69//68
f 65//64 71//70 70//69
f 66//65 72//71 71//70
f 63//62 72//71 67//66
f 31//30 29//28 28//27
f 69//68 71//70 72//71
f 28//27 29//28 34//33
f 29//28 30//29 35//34
f 30//29 31//30 36//35
f 32//31 37//36 36//35
f 28//27 33//32 37//36
f 34//33 39//38 38//37
f 35//34 40//39 39//38
f 36//35 41//40 40//39
f 37//36 42//41 41//40
f 33//32 38//37 42//41
f 38//37 39//38 44//43
f 39//38 40//39 45//44
f 40//39 41//40 46//45
f 41//40 42//41 47//46
f 42//41 38//37 43//42
f 44//43 49//48 48//47
f 44//43 45//44 50//49
f 45//44 46//45 51//50
f 46//45 47//46 52//51
f 43//42 48//47 52//51
f 49//48 54//53 53//52
f 49//48 50//49 55//54
f 50//49 51//50 56//55
f 51//50 52//51 57//56
f 48//47 53//52 57//56
f 54//53 59//58 58//57
f 54//53 55//54 60//59
f 55//54 56//55 61//60
f 56//55 57//56 62//61
f 53//52 58//57 62//61
f 59//58 64//63 63//62
f 59//58 60//59 65//64
f 60//59 61//60 66//65
f 61//60 62//61 67//66
f 58//57 63//62 67//66
f 64//63 69//68 68//67
f 64//63 65//64 70//69
f 65//64 66//65 71//70
f 66//65 67//66 72//71
f 63//62 68//67 72//71
f 28//27 32//31 31//30
f 31//30 30//29 29//28
f 72//71 68//67 69//68
f 69//68 70//69 71//70
o bent_living_blade.123
v -0.520192 0.030000 0.292082
v -0.520192 0.030000 0.292082
v -0.520192 0.030000 0.292082
v -0.473239 0.179433 0.352224
v -0.512866 0.210048 0.287591
v -0.552493 0.179433 0.222957
v -0.426127 0.328866 0.379741
v -0.490887 0.385435 0.274115
v -0.555647 0.328866 0.168489
v -0.374048 0.478300 0.382476
v -0.454255 0.552210 0.251656
v -0.534462 0.478300 0.120835
v -0.317519 0.627733 0.359588
v -0.402970 0.707733 0.220213
v -0.488421 0.627733 0.080838
v -0.256826 0.777166 0.310607
v -0.337033 0.851076 0.179786
v -0.417239 0.777166 0.048966
v -0.191682 0.926599 0.236002
v -0.256442 0.983168 0.130376
v -0.321202 0.926599 0.024750
v -0.121573 1.076033 0.136615
v -0.161199 1.106647 0.071982
v -0.200826 1.076033 0.007349
v -0.051304 1.225466 0.004604
v -0.051304 1.225466 0.004604
v -0.051304 1.225466 0.004604
vn -0.2376 0.9594 0.1520
vn -0.1263 0.9892 0.0741
vn -0.0000 1.0000 -0.0000
vn -0.8266 0.0996 0.5539
vn -0.8473 0.1106 0.5195
vn -0.8686 0.0996 0.4854
vn -0.7872 0.1944 0.5852
vn -0.8329 0.2133 0.5107
vn -0.8786 0.1944 0.4361
vn -0.7329 0.2940 0.6135
vn -0.8073 0.3213 0.4950
vn -0.8792 0.2940 0.3749
vn -0.6652 0.3951 0.6336
vn -0.7687 0.4324 0.4713
vn -0.8664 0.3951 0.3055
vn -0.5886 0.4929 0.6408
vn -0.7181 0.5389 0.4403
vn -0.8381 0.4929 0.2339
vn -0.5127 0.5819 0.6313
vn -0.6612 0.6313 0.4054
vn -0.7952 0.5819 0.1706
vn -0.4505 0.6617 0.5994
vn -0.6010 0.7093 0.3685
vn -0.7386 0.6616 0.1296
vn -0.0454 0.9968 0.0652
vn -0.1448 0.9893 0.0200
s 1
usemtl verdant_membrane
f 73//72 77//76 74//73
f 74//73 78//77 75//74
f 79//78 77//76 76//75
f 77//76 81//80 78//77
f 82//81 80//79 79//78
f 80//79 84//83 81//80
f 85//84 83//82 82//81
f 83//82 87//86 84//83
f 88//87 86//85 85//84
f 86//85 90//89 87//86
f 91//90 89//88 88//87
f 89//88 93//92 90//89
f 94//93 92//91 91//90
f 92//91 96//95 93//92
f 94//93 98//96 95//94
f 95//94 99//97 96//95
f 73//72 76//75 77//76
f 74//73 77//76 78//77
f 79//78 80//79 77//76
f 77//76 80//79 81//80
f 82//81 83//82 80//79
f 80//79 83//82 84//83
f 85//84 86//85 83//82
f 83//82 86//85 87//86
f 88//87 89//88 86//85
f 86//85 89//88 90//89
f 91//90 92//91 89//88
f 89//88 92//91 93//92
f 94//93 95//94 92//91
f 92//91 95//94 96//95
f 94//93 97//74 98//96
f 95//94 98//96 99//97
o leaf_midrib.123
v -0.544163 0.043175 0.292082
v -0.527566 0.043047 0.314898
v -0.500778 0.041472 0.306183
v -0.500820 0.040626 0.277982
v -0.527633 0.041679 0.269267
v -0.536005 0.193702 0.287591
v -0.519887 0.193449 0.309663
v -0.494066 0.190410 0.301232
v -0.494226 0.188785 0.273949
v -0.520145 0.190820 0.265518
v -0.512966 0.345196 0.274115
v -0.497227 0.344665 0.295366
v -0.472726 0.338884 0.287249
v -0.473322 0.335843 0.260981
v -0.498192 0.339744 0.252864
v -0.475121 0.496438 0.251656
v -0.459707 0.495580 0.272038
v -0.436759 0.487425 0.264253
v -0.437989 0.483243 0.239059
v -0.461698 0.488813 0.231273
v -0.422520 0.647401 0.220213
v -0.407418 0.646164 0.239703
v -0.386169 0.636040 0.232258
v -0.388138 0.631019 0.208168
v -0.410605 0.638041 0.200723
v -0.326448 0.789166 0.197050
v -0.319529 0.779565 0.176395
v -0.336799 0.783232 0.160427
v -0.354392 0.795100 0.171213
v -0.347995 0.798767 0.193847
v -0.246250 0.938599 0.147000
v -0.240280 0.928066 0.127535
v -0.256646 0.932089 0.111996
v -0.272731 0.945110 0.121858
v -0.266306 0.949133 0.143491
v -0.151399 1.088033 0.087967
v -0.146330 1.076849 0.069662
v -0.161810 1.081121 0.054563
v -0.176447 1.094944 0.063537
v -0.170012 1.099216 0.084182
v -0.041895 1.237466 0.019950
v -0.037346 1.226284 0.002571
v -0.052085 1.230555 -0.011998
v -0.065745 1.244377 -0.003623
v -0.059447 1.248648 0.016122
vn -0.8327 -0.5534 0.0180
vn -0.2763 -0.5576 0.7828
vn 0.6219 -0.6104 0.4905
vn 0.6205 -0.6388 -0.4549
vn -0.2785 -0.6036 -0.7470
vn -0.9947 0.1024 0.0105
vn -0.3143 0.0918 0.9449
vn 0.7974 -0.0373 0.6023
vn 0.8012 -0.1088 -0.5884
vn -0.3322 -0.0193 -0.9430
vn -0.9803 0.1975 0.0097
vn -0.2934 0.1747 0.9399
vn 0.7973 -0.0793 0.5983
vn 0.7806 -0.2178 -0.5859
vn -0.3423 -0.0408 -0.9387
vn -0.9578 0.2873 0.0086
vn -0.2613 0.2491 0.9326
vn 0.7963 -0.1221 0.5924
vn 0.7482 -0.3190 -0.5818
vn -0.3578 -0.0578 -0.9320
vn -0.8801 0.4745 -0.0187
vn -0.1766 0.4184 0.8909
vn 0.8312 -0.0534 0.5534
vn 0.7449 -0.2950 -0.5984
vn -0.3303 0.0404 -0.9430
vn 0.4568 -0.0961 0.8843
vn 0.8079 -0.5747 -0.1303
vn -0.0513 -0.3908 -0.9191
vn -0.9054 0.1919 -0.3787
vn -0.5914 0.3685 0.7172
vn 0.5144 0.0117 0.8575
vn 0.8326 -0.5351 -0.1429
vn -0.0186 -0.3244 -0.9457
vn -0.8366 0.3420 -0.4279
vn -0.5075 0.5435 0.6687
vn 0.5160 0.0112 0.8565
vn 0.7969 -0.5918 -0.1215
vn -0.0392 -0.3597 -0.9323
vn -0.8138 0.3764 -0.4428
vn -0.4713 0.5995 0.6470
vn 0.7518 0.4521 0.4800
vn 0.9545 -0.0462 -0.2945
vn 0.2977 0.1442 -0.9437
vn -0.3111 0.7601 -0.5705
vn -0.0304 0.9504 0.3094
s 1
usemtl verdant_fibre
f 100//98 106//104 105//103
f 101//99 107//105 106//104
f 102//100 108//106 107//105
f 104//102 108//106 103//101
f 100//98 109//107 104//102
f 106//104 110//108 105//103
f 107//105 111//109 106//104
f 108//106 112//110 107//105
f 109//107 113//111 108//106
f 105//103 114//112 109//107
f 111//109 115//113 110//108
f 112//110 116//114 111//109
f 113//111 117//115 112//110
f 114//112 118//116 113//111
f 110//108 119//117 114//112
f 116//114 120//118 115//113
f 117//115 121//119 116//114
f 118//116 122//120 117//115
f 119//117 123//121 118//116
f 115//113 124//122 119//117
f 120//118 126//124 125//123
f 121//119 127//125 126//124
f 122//120 128//126 127//125
f 123//121 129//127 128//126
f 124//122 125//123 129//127
f 126//124 130//128 125//123
f 126//124 132//130 131//129
f 127//125 133//131 132//130
f 128//126 134//132 133//131
f 125//123 134//132 129//127
f 131//129 135//133 130//128
f 131//129 137//135 136//134
f 132//130 138//136 137//135
f 133//131 139//137 138//136
f 130//128 139//137 134//132
f 136//134 140//138 135//133
f 136//134 142//140 141//139
f 137//135 143//141 142//140
f 138//136 144//142 143//141
f 135//133 144//142 139//137
f 103//101 101//99 100//98
f 141//139 143//141 144//142
f 100//98 101//99 106//104
f 101//99 102//100 107//105
f 102//100 103//101 108//106
f 104//102 109//107 108//106
f 100//98 105//103 109//107
f 106//104 111//109 110//108
f 107//105 112//110 111//109
f 108//106 113//111 112//110
f 109//107 114//112 113//111
f 105//103 110//108 114//112
f 111//109 116//114 115//113
f 112//110 117//115 116//114
f 113//111 118//116 117//115
f 114//112 119//117 118//116
f 110//108 115//113 119//117
f 116//114 121//119 120//118
f 117//115 122//120 121//119
f 118//116 123//121 122//120
f 119//117 124//122 123//121
f 115//113 120//118 124//122
f 120//118 121//119 126//124
f 121//119 122//120 127//125
f 122//120 123//121 128//126
f 123//121 124//122 129//127
f 124//122 120//118 125//123
f 126//124 131//129 130//128
f 126//124 127//125 132//130
f 127//125 128//126 133//131
f 128//126 129//127 134//132
f 125//123 130//128 134//132
f 131//129 136//134 135//133
f 131//129 132//130 137//135
f 132//130 133//131 138//136
f 133//131 134//132 139//137
f 130//128 135//133 139//137
f 136//134 141//139 140//138
f 136//134 137//135 142//140
f 137//135 138//136 143//141
f 138//136 139//137 144//142
f 135//133 140//138 144//142
f 100//98 104//102 103//101
f 103//101 102//100 101//99
f 144//142 140//138 141//139
f 141//139 142//140 143//141
o bent_living_blade.124
v 0.108710 0.030000 -0.404078
v 0.108710 0.030000 -0.404078
v 0.108710 0.030000 -0.404078
v 0.153526 0.135700 -0.347424
v 0.116037 0.166315 -0.408570
v 0.078548 0.135700 -0.469716
v 0.199282 0.241400 -0.322118
v 0.138016 0.297968 -0.422045
v 0.076750 0.241400 -0.521972
v 0.250527 0.347100 -0.320743
v 0.174648 0.421010 -0.444505
v 0.098769 0.347100 -0.568266
v 0.306773 0.452800 -0.344093
v 0.225932 0.532800 -0.475947
v 0.145092 0.452800 -0.607802
v 0.367749 0.558499 -0.392612
v 0.291870 0.632410 -0.516374
v 0.215991 0.558499 -0.640136
v 0.433726 0.664199 -0.465857
v 0.372460 0.720768 -0.565784
v 0.311194 0.664199 -0.665711
v 0.505192 0.769899 -0.563032
v 0.467703 0.800514 -0.624178
v 0.430214 0.769899 -0.685324
v 0.577599 0.875599 -0.691556
v 0.577599 0.875599 -0.691556
v 0.577599 0.875599 -0.691556
vn -0.2903 0.9381 0.1889
vn -0.1590 0.9830 0.0917
vn -0.0000 1.0000 -0.0000
vn -0.8125 0.1369 0.5667
vn -0.8432 0.1472 0.5170
vn -0.8736 0.1369 0.4670
vn -0.7517 0.2605 0.6058
vn -0.8177 0.2828 0.5014
vn -0.8809 0.2605 0.3952
vn -0.6670 0.3869 0.6367
vn -0.7724 0.4233 0.4735
vn -0.8700 0.3869 0.3056
vn -0.5630 0.5081 0.6518
vn -0.7055 0.5614 0.4326
vn -0.8363 0.5081 0.2061
vn -0.4510 0.6155 0.6463
vn -0.6229 0.6827 0.3819
vn -0.7806 0.6155 0.1088
vn -0.3484 0.7033 0.6196
vn -0.5384 0.7753 0.3301
vn -0.7103 0.7033 0.0295
vn -0.2715 0.7761 0.5692
vn -0.4582 0.8433 0.2809
vn -0.6304 0.7761 -0.0162
vn -0.0275 0.9974 0.0672
vn -0.1308 0.9914 -0.0108
s 1
usemtl verdant_membrane
f 145//143 149//147 146//144
f 146//144 150//148 147//145
f 151//149 149//147 148//146
f 149//147 153//151 150//148
f 154//152 152//150 151//149
f 152//150 156//154 153//151
f 157//155 155//153 154//152
f 155//153 159//157 156//154
f 160//158 158//156 157//155
f 158//156 162//160 159//157
f 163//161 161//159 160//158
f 161//159 165//163 162//160
f 166//164 164//162 163//161
f 164//162 168//166 165//163
f 166//164 170//167 167//165
f 167//165 171//168 168//166
f 145//143 148//146 149//147
f 146//144 149//147 150//148
f 151//149 152//150 149//147
f 149//147 152//150 153//151
f 154//152 155//153 152//150
f 152//150 155//153 156//154
f 157//155 158//156 155//153
f 155//153 158//156 159//157
f 160//158 161//159 158//156
f 158//156 161//159 162//160
f 163//161 164//162 161//159
f 161//159 164//162 165//163
f 166//164 167//165 164//162
f 164//162 167//165 168//166
f 166//164 169//145 170//167
f 167//165 170//167 171//168
o leaf_midrib.124
v 0.084768 0.043660 -0.404078
v 0.101379 0.043477 -0.381273
v 0.128122 0.041253 -0.389984
v 0.128039 0.040061 -0.418172
v 0.101245 0.041548 -0.426883
v 0.093007 0.150892 -0.408570
v 0.109175 0.150524 -0.386536
v 0.134826 0.146253 -0.394952
v 0.134511 0.143981 -0.422188
v 0.108665 0.146849 -0.430604
v 0.116334 0.259411 -0.422045
v 0.132240 0.258591 -0.400928
v 0.156128 0.250597 -0.408994
v 0.154986 0.246476 -0.435097
v 0.130392 0.251924 -0.443163
v 0.186016 0.359100 -0.425962
v 0.194010 0.350030 -0.448492
v 0.175246 0.353495 -0.465511
v 0.155655 0.364705 -0.453500
v 0.162311 0.368169 -0.429057
v 0.236909 0.464800 -0.458044
v 0.243598 0.453910 -0.479166
v 0.225874 0.458069 -0.495840
v 0.208231 0.471530 -0.485023
v 0.215051 0.475689 -0.461664
v 0.302454 0.570499 -0.499110
v 0.307880 0.558350 -0.518850
v 0.291180 0.562991 -0.535168
v 0.275434 0.578008 -0.525513
v 0.282401 0.582649 -0.503229
v 0.382652 0.676199 -0.549160
v 0.386926 0.663248 -0.567585
v 0.371208 0.668195 -0.583522
v 0.357220 0.684204 -0.574945
v 0.364293 0.689150 -0.553709
v 0.477503 0.781899 -0.608193
v 0.480765 0.768503 -0.625390
v 0.465976 0.773620 -0.640912
v 0.453573 0.790179 -0.633308
v 0.460698 0.795296 -0.613087
v 0.587007 0.887599 -0.676210
v 0.589760 0.874361 -0.692487
v 0.575706 0.879418 -0.707477
v 0.564268 0.895781 -0.700464
v 0.571252 0.900837 -0.681140
vn -0.8443 -0.5353 0.0255
vn -0.2871 -0.5412 0.7903
vn 0.6106 -0.6158 0.4980
vn 0.6079 -0.6559 -0.4476
vn -0.2913 -0.6064 -0.7399
vn -0.9895 0.1436 0.0144
vn -0.3120 0.1282 0.9414
vn 0.7928 -0.0521 0.6073
vn 0.7941 -0.1526 -0.5883
vn -0.3433 -0.0255 -0.9389
vn -0.8996 0.4363 -0.0166
vn -0.2189 0.4042 0.8881
vn 0.8279 0.0676 0.5567
vn 0.7898 -0.1160 -0.6023
vn -0.3057 0.1219 -0.9443
vn 0.4298 -0.1516 0.8901
vn 0.8085 -0.5736 -0.1317
vn -0.0591 -0.4122 -0.9092
vn -0.9316 0.0973 -0.3501
vn -0.6297 0.2518 0.7349
vn 0.5100 0.0166 0.8600
vn 0.8468 -0.5105 -0.1492
vn -0.0150 -0.3066 -0.9517
vn -0.8453 0.3317 -0.4188
vn -0.5210 0.5228 0.6747
vn 0.5134 0.0158 0.8580
vn 0.7963 -0.5930 -0.1193
vn -0.0431 -0.3579 -0.9328
vn -0.8126 0.3815 -0.4406
vn -0.4696 0.6038 0.6442
vn 0.5161 0.0145 0.8564
vn 0.7474 -0.6582 -0.0903
vn -0.0708 -0.3988 -0.9143
vn -0.7814 0.4203 -0.4612
vn -0.4201 0.6676 0.6147
vn 0.5181 0.0130 0.8552
vn 0.7019 -0.7095 -0.0632
vn -0.0968 -0.4313 -0.8970
vn -0.7527 0.4505 -0.4801
vn -0.3742 0.7175 0.5874
vn 0.8130 0.3788 0.4422
vn 0.9356 -0.2110 -0.2830
vn 0.3095 0.0143 -0.9508
vn -0.2001 0.7433 -0.6383
vn 0.1110 0.9686 0.2226
s 1
usemtl verdant_fibre
f 172//169 178//175 177//174
f 173//170 179//176 178//175
f 174//171 180//177 179//176
f 176//173 180//177 175//172
f 172//169 181//178 176//173
f 178//175 182//179 177//174
f 179//176 183//180 178//175
f 180//177 184//181 179//176
f 181//178 185//182 180//177
f 177//174 186//183 181//178
f 182//179 188//185 187//184
f 183//180 189//186 188//185
f 184//181 190//187 189//186
f 185//182 191//188 190//187
f 186//183 187//184 191//188
f 188//185 192//189 187//184
f 188//185 194//191 193//190
f 189//186 195//192 194//191
f 190//187 196//193 195//192
f 187//184 196//193 191//188
f 193//190 197//194 192//189
f 193//190 199//196 198//195
f 194//191 200//197 199//196
f 195//192 201//198 200//197
f 192//189 201//198 196//193
f 198//195 202//199 197//194
f 198//195 204//201 203//200
f 199//196 205//202 204//201
f 200//197 206//203 205//202
f 197//194 206//203 201//198
f 203//200 207//204 202//199
f 203//200 209//206 208//205
f 204//201 210//207 209//206
f 205//202 211//208 210//207
f 202//199 211//208 206//203
f 208//205 212//209 207//204
f 208//205 214//211 213//210
f 209//206 215//212 214//211
f 210//207 216//213 215//212
f 207//204 216//213 211//208
f 175//172 173//170 172//169
f 213//210 215//212 216//213
f 172//169 173//170 178//175
f 173//170 174//171 179//176
f 174//171 175//172 180//177
f 176//173 181//178 180//177
f 172//169 177//174 181//178
f 178//175 183//180 182//179
f 179//176 184//181 183//180
f 180//177 185//182 184//181
f 181//178 186//183 185//182
f 177//174 182//179 186//183
f 182//179 183//180 188//185
f 183//180 184//181 189//186
f 184//181 185//182 190//187
f 185//182 186//183 191//188
f 186//183 182//179 187//184
f 188//185 193//190 192//189
f 188//185 189//186 194//191
f 189//186 190//187 195//192
f 190//187 191//188 196//193
f 187//184 192//189 196//193
f 193//190 198//195 197//194
f 193//190 194//191 199//196
f 194//191 195//192 200//197
f 195//192 196//193 201//198
f 192//189 197//194 201//198
f 198//195 203//200 202//199
f 198//195 199//196 204//201
f 199//196 200//197 205//202
f 200//197 201//198 206//203
f 197//194 202//199 206//203
f 203//200 208//205 207//204
f 203//200 204//201 209//206
f 204//201 205//202 210//207
f 205//202 206//203 211//208
f 202//199 207//204 211//208
f 208//205 213//210 212//209
f 208//205 209//206 214//211
f 209//206 210//207 215//212
f 210//207 211//208 216//213
f 207//204 212//209 216//213
f 172//169 176//173 175//172
f 175//172 174//171 173//170
f 216//213 212//209 213//210
f 213//210 214//211 215//212
o bent_living_blade.125
v -0.766144 0.030000 -0.396418
v -0.766144 0.030000 -0.396418
v -0.766144 0.030000 -0.396418
v -0.720516 0.144401 -0.338438
v -0.758818 0.175015 -0.400910
v -0.797120 0.144401 -0.463382
v -0.674244 0.258801 -0.312291
v -0.736839 0.315370 -0.414386
v -0.799434 0.258801 -0.516480
v -0.622682 0.373202 -0.310398
v -0.700207 0.447112 -0.436845
v -0.777732 0.373202 -0.563291
v -0.566328 0.487603 -0.333573
v -0.648922 0.567603 -0.468288
v -0.731517 0.487603 -0.603002
v -0.505460 0.602003 -0.382268
v -0.582985 0.675914 -0.508714
v -0.660510 0.602003 -0.635161
v -0.439800 0.716404 -0.456030
v -0.502395 0.772973 -0.558124
v -0.564989 0.716404 -0.660219
v -0.368850 0.830805 -0.554046
v -0.407152 0.861419 -0.616518
v -0.445454 0.830805 -0.678991
v -0.297256 0.945205 -0.683896
v -0.297256 0.945205 -0.683896
v -0.297256 0.945205 -0.683896
vn -0.2799 0.9427 0.1813
vn -0.1523 0.9844 0.0882
vn -0.0000 1.0000 -0.0000
vn -0.8164 0.1278 0.5632
vn -0.8444 0.1381 0.5177
vn -0.8722 0.1278 0.4721
vn -0.7616 0.2444 0.6001
vn -0.8219 0.2656 0.5039
vn -0.8803 0.2444 0.4066
vn -0.6852 0.3648 0.6304
vn -0.7819 0.3986 0.4794
vn -0.8726 0.3648 0.3247
vn -0.5907 0.4822 0.6470
vn -0.7224 0.5310 0.4429
vn -0.8445 0.4822 0.2330
vn -0.4872 0.5888 0.6449
vn -0.6477 0.6503 0.3971
vn -0.7958 0.5888 0.1417
vn -0.3901 0.6785 0.6224
vn -0.5693 0.7444 0.3490
vn -0.7317 0.6785 0.0654
vn -0.3155 0.7540 0.5761
vn -0.4928 0.8160 0.3022
vn -0.6565 0.7540 0.0198
vn -0.0325 0.9972 0.0675
vn -0.1356 0.9908 -0.0029
s 1
usemtl verdant_membrane
f 217//214 221//218 218//215
f 218//215 222//219 219//216
f 223//220 221//218 220//217
f 221//218 225//222 222//219
f 226//223 224//221 223//220
f 224//221 228//225 225//222
f 229//226 227//224 226//223
f 227//224 231//228 228//225
f 232//229 230//227 229//226
f 230//227 234//231 231//228
f 235//232 233//230 232//229
f 233//230 237//234 234//231
f 238//235 236//233 235//232
f 236//233 240//237 237//234
f 238//235 242//238 239//236
f 239//236 243//239 240//237
f 217//214 220//217 221//218
f 218//215 221//218 222//219
f 223//220 224//221 221//218
f 221//218 224//221 225//222
f 226//223 227//224 224//221
f 224//221 227//224 228//225
f 229//226 230//227 227//224
f 227//224 230//227 231//228
f 232//229 233//230 230//227
f 230//227 233//230 234//231
f 235//232 236//233 233//230
f 233//230 236//233 237//234
f 238//235 239//236 236//233
f 236//233 239//236 240//237
f 238//235 241//216 242//238
f 239//236 242//238 243//239
o leaf_midrib.125
v -0.790095 0.043534 -0.396418
v -0.773488 0.043366 -0.373610
v -0.746732 0.041310 -0.382322
v -0.746803 0.040208 -0.410514
v -0.773603 0.041582 -0.419226
v -0.781880 0.159354 -0.400910
v -0.765726 0.159017 -0.378865
v -0.740026 0.155064 -0.387285
v -0.740296 0.152958 -0.414535
v -0.766163 0.155610 -0.422955
v -0.758635 0.276385 -0.414386
v -0.742775 0.275645 -0.393230
v -0.718712 0.268211 -0.401311
v -0.719699 0.264357 -0.427460
v -0.744373 0.269409 -0.435541
v -0.720510 0.393003 -0.436845
v -0.704887 0.391760 -0.416642
v -0.682797 0.381454 -0.424359
v -0.684766 0.376328 -0.449331
v -0.708074 0.383466 -0.457047
v -0.637946 0.499603 -0.450385
v -0.630936 0.489315 -0.471703
v -0.648783 0.493245 -0.488302
v -0.666822 0.505961 -0.477241
v -0.660124 0.509890 -0.453808
v -0.572400 0.614003 -0.491451
v -0.566587 0.602436 -0.511428
v -0.583435 0.606855 -0.527655
v -0.599661 0.621152 -0.517707
v -0.592841 0.625571 -0.495331
v -0.492202 0.728404 -0.541500
v -0.487501 0.715987 -0.560187
v -0.503383 0.720730 -0.576024
v -0.517898 0.736078 -0.567124
v -0.510988 0.740821 -0.545787
v -0.397351 0.842805 -0.600534
v -0.393647 0.829882 -0.618002
v -0.408606 0.834818 -0.633420
v -0.421555 0.850792 -0.625481
v -0.414599 0.855728 -0.605156
v -0.287847 0.957205 -0.668551
v -0.284661 0.944402 -0.685093
v -0.298880 0.949292 -0.699982
v -0.310854 0.965119 -0.692640
v -0.304036 0.970009 -0.673215
vn -0.8413 -0.5400 0.0235
vn -0.2844 -0.5455 0.7884
vn 0.6135 -0.6145 0.4960
vn 0.6112 -0.6515 -0.4495
vn -0.2879 -0.6057 -0.7418
vn -0.9910 0.1330 0.0134
vn -0.3129 0.1189 0.9423
vn 0.7939 -0.0482 0.6061
vn 0.7962 -0.1413 -0.5883
vn -0.3403 -0.0240 -0.9400
vn -0.9671 0.2543 0.0118
vn -0.2782 0.2229 0.9343
vn 0.7941 -0.1025 0.5991
vn 0.7620 -0.2790 -0.5843
vn -0.3563 -0.0488 -0.9331
vn -0.8656 0.5001 -0.0236
vn -0.1693 0.4472 0.8783
vn 0.8378 -0.0100 0.5458
vn 0.7575 -0.2476 -0.6041
vn -0.3179 0.0792 -0.9448
vn 0.4337 -0.1241 0.8925
vn 0.7776 -0.6186 -0.1124
vn -0.0775 -0.4287 -0.9001
vn -0.9148 0.1707 -0.3660
vn -0.5994 0.3522 0.7189
vn 0.5130 0.0149 0.8583
vn 0.8150 -0.5645 -0.1309
vn -0.0317 -0.3408 -0.9396
vn -0.8248 0.3632 -0.4333
vn -0.4888 0.5750 0.6561
vn 0.5155 0.0140 0.8567
vn 0.7689 -0.6310 -0.1035
vn -0.0578 -0.3823 -0.9222
vn -0.7953 0.4031 -0.4527
vn -0.4421 0.6402 0.6283
vn 0.5176 0.0128 0.8556
vn 0.7252 -0.6842 -0.0774
vn -0.0828 -0.4158 -0.9057
vn -0.7676 0.4347 -0.4709
vn -0.3980 0.6923 0.6020
vn 0.8001 0.3965 0.4502
vn 0.9420 -0.1740 -0.2869
vn 0.3085 0.0439 -0.9502
vn -0.2250 0.7491 -0.6231
vn 0.0788 0.9670 0.2424
s 1
usemtl verdant_fibre
f 244//240 250//246 249//245
f 245//241 251//247 250//246
f 246//242 252//248 251//247
f 248//244 252//248 247//243
f 244//240 253//249 248//244
f 250//246 254//250 249//245
f 251//247 255//251 250//246
f 252//248 256//252 251//247
f 253//249 257//253 252//248
f 249//245 258//254 253//249
f 255//251 259//255 254//250
f 256//252 260//256 255//251
f 257//253 261//257 256//252
f 258//254 262//258 257//253
f 254//250 263//259 258//254
f 259//255 265//261 264//260
f 260//256 266//262 265//261
f 261//257 267//263 266//262
f 262//258 268//264 267//263
f 263//259 264//260 268//264
f 265//261 269//265 264//260
f 265//261 271//267 270//266
f 266//262 272//268 271//267
f 267//263 273//269 272//268
f 264//260 273//269 268//264
f 270//266 274//270 269//265
f 270//266 276//272 275//271
f 271//267 277//273 276//272
f 272//268 278//274 277//273
f 269//265 278//274 273//269
f 275//271 279//275 274//270
f 275//271 281//277 280//276
f 276//272 282//278 281//277
f 277//273 283//279 282//278
f 274//270 283//279 278//274
f 280//276 284//280 279//275
f 280//276 286//282 285//281
f 281//277 287//283 286//282
f 282//278 288//284 287//283
f 279//275 288//284 283//279
f 247//243 245//241 244//240
f 285//281 287//283 288//284
f 244//240 245//241 250//246
f 245//241 246//242 251//247
f 246//242 247//243 252//248
f 248//244 253//249 252//248
f 244//240 249//245 253//249
f 250//246 255//251 254//250
f 251//247 256//252 255//251
f 252//248 257//253 256//252
f 253//249 258//254 257//253
f 249//245 254//250 258//254
f 255//251 260//256 259//255
f 256//252 261//257 260//256
f 257//253 262//258 261//257
f 258//254 263//259 262//258
f 254//250 259//255 263//259
f 259//255 260//256 265//261
f 260//256 261//257 266//262
f 261//257 262//258 267//263
f 262//258 263//259 268//264
f 263//259 259//255 264//260
f 265//261 270//266 269//265
f 265//261 266//262 271//267
f 266//262 267//263 272//268
f 267//263 268//264 273//269
f 264//260 269//265 273//269
f 270//266 275//271 274//270
f 270//266 271//267 276//272
f 271//267 272//268 277//273
f 272//268 273//269 278//274
f 269//265 274//270 278//274
f 275//271 280//276 279//275
f 275//271 276//272 281//277
f 276//272 277//273 282//278
f 277//273 278//274 283//279
f 274//270 279//275 283//279
f 280//276 285//281 284//280
f 280//276 281//277 286//282
f 281//277 282//278 287//283
f 282//278 283//279 288//284
f 279//275 284//280 288//284
f 244//240 248//244 247//243
f 247//243 246//242 245//241
f 288//284 284//280 285//281
f 285//281 286//282 287//283
o bent_living_blade.126
v -0.836551 0.030000 -0.492681
v -0.836551 0.030000 -0.492681
v -0.836551 0.030000 -0.492681
v -0.752154 0.173570 -0.371468
v -0.829225 0.204185 -0.497173
v -0.906295 0.173570 -0.622878
v -0.681294 0.317140 -0.305216
v -0.807245 0.373708 -0.510649
v -0.933197 0.317140 -0.716081
v -0.614619 0.460710 -0.278675
v -0.770614 0.534620 -0.533108
v -0.926608 0.460710 -0.787541
v -0.553134 0.604280 -0.293481
v -0.719329 0.684280 -0.564551
v -0.885523 0.604280 -0.835621
v -0.497397 0.747849 -0.350544
v -0.653391 0.821760 -0.604977
v -0.809386 0.747849 -0.859411
v -0.446849 0.891419 -0.448955
v -0.572801 0.947988 -0.654388
v -0.698753 0.891419 -0.859820
v -0.400488 1.034989 -0.587077
v -0.477558 1.065604 -0.712782
v -0.554629 1.034989 -0.838487
v -0.367662 1.178559 -0.780159
v -0.367662 1.178559 -0.780159
v -0.367662 1.178559 -0.780159
vn -0.3758 0.8962 0.2357
vn -0.2085 0.9700 0.1249
vn -0.0000 1.0000 -0.0000
vn -0.8326 0.1180 0.5412
vn -0.8477 0.1065 0.5197
vn -0.8600 0.1180 0.4965
vn -0.8041 0.2180 0.5530
vn -0.8328 0.2140 0.5106
vn -0.8576 0.2180 0.4658
vn -0.7646 0.3189 0.5602
vn -0.8063 0.3249 0.4943
vn -0.8460 0.3189 0.4273
vn -0.7131 0.4209 0.5607
vn -0.7655 0.4402 0.4693
vn -0.8231 0.4209 0.3811
vn -0.6515 0.5207 0.5518
vn -0.7114 0.5511 0.4362
vn -0.7873 0.5207 0.3304
vn -0.5850 0.6125 0.5316
vn -0.6505 0.6464 0.3988
vn -0.7392 0.6125 0.2802
vn -0.5219 0.6926 0.4979
vn -0.5881 0.7240 0.3605
vn -0.6806 0.6925 0.2393
vn -0.0858 0.9927 0.0853
vn -0.1995 0.9777 0.0655
s 1
usemtl verdant_membrane
f 289//285 293//289 290//286
f 290//286 294//290 291//287
f 292//288 296//292 293//289
f 296//292 294//290 293//289
f 298//294 296//292 295//291
f 296//292 300//296 297//293
f 301//297 299//295 298//294
f 299//295 303//299 300//296
f 304//300 302//298 301//297
f 302//298 306//302 303//299
f 307//303 305//301 304//300
f 305//301 309//305 306//302
f 310//306 308//304 307//303
f 308//304 312//308 309//305
f 310//306 314//309 311//307
f 311//307 315//310 312//308
f 289//285 292//288 293//289
f 290//286 293//289 294//290
f 292//288 295//291 296//292
f 296//292 297//293 294//290
f 298//294 299//295 296//292
f 296//292 299//295 300//296
f 301//297 302//298 299//295
f 299//295 302//298 303//299
f 304//300 305//301 302//298
f 302//298 305//301 306//302
f 307//303 308//304 305//301
f 305//301 308//304 309//305
f 310//306 311//307 308//304
f 308//304 311//307 312//308
f 310//306 313//287 314//309
f 311//307 314//309 315//310
o leaf_midrib.126
v -0.860520 0.043223 -0.492681
v -0.843921 0.043090 -0.469867
v -0.817137 0.041450 -0.478581
v -0.817182 0.040570 -0.506781
v -0.843994 0.041666 -0.515496
v -0.852354 0.187931 -0.497173
v -0.836233 0.187666 -0.475104
v -0.810426 0.184505 -0.483534
v -0.810598 0.182815 -0.510813
v -0.836512 0.184933 -0.519243
v -0.829291 0.333640 -0.510649
v -0.813537 0.333082 -0.489409
v -0.789088 0.327076 -0.497522
v -0.789732 0.323922 -0.523776
v -0.814579 0.327979 -0.531888
v -0.791411 0.479077 -0.533108
v -0.775970 0.478172 -0.512748
v -0.753127 0.469718 -0.520525
v -0.754450 0.465398 -0.545691
v -0.778110 0.471183 -0.553468
v -0.738771 0.624217 -0.564551
v -0.723633 0.622907 -0.545094
v -0.702547 0.612438 -0.552526
v -0.704653 0.607279 -0.576576
v -0.727041 0.614558 -0.584008
v -0.642807 0.759849 -0.587714
v -0.636033 0.749958 -0.608280
v -0.653248 0.753736 -0.624282
v -0.670661 0.765963 -0.613606
v -0.664208 0.769741 -0.591005
v -0.562609 0.903419 -0.637764
v -0.556810 0.892600 -0.657124
v -0.573111 0.896733 -0.672703
v -0.588983 0.910106 -0.662971
v -0.582493 0.914239 -0.641378
v -0.467758 1.046989 -0.696797
v -0.462878 1.035536 -0.714986
v -0.478286 1.039910 -0.730129
v -0.492688 1.054068 -0.721299
v -0.486182 1.058443 -0.700698
v -0.358254 1.190559 -0.764814
v -0.353896 1.179122 -0.782075
v -0.368563 1.183491 -0.796689
v -0.381986 1.197628 -0.788459
v -0.375615 1.201996 -0.768759
vn -0.8339 -0.5516 0.0187
vn -0.2774 -0.5560 0.7835
vn 0.6208 -0.6110 0.4913
vn 0.6193 -0.6405 -0.4541
vn -0.2797 -0.6039 -0.7463
vn -0.9942 0.1065 0.0109
vn -0.3142 0.0954 0.9445
vn 0.7969 -0.0388 0.6029
vn 0.8006 -0.1131 -0.5884
vn -0.3332 -0.0199 -0.9426
vn -0.9787 0.2052 0.0100
vn -0.2916 0.1813 0.9392
vn 0.7969 -0.0824 0.5985
vn 0.7783 -0.2262 -0.5857
vn -0.3441 -0.0420 -0.9380
vn -0.9545 0.2980 0.0088
vn -0.2572 0.2578 0.9314
vn 0.7958 -0.1269 0.5921
vn 0.7436 -0.3305 -0.5813
vn -0.3606 -0.0590 -0.9308
vn -0.8718 0.4894 -0.0202
vn -0.1672 0.4301 0.8872
vn 0.8328 -0.0575 0.5506
vn 0.7401 -0.3057 -0.5990
vn -0.3312 0.0419 -0.9426
vn 0.4535 -0.0976 0.8859
vn 0.7975 -0.5905 -0.1240
vn -0.0589 -0.4011 -0.9142
vn -0.9037 0.1989 -0.3793
vn -0.5871 0.3808 0.7144
vn 0.5145 0.0120 0.8574
vn 0.8240 -0.5496 -0.1376
vn -0.0239 -0.3332 -0.9426
vn -0.8310 0.3513 -0.4312
vn -0.4986 0.5582 0.6632
vn 0.5162 0.0115 0.8564
vn 0.7869 -0.6062 -0.1154
vn -0.0453 -0.3684 -0.9286
vn -0.8074 0.3855 -0.4466
vn -0.4611 0.6139 0.6407
vn 0.7594 0.4443 0.4753
vn 0.9536 -0.0653 -0.2939
vn 0.3000 0.1293 -0.9451
vn -0.2982 0.7593 -0.5784
vn -0.0143 0.9540 0.2995
s 1
usemtl verdant_fibre
f 316//311 322//317 321//316
f 317//312 323//318 322//317
f 318//313 324//319 323//318
f 320//315 324//319 319//314
f 316//311 325//320 320//315
f 322//317 326//321 321//316
f 323//318 327//322 322//317
f 324//319 328//323 323//318
f 325//320 329//324 324//319
f 321//316 330//325 325//320
f 327//322 331//326 326//321
f 328//323 332//327 327//322
f 329//324 333//328 328//323
f 330//325 334//329 329//324
f 326//321 335//330 330//325
f 332//327 336//331 331//326
f 333//328 337//332 332//327
f 334//329 338//333 333//328
f 335//330 339//334 334//329
f 331//326 340//335 335//330
f 336//331 342//337 341//336
f 337//332 343//338 342//337
f 338//333 344//339 343//338
f 339//334 345//340 344//339
f 340//335 341//336 345//340
f 342//337 346//341 341//336
f 342//337 348//343 347//342
f 343//338 349//344 348//343
f 344//339 350//345 349//344
f 341//336 350//345 345//340
f 347//342 351//346 346//341
f 347//342 353//348 352//347
f 348//343 354//349 353//348
f 349//344 355//350 354//349
f 346//341 355//350 350//345
f 352//347 356//351 351//346
f 352//347 358//353 357//352
f 353//348 359//354 358//353
f 354//349 360//355 359//354
f 351//346 360//355 355//350
f 319//314 317//312 316//311
f 357//352 359//354 360//355
f 316//311 317//312 322//317
f 317//312 318//313 323//318
f 318//313 319//314 324//319
f 320//315 325//320 324//319
f 316//311 321//316 325//320
f 322//317 327//322 326//321
f 323//318 328//323 327//322
f 324//319 329//324 328//323
f 325//320 330//325 329//324
f 321//316 326//321 330//325
f 327//322 332//327 331//326
f 328//323 333//328 332//327
f 329//324 334//329 333//328
f 330//325 335//330 334//329
f 326//321 331//326 335//330
f 332//327 337//332 336//331
f 333//328 338//333 337//332
f 334//329 339//334 338//333
f 335//330 340//335 339//334
f 331//326 336//331 340//335
f 336//331 337//332 342//337
f 337//332 338//333 343//338
f 338//333 339//334 344//339
f 339//334 340//335 345//340
f 340//335 336//331 341//336
f 342//337 347//342 346//341
f 342//337 343//338 348//343
f 343//338 344//339 349//344
f 344//339 345//340 350//345
f 341//336 346//341 350//345
f 347//342 352//347 351//346
f 347//342 348//343 353//348
f 348//343 349//344 354//349
f 349//344 350//345 355//350
f 346//341 351//346 355//350
f 352//347 357//352 356//351
f 352//347 353//348 358//353
f 353//348 354//349 359//354
f 354//349 355//350 360//355
f 351//346 356//351 360//355
f 316//311 320//315 319//314
f 319//314 318//313 317//312
f 360//355 356//351 357//352
f 357//352 358//353 359//354
o bent_living_blade.127
v 0.207667 0.030000 -0.376209
v 0.207667 0.030000 -0.376209
v 0.207667 0.030000 -0.376209
v 0.265540 0.159455 -0.298258
v 0.214993 0.190069 -0.380701
v 0.164447 0.159455 -0.463144
v 0.319577 0.288909 -0.259445
v 0.236973 0.345478 -0.394176
v 0.154368 0.288909 -0.528908
v 0.375912 0.418364 -0.249767
v 0.273604 0.492274 -0.416636
v 0.171297 0.418364 -0.583504
v 0.433887 0.547819 -0.270299
v 0.324889 0.627819 -0.448079
v 0.215892 0.547819 -0.625858
v 0.493134 0.677273 -0.321637
v 0.390827 0.751184 -0.488505
v 0.288519 0.677273 -0.655374
v 0.554022 0.806728 -0.403184
v 0.471417 0.863297 -0.537915
v 0.388812 0.806728 -0.672647
v 0.617206 0.936183 -0.513866
v 0.566660 0.966797 -0.596309
v 0.516114 0.936183 -0.678752
v 0.676556 1.065637 -0.663687
v 0.676556 1.065637 -0.663687
v 0.676556 1.065637 -0.663687
vn -0.3123 0.9289 0.1989
vn -0.1701 0.9803 0.1003
vn -0.0000 1.0000 -0.0000
vn -0.8255 0.1215 0.5512
vn -0.8462 0.1214 0.5188
vn -0.8657 0.1216 0.4856
vn -0.7855 0.2275 0.5755
vn -0.8283 0.2367 0.5078
vn -0.8692 0.2275 0.4390
vn -0.7293 0.3381 0.5949
vn -0.7960 0.3580 0.4880
vn -0.8609 0.3381 0.3801
vn -0.6582 0.4488 0.6044
vn -0.7472 0.4814 0.4581
vn -0.8372 0.4488 0.3124
vn -0.5767 0.5540 0.6005
vn -0.6841 0.5968 0.4194
vn -0.7967 0.5540 0.2416
vn -0.4946 0.6467 0.5806
vn -0.6152 0.6923 0.3772
vn -0.7418 0.6467 0.1774
vn -0.4245 0.7259 0.5411
vn -0.5459 0.7681 0.3347
vn -0.6749 0.7258 0.1329
vn -0.0534 0.9959 0.0733
vn -0.1599 0.9868 0.0256
s 1
usemtl verdant_membrane
f 361//356 365//360 362//357
f 362//357 366//361 363//358
f 367//362 365//360 364//359
f 365//360 369//364 366//361
f 370//365 368//363 367//362
f 368//363 372//367 369//364
f 373//368 371//366 370//365
f 371//366 375//370 372//367
f 376//371 374//369 373//368
f 374//369 378//373 375//370
f 379//374 377//372 376//371
f 377//372 381//376 378//373
f 382//377 380//375 379//374
f 380//375 384//379 381//376
f 382//377 386//380 383//378
f 383//378 387//381 384//379
f 361//356 364//359 365//360
f 362//357 365//360 366//361
f 367//362 368//363 365//360
f 365//360 368//363 369//364
f 370//365 371//366 368//363
f 368//363 371//366 372//367
f 373//368 374//369 371//366
f 371//366 374//369 375//370
f 376//371 377//372 374//369
f 374//369 377//372 378//373
f 379//374 380//375 377//372
f 377//372 380//375 381//376
f 382//377 383//378 380//375
f 380//375 383//378 384//379
f 382//377 385//358 386//380
f 383//378 386//380 387//381
o leaf_midrib.127
v 0.183705 0.043356 -0.376209
v 0.200307 0.043208 -0.353397
v 0.227080 0.041391 -0.362111
v 0.227025 0.040415 -0.390307
v 0.200218 0.041630 -0.399021
v 0.191891 0.174070 -0.380701
v 0.208025 0.173774 -0.358641
v 0.233789 0.170273 -0.367067
v 0.233578 0.168405 -0.394335
v 0.207683 0.170751 -0.402761
v 0.215028 0.305877 -0.394176
v 0.230825 0.305244 -0.372971
v 0.255118 0.298621 -0.381071
v 0.254335 0.295160 -0.407282
v 0.229557 0.299645 -0.415382
v 0.253009 0.437357 -0.416636
v 0.268527 0.436313 -0.396341
v 0.291061 0.427048 -0.404093
v 0.289471 0.422365 -0.429179
v 0.265954 0.428737 -0.436931
v 0.335866 0.559819 -0.430176
v 0.343319 0.550451 -0.451766
v 0.325303 0.554029 -0.468260
v 0.306715 0.565608 -0.456864
v 0.313243 0.569186 -0.433327
v 0.401411 0.689273 -0.471242
v 0.407776 0.678622 -0.491557
v 0.390718 0.682690 -0.507655
v 0.373810 0.695856 -0.497288
v 0.380418 0.699925 -0.474784
v 0.481609 0.818728 -0.521291
v 0.486933 0.807173 -0.540360
v 0.470814 0.811586 -0.556051
v 0.455528 0.825870 -0.546679
v 0.462200 0.830283 -0.525196
v 0.576460 0.948183 -0.580325
v 0.580824 0.936043 -0.598197
v 0.565613 0.940680 -0.613461
v 0.551849 0.955685 -0.605022
v 0.558552 0.960322 -0.584542
v 0.685964 1.077637 -0.648342
v 0.689805 1.065558 -0.665286
v 0.675335 1.070172 -0.680020
v 0.662552 1.085103 -0.672183
v 0.669121 1.089717 -0.652605
vn -0.8371 -0.5467 0.0208
vn -0.2804 -0.5515 0.7856
vn 0.6176 -0.6125 0.4933
vn 0.6158 -0.6452 -0.4522
vn -0.2832 -0.6047 -0.7444
vn -0.9930 0.1179 0.0120
vn -0.3138 0.1055 0.9436
vn 0.7956 -0.0428 0.6043
vn 0.7988 -0.1252 -0.5884
vn -0.3362 -0.0217 -0.9415
vn -0.9740 0.2264 0.0108
vn -0.2862 0.1994 0.9372
vn 0.7957 -0.0910 0.5988
vn 0.7717 -0.2491 -0.5851
vn -0.3492 -0.0451 -0.9360
vn -0.8904 0.4548 -0.0184
vn -0.1965 0.4101 0.8906
vn 0.8318 -0.0026 0.5550
vn 0.7682 -0.2196 -0.6013
vn -0.3177 0.0726 -0.9454
vn 0.4463 -0.1183 0.8870
vn 0.8115 -0.5690 -0.1328
vn -0.0525 -0.3960 -0.9168
vn -0.9181 0.1511 -0.3664
vn -0.6099 0.3167 0.7264
vn 0.5126 0.0135 0.8585
vn 0.8415 -0.5198 -0.1474
vn -0.0152 -0.3140 -0.9493
vn -0.8421 0.3345 -0.4231
vn -0.5161 0.5297 0.6731
vn 0.5149 0.0130 0.8572
vn 0.8002 -0.5870 -0.1228
vn -0.0386 -0.3557 -0.9338
vn -0.8156 0.3752 -0.4405
vn -0.4742 0.5960 0.6481
vn 0.5168 0.0122 0.8560
vn 0.7598 -0.6426 -0.0987
vn -0.0618 -0.3905 -0.9185
vn -0.7900 0.4085 -0.4572
vn -0.4334 0.6505 0.6237
vn 0.7785 0.4232 0.4635
vn 0.9496 -0.1150 -0.2915
vn 0.3049 0.0905 -0.9481
vn -0.2647 0.7559 -0.5988
vn 0.0280 0.9614 0.2736
s 1
usemtl verdant_fibre
f 388//382 394//388 393//387
f 389//383 395//389 394//388
f 390//384 396//390 395//389
f 392//386 396//390 391//385
f 388//382 397//391 392//386
f 394//388 398//392 393//387
f 395//389 399//393 394//388
f 396//390 400//394 395//389
f 397//391 401//395 396//390
f 393//387 402//396 397//391
f 399//393 403//397 398//392
f 400//394 404//398 399//393
f 401//395 405//399 400//394
f 402//396 406//400 401//395
f 398//392 407//401 402//396
f 403//397 409//403 408//402
f 404//398 410//404 409//403
f 405//399 411//405 410//404
f 406//400 412//406 411//405
f 407//401 408//402 412//406
f 409//403 413//407 408//402
f 409//403 415//409 414//408
f 410//404 416//410 415//409
f 411//405 417//411 416//410
f 408//402 417//411 412//406
f 414//408 418//412 413//407
f 414//408 420//414 419//413
f 415//409 421//415 420//414
f 416//410 422//416 421//415
f 413//407 422//416 417//411
f 419//413 423//417 418//412
f 419//413 425//419 424//418
f 420//414 426//420 425//419
f 421//415 427//421 426//420
f 418//412 427//421 422//416
f 424//418 428//422 423//417
f 424//418 430//424 429//423
f 425//419 431//425 430//424
f 426//420 432//426 431//425
f 423//417 432//426 427//421
f 391//385 389//383 388//382
f 429//423 431//425 432//426
f 388//382 389//383 394//388
f 389//383 390//384 395//389
f 390//384 391//385 396//390
f 392//386 397//391 396//390
f 388//382 393//387 397//391
f 394//388 399//393 398//392
f 395//389 400//394 399//393
f 396//390 401//395 400//394
f 397//391 402//396 401//395
f 393//387 398//392 402//396
f 399//393 404//398 403//397
f 400//394 405//399 404//398
f 401//395 406//400 405//399
f 402//396 407//401 406//400
f 398//392 403//397 407//401
f 403//397 404//398 409//403
f 404//398 405//399 410//404
f 405//399 406//400 411//405
f 406//400 407//401 412//406
f 407//401 403//397 408//402
f 409//403 414//408 413//407
f 409//403 410//404 415//409
f 410//404 411//405 416//410
f 411//405 412//406 417//411
f 408//402 413//407 417//411
f 414//408 419//413 418//412
f 414//408 415//409 420//414
f 415//409 416//410 421//415
f 416//410 417//411 422//416
f 413//407 418//412 422//416
f 419//413 424//418 423//417
f 419//413 420//414 425//419
f 420//414 421//415 426//420
f 421//415 422//416 427//421
f 418//412 423//417 427//421
f 424//418 429//423 428//422
f 424//418 425//419 430//424
f 425//419 426//420 431//425
f 426//420 427//421 432//426
f 423//417 428//422 432//426
f 388//382 392//386 391//385
f 391//385 390//384 389//383
f 432//426 428//422 429//423
f 429//423 430//424 431//425
