# Blender 5.2.1 LTS
# www.blender.org
mtllib plant_fan_b.mtl
o plant_fan_b
v 0.000000 0.000000 0.000000
v 0.363730 0.080000 -0.000000
v 0.226780 0.080000 0.284380
v -0.080940 0.080000 0.354610
v -0.327710 0.080000 0.157820
v -0.327710 0.080000 -0.157820
v -0.080940 0.080000 -0.354610
v 0.226780 0.080000 -0.284380
v 0.363730 0.240000 -0.000000
v 0.226780 0.240000 0.284380
v -0.080940 0.240000 0.354610
v -0.327710 0.240000 0.157820
v -0.327710 0.240000 -0.157820
v -0.080940 0.240000 -0.354610
v 0.226780 0.240000 -0.284380
v 0.000000 0.320000 -0.000000
v 0.000000 0.140000 -0.055000
v -0.638590 1.689830 -0.055000
v -0.044040 0.121850 -0.027500
v -0.682630 1.671690 -0.027500
v -0.044040 0.121850 0.027500
v -0.682630 1.671690 0.027500
v 0.000000 0.140000 0.055000
v -0.638590 1.689830 0.055000
v 0.044040 0.158150 0.027500
v -0.594550 1.707980 0.027500
v 0.044040 0.158150 -0.027500
v -0.594550 1.707980 -0.027500
v -0.638590 1.569830 -0.000000
v -0.534670 1.669830 -0.000000
v -0.586630 1.669830 0.033750
v -0.690550 1.669830 0.033750
v -0.742510 1.669830 -0.000000
v -0.690550 1.669830 -0.033750
v -0.586630 1.669830 -0.033750
v -0.534670 1.869830 -0.000000
v -0.586630 1.869830 0.033750
v -0.690550 1.869830 0.033750
v -0.742510 1.869830 -0.000000
v -0.690550 1.869830 -0.033750
v -0.586630 1.869830 -0.033750
v -0.638590 1.969830 -0.000000
v 0.000000 0.144060 -0.054850
v -0.456300 1.753410 0.064150
v -0.045830 0.129100 -0.028380
v -0.502130 1.738460 0.090620
v -0.045830 0.125050 0.026470
v -0.502130 1.734400 0.145470
v 0.000000 0.135940 0.054850
v -0.456300 1.745300 0.173850
v 0.045830 0.150900 0.028380
v -0.410460 1.760250 0.147380
v 0.045830 0.154950 -0.026470
v -0.410460 1.764310 0.092530
v -0.456300 1.629360 0.119000
v -0.352380 1.729360 0.119000
v -0.404340 1.729360 0.152750
v -0.508260 1.729360 0.152750
v -0.560220 1.729360 0.119000
v -0.508260 1.729360 0.085250
v -0.404340 1.729360 0.085250
v -0.352380 1.929360 0.119000
v -0.404340 1.929360 0.152750
v -0.508260 1.929360 0.152750
v -0.560220 1.929360 0.119000
v -0.508260 1.929360 0.085250
v -0.404340 1.929360 0.085250
v -0.456300 2.029360 0.119000
v 0.000000 0.138980 -0.054990
v -0.237620 1.786060 -0.085660
v -0.047140 0.132690 -0.027370
v -0.284770 1.779770 -0.058030
v -0.047140 0.133710 0.027620
v -0.284770 1.780790 -0.003040
v 0.000000 0.141020 0.054990
v -0.237620 1.788110 0.024330
v 0.047140 0.147310 0.027370
v -0.190480 1.794390 -0.003300
v 0.047140 0.146290 -0.027620
v -0.190480 1.793370 -0.058290
v -0.237620 1.667080 -0.030660
v -0.133700 1.767080 -0.030660
v -0.185660 1.767080 0.003090
v -0.289590 1.767080 0.003090
v -0.341550 1.767080 -0.030660
v -0.289590 1.767080 -0.064410
v -0.185660 1.767080 -0.064410
v -0.133700 1.967080 -0.030660
v -0.185660 1.967080 0.003090
v -0.289590 1.967080 0.003090
v -0.341550 1.967080 -0.030660
v -0.289590 1.967080 -0.064410
v -0.185660 1.967080 -0.064410
v -0.237620 2.067080 -0.030660
v 0.000000 0.136330 -0.054880
v 0.000000 1.796330 -0.165970
v -0.047630 0.138160 -0.027440
v -0.047630 1.798160 -0.138540
v -0.047630 0.141840 0.027440
v -0.047630 1.801840 -0.083660
v 0.000000 0.143670 0.054880
v 0.000000 1.803670 -0.056220
v 0.047630 0.141840 0.027440
v 0.047630 1.801840 -0.083660
v 0.047630 0.138160 -0.027440
v 0.047630 1.798160 -0.138540
v 0.000000 1.680000 -0.111100
v 0.103920 1.780000 -0.111100
v 0.051960 1.780000 -0.077350
v -0.051960 1.780000 -0.077350
v -0.103920 1.780000 -0.111100
v -0.051960 1.780000 -0.144850
v 0.051960 1.780000 -0.144850
v 0.103920 1.980000 -0.111100
v 0.051960 1.980000 -0.077350
v -0.051960 1.980000 -0.077350
v -0.103920 1.980000 -0.111100
v -0.051960 1.980000 -0.144850
v 0.051960 1.980000 -0.144850
v 0.000000 2.080000 -0.111100
v 0.000000 0.141980 -0.054960
v 0.237620 1.789060 0.004330
v -0.047140 0.147780 -0.027240
v 0.190480 1.794860 0.032060
v -0.047140 0.145800 0.027730
v 0.190480 1.792890 0.087020
v 0.000000 0.138020 0.054960
v 0.237620 1.785100 0.114260
v 0.047140 0.132220 0.027240
v 0.284770 1.779300 0.086530
v 0.047140 0.134200 -0.027730
v 0.284770 1.781280 0.031570
v 0.237620 1.667080 0.059290
v 0.341550 1.767080 0.059290
v 0.289590 1.767080 0.093040
v 0.185660 1.767080 0.093040
v 0.133700 1.767080 0.059290
v 0.185660 1.767080 0.025540
v 0.289590 1.767080 0.025540
v 0.341550 1.967080 0.059290
v 0.289590 1.967080 0.093040
v 0.185660 1.967080 0.093040
v 0.133700 1.967080 0.059290
v 0.185660 1.967080 0.025540
v 0.289590 1.967080 0.025540
v 0.237620 2.067080 0.059290
v 0.000000 0.143270 -0.054900
v 0.456300 1.752630 0.040920
v -0.045830 0.154580 -0.026680
v 0.410470 1.763940 0.069140
v -0.045830 0.151310 0.028220
v 0.410470 1.760670 0.124040
v 0.000000 0.136730 0.054900
v 0.456300 1.746090 0.150720
v 0.045830 0.125420 0.026680
v 0.502130 1.734770 0.122500
v 0.045830 0.128690 -0.028220
v 0.502130 1.738040 0.067600
v 0.456300 1.629360 0.095820
v 0.560220 1.729360 0.095820
v 0.508260 1.729360 0.129570
v 0.404340 1.729360 0.129570
v 0.352380 1.729360 0.095820
v 0.404340 1.729360 0.062070
v 0.508260 1.729360 0.062070
v 0.560220 1.929360 0.095820
v 0.508260 1.929360 0.129570
v 0.404340 1.929360 0.129570
v 0.352380 1.929360 0.095820
v 0.404340 1.929360 0.062070
v 0.508260 1.929360 0.062070
v 0.456300 2.029360 0.095820
v 0.000000 0.137020 -0.054920
v 0.638590 1.686860 -0.138900
v -0.044050 0.156610 -0.028440
v 0.594540 1.706440 -0.112430
v -0.044050 0.159580 0.026480
v 0.594540 1.709420 -0.057510
v 0.000000 0.142980 0.054920
v 0.638590 1.692810 -0.029070
v 0.044050 0.123390 0.028440
v 0.682640 1.673230 -0.055540
v 0.044050 0.120420 -0.026480
v 0.682640 1.670250 -0.110460
v 0.638590 1.569830 -0.083980
v 0.742510 1.669830 -0.083980
v 0.690550 1.669830 -0.050230
v 0.586630 1.669830 -0.050230
v 0.534670 1.669830 -0.083980
v 0.586630 1.669830 -0.117730
v 0.690550 1.669830 -0.117730
v 0.742510 1.869830 -0.083980
v 0.690550 1.869830 -0.050230
v 0.586630 1.869830 -0.050230
v 0.534670 1.869830 -0.083980
v 0.586630 1.869830 -0.117730
v 0.690550 1.869830 -0.117730
v 0.638590 1.969830 -0.083980
vn -0.0000 -1.0000 -0.0000
vn 0.8330 -0.5533 -0.0000
vn 0.5194 -0.5533 0.6513
vn -0.1854 -0.5533 0.8121
vn -0.7505 -0.5533 0.3614
vn -0.7505 -0.5533 -0.3614
vn -0.1854 -0.5533 -0.8121
vn 0.5194 -0.5533 -0.6513
vn 0.8330 0.5533 -0.0000
vn 0.5194 0.5533 0.6513
vn -0.1854 0.5533 0.8121
vn -0.7505 0.5533 0.3614
vn -0.7505 0.5533 -0.3614
vn -0.1854 0.5533 -0.8121
vn 0.5194 0.5533 -0.6513
vn -0.0000 1.0000 -0.0000
vn 0.2324 -0.5640 -0.7924
vn -0.2324 0.5639 -0.7925
vn -0.4021 -0.8254 -0.3962
vn -0.8669 0.3026 -0.3962
vn -0.4021 -0.8254 0.3962
vn -0.8669 0.3026 0.3962
vn 0.2324 -0.5640 0.7924
vn -0.2324 0.5640 0.7924
vn 0.8669 -0.3025 0.3962
vn 0.4021 0.8254 0.3962
vn 0.8669 -0.3025 -0.3962
vn 0.4021 0.8254 -0.3962
vn 0.9435 -0.3315 -0.0000
vn 0.3012 -0.2187 0.9282
vn -0.3012 -0.2187 0.9282
vn -0.9435 -0.3315 -0.0000
vn -0.3012 -0.2187 -0.9282
vn 0.3012 -0.2187 -0.9282
vn 0.9435 0.3315 -0.0000
vn 0.3012 0.2187 0.9282
vn -0.3012 0.2187 0.9282
vn -0.9435 0.3315 -0.0000
vn -0.3012 0.2187 -0.9282
vn 0.3012 0.2187 -0.9282
vn 0.1660 -0.5269 -0.8336
vn -0.1660 0.6438 -0.7470
vn -0.4943 -0.7425 -0.4521
vn -0.8263 0.4284 -0.3656
vn -0.4944 -0.8008 0.3381
vn -0.8264 0.3699 0.4246
vn 0.1660 -0.6439 0.7469
vn -0.1660 0.5269 0.8335
vn 0.8264 -0.4284 0.3656
vn 0.4944 0.7423 0.4522
vn 0.8263 -0.3701 -0.4246
vn 0.4944 0.8008 -0.3381
vn 0.0871 -0.6183 -0.7811
vn -0.0871 0.5889 -0.8035
vn -0.5921 -0.7090 -0.3831
vn -0.7663 0.4983 -0.4055
vn -0.5921 -0.6943 0.4092
vn -0.7664 0.5130 0.3868
vn 0.0871 -0.5889 0.8035
vn -0.0870 0.6184 0.7810
vn 0.7663 -0.4983 0.4055
vn 0.5922 0.7089 0.3830
vn 0.7663 -0.5130 -0.3867
vn 0.5921 0.6942 -0.4092
vn -0.0000 -0.6615 -0.7499
vn -0.0000 0.5558 -0.8313
vn -0.6862 -0.6352 -0.3545
vn -0.6862 0.5821 -0.4361
vn -0.6863 -0.5822 0.4361
vn -0.6862 0.6352 0.3545
vn -0.0000 -0.5558 0.8313
vn -0.0000 0.6615 0.7499
vn 0.6863 -0.5822 0.4361
vn 0.6862 0.6352 0.3545
vn 0.6862 -0.6352 -0.3545
vn 0.6862 0.5821 -0.4361
vn -0.0870 -0.5748 -0.8136
vn 0.0870 0.6319 -0.7702
vn -0.7662 -0.4913 -0.4142
vn -0.5922 0.7155 -0.3707
vn -0.7662 -0.5198 0.3778
vn -0.5921 0.6871 0.4211
vn -0.0870 -0.6319 0.7701
vn 0.0870 0.5748 0.8136
vn 0.5922 -0.7155 0.3707
vn 0.7662 0.4913 0.4142
vn 0.5922 -0.6869 -0.4212
vn 0.7662 0.5198 -0.3777
vn -0.1661 -0.5388 -0.8259
vn 0.1662 0.6331 -0.7560
vn -0.8264 -0.3758 -0.4193
vn -0.4942 0.7960 -0.3495
vn -0.8264 -0.4229 0.3717
vn -0.4942 0.7489 0.4415
vn -0.1661 -0.6330 0.7561
vn 0.1661 0.5388 0.8259
vn 0.4942 -0.7960 0.3495
vn 0.8265 0.3757 0.4193
vn 0.4942 -0.7489 -0.4415
vn 0.8264 0.4229 -0.3717
vn -0.2321 -0.6062 -0.7607
vn 0.2321 0.5204 -0.8217
vn -0.8667 -0.3239 -0.3793
vn -0.4025 0.8025 -0.4403
vn -0.8667 -0.2812 0.4120
vn -0.4025 0.8455 0.3509
vn -0.2321 -0.5203 0.8218
vn 0.2320 0.6062 0.7607
vn 0.4026 -0.8026 0.4403
vn 0.8667 0.3241 0.3793
vn 0.4026 -0.8454 -0.3510
vn 0.8667 0.2811 -0.4120
s 1
usemtl verdant_fibre
f 1//1 2//2 3//3
f 1//1 3//3 4//4
f 1//1 4//4 5//5
f 1//1 5//5 6//6
f 1//1 6//6 7//7
f 1//1 7//7 8//8
f 1//1 8//8 2//2
f 9//9 3//3 2//2
f 10//10 4//4 3//3
f 11//11 5//5 4//4
f 12//12 6//6 5//5
f 13//13 7//7 6//6
f 14//14 8//8 7//7
f 15//15 2//2 8//8
f 9//9 16//16 10//10
f 10//10 16//16 11//11
f 11//11 16//16 12//12
f 12//12 16//16 13//13
f 13//13 16//16 14//14
f 14//14 16//16 15//15
f 15//15 16//16 9//9
f 9//9 10//10 3//3
f 10//10 11//11 4//4
f 11//11 12//12 5//5
f 12//12 13//13 6//6
f 13//13 14//14 7//7
f 14//14 15//15 8//8
f 15//15 9//9 2//2
usemtl verdant_membrane
f 25//25 21//21 17//17
f 20//20 24//24 28//28
f 19//19 18//18 17//17
f 21//21 20//20 19//19
f 21//21 24//24 22//22
f 25//25 24//24 23//23
f 27//27 26//26 25//25
f 27//27 18//18 28//28
f 29//1 30//29 31//30
f 29//1 31//30 32//31
f 29//1 32//31 33//32
f 29//1 33//32 34//33
f 29//1 34//33 35//34
f 29//1 35//34 30//29
f 36//35 31//30 30//29
f 37//36 32//31 31//30
f 38//37 33//32 32//31
f 39//38 34//33 33//32
f 40//39 35//34 34//33
f 41//40 30//29 35//34
f 36//35 42//16 37//36
f 37//36 42//16 38//37
f 38//37 42//16 39//38
f 39//38 42//16 40//39
f 40//39 42//16 41//40
f 41//40 42//16 36//35
f 51//49 47//45 43//41
f 46//44 50//48 54//52
f 43//41 46//44 44//42
f 47//45 46//44 45//43
f 47//45 50//48 48//46
f 51//49 50//48 49//47
f 51//49 54//52 52//50
f 43//41 54//52 53//51
f 55//1 56//29 57//30
f 55//1 57//30 58//31
f 55//1 58//31 59//32
f 55//1 59//32 60//33
f 55//1 60//33 61//34
f 55//1 61//34 56//29
f 62//35 57//30 56//29
f 63//36 58//31 57//30
f 64//37 59//32 58//31
f 65//38 60//33 59//32
f 66//39 61//34 60//33
f 67//40 56//29 61//34
f 62//35 68//16 63//36
f 63//36 68//16 64//37
f 64//37 68//16 65//38
f 65//38 68//16 66//39
f 66//39 68//16 67//40
f 67//40 68//16 62//35
f 77//61 73//57 69//53
f 72//56 76//60 80//64
f 69//53 72//56 70//54
f 71//55 74//58 72//56
f 75//59 74//58 73//57
f 75//59 78//62 76//60
f 79//63 78//62 77//61
f 69//53 80//64 79//63
f 81//1 82//29 83//30
f 81//1 83//30 84//31
f 81//1 84//31 85//32
f 81//1 85//32 86//33
f 81//1 86//33 87//34
f 81//1 87//34 82//29
f 88//35 83//30 82//29
f 89//36 84//31 83//30
f 90//37 85//32 84//31
f 91//38 86//33 85//32
f 92//39 87//34 86//33
f 93//40 82//29 87//34
f 88//35 94//16 89//36
f 89//36 94//16 90//37
f 90//37 94//16 91//38
f 91//38 94//16 92//39
f 92//39 94//16 93//40
f 93//40 94//16 88//35
f 103//73 99//69 95//65
f 98//68 102//72 106//76
f 95//65 98//68 96//66
f 99//69 98//68 97//67
f 99//69 102//72 100//70
f 103//73 102//72 101//71
f 103//73 106//76 104//74
f 95//65 106//76 105//75
f 107//1 108//29 109//30
f 107//1 109//30 110//31
f 107//1 110//31 111//32
f 107//1 111//32 112//33
f 107//1 112//33 113//34
f 107//1 113//34 108//29
f 114//35 109//30 108//29
f 115//36 110//31 109//30
f 116//37 111//32 110//31
f 117//38 112//33 111//32
f 118//39 113//34 112//33
f 119//40 108//29 113//34
f 114//35 120//16 115//36
f 115//36 120//16 116//37
f 116//37 120//16 117//38
f 117//38 120//16 118//39
f 118//39 120//16 119//40
f 119//40 120//16 114//35
f 129//85 125//81 121//77
f 124//80 128//84 132//88
f 121//77 124//80 122//78
f 125//81 124//80 123//79
f 125//81 128//84 126//82
f 129//85 128//84 127//83
f 131//87 130//86 129//85
f 131//87 122//78 132//88
f 133//1 134//29 135//30
f 133//1 135//30 136//31
f 133//1 136//31 137//32
f 133//1 137//32 138//33
f 133//1 138//33 139//34
f 133//1 139//34 134//29
f 140//35 135//30 134//29
f 141//36 136//31 135//30
f 142//37 137//32 136//31
f 143//38 138//33 137//32
f 144//39 139//34 138//33
f 145//40 134//29 139//34
f 140//35 146//16 141//36
f 141//36 146//16 142//37
f 142//37 146//16 143//38
f 143//38 146//16 144//39
f 144//39 146//16 145//40
f 145//40 146//16 140//35
f 155//97 151//93 147//89
f 150//92 154//96 158//100
f 147//89 150//92 148//90
f 149//91 152//94 150//92
f 153//95 152//94 151//93
f 153//95 156//98 154//96
f 157//99 156//98 155//97
f 147//89 158//100 157//99
f 159//1 160//29 161//30
f 159//1 161//30 162//31
f 159//1 162//31 163//32
f 159//1 163//32 164//33
f 159//1 164//33 165//34
f 159//1 165//34 160//29
f 166//35 161//30 160//29
f 167//36 162//31 161//30
f 168//37 163//32 162//31
f 169//38 164//33 163//32
f 170//39 165//34 164//33
f 171//40 160//29 165//34
f 166//35 172//16 167//36
f 167//36 172//16 168//37
f 168//37 172//16 169//38
f 169//38 172//16 170//39
f 170//39 172//16 171//40
f 171//40 172//16 166//35
f 181//109 177//105 173//101
f 176//104 180//108 184//112
f 175//103 174//102 173//101
f 175//103 178//106 176//104
f 179//107 178//106 177//105
f 181//109 180//108 179//107
f 183//111 182//110 181//109
f 183//111 174//102 184//112
f 185//1 186//29 187//30
f 185//1 187//30 188//31
f 185//1 188//31 189//32
f 185//1 189//32 190//33
f 185//1 190//33 191//34
f 185//1 191//34 186//29
f 192//35 187//30 186//29
f 193//36 188//31 187//30
f 194//37 189//32 188//31
f 195//38 190//33 189//32
f 196//39 191//34 190//33
f 197//40 186//29 191//34
f 192//35 198//16 193//36
f 193//36 198//16 194//37
f 194//37 198//16 195//38
f 195//38 198//16 196//39
f 196//39 198//16 197//40
f 197//40 198//16 192//35
f 17//17 27//27 25//25
f 25//25 23//23 21//21
f 21//21 19//19 17//17
f 28//28 18//18 20//20
f 20//20 22//22 24//24
f 24//24 26//26 28//28
f 19//19 20//20 18//18
f 21//21 22//22 20//20
f 21//21 23//23 24//24
f 25//25 26//26 24//24
f 27//27 28//28 26//26
f 27//27 17//17 18//18
f 36//35 37//36 31//30
f 37//36 38//37 32//31
f 38//37 39//38 33//32
f 39//38 40//39 34//33
f 40//39 41//40 35//34
f 41//40 36//35 30//29
f 43//41 53//51 51//49
f 51//49 49//47 47//45
f 47//45 45//43 43//41
f 54//52 44//42 46//44
f 46//44 48//46 50//48
f 50//48 52//50 54//52
f 43//41 45//43 46//44
f 47//45 48//46 46//44
f 47//45 49//47 50//48
f 51//49 52//50 50//48
f 51//49 53//51 54//52
f 43//41 44//42 54//52
f 62//35 63//36 57//30
f 63//36 64//37 58//31
f 64//37 65//38 59//32
f 65//38 66//39 60//33
f 66//39 67//40 61//34
f 67//40 62//35 56//29
f 69//53 79//63 77//61
f 77//61 75//59 73//57
f 73//57 71//55 69//53
f 80//64 70//54 72//56
f 72//56 74//58 76//60
f 76//60 78//62 80//64
f 69//53 71//55 72//56
f 71//55 73//57 74//58
f 75//59 76//60 74//58
f 75//59 77//61 78//62
f 79//63 80//64 78//62
f 69//53 70//54 80//64
f 88//35 89//36 83//30
f 89//36 90//37 84//31
f 90//37 91//38 85//32
f 91//38 92//39 86//33
f 92//39 93//40 87//34
f 93//40 88//35 82//29
f 95//65 105//75 103//73
f 103//73 101//71 99//69
f 99//69 97//67 95//65
f 106//76 96//66 98//68
f 98//68 100//70 102//72
f 102//72 104//74 106//76
f 95//65 97//67 98//68
f 99//69 100//70 98//68
f 99//69 101//71 102//72
f 103//73 104//74 102//72
f 103//73 105//75 106//76
f 95//65 96//66 106//76
f 114//35 115//36 109//30
f 115//36 116//37 110//31
f 116//37 117//38 111//32
f 117//38 118//39 112//33
f 118//39 119//40 113//34
f 119//40 114//35 108//29
f 121//77 131//87 129//85
f 129//85 127//83 125//81
f 125//81 123//79 121//77
f 132//88 122//78 124//80
f 124//80 126//82 128//84
f 128//84 130//86 132//88
f 121//77 123//79 124//80
f 125//81 126//82 124//80
f 125//81 127//83 128//84
f 129//85 130//86 128//84
f 131//87 132//88 130//86
f 131//87 121//77 122//78
f 140//35 141//36 135//30
f 141//36 142//37 136//31
f 142//37 143//38 137//32
f 143//38 144//39 138//33
f 144//39 145//40 139//34
f 145//40 140//35 134//29
f 147//89 157//99 155//97
f 155//97 153//95 151//93
f 151//93 149//91 147//89
f 158//100 148//90 150//92
f 150//92 152//94 154//96
f 154//96 156//98 158//100
f 147//89 149//91 150//92
f 149//91 151//93 152//94
f 153//95 154//96 152//94
f 153//95 155//97 156//98
f 157//99 158//100 156//98
f 147//89 148//90 158//100
f 166//35 167//36 161//30
f 167//36 168//37 162//31
f 168//37 169//38 163//32
f 169//38 170//39 164//33
f 170//39 171//40 165//34
f 171//40 166//35 160//29
f 173//101 183//111 181//109
f 181//109 179//107 177//105
f 177//105 175//103 173//101
f 184//112 174//102 176//104
f 176//104 178//106 180//108
f 180//108 182//110 184//112
f 175//103 176//104 174//102
f 175//103 177//105 178//106
f 179//107 180//108 178//106
f 181//109 182//110 180//108
f 183//111 184//112 182//110
f 183//111 173//101 174//102
f 192//35 193//36 187//30
f 193//36 194//37 188//31
f 194//37 195//38 189//32
f 195//38 196//39 190//33
f 196//39 197//40 191//34
f 197//40 192//35 186//29
