# Blender 5.2.1 LTS
# www.blender.org
mtllib plant_cup_a.mtl
o plant_cup_a
v 0.000000 0.000000 0.000000
v 0.389710 0.075000 -0.000000
v 0.275570 0.075000 0.275570
v 0.000000 0.075000 0.389710
v -0.275570 0.075000 0.275570
v -0.389710 0.075000 -0.000000
v -0.275570 0.075000 -0.275570
v 0.000000 0.075000 -0.389710
v 0.275570 0.075000 -0.275570
v 0.389710 0.225000 -0.000000
v 0.275570 0.225000 0.275570
v 0.000000 0.225000 0.389710
v -0.275570 0.225000 0.275570
v -0.389710 0.225000 -0.000000
v -0.275570 0.225000 -0.275570
v 0.000000 0.225000 -0.389710
v 0.275570 0.225000 -0.275570
v 0.000000 0.300000 -0.000000
v 0.000000 0.120000 -0.050000
v 0.340000 0.850000 -0.050000
v -0.039250 0.138280 -0.025000
v 0.300750 0.868280 -0.025000
v -0.039250 0.138280 0.025000
v 0.300750 0.868280 0.025000
v 0.000000 0.120000 0.050000
v 0.340000 0.850000 0.050000
v 0.039250 0.101720 0.025000
v 0.379250 0.831720 0.025000
v 0.039250 0.101720 -0.025000
v 0.379250 0.831720 -0.025000
v 0.340000 0.850000 -0.000000
v 0.599810 0.910000 -0.000000
v 0.501990 0.910000 0.203130
v 0.282190 0.910000 0.253290
v 0.105920 0.910000 0.112730
v 0.105920 0.910000 -0.112730
v 0.282190 0.910000 -0.253290
v 0.501990 0.910000 -0.203130
v 0.599810 1.030000 -0.000000
v 0.501990 1.030000 0.203130
v 0.282190 1.030000 0.253290
v 0.105920 1.030000 0.112730
v 0.105920 1.030000 -0.112730
v 0.282190 1.030000 -0.253290
v 0.501990 1.030000 -0.203130
v 0.340000 1.090000 -0.000000
v 0.000000 0.137110 -0.046980
v 0.211990 0.867110 0.218840
v -0.041770 0.139260 -0.019590
v 0.170210 0.869260 0.246230
v -0.041770 0.122160 0.027390
v 0.170210 0.852160 0.293210
v 0.000000 0.102890 0.046980
v 0.211990 0.832890 0.312800
v 0.041770 0.100740 0.019590
v 0.253760 0.830740 0.285410
v 0.041770 0.117840 -0.027390
v 0.253760 0.847840 0.238430
v 0.211990 0.850000 0.265820
v 0.471790 0.910000 0.265820
v 0.373970 0.910000 0.468950
v 0.154170 0.910000 0.519120
v -0.022090 0.910000 0.378550
v -0.022090 0.910000 0.153100
v 0.154170 0.910000 0.012530
v 0.373970 0.910000 0.062700
v 0.471790 1.030000 0.265820
v 0.373970 1.030000 0.468950
v 0.154170 1.030000 0.519120
v -0.022090 1.030000 0.378550
v -0.022090 1.030000 0.153100
v 0.154170 1.030000 0.012530
v 0.373970 1.030000 0.062700
v 0.211990 1.090000 0.265820
v 0.000000 0.140670 -0.045530
v -0.075660 0.870670 0.285950
v -0.043110 0.126630 -0.024450
v -0.118770 0.856630 0.307030
v -0.043110 0.105960 0.021080
v -0.118770 0.835960 0.352560
v 0.000000 0.099330 0.045530
v -0.075660 0.829330 0.377000
v 0.043110 0.113370 0.024450
v -0.032550 0.843370 0.355920
v 0.043110 0.134040 -0.021080
v -0.032550 0.864040 0.310390
v -0.075660 0.850000 0.331480
v 0.184150 0.910000 0.331480
v 0.086330 0.910000 0.534600
v -0.133470 0.910000 0.584770
v -0.309740 0.910000 0.444200
v -0.309740 0.910000 0.218750
v -0.133470 0.910000 0.078180
v 0.086330 0.910000 0.128350
v 0.184150 1.030000 0.331480
v 0.086330 1.030000 0.534600
v -0.133470 1.030000 0.584770
v -0.309740 1.030000 0.444200
v -0.309740 1.030000 0.218750
v -0.133470 1.030000 0.078180
v 0.086330 1.030000 0.128350
v -0.075660 1.090000 0.331480
v 0.000000 0.129900 -0.049010
v -0.306330 0.859900 0.098510
v -0.040050 0.108810 -0.027770
v -0.346380 0.838810 0.119750
v -0.040050 0.098900 0.021240
v -0.346380 0.828900 0.168760
v 0.000000 0.110100 0.049010
v -0.306330 0.840100 0.196530
v 0.040050 0.131190 0.027770
v -0.266280 0.861190 0.175290
v 0.040050 0.141100 -0.021240
v -0.266280 0.871100 0.126280
v -0.306330 0.850000 0.147520
v -0.046520 0.910000 0.147520
v -0.144340 0.910000 0.350650
v -0.364140 0.910000 0.400810
v -0.540410 0.910000 0.260250
v -0.540410 0.910000 0.034790
v -0.364140 0.910000 -0.105770
v -0.144340 0.910000 -0.055610
v -0.046520 1.030000 0.147520
v -0.144340 1.030000 0.350650
v -0.364140 1.030000 0.400810
v -0.540410 1.030000 0.260250
v -0.540410 1.030000 0.034790
v -0.364140 1.030000 -0.105770
v -0.144340 1.030000 -0.055610
v -0.306330 1.090000 0.147520
v 0.000000 0.110100 -0.049010
v -0.306330 0.840100 -0.196530
v -0.040050 0.098900 -0.021240
v -0.346380 0.828900 -0.168760
v -0.040050 0.108810 0.027770
v -0.346380 0.838810 -0.119750
v 0.000000 0.129900 0.049010
v -0.306330 0.859900 -0.098510
v 0.040050 0.141100 0.021240
v -0.266280 0.871100 -0.126280
v 0.040050 0.131190 -0.027770
v -0.266280 0.861190 -0.175290
v -0.306330 0.850000 -0.147520
v -0.046520 0.910000 -0.147520
v -0.144340 0.910000 0.055610
v -0.364140 0.910000 0.105770
v -0.540410 0.910000 -0.034790
v -0.540410 0.910000 -0.260250
v -0.364140 0.910000 -0.400810
v -0.144340 0.910000 -0.350650
v -0.046520 1.030000 -0.147520
v -0.144340 1.030000 0.055610
v -0.364140 1.030000 0.105770
v -0.540410 1.030000 -0.034790
v -0.540410 1.030000 -0.260250
v -0.364140 1.030000 -0.400810
v -0.144340 1.030000 -0.350650
v -0.306330 1.090000 -0.147520
v 0.000000 0.099330 -0.045530
v -0.075660 0.829330 -0.377000
v -0.043110 0.105960 -0.021080
v -0.118770 0.835960 -0.352560
v -0.043110 0.126630 0.024450
v -0.118770 0.856630 -0.307030
v 0.000000 0.140670 0.045530
v -0.075660 0.870670 -0.285950
v 0.043110 0.134040 0.021080
v -0.032550 0.864040 -0.310390
v 0.043110 0.113370 -0.024450
v -0.032550 0.843370 -0.355920
v -0.075660 0.850000 -0.331480
v 0.184150 0.910000 -0.331480
v 0.086330 0.910000 -0.128350
v -0.133470 0.910000 -0.078180
v -0.309740 0.910000 -0.218750
v -0.309740 0.910000 -0.444200
v -0.133470 0.910000 -0.584770
v 0.086330 0.910000 -0.534600
v 0.184150 1.030000 -0.331480
v 0.086330 1.030000 -0.128350
v -0.133470 1.030000 -0.078180
v -0.309740 1.030000 -0.218750
v -0.309740 1.030000 -0.444200
v -0.133470 1.030000 -0.584770
v 0.086330 1.030000 -0.534600
v -0.075660 1.090000 -0.331480
v 0.000000 0.102890 -0.046980
v 0.211990 0.832890 -0.312800
v -0.041770 0.122160 -0.027390
v 0.170210 0.852160 -0.293210
v -0.041770 0.139260 0.019590
v 0.170210 0.869260 -0.246230
v 0.000000 0.137110 0.046980
v 0.211990 0.867110 -0.218840
v 0.041770 0.117840 0.027390
v 0.253760 0.847840 -0.238430
v 0.041770 0.100740 -0.019590
v 0.253760 0.830740 -0.285410
v 0.211990 0.850000 -0.265820
v 0.471790 0.910000 -0.265820
v 0.373970 0.910000 -0.062700
v 0.154170 0.910000 -0.012530
v -0.022090 0.910000 -0.153100
v -0.022090 0.910000 -0.378550
v 0.154170 0.910000 -0.519120
v 0.373970 0.910000 -0.468950
v 0.471790 1.030000 -0.265820
v 0.373970 1.030000 -0.062700
v 0.154170 1.030000 -0.012530
v -0.022090 1.030000 -0.153100
v -0.022090 1.030000 -0.378550
v 0.154170 1.030000 -0.519120
v 0.373970 1.030000 -0.468950
v 0.211990 1.090000 -0.265820
vn -0.0000 -1.0000 -0.0000
vn 0.8219 -0.5696 -0.0000
vn 0.5812 -0.5696 0.5812
vn -0.0000 -0.5696 0.8219
vn -0.5812 -0.5696 0.5812
vn -0.8219 -0.5696 -0.0000
vn -0.5812 -0.5696 -0.5812
vn -0.0000 -0.5696 -0.8219
vn 0.5812 -0.5696 -0.5812
vn 0.8219 0.5696 -0.0000
vn 0.5812 0.5696 0.5812
vn -0.0000 0.5696 0.8219
vn -0.5812 0.5696 0.5812
vn -0.8219 0.5696 -0.0000
vn -0.5812 0.5696 -0.5812
vn -0.0000 0.5696 -0.8219
vn 0.5812 0.5696 -0.5812
vn -0.0000 1.0000 -0.0000
vn -0.2575 -0.5530 -0.7924
vn 0.2575 0.5530 -0.7924
vn -0.8796 -0.2632 -0.3962
vn -0.3646 0.8427 -0.3962
vn -0.8796 -0.2632 0.3962
vn -0.3645 0.8427 0.3962
vn -0.2575 -0.5530 0.7924
vn 0.2575 0.5530 0.7924
vn 0.3646 -0.8427 0.3962
vn 0.8796 0.2632 0.3962
vn 0.3646 -0.8427 -0.3962
vn 0.8796 0.2632 -0.3962
vn 0.8352 -0.5499 -0.0000
vn 0.5208 -0.5499 0.6530
vn -0.1859 -0.5499 0.8143
vn -0.7525 -0.5499 0.3624
vn -0.7525 -0.5499 -0.3624
vn -0.1859 -0.5499 -0.8143
vn 0.5208 -0.5499 -0.6530
vn 0.8352 0.5499 -0.0000
vn 0.5208 0.5499 0.6530
vn -0.1859 0.5499 0.8143
vn -0.7525 0.5499 0.3624
vn -0.7525 0.5499 -0.3624
vn -0.1859 0.5499 -0.8143
vn 0.5208 0.5499 -0.6530
vn -0.1606 -0.2818 -0.9459
vn 0.1606 0.8242 -0.5431
vn -0.8226 -0.2478 -0.5118
vn -0.5015 0.8583 -0.1092
vn -0.8226 -0.5187 0.2327
vn -0.5014 0.5872 0.6354
vn -0.1606 -0.8242 0.5431
vn 0.1606 0.2818 0.9459
vn 0.5015 -0.8583 0.1091
vn 0.8226 0.2478 0.5118
vn 0.5014 -0.5873 -0.6354
vn 0.8226 0.5188 -0.2327
vn 0.0574 -0.2254 -0.9726
vn -0.0573 0.8806 -0.4704
vn -0.6259 -0.4479 -0.6385
vn -0.7405 0.6581 -0.1364
vn -0.6259 -0.7755 0.0830
vn -0.7405 0.3305 0.5852
vn 0.0573 -0.8806 0.4705
vn -0.0573 0.2254 0.9726
vn 0.7405 -0.6580 0.1364
vn 0.6259 0.4479 0.6385
vn 0.7405 -0.3305 -0.5851
vn 0.6259 0.7755 -0.0831
vn 0.2320 -0.3960 -0.8884
vn -0.2320 0.7098 -0.6651
vn -0.4027 -0.7303 -0.5519
vn -0.8667 0.3756 -0.3284
vn -0.4026 -0.8873 0.2249
vn -0.8667 0.2185 0.4484
vn 0.2320 -0.7098 0.6651
vn -0.2320 0.3960 0.8884
vn 0.8667 -0.3756 0.3284
vn 0.4027 0.7303 0.5519
vn 0.8667 -0.2185 -0.4484
vn 0.4026 0.8873 -0.2249
vn 0.2320 -0.7099 -0.6650
vn -0.2321 0.3961 -0.8884
vn -0.4025 -0.8874 -0.2249
vn -0.8667 0.2186 -0.4484
vn -0.4026 -0.7303 0.5518
vn -0.8666 0.3757 0.3283
vn 0.2321 -0.3961 0.8884
vn -0.2320 0.7099 0.6650
vn 0.8667 -0.2186 0.4484
vn 0.4025 0.8874 0.2249
vn 0.8666 -0.3757 -0.3283
vn 0.4026 0.7303 -0.5518
vn 0.0573 -0.8806 -0.4705
vn -0.0573 0.2254 -0.9726
vn -0.6259 -0.7755 -0.0830
vn -0.7405 0.3304 -0.5852
vn -0.6259 -0.4479 0.6385
vn -0.7405 0.6580 0.1364
vn 0.0574 -0.2254 0.9726
vn -0.0573 0.8806 0.4704
vn 0.7405 -0.3305 0.5851
vn 0.6259 0.7755 0.0831
vn 0.7405 -0.6580 -0.1364
vn 0.6259 0.4479 -0.6385
vn -0.1606 -0.8241 -0.5432
vn 0.1606 0.2817 -0.9460
vn -0.8227 -0.5187 -0.2328
vn -0.5015 0.5871 -0.6355
vn -0.8226 -0.2477 0.5118
vn -0.5016 0.8582 0.1092
vn -0.1606 -0.2817 0.9460
vn 0.1606 0.8241 0.5432
vn 0.5015 -0.5872 0.6354
vn 0.8227 0.5187 0.2328
vn 0.5016 -0.8582 -0.1092
vn 0.8226 0.2477 -0.5118
s 1
usemtl verdant_fibre
f 1//1 2//2 3//3
f 1//1 3//3 4//4
f 1//1 4//4 5//5
f 1//1 5//5 6//6
f 1//1 6//6 7//7
f 1//1 7//7 8//8
f 1//1 8//8 9//9
f 1//1 9//9 2//2
f 10//10 3//3 2//2
f 11//11 4//4 3//3
f 12//12 5//5 4//4
f 13//13 6//6 5//5
f 14//14 7//7 6//6
f 15//15 8//8 7//7
f 16//16 9//9 8//8
f 17//17 2//2 9//9
f 10//10 18//18 11//11
f 11//11 18//18 12//12
f 12//12 18//18 13//13
f 13//13 18//18 14//14
f 14//14 18//18 15//15
f 15//15 18//18 16//16
f 16//16 18//18 17//17
f 17//17 18//18 10//10
f 27//27 23//23 19//19
f 22//22 26//26 30//30
f 19//19 22//22 20//20
f 23//23 22//22 21//21
f 25//25 24//24 23//23
f 27//27 26//26 25//25
f 29//29 28//28 27//27
f 29//29 20//20 30//30
f 55//53 51//49 47//45
f 50//48 54//52 58//56
f 47//45 50//48 48//46
f 51//49 50//48 49//47
f 51//49 54//52 52//50
f 55//53 54//52 53//51
f 55//53 58//56 56//54
f 47//45 58//56 57//55
f 83//65 79//61 75//57
f 78//60 82//64 86//68
f 77//59 76//58 75//57
f 79//61 78//60 77//59
f 81//63 80//62 79//61
f 81//63 84//66 82//64
f 83//65 86//68 84//66
f 85//67 76//58 86//68
f 111//77 107//73 103//69
f 106//72 110//76 114//80
f 105//71 104//70 103//69
f 105//71 108//74 106//72
f 109//75 108//74 107//73
f 109//75 112//78 110//76
f 113//79 112//78 111//77
f 113//79 104//70 114//80
f 139//89 135//85 131//81
f 134//84 138//88 142//92
f 131//81 134//84 132//82
f 135//85 134//84 133//83
f 135//85 138//88 136//86
f 139//89 138//88 137//87
f 139//89 142//92 140//90
f 131//81 142//92 141//91
f 167//101 163//97 159//93
f 162//96 166//100 170//104
f 159//93 162//96 160//94
f 161//95 164//98 162//96
f 165//99 164//98 163//97
f 167//101 166//100 165//99
f 169//103 168//102 167//101
f 169//103 160//94 170//104
f 195//113 191//109 187//105
f 190//108 194//112 198//116
f 189//107 188//106 187//105
f 189//107 192//110 190//108
f 193//111 192//110 191//109
f 193//111 196//114 194//112
f 197//115 196//114 195//113
f 197//115 188//106 198//116
f 10//10 11//11 3//3
f 11//11 12//12 4//4
f 12//12 13//13 5//5
f 13//13 14//14 6//6
f 14//14 15//15 7//7
f 15//15 16//16 8//8
f 16//16 17//17 9//9
f 17//17 10//10 2//2
f 19//19 29//29 27//27
f 27//27 25//25 23//23
f 23//23 21//21 19//19
f 30//30 20//20 22//22
f 22//22 24//24 26//26
f 26//26 28//28 30//30
f 19//19 21//21 22//22
f 23//23 24//24 22//22
f 25//25 26//26 24//24
f 27//27 28//28 26//26
f 29//29 30//30 28//28
f 29//29 19//19 20//20
f 47//45 57//55 55//53
f 55//53 53//51 51//49
f 51//49 49//47 47//45
f 58//56 48//46 50//48
f 50//48 52//50 54//52
f 54//52 56//54 58//56
f 47//45 49//47 50//48
f 51//49 52//50 50//48
f 51//49 53//51 54//52
f 55//53 56//54 54//52
f 55//53 57//55 58//56
f 47//45 48//46 58//56
f 75//57 85//67 83//65
f 83//65 81//63 79//61
f 79//61 77//59 75//57
f 86//68 76//58 78//60
f 78//60 80//62 82//64
f 82//64 84//66 86//68
f 77//59 78//60 76//58
f 79//61 80//62 78//60
f 81//63 82//64 80//62
f 81//63 83//65 84//66
f 83//65 85//67 86//68
f 85//67 75//57 76//58
f 103//69 113//79 111//77
f 111//77 109//75 107//73
f 107//73 105//71 103//69
f 114//80 104//70 106//72
f 106//72 108//74 110//76
f 110//76 112//78 114//80
f 105//71 106//72 104//70
f 105//71 107//73 108//74
f 109//75 110//76 108//74
f 109//75 111//77 112//78
f 113//79 114//80 112//78
f 113//79 103//69 104//70
f 131//81 141//91 139//89
f 139//89 137//87 135//85
f 135//85 133//83 131//81
f 142//92 132//82 134//84
f 134//84 136//86 138//88
f 138//88 140//90 142//92
f 131//81 133//83 134//84
f 135//85 136//86 134//84
f 135//85 137//87 138//88
f 139//89 140//90 138//88
f 139//89 141//91 142//92
f 131//81 132//82 142//92
f 159//93 169//103 167//101
f 167//101 165//99 163//97
f 163//97 161//95 159//93
f 170//104 160//94 162//96
f 162//96 164//98 166//100
f 166//100 168//102 170//104
f 159//93 161//95 162//96
f 161//95 163//97 164//98
f 165//99 166//100 164//98
f 167//101 168//102 166//100
f 169//103 170//104 168//102
f 169//103 159//93 160//94
f 187//105 197//115 195//113
f 195//113 193//111 191//109
f 191//109 189//107 187//105
f 198//116 188//106 190//108
f 190//108 192//110 194//112
f 194//112 196//114 198//116
f 189//107 190//108 188//106
f 189//107 191//109 192//110
f 193//111 194//112 192//110
f 193//111 195//113 196//114
f 197//115 198//116 196//114
f 197//115 187//105 188//106
usemtl verdant_membrane
f 31//1 32//31 33//32
f 31//1 33//32 34//33
f 31//1 34//33 35//34
f 31//1 35//34 36//35
f 31//1 36//35 37//36
f 31//1 37//36 38//37
f 31//1 38//37 32//31
f 39//38 33//32 32//31
f 40//39 34//33 33//32
f 41//40 35//34 34//33
f 42//41 36//35 35//34
f 43//42 37//36 36//35
f 44//43 38//37 37//36
f 45//44 32//31 38//37
f 39//38 46//18 40//39
f 40//39 46//18 41//40
f 41//40 46//18 42//41
f 42//41 46//18 43//42
f 43//42 46//18 44//43
f 44//43 46//18 45//44
f 45//44 46//18 39//38
f 59//1 60//31 61//32
f 59//1 61//32 62//33
f 59//1 62//33 63//34
f 59//1 63//34 64//35
f 59//1 64//35 65//36
f 59//1 65//36 66//37
f 59//1 66//37 60//31
f 67//38 61//32 60//31
f 68//39 62//33 61//32
f 69//40 63//34 62//33
f 70//41 64//35 63//34
f 71//42 65//36 64//35
f 72//43 66//37 65//36
f 73//44 60//31 66//37
f 67//38 74//18 68//39
f 68//39 74//18 69//40
f 69//40 74//18 70//41
f 70//41 74//18 71//42
f 71//42 74//18 72//43
f 72//43 74//18 73//44
f 73//44 74//18 67//38
f 87//1 88//31 89//32
f 87//1 89//32 90//33
f 87//1 90//33 91//34
f 87//1 91//34 92//35
f 87//1 92//35 93//36
f 87//1 93//36 94//37
f 87//1 94//37 88//31
f 95//38 89//32 88//31
f 96//39 90//33 89//32
f 97//40 91//34 90//33
f 98//41 92//35 91//34
f 99//42 93//36 92//35
f 100//43 94//37 93//36
f 101//44 88//31 94//37
f 95//38 102//18 96//39
f 96//39 102//18 97//40
f 97//40 102//18 98//41
f 98//41 102//18 99//42
f 99//42 102//18 100//43
f 100//43 102//18 101//44
f 101//44 102//18 95//38
f 115//1 116//31 117//32
f 115//1 117//32 118//33
f 115//1 118//33 119//34
f 115//1 119//34 120//35
f 115//1 120//35 121//36
f 115//1 121//36 122//37
f 115//1 122//37 116//31
f 123//38 117//32 116//31
f 124//39 118//33 117//32
f 125//40 119//34 118//33
f 126//41 120//35 119//34
f 127//42 121//36 120//35
f 128//43 122//37 121//36
f 129//44 116//31 122//37
f 123//38 130//18 124//39
f 124//39 130//18 125//40
f 125//40 130//18 126//41
f 126//41 130//18 127//42
f 127//42 130//18 128//43
f 128//43 130//18 129//44
f 129//44 130//18 123//38
f 143//1 144//31 145//32
f 143//1 145//32 146//33
f 143//1 146//33 147//34
f 143//1 147//34 148//35
f 143//1 148//35 149//36
f 143//1 149//36 150//37
f 143//1 150//37 144//31
f 151//38 145//32 144//31
f 152//39 146//33 145//32
f 153//40 147//34 146//33
f 154//41 148//35 147//34
f 155//42 149//36 148//35
f 156//43 150//37 149//36
f 157//44 144//31 150//37
f 151//38 158//18 152//39
f 152//39 158//18 153//40
f 153//40 158//18 154//41
f 154//41 158//18 155//42
f 155//42 158//18 156//43
f 156//43 158//18 157//44
f 157//44 158//18 151//38
f 171//1 172//31 173//32
f 171//1 173//32 174//33
f 171//1 174//33 175//34
f 171//1 175//34 176//35
f 171//1 176//35 177//36
f 171//1 177//36 178//37
f 171//1 178//37 172//31
f 179//38 173//32 172//31
f 180//39 174//33 173//32
f 181//40 175//34 174//33
f 182//41 176//35 175//34
f 183//42 177//36 176//35
f 184//43 178//37 177//36
f 185//44 172//31 178//37
f 179//38 186//18 180//39
f 180//39 186//18 181//40
f 181//40 186//18 182//41
f 182//41 186//18 183//42
f 183//42 186//18 184//43
f 184//43 186//18 185//44
f 185//44 186//18 179//38
f 199//1 200//31 201//32
f 199//1 201//32 202//33
f 199//1 202//33 203//34
f 199//1 203//34 204//35
f 199//1 204//35 205//36
f 199//1 205//36 206//37
f 199//1 206//37 200//31
f 207//38 201//32 200//31
f 208//39 202//33 201//32
f 209//40 203//34 202//33
f 210//41 204//35 203//34
f 211//42 205//36 204//35
f 212//43 206//37 205//36
f 213//44 200//31 206//37
f 207//38 214//18 208//39
f 208//39 214//18 209//40
f 209//40 214//18 210//41
f 210//41 214//18 211//42
f 211//42 214//18 212//43
f 212//43 214//18 213//44
f 213//44 214//18 207//38
f 39//38 40//39 33//32
f 40//39 41//40 34//33
f 41//40 42//41 35//34
f 42//41 43//42 36//35
f 43//42 44//43 37//36
f 44//43 45//44 38//37
f 45//44 39//38 32//31
f 67//38 68//39 61//32
f 68//39 69//40 62//33
f 69//40 70//41 63//34
f 70//41 71//42 64//35
f 71//42 72//43 65//36
f 72//43 73//44 66//37
f 73//44 67//38 60//31
f 95//38 96//39 89//32
f 96//39 97//40 90//33
f 97//40 98//41 91//34
f 98//41 99//42 92//35
f 99//42 100//43 93//36
f 100//43 101//44 94//37
f 101//44 95//38 88//31
f 123//38 124//39 117//32
f 124//39 125//40 118//33
f 125//40 126//41 119//34
f 126//41 127//42 120//35
f 127//42 128//43 121//36
f 128//43 129//44 122//37
f 129//44 123//38 116//31
f 151//38 152//39 145//32
f 152//39 153//40 146//33
f 153//40 154//41 147//34
f 154//41 155//42 148//35
f 155//42 156//43 149//36
f 156//43 157//44 150//37
f 157//44 151//38 144//31
f 179//38 180//39 173//32
f 180//39 181//40 174//33
f 181//40 182//41 175//34
f 182//41 183//42 176//35
f 183//42 184//43 177//36
f 184//43 185//44 178//37
f 185//44 179//38 172//31
f 207//38 208//39 201//32
f 208//39 209//40 202//33
f 209//40 210//41 203//34
f 210//41 211//42 204//35
f 211//42 212//43 205//36
f 212//43 213//44 206//37
f 213//44 207//38 200//31
