# Blender 5.2.1 LTS
# www.blender.org
mtllib plant_branch_b.mtl
o plant_branch_b
v 0.000000 0.110000 -0.110000
v 0.000000 2.100000 -0.110000
v -0.086000 0.110000 -0.068580
v -0.086000 2.100000 -0.068580
v -0.107240 0.110000 0.024480
v -0.107240 2.100000 0.024480
v -0.047730 0.110000 0.099110
v -0.047730 2.100000 0.099110
v 0.047730 0.110000 0.099110
v 0.047730 2.100000 0.099110
v 0.107240 0.110000 0.024480
v 0.107240 2.100000 0.024480
v 0.086000 0.110000 -0.068580
v 0.086000 2.100000 -0.068580
v 0.000000 0.350000 0.070000
v 0.450000 0.670000 0.070000
v 0.035130 0.300600 0.035000
v 0.485130 0.620600 0.035000
v 0.035130 0.300600 -0.035000
v 0.485130 0.620600 -0.035000
v 0.000000 0.350000 -0.070000
v 0.450000 0.670000 -0.070000
v -0.035130 0.399400 -0.035000
v 0.414870 0.719400 -0.035000
v -0.035130 0.399400 0.035000
v 0.414870 0.719400 0.035000
v 0.450000 0.670000 -0.000000
v 0.588560 0.770000 -0.000000
v 0.519280 0.770000 0.060000
v 0.380720 0.770000 0.060000
v 0.311440 0.770000 -0.000000
v 0.380720 0.770000 -0.060000
v 0.519280 0.770000 -0.060000
v 0.588560 0.970000 -0.000000
v 0.519280 0.970000 0.060000
v 0.380720 0.970000 0.060000
v 0.311440 0.970000 -0.000000
v 0.380720 0.970000 -0.060000
v 0.519280 0.970000 -0.060000
v 0.450000 1.070000 -0.000000
v -0.012870 0.581000 -0.068810
v -0.552870 0.901000 0.032170
v -0.036430 0.528620 -0.028800
v -0.576430 0.848620 0.072180
v -0.023560 0.528620 0.040010
v -0.563560 0.848620 0.140990
v 0.012870 0.581000 0.068810
v -0.527130 0.901000 0.169780
v 0.036430 0.633380 0.028800
v -0.503570 0.953380 0.129770
v 0.023560 0.633380 -0.040010
v -0.516440 0.953380 0.060960
v -0.540000 0.901000 0.100980
v -0.401440 1.001000 0.100980
v -0.470720 1.001000 0.160980
v -0.609280 1.001000 0.160980
v -0.678560 1.001000 0.100980
v -0.609280 1.001000 0.040980
v -0.470720 1.001000 0.040980
v -0.401440 1.201000 0.100980
v -0.470720 1.201000 0.160980
v -0.609280 1.201000 0.160980
v -0.678560 1.201000 0.100980
v -0.609280 1.201000 0.040980
v -0.470720 1.201000 0.040980
v -0.540000 1.301000 0.100980
v -0.011950 0.812000 0.068970
v 0.618050 1.132000 0.178090
v 0.020760 0.757790 0.039120
v 0.650760 1.077790 0.148230
v 0.032710 0.757790 -0.029860
v 0.662710 1.077790 0.079260
v 0.011950 0.812000 -0.068970
v 0.641950 1.132000 0.040140
v -0.020760 0.866210 -0.039120
v 0.609240 1.186210 0.070000
v -0.032710 0.866210 0.029860
v 0.597290 1.186210 0.138970
v 0.630000 1.132000 0.109120
v 0.768560 1.232000 0.109120
v 0.699280 1.232000 0.169120
v 0.560720 1.232000 0.169120
v 0.491440 1.232000 0.109120
v 0.560720 1.232000 0.049120
v 0.699280 1.232000 0.049120
v 0.768560 1.432000 0.109120
v 0.699280 1.432000 0.169120
v 0.560720 1.432000 0.169120
v 0.491440 1.432000 0.109120
v 0.560720 1.432000 0.049120
v 0.699280 1.432000 0.049120
v 0.630000 1.532000 0.109120
v -0.001650 1.043000 -0.069980
v -0.721650 1.363000 -0.053050
v -0.025430 0.987600 -0.034410
v -0.745430 1.307600 -0.017480
v -0.023790 0.987600 0.035570
v -0.743790 1.307600 0.052500
v 0.001650 1.043000 0.069980
v -0.718350 1.363000 0.086920
v 0.025430 1.098400 0.034410
v -0.694570 1.418400 0.051350
v 0.023790 1.098400 -0.035570
v -0.696210 1.418400 -0.018630
v -0.720000 1.363000 0.016930
v -0.581440 1.463000 0.016930
v -0.650720 1.463000 0.076930
v -0.789280 1.463000 0.076930
v -0.858560 1.463000 0.016930
v -0.789280 1.463000 -0.043070
v -0.650720 1.463000 -0.043070
v -0.581440 1.663000 0.016930
v -0.650720 1.663000 0.076930
v -0.789280 1.663000 0.076930
v -0.858560 1.663000 0.016930
v -0.789280 1.663000 -0.043070
v -0.650720 1.663000 -0.043070
v -0.720000 1.763000 0.016930
v 0.007800 1.274000 0.069560
v 0.817800 1.594000 -0.021250
v 0.025920 1.217570 0.032310
v 0.835920 1.537570 -0.058500
v 0.018120 1.217570 -0.037250
v 0.828120 1.537570 -0.128070
v -0.007800 1.274000 -0.069560
v 0.802200 1.594000 -0.160380
v -0.025920 1.330430 -0.032310
v 0.784080 1.650430 -0.123130
v -0.018120 1.330430 0.037250
v 0.791880 1.650430 -0.053570
v 0.810000 1.594000 -0.090820
v 0.948560 1.694000 -0.090820
v 0.879280 1.694000 -0.030820
v 0.740720 1.694000 -0.030820
v 0.671440 1.694000 -0.090820
v 0.740720 1.694000 -0.150820
v 0.879280 1.694000 -0.150820
v 0.948560 1.894000 -0.090820
v 0.879280 1.894000 -0.030820
v 0.740720 1.894000 -0.030820
v 0.671440 1.894000 -0.090820
v 0.740720 1.894000 -0.150820
v 0.879280 1.894000 -0.150820
v 0.810000 1.994000 -0.090820
v 0.008880 1.505000 -0.069430
v -0.891120 1.825000 -0.184510
v -0.015560 1.447830 -0.037270
v -0.915560 1.767830 -0.152350
v -0.024440 1.447830 0.032160
v -0.924440 1.767830 -0.082910
v -0.008880 1.505000 0.069430
v -0.908880 1.825000 -0.045640
v 0.015560 1.562170 0.037270
v -0.884440 1.882170 -0.077800
v 0.024440 1.562170 -0.032160
v -0.875560 1.882170 -0.147230
v -0.900000 1.825000 -0.115070
v -0.761440 1.925000 -0.115070
v -0.830720 1.925000 -0.055070
v -0.969280 1.925000 -0.055070
v -1.038560 1.925000 -0.115070
v -0.969280 1.925000 -0.175070
v -0.830720 1.925000 -0.175070
v -0.761440 2.125000 -0.115070
v -0.830720 2.125000 -0.055070
v -0.969280 2.125000 -0.055070
v -1.038560 2.125000 -0.115070
v -0.969280 2.125000 -0.175070
v -0.830720 2.125000 -0.175070
v -0.900000 2.225000 -0.115070
vn -0.0000 -0.6212 -0.7836
vn -0.0000 0.6212 -0.7836
vn -0.6127 -0.6213 -0.4886
vn -0.6127 0.6212 -0.4886
vn -0.7640 -0.6212 0.1744
vn -0.7640 0.6212 0.1744
vn -0.3400 -0.6212 0.7060
vn -0.3400 0.6212 0.7060
vn 0.3400 -0.6212 0.7060
vn 0.3400 0.6212 0.7060
vn 0.7640 -0.6212 0.1744
vn 0.7640 0.6213 0.1744
vn 0.6127 -0.6212 -0.4886
vn 0.6127 0.6212 -0.4886
vn -0.4971 -0.3535 0.7924
vn 0.4971 0.3535 0.7924
vn -0.0994 -0.9128 0.3962
vn 0.8948 -0.2058 0.3962
vn -0.0994 -0.9128 -0.3962
vn 0.8948 -0.2057 -0.3962
vn -0.4971 -0.3535 -0.7924
vn 0.4971 0.3535 -0.7924
vn -0.8948 0.2058 -0.3962
vn 0.0994 0.9128 -0.3962
vn -0.8948 0.2057 0.3962
vn 0.0994 0.9128 0.3962
vn -0.0000 -1.0000 -0.0000
vn 0.9232 -0.3844 -0.0000
vn 0.3530 -0.3176 0.8800
vn -0.3530 -0.3176 0.8801
vn -0.9232 -0.3844 -0.0000
vn -0.3530 -0.3176 -0.8800
vn 0.3530 -0.3176 -0.8801
vn 0.9232 0.3844 -0.0000
vn 0.3530 0.3176 0.8801
vn -0.3530 0.3176 0.8800
vn -0.9232 0.3844 -0.0000
vn -0.3530 0.3176 -0.8801
vn 0.3530 0.3176 -0.8800
vn -0.0000 1.0000 -0.0000
vn 0.3724 -0.3070 -0.8758
vn -0.6638 0.3070 -0.6820
vn 0.1057 -0.9000 -0.4229
vn -0.9305 -0.2859 -0.2291
vn 0.2514 -0.9000 0.3560
vn -0.7848 -0.2859 0.5499
vn 0.6637 -0.3071 0.6820
vn -0.3724 0.3070 0.8758
vn 0.9305 0.2859 0.2291
vn -0.1057 0.9000 0.4228
vn 0.7848 0.2859 -0.5498
vn -0.2514 0.9000 -0.3561
vn -0.6727 -0.2730 0.6877
vn 0.4022 0.2730 0.8739
vn -0.3025 -0.8867 0.3497
vn 0.7725 -0.3407 0.5359
vn -0.1672 -0.8867 -0.4311
vn 0.9077 -0.3407 -0.2448
vn -0.4022 -0.2730 -0.8739
vn 0.6727 0.2730 -0.6877
vn -0.7725 0.3407 -0.5359
vn 0.3025 0.8867 -0.3497
vn -0.9077 0.3407 0.2449
vn 0.1672 0.8867 0.4311
vn -0.3530 -0.3176 -0.8801
vn 0.5386 -0.2477 -0.8053
vn -0.5760 0.2477 -0.7790
vn 0.2695 -0.8748 -0.4026
vn -0.8452 -0.3794 -0.3764
vn 0.2880 -0.8748 0.3895
vn -0.8266 -0.3794 0.4157
vn 0.5760 -0.2477 0.7790
vn -0.5386 0.2477 0.8053
vn 0.8452 0.3794 0.3764
vn -0.2695 0.8748 0.4026
vn 0.8266 0.3794 -0.4157
vn -0.2880 0.8748 -0.3895
vn 0.3530 0.3176 -0.8801
vn -0.4760 -0.2229 0.8507
vn 0.6525 0.2230 0.7242
vn -0.2709 -0.8617 0.4291
vn 0.8576 -0.4158 0.3025
vn -0.3592 -0.8617 -0.3584
vn 0.7694 -0.4158 -0.4850
vn -0.6526 -0.2229 -0.7242
vn 0.4760 0.2229 -0.8507
vn -0.8576 0.4158 -0.3025
vn 0.2709 0.8617 -0.4291
vn -0.7693 0.4158 0.4850
vn 0.3592 0.8617 0.3584
vn -0.3530 0.3176 0.8801
vn 0.6711 -0.2029 -0.7130
vn -0.4701 0.2029 -0.8590
vn 0.3945 -0.8501 -0.3490
vn -0.7468 -0.4443 -0.4949
vn 0.2939 -0.8501 0.4370
vn -0.8473 -0.4443 0.2911
vn 0.4701 -0.2029 0.8590
vn -0.6711 0.2029 0.7130
vn 0.7468 0.4443 0.4949
vn -0.3945 0.8501 0.3490
vn 0.8473 0.4443 -0.2911
vn -0.2940 0.8501 -0.4370
vn 0.3530 -0.3176 0.8801
s 1
usemtl verdant_fibre
f 11//11 7//7 3//3
f 4//4 8//8 12//12
f 3//3 2//2 1//1
f 5//5 4//4 3//3
f 7//7 6//6 5//5
f 9//9 8//8 7//7
f 11//11 10//10 9//9
f 13//13 12//12 11//11
f 1//1 14//14 13//13
f 23//23 19//19 15//15
f 18//18 22//22 26//26
f 17//17 16//16 15//15
f 19//19 18//18 17//17
f 19//19 22//22 20//20
f 21//21 24//24 22//22
f 25//25 24//24 23//23
f 15//15 26//26 25//25
f 49//49 45//45 41//41
f 44//44 48//48 52//52
f 43//43 42//42 41//41
f 43//43 46//46 44//44
f 45//45 48//48 46//46
f 47//47 50//50 48//48
f 51//51 50//50 49//49
f 41//41 52//52 51//51
f 75//61 71//57 67//53
f 70//56 74//60 78//64
f 69//55 68//54 67//53
f 71//57 70//56 69//55
f 73//59 72//58 71//57
f 73//59 76//62 74//60
f 75//61 78//64 76//62
f 77//63 68//54 78//64
f 101//74 97//70 93//66
f 96//69 100//73 104//77
f 93//66 96//69 94//67
f 97//70 96//69 95//68
f 97//70 100//73 98//71
f 101//74 100//73 99//72
f 101//74 104//77 102//75
f 93//66 104//77 103//76
f 127//87 123//83 119//79
f 122//82 126//86 130//90
f 121//81 120//80 119//79
f 121//81 124//84 122//82
f 123//83 126//86 124//84
f 125//85 128//88 126//86
f 129//89 128//88 127//87
f 119//79 130//90 129//89
f 153//100 149//96 145//92
f 148//95 152//99 156//103
f 147//94 146//93 145//92
f 149//96 148//95 147//94
f 151//98 150//97 149//96
f 151//98 154//101 152//99
f 153//100 156//103 154//101
f 155//102 146//93 156//103
f 1//1 13//13 11//11
f 11//11 9//9 7//7
f 7//7 5//5 3//3
f 3//3 1//1 11//11
f 14//14 2//2 4//4
f 4//4 6//6 8//8
f 8//8 10//10 12//12
f 12//12 14//14 4//4
f 3//3 4//4 2//2
f 5//5 6//6 4//4
f 7//7 8//8 6//6
f 9//9 10//10 8//8
f 11//11 12//12 10//10
f 13//13 14//14 12//12
f 1//1 2//2 14//14
f 15//15 25//25 23//23
f 23//23 21//21 19//19
f 19//19 17//17 15//15
f 26//26 16//16 18//18
f 18//18 20//20 22//22
f 22//22 24//24 26//26
f 17//17 18//18 16//16
f 19//19 20//20 18//18
f 19//19 21//21 22//22
f 21//21 23//23 24//24
f 25//25 26//26 24//24
f 15//15 16//16 26//26
f 41//41 51//51 49//49
f 49//49 47//47 45//45
f 45//45 43//43 41//41
f 52//52 42//42 44//44
f 44//44 46//46 48//48
f 48//48 50//50 52//52
f 43//43 44//44 42//42
f 43//43 45//45 46//46
f 45//45 47//47 48//48
f 47//47 49//49 50//50
f 51//51 52//52 50//50
f 41//41 42//42 52//52
f 67//53 77//63 75//61
f 75//61 73//59 71//57
f 71//57 69//55 67//53
f 78//64 68//54 70//56
f 70//56 72//58 74//60
f 74//60 76//62 78//64
f 69//55 70//56 68//54
f 71//57 72//58 70//56
f 73//59 74//60 72//58
f 73//59 75//61 76//62
f 75//61 77//63 78//64
f 77//63 67//53 68//54
f 93//66 103//76 101//74
f 101//74 99//72 97//70
f 97//70 95//68 93//66
f 104//77 94//67 96//69
f 96//69 98//71 100//73
f 100//73 102//75 104//77
f 93//66 95//68 96//69
f 97//70 98//71 96//69
f 97//70 99//72 100//73
f 101//74 102//75 100//73
f 101//74 103//76 104//77
f 93//66 94//67 104//77
f 119//79 129//89 127//87
f 127//87 125//85 123//83
f 123//83 121//81 119//79
f 130//90 120//80 122//82
f 122//82 124//84 126//86
f 126//86 128//88 130//90
f 121//81 122//82 120//80
f 121//81 123//83 124//84
f 123//83 125//85 126//86
f 125//85 127//87 128//88
f 129//89 130//90 128//88
f 119//79 120//80 130//90
f 145//92 155//102 153//100
f 153//100 151//98 149//96
f 149//96 147//94 145//92
f 156//103 146//93 148//95
f 148//95 150//97 152//99
f 152//99 154//101 156//103
f 147//94 148//95 146//93
f 149//96 150//97 148//95
f 151//98 152//99 150//97
f 151//98 153//100 154//101
f 153//100 155//102 156//103
f 155//102 145//92 146//93
usemtl verdant_membrane
f 27//27 28//28 29//29
f 27//27 29//29 30//30
f 27//27 30//30 31//31
f 27//27 31//31 32//32
f 27//27 32//32 33//33
f 27//27 33//33 28//28
f 34//34 29//29 28//28
f 35//35 30//30 29//29
f 36//36 31//31 30//30
f 37//37 32//32 31//31
f 38//38 33//33 32//32
f 39//39 28//28 33//33
f 34//34 40//40 35//35
f 35//35 40//40 36//36
f 36//36 40//40 37//37
f 37//37 40//40 38//38
f 38//38 40//40 39//39
f 39//39 40//40 34//34
f 53//27 54//28 55//29
f 53//27 55//29 56//30
f 53//27 56//30 57//31
f 53//27 57//31 58//32
f 53//27 58//32 59//33
f 53//27 59//33 54//28
f 60//34 55//29 54//28
f 61//35 56//30 55//29
f 62//36 57//31 56//30
f 63//37 58//32 57//31
f 64//38 59//33 58//32
f 65//39 54//28 59//33
f 60//34 66//40 61//35
f 61//35 66//40 62//36
f 62//36 66//40 63//37
f 63//37 66//40 64//38
f 64//38 66//40 65//39
f 65//39 66//40 60//34
f 79//27 80//28 81//29
f 79//27 81//29 82//30
f 79//27 82//30 83//31
f 79//27 83//31 84//65
f 79//27 84//65 85//33
f 79//27 85//33 80//28
f 86//34 81//29 80//28
f 87//35 82//30 81//29
f 88//36 83//31 82//30
f 89//37 84//65 83//31
f 90//38 85//33 84//65
f 91//39 80//28 85//33
f 86//34 92//40 87//35
f 87//35 92//40 88//36
f 88//36 92//40 89//37
f 89//37 92//40 90//38
f 90//38 92//40 91//39
f 91//39 92//40 86//34
f 105//27 106//28 107//29
f 105//27 107//29 108//30
f 105//27 108//30 109//31
f 105//27 109//31 110//32
f 105//27 110//32 111//33
f 105//27 111//33 106//28
f 112//34 107//29 106//28
f 113//35 108//30 107//29
f 114//36 109//31 108//30
f 115//37 110//32 109//31
f 116//38 111//33 110//32
f 117//78 106//28 111//33
f 112//34 118//40 113//35
f 113//35 118//40 114//36
f 114//36 118//40 115//37
f 115//37 118//40 116//38
f 116//38 118//40 117//78
f 117//78 118//40 112//34
f 131//27 132//28 133//29
f 131//27 133//29 134//30
f 131//27 134//30 135//31
f 131//27 135//31 136//32
f 131//27 136//32 137//33
f 131//27 137//33 132//28
f 138//34 133//29 132//28
f 139//35 134//30 133//29
f 140//91 135//31 134//30
f 141//37 136//32 135//31
f 142//38 137//33 136//32
f 143//78 132//28 137//33
f 138//34 144//40 139//35
f 139//35 144//40 140//91
f 140//91 144//40 141//37
f 141//37 144//40 142//38
f 142//38 144//40 143//78
f 143//78 144//40 138//34
f 157//27 158//28 159//104
f 157//27 159//104 160//30
f 157//27 160//30 161//31
f 157//27 161//31 162//32
f 157//27 162//32 163//33
f 157//27 163//33 158//28
f 164//34 159//104 158//28
f 165//35 160//30 159//104
f 166//36 161//31 160//30
f 167//37 162//32 161//31
f 168//38 163//33 162//32
f 169//78 158//28 163//33
f 164//34 170//40 165//35
f 165//35 170//40 166//36
f 166//36 170//40 167//37
f 167//37 170//40 168//38
f 168//38 170//40 169//78
f 169//78 170//40 164//34
f 34//34 35//35 29//29
f 35//35 36//36 30//30
f 36//36 37//37 31//31
f 37//37 38//38 32//32
f 38//38 39//39 33//33
f 39//39 34//34 28//28
f 60//34 61//35 55//29
f 61//35 62//36 56//30
f 62//36 63//37 57//31
f 63//37 64//38 58//32
f 64//38 65//39 59//33
f 65//39 60//34 54//28
f 86//34 87//35 81//29
f 87//35 88//36 82//30
f 88//36 89//37 83//31
f 89//37 90//38 84//65
f 90//38 91//39 85//33
f 91//39 86//34 80//28
f 112//34 113//35 107//29
f 113//35 114//36 108//30
f 114//36 115//37 109//31
f 115//37 116//38 110//32
f 116//38 117//78 111//33
f 117//78 112//34 106//28
f 138//34 139//35 133//29
f 139//35 140//91 134//30
f 140//91 141//37 135//31
f 141//37 142//38 136//32
f 142//38 143//78 137//33
f 143//78 138//34 132//28
f 164//34 165//35 159//104
f 165//35 166//36 160//30
f 166//36 167//37 161//31
f 167//37 168//38 162//32
f 168//38 169//78 163//33
f 169//78 164//34 158//28
