# Blender 5.2.1 LTS
# www.blender.org
mtllib plant_current_meadow_01.mtl
o bent_living_blade.117
v 0.332241 0.030000 -0.066900
v 0.332241 0.030000 -0.066900
v 0.332241 0.030000 -0.066900
v 0.368193 0.144641 0.025531
v 0.338958 0.175256 -0.068978
v 0.309723 0.144641 -0.163487
v 0.406887 0.259282 0.079238
v 0.359110 0.315851 -0.075212
v 0.311333 0.259282 -0.229662
v 0.451869 0.373923 0.105689
v 0.392696 0.447834 -0.085601
v 0.333523 0.373923 -0.276891
v 0.502759 0.488564 0.103652
v 0.439716 0.568564 -0.100146
v 0.376674 0.488564 -0.303944
v 0.559344 0.603206 0.072443
v 0.500171 0.677116 -0.118847
v 0.440998 0.603206 -0.310137
v 0.621838 0.717847 0.012746
v 0.574061 0.774415 -0.141704
v 0.526284 0.717847 -0.296154
v 0.690619 0.832488 -0.074207
v 0.661384 0.863102 -0.168716
v 0.632149 0.832488 -0.263225
v 0.762142 0.947129 -0.199884
v 0.762142 0.947129 -0.199884
v 0.762142 0.947129 -0.199884
vn -0.3848 0.9145 0.1254
vn -0.2095 0.9759 0.0614
vn -0.0000 1.0000 -0.0000
vn -0.9383 0.1131 0.3269
vn -0.9496 0.1098 0.2937
vn -0.9590 0.1131 0.2600
vn -0.9100 0.2105 0.3573
vn -0.9328 0.2160 0.2885
vn -0.9528 0.2105 0.2189
vn -0.8664 0.3146 0.3879
vn -0.9014 0.3314 0.2788
vn -0.9340 0.3146 0.1691
vn -0.8064 0.4222 0.4142
vn -0.8514 0.4536 0.2634
vn -0.8994 0.4222 0.1134
vn -0.7311 0.5283 0.4317
vn -0.7834 0.5723 0.2423
vn -0.8472 0.5283 0.0566
vn -0.6478 0.6254 0.4350
vn -0.7062 0.6734 0.2185
vn -0.7803 0.6254 0.0068
vn -0.5675 0.7100 0.4169
vn -0.6267 0.7548 0.1939
vn -0.7038 0.7100 -0.0237
vn -0.0825 0.9944 0.0654
vn -0.1847 0.9827 -0.0130
s 1
usemtl verdant_growth
f 1//1 5//5 2//2
f 2//2 6//6 3//3
f 7//7 5//5 4//4
f 5//5 9//9 6//6
f 10//10 8//8 7//7
f 8//8 12//12 9//9
f 13//13 11//11 10//10
f 11//11 15//15 12//12
f 16//16 14//14 13//13
f 14//14 18//18 15//15
f 19//19 17//17 16//16
f 17//17 21//21 18//18
f 22//22 20//20 19//19
f 20//20 24//24 21//21
f 22//22 26//25 23//23
f 23//23 27//26 24//24
f 1//1 4//4 5//5
f 2//2 5//5 6//6
f 7//7 8//8 5//5
f 5//5 8//8 9//9
f 10//10 11//11 8//8
f 8//8 11//11 12//12
f 13//13 14//14 11//11
f 11//11 14//14 15//15
f 16//16 17//17 14//14
f 14//14 17//17 18//18
f 19//19 20//20 17//17
f 17//17 20//20 21//21
f 22//22 23//23 20//20
f 20//20 23//23 24//24
f 22//22 25//3 26//25
f 23//23 26//25 27//26
o leaf_midrib.117
v 0.308282 0.043404 -0.066900
v 0.324861 0.042846 -0.044079
v 0.351639 0.041119 -0.052796
v 0.351609 0.040610 -0.081005
v 0.324813 0.042022 -0.089722
v 0.315866 0.159347 -0.068978
v 0.331915 0.158268 -0.046880
v 0.357697 0.154940 -0.055321
v 0.357583 0.153963 -0.082635
v 0.331730 0.156687 -0.091076
v 0.337204 0.276416 -0.075212
v 0.352684 0.274336 -0.053866
v 0.377045 0.268035 -0.062019
v 0.376620 0.266222 -0.088404
v 0.351997 0.271402 -0.096557
v 0.372177 0.393137 -0.085601
v 0.387055 0.390144 -0.065024
v 0.409729 0.381318 -0.072884
v 0.408863 0.378856 -0.098319
v 0.385655 0.386161 -0.106179
v 0.445922 0.500564 -0.080084
v 0.458763 0.491767 -0.099245
v 0.445282 0.495127 -0.119652
v 0.424109 0.506002 -0.113102
v 0.424505 0.509362 -0.088648
v 0.506156 0.615206 -0.099502
v 0.517704 0.605137 -0.117721
v 0.505023 0.608983 -0.137496
v 0.485637 0.621429 -0.131500
v 0.486337 0.625275 -0.108017
v 0.579823 0.729847 -0.123075
v 0.590111 0.718854 -0.140361
v 0.578217 0.723053 -0.159503
v 0.560580 0.736641 -0.154047
v 0.561572 0.740840 -0.131533
v 0.666925 0.844488 -0.150804
v 0.676021 0.832871 -0.167179
v 0.664890 0.837308 -0.185679
v 0.648914 0.851667 -0.180737
v 0.650172 0.856105 -0.159183
v 0.767462 0.959129 -0.182688
v 0.775822 0.947538 -0.198294
v 0.765278 0.951966 -0.216097
v 0.750400 0.966292 -0.211495
v 0.751750 0.970719 -0.190847
vn -0.8384 -0.5450 0.0109
vn -0.2823 -0.5636 0.7763
vn 0.6161 -0.6215 0.4838
vn 0.6151 -0.6386 -0.4623
vn -0.2838 -0.5914 -0.7548
vn -0.9925 0.1222 0.0062
vn -0.3193 0.0774 0.9445
vn 0.7959 -0.0650 0.6020
vn 0.7974 -0.1081 -0.5937
vn -0.3313 0.0109 -0.9435
vn -0.9723 0.2336 0.0056
vn -0.3005 0.1445 0.9428
vn 0.7887 -0.1343 0.5999
vn 0.7755 -0.2173 -0.5928
vn -0.3346 0.0164 -0.9422
vn -0.8822 0.4709 -0.0101
vn -0.2186 0.3417 0.9140
vn 0.8178 -0.0536 0.5730
vn 0.7831 -0.1688 -0.5985
vn -0.2851 0.1632 -0.9445
vn 0.2147 -0.1264 0.9685
vn 0.8326 -0.5498 0.0672
vn 0.1851 -0.3881 -0.9029
vn -0.8049 0.1258 -0.5800
vn -0.7816 0.2823 0.5562
vn 0.2847 0.0134 0.9585
vn 0.8694 -0.4905 0.0598
vn 0.2313 -0.2961 -0.9267
vn -0.7218 0.3170 -0.6153
vn -0.6837 0.5017 0.5299
vn 0.2870 0.0130 0.9578
vn 0.8269 -0.5576 0.0723
vn 0.2068 -0.3377 -0.9182
vn -0.6941 0.3577 -0.6247
vn -0.6405 0.5678 0.5171
vn 0.2890 0.0123 0.9573
vn 0.7846 -0.6141 0.0849
vn 0.1822 -0.3729 -0.9098
vn -0.6668 0.3917 -0.6340
vn -0.5976 0.6233 0.5043
vn 0.6234 0.4397 0.6465
vn 0.9959 -0.0766 -0.0487
vn 0.5261 0.1206 -0.8418
vn -0.1366 0.7588 -0.6368
vn -0.0765 0.9561 0.2830
s 1
usemtl verdant_fibre
f 28//27 34//33 33//32
f 29//28 35//34 34//33
f 30//29 36//35 35//34
f 32//31 36//35 31//30
f 28//27 37//36 32//31
f 34//33 38//37 33//32
f 35//34 39//38 34//33
f 36//35 40//39 35//34
f 37//36 41//40 36//35
f 33//32 42//41 37//36
f 39//38 43//42 38//37
f 40//39 44//43 39//38
f 41//40 45//44 40//39
f 42//41 46//45 41//40
f 38//37 47//46 42//41
f 43//42 49//48 48//47
f 44//43 50//49 49//48
f 45//44 51//50 50//49
f 46//45 52//51 51//50
f 47//46 48//47 52//51
f 49//48 53//52 48//47
f 49//48 55//54 54//53
f 50//49 56//55 55//54
f 51//50 57//56 56//55
f 48//47 57//56 52//51
f 54//53 58//57 53//52
f 54//53 60//59 59//58
f 55//54 61//60 60//59
f 56//55 62//61 61//60
f 53//52 62//61 57//56
f 59//58 63//62 58//57
f 59//58 65//64 64//63
f 60//59 66//65 65//64
f 61//60 67//66 66//65
f 58//57 67//66 62//61
f 64//63 68//67 63//62
f 64//63 70//69 69//68
f 65//64 71//70 70//69
f 66//65 72//71 71//70
f 63//62 72//71 67//66
f 31//30 29//28 28//27
f 69//68 71//70 72//71
f 28//27 29//28 34//33
f 29//28 30//29 35//34
f 30//29 31//30 36//35
f 32//31 37//36 36//35
f 28//27 33//32 37//36
f 34//33 39//38 38//37
f 35//34 40//39 39//38
f 36//35 41//40 40//39
f 37//36 42//41 41//40
f 33//32 38//37 42//41
f 39//38 44//43 43//42
f 40//39 45//44 44//43
f 41//40 46//45 45//44
f 42//41 47//46 46//45
f 38//37 43//42 47//46
f 43//42 44//43 49//48
f 44//43 45//44 50//49
f 45//44 46//45 51//50
f 46//45 47//46 52//51
f 47//46 43//42 48//47
f 49//48 54//53 53//52
f 49//48 50//49 55//54
f 50//49 51//50 56//55
f 51//50 52//51 57//56
f 48//47 53//52 57//56
f 54//53 59//58 58//57
f 54//53 55//54 60//59
f 55//54 56//55 61//60
f 56//55 57//56 62//61
f 53//52 58//57 62//61
f 59//58 64//63 63//62
f 59//58 60//59 65//64
f 60//59 61//60 66//65
f 61//60 62//61 67//66
f 58//57 63//62 67//66
f 64//63 69//68 68//67
f 64//63 65//64 70//69
f 65//64 66//65 71//70
f 66//65 67//66 72//71
f 63//62 68//67 72//71
f 28//27 32//31 31//30
f 31//30 30//29 29//28
f 72//71 68//67 69//68
f 69//68 70//69 71//70
o bent_living_blade.118
v 0.507940 0.030000 0.447945
v 0.507940 0.030000 0.447945
v 0.507940 0.030000 0.447945
v 0.556044 0.150919 0.579660
v 0.514657 0.181534 0.445867
v 0.473270 0.150919 0.312074
v 0.602445 0.271838 0.658283
v 0.534809 0.328406 0.439633
v 0.467172 0.271838 0.220983
v 0.652164 0.392757 0.700047
v 0.568395 0.466667 0.429244
v 0.484625 0.392757 0.158440
v 0.704662 0.513676 0.703209
v 0.615415 0.593676 0.414699
v 0.526168 0.513676 0.126188
v 0.759639 0.634595 0.666801
v 0.675870 0.708505 0.395998
v 0.592101 0.634595 0.125194
v 0.817396 0.755513 0.591791
v 0.749759 0.812082 0.373141
v 0.682123 0.755513 0.154491
v 0.878470 0.876432 0.479922
v 0.837083 0.907047 0.346129
v 0.795696 0.876432 0.212336
v 0.937841 0.997351 0.314961
v 0.937841 0.997351 0.314961
v 0.937841 0.997351 0.314961
vn -0.4473 0.8828 0.1434
vn -0.2492 0.9656 0.0743
vn -0.0000 1.0000 -0.0000
vn -0.9410 0.1134 0.3190
vn -0.9505 0.1010 0.2940
vn -0.9567 0.1134 0.2680
vn -0.9174 0.2098 0.3381
vn -0.9352 0.2043 0.2893
vn -0.9481 0.2098 0.2390
vn -0.8821 0.3084 0.3559
vn -0.9071 0.3137 0.2806
vn -0.9290 0.3084 0.2043
vn -0.8331 0.4103 0.3708
vn -0.8619 0.4313 0.2666
vn -0.8970 0.4103 0.1644
vn -0.7705 0.5124 0.3792
vn -0.7994 0.5475 0.2473
vn -0.8500 0.5124 0.1220
vn -0.6978 0.6086 0.3777
vn -0.7272 0.6485 0.2249
vn -0.7892 0.6086 0.0823
vn -0.6234 0.6934 0.3613
vn -0.6525 0.7305 0.2018
vn -0.7185 0.6934 0.0538
vn -0.1107 0.9915 0.0679
vn -0.2222 0.9749 0.0111
s 1
usemtl verdant_growth
f 73//72 77//76 74//73
f 74//73 78//77 75//74
f 76//75 80//79 77//76
f 80//79 78//77 77//76
f 82//81 80//79 79//78
f 80//79 84//83 81//80
f 85//84 83//82 82//81
f 83//82 87//86 84//83
f 88//87 86//85 85//84
f 86//85 90//89 87//86
f 91//90 89//88 88//87
f 89//88 93//92 90//89
f 94//93 92//91 91//90
f 92//91 96//95 93//92
f 94//93 98//96 95//94
f 95//94 99//97 96//95
f 73//72 76//75 77//76
f 74//73 77//76 78//77
f 76//75 79//78 80//79
f 80//79 81//80 78//77
f 82//81 83//82 80//79
f 80//79 83//82 84//83
f 85//84 86//85 83//82
f 83//82 86//85 87//86
f 88//87 89//88 86//85
f 86//85 89//88 90//89
f 91//90 92//91 89//88
f 89//88 92//91 93//92
f 94//93 95//94 92//91
f 92//91 95//94 96//95
f 94//93 97//74 98//96
f 95//94 98//96 99//97
o leaf_midrib.118
v 0.483977 0.043331 0.447945
v 0.500556 0.042802 0.470767
v 0.527340 0.041165 0.462049
v 0.527313 0.040681 0.433840
v 0.500513 0.042020 0.425123
v 0.491549 0.165486 0.445867
v 0.507600 0.164462 0.467966
v 0.533403 0.161306 0.459525
v 0.533300 0.160378 0.432209
v 0.507433 0.162962 0.423768
v 0.512844 0.288718 0.439633
v 0.528332 0.286745 0.460984
v 0.552770 0.280754 0.452829
v 0.552386 0.279025 0.426438
v 0.527710 0.283947 0.418282
v 0.547761 0.411634 0.429244
v 0.562655 0.408792 0.449831
v 0.585481 0.400373 0.441967
v 0.584694 0.398012 0.416520
v 0.561382 0.404972 0.408657
v 0.596225 0.534204 0.414699
v 0.610496 0.530586 0.434515
v 0.631565 0.520182 0.426946
v 0.630316 0.517370 0.402451
v 0.608474 0.526036 0.394882
v 0.681854 0.646595 0.415343
v 0.693624 0.636913 0.397056
v 0.680859 0.640611 0.377306
v 0.661199 0.652578 0.383388
v 0.661814 0.656276 0.406896
v 0.755522 0.767513 0.391770
v 0.766070 0.756901 0.374403
v 0.754077 0.760954 0.355292
v 0.736117 0.774072 0.360848
v 0.737010 0.778126 0.383392
v 0.842624 0.888432 0.364041
v 0.852007 0.877174 0.347577
v 0.840765 0.881474 0.329111
v 0.824435 0.895390 0.334163
v 0.825584 0.899690 0.355751
v 0.943161 1.009351 0.332157
v 0.951810 0.998098 0.316462
v 0.941155 1.002397 0.298692
v 0.925921 1.016306 0.303405
v 0.927160 1.020604 0.324087
vn -0.8366 -0.5477 0.0103
vn -0.2806 -0.5654 0.7756
vn 0.6179 -0.6203 0.4832
vn 0.6170 -0.6365 -0.4628
vn -0.2819 -0.5917 -0.7552
vn -0.9932 0.1160 0.0060
vn -0.3191 0.0734 0.9449
vn 0.7967 -0.0617 0.6013
vn 0.7983 -0.1026 -0.5934
vn -0.3302 0.0102 -0.9439
vn -0.9750 0.2222 0.0054
vn -0.3022 0.1375 0.9433
vn 0.7902 -0.1278 0.5994
vn 0.7785 -0.2068 -0.5926
vn -0.3332 0.0152 -0.9427
vn -0.9470 0.3211 0.0048
vn -0.2766 0.1947 0.9411
vn 0.7792 -0.1913 0.5968
vn 0.7476 -0.3029 -0.5911
vn -0.3379 0.0216 -0.9409
vn -0.8503 0.5262 -0.0123
vn -0.1881 0.3621 0.9130
vn 0.8121 -0.1243 0.5701
vn 0.7567 -0.2604 -0.5996
vn -0.2855 0.1502 -0.9465
vn 0.2164 -0.1076 0.9704
vn 0.8039 -0.5899 0.0763
vn 0.1682 -0.4050 -0.8987
vn -0.7882 0.1817 -0.5880
vn -0.7542 0.3602 0.5491
vn 0.2868 0.0125 0.9579
vn 0.8400 -0.5383 0.0682
vn 0.2149 -0.3261 -0.9206
vn -0.7025 0.3453 -0.6223
vn -0.6539 0.5483 0.5213
vn 0.2887 0.0120 0.9574
vn 0.7997 -0.5951 0.0802
vn 0.1914 -0.3614 -0.9126
vn -0.6765 0.3796 -0.6311
vn -0.6130 0.6041 0.5091
vn 0.6122 0.4502 0.6500
vn 0.9975 -0.0511 -0.0492
vn 0.5228 0.1404 -0.8408
vn -0.1559 0.7601 -0.6309
vn -0.1007 0.9516 0.2905
s 1
usemtl verdant_fibre
f 100//98 106//104 105//103
f 101//99 107//105 106//104
f 102//100 108//106 107//105
f 104//102 108//106 103//101
f 100//98 109//107 104//102
f 106//104 110//108 105//103
f 107//105 111//109 106//104
f 108//106 112//110 107//105
f 109//107 113//111 108//106
f 105//103 114//112 109//107
f 111//109 115//113 110//108
f 112//110 116//114 111//109
f 113//111 117//115 112//110
f 114//112 118//116 113//111
f 110//108 119//117 114//112
f 116//114 120//118 115//113
f 117//115 121//119 116//114
f 118//116 122//120 117//115
f 119//117 123//121 118//116
f 115//113 124//122 119//117
f 120//118 126//124 125//123
f 121//119 127//125 126//124
f 122//120 128//126 127//125
f 123//121 129//127 128//126
f 124//122 125//123 129//127
f 126//124 130//128 125//123
f 126//124 132//130 131//129
f 127//125 133//131 132//130
f 128//126 134//132 133//131
f 125//123 134//132 129//127
f 131//129 135//133 130//128
f 131//129 137//135 136//134
f 132//130 138//136 137//135
f 133//131 139//137 138//136
f 130//128 139//137 134//132
f 136//134 140//138 135//133
f 136//134 142//140 141//139
f 137//135 143//141 142//140
f 138//136 144//142 143//141
f 135//133 144//142 139//137
f 103//101 101//99 100//98
f 141//139 143//141 144//142
f 100//98 101//99 106//104
f 101//99 102//100 107//105
f 102//100 103//101 108//106
f 104//102 109//107 108//106
f 100//98 105//103 109//107
f 106//104 111//109 110//108
f 107//105 112//110 111//109
f 108//106 113//111 112//110
f 109//107 114//112 113//111
f 105//103 110//108 114//112
f 111//109 116//114 115//113
f 112//110 117//115 116//114
f 113//111 118//116 117//115
f 114//112 119//117 118//116
f 110//108 115//113 119//117
f 116//114 121//119 120//118
f 117//115 122//120 121//119
f 118//116 123//121 122//120
f 119//117 124//122 123//121
f 115//113 120//118 124//122
f 120//118 121//119 126//124
f 121//119 122//120 127//125
f 122//120 123//121 128//126
f 123//121 124//122 129//127
f 124//122 120//118 125//123
f 126//124 131//129 130//128
f 126//124 127//125 132//130
f 127//125 128//126 133//131
f 128//126 129//127 134//132
f 125//123 130//128 134//132
f 131//129 136//134 135//133
f 131//129 132//130 137//135
f 132//130 133//131 138//136
f 133//131 134//132 139//137
f 130//128 135//133 139//137
f 136//134 141//139 140//138
f 136//134 137//135 142//140
f 137//135 138//136 143//141
f 138//136 139//137 144//142
f 135//133 140//138 144//142
f 100//98 104//102 103//101
f 103//101 102//100 101//99
f 144//142 140//138 141//139
f 141//139 142//140 143//141
o bent_living_blade.119
v 0.241777 0.030000 -0.071263
v 0.241777 0.030000 -0.071263
v 0.241777 0.030000 -0.071263
v 0.285501 0.105245 0.046291
v 0.248494 0.135860 -0.073341
v 0.211487 0.105245 -0.192973
v 0.329123 0.180491 0.115933
v 0.268646 0.237059 -0.079575
v 0.208168 0.180491 -0.275082
v 0.377135 0.255736 0.152177
v 0.302232 0.329647 -0.089964
v 0.227329 0.255736 -0.332105
v 0.429053 0.330982 0.153465
v 0.349252 0.410982 -0.104509
v 0.269451 0.330982 -0.362483
v 0.484610 0.406227 0.118931
v 0.409707 0.480137 -0.123210
v 0.334804 0.406227 -0.365351
v 0.544074 0.481473 0.049441
v 0.483596 0.538041 -0.146067
v 0.423119 0.481473 -0.341574
v 0.607927 0.556718 -0.053447
v 0.570920 0.587333 -0.173079
v 0.533914 0.556718 -0.292711
v 0.671678 0.631963 -0.204247
v 0.671678 0.631963 -0.204247
v 0.671678 0.631963 -0.204247
vn -0.5042 0.8477 0.1650
vn -0.2922 0.9525 0.0852
vn -0.0000 1.0000 -0.0000
vn -0.9267 0.1715 0.3343
vn -0.9451 0.1459 0.2924
vn -0.9536 0.1715 0.2473
vn -0.8787 0.3087 0.3641
vn -0.9131 0.2941 0.2825
vn -0.9308 0.3087 0.1957
vn -0.8061 0.4483 0.3862
vn -0.8517 0.4530 0.2635
vn -0.8834 0.4483 0.1364
vn -0.7124 0.5777 0.3984
vn -0.7572 0.6098 0.2342
vn -0.8129 0.5777 0.0735
vn -0.5981 0.6950 0.3989
vn -0.6362 0.7460 0.1968
vn -0.7189 0.6950 0.0085
vn -0.4786 0.7898 0.3836
vn -0.5152 0.8421 0.1594
vn -0.6116 0.7898 -0.0463
vn -0.3722 0.8596 0.3500
vn -0.4107 0.9029 0.1270
vn -0.5049 0.8596 -0.0787
vn -0.0611 0.9959 0.0660
vn -0.1470 0.9886 -0.0335
s 1
usemtl verdant_growth
f 145//143 149//147 146//144
f 146//144 150//148 147//145
f 148//146 152//150 149//147
f 152//150 150//148 149//147
f 151//149 155//153 152//150
f 155//153 153//151 152//150
f 157//155 155//153 154//152
f 155//153 159//157 156//154
f 160//158 158//156 157//155
f 158//156 162//160 159//157
f 163//161 161//159 160//158
f 161//159 165//163 162//160
f 166//164 164//162 163//161
f 164//162 168//166 165//163
f 166//164 170//167 167//165
f 167//165 171//168 168//166
f 145//143 148//146 149//147
f 146//144 149//147 150//148
f 148//146 151//149 152//150
f 152//150 153//151 150//148
f 151//149 154//152 155//153
f 155//153 156//154 153//151
f 157//155 158//156 155//153
f 155//153 158//156 159//157
f 160//158 161//159 158//156
f 158//156 161//159 162//160
f 163//161 164//162 161//159
f 161//159 164//162 165//163
f 166//164 167//165 164//162
f 164//162 167//165 168//166
f 166//164 169//145 170//167
f 167//165 170//167 171//168
o leaf_midrib.119
v 0.217872 0.044134 -0.071263
v 0.234446 0.043285 -0.048446
v 0.261151 0.040660 -0.057162
v 0.261082 0.039887 -0.085365
v 0.234334 0.042034 -0.094080
v 0.225606 0.121332 -0.073341
v 0.241632 0.119690 -0.051262
v 0.267141 0.114670 -0.059695
v 0.266880 0.113209 -0.086987
v 0.241210 0.117326 -0.095420
v 0.247456 0.200057 -0.079575
v 0.262842 0.196914 -0.058291
v 0.286249 0.187658 -0.066420
v 0.285328 0.185081 -0.092729
v 0.261353 0.192744 -0.100859
v 0.308659 0.267736 -0.069185
v 0.321455 0.257620 -0.088875
v 0.307685 0.261484 -0.110070
v 0.286379 0.273988 -0.103479
v 0.286981 0.277852 -0.078211
v 0.355458 0.342982 -0.084447
v 0.366452 0.331023 -0.103037
v 0.353676 0.335591 -0.123661
v 0.334787 0.350372 -0.117818
v 0.335888 0.354940 -0.093582
v 0.415691 0.418227 -0.103864
v 0.424999 0.405078 -0.121390
v 0.413174 0.410101 -0.141431
v 0.396557 0.426354 -0.136291
v 0.398113 0.431376 -0.113074
v 0.489359 0.493473 -0.127438
v 0.497169 0.479631 -0.143958
v 0.486222 0.484918 -0.163392
v 0.471646 0.502027 -0.158883
v 0.473585 0.507314 -0.136662
v 0.576461 0.568718 -0.155167
v 0.582978 0.554551 -0.170744
v 0.572831 0.559962 -0.189549
v 0.560043 0.577474 -0.185593
v 0.562287 0.582885 -0.164343
v 0.676998 0.643963 -0.187051
v 0.682820 0.630028 -0.201872
v 0.673245 0.635351 -0.219975
v 0.661505 0.652576 -0.216343
v 0.663824 0.657899 -0.195995
vn -0.8555 -0.5176 0.0167
vn -0.2990 -0.5459 0.7827
vn 0.5985 -0.6339 0.4898
vn 0.5963 -0.6599 -0.4571
vn -0.3023 -0.5884 -0.7500
vn -0.9830 0.1834 0.0090
vn -0.3187 0.1164 0.9407
vn 0.7875 -0.0972 0.6086
vn 0.7859 -0.1622 -0.5967
vn -0.3428 0.0185 -0.9392
vn -0.8479 0.5300 -0.0138
vn -0.1965 0.4072 0.8919
vn 0.8269 0.0200 0.5620
vn 0.7942 -0.0983 -0.5997
vn -0.2664 0.2286 -0.9364
vn 0.1694 -0.1739 0.9701
vn 0.7597 -0.6444 0.0870
vn 0.1226 -0.4670 -0.8757
vn -0.8220 0.0980 -0.5610
vn -0.7883 0.2720 0.5520
vn 0.2828 0.0197 0.9590
vn 0.8255 -0.5594 0.0752
vn 0.2015 -0.3351 -0.9204
vn -0.6931 0.3654 -0.6213
vn -0.6369 0.5748 0.5138
vn 0.2871 0.0180 0.9577
vn 0.7619 -0.6409 0.0937
vn 0.1655 -0.3864 -0.9074
vn -0.6514 0.4137 -0.6361
vn -0.5722 0.6541 0.4948
vn 0.2903 0.0160 0.9568
vn 0.7026 -0.7029 0.1110
vn 0.1315 -0.4257 -0.8952
vn -0.6132 0.4497 -0.6495
vn -0.5123 0.7140 0.4773
vn 0.2926 0.0139 0.9561
vn 0.6493 -0.7499 0.1267
vn 0.1005 -0.4559 -0.8844
vn -0.5793 0.4767 -0.6612
vn -0.4589 0.7592 0.4615
vn 0.7018 0.3472 0.6220
vn 0.9612 -0.2734 -0.0380
vn 0.5347 -0.0363 -0.8442
vn 0.0119 0.7308 -0.6825
vn 0.1151 0.9678 0.2237
s 1
usemtl verdant_fibre
f 172//169 178//175 177//174
f 173//170 179//176 178//175
f 174//171 180//177 179//176
f 176//173 180//177 175//172
f 172//169 181//178 176//173
f 178//175 182//179 177//174
f 179//176 183//180 178//175
f 180//177 184//181 179//176
f 181//178 185//182 180//177
f 177//174 186//183 181//178
f 182//179 188//185 187//184
f 183//180 189//186 188//185
f 184//181 190//187 189//186
f 185//182 191//188 190//187
f 186//183 187//184 191//188
f 188//185 192//189 187//184
f 188//185 194//191 193//190
f 189//186 195//192 194//191
f 190//187 196//193 195//192
f 187//184 196//193 191//188
f 193//190 197//194 192//189
f 193//190 199//196 198//195
f 194//191 200//197 199//196
f 195//192 201//198 200//197
f 192//189 201//198 196//193
f 198//195 202//199 197//194
f 198//195 204//201 203//200
f 199//196 205//202 204//201
f 200//197 206//203 205//202
f 197//194 206//203 201//198
f 203//200 207//204 202//199
f 203//200 209//206 208//205
f 204//201 210//207 209//206
f 205//202 211//208 210//207
f 202//199 211//208 206//203
f 208//205 212//209 207//204
f 208//205 214//211 213//210
f 209//206 215//212 214//211
f 210//207 216//213 215//212
f 207//204 216//213 211//208
f 175//172 173//170 172//169
f 213//210 215//212 216//213
f 172//169 173//170 178//175
f 173//170 174//171 179//176
f 174//171 175//172 180//177
f 176//173 181//178 180//177
f 172//169 177//174 181//178
f 178//175 183//180 182//179
f 179//176 184//181 183//180
f 180//177 185//182 184//181
f 181//178 186//183 185//182
f 177//174 182//179 186//183
f 182//179 183//180 188//185
f 183//180 184//181 189//186
f 184//181 185//182 190//187
f 185//182 186//183 191//188
f 186//183 182//179 187//184
f 188//185 193//190 192//189
f 188//185 189//186 194//191
f 189//186 190//187 195//192
f 190//187 191//188 196//193
f 187//184 192//189 196//193
f 193//190 198//195 197//194
f 193//190 194//191 199//196
f 194//191 195//192 200//197
f 195//192 196//193 201//198
f 192//189 197//194 201//198
f 198//195 203//200 202//199
f 198//195 199//196 204//201
f 199//196 200//197 205//202
f 200//197 201//198 206//203
f 197//194 202//199 206//203
f 203//200 208//205 207//204
f 203//200 204//201 209//206
f 204//201 205//202 210//207
f 205//202 206//203 211//208
f 202//199 207//204 211//208
f 208//205 213//210 212//209
f 208//205 209//206 214//211
f 209//206 210//207 215//212
f 210//207 211//208 216//213
f 207//204 212//209 216//213
f 172//169 176//173 175//172
f 175//172 174//171 173//170
f 216//213 212//209 213//210
f 213//210 214//211 215//212
o bent_living_blade.120
v 0.675674 0.030000 -0.626075
v 0.675674 0.030000 -0.626075
v 0.675674 0.030000 -0.626075
v 0.707527 0.122218 -0.546896
v 0.682391 0.152832 -0.628153
v 0.657255 0.122218 -0.709410
v 0.743621 0.214435 -0.501593
v 0.702543 0.271004 -0.634386
v 0.661465 0.214435 -0.767180
v 0.787005 0.306653 -0.480308
v 0.736129 0.380563 -0.644776
v 0.685253 0.306653 -0.809244
v 0.837352 0.398870 -0.484099
v 0.783149 0.478870 -0.659321
v 0.728947 0.398870 -0.834543
v 0.894480 0.491088 -0.513554
v 0.843604 0.564998 -0.678022
v 0.792728 0.491088 -0.842490
v 0.958571 0.583306 -0.568085
v 0.917494 0.639874 -0.700879
v 0.876416 0.583306 -0.833672
v 1.029953 0.675523 -0.646634
v 1.004817 0.706138 -0.727891
v 0.979681 0.675523 -0.809148
v 1.105575 0.767741 -0.759059
v 1.105575 0.767741 -0.759059
v 1.105575 0.767741 -0.759059
vn -0.3968 0.9084 0.1318
vn -0.2183 0.9739 0.0626
vn -0.0000 1.0000 -0.0000
vn -0.9313 0.1342 0.3386
vn -0.9470 0.1320 0.2929
vn -0.9598 0.1342 0.2464
vn -0.8908 0.2493 0.3798
vn -0.9229 0.2585 0.2855
vn -0.9497 0.2493 0.1895
vn -0.8282 0.3707 0.4203
vn -0.8776 0.3952 0.2715
vn -0.9209 0.3707 0.1207
vn -0.7429 0.4925 0.4533
vn -0.8063 0.5364 0.2494
vn -0.8691 0.4925 0.0453
vn -0.6396 0.6065 0.4723
vn -0.7126 0.6660 0.2204
vn -0.7946 0.6065 -0.0287
vn -0.5321 0.7032 0.4715
vn -0.6130 0.7670 0.1896
vn -0.7054 0.7032 -0.0887
vn -0.4364 0.7824 0.4442
vn -0.5173 0.8407 0.1600
vn -0.6111 0.7824 -0.1202
vn -0.0589 0.9960 0.0674
vn -0.1520 0.9876 -0.0392
s 1
usemtl verdant_growth
f 217//214 221//218 218//215
f 218//215 222//219 219//216
f 223//220 221//218 220//217
f 221//218 225//222 222//219
f 226//223 224//221 223//220
f 224//221 228//225 225//222
f 229//226 227//224 226//223
f 227//224 231//228 228//225
f 232//229 230//227 229//226
f 230//227 234//231 231//228
f 235//232 233//230 232//229
f 233//230 237//234 234//231
f 238//235 236//233 235//232
f 236//233 240//237 237//234
f 238//235 242//238 239//236
f 239//236 243//239 240//237
f 217//214 220//217 221//218
f 218//215 221//218 222//219
f 223//220 224//221 221//218
f 221//218 224//221 225//222
f 226//223 227//224 224//221
f 224//221 227//224 228//225
f 229//226 230//227 227//224
f 227//224 230//227 231//228
f 232//229 233//230 230//227
f 230//227 233//230 234//231
f 235//232 236//233 233//230
f 233//230 236//233 237//234
f 238//235 239//236 236//233
f 236//233 239//236 240//237
f 238//235 241//216 242//238
f 239//236 242//238 243//239
o leaf_midrib.120
v 0.651737 0.043744 -0.626075
v 0.668314 0.043050 -0.603255
v 0.695062 0.040906 -0.611972
v 0.695016 0.040273 -0.640178
v 0.668240 0.042027 -0.648895
v 0.659384 0.137569 -0.628153
v 0.675424 0.136228 -0.606063
v 0.701092 0.132108 -0.614500
v 0.700917 0.130904 -0.641805
v 0.675140 0.134279 -0.650243
v 0.680941 0.232729 -0.634386
v 0.696384 0.230151 -0.613067
v 0.720338 0.222438 -0.621211
v 0.719700 0.220249 -0.647562
v 0.695351 0.226609 -0.655706
v 0.716199 0.327363 -0.644776
v 0.730989 0.323675 -0.624247
v 0.752882 0.313046 -0.632089
v 0.751623 0.310166 -0.657463
v 0.728952 0.319014 -0.665304
v 0.789355 0.410870 -0.639259
v 0.801356 0.400470 -0.658160
v 0.788196 0.404443 -0.678666
v 0.768061 0.417298 -0.672437
v 0.768778 0.421271 -0.648083
v 0.849589 0.503088 -0.658676
v 0.860084 0.491411 -0.676570
v 0.847805 0.495871 -0.696470
v 0.829720 0.510305 -0.690876
v 0.830822 0.514765 -0.667518
v 0.923256 0.595306 -0.682249
v 0.932346 0.582787 -0.699165
v 0.920910 0.587568 -0.718449
v 0.904753 0.603043 -0.713451
v 0.906203 0.607825 -0.691078
v 1.010358 0.687523 -0.709978
v 1.018176 0.674509 -0.725958
v 1.007533 0.679480 -0.744609
v 0.993136 0.695566 -0.740156
v 0.994883 0.700537 -0.718753
v 1.110895 0.779741 -0.741863
v 1.117984 0.766853 -0.757075
v 1.107925 0.771776 -0.775029
v 1.094619 0.787706 -0.770913
v 1.096454 0.792628 -0.750415
vn -0.8464 -0.5323 0.0136
vn -0.2901 -0.5555 0.7793
vn 0.6079 -0.6274 0.4866
vn 0.6064 -0.6486 -0.4599
vn -0.2924 -0.5901 -0.7525
vn -0.9885 0.1510 0.0076
vn -0.3195 0.0957 0.9427
vn 0.7921 -0.0801 0.6051
vn 0.7925 -0.1335 -0.5951
vn -0.3367 0.0143 -0.9415
vn -0.9583 0.2858 0.0066
vn -0.2913 0.1764 0.9402
vn 0.7816 -0.1645 0.6018
vn 0.7598 -0.2652 -0.5937
vn -0.3410 0.0224 -0.9398
vn -0.8323 0.5541 -0.0154
vn -0.1763 0.3970 0.9007
vn 0.8224 -0.0758 0.5639
vn 0.7702 -0.2109 -0.6019
vn -0.2716 0.1891 -0.9436
vn 0.1898 -0.1374 0.9722
vn 0.7659 -0.6371 0.0869
vn 0.1345 -0.4464 -0.8847
vn -0.8014 0.1584 -0.5768
vn -0.7627 0.3428 0.5484
vn 0.2855 0.0160 0.9583
vn 0.8189 -0.5689 0.0758
vn 0.2001 -0.3430 -0.9178
vn -0.6888 0.3676 -0.6248
vn -0.6313 0.5813 0.5133
vn 0.2884 0.0149 0.9574
vn 0.7669 -0.6353 0.0911
vn 0.1702 -0.3846 -0.9072
vn -0.6550 0.4072 -0.6365
vn -0.5785 0.6462 0.4977
vn 0.2906 0.0135 0.9567
vn 0.7177 -0.6883 0.1056
vn 0.1416 -0.4181 -0.8973
vn -0.6235 0.4384 -0.6474
vn -0.5289 0.6978 0.4830
vn 0.6668 0.3934 0.6329
vn 0.9825 -0.1806 -0.0446
vn 0.5345 0.0387 -0.8443
vn -0.0582 0.7482 -0.6609
vn 0.0236 0.9674 0.2520
s 1
usemtl verdant_fibre
f 244//240 250//246 249//245
f 245//241 251//247 250//246
f 246//242 252//248 251//247
f 248//244 252//248 247//243
f 244//240 253//249 248//244
f 250//246 254//250 249//245
f 251//247 255//251 250//246
f 252//248 256//252 251//247
f 253//249 257//253 252//248
f 249//245 258//254 253//249
f 255//251 259//255 254//250
f 256//252 260//256 255//251
f 257//253 261//257 256//252
f 258//254 262//258 257//253
f 254//250 263//259 258//254
f 259//255 265//261 264//260
f 260//256 266//262 265//261
f 261//257 267//263 266//262
f 262//258 268//264 267//263
f 263//259 264//260 268//264
f 265//261 269//265 264//260
f 265//261 271//267 270//266
f 266//262 272//268 271//267
f 267//263 273//269 272//268
f 264//260 273//269 268//264
f 270//266 274//270 269//265
f 270//266 276//272 275//271
f 271//267 277//273 276//272
f 272//268 278//274 277//273
f 269//265 278//274 273//269
f 275//271 279//275 274//270
f 275//271 281//277 280//276
f 276//272 282//278 281//277
f 277//273 283//279 282//278
f 274//270 283//279 278//274
f 280//276 284//280 279//275
f 280//276 286//282 285//281
f 281//277 287//283 286//282
f 282//278 288//284 287//283
f 279//275 288//284 283//279
f 247//243 245//241 244//240
f 285//281 287//283 288//284
f 244//240 245//241 250//246
f 245//241 246//242 251//247
f 246//242 247//243 252//248
f 248//244 253//249 252//248
f 244//240 249//245 253//249
f 250//246 255//251 254//250
f 251//247 256//252 255//251
f 252//248 257//253 256//252
f 253//249 258//254 257//253
f 249//245 254//250 258//254
f 255//251 260//256 259//255
f 256//252 261//257 260//256
f 257//253 262//258 261//257
f 258//254 263//259 262//258
f 254//250 259//255 263//259
f 259//255 260//256 265//261
f 260//256 261//257 266//262
f 261//257 262//258 267//263
f 262//258 263//259 268//264
f 263//259 259//255 264//260
f 265//261 270//266 269//265
f 265//261 266//262 271//267
f 266//262 267//263 272//268
f 267//263 268//264 273//269
f 264//260 269//265 273//269
f 270//266 275//271 274//270
f 270//266 271//267 276//272
f 271//267 272//268 277//273
f 272//268 273//269 278//274
f 269//265 274//270 278//274
f 275//271 280//276 279//275
f 275//271 276//272 281//277
f 276//272 277//273 282//278
f 277//273 278//274 283//279
f 274//270 279//275 283//279
f 280//276 285//281 284//280
f 280//276 281//277 286//282
f 281//277 282//278 287//283
f 282//278 283//279 288//284
f 279//275 284//280 288//284
f 244//240 248//244 247//243
f 247//243 246//242 245//241
f 288//284 284//280 285//281
f 285//281 286//282 287//283
o bent_living_blade.121
v 0.548577 0.030000 -0.010657
v 0.548577 0.030000 -0.010657
v 0.548577 0.030000 -0.010657
v 0.588992 0.123409 0.096201
v 0.555294 0.154024 -0.012735
v 0.521597 0.123409 -0.121671
v 0.630517 0.216819 0.159060
v 0.575446 0.273387 -0.018968
v 0.520376 0.216819 -0.196996
v 0.677238 0.310228 0.191134
v 0.609032 0.384138 -0.029358
v 0.540826 0.310228 -0.249849
v 0.728718 0.403637 0.191006
v 0.656053 0.483637 -0.043903
v 0.583387 0.403637 -0.278812
v 0.784714 0.497047 0.157888
v 0.716507 0.570957 -0.062604
v 0.648301 0.497047 -0.283095
v 0.845467 0.590456 0.092568
v 0.790397 0.647025 -0.085460
v 0.735326 0.590456 -0.263488
v 0.911418 0.683865 -0.003537
v 0.877721 0.714480 -0.112473
v 0.844023 0.683865 -0.221409
v 0.978479 0.777275 -0.143641
v 0.978479 0.777275 -0.143641
v 0.978479 0.777275 -0.143641
vn -0.4544 0.8784 0.1482
vn -0.2556 0.9639 0.0748
vn -0.0000 1.0000 -0.0000
vn -0.9336 0.1384 0.3306
vn -0.9478 0.1253 0.2932
vn -0.9572 0.1384 0.2543
vn -0.8971 0.2572 0.3592
vn -0.9242 0.2531 0.2859
vn -0.9433 0.2572 0.2101
vn -0.8426 0.3765 0.3851
vn -0.8807 0.3874 0.2724
vn -0.9128 0.3765 0.1580
vn -0.7674 0.4966 0.4055
vn -0.8112 0.5282 0.2509
vn -0.8623 0.4966 0.0987
vn -0.6742 0.6110 0.4149
vn -0.7188 0.6587 0.2224
vn -0.7907 0.6110 0.0382
vn -0.5729 0.7102 0.4092
vn -0.6195 0.7613 0.1916
vn -0.7039 0.7102 -0.0142
vn -0.4778 0.7905 0.3832
vn -0.5251 0.8354 0.1624
vn -0.6108 0.7904 -0.0465
vn -0.0767 0.9947 0.0678
vn -0.1737 0.9846 -0.0216
s 1
usemtl verdant_growth
f 289//285 293//289 290//286
f 290//286 294//290 291//287
f 292//288 296//292 293//289
f 296//292 294//290 293//289
f 298//294 296//292 295//291
f 296//292 300//296 297//293
f 301//297 299//295 298//294
f 299//295 303//299 300//296
f 304//300 302//298 301//297
f 302//298 306//302 303//299
f 307//303 305//301 304//300
f 305//301 309//305 306//302
f 310//306 308//304 307//303
f 308//304 312//308 309//305
f 310//306 314//309 311//307
f 311//307 315//310 312//308
f 289//285 292//288 293//289
f 290//286 293//289 294//290
f 292//288 295//291 296//292
f 296//292 297//293 294//290
f 298//294 299//295 296//292
f 296//292 299//295 300//296
f 301//297 302//298 299//295
f 299//295 302//298 303//299
f 304//300 305//301 302//298
f 302//298 305//301 306//302
f 307//303 308//304 305//301
f 305//301 308//304 309//305
f 310//306 311//307 308//304
f 308//304 311//307 312//308
f 310//306 313//287 314//309
f 311//307 314//309 315//310
o leaf_midrib.121
v 0.524639 0.043721 -0.010657
v 0.541216 0.043037 0.012163
v 0.567966 0.040919 0.003447
v 0.567921 0.040295 -0.024760
v 0.541144 0.042027 -0.033476
v 0.532281 0.138719 -0.012735
v 0.548321 0.137395 0.009356
v 0.573998 0.133327 0.000918
v 0.573827 0.132137 -0.026387
v 0.548045 0.135469 -0.034825
v 0.553823 0.235039 -0.018968
v 0.569268 0.232493 0.002353
v 0.593251 0.224870 -0.005791
v 0.592628 0.222704 -0.032145
v 0.568260 0.228989 -0.040289
v 0.589062 0.330845 -0.029358
v 0.603858 0.327201 -0.008826
v 0.625805 0.316685 -0.016668
v 0.624572 0.313829 -0.042047
v 0.601864 0.322580 -0.049889
v 0.662259 0.415637 -0.023841
v 0.674316 0.405334 -0.042759
v 0.661134 0.409270 -0.063258
v 0.640930 0.422005 -0.057008
v 0.641625 0.425940 -0.032647
v 0.722492 0.509047 -0.043258
v 0.733056 0.497464 -0.061173
v 0.720751 0.501889 -0.081065
v 0.702581 0.516205 -0.075444
v 0.703657 0.520629 -0.052078
v 0.796159 0.602456 -0.066831
v 0.805325 0.590025 -0.083771
v 0.793860 0.594773 -0.103045
v 0.777609 0.610139 -0.098018
v 0.779030 0.614887 -0.075637
v 0.883262 0.695865 -0.094560
v 0.891159 0.682930 -0.110565
v 0.880485 0.687871 -0.129206
v 0.865990 0.703860 -0.124722
v 0.867706 0.708801 -0.103310
v 0.983798 0.789275 -0.126445
v 0.990966 0.776459 -0.141681
v 0.980877 0.781354 -0.159626
v 0.967474 0.797195 -0.155480
v 0.969279 0.802090 -0.134973
vn -0.8459 -0.5332 0.0134
vn -0.2896 -0.5560 0.7791
vn 0.6085 -0.6270 0.4864
vn 0.6070 -0.6480 -0.4601
vn -0.2919 -0.5902 -0.7527
vn -0.9888 0.1491 0.0075
vn -0.3195 0.0945 0.9428
vn 0.7923 -0.0791 0.6049
vn 0.7928 -0.1319 -0.5950
vn -0.3364 0.0141 -0.9416
vn -0.9593 0.2825 0.0065
vn -0.2919 0.1743 0.9404
vn 0.7821 -0.1625 0.6016
vn 0.7609 -0.2622 -0.5936
vn -0.3406 0.0220 -0.9399
vn -0.8356 0.5491 -0.0150
vn -0.1791 0.3938 0.9016
vn 0.8221 -0.0742 0.5645
vn 0.7712 -0.2082 -0.6016
vn -0.2725 0.1876 -0.9437
vn 0.1913 -0.1369 0.9719
vn 0.7703 -0.6319 0.0856
vn 0.1378 -0.4430 -0.8859
vn -0.8017 0.1563 -0.5770
vn -0.7640 0.3390 0.5490
vn 0.2854 0.0159 0.9583
vn 0.8222 -0.5643 0.0748
vn 0.2022 -0.3403 -0.9183
vn -0.6910 0.3646 -0.6242
vn -0.6347 0.5766 0.5144
vn 0.2883 0.0148 0.9574
vn 0.7707 -0.6308 0.0899
vn 0.1725 -0.3819 -0.9080
vn -0.6575 0.4044 -0.6357
vn -0.5825 0.6417 0.4990
vn 0.2905 0.0135 0.9568
vn 0.7218 -0.6842 0.1044
vn 0.1441 -0.4155 -0.8981
vn -0.6262 0.4358 -0.6465
vn -0.5332 0.6936 0.4844
vn 0.6644 0.3963 0.6337
vn 0.9836 -0.1745 -0.0449
vn 0.5343 0.0435 -0.8442
vn -0.0627 0.7491 -0.6595
vn 0.0177 0.9671 0.2539
s 1
usemtl verdant_fibre
f 316//311 322//317 321//316
f 317//312 323//318 322//317
f 318//313 324//319 323//318
f 320//315 324//319 319//314
f 316//311 325//320 320//315
f 322//317 326//321 321//316
f 323//318 327//322 322//317
f 324//319 328//323 323//318
f 325//320 329//324 324//319
f 321//316 330//325 325//320
f 327//322 331//326 326//321
f 328//323 332//327 327//322
f 329//324 333//328 328//323
f 330//325 334//329 329//324
f 326//321 335//330 330//325
f 331//326 337//332 336//331
f 332//327 338//333 337//332
f 333//328 339//334 338//333
f 334//329 340//335 339//334
f 335//330 336//331 340//335
f 337//332 341//336 336//331
f 337//332 343//338 342//337
f 338//333 344//339 343//338
f 339//334 345//340 344//339
f 336//331 345//340 340//335
f 342//337 346//341 341//336
f 342//337 348//343 347//342
f 343//338 349//344 348//343
f 344//339 350//345 349//344
f 341//336 350//345 345//340
f 347//342 351//346 346//341
f 347//342 353//348 352//347
f 348//343 354//349 353//348
f 349//344 355//350 354//349
f 346//341 355//350 350//345
f 352//347 356//351 351//346
f 352//347 358//353 357//352
f 353//348 359//354 358//353
f 354//349 360//355 359//354
f 351//346 360//355 355//350
f 319//314 317//312 316//311
f 357//352 359//354 360//355
f 316//311 317//312 322//317
f 317//312 318//313 323//318
f 318//313 319//314 324//319
f 320//315 325//320 324//319
f 316//311 321//316 325//320
f 322//317 327//322 326//321
f 323//318 328//323 327//322
f 324//319 329//324 328//323
f 325//320 330//325 329//324
f 321//316 326//321 330//325
f 327//322 332//327 331//326
f 328//323 333//328 332//327
f 329//324 334//329 333//328
f 330//325 335//330 334//329
f 326//321 331//326 335//330
f 331//326 332//327 337//332
f 332//327 333//328 338//333
f 333//328 334//329 339//334
f 334//329 335//330 340//335
f 335//330 331//326 336//331
f 337//332 342//337 341//336
f 337//332 338//333 343//338
f 338//333 339//334 344//339
f 339//334 340//335 345//340
f 336//331 341//336 345//340
f 342//337 347//342 346//341
f 342//337 343//338 348//343
f 343//338 344//339 349//344
f 344//339 345//340 350//345
f 341//336 346//341 350//345
f 347//342 352//347 351//346
f 347//342 348//343 353//348
f 348//343 349//344 354//349
f 349//344 350//345 355//350
f 346//341 351//346 355//350
f 352//347 357//352 356//351
f 352//347 353//348 358//353
f 353//348 354//349 359//354
f 354//349 355//350 360//355
f 351//346 356//351 360//355
f 316//311 320//315 319//314
f 319//314 318//313 317//312
f 360//355 356//351 357//352
f 357//352 358//353 359//354
