# Blender 5.2.1 LTS
# www.blender.org
mtllib plant_fan_a.mtl
o plant_fan_a
v 0.000000 0.000000 0.000000
v 0.363730 0.080000 -0.000000
v 0.226780 0.080000 0.284380
v -0.080940 0.080000 0.354610
v -0.327710 0.080000 0.157820
v -0.327710 0.080000 -0.157820
v -0.080940 0.080000 -0.354610
v 0.226780 0.080000 -0.284380
v 0.363730 0.240000 -0.000000
v 0.226780 0.240000 0.284380
v -0.080940 0.240000 0.354610
v -0.327710 0.240000 0.157820
v -0.327710 0.240000 -0.157820
v -0.080940 0.240000 -0.354610
v 0.226780 0.240000 -0.284380
v 0.000000 0.320000 -0.000000
v 0.000000 0.140000 -0.055000
v -0.450770 1.267380 -0.055000
v -0.044230 0.122320 -0.027500
v -0.495000 1.249690 -0.027500
v -0.044230 0.122320 0.027500
v -0.495000 1.249690 0.027500
v 0.000000 0.140000 0.055000
v -0.450770 1.267380 0.055000
v 0.044230 0.157680 0.027500
v -0.406540 1.285060 0.027500
v 0.044230 0.157680 -0.027500
v -0.406540 1.285060 -0.027500
v -0.450770 1.147380 -0.000000
v -0.346850 1.247380 -0.000000
v -0.398810 1.247380 0.033750
v -0.502730 1.247380 0.033750
v -0.554690 1.247380 -0.000000
v -0.502730 1.247380 -0.033750
v -0.398810 1.247380 -0.033750
v -0.346850 1.447380 -0.000000
v -0.398810 1.447380 0.033750
v -0.502730 1.447380 0.033750
v -0.554690 1.447380 -0.000000
v -0.502730 1.447380 -0.033750
v -0.398810 1.447380 -0.033750
v -0.450770 1.547380 -0.000000
v 0.000000 0.145480 -0.054730
v -0.247390 1.333860 0.064270
v -0.046640 0.133130 -0.028330
v -0.294030 1.321510 0.090670
v -0.046640 0.127650 0.026400
v -0.294030 1.316030 0.145400
v 0.000000 0.134520 0.054730
v -0.247390 1.322900 0.173730
v 0.046640 0.146870 0.028330
v -0.200750 1.335260 0.147330
v 0.046640 0.152350 -0.026400
v -0.200750 1.340740 0.092600
v -0.247390 1.208380 0.119000
v -0.143470 1.308380 0.119000
v -0.195430 1.308380 0.152750
v -0.299350 1.308380 0.152750
v -0.351320 1.308380 0.119000
v -0.299350 1.308380 0.085250
v -0.195430 1.308380 0.085250
v -0.143470 1.508380 0.119000
v -0.195430 1.508380 0.152750
v -0.299350 1.508380 0.152750
v -0.351320 1.508380 0.119000
v -0.299350 1.508380 0.085250
v -0.195430 1.508380 0.085250
v -0.247390 1.608380 0.119000
v 0.000000 0.138610 -0.054980
v 0.000000 1.348610 -0.085650
v -0.047630 0.139300 -0.027490
v -0.047630 1.349300 -0.058160
v -0.047630 0.140700 0.027490
v -0.047630 1.350700 -0.003170
v 0.000000 0.141390 0.054980
v 0.000000 1.351390 0.024320
v 0.047630 0.140700 0.027490
v 0.047630 1.350700 -0.003170
v 0.047630 0.139300 -0.027490
v 0.047630 1.349300 -0.058160
v 0.000000 1.230000 -0.030660
v 0.103920 1.330000 -0.030660
v 0.051960 1.330000 0.003090
v -0.051960 1.330000 0.003090
v -0.103920 1.330000 -0.030660
v -0.051960 1.330000 -0.064410
v 0.051960 1.330000 -0.064410
v 0.103920 1.530000 -0.030660
v 0.051960 1.530000 0.003090
v -0.051960 1.530000 0.003090
v -0.103920 1.530000 -0.030660
v -0.051960 1.530000 -0.064410
v 0.051960 1.530000 -0.064410
v 0.000000 1.630000 -0.030660
v 0.000000 0.134880 -0.054760
v 0.247390 1.323260 -0.165860
v -0.046640 0.147070 -0.028280
v 0.200750 1.335450 -0.139380
v -0.046640 0.152180 0.026480
v 0.200750 1.340570 -0.084620
v 0.000000 0.145120 0.054760
v 0.247390 1.333500 -0.056340
v 0.046640 0.132930 0.028280
v 0.294030 1.321320 -0.082820
v 0.046640 0.127820 -0.026480
v 0.294030 1.316200 -0.137580
v 0.247390 1.208380 -0.111100
v 0.351320 1.308380 -0.111100
v 0.299350 1.308380 -0.077350
v 0.195430 1.308380 -0.077350
v 0.143470 1.308380 -0.111100
v 0.195430 1.308380 -0.144850
v 0.299350 1.308380 -0.144850
v 0.351320 1.508380 -0.111100
v 0.299350 1.508380 -0.077350
v 0.195430 1.508380 -0.077350
v 0.143470 1.508380 -0.111100
v 0.195430 1.508380 -0.144850
v 0.299350 1.508380 -0.144850
v 0.247390 1.608380 -0.111100
v 0.000000 0.142890 -0.054920
v 0.450770 1.270260 0.004370
v -0.044240 0.159080 -0.026530
v 0.406530 1.286460 0.032760
v -0.044240 0.156190 0.028390
v 0.406530 1.283570 0.087680
v 0.000000 0.137110 0.054920
v 0.450770 1.264490 0.114220
v 0.044240 0.120920 0.026530
v 0.495000 1.248290 0.085830
v 0.044240 0.123810 -0.028390
v 0.495000 1.251180 0.030900
v 0.450770 1.147380 0.059290
v 0.554690 1.247380 0.059290
v 0.502730 1.247380 0.093040
v 0.398810 1.247380 0.093040
v 0.346850 1.247380 0.059290
v 0.398810 1.247380 0.025540
v 0.502730 1.247380 0.025540
v 0.554690 1.447380 0.059290
v 0.502730 1.447380 0.093040
v 0.398810 1.447380 0.093040
v 0.346850 1.447380 0.059290
v 0.398810 1.447380 0.025540
v 0.502730 1.447380 0.025540
v 0.450770 1.547380 0.059290
vn -0.0000 -1.0000 -0.0000
vn 0.8330 -0.5533 -0.0000
vn 0.5194 -0.5533 0.6513
vn -0.1854 -0.5533 0.8121
vn -0.7505 -0.5533 0.3614
vn -0.7505 -0.5533 -0.3614
vn -0.1854 -0.5533 -0.8121
vn 0.5194 -0.5533 -0.6513
vn 0.8330 0.5533 -0.0000
vn 0.5194 0.5533 0.6513
vn -0.1854 0.5533 0.8121
vn -0.7505 0.5533 0.3614
vn -0.7505 0.5533 -0.3614
vn -0.1854 0.5533 -0.8121
vn 0.5194 0.5533 -0.6513
vn -0.0000 1.0000 -0.0000
vn 0.2264 -0.5664 -0.7924
vn -0.2265 0.5665 -0.7923
vn -0.4108 -0.8212 -0.3962
vn -0.8637 0.3116 -0.3962
vn -0.4108 -0.8211 0.3962
vn -0.8637 0.3116 0.3962
vn 0.2264 -0.5664 0.7924
vn -0.2265 0.5664 0.7924
vn 0.8636 -0.3117 0.3962
vn 0.4108 0.8211 0.3962
vn 0.8636 -0.3117 -0.3962
vn 0.4107 0.8212 -0.3962
vn 0.9435 -0.3315 -0.0000
vn 0.3012 -0.2187 0.9282
vn -0.3012 -0.2187 0.9282
vn -0.9435 -0.3315 -0.0000
vn -0.3012 -0.2187 -0.9282
vn 0.3012 -0.2187 -0.9282
vn 0.9435 0.3315 -0.0000
vn 0.3012 0.2187 0.9282
vn -0.3012 0.2187 0.9282
vn -0.9435 0.3315 -0.0000
vn -0.3012 0.2187 -0.9282
vn 0.3012 0.2187 -0.9282
vn 0.1237 -0.5154 -0.8480
vn -0.1237 0.6732 -0.7290
vn -0.5483 -0.6934 -0.4676
vn -0.7957 0.4953 -0.3486
vn -0.5483 -0.7723 0.3208
vn -0.7957 0.4164 0.4398
vn 0.1237 -0.6733 0.7290
vn -0.1238 0.5153 0.8480
vn 0.7957 -0.4953 0.3486
vn 0.5482 0.6934 0.4676
vn 0.7957 -0.4164 -0.4399
vn 0.5482 0.7723 -0.3208
vn -0.3011 -0.2187 0.9282
vn -0.3011 -0.2187 -0.9282
vn -0.3011 0.2187 0.9282
vn -0.3011 0.2187 -0.9282
vn -0.0000 -0.6299 -0.7767
vn -0.0000 0.5898 -0.8075
vn -0.6862 -0.6199 -0.3806
vn -0.6863 0.5997 -0.4115
vn -0.6863 -0.5997 0.4115
vn -0.6862 0.6199 0.3806
vn -0.0000 -0.5898 0.8075
vn -0.0000 0.6299 0.7767
vn 0.6863 -0.5997 0.4115
vn 0.6862 0.6199 0.3806
vn 0.6862 -0.6199 -0.3806
vn 0.6863 0.5997 -0.4115
vn -0.1238 -0.6685 -0.7334
vn 0.1238 0.5209 -0.8446
vn -0.7958 -0.4928 -0.3519
vn -0.5481 0.6965 -0.4631
vn -0.7958 -0.4192 0.4371
vn -0.5481 0.7703 0.3259
vn -0.1238 -0.5209 0.8446
vn 0.1238 0.6684 0.7334
vn 0.5482 -0.6965 0.4630
vn 0.7957 0.4930 0.3518
vn 0.5482 -0.7702 -0.3260
vn 0.7958 0.4192 -0.4371
vn 0.3011 -0.2187 0.9282
vn 0.3011 -0.2187 -0.9282
vn 0.3011 0.2187 0.9282
vn 0.3011 0.2187 -0.9282
vn -0.2262 -0.5241 -0.8211
vn 0.2262 0.6073 -0.7616
vn -0.8635 -0.2908 -0.4121
vn -0.4111 0.8406 -0.3526
vn -0.8635 -0.3325 0.3793
vn -0.4112 0.7990 0.4388
vn -0.2261 -0.6074 0.7615
vn 0.2262 0.5241 0.8211
vn 0.4112 -0.8406 0.3525
vn 0.8635 0.2907 0.4120
vn 0.4112 -0.7990 -0.4388
vn 0.8635 0.3324 -0.3793
s 1
usemtl verdant_fibre
f 1//1 2//2 3//3
f 1//1 3//3 4//4
f 1//1 4//4 5//5
f 1//1 5//5 6//6
f 1//1 6//6 7//7
f 1//1 7//7 8//8
f 1//1 8//8 2//2
f 9//9 3//3 2//2
f 10//10 4//4 3//3
f 11//11 5//5 4//4
f 12//12 6//6 5//5
f 13//13 7//7 6//6
f 14//14 8//8 7//7
f 15//15 2//2 8//8
f 9//9 16//16 10//10
f 10//10 16//16 11//11
f 11//11 16//16 12//12
f 12//12 16//16 13//13
f 13//13 16//16 14//14
f 14//14 16//16 15//15
f 15//15 16//16 9//9
f 9//9 10//10 3//3
f 10//10 11//11 4//4
f 11//11 12//12 5//5
f 12//12 13//13 6//6
f 13//13 14//14 7//7
f 14//14 15//15 8//8
f 15//15 9//9 2//2
usemtl verdant_membrane
f 25//25 21//21 17//17
f 20//20 24//24 28//28
f 17//17 20//20 18//18
f 21//21 20//20 19//19
f 23//23 22//22 21//21
f 23//23 26//26 24//24
f 27//27 26//26 25//25
f 17//17 28//28 27//27
f 29//1 30//29 31//30
f 29//1 31//30 32//31
f 29//1 32//31 33//32
f 29//1 33//32 34//33
f 29//1 34//33 35//34
f 29//1 35//34 30//29
f 36//35 31//30 30//29
f 37//36 32//31 31//30
f 38//37 33//32 32//31
f 39//38 34//33 33//32
f 40//39 35//34 34//33
f 41//40 30//29 35//34
f 36//35 42//16 37//36
f 37//36 42//16 38//37
f 38//37 42//16 39//38
f 39//38 42//16 40//39
f 40//39 42//16 41//40
f 41//40 42//16 36//35
f 51//49 47//45 43//41
f 46//44 50//48 54//52
f 45//43 44//42 43//41
f 47//45 46//44 45//43
f 47//45 50//48 48//46
f 51//49 50//48 49//47
f 51//49 54//52 52//50
f 53//51 44//42 54//52
f 55//1 56//29 57//30
f 55//1 57//30 58//53
f 55//1 58//53 59//32
f 55//1 59//32 60//54
f 55//1 60//54 61//34
f 55//1 61//34 56//29
f 62//35 57//30 56//29
f 63//36 58//53 57//30
f 64//55 59//32 58//53
f 65//38 60//54 59//32
f 66//56 61//34 60//54
f 67//40 56//29 61//34
f 62//35 68//16 63//36
f 63//36 68//16 64//55
f 64//55 68//16 65//38
f 65//38 68//16 66//56
f 66//56 68//16 67//40
f 67//40 68//16 62//35
f 77//65 73//61 69//57
f 72//60 76//64 80//68
f 69//57 72//60 70//58
f 73//61 72//60 71//59
f 73//61 76//64 74//62
f 77//65 76//64 75//63
f 77//65 80//68 78//66
f 69//57 80//68 79//67
f 81//1 82//29 83//30
f 81//1 83//30 84//31
f 81//1 84//31 85//32
f 81//1 85//32 86//33
f 81//1 86//33 87//34
f 81//1 87//34 82//29
f 88//35 83//30 82//29
f 89//36 84//31 83//30
f 90//37 85//32 84//31
f 91//38 86//33 85//32
f 92//39 87//34 86//33
f 93//40 82//29 87//34
f 88//35 94//16 89//36
f 89//36 94//16 90//37
f 90//37 94//16 91//38
f 91//38 94//16 92//39
f 92//39 94//16 93//40
f 93//40 94//16 88//35
f 103//77 99//73 95//69
f 98//72 102//76 106//80
f 97//71 96//70 95//69
f 97//71 100//74 98//72
f 101//75 100//74 99//73
f 101//75 104//78 102//76
f 105//79 104//78 103//77
f 105//79 96//70 106//80
f 107//1 108//29 109//81
f 107//1 109//81 110//31
f 107//1 110//31 111//32
f 107//1 111//32 112//33
f 107//1 112//33 113//82
f 107//1 113//82 108//29
f 114//35 109//81 108//29
f 115//83 110//31 109//81
f 116//37 111//32 110//31
f 117//38 112//33 111//32
f 118//39 113//82 112//33
f 119//84 108//29 113//82
f 114//35 120//16 115//83
f 115//83 120//16 116//37
f 116//37 120//16 117//38
f 117//38 120//16 118//39
f 118//39 120//16 119//84
f 119//84 120//16 114//35
f 129//93 125//89 121//85
f 124//88 128//92 132//96
f 121//85 124//88 122//86
f 123//87 126//90 124//88
f 127//91 126//90 125//89
f 127//91 130//94 128//92
f 131//95 130//94 129//93
f 131//95 122//86 132//96
f 133//1 134//29 135//30
f 133//1 135//30 136//31
f 133//1 136//31 137//32
f 133//1 137//32 138//33
f 133//1 138//33 139//34
f 133//1 139//34 134//29
f 140//35 135//30 134//29
f 141//36 136//31 135//30
f 142//37 137//32 136//31
f 143//38 138//33 137//32
f 144//39 139//34 138//33
f 145//40 134//29 139//34
f 140//35 146//16 141//36
f 141//36 146//16 142//37
f 142//37 146//16 143//38
f 143//38 146//16 144//39
f 144//39 146//16 145//40
f 145//40 146//16 140//35
f 17//17 27//27 25//25
f 25//25 23//23 21//21
f 21//21 19//19 17//17
f 28//28 18//18 20//20
f 20//20 22//22 24//24
f 24//24 26//26 28//28
f 17//17 19//19 20//20
f 21//21 22//22 20//20
f 23//23 24//24 22//22
f 23//23 25//25 26//26
f 27//27 28//28 26//26
f 17//17 18//18 28//28
f 36//35 37//36 31//30
f 37//36 38//37 32//31
f 38//37 39//38 33//32
f 39//38 40//39 34//33
f 40//39 41//40 35//34
f 41//40 36//35 30//29
f 43//41 53//51 51//49
f 51//49 49//47 47//45
f 47//45 45//43 43//41
f 54//52 44//42 46//44
f 46//44 48//46 50//48
f 50//48 52//50 54//52
f 45//43 46//44 44//42
f 47//45 48//46 46//44
f 47//45 49//47 50//48
f 51//49 52//50 50//48
f 51//49 53//51 54//52
f 53//51 43//41 44//42
f 62//35 63//36 57//30
f 63//36 64//55 58//53
f 64//55 65//38 59//32
f 65//38 66//56 60//54
f 66//56 67//40 61//34
f 67//40 62//35 56//29
f 69//57 79//67 77//65
f 77//65 75//63 73//61
f 73//61 71//59 69//57
f 80//68 70//58 72//60
f 72//60 74//62 76//64
f 76//64 78//66 80//68
f 69//57 71//59 72//60
f 73//61 74//62 72//60
f 73//61 75//63 76//64
f 77//65 78//66 76//64
f 77//65 79//67 80//68
f 69//57 70//58 80//68
f 88//35 89//36 83//30
f 89//36 90//37 84//31
f 90//37 91//38 85//32
f 91//38 92//39 86//33
f 92//39 93//40 87//34
f 93//40 88//35 82//29
f 95//69 105//79 103//77
f 103//77 101//75 99//73
f 99//73 97//71 95//69
f 106//80 96//70 98//72
f 98//72 100//74 102//76
f 102//76 104//78 106//80
f 97//71 98//72 96//70
f 97//71 99//73 100//74
f 101//75 102//76 100//74
f 101//75 103//77 104//78
f 105//79 106//80 104//78
f 105//79 95//69 96//70
f 114//35 115//83 109//81
f 115//83 116//37 110//31
f 116//37 117//38 111//32
f 117//38 118//39 112//33
f 118//39 119//84 113//82
f 119//84 114//35 108//29
f 121//85 131//95 129//93
f 129//93 127//91 125//89
f 125//89 123//87 121//85
f 132//96 122//86 124//88
f 124//88 126//90 128//92
f 128//92 130//94 132//96
f 121//85 123//87 124//88
f 123//87 125//89 126//90
f 127//91 128//92 126//90
f 127//91 129//93 130//94
f 131//95 132//96 130//94
f 131//95 121//85 122//86
f 140//35 141//36 135//30
f 141//36 142//37 136//31
f 142//37 143//38 137//32
f 143//38 144//39 138//33
f 144//39 145//40 139//34
f 145//40 140//35 134//29
