# Blender 5.2.1 LTS
# www.blender.org
mtllib plant_ribbon_a.mtl
o plant_ribbon_a
v 0.000000 0.000000 0.000000
v 0.329090 0.065000 -0.000000
v 0.205180 0.065000 0.257290
v -0.073230 0.065000 0.320840
v -0.296500 0.065000 0.142790
v -0.296500 0.065000 -0.142790
v -0.073230 0.065000 -0.320840
v 0.205180 0.065000 -0.257290
v 0.329090 0.195000 -0.000000
v 0.205180 0.195000 0.257290
v -0.073230 0.195000 0.320840
v -0.296500 0.195000 0.142790
v -0.296500 0.195000 -0.142790
v -0.073230 0.195000 -0.320840
v 0.205180 0.195000 -0.257290
v 0.000000 0.260000 -0.000000
v 0.180000 0.127170 -0.044430
v 0.300600 0.807170 0.065300
v 0.137840 0.129500 -0.012550
v 0.258440 0.809500 0.097170
v 0.153950 0.118700 0.036670
v 0.274550 0.798700 0.146390
v 0.206050 0.109700 0.035210
v 0.326650 0.789700 0.144940
v 0.222160 0.114930 -0.014900
v 0.342760 0.794930 0.094820
v 0.300600 0.808470 0.075770
v 0.367120 1.608470 0.275260
v 0.267420 0.805210 0.099880
v 0.333950 1.605210 0.299380
v 0.280090 0.794750 0.137600
v 0.346620 1.594750 0.337100
v 0.321110 0.791540 0.136800
v 0.387630 1.591540 0.336300
v 0.333780 0.800020 0.098590
v 0.400300 1.600020 0.298080
v 0.055620 0.129610 0.127230
v -0.011470 0.809610 0.275830
v 0.013020 0.118960 0.156730
v -0.054070 0.798960 0.305330
v 0.029290 0.109750 0.206210
v -0.037790 0.789750 0.354820
v 0.081950 0.114710 0.207300
v 0.014860 0.794710 0.355900
v 0.098220 0.126980 0.158480
v 0.031130 0.806980 0.307090
v -0.011470 0.805400 0.285210
v -0.180640 1.605400 0.410130
v -0.044050 0.794940 0.308060
v -0.213230 1.594940 0.432980
v -0.031600 0.791470 0.347120
v -0.200780 1.591470 0.472040
v 0.008670 0.799790 0.348420
v -0.160500 1.599790 0.473340
v 0.021120 0.808390 0.310160
v -0.148060 1.608390 0.435080
v -0.145620 0.118820 0.060820
v -0.307690 0.798820 0.042930
v -0.187260 0.109720 0.092160
v -0.349320 0.789720 0.074280
v -0.171350 0.114830 0.142360
v -0.333420 0.794830 0.124470
v -0.119890 0.127090 0.142030
v -0.281960 0.807090 0.124150
v -0.103990 0.129550 0.091640
v -0.266050 0.809550 0.073750
v -0.307690 0.794710 0.053320
v -0.478770 1.594710 -0.068980
v -0.340250 0.791560 0.078270
v -0.511330 1.591560 -0.044030
v -0.327810 0.800070 0.116550
v -0.498900 1.600070 -0.005740
v -0.287560 0.808480 0.115260
v -0.458640 1.608480 -0.007030
v -0.275120 0.805170 0.076180
v -0.446200 1.605170 -0.046110
v -0.145620 0.109710 -0.149610
v -0.178690 0.789710 -0.309270
v -0.188370 0.114850 -0.118880
v -0.221440 0.794850 -0.278530
v -0.172040 0.127100 -0.070070
v -0.205110 0.807100 -0.229730
v -0.119200 0.129540 -0.070650
v -0.152270 0.809540 -0.230300
v -0.102870 0.118790 -0.119800
v -0.135940 0.798790 -0.279460
v -0.178690 0.791490 -0.299410
v -0.115250 1.591490 -0.499910
v -0.211880 0.799850 -0.276570
v -0.148440 1.599850 -0.477070
v -0.199210 0.808410 -0.238380
v -0.135760 1.608410 -0.438880
v -0.158180 0.805350 -0.237610
v -0.094740 1.605350 -0.438110
v -0.145500 0.794890 -0.275330
v -0.082060 1.594890 -0.475830
v 0.055620 0.114690 -0.215880
v 0.197250 0.794690 -0.296670
v 0.013710 0.126970 -0.186020
v 0.155340 0.806970 -0.266810
v 0.029720 0.129610 -0.135670
v 0.171340 0.809610 -0.216460
v 0.081530 0.118980 -0.134410
v 0.223150 0.798980 -0.215200
v 0.097530 0.109750 -0.183980
v 0.239160 0.789750 -0.264770
v 0.197250 0.799930 -0.286980
v 0.407540 1.599930 -0.288600
v 0.165050 0.808440 -0.262810
v 0.375340 1.608440 -0.264430
v 0.177350 0.805290 -0.223670
v 0.387640 1.605290 -0.225300
v 0.217140 0.794830 -0.223650
v 0.427430 1.594830 -0.225270
v 0.229440 0.791520 -0.262780
v 0.439730 1.591520 -0.264400
vn -0.0000 -1.0000 -0.0000
vn 0.8283 -0.5603 -0.0000
vn 0.5164 -0.5603 0.6476
vn -0.1843 -0.5603 0.8075
vn -0.7463 -0.5603 0.3594
vn -0.7463 -0.5603 -0.3594
vn -0.1843 -0.5603 -0.8076
vn 0.5165 -0.5603 -0.6476
vn 0.8283 0.5603 -0.0000
vn 0.5165 0.5603 0.6476
vn -0.1843 0.5603 0.8076
vn -0.7463 0.5603 0.3594
vn -0.7463 0.5603 -0.3594
vn -0.1843 0.5603 -0.8075
vn 0.5164 0.5603 -0.6476
vn -0.0000 1.0000 -0.0000
vn -0.1027 -0.4513 -0.8864
vn 0.1027 0.7073 -0.6994
vn -0.8552 -0.4097 -0.3174
vn -0.6497 0.7489 -0.1306
vn -0.5677 -0.6025 0.5611
vn -0.3623 0.5561 0.7480
vn 0.3623 -0.7632 0.5351
vn 0.5677 0.3954 0.7221
vn 0.6498 -0.6698 -0.3594
vn 0.8552 0.4887 -0.1725
vn -0.0478 -0.3817 -0.9230
vn 0.0478 0.7705 -0.6357
vn -0.8093 -0.4565 -0.3697
vn -0.7135 0.6958 -0.0822
vn -0.5185 -0.6965 0.4960
vn -0.4227 0.4557 0.7833
vn 0.4227 -0.7702 0.4776
vn 0.5185 0.3820 0.7650
vn 0.7135 -0.5756 -0.3994
vn 0.8093 0.5766 -0.1120
vn 0.0571 -0.4078 -0.9113
vn -0.0571 0.7508 -0.6581
vn -0.7032 -0.5979 -0.3847
vn -0.8175 0.5607 -0.1315
vn -0.4128 -0.7623 0.4985
vn -0.5270 0.3963 0.7518
vn 0.5271 -0.6738 0.5179
vn 0.4128 0.4848 0.7711
vn 0.8175 -0.4547 -0.3535
vn 0.7032 0.7038 -0.1002
vn 0.1218 -0.4522 -0.8836
vn -0.1218 0.7001 -0.7036
vn -0.6259 -0.6922 -0.3592
vn -0.8696 0.4601 -0.1793
vn -0.3402 -0.7719 0.5371
vn -0.5840 0.3804 0.7171
vn 0.5839 -0.5810 0.5670
vn 0.3403 0.5713 0.7468
vn 0.8695 -0.3836 -0.3110
vn 0.6260 0.7688 -0.1312
vn 0.1381 -0.6004 -0.7877
vn -0.1382 0.5582 -0.8181
vn -0.6051 -0.7628 -0.2283
vn -0.8812 0.3958 -0.2587
vn -0.3211 -0.6716 0.6677
vn -0.5974 0.4870 0.6372
vn 0.5974 -0.4528 0.6619
vn 0.3211 0.7058 0.6315
vn 0.8811 -0.4089 -0.2375
vn 0.6051 0.7497 -0.2680
vn 0.1231 -0.6975 -0.7059
vn -0.1233 0.4547 -0.8821
vn -0.6242 -0.7698 -0.1333
vn -0.8705 0.3825 -0.3096
vn -0.3386 -0.5745 0.7452
vn -0.5852 0.5778 0.5690
vn 0.5851 -0.3815 0.7156
vn 0.3387 0.7708 0.5395
vn 0.8706 -0.4574 -0.1812
vn 0.6242 0.6948 -0.3573
vn 0.0282 -0.7629 -0.6459
vn -0.0282 0.3956 -0.9180
vn -0.7349 -0.6712 -0.0974
vn -0.7912 0.4874 -0.3693
vn -0.4433 -0.4525 0.7737
vn -0.4998 0.7060 0.5017
vn 0.4998 -0.4090 0.7635
vn 0.4434 0.7496 0.4915
vn 0.7912 -0.6008 -0.1138
vn 0.7349 0.5577 -0.3859
vn -0.0457 -0.7714 -0.6347
vn 0.0457 0.3809 -0.9235
vn -0.8074 -0.5796 -0.1107
vn -0.7159 0.5727 -0.3993
vn -0.5165 -0.3831 0.7658
vn -0.4250 0.7692 0.4772
vn 0.4250 -0.4533 0.7835
vn 0.5164 0.6990 0.4948
vn 0.7159 -0.6933 -0.0821
vn 0.8074 0.4589 -0.3709
vn -0.1207 -0.6740 -0.7288
vn 0.1206 0.4845 -0.8664
vn -0.8687 -0.4549 -0.1959
vn -0.6274 0.7037 -0.3335
vn -0.5829 -0.4078 0.7028
vn -0.3418 0.7508 0.5653
vn 0.3418 -0.5975 0.7254
vn 0.5830 0.5610 0.5877
vn 0.6273 -0.7623 -0.1594
vn 0.8687 0.3963 -0.2970
vn -0.1514 -0.5777 -0.8021
vn 0.1514 0.5745 -0.8044
vn -0.8902 -0.3825 -0.2474
vn -0.5874 0.7698 -0.2497
vn -0.6080 -0.4547 0.6508
vn -0.3052 0.6975 0.6483
vn 0.3052 -0.6948 0.6512
vn 0.6080 0.4574 0.6490
vn 0.5874 -0.7708 -0.2466
vn 0.8902 0.3815 -0.2489
s 1
usemtl verdant_fibre
f 1//1 2//2 3//3
f 1//1 3//3 4//4
f 1//1 4//4 5//5
f 1//1 5//5 6//6
f 1//1 6//6 7//7
f 1//1 7//7 8//8
f 1//1 8//8 2//2
f 9//9 3//3 2//2
f 10//10 4//4 3//3
f 11//11 5//5 4//4
f 12//12 6//6 5//5
f 13//13 7//7 6//6
f 14//14 8//8 7//7
f 15//15 2//2 8//8
f 9//9 16//16 10//10
f 10//10 16//16 11//11
f 11//11 16//16 12//12
f 12//12 16//16 13//13
f 13//13 16//16 14//14
f 14//14 16//16 15//15
f 15//15 16//16 9//9
f 9//9 10//10 3//3
f 10//10 11//11 4//4
f 11//11 12//12 5//5
f 12//12 13//13 6//6
f 13//13 14//14 7//7
f 14//14 15//15 8//8
f 15//15 9//9 2//2
usemtl verdant_membrane
f 23//23 19//19 17//17
f 20//20 24//24 26//26
f 17//17 20//20 18//18
f 19//19 22//22 20//20
f 23//23 22//22 21//21
f 25//25 24//24 23//23
f 25//25 18//18 26//26
f 33//33 29//29 27//27
f 30//30 34//34 36//36
f 27//27 30//30 28//28
f 31//31 30//30 29//29
f 33//33 32//32 31//31
f 35//35 34//34 33//33
f 27//27 36//36 35//35
f 43//43 39//39 37//37
f 40//40 44//44 46//46
f 37//37 40//40 38//38
f 39//39 42//42 40//40
f 43//43 42//42 41//41
f 43//43 46//46 44//44
f 37//37 46//46 45//45
f 53//53 49//49 47//47
f 50//50 54//54 56//56
f 47//47 50//50 48//48
f 49//49 52//52 50//50
f 53//53 52//52 51//51
f 53//53 56//56 54//54
f 47//47 56//56 55//55
f 63//63 59//59 57//57
f 60//60 64//64 66//66
f 57//57 60//60 58//58
f 59//59 62//62 60//60
f 63//63 62//62 61//61
f 63//63 66//66 64//64
f 57//57 66//66 65//65
f 73//73 69//69 67//67
f 70//70 74//74 76//76
f 67//67 70//70 68//68
f 69//69 72//72 70//70
f 71//71 74//74 72//72
f 75//75 74//74 73//73
f 67//67 76//76 75//75
f 83//83 79//79 77//77
f 80//80 84//84 86//86
f 79//79 78//78 77//77
f 79//79 82//82 80//80
f 83//83 82//82 81//81
f 83//83 86//86 84//84
f 85//85 78//78 86//86
f 93//93 89//89 87//87
f 90//90 94//94 96//96
f 89//89 88//88 87//87
f 89//89 92//92 90//90
f 93//93 92//92 91//91
f 93//93 96//96 94//94
f 87//87 96//96 95//95
f 103//103 99//99 97//97
f 100//100 104//104 106//106
f 99//99 98//98 97//97
f 99//99 102//102 100//100
f 103//103 102//102 101//101
f 103//103 106//106 104//104
f 97//97 106//106 105//105
f 113//113 109//109 107//107
f 110//110 114//114 116//116
f 107//107 110//110 108//108
f 111//111 110//110 109//109
f 111//111 114//114 112//112
f 115//115 114//114 113//113
f 115//115 108//108 116//116
f 17//17 25//25 23//23
f 23//23 21//21 19//19
f 26//26 18//18 20//20
f 20//20 22//22 24//24
f 17//17 19//19 20//20
f 19//19 21//21 22//22
f 23//23 24//24 22//22
f 25//25 26//26 24//24
f 25//25 17//17 18//18
f 27//27 35//35 33//33
f 33//33 31//31 29//29
f 36//36 28//28 30//30
f 30//30 32//32 34//34
f 27//27 29//29 30//30
f 31//31 32//32 30//30
f 33//33 34//34 32//32
f 35//35 36//36 34//34
f 27//27 28//28 36//36
f 37//37 45//45 43//43
f 43//43 41//41 39//39
f 46//46 38//38 40//40
f 40//40 42//42 44//44
f 37//37 39//39 40//40
f 39//39 41//41 42//42
f 43//43 44//44 42//42
f 43//43 45//45 46//46
f 37//37 38//38 46//46
f 47//47 55//55 53//53
f 53//53 51//51 49//49
f 56//56 48//48 50//50
f 50//50 52//52 54//54
f 47//47 49//49 50//50
f 49//49 51//51 52//52
f 53//53 54//54 52//52
f 53//53 55//55 56//56
f 47//47 48//48 56//56
f 57//57 65//65 63//63
f 63//63 61//61 59//59
f 66//66 58//58 60//60
f 60//60 62//62 64//64
f 57//57 59//59 60//60
f 59//59 61//61 62//62
f 63//63 64//64 62//62
f 63//63 65//65 66//66
f 57//57 58//58 66//66
f 67//67 75//75 73//73
f 73//73 71//71 69//69
f 76//76 68//68 70//70
f 70//70 72//72 74//74
f 67//67 69//69 70//70
f 69//69 71//71 72//72
f 71//71 73//73 74//74
f 75//75 76//76 74//74
f 67//67 68//68 76//76
f 77//77 85//85 83//83
f 83//83 81//81 79//79
f 86//86 78//78 80//80
f 80//80 82//82 84//84
f 79//79 80//80 78//78
f 79//79 81//81 82//82
f 83//83 84//84 82//82
f 83//83 85//85 86//86
f 85//85 77//77 78//78
f 87//87 95//95 93//93
f 93//93 91//91 89//89
f 96//96 88//88 90//90
f 90//90 92//92 94//94
f 89//89 90//90 88//88
f 89//89 91//91 92//92
f 93//93 94//94 92//92
f 93//93 95//95 96//96
f 87//87 88//88 96//96
f 97//97 105//105 103//103
f 103//103 101//101 99//99
f 106//106 98//98 100//100
f 100//100 102//102 104//104
f 99//99 100//100 98//98
f 99//99 101//101 102//102
f 103//103 104//104 102//102
f 103//103 105//105 106//106
f 97//97 98//98 106//106
f 107//107 115//115 113//113
f 113//113 111//111 109//109
f 116//116 108//108 110//110
f 110//110 112//112 114//114
f 107//107 109//109 110//110
f 111//111 112//112 110//110
f 111//111 113//113 114//114
f 115//115 116//116 114//114
f 115//115 107//107 108//108
