# Blender 5.2.1 LTS
# www.blender.org
mtllib plant_ribbon_b.mtl
o plant_ribbon_b
v 0.000000 0.000000 0.000000
v 0.329090 0.065000 -0.000000
v 0.205180 0.065000 0.257290
v -0.073230 0.065000 0.320840
v -0.296500 0.065000 0.142790
v -0.296500 0.065000 -0.142790
v -0.073230 0.065000 -0.320840
v 0.205180 0.065000 -0.257290
v 0.329090 0.195000 -0.000000
v 0.205180 0.195000 0.257290
v -0.073230 0.195000 0.320840
v -0.296500 0.195000 0.142790
v -0.296500 0.195000 -0.142790
v -0.073230 0.195000 -0.320840
v 0.205180 0.195000 -0.257290
v 0.000000 0.260000 -0.000000
v 0.180000 0.124880 -0.044730
v 0.300600 1.129880 0.064990
v 0.137500 0.126550 -0.013270
v 0.258100 1.131550 0.096450
v 0.153740 0.119160 0.036530
v 0.274340 1.124160 0.146260
v 0.206260 0.112930 0.035850
v 0.326860 1.117930 0.145580
v 0.222500 0.116470 -0.014370
v 0.343100 1.121470 0.095350
v 0.300600 1.131110 0.075260
v 0.367120 2.256110 0.274760
v 0.267370 1.128790 0.099420
v 0.333890 2.253790 0.298910
v 0.280060 1.121230 0.137820
v 0.346590 2.246230 0.337310
v 0.321140 1.118880 0.137400
v 0.387660 2.243880 0.336900
v 0.333830 1.124980 0.098740
v 0.400350 2.249980 0.298240
v 0.112230 0.127190 0.096310
v 0.101630 1.132190 0.259010
v 0.069430 0.121780 0.126930
v 0.058840 1.126780 0.289630
v 0.085780 0.113910 0.176620
v 0.075180 1.118910 0.339330
v 0.138680 0.114450 0.176710
v 0.128080 1.119450 0.339410
v 0.155020 0.122660 0.127070
v 0.144430 1.127660 0.289780
v 0.101630 1.130420 0.268850
v -0.012860 2.255420 0.445250
v 0.068510 1.123390 0.292230
v -0.045980 2.248390 0.468630
v 0.081160 1.118580 0.331090
v -0.033330 2.243580 0.507480
v 0.122100 1.122650 0.331720
v 0.007610 2.247650 0.508120
v 0.134750 1.129970 0.293260
v 0.020260 2.254970 0.469660
v -0.040050 0.124150 0.130680
v -0.173870 1.129150 0.223840
v -0.082480 0.115680 0.161120
v -0.216290 1.120680 0.254280
v -0.066270 0.113180 0.211420
v -0.200090 1.118180 0.304580
v -0.013830 0.120100 0.212060
v -0.147640 1.125100 0.305220
v 0.002370 0.126880 0.162160
v -0.131440 1.131880 0.255320
v -0.173870 1.125640 0.233650
v -0.383160 2.250640 0.254120
v -0.206590 1.119110 0.257720
v -0.415890 2.244110 0.278190
v -0.194090 1.120720 0.296890
v -0.403390 2.245720 0.317350
v -0.153640 1.128250 0.297030
v -0.362940 2.253250 0.317490
v -0.141140 1.131280 0.257940
v -0.350440 2.256280 0.278410
v -0.162170 0.117920 0.033150
v -0.318440 1.122920 -0.013390
v -0.204460 0.112800 0.064510
v -0.360730 1.117800 0.017980
v -0.188310 0.117630 0.114650
v -0.344580 1.122630 0.068120
v -0.136040 0.125740 0.114280
v -0.292300 1.130740 0.067740
v -0.119880 0.125920 0.063900
v -0.276150 1.130920 0.017370
v -0.318440 1.120350 -0.003130
v -0.464930 2.245350 -0.154000
v -0.351450 1.119340 0.021410
v -0.497950 2.244340 -0.129470
v -0.338840 1.126150 0.059980
v -0.485340 2.251150 -0.090900
v -0.298040 1.131370 0.059280
v -0.444530 2.256370 -0.091600
v -0.285430 1.127790 0.020280
v -0.431920 2.252790 -0.130600
v -0.162170 0.113310 -0.122600
v -0.223220 1.118310 -0.273790
v -0.204890 0.115390 -0.091470
v -0.265940 1.120390 -0.242660
v -0.188580 0.123850 -0.041860
v -0.249620 1.128850 -0.193050
v -0.135770 0.126980 -0.042330
v -0.196820 1.131980 -0.193520
v -0.119450 0.120470 -0.092230
v -0.180500 1.125470 -0.243420
v -0.223220 1.118620 -0.263700
v -0.196600 2.243620 -0.472300
v -0.256500 1.123790 -0.240060
v -0.229880 2.248790 -0.448670
v -0.243790 1.130630 -0.201530
v -0.217170 2.255630 -0.410140
v -0.202650 1.129690 -0.201360
v -0.176030 2.254690 -0.409960
v -0.189940 1.122270 -0.239780
v -0.163320 2.247270 -0.448380
v -0.040050 0.113700 -0.220040
v 0.040090 1.118700 -0.362040
v -0.082720 0.121390 -0.189730
v -0.002580 1.126390 -0.331720
v -0.066420 0.127150 -0.139730
v 0.013720 1.132150 -0.281720
v -0.013690 0.123030 -0.139150
v 0.066450 1.128030 -0.281140
v 0.002610 0.114720 -0.188780
v 0.082750 1.119720 -0.330780
v 0.040090 1.121620 -0.352320
v 0.219780 2.246620 -0.461560
v 0.007210 1.129160 -0.328750
v 0.186900 2.254160 -0.438000
v 0.019770 1.130950 -0.289610
v 0.199460 2.255950 -0.398860
v 0.060400 1.124520 -0.288980
v 0.240100 2.249520 -0.398230
v 0.072960 1.118750 -0.327740
v 0.252650 2.243750 -0.436990
v 0.112230 0.118840 -0.185710
v 0.273210 1.123840 -0.211590
v 0.069970 0.126410 -0.154800
v 0.230950 1.131410 -0.180680
v 0.086110 0.125120 -0.104440
v 0.247090 1.130120 -0.130320
v 0.138350 0.116760 -0.104230
v 0.299330 1.121760 -0.130100
v 0.154490 0.112880 -0.154460
v 0.315470 1.117880 -0.180330
v 0.273210 1.127250 -0.201530
v 0.470660 2.252250 -0.129160
v 0.240420 1.131430 -0.177030
v 0.437870 2.256430 -0.104660
v 0.252940 1.126720 -0.138120
v 0.450400 2.251720 -0.065750
v 0.293470 1.119640 -0.138570
v 0.490920 2.244640 -0.066200
v 0.306000 1.119960 -0.177770
v 0.503450 2.244960 -0.105390
vn -0.0000 -1.0000 -0.0000
vn 0.8283 -0.5603 -0.0000
vn 0.5164 -0.5603 0.6476
vn -0.1843 -0.5603 0.8075
vn -0.7463 -0.5603 0.3594
vn -0.7463 -0.5603 -0.3594
vn -0.1843 -0.5603 -0.8076
vn 0.5165 -0.5603 -0.6476
vn 0.8283 0.5603 -0.0000
vn 0.5165 0.5603 0.6476
vn -0.1843 0.5603 0.8076
vn -0.7463 0.5603 0.3594
vn -0.7463 0.5603 -0.3594
vn -0.1843 0.5603 -0.8075
vn 0.5164 0.5603 -0.6476
vn -0.0000 1.0000 -0.0000
vn -0.0706 -0.5009 -0.8626
vn 0.0706 0.6751 -0.7343
vn -0.8291 -0.4710 -0.3011
vn -0.6879 0.7049 -0.1727
vn -0.5393 -0.6030 0.5879
vn -0.3982 0.5731 0.7163
vn 0.3982 -0.7142 0.5757
vn 0.5393 0.4618 0.7042
vn 0.6880 -0.6509 -0.3207
vn 0.8291 0.5250 -0.1923
vn -0.0347 -0.4453 -0.8947
vn 0.0347 0.7258 -0.6870
vn -0.7972 -0.4985 -0.3404
vn -0.7280 0.6726 -0.1328
vn -0.5059 -0.6720 0.5408
vn -0.4367 0.4991 0.7485
vn 0.4368 -0.7260 0.5312
vn 0.5059 0.4451 0.7389
vn 0.7279 -0.5860 -0.3559
vn 0.7972 0.5852 -0.1483
vn 0.0062 -0.4596 -0.8881
vn -0.0062 0.7164 -0.6977
vn -0.7577 -0.5562 -0.3415
vn -0.7700 0.6198 -0.1511
vn -0.4659 -0.6967 0.5455
vn -0.4783 0.4794 0.7358
vn 0.4783 -0.6870 0.5470
vn 0.4659 0.4890 0.7374
vn 0.7700 -0.5405 -0.3390
vn 0.7577 0.6355 -0.1485
vn 0.0596 -0.4612 -0.8853
vn -0.0596 0.7099 -0.7018
vn -0.7005 -0.6226 -0.3488
vn -0.8196 0.5485 -0.1652
vn -0.4101 -0.7329 0.5428
vn -0.5294 0.4381 0.7265
vn 0.5294 -0.6396 0.5574
vn 0.4101 0.5315 0.7411
vn 0.8197 -0.4715 -0.3252
vn 0.7005 0.6995 -0.1416
vn 0.0783 -0.5139 -0.8543
vn -0.0783 0.6622 -0.7453
vn -0.6790 -0.6651 -0.3109
vn -0.8355 0.5110 -0.2019
vn -0.3897 -0.7097 0.5869
vn -0.5463 0.4663 0.6958
vn 0.5463 -0.5862 0.5982
vn 0.3898 0.5898 0.7072
vn 0.8355 -0.4652 -0.2924
vn 0.6790 0.7109 -0.1834
vn 0.1089 -0.5709 -0.8138
vn -0.1089 0.6003 -0.7924
vn -0.6420 -0.7207 -0.2614
vn -0.8599 0.4504 -0.2401
vn -0.3552 -0.6838 0.6374
vn -0.5731 0.4873 0.6588
vn 0.5731 -0.5110 0.6406
vn 0.3552 0.6601 0.6619
vn 0.8599 -0.4415 -0.2563
vn 0.6421 0.7297 -0.2350
vn 0.0914 -0.6252 -0.7751
vn -0.0914 0.5508 -0.8296
vn -0.6634 -0.7166 -0.2153
vn -0.8463 0.4595 -0.2697
vn -0.3751 -0.6304 0.6796
vn -0.5579 0.5457 0.6253
vn 0.5579 -0.4856 0.6730
vn 0.3751 0.6904 0.6185
vn 0.8463 -0.4824 -0.2261
vn 0.6634 0.6936 -0.2806
vn 0.0763 -0.6923 -0.7176
vn -0.0762 0.4788 -0.8746
vn -0.6814 -0.7154 -0.1545
vn -0.8338 0.4557 -0.3116
vn -0.3920 -0.5591 0.7306
vn -0.5445 0.6120 0.5736
vn 0.5445 -0.4393 0.7145
vn 0.3920 0.7318 0.5576
vn 0.8339 -0.5215 -0.1804
vn 0.6813 0.6495 -0.3375
vn 0.0358 -0.7074 -0.7059
vn -0.0357 0.4686 -0.8827
vn -0.7267 -0.6703 -0.1502
vn -0.7983 0.5058 -0.3271
vn -0.4357 -0.5192 0.7353
vn -0.5069 0.6568 0.5583
vn 0.5070 -0.4634 0.7268
vn 0.4355 0.7126 0.5500
vn 0.7982 -0.5796 -0.1638
vn 0.7268 0.5964 -0.3407
vn -0.0139 -0.7320 -0.6812
vn 0.0139 0.4391 -0.8983
vn -0.7776 -0.6133 -0.1387
vn -0.7498 0.5578 -0.3559
vn -0.4858 -0.4563 0.7455
vn -0.4582 0.7148 0.5283
vn 0.4582 -0.4779 0.7494
vn 0.4858 0.6932 0.5324
vn 0.7499 -0.6482 -0.1323
vn 0.7775 0.5229 -0.3494
vn -0.0468 -0.7004 -0.7122
vn 0.0469 0.4756 -0.8784
vn -0.8084 -0.5631 -0.1712
vn -0.7146 0.6128 -0.3372
vn -0.5175 -0.4604 0.7213
vn -0.4238 0.7157 0.5552
vn 0.4237 -0.5339 0.7317
vn 0.5175 0.6421 0.5656
vn 0.7147 -0.6822 -0.1542
vn 0.8084 0.4938 -0.3204
vn -0.0935 -0.6631 -0.7426
vn 0.0936 0.5080 -0.8563
vn -0.8480 -0.4901 -0.2018
vn -0.6609 0.6810 -0.3155
vn -0.5598 -0.4490 0.6964
vn -0.3727 0.7221 0.5828
vn 0.3727 -0.5966 0.7108
vn 0.5598 0.5745 0.5971
vn 0.6608 -0.7290 -0.1785
vn 0.8479 0.4421 -0.2924
vn -0.0942 -0.6087 -0.7878
vn 0.0942 0.5673 -0.8181
vn -0.8485 -0.4736 -0.2361
vn -0.6601 0.7024 -0.2664
vn -0.5603 -0.4967 0.6628
vn -0.3720 0.6793 0.6325
vn 0.3720 -0.6459 0.6666
vn 0.5603 0.5301 0.6364
vn 0.6601 -0.7151 -0.2299
vn 0.8485 0.4609 -0.2602
vn -0.1028 -0.5340 -0.8392
vn 0.1029 0.6371 -0.7638
vn -0.8552 -0.4380 -0.2770
vn -0.6496 0.7330 -0.2015
vn -0.5679 -0.5461 0.6159
vn -0.3623 0.6250 0.6914
vn 0.3622 -0.7086 0.6056
vn 0.5677 0.4626 0.6810
vn 0.6496 -0.7012 -0.2939
vn 0.8553 0.4699 -0.2184
s 1
usemtl verdant_fibre
f 1//1 2//2 3//3
f 1//1 3//3 4//4
f 1//1 4//4 5//5
f 1//1 5//5 6//6
f 1//1 6//6 7//7
f 1//1 7//7 8//8
f 1//1 8//8 2//2
f 9//9 3//3 2//2
f 10//10 4//4 3//3
f 11//11 5//5 4//4
f 12//12 6//6 5//5
f 13//13 7//7 6//6
f 14//14 8//8 7//7
f 15//15 2//2 8//8
f 9//9 16//16 10//10
f 10//10 16//16 11//11
f 11//11 16//16 12//12
f 12//12 16//16 13//13
f 13//13 16//16 14//14
f 14//14 16//16 15//15
f 15//15 16//16 9//9
f 9//9 10//10 3//3
f 10//10 11//11 4//4
f 11//11 12//12 5//5
f 12//12 13//13 6//6
f 13//13 14//14 7//7
f 14//14 15//15 8//8
f 15//15 9//9 2//2
usemtl verdant_membrane
f 23//23 19//19 17//17
f 20//20 24//24 26//26
f 19//19 18//18 17//17
f 19//19 22//22 20//20
f 21//21 24//24 22//22
f 25//25 24//24 23//23
f 25//25 18//18 26//26
f 33//33 29//29 27//27
f 30//30 34//34 36//36
f 27//27 30//30 28//28
f 29//29 32//32 30//30
f 33//33 32//32 31//31
f 33//33 36//36 34//34
f 27//27 36//36 35//35
f 43//43 39//39 37//37
f 40//40 44//44 46//46
f 37//37 40//40 38//38
f 41//41 40//40 39//39
f 41//41 44//44 42//42
f 45//45 44//44 43//43
f 37//37 46//46 45//45
f 53//53 49//49 47//47
f 50//50 54//54 56//56
f 49//49 48//48 47//47
f 49//49 52//52 50//50
f 53//53 52//52 51//51
f 55//55 54//54 53//53
f 55//55 48//48 56//56
f 63//63 59//59 57//57
f 60//60 64//64 66//66
f 59//59 58//58 57//57
f 61//61 60//60 59//59
f 61//61 64//64 62//62
f 63//63 66//66 64//64
f 57//57 66//66 65//65
f 73//73 69//69 67//67
f 70//70 74//74 76//76
f 67//67 70//70 68//68
f 69//69 72//72 70//70
f 73//73 72//72 71//71
f 73//73 76//76 74//74
f 67//67 76//76 75//75
f 83//83 79//79 77//77
f 80//80 84//84 86//86
f 79//79 78//78 77//77
f 79//79 82//82 80//80
f 81//81 84//84 82//82
f 85//85 84//84 83//83
f 85//85 78//78 86//86
f 93//93 89//89 87//87
f 90//90 94//94 96//96
f 87//87 90//90 88//88
f 89//89 92//92 90//90
f 93//93 92//92 91//91
f 95//95 94//94 93//93
f 95//95 88//88 96//96
f 103//103 99//99 97//97
f 100//100 104//104 106//106
f 97//97 100//100 98//98
f 101//101 100//100 99//99
f 101//101 104//104 102//102
f 105//105 104//104 103//103
f 97//97 106//106 105//105
f 113//113 109//109 107//107
f 110//110 114//114 116//116
f 109//109 108//108 107//107
f 109//109 112//112 110//110
f 113//113 112//112 111//111
f 115//115 114//114 113//113
f 115//115 108//108 116//116
f 123//123 119//119 117//117
f 120//120 124//124 126//126
f 119//119 118//118 117//117
f 119//119 122//122 120//120
f 123//123 122//122 121//121
f 125//125 124//124 123//123
f 125//125 118//118 126//126
f 133//133 129//129 127//127
f 130//130 134//134 136//136
f 129//129 128//128 127//127
f 129//129 132//132 130//130
f 131//131 134//134 132//132
f 133//133 136//136 134//134
f 127//127 136//136 135//135
f 143//143 139//139 137//137
f 140//140 144//144 146//146
f 139//139 138//138 137//137
f 139//139 142//142 140//140
f 143//143 142//142 141//141
f 143//143 146//146 144//144
f 145//145 138//138 146//146
f 153//153 149//149 147//147
f 150//150 154//154 156//156
f 149//149 148//148 147//147
f 149//149 152//152 150//150
f 153//153 152//152 151//151
f 153//153 156//156 154//154
f 147//147 156//156 155//155
f 17//17 25//25 23//23
f 23//23 21//21 19//19
f 26//26 18//18 20//20
f 20//20 22//22 24//24
f 19//19 20//20 18//18
f 19//19 21//21 22//22
f 21//21 23//23 24//24
f 25//25 26//26 24//24
f 25//25 17//17 18//18
f 27//27 35//35 33//33
f 33//33 31//31 29//29
f 36//36 28//28 30//30
f 30//30 32//32 34//34
f 27//27 29//29 30//30
f 29//29 31//31 32//32
f 33//33 34//34 32//32
f 33//33 35//35 36//36
f 27//27 28//28 36//36
f 37//37 45//45 43//43
f 43//43 41//41 39//39
f 46//46 38//38 40//40
f 40//40 42//42 44//44
f 37//37 39//39 40//40
f 41//41 42//42 40//40
f 41//41 43//43 44//44
f 45//45 46//46 44//44
f 37//37 38//38 46//46
f 47//47 55//55 53//53
f 53//53 51//51 49//49
f 56//56 48//48 50//50
f 50//50 52//52 54//54
f 49//49 50//50 48//48
f 49//49 51//51 52//52
f 53//53 54//54 52//52
f 55//55 56//56 54//54
f 55//55 47//47 48//48
f 57//57 65//65 63//63
f 63//63 61//61 59//59
f 66//66 58//58 60//60
f 60//60 62//62 64//64
f 59//59 60//60 58//58
f 61//61 62//62 60//60
f 61//61 63//63 64//64
f 63//63 65//65 66//66
f 57//57 58//58 66//66
f 67//67 75//75 73//73
f 73//73 71//71 69//69
f 76//76 68//68 70//70
f 70//70 72//72 74//74
f 67//67 69//69 70//70
f 69//69 71//71 72//72
f 73//73 74//74 72//72
f 73//73 75//75 76//76
f 67//67 68//68 76//76
f 77//77 85//85 83//83
f 83//83 81//81 79//79
f 86//86 78//78 80//80
f 80//80 82//82 84//84
f 79//79 80//80 78//78
f 79//79 81//81 82//82
f 81//81 83//83 84//84
f 85//85 86//86 84//84
f 85//85 77//77 78//78
f 87//87 95//95 93//93
f 93//93 91//91 89//89
f 96//96 88//88 90//90
f 90//90 92//92 94//94
f 87//87 89//89 90//90
f 89//89 91//91 92//92
f 93//93 94//94 92//92
f 95//95 96//96 94//94
f 95//95 87//87 88//88
f 97//97 105//105 103//103
f 103//103 101//101 99//99
f 106//106 98//98 100//100
f 100//100 102//102 104//104
f 97//97 99//99 100//100
f 101//101 102//102 100//100
f 101//101 103//103 104//104
f 105//105 106//106 104//104
f 97//97 98//98 106//106
f 107//107 115//115 113//113
f 113//113 111//111 109//109
f 116//116 108//108 110//110
f 110//110 112//112 114//114
f 109//109 110//110 108//108
f 109//109 111//111 112//112
f 113//113 114//114 112//112
f 115//115 116//116 114//114
f 115//115 107//107 108//108
f 117//117 125//125 123//123
f 123//123 121//121 119//119
f 126//126 118//118 120//120
f 120//120 122//122 124//124
f 119//119 120//120 118//118
f 119//119 121//121 122//122
f 123//123 124//124 122//122
f 125//125 126//126 124//124
f 125//125 117//117 118//118
f 127//127 135//135 133//133
f 133//133 131//131 129//129
f 136//136 128//128 130//130
f 130//130 132//132 134//134
f 129//129 130//130 128//128
f 129//129 131//131 132//132
f 131//131 133//133 134//134
f 133//133 135//135 136//136
f 127//127 128//128 136//136
f 137//137 145//145 143//143
f 143//143 141//141 139//139
f 146//146 138//138 140//140
f 140//140 142//142 144//144
f 139//139 140//140 138//138
f 139//139 141//141 142//142
f 143//143 144//144 142//142
f 143//143 145//145 146//146
f 145//145 137//137 138//138
f 147//147 155//155 153//153
f 153//153 151//151 149//149
f 156//156 148//148 150//150
f 150//150 152//152 154//154
f 149//149 150//150 148//148
f 149//149 151//151 152//152
f 153//153 154//154 152//152
f 153//153 155//155 156//156
f 147//147 148//148 156//156
