# Blender 5.2.1 LTS
# www.blender.org
mtllib river_debris_a.mtl
o river_debris_a
v -1.800000 -0.000000 -0.200000
v -0.500960 0.022500 -0.200000
v -0.749060 0.022500 0.079970
v -1.398580 0.022500 0.253000
v -2.201420 0.022500 0.253000
v -2.850940 0.022500 0.079970
v -3.099040 0.022500 -0.200000
v -2.850940 0.022500 -0.479970
v -2.201420 0.022500 -0.653000
v -1.398580 0.022500 -0.653000
v -0.749060 0.022500 -0.479970
v -0.500960 0.067500 -0.200000
v -0.749060 0.067500 0.079970
v -1.398580 0.067500 0.253000
v -2.201420 0.067500 0.253000
v -2.850940 0.067500 0.079970
v -3.099040 0.067500 -0.200000
v -2.850940 0.067500 -0.479970
v -2.201420 0.067500 -0.653000
v -1.398580 0.067500 -0.653000
v -0.749060 0.067500 -0.479970
v -1.800000 0.090000 -0.200000
v 0.500000 0.000000 0.300000
v 2.058850 0.022500 0.300000
v 1.761130 0.022500 0.656330
v 0.981710 0.022500 0.876550
v 0.018290 0.022500 0.876550
v -0.761130 0.022500 0.656330
v -1.058850 0.022500 0.300000
v -0.761130 0.022500 -0.056330
v 0.018290 0.022500 -0.276550
v 0.981710 0.022500 -0.276550
v 1.761130 0.022500 -0.056330
v 2.058850 0.067500 0.300000
v 1.761130 0.067500 0.656330
v 0.981710 0.067500 0.876550
v 0.018290 0.067500 0.876550
v -0.761130 0.067500 0.656330
v -1.058850 0.067500 0.300000
v -0.761130 0.067500 -0.056330
v 0.018290 0.067500 -0.276550
v 0.981710 0.067500 -0.276550
v 1.761130 0.067500 -0.056330
v 0.500000 0.090000 0.300000
v 2.100000 -0.000000 -0.450000
v 3.052630 0.022500 -0.450000
v 2.870690 0.022500 -0.205660
v 2.394380 0.022500 -0.054650
v 1.805620 0.022500 -0.054650
v 1.329310 0.022500 -0.205660
v 1.147370 0.022500 -0.450000
v 1.329310 0.022500 -0.694340
v 1.805620 0.022500 -0.845350
v 2.394380 0.022500 -0.845350
v 2.870690 0.022500 -0.694340
v 3.052630 0.067500 -0.450000
v 2.870690 0.067500 -0.205660
v 2.394380 0.067500 -0.054650
v 1.805620 0.067500 -0.054650
v 1.329310 0.067500 -0.205660
v 1.147370 0.067500 -0.450000
v 1.329310 0.067500 -0.694340
v 1.805620 0.067500 -0.845350
v 2.394380 0.067500 -0.845350
v 2.870690 0.067500 -0.694340
v 2.100000 0.090000 -0.450000
v -2.907600 0.140000 -0.470360
v -0.707600 0.150000 -0.260360
v -2.903490 0.070720 -0.510150
v -0.703490 0.080720 -0.300150
v -2.895890 0.070720 -0.589790
v -0.695890 0.080720 -0.379790
v -2.892400 0.140000 -0.629640
v -0.692400 0.150000 -0.419640
v -2.896510 0.209280 -0.589850
v -0.696510 0.219280 -0.379850
v -2.904110 0.209280 -0.510210
v -0.704110 0.219280 -0.300210
v -0.509520 0.160000 0.399550
v 1.790480 0.170000 0.619550
v -0.504390 0.073400 0.349810
v 1.795610 0.083400 0.569810
v -0.494870 0.073400 0.250260
v 1.805130 0.083400 0.470260
v -0.490480 0.160000 0.200450
v 1.809520 0.170000 0.420450
v -0.495610 0.246600 0.250190
v 1.804390 0.256600 0.470190
v -0.505130 0.246600 0.349740
v 1.794870 0.256600 0.569740
v 1.015910 0.140000 -0.131830
v 2.515910 0.150000 -0.481830
v 1.008340 0.079380 -0.166000
v 2.508340 0.089380 -0.516000
v 0.992430 0.079380 -0.234170
v 2.492430 0.089380 -0.584170
v 0.984090 0.140000 -0.268170
v 2.484090 0.150000 -0.618170
v 0.991660 0.200620 -0.234000
v 2.491660 0.210620 -0.584000
v 1.007570 0.200620 -0.165830
v 2.507570 0.210620 -0.515830
v -1.350000 0.030000 0.450000
v -1.211440 0.065000 0.450000
v -1.263610 0.065000 0.528000
v -1.380830 0.065000 0.547260
v -1.474840 0.065000 0.493290
v -1.474840 0.065000 0.406710
v -1.380830 0.065000 0.352740
v -1.263610 0.065000 0.372000
v -1.211440 0.135000 0.450000
v -1.263610 0.135000 0.528000
v -1.380830 0.135000 0.547260
v -1.474840 0.135000 0.493290
v -1.474840 0.135000 0.406710
v -1.380830 0.135000 0.352740
v -1.263610 0.135000 0.372000
v -1.350000 0.170000 0.450000
v 0.200000 0.030000 -0.500000
v 0.390530 0.065000 -0.500000
v 0.318790 0.065000 -0.392750
v 0.157600 0.065000 -0.366260
v 0.028340 0.065000 -0.440480
v 0.028340 0.065000 -0.559520
v 0.157600 0.065000 -0.633740
v 0.318790 0.065000 -0.607250
v 0.390530 0.135000 -0.500000
v 0.318790 0.135000 -0.392750
v 0.157600 0.135000 -0.366260
v 0.028340 0.135000 -0.440480
v 0.028340 0.135000 -0.559520
v 0.157600 0.135000 -0.633740
v 0.318790 0.135000 -0.607250
v 0.200000 0.170000 -0.500000
v 1.700000 0.030000 0.550000
v 1.812580 0.065000 0.550000
v 1.770190 0.065000 0.613380
v 1.674950 0.065000 0.629030
v 1.598570 0.065000 0.585170
v 1.598570 0.065000 0.514830
v 1.674950 0.065000 0.470970
v 1.770190 0.065000 0.486620
v 1.812580 0.135000 0.550000
v 1.770190 0.135000 0.613380
v 1.674950 0.135000 0.629030
v 1.598570 0.135000 0.585170
v 1.598570 0.135000 0.514830
v 1.674950 0.135000 0.470970
v 1.770190 0.135000 0.486620
v 1.700000 0.170000 0.550000
vn 0.0173 -0.9997 0.0153
vn 0.0107 -0.9991 0.0401
vn -0.0000 -0.9988 0.0496
vn -0.0107 -0.9991 0.0401
vn -0.0173 -0.9997 0.0153
vn -0.0173 -0.9997 -0.0153
vn -0.0107 -0.9991 -0.0401
vn -0.0000 -0.9988 -0.0496
vn 0.0107 -0.9991 -0.0401
vn 0.0173 -0.9997 -0.0153
vn 0.7484 -0.0000 0.6632
vn 0.2574 -0.0000 0.9663
vn -0.0000 -0.0000 1.0000
vn -0.2574 -0.0000 0.9663
vn -0.7484 -0.0000 0.6632
vn -0.7484 -0.0000 -0.6632
vn -0.2574 -0.0000 -0.9663
vn -0.0000 -0.0000 -1.0000
vn 0.2574 -0.0000 -0.9663
vn 0.7484 -0.0000 -0.6632
vn 0.0173 0.9997 0.0153
vn 0.0107 0.9991 0.0401
vn -0.0000 0.9988 0.0496
vn -0.0107 0.9991 0.0401
vn -0.0173 0.9997 0.0153
vn -0.0173 0.9997 -0.0153
vn -0.0107 0.9991 -0.0401
vn -0.0000 0.9988 -0.0496
vn 0.0107 0.9991 -0.0401
vn 0.0173 0.9997 -0.0153
vn 0.0144 -0.9998 0.0121
vn 0.0089 -0.9995 0.0316
vn -0.0000 -0.9992 0.0390
vn -0.0089 -0.9995 0.0316
vn -0.0144 -0.9998 0.0121
vn -0.0144 -0.9998 -0.0121
vn -0.0089 -0.9995 -0.0316
vn -0.0000 -0.9992 -0.0390
vn 0.0089 -0.9995 -0.0316
vn 0.0144 -0.9998 -0.0121
vn 0.7674 -0.0000 0.6412
vn 0.2719 -0.0000 0.9623
vn -0.2719 -0.0000 0.9623
vn -0.7674 -0.0000 0.6412
vn -0.7674 -0.0000 -0.6412
vn -0.2719 -0.0000 -0.9623
vn 0.2719 -0.0000 -0.9623
vn 0.7674 -0.0000 -0.6412
vn 0.0144 0.9998 0.0121
vn 0.0089 0.9995 0.0316
vn -0.0000 0.9992 0.0390
vn -0.0089 0.9995 0.0316
vn -0.0144 0.9998 0.0121
vn -0.0144 0.9998 -0.0121
vn -0.0089 0.9995 -0.0316
vn -0.0000 0.9992 -0.0390
vn 0.0089 0.9995 -0.0316
vn 0.0144 0.9998 -0.0121
vn 0.0236 -0.9996 0.0176
vn 0.0146 -0.9988 0.0460
vn -0.0000 -0.9984 0.0568
vn -0.0146 -0.9988 0.0460
vn -0.0236 -0.9996 0.0176
vn -0.0236 -0.9996 -0.0176
vn -0.0146 -0.9988 -0.0460
vn -0.0000 -0.9984 -0.0568
vn 0.0146 -0.9988 -0.0460
vn 0.0236 -0.9996 -0.0176
vn 0.8021 -0.0000 0.5972
vn 0.3022 -0.0000 0.9532
vn -0.3022 -0.0000 0.9532
vn -0.8021 -0.0000 0.5972
vn -0.8021 -0.0000 -0.5972
vn -0.3022 -0.0000 -0.9532
vn 0.3022 -0.0000 -0.9532
vn 0.8021 -0.0000 -0.5972
vn 0.0236 0.9996 0.0176
vn 0.0146 0.9988 0.0460
vn -0.0000 0.9984 0.0568
vn -0.0146 0.9988 0.0460
vn -0.0236 0.9996 0.0176
vn -0.0236 0.9996 -0.0176
vn -0.0146 0.9988 -0.0460
vn -0.0000 0.9984 -0.0568
vn 0.0146 0.9988 -0.0460
vn 0.0236 0.9996 -0.0176
vn -0.5727 0.6835 -0.4527
vn -0.5665 -0.6890 -0.4521
vn -0.6825 -0.0027 0.7309
vn 0.5727 -0.6835 0.4527
vn 0.6825 0.0028 -0.7309
vn 0.5665 0.6890 0.4521
vn 0.5319 0.0028 0.8468
vn -0.6418 -0.6890 0.3367
vn 0.6480 -0.6835 -0.3362
vn -0.5319 -0.0028 -0.8468
vn -0.6480 0.6835 0.3362
vn 0.6418 0.6890 -0.3367
vn -0.5724 0.6836 -0.4528
vn -0.5666 -0.6889 -0.4522
vn -0.6827 -0.0026 0.7307
vn 0.5724 -0.6836 0.4528
vn 0.6827 0.0026 -0.7307
vn 0.5666 0.6889 0.4522
vn 0.5318 0.0026 0.8469
vn -0.6420 -0.6889 0.3366
vn 0.6479 -0.6836 -0.3360
vn -0.5318 -0.0026 -0.8469
vn -0.6479 0.6836 0.3360
vn 0.6420 0.6889 -0.3366
vn -0.6884 0.6823 -0.2462
vn -0.6797 -0.6902 -0.2482
vn -0.4139 -0.0039 0.9103
vn 0.6884 -0.6823 0.2462
vn 0.4139 0.0039 -0.9103
vn 0.6797 0.6902 0.2482
vn 0.7741 0.0040 0.6331
vn -0.4996 -0.6902 0.5235
vn 0.5083 -0.6823 -0.5254
vn -0.7741 -0.0040 -0.6330
vn -0.5083 0.6823 0.5254
vn 0.4996 0.6902 -0.5235
vn 0.2417 -0.9568 0.1616
vn 0.0582 -0.9333 0.3543
vn -0.1649 -0.9435 0.2873
vn -0.2700 -0.9629 -0.0000
vn -0.1649 -0.9435 -0.2873
vn 0.0582 -0.9333 -0.3543
vn 0.2417 -0.9568 -0.1616
vn 0.8312 -0.0000 0.5560
vn 0.1621 -0.0000 0.9868
vn -0.4979 -0.0000 0.8672
vn -1.0000 -0.0000 -0.0000
vn -0.4979 -0.0000 -0.8672
vn 0.1621 -0.0000 -0.9868
vn 0.8312 -0.0000 -0.5560
vn 0.2417 0.9568 0.1616
vn 0.0582 0.9333 0.3543
vn -0.1649 0.9435 0.2873
vn -0.2700 0.9629 -0.0000
vn -0.1649 0.9435 -0.2873
vn 0.0582 0.9333 -0.3543
vn 0.2417 0.9568 -0.1616
vn 0.1794 -0.9764 0.1200
vn 0.0437 -0.9630 0.2659
vn -0.1232 -0.9689 0.2145
vn -0.1998 -0.9798 -0.0000
vn -0.1232 -0.9689 -0.2145
vn 0.0437 -0.9630 -0.2659
vn 0.1794 -0.9764 -0.1200
vn 0.1622 -0.0000 0.9868
vn 0.1622 -0.0000 -0.9868
vn 0.1794 0.9764 0.1200
vn 0.0437 0.9630 0.2659
vn -0.1232 0.9689 0.2145
vn -0.1998 0.9798 -0.0000
vn -0.1232 0.9689 -0.2145
vn 0.0437 0.9630 -0.2659
vn 0.1794 0.9764 -0.1200
vn 0.2912 -0.9366 0.1948
vn 0.0694 -0.9038 0.4223
vn -0.1975 -0.9180 0.3439
vn -0.3262 -0.9453 -0.0000
vn -0.1975 -0.9180 -0.3439
vn 0.0694 -0.9038 -0.4223
vn 0.2912 -0.9366 -0.1948
vn 0.8312 -0.0000 0.5559
vn -0.4980 -0.0000 0.8672
vn -0.4980 -0.0000 -0.8672
vn 0.8312 -0.0000 -0.5559
vn 0.2912 0.9366 0.1948
vn 0.0694 0.9038 0.4223
vn -0.1975 0.9180 0.3439
vn -0.3262 0.9453 -0.0000
vn -0.1975 0.9180 -0.3439
vn 0.0694 0.9038 -0.4223
vn 0.2912 0.9366 -0.1948
s 0
usemtl verdant_silt
f 1//1 2//1 3//1
f 1//2 3//2 4//2
f 1//3 4//3 5//3
f 1//4 5//4 6//4
f 1//5 6//5 7//5
f 1//6 7//6 8//6
f 1//7 8//7 9//7
f 1//8 9//8 10//8
f 1//9 10//9 11//9
f 1//10 11//10 2//10
f 12//11 3//11 2//11
f 13//12 4//12 3//12
f 14//13 5//13 4//13
f 15//14 6//14 5//14
f 16//15 7//15 6//15
f 17//16 8//16 7//16
f 18//17 9//17 8//17
f 19//18 10//18 9//18
f 20//19 11//19 10//19
f 21//20 2//20 11//20
f 12//21 22//21 13//21
f 13//22 22//22 14//22
f 14//23 22//23 15//23
f 15//24 22//24 16//24
f 16//25 22//25 17//25
f 17//26 22//26 18//26
f 18//27 22//27 19//27
f 19//28 22//28 20//28
f 20//29 22//29 21//29
f 21//30 22//30 12//30
f 23//31 24//31 25//31
f 23//32 25//32 26//32
f 23//33 26//33 27//33
f 23//34 27//34 28//34
f 23//35 28//35 29//35
f 23//36 29//36 30//36
f 23//37 30//37 31//37
f 23//38 31//38 32//38
f 23//39 32//39 33//39
f 23//40 33//40 24//40
f 34//41 25//41 24//41
f 35//42 26//42 25//42
f 36//13 27//13 26//13
f 37//43 28//43 27//43
f 38//44 29//44 28//44
f 39//45 30//45 29//45
f 40//46 31//46 30//46
f 41//18 32//18 31//18
f 42//47 33//47 32//47
f 43//48 24//48 33//48
f 34//49 44//49 35//49
f 35//50 44//50 36//50
f 36//51 44//51 37//51
f 37//52 44//52 38//52
f 38//53 44//53 39//53
f 39//54 44//54 40//54
f 40//55 44//55 41//55
f 41//56 44//56 42//56
f 42//57 44//57 43//57
f 43//58 44//58 34//58
f 45//59 46//59 47//59
f 45//60 47//60 48//60
f 45//61 48//61 49//61
f 45//62 49//62 50//62
f 45//63 50//63 51//63
f 45//64 51//64 52//64
f 45//65 52//65 53//65
f 45//66 53//66 54//66
f 45//67 54//67 55//67
f 45//68 55//68 46//68
f 56//69 47//69 46//69
f 57//70 48//70 47//70
f 58//13 49//13 48//13
f 59//71 50//71 49//71
f 60//72 51//72 50//72
f 61//73 52//73 51//73
f 62//74 53//74 52//74
f 63//18 54//18 53//18
f 64//75 55//75 54//75
f 65//76 46//76 55//76
f 56//77 66//77 57//77
f 57//78 66//78 58//78
f 58//79 66//79 59//79
f 59//80 66//80 60//80
f 60//81 66//81 61//81
f 61//82 66//82 62//82
f 62//83 66//83 63//83
f 63//84 66//84 64//84
f 64//85 66//85 65//85
f 65//86 66//86 56//86
f 12//11 13//11 3//11
f 13//12 14//12 4//12
f 14//13 15//13 5//13
f 15//14 16//14 6//14
f 16//15 17//15 7//15
f 17//16 18//16 8//16
f 18//17 19//17 9//17
f 19//18 20//18 10//18
f 20//19 21//19 11//19
f 21//20 12//20 2//20
f 34//41 35//41 25//41
f 35//42 36//42 26//42
f 36//13 37//13 27//13
f 37//43 38//43 28//43
f 38//44 39//44 29//44
f 39//45 40//45 30//45
f 40//46 41//46 31//46
f 41//18 42//18 32//18
f 42//47 43//47 33//47
f 43//48 34//48 24//48
f 56//69 57//69 47//69
f 57//70 58//70 48//70
f 58//13 59//13 49//13
f 59//71 60//71 50//71
f 60//72 61//72 51//72
f 61//73 62//73 52//73
f 62//74 63//74 53//74
f 63//18 64//18 54//18
f 64//75 65//75 55//75
f 65//76 56//76 46//76
s 1
usemtl verdant_fibre
f 75//87 71//88 67//89
f 70//90 74//91 78//92
f 67//89 70//90 68//93
f 69//94 72//95 70//90
f 73//96 72//95 71//88
f 75//87 74//91 73//96
f 77//97 76//98 75//87
f 77//97 68//93 78//92
f 87//99 83//100 79//101
f 82//102 86//103 90//104
f 79//101 82//102 80//105
f 81//106 84//107 82//102
f 85//108 84//107 83//100
f 87//99 86//103 85//108
f 89//109 88//110 87//99
f 89//109 80//105 90//104
f 99//111 95//112 91//113
f 94//114 98//115 102//116
f 91//113 94//114 92//117
f 93//118 96//119 94//114
f 95//112 98//115 96//119
f 99//111 98//115 97//120
f 101//121 100//122 99//111
f 91//113 102//116 101//121
f 67//89 77//97 75//87
f 75//87 73//96 71//88
f 71//88 69//94 67//89
f 78//92 68//93 70//90
f 70//90 72//95 74//91
f 74//91 76//98 78//92
f 67//89 69//94 70//90
f 69//94 71//88 72//95
f 73//96 74//91 72//95
f 75//87 76//98 74//91
f 77//97 78//92 76//98
f 77//97 67//89 68//93
f 79//101 89//109 87//99
f 87//99 85//108 83//100
f 83//100 81//106 79//101
f 90//104 80//105 82//102
f 82//102 84//107 86//103
f 86//103 88//110 90//104
f 79//101 81//106 82//102
f 81//106 83//100 84//107
f 85//108 86//103 84//107
f 87//99 88//110 86//103
f 89//109 90//104 88//110
f 89//109 79//101 80//105
f 91//113 101//121 99//111
f 99//111 97//120 95//112
f 95//112 93//118 91//113
f 102//116 92//117 94//114
f 94//114 96//119 98//115
f 98//115 100//122 102//116
f 91//113 93//118 94//114
f 93//118 95//112 96//119
f 95//112 97//120 98//115
f 99//111 100//122 98//115
f 101//121 102//116 100//122
f 91//113 92//117 102//116
s 0
usemtl verdant_carbonate
f 103//123 104//123 105//123
f 103//124 105//124 106//124
f 103//125 106//125 107//125
f 103//126 107//126 108//126
f 103//127 108//127 109//127
f 103//128 109//128 110//128
f 103//129 110//129 104//129
f 111//130 105//130 104//130
f 112//131 106//131 105//131
f 113//132 107//132 106//132
f 114//133 108//133 107//133
f 115//134 109//134 108//134
f 116//135 110//135 109//135
f 117//136 104//136 110//136
f 111//137 118//137 112//137
f 112//138 118//138 113//138
f 113//139 118//139 114//139
f 114//140 118//140 115//140
f 115//141 118//141 116//141
f 116//142 118//142 117//142
f 117//143 118//143 111//143
f 119//144 120//144 121//144
f 119//145 121//145 122//145
f 119//146 122//146 123//146
f 119//147 123//147 124//147
f 119//148 124//148 125//148
f 119//149 125//149 126//149
f 119//150 126//150 120//150
f 127//130 121//130 120//130
f 128//151 122//151 121//151
f 129//132 123//132 122//132
f 130//133 124//133 123//133
f 131//134 125//134 124//134
f 132//152 126//152 125//152
f 133//136 120//136 126//136
f 127//153 134//153 128//153
f 128//154 134//154 129//154
f 129//155 134//155 130//155
f 130//156 134//156 131//156
f 131//157 134//157 132//157
f 132//158 134//158 133//158
f 133//159 134//159 127//159
f 135//160 136//160 137//160
f 135//161 137//161 138//161
f 135//162 138//162 139//162
f 135//163 139//163 140//163
f 135//164 140//164 141//164
f 135//165 141//165 142//165
f 135//166 142//166 136//166
f 143//167 137//167 136//167
f 144//131 138//131 137//131
f 145//168 139//168 138//168
f 146//133 140//133 139//133
f 147//169 141//169 140//169
f 148//135 142//135 141//135
f 149//170 136//170 142//170
f 143//171 150//171 144//171
f 144//172 150//172 145//172
f 145//173 150//173 146//173
f 146//174 150//174 147//174
f 147//175 150//175 148//175
f 148//176 150//176 149//176
f 149//177 150//177 143//177
f 111//130 112//130 105//130
f 112//131 113//131 106//131
f 113//132 114//132 107//132
f 114//133 115//133 108//133
f 115//134 116//134 109//134
f 116//135 117//135 110//135
f 117//136 111//136 104//136
f 127//130 128//130 121//130
f 128//151 129//151 122//151
f 129//132 130//132 123//132
f 130//133 131//133 124//133
f 131//134 132//134 125//134
f 132//152 133//152 126//152
f 133//136 127//136 120//136
f 143//167 144//167 137//167
f 144//131 145//131 138//131
f 145//168 146//168 139//168
f 146//133 147//133 140//133
f 147//169 148//169 141//169
f 148//135 149//135 142//135
f 149//170 143//170 136//170
