# Blender 5.2.1 LTS
# www.blender.org
mtllib root_arch_a.mtl
o root_arch_a
v -3.000000 0.220000 0.220000
v -2.200000 1.500000 0.220000
v -2.868080 0.137550 0.155560
v -2.068080 1.417550 0.155560
v -2.813440 0.103400 -0.000000
v -2.013440 1.383400 -0.000000
v -2.868080 0.137550 -0.155560
v -2.068080 1.417550 -0.155560
v -3.000000 0.220000 -0.220000
v -2.200000 1.500000 -0.220000
v -3.131920 0.302450 -0.155560
v -2.331920 1.582450 -0.155560
v -3.186560 0.336600 -0.000000
v -2.386560 1.616600 -0.000000
v -3.131920 0.302450 0.155560
v -2.331920 1.582450 0.155560
v -2.200000 1.500000 0.180000
v -1.100000 2.700000 0.180000
v -2.106180 1.413990 0.127280
v -1.006180 2.613990 0.127280
v -2.067310 1.378370 -0.000000
v -0.967310 2.578370 -0.000000
v -2.106180 1.413990 -0.127280
v -1.006180 2.613990 -0.127280
v -2.200000 1.500000 -0.180000
v -1.100000 2.700000 -0.180000
v -2.293820 1.586010 -0.127280
v -1.193820 2.786010 -0.127280
v -2.332690 1.621630 -0.000000
v -1.232690 2.821630 -0.000000
v -2.293820 1.586010 0.127280
v -1.193820 2.786010 0.127280
v 0.000000 3.150000 0.180000
v -1.051810 2.582200 0.127280
v 0.048190 3.032200 0.127280
v -1.031850 2.533400 -0.000000
v 0.068150 2.983400 -0.000000
v -1.051810 2.582200 -0.127280
v 0.048190 3.032200 -0.127280
v 0.000000 3.150000 -0.180000
v -1.148190 2.817800 -0.127280
v -0.048190 3.267800 -0.127280
v -1.168150 2.866600 -0.000000
v -0.068150 3.316600 -0.000000
v -1.148190 2.817800 0.127280
v -0.048190 3.267800 0.127280
v 1.100000 2.700000 0.180000
v -0.048190 3.032200 0.127280
v 1.051810 2.582200 0.127280
v -0.068150 2.983400 -0.000000
v 1.031850 2.533400 -0.000000
v -0.048190 3.032200 -0.127280
v 1.051810 2.582200 -0.127280
v 1.100000 2.700000 -0.180000
v 0.048190 3.267800 -0.127280
v 1.148190 2.817800 -0.127280
v 0.068150 3.316600 -0.000000
v 1.168150 2.866600 -0.000000
v 0.048190 3.267800 0.127280
v 1.148190 2.817800 0.127280
v 2.200000 1.500000 0.180000
v 1.006180 2.613990 0.127280
v 2.106180 1.413990 0.127280
v 0.967310 2.578370 -0.000000
v 2.067310 1.378370 -0.000000
v 1.006180 2.613990 -0.127280
v 2.106180 1.413990 -0.127280
v 2.200000 1.500000 -0.180000
v 1.193820 2.786010 -0.127280
v 2.293820 1.586010 -0.127280
v 1.232690 2.821630 -0.000000
v 2.332690 1.621630 -0.000000
v 1.193820 2.786010 0.127280
v 2.293820 1.586010 0.127280
v 2.200000 1.500000 0.220000
v 3.000000 0.220000 0.220000
v 2.068080 1.417550 0.155560
v 2.868080 0.137550 0.155560
v 2.013440 1.383400 -0.000000
v 2.813440 0.103400 -0.000000
v 2.068080 1.417550 -0.155560
v 2.868080 0.137550 -0.155560
v 2.200000 1.500000 -0.220000
v 3.000000 0.220000 -0.220000
v 2.331920 1.582450 -0.155560
v 3.131920 0.302450 -0.155560
v 2.386560 1.616600 -0.000000
v 3.186560 0.336600 -0.000000
v 2.331920 1.582450 0.155560
v 3.131920 0.302450 0.155560
v -2.312960 0.900000 0.040500
v -1.828960 0.120000 1.390500
v -2.285560 0.817580 -0.016950
v -1.801560 0.037580 1.333050
v -2.193730 0.797230 -0.061630
v -1.709730 0.017230 1.288370
v -2.106620 0.854260 -0.059900
v -1.622620 0.074260 1.290100
v -2.089830 0.945740 -0.013070
v -1.605830 0.165740 1.336930
v -2.156000 1.002770 0.043610
v -1.672000 0.222770 1.393610
v -2.255300 0.982420 0.067450
v -1.771300 0.202420 1.417450
v 2.087040 0.900000 -0.040500
v 1.603040 0.120000 1.309500
v 2.144700 0.817580 -0.067450
v 1.660700 0.037580 1.282550
v 2.244000 0.797230 -0.043610
v 1.760000 0.017230 1.306390
v 2.310170 0.854260 0.013070
v 1.826170 0.074260 1.363070
v 2.293380 0.945740 0.059900
v 1.809380 0.165740 1.409900
v 2.206270 1.002770 0.061630
v 1.722270 0.222770 1.411630
v 2.114440 0.982420 0.016950
v 1.630440 0.202420 1.366950
vn -0.3340 -0.5345 0.7764
vn 0.3340 0.5345 0.7764
vn 0.1315 -0.8254 0.5490
vn 0.7996 0.2435 0.5490
vn 0.3243 -0.9459 -0.0000
vn 0.9924 0.1230 -0.0000
vn 0.1315 -0.8254 -0.5490
vn 0.7996 0.2435 -0.5490
vn -0.3340 -0.5345 -0.7764
vn 0.3340 0.5345 -0.7764
vn -0.7996 -0.2435 -0.5490
vn -0.1315 0.8254 -0.5490
vn -0.9924 -0.1230 -0.0000
vn -0.3243 0.9459 -0.0000
vn -0.7996 -0.2435 0.5490
vn -0.1315 0.8254 0.5490
vn -0.4259 -0.4646 0.7764
vn -0.0998 0.1433 0.9846
vn -0.0212 -0.8356 0.5490
vn 0.8306 0.0936 0.5490
vn 0.1465 -0.9892 -0.0000
vn 0.9982 -0.0600 -0.0000
vn -0.0212 -0.8356 -0.5490
vn 0.8306 0.0936 -0.5490
vn -0.4259 -0.4646 -0.7764
vn -0.0998 0.1433 -0.9846
vn -0.8305 -0.0936 -0.5490
vn 0.0212 0.8356 -0.5490
vn -0.9982 0.0600 -0.0000
vn -0.1465 0.9892 -0.0000
vn -0.8305 -0.0936 0.5490
vn 0.0212 0.8356 0.5490
vn -0.0000 0.2938 0.9559
vn -0.3755 -0.7467 0.5490
vn 0.7912 -0.2695 0.5490
vn -0.2894 -0.9572 -0.0000
vn 0.8773 -0.4800 -0.0000
vn -0.3755 -0.7467 -0.5490
vn 0.7912 -0.2695 -0.5490
vn -0.0000 0.2938 -0.9559
vn -0.7912 0.2695 -0.5490
vn 0.3755 0.7467 -0.5490
vn -0.8773 0.4800 -0.0000
vn 0.2894 0.9572 -0.0000
vn -0.7912 0.2695 0.5490
vn 0.3755 0.7467 0.5490
vn 0.0998 0.1433 0.9846
vn -0.7912 -0.2695 0.5490
vn 0.3755 -0.7467 0.5490
vn -0.8773 -0.4800 -0.0000
vn 0.2894 -0.9572 -0.0000
vn -0.7912 -0.2695 -0.5490
vn 0.3755 -0.7467 -0.5490
vn 0.0998 0.1433 -0.9846
vn -0.3755 0.7467 -0.5490
vn 0.7912 0.2695 -0.5490
vn -0.2894 0.9572 -0.0000
vn 0.8773 0.4800 -0.0000
vn -0.3755 0.7467 0.5490
vn 0.7912 0.2695 0.5490
vn 0.4259 -0.4646 0.7764
vn -0.8306 0.0936 0.5490
vn 0.0212 -0.8356 0.5490
vn -0.9982 -0.0600 -0.0000
vn -0.1465 -0.9892 -0.0000
vn -0.8306 0.0936 -0.5490
vn 0.0212 -0.8356 -0.5490
vn 0.4259 -0.4646 -0.7764
vn -0.0213 0.8356 -0.5490
vn 0.8306 -0.0936 -0.5490
vn 0.1465 0.9892 -0.0000
vn 0.9982 0.0600 -0.0000
vn -0.0213 0.8356 0.5490
vn 0.8306 -0.0936 0.5490
vn -0.3340 0.5345 0.7764
vn 0.3340 -0.5345 0.7764
vn -0.7996 0.2435 0.5490
vn -0.1315 -0.8254 0.5490
vn -0.9924 0.1230 -0.0000
vn -0.3243 -0.9459 -0.0000
vn -0.7996 0.2435 -0.5490
vn -0.1315 -0.8254 -0.5490
vn -0.3340 0.5345 -0.7764
vn 0.3340 -0.5345 -0.7764
vn 0.1315 0.8254 -0.5490
vn 0.7996 -0.2435 -0.5490
vn 0.3243 0.9459 -0.0000
vn 0.9924 -0.1230 -0.0000
vn 0.1315 0.8254 0.5490
vn 0.7996 -0.2435 0.5490
vn -0.9218 0.2968 -0.2493
vn -0.5534 -0.2968 0.7782
vn -0.7429 -0.2414 -0.6244
vn -0.3745 -0.8350 0.4030
vn -0.1432 -0.3743 -0.9162
vn 0.2251 -0.9680 0.1112
vn 0.4256 -0.0019 -0.9049
vn 0.7939 -0.5955 0.1225
vn 0.5352 0.5955 -0.5991
vn 0.9036 0.0019 0.4283
vn 0.1032 0.9680 -0.2290
vn 0.4715 0.3743 0.7985
vn -0.5453 0.8350 -0.0733
vn -0.1769 0.2414 0.9542
vn -0.5535 0.2968 -0.7782
vn -0.9218 -0.2968 0.2492
vn -0.1769 -0.2414 -0.9542
vn -0.5453 -0.8350 0.0733
vn 0.4715 -0.3743 -0.7985
vn 0.1032 -0.9680 0.2289
vn 0.9036 -0.0019 -0.4284
vn 0.5352 -0.5955 0.5991
vn 0.7939 0.5955 -0.1226
vn 0.4257 0.0019 0.9049
vn 0.2251 0.9680 -0.1113
vn -0.1432 0.3743 0.9162
vn -0.3745 0.8350 -0.4030
vn -0.7429 0.2414 0.6244
s 1
usemtl verdant_fibre
f 9//9 5//5 1//1
f 8//8 12//12 16//16
f 3//3 2//2 1//1
f 5//5 4//4 3//3
f 7//7 6//6 5//5
f 9//9 8//8 7//7
f 11//11 10//10 9//9
f 13//13 12//12 11//11
f 13//13 16//16 14//14
f 1//1 16//16 15//15
f 25//25 21//21 17//17
f 24//24 28//28 32//32
f 17//17 20//20 18//18
f 21//21 20//20 19//19
f 21//21 24//24 22//22
f 25//25 24//24 23//23
f 27//27 26//26 25//25
f 27//27 30//30 28//28
f 31//31 30//30 29//29
f 31//31 18//18 32//32
f 26//26 36//36 18//18
f 39//39 42//42 46//46
f 18//18 35//35 33//33
f 34//34 37//37 35//35
f 38//38 37//37 36//36
f 26//26 39//39 38//38
f 41//41 40//40 26//26
f 43//43 42//42 41//41
f 43//43 46//46 44//44
f 45//45 33//33 46//46
f 40//40 50//50 33//33
f 53//53 56//56 60//60
f 48//48 47//47 33//33
f 50//50 49//49 48//48
f 50//50 53//53 51//51
f 52//52 54//54 53//53
f 40//40 56//56 54//54
f 55//55 58//58 56//56
f 59//59 58//58 57//57
f 33//33 60//60 59//59
f 54//54 64//64 47//47
f 67//67 70//70 74//74
f 62//62 61//61 47//47
f 62//62 65//65 63//63
f 66//66 65//65 64//64
f 66//66 68//68 67//67
f 54//54 70//70 68//68
f 71//71 70//70 69//69
f 71//71 74//74 72//72
f 47//47 74//74 73//73
f 83//83 79//79 75//75
f 82//82 86//86 90//90
f 77//77 76//76 75//75
f 79//79 78//78 77//77
f 81//81 80//80 79//79
f 83//83 82//82 81//81
f 85//85 84//84 83//83
f 85//85 88//88 86//86
f 87//87 90//90 88//88
f 89//89 76//76 90//90
f 101//101 97//97 93//93
f 94//94 98//98 102//102
f 91//91 94//94 92//92
f 95//95 94//94 93//93
f 97//97 96//96 95//95
f 97//97 100//100 98//98
f 101//101 100//100 99//99
f 101//101 104//104 102//102
f 103//103 92//92 104//104
f 115//115 111//111 107//107
f 108//108 112//112 116//116
f 105//105 108//108 106//106
f 107//107 110//110 108//108
f 111//111 110//110 109//109
f 111//111 114//114 112//112
f 115//115 114//114 113//113
f 117//117 116//116 115//115
f 117//117 106//106 118//118
f 1//1 15//15 13//13
f 13//13 11//11 9//9
f 9//9 7//7 5//5
f 5//5 3//3 1//1
f 1//1 13//13 9//9
f 16//16 2//2 4//4
f 4//4 6//6 8//8
f 8//8 10//10 12//12
f 12//12 14//14 16//16
f 16//16 4//4 8//8
f 3//3 4//4 2//2
f 5//5 6//6 4//4
f 7//7 8//8 6//6
f 9//9 10//10 8//8
f 11//11 12//12 10//10
f 13//13 14//14 12//12
f 13//13 15//15 16//16
f 1//1 2//2 16//16
f 17//17 31//31 29//29
f 29//29 27//27 25//25
f 25//25 23//23 21//21
f 21//21 19//19 17//17
f 17//17 29//29 25//25
f 32//32 18//18 20//20
f 20//20 22//22 24//24
f 24//24 26//26 28//28
f 28//28 30//30 32//32
f 32//32 20//20 24//24
f 17//17 19//19 20//20
f 21//21 22//22 20//20
f 21//21 23//23 24//24
f 25//25 26//26 24//24
f 27//27 28//28 26//26
f 27//27 29//29 30//30
f 31//31 32//32 30//30
f 31//31 17//17 18//18
f 18//18 45//45 43//43
f 43//43 41//41 26//26
f 26//26 38//38 36//36
f 36//36 34//34 18//18
f 18//18 43//43 26//26
f 46//46 33//33 35//35
f 35//35 37//37 39//39
f 39//39 40//40 42//42
f 42//42 44//44 46//46
f 46//46 35//35 39//39
f 18//18 34//34 35//35
f 34//34 36//36 37//37
f 38//38 39//39 37//37
f 26//26 40//40 39//39
f 41//41 42//42 40//40
f 43//43 44//44 42//42
f 43//43 45//45 46//46
f 45//45 18//18 33//33
f 33//33 59//59 57//57
f 57//57 55//55 40//40
f 40//40 52//52 50//50
f 50//50 48//48 33//33
f 33//33 57//57 40//40
f 60//60 47//47 49//49
f 49//49 51//51 53//53
f 53//53 54//54 56//56
f 56//56 58//58 60//60
f 60//60 49//49 53//53
f 48//48 49//49 47//47
f 50//50 51//51 49//49
f 50//50 52//52 53//53
f 52//52 40//40 54//54
f 40//40 55//55 56//56
f 55//55 57//57 58//58
f 59//59 60//60 58//58
f 33//33 47//47 60//60
f 47//47 73//73 71//71
f 71//71 69//69 54//54
f 54//54 66//66 64//64
f 64//64 62//62 47//47
f 47//47 71//71 54//54
f 74//74 61//61 63//63
f 63//63 65//65 67//67
f 67//67 68//68 70//70
f 70//70 72//72 74//74
f 74//74 63//63 67//67
f 62//62 63//63 61//61
f 62//62 64//64 65//65
f 66//66 67//67 65//65
f 66//66 54//54 68//68
f 54//54 69//69 70//70
f 71//71 72//72 70//70
f 71//71 73//73 74//74
f 47//47 61//61 74//74
f 75//75 89//89 87//87
f 87//87 85//85 83//83
f 83//83 81//81 79//79
f 79//79 77//77 75//75
f 75//75 87//87 83//83
f 90//90 76//76 78//78
f 78//78 80//80 82//82
f 82//82 84//84 86//86
f 86//86 88//88 90//90
f 90//90 78//78 82//82
f 77//77 78//78 76//76
f 79//79 80//80 78//78
f 81//81 82//82 80//80
f 83//83 84//84 82//82
f 85//85 86//86 84//84
f 85//85 87//87 88//88
f 87//87 89//89 90//90
f 89//89 75//75 76//76
f 91//91 103//103 101//101
f 101//101 99//99 97//97
f 97//97 95//95 93//93
f 93//93 91//91 101//101
f 104//104 92//92 94//94
f 94//94 96//96 98//98
f 98//98 100//100 102//102
f 102//102 104//104 94//94
f 91//91 93//93 94//94
f 95//95 96//96 94//94
f 97//97 98//98 96//96
f 97//97 99//99 100//100
f 101//101 102//102 100//100
f 101//101 103//103 104//104
f 103//103 91//91 92//92
f 105//105 117//117 115//115
f 115//115 113//113 111//111
f 111//111 109//109 107//107
f 107//107 105//105 115//115
f 118//118 106//106 108//108
f 108//108 110//110 112//112
f 112//112 114//114 116//116
f 116//116 118//118 108//108
f 105//105 107//107 108//108
f 107//107 109//109 110//110
f 111//111 112//112 110//110
f 111//111 113//113 114//114
f 115//115 116//116 114//114
f 117//117 118//118 116//116
f 117//117 105//105 106//106
