# Blender 5.2.1 LTS
# www.blender.org
mtllib route_flow_junction_a.mtl
o route_flow_junction_a
v -2.000000 -0.000000 -0.450000
v 2.000000 -0.000000 -0.450000
v 2.000000 0.080000 -0.450000
v -2.000000 0.080000 -0.450000
v -2.000000 0.000000 0.450000
v 2.000000 0.000000 0.450000
v 2.000000 0.080000 0.450000
v -2.000000 0.080000 0.450000
v -0.450000 -0.000000 -2.000000
v 0.450000 -0.000000 -2.000000
v 0.450000 0.080000 -2.000000
v -0.450000 0.080000 -2.000000
v -0.450000 0.000000 2.000000
v 0.450000 0.000000 2.000000
v 0.450000 0.080000 2.000000
v -0.450000 0.080000 2.000000
vn -0.5774 -0.5773 -0.5773
vn 0.5774 -0.5773 -0.5774
vn 0.5774 0.5773 -0.5773
vn -0.5774 0.5773 -0.5774
vn -0.5774 -0.5773 0.5774
vn 0.5774 -0.5773 0.5774
vn 0.5774 0.5773 0.5774
vn -0.5774 0.5773 0.5774
s 1
usemtl verdant_membrane
f 4//4 2//2 1//1
f 6//6 8//8 5//5
f 2//2 5//5 1//1
f 3//3 6//6 2//2
f 4//4 7//7 3//3
f 8//8 1//1 5//5
f 12//4 10//2 9//1
f 14//6 16//8 13//5
f 10//2 13//5 9//1
f 11//3 14//6 10//2
f 12//4 15//7 11//3
f 16//8 9//1 13//5
f 4//4 3//3 2//2
f 6//6 7//7 8//8
f 2//2 6//6 5//5
f 3//3 7//7 6//6
f 4//4 8//8 7//7
f 8//8 4//4 1//1
f 12//4 11//3 10//2
f 14//6 15//7 16//8
f 10//2 14//6 13//5
f 11//3 15//7 14//6
f 12//4 16//8 15//7
f 16//8 12//4 9//1
