# Blender 5.2.1 LTS
# www.blender.org
mtllib route_flow_straight_a.mtl
o route_flow_straight_a
v -2.000000 -0.000000 -0.450000
v 2.000000 -0.000000 -0.450000
v 2.000000 0.080000 -0.450000
v -2.000000 0.080000 -0.450000
v -2.000000 0.000000 0.450000
v 2.000000 0.000000 0.450000
v 2.000000 0.080000 0.450000
v -2.000000 0.080000 0.450000
v -2.000000 0.120000 -0.435000
v 2.000000 0.120000 -0.435000
v -2.000000 0.069180 -0.459470
v 2.000000 0.069180 -0.459470
v -2.000000 0.056630 -0.514460
v 2.000000 0.056630 -0.514460
v -2.000000 0.091800 -0.558560
v 2.000000 0.091800 -0.558560
v -2.000000 0.148200 -0.558560
v 2.000000 0.148200 -0.558560
v -2.000000 0.183370 -0.514460
v 2.000000 0.183370 -0.514460
v -2.000000 0.170820 -0.459470
v 2.000000 0.170820 -0.459470
v -2.000000 0.120000 0.565000
v 2.000000 0.120000 0.565000
v -2.000000 0.069180 0.540530
v 2.000000 0.069180 0.540530
v -2.000000 0.056630 0.485540
v 2.000000 0.056630 0.485540
v -2.000000 0.091800 0.441440
v 2.000000 0.091800 0.441440
v -2.000000 0.148200 0.441440
v 2.000000 0.148200 0.441440
v -2.000000 0.183370 0.485540
v 2.000000 0.183370 0.485540
v -2.000000 0.170820 0.540530
v 2.000000 0.170820 0.540530
vn -0.5774 0.5773 -0.5774
vn 0.5774 -0.5773 -0.5774
vn -0.5774 -0.5773 -0.5773
vn 0.5774 -0.5773 0.5774
vn -0.5774 0.5773 0.5774
vn -0.5774 -0.5773 0.5774
vn 0.5774 0.5773 -0.5773
vn 0.5774 0.5773 0.5774
vn -1.0000 -0.0000 -0.0000
vn 1.0000 -0.0000 -0.0000
vn -0.0000 -0.4338 0.9010
vn -0.0000 -0.9749 0.2225
vn -0.0000 -0.7818 -0.6235
vn -0.0000 -0.0000 -1.0000
vn -0.0000 0.7818 -0.6235
vn -0.0000 0.9749 0.2225
vn -0.0000 0.4338 0.9010
s 1
usemtl verdant_membrane
f 4//1 2//2 1//3
f 6//4 8//5 5//6
f 2//2 5//6 1//3
f 3//7 6//4 2//2
f 4//1 7//8 3//7
f 8//5 1//3 5//6
f 4//1 3//7 2//2
f 6//4 7//8 8//5
f 2//2 6//4 5//6
f 3//7 7//8 6//4
f 4//1 8//5 7//8
f 8//5 4//1 1//3
s 0
usemtl verdant_carbonate
f 19//9 15//9 11//9
f 12//10 16//10 20//10
f 11//11 10//11 9//11
f 13//12 12//12 11//12
f 15//13 14//13 13//13
f 17//14 16//14 15//14
f 19//15 18//15 17//15
f 21//16 20//16 19//16
f 9//17 22//17 21//17
f 33//9 29//9 25//9
f 26//10 30//10 34//10
f 25//11 24//11 23//11
f 27//12 26//12 25//12
f 29//13 28//13 27//13
f 31//14 30//14 29//14
f 33//15 32//15 31//15
f 35//16 34//16 33//16
f 23//17 36//17 35//17
f 9//9 21//9 19//9
f 19//9 17//9 15//9
f 15//9 13//9 11//9
f 11//9 9//9 19//9
f 22//10 10//10 12//10
f 12//10 14//10 16//10
f 16//10 18//10 20//10
f 20//10 22//10 12//10
f 11//11 12//11 10//11
f 13//12 14//12 12//12
f 15//13 16//13 14//13
f 17//14 18//14 16//14
f 19//15 20//15 18//15
f 21//16 22//16 20//16
f 9//17 10//17 22//17
f 23//9 35//9 33//9
f 33//9 31//9 29//9
f 29//9 27//9 25//9
f 25//9 23//9 33//9
f 36//10 24//10 26//10
f 26//10 28//10 30//10
f 30//10 32//10 34//10
f 34//10 36//10 26//10
f 25//11 26//11 24//11
f 27//12 28//12 26//12
f 29//13 30//13 28//13
f 31//14 32//14 30//14
f 33//15 34//15 32//15
f 35//16 36//16 34//16
f 23//17 24//17 36//17
