# Blender 5.2.1 LTS
# www.blender.org
mtllib route_flow_corner_a.mtl
o route_flow_corner_a
v -2.000000 -0.000000 -0.450000
v 0.000000 -0.000000 -0.450000
v 0.000000 0.080000 -0.450000
v -2.000000 0.080000 -0.450000
v -2.000000 0.000000 0.450000
v 0.000000 0.000000 0.450000
v 0.000000 0.080000 0.450000
v -2.000000 0.080000 0.450000
v -0.450000 0.000000 0.000000
v 0.450000 0.000000 0.000000
v 0.450000 0.080000 -0.000000
v -0.450000 0.080000 -0.000000
v -0.450000 0.000000 2.000000
v 0.450000 0.000000 2.000000
v 0.450000 0.080000 2.000000
v -0.450000 0.080000 2.000000
v -2.000000 0.120000 -0.435000
v 0.000000 0.120000 -0.435000
v -2.000000 0.069180 -0.459470
v 0.000000 0.069180 -0.459470
v -2.000000 0.056630 -0.514460
v 0.000000 0.056630 -0.514460
v -2.000000 0.091800 -0.558560
v 0.000000 0.091800 -0.558560
v -2.000000 0.148200 -0.558560
v 0.000000 0.148200 -0.558560
v -2.000000 0.183370 -0.514460
v 0.000000 0.183370 -0.514460
v -2.000000 0.170820 -0.459470
v 0.000000 0.170820 -0.459470
v -2.000000 0.120000 0.565000
v -0.500000 0.120000 0.565000
v -2.000000 0.069180 0.540530
v -0.500000 0.069180 0.540530
v -2.000000 0.056630 0.485540
v -0.500000 0.056630 0.485540
v -2.000000 0.091800 0.441440
v -0.500000 0.091800 0.441440
v -2.000000 0.148200 0.441440
v -0.500000 0.148200 0.441440
v -2.000000 0.183370 0.485540
v -0.500000 0.183370 0.485540
v -2.000000 0.170820 0.540530
v -0.500000 0.170820 0.540530
v -0.565000 0.120000 0.500000
v -0.565000 0.120000 2.000000
v -0.540530 0.069180 0.500000
v -0.540530 0.069180 2.000000
v -0.485540 0.056630 0.500000
v -0.485540 0.056630 2.000000
v -0.441440 0.091800 0.500000
v -0.441440 0.091800 2.000000
v -0.441440 0.148200 0.500000
v -0.441440 0.148200 2.000000
v -0.485540 0.183370 0.500000
v -0.485540 0.183370 2.000000
v -0.540530 0.170820 0.500000
v -0.540530 0.170820 2.000000
v 0.435000 0.120000 -0.000000
v 0.435000 0.120000 2.000000
v 0.459470 0.069180 -0.000000
v 0.459470 0.069180 2.000000
v 0.514460 0.056630 -0.000000
v 0.514460 0.056630 2.000000
v 0.558560 0.091800 -0.000000
v 0.558560 0.091800 2.000000
v 0.558560 0.148200 -0.000000
v 0.558560 0.148200 2.000000
v 0.514460 0.183370 -0.000000
v 0.514460 0.183370 2.000000
v 0.459470 0.170820 -0.000000
v 0.459470 0.170820 2.000000
vn -0.5774 0.5773 -0.5774
vn 0.5774 -0.5773 -0.5774
vn -0.5774 -0.5773 -0.5773
vn 0.5774 -0.5773 0.5774
vn -0.5774 0.5773 0.5774
vn -0.5774 -0.5773 0.5774
vn 0.5774 0.5773 -0.5773
vn 0.5774 0.5773 0.5774
vn -1.0000 -0.0000 -0.0000
vn 1.0000 -0.0000 -0.0000
vn -0.0000 -0.4338 0.9010
vn -0.0000 -0.9749 0.2225
vn -0.0000 -0.7818 -0.6235
vn -0.0000 -0.0000 -1.0000
vn -0.0000 0.7818 -0.6235
vn -0.0000 0.9749 0.2225
vn -0.0000 0.4338 0.9010
vn -0.0000 -0.0000 1.0000
vn -0.9010 -0.4338 -0.0000
vn -0.2225 -0.9749 -0.0000
vn 0.6235 -0.7818 -0.0000
vn 0.6235 0.7818 -0.0000
vn -0.2225 0.9749 -0.0000
vn -0.9010 0.4338 -0.0000
s 1
usemtl verdant_membrane
f 4//1 2//2 1//3
f 6//4 8//5 5//6
f 2//2 5//6 1//3
f 3//7 6//4 2//2
f 4//1 7//8 3//7
f 8//5 1//3 5//6
f 12//1 10//2 9//3
f 14//4 16//5 13//6
f 10//2 13//6 9//3
f 11//7 14//4 10//2
f 12//1 15//8 11//7
f 16//5 9//3 13//6
f 4//1 3//7 2//2
f 6//4 7//8 8//5
f 2//2 6//4 5//6
f 3//7 7//8 6//4
f 4//1 8//5 7//8
f 8//5 4//1 1//3
f 12//1 11//7 10//2
f 14//4 15//8 16//5
f 10//2 14//4 13//6
f 11//7 15//8 14//4
f 12//1 16//5 15//8
f 16//5 12//1 9//3
s 0
usemtl verdant_carbonate
f 27//9 23//9 19//9
f 20//10 24//10 28//10
f 19//11 18//11 17//11
f 21//12 20//12 19//12
f 23//13 22//13 21//13
f 25//14 24//14 23//14
f 27//15 26//15 25//15
f 29//16 28//16 27//16
f 17//17 30//17 29//17
f 41//9 37//9 33//9
f 34//10 38//10 42//10
f 33//11 32//11 31//11
f 35//12 34//12 33//12
f 37//13 36//13 35//13
f 39//14 38//14 37//14
f 41//15 40//15 39//15
f 43//16 42//16 41//16
f 31//17 44//17 43//17
f 55//14 51//14 47//14
f 48//18 52//18 56//18
f 47//19 46//19 45//19
f 49//20 48//20 47//20
f 51//21 50//21 49//21
f 53//10 52//10 51//10
f 55//22 54//22 53//22
f 57//23 56//23 55//23
f 45//24 58//24 57//24
f 69//14 65//14 61//14
f 62//18 66//18 70//18
f 61//19 60//19 59//19
f 63//20 62//20 61//20
f 65//21 64//21 63//21
f 67//10 66//10 65//10
f 69//22 68//22 67//22
f 71//23 70//23 69//23
f 59//24 72//24 71//24
f 17//9 29//9 27//9
f 27//9 25//9 23//9
f 23//9 21//9 19//9
f 19//9 17//9 27//9
f 30//10 18//10 20//10
f 20//10 22//10 24//10
f 24//10 26//10 28//10
f 28//10 30//10 20//10
f 19//11 20//11 18//11
f 21//12 22//12 20//12
f 23//13 24//13 22//13
f 25//14 26//14 24//14
f 27//15 28//15 26//15
f 29//16 30//16 28//16
f 17//17 18//17 30//17
f 31//9 43//9 41//9
f 41//9 39//9 37//9
f 37//9 35//9 33//9
f 33//9 31//9 41//9
f 44//10 32//10 34//10
f 34//10 36//10 38//10
f 38//10 40//10 42//10
f 42//10 44//10 34//10
f 33//11 34//11 32//11
f 35//12 36//12 34//12
f 37//13 38//13 36//13
f 39//14 40//14 38//14
f 41//15 42//15 40//15
f 43//16 44//16 42//16
f 31//17 32//17 44//17
f 45//14 57//14 55//14
f 55//14 53//14 51//14
f 51//14 49//14 47//14
f 47//14 45//14 55//14
f 58//18 46//18 48//18
f 48//18 50//18 52//18
f 52//18 54//18 56//18
f 56//18 58//18 48//18
f 47//19 48//19 46//19
f 49//20 50//20 48//20
f 51//21 52//21 50//21
f 53//10 54//10 52//10
f 55//22 56//22 54//22
f 57//23 58//23 56//23
f 45//24 46//24 58//24
f 59//14 71//14 69//14
f 69//14 67//14 65//14
f 65//14 63//14 61//14
f 61//14 59//14 69//14
f 72//18 60//18 62//18
f 62//18 64//18 66//18
f 66//18 68//18 70//18
f 70//18 72//18 62//18
f 61//19 62//19 60//19
f 63//20 64//20 62//20
f 65//21 66//21 64//21
f 67//10 68//10 66//10
f 69//22 70//22 68//22
f 71//23 72//23 70//23
f 59//24 60//24 72//24
