# Blender 5.2.1 LTS
# www.blender.org
mtllib silica_cliff_a.mtl
o silica_cliff_a
v -3.400000 0.000000 0.400000
v -1.420100 0.140590 0.400000
v -1.685360 0.140590 1.107110
v -2.410050 0.140590 1.624740
v -3.400000 0.140590 1.814210
v -4.389950 0.140590 1.624740
v -5.114640 0.140590 1.107110
v -5.379900 0.140590 0.400000
v -5.114640 0.140590 -0.307110
v -4.389950 0.140590 -0.824740
v -3.400000 0.140590 -1.014210
v -2.410050 0.140590 -0.824740
v -1.685360 0.140590 -0.307110
v -0.600000 0.480000 0.400000
v -0.975130 0.480000 1.400000
v -2.000000 0.480000 2.132050
v -3.400000 0.480000 2.400000
v -4.800000 0.480000 2.132050
v -5.824870 0.480000 1.400000
v -6.200000 0.480000 0.400000
v -5.824870 0.480000 -0.600000
v -4.800000 0.480000 -1.332050
v -3.400000 0.480000 -1.600000
v -2.000000 0.480000 -1.332050
v -0.975130 0.480000 -0.600000
v -1.420100 0.819410 0.400000
v -1.685360 0.819410 1.107110
v -2.410050 0.819410 1.624740
v -3.400000 0.819410 1.814210
v -4.389950 0.819410 1.624740
v -5.114640 0.819410 1.107110
v -5.379900 0.819410 0.400000
v -5.114640 0.819410 -0.307110
v -4.389950 0.819410 -0.824740
v -3.400000 0.819410 -1.014210
v -2.410050 0.819410 -0.824740
v -1.685360 0.819410 -0.307110
v -3.400000 0.960000 0.400000
v -0.800000 0.380000 -0.100000
v 1.533450 0.549880 -0.100000
v 1.220830 0.549880 0.748530
v 0.366730 0.549880 1.369690
v -0.800000 0.549880 1.597060
v -1.966730 0.549880 1.369690
v -2.820830 0.549880 0.748530
v -3.133450 0.549880 -0.100000
v -2.820830 0.549880 -0.948530
v -1.966730 0.549880 -1.569690
v -0.800000 0.549880 -1.797060
v 0.366730 0.549880 -1.569690
v 1.220830 0.549880 -0.948530
v 2.500000 0.960000 -0.100000
v 2.057880 0.960000 1.100000
v 0.850000 0.960000 1.978460
v -0.800000 0.960000 2.300000
v -2.450000 0.960000 1.978460
v -3.657880 0.960000 1.100000
v -4.100000 0.960000 -0.100000
v -3.657880 0.960000 -1.300000
v -2.450000 0.960000 -2.178460
v -0.800000 0.960000 -2.500000
v 0.850000 0.960000 -2.178460
v 2.057880 0.960000 -1.300000
v 1.533450 1.370120 -0.100000
v 1.220830 1.370120 0.748530
v 0.366730 1.370120 1.369690
v -0.800000 1.370120 1.597060
v -1.966730 1.370120 1.369690
v -2.820830 1.370120 0.748530
v -3.133450 1.370120 -0.100000
v -2.820830 1.370120 -0.948530
v -1.966730 1.370120 -1.569690
v -0.800000 1.370120 -1.797060
v 0.366730 1.370120 -1.569690
v 1.220830 1.370120 -0.948530
v -0.800000 1.540000 -0.100000
v 2.100000 0.850000 0.300000
v 4.221320 1.002300 0.300000
v 3.937120 1.002300 1.042460
v 3.160660 1.002300 1.585980
v 2.100000 1.002300 1.784920
v 1.039340 1.002300 1.585980
v 0.262880 1.002300 1.042460
v -0.021320 1.002300 0.300000
v 0.262880 1.002300 -0.442460
v 1.039340 1.002300 -0.985980
v 2.100000 1.002300 -1.184920
v 3.160660 1.002300 -0.985980
v 3.937120 1.002300 -0.442460
v 5.100000 1.370000 0.300000
v 4.698080 1.370000 1.350000
v 3.600000 1.370000 2.118650
v 2.100000 1.370000 2.400000
v 0.600000 1.370000 2.118650
v -0.498080 1.370000 1.350000
v -0.900000 1.370000 0.300000
v -0.498080 1.370000 -0.750000
v 0.600000 1.370000 -1.518650
v 2.100000 1.370000 -1.800000
v 3.600000 1.370000 -1.518650
v 4.698080 1.370000 -0.750000
v 4.221320 1.737700 0.300000
v 3.937120 1.737700 1.042460
v 3.160660 1.737700 1.585980
v 2.100000 1.737700 1.784920
v 1.039340 1.737700 1.585980
v 0.262880 1.737700 1.042460
v -0.021320 1.737700 0.300000
v 0.262880 1.737700 -0.442460
v 1.039340 1.737700 -0.985980
v 2.100000 1.737700 -1.184920
v 3.160660 1.737700 -0.985980
v 3.937120 1.737700 -0.442460
v 2.100000 1.890000 0.300000
v 3.800000 0.300000 0.700000
v 5.143500 0.423020 0.700000
v 4.963510 0.423020 1.230330
v 4.471750 0.423020 1.618560
v 3.800000 0.423020 1.760660
v 3.128250 0.423020 1.618560
v 2.636490 0.423020 1.230330
v 2.456500 0.423020 0.700000
v 2.636490 0.423020 0.169670
v 3.128250 0.423020 -0.218560
v 3.800000 0.423020 -0.360660
v 4.471750 0.423020 -0.218560
v 4.963510 0.423020 0.169670
v 5.700000 0.720000 0.700000
v 5.445450 0.720000 1.450000
v 4.750000 0.720000 1.999040
v 3.800000 0.720000 2.200000
v 2.850000 0.720000 1.999040
v 2.154550 0.720000 1.450000
v 1.900000 0.720000 0.700000
v 2.154550 0.720000 -0.050000
v 2.850000 0.720000 -0.599040
v 3.800000 0.720000 -0.800000
v 4.750000 0.720000 -0.599040
v 5.445450 0.720000 -0.050000
v 5.143500 1.016980 0.700000
v 4.963510 1.016980 1.230330
v 4.471750 1.016980 1.618560
v 3.800000 1.016980 1.760660
v 3.128250 1.016980 1.618560
v 2.636490 1.016980 1.230330
v 2.456500 1.016980 0.700000
v 2.636490 1.016980 0.169670
v 3.128250 1.016980 -0.218560
v 3.800000 1.016980 -0.360660
v 4.471750 1.016980 -0.218560
v 4.963510 1.016980 0.169670
v 3.800000 1.140000 0.700000
v -1.500000 1.200000 0.100000
v 0.197060 1.331800 0.100000
v -0.030310 1.331800 0.701040
v -0.651470 1.331800 1.141030
v -1.500000 1.331800 1.302080
v -2.348530 1.331800 1.141030
v -2.969690 1.331800 0.701040
v -3.197060 1.331800 0.100000
v -2.969690 1.331800 -0.501040
v -2.348530 1.331800 -0.941030
v -1.500000 1.331800 -1.102080
v -0.651470 1.331800 -0.941030
v -0.030310 1.331800 -0.501040
v 0.900000 1.650000 0.100000
v 0.578460 1.650000 0.950000
v -0.300000 1.650000 1.572240
v -1.500000 1.650000 1.800000
v -2.700000 1.650000 1.572240
v -3.578460 1.650000 0.950000
v -3.900000 1.650000 0.100000
v -3.578460 1.650000 -0.750000
v -2.700000 1.650000 -1.372240
v -1.500000 1.650000 -1.600000
v -0.300000 1.650000 -1.372240
v 0.578460 1.650000 -0.750000
v 0.197060 1.968200 0.100000
v -0.030310 1.968200 0.701040
v -0.651470 1.968200 1.141030
v -1.500000 1.968200 1.302080
v -2.348530 1.968200 1.141030
v -2.969690 1.968200 0.701040
v -3.197060 1.968200 0.100000
v -2.969690 1.968200 -0.501040
v -2.348530 1.968200 -0.941030
v -1.500000 1.968200 -1.102080
v -0.651470 1.968200 -0.941030
v -0.030310 1.968200 -0.501040
v -1.500000 2.100000 0.100000
v 1.000000 1.650000 0.200000
v 2.484920 1.773020 0.200000
v 2.285980 1.773020 0.730330
v 1.742460 1.773020 1.118560
v 1.000000 1.773020 1.260660
v 0.257540 1.773020 1.118560
v -0.285980 1.773020 0.730330
v -0.484920 1.773020 0.200000
v -0.285980 1.773020 -0.330330
v 0.257540 1.773020 -0.718560
v 1.000000 1.773020 -0.860660
v 1.742460 1.773020 -0.718560
v 2.285980 1.773020 -0.330330
v 3.100000 2.070000 0.200000
v 2.818650 2.070000 0.950000
v 2.050000 2.070000 1.499040
v 1.000000 2.070000 1.700000
v -0.050000 2.070000 1.499040
v -0.818650 2.070000 0.950000
v -1.100000 2.070000 0.200000
v -0.818650 2.070000 -0.550000
v -0.050000 2.070000 -1.099040
v 1.000000 2.070000 -1.300000
v 2.050000 2.070000 -1.099040
v 2.818650 2.070000 -0.550000
v 2.484920 2.366980 0.200000
v 2.285980 2.366980 0.730330
v 1.742460 2.366980 1.118560
v 1.000000 2.366980 1.260660
v 0.257540 2.366980 1.118560
v -0.285980 2.366980 0.730330
v -0.484920 2.366980 0.200000
v -0.285980 2.366980 -0.330330
v 0.257540 2.366980 -0.718560
v 1.000000 2.366980 -0.860660
v 1.742460 2.366980 -0.718560
v 2.285980 2.366980 -0.330330
v 1.000000 2.490000 0.200000
v -4.691210 0.620000 -1.150390
v -1.291210 1.020000 -1.450390
v -4.685560 0.533990 -1.201080
v -1.285560 0.933990 -1.501080
v -4.694350 0.533990 -1.300690
v -1.294350 0.933990 -1.600690
v -4.708790 0.620000 -1.349610
v -1.308790 1.020000 -1.649610
v -4.714440 0.706010 -1.298920
v -1.314440 1.106010 -1.598920
v -4.705650 0.706010 -1.199310
v -1.305650 1.106010 -1.499310
v -1.991900 1.420000 -0.930270
v 1.408100 1.780000 -1.160270
v -1.985060 1.316650 -0.990870
v 1.414940 1.676650 -1.220870
v -1.993160 1.316650 -1.110600
v 1.406840 1.676650 -1.340600
v -2.008100 1.420000 -1.169730
v 1.391900 1.780000 -1.399730
v -2.014940 1.523350 -1.109130
v 1.385060 1.883350 -1.339130
v -2.006840 1.523350 -0.989400
v 1.393160 1.883350 -1.219400
v 0.506440 2.150000 -0.540190
v 3.406440 2.340000 -0.710190
v 0.509430 2.054940 -0.595460
v 3.409430 2.244940 -0.765460
v 0.502990 2.054940 -0.705270
v 3.402990 2.244940 -0.875270
v 0.493560 2.150000 -0.759810
v 3.393560 2.340000 -0.929810
v 0.490570 2.245060 -0.704540
v 3.390570 2.435060 -0.874540
v 0.497010 2.245060 -0.594730
v 3.397010 2.435060 -0.764730
v -2.780000 1.000000 -0.200000
v -3.100000 2.800000 -0.200000
v -2.938130 1.000000 0.128370
v -3.137650 2.800000 -0.121820
v -3.293460 1.000000 0.209470
v -3.222250 2.800000 -0.102510
v -3.578410 1.000000 -0.017770
v -3.290100 2.800000 -0.156610
v -3.578410 1.000000 -0.382230
v -3.290100 2.800000 -0.243390
v -3.293460 1.000000 -0.609470
v -3.222250 2.800000 -0.297490
v -2.938130 1.000000 -0.528370
v -3.137650 2.800000 -0.278180
v 0.020000 1.450000 0.350000
v -0.400000 4.150000 0.350000
v -0.175790 1.450000 0.756550
v -0.437650 4.150000 0.428180
v -0.615710 1.450000 0.856960
v -0.522250 4.150000 0.447490
v -0.968500 1.450000 0.575620
v -0.590100 4.150000 0.393390
v -0.968500 1.450000 0.124380
v -0.590100 4.150000 0.306610
v -0.615710 1.450000 -0.156960
v -0.522250 4.150000 0.252510
v -0.175790 1.450000 -0.056550
v -0.437650 4.150000 0.271820
v 2.160000 1.000000 -0.100000
v 1.800000 3.200000 -0.100000
v 1.986810 1.000000 0.259640
v 1.762350 3.200000 -0.021820
v 1.597640 1.000000 0.348470
v 1.677750 3.200000 -0.002510
v 1.285550 1.000000 0.099590
v 1.609900 3.200000 -0.056610
v 1.285550 1.000000 -0.299590
v 1.609900 3.200000 -0.143390
v 1.597640 1.000000 -0.548470
v 1.677750 3.200000 -0.197490
v 1.986810 1.000000 -0.459640
v 1.762350 3.200000 -0.178180
v 3.540000 1.450000 0.650000
v 3.300000 2.950000 0.650000
v 3.411990 1.450000 0.915820
v 3.262350 2.950000 0.728180
v 3.124340 1.450000 0.981480
v 3.177750 2.950000 0.747490
v 2.893670 1.450000 0.797520
v 3.109900 2.950000 0.693390
v 2.893670 1.450000 0.502480
v 3.109900 2.950000 0.606610
v 3.124340 1.450000 0.318520
v 3.177750 2.950000 0.552510
v 3.411990 1.450000 0.384180
v 3.262350 2.950000 0.571820
vn 0.0708 -0.9971 0.0266
vn 0.0518 -0.9960 0.0725
vn 0.0189 -0.9949 0.0989
vn -0.0189 -0.9949 0.0989
vn -0.0518 -0.9960 0.0725
vn -0.0708 -0.9971 0.0266
vn -0.0708 -0.9971 -0.0266
vn -0.0518 -0.9960 -0.0725
vn -0.0189 -0.9949 -0.0989
vn 0.0189 -0.9949 -0.0989
vn 0.0518 -0.9960 -0.0725
vn 0.0708 -0.9971 -0.0266
vn 0.3785 -0.9146 0.1420
vn 0.2687 -0.8868 0.3761
vn 0.0955 -0.8613 0.4990
vn -0.0955 -0.8613 0.4990
vn -0.2687 -0.8868 0.3761
vn -0.3785 -0.9146 0.1420
vn -0.3785 -0.9146 -0.1420
vn -0.2687 -0.8868 -0.3761
vn -0.0955 -0.8613 -0.4990
vn 0.0955 -0.8613 -0.4990
vn 0.2687 -0.8868 -0.3761
vn 0.3785 -0.9146 -0.1420
vn 0.3785 0.9146 0.1420
vn 0.2687 0.8868 0.3761
vn 0.0955 0.8613 0.4990
vn -0.0955 0.8613 0.4990
vn -0.2687 0.8868 0.3761
vn -0.3785 0.9146 0.1420
vn -0.3785 0.9146 -0.1420
vn -0.2687 0.8868 -0.3761
vn -0.0955 0.8613 -0.4990
vn 0.0955 0.8613 -0.4990
vn 0.2687 0.8868 -0.3761
vn 0.3785 0.9146 -0.1420
vn 0.0708 0.9971 0.0266
vn 0.0518 0.9960 0.0725
vn 0.0189 0.9949 0.0989
vn -0.0189 0.9949 0.0989
vn -0.0518 0.9960 0.0725
vn -0.0708 0.9971 0.0266
vn -0.0708 0.9971 -0.0266
vn -0.0518 0.9960 -0.0725
vn -0.0189 0.9949 -0.0989
vn 0.0189 0.9949 -0.0989
vn 0.0518 0.9960 -0.0725
vn 0.0708 0.9971 -0.0266
vn 0.0726 -0.9970 0.0267
vn 0.0531 -0.9959 0.0730
vn 0.0194 -0.9948 0.0996
vn -0.0194 -0.9948 0.0996
vn -0.0531 -0.9959 0.0730
vn -0.0726 -0.9970 0.0267
vn -0.0726 -0.9970 -0.0267
vn -0.0531 -0.9959 -0.0730
vn -0.0194 -0.9948 -0.0996
vn 0.0194 -0.9948 -0.0996
vn 0.0531 -0.9959 -0.0730
vn 0.0726 -0.9970 -0.0267
vn 0.3866 -0.9112 0.1424
vn 0.2747 -0.8843 0.3777
vn 0.0977 -0.8596 0.5015
vn -0.0977 -0.8596 0.5015
vn -0.2747 -0.8843 0.3777
vn -0.3866 -0.9112 0.1424
vn -0.3866 -0.9112 -0.1424
vn -0.2747 -0.8843 -0.3777
vn -0.0977 -0.8596 -0.5015
vn 0.0977 -0.8596 -0.5015
vn 0.2747 -0.8843 -0.3777
vn 0.3866 -0.9112 -0.1424
vn 0.3866 0.9112 0.1424
vn 0.2747 0.8843 0.3777
vn 0.0977 0.8596 0.5015
vn -0.0977 0.8596 0.5015
vn -0.2747 0.8843 0.3777
vn -0.3866 0.9112 0.1424
vn -0.3866 0.9112 -0.1424
vn -0.2747 0.8843 -0.3777
vn -0.0977 0.8596 -0.5015
vn 0.0977 0.8596 -0.5015
vn 0.2747 0.8843 -0.3777
vn 0.3866 0.9112 -0.1424
vn 0.0726 0.9970 0.0267
vn 0.0531 0.9959 0.0730
vn 0.0194 0.9948 0.0996
vn -0.0194 0.9948 0.0996
vn -0.0531 0.9959 0.0730
vn -0.0726 0.9970 0.0267
vn -0.0726 0.9970 -0.0267
vn -0.0531 0.9959 -0.0730
vn -0.0194 0.9948 -0.0996
vn 0.0194 0.9948 -0.0996
vn 0.0531 0.9959 -0.0730
vn 0.0726 0.9970 -0.0267
vn 0.0716 -0.9971 0.0274
vn 0.0523 -0.9958 0.0748
vn 0.0191 -0.9946 0.1020
vn -0.0191 -0.9946 0.1020
vn -0.0523 -0.9958 0.0748
vn -0.0716 -0.9971 0.0274
vn -0.0716 -0.9971 -0.0274
vn -0.0523 -0.9958 -0.0748
vn -0.0191 -0.9946 -0.1020
vn 0.0191 -0.9946 -0.1020
vn 0.0523 -0.9958 -0.0748
vn 0.0716 -0.9971 -0.0274
vn 0.3819 -0.9126 0.1462
vn 0.2702 -0.8820 0.3860
vn 0.0958 -0.8544 0.5108
vn -0.0958 -0.8544 0.5108
vn -0.2702 -0.8820 0.3860
vn -0.3819 -0.9126 0.1462
vn -0.3819 -0.9126 -0.1462
vn -0.2702 -0.8820 -0.3860
vn -0.0958 -0.8544 -0.5108
vn 0.0958 -0.8544 -0.5108
vn 0.2702 -0.8820 -0.3860
vn 0.3819 -0.9126 -0.1462
vn 0.3819 0.9126 0.1462
vn 0.2702 0.8820 0.3860
vn 0.0958 0.8544 0.5108
vn -0.0958 0.8544 0.5108
vn -0.2702 0.8820 0.3860
vn -0.3819 0.9126 0.1462
vn -0.3819 0.9126 -0.1462
vn -0.2702 0.8820 -0.3860
vn -0.0958 0.8544 -0.5108
vn 0.0958 0.8544 -0.5108
vn 0.2702 0.8820 -0.3860
vn 0.3819 0.9126 -0.1462
vn 0.0716 0.9971 0.0274
vn 0.0523 0.9958 0.0748
vn 0.0191 0.9946 0.1020
vn -0.0191 0.9946 0.1020
vn -0.0523 0.9958 0.0748
vn -0.0716 0.9971 0.0274
vn -0.0716 0.9971 -0.0274
vn -0.0523 0.9958 -0.0748
vn -0.0191 0.9946 -0.1020
vn 0.0191 0.9946 -0.1020
vn 0.0523 0.9958 -0.0748
vn 0.0716 0.9971 -0.0274
vn 0.0911 -0.9954 0.0309
vn 0.0666 -0.9942 0.0844
vn 0.0244 -0.9930 0.1152
vn -0.0244 -0.9930 0.1152
vn -0.0666 -0.9942 0.0844
vn -0.0911 -0.9954 0.0309
vn -0.0911 -0.9954 -0.0309
vn -0.0666 -0.9942 -0.0844
vn -0.0244 -0.9930 -0.1152
vn 0.0244 -0.9930 -0.1152
vn 0.0666 -0.9942 -0.0844
vn 0.0911 -0.9954 -0.0309
vn 0.4649 -0.8712 0.1578
vn 0.3305 -0.8459 0.4186
vn 0.1176 -0.8227 0.5561
vn -0.1176 -0.8227 0.5561
vn -0.3305 -0.8459 0.4186
vn -0.4649 -0.8712 0.1578
vn -0.4649 -0.8712 -0.1578
vn -0.3305 -0.8459 -0.4186
vn -0.1176 -0.8227 -0.5561
vn 0.1176 -0.8227 -0.5561
vn 0.3305 -0.8459 -0.4186
vn 0.4649 -0.8712 -0.1578
vn 0.4649 0.8712 0.1578
vn 0.3305 0.8459 0.4186
vn 0.1176 0.8227 0.5561
vn -0.1176 0.8227 0.5561
vn -0.3305 0.8459 0.4186
vn -0.4649 0.8712 0.1578
vn -0.4649 0.8712 -0.1578
vn -0.3305 0.8459 -0.4186
vn -0.1176 0.8227 -0.5561
vn 0.1176 0.8227 -0.5561
vn 0.3305 0.8459 -0.4186
vn 0.4649 0.8712 -0.1578
vn 0.0911 0.9954 0.0309
vn 0.0666 0.9942 0.0844
vn 0.0244 0.9930 0.1152
vn -0.0244 0.9930 0.1152
vn -0.0666 0.9942 0.0844
vn -0.0911 0.9954 0.0309
vn -0.0911 0.9954 -0.0309
vn -0.0666 0.9942 -0.0844
vn -0.0244 0.9930 -0.1152
vn 0.0244 0.9930 -0.1152
vn 0.0666 0.9942 -0.0844
vn 0.0911 0.9954 -0.0309
vn 0.0774 -0.9966 0.0293
vn 0.0566 -0.9952 0.0799
vn 0.0207 -0.9938 0.1090
vn -0.0207 -0.9938 0.1090
vn -0.0566 -0.9952 0.0799
vn -0.0774 -0.9966 0.0293
vn -0.0774 -0.9966 -0.0293
vn -0.0566 -0.9952 -0.0799
vn -0.0207 -0.9938 -0.1090
vn 0.0207 -0.9938 -0.1090
vn 0.0566 -0.9952 -0.0799
vn 0.0774 -0.9966 -0.0293
vn 0.4075 -0.9001 0.1541
vn 0.2875 -0.8675 0.4059
vn 0.1017 -0.8383 0.5357
vn -0.1017 -0.8383 0.5357
vn -0.2875 -0.8675 0.4059
vn -0.4075 -0.9001 0.1541
vn -0.4075 -0.9001 -0.1541
vn -0.2875 -0.8675 -0.4059
vn -0.1017 -0.8383 -0.5357
vn 0.1017 -0.8383 -0.5357
vn 0.2875 -0.8675 -0.4059
vn 0.4075 -0.9001 -0.1541
vn 0.4075 0.9001 0.1541
vn 0.2875 0.8675 0.4059
vn 0.1017 0.8383 0.5357
vn -0.1017 0.8383 0.5357
vn -0.2875 0.8675 0.4059
vn -0.4075 0.9001 0.1541
vn -0.4075 0.9001 -0.1541
vn -0.2875 0.8675 -0.4059
vn -0.1017 0.8383 -0.5357
vn 0.1017 0.8383 -0.5357
vn 0.2875 0.8675 -0.4059
vn 0.4075 0.9001 -0.1541
vn 0.0774 0.9966 0.0293
vn 0.0566 0.9952 0.0799
vn 0.0207 0.9938 0.1090
vn -0.0207 0.9938 0.1090
vn -0.0566 0.9952 0.0799
vn -0.0774 0.9966 0.0293
vn -0.0774 0.9966 -0.0293
vn -0.0566 0.9952 -0.0799
vn -0.0207 0.9938 -0.1090
vn 0.0207 0.9938 -0.1090
vn 0.0566 0.9952 -0.0799
vn 0.0774 0.9966 -0.0293
vn 0.0825 -0.9961 0.0310
vn 0.0603 -0.9946 0.0844
vn 0.0220 -0.9931 0.1152
vn -0.0220 -0.9931 0.1152
vn -0.0603 -0.9946 0.0844
vn -0.0825 -0.9961 0.0310
vn -0.0825 -0.9961 -0.0310
vn -0.0603 -0.9946 -0.0844
vn -0.0220 -0.9931 -0.1152
vn 0.0220 -0.9931 -0.1152
vn 0.0603 -0.9946 -0.0844
vn 0.0825 -0.9961 -0.0310
vn 0.4291 -0.8888 0.1610
vn 0.3020 -0.8544 0.4228
vn 0.1066 -0.8238 0.5568
vn -0.1066 -0.8238 0.5568
vn -0.3020 -0.8544 0.4228
vn -0.4291 -0.8888 0.1610
vn -0.4291 -0.8888 -0.1610
vn -0.3020 -0.8544 -0.4228
vn -0.1066 -0.8238 -0.5568
vn 0.1066 -0.8238 -0.5568
vn 0.3020 -0.8544 -0.4228
vn 0.4291 -0.8888 -0.1610
vn 0.4291 0.8888 0.1610
vn 0.3020 0.8544 0.4228
vn 0.1066 0.8238 0.5568
vn -0.1066 0.8238 0.5568
vn -0.3020 0.8544 0.4228
vn -0.4291 0.8888 0.1610
vn -0.4291 0.8888 -0.1610
vn -0.3020 0.8544 -0.4228
vn -0.1066 0.8238 -0.5568
vn 0.1066 0.8238 -0.5568
vn 0.3020 0.8544 -0.4228
vn 0.4291 0.8888 -0.1610
vn 0.0825 0.9961 0.0310
vn 0.0603 0.9946 0.0844
vn 0.0220 0.9931 0.1152
vn -0.0220 0.9931 0.1152
vn -0.0603 0.9946 0.0844
vn -0.0825 0.9961 0.0310
vn -0.0825 0.9961 -0.0310
vn -0.0603 0.9946 -0.0844
vn -0.0220 0.9931 -0.1152
vn 0.0220 0.9931 -0.1152
vn 0.0603 0.9946 -0.0844
vn 0.0825 0.9961 -0.0310
vn -0.9894 -0.1164 0.0873
vn 0.9894 0.1164 -0.0873
vn 0.1341 -0.4966 0.8576
vn 0.1159 -0.9932 -0.0102
vn -0.0181 -0.4966 -0.8678
vn -0.1341 0.4966 -0.8576
vn -0.1159 0.9932 0.0102
vn 0.0181 0.4966 0.8678
vn -0.9922 -0.1050 0.0671
vn 0.9922 0.1050 -0.0671
vn 0.1109 -0.4972 0.8605
vn 0.1048 -0.9945 -0.0071
vn -0.0060 -0.4972 -0.8676
vn -0.1109 0.4972 -0.8605
vn -0.1048 0.9945 0.0071
vn 0.0060 0.4972 0.8676
vn -0.9962 -0.0653 0.0584
vn 0.9962 0.0653 -0.0584
vn 0.0833 -0.4989 0.8626
vn 0.0652 -0.9979 -0.0038
vn -0.0181 -0.4989 -0.8665
vn -0.0833 0.4989 -0.8626
vn -0.0652 0.9979 0.0038
vn 0.0181 0.4989 0.8665
vn -0.0000 -1.0000 -0.0000
vn -0.0000 1.0000 -0.0000
vn 0.8896 0.1582 0.4284
vn 0.2197 0.1582 0.9627
vn -0.6156 0.1582 0.7720
vn -0.9874 0.1582 -0.0000
vn -0.6156 0.1582 -0.7720
vn 0.2197 0.1582 -0.9627
vn 0.8896 0.1582 -0.4284
vn 0.8922 0.1388 0.4297
vn 0.2204 0.1388 0.9655
vn -0.6175 0.1388 0.7743
vn -0.9903 0.1388 -0.0000
vn -0.6175 0.1388 -0.7743
vn 0.2204 0.1388 -0.9655
vn 0.8922 0.1388 -0.4297
vn 0.8913 0.1459 0.4292
vn 0.2202 0.1459 0.9645
vn -0.6168 0.1459 0.7735
vn -0.9893 0.1459 -0.0000
vn -0.6168 0.1459 -0.7735
vn 0.2202 0.1459 -0.9645
vn 0.8913 0.1459 -0.4292
vn 0.8918 0.1427 0.4294
vn 0.2203 0.1427 0.9649
vn -0.6171 0.1427 0.7738
vn -0.9898 0.1427 -0.0000
vn -0.6171 0.1427 -0.7738
vn 0.2203 0.1427 -0.9649
vn 0.8918 0.1427 -0.4294
vn -0.9894 -0.1165 0.0873
vn -0.6174 0.1388 0.7743
vn -0.6174 0.1388 -0.7743
vn 0.2201 0.1459 0.9645
vn 0.2201 0.1459 -0.9645
vn 0.8917 0.1427 0.4294
vn 0.2203 0.1427 0.9650
vn -0.6170 0.1427 0.7739
vn -0.6170 0.1427 -0.7739
vn 0.2203 0.1427 -0.9650
vn 0.8917 0.1427 -0.4294
s 0
usemtl verdant_silica
f 1//1 2//1 3//1
f 1//2 3//2 4//2
f 1//3 4//3 5//3
f 1//4 5//4 6//4
f 1//5 6//5 7//5
f 1//6 7//6 8//6
f 1//7 8//7 9//7
f 1//8 9//8 10//8
f 1//9 10//9 11//9
f 1//10 11//10 12//10
f 1//11 12//11 13//11
f 1//12 13//12 2//12
f 2//13 15//13 3//13
f 3//14 16//14 4//14
f 4//15 17//15 5//15
f 17//16 6//16 5//16
f 18//17 7//17 6//17
f 19//18 8//18 7//18
f 8//19 21//19 9//19
f 9//20 22//20 10//20
f 10//21 23//21 11//21
f 23//22 12//22 11//22
f 24//23 13//23 12//23
f 25//24 2//24 13//24
f 26//25 15//25 14//25
f 27//26 16//26 15//26
f 28//27 17//27 16//27
f 17//28 30//28 18//28
f 18//29 31//29 19//29
f 19//30 32//30 20//30
f 32//31 21//31 20//31
f 33//32 22//32 21//32
f 34//33 23//33 22//33
f 23//34 36//34 24//34
f 24//35 37//35 25//35
f 25//36 26//36 14//36
f 26//37 38//37 27//37
f 27//38 38//38 28//38
f 28//39 38//39 29//39
f 29//40 38//40 30//40
f 30//41 38//41 31//41
f 31//42 38//42 32//42
f 32//43 38//43 33//43
f 33//44 38//44 34//44
f 34//45 38//45 35//45
f 35//46 38//46 36//46
f 36//47 38//47 37//47
f 37//48 38//48 26//48
f 39//49 40//49 41//49
f 39//50 41//50 42//50
f 39//51 42//51 43//51
f 39//52 43//52 44//52
f 39//53 44//53 45//53
f 39//54 45//54 46//54
f 39//55 46//55 47//55
f 39//56 47//56 48//56
f 39//57 48//57 49//57
f 39//58 49//58 50//58
f 39//59 50//59 51//59
f 39//60 51//60 40//60
f 40//61 53//61 41//61
f 41//62 54//62 42//62
f 42//63 55//63 43//63
f 55//64 44//64 43//64
f 56//65 45//65 44//65
f 57//66 46//66 45//66
f 46//67 59//67 47//67
f 47//68 60//68 48//68
f 48//69 61//69 49//69
f 61//70 50//70 49//70
f 62//71 51//71 50//71
f 63//72 40//72 51//72
f 64//73 53//73 52//73
f 65//74 54//74 53//74
f 66//75 55//75 54//75
f 55//76 68//76 56//76
f 56//77 69//77 57//77
f 57//78 70//78 58//78
f 70//79 59//79 58//79
f 71//80 60//80 59//80
f 72//81 61//81 60//81
f 61//82 74//82 62//82
f 62//83 75//83 63//83
f 63//84 64//84 52//84
f 64//85 76//85 65//85
f 65//86 76//86 66//86
f 66//87 76//87 67//87
f 67//88 76//88 68//88
f 68//89 76//89 69//89
f 69//90 76//90 70//90
f 70//91 76//91 71//91
f 71//92 76//92 72//92
f 72//93 76//93 73//93
f 73//94 76//94 74//94
f 74//95 76//95 75//95
f 75//96 76//96 64//96
f 77//97 78//97 79//97
f 77//98 79//98 80//98
f 77//99 80//99 81//99
f 77//100 81//100 82//100
f 77//101 82//101 83//101
f 77//102 83//102 84//102
f 77//103 84//103 85//103
f 77//104 85//104 86//104
f 77//105 86//105 87//105
f 77//106 87//106 88//106
f 77//107 88//107 89//107
f 77//108 89//108 78//108
f 78//109 91//109 79//109
f 79//110 92//110 80//110
f 80//111 93//111 81//111
f 93//112 82//112 81//112
f 94//113 83//113 82//113
f 95//114 84//114 83//114
f 84//115 97//115 85//115
f 85//116 98//116 86//116
f 86//117 99//117 87//117
f 99//118 88//118 87//118
f 100//119 89//119 88//119
f 101//120 78//120 89//120
f 102//121 91//121 90//121
f 103//122 92//122 91//122
f 104//123 93//123 92//123
f 93//124 106//124 94//124
f 94//125 107//125 95//125
f 95//126 108//126 96//126
f 108//127 97//127 96//127
f 109//128 98//128 97//128
f 110//129 99//129 98//129
f 99//130 112//130 100//130
f 100//131 113//131 101//131
f 101//132 102//132 90//132
f 102//133 114//133 103//133
f 103//134 114//134 104//134
f 104//135 114//135 105//135
f 105//136 114//136 106//136
f 106//137 114//137 107//137
f 107//138 114//138 108//138
f 108//139 114//139 109//139
f 109//140 114//140 110//140
f 110//141 114//141 111//141
f 111//142 114//142 112//142
f 112//143 114//143 113//143
f 113//144 114//144 102//144
f 115//145 116//145 117//145
f 115//146 117//146 118//146
f 115//147 118//147 119//147
f 115//148 119//148 120//148
f 115//149 120//149 121//149
f 115//150 121//150 122//150
f 115//151 122//151 123//151
f 115//152 123//152 124//152
f 115//153 124//153 125//153
f 115//154 125//154 126//154
f 115//155 126//155 127//155
f 115//156 127//156 116//156
f 116//157 129//157 117//157
f 117//158 130//158 118//158
f 118//159 131//159 119//159
f 131//160 120//160 119//160
f 132//161 121//161 120//161
f 133//162 122//162 121//162
f 122//163 135//163 123//163
f 123//164 136//164 124//164
f 124//165 137//165 125//165
f 137//166 126//166 125//166
f 138//167 127//167 126//167
f 139//168 116//168 127//168
f 140//169 129//169 128//169
f 141//170 130//170 129//170
f 142//171 131//171 130//171
f 131//172 144//172 132//172
f 132//173 145//173 133//173
f 133//174 146//174 134//174
f 146//175 135//175 134//175
f 147//176 136//176 135//176
f 148//177 137//177 136//177
f 137//178 150//178 138//178
f 138//179 151//179 139//179
f 139//180 140//180 128//180
f 140//181 152//181 141//181
f 141//182 152//182 142//182
f 142//183 152//183 143//183
f 143//184 152//184 144//184
f 144//185 152//185 145//185
f 145//186 152//186 146//186
f 146//187 152//187 147//187
f 147//188 152//188 148//188
f 148//189 152//189 149//189
f 149//190 152//190 150//190
f 150//191 152//191 151//191
f 151//192 152//192 140//192
f 153//193 154//193 155//193
f 153//194 155//194 156//194
f 153//195 156//195 157//195
f 153//196 157//196 158//196
f 153//197 158//197 159//197
f 153//198 159//198 160//198
f 153//199 160//199 161//199
f 153//200 161//200 162//200
f 153//201 162//201 163//201
f 153//202 163//202 164//202
f 153//203 164//203 165//203
f 153//204 165//204 154//204
f 154//205 167//205 155//205
f 155//206 168//206 156//206
f 156//207 169//207 157//207
f 169//208 158//208 157//208
f 170//209 159//209 158//209
f 171//210 160//210 159//210
f 160//211 173//211 161//211
f 161//212 174//212 162//212
f 162//213 175//213 163//213
f 175//214 164//214 163//214
f 176//215 165//215 164//215
f 177//216 154//216 165//216
f 178//217 167//217 166//217
f 179//218 168//218 167//218
f 180//219 169//219 168//219
f 169//220 182//220 170//220
f 170//221 183//221 171//221
f 171//222 184//222 172//222
f 184//223 173//223 172//223
f 185//224 174//224 173//224
f 186//225 175//225 174//225
f 175//226 188//226 176//226
f 176//227 189//227 177//227
f 177//228 178//228 166//228
f 178//229 190//229 179//229
f 179//230 190//230 180//230
f 180//231 190//231 181//231
f 181//232 190//232 182//232
f 182//233 190//233 183//233
f 183//234 190//234 184//234
f 184//235 190//235 185//235
f 185//236 190//236 186//236
f 186//237 190//237 187//237
f 187//238 190//238 188//238
f 188//239 190//239 189//239
f 189//240 190//240 178//240
f 191//241 192//241 193//241
f 191//242 193//242 194//242
f 191//243 194//243 195//243
f 191//244 195//244 196//244
f 191//245 196//245 197//245
f 191//246 197//246 198//246
f 191//247 198//247 199//247
f 191//248 199//248 200//248
f 191//249 200//249 201//249
f 191//250 201//250 202//250
f 191//251 202//251 203//251
f 191//252 203//252 192//252
f 192//253 205//253 193//253
f 193//254 206//254 194//254
f 194//255 207//255 195//255
f 207//256 196//256 195//256
f 208//257 197//257 196//257
f 209//258 198//258 197//258
f 198//259 211//259 199//259
f 199//260 212//260 200//260
f 200//261 213//261 201//261
f 213//262 202//262 201//262
f 214//263 203//263 202//263
f 215//264 192//264 203//264
f 216//265 205//265 204//265
f 217//266 206//266 205//266
f 218//267 207//267 206//267
f 207//268 220//268 208//268
f 208//269 221//269 209//269
f 209//270 222//270 210//270
f 222//271 211//271 210//271
f 223//272 212//272 211//272
f 224//273 213//273 212//273
f 213//274 226//274 214//274
f 214//275 227//275 215//275
f 215//276 216//276 204//276
f 216//277 228//277 217//277
f 217//278 228//278 218//278
f 218//279 228//279 219//279
f 219//280 228//280 220//280
f 220//281 228//281 221//281
f 221//282 228//282 222//282
f 222//283 228//283 223//283
f 223//284 228//284 224//284
f 224//285 228//285 225//285
f 225//286 228//286 226//286
f 226//287 228//287 227//287
f 227//288 228//288 216//288
f 2//13 14//13 15//13
f 3//14 15//14 16//14
f 4//15 16//15 17//15
f 17//16 18//16 6//16
f 18//17 19//17 7//17
f 19//18 20//18 8//18
f 8//19 20//19 21//19
f 9//20 21//20 22//20
f 10//21 22//21 23//21
f 23//22 24//22 12//22
f 24//23 25//23 13//23
f 25//24 14//24 2//24
f 26//25 27//25 15//25
f 27//26 28//26 16//26
f 28//27 29//27 17//27
f 17//28 29//28 30//28
f 18//29 30//29 31//29
f 19//30 31//30 32//30
f 32//31 33//31 21//31
f 33//32 34//32 22//32
f 34//33 35//33 23//33
f 23//34 35//34 36//34
f 24//35 36//35 37//35
f 25//36 37//36 26//36
f 40//61 52//61 53//61
f 41//62 53//62 54//62
f 42//63 54//63 55//63
f 55//64 56//64 44//64
f 56//65 57//65 45//65
f 57//66 58//66 46//66
f 46//67 58//67 59//67
f 47//68 59//68 60//68
f 48//69 60//69 61//69
f 61//70 62//70 50//70
f 62//71 63//71 51//71
f 63//72 52//72 40//72
f 64//73 65//73 53//73
f 65//74 66//74 54//74
f 66//75 67//75 55//75
f 55//76 67//76 68//76
f 56//77 68//77 69//77
f 57//78 69//78 70//78
f 70//79 71//79 59//79
f 71//80 72//80 60//80
f 72//81 73//81 61//81
f 61//82 73//82 74//82
f 62//83 74//83 75//83
f 63//84 75//84 64//84
f 78//109 90//109 91//109
f 79//110 91//110 92//110
f 80//111 92//111 93//111
f 93//112 94//112 82//112
f 94//113 95//113 83//113
f 95//114 96//114 84//114
f 84//115 96//115 97//115
f 85//116 97//116 98//116
f 86//117 98//117 99//117
f 99//118 100//118 88//118
f 100//119 101//119 89//119
f 101//120 90//120 78//120
f 102//121 103//121 91//121
f 103//122 104//122 92//122
f 104//123 105//123 93//123
f 93//124 105//124 106//124
f 94//125 106//125 107//125
f 95//126 107//126 108//126
f 108//127 109//127 97//127
f 109//128 110//128 98//128
f 110//129 111//129 99//129
f 99//130 111//130 112//130
f 100//131 112//131 113//131
f 101//132 113//132 102//132
f 116//157 128//157 129//157
f 117//158 129//158 130//158
f 118//159 130//159 131//159
f 131//160 132//160 120//160
f 132//161 133//161 121//161
f 133//162 134//162 122//162
f 122//163 134//163 135//163
f 123//164 135//164 136//164
f 124//165 136//165 137//165
f 137//166 138//166 126//166
f 138//167 139//167 127//167
f 139//168 128//168 116//168
f 140//169 141//169 129//169
f 141//170 142//170 130//170
f 142//171 143//171 131//171
f 131//172 143//172 144//172
f 132//173 144//173 145//173
f 133//174 145//174 146//174
f 146//175 147//175 135//175
f 147//176 148//176 136//176
f 148//177 149//177 137//177
f 137//178 149//178 150//178
f 138//179 150//179 151//179
f 139//180 151//180 140//180
f 154//205 166//205 167//205
f 155//206 167//206 168//206
f 156//207 168//207 169//207
f 169//208 170//208 158//208
f 170//209 171//209 159//209
f 171//210 172//210 160//210
f 160//211 172//211 173//211
f 161//212 173//212 174//212
f 162//213 174//213 175//213
f 175//214 176//214 164//214
f 176//215 177//215 165//215
f 177//216 166//216 154//216
f 178//217 179//217 167//217
f 179//218 180//218 168//218
f 180//219 181//219 169//219
f 169//220 181//220 182//220
f 170//221 182//221 183//221
f 171//222 183//222 184//222
f 184//223 185//223 173//223
f 185//224 186//224 174//224
f 186//225 187//225 175//225
f 175//226 187//226 188//226
f 176//227 188//227 189//227
f 177//228 189//228 178//228
f 192//253 204//253 205//253
f 193//254 205//254 206//254
f 194//255 206//255 207//255
f 207//256 208//256 196//256
f 208//257 209//257 197//257
f 209//258 210//258 198//258
f 198//259 210//259 211//259
f 199//260 211//260 212//260
f 200//261 212//261 213//261
f 213//262 214//262 202//262
f 214//263 215//263 203//263
f 215//264 204//264 192//264
f 216//265 217//265 205//265
f 217//266 218//266 206//266
f 218//267 219//267 207//267
f 207//268 219//268 220//268
f 208//269 220//269 221//269
f 209//270 221//270 222//270
f 222//271 223//271 211//271
f 223//272 224//272 212//272
f 224//273 225//273 213//273
f 213//274 225//274 226//274
f 214//275 226//275 227//275
f 215//276 227//276 216//276
usemtl verdant_silica
f 237//289 233//289 229//289
f 232//290 236//290 240//290
f 231//291 230//291 229//291
f 231//292 234//292 232//292
f 233//293 236//293 234//293
f 235//294 238//294 236//294
f 239//295 238//295 237//295
f 229//296 240//296 239//296
f 249//297 245//297 241//297
f 244//298 248//298 252//298
f 241//299 244//299 242//299
f 243//300 246//300 244//300
f 247//301 246//301 245//301
f 249//302 248//302 247//302
f 251//303 250//303 249//303
f 251//304 242//304 252//304
f 261//305 257//305 253//305
f 256//306 260//306 264//306
f 255//307 254//307 253//307
f 255//308 258//308 256//308
f 257//309 260//309 258//309
f 259//310 262//310 260//310
f 263//311 262//311 261//311
f 253//312 264//312 263//312
f 265//313 269//313 273//313
f 278//314 274//314 270//314
f 266//315 267//315 265//315
f 268//316 269//316 267//316
f 269//317 272//317 271//317
f 272//318 273//318 271//318
f 274//319 275//319 273//319
f 275//320 278//320 277//320
f 278//321 265//321 277//321
f 279//313 283//313 287//313
f 292//314 288//314 284//314
f 280//322 281//322 279//322
f 282//323 283//323 281//323
f 283//324 286//324 285//324
f 286//325 287//325 285//325
f 288//326 289//326 287//326
f 290//327 291//327 289//327
f 292//328 279//328 291//328
f 293//313 297//313 301//313
f 306//314 302//314 298//314
f 294//329 295//329 293//329
f 295//330 298//330 297//330
f 297//331 300//331 299//331
f 300//332 301//332 299//332
f 302//333 303//333 301//333
f 304//334 305//334 303//334
f 306//335 293//335 305//335
f 307//313 311//313 315//313
f 320//314 316//314 312//314
f 308//336 309//336 307//336
f 309//337 312//337 311//337
f 311//338 314//338 313//338
f 314//339 315//339 313//339
f 316//340 317//340 315//340
f 318//341 319//341 317//341
f 320//342 307//342 319//342
f 229//343 239//343 237//343
f 237//289 235//289 233//289
f 233//289 231//289 229//289
f 240//290 230//290 232//290
f 232//290 234//290 236//290
f 236//290 238//290 240//290
f 231//291 232//291 230//291
f 231//292 233//292 234//292
f 233//293 235//293 236//293
f 235//294 237//294 238//294
f 239//295 240//295 238//295
f 229//296 230//296 240//296
f 241//297 251//297 249//297
f 249//297 247//297 245//297
f 245//297 243//297 241//297
f 252//298 242//298 244//298
f 244//298 246//298 248//298
f 248//298 250//298 252//298
f 241//299 243//299 244//299
f 243//300 245//300 246//300
f 247//301 248//301 246//301
f 249//302 250//302 248//302
f 251//303 252//303 250//303
f 251//304 241//304 242//304
f 253//305 263//305 261//305
f 261//305 259//305 257//305
f 257//305 255//305 253//305
f 264//306 254//306 256//306
f 256//306 258//306 260//306
f 260//306 262//306 264//306
f 255//307 256//307 254//307
f 255//308 257//308 258//308
f 257//309 259//309 260//309
f 259//310 261//310 262//310
f 263//311 264//311 262//311
f 253//312 254//312 264//312
f 275//313 277//313 265//313
f 265//313 267//313 269//313
f 269//313 271//313 273//313
f 273//313 275//313 265//313
f 268//314 266//314 278//314
f 278//314 276//314 274//314
f 274//314 272//314 270//314
f 270//314 268//314 278//314
f 266//315 268//315 267//315
f 268//316 270//316 269//316
f 269//317 270//317 272//317
f 272//318 274//318 273//318
f 274//319 276//319 275//319
f 275//320 276//320 278//320
f 278//321 266//321 265//321
f 289//313 291//313 279//313
f 279//313 281//313 283//313
f 283//313 285//313 287//313
f 287//313 289//313 279//313
f 282//314 280//314 292//314
f 292//314 290//314 288//314
f 288//314 286//314 284//314
f 284//314 282//314 292//314
f 280//322 282//322 281//322
f 282//323 284//323 283//323
f 283//344 284//344 286//344
f 286//325 288//325 287//325
f 288//345 290//345 289//345
f 290//327 292//327 291//327
f 292//328 280//328 279//328
f 303//313 305//313 293//313
f 293//313 295//313 297//313
f 297//313 299//313 301//313
f 301//313 303//313 293//313
f 296//314 294//314 306//314
f 306//314 304//314 302//314
f 302//314 300//314 298//314
f 298//314 296//314 306//314
f 294//329 296//329 295//329
f 295//346 296//346 298//346
f 297//331 298//331 300//331
f 300//332 302//332 301//332
f 302//333 304//333 303//333
f 304//347 306//347 305//347
f 306//335 294//335 293//335
f 317//313 319//313 307//313
f 307//313 309//313 311//313
f 311//313 313//313 315//313
f 315//313 317//313 307//313
f 310//314 308//314 320//314
f 320//314 318//314 316//314
f 316//314 314//314 312//314
f 312//314 310//314 320//314
f 308//348 310//348 309//348
f 309//349 310//349 312//349
f 311//350 312//350 314//350
f 314//339 316//339 315//339
f 316//351 318//351 317//351
f 318//352 320//352 319//352
f 320//353 308//353 307//353
