# Blender 5.2.1 LTS
# www.blender.org
mtllib silica_lichen_a.mtl
o silica_lichen_a
v -1.600000 -0.000000 -0.300000
v -0.127760 0.025000 -0.300000
v -0.325000 0.025000 0.111360
v -0.863880 0.025000 0.412500
v -1.600000 0.025000 0.522720
v -2.336120 0.025000 0.412500
v -2.875000 0.025000 0.111360
v -3.072240 0.025000 -0.300000
v -2.875000 0.025000 -0.711360
v -2.336120 0.025000 -1.012500
v -1.600000 0.025000 -1.122720
v -0.863880 0.025000 -1.012500
v -0.325000 0.025000 -0.711360
v -0.127760 0.075000 -0.300000
v -0.325000 0.075000 0.111360
v -0.863880 0.075000 0.412500
v -1.600000 0.075000 0.522720
v -2.336120 0.075000 0.412500
v -2.875000 0.075000 0.111360
v -3.072240 0.075000 -0.300000
v -2.875000 0.075000 -0.711360
v -2.336120 0.075000 -1.012500
v -1.600000 0.075000 -1.122720
v -0.863880 0.075000 -1.012500
v -0.325000 0.075000 -0.711360
v -1.600000 0.100000 -0.300000
v 0.500000 0.000000 0.500000
v 2.232050 0.025000 0.500000
v 2.000000 0.025000 0.997960
v 1.366030 0.025000 1.362500
v 0.500000 0.025000 1.495930
v -0.366030 0.025000 1.362500
v -1.000000 0.025000 0.997960
v -1.232050 0.025000 0.500000
v -1.000000 0.025000 0.002040
v -0.366030 0.025000 -0.362500
v 0.500000 0.025000 -0.495930
v 1.366030 0.025000 -0.362500
v 2.000000 0.025000 0.002040
v 2.232050 0.075000 0.500000
v 2.000000 0.075000 0.997960
v 1.366030 0.075000 1.362500
v 0.500000 0.075000 1.495930
v -0.366030 0.075000 1.362500
v -1.000000 0.075000 0.997960
v -1.232050 0.075000 0.500000
v -1.000000 0.075000 0.002040
v -0.366030 0.075000 -0.362500
v 0.500000 0.075000 -0.495930
v 1.366030 0.075000 -0.362500
v 2.000000 0.075000 0.002040
v 0.500000 0.100000 0.500000
v 2.000000 -0.000000 -0.500000
v 3.082530 0.025000 -0.500000
v 2.937500 0.025000 -0.175240
v 2.541270 0.025000 0.062500
v 2.000000 0.025000 0.149520
v 1.458730 0.025000 0.062500
v 1.062500 0.025000 -0.175240
v 0.917470 0.025000 -0.500000
v 1.062500 0.025000 -0.824760
v 1.458730 0.025000 -1.062500
v 2.000000 0.025000 -1.149520
v 2.541270 0.025000 -1.062500
v 2.937500 0.025000 -0.824760
v 3.082530 0.075000 -0.500000
v 2.937500 0.075000 -0.175240
v 2.541270 0.075000 0.062500
v 2.000000 0.075000 0.149520
v 1.458730 0.075000 0.062500
v 1.062500 0.075000 -0.175240
v 0.917470 0.075000 -0.500000
v 1.062500 0.075000 -0.824760
v 1.458730 0.075000 -1.062500
v 2.000000 0.075000 -1.149520
v 2.541270 0.075000 -1.062500
v 2.937500 0.075000 -0.824760
v 2.000000 0.100000 -0.500000
v 0.249480 0.074550 0.216550
v 0.303910 0.464550 0.323490
v 0.202270 0.073400 0.244750
v 0.256700 0.463400 0.351690
v 0.202270 0.058860 0.297790
v 0.256700 0.448860 0.404740
v 0.249480 0.045450 0.322630
v 0.303910 0.435450 0.429580
v 0.296680 0.046600 0.294430
v 0.351120 0.436600 0.401380
v 0.296680 0.061140 0.241390
v 0.351120 0.451140 0.348330
v 0.249480 0.370000 0.269590
v 0.353400 0.460000 0.269590
v 0.301440 0.460000 0.322090
v 0.197520 0.460000 0.322090
v 0.145550 0.460000 0.269590
v 0.197520 0.460000 0.217090
v 0.301440 0.460000 0.217090
v 0.353400 0.640000 0.269590
v 0.301440 0.640000 0.322090
v 0.197520 0.640000 0.322090
v 0.145550 0.640000 0.269590
v 0.197520 0.640000 0.217090
v 0.301440 0.640000 0.217090
v 0.249480 0.730000 0.269590
v -2.351390 0.057570 -0.537910
v -2.463800 1.007570 -0.579890
v -2.398690 0.053200 -0.510190
v -2.511100 1.003200 -0.552170
v -2.398690 0.055630 -0.455240
v -2.511100 1.005630 -0.497220
v -2.351390 0.062430 -0.428020
v -2.463800 1.012430 -0.470000
v -2.304080 0.066800 -0.455740
v -2.416500 1.016800 -0.497720
v -2.304080 0.064370 -0.510680
v -2.416500 1.014370 -0.552660
v -2.351390 0.930000 -0.482960
v -2.247460 1.020000 -0.482960
v -2.299420 1.020000 -0.430460
v -2.403350 1.020000 -0.430460
v -2.455310 1.020000 -0.482960
v -2.403350 1.020000 -0.535460
v -2.299420 1.020000 -0.535460
v -2.247460 1.200000 -0.482960
v -2.299420 1.200000 -0.430460
v -2.403350 1.200000 -0.430460
v -2.455310 1.200000 -0.482960
v -2.403350 1.200000 -0.535460
v -2.299420 1.200000 -0.535460
v -2.351390 1.290000 -0.482960
v 1.547640 0.055340 -0.399910
v 1.658840 0.585340 -0.445000
v 1.501010 0.067380 -0.373340
v 1.612220 0.597380 -0.418420
v 1.501010 0.072040 -0.318530
v 1.612220 0.602040 -0.363620
v 1.547640 0.064660 -0.290310
v 1.658840 0.594660 -0.335390
v 1.594260 0.052620 -0.316880
v 1.705470 0.582620 -0.361970
v 1.594260 0.047960 -0.371680
v 1.705470 0.577960 -0.416770
v 1.547640 0.510000 -0.345110
v 1.651560 0.600000 -0.345110
v 1.599600 0.600000 -0.292610
v 1.495680 0.600000 -0.292610
v 1.443710 0.600000 -0.345110
v 1.495680 0.600000 -0.397610
v 1.599600 0.600000 -0.397610
v 1.651560 0.780000 -0.345110
v 1.599600 0.780000 -0.292610
v 1.495680 0.780000 -0.292610
v 1.443710 0.780000 -0.345110
v 1.495680 0.780000 -0.397610
v 1.599600 0.780000 -0.397610
v 1.547640 0.870000 -0.345110
v -0.355790 0.065440 0.357700
v -0.407230 1.155440 0.466120
v -0.403370 0.060500 0.384840
v -0.454810 1.150500 0.493260
v -0.403370 0.055050 0.439570
v -0.454810 1.145050 0.547990
v -0.355790 0.054560 0.467160
v -0.407230 1.144560 0.575580
v -0.308220 0.059500 0.440020
v -0.359660 1.149500 0.548430
v -0.308220 0.064950 0.385290
v -0.359660 1.154950 0.493700
v -0.355790 1.070000 0.412430
v -0.251870 1.160000 0.412430
v -0.303830 1.160000 0.464930
v -0.407760 1.160000 0.464930
v -0.459720 1.160000 0.412430
v -0.407760 1.160000 0.359930
v -0.303830 1.160000 0.359930
v -0.251870 1.340000 0.412430
v -0.303830 1.340000 0.464930
v -0.407760 1.340000 0.464930
v -0.459720 1.340000 0.412430
v -0.407760 1.340000 0.359930
v -0.303830 1.340000 0.359930
v -0.355790 1.430000 0.412430
v -0.823370 0.050720 -1.520370
v -0.858780 0.720720 -1.635020
v -0.870930 0.052920 -1.492840
v -0.906350 0.722920 -1.607500
v -0.870930 0.062200 -1.438630
v -0.906350 0.732200 -1.553290
v -0.823370 0.069280 -1.411940
v -0.858780 0.739280 -1.526600
v -0.775800 0.067080 -1.439470
v -0.811210 0.737080 -1.554120
v -0.775800 0.057800 -1.493680
v -0.811210 0.727800 -1.608340
v -0.823370 0.650000 -1.466160
v -0.719440 0.740000 -1.466160
v -0.771410 0.740000 -1.413660
v -0.875330 0.740000 -1.413660
v -0.927290 0.740000 -1.466160
v -0.875330 0.740000 -1.518660
v -0.771410 0.740000 -1.518660
v -0.719440 0.920000 -1.466160
v -0.771410 0.920000 -1.413660
v -0.875330 0.920000 -1.413660
v -0.927290 0.920000 -1.466160
v -0.875330 0.920000 -1.518660
v -0.771410 0.920000 -1.518660
v -0.823370 1.010000 -1.466160
v 1.683820 0.062700 0.485980
v 1.787440 1.292700 0.546500
v 1.636360 0.065340 0.513650
v 1.739980 1.295340 0.574170
v 1.636360 0.062640 0.568580
v 1.739980 1.292640 0.629100
v 1.683820 0.057300 0.595850
v 1.787440 1.287300 0.656370
v 1.731290 0.054660 0.568190
v 1.834910 1.284660 0.628710
v 1.731290 0.057360 0.513250
v 1.834910 1.287360 0.573770
v 1.683820 1.210000 0.540920
v 1.787750 1.300000 0.540920
v 1.735780 1.300000 0.593420
v 1.631860 1.300000 0.593420
v 1.579900 1.300000 0.540920
v 1.631860 1.300000 0.488420
v 1.735780 1.300000 0.488420
v 1.787750 1.480000 0.540920
v 1.735780 1.480000 0.593420
v 1.631860 1.480000 0.593420
v 1.579900 1.480000 0.540920
v 1.631860 1.480000 0.488420
v 1.735780 1.480000 0.488420
v 1.683820 1.570000 0.540920
v -1.084690 0.061730 0.074660
v -1.201950 0.871730 0.100140
v -1.131830 0.054050 0.101930
v -1.249090 0.864050 0.127410
v -1.131830 0.052320 0.156900
v -1.249090 0.862320 0.182380
v -1.084690 0.058270 0.184600
v -1.201950 0.868270 0.210080
v -1.037550 0.065950 0.157330
v -1.154810 0.875950 0.182810
v -1.037550 0.067680 0.102360
v -1.154810 0.877680 0.127840
v -1.084690 0.790000 0.129630
v -0.980770 0.880000 0.129630
v -1.032730 0.880000 0.182130
v -1.136650 0.880000 0.182130
v -1.188610 0.880000 0.129630
v -1.136650 0.880000 0.077130
v -1.032730 0.880000 0.077130
v -0.980770 1.060000 0.129630
v -1.032730 1.060000 0.182130
v -1.136650 1.060000 0.182130
v -1.188610 1.060000 0.129630
v -1.136650 1.060000 0.077130
v -1.032730 1.060000 0.077130
v -1.084690 1.150000 0.129630
v 1.769360 0.046590 -1.433200
v 1.838520 0.436590 -1.531270
v 1.722420 0.061120 -1.408500
v 1.791580 0.451120 -1.506570
v 1.722420 0.074540 -1.355160
v 1.791580 0.464540 -1.453230
v 1.769360 0.073410 -1.326520
v 1.838520 0.463410 -1.424590
v 1.816300 0.058880 -1.351220
v 1.885460 0.448880 -1.449290
v 1.816300 0.045460 -1.404560
v 1.885460 0.435460 -1.502630
v 1.769360 0.370000 -1.379860
v 1.873280 0.460000 -1.379860
v 1.821320 0.460000 -1.327360
v 1.717400 0.460000 -1.327360
v 1.665430 0.460000 -1.379860
v 1.717400 0.460000 -1.432360
v 1.821320 0.460000 -1.432360
v 1.873280 0.640000 -1.379860
v 1.821320 0.640000 -1.327360
v 1.717400 0.640000 -1.327360
v 1.665430 0.640000 -1.379860
v 1.717400 0.640000 -1.432360
v 1.821320 0.640000 -1.432360
v 1.769360 0.730000 -1.379860
v 0.285440 0.066840 1.161840
v 0.300800 1.016840 1.280850
v 0.237810 0.064180 1.189220
v 0.253180 1.014180 1.308230
v 0.237810 0.057340 1.243790
v 0.253180 1.007340 1.362810
v 0.285440 0.053160 1.270980
v 0.300800 1.003160 1.390000
v 0.333070 0.055820 1.243600
v 0.348430 1.005820 1.362620
v 0.333070 0.062660 1.189030
v 0.348430 1.012660 1.308040
v 0.285440 0.930000 1.216410
v 0.389360 1.020000 1.216410
v 0.337400 1.020000 1.268910
v 0.233480 1.020000 1.268910
v 0.181520 1.020000 1.216410
v 0.233480 1.020000 1.163910
v 0.337400 1.020000 1.163910
v 0.389360 1.200000 1.216410
v 0.337400 1.200000 1.268910
v 0.233480 1.200000 1.268910
v 0.181520 1.200000 1.216410
v 0.233480 1.200000 1.163910
v 0.337400 1.200000 1.163910
v 0.285440 1.290000 1.216410
v -1.063260 0.052060 -0.546840
v -1.155060 0.582060 -0.624130
v -1.110210 0.048070 -0.518470
v -1.202000 0.578070 -0.595760
v -1.110210 0.056010 -0.464040
v -1.202000 0.586010 -0.541340
v -1.063260 0.067940 -0.437990
v -1.155060 0.597940 -0.515290
v -1.016320 0.071930 -0.466370
v -1.108110 0.601930 -0.543660
v -1.016320 0.063990 -0.520790
v -1.108110 0.593990 -0.598080
v -1.063260 0.510000 -0.492420
v -0.959340 0.600000 -0.492420
v -1.011300 0.600000 -0.439920
v -1.115230 0.600000 -0.439920
v -1.167190 0.600000 -0.492420
v -1.115230 0.600000 -0.544920
v -1.011300 0.600000 -0.544920
v -0.959340 0.780000 -0.492420
v -1.011300 0.780000 -0.439920
v -1.115230 0.780000 -0.439920
v -1.167190 0.780000 -0.492420
v -1.115230 0.780000 -0.544920
v -1.011300 0.780000 -0.544920
v -1.063260 0.870000 -0.492420
v 0.549500 0.059740 -0.067920
v 0.669390 1.149740 -0.073050
v 0.502150 0.065080 -0.040450
v 0.622040 1.155080 -0.045580
v 0.502150 0.065340 0.014550
v 0.622040 1.155340 0.009420
v 0.549500 0.060260 0.042070
v 0.669390 1.150260 0.036950
v 0.596840 0.054920 0.014600
v 0.716730 1.144920 0.009470
v 0.596840 0.054660 -0.040400
v 0.716730 1.144660 -0.045530
v 0.549500 1.070000 -0.012930
v 0.653420 1.160000 -0.012930
v 0.601460 1.160000 0.039570
v 0.497540 1.160000 0.039570
v 0.445570 1.160000 -0.012930
v 0.497540 1.160000 -0.065430
v 0.601460 1.160000 -0.065430
v 0.653420 1.340000 -0.012930
v 0.601460 1.340000 0.039570
v 0.497540 1.340000 0.039570
v 0.445570 1.340000 -0.012930
v 0.497540 1.340000 -0.065430
v 0.601460 1.340000 -0.065430
v 0.549500 1.430000 -0.012930
v -1.774950 0.066910 0.921530
v -1.859810 0.736910 1.006380
v -1.822210 0.057560 0.948070
v -1.907070 0.727560 1.032920
v -1.822210 0.050650 1.002630
v -1.907070 0.720650 1.087480
v -1.774950 0.053090 1.030660
v -1.859810 0.723090 1.115510
v -1.727690 0.062440 1.004130
v -1.812550 0.732440 1.088970
v -1.727690 0.069350 0.949560
v -1.812550 0.739350 1.034410
v -1.774950 0.650000 0.976100
v -1.671030 0.740000 0.976100
v -1.722990 0.740000 1.028600
v -1.826910 0.740000 1.028600
v -1.878880 0.740000 0.976100
v -1.826910 0.740000 0.923600
v -1.722990 0.740000 0.923600
v -1.671030 0.920000 0.976100
v -1.722990 0.920000 1.028600
v -1.826910 0.920000 1.028600
v -1.878880 0.920000 0.976100
v -1.826910 0.920000 0.923600
v -1.722990 0.920000 0.923600
v -1.774950 1.010000 0.976100
vn 0.0170 -0.9998 0.0081
vn 0.0124 -0.9997 0.0222
vn 0.0045 -0.9995 0.0304
vn -0.0045 -0.9995 0.0304
vn -0.0124 -0.9997 0.0222
vn -0.0170 -0.9998 0.0081
vn -0.0170 -0.9998 -0.0081
vn -0.0124 -0.9997 -0.0222
vn -0.0045 -0.9995 -0.0304
vn 0.0045 -0.9995 -0.0304
vn 0.0124 -0.9997 -0.0222
vn 0.0170 -0.9998 -0.0081
vn 0.9017 -0.0000 0.4324
vn 0.4878 -0.0000 0.8729
vn 0.1481 -0.0000 0.9890
vn -0.1481 -0.0000 0.9890
vn -0.4878 -0.0000 0.8729
vn -0.9017 -0.0000 0.4324
vn -0.9017 -0.0000 -0.4324
vn -0.4878 -0.0000 -0.8729
vn -0.1481 -0.0000 -0.9890
vn 0.1481 -0.0000 -0.9890
vn 0.4878 -0.0000 -0.8729
vn 0.9017 -0.0000 -0.4324
vn 0.0170 0.9998 0.0081
vn 0.0124 0.9997 0.0222
vn 0.0045 0.9995 0.0304
vn -0.0045 0.9995 0.0304
vn -0.0124 0.9997 0.0222
vn -0.0170 0.9998 0.0081
vn -0.0170 0.9998 -0.0081
vn -0.0124 0.9997 -0.0222
vn -0.0045 0.9995 -0.0304
vn 0.0045 0.9995 -0.0304
vn 0.0124 0.9997 -0.0222
vn 0.0170 0.9998 -0.0081
vn 0.0144 -0.9999 0.0067
vn 0.0106 -0.9998 0.0184
vn 0.0039 -0.9997 0.0251
vn -0.0039 -0.9997 0.0251
vn -0.0106 -0.9998 0.0184
vn -0.0144 -0.9999 0.0067
vn -0.0144 -0.9999 -0.0067
vn -0.0106 -0.9998 -0.0184
vn -0.0039 -0.9997 -0.0251
vn 0.0039 -0.9997 -0.0251
vn 0.0106 -0.9998 -0.0184
vn 0.0144 -0.9999 -0.0067
vn 0.9064 -0.0000 0.4224
vn 0.4985 -0.0000 0.8669
vn 0.1523 -0.0000 0.9883
vn -0.1523 -0.0000 0.9883
vn -0.4985 -0.0000 0.8669
vn -0.9064 -0.0000 0.4224
vn -0.9064 -0.0000 -0.4224
vn -0.4985 -0.0000 -0.8669
vn -0.1523 -0.0000 -0.9883
vn 0.1523 -0.0000 -0.9883
vn 0.4985 -0.0000 -0.8669
vn 0.9064 -0.0000 -0.4224
vn 0.0144 0.9999 0.0067
vn 0.0106 0.9998 0.0184
vn 0.0039 0.9997 0.0251
vn -0.0039 0.9997 0.0251
vn -0.0106 0.9998 0.0184
vn -0.0144 0.9999 0.0067
vn -0.0144 0.9999 -0.0067
vn -0.0106 0.9998 -0.0184
vn -0.0039 0.9997 -0.0251
vn 0.0039 0.9997 -0.0251
vn 0.0106 0.9998 -0.0184
vn 0.0144 0.9999 -0.0067
vn 0.0231 -0.9997 0.0103
vn 0.0169 -0.9995 0.0282
vn 0.0062 -0.9992 0.0385
vn -0.0062 -0.9992 0.0385
vn -0.0169 -0.9995 0.0282
vn -0.0231 -0.9997 0.0103
vn -0.0231 -0.9997 -0.0103
vn -0.0169 -0.9995 -0.0282
vn -0.0062 -0.9992 -0.0385
vn 0.0062 -0.9992 -0.0385
vn 0.0169 -0.9995 -0.0282
vn 0.0231 -0.9997 -0.0103
vn 0.9131 -0.0000 0.4078
vn 0.5145 -0.0000 0.8575
vn 0.1587 -0.0000 0.9873
vn -0.1587 -0.0000 0.9873
vn -0.5145 -0.0000 0.8575
vn -0.9131 -0.0000 0.4078
vn -0.9131 -0.0000 -0.4078
vn -0.5145 -0.0000 -0.8575
vn -0.1587 -0.0000 -0.9873
vn 0.1587 -0.0000 -0.9873
vn 0.5145 -0.0000 -0.8575
vn 0.9131 -0.0000 -0.4078
vn 0.0231 0.9997 0.0103
vn 0.0169 0.9995 0.0282
vn 0.0062 0.9992 0.0385
vn -0.0062 0.9992 0.0385
vn -0.0169 0.9995 0.0282
vn -0.0231 0.9997 0.0103
vn -0.0231 0.9997 -0.0103
vn -0.0169 0.9995 -0.0282
vn -0.0062 0.9992 -0.0385
vn 0.0062 0.9992 -0.0385
vn 0.0169 0.9995 -0.0282
vn 0.0231 0.9997 -0.0103
vn -0.1334 -0.9558 -0.2621
vn 0.1334 0.9558 0.2621
vn -0.4955 0.2933 -0.8176
vn -0.9911 0.1286 0.0353
vn -0.4955 -0.1647 0.8528
vn 0.4956 -0.2934 0.8175
vn 0.9911 -0.1287 -0.0353
vn 0.4956 0.1647 -0.8528
vn -0.0000 -1.0000 -0.0000
vn 0.9337 -0.3580 -0.0000
vn 0.3845 -0.3017 0.8724
vn -0.3844 -0.3017 0.8724
vn -0.9337 -0.3580 -0.0000
vn -0.3844 -0.3017 -0.8724
vn 0.3845 -0.3017 -0.8724
vn 0.9337 0.3580 -0.0000
vn 0.3845 0.3017 0.8724
vn -0.3844 0.3017 0.8724
vn -0.9337 0.3580 -0.0000
vn -0.3844 0.3017 -0.8724
vn 0.3845 0.3017 -0.8724
vn -0.0000 1.0000 -0.0000
vn 0.1174 -0.9921 0.0439
vn -0.1174 0.9921 -0.0439
vn -0.4966 -0.0969 -0.8626
vn -0.9931 -0.1173 0.0052
vn -0.4965 -0.0204 0.8678
vn 0.4966 0.0969 0.8626
vn 0.9931 0.1173 -0.0052
vn 0.4965 0.0204 -0.8678
vn 0.3845 -0.3018 0.8724
vn -0.3845 -0.3017 0.8724
vn -0.3845 -0.3018 -0.8724
vn 0.3845 -0.3018 -0.8724
vn 0.3845 0.3018 0.8724
vn -0.3845 0.3017 0.8724
vn -0.3845 0.3017 -0.8724
vn 0.3845 0.3018 -0.8724
vn -0.2046 -0.9753 0.0829
vn 0.2046 0.9753 -0.0829
vn -0.4895 0.0286 -0.8715
vn -0.9788 0.2039 -0.0173
vn -0.4893 0.1753 0.8543
vn 0.4894 -0.0285 0.8716
vn 0.9788 -0.2039 0.0173
vn 0.4894 -0.1754 -0.8542
vn 0.0470 -0.9940 -0.0989
vn -0.0469 0.9940 0.0989
vn -0.4994 0.0624 -0.8641
vn -0.9989 -0.0467 -0.0046
vn -0.4995 -0.1091 0.8594
vn 0.4996 -0.0624 0.8640
vn 0.9989 0.0467 0.0046
vn 0.4994 0.1091 -0.8595
vn -0.3845 -0.3018 0.8724
vn -0.3845 0.3018 0.8724
vn -0.3845 0.3018 -0.8724
vn 0.0520 -0.9843 0.1685
vn -0.0520 0.9843 -0.1685
vn -0.4995 -0.1717 -0.8491
vn -0.9986 -0.0513 0.0088
vn -0.4993 0.1204 0.8580
vn 0.4993 0.1717 0.8493
vn 0.9986 0.0513 -0.0088
vn 0.4993 -0.1204 -0.8580
vn 0.3844 -0.3017 0.8724
vn -0.3845 -0.3017 -0.8724
vn 0.3844 -0.3017 -0.8724
vn 0.3844 0.3017 0.8724
vn 0.3844 0.3017 -0.8724
vn -0.0839 -0.9953 -0.0489
vn 0.0839 0.9953 0.0489
vn -0.4984 0.0844 -0.8628
vn -0.9965 0.0837 0.0041
vn -0.4983 -0.0007 0.8670
vn 0.4981 -0.0844 0.8630
vn 0.9965 -0.0837 -0.0041
vn 0.4982 0.0007 -0.8671
vn 0.1432 -0.9892 -0.0311
vn -0.1432 0.9892 0.0311
vn -0.4948 -0.0443 -0.8679
vn -0.9897 -0.1431 -0.0045
vn -0.4948 -0.0988 0.8633
vn 0.4948 0.0443 0.8679
vn 0.9897 0.1431 0.0045
vn 0.4948 0.0988 -0.8633
vn -0.1695 -0.9558 0.2403
vn 0.1695 0.9558 -0.2403
vn -0.4928 -0.1290 -0.8605
vn -0.9855 0.1644 -0.0414
vn -0.4928 0.2934 0.8192
vn 0.4928 0.1290 0.8605
vn 0.9855 -0.1644 0.0414
vn 0.4928 -0.2934 -0.8192
vn -0.0161 -0.9921 -0.1244
vn 0.0161 0.9921 0.1243
vn -0.5000 0.1156 -0.8583
vn -0.9999 0.0159 0.0020
vn -0.5000 -0.0997 0.8603
vn 0.4999 -0.1156 0.8583
vn 0.9999 -0.0159 -0.0020
vn 0.4999 0.0997 -0.8603
vn 0.1689 -0.9753 0.1423
vn -0.1689 0.9753 -0.1423
vn -0.4928 -0.2085 -0.8448
vn -0.9856 -0.1671 0.0244
vn -0.4929 0.0414 0.8691
vn 0.4928 0.2086 0.8448
vn 0.9856 0.1671 -0.0244
vn 0.4928 -0.0414 -0.8692
vn -0.1094 -0.9940 0.0047
vn 0.1094 0.9940 -0.0047
vn -0.4969 0.0506 -0.8663
vn -0.9940 0.1093 -0.0005
vn -0.4970 0.0587 0.8657
vn 0.4971 -0.0506 0.8662
vn 0.9940 -0.1093 0.0005
vn 0.4970 -0.0587 -0.8658
vn 0.1248 -0.9843 -0.1246
vn -0.1247 0.9843 0.1247
vn -0.4962 0.0470 -0.8670
vn -0.9922 -0.1237 -0.0157
vn -0.4961 -0.1706 0.8513
vn 0.4960 -0.0470 0.8670
vn 0.9922 0.1237 0.0157
vn 0.4961 0.1706 -0.8513
vn -0.1337 -0.9558 -0.2620
vn -0.1334 -0.9557 -0.2623
vn -0.1332 -0.9558 -0.2620
vn 0.1334 0.9557 0.2624
vn 0.1337 0.9558 0.2620
vn 0.1332 0.9558 0.2620
vn 0.4955 -0.2934 0.8176
vn 0.4955 0.1647 -0.8528
vn 0.1173 -0.9921 0.0439
vn 0.4965 0.0969 0.8626
vn 0.4966 0.0204 -0.8677
vn -0.2046 -0.9753 0.0830
vn 0.2046 0.9753 -0.0830
vn -0.4893 0.0285 -0.8716
vn -0.4895 0.1754 0.8542
vn 0.4894 -0.0286 0.8716
vn 0.4895 -0.1754 -0.8542
vn 0.0472 -0.9940 -0.0990
vn 0.0470 -0.9940 -0.0986
vn 0.0467 -0.9940 -0.0990
vn -0.0469 0.9940 0.0986
vn -0.0472 0.9940 0.0990
vn -0.0467 0.9940 0.0990
vn 0.4995 -0.0624 0.8641
vn 0.4996 0.1091 -0.8594
vn -0.0519 0.9843 -0.1685
vn -0.4993 -0.1717 -0.8493
vn -0.4994 0.1204 0.8580
vn 0.4994 0.1717 0.8492
vn 0.4992 -0.1205 -0.8581
vn -0.1697 -0.9557 0.2405
vn -0.1695 -0.9558 0.2401
vn -0.1693 -0.9558 0.2405
vn 0.1695 0.9558 -0.2401
vn 0.1697 0.9557 -0.2405
vn 0.1693 0.9558 -0.2405
vn -0.4928 -0.1290 -0.8606
vn 0.0161 0.9921 0.1244
vn -0.4999 0.1156 -0.8583
vn -0.4999 -0.0997 0.8603
vn 0.1689 -0.9753 0.1422
vn -0.4928 0.0414 0.8692
vn 0.4930 0.2086 0.8447
vn 0.4929 -0.0414 -0.8691
vn -0.4969 0.0587 0.8658
vn 0.4970 -0.0506 0.8663
vn 0.1247 -0.9843 -0.1246
vn 0.1248 -0.9843 -0.1247
vn 0.1247 -0.9843 -0.1247
vn -0.1247 0.9843 0.1246
vn -0.1248 0.9843 0.1247
vn 0.4961 -0.0469 0.8670
s 0
usemtl verdant_silica
f 1//1 2//1 3//1
f 1//2 3//2 4//2
f 1//3 4//3 5//3
f 1//4 5//4 6//4
f 1//5 6//5 7//5
f 1//6 7//6 8//6
f 1//7 8//7 9//7
f 1//8 9//8 10//8
f 1//9 10//9 11//9
f 1//10 11//10 12//10
f 1//11 12//11 13//11
f 1//12 13//12 2//12
f 14//13 3//13 2//13
f 15//14 4//14 3//14
f 16//15 5//15 4//15
f 17//16 6//16 5//16
f 18//17 7//17 6//17
f 19//18 8//18 7//18
f 20//19 9//19 8//19
f 21//20 10//20 9//20
f 22//21 11//21 10//21
f 23//22 12//22 11//22
f 24//23 13//23 12//23
f 25//24 2//24 13//24
f 14//25 26//25 15//25
f 15//26 26//26 16//26
f 16//27 26//27 17//27
f 17//28 26//28 18//28
f 18//29 26//29 19//29
f 19//30 26//30 20//30
f 20//31 26//31 21//31
f 21//32 26//32 22//32
f 22//33 26//33 23//33
f 23//34 26//34 24//34
f 24//35 26//35 25//35
f 25//36 26//36 14//36
f 27//37 28//37 29//37
f 27//38 29//38 30//38
f 27//39 30//39 31//39
f 27//40 31//40 32//40
f 27//41 32//41 33//41
f 27//42 33//42 34//42
f 27//43 34//43 35//43
f 27//44 35//44 36//44
f 27//45 36//45 37//45
f 27//46 37//46 38//46
f 27//47 38//47 39//47
f 27//48 39//48 28//48
f 40//49 29//49 28//49
f 41//50 30//50 29//50
f 42//51 31//51 30//51
f 43//52 32//52 31//52
f 44//53 33//53 32//53
f 45//54 34//54 33//54
f 46//55 35//55 34//55
f 47//56 36//56 35//56
f 48//57 37//57 36//57
f 49//58 38//58 37//58
f 50//59 39//59 38//59
f 51//60 28//60 39//60
f 40//61 52//61 41//61
f 41//62 52//62 42//62
f 42//63 52//63 43//63
f 43//64 52//64 44//64
f 44//65 52//65 45//65
f 45//66 52//66 46//66
f 46//67 52//67 47//67
f 47//68 52//68 48//68
f 48//69 52//69 49//69
f 49//70 52//70 50//70
f 50//71 52//71 51//71
f 51//72 52//72 40//72
f 53//73 54//73 55//73
f 53//74 55//74 56//74
f 53//75 56//75 57//75
f 53//76 57//76 58//76
f 53//77 58//77 59//77
f 53//78 59//78 60//78
f 53//79 60//79 61//79
f 53//80 61//80 62//80
f 53//81 62//81 63//81
f 53//82 63//82 64//82
f 53//83 64//83 65//83
f 53//84 65//84 54//84
f 66//85 55//85 54//85
f 67//86 56//86 55//86
f 68//87 57//87 56//87
f 69//88 58//88 57//88
f 70//89 59//89 58//89
f 71//90 60//90 59//90
f 72//91 61//91 60//91
f 73//92 62//92 61//92
f 74//93 63//93 62//93
f 75//94 64//94 63//94
f 76//95 65//95 64//95
f 77//96 54//96 65//96
f 66//97 78//97 67//97
f 67//98 78//98 68//98
f 68//99 78//99 69//99
f 69//100 78//100 70//100
f 70//101 78//101 71//101
f 71//102 78//102 72//102
f 72//103 78//103 73//103
f 73//104 78//104 74//104
f 74//105 78//105 75//105
f 75//106 78//106 76//106
f 76//107 78//107 77//107
f 77//108 78//108 66//108
f 14//13 15//13 3//13
f 15//14 16//14 4//14
f 16//15 17//15 5//15
f 17//16 18//16 6//16
f 18//17 19//17 7//17
f 19//18 20//18 8//18
f 20//19 21//19 9//19
f 21//20 22//20 10//20
f 22//21 23//21 11//21
f 23//22 24//22 12//22
f 24//23 25//23 13//23
f 25//24 14//24 2//24
f 40//49 41//49 29//49
f 41//50 42//50 30//50
f 42//51 43//51 31//51
f 43//52 44//52 32//52
f 44//53 45//53 33//53
f 45//54 46//54 34//54
f 46//55 47//55 35//55
f 47//56 48//56 36//56
f 48//57 49//57 37//57
f 49//58 50//58 38//58
f 50//59 51//59 39//59
f 51//60 40//60 28//60
f 66//85 67//85 55//85
f 67//86 68//86 56//86
f 68//87 69//87 57//87
f 69//88 70//88 58//88
f 70//89 71//89 59//89
f 71//90 72//90 60//90
f 72//91 73//91 61//91
f 73//92 74//92 62//92
f 74//93 75//93 63//93
f 75//94 76//94 64//94
f 76//95 77//95 65//95
f 77//96 66//96 54//96
usemtl verdant_silica
f 87//109 83//109 79//109
f 82//110 86//110 90//110
f 79//111 82//111 80//111
f 83//112 82//112 81//112
f 83//113 86//113 84//113
f 87//114 86//114 85//114
f 87//115 90//115 88//115
f 79//116 90//116 89//116
f 113//131 109//131 105//131
f 108//132 112//132 116//132
f 107//133 106//133 105//133
f 109//134 108//134 107//134
f 111//135 110//135 109//135
f 111//136 114//136 112//136
f 113//137 116//137 114//137
f 105//138 116//138 115//138
f 139//147 135//147 131//147
f 134//148 138//148 142//148
f 131//149 134//149 132//149
f 133//150 136//150 134//150
f 137//151 136//151 135//151
f 139//152 138//152 137//152
f 141//153 140//153 139//153
f 141//154 132//154 142//154
f 165//155 161//155 157//155
f 160//156 164//156 168//156
f 159//157 158//157 157//157
f 159//158 162//158 160//158
f 163//159 162//159 161//159
f 163//160 166//160 164//160
f 167//161 166//161 165//161
f 167//162 158//162 168//162
f 191//166 187//166 183//166
f 186//167 190//167 194//167
f 185//168 184//168 183//168
f 187//169 186//169 185//169
f 187//170 190//170 188//170
f 189//171 192//171 190//171
f 191//172 194//172 192//172
f 183//173 194//173 193//173
f 217//179 213//179 209//179
f 212//180 216//180 220//180
f 211//181 210//181 209//181
f 213//182 212//182 211//182
f 213//183 216//183 214//183
f 215//184 218//184 216//184
f 217//185 220//185 218//185
f 219//186 210//186 220//186
f 243//187 239//187 235//187
f 238//188 242//188 246//188
f 237//189 236//189 235//189
f 237//190 240//190 238//190
f 239//191 242//191 240//191
f 241//192 244//192 242//192
f 245//193 244//193 243//193
f 235//194 246//194 245//194
f 269//195 265//195 261//195
f 264//196 268//196 272//196
f 261//197 264//197 262//197
f 265//198 264//198 263//198
f 265//199 268//199 266//199
f 269//200 268//200 267//200
f 269//201 272//201 270//201
f 261//202 272//202 271//202
f 295//203 291//203 287//203
f 290//204 294//204 298//204
f 287//205 290//205 288//205
f 289//206 292//206 290//206
f 291//207 294//207 292//207
f 295//208 294//208 293//208
f 297//209 296//209 295//209
f 287//210 298//210 297//210
f 321//211 317//211 313//211
f 316//212 320//212 324//212
f 315//213 314//213 313//213
f 317//214 316//214 315//214
f 317//215 320//215 318//215
f 319//216 322//216 320//216
f 321//217 324//217 322//217
f 323//218 314//218 324//218
f 347//219 343//219 339//219
f 342//220 346//220 350//220
f 341//221 340//221 339//221
f 343//222 342//222 341//222
f 343//223 346//223 344//223
f 345//224 348//224 346//224
f 347//225 350//225 348//225
f 339//226 350//226 349//226
f 373//227 369//227 365//227
f 368//228 372//228 376//228
f 365//229 368//229 366//229
f 367//230 370//230 368//230
f 371//231 370//231 369//231
f 373//232 372//232 371//232
f 375//233 374//233 373//233
f 375//234 366//234 376//234
f 79//235 89//235 87//235
f 87//236 85//236 83//236
f 83//237 81//237 79//237
f 90//238 80//238 82//238
f 82//239 84//239 86//239
f 86//240 88//240 90//240
f 79//111 81//111 82//111
f 83//112 84//112 82//112
f 83//113 85//113 86//113
f 87//241 88//241 86//241
f 87//115 89//115 90//115
f 79//242 80//242 90//242
f 105//243 115//243 113//243
f 113//131 111//131 109//131
f 109//131 107//131 105//131
f 116//132 106//132 108//132
f 108//132 110//132 112//132
f 112//132 114//132 116//132
f 107//133 108//133 106//133
f 109//134 110//134 108//134
f 111//135 112//135 110//135
f 111//244 113//244 114//244
f 113//137 115//137 116//137
f 105//245 106//245 116//245
f 131//147 141//147 139//147
f 139//246 137//246 135//246
f 135//147 133//147 131//147
f 142//247 132//247 134//247
f 134//148 136//148 138//148
f 138//148 140//148 142//148
f 131//248 133//248 134//248
f 133//150 135//150 136//150
f 137//249 138//249 136//249
f 139//250 140//250 138//250
f 141//153 142//153 140//153
f 141//251 131//251 132//251
f 157//252 167//252 165//252
f 165//253 163//253 161//253
f 161//254 159//254 157//254
f 168//255 158//255 160//255
f 160//256 162//256 164//256
f 164//257 166//257 168//257
f 159//157 160//157 158//157
f 159//158 161//158 162//158
f 163//159 164//159 162//159
f 163//258 165//258 166//258
f 167//161 168//161 166//161
f 167//259 157//259 158//259
f 183//166 193//166 191//166
f 191//166 189//166 187//166
f 187//166 185//166 183//166
f 194//167 184//167 186//167
f 186//167 188//167 190//167
f 190//260 192//260 194//260
f 185//261 186//261 184//261
f 187//169 188//169 186//169
f 187//262 189//262 190//262
f 189//263 191//263 192//263
f 191//172 193//172 194//172
f 183//264 184//264 194//264
f 209//179 219//179 217//179
f 217//179 215//179 213//179
f 213//179 211//179 209//179
f 220//180 210//180 212//180
f 212//180 214//180 216//180
f 216//180 218//180 220//180
f 211//181 212//181 210//181
f 213//182 214//182 212//182
f 213//183 215//183 216//183
f 215//184 217//184 218//184
f 217//185 219//185 220//185
f 219//186 209//186 210//186
f 235//187 245//187 243//187
f 243//187 241//187 239//187
f 239//187 237//187 235//187
f 246//188 236//188 238//188
f 238//188 240//188 242//188
f 242//188 244//188 246//188
f 237//189 238//189 236//189
f 237//190 239//190 240//190
f 239//191 241//191 242//191
f 241//192 243//192 244//192
f 245//193 246//193 244//193
f 235//194 236//194 246//194
f 261//265 271//265 269//265
f 269//266 267//266 265//266
f 265//267 263//267 261//267
f 272//268 262//268 264//268
f 264//269 266//269 268//269
f 268//270 270//270 272//270
f 261//271 263//271 264//271
f 265//198 266//198 264//198
f 265//199 267//199 268//199
f 269//200 270//200 268//200
f 269//201 271//201 272//201
f 261//202 262//202 272//202
f 287//203 297//203 295//203
f 295//203 293//203 291//203
f 291//203 289//203 287//203
f 298//272 288//272 290//272
f 290//204 292//204 294//204
f 294//204 296//204 298//204
f 287//273 289//273 290//273
f 289//206 291//206 292//206
f 291//274 293//274 294//274
f 295//208 296//208 294//208
f 297//209 298//209 296//209
f 287//210 288//210 298//210
f 313//211 323//211 321//211
f 321//275 319//275 317//275
f 317//211 315//211 313//211
f 324//212 314//212 316//212
f 316//212 318//212 320//212
f 320//212 322//212 324//212
f 315//213 316//213 314//213
f 317//214 318//214 316//214
f 317//276 319//276 320//276
f 319//277 321//277 322//277
f 321//217 323//217 324//217
f 323//278 313//278 314//278
f 339//219 349//219 347//219
f 347//219 345//219 343//219
f 343//219 341//219 339//219
f 350//220 340//220 342//220
f 342//220 344//220 346//220
f 346//220 348//220 350//220
f 341//221 342//221 340//221
f 343//222 344//222 342//222
f 343//279 345//279 346//279
f 345//280 347//280 348//280
f 347//225 349//225 350//225
f 339//226 340//226 350//226
f 365//281 375//281 373//281
f 373//282 371//282 369//282
f 369//283 367//283 365//283
f 376//284 366//284 368//284
f 368//285 370//285 372//285
f 372//228 374//228 376//228
f 365//229 367//229 368//229
f 367//230 369//230 370//230
f 371//231 372//231 370//231
f 373//286 374//286 372//286
f 375//233 376//233 374//233
f 375//234 365//234 366//234
s 1
usemtl verdant_growth
f 91//117 92//118 93//119
f 91//117 93//119 94//120
f 91//117 94//120 95//121
f 91//117 95//121 96//122
f 91//117 96//122 97//123
f 91//117 97//123 92//118
f 98//124 93//119 92//118
f 99//125 94//120 93//119
f 100//126 95//121 94//120
f 101//127 96//122 95//121
f 102//128 97//123 96//122
f 103//129 92//118 97//123
f 98//124 104//130 99//125
f 99//125 104//130 100//126
f 100//126 104//130 101//127
f 101//127 104//130 102//128
f 102//128 104//130 103//129
f 103//129 104//130 98//124
f 117//117 118//118 119//139
f 117//117 119//139 120//140
f 117//117 120//140 121//121
f 117//117 121//121 122//141
f 117//117 122//141 123//142
f 117//117 123//142 118//118
f 124//124 119//139 118//118
f 125//143 120//140 119//139
f 126//144 121//121 120//140
f 127//127 122//141 121//121
f 128//145 123//142 122//141
f 129//146 118//118 123//142
f 124//124 130//130 125//143
f 125//143 130//130 126//144
f 126//144 130//130 127//127
f 127//127 130//130 128//145
f 128//145 130//130 129//146
f 129//146 130//130 124//124
f 143//117 144//118 145//119
f 143//117 145//119 146//120
f 143//117 146//120 147//121
f 143//117 147//121 148//122
f 143//117 148//122 149//123
f 143//117 149//123 144//118
f 150//124 145//119 144//118
f 151//125 146//120 145//119
f 152//126 147//121 146//120
f 153//127 148//122 147//121
f 154//128 149//123 148//122
f 155//129 144//118 149//123
f 150//124 156//130 151//125
f 151//125 156//130 152//126
f 152//126 156//130 153//127
f 153//127 156//130 154//128
f 154//128 156//130 155//129
f 155//129 156//130 150//124
f 169//117 170//118 171//119
f 169//117 171//119 172//163
f 169//117 172//163 173//121
f 169//117 173//121 174//141
f 169//117 174//141 175//123
f 169//117 175//123 170//118
f 176//124 171//119 170//118
f 177//125 172//163 171//119
f 178//164 173//121 172//163
f 179//127 174//141 173//121
f 180//165 175//123 174//141
f 181//129 170//118 175//123
f 176//124 182//130 177//125
f 177//125 182//130 178//164
f 178//164 182//130 179//127
f 179//127 182//130 180//165
f 180//165 182//130 181//129
f 181//129 182//130 176//124
f 195//117 196//118 197//174
f 195//117 197//174 198//140
f 195//117 198//140 199//121
f 195//117 199//121 200//175
f 195//117 200//175 201//176
f 195//117 201//176 196//118
f 202//124 197//174 196//118
f 203//177 198//140 197//174
f 204//144 199//121 198//140
f 205//127 200//175 199//121
f 206//145 201//176 200//175
f 207//178 196//118 201//176
f 202//124 208//130 203//177
f 203//177 208//130 204//144
f 204//144 208//130 205//127
f 205//127 208//130 206//145
f 206//145 208//130 207//178
f 207//178 208//130 202//124
f 221//117 222//118 223//174
f 221//117 223//174 224//140
f 221//117 224//140 225//121
f 221//117 225//121 226//175
f 221//117 226//175 227//176
f 221//117 227//176 222//118
f 228//124 223//174 222//118
f 229//177 224//140 223//174
f 230//144 225//121 224//140
f 231//127 226//175 225//121
f 232//145 227//176 226//175
f 233//178 222//118 227//176
f 228//124 234//130 229//177
f 229//177 234//130 230//144
f 230//144 234//130 231//127
f 231//127 234//130 232//145
f 232//145 234//130 233//178
f 233//178 234//130 228//124
f 247//117 248//118 249//119
f 247//117 249//119 250//140
f 247//117 250//140 251//121
f 247//117 251//121 252//175
f 247//117 252//175 253//123
f 247//117 253//123 248//118
f 254//124 249//119 248//118
f 255//125 250//140 249//119
f 256//144 251//121 250//140
f 257//127 252//175 251//121
f 258//145 253//123 252//175
f 259//129 248//118 253//123
f 254//124 260//130 255//125
f 255//125 260//130 256//144
f 256//144 260//130 257//127
f 257//127 260//130 258//145
f 258//145 260//130 259//129
f 259//129 260//130 254//124
f 273//117 274//118 275//119
f 273//117 275//119 276//120
f 273//117 276//120 277//121
f 273//117 277//121 278//122
f 273//117 278//122 279//123
f 273//117 279//123 274//118
f 280//124 275//119 274//118
f 281//125 276//120 275//119
f 282//126 277//121 276//120
f 283//127 278//122 277//121
f 284//128 279//123 278//122
f 285//129 274//118 279//123
f 280//124 286//130 281//125
f 281//125 286//130 282//126
f 282//126 286//130 283//127
f 283//127 286//130 284//128
f 284//128 286//130 285//129
f 285//129 286//130 280//124
f 299//117 300//118 301//119
f 299//117 301//119 302//140
f 299//117 302//140 303//121
f 299//117 303//121 304//175
f 299//117 304//175 305//123
f 299//117 305//123 300//118
f 306//124 301//119 300//118
f 307//125 302//140 301//119
f 308//144 303//121 302//140
f 309//127 304//175 303//121
f 310//145 305//123 304//175
f 311//129 300//118 305//123
f 306//124 312//130 307//125
f 307//125 312//130 308//144
f 308//144 312//130 309//127
f 309//127 312//130 310//145
f 310//145 312//130 311//129
f 311//129 312//130 306//124
f 325//117 326//118 327//119
f 325//117 327//119 328//163
f 325//117 328//163 329//121
f 325//117 329//121 330//141
f 325//117 330//141 331//123
f 325//117 331//123 326//118
f 332//124 327//119 326//118
f 333//125 328//163 327//119
f 334//164 329//121 328//163
f 335//127 330//141 329//121
f 336//165 331//123 330//141
f 337//129 326//118 331//123
f 332//124 338//130 333//125
f 333//125 338//130 334//164
f 334//164 338//130 335//127
f 335//127 338//130 336//165
f 336//165 338//130 337//129
f 337//129 338//130 332//124
f 351//117 352//118 353//119
f 351//117 353//119 354//120
f 351//117 354//120 355//121
f 351//117 355//121 356//122
f 351//117 356//122 357//123
f 351//117 357//123 352//118
f 358//124 353//119 352//118
f 359//125 354//120 353//119
f 360//126 355//121 354//120
f 361//127 356//122 355//121
f 362//128 357//123 356//122
f 363//146 352//118 357//123
f 358//124 364//130 359//125
f 359//125 364//130 360//126
f 360//126 364//130 361//127
f 361//127 364//130 362//128
f 362//128 364//130 363//146
f 363//146 364//130 358//124
f 377//117 378//118 379//119
f 377//117 379//119 380//120
f 377//117 380//120 381//121
f 377//117 381//121 382//122
f 377//117 382//122 383//123
f 377//117 383//123 378//118
f 384//124 379//119 378//118
f 385//125 380//120 379//119
f 386//126 381//121 380//120
f 387//127 382//122 381//121
f 388//128 383//123 382//122
f 389//129 378//118 383//123
f 384//124 390//130 385//125
f 385//125 390//130 386//126
f 386//126 390//130 387//127
f 387//127 390//130 388//128
f 388//128 390//130 389//129
f 389//129 390//130 384//124
f 98//124 99//125 93//119
f 99//125 100//126 94//120
f 100//126 101//127 95//121
f 101//127 102//128 96//122
f 102//128 103//129 97//123
f 103//129 98//124 92//118
f 124//124 125//143 119//139
f 125//143 126//144 120//140
f 126//144 127//127 121//121
f 127//127 128//145 122//141
f 128//145 129//146 123//142
f 129//146 124//124 118//118
f 150//124 151//125 145//119
f 151//125 152//126 146//120
f 152//126 153//127 147//121
f 153//127 154//128 148//122
f 154//128 155//129 149//123
f 155//129 150//124 144//118
f 176//124 177//125 171//119
f 177//125 178//164 172//163
f 178//164 179//127 173//121
f 179//127 180//165 174//141
f 180//165 181//129 175//123
f 181//129 176//124 170//118
f 202//124 203//177 197//174
f 203//177 204//144 198//140
f 204//144 205//127 199//121
f 205//127 206//145 200//175
f 206//145 207//178 201//176
f 207//178 202//124 196//118
f 228//124 229//177 223//174
f 229//177 230//144 224//140
f 230//144 231//127 225//121
f 231//127 232//145 226//175
f 232//145 233//178 227//176
f 233//178 228//124 222//118
f 254//124 255//125 249//119
f 255//125 256//144 250//140
f 256//144 257//127 251//121
f 257//127 258//145 252//175
f 258//145 259//129 253//123
f 259//129 254//124 248//118
f 280//124 281//125 275//119
f 281//125 282//126 276//120
f 282//126 283//127 277//121
f 283//127 284//128 278//122
f 284//128 285//129 279//123
f 285//129 280//124 274//118
f 306//124 307//125 301//119
f 307//125 308//144 302//140
f 308//144 309//127 303//121
f 309//127 310//145 304//175
f 310//145 311//129 305//123
f 311//129 306//124 300//118
f 332//124 333//125 327//119
f 333//125 334//164 328//163
f 334//164 335//127 329//121
f 335//127 336//165 330//141
f 336//165 337//129 331//123
f 337//129 332//124 326//118
f 358//124 359//125 353//119
f 359//125 360//126 354//120
f 360//126 361//127 355//121
f 361//127 362//128 356//122
f 362//128 363//146 357//123
f 363//146 358//124 352//118
f 384//124 385//125 379//119
f 385//125 386//126 380//120
f 386//126 387//127 381//121
f 387//127 388//128 382//122
f 388//128 389//129 383//123
f 389//129 384//124 378//118
