# Blender 5.2.1 LTS
# www.blender.org
mtllib silica_outcrop_b.mtl
o silica_outcrop_b
v -1.800000 0.000000 0.200000
v -0.244370 0.093730 0.200000
v -0.491320 0.093730 0.735210
v -1.153770 0.093730 1.100490
v -2.021390 0.093730 1.179870
v -2.818720 0.093730 0.948150
v -3.292620 0.093730 0.478900
v -3.292620 0.093730 -0.078900
v -2.818720 0.093730 -0.548150
v -2.021390 0.093730 -0.779870
v -1.153770 0.093730 -0.700490
v -0.491320 0.093730 -0.335210
v 0.400000 0.320000 0.200000
v 0.050760 0.320000 0.956900
v -0.886090 0.320000 1.473480
v -2.113090 0.320000 1.585750
v -3.240690 0.320000 1.258050
v -3.910880 0.320000 0.594430
v -3.910880 0.320000 -0.194430
v -3.240690 0.320000 -0.858050
v -2.113090 0.320000 -1.185750
v -0.886090 0.320000 -1.073480
v 0.050760 0.320000 -0.556900
v -0.244370 0.546270 0.200000
v -0.491320 0.546270 0.735210
v -1.153770 0.546270 1.100490
v -2.021390 0.546270 1.179870
v -2.818720 0.546270 0.948150
v -3.292620 0.546270 0.478900
v -3.292620 0.546270 -0.078900
v -2.818720 0.546270 -0.548150
v -2.021390 0.546270 -0.779870
v -1.153770 0.546270 -0.700490
v -0.491320 0.546270 -0.335210
v -1.800000 0.640000 0.200000
v 0.200000 0.350000 -0.100000
v 1.967770 0.461300 -0.100000
v 1.687140 0.461300 0.492550
v 0.934360 0.461300 0.896970
v -0.051580 0.461300 0.984860
v -0.957640 0.461300 0.728310
v -1.496160 0.461300 0.208780
v -1.496160 0.461300 -0.408780
v -0.957640 0.461300 -0.928310
v -0.051580 0.461300 -1.184860
v 0.934360 0.461300 -1.096970
v 1.687140 0.461300 -0.692550
v 2.700000 0.730000 -0.100000
v 2.303130 0.730000 0.737990
v 1.238540 0.730000 1.309930
v -0.155790 0.730000 1.434220
v -1.437150 0.730000 1.071410
v -2.198730 0.730000 0.336690
v -2.198730 0.730000 -0.536690
v -1.437150 0.730000 -1.271410
v -0.155790 0.730000 -1.634220
v 1.238540 0.730000 -1.509930
v 2.303130 0.730000 -0.937990
v 1.967770 0.998700 -0.100000
v 1.687140 0.998700 0.492550
v 0.934360 0.998700 0.896970
v -0.051580 0.998700 0.984860
v -0.957640 0.998700 0.728310
v -1.496160 0.998700 0.208780
v -1.496160 0.998700 -0.408780
v -0.957640 0.998700 -0.928310
v -0.051580 0.998700 -1.184860
v 0.934360 0.998700 -1.096970
v 1.687140 0.998700 -0.692550
v 0.200000 1.110000 -0.100000
v 2.000000 0.720000 0.350000
v 3.272790 0.804940 0.350000
v 3.070740 0.804940 0.789630
v 2.528740 0.804940 1.089690
v 1.818860 0.804940 1.154900
v 1.166500 0.804940 0.964550
v 0.778760 0.804940 0.579100
v 0.778760 0.804940 0.120900
v 1.166500 0.804940 -0.264550
v 1.818860 0.804940 -0.454900
v 2.528740 0.804940 -0.389690
v 3.070740 0.804940 -0.089630
v 3.800000 1.010000 0.350000
v 3.514260 1.010000 0.971740
v 2.747750 1.010000 1.396080
v 1.743830 1.010000 1.488290
v 0.821250 1.010000 1.219110
v 0.272910 1.010000 0.673990
v 0.272910 1.010000 0.026010
v 0.821250 1.010000 -0.519110
v 1.743830 1.010000 -0.788290
v 2.747750 1.010000 -0.696080
v 3.514260 1.010000 -0.271740
v 3.272790 1.215060 0.350000
v 3.070740 1.215060 0.789630
v 2.528740 1.215060 1.089690
v 1.818860 1.215060 1.154900
v 1.166500 1.215060 0.964550
v 0.778760 1.215060 0.579100
v 0.778760 1.215060 0.120900
v 1.166500 1.215060 -0.264550
v 1.818860 1.215060 -0.454900
v 2.528740 1.215060 -0.389690
v 3.070740 1.215060 -0.089630
v 2.000000 1.300000 0.350000
v -2.595010 0.700000 -0.660140
v 0.104990 1.000000 -0.810140
v -2.588920 0.622530 -0.705550
v 0.111080 0.922530 -0.855550
v -2.593920 0.622530 -0.795410
v 0.106080 0.922530 -0.945410
v -2.604990 0.700000 -0.839860
v 0.095010 1.000000 -0.989860
v -2.611080 0.777470 -0.794450
v 0.088920 1.077470 -0.944450
v -2.606080 0.777470 -0.704590
v 0.093920 1.077470 -0.854590
v -0.396400 1.250000 -0.460070
v 2.103600 1.380000 -0.560070
v -0.394160 1.172160 -0.505200
v 2.105840 1.302160 -0.605200
v -0.397760 1.172160 -0.595130
v 2.102240 1.302160 -0.695130
v -0.403600 1.250000 -0.639930
v 2.096400 1.380000 -0.739930
v -0.405840 1.327840 -0.594800
v 2.094160 1.457840 -0.694800
v -0.402240 1.327840 -0.504870
v 2.097760 1.457840 -0.604870
vn 0.0601 -0.9978 0.0277
vn 0.0410 -0.9964 0.0743
vn 0.0089 -0.9952 0.0972
vn -0.0260 -0.9957 0.0894
vn -0.0527 -0.9972 0.0532
vn -0.0627 -0.9980 -0.0000
vn -0.0527 -0.9972 -0.0532
vn -0.0260 -0.9957 -0.0894
vn 0.0089 -0.9952 -0.0972
vn 0.0410 -0.9964 -0.0743
vn 0.0601 -0.9978 -0.0277
vn 0.3275 -0.9327 0.1511
vn 0.2147 -0.8957 0.3893
vn 0.0452 -0.8682 0.4942
vn -0.1335 -0.8781 0.4594
vn -0.2821 -0.9161 0.2849
vn -0.3437 -0.9391 -0.0000
vn -0.2821 -0.9161 -0.2849
vn -0.1335 -0.8781 -0.4594
vn 0.0452 -0.8682 -0.4942
vn 0.2147 -0.8957 -0.3893
vn 0.3275 -0.9327 -0.1511
vn 0.3275 0.9327 0.1511
vn 0.2147 0.8957 0.3893
vn 0.0452 0.8682 0.4942
vn -0.1335 0.8781 0.4594
vn -0.2821 0.9161 0.2849
vn -0.3437 0.9391 -0.0000
vn -0.2821 0.9161 -0.2849
vn -0.1335 0.8781 -0.4594
vn 0.0452 0.8682 -0.4942
vn 0.2147 0.8957 -0.3893
vn 0.3275 0.9327 -0.1511
vn 0.0601 0.9978 0.0277
vn 0.0410 0.9964 0.0743
vn 0.0089 0.9952 0.0972
vn -0.0260 0.9957 0.0894
vn -0.0527 0.9972 0.0532
vn -0.0627 0.9980 -0.0000
vn -0.0527 0.9972 -0.0532
vn -0.0260 0.9957 -0.0894
vn 0.0089 0.9952 -0.0972
vn 0.0410 0.9964 -0.0743
vn 0.0601 0.9978 -0.0277
vn 0.0628 -0.9976 0.0297
vn 0.0428 -0.9959 0.0797
vn 0.0093 -0.9945 0.1042
vn -0.0271 -0.9950 0.0958
vn -0.0550 -0.9969 0.0570
vn -0.0655 -0.9979 -0.0000
vn -0.0550 -0.9969 -0.0570
vn -0.0271 -0.9950 -0.0958
vn 0.0093 -0.9945 -0.1042
vn 0.0428 -0.9959 -0.0797
vn 0.0628 -0.9976 -0.0297
vn 0.3400 -0.9265 0.1610
vn 0.2214 -0.8839 0.4120
vn 0.0464 -0.8526 0.5206
vn -0.1372 -0.8638 0.4847
vn -0.2919 -0.9073 0.3026
vn -0.3572 -0.9340 -0.0000
vn -0.2919 -0.9073 -0.3026
vn -0.1372 -0.8638 -0.4847
vn 0.0464 -0.8526 -0.5206
vn 0.2214 -0.8839 -0.4120
vn 0.3400 -0.9265 -0.1610
vn 0.3400 0.9265 0.1610
vn 0.2214 0.8839 0.4120
vn 0.0464 0.8526 0.5206
vn -0.1372 0.8638 0.4847
vn -0.2919 0.9073 0.3026
vn -0.3572 0.9340 -0.0000
vn -0.2919 0.9073 -0.3026
vn -0.1372 0.8638 -0.4847
vn 0.0464 0.8526 -0.5206
vn 0.2214 0.8839 -0.4120
vn 0.3400 0.9265 -0.1610
vn 0.0628 0.9976 0.0297
vn 0.0428 0.9959 0.0797
vn 0.0093 0.9945 0.1042
vn -0.0271 0.9950 0.0958
vn -0.0550 0.9969 0.0570
vn -0.0655 0.9979 -0.0000
vn -0.0550 0.9969 -0.0570
vn -0.0271 0.9950 -0.0958
vn 0.0093 0.9945 -0.1042
vn 0.0428 0.9959 -0.0797
vn 0.0628 0.9976 -0.0297
vn 0.0666 -0.9973 0.0306
vn 0.0453 -0.9956 0.0819
vn 0.0098 -0.9942 0.1071
vn -0.0287 -0.9947 0.0985
vn -0.0583 -0.9966 0.0587
vn -0.0694 -0.9976 -0.0000
vn -0.0583 -0.9966 -0.0587
vn -0.0287 -0.9947 -0.0985
vn 0.0098 -0.9942 -0.1071
vn 0.0453 -0.9956 -0.0819
vn 0.0666 -0.9973 -0.0306
vn 0.3576 -0.9193 0.1643
vn 0.2328 -0.8769 0.4205
vn 0.0488 -0.8458 0.5312
vn -0.1443 -0.8570 0.4947
vn -0.3070 -0.9002 0.3088
vn -0.3757 -0.9267 -0.0000
vn -0.3070 -0.9002 -0.3088
vn -0.1443 -0.8570 -0.4947
vn 0.0488 -0.8458 -0.5312
vn 0.2328 -0.8769 -0.4205
vn 0.3576 -0.9193 -0.1643
vn 0.3576 0.9193 0.1643
vn 0.2328 0.8769 0.4205
vn 0.0488 0.8458 0.5312
vn -0.1443 0.8570 0.4946
vn -0.3070 0.9002 0.3088
vn -0.3757 0.9267 -0.0000
vn -0.3070 0.9002 -0.3088
vn -0.1443 0.8570 -0.4946
vn 0.0488 0.8458 -0.5312
vn 0.2328 0.8769 -0.4205
vn 0.3576 0.9193 -0.1643
vn 0.0666 0.9973 0.0306
vn 0.0453 0.9956 0.0819
vn 0.0098 0.9942 0.1071
vn -0.0287 0.9947 0.0985
vn -0.0583 0.9966 0.0587
vn -0.0694 0.9976 -0.0000
vn -0.0583 0.9966 -0.0587
vn -0.0287 0.9947 -0.0985
vn 0.0098 0.9942 -0.1071
vn 0.0453 0.9956 -0.0819
vn 0.0666 0.9973 -0.0306
vn -0.9924 -0.1102 0.0551
vn 0.9924 0.1102 -0.0551
vn 0.1031 -0.4970 0.8616
vn 0.1101 -0.9939 -0.0061
vn 0.0070 -0.4969 -0.8678
vn -0.1031 0.4970 -0.8616
vn -0.1101 0.9939 0.0061
vn -0.0070 0.4969 0.8678
vn -0.9979 -0.0519 0.0399
vn 0.9979 0.0519 -0.0399
vn 0.0605 -0.4994 0.8643
vn 0.0518 -0.9987 -0.0021
vn -0.0087 -0.4993 -0.8664
vn -0.0605 0.4994 -0.8643
vn -0.0518 0.9987 0.0021
vn 0.0087 0.4993 0.8664
vn -0.1443 -0.8570 0.4946
vn -0.1443 -0.8570 -0.4946
vn -0.1443 0.8570 0.4947
vn -0.1443 0.8570 -0.4947
vn -0.9924 -0.1101 0.0552
vn -0.9924 -0.1103 0.0550
vn -0.9924 -0.1104 0.0552
vn 0.9924 0.1102 -0.0550
vn 0.9924 0.1101 -0.0552
vn 0.9924 0.1104 -0.0552
vn 0.0605 -0.4993 0.8643
s 0
usemtl verdant_silica
f 1//1 2//1 3//1
f 1//2 3//2 4//2
f 1//3 4//3 5//3
f 1//4 5//4 6//4
f 1//5 6//5 7//5
f 1//6 7//6 8//6
f 1//7 8//7 9//7
f 1//8 9//8 10//8
f 1//9 10//9 11//9
f 1//10 11//10 12//10
f 1//11 12//11 2//11
f 2//12 14//12 3//12
f 3//13 15//13 4//13
f 4//14 16//14 5//14
f 16//15 6//15 5//15
f 17//16 7//16 6//16
f 18//17 8//17 7//17
f 8//18 20//18 9//18
f 9//19 21//19 10//19
f 21//20 11//20 10//20
f 22//21 12//21 11//21
f 23//22 2//22 12//22
f 24//23 14//23 13//23
f 25//24 15//24 14//24
f 26//25 16//25 15//25
f 16//26 28//26 17//26
f 17//27 29//27 18//27
f 29//28 19//28 18//28
f 30//29 20//29 19//29
f 31//30 21//30 20//30
f 21//31 33//31 22//31
f 22//32 34//32 23//32
f 23//33 24//33 13//33
f 24//34 35//34 25//34
f 25//35 35//35 26//35
f 26//36 35//36 27//36
f 27//37 35//37 28//37
f 28//38 35//38 29//38
f 29//39 35//39 30//39
f 30//40 35//40 31//40
f 31//41 35//41 32//41
f 32//42 35//42 33//42
f 33//43 35//43 34//43
f 34//44 35//44 24//44
f 36//45 37//45 38//45
f 36//46 38//46 39//46
f 36//47 39//47 40//47
f 36//48 40//48 41//48
f 36//49 41//49 42//49
f 36//50 42//50 43//50
f 36//51 43//51 44//51
f 36//52 44//52 45//52
f 36//53 45//53 46//53
f 36//54 46//54 47//54
f 36//55 47//55 37//55
f 37//56 49//56 38//56
f 38//57 50//57 39//57
f 39//58 51//58 40//58
f 51//59 41//59 40//59
f 52//60 42//60 41//60
f 53//61 43//61 42//61
f 43//62 55//62 44//62
f 44//63 56//63 45//63
f 56//64 46//64 45//64
f 57//65 47//65 46//65
f 58//66 37//66 47//66
f 59//67 49//67 48//67
f 60//68 50//68 49//68
f 61//69 51//69 50//69
f 51//70 63//70 52//70
f 52//71 64//71 53//71
f 53//72 65//72 54//72
f 65//73 55//73 54//73
f 66//74 56//74 55//74
f 56//75 68//75 57//75
f 57//76 69//76 58//76
f 58//77 59//77 48//77
f 59//78 70//78 60//78
f 60//79 70//79 61//79
f 61//80 70//80 62//80
f 62//81 70//81 63//81
f 63//82 70//82 64//82
f 64//83 70//83 65//83
f 65//84 70//84 66//84
f 66//85 70//85 67//85
f 67//86 70//86 68//86
f 68//87 70//87 69//87
f 69//88 70//88 59//88
f 71//89 72//89 73//89
f 71//90 73//90 74//90
f 71//91 74//91 75//91
f 71//92 75//92 76//92
f 71//93 76//93 77//93
f 71//94 77//94 78//94
f 71//95 78//95 79//95
f 71//96 79//96 80//96
f 71//97 80//97 81//97
f 71//98 81//98 82//98
f 71//99 82//99 72//99
f 72//100 84//100 73//100
f 73//101 85//101 74//101
f 74//102 86//102 75//102
f 86//103 76//103 75//103
f 87//104 77//104 76//104
f 88//105 78//105 77//105
f 78//106 90//106 79//106
f 79//107 91//107 80//107
f 91//108 81//108 80//108
f 92//109 82//109 81//109
f 93//110 72//110 82//110
f 94//111 84//111 83//111
f 95//112 85//112 84//112
f 96//113 86//113 85//113
f 86//114 98//114 87//114
f 87//115 99//115 88//115
f 99//116 89//116 88//116
f 100//117 90//117 89//117
f 101//118 91//118 90//118
f 91//119 103//119 92//119
f 92//120 104//120 93//120
f 93//121 94//121 83//121
f 94//122 105//122 95//122
f 95//123 105//123 96//123
f 96//124 105//124 97//124
f 97//125 105//125 98//125
f 98//126 105//126 99//126
f 99//127 105//127 100//127
f 100//128 105//128 101//128
f 101//129 105//129 102//129
f 102//130 105//130 103//130
f 103//131 105//131 104//131
f 104//132 105//132 94//132
f 2//12 13//12 14//12
f 3//13 14//13 15//13
f 4//14 15//14 16//14
f 16//15 17//15 6//15
f 17//16 18//16 7//16
f 18//17 19//17 8//17
f 8//18 19//18 20//18
f 9//19 20//19 21//19
f 21//20 22//20 11//20
f 22//21 23//21 12//21
f 23//22 13//22 2//22
f 24//23 25//23 14//23
f 25//24 26//24 15//24
f 26//25 27//25 16//25
f 16//26 27//26 28//26
f 17//27 28//27 29//27
f 29//28 30//28 19//28
f 30//29 31//29 20//29
f 31//30 32//30 21//30
f 21//31 32//31 33//31
f 22//32 33//32 34//32
f 23//33 34//33 24//33
f 37//56 48//56 49//56
f 38//57 49//57 50//57
f 39//58 50//58 51//58
f 51//59 52//59 41//59
f 52//60 53//60 42//60
f 53//61 54//61 43//61
f 43//62 54//62 55//62
f 44//63 55//63 56//63
f 56//64 57//64 46//64
f 57//65 58//65 47//65
f 58//66 48//66 37//66
f 59//67 60//67 49//67
f 60//68 61//68 50//68
f 61//69 62//69 51//69
f 51//70 62//70 63//70
f 52//71 63//71 64//71
f 53//72 64//72 65//72
f 65//73 66//73 55//73
f 66//74 67//74 56//74
f 56//75 67//75 68//75
f 57//76 68//76 69//76
f 58//77 69//77 59//77
f 72//100 83//100 84//100
f 73//101 84//101 85//101
f 74//102 85//102 86//102
f 86//149 87//149 76//149
f 87//104 88//104 77//104
f 88//105 89//105 78//105
f 78//106 89//106 90//106
f 79//150 90//150 91//150
f 91//108 92//108 81//108
f 92//109 93//109 82//109
f 93//110 83//110 72//110
f 94//111 95//111 84//111
f 95//112 96//112 85//112
f 96//113 97//113 86//113
f 86//151 97//151 98//151
f 87//115 98//115 99//115
f 99//116 100//116 89//116
f 100//117 101//117 90//117
f 101//152 102//152 91//152
f 91//119 102//119 103//119
f 92//120 103//120 104//120
f 93//121 104//121 94//121
usemtl verdant_silica
f 114//133 110//133 106//133
f 109//134 113//134 117//134
f 108//135 107//135 106//135
f 108//136 111//136 109//136
f 112//137 111//137 110//137
f 112//138 115//138 113//138
f 116//139 115//139 114//139
f 116//140 107//140 117//140
f 126//141 122//141 118//141
f 121//142 125//142 129//142
f 118//143 121//143 119//143
f 120//144 123//144 121//144
f 122//145 125//145 123//145
f 126//146 125//146 124//146
f 128//147 127//147 126//147
f 118//148 129//148 128//148
f 106//153 116//153 114//153
f 114//154 112//154 110//154
f 110//155 108//155 106//155
f 117//156 107//156 109//156
f 109//157 111//157 113//157
f 113//158 115//158 117//158
f 108//135 109//135 107//135
f 108//136 110//136 111//136
f 112//137 113//137 111//137
f 112//138 114//138 115//138
f 116//139 117//139 115//139
f 116//140 106//140 107//140
f 118//141 128//141 126//141
f 126//141 124//141 122//141
f 122//141 120//141 118//141
f 129//142 119//142 121//142
f 121//142 123//142 125//142
f 125//142 127//142 129//142
f 118//159 120//159 121//159
f 120//144 122//144 123//144
f 122//145 124//145 125//145
f 126//146 127//146 125//146
f 128//147 129//147 127//147
f 118//148 119//148 129//148
