# Blender 5.2.1 LTS
# www.blender.org
mtllib sulphur_colony_a.mtl
o sulphur_colony_a
v -1.800000 0.000000 0.100000
v -0.154550 0.030000 0.100000
v -0.375000 0.030000 0.554660
v -0.977280 0.030000 0.887500
v -1.800000 0.030000 1.009330
v -2.622720 0.030000 0.887500
v -3.225000 0.030000 0.554660
v -3.445450 0.030000 0.100000
v -3.225000 0.030000 -0.354660
v -2.622720 0.030000 -0.687500
v -1.800000 0.030000 -0.809330
v -0.977280 0.030000 -0.687500
v -0.375000 0.030000 -0.354660
v -0.154550 0.090000 0.100000
v -0.375000 0.090000 0.554660
v -0.977280 0.090000 0.887500
v -1.800000 0.090000 1.009330
v -2.622720 0.090000 0.887500
v -3.225000 0.090000 0.554660
v -3.445450 0.090000 0.100000
v -3.225000 0.090000 -0.354660
v -2.622720 0.090000 -0.687500
v -1.800000 0.090000 -0.809330
v -0.977280 0.090000 -0.687500
v -0.375000 0.090000 -0.354660
v -1.800000 0.120000 0.100000
v 0.400000 -0.000000 -0.500000
v 2.305260 0.030000 -0.500000
v 2.050000 0.030000 0.019620
v 1.352630 0.030000 0.400000
v 0.400000 0.030000 0.539230
v -0.552630 0.030000 0.400000
v -1.250000 0.030000 0.019620
v -1.505260 0.030000 -0.500000
v -1.250000 0.030000 -1.019620
v -0.552630 0.030000 -1.400000
v 0.400000 0.030000 -1.539230
v 1.352630 0.030000 -1.400000
v 2.050000 0.030000 -1.019620
v 2.305260 0.090000 -0.500000
v 2.050000 0.090000 0.019620
v 1.352630 0.090000 0.400000
v 0.400000 0.090000 0.539230
v -0.552630 0.090000 0.400000
v -1.250000 0.090000 0.019620
v -1.505260 0.090000 -0.500000
v -1.250000 0.090000 -1.019620
v -0.552630 0.090000 -1.400000
v 0.400000 0.090000 -1.539230
v 1.352630 0.090000 -1.400000
v 2.050000 0.090000 -1.019620
v 0.400000 0.120000 -0.500000
v 2.100000 0.000000 0.550000
v 3.269130 0.030000 0.550000
v 3.112500 0.030000 0.905070
v 2.684570 0.030000 1.165000
v 2.100000 0.030000 1.260140
v 1.515430 0.030000 1.165000
v 1.087500 0.030000 0.905070
v 0.930870 0.030000 0.550000
v 1.087500 0.030000 0.194930
v 1.515430 0.030000 -0.065000
v 2.100000 0.030000 -0.160140
v 2.684570 0.030000 -0.065000
v 3.112500 0.030000 0.194930
v 3.269130 0.090000 0.550000
v 3.112500 0.090000 0.905070
v 2.684570 0.090000 1.165000
v 2.100000 0.090000 1.260140
v 1.515430 0.090000 1.165000
v 1.087500 0.090000 0.905070
v 0.930870 0.090000 0.550000
v 1.087500 0.090000 0.194930
v 1.515430 0.090000 -0.065000
v 2.100000 0.090000 -0.160140
v 2.684570 0.090000 -0.065000
v 3.112500 0.090000 0.194930
v 2.100000 0.120000 0.550000
v 0.726550 0.080000 0.166840
v 0.606550 0.530000 0.166840
v 0.651250 0.080000 0.323210
v 0.576430 0.530000 0.229390
v 0.482050 0.080000 0.361830
v 0.508750 0.530000 0.244830
v 0.346360 0.080000 0.253620
v 0.454470 0.530000 0.201550
v 0.346360 0.080000 0.080060
v 0.454470 0.530000 0.132130
v 0.482050 0.080000 -0.028150
v 0.508750 0.530000 0.088850
v 0.651250 0.080000 0.010470
v 0.576430 0.530000 0.104290
v 0.526550 0.500000 0.166840
v 0.682430 0.550000 0.166840
v 0.623740 0.550000 0.288720
v 0.491860 0.550000 0.318820
v 0.386100 0.550000 0.234480
v 0.386100 0.550000 0.099200
v 0.491860 0.550000 0.014860
v 0.623740 0.550000 0.044960
v 0.682430 0.650000 0.166840
v 0.623740 0.650000 0.288720
v 0.491860 0.650000 0.318820
v 0.386100 0.650000 0.234480
v 0.386100 0.650000 0.099200
v 0.491860 0.650000 0.014860
v 0.623740 0.650000 0.044960
v 0.526550 0.700000 0.166840
v -1.857040 0.080000 0.299550
v -2.007040 1.010000 0.299550
v -1.943640 0.080000 0.479380
v -2.037170 1.010000 0.362100
v -2.138220 0.080000 0.523790
v -2.104850 1.010000 0.377550
v -2.294270 0.080000 0.399350
v -2.159120 1.010000 0.334270
v -2.294270 0.080000 0.199760
v -2.159120 1.010000 0.264840
v -2.138220 0.080000 0.075320
v -2.104850 1.010000 0.221560
v -1.943640 0.080000 0.119730
v -2.037170 1.010000 0.237010
v 0.762960 0.080000 -0.439860
v 0.582960 1.490000 -0.439860
v 0.665070 0.080000 -0.236580
v 0.552840 1.490000 -0.377310
v 0.445110 0.080000 -0.186370
v 0.485160 1.490000 -0.361860
v 0.268710 0.080000 -0.327050
v 0.430890 1.490000 -0.405140
v 0.268710 0.080000 -0.552660
v 0.430890 1.490000 -0.474570
v 0.445110 0.080000 -0.693340
v 0.485160 1.490000 -0.517850
v 0.665070 0.080000 -0.643130
v 0.552840 1.490000 -0.502400
v 0.584590 0.080000 1.409260
v 0.464590 0.850000 1.409260
v 0.509290 0.080000 1.565620
v 0.434470 0.850000 1.471800
v 0.340090 0.080000 1.604240
v 0.366790 0.850000 1.487250
v 0.204400 0.080000 1.496030
v 0.312510 0.850000 1.443970
v 0.204400 0.080000 1.322480
v 0.312510 0.850000 1.374540
v 0.340090 0.080000 1.214270
v 0.366790 0.850000 1.331260
v 0.509290 0.080000 1.252890
v 0.434470 0.850000 1.346710
v 0.384590 0.820000 1.409260
v 0.540480 0.870000 1.409260
v 0.481780 0.870000 1.531130
v 0.349900 0.870000 1.561230
v 0.244140 0.870000 1.476890
v 0.244140 0.870000 1.341620
v 0.349900 0.870000 1.257280
v 0.481780 0.870000 1.287380
v 0.540480 0.970000 1.409260
v 0.481780 0.970000 1.531130
v 0.349900 0.970000 1.561230
v 0.244140 0.970000 1.476890
v 0.244140 0.970000 1.341620
v 0.349900 0.970000 1.257280
v 0.481780 0.970000 1.287380
v 0.384590 1.020000 1.409260
v -0.725340 0.080000 -0.440090
v -0.875340 1.330000 -0.440090
v -0.811930 0.080000 -0.260270
v -0.905460 1.330000 -0.377540
v -1.006520 0.080000 -0.215850
v -0.973140 1.330000 -0.362090
v -1.162560 0.080000 -0.340290
v -1.027410 1.330000 -0.405380
v -1.162560 0.080000 -0.539880
v -1.027410 1.330000 -0.474800
v -1.006520 0.080000 -0.664320
v -0.973140 1.330000 -0.518080
v -0.811930 0.080000 -0.619910
v -0.905460 1.330000 -0.502630
v 3.022950 0.080000 -0.114570
v 2.842950 0.690000 -0.114570
v 2.925060 0.080000 0.088710
v 2.812830 0.690000 -0.052020
v 2.705090 0.080000 0.138910
v 2.745150 0.690000 -0.036570
v 2.528700 0.080000 -0.001760
v 2.690870 0.690000 -0.079860
v 2.528700 0.080000 -0.227380
v 2.690870 0.690000 -0.149280
v 2.705090 0.080000 -0.368050
v 2.745150 0.690000 -0.192560
v 2.925060 0.080000 -0.317840
v 2.812830 0.690000 -0.177110
v -0.850530 0.080000 0.645150
v -0.970530 1.170000 0.645150
v -0.925830 0.080000 0.801520
v -1.000650 1.170000 0.707700
v -1.095040 0.080000 0.840140
v -1.068330 1.170000 0.723150
v -1.230730 0.080000 0.731930
v -1.122610 1.170000 0.679860
v -1.230730 0.080000 0.558380
v -1.122610 1.170000 0.610440
v -1.095040 0.080000 0.450170
v -1.068330 1.170000 0.567160
v -0.925830 0.080000 0.488790
v -1.000650 1.170000 0.582610
v -1.050530 1.140000 0.645150
v -0.894650 1.190000 0.645150
v -0.953340 1.190000 0.767030
v -1.085220 1.190000 0.797130
v -1.190980 1.190000 0.712790
v -1.190980 1.190000 0.577520
v -1.085220 1.190000 0.493180
v -0.953340 1.190000 0.523280
v -0.894650 1.290000 0.645150
v -0.953340 1.290000 0.767030
v -1.085220 1.290000 0.797130
v -1.190980 1.290000 0.712790
v -1.190980 1.290000 0.577520
v -1.085220 1.290000 0.493180
v -0.953340 1.290000 0.523280
v -1.050530 1.340000 0.645150
v 0.273860 0.080000 -1.786220
v 0.123860 0.530000 -1.786220
v 0.187260 0.080000 -1.606400
v 0.093740 0.530000 -1.723670
v -0.007320 0.080000 -1.561990
v 0.026060 0.530000 -1.708220
v -0.163360 0.080000 -1.686430
v -0.028220 0.530000 -1.751510
v -0.163360 0.080000 -1.886010
v -0.028220 0.530000 -1.820930
v -0.007320 0.080000 -2.010450
v 0.026060 0.530000 -1.864210
v 0.187260 0.080000 -1.966040
v 0.093740 0.530000 -1.848770
v 1.484780 0.080000 0.796420
v 1.304780 1.010000 0.796420
v 1.386890 0.080000 0.999700
v 1.274660 1.010000 0.858970
v 1.166920 0.080000 1.049900
v 1.206980 1.010000 0.874420
v 0.990530 0.080000 0.909230
v 1.152700 1.010000 0.831130
v 0.990530 0.080000 0.683610
v 1.152700 1.010000 0.761710
v 1.166920 0.080000 0.542940
v 1.206980 1.010000 0.718430
v 1.386890 0.080000 0.593150
v 1.274660 1.010000 0.733880
v -0.397010 0.080000 -0.034690
v -0.517010 1.490000 -0.034690
v -0.472310 0.080000 0.121680
v -0.547130 1.490000 0.027860
v -0.641520 0.080000 0.160290
v -0.614810 1.490000 0.043300
v -0.777210 0.080000 0.052090
v -0.669090 1.490000 0.000020
v -0.777210 0.080000 -0.121470
v -0.669090 1.490000 -0.069400
v -0.641520 0.080000 -0.229680
v -0.614810 1.490000 -0.112680
v -0.472310 0.080000 -0.191060
v -0.547130 1.490000 -0.097240
v -0.597010 1.460000 -0.034690
v -0.441130 1.510000 -0.034690
v -0.499820 1.510000 0.087180
v -0.631700 1.510000 0.117290
v -0.737460 1.510000 0.032950
v -0.737460 1.510000 -0.102330
v -0.631700 1.510000 -0.186670
v -0.499820 1.510000 -0.156570
v -0.441130 1.610000 -0.034690
v -0.499820 1.610000 0.087180
v -0.631700 1.610000 0.117290
v -0.737460 1.610000 0.032950
v -0.737460 1.610000 -0.102330
v -0.631700 1.610000 -0.186670
v -0.499820 1.610000 -0.156570
v -0.597010 1.660000 -0.034690
v 1.950980 0.080000 -0.747440
v 1.800980 0.850000 -0.747440
v 1.864380 0.080000 -0.567620
v 1.770860 0.850000 -0.684900
v 1.669800 0.080000 -0.523210
v 1.703180 0.850000 -0.669450
v 1.513760 0.080000 -0.647650
v 1.648900 0.850000 -0.712730
v 1.513760 0.080000 -0.847230
v 1.648900 0.850000 -0.782150
v 1.669800 0.080000 -0.971680
v 1.703180 0.850000 -0.825440
v 1.864380 0.080000 -0.927260
v 1.770860 0.850000 -0.809990
vn -0.0000 -1.0000 -0.0000
vn 0.7883 -0.6153 -0.0000
vn 0.5594 -0.6381 0.5290
vn 0.2416 -0.6595 0.7119
vn -0.0000 -0.6644 0.7474
vn -0.2416 -0.6595 0.7119
vn -0.5594 -0.6381 0.5291
vn -0.7883 -0.6153 -0.0000
vn -0.5594 -0.6381 -0.5290
vn -0.2416 -0.6595 -0.7119
vn -0.0000 -0.6644 -0.7474
vn 0.2416 -0.6595 -0.7119
vn 0.5594 -0.6381 -0.5291
vn 0.7883 0.6153 -0.0000
vn 0.5594 0.6381 0.5291
vn 0.2416 0.6595 0.7119
vn -0.0000 0.6644 0.7474
vn -0.2416 0.6595 0.7119
vn -0.5594 0.6381 0.5290
vn -0.7883 0.6153 -0.0000
vn -0.5594 0.6381 -0.5291
vn -0.2416 0.6595 -0.7119
vn -0.0000 0.6644 -0.7474
vn 0.2416 0.6595 -0.7119
vn 0.5594 0.6381 -0.5290
vn -0.0000 1.0000 -0.0000
vn 0.5560 -0.6390 0.5316
vn 0.2384 -0.6611 0.7115
vn -0.0000 -0.6662 0.7458
vn -0.2384 -0.6611 0.7115
vn -0.5560 -0.6390 0.5316
vn -0.5560 -0.6390 -0.5316
vn -0.2384 -0.6611 -0.7115
vn -0.0000 -0.6662 -0.7458
vn 0.2384 -0.6611 -0.7115
vn 0.5560 -0.6390 -0.5316
vn 0.5560 0.6390 0.5316
vn 0.2384 0.6611 0.7115
vn -0.0000 0.6662 0.7458
vn -0.2384 0.6611 0.7115
vn -0.5560 0.6390 0.5316
vn -0.5560 0.6390 -0.5316
vn -0.2384 0.6611 -0.7115
vn -0.0000 0.6662 -0.7458
vn 0.2384 0.6611 -0.7115
vn 0.5560 0.6390 -0.5316
vn 0.7857 -0.6186 -0.0000
vn 0.5808 -0.6360 0.5082
vn 0.2630 -0.6539 0.7094
vn -0.0000 -0.6584 0.7527
vn -0.2630 -0.6539 0.7094
vn -0.5808 -0.6360 0.5082
vn -0.7857 -0.6187 -0.0000
vn -0.5808 -0.6360 -0.5082
vn -0.2630 -0.6539 -0.7094
vn -0.0000 -0.6584 -0.7527
vn 0.2630 -0.6539 -0.7094
vn 0.5808 -0.6360 -0.5082
vn 0.7857 0.6186 -0.0000
vn 0.5808 0.6360 0.5082
vn 0.2630 0.6539 0.7094
vn -0.0000 0.6584 0.7527
vn -0.2630 0.6539 0.7094
vn -0.5808 0.6360 0.5082
vn -0.7857 0.6187 -0.0000
vn -0.5808 0.6360 -0.5082
vn -0.2630 0.6539 -0.7094
vn -0.0000 0.6584 -0.7527
vn 0.2630 0.6539 -0.7094
vn 0.5808 0.6360 -0.5082
vn 0.8532 -0.5216 -0.0000
vn -0.1899 -0.5216 0.8318
vn -0.7687 -0.5216 -0.3702
vn 0.4348 0.7167 -0.5452
vn -0.6283 0.7167 -0.3026
vn -0.1552 0.7167 0.6799
vn 0.4348 0.7167 0.5452
vn 0.5320 -0.5215 0.6671
vn -0.7687 -0.5216 0.3702
vn -0.6283 0.7167 0.3026
vn -0.1552 0.7167 -0.6799
vn -0.1899 -0.5216 -0.8318
vn 0.5320 -0.5215 -0.6671
vn 0.3022 -0.9421 0.1455
vn 0.0746 -0.9421 0.3270
vn -0.2091 -0.9421 0.2622
vn -0.3354 -0.9421 -0.0000
vn -0.2091 -0.9421 -0.2622
vn 0.0746 -0.9421 -0.3270
vn 0.3022 -0.9421 -0.1455
vn 0.9010 -0.0000 0.4339
vn 0.2225 -0.0000 0.9749
vn -0.6235 -0.0000 0.7818
vn -1.0000 -0.0000 -0.0000
vn -0.6235 -0.0000 -0.7818
vn 0.2225 -0.0000 -0.9749
vn 0.9010 -0.0000 -0.4339
vn 0.3022 0.9421 0.1455
vn 0.0746 0.9421 0.3270
vn -0.2091 0.9421 0.2622
vn -0.3354 0.9421 -0.0000
vn -0.2091 0.9421 -0.2622
vn 0.0746 0.9421 -0.3270
vn 0.3022 0.9421 -0.1455
vn 0.8282 -0.5604 -0.0000
vn -0.1843 -0.5604 0.8074
vn -0.7462 -0.5605 -0.3593
vn 0.4568 0.6805 -0.5729
vn -0.6602 0.6805 -0.3179
vn -0.1630 0.6805 0.7144
vn 0.7328 0.6805 -0.0000
vn 0.5164 -0.5604 0.6475
vn 0.4568 0.6805 0.5729
vn -0.7462 -0.5604 0.3593
vn -0.6602 0.6805 0.3179
vn -0.1631 0.6805 -0.7144
vn -0.1843 -0.5604 -0.8074
vn 0.5164 -0.5604 -0.6475
vn 0.8195 -0.5731 -0.0000
vn -0.1824 -0.5731 0.7990
vn -0.7383 -0.5731 -0.3556
vn 0.4637 0.6684 -0.5815
vn -0.6701 0.6684 -0.3227
vn -0.1655 0.6684 0.7251
vn 0.4638 0.6684 0.5815
vn 0.5110 -0.5731 0.6407
vn -0.6701 0.6684 0.3227
vn -0.7384 -0.5731 0.3556
vn -0.1655 0.6684 -0.7251
vn -0.1824 -0.5731 -0.7990
vn 0.5110 -0.5731 -0.6407
vn 0.7438 0.6684 -0.0000
vn 0.8268 -0.5625 -0.0000
vn -0.1840 -0.5625 0.8061
vn -0.7449 -0.5625 -0.3587
vn 0.4580 0.6785 -0.5743
vn -0.6618 0.6785 -0.3187
vn -0.1634 0.6786 0.7161
vn 0.7346 0.6785 -0.0000
vn 0.5155 -0.5625 0.6464
vn -0.6618 0.6785 0.3187
vn -0.7449 -0.5625 0.3587
vn -0.1840 -0.5625 -0.8061
vn -0.1634 0.6785 -0.7162
vn 0.5155 -0.5625 -0.6464
vn 0.9009 -0.0000 0.4339
vn 0.8175 -0.5760 -0.0000
vn -0.1819 -0.5759 0.7970
vn -0.7365 -0.5760 -0.3547
vn 0.4653 0.6657 -0.5834
vn -0.6724 0.6657 -0.3238
vn -0.1661 0.6657 0.7275
vn 0.7463 0.6657 -0.0000
vn 0.5097 -0.5760 0.6391
vn -0.7365 -0.5759 0.3547
vn -0.6724 0.6657 0.3237
vn -0.1819 -0.5760 -0.7970
vn -0.1660 0.6657 -0.7276
vn 0.5097 -0.5759 -0.6391
vn 0.8594 -0.5113 -0.0000
vn -0.1913 -0.5113 0.8378
vn -0.7743 -0.5114 -0.3729
vn 0.4287 0.7260 -0.5376
vn -0.6196 0.7260 -0.2984
vn -0.1530 0.7260 0.6704
vn 0.4288 0.7260 0.5376
vn 0.5358 -0.5113 0.6719
vn -0.7743 -0.5113 0.3729
vn -0.6196 0.7260 0.2984
vn -0.1912 -0.5113 -0.8378
vn -0.1530 0.7260 -0.6704
vn 0.5358 -0.5114 -0.6719
vn 0.6877 0.7260 -0.0000
vn 0.8148 -0.5797 -0.0000
vn -0.1813 -0.5797 0.7944
vn -0.7341 -0.5797 -0.3535
vn 0.4673 0.6621 -0.5859
vn -0.6752 0.6621 -0.3252
vn -0.1668 0.6621 0.7307
vn 0.4673 0.6621 0.5859
vn 0.5081 -0.5797 0.6371
vn -0.7341 -0.5797 0.3535
vn -0.6752 0.6621 0.3252
vn -0.1813 -0.5797 -0.7944
vn -0.1667 0.6621 -0.7307
vn 0.5080 -0.5797 -0.6371
vn 0.7494 0.6621 -0.0000
vn 0.8673 -0.4978 -0.0000
vn -0.1930 -0.4978 0.8456
vn -0.7814 -0.4978 -0.3763
vn 0.4206 0.7382 -0.5274
vn -0.6077 0.7382 -0.2927
vn -0.1501 0.7382 0.6576
vn 0.6745 0.7382 -0.0000
vn 0.5407 -0.4978 0.6781
vn -0.7814 -0.4978 0.3763
vn -0.6077 0.7382 0.2927
vn -0.1930 -0.4978 -0.8455
vn 0.5407 -0.4978 -0.6781
vn 0.8362 -0.5484 -0.0000
vn -0.1861 -0.5484 0.8152
vn -0.7534 -0.5484 -0.3628
vn 0.4502 0.6918 -0.5645
vn -0.6505 0.6918 -0.3133
vn -0.1607 0.6918 0.7040
vn 0.4502 0.6918 0.5645
vn 0.5214 -0.5484 0.6538
vn -0.7534 -0.5484 0.3628
vn -0.6506 0.6918 0.3133
vn -0.1861 -0.5484 -0.8152
vn -0.1606 0.6918 -0.7040
vn 0.5214 -0.5484 -0.6538
vn 0.7221 0.6918 -0.0000
vn 0.8080 -0.5891 -0.0000
vn -0.1798 -0.5891 0.7878
vn -0.7280 -0.5891 -0.3506
vn 0.4722 0.6529 -0.5922
vn -0.6824 0.6529 -0.3287
vn -0.1685 0.6529 0.7384
vn 0.4722 0.6529 0.5922
vn 0.5038 -0.5891 0.6318
vn -0.6824 0.6529 0.3287
vn -0.7280 -0.5891 0.3506
vn -0.1798 -0.5891 -0.7878
vn -0.1685 0.6529 -0.7384
vn 0.5038 -0.5891 -0.6318
vn 0.0747 -0.9421 0.3270
vn 0.2226 -0.0000 0.9749
vn 0.0747 0.9421 0.3270
vn 0.8365 -0.5479 -0.0000
vn -0.1861 -0.5479 0.8155
vn -0.7537 -0.5480 -0.3629
vn 0.4500 0.6923 -0.5642
vn -0.6502 0.6923 -0.3131
vn -0.1605 0.6923 0.7035
vn 0.7216 0.6923 -0.0000
vn 0.5215 -0.5479 0.6540
vn -0.6502 0.6923 0.3131
vn -0.7537 -0.5479 0.3629
vn -0.1606 0.6923 -0.7036
vn -0.1861 -0.5479 -0.8156
vn 0.5216 -0.5479 -0.6540
vn 0.6974 0.7167 -0.0000
vn 0.4580 0.6786 0.5743
vn 0.4653 0.6657 0.5834
vn 0.4206 0.7382 0.5274
vn -0.1501 0.7383 -0.6576
vn 0.7574 0.6529 -0.0000
vn 0.4499 0.6923 0.5642
s 1
usemtl verdant_sulphur
f 1//1 2//2 3//3
f 1//1 3//3 4//4
f 1//1 4//4 5//5
f 1//1 5//5 6//6
f 1//1 6//6 7//7
f 1//1 7//7 8//8
f 1//1 8//8 9//9
f 1//1 9//9 10//10
f 1//1 10//10 11//11
f 1//1 11//11 12//12
f 1//1 12//12 13//13
f 1//1 13//13 2//2
f 14//14 3//3 2//2
f 15//15 4//4 3//3
f 16//16 5//5 4//4
f 17//17 6//6 5//5
f 18//18 7//7 6//6
f 19//19 8//8 7//7
f 20//20 9//9 8//8
f 21//21 10//10 9//9
f 22//22 11//11 10//10
f 23//23 12//12 11//11
f 24//24 13//13 12//12
f 25//25 2//2 13//13
f 14//14 26//26 15//15
f 15//15 26//26 16//16
f 16//16 26//26 17//17
f 17//17 26//26 18//18
f 18//18 26//26 19//19
f 19//19 26//26 20//20
f 20//20 26//26 21//21
f 21//21 26//26 22//22
f 22//22 26//26 23//23
f 23//23 26//26 24//24
f 24//24 26//26 25//25
f 25//25 26//26 14//14
f 27//1 28//2 29//27
f 27//1 29//27 30//28
f 27//1 30//28 31//29
f 27//1 31//29 32//30
f 27//1 32//30 33//31
f 27//1 33//31 34//8
f 27//1 34//8 35//32
f 27//1 35//32 36//33
f 27//1 36//33 37//34
f 27//1 37//34 38//35
f 27//1 38//35 39//36
f 27//1 39//36 28//2
f 40//14 29//27 28//2
f 41//37 30//28 29//27
f 42//38 31//29 30//28
f 43//39 32//30 31//29
f 44//40 33//31 32//30
f 45//41 34//8 33//31
f 46//20 35//32 34//8
f 47//42 36//33 35//32
f 48//43 37//34 36//33
f 49//44 38//35 37//34
f 50//45 39//36 38//35
f 51//46 28//2 39//36
f 40//14 52//26 41//37
f 41//37 52//26 42//38
f 42//38 52//26 43//39
f 43//39 52//26 44//40
f 44//40 52//26 45//41
f 45//41 52//26 46//20
f 46//20 52//26 47//42
f 47//42 52//26 48//43
f 48//43 52//26 49//44
f 49//44 52//26 50//45
f 50//45 52//26 51//46
f 51//46 52//26 40//14
f 53//1 54//47 55//48
f 53//1 55//48 56//49
f 53//1 56//49 57//50
f 53//1 57//50 58//51
f 53//1 58//51 59//52
f 53//1 59//52 60//53
f 53//1 60//53 61//54
f 53//1 61//54 62//55
f 53//1 62//55 63//56
f 53//1 63//56 64//57
f 53//1 64//57 65//58
f 53//1 65//58 54//47
f 66//59 55//48 54//47
f 67//60 56//49 55//48
f 68//61 57//50 56//49
f 69//62 58//51 57//50
f 70//63 59//52 58//51
f 71//64 60//53 59//52
f 72//65 61//54 60//53
f 73//66 62//55 61//54
f 74//67 63//56 62//55
f 75//68 64//57 63//56
f 76//69 65//58 64//57
f 77//70 54//47 65//58
f 66//59 78//26 67//60
f 67//60 78//26 68//61
f 68//61 78//26 69//62
f 69//62 78//26 70//63
f 70//63 78//26 71//64
f 71//64 78//26 72//65
f 72//65 78//26 73//66
f 73//66 78//26 74//67
f 74//67 78//26 75//68
f 75//68 78//26 76//69
f 76//69 78//26 77//70
f 77//70 78//26 66//59
f 14//14 15//15 3//3
f 15//15 16//16 4//4
f 16//16 17//17 5//5
f 17//17 18//18 6//6
f 18//18 19//19 7//7
f 19//19 20//20 8//8
f 20//20 21//21 9//9
f 21//21 22//22 10//10
f 22//22 23//23 11//11
f 23//23 24//24 12//12
f 24//24 25//25 13//13
f 25//25 14//14 2//2
f 40//14 41//37 29//27
f 41//37 42//38 30//28
f 42//38 43//39 31//29
f 43//39 44//40 32//30
f 44//40 45//41 33//31
f 45//41 46//20 34//8
f 46//20 47//42 35//32
f 47//42 48//43 36//33
f 48//43 49//44 37//34
f 49//44 50//45 38//35
f 50//45 51//46 39//36
f 51//46 40//14 28//2
f 66//59 67//60 55//48
f 67//60 68//61 56//49
f 68//61 69//62 57//50
f 69//62 70//63 58//51
f 70//63 71//64 59//52
f 71//64 72//65 60//53
f 72//65 73//66 61//54
f 73//66 74//67 62//55
f 74//67 75//68 63//56
f 75//68 76//69 64//57
f 76//69 77//70 65//58
f 77//70 66//59 54//47
usemtl verdant_sulphur
f 79//71 83//72 87//73
f 92//74 88//75 84//76
f 79//71 82//77 81//78
f 82//77 83//72 81//78
f 84//76 85//79 83//72
f 86//80 87//73 85//79
f 87//73 90//81 89//82
f 89//82 92//74 91//83
f 92//74 79//71 91//83
f 109//105 113//106 117//107
f 122//108 118//109 114//110
f 110//111 111//112 109//105
f 112//113 113//106 111//112
f 114//110 115//114 113//106
f 116//115 117//107 115//114
f 117//107 120//116 119//117
f 119//117 122//108 121//118
f 121//118 110//111 109//105
f 123//119 127//120 131//121
f 136//122 132//123 128//124
f 123//119 126//125 125//126
f 126//125 127//120 125//126
f 127//120 130//127 129//128
f 130//127 131//121 129//128
f 131//121 134//129 133//130
f 134//129 135//131 133//130
f 135//131 124//132 123//119
f 137//133 141//134 145//135
f 150//136 146//137 142//138
f 138//139 139//140 137//133
f 139//140 142//138 141//134
f 141//134 144//141 143//142
f 144//141 145//135 143//142
f 146//137 147//143 145//135
f 148//144 149//145 147//143
f 150//136 137//133 149//145
f 167//147 171//148 175//149
f 180//150 176//151 172//152
f 168//153 169//154 167//147
f 169//154 172//152 171//148
f 172//152 173//155 171//148
f 174//156 175//149 173//155
f 176//151 177//157 175//149
f 178//158 179//159 177//157
f 180//150 167//147 179//159
f 181//160 185//161 189//162
f 194//163 190//164 186//165
f 181//160 184//166 183//167
f 183//167 186//165 185//161
f 186//165 187//168 185//161
f 188//169 189//162 187//168
f 190//164 191//170 189//162
f 192//171 193//172 191//170
f 193//172 182//173 181//160
f 195//174 199//175 203//176
f 208//177 204//178 200//179
f 195//174 198//180 197//181
f 197//181 200//179 199//175
f 200//179 201//182 199//175
f 202//183 203//176 201//182
f 204//178 205//184 203//176
f 206//185 207//186 205//184
f 207//186 196//187 195//174
f 225//188 229//189 233//190
f 238//191 234//192 230//193
f 226//194 227//195 225//188
f 227//195 230//193 229//189
f 230//193 231//196 229//189
f 232//197 233//190 231//196
f 234//192 235//198 233//190
f 235//198 238//191 237//199
f 237//199 226//194 225//188
f 239//200 243//201 247//202
f 252//203 248//204 244//205
f 239//200 242//206 241//207
f 241//207 244//205 243//201
f 244//205 245//208 243//201
f 246//209 247//202 245//208
f 248//204 249//210 247//202
f 250//211 251//212 249//210
f 251//212 240//213 239//200
f 253//214 257//215 261//216
f 266//217 262//218 258//219
f 253//214 256//220 255//221
f 256//220 257//215 255//221
f 257//215 260//222 259//223
f 259//223 262//218 261//216
f 262//218 263//224 261//216
f 264//225 265//226 263//224
f 266//217 253//214 265//226
f 283//230 287//231 291//232
f 296//233 292//234 288//235
f 284//236 285//237 283//230
f 285//237 288//235 287//231
f 287//231 290//238 289//239
f 290//238 291//232 289//239
f 291//232 294//240 293//241
f 294//240 295//242 293//241
f 296//233 283//230 295//242
f 89//82 91//83 79//71
f 79//71 81//78 83//72
f 83//72 85//79 87//73
f 87//73 89//82 79//71
f 82//77 80//243 92//74
f 92//74 90//81 88//75
f 88//75 86//80 84//76
f 84//76 82//77 92//74
f 79//71 80//243 82//77
f 82//77 84//76 83//72
f 84//76 86//80 85//79
f 86//80 88//75 87//73
f 87//73 88//75 90//81
f 89//82 90//81 92//74
f 92//74 80//243 79//71
f 119//117 121//118 109//105
f 109//105 111//112 113//106
f 113//106 115//114 117//107
f 117//107 119//117 109//105
f 112//113 110//111 122//108
f 122//108 120//116 118//109
f 118//109 116//115 114//110
f 114//110 112//113 122//108
f 110//111 112//113 111//112
f 112//113 114//110 113//106
f 114//110 116//115 115//114
f 116//115 118//109 117//107
f 117//107 118//109 120//116
f 119//117 120//116 122//108
f 121//118 122//108 110//111
f 133//130 135//131 123//119
f 123//119 125//126 127//120
f 127//120 129//128 131//121
f 131//121 133//130 123//119
f 126//125 124//132 136//122
f 136//122 134//129 132//123
f 132//123 130//127 128//124
f 128//124 126//125 136//122
f 123//119 124//132 126//125
f 126//125 128//124 127//120
f 127//120 128//124 130//127
f 130//127 132//123 131//121
f 131//121 132//123 134//129
f 134//129 136//122 135//131
f 135//131 136//122 124//132
f 147//143 149//145 137//133
f 137//133 139//140 141//134
f 141//134 143//142 145//135
f 145//135 147//143 137//133
f 140//244 138//139 150//136
f 150//136 148//144 146//137
f 146//137 144//141 142//138
f 142//138 140//244 150//136
f 138//139 140//244 139//140
f 139//140 140//244 142//138
f 141//134 142//138 144//141
f 144//141 146//137 145//135
f 146//137 148//144 147//143
f 148//144 150//136 149//145
f 150//136 138//139 137//133
f 177//157 179//159 167//147
f 167//147 169//154 171//148
f 171//148 173//155 175//149
f 175//149 177//157 167//147
f 170//245 168//153 180//150
f 180//150 178//158 176//151
f 176//151 174//156 172//152
f 172//152 170//245 180//150
f 168//153 170//245 169//154
f 169//154 170//245 172//152
f 172//152 174//156 173//155
f 174//156 176//151 175//149
f 176//151 178//158 177//157
f 178//158 180//150 179//159
f 180//150 168//153 167//147
f 191//170 193//172 181//160
f 181//160 183//167 185//161
f 185//161 187//168 189//162
f 189//162 191//170 181//160
f 184//166 182//173 194//163
f 194//163 192//171 190//164
f 190//164 188//169 186//165
f 186//165 184//166 194//163
f 181//160 182//173 184//166
f 183//167 184//166 186//165
f 186//165 188//169 187//168
f 188//169 190//164 189//162
f 190//164 192//171 191//170
f 192//171 194//163 193//172
f 193//172 194//163 182//173
f 205//184 207//186 195//174
f 195//174 197//181 199//175
f 199//175 201//182 203//176
f 203//176 205//184 195//174
f 198//180 196//187 208//177
f 208//177 206//185 204//178
f 204//178 202//183 200//179
f 200//179 198//180 208//177
f 195//174 196//187 198//180
f 197//181 198//180 200//179
f 200//179 202//183 201//182
f 202//183 204//178 203//176
f 204//178 206//185 205//184
f 206//185 208//177 207//186
f 207//186 208//177 196//187
f 235//198 237//199 225//188
f 225//188 227//195 229//189
f 229//189 231//196 233//190
f 233//190 235//198 225//188
f 228//246 226//194 238//191
f 238//191 236//247 234//192
f 234//192 232//197 230//193
f 230//193 228//246 238//191
f 226//194 228//246 227//195
f 227//195 228//246 230//193
f 230//193 232//197 231//196
f 232//197 234//192 233//190
f 234//192 236//247 235//198
f 235//198 236//247 238//191
f 237//199 238//191 226//194
f 249//210 251//212 239//200
f 239//200 241//207 243//201
f 243//201 245//208 247//202
f 247//202 249//210 239//200
f 242//206 240//213 252//203
f 252//203 250//211 248//204
f 248//204 246//209 244//205
f 244//205 242//206 252//203
f 239//200 240//213 242//206
f 241//207 242//206 244//205
f 244//205 246//209 245//208
f 246//209 248//204 247//202
f 248//204 250//211 249//210
f 250//211 252//203 251//212
f 251//212 252//203 240//213
f 263//224 265//226 253//214
f 253//214 255//221 257//215
f 257//215 259//223 261//216
f 261//216 263//224 253//214
f 256//220 254//248 266//217
f 266//217 264//225 262//218
f 262//218 260//222 258//219
f 258//219 256//220 266//217
f 253//214 254//248 256//220
f 256//220 258//219 257//215
f 257//215 258//219 260//222
f 259//223 260//222 262//218
f 262//218 264//225 263//224
f 264//225 266//217 265//226
f 266//217 254//248 253//214
f 293//241 295//242 283//230
f 283//230 285//237 287//231
f 287//231 289//239 291//232
f 291//232 293//241 283//230
f 286//249 284//236 296//233
f 296//233 294//240 292//234
f 292//234 290//238 288//235
f 288//235 286//249 296//233
f 284//236 286//249 285//237
f 285//237 286//249 288//235
f 287//231 288//235 290//238
f 290//238 292//234 291//232
f 291//232 292//234 294//240
f 294//240 296//233 295//242
f 296//233 284//236 283//230
s 0
usemtl verdant_carbonate
f 93//84 94//84 95//84
f 93//85 95//85 96//85
f 93//86 96//86 97//86
f 93//87 97//87 98//87
f 93//88 98//88 99//88
f 93//89 99//89 100//89
f 93//90 100//90 94//90
f 101//91 95//91 94//91
f 102//92 96//92 95//92
f 103//93 97//93 96//93
f 104//94 98//94 97//94
f 105//95 99//95 98//95
f 106//96 100//96 99//96
f 107//97 94//97 100//97
f 101//98 108//98 102//98
f 102//99 108//99 103//99
f 103//100 108//100 104//100
f 104//101 108//101 105//101
f 105//102 108//102 106//102
f 106//103 108//103 107//103
f 107//104 108//104 101//104
f 151//84 152//84 153//84
f 151//85 153//85 154//85
f 151//86 154//86 155//86
f 151//87 155//87 156//87
f 151//88 156//88 157//88
f 151//89 157//89 158//89
f 151//90 158//90 152//90
f 159//146 153//146 152//146
f 160//92 154//92 153//92
f 161//93 155//93 154//93
f 162//94 156//94 155//94
f 163//95 157//95 156//95
f 164//96 158//96 157//96
f 165//97 152//97 158//97
f 159//98 166//98 160//98
f 160//99 166//99 161//99
f 161//100 166//100 162//100
f 162//101 166//101 163//101
f 163//102 166//102 164//102
f 164//103 166//103 165//103
f 165//104 166//104 159//104
f 209//84 210//84 211//84
f 209//85 211//85 212//85
f 209//86 212//86 213//86
f 209//87 213//87 214//87
f 209//88 214//88 215//88
f 209//89 215//89 216//89
f 209//90 216//90 210//90
f 217//91 211//91 210//91
f 218//92 212//92 211//92
f 219//93 213//93 212//93
f 220//94 214//94 213//94
f 221//95 215//95 214//95
f 222//96 216//96 215//96
f 223//97 210//97 216//97
f 217//98 224//98 218//98
f 218//99 224//99 219//99
f 219//100 224//100 220//100
f 220//101 224//101 221//101
f 221//102 224//102 222//102
f 222//103 224//103 223//103
f 223//104 224//104 217//104
f 267//84 268//84 269//84
f 267//227 269//227 270//227
f 267//86 270//86 271//86
f 267//87 271//87 272//87
f 267//88 272//88 273//88
f 267//89 273//89 274//89
f 267//90 274//90 268//90
f 275//91 269//91 268//91
f 276//228 270//228 269//228
f 277//93 271//93 270//93
f 278//94 272//94 271//94
f 279//95 273//95 272//95
f 280//96 274//96 273//96
f 281//97 268//97 274//97
f 275//98 282//98 276//98
f 276//229 282//229 277//229
f 277//100 282//100 278//100
f 278//101 282//101 279//101
f 279//102 282//102 280//102
f 280//103 282//103 281//103
f 281//104 282//104 275//104
f 101//91 102//91 95//91
f 102//92 103//92 96//92
f 103//93 104//93 97//93
f 104//94 105//94 98//94
f 105//95 106//95 99//95
f 106//96 107//96 100//96
f 107//97 101//97 94//97
f 159//146 160//146 153//146
f 160//92 161//92 154//92
f 161//93 162//93 155//93
f 162//94 163//94 156//94
f 163//95 164//95 157//95
f 164//96 165//96 158//96
f 165//97 159//97 152//97
f 217//91 218//91 211//91
f 218//92 219//92 212//92
f 219//93 220//93 213//93
f 220//94 221//94 214//94
f 221//95 222//95 215//95
f 222//96 223//96 216//96
f 223//97 217//97 210//97
f 275//91 276//91 269//91
f 276//228 277//228 270//228
f 277//93 278//93 271//93
f 278//94 279//94 272//94
f 279//95 280//95 273//95
f 280//96 281//96 274//96
f 281//97 275//97 268//97
