# Blender 5.2.1 LTS
# www.blender.org
mtllib sulphur_crust_b.mtl
o sulphur_crust_b
v -1.700000 0.000000 0.100000
v 0.032050 0.065000 0.100000
v -0.200000 0.065000 0.641270
v -0.833970 0.065000 1.037500
v -1.700000 0.065000 1.182530
v -2.566030 0.065000 1.037500
v -3.200000 0.065000 0.641270
v -3.432050 0.065000 0.100000
v -3.200000 0.065000 -0.441270
v -2.566030 0.065000 -0.837500
v -1.700000 0.065000 -0.982530
v -0.833970 0.065000 -0.837500
v -0.200000 0.065000 -0.441270
v 0.032050 0.195000 0.100000
v -0.200000 0.195000 0.641270
v -0.833970 0.195000 1.037500
v -1.700000 0.195000 1.182530
v -2.566030 0.195000 1.037500
v -3.200000 0.195000 0.641270
v -3.432050 0.195000 0.100000
v -3.200000 0.195000 -0.441270
v -2.566030 0.195000 -0.837500
v -1.700000 0.195000 -0.982530
v -0.833970 0.195000 -0.837500
v -0.200000 0.195000 -0.441270
v -1.700000 0.260000 0.100000
v -1.600000 0.200000 0.100000
v -0.560770 0.230000 0.100000
v -0.759240 0.230000 0.462690
v -1.278860 0.230000 0.686840
v -1.921140 0.230000 0.686840
v -2.440760 0.230000 0.462690
v -2.639230 0.230000 0.100000
v -2.440760 0.230000 -0.262690
v -1.921140 0.230000 -0.486840
v -1.278860 0.230000 -0.486840
v -0.759240 0.230000 -0.262690
v -0.560770 0.290000 0.100000
v -0.759240 0.290000 0.462690
v -1.278860 0.290000 0.686840
v -1.921140 0.290000 0.686840
v -2.440760 0.290000 0.462690
v -2.639230 0.290000 0.100000
v -2.440760 0.290000 -0.262690
v -1.921140 0.290000 -0.486840
v -1.278860 0.290000 -0.486840
v -0.759240 0.290000 -0.262690
v -1.600000 0.320000 0.100000
v 0.500000 -0.000000 -0.500000
v 2.578460 0.065000 -0.500000
v 2.300000 0.065000 0.106220
v 1.539230 0.065000 0.550000
v 0.500000 0.065000 0.712440
v -0.539230 0.065000 0.550000
v -1.300000 0.065000 0.106220
v -1.578460 0.065000 -0.500000
v -1.300000 0.065000 -1.106220
v -0.539230 0.065000 -1.550000
v 0.500000 0.065000 -1.712440
v 1.539230 0.065000 -1.550000
v 2.300000 0.065000 -1.106220
v 2.578460 0.195000 -0.500000
v 2.300000 0.195000 0.106220
v 1.539230 0.195000 0.550000
v 0.500000 0.195000 0.712440
v -0.539230 0.195000 0.550000
v -1.300000 0.195000 0.106220
v -1.578460 0.195000 -0.500000
v -1.300000 0.195000 -1.106220
v -0.539230 0.195000 -1.550000
v 0.500000 0.195000 -1.712440
v 1.539230 0.195000 -1.550000
v 2.300000 0.195000 -1.106220
v 0.500000 0.260000 -0.500000
v 0.600000 0.200000 -0.500000
v 1.847080 0.230000 -0.500000
v 1.608910 0.230000 -0.093790
v 0.985370 0.230000 0.157260
v 0.214630 0.230000 0.157260
v -0.408910 0.230000 -0.093790
v -0.647080 0.230000 -0.500000
v -0.408910 0.230000 -0.906210
v 0.214630 0.230000 -1.157260
v 0.985370 0.230000 -1.157260
v 1.608910 0.230000 -0.906210
v 1.847080 0.290000 -0.500000
v 1.608910 0.290000 -0.093790
v 0.985370 0.290000 0.157260
v 0.214630 0.290000 0.157260
v -0.408910 0.290000 -0.093790
v -0.647080 0.290000 -0.500000
v -0.408910 0.290000 -0.906210
v 0.214630 0.290000 -1.157260
v 0.985370 0.290000 -1.157260
v 1.608910 0.290000 -0.906210
v 0.600000 0.320000 -0.500000
v 2.200000 0.000000 0.550000
v 3.325830 0.065000 0.550000
v 3.175000 0.065000 0.939710
v 2.762920 0.065000 1.225000
v 2.200000 0.065000 1.329420
v 1.637080 0.065000 1.225000
v 1.225000 0.065000 0.939710
v 1.074170 0.065000 0.550000
v 1.225000 0.065000 0.160290
v 1.637080 0.065000 -0.125000
v 2.200000 0.065000 -0.229420
v 2.762920 0.065000 -0.125000
v 3.175000 0.065000 0.160290
v 3.325830 0.195000 0.550000
v 3.175000 0.195000 0.939710
v 2.762920 0.195000 1.225000
v 2.200000 0.195000 1.329420
v 1.637080 0.195000 1.225000
v 1.225000 0.195000 0.939710
v 1.074170 0.195000 0.550000
v 1.225000 0.195000 0.160290
v 1.637080 0.195000 -0.125000
v 2.200000 0.195000 -0.229420
v 2.762920 0.195000 -0.125000
v 3.175000 0.195000 0.160290
v 2.200000 0.260000 0.550000
v 2.300000 0.200000 0.550000
v 2.975500 0.230000 0.550000
v 2.846490 0.230000 0.811140
v 2.508740 0.230000 0.972530
v 2.091260 0.230000 0.972530
v 1.753510 0.230000 0.811140
v 1.624500 0.230000 0.550000
v 1.753510 0.230000 0.288860
v 2.091260 0.230000 0.127470
v 2.508740 0.230000 0.127470
v 2.846490 0.230000 0.288860
v 2.975500 0.290000 0.550000
v 2.846490 0.290000 0.811140
v 2.508740 0.290000 0.972530
v 2.091260 0.290000 0.972530
v 1.753510 0.290000 0.811140
v 1.624500 0.290000 0.550000
v 1.753510 0.290000 0.288860
v 2.091260 0.290000 0.127470
v 2.508740 0.290000 0.127470
v 2.846490 0.290000 0.288860
v 2.300000 0.320000 0.550000
v -0.300000 0.240000 0.200000
v -0.620000 1.390000 0.200000
v -0.446450 0.240000 0.553550
v -0.672720 1.390000 0.327280
v -0.800000 0.240000 0.700000
v -0.800000 1.390000 0.380000
v -1.153550 0.240000 0.553550
v -0.927280 1.390000 0.327280
v -1.300000 0.240000 0.200000
v -0.980000 1.390000 0.200000
v -1.153550 0.240000 -0.153550
v -0.927280 1.390000 0.072720
v -0.800000 0.240000 -0.300000
v -0.800000 1.390000 0.020000
v -0.446450 0.240000 -0.153550
v -0.672720 1.390000 0.072720
v 1.700000 0.240000 -0.350000
v 1.380000 1.040000 -0.350000
v 1.553550 0.240000 0.003550
v 1.327280 1.040000 -0.222720
v 1.200000 0.240000 0.150000
v 1.200000 1.040000 -0.170000
v 0.846450 0.240000 0.003550
v 1.072720 1.040000 -0.222720
v 0.700000 0.240000 -0.350000
v 1.020000 1.040000 -0.350000
v 0.846450 0.240000 -0.703550
v 1.072720 1.040000 -0.477280
v 1.200000 0.240000 -0.850000
v 1.200000 1.040000 -0.530000
v 1.553550 0.240000 -0.703550
v 1.327280 1.040000 -0.477280
vn -0.0000 -1.0000 -0.0000
vn 0.7872 -0.6166 -0.0000
vn 0.5894 -0.6319 0.5033
vn 0.2713 -0.6477 0.7120
vn -0.0000 -0.6515 0.7587
vn -0.2713 -0.6477 0.7120
vn -0.5894 -0.6319 0.5033
vn -0.7872 -0.6166 -0.0000
vn -0.5894 -0.6319 -0.5033
vn -0.2713 -0.6477 -0.7120
vn -0.0000 -0.6515 -0.7587
vn 0.2713 -0.6477 -0.7120
vn 0.5894 -0.6319 -0.5033
vn 0.7872 0.6166 -0.0000
vn 0.5894 0.6319 0.5033
vn 0.2713 0.6477 0.7120
vn -0.0000 0.6515 0.7587
vn -0.2713 0.6477 0.7120
vn -0.5894 0.6319 0.5033
vn -0.7872 0.6166 -0.0000
vn -0.5894 0.6319 -0.5033
vn -0.2713 0.6477 -0.7120
vn -0.0000 0.6515 -0.7587
vn 0.2713 0.6477 -0.7120
vn 0.5894 0.6319 -0.5033
vn -0.0000 1.0000 -0.0000
vn 0.0289 -0.9995 0.0158
vn 0.0178 -0.9990 0.0413
vn -0.0000 -0.9987 0.0511
vn -0.0178 -0.9990 0.0413
vn -0.0289 -0.9995 0.0158
vn -0.0289 -0.9995 -0.0158
vn -0.0178 -0.9990 -0.0413
vn -0.0000 -0.9987 -0.0511
vn 0.0178 -0.9990 -0.0413
vn 0.0289 -0.9995 -0.0158
vn 0.8772 -0.0000 0.4800
vn 0.3961 -0.0000 0.9182
vn -0.0000 -0.0000 1.0000
vn -0.3961 -0.0000 0.9182
vn -0.8772 -0.0000 0.4800
vn -0.8772 -0.0000 -0.4800
vn -0.3961 -0.0000 -0.9182
vn -0.0000 -0.0000 -1.0000
vn 0.3961 -0.0000 -0.9182
vn 0.8772 -0.0000 -0.4800
vn 0.0289 0.9995 0.0158
vn 0.0178 0.9990 0.0413
vn -0.0000 0.9987 0.0511
vn -0.0178 0.9990 0.0413
vn -0.0289 0.9995 0.0158
vn -0.0289 0.9995 -0.0158
vn -0.0178 0.9990 -0.0413
vn -0.0000 0.9987 -0.0511
vn 0.0178 0.9990 -0.0413
vn 0.0289 0.9995 -0.0158
vn 0.7889 -0.6145 -0.0000
vn 0.5741 -0.6335 0.5187
vn 0.2553 -0.6517 0.7142
vn -0.0000 -0.6558 0.7550
vn -0.2553 -0.6517 0.7142
vn -0.5741 -0.6335 0.5187
vn -0.7889 -0.6145 -0.0000
vn -0.5741 -0.6335 -0.5187
vn -0.2553 -0.6517 -0.7142
vn -0.0000 -0.6558 -0.7550
vn 0.2553 -0.6517 -0.7142
vn 0.5741 -0.6335 -0.5187
vn 0.7889 0.6145 -0.0000
vn 0.5741 0.6335 0.5187
vn 0.2553 0.6517 0.7142
vn -0.0000 0.6558 0.7550
vn -0.2553 0.6517 0.7142
vn -0.5741 0.6335 0.5187
vn -0.7889 0.6145 -0.0000
vn -0.5741 0.6335 -0.5187
vn -0.2553 0.6517 -0.7142
vn -0.0000 0.6558 -0.7550
vn 0.2553 0.6517 -0.7142
vn 0.5741 0.6335 -0.5187
vn 0.0240 -0.9996 0.0141
vn 0.0149 -0.9992 0.0369
vn -0.0000 -0.9990 0.0456
vn -0.0149 -0.9992 0.0369
vn -0.0240 -0.9996 0.0141
vn -0.0240 -0.9996 -0.0141
vn -0.0149 -0.9992 -0.0369
vn -0.0000 -0.9990 -0.0456
vn 0.0149 -0.9992 -0.0369
vn 0.0240 -0.9996 -0.0141
vn 0.8627 -0.0000 0.5058
vn 0.3735 -0.0000 0.9276
vn -0.3735 -0.0000 0.9276
vn -0.8627 -0.0000 0.5058
vn -0.8627 -0.0000 -0.5058
vn -0.3735 -0.0000 -0.9276
vn 0.3735 -0.0000 -0.9276
vn 0.8627 -0.0000 -0.5058
vn 0.0240 0.9996 0.0141
vn 0.0149 0.9992 0.0369
vn -0.0000 0.9990 0.0456
vn -0.0149 0.9992 0.0369
vn -0.0240 0.9996 0.0141
vn -0.0240 0.9996 -0.0141
vn -0.0149 0.9992 -0.0369
vn -0.0000 0.9990 -0.0456
vn 0.0149 0.9992 -0.0369
vn 0.0240 0.9996 -0.0141
vn 0.7877 -0.6160 -0.0000
vn 0.6136 -0.6261 0.4812
vn 0.2977 -0.6373 0.7108
vn -0.0000 -0.6402 0.7682
vn -0.2977 -0.6373 0.7108
vn -0.6136 -0.6261 0.4812
vn -0.7877 -0.6160 -0.0000
vn -0.6136 -0.6261 -0.4812
vn -0.2977 -0.6373 -0.7108
vn -0.0000 -0.6402 -0.7682
vn 0.2977 -0.6373 -0.7108
vn 0.6136 -0.6261 -0.4812
vn 0.7877 0.6160 -0.0000
vn 0.6136 0.6261 0.4812
vn 0.2977 0.6373 0.7108
vn -0.0000 0.6402 0.7682
vn -0.2977 0.6373 0.7108
vn -0.6136 0.6261 0.4812
vn -0.7877 0.6160 -0.0000
vn -0.6136 0.6261 -0.4812
vn -0.2977 0.6373 -0.7108
vn -0.0000 0.6402 -0.7682
vn 0.2977 0.6373 -0.7108
vn 0.6136 0.6261 -0.4812
vn 0.0444 -0.9988 0.0219
vn 0.0274 -0.9980 0.0573
vn -0.0000 -0.9975 0.0708
vn -0.0274 -0.9980 0.0573
vn -0.0444 -0.9988 0.0219
vn -0.0444 -0.9988 -0.0219
vn -0.0274 -0.9980 -0.0573
vn -0.0000 -0.9975 -0.0708
vn 0.0274 -0.9980 -0.0573
vn 0.0444 -0.9988 -0.0219
vn 0.8966 -0.0000 0.4429
vn 0.4311 -0.0000 0.9023
vn -0.4311 -0.0000 0.9023
vn -0.8966 -0.0000 0.4429
vn -0.8966 -0.0000 -0.4429
vn -0.4311 -0.0000 -0.9023
vn 0.4311 -0.0000 -0.9023
vn 0.8966 -0.0000 -0.4429
vn 0.0444 0.9988 0.0219
vn 0.0274 0.9980 0.0573
vn -0.0000 0.9975 0.0708
vn -0.0274 0.9980 0.0573
vn -0.0444 0.9988 0.0219
vn -0.0444 0.9988 -0.0219
vn -0.0274 0.9980 -0.0573
vn -0.0000 0.9975 -0.0708
vn 0.0274 0.9980 -0.0573
vn 0.0444 0.9988 -0.0219
vn -0.0000 -0.5261 0.8504
vn -0.8505 -0.5261 -0.0000
vn -0.0000 -0.5261 -0.8504
vn -0.4840 0.7290 -0.4840
vn -0.4840 0.7290 0.4840
vn 0.4840 0.7290 0.4840
vn 0.6845 0.7290 -0.0000
vn 0.6013 -0.5261 0.6013
vn 0.8505 -0.5261 -0.0000
vn -0.0000 0.7290 0.6845
vn -0.6013 -0.5261 0.6013
vn -0.6845 0.7290 -0.0000
vn -0.6013 -0.5261 -0.6013
vn -0.0000 0.7290 -0.6845
vn 0.6013 -0.5261 -0.6013
vn -0.0000 -0.4832 0.8755
vn -0.8755 -0.4831 -0.0000
vn -0.0000 -0.4832 -0.8755
vn -0.4541 0.7665 -0.4541
vn -0.4542 0.7665 0.4542
vn 0.4541 0.7665 0.4541
vn 0.6423 0.7665 -0.0000
vn 0.6191 -0.4832 0.6191
vn 0.8755 -0.4831 -0.0000
vn -0.0000 0.7665 0.6423
vn -0.6191 -0.4832 0.6191
vn -0.6423 0.7665 -0.0000
vn -0.6191 -0.4832 -0.6191
vn -0.0000 0.7665 -0.6423
vn 0.6191 -0.4832 -0.6191
vn 0.4840 0.7290 -0.4840
vn 0.4542 0.7665 -0.4542
s 1
usemtl verdant_sulphur
f 1//1 2//2 3//3
f 1//1 3//3 4//4
f 1//1 4//4 5//5
f 1//1 5//5 6//6
f 1//1 6//6 7//7
f 1//1 7//7 8//8
f 1//1 8//8 9//9
f 1//1 9//9 10//10
f 1//1 10//10 11//11
f 1//1 11//11 12//12
f 1//1 12//12 13//13
f 1//1 13//13 2//2
f 14//14 3//3 2//2
f 15//15 4//4 3//3
f 16//16 5//5 4//4
f 17//17 6//6 5//5
f 18//18 7//7 6//6
f 19//19 8//8 7//7
f 20//20 9//9 8//8
f 21//21 10//10 9//9
f 22//22 11//11 10//10
f 23//23 12//12 11//11
f 24//24 13//13 12//12
f 25//25 2//2 13//13
f 14//14 26//26 15//15
f 15//15 26//26 16//16
f 16//16 26//26 17//17
f 17//17 26//26 18//18
f 18//18 26//26 19//19
f 19//19 26//26 20//20
f 20//20 26//26 21//21
f 21//21 26//26 22//22
f 22//22 26//26 23//23
f 23//23 26//26 24//24
f 24//24 26//26 25//25
f 25//25 26//26 14//14
f 49//1 50//57 51//58
f 49//1 51//58 52//59
f 49//1 52//59 53//60
f 49//1 53//60 54//61
f 49//1 54//61 55//62
f 49//1 55//62 56//63
f 49//1 56//63 57//64
f 49//1 57//64 58//65
f 49//1 58//65 59//66
f 49//1 59//66 60//67
f 49//1 60//67 61//68
f 49//1 61//68 50//57
f 62//69 51//58 50//57
f 63//70 52//59 51//58
f 64//71 53//60 52//59
f 65//72 54//61 53//60
f 66//73 55//62 54//61
f 67//74 56//63 55//62
f 68//75 57//64 56//63
f 69//76 58//65 57//64
f 70//77 59//66 58//65
f 71//78 60//67 59//66
f 72//79 61//68 60//67
f 73//80 50//57 61//68
f 62//69 74//26 63//70
f 63//70 74//26 64//71
f 64//71 74//26 65//72
f 65//72 74//26 66//73
f 66//73 74//26 67//74
f 67//74 74//26 68//75
f 68//75 74//26 69//76
f 69//76 74//26 70//77
f 70//77 74//26 71//78
f 71//78 74//26 72//79
f 72//79 74//26 73//80
f 73//80 74//26 62//69
f 97//1 98//109 99//110
f 97//1 99//110 100//111
f 97//1 100//111 101//112
f 97//1 101//112 102//113
f 97//1 102//113 103//114
f 97//1 103//114 104//115
f 97//1 104//115 105//116
f 97//1 105//116 106//117
f 97//1 106//117 107//118
f 97//1 107//118 108//119
f 97//1 108//119 109//120
f 97//1 109//120 98//109
f 110//121 99//110 98//109
f 111//122 100//111 99//110
f 112//123 101//112 100//111
f 113//124 102//113 101//112
f 114//125 103//114 102//113
f 115//126 104//115 103//114
f 116//127 105//116 104//115
f 117//128 106//117 105//116
f 118//129 107//118 106//117
f 119//130 108//119 107//118
f 120//131 109//120 108//119
f 121//132 98//109 109//120
f 110//121 122//26 111//122
f 111//122 122//26 112//123
f 112//123 122//26 113//124
f 113//124 122//26 114//125
f 114//125 122//26 115//126
f 115//126 122//26 116//127
f 116//127 122//26 117//128
f 117//128 122//26 118//129
f 118//129 122//26 119//130
f 119//130 122//26 120//131
f 120//131 122//26 121//132
f 121//132 122//26 110//121
f 14//14 15//15 3//3
f 15//15 16//16 4//4
f 16//16 17//17 5//5
f 17//17 18//18 6//6
f 18//18 19//19 7//7
f 19//19 20//20 8//8
f 20//20 21//21 9//9
f 21//21 22//22 10//10
f 22//22 23//23 11//11
f 23//23 24//24 12//12
f 24//24 25//25 13//13
f 25//25 14//14 2//2
f 62//69 63//70 51//58
f 63//70 64//71 52//59
f 64//71 65//72 53//60
f 65//72 66//73 54//61
f 66//73 67//74 55//62
f 67//74 68//75 56//63
f 68//75 69//76 57//64
f 69//76 70//77 58//65
f 70//77 71//78 59//66
f 71//78 72//79 60//67
f 72//79 73//80 61//68
f 73//80 62//69 50//57
f 110//121 111//122 99//110
f 111//122 112//123 100//111
f 112//123 113//124 101//112
f 113//124 114//125 102//113
f 114//125 115//126 103//114
f 115//126 116//127 104//115
f 116//127 117//128 105//116
f 117//128 118//129 106//117
f 118//129 119//130 107//118
f 119//130 120//131 108//119
f 120//131 121//132 109//120
f 121//132 110//121 98//109
s 0
usemtl verdant_carbonate
f 27//27 28//27 29//27
f 27//28 29//28 30//28
f 27//29 30//29 31//29
f 27//30 31//30 32//30
f 27//31 32//31 33//31
f 27//32 33//32 34//32
f 27//33 34//33 35//33
f 27//34 35//34 36//34
f 27//35 36//35 37//35
f 27//36 37//36 28//36
f 38//37 29//37 28//37
f 39//38 30//38 29//38
f 40//39 31//39 30//39
f 41//40 32//40 31//40
f 42//41 33//41 32//41
f 43//42 34//42 33//42
f 44//43 35//43 34//43
f 45//44 36//44 35//44
f 46//45 37//45 36//45
f 47//46 28//46 37//46
f 38//47 48//47 39//47
f 39//48 48//48 40//48
f 40//49 48//49 41//49
f 41//50 48//50 42//50
f 42//51 48//51 43//51
f 43//52 48//52 44//52
f 44//53 48//53 45//53
f 45//54 48//54 46//54
f 46//55 48//55 47//55
f 47//56 48//56 38//56
f 75//81 76//81 77//81
f 75//82 77//82 78//82
f 75//83 78//83 79//83
f 75//84 79//84 80//84
f 75//85 80//85 81//85
f 75//86 81//86 82//86
f 75//87 82//87 83//87
f 75//88 83//88 84//88
f 75//89 84//89 85//89
f 75//90 85//90 76//90
f 86//91 77//91 76//91
f 87//92 78//92 77//92
f 88//39 79//39 78//39
f 89//93 80//93 79//93
f 90//94 81//94 80//94
f 91//95 82//95 81//95
f 92//96 83//96 82//96
f 93//44 84//44 83//44
f 94//97 85//97 84//97
f 95//98 76//98 85//98
f 86//99 96//99 87//99
f 87//100 96//100 88//100
f 88//101 96//101 89//101
f 89//102 96//102 90//102
f 90//103 96//103 91//103
f 91//104 96//104 92//104
f 92//105 96//105 93//105
f 93//106 96//106 94//106
f 94//107 96//107 95//107
f 95//108 96//108 86//108
f 123//133 124//133 125//133
f 123//134 125//134 126//134
f 123//135 126//135 127//135
f 123//136 127//136 128//136
f 123//137 128//137 129//137
f 123//138 129//138 130//138
f 123//139 130//139 131//139
f 123//140 131//140 132//140
f 123//141 132//141 133//141
f 123//142 133//142 124//142
f 134//143 125//143 124//143
f 135//144 126//144 125//144
f 136//39 127//39 126//39
f 137//145 128//145 127//145
f 138//146 129//146 128//146
f 139//147 130//147 129//147
f 140//148 131//148 130//148
f 141//44 132//44 131//44
f 142//149 133//149 132//149
f 143//150 124//150 133//150
f 134//151 144//151 135//151
f 135//152 144//152 136//152
f 136//153 144//153 137//153
f 137//154 144//154 138//154
f 138//155 144//155 139//155
f 139//156 144//156 140//156
f 140//157 144//157 141//157
f 141//158 144//158 142//158
f 142//159 144//159 143//159
f 143//160 144//160 134//160
f 38//37 39//37 29//37
f 39//38 40//38 30//38
f 40//39 41//39 31//39
f 41//40 42//40 32//40
f 42//41 43//41 33//41
f 43//42 44//42 34//42
f 44//43 45//43 35//43
f 45//44 46//44 36//44
f 46//45 47//45 37//45
f 47//46 38//46 28//46
f 86//91 87//91 77//91
f 87//92 88//92 78//92
f 88//39 89//39 79//39
f 89//93 90//93 80//93
f 90//94 91//94 81//94
f 91//95 92//95 82//95
f 92//96 93//96 83//96
f 93//44 94//44 84//44
f 94//97 95//97 85//97
f 95//98 86//98 76//98
f 134//143 135//143 125//143
f 135//144 136//144 126//144
f 136//39 137//39 127//39
f 137//145 138//145 128//145
f 138//146 139//146 129//146
f 139//147 140//147 130//147
f 140//148 141//148 131//148
f 141//44 142//44 132//44
f 142//149 143//149 133//149
f 143//150 134//150 124//150
s 1
usemtl verdant_sulphur
f 149//161 153//162 157//163
f 156//164 152//165 148//166
f 146//167 147//168 145//169
f 147//168 150//170 149//161
f 150//170 151//171 149//161
f 151//171 154//172 153//162
f 154//172 155//173 153//162
f 155//173 158//174 157//163
f 158//174 159//175 157//163
f 159//175 146//167 145//169
f 165//176 169//177 173//178
f 172//179 168//180 164//181
f 162//182 163//183 161//184
f 163//183 166//185 165//176
f 166//185 167//186 165//176
f 167//186 170//187 169//177
f 170//187 171//188 169//177
f 171//188 174//189 173//178
f 174//189 175//190 173//178
f 175//190 162//182 161//184
f 157//163 159//175 145//169
f 145//169 147//168 149//161
f 149//161 151//171 153//162
f 153//162 155//173 157//163
f 157//163 145//169 149//161
f 148//166 146//167 160//191
f 160//191 158//174 156//164
f 156//164 154//172 152//165
f 152//165 150//170 148//166
f 148//166 160//191 156//164
f 146//167 148//166 147//168
f 147//168 148//166 150//170
f 150//170 152//165 151//171
f 151//171 152//165 154//172
f 154//172 156//164 155//173
f 155//173 156//164 158//174
f 158//174 160//191 159//175
f 159//175 160//191 146//167
f 173//178 175//190 161//184
f 161//184 163//183 165//176
f 165//176 167//186 169//177
f 169//177 171//188 173//178
f 173//178 161//184 165//176
f 164//181 162//182 176//192
f 176//192 174//189 172//179
f 172//179 170//187 168//180
f 168//180 166//185 164//181
f 164//181 176//192 172//179
f 162//182 164//181 163//183
f 163//183 164//181 166//185
f 166//185 168//180 167//186
f 167//186 168//180 170//187
f 170//187 172//179 171//188
f 171//188 172//179 174//189
f 174//189 176//192 175//190
f 175//190 176//192 162//182
