# Blender 5.2.1 LTS
# www.blender.org
mtllib sulphur_vent_cluster_a.mtl
o sulphur_vent_cluster_a
v 0.000000 0.000000 0.000000
v 3.394110 0.052720 -0.000000
v 3.057990 0.052720 1.104490
v 2.116190 0.052720 1.990220
v 0.755260 0.052720 2.481760
v -0.755260 0.052720 2.481760
v -2.116190 0.052720 1.990220
v -3.057990 0.052720 1.104490
v -3.394110 0.052720 -0.000000
v -3.057990 0.052720 -1.104490
v -2.116190 0.052720 -1.990220
v -0.755260 0.052720 -2.481760
v 0.755260 0.052720 -2.481760
v 2.116190 0.052720 -1.990220
v 3.057990 0.052720 -1.104490
v 4.800000 0.180000 -0.000000
v 4.324650 0.180000 1.561980
v 2.992750 0.180000 2.814590
v 1.068100 0.180000 3.509740
v -1.068100 0.180000 3.509740
v -2.992750 0.180000 2.814590
v -4.324650 0.180000 1.561980
v -4.800000 0.180000 -0.000000
v -4.324650 0.180000 -1.561980
v -2.992750 0.180000 -2.814590
v -1.068100 0.180000 -3.509740
v 1.068100 0.180000 -3.509740
v 2.992750 0.180000 -2.814590
v 4.324650 0.180000 -1.561980
v 3.394110 0.307280 -0.000000
v 3.057990 0.307280 1.104490
v 2.116190 0.307280 1.990220
v 0.755260 0.307280 2.481760
v -0.755260 0.307280 2.481760
v -2.116190 0.307280 1.990220
v -3.057990 0.307280 1.104490
v -3.394110 0.307280 -0.000000
v -3.057990 0.307280 -1.104490
v -2.116190 0.307280 -1.990220
v -0.755260 0.307280 -2.481760
v 0.755260 0.307280 -2.481760
v 2.116190 0.307280 -1.990220
v 3.057990 0.307280 -1.104490
v 0.000000 0.360000 -0.000000
v -2.800000 0.140000 1.100000
v -1.241150 0.220000 1.100000
v -1.488620 0.220000 1.638440
v -2.152430 0.220000 2.005930
v -3.021850 0.220000 2.085790
v -3.820830 0.220000 1.852670
v -4.295700 0.220000 1.380590
v -4.295700 0.220000 0.819410
v -3.820830 0.220000 0.347330
v -3.021850 0.220000 0.114210
v -2.152430 0.220000 0.194070
v -1.488620 0.220000 0.561560
v -1.241150 0.380000 1.100000
v -1.488620 0.380000 1.638440
v -2.152430 0.380000 2.005930
v -3.021850 0.380000 2.085790
v -3.820830 0.380000 1.852670
v -4.295700 0.380000 1.380590
v -4.295700 0.380000 0.819410
v -3.820830 0.380000 0.347330
v -3.021850 0.380000 0.114210
v -2.152430 0.380000 0.194070
v -1.488620 0.380000 0.561560
v -2.800000 0.460000 1.100000
v -2.650000 0.350000 1.000000
v -1.745870 0.395000 1.000000
v -1.918540 0.395000 1.321970
v -2.370610 0.395000 1.520950
v -2.929390 0.395000 1.520950
v -3.381460 0.395000 1.321970
v -3.554130 0.395000 1.000000
v -3.381460 0.395000 0.678030
v -2.929390 0.395000 0.479050
v -2.370610 0.395000 0.479050
v -1.918540 0.395000 0.678030
v -1.745870 0.485000 1.000000
v -1.918540 0.485000 1.321970
v -2.370610 0.485000 1.520950
v -2.929390 0.485000 1.520950
v -3.381460 0.485000 1.321970
v -3.554130 0.485000 1.000000
v -3.381460 0.485000 0.678030
v -2.929390 0.485000 0.479050
v -2.370610 0.485000 0.479050
v -1.918540 0.485000 0.678030
v -2.650000 0.530000 1.000000
v 0.300000 0.140000 -1.200000
v 2.205260 0.220000 -1.200000
v 1.902800 0.220000 -0.614740
v 1.091470 0.220000 -0.215290
v 0.028850 0.220000 -0.128490
v -0.947680 0.220000 -0.381880
v -1.528080 0.220000 -0.895020
v -1.528080 0.220000 -1.504980
v -0.947680 0.220000 -2.018120
v 0.028850 0.220000 -2.271510
v 1.091470 0.220000 -2.184710
v 1.902800 0.220000 -1.785260
v 2.205260 0.380000 -1.200000
v 1.902800 0.380000 -0.614740
v 1.091470 0.380000 -0.215290
v 0.028850 0.380000 -0.128490
v -0.947680 0.380000 -0.381880
v -1.528080 0.380000 -0.895020
v -1.528080 0.380000 -1.504980
v -0.947680 0.380000 -2.018120
v 0.028850 0.380000 -2.271510
v 1.091470 0.380000 -2.184710
v 1.902800 0.380000 -1.785260
v 0.300000 0.460000 -1.200000
v 0.450000 0.350000 -1.300000
v 1.555050 0.395000 -1.300000
v 1.344000 0.395000 -0.950040
v 0.791480 0.395000 -0.733750
v 0.108520 0.395000 -0.733750
v -0.444000 0.395000 -0.950040
v -0.655050 0.395000 -1.300000
v -0.444000 0.395000 -1.649960
v 0.108520 0.395000 -1.866250
v 0.791480 0.395000 -1.866250
v 1.344000 0.395000 -1.649960
v 1.555050 0.485000 -1.300000
v 1.344000 0.485000 -0.950040
v 0.791480 0.485000 -0.733750
v 0.108520 0.485000 -0.733750
v -0.444000 0.485000 -0.950040
v -0.655050 0.485000 -1.300000
v -0.444000 0.485000 -1.649960
v 0.108520 0.485000 -1.866250
v 0.791480 0.485000 -1.866250
v 1.344000 0.485000 -1.649960
v 0.450000 0.530000 -1.300000
v 2.800000 0.140000 0.800000
v 4.185640 0.220000 0.800000
v 3.965680 0.220000 1.268210
v 3.375620 0.220000 1.587760
v 2.602800 0.220000 1.657210
v 1.892600 0.220000 1.454500
v 1.470490 0.220000 1.043990
v 1.470490 0.220000 0.556010
v 1.892600 0.220000 0.145500
v 2.602800 0.220000 -0.057210
v 3.375620 0.220000 0.012240
v 3.965680 0.220000 0.331790
v 4.185640 0.380000 0.800000
v 3.965680 0.380000 1.268210
v 3.375620 0.380000 1.587760
v 2.602800 0.380000 1.657210
v 1.892600 0.380000 1.454500
v 1.470490 0.380000 1.043990
v 1.470490 0.380000 0.556010
v 1.892600 0.380000 0.145500
v 2.602800 0.380000 -0.057210
v 3.375620 0.380000 0.012240
v 3.965680 0.380000 0.331790
v 2.800000 0.460000 0.800000
v 2.950000 0.350000 0.700000
v 3.753670 0.395000 0.700000
v 3.600180 0.395000 0.979970
v 3.198350 0.395000 1.153000
v 2.701650 0.395000 1.153000
v 2.299820 0.395000 0.979970
v 2.146330 0.395000 0.700000
v 2.299820 0.395000 0.420030
v 2.701650 0.395000 0.247000
v 3.198350 0.395000 0.247000
v 3.600180 0.395000 0.420030
v 3.753670 0.485000 0.700000
v 3.600180 0.485000 0.979970
v 3.198350 0.485000 1.153000
v 2.701650 0.485000 1.153000
v 2.299820 0.485000 0.979970
v 2.146330 0.485000 0.700000
v 2.299820 0.485000 0.420030
v 2.701650 0.485000 0.247000
v 3.198350 0.485000 0.247000
v 3.600180 0.485000 0.420030
v 2.950000 0.530000 0.700000
v -1.620000 0.280000 -0.800000
v -2.060000 1.780000 -0.800000
v -1.802490 0.280000 -0.298630
v -2.139540 1.780000 -0.581450
v -2.264550 0.280000 -0.031850
v -2.340960 1.780000 -0.465170
v -2.790000 0.280000 -0.124500
v -2.570000 1.780000 -0.505550
v -3.132960 0.280000 -0.533220
v -2.719500 1.780000 -0.683710
v -3.132960 0.280000 -1.066780
v -2.719500 1.780000 -0.916290
v -2.790000 0.280000 -1.475500
v -2.570000 1.780000 -1.094450
v -2.264550 0.280000 -1.568150
v -2.340960 1.780000 -1.134830
v -1.802490 0.280000 -1.301370
v -2.139540 1.780000 -1.018550
v -2.400000 1.720000 -0.800000
v -2.001630 1.830000 -0.800000
v -2.118310 1.830000 -0.518310
v -2.400000 1.830000 -0.401630
v -2.681690 1.830000 -0.518310
v -2.798370 1.830000 -0.800000
v -2.681690 1.830000 -1.081690
v -2.400000 1.830000 -1.198370
v -2.118310 1.830000 -1.081690
v -2.001630 2.050000 -0.800000
v -2.118310 2.050000 -0.518310
v -2.400000 2.050000 -0.401630
v -2.681690 2.050000 -0.518310
v -2.798370 2.050000 -0.800000
v -2.681690 2.050000 -1.081690
v -2.400000 2.050000 -1.198370
v -2.118310 2.050000 -1.081690
v -2.400000 2.160000 -0.800000
v 0.320000 0.280000 0.900000
v -0.260000 2.480000 0.900000
v 0.104760 0.280000 1.491360
v -0.339540 2.480000 1.118550
v -0.440240 0.280000 1.806020
v -0.540960 2.480000 1.234830
v -1.060000 0.280000 1.696740
v -0.770000 2.480000 1.194450
v -1.464520 0.280000 1.214660
v -0.919500 2.480000 1.016290
v -1.464520 0.280000 0.585340
v -0.919500 2.480000 0.783710
v -1.060000 0.280000 0.103260
v -0.770000 2.480000 0.605550
v -0.440240 0.280000 -0.006020
v -0.540960 2.480000 0.565170
v 0.104760 0.280000 0.308640
v -0.339540 2.480000 0.681450
v -0.600000 2.420000 0.900000
v -0.201630 2.530000 0.900000
v -0.318310 2.530000 1.181690
v -0.600000 2.530000 1.298370
v -0.881690 2.530000 1.181690
v -0.998370 2.530000 0.900000
v -0.881690 2.530000 0.618310
v -0.600000 2.530000 0.501630
v -0.318310 2.530000 0.618310
v -0.201630 2.750000 0.900000
v -0.318310 2.750000 1.181690
v -0.600000 2.750000 1.298370
v -0.881690 2.750000 1.181690
v -0.998370 2.750000 0.900000
v -0.881690 2.750000 0.618310
v -0.600000 2.750000 0.501630
v -0.318310 2.750000 0.618310
v -0.600000 2.860000 0.900000
v 2.120000 0.280000 -0.600000
v 1.640000 2.080000 -0.600000
v 1.928160 0.280000 -0.072910
v 1.560460 2.080000 -0.381450
v 1.442390 0.280000 0.207540
v 1.359040 2.080000 -0.265170
v 0.890000 0.280000 0.110140
v 1.130000 2.080000 -0.305550
v 0.529450 0.280000 -0.319540
v 0.980500 2.080000 -0.483710
v 0.529450 0.280000 -0.880460
v 0.980500 2.080000 -0.716290
v 0.890000 0.280000 -1.310140
v 1.130000 2.080000 -0.894450
v 1.442390 0.280000 -1.407540
v 1.359040 2.080000 -0.934830
v 1.928160 0.280000 -1.127090
v 1.560460 2.080000 -0.818550
v 1.300000 2.020000 -0.600000
v 1.698370 2.130000 -0.600000
v 1.581690 2.130000 -0.318310
v 1.300000 2.130000 -0.201630
v 1.018310 2.130000 -0.318310
v 0.901630 2.130000 -0.600000
v 1.018310 2.130000 -0.881690
v 1.300000 2.130000 -0.998370
v 1.581690 2.130000 -0.881690
v 1.698370 2.350000 -0.600000
v 1.581690 2.350000 -0.318310
v 1.300000 2.350000 -0.201630
v 1.018310 2.350000 -0.318310
v 0.901630 2.350000 -0.600000
v 1.018310 2.350000 -0.881690
v 1.300000 2.350000 -0.998370
v 1.581690 2.350000 -0.881690
v 1.300000 2.460000 -0.600000
v 3.480000 0.280000 1.000000
v 3.140000 1.530000 1.000000
v 3.320910 0.280000 1.437100
v 3.060460 1.530000 1.218550
v 2.918080 0.280000 1.669670
v 2.859040 1.530000 1.334830
v 2.460000 0.280000 1.588900
v 2.630000 1.530000 1.294450
v 2.161010 0.280000 1.232570
v 2.480500 1.530000 1.116290
v 2.161010 0.280000 0.767430
v 2.480500 1.530000 0.883710
v 2.460000 0.280000 0.411100
v 2.630000 1.530000 0.705550
v 2.918080 0.280000 0.330330
v 2.859040 1.530000 0.665170
v 3.320910 0.280000 0.562900
v 3.060460 1.530000 0.781450
v 2.800000 1.470000 1.000000
v 3.198370 1.580000 1.000000
v 3.081690 1.580000 1.281690
v 2.800000 1.580000 1.398370
v 2.518310 1.580000 1.281690
v 2.401630 1.580000 1.000000
v 2.518310 1.580000 0.718310
v 2.800000 1.580000 0.601630
v 3.081690 1.580000 0.718310
v 3.198370 1.800000 1.000000
v 3.081690 1.800000 1.281690
v 2.800000 1.800000 1.398370
v 2.518310 1.800000 1.281690
v 2.401630 1.800000 1.000000
v 2.518310 1.800000 0.718310
v 2.800000 1.800000 0.601630
v 3.081690 1.800000 0.718310
v 2.800000 1.910000 1.000000
vn -0.0000 -1.0000 -0.0000
vn 0.0599 -0.9982 -0.0000
vn 0.0527 -0.9980 0.0355
vn 0.0348 -0.9975 0.0613
vn 0.0120 -0.9972 0.0741
vn -0.0120 -0.9972 0.0741
vn -0.0348 -0.9975 0.0613
vn -0.0527 -0.9980 0.0355
vn -0.0599 -0.9982 -0.0000
vn -0.0527 -0.9980 -0.0355
vn -0.0348 -0.9975 -0.0613
vn -0.0120 -0.9972 -0.0741
vn 0.0120 -0.9972 -0.0741
vn 0.0348 -0.9975 -0.0613
vn 0.0527 -0.9980 -0.0355
vn 0.8637 -0.0000 0.5039
vn 0.5475 -0.0000 0.8368
vn 0.1837 -0.0001 0.9830
vn -0.1837 0.0001 0.9830
vn -0.5475 -0.0000 0.8368
vn -0.8637 -0.0000 0.5039
vn -0.8637 -0.0000 -0.5039
vn -0.5475 -0.0000 -0.8368
vn -0.1837 -0.0001 -0.9830
vn 0.1837 0.0001 -0.9830
vn 0.5475 -0.0000 -0.8368
vn 0.8637 -0.0000 -0.5039
vn 0.0599 0.9982 -0.0000
vn 1.0000 -0.0000 -0.0000
vn 0.0527 0.9980 0.0355
vn 0.0348 0.9975 0.0613
vn 0.0120 0.9972 0.0741
vn -0.0348 0.9975 0.0613
vn -0.0527 0.9980 0.0355
vn -0.0599 0.9982 -0.0000
vn -1.0000 -0.0000 -0.0000
vn -0.0527 0.9980 -0.0355
vn -0.0348 0.9975 -0.0613
vn -0.0120 0.9972 -0.0741
vn 0.0348 0.9975 -0.0613
vn 0.0527 0.9980 -0.0355
vn -0.0000 1.0000 -0.0000
vn -0.0120 0.9972 0.0741
vn 0.0120 0.9972 -0.0741
vn 0.7937 -0.6083 -0.0000
vn 0.5740 -0.6243 0.5298
vn 0.2280 -0.6387 0.7349
vn -0.0744 -0.6406 0.7643
vn -0.3951 -0.6335 0.6652
vn -0.7296 -0.6135 0.3021
vn -0.7296 -0.6135 -0.3022
vn -0.3951 -0.6336 -0.6652
vn -0.0744 -0.6406 -0.7643
vn 0.2280 -0.6387 -0.7349
vn 0.5740 -0.6243 -0.5298
vn 0.7937 0.6083 -0.0000
vn 0.5740 0.6243 0.5298
vn 0.2280 0.6387 0.7349
vn -0.0744 0.6406 0.7643
vn -0.3951 0.6336 0.6652
vn -0.7296 0.6135 0.3022
vn -0.7296 0.6135 -0.3021
vn -0.3951 0.6335 -0.6652
vn -0.0744 0.6406 -0.7643
vn 0.2280 0.6387 -0.7349
vn 0.5740 0.6243 -0.5298
vn 0.0497 -0.9984 0.0266
vn 0.0307 -0.9971 0.0697
vn -0.0000 -0.9963 0.0861
vn -0.0307 -0.9971 0.0697
vn -0.0497 -0.9984 0.0266
vn -0.0497 -0.9984 -0.0266
vn -0.0307 -0.9971 -0.0697
vn -0.0000 -0.9963 -0.0861
vn 0.0307 -0.9971 -0.0697
vn 0.0497 -0.9984 -0.0266
vn 0.8813 -0.0000 0.4726
vn 0.4029 -0.0000 0.9153
vn -0.0000 -0.0000 1.0000
vn -0.4029 -0.0000 0.9153
vn -0.8813 -0.0000 0.4726
vn -0.8813 -0.0000 -0.4726
vn -0.4029 -0.0000 -0.9153
vn -0.0000 -0.0000 -1.0000
vn 0.4029 -0.0000 -0.9153
vn 0.8813 -0.0000 -0.4726
vn 0.0497 0.9984 0.0266
vn 0.0307 0.9971 0.0697
vn -0.0000 0.9963 0.0861
vn -0.0307 0.9971 0.0697
vn -0.0497 0.9984 0.0266
vn -0.0497 0.9984 -0.0266
vn -0.0307 0.9971 -0.0697
vn -0.0000 0.9963 -0.0861
vn 0.0307 0.9971 -0.0697
vn 0.0497 0.9984 -0.0266
vn 0.7968 -0.6042 -0.0000
vn 0.5470 -0.6270 0.5547
vn 0.2053 -0.6446 0.7364
vn -0.0664 -0.6466 0.7599
vn -0.3634 -0.6388 0.6782
vn -0.7217 -0.6117 0.3238
vn -0.7217 -0.6117 -0.3238
vn -0.3634 -0.6388 -0.6782
vn -0.0664 -0.6466 -0.7599
vn 0.2053 -0.6446 -0.7364
vn 0.5470 -0.6270 -0.5547
vn 0.7968 0.6042 -0.0000
vn 0.5470 0.6270 0.5547
vn 0.2053 0.6446 0.7364
vn -0.0664 0.6466 0.7599
vn -0.3634 0.6388 0.6782
vn -0.7217 0.6117 0.3238
vn -0.7217 0.6117 -0.3238
vn -0.3634 0.6388 -0.6782
vn -0.0664 0.6466 -0.7599
vn 0.2053 0.6446 -0.7364
vn 0.5470 0.6270 -0.5547
vn 0.0407 -0.9989 0.0245
vn 0.0251 -0.9976 0.0641
vn -0.0000 -0.9969 0.0792
vn -0.0251 -0.9976 0.0641
vn -0.0407 -0.9989 0.0245
vn -0.0407 -0.9989 -0.0245
vn -0.0251 -0.9976 -0.0641
vn -0.0000 -0.9969 -0.0792
vn 0.0251 -0.9976 -0.0641
vn 0.0407 -0.9989 -0.0245
vn 0.8563 -0.0000 0.5164
vn 0.3645 -0.0000 0.9312
vn -0.3645 -0.0000 0.9312
vn -0.8563 -0.0000 0.5164
vn -0.8563 -0.0000 -0.5164
vn -0.3645 -0.0000 -0.9312
vn 0.3645 -0.0000 -0.9312
vn 0.8563 -0.0000 -0.5164
vn 0.0407 0.9989 0.0245
vn 0.0251 0.9976 0.0641
vn -0.0000 0.9969 0.0792
vn -0.0251 0.9976 0.0641
vn -0.0407 0.9989 0.0245
vn -0.0407 0.9989 -0.0245
vn -0.0251 0.9976 -0.0641
vn -0.0000 0.9969 -0.0792
vn 0.0251 0.9976 -0.0641
vn 0.0407 0.9989 -0.0245
vn 0.7962 -0.6051 -0.0000
vn 0.5711 -0.6217 0.5361
vn 0.2249 -0.6356 0.7385
vn -0.0733 -0.6373 0.7671
vn -0.3910 -0.6309 0.6702
vn -0.7302 -0.6105 0.3068
vn -0.7302 -0.6105 -0.3069
vn -0.3909 -0.6309 -0.6702
vn -0.0732 -0.6373 -0.7671
vn 0.2249 -0.6356 -0.7385
vn 0.5711 -0.6217 -0.5360
vn 0.7962 0.6051 -0.0000
vn 0.5711 0.6217 0.5360
vn 0.2249 0.6356 0.7385
vn -0.0732 0.6373 0.7671
vn -0.3909 0.6309 0.6702
vn -0.7302 0.6105 0.3069
vn -0.7302 0.6105 -0.3068
vn -0.3910 0.6309 -0.6702
vn -0.0733 0.6373 -0.7671
vn 0.2249 0.6356 -0.7385
vn 0.5711 0.6217 -0.5361
vn 0.0559 -0.9980 0.0306
vn 0.0345 -0.9962 0.0801
vn -0.0000 -0.9951 0.0989
vn -0.0345 -0.9962 0.0801
vn -0.0559 -0.9980 0.0306
vn -0.0559 -0.9980 -0.0306
vn -0.0345 -0.9962 -0.0801
vn -0.0000 -0.9951 -0.0989
vn 0.0345 -0.9962 -0.0801
vn 0.0559 -0.9980 -0.0306
vn 0.8769 -0.0000 0.4807
vn 0.3955 -0.0000 0.9185
vn -0.3955 -0.0000 0.9185
vn -0.8769 -0.0000 0.4807
vn -0.8769 -0.0000 -0.4807
vn -0.3955 -0.0000 -0.9185
vn 0.3955 -0.0000 -0.9185
vn 0.8769 -0.0000 -0.4807
vn 0.0559 0.9980 0.0306
vn 0.0345 0.9962 0.0801
vn -0.0000 0.9951 0.0989
vn -0.0345 0.9962 0.0801
vn -0.0559 0.9980 0.0306
vn -0.0559 0.9980 -0.0306
vn -0.0345 0.9962 -0.0801
vn -0.0000 0.9951 -0.0989
vn 0.0345 0.9962 -0.0801
vn 0.0559 0.9980 -0.0306
vn 0.8494 -0.5278 -0.0000
vn -0.7982 -0.5278 0.2905
vn -0.4247 -0.5278 -0.7356
vn 0.5147 0.7406 -0.4319
vn -0.6314 0.7406 0.2298
vn 0.1167 0.7406 0.6617
vn 0.5147 0.7406 0.4319
vn 0.6507 -0.5278 0.5460
vn 0.1475 -0.5278 0.8365
vn -0.3359 0.7406 0.5819
vn -0.4247 -0.5278 0.7356
vn -0.6314 0.7406 -0.2298
vn -0.7982 -0.5278 -0.2905
vn -0.3360 0.7406 -0.5819
vn 0.1475 -0.5278 -0.8365
vn 0.6507 -0.5278 -0.5460
vn 0.2646 -0.9581 0.1096
vn 0.1096 -0.9581 0.2646
vn -0.1096 -0.9581 0.2646
vn -0.2646 -0.9581 0.1096
vn -0.2646 -0.9581 -0.1096
vn -0.1096 -0.9581 -0.2646
vn 0.1096 -0.9581 -0.2646
vn 0.2646 -0.9581 -0.1096
vn 0.9239 -0.0000 0.3827
vn 0.3827 -0.0000 0.9239
vn -0.3827 -0.0000 0.9239
vn -0.9239 -0.0000 0.3827
vn -0.9239 -0.0000 -0.3827
vn -0.3827 -0.0000 -0.9239
vn 0.3827 -0.0000 -0.9239
vn 0.9239 -0.0000 -0.3827
vn 0.2646 0.9581 0.1096
vn 0.1096 0.9581 0.2646
vn -0.1096 0.9581 0.2646
vn -0.2646 0.9581 0.1096
vn -0.2646 0.9581 -0.1096
vn -0.1096 0.9581 -0.2646
vn 0.1096 0.9581 -0.2646
vn 0.2646 0.9581 -0.1096
vn 0.8426 -0.5386 -0.0000
vn -0.7917 -0.5386 0.2882
vn -0.4213 -0.5386 -0.7297
vn 0.5227 0.7311 -0.4386
vn -0.6412 0.7311 0.2334
vn 0.1185 0.7311 0.6719
vn 0.5227 0.7311 0.4386
vn 0.6454 -0.5386 0.5416
vn 0.1463 -0.5386 0.8298
vn -0.3411 0.7311 0.5909
vn -0.4213 -0.5386 0.7297
vn -0.6412 0.7311 -0.2334
vn -0.7918 -0.5386 -0.2882
vn -0.3411 0.7311 -0.5909
vn 0.1463 -0.5386 -0.8298
vn 0.6454 -0.5386 -0.5416
vn 0.8433 -0.5375 -0.0000
vn -0.7924 -0.5375 0.2884
vn -0.4216 -0.5375 -0.7303
vn 0.5219 0.7320 -0.4379
vn -0.6402 0.7320 0.2330
vn 0.1183 0.7321 0.6709
vn 0.5219 0.7321 0.4379
vn 0.6460 -0.5375 0.5421
vn 0.1464 -0.5375 0.8305
vn -0.3406 0.7321 0.5900
vn -0.4216 -0.5375 0.7303
vn -0.7924 -0.5375 -0.2884
vn -0.6402 0.7321 -0.2330
vn -0.3406 0.7320 -0.5900
vn 0.1464 -0.5375 -0.8304
vn 0.6460 -0.5375 -0.5421
vn 0.8445 -0.5356 -0.0000
vn -0.7936 -0.5355 0.2888
vn -0.4222 -0.5356 -0.7314
vn 0.5204 0.7338 -0.4367
vn -0.6384 0.7338 0.2324
vn 0.1180 0.7338 0.6691
vn 0.5204 0.7338 0.4367
vn 0.6469 -0.5355 0.5428
vn 0.1466 -0.5356 0.8317
vn -0.3397 0.7338 0.5884
vn -0.4222 -0.5355 0.7314
vn -0.7936 -0.5355 -0.2888
vn -0.6384 0.7338 -0.2324
vn -0.3397 0.7338 -0.5884
vn 0.1466 -0.5356 -0.8317
vn 0.6469 -0.5355 -0.5428
vn 0.6719 0.7406 -0.0000
vn 0.1167 0.7406 -0.6617
vn 0.6823 0.7311 -0.0000
vn 0.1185 0.7311 -0.6719
vn 0.6812 0.7321 -0.0000
vn 0.1183 0.7321 -0.6709
vn 0.6794 0.7338 -0.0000
vn 0.1180 0.7338 -0.6691
s 1
usemtl verdant_sulphur
f 1//1 2//2 3//3
f 1//1 3//3 4//4
f 1//1 4//4 5//5
f 1//1 5//5 6//6
f 1//1 6//6 7//7
f 1//1 7//7 8//8
f 1//1 8//8 9//9
f 1//1 9//9 10//10
f 1//1 10//10 11//11
f 1//1 11//11 12//12
f 1//1 12//12 13//13
f 1//1 13//13 14//14
f 1//1 14//14 15//15
f 1//1 15//15 2//2
f 2//2 17//16 3//3
f 3//3 18//17 4//4
f 4//4 19//18 5//5
f 19//18 6//6 5//5
f 20//19 7//7 6//6
f 21//20 8//8 7//7
f 22//21 9//9 8//8
f 9//9 24//22 10//10
f 10//10 25//23 11//11
f 11//11 26//24 12//12
f 26//24 13//13 12//12
f 27//25 14//14 13//13
f 28//26 15//15 14//14
f 29//27 2//2 15//15
f 30//28 17//16 16//29
f 31//30 18//17 17//16
f 32//31 19//18 18//17
f 33//32 20//19 19//18
f 20//19 35//33 21//20
f 21//20 36//34 22//21
f 22//21 37//35 23//36
f 37//35 24//22 23//36
f 38//37 25//23 24//22
f 39//38 26//24 25//23
f 40//39 27//25 26//24
f 27//25 42//40 28//26
f 28//26 43//41 29//27
f 29//27 30//28 16//29
f 30//28 44//42 31//30
f 31//30 44//42 32//31
f 32//31 44//42 33//32
f 33//32 44//42 34//43
f 34//43 44//42 35//33
f 35//33 44//42 36//34
f 36//34 44//42 37//35
f 37//35 44//42 38//37
f 38//37 44//42 39//38
f 39//38 44//42 40//39
f 40//39 44//42 41//44
f 41//44 44//42 42//40
f 42//40 44//42 43//41
f 43//41 44//42 30//28
f 2//2 16//29 17//16
f 3//3 17//16 18//17
f 4//4 18//17 19//18
f 19//18 20//19 6//6
f 20//19 21//20 7//7
f 21//20 22//21 8//8
f 22//21 23//36 9//9
f 9//9 23//36 24//22
f 10//10 24//22 25//23
f 11//11 25//23 26//24
f 26//24 27//25 13//13
f 27//25 28//26 14//14
f 28//26 29//27 15//15
f 29//27 16//29 2//2
f 30//28 31//30 17//16
f 31//30 32//31 18//17
f 32//31 33//32 19//18
f 33//32 34//43 20//19
f 20//19 34//43 35//33
f 21//20 35//33 36//34
f 22//21 36//34 37//35
f 37//35 38//37 24//22
f 38//37 39//38 25//23
f 39//38 40//39 26//24
f 40//39 41//44 27//25
f 27//25 41//44 42//40
f 28//26 42//40 43//41
f 29//27 43//41 30//28
usemtl verdant_sulphur
f 45//1 46//45 47//46
f 45//1 47//46 48//47
f 45//1 48//47 49//48
f 45//1 49//48 50//49
f 45//1 50//49 51//50
f 45//1 51//50 52//51
f 45//1 52//51 53//52
f 45//1 53//52 54//53
f 45//1 54//53 55//54
f 45//1 55//54 56//55
f 45//1 56//55 46//45
f 57//56 47//46 46//45
f 58//57 48//47 47//46
f 59//58 49//48 48//47
f 60//59 50//49 49//48
f 61//60 51//50 50//49
f 62//61 52//51 51//50
f 63//62 53//52 52//51
f 64//63 54//53 53//52
f 65//64 55//54 54//53
f 66//65 56//55 55//54
f 67//66 46//45 56//55
f 57//56 68//42 58//57
f 58//57 68//42 59//58
f 59//58 68//42 60//59
f 60//59 68//42 61//60
f 61//60 68//42 62//61
f 62//61 68//42 63//62
f 63//62 68//42 64//63
f 64//63 68//42 65//64
f 65//64 68//42 66//65
f 66//65 68//42 67//66
f 67//66 68//42 57//56
f 91//1 92//97 93//98
f 91//1 93//98 94//99
f 91//1 94//99 95//100
f 91//1 95//100 96//101
f 91//1 96//101 97//102
f 91//1 97//102 98//103
f 91//1 98//103 99//104
f 91//1 99//104 100//105
f 91//1 100//105 101//106
f 91//1 101//106 102//107
f 91//1 102//107 92//97
f 103//108 93//98 92//97
f 104//109 94//99 93//98
f 105//110 95//100 94//99
f 106//111 96//101 95//100
f 107//112 97//102 96//101
f 108//113 98//103 97//102
f 109//114 99//104 98//103
f 110//115 100//105 99//104
f 111//116 101//106 100//105
f 112//117 102//107 101//106
f 113//118 92//97 102//107
f 103//108 114//42 104//109
f 104//109 114//42 105//110
f 105//110 114//42 106//111
f 106//111 114//42 107//112
f 107//112 114//42 108//113
f 108//113 114//42 109//114
f 109//114 114//42 110//115
f 110//115 114//42 111//116
f 111//116 114//42 112//117
f 112//117 114//42 113//118
f 113//118 114//42 103//108
f 137//1 138//147 139//148
f 137//1 139//148 140//149
f 137//1 140//149 141//150
f 137//1 141//150 142//151
f 137//1 142//151 143//152
f 137//1 143//152 144//153
f 137//1 144//153 145//154
f 137//1 145//154 146//155
f 137//1 146//155 147//156
f 137//1 147//156 148//157
f 137//1 148//157 138//147
f 149//158 139//148 138//147
f 150//159 140//149 139//148
f 151//160 141//150 140//149
f 152//161 142//151 141//150
f 153//162 143//152 142//151
f 154//163 144//153 143//152
f 155//164 145//154 144//153
f 156//165 146//155 145//154
f 157//166 147//156 146//155
f 158//167 148//157 147//156
f 159//168 138//147 148//157
f 149//158 160//42 150//159
f 150//159 160//42 151//160
f 151//160 160//42 152//161
f 152//161 160//42 153//162
f 153//162 160//42 154//163
f 154//163 160//42 155//164
f 155//164 160//42 156//165
f 156//165 160//42 157//166
f 157//166 160//42 158//167
f 158//167 160//42 159//168
f 159//168 160//42 149//158
f 57//56 58//57 47//46
f 58//57 59//58 48//47
f 59//58 60//59 49//48
f 60//59 61//60 50//49
f 61//60 62//61 51//50
f 62//61 63//62 52//51
f 63//62 64//63 53//52
f 64//63 65//64 54//53
f 65//64 66//65 55//54
f 66//65 67//66 56//55
f 67//66 57//56 46//45
f 103//108 104//109 93//98
f 104//109 105//110 94//99
f 105//110 106//111 95//100
f 106//111 107//112 96//101
f 107//112 108//113 97//102
f 108//113 109//114 98//103
f 109//114 110//115 99//104
f 110//115 111//116 100//105
f 111//116 112//117 101//106
f 112//117 113//118 102//107
f 113//118 103//108 92//97
f 149//158 150//159 139//148
f 150//159 151//160 140//149
f 151//160 152//161 141//150
f 152//161 153//162 142//151
f 153//162 154//163 143//152
f 154//163 155//164 144//153
f 155//164 156//165 145//154
f 156//165 157//166 146//155
f 157//166 158//167 147//156
f 158//167 159//168 148//157
f 159//168 149//158 138//147
s 0
usemtl verdant_carbonate
f 69//67 70//67 71//67
f 69//68 71//68 72//68
f 69//69 72//69 73//69
f 69//70 73//70 74//70
f 69//71 74//71 75//71
f 69//72 75//72 76//72
f 69//73 76//73 77//73
f 69//74 77//74 78//74
f 69//75 78//75 79//75
f 69//76 79//76 70//76
f 80//77 71//77 70//77
f 81//78 72//78 71//78
f 82//79 73//79 72//79
f 83//80 74//80 73//80
f 84//81 75//81 74//81
f 85//82 76//82 75//82
f 86//83 77//83 76//83
f 87//84 78//84 77//84
f 88//85 79//85 78//85
f 89//86 70//86 79//86
f 80//87 90//87 81//87
f 81//88 90//88 82//88
f 82//89 90//89 83//89
f 83//90 90//90 84//90
f 84//91 90//91 85//91
f 85//92 90//92 86//92
f 86//93 90//93 87//93
f 87//94 90//94 88//94
f 88//95 90//95 89//95
f 89//96 90//96 80//96
f 115//119 116//119 117//119
f 115//120 117//120 118//120
f 115//121 118//121 119//121
f 115//122 119//122 120//122
f 115//123 120//123 121//123
f 115//124 121//124 122//124
f 115//125 122//125 123//125
f 115//126 123//126 124//126
f 115//127 124//127 125//127
f 115//128 125//128 116//128
f 126//129 117//129 116//129
f 127//130 118//130 117//130
f 128//79 119//79 118//79
f 129//131 120//131 119//131
f 130//132 121//132 120//132
f 131//133 122//133 121//133
f 132//134 123//134 122//134
f 133//84 124//84 123//84
f 134//135 125//135 124//135
f 135//136 116//136 125//136
f 126//137 136//137 127//137
f 127//138 136//138 128//138
f 128//139 136//139 129//139
f 129//140 136//140 130//140
f 130//141 136//141 131//141
f 131//142 136//142 132//142
f 132//143 136//143 133//143
f 133//144 136//144 134//144
f 134//145 136//145 135//145
f 135//146 136//146 126//146
f 161//169 162//169 163//169
f 161//170 163//170 164//170
f 161//171 164//171 165//171
f 161//172 165//172 166//172
f 161//173 166//173 167//173
f 161//174 167//174 168//174
f 161//175 168//175 169//175
f 161//176 169//176 170//176
f 161//177 170//177 171//177
f 161//178 171//178 162//178
f 172//179 163//179 162//179
f 173//180 164//180 163//180
f 174//79 165//79 164//79
f 175//181 166//181 165//181
f 176//182 167//182 166//182
f 177//183 168//183 167//183
f 178//184 169//184 168//184
f 179//84 170//84 169//84
f 180//185 171//185 170//185
f 181//186 162//186 171//186
f 172//187 182//187 173//187
f 173//188 182//188 174//188
f 174//189 182//189 175//189
f 175//190 182//190 176//190
f 176//191 182//191 177//191
f 177//192 182//192 178//192
f 178//193 182//193 179//193
f 179//194 182//194 180//194
f 180//195 182//195 181//195
f 181//196 182//196 172//196
f 201//213 202//213 203//213
f 201//214 203//214 204//214
f 201//215 204//215 205//215
f 201//216 205//216 206//216
f 201//217 206//217 207//217
f 201//218 207//218 208//218
f 201//219 208//219 209//219
f 201//220 209//220 202//220
f 210//221 203//221 202//221
f 211//222 204//222 203//222
f 212//223 205//223 204//223
f 213//224 206//224 205//224
f 214//225 207//225 206//225
f 215//226 208//226 207//226
f 216//227 209//227 208//227
f 217//228 202//228 209//228
f 210//229 218//229 211//229
f 211//230 218//230 212//230
f 212//231 218//231 213//231
f 213//232 218//232 214//232
f 214//233 218//233 215//233
f 215//234 218//234 216//234
f 216//235 218//235 217//235
f 217//236 218//236 210//236
f 237//213 238//213 239//213
f 237//214 239//214 240//214
f 237//215 240//215 241//215
f 237//216 241//216 242//216
f 237//217 242//217 243//217
f 237//218 243//218 244//218
f 237//219 244//219 245//219
f 237//220 245//220 238//220
f 246//221 239//221 238//221
f 247//222 240//222 239//222
f 248//223 241//223 240//223
f 249//224 242//224 241//224
f 250//225 243//225 242//225
f 251//226 244//226 243//226
f 252//227 245//227 244//227
f 253//228 238//228 245//228
f 246//229 254//229 247//229
f 247//230 254//230 248//230
f 248//231 254//231 249//231
f 249//232 254//232 250//232
f 250//233 254//233 251//233
f 251//234 254//234 252//234
f 252//235 254//235 253//235
f 253//236 254//236 246//236
f 273//213 274//213 275//213
f 273//214 275//214 276//214
f 273//215 276//215 277//215
f 273//216 277//216 278//216
f 273//217 278//217 279//217
f 273//218 279//218 280//218
f 273//219 280//219 281//219
f 273//220 281//220 274//220
f 282//221 275//221 274//221
f 283//222 276//222 275//222
f 284//223 277//223 276//223
f 285//224 278//224 277//224
f 286//225 279//225 278//225
f 287//226 280//226 279//226
f 288//227 281//227 280//227
f 289//228 274//228 281//228
f 282//229 290//229 283//229
f 283//230 290//230 284//230
f 284//231 290//231 285//231
f 285//232 290//232 286//232
f 286//233 290//233 287//233
f 287//234 290//234 288//234
f 288//235 290//235 289//235
f 289//236 290//236 282//236
f 309//213 310//213 311//213
f 309//214 311//214 312//214
f 309//215 312//215 313//215
f 309//216 313//216 314//216
f 309//217 314//217 315//217
f 309//218 315//218 316//218
f 309//219 316//219 317//219
f 309//220 317//220 310//220
f 318//221 311//221 310//221
f 319//222 312//222 311//222
f 320//223 313//223 312//223
f 321//224 314//224 313//224
f 322//225 315//225 314//225
f 323//226 316//226 315//226
f 324//227 317//227 316//227
f 325//228 310//228 317//228
f 318//229 326//229 319//229
f 319//230 326//230 320//230
f 320//231 326//231 321//231
f 321//232 326//232 322//232
f 322//233 326//233 323//233
f 323//234 326//234 324//234
f 324//235 326//235 325//235
f 325//236 326//236 318//236
f 80//77 81//77 71//77
f 81//78 82//78 72//78
f 82//79 83//79 73//79
f 83//80 84//80 74//80
f 84//81 85//81 75//81
f 85//82 86//82 76//82
f 86//83 87//83 77//83
f 87//84 88//84 78//84
f 88//85 89//85 79//85
f 89//86 80//86 70//86
f 126//129 127//129 117//129
f 127//130 128//130 118//130
f 128//79 129//79 119//79
f 129//131 130//131 120//131
f 130//132 131//132 121//132
f 131//133 132//133 122//133
f 132//134 133//134 123//134
f 133//84 134//84 124//84
f 134//135 135//135 125//135
f 135//136 126//136 116//136
f 172//179 173//179 163//179
f 173//180 174//180 164//180
f 174//79 175//79 165//79
f 175//181 176//181 166//181
f 176//182 177//182 167//182
f 177//183 178//183 168//183
f 178//184 179//184 169//184
f 179//84 180//84 170//84
f 180//185 181//185 171//185
f 181//186 172//186 162//186
f 210//221 211//221 203//221
f 211//222 212//222 204//222
f 212//223 213//223 205//223
f 213//224 214//224 206//224
f 214//225 215//225 207//225
f 215//226 216//226 208//226
f 216//227 217//227 209//227
f 217//228 210//228 202//228
f 246//221 247//221 239//221
f 247//222 248//222 240//222
f 248//223 249//223 241//223
f 249//224 250//224 242//224
f 250//225 251//225 243//225
f 251//226 252//226 244//226
f 252//227 253//227 245//227
f 253//228 246//228 238//228
f 282//221 283//221 275//221
f 283//222 284//222 276//222
f 284//223 285//223 277//223
f 285//224 286//224 278//224
f 286//225 287//225 279//225
f 287//226 288//226 280//226
f 288//227 289//227 281//227
f 289//228 282//228 274//228
f 318//221 319//221 311//221
f 319//222 320//222 312//222
f 320//223 321//223 313//223
f 321//224 322//224 314//224
f 322//225 323//225 315//225
f 323//226 324//226 316//226
f 324//227 325//227 317//227
f 325//228 318//228 310//228
s 1
usemtl verdant_sulphur
f 183//197 191//198 195//199
f 200//200 192//201 188//202
f 183//197 186//203 185//204
f 186//203 187//205 185//204
f 187//205 190//206 189//207
f 189//207 192//201 191//198
f 191//198 194//208 193//209
f 194//208 195//199 193//209
f 196//210 197//211 195//199
f 197//211 200//200 199//212
f 200//200 183//197 199//212
f 219//237 227//238 231//239
f 236//240 228//241 224//242
f 219//237 222//243 221//244
f 222//243 223//245 221//244
f 223//245 226//246 225//247
f 225//247 228//241 227//238
f 227//238 230//248 229//249
f 230//248 231//239 229//249
f 232//250 233//251 231//239
f 233//251 236//240 235//252
f 236//240 219//237 235//252
f 255//253 263//254 267//255
f 272//256 264//257 260//258
f 255//253 258//259 257//260
f 258//259 259//261 257//260
f 259//261 262//262 261//263
f 261//263 264//257 263//254
f 264//257 265//264 263//254
f 266//265 267//255 265//264
f 268//266 269//267 267//255
f 269//267 272//256 271//268
f 272//256 255//253 271//268
f 291//269 299//270 303//271
f 308//272 300//273 296//274
f 291//269 294//275 293//276
f 294//275 295//277 293//276
f 295//277 298//278 297//279
f 297//279 300//273 299//270
f 300//273 301//280 299//270
f 302//281 303//271 301//280
f 304//282 305//283 303//271
f 305//283 308//272 307//284
f 308//272 291//269 307//284
f 197//211 199//212 183//197
f 183//197 185//204 187//205
f 187//205 189//207 191//198
f 191//198 193//209 195//199
f 195//199 197//211 183//197
f 183//197 187//205 191//198
f 186//203 184//285 200//200
f 200//200 198//286 196//210
f 196//210 194//208 192//201
f 192//201 190//206 188//202
f 188//202 186//203 200//200
f 200//200 196//210 192//201
f 183//197 184//285 186//203
f 186//203 188//202 187//205
f 187//205 188//202 190//206
f 189//207 190//206 192//201
f 191//198 192//201 194//208
f 194//208 196//210 195//199
f 196//210 198//286 197//211
f 197//211 198//286 200//200
f 200//200 184//285 183//197
f 233//251 235//252 219//237
f 219//237 221//244 223//245
f 223//245 225//247 227//238
f 227//238 229//249 231//239
f 231//239 233//251 219//237
f 219//237 223//245 227//238
f 222//243 220//287 236//240
f 236//240 234//288 232//250
f 232//250 230//248 228//241
f 228//241 226//246 224//242
f 224//242 222//243 236//240
f 236//240 232//250 228//241
f 219//237 220//287 222//243
f 222//243 224//242 223//245
f 223//245 224//242 226//246
f 225//247 226//246 228//241
f 227//238 228//241 230//248
f 230//248 232//250 231//239
f 232//250 234//288 233//251
f 233//251 234//288 236//240
f 236//240 220//287 219//237
f 269//267 271//268 255//253
f 255//253 257//260 259//261
f 259//261 261//263 263//254
f 263//254 265//264 267//255
f 267//255 269//267 255//253
f 255//253 259//261 263//254
f 258//259 256//289 272//256
f 272//256 270//290 268//266
f 268//266 266//265 264//257
f 264//257 262//262 260//258
f 260//258 258//259 272//256
f 272//256 268//266 264//257
f 255//253 256//289 258//259
f 258//259 260//258 259//261
f 259//261 260//258 262//262
f 261//263 262//262 264//257
f 264//257 266//265 265//264
f 266//265 268//266 267//255
f 268//266 270//290 269//267
f 269//267 270//290 272//256
f 272//256 256//289 255//253
f 305//283 307//284 291//269
f 291//269 293//276 295//277
f 295//277 297//279 299//270
f 299//270 301//280 303//271
f 303//271 305//283 291//269
f 291//269 295//277 299//270
f 294//275 292//291 308//272
f 308//272 306//292 304//282
f 304//282 302//281 300//273
f 300//273 298//278 296//274
f 296//274 294//275 308//272
f 308//272 304//282 300//273
f 291//269 292//291 294//275
f 294//275 296//274 295//277
f 295//277 296//274 298//278
f 297//279 298//278 300//273
f 300//273 302//281 301//280
f 302//281 304//282 303//271
f 304//282 306//292 305//283
f 305//283 306//292 308//272
f 308//272 292//291 291//269
