# Blender 5.2.1 LTS
# www.blender.org
mtllib terrain_silt_tile_a.mtl
o terrain_silt_tile_a
v -4.000000 -0.000000 -4.000000
v -3.000000 -0.000000 -4.000000
v -2.000000 -0.000000 -4.000000
v -1.000000 -0.000000 -4.000000
v 0.000000 -0.000000 -4.000000
v 1.000000 -0.000000 -4.000000
v 2.000000 -0.000000 -4.000000
v 3.000000 -0.000000 -4.000000
v 4.000000 -0.000000 -4.000000
v -4.000000 -0.000000 -3.000000
v -3.000000 0.054480 -3.000000
v -2.000000 0.025500 -3.000000
v -1.000000 0.023010 -3.000000
v 0.000000 0.049750 -3.000000
v 1.000000 0.076490 -3.000000
v 2.000000 0.074000 -3.000000
v 3.000000 0.045020 -3.000000
v 4.000000 -0.000000 -3.000000
v -4.000000 -0.000000 -2.000000
v -3.000000 0.049660 -2.000000
v -2.000000 0.031020 -2.000000
v -1.000000 0.027290 -2.000000
v 0.000000 0.067400 -2.000000
v 1.000000 0.107500 -2.000000
v 2.000000 0.103780 -2.000000
v 3.000000 0.040200 -2.000000
v 4.000000 -0.000000 -2.000000
v -4.000000 -0.000000 -1.000000
v -3.000000 0.068380 -1.000000
v -2.000000 0.059090 -1.000000
v -1.000000 0.055370 -1.000000
v 0.000000 0.095480 -1.000000
v 1.000000 0.135580 -1.000000
v 2.000000 0.131860 -1.000000
v 3.000000 0.058920 -1.000000
v 4.000000 -0.000000 -1.000000
v -4.000000 0.000000 0.000000
v -3.000000 0.081400 -0.000000
v -2.000000 0.078620 -0.000000
v -1.000000 0.074900 -0.000000
v 0.000000 0.115000 -0.000000
v 1.000000 0.155100 -0.000000
v 2.000000 0.151380 -0.000000
v 3.000000 0.071930 -0.000000
v 4.000000 0.000000 0.000000
v -4.000000 0.000000 1.000000
v -3.000000 0.068380 1.000000
v -2.000000 0.059090 1.000000
v -1.000000 0.055370 1.000000
v 0.000000 0.095480 1.000000
v 1.000000 0.135580 1.000000
v 2.000000 0.131860 1.000000
v 3.000000 0.058920 1.000000
v 4.000000 0.000000 1.000000
v -4.000000 0.000000 2.000000
v -3.000000 0.049660 2.000000
v -2.000000 0.031020 2.000000
v -1.000000 0.027290 2.000000
v 0.000000 0.067400 2.000000
v 1.000000 0.107500 2.000000
v 2.000000 0.103780 2.000000
v 3.000000 0.040200 2.000000
v 4.000000 0.000000 2.000000
v -4.000000 0.000000 3.000000
v -3.000000 0.054480 3.000000
v -2.000000 0.025500 3.000000
v -1.000000 0.023010 3.000000
v 0.000000 0.049750 3.000000
v 1.000000 0.076490 3.000000
v 2.000000 0.074000 3.000000
v 3.000000 0.045020 3.000000
v 4.000000 0.000000 3.000000
v -4.000000 0.000000 4.000000
v -3.000000 0.000000 4.000000
v -2.000000 0.000000 4.000000
v -1.000000 0.000000 4.000000
v 0.000000 0.000000 4.000000
v 1.000000 0.000000 4.000000
v 2.000000 0.000000 4.000000
v 3.000000 0.000000 4.000000
v 4.000000 0.000000 4.000000
vn -0.0000 -1.0000 -0.0000
vn -0.0289 -0.9981 0.0544
vn -0.0025 -0.9997 0.0255
vn -0.0000 -0.9997 0.0230
vn -0.0000 -0.9988 0.0497
vn -0.0025 -0.9971 0.0763
vn -0.0289 -0.9969 0.0738
vn -0.0449 -0.9980 0.0449
vn 0.0496 -0.9988 -0.0000
vn -0.0186 -0.9998 -0.0048
vn -0.0037 -1.0000 0.0055
vn 0.0267 -0.9996 0.0043
vn 0.0267 -0.9995 0.0176
vn -0.0037 -0.9995 0.0310
vn -0.0634 -0.9975 0.0297
vn -0.0450 -0.9990 -0.0048
vn -0.0093 -0.9998 0.0187
vn -0.0037 -0.9996 0.0281
vn 0.0401 -0.9988 0.0280
vn -0.0727 -0.9970 0.0280
vn -0.0588 -0.9981 0.0187
vn 0.0682 -0.9977 -0.0000
vn -0.0028 -0.9999 0.0130
vn -0.0037 -0.9998 0.0195
vn 0.0401 -0.9990 0.0195
vn -0.0792 -0.9967 0.0195
vn -0.0717 -0.9973 0.0130
vn -0.0028 -0.9999 -0.0130
vn -0.0037 -0.9998 -0.0195
vn 0.0401 -0.9990 -0.0195
vn -0.0792 -0.9967 -0.0195
vn -0.0717 -0.9973 -0.0130
vn -0.0093 -0.9998 -0.0187
vn -0.0037 -0.9996 -0.0281
vn 0.0401 -0.9988 -0.0280
vn -0.0727 -0.9970 -0.0280
vn -0.0588 -0.9981 -0.0187
vn -0.0186 -0.9998 0.0048
vn -0.0037 -1.0000 -0.0055
vn 0.0267 -0.9996 -0.0043
vn 0.0267 -0.9995 -0.0176
vn -0.0037 -0.9995 -0.0310
vn -0.0634 -0.9975 -0.0297
vn -0.0450 -0.9990 0.0048
vn -0.0289 -0.9981 -0.0544
vn -0.0025 -0.9997 -0.0255
vn -0.0000 -0.9997 -0.0230
vn -0.0000 -0.9988 -0.0497
vn -0.0025 -0.9971 -0.0763
vn -0.0289 -0.9969 -0.0738
vn -0.0449 -0.9980 -0.0449
vn 0.0543 -0.9970 0.0543
vn -0.0000 -0.9997 0.0255
vn 0.0267 -0.9984 0.0497
vn 0.0267 -0.9967 0.0762
vn -0.0000 -0.9973 0.0738
vn -0.0000 -0.9990 0.0450
vn 0.0544 -0.9985 -0.0048
vn -0.0290 -0.9996 0.0055
vn -0.0025 -1.0000 0.0043
vn 0.0401 -0.9990 0.0176
vn 0.0400 -0.9987 0.0310
vn -0.0025 -0.9996 0.0298
vn -0.0290 -0.9996 -0.0048
vn -0.0402 -0.9992 -0.0000
vn 0.0682 -0.9975 0.0187
vn -0.0186 -0.9994 0.0281
vn -0.0634 -0.9978 0.0187
vn 0.0811 -0.9966 0.0130
vn -0.0093 -0.9998 0.0195
vn -0.0727 -0.9973 0.0130
vn -0.0588 -0.9983 -0.0000
vn 0.0811 -0.9966 -0.0130
vn -0.0093 -0.9998 -0.0195
vn -0.0727 -0.9973 -0.0130
vn 0.0682 -0.9975 -0.0187
vn -0.0186 -0.9994 -0.0281
vn -0.0634 -0.9978 -0.0187
vn 0.0544 -0.9985 0.0048
vn -0.0290 -0.9996 -0.0055
vn -0.0025 -1.0000 -0.0043
vn 0.0401 -0.9990 -0.0176
vn 0.0400 -0.9987 -0.0310
vn -0.0025 -0.9996 -0.0298
vn -0.0290 -0.9996 0.0048
vn 0.0543 -0.9970 -0.0543
vn -0.0000 -0.9997 -0.0255
vn 0.0267 -0.9984 -0.0497
vn 0.0267 -0.9967 -0.0762
vn -0.0000 -0.9973 -0.0738
vn -0.0000 -0.9990 -0.0450
s 0
usemtl verdant_silt
f 2//1 10//1 1//1
f 2//2 12//2 11//2
f 3//3 13//3 12//3
f 5//4 13//4 4//4
f 6//5 14//5 5//5
f 6//6 16//6 15//6
f 7//7 17//7 16//7
f 8//8 18//8 17//8
f 10//9 20//9 19//9
f 11//10 21//10 20//10
f 12//11 22//11 21//11
f 14//12 22//12 13//12
f 15//13 23//13 14//13
f 15//14 25//14 24//14
f 16//15 26//15 25//15
f 18//16 26//16 17//16
f 20//9 28//9 19//9
f 20//17 30//17 29//17
f 21//18 31//18 30//18
f 23//19 31//19 22//19
f 24//19 32//19 23//19
f 24//18 34//18 33//18
f 25//20 35//20 34//20
f 26//21 36//21 35//21
f 29//22 37//22 28//22
f 29//23 39//23 38//23
f 30//24 40//24 39//24
f 32//25 40//25 31//25
f 33//25 41//25 32//25
f 33//24 43//24 42//24
f 34//26 44//26 43//26
f 35//27 45//27 44//27
f 37//22 47//22 46//22
f 39//28 47//28 38//28
f 40//29 48//29 39//29
f 40//30 50//30 49//30
f 41//30 51//30 50//30
f 43//29 51//29 42//29
f 44//31 52//31 43//31
f 45//32 53//32 44//32
f 46//9 56//9 55//9
f 48//33 56//33 47//33
f 49//34 57//34 48//34
f 49//35 59//35 58//35
f 50//35 60//35 59//35
f 52//34 60//34 51//34
f 53//36 61//36 52//36
f 54//37 62//37 53//37
f 56//9 64//9 55//9
f 57//38 65//38 56//38
f 58//39 66//39 57//39
f 58//40 68//40 67//40
f 59//41 69//41 68//41
f 61//42 69//42 60//42
f 62//43 70//43 61//43
f 62//44 72//44 71//44
f 64//1 74//1 73//1
f 66//45 74//45 65//45
f 67//46 75//46 66//46
f 67//47 77//47 76//47
f 68//48 78//48 77//48
f 70//49 78//49 69//49
f 71//50 79//50 70//50
f 72//51 80//51 71//51
f 2//52 11//52 10//52
f 2//53 3//53 12//53
f 3//4 4//4 13//4
f 5//54 14//54 13//54
f 6//55 15//55 14//55
f 6//56 7//56 16//56
f 7//57 8//57 17//57
f 8//1 9//1 18//1
f 10//58 11//58 20//58
f 11//59 12//59 21//59
f 12//60 13//60 22//60
f 14//61 23//61 22//61
f 15//62 24//62 23//62
f 15//63 16//63 25//63
f 16//64 17//64 26//64
f 18//65 27//65 26//65
f 20//66 29//66 28//66
f 20//67 21//67 30//67
f 21//18 22//18 31//18
f 23//19 32//19 31//19
f 24//19 33//19 32//19
f 24//18 25//18 34//18
f 25//68 26//68 35//68
f 26//65 27//65 36//65
f 29//69 38//69 37//69
f 29//70 30//70 39//70
f 30//24 31//24 40//24
f 32//25 41//25 40//25
f 33//25 42//25 41//25
f 33//24 34//24 43//24
f 34//71 35//71 44//71
f 35//72 36//72 45//72
f 37//73 38//73 47//73
f 39//74 48//74 47//74
f 40//29 49//29 48//29
f 40//30 41//30 50//30
f 41//30 42//30 51//30
f 43//29 52//29 51//29
f 44//75 53//75 52//75
f 45//72 54//72 53//72
f 46//76 47//76 56//76
f 48//77 57//77 56//77
f 49//34 58//34 57//34
f 49//35 50//35 59//35
f 50//35 51//35 60//35
f 52//34 61//34 60//34
f 53//78 62//78 61//78
f 54//65 63//65 62//65
f 56//79 65//79 64//79
f 57//80 66//80 65//80
f 58//81 67//81 66//81
f 58//82 59//82 68//82
f 59//83 60//83 69//83
f 61//84 70//84 69//84
f 62//85 71//85 70//85
f 62//65 63//65 72//65
f 64//86 65//86 74//86
f 66//87 75//87 74//87
f 67//47 76//47 75//47
f 67//88 68//88 77//88
f 68//89 69//89 78//89
f 70//90 79//90 78//90
f 71//91 80//91 79//91
f 72//1 81//1 80//1
