# Blender 5.2.1 LTS
# www.blender.org
mtllib terrain_silt_tile_b.mtl
o terrain_silt_tile_b
v -4.000000 -0.000000 -4.000000
v -3.000000 -0.000000 -4.000000
v -2.000000 -0.000000 -4.000000
v -1.000000 -0.000000 -4.000000
v 0.000000 -0.000000 -4.000000
v 1.000000 -0.000000 -4.000000
v 2.000000 -0.000000 -4.000000
v 3.000000 -0.000000 -4.000000
v 4.000000 -0.000000 -4.000000
v -4.000000 -0.000000 -3.000000
v -3.000000 0.044370 -3.000000
v -2.000000 0.059970 -3.000000
v -1.000000 0.091290 -3.000000
v 0.000000 0.104100 -3.000000
v 1.000000 0.084400 -3.000000
v 2.000000 0.053720 -3.000000
v 3.000000 0.045590 -3.000000
v 4.000000 -0.000000 -3.000000
v -4.000000 -0.000000 -2.000000
v -3.000000 0.024890 -2.000000
v -2.000000 0.060740 -2.000000
v -1.000000 0.107730 -2.000000
v 0.000000 0.126940 -2.000000
v 1.000000 0.097390 -2.000000
v 2.000000 0.051370 -2.000000
v 3.000000 0.026110 -2.000000
v 4.000000 -0.000000 -2.000000
v -4.000000 -0.000000 -1.000000
v -3.000000 0.013420 -1.000000
v -2.000000 0.043530 -1.000000
v -1.000000 0.090510 -1.000000
v 0.000000 0.109730 -1.000000
v 1.000000 0.080180 -1.000000
v 2.000000 0.034160 -1.000000
v 3.000000 0.014640 -1.000000
v 4.000000 -0.000000 -1.000000
v -4.000000 0.000000 0.000000
v -3.000000 0.027870 -0.000000
v -2.000000 0.065200 -0.000000
v -1.000000 0.112190 -0.000000
v 0.000000 0.131400 -0.000000
v 1.000000 0.101850 -0.000000
v 2.000000 0.055830 -0.000000
v 3.000000 0.029080 -0.000000
v 4.000000 0.000000 0.000000
v -4.000000 0.000000 1.000000
v -3.000000 0.045670 1.000000
v -2.000000 0.091910 1.000000
v -1.000000 0.138890 1.000000
v 0.000000 0.158110 1.000000
v 1.000000 0.128560 1.000000
v 2.000000 0.082530 1.000000
v 3.000000 0.046890 1.000000
v 4.000000 0.000000 1.000000
v -4.000000 0.000000 2.000000
v -3.000000 0.039020 2.000000
v -2.000000 0.081930 2.000000
v -1.000000 0.128920 2.000000
v 0.000000 0.148130 2.000000
v 1.000000 0.118580 2.000000
v 2.000000 0.072560 2.000000
v 3.000000 0.040240 2.000000
v 4.000000 0.000000 2.000000
v -4.000000 0.000000 3.000000
v -3.000000 0.018300 3.000000
v -2.000000 0.033910 3.000000
v -1.000000 0.065230 3.000000
v 0.000000 0.078040 3.000000
v 1.000000 0.058340 3.000000
v 2.000000 0.027660 3.000000
v 3.000000 0.019520 3.000000
v 4.000000 0.000000 3.000000
v -4.000000 0.000000 4.000000
v -3.000000 0.000000 4.000000
v -2.000000 0.000000 4.000000
v -1.000000 0.000000 4.000000
v 0.000000 0.000000 4.000000
v 1.000000 0.000000 4.000000
v 2.000000 0.000000 4.000000
v 3.000000 0.000000 4.000000
v 4.000000 0.000000 4.000000
vn -0.0000 -1.0000 -0.0000
vn -0.0000 -0.9990 0.0443
vn -0.0000 -0.9982 0.0599
vn -0.0000 -0.9959 0.0909
vn -0.0196 -0.9944 0.1035
vn -0.0306 -0.9960 0.0841
vn -0.0081 -0.9985 0.0536
vn -0.0455 -0.9979 0.0455
vn 0.0249 -0.9997 -0.0000
vn 0.0358 -0.9992 -0.0195
vn 0.0313 -0.9995 0.0008
vn 0.0128 -0.9998 0.0164
vn -0.0295 -0.9993 0.0228
vn -0.0460 -0.9989 0.0130
vn -0.0081 -1.0000 -0.0023
vn -0.0455 -0.9988 -0.0195
vn 0.0134 -0.9999 -0.0000
vn 0.0301 -0.9995 -0.0115
vn 0.0469 -0.9988 -0.0172
vn 0.0192 -0.9997 -0.0172
vn -0.0295 -0.9994 -0.0172
vn -0.0460 -0.9988 -0.0172
vn -0.0252 -0.9995 -0.0172
vn -0.0261 -0.9996 -0.0115
vn 0.0301 -0.9994 0.0144
vn 0.0469 -0.9987 0.0216
vn 0.0192 -0.9996 0.0217
vn -0.0295 -0.9993 0.0217
vn -0.0460 -0.9987 0.0216
vn -0.0267 -0.9994 0.0217
vn -0.0291 -0.9995 0.0144
vn 0.0279 -0.9996 -0.0000
vn 0.0373 -0.9991 0.0178
vn 0.0469 -0.9985 0.0267
vn 0.0192 -0.9995 0.0267
vn -0.0295 -0.9992 0.0267
vn -0.0460 -0.9986 0.0267
vn -0.0356 -0.9990 0.0267
vn -0.0468 -0.9987 0.0178
vn 0.0390 -0.9992 -0.0000
vn 0.0429 -0.9991 -0.0066
vn 0.0469 -0.9988 -0.0100
vn 0.0192 -0.9998 -0.0100
vn -0.0295 -0.9995 -0.0100
vn -0.0460 -0.9989 -0.0100
vn -0.0356 -0.9993 -0.0100
vn -0.0468 -0.9989 -0.0066
vn 0.0183 -0.9998 -0.0000
vn 0.0156 -0.9997 -0.0207
vn 0.0313 -0.9984 -0.0479
vn 0.0128 -0.9979 -0.0636
vn -0.0295 -0.9971 -0.0699
vn -0.0459 -0.9971 -0.0601
vn -0.0323 -0.9985 -0.0448
vn -0.0402 -0.9990 -0.0207
vn -0.0000 -0.9998 -0.0183
vn -0.0000 -0.9994 -0.0339
vn -0.0000 -0.9979 -0.0651
vn -0.0196 -0.9968 -0.0778
vn -0.0306 -0.9978 -0.0582
vn -0.0081 -0.9996 -0.0276
vn -0.0195 -0.9996 -0.0195
vn 0.0443 -0.9980 0.0443
vn 0.0156 -0.9981 0.0599
vn 0.0312 -0.9954 0.0909
vn 0.0127 -0.9945 0.1035
vn -0.0000 -0.9965 0.0841
vn -0.0000 -0.9986 0.0536
vn -0.0000 -0.9990 0.0455
vn 0.0443 -0.9988 -0.0195
vn 0.0156 -0.9999 0.0008
vn 0.0469 -0.9988 0.0164
vn 0.0192 -0.9996 0.0228
vn -0.0197 -0.9997 0.0130
vn -0.0307 -0.9995 -0.0023
vn -0.0252 -0.9995 -0.0195
vn -0.0261 -0.9997 -0.0000
vn 0.0249 -0.9996 -0.0115
vn 0.0358 -0.9992 -0.0172
vn -0.0195 -0.9997 -0.0115
vn -0.0146 -0.9999 -0.0000
vn 0.0279 -0.9995 0.0144
vn 0.0373 -0.9991 0.0216
vn 0.0469 -0.9987 0.0217
vn -0.0195 -0.9997 0.0144
vn 0.0456 -0.9988 0.0178
vn 0.0462 -0.9986 0.0267
vn -0.0267 -0.9995 0.0178
vn -0.0291 -0.9996 -0.0000
vn 0.0456 -0.9989 -0.0066
vn 0.0462 -0.9989 -0.0100
vn -0.0323 -0.9995 -0.0066
vn -0.0402 -0.9992 -0.0000
vn 0.0390 -0.9990 -0.0207
vn 0.0428 -0.9979 -0.0479
vn 0.0468 -0.9969 -0.0635
vn 0.0192 -0.9974 -0.0699
vn -0.0197 -0.9980 -0.0601
vn -0.0306 -0.9985 -0.0448
vn -0.0081 -0.9998 -0.0207
vn -0.0195 -0.9998 -0.0000
vn 0.0183 -0.9997 -0.0183
vn 0.0156 -0.9993 -0.0339
vn 0.0312 -0.9974 -0.0651
vn 0.0128 -0.9969 -0.0778
vn -0.0000 -0.9983 -0.0582
vn -0.0000 -0.9996 -0.0276
vn -0.0000 -0.9998 -0.0195
s 0
usemtl verdant_silt
f 2//1 10//1 1//1
f 3//2 11//2 2//2
f 4//3 12//3 3//3
f 5//4 13//4 4//4
f 5//5 15//5 14//5
f 6//6 16//6 15//6
f 7//7 17//7 16//7
f 8//8 18//8 17//8
f 10//9 20//9 19//9
f 11//10 21//10 20//10
f 13//11 21//11 12//11
f 14//12 22//12 13//12
f 14//13 24//13 23//13
f 15//14 25//14 24//14
f 17//15 25//15 16//15
f 18//16 26//16 17//16
f 19//17 29//17 28//17
f 20//18 30//18 29//18
f 21//19 31//19 30//19
f 22//20 32//20 31//20
f 24//21 32//21 23//21
f 25//22 33//22 24//22
f 26//23 34//23 25//23
f 27//24 35//24 26//24
f 29//17 37//17 28//17
f 30//25 38//25 29//25
f 31//26 39//26 30//26
f 32//27 40//27 31//27
f 32//28 42//28 41//28
f 33//29 43//29 42//29
f 34//30 44//30 43//30
f 35//31 45//31 44//31
f 38//32 46//32 37//32
f 39//33 47//33 38//33
f 40//34 48//34 39//34
f 41//35 49//35 40//35
f 41//36 51//36 50//36
f 42//37 52//37 51//37
f 43//38 53//38 52//38
f 44//39 54//39 53//39
f 46//40 56//40 55//40
f 47//41 57//41 56//41
f 48//42 58//42 57//42
f 49//43 59//43 58//43
f 51//44 59//44 50//44
f 52//45 60//45 51//45
f 53//46 61//46 52//46
f 54//47 62//47 53//47
f 55//48 65//48 64//48
f 56//49 66//49 65//49
f 57//50 67//50 66//50
f 58//51 68//51 67//51
f 60//52 68//52 59//52
f 61//53 69//53 60//53
f 62//54 70//54 61//54
f 63//55 71//55 62//55
f 64//1 74//1 73//1
f 65//56 75//56 74//56
f 66//57 76//57 75//57
f 67//58 77//58 76//58
f 69//59 77//59 68//59
f 70//60 78//60 69//60
f 71//61 79//61 70//61
f 72//62 80//62 71//62
f 2//63 11//63 10//63
f 3//64 12//64 11//64
f 4//65 13//65 12//65
f 5//66 14//66 13//66
f 5//67 6//67 15//67
f 6//68 7//68 16//68
f 7//69 8//69 17//69
f 8//1 9//1 18//1
f 10//70 11//70 20//70
f 11//71 12//71 21//71
f 13//72 22//72 21//72
f 14//73 23//73 22//73
f 14//74 15//74 24//74
f 15//75 16//75 25//75
f 17//76 26//76 25//76
f 18//77 27//77 26//77
f 19//78 20//78 29//78
f 20//79 21//79 30//79
f 21//19 22//19 31//19
f 22//20 23//20 32//20
f 24//21 33//21 32//21
f 25//22 34//22 33//22
f 26//80 35//80 34//80
f 27//81 36//81 35//81
f 29//82 38//82 37//82
f 30//83 39//83 38//83
f 31//84 40//84 39//84
f 32//27 41//27 40//27
f 32//28 33//28 42//28
f 33//29 34//29 43//29
f 34//85 35//85 44//85
f 35//81 36//81 45//81
f 38//86 47//86 46//86
f 39//87 48//87 47//87
f 40//34 49//34 48//34
f 41//35 50//35 49//35
f 41//36 42//36 51//36
f 42//37 43//37 52//37
f 43//88 44//88 53//88
f 44//89 45//89 54//89
f 46//90 47//90 56//90
f 47//91 48//91 57//91
f 48//42 49//42 58//42
f 49//43 50//43 59//43
f 51//44 60//44 59//44
f 52//45 61//45 60//45
f 53//92 62//92 61//92
f 54//93 63//93 62//93
f 55//94 56//94 65//94
f 56//95 57//95 66//95
f 57//96 58//96 67//96
f 58//97 59//97 68//97
f 60//98 69//98 68//98
f 61//99 70//99 69//99
f 62//100 71//100 70//100
f 63//101 72//101 71//101
f 64//102 65//102 74//102
f 65//103 66//103 75//103
f 66//104 67//104 76//104
f 67//105 68//105 77//105
f 69//106 78//106 77//106
f 70//107 79//107 78//107
f 71//108 80//108 79//108
f 72//1 81//1 80//1
