# Blender 5.2.1 LTS
# www.blender.org
mtllib terrain_sand_tile_a.mtl
o terrain_sand_tile_a
v -4.000000 -0.000000 -4.000000
v -3.000000 -0.000000 -4.000000
v -2.000000 -0.000000 -4.000000
v -1.000000 -0.000000 -4.000000
v 0.000000 -0.000000 -4.000000
v 1.000000 -0.000000 -4.000000
v 2.000000 -0.000000 -4.000000
v 3.000000 -0.000000 -4.000000
v 4.000000 -0.000000 -4.000000
v -4.000000 -0.000000 -3.000000
v -3.000000 0.044330 -3.000000
v -2.000000 0.032720 -3.000000
v -1.000000 0.053420 -3.000000
v 0.000000 0.083810 -3.000000
v 1.000000 0.090680 -3.000000
v 2.000000 0.066520 -3.000000
v 3.000000 0.037740 -3.000000
v 4.000000 -0.000000 -3.000000
v -4.000000 -0.000000 -2.000000
v -3.000000 0.026440 -2.000000
v -2.000000 0.022240 -2.000000
v -1.000000 0.053290 -2.000000
v 0.000000 0.098870 -2.000000
v 1.000000 0.109170 -2.000000
v 2.000000 0.072940 -2.000000
v 3.000000 0.019840 -2.000000
v 4.000000 -0.000000 -2.000000
v -4.000000 -0.000000 -1.000000
v -3.000000 0.032920 -1.000000
v -2.000000 0.031970 -1.000000
v -1.000000 0.063020 -1.000000
v 0.000000 0.108600 -1.000000
v 1.000000 0.118900 -1.000000
v 2.000000 0.082670 -1.000000
v 3.000000 0.026330 -1.000000
v 4.000000 -0.000000 -1.000000
v -4.000000 0.000000 0.000000
v -3.000000 0.053660 -0.000000
v -2.000000 0.063070 -0.000000
v -1.000000 0.094120 -0.000000
v 0.000000 0.139700 -0.000000
v 1.000000 0.150000 -0.000000
v 2.000000 0.113770 -0.000000
v 3.000000 0.047060 -0.000000
v 4.000000 0.000000 0.000000
v -4.000000 0.000000 1.000000
v -3.000000 0.056250 1.000000
v -2.000000 0.066970 1.000000
v -1.000000 0.098010 1.000000
v 0.000000 0.143590 1.000000
v 1.000000 0.153900 1.000000
v 2.000000 0.117660 1.000000
v 3.000000 0.049660 1.000000
v 4.000000 0.000000 1.000000
v -4.000000 0.000000 2.000000
v -3.000000 0.036660 2.000000
v -2.000000 0.037570 2.000000
v -1.000000 0.068620 2.000000
v 0.000000 0.114200 2.000000
v 1.000000 0.124500 2.000000
v 2.000000 0.088270 2.000000
v 3.000000 0.030060 2.000000
v 4.000000 0.000000 2.000000
v -4.000000 0.000000 3.000000
v -3.000000 0.025480 3.000000
v -2.000000 0.013870 3.000000
v -1.000000 0.034570 3.000000
v 0.000000 0.064950 3.000000
v 1.000000 0.071820 3.000000
v 2.000000 0.047660 3.000000
v 3.000000 0.018880 3.000000
v 4.000000 0.000000 3.000000
v -4.000000 0.000000 4.000000
v -3.000000 0.000000 4.000000
v -2.000000 0.000000 4.000000
v -1.000000 0.000000 4.000000
v 0.000000 0.000000 4.000000
v 1.000000 0.000000 4.000000
v 2.000000 0.000000 4.000000
v 3.000000 0.000000 4.000000
v 4.000000 0.000000 4.000000
vn -0.0000 -1.0000 -0.0000
vn -0.0116 -0.9990 0.0443
vn -0.0000 -0.9995 0.0327
vn -0.0000 -0.9986 0.0533
vn -0.0000 -0.9965 0.0835
vn -0.0241 -0.9956 0.0903
vn -0.0287 -0.9974 0.0663
vn -0.0377 -0.9986 0.0377
vn 0.0264 -0.9997 -0.0000
vn -0.0116 -0.9998 -0.0179
vn 0.0310 -0.9995 -0.0105
vn 0.0304 -0.9995 -0.0001
vn 0.0069 -0.9999 0.0151
vn -0.0362 -0.9992 0.0185
vn -0.0288 -0.9996 0.0064
vn -0.0377 -0.9991 -0.0179
vn -0.0009 -1.0000 0.0065
vn 0.0310 -0.9995 0.0097
vn 0.0455 -0.9989 0.0097
vn 0.0103 -0.9999 0.0097
vn -0.0362 -0.9993 0.0097
vn -0.0562 -0.9984 0.0097
vn -0.0263 -0.9996 0.0065
vn 0.0329 -0.9995 -0.0000
vn -0.0009 -0.9998 0.0207
vn 0.0310 -0.9990 0.0311
vn 0.0455 -0.9985 0.0311
vn 0.0103 -0.9995 0.0311
vn -0.0362 -0.9989 0.0311
vn -0.0665 -0.9973 0.0310
vn -0.0470 -0.9987 0.0207
vn 0.0536 -0.9986 -0.0000
vn 0.0094 -1.0000 0.0026
vn 0.0310 -0.9995 0.0039
vn 0.0455 -0.9990 0.0039
vn 0.0103 -0.9999 0.0039
vn -0.0362 -0.9993 0.0039
vn -0.0678 -0.9977 0.0039
vn -0.0496 -0.9988 0.0026
vn 0.0366 -0.9993 -0.0000
vn 0.0009 -0.9998 -0.0196
vn 0.0310 -0.9991 -0.0294
vn 0.0455 -0.9985 -0.0293
vn 0.0103 -0.9995 -0.0294
vn -0.0362 -0.9989 -0.0294
vn -0.0678 -0.9973 -0.0293
vn -0.0496 -0.9986 -0.0196
vn 0.0255 -0.9997 -0.0000
vn 0.0009 -0.9999 -0.0112
vn 0.0207 -0.9995 -0.0237
vn 0.0303 -0.9990 -0.0340
vn 0.0069 -0.9988 -0.0492
vn -0.0362 -0.9980 -0.0526
vn -0.0581 -0.9975 -0.0405
vn -0.0300 -0.9995 -0.0112
vn -0.0116 -0.9996 -0.0255
vn -0.0000 -0.9999 -0.0139
vn -0.0000 -0.9994 -0.0345
vn -0.0000 -0.9979 -0.0648
vn -0.0241 -0.9971 -0.0716
vn -0.0287 -0.9985 -0.0476
vn -0.0189 -0.9996 -0.0189
vn 0.0442 -0.9980 0.0442
vn 0.0207 -0.9984 0.0533
vn 0.0303 -0.9960 0.0835
vn 0.0068 -0.9959 0.0903
vn -0.0000 -0.9978 0.0664
vn -0.0000 -0.9993 0.0377
vn 0.0443 -0.9989 -0.0179
vn -0.0042 -0.9999 -0.0105
vn 0.0207 -0.9998 -0.0001
vn 0.0455 -0.9988 0.0150
vn 0.0103 -0.9998 0.0185
vn -0.0242 -0.9997 0.0064
vn -0.0530 -0.9984 -0.0179
vn -0.0198 -0.9998 -0.0000
vn 0.0329 -0.9994 0.0065
vn -0.0042 -0.9999 0.0097
vn -0.0530 -0.9986 0.0065
vn 0.0536 -0.9983 0.0207
vn 0.0094 -0.9995 0.0311
vn -0.0562 -0.9982 0.0207
vn -0.0263 -0.9997 -0.0000
vn 0.0562 -0.9984 0.0026
vn 0.0107 -0.9999 0.0039
vn -0.0666 -0.9978 0.0026
vn -0.0470 -0.9989 -0.0000
vn 0.0562 -0.9982 -0.0196
vn 0.0107 -0.9995 -0.0294
vn -0.0581 -0.9981 -0.0196
vn -0.0300 -0.9995 -0.0000
vn 0.0366 -0.9993 -0.0112
vn -0.0116 -0.9997 -0.0237
vn 0.0310 -0.9989 -0.0340
vn 0.0455 -0.9978 -0.0491
vn 0.0103 -0.9986 -0.0526
vn -0.0241 -0.9989 -0.0406
vn -0.0288 -0.9995 -0.0112
vn -0.0189 -0.9998 -0.0000
vn 0.0255 -0.9994 -0.0255
vn 0.0207 -0.9992 -0.0345
vn 0.0303 -0.9974 -0.0648
vn 0.0069 -0.9974 -0.0716
vn -0.0000 -0.9989 -0.0476
vn -0.0000 -0.9998 -0.0189
s 0
usemtl verdant_silt
f 2//1 10//1 1//1
f 2//2 12//2 11//2
f 4//3 12//3 3//3
f 5//4 13//4 4//4
f 6//5 14//5 5//5
f 6//6 16//6 15//6
f 7//7 17//7 16//7
f 8//8 18//8 17//8
f 10//9 20//9 19//9
f 12//10 20//10 11//10
f 12//11 22//11 21//11
f 14//12 22//12 13//12
f 15//13 23//13 14//13
f 15//14 25//14 24//14
f 17//15 25//15 16//15
f 18//16 26//16 17//16
f 20//9 28//9 19//9
f 20//17 30//17 29//17
f 22//18 30//18 21//18
f 23//19 31//19 22//19
f 24//20 32//20 23//20
f 24//21 34//21 33//21
f 25//22 35//22 34//22
f 26//23 36//23 35//23
f 29//24 37//24 28//24
f 30//25 38//25 29//25
f 31//26 39//26 30//26
f 32//27 40//27 31//27
f 33//28 41//28 32//28
f 33//29 43//29 42//29
f 34//30 44//30 43//30
f 35//31 45//31 44//31
f 38//32 46//32 37//32
f 39//33 47//33 38//33
f 40//34 48//34 39//34
f 41//35 49//35 40//35
f 42//36 50//36 41//36
f 42//37 52//37 51//37
f 43//38 53//38 52//38
f 44//39 54//39 53//39
f 46//40 56//40 55//40
f 47//41 57//41 56//41
f 48//42 58//42 57//42
f 49//43 59//43 58//43
f 50//44 60//44 59//44
f 52//45 60//45 51//45
f 53//46 61//46 52//46
f 54//47 62//47 53//47
f 55//48 65//48 64//48
f 57//49 65//49 56//49
f 57//50 67//50 66//50
f 58//51 68//51 67//51
f 59//52 69//52 68//52
f 61//53 69//53 60//53
f 62//54 70//54 61//54
f 63//55 71//55 62//55
f 64//1 74//1 73//1
f 66//56 74//56 65//56
f 66//57 76//57 75//57
f 67//58 77//58 76//58
f 68//59 78//59 77//59
f 70//60 78//60 69//60
f 71//61 79//61 70//61
f 72//62 80//62 71//62
f 2//63 11//63 10//63
f 2//3 3//3 12//3
f 4//64 13//64 12//64
f 5//65 14//65 13//65
f 6//66 15//66 14//66
f 6//67 7//67 16//67
f 7//68 8//68 17//68
f 8//1 9//1 18//1
f 10//69 11//69 20//69
f 12//70 21//70 20//70
f 12//71 13//71 22//71
f 14//72 23//72 22//72
f 15//73 24//73 23//73
f 15//74 16//74 25//74
f 17//75 26//75 25//75
f 18//76 27//76 26//76
f 20//77 29//77 28//77
f 20//78 21//78 30//78
f 22//18 31//18 30//18
f 23//19 32//19 31//19
f 24//20 33//20 32//20
f 24//21 25//21 34//21
f 25//79 26//79 35//79
f 26//76 27//76 36//76
f 29//80 38//80 37//80
f 30//81 39//81 38//81
f 31//26 40//26 39//26
f 32//27 41//27 40//27
f 33//28 42//28 41//28
f 33//29 34//29 43//29
f 34//82 35//82 44//82
f 35//83 36//83 45//83
f 38//84 47//84 46//84
f 39//85 48//85 47//85
f 40//34 49//34 48//34
f 41//35 50//35 49//35
f 42//36 51//36 50//36
f 42//37 43//37 52//37
f 43//86 44//86 53//86
f 44//87 45//87 54//87
f 46//88 47//88 56//88
f 47//89 48//89 57//89
f 48//42 49//42 58//42
f 49//43 50//43 59//43
f 50//44 51//44 60//44
f 52//45 61//45 60//45
f 53//90 62//90 61//90
f 54//91 63//91 62//91
f 55//92 56//92 65//92
f 57//93 66//93 65//93
f 57//94 58//94 67//94
f 58//95 59//95 68//95
f 59//96 60//96 69//96
f 61//97 70//97 69//97
f 62//98 71//98 70//98
f 63//99 72//99 71//99
f 64//100 65//100 74//100
f 66//57 75//57 74//57
f 66//101 67//101 76//101
f 67//102 68//102 77//102
f 68//103 69//103 78//103
f 70//104 79//104 78//104
f 71//105 80//105 79//105
f 72//1 81//1 80//1
