# Blender 5.2.1 LTS
# www.blender.org
mtllib vegetation_mat_c.mtl
o vegetation_mat_c
v -2.200000 -0.000000 -0.700000
v 0.051670 0.040000 -0.700000
v -0.250000 0.040000 0.036120
v -1.074170 0.040000 0.575000
v -2.200000 0.040000 0.772240
v -3.325830 0.040000 0.575000
v -4.150000 0.040000 0.036120
v -4.451670 0.040000 -0.700000
v -4.150000 0.040000 -1.436120
v -3.325830 0.040000 -1.975000
v -2.200000 0.040000 -2.172240
v -1.074170 0.040000 -1.975000
v -0.250000 0.040000 -1.436120
v 0.051670 0.120000 -0.700000
v -0.250000 0.120000 0.036120
v -1.074170 0.120000 0.575000
v -2.200000 0.120000 0.772240
v -3.325830 0.120000 0.575000
v -4.150000 0.120000 0.036120
v -4.451670 0.120000 -0.700000
v -4.150000 0.120000 -1.436120
v -3.325830 0.120000 -1.975000
v -2.200000 0.120000 -2.172240
v -1.074170 0.120000 -1.975000
v -0.250000 0.120000 -1.436120
v -2.200000 0.160000 -0.700000
v 1.000000 0.000000 0.300000
v 3.598080 0.040000 0.300000
v 3.250000 0.040000 1.122720
v 2.299040 0.040000 1.725000
v 1.000000 0.040000 1.945450
v -0.299040 0.040000 1.725000
v -1.250000 0.040000 1.122720
v -1.598080 0.040000 0.300000
v -1.250000 0.040000 -0.522720
v -0.299040 0.040000 -1.125000
v 1.000000 0.040000 -1.345450
v 2.299040 0.040000 -1.125000
v 3.250000 0.040000 -0.522720
v 3.598080 0.120000 0.300000
v 3.250000 0.120000 1.122720
v 2.299040 0.120000 1.725000
v 1.000000 0.120000 1.945450
v -0.299040 0.120000 1.725000
v -1.250000 0.120000 1.122720
v -1.598080 0.120000 0.300000
v -1.250000 0.120000 -0.522720
v -0.299040 0.120000 -1.125000
v 1.000000 0.120000 -1.345450
v 2.299040 0.120000 -1.125000
v 3.250000 0.120000 -0.522720
v 1.000000 0.160000 0.300000
v 2.600000 -0.000000 -1.100000
v 4.245450 0.040000 -1.100000
v 4.025000 0.040000 -0.537080
v 3.422720 0.040000 -0.125000
v 2.600000 0.040000 0.025830
v 1.777280 0.040000 -0.125000
v 1.175000 0.040000 -0.537080
v 0.954550 0.040000 -1.100000
v 1.175000 0.040000 -1.662920
v 1.777280 0.040000 -2.075000
v 2.600000 0.040000 -2.225830
v 3.422720 0.040000 -2.075000
v 4.025000 0.040000 -1.662920
v 4.245450 0.120000 -1.100000
v 4.025000 0.120000 -0.537080
v 3.422720 0.120000 -0.125000
v 2.600000 0.120000 0.025830
v 1.777280 0.120000 -0.125000
v 1.175000 0.120000 -0.537080
v 0.954550 0.120000 -1.100000
v 1.175000 0.120000 -1.662920
v 1.777280 0.120000 -2.075000
v 2.600000 0.120000 -2.225830
v 3.422720 0.120000 -2.075000
v 4.025000 0.120000 -1.662920
v 2.600000 0.160000 -1.100000
v -0.300000 0.000000 1.700000
v 1.778460 0.040000 1.700000
v 1.500000 0.040000 2.176310
v 0.739230 0.040000 2.525000
v -0.300000 0.040000 2.652630
v -1.339230 0.040000 2.525000
v -2.100000 0.040000 2.176310
v -2.378460 0.040000 1.700000
v -2.100000 0.040000 1.223690
v -1.339230 0.040000 0.875000
v -0.300000 0.040000 0.747370
v 0.739230 0.040000 0.875000
v 1.500000 0.040000 1.223690
v 1.778460 0.120000 1.700000
v 1.500000 0.120000 2.176310
v 0.739230 0.120000 2.525000
v -0.300000 0.120000 2.652630
v -1.339230 0.120000 2.525000
v -2.100000 0.120000 2.176310
v -2.378460 0.120000 1.700000
v -2.100000 0.120000 1.223690
v -1.339230 0.120000 0.875000
v -0.300000 0.120000 0.747370
v 0.739230 0.120000 0.875000
v 1.500000 0.120000 1.223690
v -0.300000 0.160000 1.700000
v -0.825020 0.051000 -0.351230
v -0.938810 0.641000 -0.407390
v -0.905810 0.040060 -0.302480
v -1.019610 0.630060 -0.358630
v -0.905810 0.049060 -0.207910
v -1.019610 0.639060 -0.264060
v -0.825020 0.069000 -0.162090
v -0.938810 0.659000 -0.218240
v -0.744220 0.079940 -0.210850
v -0.858020 0.669940 -0.267000
v -0.744220 0.070940 -0.305420
v -0.858020 0.660940 -0.361570
v -0.938810 0.570000 -0.312820
v -0.748290 0.635000 -0.312820
v -0.820020 0.635000 -0.163860
v -0.981210 0.635000 -0.127070
v -1.110470 0.635000 -0.230150
v -1.110470 0.635000 -0.395480
v -0.981210 0.635000 -0.498570
v -0.820020 0.635000 -0.461780
v -0.748290 0.765000 -0.312820
v -0.820020 0.765000 -0.163860
v -0.981210 0.765000 -0.127070
v -1.110470 0.765000 -0.230150
v -1.110470 0.765000 -0.395480
v -0.981210 0.765000 -0.498570
v -0.820020 0.765000 -0.461780
v -0.938810 0.830000 -0.312820
v 2.552160 0.058780 -0.539950
v 2.629070 1.348780 -0.562420
v 2.491640 0.063000 -0.505020
v 2.568560 1.353000 -0.527490
v 2.491640 0.064220 -0.435030
v 2.568560 1.354220 -0.457500
v 2.552160 0.061220 -0.399980
v 2.629070 1.351220 -0.422440
v 2.612670 0.057000 -0.434910
v 2.689580 1.347000 -0.457370
v 2.612670 0.055780 -0.504900
v 2.689580 1.345780 -0.527360
v -2.276100 0.080320 2.305180
v -2.410070 0.810320 2.526650
v -2.335810 0.060130 2.335630
v -2.469780 0.790130 2.557100
v -2.335810 0.039800 2.402610
v -2.469780 0.769800 2.624080
v -2.276100 0.039680 2.439150
v -2.410070 0.769680 2.660620
v -2.216390 0.059870 2.408700
v -2.350360 0.789870 2.630170
v -2.216390 0.080200 2.341720
v -2.350360 0.810200 2.563190
v -0.475500 0.047740 -1.558660
v -0.526710 1.477740 -1.813110
v -0.536090 0.051770 -1.523820
v -0.587290 1.481770 -1.778280
v -0.536090 0.064030 -1.454910
v -0.587290 1.494030 -1.709360
v -0.475500 0.072260 -1.420820
v -0.526710 1.502260 -1.675280
v -0.414920 0.068230 -1.455650
v -0.466120 1.498230 -1.710110
v -0.414920 0.055970 -1.524570
v -0.466120 1.485970 -1.779030
v -0.526710 1.410000 -1.744190
v -0.336180 1.475000 -1.744190
v -0.407920 1.475000 -1.595230
v -0.569100 1.475000 -1.558450
v -0.698360 1.475000 -1.661530
v -0.698360 1.475000 -1.826860
v -0.569100 1.475000 -1.929940
v -0.407920 1.475000 -1.893150
v -0.336180 1.605000 -1.744190
v -0.407920 1.605000 -1.595230
v -0.569100 1.605000 -1.558450
v -0.698360 1.605000 -1.661530
v -0.698360 1.605000 -1.826860
v -0.569100 1.605000 -1.929940
v -0.407920 1.605000 -1.893150
v -0.526710 1.670000 -1.744190
v 3.353570 0.065180 1.445440
v 3.418770 0.935180 1.492940
v 3.271530 0.068720 1.493210
v 3.336720 0.938720 1.540700
v 3.271530 0.063540 1.588070
v 3.336720 0.933540 1.635560
v 3.353570 0.054820 1.635160
v 3.418770 0.924820 1.682660
v 3.435620 0.051280 1.587400
v 3.500810 0.921280 1.634890
v 3.435620 0.056460 1.492540
v 3.500810 0.926460 1.540030
v 3.338980 0.511500 1.582870
v 3.688980 0.725400 1.702870
v 3.369330 0.474450 1.560400
v 3.719330 0.688350 1.680400
v 3.377900 0.488600 1.510160
v 3.727900 0.702500 1.630160
v 3.352860 0.534400 1.501570
v 3.702860 0.748300 1.621570
v 3.328800 0.548550 1.546510
v 3.678800 0.762450 1.666510
v -2.148220 0.060630 0.083640
v -2.273460 1.630630 0.097850
v -2.208650 0.055500 0.118600
v -2.333890 1.625500 0.132810
v -2.208650 0.054860 0.188600
v -2.333890 1.624860 0.202800
v -2.148220 0.059370 0.223640
v -2.273460 1.629370 0.237850
v -2.087790 0.064500 0.188680
v -2.213030 1.634500 0.202890
v -2.087790 0.065140 0.118690
v -2.213030 1.635140 0.132890
v 2.558140 0.045010 -1.924910
v 2.750450 1.055010 -2.146290
v 2.498540 0.063330 -1.893100
v 2.690850 1.073330 -2.114480
v 2.498540 0.078320 -1.824720
v 2.690850 1.088320 -2.046100
v 2.558140 0.074990 -1.788160
v 2.750450 1.084990 -2.009540
v 2.617740 0.056670 -1.819980
v 2.810050 1.066670 -2.041360
v 2.617740 0.041680 -1.888350
v 2.810050 1.051680 -2.109730
v 2.750450 0.990000 -2.077920
v 2.940970 1.055000 -2.077920
v 2.869240 1.055000 -1.928960
v 2.708050 1.055000 -1.892170
v 2.578790 1.055000 -1.995250
v 2.578790 1.055000 -2.160580
v 2.708050 1.055000 -2.263670
v 2.869240 1.055000 -2.226880
v 2.940970 1.185000 -2.077920
v 2.869240 1.185000 -1.928960
v 2.708050 1.185000 -1.892170
v 2.578790 1.185000 -1.995250
v 2.578790 1.185000 -2.160580
v 2.708050 1.185000 -2.263670
v 2.869240 1.185000 -2.226880
v 2.750450 1.250000 -2.077920
v 0.052330 0.068320 1.136440
v 0.057940 1.778320 1.341140
v -0.008290 0.064360 1.171220
v -0.002690 1.774360 1.375920
v -0.008290 0.056040 1.240720
v -0.002690 1.766040 1.445420
v 0.052330 0.051680 1.275450
v 0.057940 1.761680 1.480150
v 0.112960 0.055640 1.240680
v 0.118560 1.765640 1.445380
v 0.112960 0.063960 1.171170
v 0.118560 1.773960 1.375870
v -2.542420 0.056420 -1.748080
v -2.584440 1.206420 -1.791430
v -2.624640 0.055210 -1.700500
v -2.666660 1.205210 -1.743850
v -2.624640 0.058790 -1.605570
v -2.666660 1.208790 -1.648910
v -2.542420 0.063580 -1.558220
v -2.584440 1.213580 -1.601560
v -2.460200 0.064790 -1.605800
v -2.502230 1.214790 -1.649140
v -2.460200 0.061210 -1.700730
v -2.502230 1.211210 -1.744070
v -2.557010 0.665500 -1.610580
v -2.207010 0.943800 -1.490580
v -2.522590 0.631300 -1.631650
v -2.172590 0.909600 -1.511650
v -2.515570 0.644360 -1.682430
v -2.165570 0.922660 -1.562430
v -2.545650 0.686640 -1.692740
v -2.195650 0.964940 -1.572740
v -2.571270 0.699700 -1.648340
v -2.221270 0.978000 -1.528340
v 1.662370 0.061290 -0.008860
v 1.848110 0.651290 0.001970
v 1.604550 0.078840 0.026470
v 1.790280 0.668840 0.037300
v 1.604550 0.077550 0.096450
v 1.790280 0.667550 0.107290
v 1.662370 0.058710 0.131110
v 1.848110 0.648710 0.141950
v 1.720200 0.041160 0.095790
v 1.905940 0.631160 0.106620
v 1.720200 0.042450 0.025800
v 1.905940 0.632450 0.036630
v 1.848110 0.570000 0.071960
v 2.038640 0.635000 0.071960
v 1.966900 0.635000 0.220920
v 1.805710 0.635000 0.257710
v 1.676450 0.635000 0.154620
v 1.676450 0.635000 -0.010710
v 1.805710 0.635000 -0.113790
v 1.966900 0.635000 -0.077000
v 2.038640 0.765000 0.071960
v 1.966900 0.765000 0.220920
v 1.805710 0.765000 0.257710
v 1.676450 0.765000 0.154620
v 1.676450 0.765000 -0.010710
v 1.805710 0.765000 -0.113790
v 1.966900 0.765000 -0.077000
v 1.848110 0.830000 0.071960
v -2.637560 0.070120 1.287340
v -2.868510 1.360120 1.475770
v -2.697250 0.054590 1.320450
v -2.928200 1.344590 1.508870
v -2.697250 0.044480 1.389710
v -2.928200 1.334480 1.578140
v -2.637560 0.049880 1.425870
v -2.868510 1.339880 1.614300
v -2.577860 0.065410 1.392770
v -2.808820 1.355410 1.581200
v -2.577860 0.075520 1.323500
v -2.808820 1.365520 1.511930
v 0.203130 0.046630 -0.952680
v 0.223710 0.776630 -1.094720
v 0.142530 0.054960 -0.918650
v 0.163110 0.784960 -1.060690
v 0.142530 0.068330 -0.849940
v 0.163110 0.798330 -0.991980
v 0.203130 0.073370 -0.815260
v 0.223710 0.803370 -0.957300
v 0.263730 0.065040 -0.849300
v 0.284310 0.795040 -0.991340
v 0.263730 0.051670 -0.918010
v 0.284310 0.781670 -1.060050
v 1.778460 0.063910 1.548440
v 1.818660 1.493910 1.607360
v 1.696220 0.064260 1.595990
v 1.736420 1.494260 1.654910
v 1.696220 0.060350 1.690910
v 1.736420 1.490350 1.749830
v 1.778460 0.056090 1.738280
v 1.818660 1.486090 1.797200
v 1.860700 0.055740 1.690720
v 1.900900 1.485740 1.749640
v 1.860700 0.059650 1.595800
v 1.900900 1.489650 1.654720
v 1.818660 1.410000 1.702280
v 2.009180 1.475000 1.702280
v 1.937450 1.475000 1.851240
v 1.776260 1.475000 1.888030
v 1.647000 1.475000 1.784940
v 1.647000 1.475000 1.619610
v 1.776260 1.475000 1.516530
v 1.937450 1.475000 1.553320
v 2.009180 1.605000 1.702280
v 1.937450 1.605000 1.851240
v 1.776260 1.605000 1.888030
v 1.647000 1.605000 1.784940
v 1.647000 1.605000 1.619610
v 1.776260 1.605000 1.516530
v 1.937450 1.605000 1.553320
v 1.818660 1.670000 1.702280
v -1.137770 0.055530 -0.237410
v -1.375840 0.925530 -0.293030
v -1.196250 0.041830 -0.201470
v -1.434320 0.911830 -0.257080
v -1.196250 0.046300 -0.131610
v -1.434320 0.916300 -0.187220
v -1.137770 0.064470 -0.097700
v -1.375840 0.934470 -0.153310
v -1.079290 0.078170 -0.133650
v -1.317360 0.948170 -0.189260
v -1.079290 0.073700 -0.203500
v -1.317360 0.943700 -0.259120
v 2.532810 0.054070 -0.969450
v 2.769830 1.624070 -1.103000
v 2.472870 0.066020 -0.935340
v 2.709890 1.636020 -1.068890
v 2.472870 0.071950 -0.865590
v 2.709890 1.641950 -0.999140
v 2.532810 0.065930 -0.829960
v 2.769830 1.635930 -0.963510
v 2.592760 0.053980 -0.864070
v 2.829780 1.623980 -0.997610
v 2.592760 0.048050 -0.933810
v 2.829780 1.618050 -1.067360
v -0.285110 0.066030 0.481710
v -0.313560 1.076030 0.568990
v -0.345710 0.061320 0.516430
v -0.374160 1.071320 0.603710
v -0.345710 0.055290 0.586170
v -0.374160 1.065290 0.673450
v -0.285110 0.053970 0.621190
v -0.313560 1.063970 0.708470
v -0.224510 0.058680 0.586460
v -0.252960 1.068680 0.673740
v -0.224510 0.064710 0.516720
v -0.252960 1.074710 0.604000
v -0.313560 0.990000 0.638730
v -0.123040 1.055000 0.638730
v -0.194770 1.055000 0.787680
v -0.355960 1.055000 0.824470
v -0.485220 1.055000 0.721390
v -0.485220 1.055000 0.556060
v -0.355960 1.055000 0.452980
v -0.194770 1.055000 0.489770
v -0.123040 1.185000 0.638730
v -0.194770 1.185000 0.787680
v -0.355960 1.185000 0.824470
v -0.485220 1.185000 0.721390
v -0.485220 1.185000 0.556060
v -0.355960 1.185000 0.452980
v -0.194770 1.185000 0.489770
v -0.313560 1.250000 0.638730
v -1.102330 0.054410 -1.620190
v -1.148220 1.764410 -1.720900
v -1.184580 0.055010 -1.572640
v -1.230460 1.765010 -1.673350
v -1.184580 0.060590 -1.477800
v -1.230460 1.770590 -1.578520
v -1.102330 0.065590 -1.430510
v -1.148220 1.775590 -1.531230
v -1.020090 0.064990 -1.478060
v -1.065980 1.774990 -1.578780
v -1.020090 0.059410 -1.572900
v -1.065980 1.769410 -1.673610
v -1.116930 0.973500 -1.482780
v -0.766930 1.380600 -1.362780
v -1.076880 0.944720 -1.501920
v -0.726880 1.351820 -1.381920
v -1.072010 0.955710 -1.553440
v -0.722010 1.362810 -1.433440
v -1.109040 0.991290 -1.566140
v -0.759040 1.398390 -1.446140
v -1.136800 1.002280 -1.522470
v -0.786800 1.409380 -1.402470
v 4.049250 0.066760 1.011750
v 4.312660 1.216760 1.123330
v 3.990150 0.076790 1.047880
v 4.253550 1.226790 1.159470
v 3.990150 0.070030 1.117560
v 4.253550 1.220030 1.229140
v 4.049250 0.053240 1.151090
v 4.312660 1.203240 1.262670
v 4.108360 0.043210 1.114950
v 4.371760 1.193210 1.226540
v 4.108360 0.049970 1.045280
v 4.371760 1.199970 1.156860
v -2.270890 0.068760 0.440020
v -2.480040 0.658760 0.514450
v -2.328080 0.044430 0.472230
v -2.537230 0.634430 0.546660
v -2.328080 0.035660 0.541680
v -2.537230 0.625660 0.616110
v -2.270890 0.051240 0.578920
v -2.480040 0.641240 0.653350
v -2.213700 0.075570 0.546720
v -2.422850 0.665570 0.621140
v -2.213700 0.084340 0.477270
v -2.422850 0.674340 0.551690
v -2.480040 0.570000 0.583900
v -2.289510 0.635000 0.583900
v -2.361250 0.635000 0.732860
v -2.522430 0.635000 0.769650
v -2.651700 0.635000 0.666570
v -2.651700 0.635000 0.501240
v -2.522430 0.635000 0.398150
v -2.361250 0.635000 0.434940
v -2.289510 0.765000 0.583900
v -2.361250 0.765000 0.732860
v -2.522430 0.765000 0.769650
v -2.651700 0.765000 0.666570
v -2.651700 0.765000 0.501240
v -2.522430 0.765000 0.398150
v -2.361250 0.765000 0.434940
v -2.480040 0.830000 0.583900
v -2.800000 0.060000 1.100000
v -2.436270 0.150000 1.100000
v -2.542800 0.150000 1.357200
v -2.800000 0.150000 1.463730
v -3.057200 0.150000 1.357200
v -3.163730 0.150000 1.100000
v -3.057200 0.150000 0.842800
v -2.800000 0.150000 0.736270
v -2.542800 0.150000 0.842800
v -2.436270 0.330000 1.100000
v -2.542800 0.330000 1.357200
v -2.800000 0.330000 1.463730
v -3.057200 0.330000 1.357200
v -3.163730 0.330000 1.100000
v -3.057200 0.330000 0.842800
v -2.800000 0.330000 0.736270
v -2.542800 0.330000 0.842800
v -2.800000 0.420000 1.100000
v -1.100000 0.060000 -1.400000
v -0.788230 0.150000 -1.400000
v -0.879550 0.150000 -1.179550
v -1.100000 0.150000 -1.088230
v -1.320450 0.150000 -1.179550
v -1.411770 0.150000 -1.400000
v -1.320450 0.150000 -1.620450
v -1.100000 0.150000 -1.711770
v -0.879550 0.150000 -1.620450
v -0.788230 0.330000 -1.400000
v -0.879550 0.330000 -1.179550
v -1.100000 0.330000 -1.088230
v -1.320450 0.330000 -1.179550
v -1.411770 0.330000 -1.400000
v -1.320450 0.330000 -1.620450
v -1.100000 0.330000 -1.711770
v -0.879550 0.330000 -1.620450
v -1.100000 0.420000 -1.400000
v 0.700000 0.060000 1.600000
v 1.133010 0.150000 1.600000
v 1.006190 0.150000 1.906190
v 0.700000 0.150000 2.033010
v 0.393810 0.150000 1.906190
v 0.266990 0.150000 1.600000
v 0.393810 0.150000 1.293810
v 0.700000 0.150000 1.166990
v 1.006190 0.150000 1.293810
v 1.133010 0.330000 1.600000
v 1.006190 0.330000 1.906190
v 0.700000 0.330000 2.033010
v 0.393810 0.330000 1.906190
v 0.266990 0.330000 1.600000
v 0.393810 0.330000 1.293810
v 0.700000 0.330000 1.166990
v 1.006190 0.330000 1.293810
v 0.700000 0.420000 1.600000
v 2.800000 0.060000 0.900000
v 3.094450 0.150000 0.900000
v 3.008210 0.150000 1.108210
v 2.800000 0.150000 1.194450
v 2.591790 0.150000 1.108210
v 2.505550 0.150000 0.900000
v 2.591790 0.150000 0.691790
v 2.800000 0.150000 0.605550
v 3.008210 0.150000 0.691790
v 3.094450 0.330000 0.900000
v 3.008210 0.330000 1.108210
v 2.800000 0.330000 1.194450
v 2.591790 0.330000 1.108210
v 2.505550 0.330000 0.900000
v 2.591790 0.330000 0.691790
v 2.800000 0.330000 0.605550
v 3.008210 0.330000 0.691790
v 2.800000 0.420000 0.900000
vn -0.0000 -1.0000 -0.0000
vn 0.7803 -0.6254 -0.0000
vn 0.5931 -0.6396 0.4890
vn 0.2778 -0.6563 0.7015
vn -0.0000 -0.6611 0.7503
vn -0.2778 -0.6563 0.7015
vn -0.5931 -0.6396 0.4890
vn -0.7803 -0.6254 -0.0000
vn -0.5931 -0.6396 -0.4890
vn -0.2778 -0.6563 -0.7015
vn -0.0000 -0.6611 -0.7503
vn 0.2778 -0.6563 -0.7015
vn 0.5931 -0.6396 -0.4890
vn 0.7803 0.6254 -0.0000
vn 0.5931 0.6396 0.4890
vn 0.2778 0.6563 0.7015
vn -0.0000 0.6611 0.7503
vn -0.2778 0.6563 0.7015
vn -0.5931 0.6396 0.4890
vn -0.7803 0.6254 -0.0000
vn -0.5931 0.6396 -0.4890
vn -0.2778 0.6563 -0.7015
vn -0.0000 0.6611 -0.7503
vn 0.2778 0.6563 -0.7015
vn 0.5931 0.6396 -0.4890
vn -0.0000 1.0000 -0.0000
vn 0.7812 -0.6243 -0.0000
vn 0.5864 -0.6401 0.4964
vn 0.2702 -0.6581 0.7028
vn -0.0000 -0.6632 0.7485
vn -0.2702 -0.6581 0.7028
vn -0.5864 -0.6401 0.4964
vn -0.7812 -0.6243 -0.0000
vn -0.5864 -0.6401 -0.4964
vn -0.2702 -0.6581 -0.7028
vn -0.0000 -0.6632 -0.7485
vn 0.2702 -0.6581 -0.7028
vn 0.5864 -0.6401 -0.4964
vn 0.7812 0.6243 -0.0000
vn 0.5864 0.6401 0.4964
vn 0.2702 0.6581 0.7028
vn -0.0000 0.6632 0.7485
vn -0.2702 0.6581 0.7028
vn -0.5864 0.6401 0.4964
vn -0.7812 0.6243 -0.0000
vn -0.5864 0.6401 -0.4964
vn -0.2702 0.6581 -0.7028
vn -0.0000 0.6632 -0.7485
vn 0.2702 0.6581 -0.7028
vn 0.5864 0.6401 -0.4964
vn 0.7799 -0.6259 -0.0000
vn 0.6032 -0.6378 0.4789
vn 0.2893 -0.6524 0.7005
vn -0.0000 -0.6568 0.7541
vn -0.2893 -0.6524 0.7005
vn -0.6032 -0.6378 0.4789
vn -0.7799 -0.6259 -0.0000
vn -0.6032 -0.6378 -0.4789
vn -0.2893 -0.6524 -0.7005
vn -0.0000 -0.6568 -0.7541
vn 0.2893 -0.6524 -0.7005
vn 0.6032 -0.6378 -0.4789
vn 0.7799 0.6259 -0.0000
vn 0.6032 0.6378 0.4789
vn 0.2893 0.6524 0.7005
vn -0.0000 0.6568 0.7541
vn -0.2893 0.6524 0.7005
vn -0.6032 0.6378 0.4789
vn -0.7799 0.6259 -0.0000
vn -0.6032 0.6378 -0.4789
vn -0.2893 0.6524 -0.7005
vn -0.0000 0.6568 -0.7541
vn 0.2893 0.6524 -0.7005
vn 0.6032 0.6378 -0.4789
vn 0.7973 -0.6035 -0.0000
vn 0.5181 -0.6374 0.5703
vn 0.2054 -0.6621 0.7207
vn -0.0000 -0.6663 0.7457
vn -0.2054 -0.6621 0.7207
vn -0.5181 -0.6374 0.5703
vn -0.7973 -0.6035 -0.0000
vn -0.5181 -0.6374 -0.5703
vn -0.2054 -0.6621 -0.7207
vn -0.0000 -0.6663 -0.7457
vn 0.2054 -0.6621 -0.7207
vn 0.5181 -0.6374 -0.5703
vn 0.7973 0.6035 -0.0000
vn 0.5181 0.6374 0.5703
vn 0.2054 0.6621 0.7207
vn -0.0000 0.6663 0.7457
vn -0.2054 0.6621 0.7207
vn -0.5181 0.6374 0.5703
vn -0.7973 0.6035 -0.0000
vn -0.5181 0.6374 -0.5703
vn -0.2054 0.6621 -0.7207
vn -0.0000 0.6663 -0.7457
vn 0.2054 0.6621 -0.7207
vn 0.5181 0.6374 -0.5703
vn 0.1150 -0.6714 -0.7321
vn -0.1150 0.5213 -0.8456
vn -0.5589 -0.7627 -0.3254
vn -0.7890 0.4300 -0.4389
vn -0.5589 -0.6876 0.4634
vn -0.7889 0.5051 0.3499
vn 0.1150 -0.5213 0.8456
vn -0.1150 0.6714 0.7321
vn 0.7890 -0.4300 0.4389
vn 0.5589 0.7627 0.3254
vn 0.7889 -0.5051 -0.3500
vn 0.5589 0.6876 -0.4634
vn 0.8566 -0.5160 -0.0000
vn 0.5341 -0.5160 0.6697
vn -0.1906 -0.5160 0.8351
vn -0.7717 -0.5160 0.3717
vn -0.7717 -0.5160 -0.3716
vn -0.1906 -0.5160 -0.8351
vn 0.5341 -0.5160 -0.6697
vn 0.8566 0.5160 -0.0000
vn 0.5341 0.5160 0.6697
vn -0.1906 0.5160 0.8351
vn -0.7717 0.5160 0.3716
vn -0.7717 0.5160 -0.3716
vn -0.1906 0.5160 -0.8351
vn 0.5341 0.5160 -0.6697
vn -0.0363 -0.6226 -0.7817
vn 0.0363 0.5950 -0.8029
vn -0.7213 -0.5749 -0.3863
vn -0.6487 0.6428 -0.4075
vn -0.7213 -0.5611 0.4061
vn -0.6487 0.6566 0.3848
vn -0.0363 -0.5950 0.8029
vn 0.0363 0.6226 0.7817
vn 0.6487 -0.6428 0.4075
vn 0.7213 0.5749 0.3862
vn 0.6487 -0.6566 -0.3848
vn 0.7214 0.5611 -0.4060
vn 0.1055 -0.3449 -0.9327
vn -0.1055 0.8049 -0.5839
vn -0.5705 -0.5734 -0.5881
vn -0.7814 0.5764 -0.2392
vn -0.5704 -0.8035 0.1702
vn -0.7815 0.3462 0.5191
vn 0.1055 -0.8049 0.5839
vn -0.1055 0.3449 0.9327
vn 0.7814 -0.5764 0.2392
vn 0.5704 0.5734 0.5880
vn 0.7815 -0.3462 -0.5191
vn 0.5704 0.8035 -0.1702
vn 0.0215 -0.7390 -0.6734
vn -0.0215 0.4614 -0.8869
vn -0.6643 -0.6934 -0.2790
vn -0.7073 0.5070 -0.4926
vn -0.6644 -0.5546 0.5011
vn -0.7073 0.6458 0.2875
vn 0.0215 -0.4614 0.8869
vn -0.0215 0.7390 0.6734
vn 0.7073 -0.5070 0.4926
vn 0.6643 0.6934 0.2791
vn 0.7073 -0.6458 -0.2875
vn 0.6643 0.5546 -0.5011
vn 0.5340 -0.5160 0.6697
vn 0.5340 -0.5160 -0.6697
vn 0.5340 0.5160 0.6697
vn -0.7717 0.5160 -0.3717
vn -0.0455 -0.5642 -0.8244
vn 0.0455 0.6506 -0.7580
vn -0.7299 -0.5347 -0.4260
vn -0.6388 0.6801 -0.3597
vn -0.7298 -0.5779 0.3653
vn -0.6388 0.6369 0.4316
vn -0.0455 -0.6506 0.7580
vn 0.0455 0.5642 0.8244
vn 0.6388 -0.6801 0.3597
vn 0.7299 0.5347 0.4260
vn 0.6388 -0.6369 -0.4316
vn 0.7298 0.5779 -0.3653
vn -0.7483 -0.2982 0.5925
vn 0.2274 0.2981 0.9271
vn -0.2066 -0.9595 0.1915
vn 0.7691 -0.3632 0.5260
vn -0.0537 -0.7069 -0.7053
vn 0.9221 -0.1106 -0.3708
vn -0.5006 0.1106 -0.8586
vn 0.4751 0.7069 -0.5241
vn -0.9300 0.3631 -0.0565
vn 0.0456 0.9595 0.2781
vn 0.0485 -0.6009 -0.7979
vn -0.0485 0.6151 -0.7869
vn -0.6356 -0.6589 -0.4022
vn -0.7326 0.5571 -0.3912
vn -0.6356 -0.6662 0.3902
vn -0.7326 0.5498 0.4012
vn 0.0485 -0.6151 0.7869
vn -0.0485 0.6009 0.7979
vn 0.7326 -0.5571 0.3912
vn 0.6356 0.6589 0.4022
vn 0.7326 -0.5498 -0.4012
vn 0.6356 0.6662 -0.3902
vn -0.1115 -0.7555 -0.6456
vn 0.1116 0.4161 -0.9024
vn -0.7862 -0.5481 -0.2855
vn -0.5631 0.6235 -0.5423
vn -0.7862 -0.3784 0.4886
vn -0.5632 0.7932 0.2317
vn -0.1115 -0.4161 0.9024
vn 0.1116 0.7555 0.6456
vn 0.5632 -0.6235 0.5423
vn 0.7862 0.5481 0.2854
vn 0.5631 -0.7932 -0.2317
vn 0.7862 0.3784 -0.4886
vn -0.0020 -0.5115 -0.8593
vn 0.0020 0.6998 -0.7143
vn -0.6883 -0.5563 -0.4656
vn -0.6842 0.6550 -0.3206
vn -0.6883 -0.6505 0.3212
vn -0.6842 0.5608 0.4662
vn -0.0021 -0.6999 0.7143
vn 0.0020 0.5115 0.8593
vn 0.6842 -0.6550 0.3207
vn 0.6882 0.5563 0.4657
vn 0.6842 -0.5608 -0.4662
vn 0.6883 0.6505 -0.3212
vn 0.0222 -0.6390 -0.7689
vn -0.0222 0.5793 -0.8148
vn -0.6635 -0.6491 -0.3720
vn -0.7080 0.5692 -0.4179
vn -0.6635 -0.6192 0.4198
vn -0.7080 0.5991 0.3739
vn 0.0223 -0.5793 0.8148
vn -0.0222 0.6390 0.7689
vn 0.7081 -0.5692 0.4179
vn 0.6635 0.6491 0.3720
vn 0.7080 -0.5991 -0.3739
vn 0.6635 0.6193 -0.4198
vn -0.7108 -0.3581 0.6054
vn 0.1899 0.3581 0.9142
vn -0.0964 -0.9686 0.2293
vn 0.8042 -0.2523 0.5381
vn 0.0288 -0.7354 -0.6770
vn 0.9295 -0.0193 -0.3683
vn -0.5080 0.0192 -0.8611
vn 0.3926 0.7354 -0.5523
vn -0.9652 0.2523 -0.0686
vn -0.0647 0.9686 0.2403
vn -0.1832 -0.5672 -0.8030
vn 0.1831 0.5963 -0.7816
vn -0.8377 -0.3685 -0.4030
vn -0.4715 0.7950 -0.3816
vn -0.8377 -0.3831 0.3892
vn -0.4715 0.7804 0.4106
vn -0.1832 -0.5963 0.7815
vn 0.1831 0.5672 0.8030
vn 0.4715 -0.7950 0.3817
vn 0.8377 0.3685 0.4030
vn 0.4715 -0.7804 -0.4106
vn 0.8377 0.3831 -0.3892
vn -0.7717 -0.5160 0.3716
vn 0.1064 -0.4798 -0.8709
vn -0.1064 0.7089 -0.6972
vn -0.5693 -0.6556 -0.4961
vn -0.7821 0.5331 -0.3226
vn -0.5693 -0.7700 0.2879
vn -0.7821 0.4187 0.4615
vn 0.1064 -0.7089 0.6972
vn -0.1064 0.4798 0.8709
vn 0.7821 -0.5331 0.3226
vn 0.5692 0.6556 0.4961
vn 0.7821 -0.4187 -0.4616
vn 0.5693 0.7700 -0.2879
vn -0.0169 -0.7499 -0.6613
vn 0.0169 0.4472 -0.8943
vn -0.7028 -0.6556 -0.2761
vn -0.6691 0.5415 -0.5090
vn -0.7029 -0.5042 0.5017
vn -0.6691 0.6928 0.2688
vn -0.0169 -0.4472 0.8943
vn 0.0169 0.7499 0.6614
vn 0.6691 -0.5415 0.5090
vn 0.7028 0.6556 0.2761
vn 0.6691 -0.6928 -0.2689
vn 0.7028 0.5042 -0.5018
vn -0.0171 -0.5766 -0.8168
vn 0.0171 0.6419 -0.7666
vn -0.7031 -0.5737 -0.4202
vn -0.6689 0.6448 -0.3700
vn -0.7031 -0.6063 0.3715
vn -0.6689 0.6122 0.4217
vn -0.0171 -0.6418 0.7666
vn 0.0171 0.5766 0.8168
vn 0.6689 -0.6448 0.3700
vn 0.7031 0.5737 0.4202
vn 0.6689 -0.6122 -0.4218
vn 0.7031 0.6063 -0.3716
vn 0.1607 -0.6378 -0.7532
vn -0.1607 0.5367 -0.8284
vn -0.5013 -0.7929 -0.3463
vn -0.8227 0.3816 -0.4214
vn -0.5013 -0.7424 0.4445
vn -0.8227 0.4321 0.3694
vn 0.1607 -0.5367 0.8283
vn -0.1607 0.6378 0.7532
vn 0.8227 -0.3816 0.4214
vn 0.5013 0.7929 0.3463
vn 0.8227 -0.4321 -0.3694
vn 0.5013 0.7424 -0.4445
vn -0.0908 -0.6682 -0.7385
vn 0.0907 0.5339 -0.8407
vn -0.7694 -0.5329 -0.3523
vn -0.5879 0.6692 -0.4545
vn -0.7693 -0.4657 0.4373
vn -0.5879 0.7363 0.3350
vn -0.0907 -0.5339 0.8407
vn 0.0907 0.6682 0.7384
vn 0.5879 -0.6692 0.4546
vn 0.7693 0.5329 0.3524
vn 0.5879 -0.7363 -0.3350
vn 0.7693 0.4657 -0.4372
vn 0.0171 -0.5392 -0.8420
vn -0.0171 0.6758 -0.7369
vn -0.6688 -0.5925 -0.4489
vn -0.7031 0.6224 -0.3439
vn -0.6689 -0.6608 0.3406
vn -0.7031 0.5542 0.4456
vn 0.0171 -0.6757 0.7370
vn -0.0171 0.5392 0.8420
vn 0.7031 -0.6224 0.3439
vn 0.6689 0.5926 0.4489
vn 0.7031 -0.5542 -0.4456
vn 0.6688 0.6608 -0.3406
vn 0.0164 -0.6553 -0.7552
vn -0.0163 0.5621 -0.8269
vn -0.6697 -0.6503 -0.3586
vn -0.7023 0.5671 -0.4303
vn -0.6697 -0.6038 0.4325
vn -0.7024 0.6136 0.3608
vn 0.0164 -0.5621 0.8269
vn -0.0163 0.6553 0.7552
vn 0.7023 -0.5671 0.4303
vn 0.6697 0.6503 0.3586
vn 0.7024 -0.6136 -0.3608
vn 0.6697 0.6038 -0.4324
vn -0.6395 -0.4408 0.6298
vn 0.1184 0.4409 0.8897
vn 0.0753 -0.9546 0.2882
vn 0.8333 -0.0729 0.5481
vn 0.1622 -0.7584 -0.6313
vn 0.9202 0.1232 -0.3715
vn -0.4987 -0.1233 -0.8579
vn 0.2592 0.7584 -0.5981
vn -0.9942 0.0729 -0.0785
vn -0.2363 0.9546 0.1814
vn -0.1356 -0.5154 -0.8461
vn 0.1356 0.6685 -0.7313
vn -0.8046 -0.4019 -0.4371
vn -0.5335 0.7820 -0.3222
vn -0.8047 -0.4784 0.3517
vn -0.5335 0.7055 0.4666
vn -0.1356 -0.6685 0.7313
vn 0.1356 0.5154 0.8461
vn 0.5335 -0.7820 0.3222
vn 0.8046 0.4019 0.4371
vn 0.5335 -0.7055 -0.4666
vn 0.8047 0.4784 -0.3517
vn 0.2024 -0.4717 -0.8582
vn -0.2024 0.6700 -0.7142
vn -0.4451 -0.7472 -0.4936
vn -0.8498 0.3946 -0.3496
vn -0.4450 -0.8464 0.2926
vn -0.8498 0.2953 0.4366
vn 0.2024 -0.6701 0.7142
vn -0.2023 0.4717 0.8582
vn 0.8497 -0.3946 0.3496
vn 0.4451 0.7472 0.4936
vn 0.8498 -0.2953 -0.4366
vn 0.4450 0.8464 -0.2926
vn -0.7717 0.5160 0.3717
vn 0.8337 -0.5522 -0.0000
vn 0.5895 -0.5522 0.5895
vn -0.0000 -0.5522 0.8337
vn -0.5895 -0.5522 0.5895
vn -0.8337 -0.5522 -0.0000
vn -0.5895 -0.5522 -0.5895
vn -0.0000 -0.5522 -0.8337
vn 0.5895 -0.5522 -0.5895
vn 0.8337 0.5522 -0.0000
vn 0.5895 0.5522 0.5895
vn -0.0000 0.5522 0.8337
vn -0.5895 0.5522 0.5895
vn -0.8337 0.5522 -0.0000
vn -0.5895 0.5522 -0.5895
vn -0.0000 0.5522 -0.8337
vn 0.5895 0.5522 -0.5895
vn 0.8422 -0.5392 -0.0000
vn 0.5955 -0.5392 0.5955
vn -0.0000 -0.5392 0.8422
vn -0.5955 -0.5392 0.5955
vn -0.8422 -0.5392 -0.0000
vn -0.5955 -0.5392 -0.5955
vn -0.0000 -0.5392 -0.8422
vn 0.5955 -0.5392 -0.5955
vn 0.8422 0.5392 -0.0000
vn 0.5955 0.5392 0.5955
vn -0.0000 0.5392 0.8422
vn -0.5955 0.5392 0.5955
vn -0.8422 0.5392 -0.0000
vn -0.5955 0.5392 -0.5955
vn -0.0000 0.5392 -0.8422
vn 0.5955 0.5392 -0.5955
vn 0.8253 -0.5647 -0.0000
vn 0.5835 -0.5647 0.5836
vn -0.0000 -0.5647 0.8253
vn -0.5836 -0.5647 0.5835
vn -0.8253 -0.5647 -0.0000
vn -0.5835 -0.5647 -0.5836
vn -0.0000 -0.5647 -0.8253
vn 0.5836 -0.5647 -0.5835
vn 0.8253 0.5647 -0.0000
vn 0.5836 0.5647 0.5835
vn -0.0000 0.5647 0.8253
vn -0.5835 0.5647 0.5836
vn -0.8253 0.5647 -0.0000
vn -0.5836 0.5647 -0.5835
vn -0.0000 0.5647 -0.8253
vn 0.5835 0.5647 -0.5836
vn 0.8455 -0.5339 -0.0000
vn 0.5979 -0.5339 0.5979
vn -0.0000 -0.5339 0.8455
vn -0.5979 -0.5339 0.5979
vn -0.8455 -0.5339 -0.0000
vn -0.5979 -0.5339 -0.5979
vn -0.0000 -0.5339 -0.8455
vn 0.5979 -0.5339 -0.5979
vn 0.8455 0.5339 -0.0000
vn 0.5979 0.5339 0.5979
vn -0.0000 0.5339 0.8455
vn -0.5979 0.5339 0.5979
vn -0.8455 0.5339 -0.0000
vn -0.5979 0.5339 -0.5979
vn -0.0000 0.5339 -0.8455
vn 0.5979 0.5339 -0.5979
s 1
usemtl verdant_growth
f 1//1 2//2 3//3
f 1//1 3//3 4//4
f 1//1 4//4 5//5
f 1//1 5//5 6//6
f 1//1 6//6 7//7
f 1//1 7//7 8//8
f 1//1 8//8 9//9
f 1//1 9//9 10//10
f 1//1 10//10 11//11
f 1//1 11//11 12//12
f 1//1 12//12 13//13
f 1//1 13//13 2//2
f 14//14 3//3 2//2
f 15//15 4//4 3//3
f 16//16 5//5 4//4
f 17//17 6//6 5//5
f 18//18 7//7 6//6
f 19//19 8//8 7//7
f 20//20 9//9 8//8
f 21//21 10//10 9//9
f 22//22 11//11 10//10
f 23//23 12//12 11//11
f 24//24 13//13 12//12
f 25//25 2//2 13//13
f 14//14 26//26 15//15
f 15//15 26//26 16//16
f 16//16 26//26 17//17
f 17//17 26//26 18//18
f 18//18 26//26 19//19
f 19//19 26//26 20//20
f 20//20 26//26 21//21
f 21//21 26//26 22//22
f 22//22 26//26 23//23
f 23//23 26//26 24//24
f 24//24 26//26 25//25
f 25//25 26//26 14//14
f 53//1 54//51 55//52
f 53//1 55//52 56//53
f 53//1 56//53 57//54
f 53//1 57//54 58//55
f 53//1 58//55 59//56
f 53//1 59//56 60//57
f 53//1 60//57 61//58
f 53//1 61//58 62//59
f 53//1 62//59 63//60
f 53//1 63//60 64//61
f 53//1 64//61 65//62
f 53//1 65//62 54//51
f 66//63 55//52 54//51
f 67//64 56//53 55//52
f 68//65 57//54 56//53
f 69//66 58//55 57//54
f 70//67 59//56 58//55
f 71//68 60//57 59//56
f 72//69 61//58 60//57
f 73//70 62//59 61//58
f 74//71 63//60 62//59
f 75//72 64//61 63//60
f 76//73 65//62 64//61
f 77//74 54//51 65//62
f 66//63 78//26 67//64
f 67//64 78//26 68//65
f 68//65 78//26 69//66
f 69//66 78//26 70//67
f 70//67 78//26 71//68
f 71//68 78//26 72//69
f 72//69 78//26 73//70
f 73//70 78//26 74//71
f 74//71 78//26 75//72
f 75//72 78//26 76//73
f 76//73 78//26 77//74
f 77//74 78//26 66//63
f 14//14 15//15 3//3
f 15//15 16//16 4//4
f 16//16 17//17 5//5
f 17//17 18//18 6//6
f 18//18 19//19 7//7
f 19//19 20//20 8//8
f 20//20 21//21 9//9
f 21//21 22//22 10//10
f 22//22 23//23 11//11
f 23//23 24//24 12//12
f 24//24 25//25 13//13
f 25//25 14//14 2//2
f 66//63 67//64 55//52
f 67//64 68//65 56//53
f 68//65 69//66 57//54
f 69//66 70//67 58//55
f 70//67 71//68 59//56
f 71//68 72//69 60//57
f 72//69 73//70 61//58
f 73//70 74//71 62//59
f 74//71 75//72 63//60
f 75//72 76//73 64//61
f 76//73 77//74 65//62
f 77//74 66//63 54//51
usemtl verdant_growth
f 27//1 28//27 29//28
f 27//1 29//28 30//29
f 27//1 30//29 31//30
f 27//1 31//30 32//31
f 27//1 32//31 33//32
f 27//1 33//32 34//33
f 27//1 34//33 35//34
f 27//1 35//34 36//35
f 27//1 36//35 37//36
f 27//1 37//36 38//37
f 27//1 38//37 39//38
f 27//1 39//38 28//27
f 40//39 29//28 28//27
f 41//40 30//29 29//28
f 42//41 31//30 30//29
f 43//42 32//31 31//30
f 44//43 33//32 32//31
f 45//44 34//33 33//32
f 46//45 35//34 34//33
f 47//46 36//35 35//34
f 48//47 37//36 36//35
f 49//48 38//37 37//36
f 50//49 39//38 38//37
f 51//50 28//27 39//38
f 40//39 52//26 41//40
f 41//40 52//26 42//41
f 42//41 52//26 43//42
f 43//42 52//26 44//43
f 44//43 52//26 45//44
f 45//44 52//26 46//45
f 46//45 52//26 47//46
f 47//46 52//26 48//47
f 48//47 52//26 49//48
f 49//48 52//26 50//49
f 50//49 52//26 51//50
f 51//50 52//26 40//39
f 79//1 80//75 81//76
f 79//1 81//76 82//77
f 79//1 82//77 83//78
f 79//1 83//78 84//79
f 79//1 84//79 85//80
f 79//1 85//80 86//81
f 79//1 86//81 87//82
f 79//1 87//82 88//83
f 79//1 88//83 89//84
f 79//1 89//84 90//85
f 79//1 90//85 91//86
f 79//1 91//86 80//75
f 92//87 81//76 80//75
f 93//88 82//77 81//76
f 94//89 83//78 82//77
f 95//90 84//79 83//78
f 96//91 85//80 84//79
f 97//92 86//81 85//80
f 98//93 87//82 86//81
f 99//94 88//83 87//82
f 100//95 89//84 88//83
f 101//96 90//85 89//84
f 102//97 91//86 90//85
f 103//98 80//75 91//86
f 92//87 104//26 93//88
f 93//88 104//26 94//89
f 94//89 104//26 95//90
f 95//90 104//26 96//91
f 96//91 104//26 97//92
f 97//92 104//26 98//93
f 98//93 104//26 99//94
f 99//94 104//26 100//95
f 100//95 104//26 101//96
f 101//96 104//26 102//97
f 102//97 104//26 103//98
f 103//98 104//26 92//87
f 40//39 41//40 29//28
f 41//40 42//41 30//29
f 42//41 43//42 31//30
f 43//42 44//43 32//31
f 44//43 45//44 33//32
f 45//44 46//45 34//33
f 46//45 47//46 35//34
f 47//46 48//47 36//35
f 48//47 49//48 37//36
f 49//48 50//49 38//37
f 50//49 51//50 39//38
f 51//50 40//39 28//27
f 92//87 93//88 81//76
f 93//88 94//89 82//77
f 94//89 95//90 83//78
f 95//90 96//91 84//79
f 96//91 97//92 85//80
f 97//92 98//93 86//81
f 98//93 99//94 87//82
f 99//94 100//95 88//83
f 100//95 101//96 89//84
f 101//96 102//97 90//85
f 102//97 103//98 91//86
f 103//98 92//87 80//75
usemtl verdant_growth
f 113//107 109//103 105//99
f 108//102 112//106 116//110
f 107//101 106//100 105//99
f 107//101 110//104 108//102
f 109//103 112//106 110//104
f 111//105 114//108 112//106
f 115//109 114//108 113//107
f 105//99 116//110 115//109
f 117//1 118//111 119//112
f 117//1 119//112 120//113
f 117//1 120//113 121//114
f 117//1 121//114 122//115
f 117//1 122//115 123//116
f 117//1 123//116 124//117
f 117//1 124//117 118//111
f 125//118 119//112 118//111
f 126//119 120//113 119//112
f 127//120 121//114 120//113
f 128//121 122//115 121//114
f 129//122 123//116 122//115
f 130//123 124//117 123//116
f 131//124 118//111 124//117
f 125//118 132//26 126//119
f 126//119 132//26 127//120
f 127//120 132//26 128//121
f 128//121 132//26 129//122
f 129//122 132//26 130//123
f 130//123 132//26 131//124
f 131//124 132//26 125//118
f 165//157 161//153 157//149
f 160//152 164//156 168//160
f 159//151 158//150 157//149
f 159//151 162//154 160//152
f 161//153 164//156 162//154
f 163//155 166//158 164//156
f 167//159 166//158 165//157
f 157//149 168//160 167//159
f 169//1 170//111 171//161
f 169//1 171//161 172//113
f 169//1 172//113 173//114
f 169//1 173//114 174//115
f 169//1 174//115 175//116
f 169//1 175//116 176//162
f 169//1 176//162 170//111
f 177//118 171//161 170//111
f 178//163 172//113 171//161
f 179//120 173//114 172//113
f 180//121 174//115 173//114
f 181//164 175//116 174//115
f 182//123 176//162 175//116
f 183//124 170//111 176//162
f 177//118 184//26 178//163
f 178//163 184//26 179//120
f 179//120 184//26 180//121
f 180//121 184//26 181//164
f 181//164 184//26 182//123
f 182//123 184//26 183//124
f 183//124 184//26 177//118
f 227//207 223//203 219//199
f 222//202 226//206 230//210
f 219//199 222//202 220//200
f 223//203 222//202 221//201
f 225//205 224//204 223//203
f 227//207 226//206 225//205
f 227//207 230//210 228//208
f 229//209 220//200 230//210
f 231//1 232//111 233//112
f 231//1 233//112 234//113
f 231//1 234//113 235//114
f 231//1 235//114 236//115
f 231//1 236//115 237//116
f 231//1 237//116 238//117
f 231//1 238//117 232//111
f 239//118 233//112 232//111
f 240//119 234//113 233//112
f 241//120 235//114 234//113
f 242//121 236//115 235//114
f 243//122 237//116 236//115
f 244//123 238//117 237//116
f 245//124 232//111 238//117
f 239//118 246//26 240//119
f 240//119 246//26 241//120
f 241//120 246//26 242//121
f 242//121 246//26 243//122
f 243//122 246//26 244//123
f 244//123 246//26 245//124
f 245//124 246//26 239//118
f 289//253 285//249 281//245
f 284//248 288//252 292//256
f 281//245 284//248 282//246
f 283//247 286//250 284//248
f 287//251 286//250 285//249
f 289//253 288//252 287//251
f 291//255 290//254 289//253
f 291//255 282//246 292//256
f 293//1 294//111 295//112
f 293//1 295//112 296//113
f 293//1 296//113 297//257
f 293//1 297//257 298//115
f 293//1 298//115 299//116
f 293//1 299//116 300//162
f 293//1 300//162 294//111
f 301//118 295//112 294//111
f 302//163 296//113 295//112
f 303//120 297//257 296//113
f 304//121 298//115 297//257
f 305//164 299//116 298//115
f 306//123 300//162 299//116
f 307//124 294//111 300//162
f 301//118 308//26 302//163
f 302//163 308//26 303//120
f 303//120 308//26 304//121
f 304//121 308//26 305//164
f 305//164 308//26 306//123
f 306//123 308//26 307//124
f 307//124 308//26 301//118
f 341//290 337//286 333//282
f 336//285 340//289 344//293
f 333//282 336//285 334//283
f 337//286 336//285 335//284
f 339//288 338//287 337//286
f 341//290 340//289 339//288
f 341//290 344//293 342//291
f 343//292 334//283 344//293
f 345//1 346//111 347//112
f 345//1 347//112 348//113
f 345//1 348//113 349//257
f 345//1 349//257 350//115
f 345//1 350//115 351//116
f 345//1 351//116 352//117
f 345//1 352//117 346//111
f 353//118 347//112 346//111
f 354//119 348//113 347//112
f 355//120 349//257 348//113
f 356//121 350//115 349//257
f 357//164 351//116 350//115
f 358//123 352//117 351//116
f 359//124 346//111 352//117
f 353//118 360//26 354//119
f 354//119 360//26 355//120
f 355//120 360//26 356//121
f 356//121 360//26 357//164
f 357//164 360//26 358//123
f 358//123 360//26 359//124
f 359//124 360//26 353//118
f 393//326 389//322 385//318
f 388//321 392//325 396//329
f 385//318 388//321 386//319
f 387//320 390//323 388//321
f 389//322 392//325 390//323
f 393//326 392//325 391//324
f 395//328 394//327 393//326
f 385//318 396//329 395//328
f 397//1 398//111 399//112
f 397//1 399//112 400//113
f 397//1 400//113 401//114
f 397//1 401//114 402//115
f 397//1 402//115 403//116
f 397//1 403//116 404//117
f 397//1 404//117 398//111
f 405//118 399//112 398//111
f 406//119 400//113 399//112
f 407//120 401//114 400//113
f 408//121 402//115 401//114
f 409//164 403//116 402//115
f 410//123 404//117 403//116
f 411//124 398//111 404//117
f 405//118 412//26 406//119
f 406//119 412//26 407//120
f 407//120 412//26 408//121
f 408//121 412//26 409//164
f 409//164 412//26 410//123
f 410//123 412//26 411//124
f 411//124 412//26 405//118
f 455//372 451//368 447//364
f 450//367 454//371 458//375
f 449//366 448//365 447//364
f 449//366 452//369 450//367
f 453//370 452//369 451//368
f 453//370 456//373 454//371
f 457//374 456//373 455//372
f 457//374 448//365 458//375
f 459//1 460//111 461//112
f 459//1 461//112 462//113
f 459//1 462//113 463//114
f 459//1 463//114 464//115
f 459//1 464//115 465//116
f 459//1 465//116 466//162
f 459//1 466//162 460//111
f 467//118 461//112 460//111
f 468//163 462//113 461//112
f 469//120 463//114 462//113
f 470//376 464//115 463//114
f 471//164 465//116 464//115
f 472//123 466//162 465//116
f 473//124 460//111 466//162
f 467//118 474//26 468//163
f 468//163 474//26 469//120
f 469//120 474//26 470//376
f 470//376 474//26 471//164
f 471//164 474//26 472//123
f 472//123 474//26 473//124
f 473//124 474//26 467//118
f 475//1 476//377 477//378
f 475//1 477//378 478//379
f 475//1 478//379 479//380
f 475//1 479//380 480//381
f 475//1 480//381 481//382
f 475//1 481//382 482//383
f 475//1 482//383 483//384
f 475//1 483//384 476//377
f 484//385 477//378 476//377
f 485//386 478//379 477//378
f 486//387 479//380 478//379
f 487//388 480//381 479//380
f 488//389 481//382 480//381
f 489//390 482//383 481//382
f 490//391 483//384 482//383
f 491//392 476//377 483//384
f 484//385 492//26 485//386
f 485//386 492//26 486//387
f 486//387 492//26 487//388
f 487//388 492//26 488//389
f 488//389 492//26 489//390
f 489//390 492//26 490//391
f 490//391 492//26 491//392
f 491//392 492//26 484//385
f 493//1 494//393 495//394
f 493//1 495//394 496//395
f 493//1 496//395 497//396
f 493//1 497//396 498//397
f 493//1 498//397 499//398
f 493//1 499//398 500//399
f 493//1 500//399 501//400
f 493//1 501//400 494//393
f 502//401 495//394 494//393
f 503//402 496//395 495//394
f 504//403 497//396 496//395
f 505//404 498//397 497//396
f 506//405 499//398 498//397
f 507//406 500//399 499//398
f 508//407 501//400 500//399
f 509//408 494//393 501//400
f 502//401 510//26 503//402
f 503//402 510//26 504//403
f 504//403 510//26 505//404
f 505//404 510//26 506//405
f 506//405 510//26 507//406
f 507//406 510//26 508//407
f 508//407 510//26 509//408
f 509//408 510//26 502//401
f 511//1 512//409 513//410
f 511//1 513//410 514//411
f 511//1 514//411 515//412
f 511//1 515//412 516//413
f 511//1 516//413 517//414
f 511//1 517//414 518//415
f 511//1 518//415 519//416
f 511//1 519//416 512//409
f 520//417 513//410 512//409
f 521//418 514//411 513//410
f 522//419 515//412 514//411
f 523//420 516//413 515//412
f 524//421 517//414 516//413
f 525//422 518//415 517//414
f 526//423 519//416 518//415
f 527//424 512//409 519//416
f 520//417 528//26 521//418
f 521//418 528//26 522//419
f 522//419 528//26 523//420
f 523//420 528//26 524//421
f 524//421 528//26 525//422
f 525//422 528//26 526//423
f 526//423 528//26 527//424
f 527//424 528//26 520//417
f 529//1 530//425 531//426
f 529//1 531//426 532//427
f 529//1 532//427 533//428
f 529//1 533//428 534//429
f 529//1 534//429 535//430
f 529//1 535//430 536//431
f 529//1 536//431 537//432
f 529//1 537//432 530//425
f 538//433 531//426 530//425
f 539//434 532//427 531//426
f 540//435 533//428 532//427
f 541//436 534//429 533//428
f 542//437 535//430 534//429
f 543//438 536//431 535//430
f 544//439 537//432 536//431
f 545//440 530//425 537//432
f 538//433 546//26 539//434
f 539//434 546//26 540//435
f 540//435 546//26 541//436
f 541//436 546//26 542//437
f 542//437 546//26 543//438
f 543//438 546//26 544//439
f 544//439 546//26 545//440
f 545//440 546//26 538//433
f 105//99 115//109 113//107
f 113//107 111//105 109//103
f 109//103 107//101 105//99
f 116//110 106//100 108//102
f 108//102 110//104 112//106
f 112//106 114//108 116//110
f 107//101 108//102 106//100
f 107//101 109//103 110//104
f 109//103 111//105 112//106
f 111//105 113//107 114//108
f 115//109 116//110 114//108
f 105//99 106//100 116//110
f 125//118 126//119 119//112
f 126//119 127//120 120//113
f 127//120 128//121 121//114
f 128//121 129//122 122//115
f 129//122 130//123 123//116
f 130//123 131//124 124//117
f 131//124 125//118 118//111
f 157//149 167//159 165//157
f 165//157 163//155 161//153
f 161//153 159//151 157//149
f 168//160 158//150 160//152
f 160//152 162//154 164//156
f 164//156 166//158 168//160
f 159//151 160//152 158//150
f 159//151 161//153 162//154
f 161//153 163//155 164//156
f 163//155 165//157 166//158
f 167//159 168//160 166//158
f 157//149 158//150 168//160
f 177//118 178//163 171//161
f 178//163 179//120 172//113
f 179//120 180//121 173//114
f 180//121 181//164 174//115
f 181//164 182//123 175//116
f 182//123 183//124 176//162
f 183//124 177//118 170//111
f 219//199 229//209 227//207
f 227//207 225//205 223//203
f 223//203 221//201 219//199
f 230//210 220//200 222//202
f 222//202 224//204 226//206
f 226//206 228//208 230//210
f 219//199 221//201 222//202
f 223//203 224//204 222//202
f 225//205 226//206 224//204
f 227//207 228//208 226//206
f 227//207 229//209 230//210
f 229//209 219//199 220//200
f 239//118 240//119 233//112
f 240//119 241//120 234//113
f 241//120 242//121 235//114
f 242//121 243//122 236//115
f 243//122 244//123 237//116
f 244//123 245//124 238//117
f 245//124 239//118 232//111
f 281//245 291//255 289//253
f 289//253 287//251 285//249
f 285//249 283//247 281//245
f 292//256 282//246 284//248
f 284//248 286//250 288//252
f 288//252 290//254 292//256
f 281//245 283//247 284//248
f 283//247 285//249 286//250
f 287//251 288//252 286//250
f 289//253 290//254 288//252
f 291//255 292//256 290//254
f 291//255 281//245 282//246
f 301//118 302//163 295//112
f 302//163 303//120 296//113
f 303//120 304//121 297//257
f 304//121 305//164 298//115
f 305//164 306//123 299//116
f 306//123 307//124 300//162
f 307//124 301//118 294//111
f 333//282 343//292 341//290
f 341//290 339//288 337//286
f 337//286 335//284 333//282
f 344//293 334//283 336//285
f 336//285 338//287 340//289
f 340//289 342//291 344//293
f 333//282 335//284 336//285
f 337//286 338//287 336//285
f 339//288 340//289 338//287
f 341//290 342//291 340//289
f 341//290 343//292 344//293
f 343//292 333//282 334//283
f 353//118 354//119 347//112
f 354//119 355//120 348//113
f 355//120 356//121 349//257
f 356//121 357//164 350//115
f 357//164 358//123 351//116
f 358//123 359//124 352//117
f 359//124 353//118 346//111
f 385//318 395//328 393//326
f 393//326 391//324 389//322
f 389//322 387//320 385//318
f 396//329 386//319 388//321
f 388//321 390//323 392//325
f 392//325 394//327 396//329
f 385//318 387//320 388//321
f 387//320 389//322 390//323
f 389//322 391//324 392//325
f 393//326 394//327 392//325
f 395//328 396//329 394//327
f 385//318 386//319 396//329
f 405//118 406//119 399//112
f 406//119 407//120 400//113
f 407//120 408//121 401//114
f 408//121 409//164 402//115
f 409//164 410//123 403//116
f 410//123 411//124 404//117
f 411//124 405//118 398//111
f 447//364 457//374 455//372
f 455//372 453//370 451//368
f 451//368 449//366 447//364
f 458//375 448//365 450//367
f 450//367 452//369 454//371
f 454//371 456//373 458//375
f 449//366 450//367 448//365
f 449//366 451//368 452//369
f 453//370 454//371 452//369
f 453//370 455//372 456//373
f 457//374 458//375 456//373
f 457//374 447//364 448//365
f 467//118 468//163 461//112
f 468//163 469//120 462//113
f 469//120 470//376 463//114
f 470//376 471//164 464//115
f 471//164 472//123 465//116
f 472//123 473//124 466//162
f 473//124 467//118 460//111
f 484//385 485//386 477//378
f 485//386 486//387 478//379
f 486//387 487//388 479//380
f 487//388 488//389 480//381
f 488//389 489//390 481//382
f 489//390 490//391 482//383
f 490//391 491//392 483//384
f 491//392 484//385 476//377
f 502//401 503//402 495//394
f 503//402 504//403 496//395
f 504//403 505//404 497//396
f 505//404 506//405 498//397
f 506//405 507//406 499//398
f 507//406 508//407 500//399
f 508//407 509//408 501//400
f 509//408 502//401 494//393
f 520//417 521//418 513//410
f 521//418 522//419 514//411
f 522//419 523//420 515//412
f 523//420 524//421 516//413
f 524//421 525//422 517//414
f 525//422 526//423 518//415
f 526//423 527//424 519//416
f 527//424 520//417 512//409
f 538//433 539//434 531//426
f 539//434 540//435 532//427
f 540//435 541//436 533//428
f 541//436 542//437 534//429
f 542//437 543//438 535//430
f 543//438 544//439 536//431
f 544//439 545//440 537//432
f 545//440 538//433 530//425
usemtl verdant_growth
f 141//133 137//129 133//125
f 136//128 140//132 144//136
f 135//127 134//126 133//125
f 137//129 136//128 135//127
f 137//129 140//132 138//130
f 139//131 142//134 140//132
f 141//133 144//136 142//134
f 133//125 144//136 143//135
f 153//145 149//141 145//137
f 148//140 152//144 156//148
f 147//139 146//138 145//137
f 147//139 150//142 148//140
f 151//143 150//142 149//141
f 151//143 154//146 152//144
f 155//147 154//146 153//145
f 155//147 146//138 156//148
f 193//173 189//169 185//165
f 188//168 192//172 196//176
f 185//165 188//168 186//166
f 187//167 190//170 188//168
f 189//169 192//172 190//170
f 193//173 192//172 191//171
f 195//175 194//174 193//173
f 185//165 196//176 195//175
f 203//183 199//179 197//177
f 200//180 204//184 206//186
f 199//179 198//178 197//177
f 199//179 202//182 200//180
f 203//183 202//182 201//181
f 203//183 206//186 204//184
f 197//177 206//186 205//185
f 215//195 211//191 207//187
f 210//190 214//194 218//198
f 209//189 208//188 207//187
f 209//189 212//192 210//190
f 213//193 212//192 211//191
f 213//193 216//196 214//194
f 217//197 216//196 215//195
f 217//197 208//188 218//198
f 255//219 251//215 247//211
f 250//214 254//218 258//222
f 249//213 248//212 247//211
f 249//213 252//216 250//214
f 251//215 254//218 252//216
f 253//217 256//220 254//218
f 255//219 258//222 256//220
f 247//211 258//222 257//221
f 267//231 263//227 259//223
f 262//226 266//230 270//234
f 261//225 260//224 259//223
f 263//227 262//226 261//225
f 265//229 264//228 263//227
f 265//229 268//232 266//230
f 267//231 270//234 268//232
f 269//233 260//224 270//234
f 277//241 273//237 271//235
f 274//238 278//242 280//244
f 273//237 272//236 271//235
f 273//237 276//240 274//238
f 277//241 276//240 275//239
f 277//241 280//244 278//242
f 271//235 280//244 279//243
f 317//266 313//262 309//258
f 312//261 316//265 320//269
f 309//258 312//261 310//259
f 313//262 312//261 311//260
f 313//262 316//265 314//263
f 317//266 316//265 315//264
f 317//266 320//269 318//267
f 309//258 320//269 319//268
f 329//278 325//274 321//270
f 324//273 328//277 332//281
f 323//272 322//271 321//270
f 325//274 324//273 323//272
f 327//276 326//275 325//274
f 329//278 328//277 327//276
f 329//278 332//281 330//279
f 331//280 322//271 332//281
f 369//302 365//298 361//294
f 364//297 368//301 372//305
f 363//296 362//295 361//294
f 365//298 364//297 363//296
f 365//298 368//301 366//299
f 367//300 370//303 368//301
f 369//302 372//305 370//303
f 361//294 372//305 371//304
f 381//314 377//310 373//306
f 376//309 380//313 384//317
f 373//306 376//309 374//307
f 375//308 378//311 376//309
f 377//310 380//313 378//311
f 381//314 380//313 379//312
f 383//316 382//315 381//314
f 373//306 384//317 383//316
f 421//338 417//334 413//330
f 416//333 420//337 424//341
f 415//332 414//331 413//330
f 415//332 418//335 416//333
f 419//336 418//335 417//334
f 419//336 422//339 420//337
f 423//340 422//339 421//338
f 423//340 414//331 424//341
f 431//348 427//344 425//342
f 428//345 432//349 434//351
f 427//344 426//343 425//342
f 427//344 430//347 428//345
f 431//348 430//347 429//346
f 431//348 434//351 432//349
f 425//342 434//351 433//350
f 443//360 439//356 435//352
f 438//355 442//359 446//363
f 435//352 438//355 436//353
f 439//356 438//355 437//354
f 441//358 440//357 439//356
f 443//360 442//359 441//358
f 443//360 446//363 444//361
f 445//362 436//353 446//363
f 133//125 143//135 141//133
f 141//133 139//131 137//129
f 137//129 135//127 133//125
f 144//136 134//126 136//128
f 136//128 138//130 140//132
f 140//132 142//134 144//136
f 135//127 136//128 134//126
f 137//129 138//130 136//128
f 137//129 139//131 140//132
f 139//131 141//133 142//134
f 141//133 143//135 144//136
f 133//125 134//126 144//136
f 145//137 155//147 153//145
f 153//145 151//143 149//141
f 149//141 147//139 145//137
f 156//148 146//138 148//140
f 148//140 150//142 152//144
f 152//144 154//146 156//148
f 147//139 148//140 146//138
f 147//139 149//141 150//142
f 151//143 152//144 150//142
f 151//143 153//145 154//146
f 155//147 156//148 154//146
f 155//147 145//137 146//138
f 185//165 195//175 193//173
f 193//173 191//171 189//169
f 189//169 187//167 185//165
f 196//176 186//166 188//168
f 188//168 190//170 192//172
f 192//172 194//174 196//176
f 185//165 187//167 188//168
f 187//167 189//169 190//170
f 189//169 191//171 192//172
f 193//173 194//174 192//172
f 195//175 196//176 194//174
f 185//165 186//166 196//176
f 197//177 205//185 203//183
f 203//183 201//181 199//179
f 206//186 198//178 200//180
f 200//180 202//182 204//184
f 199//179 200//180 198//178
f 199//179 201//181 202//182
f 203//183 204//184 202//182
f 203//183 205//185 206//186
f 197//177 198//178 206//186
f 207//187 217//197 215//195
f 215//195 213//193 211//191
f 211//191 209//189 207//187
f 218//198 208//188 210//190
f 210//190 212//192 214//194
f 214//194 216//196 218//198
f 209//189 210//190 208//188
f 209//189 211//191 212//192
f 213//193 214//194 212//192
f 213//193 215//195 216//196
f 217//197 218//198 216//196
f 217//197 207//187 208//188
f 247//211 257//221 255//219
f 255//219 253//217 251//215
f 251//215 249//213 247//211
f 258//222 248//212 250//214
f 250//214 252//216 254//218
f 254//218 256//220 258//222
f 249//213 250//214 248//212
f 249//213 251//215 252//216
f 251//215 253//217 254//218
f 253//217 255//219 256//220
f 255//219 257//221 258//222
f 247//211 248//212 258//222
f 259//223 269//233 267//231
f 267//231 265//229 263//227
f 263//227 261//225 259//223
f 270//234 260//224 262//226
f 262//226 264//228 266//230
f 266//230 268//232 270//234
f 261//225 262//226 260//224
f 263//227 264//228 262//226
f 265//229 266//230 264//228
f 265//229 267//231 268//232
f 267//231 269//233 270//234
f 269//233 259//223 260//224
f 271//235 279//243 277//241
f 277//241 275//239 273//237
f 280//244 272//236 274//238
f 274//238 276//240 278//242
f 273//237 274//238 272//236
f 273//237 275//239 276//240
f 277//241 278//242 276//240
f 277//241 279//243 280//244
f 271//235 272//236 280//244
f 309//258 319//268 317//266
f 317//266 315//264 313//262
f 313//262 311//260 309//258
f 320//269 310//259 312//261
f 312//261 314//263 316//265
f 316//265 318//267 320//269
f 309//258 311//260 312//261
f 313//262 314//263 312//261
f 313//262 315//264 316//265
f 317//266 318//267 316//265
f 317//266 319//268 320//269
f 309//258 310//259 320//269
f 321//270 331//280 329//278
f 329//278 327//276 325//274
f 325//274 323//272 321//270
f 332//281 322//271 324//273
f 324//273 326//275 328//277
f 328//277 330//279 332//281
f 323//272 324//273 322//271
f 325//274 326//275 324//273
f 327//276 328//277 326//275
f 329//278 330//279 328//277
f 329//278 331//280 332//281
f 331//280 321//270 322//271
f 361//294 371//304 369//302
f 369//302 367//300 365//298
f 365//298 363//296 361//294
f 372//305 362//295 364//297
f 364//297 366//299 368//301
f 368//301 370//303 372//305
f 363//296 364//297 362//295
f 365//298 366//299 364//297
f 365//298 367//300 368//301
f 367//300 369//302 370//303
f 369//302 371//304 372//305
f 361//294 362//295 372//305
f 373//306 383//316 381//314
f 381//314 379//312 377//310
f 377//310 375//308 373//306
f 384//317 374//307 376//309
f 376//309 378//311 380//313
f 380//313 382//315 384//317
f 373//306 375//308 376//309
f 375//308 377//310 378//311
f 377//310 379//312 380//313
f 381//314 382//315 380//313
f 383//316 384//317 382//315
f 373//306 374//307 384//317
f 413//330 423//340 421//338
f 421//338 419//336 417//334
f 417//334 415//332 413//330
f 424//341 414//331 416//333
f 416//333 418//335 420//337
f 420//337 422//339 424//341
f 415//332 416//333 414//331
f 415//332 417//334 418//335
f 419//336 420//337 418//335
f 419//336 421//338 422//339
f 423//340 424//341 422//339
f 423//340 413//330 414//331
f 425//342 433//350 431//348
f 431//348 429//346 427//344
f 434//351 426//343 428//345
f 428//345 430//347 432//349
f 427//344 428//345 426//343
f 427//344 429//346 430//347
f 431//348 432//349 430//347
f 431//348 433//350 434//351
f 425//342 426//343 434//351
f 435//352 445//362 443//360
f 443//360 441//358 439//356
f 439//356 437//354 435//352
f 446//363 436//353 438//355
f 438//355 440//357 442//359
f 442//359 444//361 446//363
f 435//352 437//354 438//355
f 439//356 440//357 438//355
f 441//358 442//359 440//357
f 443//360 444//361 442//359
f 443//360 445//362 446//363
f 445//362 435//352 436//353
