# Blender 5.2.1 LTS
# www.blender.org
mtllib vegetation_mat_b.mtl
o vegetation_mat_b
v -2.200000 -0.000000 -0.700000
v 0.051670 0.040000 -0.700000
v -0.250000 0.040000 0.036120
v -1.074170 0.040000 0.575000
v -2.200000 0.040000 0.772240
v -3.325830 0.040000 0.575000
v -4.150000 0.040000 0.036120
v -4.451670 0.040000 -0.700000
v -4.150000 0.040000 -1.436120
v -3.325830 0.040000 -1.975000
v -2.200000 0.040000 -2.172240
v -1.074170 0.040000 -1.975000
v -0.250000 0.040000 -1.436120
v 0.051670 0.120000 -0.700000
v -0.250000 0.120000 0.036120
v -1.074170 0.120000 0.575000
v -2.200000 0.120000 0.772240
v -3.325830 0.120000 0.575000
v -4.150000 0.120000 0.036120
v -4.451670 0.120000 -0.700000
v -4.150000 0.120000 -1.436120
v -3.325830 0.120000 -1.975000
v -2.200000 0.120000 -2.172240
v -1.074170 0.120000 -1.975000
v -0.250000 0.120000 -1.436120
v -2.200000 0.160000 -0.700000
v 1.000000 0.000000 0.300000
v 3.598080 0.040000 0.300000
v 3.250000 0.040000 1.122720
v 2.299040 0.040000 1.725000
v 1.000000 0.040000 1.945450
v -0.299040 0.040000 1.725000
v -1.250000 0.040000 1.122720
v -1.598080 0.040000 0.300000
v -1.250000 0.040000 -0.522720
v -0.299040 0.040000 -1.125000
v 1.000000 0.040000 -1.345450
v 2.299040 0.040000 -1.125000
v 3.250000 0.040000 -0.522720
v 3.598080 0.120000 0.300000
v 3.250000 0.120000 1.122720
v 2.299040 0.120000 1.725000
v 1.000000 0.120000 1.945450
v -0.299040 0.120000 1.725000
v -1.250000 0.120000 1.122720
v -1.598080 0.120000 0.300000
v -1.250000 0.120000 -0.522720
v -0.299040 0.120000 -1.125000
v 1.000000 0.120000 -1.345450
v 2.299040 0.120000 -1.125000
v 3.250000 0.120000 -0.522720
v 1.000000 0.160000 0.300000
v 2.600000 -0.000000 -1.100000
v 4.245450 0.040000 -1.100000
v 4.025000 0.040000 -0.537080
v 3.422720 0.040000 -0.125000
v 2.600000 0.040000 0.025830
v 1.777280 0.040000 -0.125000
v 1.175000 0.040000 -0.537080
v 0.954550 0.040000 -1.100000
v 1.175000 0.040000 -1.662920
v 1.777280 0.040000 -2.075000
v 2.600000 0.040000 -2.225830
v 3.422720 0.040000 -2.075000
v 4.025000 0.040000 -1.662920
v 4.245450 0.120000 -1.100000
v 4.025000 0.120000 -0.537080
v 3.422720 0.120000 -0.125000
v 2.600000 0.120000 0.025830
v 1.777280 0.120000 -0.125000
v 1.175000 0.120000 -0.537080
v 0.954550 0.120000 -1.100000
v 1.175000 0.120000 -1.662920
v 1.777280 0.120000 -2.075000
v 2.600000 0.120000 -2.225830
v 3.422720 0.120000 -2.075000
v 4.025000 0.120000 -1.662920
v 2.600000 0.160000 -1.100000
v -0.300000 0.000000 1.700000
v 1.778460 0.040000 1.700000
v 1.500000 0.040000 2.176310
v 0.739230 0.040000 2.525000
v -0.300000 0.040000 2.652630
v -1.339230 0.040000 2.525000
v -2.100000 0.040000 2.176310
v -2.378460 0.040000 1.700000
v -2.100000 0.040000 1.223690
v -1.339230 0.040000 0.875000
v -0.300000 0.040000 0.747370
v 0.739230 0.040000 0.875000
v 1.500000 0.040000 1.223690
v 1.778460 0.120000 1.700000
v 1.500000 0.120000 2.176310
v 0.739230 0.120000 2.525000
v -0.300000 0.120000 2.652630
v -1.339230 0.120000 2.525000
v -2.100000 0.120000 2.176310
v -2.378460 0.120000 1.700000
v -2.100000 0.120000 1.223690
v -1.339230 0.120000 0.875000
v -0.300000 0.120000 0.747370
v 0.739230 0.120000 0.875000
v 1.500000 0.120000 1.223690
v -0.300000 0.160000 1.700000
v -0.301540 0.060000 0.543250
v -0.368990 0.650000 0.832350
v -0.271980 0.023020 0.625610
v -0.339430 0.613020 0.914710
v -0.179470 0.023020 0.647200
v -0.246910 0.613020 0.936290
v -0.116510 0.060000 0.586420
v -0.183960 0.650000 0.875510
v -0.146070 0.096980 0.504050
v -0.213520 0.686980 0.793150
v -0.238590 0.096980 0.482470
v -0.306030 0.686980 0.771570
v -0.276470 0.570000 0.853930
v -0.085950 0.635000 0.853930
v -0.157680 0.635000 1.002890
v -0.318870 0.635000 1.039680
v -0.448130 0.635000 0.936600
v -0.448130 0.635000 0.771260
v -0.318870 0.635000 0.668180
v -0.157680 0.635000 0.704970
v -0.085950 0.765000 0.853930
v -0.157680 0.765000 1.002890
v -0.318870 0.765000 1.039680
v -0.448130 0.765000 0.936600
v -0.448130 0.765000 0.771260
v -0.318870 0.765000 0.668180
v -0.157680 0.765000 0.704970
v -0.276470 0.830000 0.853930
v -1.305820 0.053510 -1.529810
v -1.373550 1.343510 -1.649940
v -1.366360 0.053600 -1.494670
v -1.434090 1.343600 -1.614800
v -1.366360 0.060090 -1.424970
v -1.434090 1.350090 -1.545100
v -1.305820 0.066490 -1.390410
v -1.373550 1.356490 -1.510540
v -1.245280 0.066400 -1.425560
v -1.313010 1.356400 -1.545680
v -1.245280 0.059910 -1.495260
v -1.313010 1.349910 -1.615380
v 4.181470 0.062200 0.788480
v 4.251820 0.792200 0.811390
v 4.121130 0.066910 0.823650
v 4.191480 0.796910 0.846560
v 4.121130 0.064710 0.893610
v 4.191480 0.794710 0.916520
v 4.181470 0.057800 0.928410
v 4.251820 0.787800 0.951320
v 4.241820 0.053090 0.893250
v 4.312170 0.783090 0.916160
v 4.241820 0.055290 0.823280
v 4.312170 0.785290 0.846190
v -2.193200 0.065050 0.560590
v -2.420140 1.495050 0.664060
v -2.253070 0.053070 0.594810
v -2.480010 1.483070 0.698280
v -2.253070 0.048020 0.664630
v -2.480010 1.478020 0.768100
v -2.193200 0.054950 0.700220
v -2.420140 1.484950 0.803690
v -2.133320 0.066930 0.666000
v -2.360260 1.496930 0.769470
v -2.133320 0.071980 0.596180
v -2.360260 1.501980 0.699650
v -2.420140 1.410000 0.733870
v -2.229610 1.475000 0.733870
v -2.301350 1.475000 0.882830
v -2.462530 1.475000 0.919620
v -2.591790 1.475000 0.816540
v -2.591790 1.475000 0.651210
v -2.462530 1.475000 0.548130
v -2.301350 1.475000 0.584920
v -2.229610 1.605000 0.733870
v -2.301350 1.605000 0.882830
v -2.462530 1.605000 0.919620
v -2.591790 1.605000 0.816540
v -2.591790 1.605000 0.651210
v -2.462530 1.605000 0.548130
v -2.301350 1.605000 0.584920
v -2.420140 1.670000 0.733870
v 1.617400 0.034060 -2.500270
v 1.721920 0.904060 -2.747190
v 1.535670 0.056120 -2.457150
v 1.640190 0.926120 -2.704070
v 1.535670 0.082060 -2.365760
v 1.640190 0.952060 -2.612680
v 1.617400 0.085940 -2.317490
v 1.721920 0.955940 -2.564400
v 1.699130 0.063880 -2.360600
v 1.803650 0.933880 -2.607520
v 1.699130 0.037940 -2.451990
v 1.803650 0.907940 -2.698910
v 1.602810 0.511500 -2.366310
v 1.952810 0.725400 -2.246310
v 1.633150 0.474450 -2.388780
v 1.983150 0.688350 -2.268780
v 1.641730 0.488600 -2.439020
v 1.991730 0.702500 -2.319020
v 1.616690 0.534400 -2.447610
v 1.966690 0.748300 -2.327610
v 1.592630 0.548550 -2.402670
v 1.942630 0.762450 -2.282670
v 0.725410 0.063690 1.214080
v 0.754900 1.633690 1.296870
v 0.664800 0.062980 1.249100
v 0.694290 1.632980 1.331880
v 0.664800 0.059290 1.319000
v 0.694290 1.629290 1.401780
v 0.725410 0.056310 1.353890
v 0.754900 1.626310 1.436670
v 0.786030 0.057020 1.318880
v 0.815510 1.627020 1.401660
v 0.786030 0.060710 1.248980
v 0.815510 1.630710 1.331760
v -3.449050 0.056260 -1.218650
v -3.551280 1.066260 -1.272660
v -3.509370 0.052040 -1.183380
v -3.611590 1.062040 -1.237380
v -3.509370 0.055780 -1.113480
v -3.611590 1.065780 -1.167480
v -3.449050 0.063740 -1.078850
v -3.551280 1.073740 -1.132860
v -3.388740 0.067960 -1.114130
v -3.490960 1.077960 -1.168130
v -3.388740 0.064220 -1.184030
v -3.490960 1.074220 -1.238030
v -3.551280 0.990000 -1.202760
v -3.360750 1.055000 -1.202760
v -3.432480 1.055000 -1.053800
v -3.593670 1.055000 -1.017010
v -3.722930 1.055000 -1.120090
v -3.722930 1.055000 -1.285430
v -3.593670 1.055000 -1.388510
v -3.432480 1.055000 -1.351720
v -3.360750 1.185000 -1.202760
v -3.432480 1.185000 -1.053800
v -3.593670 1.185000 -1.017010
v -3.722930 1.185000 -1.120090
v -3.722930 1.185000 -1.285430
v -3.593670 1.185000 -1.388510
v -3.432480 1.185000 -1.351720
v -3.551280 1.250000 -1.202760
v 1.850970 0.057000 -0.376060
v 2.130230 1.767000 -0.449320
v 1.791140 0.068260 -0.341510
v 2.070400 1.778260 -0.414770
v 1.791140 0.071250 -0.271570
v 2.070400 1.781250 -0.344840
v 1.850970 0.063000 -0.236190
v 2.130230 1.773000 -0.309450
v 1.910800 0.051740 -0.270740
v 2.190060 1.761740 -0.344000
v 1.910800 0.048750 -0.340670
v 2.190060 1.758750 -0.413940
v -1.976020 0.074850 1.842680
v -2.093080 1.224850 2.024650
v -2.057880 0.059290 1.888310
v -2.174940 1.209290 2.070280
v -2.057880 0.044450 1.982140
v -2.174940 1.194450 2.164110
v -1.976020 0.045150 2.030340
v -2.093080 1.195150 2.212320
v -1.894160 0.060710 1.984710
v -2.011220 1.210710 2.166690
v -1.894160 0.075550 1.890880
v -2.011220 1.225550 2.072850
v -1.990610 0.665500 1.979080
v -1.640610 0.943800 2.099080
v -1.956190 0.631300 1.958010
v -1.606190 0.909600 2.078010
v -1.949170 0.644360 1.907230
v -1.599170 0.922660 2.027230
v -1.979250 0.686640 1.896920
v -1.629250 0.964940 2.016920
v -2.004860 0.699700 1.941320
v -1.654860 0.978000 2.061320
v -0.283270 0.052800 -1.104130
v -0.293810 0.642800 -1.165140
v -0.343890 0.055330 -1.069200
v -0.354420 0.645330 -1.130210
v -0.343890 0.062530 -0.999570
v -0.354420 0.652530 -1.060580
v -0.283270 0.067200 -0.964870
v -0.293810 0.657200 -1.025880
v -0.222660 0.064670 -0.999790
v -0.233190 0.654670 -1.060800
v -0.222660 0.057470 -1.069420
v -0.233190 0.647470 -1.130430
v -0.293810 0.570000 -1.095510
v -0.103280 0.635000 -1.095510
v -0.175010 0.635000 -0.946550
v -0.336200 0.635000 -0.909760
v -0.465460 0.635000 -1.012840
v -0.465460 0.635000 -1.178170
v -0.336200 0.635000 -1.281260
v -0.175010 0.635000 -1.244470
v -0.103280 0.765000 -1.095510
v -0.175010 0.765000 -0.946550
v -0.336200 0.765000 -0.909760
v -0.465460 0.765000 -1.012840
v -0.465460 0.765000 -1.178170
v -0.336200 0.765000 -1.281260
v -0.175010 0.765000 -1.244470
v -0.293810 0.830000 -1.095510
v 2.694840 0.065750 1.241330
v 2.832640 1.355750 1.347670
v 2.634560 0.069270 1.276740
v 2.772360 1.359270 1.383080
v 2.634560 0.063520 1.346510
v 2.772360 1.353520 1.452840
v 2.694840 0.054250 1.380860
v 2.832640 1.344250 1.487200
v 2.755130 0.050730 1.345450
v 2.892920 1.340730 1.451790
v 2.755130 0.056480 1.275690
v 2.892920 1.346480 1.382030
v -1.411640 0.062450 0.006170
v -1.710170 0.792450 0.031710
v -1.467760 0.038300 0.040350
v -1.766290 0.768300 0.065880
v -1.467760 0.035860 0.110300
v -1.766290 0.765860 0.135840
v -1.411640 0.057550 0.146080
v -1.710170 0.787550 0.171620
v -1.355530 0.081700 0.111910
v -1.654060 0.811700 0.137440
v -1.355530 0.084140 0.041950
v -1.654060 0.814140 0.067490
v 2.134460 0.052430 -1.559950
v 2.239390 1.482430 -1.674200
v 2.052410 0.062200 -1.513080
v 2.157330 1.492200 -1.627330
v 2.052410 0.069770 -1.418380
v 2.157330 1.499770 -1.532630
v 2.134460 0.067570 -1.370560
v 2.239390 1.497570 -1.484810
v 2.216510 0.057800 -1.417430
v 2.321440 1.487800 -1.531680
v 2.216510 0.050230 -1.512120
v 2.321440 1.480230 -1.626380
v 2.239390 1.410000 -1.579500
v 2.429910 1.475000 -1.579500
v 2.358180 1.475000 -1.430550
v 2.196990 1.475000 -1.393760
v 2.067730 1.475000 -1.496840
v 2.067730 1.475000 -1.662170
v 2.196990 1.475000 -1.765250
v 2.358180 1.475000 -1.728460
v 2.429910 1.605000 -1.579500
v 2.358180 1.605000 -1.430550
v 2.196990 1.605000 -1.393760
v 2.067730 1.605000 -1.496840
v 2.067730 1.605000 -1.662170
v 2.196990 1.605000 -1.765250
v 2.358180 1.605000 -1.728460
v 2.239390 1.670000 -1.579500
v -0.000320 0.065360 0.666810
v -0.000340 0.935360 0.733600
v -0.060950 0.062680 0.701700
v -0.060960 0.932680 0.768490
v -0.060950 0.057320 0.771500
v -0.060960 0.927320 0.838290
v -0.000320 0.054640 0.806390
v -0.000340 0.924640 0.873190
v 0.060300 0.057320 0.771500
v 0.060280 0.927320 0.838290
v 0.060300 0.062680 0.701700
v 0.060280 0.932680 0.768490
v -1.965260 0.052360 -1.420180
v -2.123470 1.622360 -1.592660
v -2.025580 0.050170 -1.384730
v -2.183790 1.620170 -1.557210
v -2.025580 0.057820 -1.315150
v -2.183790 1.627820 -1.487620
v -1.965260 0.067640 -1.281020
v -2.123470 1.637640 -1.453490
v -1.904940 0.069830 -1.316470
v -2.063150 1.639830 -1.488940
v -1.904940 0.062180 -1.386050
v -2.063150 1.632180 -1.558530
v 0.916610 0.061660 -0.020230
v 1.194860 1.071660 0.003730
v 0.858160 0.076920 0.015150
v 1.136410 1.086920 0.039100
v 0.858160 0.075260 0.085130
v 1.136410 1.085260 0.109080
v 0.916610 0.058340 0.119730
v 1.194860 1.068340 0.143690
v 0.975050 0.043080 0.084360
v 1.253300 1.053080 0.108320
v 0.975050 0.044740 0.014380
v 1.253300 1.054740 0.038340
v 1.194860 0.990000 0.073710
v 1.385380 1.055000 0.073710
v 1.313650 1.055000 0.222670
v 1.152460 1.055000 0.259460
v 1.023200 1.055000 0.156380
v 1.023200 1.055000 -0.008950
v 1.152460 1.055000 -0.112040
v 1.313650 1.055000 -0.075250
v 1.385380 1.185000 0.073710
v 1.313650 1.185000 0.222670
v 1.152460 1.185000 0.259460
v 1.023200 1.185000 0.156380
v 1.023200 1.185000 -0.008950
v 1.152460 1.185000 -0.112040
v 1.313650 1.185000 -0.075250
v 1.194860 1.250000 0.073710
v -2.105790 0.063400 0.928400
v -2.185280 1.773400 0.989670
v -2.187980 0.057890 0.975730
v -2.267460 1.767890 1.037000
v -2.187980 0.054480 1.070670
v -2.267460 1.764480 1.131940
v -2.105790 0.056600 1.118280
v -2.185280 1.766600 1.179550
v -2.023610 0.062110 1.070940
v -2.103100 1.772110 1.132220
v -2.023610 0.065520 0.976000
v -2.103100 1.775520 1.037280
v -2.120390 0.973500 1.065900
v -1.770390 1.380600 1.185900
v -2.080340 0.944720 1.046760
v -1.730340 1.351820 1.166760
v -2.075470 0.955710 0.995250
v -1.725470 1.362810 1.115250
v -2.112500 0.991290 0.982550
v -1.762500 1.398390 1.102550
v -2.140260 1.002280 1.026220
v -1.790260 1.409380 1.146220
v 0.750490 0.053950 -2.801470
v 0.767770 1.203950 -2.901220
v 0.689880 0.057880 -2.766680
v 0.707160 1.207880 -2.866430
v 0.689880 0.063930 -2.696940
v 0.707160 1.213930 -2.796700
v 0.750490 0.066050 -2.661990
v 0.767770 1.216050 -2.761750
v 0.811110 0.062120 -2.696780
v 0.828390 1.212120 -2.796540
v 0.811110 0.056070 -2.766520
v 0.828390 1.206070 -2.866280
v 1.302950 0.085950 1.213440
v 1.454260 0.675950 1.448950
v 1.243980 0.086020 1.251160
v 1.395290 0.676020 1.486670
v 1.243980 0.060070 1.316170
v 1.395290 0.650070 1.551680
v 1.302950 0.034050 1.343470
v 1.454260 0.624050 1.578980
v 1.361920 0.033980 1.305750
v 1.513240 0.623980 1.541260
v 1.361920 0.059930 1.240740
v 1.513240 0.649930 1.476250
v 1.454260 0.570000 1.513960
v 1.644790 0.635000 1.513960
v 1.573060 0.635000 1.662920
v 1.411870 0.635000 1.699710
v 1.282610 0.635000 1.596630
v 1.282610 0.635000 1.431300
v 1.411870 0.635000 1.328220
v 1.573060 0.635000 1.365010
v 1.644790 0.765000 1.513960
v 1.573060 0.765000 1.662920
v 1.411870 0.765000 1.699710
v 1.282610 0.765000 1.596630
v 1.282610 0.765000 1.431300
v 1.411870 0.765000 1.328220
v 1.573060 0.765000 1.365010
v 1.454260 0.830000 1.513960
v -2.800000 0.060000 1.100000
v -2.436270 0.150000 1.100000
v -2.542800 0.150000 1.357200
v -2.800000 0.150000 1.463730
v -3.057200 0.150000 1.357200
v -3.163730 0.150000 1.100000
v -3.057200 0.150000 0.842800
v -2.800000 0.150000 0.736270
v -2.542800 0.150000 0.842800
v -2.436270 0.330000 1.100000
v -2.542800 0.330000 1.357200
v -2.800000 0.330000 1.463730
v -3.057200 0.330000 1.357200
v -3.163730 0.330000 1.100000
v -3.057200 0.330000 0.842800
v -2.800000 0.330000 0.736270
v -2.542800 0.330000 0.842800
v -2.800000 0.420000 1.100000
v -1.100000 0.060000 -1.400000
v -0.788230 0.150000 -1.400000
v -0.879550 0.150000 -1.179550
v -1.100000 0.150000 -1.088230
v -1.320450 0.150000 -1.179550
v -1.411770 0.150000 -1.400000
v -1.320450 0.150000 -1.620450
v -1.100000 0.150000 -1.711770
v -0.879550 0.150000 -1.620450
v -0.788230 0.330000 -1.400000
v -0.879550 0.330000 -1.179550
v -1.100000 0.330000 -1.088230
v -1.320450 0.330000 -1.179550
v -1.411770 0.330000 -1.400000
v -1.320450 0.330000 -1.620450
v -1.100000 0.330000 -1.711770
v -0.879550 0.330000 -1.620450
v -1.100000 0.420000 -1.400000
v 0.700000 0.060000 1.600000
v 1.133010 0.150000 1.600000
v 1.006190 0.150000 1.906190
v 0.700000 0.150000 2.033010
v 0.393810 0.150000 1.906190
v 0.266990 0.150000 1.600000
v 0.393810 0.150000 1.293810
v 0.700000 0.150000 1.166990
v 1.006190 0.150000 1.293810
v 1.133010 0.330000 1.600000
v 1.006190 0.330000 1.906190
v 0.700000 0.330000 2.033010
v 0.393810 0.330000 1.906190
v 0.266990 0.330000 1.600000
v 0.393810 0.330000 1.293810
v 0.700000 0.330000 1.166990
v 1.006190 0.330000 1.293810
v 0.700000 0.420000 1.600000
v 2.800000 0.060000 0.900000
v 3.094450 0.150000 0.900000
v 3.008210 0.150000 1.108210
v 2.800000 0.150000 1.194450
v 2.591790 0.150000 1.108210
v 2.505550 0.150000 0.900000
v 2.591790 0.150000 0.691790
v 2.800000 0.150000 0.605550
v 3.008210 0.150000 0.691790
v 3.094450 0.330000 0.900000
v 3.008210 0.330000 1.108210
v 2.800000 0.330000 1.194450
v 2.591790 0.330000 1.108210
v 2.505550 0.330000 0.900000
v 2.591790 0.330000 0.691790
v 2.800000 0.330000 0.605550
v 3.008210 0.330000 0.691790
v 2.800000 0.420000 0.900000
vn -0.0000 -1.0000 -0.0000
vn 0.7803 -0.6254 -0.0000
vn 0.5931 -0.6396 0.4890
vn 0.2778 -0.6563 0.7015
vn -0.0000 -0.6611 0.7503
vn -0.2778 -0.6563 0.7015
vn -0.5931 -0.6396 0.4890
vn -0.7803 -0.6254 -0.0000
vn -0.5931 -0.6396 -0.4890
vn -0.2778 -0.6563 -0.7015
vn -0.0000 -0.6611 -0.7503
vn 0.2778 -0.6563 -0.7015
vn 0.5931 -0.6396 -0.4890
vn 0.7803 0.6254 -0.0000
vn 0.5931 0.6396 0.4890
vn 0.2778 0.6563 0.7015
vn -0.0000 0.6611 0.7503
vn -0.2778 0.6563 0.7015
vn -0.5931 0.6396 0.4890
vn -0.7803 0.6254 -0.0000
vn -0.5931 0.6396 -0.4890
vn -0.2778 0.6563 -0.7015
vn -0.0000 0.6611 -0.7503
vn 0.2778 0.6563 -0.7015
vn 0.5931 0.6396 -0.4890
vn -0.0000 1.0000 -0.0000
vn 0.7812 -0.6243 -0.0000
vn 0.5864 -0.6401 0.4964
vn 0.2702 -0.6581 0.7028
vn -0.0000 -0.6632 0.7485
vn -0.2702 -0.6581 0.7028
vn -0.5864 -0.6401 0.4964
vn -0.7812 -0.6243 -0.0000
vn -0.5864 -0.6401 -0.4964
vn -0.2702 -0.6581 -0.7028
vn -0.0000 -0.6632 -0.7485
vn 0.2702 -0.6581 -0.7028
vn 0.5864 -0.6401 -0.4964
vn 0.7812 0.6243 -0.0000
vn 0.5864 0.6401 0.4964
vn 0.2702 0.6581 0.7028
vn -0.0000 0.6632 0.7485
vn -0.2702 0.6581 0.7028
vn -0.5864 0.6401 0.4964
vn -0.7812 0.6243 -0.0000
vn -0.5864 0.6401 -0.4964
vn -0.2702 0.6581 -0.7028
vn -0.0000 0.6632 -0.7485
vn 0.2702 0.6581 -0.7028
vn 0.5864 0.6401 -0.4964
vn 0.7799 -0.6259 -0.0000
vn 0.6032 -0.6378 0.4789
vn 0.2893 -0.6524 0.7005
vn -0.0000 -0.6568 0.7541
vn -0.2893 -0.6524 0.7005
vn -0.6032 -0.6378 0.4789
vn -0.7799 -0.6259 -0.0000
vn -0.6032 -0.6378 -0.4789
vn -0.2893 -0.6524 -0.7005
vn -0.0000 -0.6568 -0.7541
vn 0.2893 -0.6524 -0.7005
vn 0.6032 -0.6378 -0.4789
vn 0.7799 0.6259 -0.0000
vn 0.6032 0.6378 0.4789
vn 0.2893 0.6524 0.7005
vn -0.0000 0.6568 0.7541
vn -0.2893 0.6524 0.7005
vn -0.6032 0.6378 0.4789
vn -0.7799 0.6259 -0.0000
vn -0.6032 0.6378 -0.4789
vn -0.2893 0.6524 -0.7005
vn -0.0000 0.6568 -0.7541
vn 0.2893 0.6524 -0.7005
vn 0.6032 0.6378 -0.4789
vn 0.7973 -0.6035 -0.0000
vn 0.5181 -0.6374 0.5703
vn 0.2054 -0.6621 0.7207
vn -0.0000 -0.6663 0.7457
vn -0.2054 -0.6621 0.7207
vn -0.5181 -0.6374 0.5703
vn -0.7973 -0.6035 -0.0000
vn -0.5181 -0.6374 -0.5703
vn -0.2054 -0.6621 -0.7207
vn -0.0000 -0.6663 -0.7457
vn 0.2054 -0.6621 -0.7207
vn 0.5181 -0.6374 -0.5703
vn 0.7973 0.6035 -0.0000
vn 0.5181 0.6374 0.5703
vn 0.2054 0.6621 0.7207
vn -0.0000 0.6663 0.7457
vn -0.2054 0.6621 0.7207
vn -0.5181 0.6374 0.5703
vn -0.7973 0.6035 -0.0000
vn -0.5181 0.6374 -0.5703
vn -0.2054 0.6621 -0.7207
vn -0.0000 0.6663 -0.7457
vn 0.2054 0.6621 -0.7207
vn 0.5181 0.6374 -0.5703
vn -0.7094 -0.5449 -0.4470
vn -0.8340 0.5449 0.0870
vn -0.4628 -0.8534 0.2399
vn -0.5874 0.2364 0.7740
vn 0.3088 -0.8534 0.4200
vn 0.1843 0.2365 0.9540
vn 0.8340 -0.5449 -0.0869
vn 0.7094 0.5449 0.4470
vn 0.5874 -0.2365 -0.7740
vn 0.4628 0.8534 -0.2400
vn -0.1843 -0.2365 -0.9540
vn -0.3088 0.8534 -0.4200
vn 0.8566 -0.5160 -0.0000
vn 0.5341 -0.5160 0.6697
vn -0.1906 -0.5160 0.8351
vn -0.7717 -0.5160 0.3717
vn -0.7717 -0.5160 -0.3716
vn -0.1906 -0.5160 -0.8351
vn 0.5341 -0.5160 -0.6697
vn 0.8566 0.5160 -0.0000
vn 0.5341 0.5160 0.6697
vn -0.1906 0.5160 0.8351
vn -0.7717 0.5160 0.3716
vn -0.7717 0.5160 -0.3717
vn -0.1906 0.5160 -0.8351
vn 0.5341 0.5160 -0.6697
vn 0.0319 -0.6800 -0.7325
vn -0.0318 0.5331 -0.8455
vn -0.6534 -0.6790 -0.3347
vn -0.7172 0.5341 -0.4477
vn -0.6535 -0.6055 0.4543
vn -0.7172 0.6076 0.3413
vn 0.0319 -0.5331 0.8455
vn -0.0319 0.6800 0.7325
vn 0.7172 -0.5341 0.4476
vn 0.6534 0.6790 0.3347
vn 0.7172 -0.6076 -0.3414
vn 0.6535 0.6055 -0.4543
vn -0.0585 -0.5820 -0.8111
vn 0.0584 0.6318 -0.7730
vn -0.7416 -0.5287 -0.4130
vn -0.6246 0.6851 -0.3748
vn -0.7416 -0.5536 0.3790
vn -0.6246 0.6602 0.4171
vn -0.0585 -0.6318 0.7729
vn 0.0584 0.5820 0.8111
vn 0.6246 -0.6851 0.3749
vn 0.7415 0.5287 0.4130
vn 0.6246 -0.6602 -0.4172
vn 0.7416 0.5536 -0.3790
vn 0.0954 -0.5437 -0.8338
vn -0.0954 0.6581 -0.7469
vn -0.5824 -0.6794 -0.4464
vn -0.7732 0.5225 -0.3595
vn -0.5824 -0.7365 0.3440
vn -0.7732 0.4653 0.4309
vn 0.0953 -0.6581 0.7469
vn -0.0954 0.5437 0.8338
vn 0.7732 -0.5225 0.3595
vn 0.5824 0.6793 0.4464
vn 0.7732 -0.4653 -0.4309
vn 0.5824 0.7365 -0.3440
vn 0.5340 -0.5160 -0.6697
vn 0.5340 0.5160 0.6697
vn -0.0700 -0.7993 -0.5969
vn 0.0700 0.3666 -0.9277
vn -0.7517 -0.6153 -0.2372
vn -0.6117 0.5506 -0.5681
vn -0.7517 -0.3989 0.5251
vn -0.6117 0.7669 0.1942
vn -0.0700 -0.3666 0.9277
vn 0.0700 0.7993 0.5969
vn 0.6117 -0.5505 0.5681
vn 0.7518 0.6153 0.2372
vn 0.6117 -0.7669 -0.1942
vn 0.7518 0.3989 -0.5251
vn -0.7483 -0.2981 0.5926
vn 0.2274 0.2981 0.9270
vn -0.2067 -0.9595 0.1915
vn 0.7690 -0.3632 0.5260
vn -0.0536 -0.7069 -0.7053
vn 0.9221 -0.1106 -0.3707
vn -0.5006 0.1106 -0.8586
vn 0.4751 0.7069 -0.5240
vn -0.9300 0.3631 -0.0565
vn 0.0457 0.9595 0.2781
vn -0.0115 -0.5673 -0.8235
vn 0.0114 0.6508 -0.7592
vn -0.6976 -0.5753 -0.4271
vn -0.6747 0.6428 -0.3628
vn -0.6976 -0.6171 0.3642
vn -0.6747 0.6010 0.4285
vn -0.0115 -0.6508 0.7592
vn 0.0114 0.5673 0.8234
vn 0.6747 -0.6428 0.3629
vn 0.6976 0.5753 0.4271
vn 0.6747 -0.6010 -0.4284
vn 0.6976 0.6171 -0.3642
vn 0.0614 -0.6484 -0.7589
vn -0.0614 0.5637 -0.8237
vn -0.6214 -0.6961 -0.3596
vn -0.7441 0.5159 -0.4243
vn -0.6214 -0.6538 0.4317
vn -0.7441 0.5583 0.3669
vn 0.0614 -0.5637 0.8237
vn -0.0614 0.6484 0.7589
vn 0.7441 -0.5159 0.4243
vn 0.6214 0.6961 0.3596
vn 0.7441 -0.5583 -0.3669
vn 0.6214 0.6538 -0.4317
vn 0.8566 -0.5161 -0.0000
vn 0.8566 0.5161 -0.0000
vn -0.0982 -0.6354 -0.7659
vn 0.0982 0.5675 -0.8175
vn -0.7756 -0.5079 -0.3748
vn -0.5790 0.6949 -0.4263
vn -0.7755 -0.4741 0.4169
vn -0.5791 0.7288 0.3654
vn -0.0982 -0.5675 0.8175
vn 0.0982 0.6354 0.7659
vn 0.5790 -0.6949 0.4263
vn 0.7756 0.5079 0.3748
vn 0.5791 -0.7288 -0.3654
vn 0.7755 0.4741 -0.4169
vn 0.0610 -0.4756 -0.8775
vn -0.0610 0.7234 -0.6878
vn -0.6217 -0.6054 -0.4969
vn -0.7438 0.5936 -0.3072
vn -0.6218 -0.7292 0.2858
vn -0.7438 0.4698 0.4754
vn 0.0610 -0.7234 0.6878
vn -0.0611 0.4756 0.8775
vn 0.7438 -0.5936 0.3072
vn 0.6217 0.6054 0.4969
vn 0.7438 -0.4698 -0.4755
vn 0.6218 0.7292 -0.2858
vn -0.7108 -0.3581 0.6054
vn 0.1898 0.3581 0.9142
vn -0.0964 -0.9686 0.2293
vn 0.8042 -0.2524 0.5381
vn 0.0288 -0.7354 -0.6770
vn 0.9295 -0.0193 -0.3683
vn -0.5081 0.0192 -0.8611
vn 0.3926 0.7354 -0.5523
vn -0.9652 0.2524 -0.0686
vn -0.0646 0.9686 0.2402
vn 0.0109 -0.6882 -0.7255
vn -0.0109 0.5252 -0.8509
vn -0.6753 -0.6595 -0.3301
vn -0.6970 0.5538 -0.4556
vn -0.6753 -0.5780 0.4581
vn -0.6970 0.6353 0.3326
vn 0.0109 -0.5252 0.8509
vn -0.0109 0.6882 0.7255
vn 0.6970 -0.5538 0.4556
vn 0.6753 0.6595 0.3302
vn 0.6970 -0.6353 -0.3326
vn 0.6753 0.5780 -0.4581
vn -0.7717 0.5160 -0.3716
vn -0.0646 -0.5394 -0.8396
vn 0.0646 0.6696 -0.7399
vn -0.7470 -0.4996 -0.4387
vn -0.6178 0.7095 -0.3391
vn -0.7470 -0.5647 0.3510
vn -0.6178 0.6444 0.4506
vn -0.0646 -0.6696 0.7399
vn 0.0646 0.5394 0.8396
vn 0.6178 -0.7094 0.3391
vn 0.7470 0.4996 0.4387
vn 0.6178 -0.6444 -0.4507
vn 0.7470 0.5647 -0.3510
vn 0.2308 -0.5366 -0.8117
vn -0.2307 0.5921 -0.7721
vn -0.4044 -0.8100 -0.4247
vn -0.8660 0.3187 -0.3853
vn -0.4045 -0.8376 0.3672
vn -0.8660 0.2911 0.4066
vn 0.2308 -0.5921 0.7721
vn -0.2307 0.5366 0.8117
vn 0.8660 -0.3187 0.3853
vn 0.4044 0.8100 0.4247
vn 0.8660 -0.2911 -0.4066
vn 0.4045 0.8376 -0.3671
vn -0.0445 -0.6696 -0.7414
vn 0.0445 0.5433 -0.8383
vn -0.7289 -0.5881 -0.3505
vn -0.6399 0.6248 -0.4474
vn -0.7289 -0.5250 0.4394
vn -0.6399 0.6879 0.3425
vn -0.0445 -0.5433 0.8384
vn 0.0446 0.6696 0.7414
vn 0.6399 -0.6248 0.4474
vn 0.7289 0.5881 0.3505
vn 0.6399 -0.6879 -0.3425
vn 0.7289 0.5249 -0.4394
vn -0.0000 -0.5475 -0.8368
vn -0.0000 0.6689 -0.7434
vn -0.6862 -0.5779 -0.4418
vn -0.6862 0.6385 -0.3484
vn -0.6862 -0.6385 0.3484
vn -0.6863 0.5779 0.4417
vn -0.0000 -0.6689 0.7434
vn -0.0000 0.5475 0.8368
vn 0.6862 -0.6385 0.3484
vn 0.6862 0.5779 0.4417
vn 0.6862 -0.5779 -0.4418
vn 0.6862 0.6385 -0.3484
vn 0.0608 -0.6898 -0.7214
vn -0.0608 0.5169 -0.8539
vn -0.6220 -0.7146 -0.3201
vn -0.7436 0.4921 -0.4526
vn -0.6220 -0.6280 0.4676
vn -0.7436 0.5787 0.3350
vn 0.0608 -0.5169 0.8539
vn -0.0608 0.6898 0.7214
vn 0.7436 -0.4921 0.4527
vn 0.6220 0.7146 0.3201
vn 0.7436 -0.5787 -0.3350
vn 0.6220 0.6280 -0.4676
vn -0.1620 -0.5691 -0.8061
vn 0.1620 0.6067 -0.7782
vn -0.8236 -0.3964 -0.4057
vn -0.4997 0.7795 -0.3778
vn -0.8236 -0.4152 0.3865
vn -0.4997 0.7607 0.4144
vn -0.1619 -0.6067 0.7782
vn 0.1620 0.5691 0.8061
vn 0.4997 -0.7795 0.3778
vn 0.8236 0.3964 0.4057
vn 0.4996 -0.7607 -0.4143
vn 0.8236 0.4152 -0.3864
vn 0.0283 -0.5806 -0.8137
vn -0.0283 0.6373 -0.7701
vn -0.6572 -0.6265 -0.4190
vn -0.7138 0.5913 -0.3753
vn -0.6572 -0.6550 0.3730
vn -0.7139 0.5629 0.4166
vn 0.0283 -0.6373 0.7701
vn -0.0283 0.5806 0.8137
vn 0.7138 -0.5913 0.3752
vn 0.6572 0.6265 0.4189
vn 0.7138 -0.5629 -0.4167
vn 0.6572 0.6550 -0.3730
vn -0.6395 -0.4409 0.6298
vn 0.1184 0.4408 0.8898
vn 0.0753 -0.9546 0.2882
vn 0.8332 -0.0729 0.5481
vn 0.1622 -0.7584 -0.6313
vn 0.9202 0.1233 -0.3714
vn -0.4987 -0.1233 -0.8579
vn 0.2592 0.7584 -0.5981
vn -0.9942 0.0729 -0.0785
vn -0.2363 0.9546 0.1814
vn -0.0091 -0.6761 -0.7367
vn 0.0091 0.5392 -0.8422
vn -0.6953 -0.6316 -0.3429
vn -0.6770 0.5836 -0.4483
vn -0.6953 -0.5632 0.4465
vn -0.6770 0.6521 0.3411
vn -0.0092 -0.5392 0.8422
vn 0.0091 0.6761 0.7367
vn 0.6770 -0.5836 0.4483
vn 0.6953 0.6316 0.3429
vn 0.6770 -0.6521 -0.3411
vn 0.6953 0.5631 -0.4466
vn -0.1414 -0.2573 -0.9559
vn 0.1413 0.8449 -0.5160
vn -0.8089 -0.2566 -0.5290
vn -0.5262 0.8457 -0.0890
vn -0.8089 -0.5503 0.2069
vn -0.5262 0.5519 0.6469
vn -0.1413 -0.8449 0.5160
vn 0.1413 0.2573 0.9559
vn 0.5262 -0.8457 0.0890
vn 0.8089 0.2565 0.5290
vn 0.5262 -0.5519 -0.6469
vn 0.8089 0.5503 -0.2070
vn 0.8337 -0.5522 -0.0000
vn 0.5895 -0.5522 0.5895
vn -0.0000 -0.5522 0.8337
vn -0.5895 -0.5522 0.5895
vn -0.8337 -0.5522 -0.0000
vn -0.5895 -0.5522 -0.5895
vn -0.0000 -0.5522 -0.8337
vn 0.5895 -0.5522 -0.5895
vn 0.8337 0.5522 -0.0000
vn 0.5895 0.5522 0.5895
vn -0.0000 0.5522 0.8337
vn -0.5895 0.5522 0.5895
vn -0.8337 0.5522 -0.0000
vn -0.5895 0.5522 -0.5895
vn -0.0000 0.5522 -0.8337
vn 0.5895 0.5522 -0.5895
vn 0.8422 -0.5392 -0.0000
vn 0.5955 -0.5392 0.5955
vn -0.0000 -0.5392 0.8422
vn -0.5955 -0.5392 0.5955
vn -0.8422 -0.5392 -0.0000
vn -0.5955 -0.5392 -0.5955
vn -0.0000 -0.5392 -0.8422
vn 0.5955 -0.5392 -0.5955
vn 0.8422 0.5392 -0.0000
vn 0.5955 0.5392 0.5955
vn -0.0000 0.5392 0.8422
vn -0.5955 0.5392 0.5955
vn -0.8422 0.5392 -0.0000
vn -0.5955 0.5392 -0.5955
vn -0.0000 0.5392 -0.8422
vn 0.5955 0.5392 -0.5955
vn 0.8253 -0.5647 -0.0000
vn 0.5835 -0.5647 0.5836
vn -0.0000 -0.5647 0.8253
vn -0.5836 -0.5647 0.5835
vn -0.8253 -0.5647 -0.0000
vn -0.5835 -0.5647 -0.5836
vn -0.0000 -0.5647 -0.8253
vn 0.5836 -0.5647 -0.5835
vn 0.8253 0.5647 -0.0000
vn 0.5836 0.5647 0.5835
vn -0.0000 0.5647 0.8253
vn -0.5835 0.5647 0.5836
vn -0.8253 0.5647 -0.0000
vn -0.5836 0.5647 -0.5835
vn -0.0000 0.5647 -0.8253
vn 0.5835 0.5647 -0.5836
vn 0.8455 -0.5339 -0.0000
vn 0.5979 -0.5339 0.5979
vn -0.0000 -0.5339 0.8455
vn -0.5979 -0.5339 0.5979
vn -0.8455 -0.5339 -0.0000
vn -0.5979 -0.5339 -0.5979
vn -0.0000 -0.5339 -0.8455
vn 0.5979 -0.5339 -0.5979
vn 0.8455 0.5339 -0.0000
vn 0.5979 0.5339 0.5979
vn -0.0000 0.5339 0.8455
vn -0.5979 0.5339 0.5979
vn -0.8455 0.5339 -0.0000
vn -0.5979 0.5339 -0.5979
vn -0.0000 0.5339 -0.8455
vn 0.5979 0.5339 -0.5979
s 1
usemtl verdant_growth
f 1//1 2//2 3//3
f 1//1 3//3 4//4
f 1//1 4//4 5//5
f 1//1 5//5 6//6
f 1//1 6//6 7//7
f 1//1 7//7 8//8
f 1//1 8//8 9//9
f 1//1 9//9 10//10
f 1//1 10//10 11//11
f 1//1 11//11 12//12
f 1//1 12//12 13//13
f 1//1 13//13 2//2
f 14//14 3//3 2//2
f 15//15 4//4 3//3
f 16//16 5//5 4//4
f 17//17 6//6 5//5
f 18//18 7//7 6//6
f 19//19 8//8 7//7
f 20//20 9//9 8//8
f 21//21 10//10 9//9
f 22//22 11//11 10//10
f 23//23 12//12 11//11
f 24//24 13//13 12//12
f 25//25 2//2 13//13
f 14//14 26//26 15//15
f 15//15 26//26 16//16
f 16//16 26//26 17//17
f 17//17 26//26 18//18
f 18//18 26//26 19//19
f 19//19 26//26 20//20
f 20//20 26//26 21//21
f 21//21 26//26 22//22
f 22//22 26//26 23//23
f 23//23 26//26 24//24
f 24//24 26//26 25//25
f 25//25 26//26 14//14
f 53//1 54//51 55//52
f 53//1 55//52 56//53
f 53//1 56//53 57//54
f 53//1 57//54 58//55
f 53//1 58//55 59//56
f 53//1 59//56 60//57
f 53//1 60//57 61//58
f 53//1 61//58 62//59
f 53//1 62//59 63//60
f 53//1 63//60 64//61
f 53//1 64//61 65//62
f 53//1 65//62 54//51
f 66//63 55//52 54//51
f 67//64 56//53 55//52
f 68//65 57//54 56//53
f 69//66 58//55 57//54
f 70//67 59//56 58//55
f 71//68 60//57 59//56
f 72//69 61//58 60//57
f 73//70 62//59 61//58
f 74//71 63//60 62//59
f 75//72 64//61 63//60
f 76//73 65//62 64//61
f 77//74 54//51 65//62
f 66//63 78//26 67//64
f 67//64 78//26 68//65
f 68//65 78//26 69//66
f 69//66 78//26 70//67
f 70//67 78//26 71//68
f 71//68 78//26 72//69
f 72//69 78//26 73//70
f 73//70 78//26 74//71
f 74//71 78//26 75//72
f 75//72 78//26 76//73
f 76//73 78//26 77//74
f 77//74 78//26 66//63
f 14//14 15//15 3//3
f 15//15 16//16 4//4
f 16//16 17//17 5//5
f 17//17 18//18 6//6
f 18//18 19//19 7//7
f 19//19 20//20 8//8
f 20//20 21//21 9//9
f 21//21 22//22 10//10
f 22//22 23//23 11//11
f 23//23 24//24 12//12
f 24//24 25//25 13//13
f 25//25 14//14 2//2
f 66//63 67//64 55//52
f 67//64 68//65 56//53
f 68//65 69//66 57//54
f 69//66 70//67 58//55
f 70//67 71//68 59//56
f 71//68 72//69 60//57
f 72//69 73//70 61//58
f 73//70 74//71 62//59
f 74//71 75//72 63//60
f 75//72 76//73 64//61
f 76//73 77//74 65//62
f 77//74 66//63 54//51
usemtl verdant_growth
f 27//1 28//27 29//28
f 27//1 29//28 30//29
f 27//1 30//29 31//30
f 27//1 31//30 32//31
f 27//1 32//31 33//32
f 27//1 33//32 34//33
f 27//1 34//33 35//34
f 27//1 35//34 36//35
f 27//1 36//35 37//36
f 27//1 37//36 38//37
f 27//1 38//37 39//38
f 27//1 39//38 28//27
f 40//39 29//28 28//27
f 41//40 30//29 29//28
f 42//41 31//30 30//29
f 43//42 32//31 31//30
f 44//43 33//32 32//31
f 45//44 34//33 33//32
f 46//45 35//34 34//33
f 47//46 36//35 35//34
f 48//47 37//36 36//35
f 49//48 38//37 37//36
f 50//49 39//38 38//37
f 51//50 28//27 39//38
f 40//39 52//26 41//40
f 41//40 52//26 42//41
f 42//41 52//26 43//42
f 43//42 52//26 44//43
f 44//43 52//26 45//44
f 45//44 52//26 46//45
f 46//45 52//26 47//46
f 47//46 52//26 48//47
f 48//47 52//26 49//48
f 49//48 52//26 50//49
f 50//49 52//26 51//50
f 51//50 52//26 40//39
f 79//1 80//75 81//76
f 79//1 81//76 82//77
f 79//1 82//77 83//78
f 79//1 83//78 84//79
f 79//1 84//79 85//80
f 79//1 85//80 86//81
f 79//1 86//81 87//82
f 79//1 87//82 88//83
f 79//1 88//83 89//84
f 79//1 89//84 90//85
f 79//1 90//85 91//86
f 79//1 91//86 80//75
f 92//87 81//76 80//75
f 93//88 82//77 81//76
f 94//89 83//78 82//77
f 95//90 84//79 83//78
f 96//91 85//80 84//79
f 97//92 86//81 85//80
f 98//93 87//82 86//81
f 99//94 88//83 87//82
f 100//95 89//84 88//83
f 101//96 90//85 89//84
f 102//97 91//86 90//85
f 103//98 80//75 91//86
f 92//87 104//26 93//88
f 93//88 104//26 94//89
f 94//89 104//26 95//90
f 95//90 104//26 96//91
f 96//91 104//26 97//92
f 97//92 104//26 98//93
f 98//93 104//26 99//94
f 99//94 104//26 100//95
f 100//95 104//26 101//96
f 101//96 104//26 102//97
f 102//97 104//26 103//98
f 103//98 104//26 92//87
f 40//39 41//40 29//28
f 41//40 42//41 30//29
f 42//41 43//42 31//30
f 43//42 44//43 32//31
f 44//43 45//44 33//32
f 45//44 46//45 34//33
f 46//45 47//46 35//34
f 47//46 48//47 36//35
f 48//47 49//48 37//36
f 49//48 50//49 38//37
f 50//49 51//50 39//38
f 51//50 40//39 28//27
f 92//87 93//88 81//76
f 93//88 94//89 82//77
f 94//89 95//90 83//78
f 95//90 96//91 84//79
f 96//91 97//92 85//80
f 97//92 98//93 86//81
f 98//93 99//94 87//82
f 99//94 100//95 88//83
f 100//95 101//96 89//84
f 101//96 102//97 90//85
f 102//97 103//98 91//86
f 103//98 92//87 80//75
usemtl verdant_growth
f 113//107 109//103 105//99
f 108//102 112//106 116//110
f 105//99 108//102 106//100
f 109//103 108//102 107//101
f 111//105 110//104 109//103
f 113//107 112//106 111//105
f 115//109 114//108 113//107
f 115//109 106//100 116//110
f 117//1 118//111 119//112
f 117//1 119//112 120//113
f 117//1 120//113 121//114
f 117//1 121//114 122//115
f 117//1 122//115 123//116
f 117//1 123//116 124//117
f 117//1 124//117 118//111
f 125//118 119//112 118//111
f 126//119 120//113 119//112
f 127//120 121//114 120//113
f 128//121 122//115 121//114
f 129//122 123//116 122//115
f 130//123 124//117 123//116
f 131//124 118//111 124//117
f 125//118 132//26 126//119
f 126//119 132//26 127//120
f 127//120 132//26 128//121
f 128//121 132//26 129//122
f 129//122 132//26 130//123
f 130//123 132//26 131//124
f 131//124 132//26 125//118
f 165//157 161//153 157//149
f 160//152 164//156 168//160
f 157//149 160//152 158//150
f 161//153 160//152 159//151
f 163//155 162//154 161//153
f 165//157 164//156 163//155
f 165//157 168//160 166//158
f 167//159 158//150 168//160
f 169//1 170//111 171//112
f 169//1 171//112 172//113
f 169//1 172//113 173//114
f 169//1 173//114 174//115
f 169//1 174//115 175//116
f 169//1 175//116 176//161
f 169//1 176//161 170//111
f 177//118 171//112 170//111
f 178//162 172//113 171//112
f 179//120 173//114 172//113
f 180//121 174//115 173//114
f 181//122 175//116 174//115
f 182//123 176//161 175//116
f 183//124 170//111 176//161
f 177//118 184//26 178//162
f 178//162 184//26 179//120
f 179//120 184//26 180//121
f 180//121 184//26 181//122
f 181//122 184//26 182//123
f 182//123 184//26 183//124
f 183//124 184//26 177//118
f 227//205 223//201 219//197
f 222//200 226//204 230//208
f 219//197 222//200 220//198
f 223//201 222//200 221//199
f 225//203 224//202 223//201
f 227//205 226//204 225//203
f 227//205 230//208 228//206
f 229//207 220//198 230//208
f 231//1 232//209 233//112
f 231//1 233//112 234//113
f 231//1 234//113 235//114
f 231//1 235//114 236//115
f 231//1 236//115 237//116
f 231//1 237//116 238//117
f 231//1 238//117 232//209
f 239//210 233//112 232//209
f 240//119 234//113 233//112
f 241//120 235//114 234//113
f 242//121 236//115 235//114
f 243//122 237//116 236//115
f 244//123 238//117 237//116
f 245//124 232//209 238//117
f 239//210 246//26 240//119
f 240//119 246//26 241//120
f 241//120 246//26 242//121
f 242//121 246//26 243//122
f 243//122 246//26 244//123
f 244//123 246//26 245//124
f 245//124 246//26 239//210
f 289//253 285//249 281//245
f 284//248 288//252 292//256
f 283//247 282//246 281//245
f 283//247 286//250 284//248
f 285//249 288//252 286//250
f 287//251 290//254 288//252
f 291//255 290//254 289//253
f 281//245 292//256 291//255
f 293//1 294//209 295//112
f 293//1 295//112 296//113
f 293//1 296//113 297//114
f 293//1 297//114 298//115
f 293//1 298//115 299//116
f 293//1 299//116 300//117
f 293//1 300//117 294//209
f 301//210 295//112 294//209
f 302//119 296//113 295//112
f 303//120 297//114 296//113
f 304//121 298//115 297//114
f 305//257 299//116 298//115
f 306//123 300//117 299//116
f 307//124 294//209 300//117
f 301//210 308//26 302//119
f 302//119 308//26 303//120
f 303//120 308//26 304//121
f 304//121 308//26 305//257
f 305//257 308//26 306//123
f 306//123 308//26 307//124
f 307//124 308//26 301//210
f 341//290 337//286 333//282
f 336//285 340//289 344//293
f 335//284 334//283 333//282
f 337//286 336//285 335//284
f 339//288 338//287 337//286
f 339//288 342//291 340//289
f 341//290 344//293 342//291
f 333//282 344//293 343//292
f 345//1 346//111 347//112
f 345//1 347//112 348//113
f 345//1 348//113 349//114
f 345//1 349//114 350//115
f 345//1 350//115 351//116
f 345//1 351//116 352//117
f 345//1 352//117 346//111
f 353//118 347//112 346//111
f 354//119 348//113 347//112
f 355//120 349//114 348//113
f 356//121 350//115 349//114
f 357//122 351//116 350//115
f 358//123 352//117 351//116
f 359//124 346//111 352//117
f 353//118 360//26 354//119
f 354//119 360//26 355//120
f 355//120 360//26 356//121
f 356//121 360//26 357//122
f 357//122 360//26 358//123
f 358//123 360//26 359//124
f 359//124 360//26 353//118
f 393//326 389//322 385//318
f 388//321 392//325 396//329
f 385//318 388//321 386//319
f 387//320 390//323 388//321
f 391//324 390//323 389//322
f 393//326 392//325 391//324
f 393//326 396//329 394//327
f 395//328 386//319 396//329
f 397//1 398//111 399//112
f 397//1 399//112 400//113
f 397//1 400//113 401//114
f 397//1 401//114 402//115
f 397//1 402//115 403//116
f 397//1 403//116 404//117
f 397//1 404//117 398//111
f 405//118 399//112 398//111
f 406//119 400//113 399//112
f 407//120 401//114 400//113
f 408//121 402//115 401//114
f 409//257 403//116 402//115
f 410//123 404//117 403//116
f 411//124 398//111 404//117
f 405//118 412//26 406//119
f 406//119 412//26 407//120
f 407//120 412//26 408//121
f 408//121 412//26 409//257
f 409//257 412//26 410//123
f 410//123 412//26 411//124
f 411//124 412//26 405//118
f 455//372 451//368 447//364
f 450//367 454//371 458//375
f 449//366 448//365 447//364
f 451//368 450//367 449//366
f 453//370 452//369 451//368
f 453//370 456//373 454//371
f 457//374 456//373 455//372
f 457//374 448//365 458//375
f 459//1 460//111 461//112
f 459//1 461//112 462//113
f 459//1 462//113 463//114
f 459//1 463//114 464//115
f 459//1 464//115 465//116
f 459//1 465//116 466//117
f 459//1 466//117 460//111
f 467//118 461//112 460//111
f 468//119 462//113 461//112
f 469//120 463//114 462//113
f 470//121 464//115 463//114
f 471//122 465//116 464//115
f 472//123 466//117 465//116
f 473//124 460//111 466//117
f 467//118 474//26 468//119
f 468//119 474//26 469//120
f 469//120 474//26 470//121
f 470//121 474//26 471//122
f 471//122 474//26 472//123
f 472//123 474//26 473//124
f 473//124 474//26 467//118
f 475//1 476//376 477//377
f 475//1 477//377 478//378
f 475//1 478//378 479//379
f 475//1 479//379 480//380
f 475//1 480//380 481//381
f 475//1 481//381 482//382
f 475//1 482//382 483//383
f 475//1 483//383 476//376
f 484//384 477//377 476//376
f 485//385 478//378 477//377
f 486//386 479//379 478//378
f 487//387 480//380 479//379
f 488//388 481//381 480//380
f 489//389 482//382 481//381
f 490//390 483//383 482//382
f 491//391 476//376 483//383
f 484//384 492//26 485//385
f 485//385 492//26 486//386
f 486//386 492//26 487//387
f 487//387 492//26 488//388
f 488//388 492//26 489//389
f 489//389 492//26 490//390
f 490//390 492//26 491//391
f 491//391 492//26 484//384
f 493//1 494//392 495//393
f 493//1 495//393 496//394
f 493//1 496//394 497//395
f 493//1 497//395 498//396
f 493//1 498//396 499//397
f 493//1 499//397 500//398
f 493//1 500//398 501//399
f 493//1 501//399 494//392
f 502//400 495//393 494//392
f 503//401 496//394 495//393
f 504//402 497//395 496//394
f 505//403 498//396 497//395
f 506//404 499//397 498//396
f 507//405 500//398 499//397
f 508//406 501//399 500//398
f 509//407 494//392 501//399
f 502//400 510//26 503//401
f 503//401 510//26 504//402
f 504//402 510//26 505//403
f 505//403 510//26 506//404
f 506//404 510//26 507//405
f 507//405 510//26 508//406
f 508//406 510//26 509//407
f 509//407 510//26 502//400
f 511//1 512//408 513//409
f 511//1 513//409 514//410
f 511//1 514//410 515//411
f 511//1 515//411 516//412
f 511//1 516//412 517//413
f 511//1 517//413 518//414
f 511//1 518//414 519//415
f 511//1 519//415 512//408
f 520//416 513//409 512//408
f 521//417 514//410 513//409
f 522//418 515//411 514//410
f 523//419 516//412 515//411
f 524//420 517//413 516//412
f 525//421 518//414 517//413
f 526//422 519//415 518//414
f 527//423 512//408 519//415
f 520//416 528//26 521//417
f 521//417 528//26 522//418
f 522//418 528//26 523//419
f 523//419 528//26 524//420
f 524//420 528//26 525//421
f 525//421 528//26 526//422
f 526//422 528//26 527//423
f 527//423 528//26 520//416
f 529//1 530//424 531//425
f 529//1 531//425 532//426
f 529//1 532//426 533//427
f 529//1 533//427 534//428
f 529//1 534//428 535//429
f 529//1 535//429 536//430
f 529//1 536//430 537//431
f 529//1 537//431 530//424
f 538//432 531//425 530//424
f 539//433 532//426 531//425
f 540//434 533//427 532//426
f 541//435 534//428 533//427
f 542//436 535//429 534//428
f 543//437 536//430 535//429
f 544//438 537//431 536//430
f 545//439 530//424 537//431
f 538//432 546//26 539//433
f 539//433 546//26 540//434
f 540//434 546//26 541//435
f 541//435 546//26 542//436
f 542//436 546//26 543//437
f 543//437 546//26 544//438
f 544//438 546//26 545//439
f 545//439 546//26 538//432
f 105//99 115//109 113//107
f 113//107 111//105 109//103
f 109//103 107//101 105//99
f 116//110 106//100 108//102
f 108//102 110//104 112//106
f 112//106 114//108 116//110
f 105//99 107//101 108//102
f 109//103 110//104 108//102
f 111//105 112//106 110//104
f 113//107 114//108 112//106
f 115//109 116//110 114//108
f 115//109 105//99 106//100
f 125//118 126//119 119//112
f 126//119 127//120 120//113
f 127//120 128//121 121//114
f 128//121 129//122 122//115
f 129//122 130//123 123//116
f 130//123 131//124 124//117
f 131//124 125//118 118//111
f 157//149 167//159 165//157
f 165//157 163//155 161//153
f 161//153 159//151 157//149
f 168//160 158//150 160//152
f 160//152 162//154 164//156
f 164//156 166//158 168//160
f 157//149 159//151 160//152
f 161//153 162//154 160//152
f 163//155 164//156 162//154
f 165//157 166//158 164//156
f 165//157 167//159 168//160
f 167//159 157//149 158//150
f 177//118 178//162 171//112
f 178//162 179//120 172//113
f 179//120 180//121 173//114
f 180//121 181//122 174//115
f 181//122 182//123 175//116
f 182//123 183//124 176//161
f 183//124 177//118 170//111
f 219//197 229//207 227//205
f 227//205 225//203 223//201
f 223//201 221//199 219//197
f 230//208 220//198 222//200
f 222//200 224//202 226//204
f 226//204 228//206 230//208
f 219//197 221//199 222//200
f 223//201 224//202 222//200
f 225//203 226//204 224//202
f 227//205 228//206 226//204
f 227//205 229//207 230//208
f 229//207 219//197 220//198
f 239//210 240//119 233//112
f 240//119 241//120 234//113
f 241//120 242//121 235//114
f 242//121 243//122 236//115
f 243//122 244//123 237//116
f 244//123 245//124 238//117
f 245//124 239//210 232//209
f 281//245 291//255 289//253
f 289//253 287//251 285//249
f 285//249 283//247 281//245
f 292//256 282//246 284//248
f 284//248 286//250 288//252
f 288//252 290//254 292//256
f 283//247 284//248 282//246
f 283//247 285//249 286//250
f 285//249 287//251 288//252
f 287//251 289//253 290//254
f 291//255 292//256 290//254
f 281//245 282//246 292//256
f 301//210 302//119 295//112
f 302//119 303//120 296//113
f 303//120 304//121 297//114
f 304//121 305//257 298//115
f 305//257 306//123 299//116
f 306//123 307//124 300//117
f 307//124 301//210 294//209
f 333//282 343//292 341//290
f 341//290 339//288 337//286
f 337//286 335//284 333//282
f 344//293 334//283 336//285
f 336//285 338//287 340//289
f 340//289 342//291 344//293
f 335//284 336//285 334//283
f 337//286 338//287 336//285
f 339//288 340//289 338//287
f 339//288 341//290 342//291
f 341//290 343//292 344//293
f 333//282 334//283 344//293
f 353//118 354//119 347//112
f 354//119 355//120 348//113
f 355//120 356//121 349//114
f 356//121 357//122 350//115
f 357//122 358//123 351//116
f 358//123 359//124 352//117
f 359//124 353//118 346//111
f 385//318 395//328 393//326
f 393//326 391//324 389//322
f 389//322 387//320 385//318
f 396//329 386//319 388//321
f 388//321 390//323 392//325
f 392//325 394//327 396//329
f 385//318 387//320 388//321
f 387//320 389//322 390//323
f 391//324 392//325 390//323
f 393//326 394//327 392//325
f 393//326 395//328 396//329
f 395//328 385//318 386//319
f 405//118 406//119 399//112
f 406//119 407//120 400//113
f 407//120 408//121 401//114
f 408//121 409//257 402//115
f 409//257 410//123 403//116
f 410//123 411//124 404//117
f 411//124 405//118 398//111
f 447//364 457//374 455//372
f 455//372 453//370 451//368
f 451//368 449//366 447//364
f 458//375 448//365 450//367
f 450//367 452//369 454//371
f 454//371 456//373 458//375
f 449//366 450//367 448//365
f 451//368 452//369 450//367
f 453//370 454//371 452//369
f 453//370 455//372 456//373
f 457//374 458//375 456//373
f 457//374 447//364 448//365
f 467//118 468//119 461//112
f 468//119 469//120 462//113
f 469//120 470//121 463//114
f 470//121 471//122 464//115
f 471//122 472//123 465//116
f 472//123 473//124 466//117
f 473//124 467//118 460//111
f 484//384 485//385 477//377
f 485//385 486//386 478//378
f 486//386 487//387 479//379
f 487//387 488//388 480//380
f 488//388 489//389 481//381
f 489//389 490//390 482//382
f 490//390 491//391 483//383
f 491//391 484//384 476//376
f 502//400 503//401 495//393
f 503//401 504//402 496//394
f 504//402 505//403 497//395
f 505//403 506//404 498//396
f 506//404 507//405 499//397
f 507//405 508//406 500//398
f 508//406 509//407 501//399
f 509//407 502//400 494//392
f 520//416 521//417 513//409
f 521//417 522//418 514//410
f 522//418 523//419 515//411
f 523//419 524//420 516//412
f 524//420 525//421 517//413
f 525//421 526//422 518//414
f 526//422 527//423 519//415
f 527//423 520//416 512//408
f 538//432 539//433 531//425
f 539//433 540//434 532//426
f 540//434 541//435 533//427
f 541//435 542//436 534//428
f 542//436 543//437 535//429
f 543//437 544//438 536//430
f 544//438 545//439 537//431
f 545//439 538//432 530//424
usemtl verdant_growth
f 141//133 137//129 133//125
f 136//128 140//132 144//136
f 133//125 136//128 134//126
f 135//127 138//130 136//128
f 139//131 138//130 137//129
f 141//133 140//132 139//131
f 143//135 142//134 141//133
f 143//135 134//126 144//136
f 153//145 149//141 145//137
f 148//140 152//144 156//148
f 145//137 148//140 146//138
f 147//139 150//142 148//140
f 149//141 152//144 150//142
f 153//145 152//144 151//143
f 155//147 154//146 153//145
f 145//137 156//148 155//147
f 193//171 189//167 185//163
f 188//166 192//170 196//174
f 187//165 186//164 185//163
f 189//167 188//166 187//165
f 189//167 192//170 190//168
f 191//169 194//172 192//170
f 193//171 196//174 194//172
f 185//163 196//174 195//173
f 203//181 199//177 197//175
f 200//178 204//182 206//184
f 197//175 200//178 198//176
f 201//179 200//178 199//177
f 203//181 202//180 201//179
f 203//181 206//184 204//182
f 197//175 206//184 205//183
f 215//193 211//189 207//185
f 210//188 214//192 218//196
f 207//185 210//188 208//186
f 209//187 212//190 210//188
f 211//189 214//192 212//190
f 215//193 214//192 213//191
f 217//195 216//194 215//193
f 207//185 218//196 217//195
f 255//219 251//215 247//211
f 250//214 254//218 258//222
f 249//213 248//212 247//211
f 249//213 252//216 250//214
f 253//217 252//216 251//215
f 253//217 256//220 254//218
f 257//221 256//220 255//219
f 257//221 248//212 258//222
f 267//231 263//227 259//223
f 262//226 266//230 270//234
f 259//223 262//226 260//224
f 263//227 262//226 261//225
f 263//227 266//230 264//228
f 267//231 266//230 265//229
f 267//231 270//234 268//232
f 259//223 270//234 269//233
f 277//241 273//237 271//235
f 274//238 278//242 280//244
f 273//237 272//236 271//235
f 273//237 276//240 274//238
f 277//241 276//240 275//239
f 277//241 280//244 278//242
f 271//235 280//244 279//243
f 317//266 313//262 309//258
f 312//261 316//265 320//269
f 309//258 312//261 310//259
f 313//262 312//261 311//260
f 315//264 314//263 313//262
f 317//266 316//265 315//264
f 317//266 320//269 318//267
f 319//268 310//259 320//269
f 329//278 325//274 321//270
f 324//273 328//277 332//281
f 321//270 324//273 322//271
f 325//274 324//273 323//272
f 325//274 328//277 326//275
f 329//278 328//277 327//276
f 329//278 332//281 330//279
f 321//270 332//281 331//280
f 369//302 365//298 361//294
f 364//297 368//301 372//305
f 361//294 364//297 362//295
f 363//296 366//299 364//297
f 365//298 368//301 366//299
f 367//300 370//303 368//301
f 371//304 370//303 369//302
f 361//294 372//305 371//304
f 381//314 377//310 373//306
f 376//309 380//313 384//317
f 373//306 376//309 374//307
f 377//310 376//309 375//308
f 377//310 380//313 378//311
f 381//314 380//313 379//312
f 381//314 384//317 382//315
f 373//306 384//317 383//316
f 421//338 417//334 413//330
f 416//333 420//337 424//341
f 415//332 414//331 413//330
f 415//332 418//335 416//333
f 419//336 418//335 417//334
f 419//336 422//339 420//337
f 423//340 422//339 421//338
f 423//340 414//331 424//341
f 431//348 427//344 425//342
f 428//345 432//349 434//351
f 427//344 426//343 425//342
f 427//344 430//347 428//345
f 431//348 430//347 429//346
f 431//348 434//351 432//349
f 433//350 426//343 434//351
f 443//360 439//356 435//352
f 438//355 442//359 446//363
f 437//354 436//353 435//352
f 439//356 438//355 437//354
f 439//356 442//359 440//357
f 441//358 444//361 442//359
f 443//360 446//363 444//361
f 435//352 446//363 445//362
f 133//125 143//135 141//133
f 141//133 139//131 137//129
f 137//129 135//127 133//125
f 144//136 134//126 136//128
f 136//128 138//130 140//132
f 140//132 142//134 144//136
f 133//125 135//127 136//128
f 135//127 137//129 138//130
f 139//131 140//132 138//130
f 141//133 142//134 140//132
f 143//135 144//136 142//134
f 143//135 133//125 134//126
f 145//137 155//147 153//145
f 153//145 151//143 149//141
f 149//141 147//139 145//137
f 156//148 146//138 148//140
f 148//140 150//142 152//144
f 152//144 154//146 156//148
f 145//137 147//139 148//140
f 147//139 149//141 150//142
f 149//141 151//143 152//144
f 153//145 154//146 152//144
f 155//147 156//148 154//146
f 145//137 146//138 156//148
f 185//163 195//173 193//171
f 193//171 191//169 189//167
f 189//167 187//165 185//163
f 196//174 186//164 188//166
f 188//166 190//168 192//170
f 192//170 194//172 196//174
f 187//165 188//166 186//164
f 189//167 190//168 188//166
f 189//167 191//169 192//170
f 191//169 193//171 194//172
f 193//171 195//173 196//174
f 185//163 186//164 196//174
f 197//175 205//183 203//181
f 203//181 201//179 199//177
f 206//184 198//176 200//178
f 200//178 202//180 204//182
f 197//175 199//177 200//178
f 201//179 202//180 200//178
f 203//181 204//182 202//180
f 203//181 205//183 206//184
f 197//175 198//176 206//184
f 207//185 217//195 215//193
f 215//193 213//191 211//189
f 211//189 209//187 207//185
f 218//196 208//186 210//188
f 210//188 212//190 214//192
f 214//192 216//194 218//196
f 207//185 209//187 210//188
f 209//187 211//189 212//190
f 211//189 213//191 214//192
f 215//193 216//194 214//192
f 217//195 218//196 216//194
f 207//185 208//186 218//196
f 247//211 257//221 255//219
f 255//219 253//217 251//215
f 251//215 249//213 247//211
f 258//222 248//212 250//214
f 250//214 252//216 254//218
f 254//218 256//220 258//222
f 249//213 250//214 248//212
f 249//213 251//215 252//216
f 253//217 254//218 252//216
f 253//217 255//219 256//220
f 257//221 258//222 256//220
f 257//221 247//211 248//212
f 259//223 269//233 267//231
f 267//231 265//229 263//227
f 263//227 261//225 259//223
f 270//234 260//224 262//226
f 262//226 264//228 266//230
f 266//230 268//232 270//234
f 259//223 261//225 262//226
f 263//227 264//228 262//226
f 263//227 265//229 266//230
f 267//231 268//232 266//230
f 267//231 269//233 270//234
f 259//223 260//224 270//234
f 271//235 279//243 277//241
f 277//241 275//239 273//237
f 280//244 272//236 274//238
f 274//238 276//240 278//242
f 273//237 274//238 272//236
f 273//237 275//239 276//240
f 277//241 278//242 276//240
f 277//241 279//243 280//244
f 271//235 272//236 280//244
f 309//258 319//268 317//266
f 317//266 315//264 313//262
f 313//262 311//260 309//258
f 320//269 310//259 312//261
f 312//261 314//263 316//265
f 316//265 318//267 320//269
f 309//258 311//260 312//261
f 313//262 314//263 312//261
f 315//264 316//265 314//263
f 317//266 318//267 316//265
f 317//266 319//268 320//269
f 319//268 309//258 310//259
f 321//270 331//280 329//278
f 329//278 327//276 325//274
f 325//274 323//272 321//270
f 332//281 322//271 324//273
f 324//273 326//275 328//277
f 328//277 330//279 332//281
f 321//270 323//272 324//273
f 325//274 326//275 324//273
f 325//274 327//276 328//277
f 329//278 330//279 328//277
f 329//278 331//280 332//281
f 321//270 322//271 332//281
f 361//294 371//304 369//302
f 369//302 367//300 365//298
f 365//298 363//296 361//294
f 372//305 362//295 364//297
f 364//297 366//299 368//301
f 368//301 370//303 372//305
f 361//294 363//296 364//297
f 363//296 365//298 366//299
f 365//298 367//300 368//301
f 367//300 369//302 370//303
f 371//304 372//305 370//303
f 361//294 362//295 372//305
f 373//306 383//316 381//314
f 381//314 379//312 377//310
f 377//310 375//308 373//306
f 384//317 374//307 376//309
f 376//309 378//311 380//313
f 380//313 382//315 384//317
f 373//306 375//308 376//309
f 377//310 378//311 376//309
f 377//310 379//312 380//313
f 381//314 382//315 380//313
f 381//314 383//316 384//317
f 373//306 374//307 384//317
f 413//330 423//340 421//338
f 421//338 419//336 417//334
f 417//334 415//332 413//330
f 424//341 414//331 416//333
f 416//333 418//335 420//337
f 420//337 422//339 424//341
f 415//332 416//333 414//331
f 415//332 417//334 418//335
f 419//336 420//337 418//335
f 419//336 421//338 422//339
f 423//340 424//341 422//339
f 423//340 413//330 414//331
f 425//342 433//350 431//348
f 431//348 429//346 427//344
f 434//351 426//343 428//345
f 428//345 430//347 432//349
f 427//344 428//345 426//343
f 427//344 429//346 430//347
f 431//348 432//349 430//347
f 431//348 433//350 434//351
f 433//350 425//342 426//343
f 435//352 445//362 443//360
f 443//360 441//358 439//356
f 439//356 437//354 435//352
f 446//363 436//353 438//355
f 438//355 440//357 442//359
f 442//359 444//361 446//363
f 437//354 438//355 436//353
f 439//356 440//357 438//355
f 439//356 441//358 442//359
f 441//358 443//360 444//361
f 443//360 445//362 446//363
f 435//352 436//353 446//363
