# Blender 5.2.1 LTS
# www.blender.org
mtllib vegetation_mat_a.mtl
o vegetation_mat_a
v -2.200000 -0.000000 -0.700000
v 0.051670 0.040000 -0.700000
v -0.250000 0.040000 0.036120
v -1.074170 0.040000 0.575000
v -2.200000 0.040000 0.772240
v -3.325830 0.040000 0.575000
v -4.150000 0.040000 0.036120
v -4.451670 0.040000 -0.700000
v -4.150000 0.040000 -1.436120
v -3.325830 0.040000 -1.975000
v -2.200000 0.040000 -2.172240
v -1.074170 0.040000 -1.975000
v -0.250000 0.040000 -1.436120
v 0.051670 0.120000 -0.700000
v -0.250000 0.120000 0.036120
v -1.074170 0.120000 0.575000
v -2.200000 0.120000 0.772240
v -3.325830 0.120000 0.575000
v -4.150000 0.120000 0.036120
v -4.451670 0.120000 -0.700000
v -4.150000 0.120000 -1.436120
v -3.325830 0.120000 -1.975000
v -2.200000 0.120000 -2.172240
v -1.074170 0.120000 -1.975000
v -0.250000 0.120000 -1.436120
v -2.200000 0.160000 -0.700000
v 1.000000 0.000000 0.300000
v 3.598080 0.040000 0.300000
v 3.250000 0.040000 1.122720
v 2.299040 0.040000 1.725000
v 1.000000 0.040000 1.945450
v -0.299040 0.040000 1.725000
v -1.250000 0.040000 1.122720
v -1.598080 0.040000 0.300000
v -1.250000 0.040000 -0.522720
v -0.299040 0.040000 -1.125000
v 1.000000 0.040000 -1.345450
v 2.299040 0.040000 -1.125000
v 3.250000 0.040000 -0.522720
v 3.598080 0.120000 0.300000
v 3.250000 0.120000 1.122720
v 2.299040 0.120000 1.725000
v 1.000000 0.120000 1.945450
v -0.299040 0.120000 1.725000
v -1.250000 0.120000 1.122720
v -1.598080 0.120000 0.300000
v -1.250000 0.120000 -0.522720
v -0.299040 0.120000 -1.125000
v 1.000000 0.120000 -1.345450
v 2.299040 0.120000 -1.125000
v 3.250000 0.120000 -0.522720
v 1.000000 0.160000 0.300000
v 2.600000 -0.000000 -1.100000
v 4.245450 0.040000 -1.100000
v 4.025000 0.040000 -0.537080
v 3.422720 0.040000 -0.125000
v 2.600000 0.040000 0.025830
v 1.777280 0.040000 -0.125000
v 1.175000 0.040000 -0.537080
v 0.954550 0.040000 -1.100000
v 1.175000 0.040000 -1.662920
v 1.777280 0.040000 -2.075000
v 2.600000 0.040000 -2.225830
v 3.422720 0.040000 -2.075000
v 4.025000 0.040000 -1.662920
v 4.245450 0.120000 -1.100000
v 4.025000 0.120000 -0.537080
v 3.422720 0.120000 -0.125000
v 2.600000 0.120000 0.025830
v 1.777280 0.120000 -0.125000
v 1.175000 0.120000 -0.537080
v 0.954550 0.120000 -1.100000
v 1.175000 0.120000 -1.662920
v 1.777280 0.120000 -2.075000
v 2.600000 0.120000 -2.225830
v 3.422720 0.120000 -2.075000
v 4.025000 0.120000 -1.662920
v 2.600000 0.160000 -1.100000
v -0.300000 0.000000 1.700000
v 1.778460 0.040000 1.700000
v 1.500000 0.040000 2.176310
v 0.739230 0.040000 2.525000
v -0.300000 0.040000 2.652630
v -1.339230 0.040000 2.525000
v -2.100000 0.040000 2.176310
v -2.378460 0.040000 1.700000
v -2.100000 0.040000 1.223690
v -1.339230 0.040000 0.875000
v -0.300000 0.040000 0.747370
v 0.739230 0.040000 0.875000
v 1.500000 0.040000 1.223690
v 1.778460 0.120000 1.700000
v 1.500000 0.120000 2.176310
v 0.739230 0.120000 2.525000
v -0.300000 0.120000 2.652630
v -1.339230 0.120000 2.525000
v -2.100000 0.120000 2.176310
v -2.378460 0.120000 1.700000
v -2.100000 0.120000 1.223690
v -1.339230 0.120000 0.875000
v -0.300000 0.120000 0.747370
v 0.739230 0.120000 0.875000
v 1.500000 0.120000 1.223690
v -0.300000 0.160000 1.700000
v 0.920000 0.060000 -0.095000
v 1.100000 0.650000 -0.095000
v 0.841310 0.084010 -0.047500
v 1.021310 0.674010 -0.047500
v 0.841310 0.084010 0.047500
v 1.021310 0.674010 0.047500
v 0.920000 0.060000 0.095000
v 1.100000 0.650000 0.095000
v 0.998690 0.035990 0.047500
v 1.178690 0.625990 0.047500
v 0.998690 0.035990 -0.047500
v 1.178690 0.625990 -0.047500
v 1.100000 0.570000 -0.000000
v 1.290530 0.635000 -0.000000
v 1.218790 0.635000 0.148960
v 1.057600 0.635000 0.185750
v 0.928340 0.635000 0.082670
v 0.928340 0.635000 -0.082670
v 1.057600 0.635000 -0.185750
v 1.218790 0.635000 -0.148960
v 1.290530 0.765000 -0.000000
v 1.218790 0.765000 0.148960
v 1.057600 0.765000 0.185750
v 0.928340 0.765000 0.082670
v 0.928340 0.765000 -0.082670
v 1.057600 0.765000 -0.185750
v 1.218790 0.765000 -0.148960
v 1.100000 0.830000 -0.000000
v -1.958790 0.070840 1.064290
v -2.179060 1.360840 1.266470
v -2.018560 0.055460 1.097310
v -2.238840 1.345460 1.299490
v -2.018560 0.044620 1.166460
v -2.238840 1.334620 1.368650
v -1.958790 0.049160 1.202600
v -2.179060 1.339160 1.404790
v -1.899010 0.064540 1.169590
v -2.119290 1.354540 1.371770
v -1.899010 0.075380 1.100430
v -2.119290 1.365380 1.302610
v 0.376020 0.046020 -2.830840
v 0.388790 0.776020 -2.979620
v 0.315410 0.054030 -2.796750
v 0.328180 0.784030 -2.945540
v 0.315410 0.068010 -2.728160
v 0.328180 0.798010 -2.876950
v 0.376020 0.073980 -2.693660
v 0.388790 0.803980 -2.842440
v 0.436640 0.065970 -2.727740
v 0.449410 0.795970 -2.876530
v 0.436640 0.051990 -2.796330
v 0.449410 0.781990 -2.945120
v 1.472100 0.062670 1.133330
v 1.514180 1.492670 1.187890
v 1.411510 0.063110 1.168370
v 1.453590 1.493110 1.222930
v 1.411510 0.060450 1.238320
v 1.453590 1.490450 1.292880
v 1.472100 0.057330 1.273230
v 1.514180 1.487330 1.327790
v 1.532700 0.056890 1.238190
v 1.574780 1.486890 1.292750
v 1.532700 0.059550 1.168240
v 1.574780 1.489550 1.222800
v 1.514180 1.410000 1.257840
v 1.704710 1.475000 1.257840
v 1.632970 1.475000 1.406800
v 1.471790 1.475000 1.443590
v 1.342530 1.475000 1.340500
v 1.342530 1.475000 1.175170
v 1.471790 1.475000 1.072090
v 1.632970 1.475000 1.108880
v 1.704710 1.605000 1.257840
v 1.632970 1.605000 1.406800
v 1.471790 1.605000 1.443590
v 1.342530 1.605000 1.340500
v 1.342530 1.605000 1.175170
v 1.471790 1.605000 1.072090
v 1.632970 1.605000 1.108880
v 1.514180 1.670000 1.257840
v -4.088530 0.055550 -0.540590
v -4.324320 0.925550 -0.581370
v -4.167940 0.036300 -0.492140
v -4.403740 0.906300 -0.532910
v -4.167940 0.040750 -0.397240
v -4.403740 0.910750 -0.438020
v -4.088530 0.064450 -0.350800
v -4.324320 0.934450 -0.391570
v -4.009110 0.083700 -0.399260
v -4.244910 0.953700 -0.440030
v -4.009110 0.079250 -0.494150
v -4.244910 0.949250 -0.534920
v -4.103120 0.511500 -0.403130
v -3.753120 0.725400 -0.283130
v -4.072780 0.474450 -0.425600
v -3.722780 0.688350 -0.305600
v -4.064200 0.488600 -0.475840
v -3.714200 0.702500 -0.355840
v -4.089240 0.534400 -0.484430
v -3.739240 0.748300 -0.364430
v -4.113300 0.548550 -0.439490
v -3.763300 0.762450 -0.319490
v 1.818590 0.053380 -0.806780
v 2.050600 1.623380 -0.955940
v 1.758610 0.065470 -0.772770
v 1.990620 1.635470 -0.921930
v 1.758610 0.072090 -0.703080
v 1.990620 1.642090 -0.852240
v 1.818590 0.066620 -0.667400
v 2.050600 1.636620 -0.816560
v 1.878570 0.054530 -0.701410
v 2.110570 1.624530 -0.850570
v 1.878570 0.047910 -0.771100
v 2.110570 1.617910 -0.920260
v -0.990880 0.066410 2.308830
v -1.015270 1.076410 2.401700
v -1.051480 0.061750 2.343550
v -1.075870 1.071750 2.436420
v -1.051480 0.055340 2.413260
v -1.075870 1.065340 2.506120
v -0.990880 0.053590 2.448240
v -1.015270 1.063590 2.541110
v -0.930270 0.058250 2.413520
v -0.954660 1.068250 2.506390
v -0.930270 0.064660 2.343820
v -0.954660 1.074660 2.436680
v -1.015270 0.990000 2.471400
v -0.824740 1.055000 2.471400
v -0.896480 1.055000 2.620360
v -1.057660 1.055000 2.657150
v -1.186920 1.055000 2.554070
v -1.186920 1.055000 2.388740
v -1.057660 1.055000 2.285650
v -0.896480 1.055000 2.322440
v -0.824740 1.185000 2.471400
v -0.896480 1.185000 2.620360
v -1.057660 1.185000 2.657150
v -1.186920 1.185000 2.554070
v -1.186920 1.185000 2.388740
v -1.057660 1.185000 2.285650
v -0.896480 1.185000 2.322440
v -1.015270 1.250000 2.471400
v -0.893420 0.056170 -1.136740
v -0.942830 1.766170 -1.230320
v -0.954020 0.056340 -1.101700
v -1.003430 1.766340 -1.195280
v -0.954020 0.060170 -1.031800
v -1.003430 1.770170 -1.125380
v -0.893420 0.063830 -0.996950
v -0.942830 1.773830 -1.090530
v -0.832830 0.063660 -1.031990
v -0.882230 1.773660 -1.125570
v -0.832830 0.059830 -1.101890
v -0.882230 1.769830 -1.195470
v 3.440330 0.067830 0.678510
v 3.706990 1.217830 0.773580
v 3.360170 0.082370 0.727380
v 3.626830 1.232370 0.822440
v 3.360170 0.074550 0.822060
v 3.626830 1.224550 0.917120
v 3.440330 0.052170 0.867870
v 3.706990 1.202170 0.962930
v 3.520490 0.037630 0.819000
v 3.787150 1.187630 0.914070
v 3.520490 0.045450 0.724330
v 3.787150 1.195450 0.819390
v 3.425740 0.665500 0.815760
v 3.775740 0.943800 0.935760
v 3.460160 0.631300 0.794690
v 3.810160 0.909600 0.914690
v 3.467180 0.644360 0.743910
v 3.817180 0.922660 0.863910
v 3.437100 0.686640 0.733600
v 3.787100 0.964940 0.853600
v 3.411480 0.699700 0.778000
v 3.761480 0.978000 0.898000
v -1.533650 0.070400 0.339730
v -1.743280 0.660400 0.428400
v -1.590850 0.045330 0.371360
v -1.800480 0.635330 0.460020
v -1.590850 0.034930 0.440580
v -1.800480 0.624930 0.529250
v -1.533650 0.049600 0.478180
v -1.743280 0.639600 0.566840
v -1.476460 0.074670 0.446550
v -1.686090 0.664670 0.535220
v -1.476460 0.085070 0.377330
v -1.686090 0.675070 0.466000
v -1.743280 0.570000 0.497620
v -1.552760 0.635000 0.497620
v -1.624490 0.635000 0.646580
v -1.785680 0.635000 0.683370
v -1.914940 0.635000 0.580290
v -1.914940 0.635000 0.414960
v -1.785680 0.635000 0.311870
v -1.624490 0.635000 0.348660
v -1.552760 0.765000 0.497620
v -1.624490 0.765000 0.646580
v -1.785680 0.765000 0.683370
v -1.914940 0.765000 0.580290
v -1.914940 0.765000 0.414960
v -1.785680 0.765000 0.311870
v -1.624490 0.765000 0.348660
v -1.743280 0.830000 0.497620
v 1.413010 0.056810 -2.022300
v 1.439840 1.346810 -2.081100
v 1.352400 0.059660 -1.987400
v 1.379230 1.349660 -2.046200
v 1.352400 0.062850 -1.917470
v 1.379230 1.352850 -1.976270
v 1.413010 0.063190 -1.882450
v 1.439840 1.353190 -1.941250
v 1.473620 0.060340 -1.917360
v 1.500450 1.350340 -1.976160
v 1.473620 0.057150 -1.987280
v 1.500450 1.347150 -2.046080
v 0.438320 0.074460 0.780890
v 0.488480 0.804460 0.935060
v 0.377840 0.071210 0.815970
v 0.428000 0.801210 0.970140
v 0.377840 0.056750 0.884460
v 0.428000 0.786750 1.038630
v 0.438320 0.045540 0.917870
v 0.488480 0.775540 1.072030
v 0.498810 0.048790 0.882780
v 0.548970 0.778790 1.036950
v 0.498810 0.063250 0.814290
v 0.548970 0.793250 0.968460
v -2.748370 0.050260 -1.072040
v -3.009630 1.480260 -1.219440
v -2.829310 0.040500 -1.023280
v -3.090580 1.470500 -1.170680
v -2.829310 0.050240 -0.928780
v -3.090580 1.480240 -1.076180
v -2.748370 0.069740 -0.883040
v -3.009630 1.499740 -1.030440
v -2.667420 0.079500 -0.931800
v -2.928680 1.509500 -1.079200
v -2.667420 0.069760 -1.026300
v -2.928680 1.499760 -1.173700
v -3.009630 1.410000 -1.124940
v -2.819100 1.475000 -1.124940
v -2.890840 1.475000 -0.975980
v -3.052030 1.475000 -0.939190
v -3.181290 1.475000 -1.042270
v -3.181290 1.475000 -1.207600
v -3.052030 1.475000 -1.310690
v -2.890840 1.475000 -1.273900
v -2.819100 1.605000 -1.124940
v -2.890840 1.605000 -0.975980
v -3.052030 1.605000 -0.939190
v -3.181290 1.605000 -1.042270
v -3.181290 1.605000 -1.207600
v -3.052030 1.605000 -1.310690
v -2.890840 1.605000 -1.273900
v -3.009630 1.670000 -1.124940
v 1.137920 0.056950 -0.237090
v 1.300520 0.926950 -0.274980
v 1.078330 0.069590 -0.202610
v 1.240930 0.939590 -0.240500
v 1.078330 0.072640 -0.132680
v 1.240930 0.942640 -0.170560
v 1.137920 0.063050 -0.097220
v 1.300520 0.933050 -0.135110
v 1.197510 0.050410 -0.131710
v 1.360120 0.920410 -0.169600
v 1.197510 0.047360 -0.201640
v 1.360120 0.917360 -0.239530
v -1.639790 0.062330 1.443460
v -1.675550 1.632330 1.495800
v -1.700400 0.059790 1.478400
v -1.736150 1.629790 1.530740
v -1.700400 0.057460 1.548360
v -1.736150 1.627460 1.600700
v -1.639790 0.057670 1.583380
v -1.675550 1.627670 1.635720
v -1.579190 0.060210 1.548450
v -1.614940 1.630210 1.600790
v -1.579190 0.062540 1.478490
v -1.614940 1.632540 1.530830
v -0.131400 0.045050 -0.642440
v -0.163260 1.055050 -0.863240
v -0.191990 0.050700 -0.607850
v -0.223850 1.060700 -0.828650
v -0.191990 0.065650 -0.539460
v -0.223850 1.075650 -0.760260
v -0.131400 0.074950 -0.505670
v -0.163260 1.084950 -0.726470
v -0.070810 0.069300 -0.540260
v -0.102670 1.079300 -0.761060
v -0.070810 0.054350 -0.608650
v -0.102670 1.064350 -0.829440
v -0.163260 0.990000 -0.794850
v 0.027260 1.055000 -0.794850
v -0.044470 1.055000 -0.645890
v -0.205660 1.055000 -0.609100
v -0.334920 1.055000 -0.712190
v -0.334920 1.055000 -0.877520
v -0.205660 1.055000 -0.980600
v -0.044470 1.055000 -0.943810
v 0.027260 1.185000 -0.794850
v -0.044470 1.185000 -0.645890
v -0.205660 1.185000 -0.609100
v -0.334920 1.185000 -0.712190
v -0.334920 1.185000 -0.877520
v -0.205660 1.185000 -0.980600
v -0.044470 1.185000 -0.943810
v -0.163260 1.250000 -0.794850
v 2.059210 0.069980 0.965870
v 2.280340 1.779980 1.146480
v 1.977610 0.075420 1.014210
v 2.198740 1.785420 1.194820
v 1.977610 0.065450 1.108680
v 2.198740 1.775450 1.289290
v 2.059210 0.050020 1.154820
v 2.280340 1.760020 1.335430
v 2.140810 0.044580 1.106480
v 2.361940 1.754580 1.287090
v 2.140810 0.054550 1.012000
v 2.361940 1.764550 1.192610
v 2.044620 0.973500 1.102910
v 2.394620 1.380600 1.222910
v 2.084660 0.944720 1.083770
v 2.434660 1.351820 1.203770
v 2.089540 0.955710 1.032250
v 2.439540 1.362810 1.152250
v 2.052500 0.991290 1.019560
v 2.402500 1.398390 1.139560
v 2.024740 1.002280 1.063220
v 2.374740 1.409380 1.183220
v -4.390280 0.060390 0.089890
v -4.499820 1.210390 0.096220
v -4.450630 0.054440 0.124860
v -4.560170 1.204440 0.131190
v -4.450630 0.054060 0.194860
v -4.560170 1.204060 0.201190
v -4.390280 0.059610 0.229890
v -4.499820 1.209610 0.236220
v -4.329930 0.065560 0.194920
v -4.439470 1.215560 0.201250
v -4.329930 0.065940 0.124920
v -4.439470 1.215940 0.131250
v 1.678830 0.052170 -1.159970
v 1.743320 0.642170 -1.226410
v 1.618560 0.062590 -1.125920
v 1.683050 0.652590 -1.192370
v 1.618560 0.070420 -1.056360
v 1.683050 0.660420 -1.122810
v 1.678830 0.067830 -1.020850
v 1.743320 0.657830 -1.087290
v 1.739100 0.057410 -1.054900
v 1.803590 0.647410 -1.121340
v 1.739100 0.049580 -1.124460
v 1.803590 0.639580 -1.190900
v 1.743320 0.570000 -1.156850
v 1.933850 0.635000 -1.156850
v 1.862110 0.635000 -1.007890
v 1.700930 0.635000 -0.971100
v 1.571660 0.635000 -1.074190
v 1.571660 0.635000 -1.239520
v 1.700930 0.635000 -1.342600
v 1.862110 0.635000 -1.305810
v 1.933850 0.765000 -1.156850
v 1.862110 0.765000 -1.007890
v 1.700930 0.765000 -0.971100
v 1.571660 0.765000 -1.074190
v 1.571660 0.765000 -1.239520
v 1.700930 0.765000 -1.342600
v 1.862110 0.765000 -1.305810
v 1.743320 0.830000 -1.156850
v -2.800000 0.060000 1.100000
v -2.436270 0.150000 1.100000
v -2.542800 0.150000 1.357200
v -2.800000 0.150000 1.463730
v -3.057200 0.150000 1.357200
v -3.163730 0.150000 1.100000
v -3.057200 0.150000 0.842800
v -2.800000 0.150000 0.736270
v -2.542800 0.150000 0.842800
v -2.436270 0.330000 1.100000
v -2.542800 0.330000 1.357200
v -2.800000 0.330000 1.463730
v -3.057200 0.330000 1.357200
v -3.163730 0.330000 1.100000
v -3.057200 0.330000 0.842800
v -2.800000 0.330000 0.736270
v -2.542800 0.330000 0.842800
v -2.800000 0.420000 1.100000
v -1.100000 0.060000 -1.400000
v -0.788230 0.150000 -1.400000
v -0.879550 0.150000 -1.179550
v -1.100000 0.150000 -1.088230
v -1.320450 0.150000 -1.179550
v -1.411770 0.150000 -1.400000
v -1.320450 0.150000 -1.620450
v -1.100000 0.150000 -1.711770
v -0.879550 0.150000 -1.620450
v -0.788230 0.330000 -1.400000
v -0.879550 0.330000 -1.179550
v -1.100000 0.330000 -1.088230
v -1.320450 0.330000 -1.179550
v -1.411770 0.330000 -1.400000
v -1.320450 0.330000 -1.620450
v -1.100000 0.330000 -1.711770
v -0.879550 0.330000 -1.620450
v -1.100000 0.420000 -1.400000
v 0.700000 0.060000 1.600000
v 1.133010 0.150000 1.600000
v 1.006190 0.150000 1.906190
v 0.700000 0.150000 2.033010
v 0.393810 0.150000 1.906190
v 0.266990 0.150000 1.600000
v 0.393810 0.150000 1.293810
v 0.700000 0.150000 1.166990
v 1.006190 0.150000 1.293810
v 1.133010 0.330000 1.600000
v 1.006190 0.330000 1.906190
v 0.700000 0.330000 2.033010
v 0.393810 0.330000 1.906190
v 0.266990 0.330000 1.600000
v 0.393810 0.330000 1.293810
v 0.700000 0.330000 1.166990
v 1.006190 0.330000 1.293810
v 0.700000 0.420000 1.600000
v 2.800000 0.060000 0.900000
v 3.094450 0.150000 0.900000
v 3.008210 0.150000 1.108210
v 2.800000 0.150000 1.194450
v 2.591790 0.150000 1.108210
v 2.505550 0.150000 0.900000
v 2.591790 0.150000 0.691790
v 2.800000 0.150000 0.605550
v 3.008210 0.150000 0.691790
v 3.094450 0.330000 0.900000
v 3.008210 0.330000 1.108210
v 2.800000 0.330000 1.194450
v 2.591790 0.330000 1.108210
v 2.505550 0.330000 0.900000
v 2.591790 0.330000 0.691790
v 2.800000 0.330000 0.605550
v 3.008210 0.330000 0.691790
v 2.800000 0.420000 0.900000
vn -0.0000 -1.0000 -0.0000
vn 0.7803 -0.6254 -0.0000
vn 0.5931 -0.6396 0.4890
vn 0.2778 -0.6563 0.7015
vn -0.0000 -0.6611 0.7503
vn -0.2778 -0.6563 0.7015
vn -0.5931 -0.6396 0.4890
vn -0.7803 -0.6254 -0.0000
vn -0.5931 -0.6396 -0.4890
vn -0.2778 -0.6563 -0.7015
vn -0.0000 -0.6611 -0.7503
vn 0.2778 -0.6563 -0.7015
vn 0.5931 -0.6396 -0.4890
vn 0.7803 0.6254 -0.0000
vn 0.5931 0.6396 0.4890
vn 0.2778 0.6563 0.7015
vn -0.0000 0.6611 0.7503
vn -0.2778 0.6563 0.7015
vn -0.5931 0.6396 0.4890
vn -0.7803 0.6254 -0.0000
vn -0.5931 0.6396 -0.4890
vn -0.2778 0.6563 -0.7015
vn -0.0000 0.6611 -0.7503
vn 0.2778 0.6563 -0.7015
vn 0.5931 0.6396 -0.4890
vn -0.0000 1.0000 -0.0000
vn 0.7812 -0.6243 -0.0000
vn 0.5864 -0.6401 0.4964
vn 0.2702 -0.6581 0.7028
vn -0.0000 -0.6632 0.7485
vn -0.2702 -0.6581 0.7028
vn -0.5864 -0.6401 0.4964
vn -0.7812 -0.6243 -0.0000
vn -0.5864 -0.6401 -0.4964
vn -0.2702 -0.6581 -0.7028
vn -0.0000 -0.6632 -0.7485
vn 0.2702 -0.6581 -0.7028
vn 0.5864 -0.6401 -0.4964
vn 0.7812 0.6243 -0.0000
vn 0.5864 0.6401 0.4964
vn 0.2702 0.6581 0.7028
vn -0.0000 0.6632 0.7485
vn -0.2702 0.6581 0.7028
vn -0.5864 0.6401 0.4964
vn -0.7812 0.6243 -0.0000
vn -0.5864 0.6401 -0.4964
vn -0.2702 0.6581 -0.7028
vn -0.0000 0.6632 -0.7485
vn 0.2702 0.6581 -0.7028
vn 0.5864 0.6401 -0.4964
vn 0.7799 -0.6259 -0.0000
vn 0.6032 -0.6378 0.4789
vn 0.2893 -0.6524 0.7005
vn -0.0000 -0.6568 0.7541
vn -0.2893 -0.6524 0.7005
vn -0.6032 -0.6378 0.4789
vn -0.7799 -0.6259 -0.0000
vn -0.6032 -0.6378 -0.4789
vn -0.2893 -0.6524 -0.7005
vn -0.0000 -0.6568 -0.7541
vn 0.2893 -0.6524 -0.7005
vn 0.6032 -0.6378 -0.4789
vn 0.7799 0.6259 -0.0000
vn 0.6032 0.6378 0.4789
vn 0.2893 0.6524 0.7005
vn -0.0000 0.6568 0.7541
vn -0.2893 0.6524 0.7005
vn -0.6032 0.6378 0.4789
vn -0.7799 0.6259 -0.0000
vn -0.6032 0.6378 -0.4789
vn -0.2893 0.6524 -0.7005
vn -0.0000 0.6568 -0.7541
vn 0.2893 0.6524 -0.7005
vn 0.6032 0.6378 -0.4789
vn 0.7973 -0.6035 -0.0000
vn 0.5181 -0.6374 0.5703
vn 0.2054 -0.6621 0.7207
vn -0.0000 -0.6663 0.7457
vn -0.2054 -0.6621 0.7207
vn -0.5181 -0.6374 0.5703
vn -0.7973 -0.6035 -0.0000
vn -0.5181 -0.6374 -0.5703
vn -0.2054 -0.6621 -0.7207
vn -0.0000 -0.6663 -0.7457
vn 0.2054 -0.6621 -0.7207
vn 0.5181 -0.6374 -0.5703
vn 0.7973 0.6035 -0.0000
vn 0.5181 0.6374 0.5703
vn 0.2054 0.6621 0.7207
vn -0.0000 0.6663 0.7457
vn -0.2054 0.6621 0.7207
vn -0.5181 0.6374 0.5703
vn -0.7973 0.6035 -0.0000
vn -0.5181 0.6374 -0.5703
vn -0.2054 0.6621 -0.7207
vn -0.0000 0.6663 -0.7457
vn 0.2054 0.6621 -0.7207
vn 0.5181 0.6374 -0.5703
vn -0.1780 -0.5834 -0.7924
vn 0.1780 0.5834 -0.7924
vn -0.8344 -0.3832 -0.3962
vn -0.4784 0.7837 -0.3962
vn -0.8344 -0.3832 0.3962
vn -0.4784 0.7837 0.3962
vn -0.1780 -0.5834 0.7924
vn 0.1780 0.5834 0.7924
vn 0.4784 -0.7837 0.3962
vn 0.8344 0.3832 0.3962
vn 0.4784 -0.7837 -0.3962
vn 0.8344 0.3832 -0.3962
vn 0.8566 -0.5160 -0.0000
vn 0.5341 -0.5160 0.6697
vn -0.1906 -0.5160 0.8351
vn -0.7717 -0.5160 0.3717
vn -0.7717 -0.5160 -0.3716
vn -0.1906 -0.5160 -0.8351
vn 0.5340 -0.5160 -0.6697
vn 0.8566 0.5160 -0.0000
vn 0.5340 0.5160 0.6697
vn -0.1906 0.5160 0.8351
vn -0.7717 0.5160 0.3716
vn -0.7717 0.5160 -0.3717
vn -0.1906 0.5160 -0.8351
vn 0.5341 0.5160 -0.6697
vn 0.1014 -0.4715 -0.8760
vn -0.1014 0.7169 -0.6897
vn -0.5752 -0.6457 -0.5022
vn -0.7781 0.5428 -0.3160
vn -0.5752 -0.7684 0.2806
vn -0.7781 0.4201 0.4669
vn 0.1014 -0.7170 0.6897
vn -0.1014 0.4715 0.8760
vn 0.7781 -0.5428 0.3160
vn 0.5752 0.6457 0.5022
vn 0.7781 -0.4201 -0.4669
vn 0.5752 0.7684 -0.2806
vn -0.0105 -0.7559 -0.6547
vn 0.0105 0.4394 -0.8982
vn -0.6966 -0.6652 -0.2687
vn -0.6757 0.5300 -0.5124
vn -0.6966 -0.5069 0.5077
vn -0.6757 0.6883 0.2640
vn -0.0105 -0.4394 0.8982
vn 0.0104 0.7559 0.6547
vn 0.6757 -0.5300 0.5124
vn 0.6966 0.6652 0.2688
vn 0.6757 -0.6883 -0.2640
vn 0.6966 0.5069 -0.5077
vn -0.0179 -0.5791 -0.8151
vn 0.0179 0.6396 -0.7685
vn -0.7038 -0.5741 -0.4183
vn -0.6680 0.6445 -0.3719
vn -0.7039 -0.6042 0.3734
vn -0.6680 0.6144 0.4199
vn -0.0180 -0.6396 0.7685
vn 0.0179 0.5791 0.8151
vn 0.6680 -0.6445 0.3719
vn 0.7038 0.5741 0.4184
vn 0.6680 -0.6144 -0.4199
vn 0.7039 0.6042 -0.3734
vn -0.7717 -0.5160 0.3716
vn 0.1594 -0.6253 -0.7640
vn -0.1594 0.5510 -0.8191
vn -0.5030 -0.7858 -0.3598
vn -0.8218 0.3905 -0.4149
vn -0.5030 -0.7487 0.4317
vn -0.8218 0.4276 0.3766
vn 0.1594 -0.5510 0.8191
vn -0.1594 0.6252 0.7640
vn 0.8218 -0.3905 0.4149
vn 0.5030 0.7858 0.3598
vn 0.8218 -0.4276 -0.3766
vn 0.5030 0.7487 -0.4317
vn -0.7483 -0.2981 0.5926
vn 0.2274 0.2981 0.9270
vn -0.2067 -0.9595 0.1915
vn 0.7690 -0.3632 0.5260
vn -0.0536 -0.7069 -0.7053
vn 0.9221 -0.1106 -0.3707
vn -0.5006 0.1106 -0.8586
vn 0.4751 0.7069 -0.5240
vn -0.9300 0.3631 -0.0565
vn 0.0457 0.9595 0.2781
vn -0.0888 -0.6757 -0.7318
vn 0.0888 0.5259 -0.8459
vn -0.7677 -0.5389 -0.3468
vn -0.5902 0.6627 -0.4610
vn -0.7677 -0.4639 0.4421
vn -0.5902 0.7377 0.3279
vn -0.0888 -0.5259 0.8459
vn 0.0888 0.6757 0.7318
vn 0.5902 -0.6627 0.4610
vn 0.7677 0.5389 0.3468
vn 0.5902 -0.7377 -0.3279
vn 0.7677 0.4639 -0.4420
vn 0.0147 -0.5347 -0.8449
vn -0.0147 0.6798 -0.7332
vn -0.6714 -0.5874 -0.4519
vn -0.7007 0.6271 -0.3402
vn -0.6714 -0.6600 0.3372
vn -0.7007 0.5545 0.4488
vn 0.0147 -0.6798 0.7332
vn -0.0147 0.5347 0.8449
vn 0.7007 -0.6271 0.3402
vn 0.6714 0.5874 0.4519
vn 0.7007 -0.5545 -0.4489
vn 0.6713 0.6600 -0.3372
vn -0.7717 0.5160 -0.3716
vn 0.0176 -0.6522 -0.7579
vn -0.0176 0.5655 -0.8246
vn -0.6684 -0.6502 -0.3612
vn -0.7035 0.5674 -0.4279
vn -0.6684 -0.6069 0.4301
vn -0.7035 0.6107 0.3634
vn 0.0176 -0.5655 0.8246
vn -0.0176 0.6522 0.7579
vn 0.7036 -0.5674 0.4279
vn 0.6684 0.6502 0.3612
vn 0.7035 -0.6107 -0.3633
vn 0.6684 0.6069 -0.4301
vn -0.1373 -0.5270 -0.8387
vn 0.1374 0.6577 -0.7407
vn -0.8059 -0.4058 -0.4311
vn -0.5313 0.7789 -0.3332
vn -0.8060 -0.4709 0.3586
vn -0.5312 0.7137 0.4565
vn -0.1373 -0.6577 0.7407
vn 0.1373 0.5270 0.8387
vn 0.5313 -0.7789 0.3332
vn 0.8059 0.4058 0.4311
vn 0.5312 -0.7137 -0.4565
vn 0.8060 0.4710 -0.3586
vn -0.7108 -0.3581 0.6054
vn 0.1899 0.3581 0.9142
vn -0.0964 -0.9686 0.2293
vn 0.8042 -0.2523 0.5381
vn 0.0288 -0.7354 -0.6770
vn 0.9295 -0.0193 -0.3683
vn -0.5080 0.0192 -0.8611
vn 0.3926 0.7354 -0.5523
vn -0.9652 0.2523 -0.0686
vn -0.0647 0.9686 0.2403
vn 0.2022 -0.4514 -0.8691
vn -0.2021 0.6869 -0.6981
vn -0.4453 -0.7352 -0.5111
vn -0.8496 0.4030 -0.3401
vn -0.4453 -0.8529 0.2725
vn -0.8496 0.2853 0.4436
vn 0.2022 -0.6869 0.6981
vn -0.2022 0.4514 0.8691
vn 0.8497 -0.4030 0.3401
vn 0.4452 0.7352 0.5111
vn 0.8497 -0.2853 -0.4435
vn 0.4453 0.8529 -0.2725
vn 0.5341 -0.5160 -0.6697
vn 0.5341 0.5160 0.6697
vn -0.0126 -0.6453 -0.7638
vn 0.0127 0.5731 -0.8194
vn -0.6987 -0.6131 -0.3687
vn -0.6734 0.6054 -0.4243
vn -0.6988 -0.5770 0.4229
vn -0.6734 0.6415 0.3674
vn -0.0126 -0.5731 0.8194
vn 0.0127 0.6453 0.7638
vn 0.6735 -0.6054 0.4242
vn 0.6988 0.6131 0.3686
vn 0.6734 -0.6415 -0.3674
vn 0.6988 0.5769 -0.4229
vn -0.0409 -0.4318 -0.9010
vn 0.0409 0.7592 -0.6496
vn -0.7256 -0.4686 -0.5039
vn -0.6438 0.7224 -0.2524
vn -0.7256 -0.6323 0.2714
vn -0.6438 0.5587 0.5229
vn -0.0410 -0.7592 0.6496
vn 0.0409 0.4318 0.9010
vn 0.6438 -0.7224 0.2524
vn 0.7256 0.4686 0.5039
vn 0.6438 -0.5587 -0.5229
vn 0.7256 0.6323 -0.2715
vn 0.1090 -0.6782 -0.7267
vn -0.1091 0.5158 -0.8498
vn -0.5661 -0.7597 -0.3200
vn -0.7842 0.4343 -0.4431
vn -0.5661 -0.6784 0.4682
vn -0.7842 0.5156 0.3452
vn 0.1091 -0.5157 0.8498
vn -0.1090 0.6782 0.7267
vn 0.7842 -0.4343 0.4431
vn 0.5661 0.7597 0.3200
vn 0.7842 -0.5156 -0.3452
vn 0.5661 0.6784 -0.4682
vn -0.1120 -0.6336 -0.7655
vn 0.1119 0.5646 -0.8178
vn -0.7865 -0.4905 -0.3752
vn -0.5626 0.7076 -0.4274
vn -0.7866 -0.4560 0.4164
vn -0.5626 0.7421 0.3642
vn -0.1120 -0.5645 0.8178
vn 0.1120 0.6335 0.7656
vn 0.5626 -0.7077 0.4274
vn 0.7865 0.4905 0.3752
vn 0.5626 -0.7422 -0.3642
vn 0.7865 0.4560 -0.4165
vn 0.0139 -0.5831 -0.8123
vn -0.0139 0.6359 -0.7717
vn -0.6722 -0.6119 -0.4168
vn -0.6999 0.6071 -0.3762
vn -0.6722 -0.6383 0.3752
vn -0.6999 0.5807 0.4158
vn 0.0139 -0.6359 0.7716
vn -0.0139 0.5831 0.8123
vn 0.6999 -0.6071 0.3762
vn 0.6722 0.6119 0.4168
vn 0.6999 -0.5807 -0.4157
vn 0.6722 0.6383 -0.3752
vn 0.0188 -0.7649 -0.6439
vn -0.0187 0.4264 -0.9043
vn -0.6671 -0.7009 -0.2523
vn -0.7047 0.4904 -0.5128
vn -0.6671 -0.5317 0.5218
vn -0.7047 0.6596 0.2614
vn 0.0188 -0.4264 0.9043
vn -0.0188 0.7649 0.6439
vn 0.7047 -0.4904 0.5128
vn 0.6671 0.7009 0.2523
vn 0.7047 -0.6596 -0.2614
vn 0.6671 0.5317 -0.5218
vn -0.0778 -0.5184 -0.8516
vn 0.0778 0.6850 -0.7244
vn -0.7584 -0.4731 -0.4483
vn -0.6028 0.7303 -0.3213
vn -0.7585 -0.5562 0.3396
vn -0.6028 0.6472 0.4667
vn -0.0778 -0.6849 0.7244
vn 0.0778 0.5184 0.8516
vn 0.6029 -0.7303 0.3213
vn 0.7584 0.4731 0.4483
vn 0.6028 -0.6472 -0.4667
vn 0.7584 0.5562 -0.3397
vn -0.6395 -0.4408 0.6299
vn 0.1185 0.4409 0.8897
vn 0.0752 -0.9546 0.2882
vn 0.8332 -0.0729 0.5481
vn 0.1623 -0.7583 -0.6313
vn 0.9202 0.1233 -0.3714
vn -0.4988 -0.1233 -0.8579
vn 0.2592 0.7584 -0.5980
vn -0.9942 0.0728 -0.0785
vn -0.2363 0.9546 0.1814
vn 0.0578 -0.6028 -0.7958
vn -0.0579 0.6117 -0.7890
vn -0.6252 -0.6702 -0.3999
vn -0.7410 0.5443 -0.3932
vn -0.6253 -0.6745 0.3925
vn -0.7409 0.5401 0.3992
vn 0.0579 -0.6117 0.7890
vn -0.0578 0.6028 0.7958
vn 0.7410 -0.5443 0.3932
vn 0.6252 0.6702 0.3999
vn 0.7409 -0.5401 -0.3992
vn 0.6253 0.6745 -0.3925
vn -0.0659 -0.6913 -0.7196
vn 0.0659 0.5140 -0.8553
vn -0.7481 -0.5733 -0.3341
vn -0.6163 0.6319 -0.4699
vn -0.7481 -0.4846 0.4533
vn -0.6164 0.7206 0.3175
vn -0.0658 -0.5140 0.8553
vn 0.0658 0.6913 0.7196
vn 0.6164 -0.6319 0.4699
vn 0.7481 0.5733 0.3342
vn 0.6164 -0.7206 -0.3176
vn 0.7481 0.4846 -0.4533
vn -0.7717 -0.5160 -0.3717
vn 0.8337 -0.5522 -0.0000
vn 0.5895 -0.5522 0.5895
vn -0.0000 -0.5522 0.8337
vn -0.5895 -0.5522 0.5895
vn -0.8337 -0.5522 -0.0000
vn -0.5895 -0.5522 -0.5895
vn -0.0000 -0.5522 -0.8337
vn 0.5895 -0.5522 -0.5895
vn 0.8337 0.5522 -0.0000
vn 0.5895 0.5522 0.5895
vn -0.0000 0.5522 0.8337
vn -0.5895 0.5522 0.5895
vn -0.8337 0.5522 -0.0000
vn -0.5895 0.5522 -0.5895
vn -0.0000 0.5522 -0.8337
vn 0.5895 0.5522 -0.5895
vn 0.8422 -0.5392 -0.0000
vn 0.5955 -0.5392 0.5955
vn -0.0000 -0.5392 0.8422
vn -0.5955 -0.5392 0.5955
vn -0.8422 -0.5392 -0.0000
vn -0.5955 -0.5392 -0.5955
vn -0.0000 -0.5392 -0.8422
vn 0.5955 -0.5392 -0.5955
vn 0.8422 0.5392 -0.0000
vn 0.5955 0.5392 0.5955
vn -0.0000 0.5392 0.8422
vn -0.5955 0.5392 0.5955
vn -0.8422 0.5392 -0.0000
vn -0.5955 0.5392 -0.5955
vn -0.0000 0.5392 -0.8422
vn 0.5955 0.5392 -0.5955
vn 0.8253 -0.5647 -0.0000
vn 0.5835 -0.5647 0.5836
vn -0.0000 -0.5647 0.8253
vn -0.5836 -0.5647 0.5835
vn -0.8253 -0.5647 -0.0000
vn -0.5835 -0.5647 -0.5836
vn -0.0000 -0.5647 -0.8253
vn 0.5836 -0.5647 -0.5835
vn 0.8253 0.5647 -0.0000
vn 0.5836 0.5647 0.5835
vn -0.0000 0.5647 0.8253
vn -0.5835 0.5647 0.5836
vn -0.8253 0.5647 -0.0000
vn -0.5836 0.5647 -0.5835
vn -0.0000 0.5647 -0.8253
vn 0.5835 0.5647 -0.5836
vn 0.8455 -0.5339 -0.0000
vn 0.5979 -0.5339 0.5979
vn -0.0000 -0.5339 0.8455
vn -0.5979 -0.5339 0.5979
vn -0.8455 -0.5339 -0.0000
vn -0.5979 -0.5339 -0.5979
vn -0.0000 -0.5339 -0.8455
vn 0.5979 -0.5339 -0.5979
vn 0.8455 0.5339 -0.0000
vn 0.5979 0.5339 0.5979
vn -0.0000 0.5339 0.8455
vn -0.5979 0.5339 0.5979
vn -0.8455 0.5339 -0.0000
vn -0.5979 0.5339 -0.5979
vn -0.0000 0.5339 -0.8455
vn 0.5979 0.5339 -0.5979
s 1
usemtl verdant_growth
f 1//1 2//2 3//3
f 1//1 3//3 4//4
f 1//1 4//4 5//5
f 1//1 5//5 6//6
f 1//1 6//6 7//7
f 1//1 7//7 8//8
f 1//1 8//8 9//9
f 1//1 9//9 10//10
f 1//1 10//10 11//11
f 1//1 11//11 12//12
f 1//1 12//12 13//13
f 1//1 13//13 2//2
f 14//14 3//3 2//2
f 15//15 4//4 3//3
f 16//16 5//5 4//4
f 17//17 6//6 5//5
f 18//18 7//7 6//6
f 19//19 8//8 7//7
f 20//20 9//9 8//8
f 21//21 10//10 9//9
f 22//22 11//11 10//10
f 23//23 12//12 11//11
f 24//24 13//13 12//12
f 25//25 2//2 13//13
f 14//14 26//26 15//15
f 15//15 26//26 16//16
f 16//16 26//26 17//17
f 17//17 26//26 18//18
f 18//18 26//26 19//19
f 19//19 26//26 20//20
f 20//20 26//26 21//21
f 21//21 26//26 22//22
f 22//22 26//26 23//23
f 23//23 26//26 24//24
f 24//24 26//26 25//25
f 25//25 26//26 14//14
f 53//1 54//51 55//52
f 53//1 55//52 56//53
f 53//1 56//53 57//54
f 53//1 57//54 58//55
f 53//1 58//55 59//56
f 53//1 59//56 60//57
f 53//1 60//57 61//58
f 53//1 61//58 62//59
f 53//1 62//59 63//60
f 53//1 63//60 64//61
f 53//1 64//61 65//62
f 53//1 65//62 54//51
f 66//63 55//52 54//51
f 67//64 56//53 55//52
f 68//65 57//54 56//53
f 69//66 58//55 57//54
f 70//67 59//56 58//55
f 71//68 60//57 59//56
f 72//69 61//58 60//57
f 73//70 62//59 61//58
f 74//71 63//60 62//59
f 75//72 64//61 63//60
f 76//73 65//62 64//61
f 77//74 54//51 65//62
f 66//63 78//26 67//64
f 67//64 78//26 68//65
f 68//65 78//26 69//66
f 69//66 78//26 70//67
f 70//67 78//26 71//68
f 71//68 78//26 72//69
f 72//69 78//26 73//70
f 73//70 78//26 74//71
f 74//71 78//26 75//72
f 75//72 78//26 76//73
f 76//73 78//26 77//74
f 77//74 78//26 66//63
f 14//14 15//15 3//3
f 15//15 16//16 4//4
f 16//16 17//17 5//5
f 17//17 18//18 6//6
f 18//18 19//19 7//7
f 19//19 20//20 8//8
f 20//20 21//21 9//9
f 21//21 22//22 10//10
f 22//22 23//23 11//11
f 23//23 24//24 12//12
f 24//24 25//25 13//13
f 25//25 14//14 2//2
f 66//63 67//64 55//52
f 67//64 68//65 56//53
f 68//65 69//66 57//54
f 69//66 70//67 58//55
f 70//67 71//68 59//56
f 71//68 72//69 60//57
f 72//69 73//70 61//58
f 73//70 74//71 62//59
f 74//71 75//72 63//60
f 75//72 76//73 64//61
f 76//73 77//74 65//62
f 77//74 66//63 54//51
usemtl verdant_growth
f 27//1 28//27 29//28
f 27//1 29//28 30//29
f 27//1 30//29 31//30
f 27//1 31//30 32//31
f 27//1 32//31 33//32
f 27//1 33//32 34//33
f 27//1 34//33 35//34
f 27//1 35//34 36//35
f 27//1 36//35 37//36
f 27//1 37//36 38//37
f 27//1 38//37 39//38
f 27//1 39//38 28//27
f 40//39 29//28 28//27
f 41//40 30//29 29//28
f 42//41 31//30 30//29
f 43//42 32//31 31//30
f 44//43 33//32 32//31
f 45//44 34//33 33//32
f 46//45 35//34 34//33
f 47//46 36//35 35//34
f 48//47 37//36 36//35
f 49//48 38//37 37//36
f 50//49 39//38 38//37
f 51//50 28//27 39//38
f 40//39 52//26 41//40
f 41//40 52//26 42//41
f 42//41 52//26 43//42
f 43//42 52//26 44//43
f 44//43 52//26 45//44
f 45//44 52//26 46//45
f 46//45 52//26 47//46
f 47//46 52//26 48//47
f 48//47 52//26 49//48
f 49//48 52//26 50//49
f 50//49 52//26 51//50
f 51//50 52//26 40//39
f 79//1 80//75 81//76
f 79//1 81//76 82//77
f 79//1 82//77 83//78
f 79//1 83//78 84//79
f 79//1 84//79 85//80
f 79//1 85//80 86//81
f 79//1 86//81 87//82
f 79//1 87//82 88//83
f 79//1 88//83 89//84
f 79//1 89//84 90//85
f 79//1 90//85 91//86
f 79//1 91//86 80//75
f 92//87 81//76 80//75
f 93//88 82//77 81//76
f 94//89 83//78 82//77
f 95//90 84//79 83//78
f 96//91 85//80 84//79
f 97//92 86//81 85//80
f 98//93 87//82 86//81
f 99//94 88//83 87//82
f 100//95 89//84 88//83
f 101//96 90//85 89//84
f 102//97 91//86 90//85
f 103//98 80//75 91//86
f 92//87 104//26 93//88
f 93//88 104//26 94//89
f 94//89 104//26 95//90
f 95//90 104//26 96//91
f 96//91 104//26 97//92
f 97//92 104//26 98//93
f 98//93 104//26 99//94
f 99//94 104//26 100//95
f 100//95 104//26 101//96
f 101//96 104//26 102//97
f 102//97 104//26 103//98
f 103//98 104//26 92//87
f 40//39 41//40 29//28
f 41//40 42//41 30//29
f 42//41 43//42 31//30
f 43//42 44//43 32//31
f 44//43 45//44 33//32
f 45//44 46//45 34//33
f 46//45 47//46 35//34
f 47//46 48//47 36//35
f 48//47 49//48 37//36
f 49//48 50//49 38//37
f 50//49 51//50 39//38
f 51//50 40//39 28//27
f 92//87 93//88 81//76
f 93//88 94//89 82//77
f 94//89 95//90 83//78
f 95//90 96//91 84//79
f 96//91 97//92 85//80
f 97//92 98//93 86//81
f 98//93 99//94 87//82
f 99//94 100//95 88//83
f 100//95 101//96 89//84
f 101//96 102//97 90//85
f 102//97 103//98 91//86
f 103//98 92//87 80//75
usemtl verdant_growth
f 113//107 109//103 105//99
f 108//102 112//106 116//110
f 107//101 106//100 105//99
f 109//103 108//102 107//101
f 109//103 112//106 110//104
f 111//105 114//108 112//106
f 115//109 114//108 113//107
f 105//99 116//110 115//109
f 117//1 118//111 119//112
f 117//1 119//112 120//113
f 117//1 120//113 121//114
f 117//1 121//114 122//115
f 117//1 122//115 123//116
f 117//1 123//116 124//117
f 117//1 124//117 118//111
f 125//118 119//112 118//111
f 126//119 120//113 119//112
f 127//120 121//114 120//113
f 128//121 122//115 121//114
f 129//122 123//116 122//115
f 130//123 124//117 123//116
f 131//124 118//111 124//117
f 125//118 132//26 126//119
f 126//119 132//26 127//120
f 127//120 132//26 128//121
f 128//121 132//26 129//122
f 129//122 132//26 130//123
f 130//123 132//26 131//124
f 131//124 132//26 125//118
f 165//157 161//153 157//149
f 160//152 164//156 168//160
f 157//149 160//152 158//150
f 161//153 160//152 159//151
f 161//153 164//156 162//154
f 165//157 164//156 163//155
f 165//157 168//160 166//158
f 157//149 168//160 167//159
f 169//1 170//111 171//112
f 169//1 171//112 172//113
f 169//1 172//113 173//161
f 169//1 173//161 174//115
f 169//1 174//115 175//116
f 169//1 175//116 176//117
f 169//1 176//117 170//111
f 177//118 171//112 170//111
f 178//119 172//113 171//112
f 179//120 173//161 172//113
f 180//121 174//115 173//161
f 181//122 175//116 174//115
f 182//123 176//117 175//116
f 183//124 170//111 176//117
f 177//118 184//26 178//119
f 178//119 184//26 179//120
f 179//120 184//26 180//121
f 180//121 184//26 181//122
f 181//122 184//26 182//123
f 182//123 184//26 183//124
f 183//124 184//26 177//118
f 227//204 223//200 219//196
f 222//199 226//203 230//207
f 219//196 222//199 220//197
f 221//198 224//201 222//199
f 225//202 224//201 223//200
f 227//204 226//203 225//202
f 229//206 228//205 227//204
f 229//206 220//197 230//207
f 231//1 232//111 233//112
f 231//1 233//112 234//113
f 231//1 234//113 235//114
f 231//1 235//114 236//115
f 231//1 236//115 237//116
f 231//1 237//116 238//117
f 231//1 238//117 232//111
f 239//118 233//112 232//111
f 240//119 234//113 233//112
f 241//120 235//114 234//113
f 242//121 236//115 235//114
f 243//208 237//116 236//115
f 244//123 238//117 237//116
f 245//124 232//111 238//117
f 239//118 246//26 240//119
f 240//119 246//26 241//120
f 241//120 246//26 242//121
f 242//121 246//26 243//208
f 243//208 246//26 244//123
f 244//123 246//26 245//124
f 245//124 246//26 239//118
f 289//251 285//247 281//243
f 284//246 288//250 292//254
f 283//245 282//244 281//243
f 285//247 284//246 283//245
f 285//247 288//250 286//248
f 287//249 290//252 288//250
f 289//251 292//254 290//252
f 291//253 282//244 292//254
f 293//1 294//111 295//112
f 293//1 295//112 296//113
f 293//1 296//113 297//114
f 293//1 297//114 298//115
f 293//1 298//115 299//116
f 293//1 299//116 300//255
f 293//1 300//255 294//111
f 301//118 295//112 294//111
f 302//256 296//113 295//112
f 303//120 297//114 296//113
f 304//121 298//115 297//114
f 305//208 299//116 298//115
f 306//123 300//255 299//116
f 307//124 294//111 300//255
f 301//118 308//26 302//256
f 302//256 308//26 303//120
f 303//120 308//26 304//121
f 304//121 308//26 305//208
f 305//208 308//26 306//123
f 306//123 308//26 307//124
f 307//124 308//26 301//118
f 341//289 337//285 333//281
f 336//284 340//288 344//292
f 335//283 334//282 333//281
f 335//283 338//286 336//284
f 337//285 340//288 338//286
f 339//287 342//290 340//288
f 343//291 342//290 341//289
f 333//281 344//292 343//291
f 345//1 346//111 347//112
f 345//1 347//112 348//113
f 345//1 348//113 349//114
f 345//1 349//114 350//115
f 345//1 350//115 351//116
f 345//1 351//116 352//117
f 345//1 352//117 346//111
f 353//118 347//112 346//111
f 354//119 348//113 347//112
f 355//120 349//114 348//113
f 356//121 350//115 349//114
f 357//208 351//116 350//115
f 358//123 352//117 351//116
f 359//124 346//111 352//117
f 353//118 360//26 354//119
f 354//119 360//26 355//120
f 355//120 360//26 356//121
f 356//121 360//26 357//208
f 357//208 360//26 358//123
f 358//123 360//26 359//124
f 359//124 360//26 353//118
f 393//325 389//321 385//317
f 388//320 392//324 396//328
f 385//317 388//320 386//318
f 387//319 390//322 388//320
f 391//323 390//322 389//321
f 393//325 392//324 391//323
f 393//325 396//328 394//326
f 395//327 386//318 396//328
f 397//1 398//111 399//112
f 397//1 399//112 400//113
f 397//1 400//113 401//161
f 397//1 401//161 402//115
f 397//1 402//115 403//116
f 397//1 403//116 404//255
f 397//1 404//255 398//111
f 405//118 399//112 398//111
f 406//256 400//113 399//112
f 407//120 401//161 400//113
f 408//121 402//115 401//161
f 409//122 403//116 402//115
f 410//123 404//255 403//116
f 411//124 398//111 404//255
f 405//118 412//26 406//256
f 406//256 412//26 407//120
f 407//120 412//26 408//121
f 408//121 412//26 409//122
f 409//122 412//26 410//123
f 410//123 412//26 411//124
f 411//124 412//26 405//118
f 455//371 451//367 447//363
f 450//366 454//370 458//374
f 447//363 450//366 448//364
f 449//365 452//368 450//366
f 451//367 454//370 452//368
f 455//371 454//370 453//369
f 457//373 456//372 455//371
f 447//363 458//374 457//373
f 459//1 460//111 461//112
f 459//1 461//112 462//113
f 459//1 462//113 463//114
f 459//1 463//114 464//375
f 459//1 464//375 465//116
f 459//1 465//116 466//117
f 459//1 466//117 460//111
f 467//118 461//112 460//111
f 468//119 462//113 461//112
f 469//120 463//114 462//113
f 470//121 464//375 463//114
f 471//122 465//116 464//375
f 472//123 466//117 465//116
f 473//124 460//111 466//117
f 467//118 474//26 468//119
f 468//119 474//26 469//120
f 469//120 474//26 470//121
f 470//121 474//26 471//122
f 471//122 474//26 472//123
f 472//123 474//26 473//124
f 473//124 474//26 467//118
f 475//1 476//376 477//377
f 475//1 477//377 478//378
f 475//1 478//378 479//379
f 475//1 479//379 480//380
f 475//1 480//380 481//381
f 475//1 481//381 482//382
f 475//1 482//382 483//383
f 475//1 483//383 476//376
f 484//384 477//377 476//376
f 485//385 478//378 477//377
f 486//386 479//379 478//378
f 487//387 480//380 479//379
f 488//388 481//381 480//380
f 489//389 482//382 481//381
f 490//390 483//383 482//382
f 491//391 476//376 483//383
f 484//384 492//26 485//385
f 485//385 492//26 486//386
f 486//386 492//26 487//387
f 487//387 492//26 488//388
f 488//388 492//26 489//389
f 489//389 492//26 490//390
f 490//390 492//26 491//391
f 491//391 492//26 484//384
f 493//1 494//392 495//393
f 493//1 495//393 496//394
f 493//1 496//394 497//395
f 493//1 497//395 498//396
f 493//1 498//396 499//397
f 493//1 499//397 500//398
f 493//1 500//398 501//399
f 493//1 501//399 494//392
f 502//400 495//393 494//392
f 503//401 496//394 495//393
f 504//402 497//395 496//394
f 505//403 498//396 497//395
f 506//404 499//397 498//396
f 507//405 500//398 499//397
f 508//406 501//399 500//398
f 509//407 494//392 501//399
f 502//400 510//26 503//401
f 503//401 510//26 504//402
f 504//402 510//26 505//403
f 505//403 510//26 506//404
f 506//404 510//26 507//405
f 507//405 510//26 508//406
f 508//406 510//26 509//407
f 509//407 510//26 502//400
f 511//1 512//408 513//409
f 511//1 513//409 514//410
f 511//1 514//410 515//411
f 511//1 515//411 516//412
f 511//1 516//412 517//413
f 511//1 517//413 518//414
f 511//1 518//414 519//415
f 511//1 519//415 512//408
f 520//416 513//409 512//408
f 521//417 514//410 513//409
f 522//418 515//411 514//410
f 523//419 516//412 515//411
f 524//420 517//413 516//412
f 525//421 518//414 517//413
f 526//422 519//415 518//414
f 527//423 512//408 519//415
f 520//416 528//26 521//417
f 521//417 528//26 522//418
f 522//418 528//26 523//419
f 523//419 528//26 524//420
f 524//420 528//26 525//421
f 525//421 528//26 526//422
f 526//422 528//26 527//423
f 527//423 528//26 520//416
f 529//1 530//424 531//425
f 529//1 531//425 532//426
f 529//1 532//426 533//427
f 529//1 533//427 534//428
f 529//1 534//428 535//429
f 529//1 535//429 536//430
f 529//1 536//430 537//431
f 529//1 537//431 530//424
f 538//432 531//425 530//424
f 539//433 532//426 531//425
f 540//434 533//427 532//426
f 541//435 534//428 533//427
f 542//436 535//429 534//428
f 543//437 536//430 535//429
f 544//438 537//431 536//430
f 545//439 530//424 537//431
f 538//432 546//26 539//433
f 539//433 546//26 540//434
f 540//434 546//26 541//435
f 541//435 546//26 542//436
f 542//436 546//26 543//437
f 543//437 546//26 544//438
f 544//438 546//26 545//439
f 545//439 546//26 538//432
f 105//99 115//109 113//107
f 113//107 111//105 109//103
f 109//103 107//101 105//99
f 116//110 106//100 108//102
f 108//102 110//104 112//106
f 112//106 114//108 116//110
f 107//101 108//102 106//100
f 109//103 110//104 108//102
f 109//103 111//105 112//106
f 111//105 113//107 114//108
f 115//109 116//110 114//108
f 105//99 106//100 116//110
f 125//118 126//119 119//112
f 126//119 127//120 120//113
f 127//120 128//121 121//114
f 128//121 129//122 122//115
f 129//122 130//123 123//116
f 130//123 131//124 124//117
f 131//124 125//118 118//111
f 157//149 167//159 165//157
f 165//157 163//155 161//153
f 161//153 159//151 157//149
f 168//160 158//150 160//152
f 160//152 162//154 164//156
f 164//156 166//158 168//160
f 157//149 159//151 160//152
f 161//153 162//154 160//152
f 161//153 163//155 164//156
f 165//157 166//158 164//156
f 165//157 167//159 168//160
f 157//149 158//150 168//160
f 177//118 178//119 171//112
f 178//119 179//120 172//113
f 179//120 180//121 173//161
f 180//121 181//122 174//115
f 181//122 182//123 175//116
f 182//123 183//124 176//117
f 183//124 177//118 170//111
f 219//196 229//206 227//204
f 227//204 225//202 223//200
f 223//200 221//198 219//196
f 230//207 220//197 222//199
f 222//199 224//201 226//203
f 226//203 228//205 230//207
f 219//196 221//198 222//199
f 221//198 223//200 224//201
f 225//202 226//203 224//201
f 227//204 228//205 226//203
f 229//206 230//207 228//205
f 229//206 219//196 220//197
f 239//118 240//119 233//112
f 240//119 241//120 234//113
f 241//120 242//121 235//114
f 242//121 243//208 236//115
f 243//208 244//123 237//116
f 244//123 245//124 238//117
f 245//124 239//118 232//111
f 281//243 291//253 289//251
f 289//251 287//249 285//247
f 285//247 283//245 281//243
f 292//254 282//244 284//246
f 284//246 286//248 288//250
f 288//250 290//252 292//254
f 283//245 284//246 282//244
f 285//247 286//248 284//246
f 285//247 287//249 288//250
f 287//249 289//251 290//252
f 289//251 291//253 292//254
f 291//253 281//243 282//244
f 301//118 302//256 295//112
f 302//256 303//120 296//113
f 303//120 304//121 297//114
f 304//121 305//208 298//115
f 305//208 306//123 299//116
f 306//123 307//124 300//255
f 307//124 301//118 294//111
f 333//281 343//291 341//289
f 341//289 339//287 337//285
f 337//285 335//283 333//281
f 344//292 334//282 336//284
f 336//284 338//286 340//288
f 340//288 342//290 344//292
f 335//283 336//284 334//282
f 335//283 337//285 338//286
f 337//285 339//287 340//288
f 339//287 341//289 342//290
f 343//291 344//292 342//290
f 333//281 334//282 344//292
f 353//118 354//119 347//112
f 354//119 355//120 348//113
f 355//120 356//121 349//114
f 356//121 357//208 350//115
f 357//208 358//123 351//116
f 358//123 359//124 352//117
f 359//124 353//118 346//111
f 385//317 395//327 393//325
f 393//325 391//323 389//321
f 389//321 387//319 385//317
f 396//328 386//318 388//320
f 388//320 390//322 392//324
f 392//324 394//326 396//328
f 385//317 387//319 388//320
f 387//319 389//321 390//322
f 391//323 392//324 390//322
f 393//325 394//326 392//324
f 393//325 395//327 396//328
f 395//327 385//317 386//318
f 405//118 406//256 399//112
f 406//256 407//120 400//113
f 407//120 408//121 401//161
f 408//121 409//122 402//115
f 409//122 410//123 403//116
f 410//123 411//124 404//255
f 411//124 405//118 398//111
f 447//363 457//373 455//371
f 455//371 453//369 451//367
f 451//367 449//365 447//363
f 458//374 448//364 450//366
f 450//366 452//368 454//370
f 454//370 456//372 458//374
f 447//363 449//365 450//366
f 449//365 451//367 452//368
f 451//367 453//369 454//370
f 455//371 456//372 454//370
f 457//373 458//374 456//372
f 447//363 448//364 458//374
f 467//118 468//119 461//112
f 468//119 469//120 462//113
f 469//120 470//121 463//114
f 470//121 471//122 464//375
f 471//122 472//123 465//116
f 472//123 473//124 466//117
f 473//124 467//118 460//111
f 484//384 485//385 477//377
f 485//385 486//386 478//378
f 486//386 487//387 479//379
f 487//387 488//388 480//380
f 488//388 489//389 481//381
f 489//389 490//390 482//382
f 490//390 491//391 483//383
f 491//391 484//384 476//376
f 502//400 503//401 495//393
f 503//401 504//402 496//394
f 504//402 505//403 497//395
f 505//403 506//404 498//396
f 506//404 507//405 499//397
f 507//405 508//406 500//398
f 508//406 509//407 501//399
f 509//407 502//400 494//392
f 520//416 521//417 513//409
f 521//417 522//418 514//410
f 522//418 523//419 515//411
f 523//419 524//420 516//412
f 524//420 525//421 517//413
f 525//421 526//422 518//414
f 526//422 527//423 519//415
f 527//423 520//416 512//408
f 538//432 539//433 531//425
f 539//433 540//434 532//426
f 540//434 541//435 533//427
f 541//435 542//436 534//428
f 542//436 543//437 535//429
f 543//437 544//438 536//430
f 544//438 545//439 537//431
f 545//439 538//432 530//424
usemtl verdant_growth
f 141//133 137//129 133//125
f 136//128 140//132 144//136
f 135//127 134//126 133//125
f 135//127 138//130 136//128
f 137//129 140//132 138//130
f 139//131 142//134 140//132
f 143//135 142//134 141//133
f 133//125 144//136 143//135
f 153//145 149//141 145//137
f 148//140 152//144 156//148
f 147//139 146//138 145//137
f 147//139 150//142 148//140
f 149//141 152//144 150//142
f 151//143 154//146 152//144
f 155//147 154//146 153//145
f 145//137 156//148 155//147
f 193//170 189//166 185//162
f 188//165 192//169 196//173
f 187//164 186//163 185//162
f 189//166 188//165 187//164
f 189//166 192//169 190//167
f 191//168 194//171 192//169
f 193//170 196//173 194//171
f 185//162 196//173 195//172
f 203//180 199//176 197//174
f 200//177 204//181 206//183
f 197//174 200//177 198//175
f 201//178 200//177 199//176
f 203//180 202//179 201//178
f 203//180 206//183 204//181
f 197//174 206//183 205//182
f 215//192 211//188 207//184
f 210//187 214//191 218//195
f 207//184 210//187 208//185
f 209//186 212//189 210//187
f 213//190 212//189 211//188
f 215//192 214//191 213//190
f 217//194 216//193 215//192
f 217//194 208//185 218//195
f 255//217 251//213 247//209
f 250//212 254//216 258//220
f 249//211 248//210 247//209
f 251//213 250//212 249//211
f 253//215 252//214 251//213
f 253//215 256//218 254//216
f 255//217 258//220 256//218
f 257//219 248//210 258//220
f 267//229 263//225 259//221
f 262//224 266//228 270//232
f 259//221 262//224 260//222
f 263//225 262//224 261//223
f 263//225 266//228 264//226
f 267//229 266//228 265//227
f 267//229 270//232 268//230
f 259//221 270//232 269//231
f 277//239 273//235 271//233
f 274//236 278//240 280//242
f 273//235 272//234 271//233
f 273//235 276//238 274//236
f 277//239 276//238 275//237
f 277//239 280//242 278//240
f 271//233 280//242 279//241
f 317//265 313//261 309//257
f 312//260 316//264 320//268
f 309//257 312//260 310//258
f 313//261 312//260 311//259
f 315//263 314//262 313//261
f 317//265 316//264 315//263
f 317//265 320//268 318//266
f 319//267 310//258 320//268
f 329//277 325//273 321//269
f 324//272 328//276 332//280
f 323//271 322//270 321//269
f 325//273 324//272 323//271
f 327//275 326//274 325//273
f 327//275 330//278 328//276
f 329//277 332//280 330//278
f 331//279 322//270 332//280
f 369//301 365//297 361//293
f 364//296 368//300 372//304
f 363//295 362//294 361//293
f 365//297 364//296 363//295
f 367//299 366//298 365//297
f 369//301 368//300 367//299
f 369//301 372//304 370//302
f 371//303 362//294 372//304
f 381//313 377//309 373//305
f 376//308 380//312 384//316
f 375//307 374//306 373//305
f 377//309 376//308 375//307
f 377//309 380//312 378//310
f 379//311 382//314 380//312
f 381//313 384//316 382//314
f 373//305 384//316 383//315
f 421//337 417//333 413//329
f 416//332 420//336 424//340
f 413//329 416//332 414//330
f 417//333 416//332 415//331
f 417//333 420//336 418//334
f 421//337 420//336 419//335
f 421//337 424//340 422//338
f 413//329 424//340 423//339
f 431//347 427//343 425//341
f 428//344 432//348 434//350
f 427//343 426//342 425//341
f 427//343 430//346 428//344
f 429//345 432//348 430//346
f 431//347 434//350 432//348
f 425//341 434//350 433//349
f 443//359 439//355 435//351
f 438//354 442//358 446//362
f 435//351 438//354 436//352
f 439//355 438//354 437//353
f 439//355 442//358 440//356
f 443//359 442//358 441//357
f 443//359 446//362 444//360
f 435//351 446//362 445//361
f 133//125 143//135 141//133
f 141//133 139//131 137//129
f 137//129 135//127 133//125
f 144//136 134//126 136//128
f 136//128 138//130 140//132
f 140//132 142//134 144//136
f 135//127 136//128 134//126
f 135//127 137//129 138//130
f 137//129 139//131 140//132
f 139//131 141//133 142//134
f 143//135 144//136 142//134
f 133//125 134//126 144//136
f 145//137 155//147 153//145
f 153//145 151//143 149//141
f 149//141 147//139 145//137
f 156//148 146//138 148//140
f 148//140 150//142 152//144
f 152//144 154//146 156//148
f 147//139 148//140 146//138
f 147//139 149//141 150//142
f 149//141 151//143 152//144
f 151//143 153//145 154//146
f 155//147 156//148 154//146
f 145//137 146//138 156//148
f 185//162 195//172 193//170
f 193//170 191//168 189//166
f 189//166 187//164 185//162
f 196//173 186//163 188//165
f 188//165 190//167 192//169
f 192//169 194//171 196//173
f 187//164 188//165 186//163
f 189//166 190//167 188//165
f 189//166 191//168 192//169
f 191//168 193//170 194//171
f 193//170 195//172 196//173
f 185//162 186//163 196//173
f 197//174 205//182 203//180
f 203//180 201//178 199//176
f 206//183 198//175 200//177
f 200//177 202//179 204//181
f 197//174 199//176 200//177
f 201//178 202//179 200//177
f 203//180 204//181 202//179
f 203//180 205//182 206//183
f 197//174 198//175 206//183
f 207//184 217//194 215//192
f 215//192 213//190 211//188
f 211//188 209//186 207//184
f 218//195 208//185 210//187
f 210//187 212//189 214//191
f 214//191 216//193 218//195
f 207//184 209//186 210//187
f 209//186 211//188 212//189
f 213//190 214//191 212//189
f 215//192 216//193 214//191
f 217//194 218//195 216//193
f 217//194 207//184 208//185
f 247//209 257//219 255//217
f 255//217 253//215 251//213
f 251//213 249//211 247//209
f 258//220 248//210 250//212
f 250//212 252//214 254//216
f 254//216 256//218 258//220
f 249//211 250//212 248//210
f 251//213 252//214 250//212
f 253//215 254//216 252//214
f 253//215 255//217 256//218
f 255//217 257//219 258//220
f 257//219 247//209 248//210
f 259//221 269//231 267//229
f 267//229 265//227 263//225
f 263//225 261//223 259//221
f 270//232 260//222 262//224
f 262//224 264//226 266//228
f 266//228 268//230 270//232
f 259//221 261//223 262//224
f 263//225 264//226 262//224
f 263//225 265//227 266//228
f 267//229 268//230 266//228
f 267//229 269//231 270//232
f 259//221 260//222 270//232
f 271//233 279//241 277//239
f 277//239 275//237 273//235
f 280//242 272//234 274//236
f 274//236 276//238 278//240
f 273//235 274//236 272//234
f 273//235 275//237 276//238
f 277//239 278//240 276//238
f 277//239 279//241 280//242
f 271//233 272//234 280//242
f 309//257 319//267 317//265
f 317//265 315//263 313//261
f 313//261 311//259 309//257
f 320//268 310//258 312//260
f 312//260 314//262 316//264
f 316//264 318//266 320//268
f 309//257 311//259 312//260
f 313//261 314//262 312//260
f 315//263 316//264 314//262
f 317//265 318//266 316//264
f 317//265 319//267 320//268
f 319//267 309//257 310//258
f 321//269 331//279 329//277
f 329//277 327//275 325//273
f 325//273 323//271 321//269
f 332//280 322//270 324//272
f 324//272 326//274 328//276
f 328//276 330//278 332//280
f 323//271 324//272 322//270
f 325//273 326//274 324//272
f 327//275 328//276 326//274
f 327//275 329//277 330//278
f 329//277 331//279 332//280
f 331//279 321//269 322//270
f 361//293 371//303 369//301
f 369//301 367//299 365//297
f 365//297 363//295 361//293
f 372//304 362//294 364//296
f 364//296 366//298 368//300
f 368//300 370//302 372//304
f 363//295 364//296 362//294
f 365//297 366//298 364//296
f 367//299 368//300 366//298
f 369//301 370//302 368//300
f 369//301 371//303 372//304
f 371//303 361//293 362//294
f 373//305 383//315 381//313
f 381//313 379//311 377//309
f 377//309 375//307 373//305
f 384//316 374//306 376//308
f 376//308 378//310 380//312
f 380//312 382//314 384//316
f 375//307 376//308 374//306
f 377//309 378//310 376//308
f 377//309 379//311 380//312
f 379//311 381//313 382//314
f 381//313 383//315 384//316
f 373//305 374//306 384//316
f 413//329 423//339 421//337
f 421//337 419//335 417//333
f 417//333 415//331 413//329
f 424//340 414//330 416//332
f 416//332 418//334 420//336
f 420//336 422//338 424//340
f 413//329 415//331 416//332
f 417//333 418//334 416//332
f 417//333 419//335 420//336
f 421//337 422//338 420//336
f 421//337 423//339 424//340
f 413//329 414//330 424//340
f 425//341 433//349 431//347
f 431//347 429//345 427//343
f 434//350 426//342 428//344
f 428//344 430//346 432//348
f 427//343 428//344 426//342
f 427//343 429//345 430//346
f 429//345 431//347 432//348
f 431//347 433//349 434//350
f 425//341 426//342 434//350
f 435//351 445//361 443//359
f 443//359 441//357 439//355
f 439//355 437//353 435//351
f 446//362 436//352 438//354
f 438//354 440//356 442//358
f 442//358 444//360 446//362
f 435//351 437//353 438//354
f 439//355 440//356 438//354
f 439//355 441//357 442//358
f 443//359 444//360 442//358
f 443//359 445//361 446//362
f 435//351 436//352 446//362
