# Blender 5.2.1 LTS
# www.blender.org
mtllib payload_woven_fibre_a.mtl
o bound_strand.004
v -0.146263 0.100000 0.044845
v -0.145557 0.061115 0.022208
v -0.149294 0.061115 -0.022637
v -0.153737 0.100000 -0.044845
v -0.154443 0.138885 -0.022208
v -0.150706 0.138885 0.022637
v 0.452803 0.140000 -0.016367
v 0.453332 0.110836 -0.033344
v 0.450529 0.110836 -0.066978
v 0.447197 0.140000 -0.083633
v 0.446668 0.169164 -0.066656
v 0.449471 0.169164 -0.033022
vn -0.5333 -0.0400 0.8450
vn -0.5208 -0.7293 0.4437
vn -0.5871 -0.7293 -0.3513
vn -0.6658 -0.0400 -0.7450
vn -0.6783 0.6494 -0.3437
vn -0.6121 0.6494 0.4513
vn 0.6789 0.0409 0.7331
vn 0.6912 -0.6391 0.3372
vn 0.6259 -0.6391 -0.4470
vn 0.5481 0.0409 -0.8354
vn 0.5358 0.7209 -0.4395
vn 0.6012 0.7209 0.3448
s 1
usemtl verdant_fibre
f 2//2 7//7 1//1
f 3//3 8//8 2//2
f 4//4 9//9 3//3
f 5//5 10//10 4//4
f 6//6 11//11 5//5
f 1//1 12//12 6//6
f 5//5 3//3 1//1
f 8//8 10//10 12//12
f 2//2 8//8 7//7
f 3//3 9//9 8//8
f 4//4 10//10 9//9
f 5//5 11//11 10//10
f 6//6 12//12 11//11
f 1//1 7//7 12//12
f 1//1 6//6 5//5
f 5//5 4//4 3//3
f 3//3 2//2 1//1
f 12//12 7//7 8//8
f 8//8 9//9 10//10
f 10//10 11//11 12//12
o bound_strand.005
v -0.406872 0.140000 -0.056475
v -0.406166 0.101115 -0.079112
v -0.409903 0.101115 -0.123956
v -0.414346 0.140000 -0.146164
v -0.415052 0.178885 -0.123527
v -0.411315 0.178885 -0.078683
v 0.192194 0.180000 -0.117686
v 0.192723 0.150836 -0.134664
v 0.189920 0.150836 -0.168297
v 0.186588 0.180000 -0.184953
v 0.186059 0.209164 -0.167975
v 0.188861 0.209164 -0.134342
vn -0.5333 -0.0400 0.8450
vn -0.5208 -0.7293 0.4437
vn -0.5871 -0.7293 -0.3513
vn -0.6658 -0.0400 -0.7450
vn -0.6783 0.6494 -0.3437
vn -0.6121 0.6494 0.4513
vn 0.6789 0.0409 0.7331
vn 0.6912 -0.6391 0.3373
vn 0.6258 -0.6391 -0.4470
vn 0.5481 0.0409 -0.8354
vn 0.5358 0.7209 -0.4395
vn 0.6012 0.7209 0.3448
s 1
usemtl verdant_fibre
f 13//13 20//20 19//19
f 14//14 21//21 20//20
f 16//16 21//21 15//15
f 17//17 22//22 16//16
f 17//17 24//24 23//23
f 13//13 24//24 18//18
f 17//17 15//15 13//13
f 20//20 22//22 24//24
f 13//13 14//14 20//20
f 14//14 15//15 21//21
f 16//16 22//22 21//21
f 17//17 23//23 22//22
f 17//17 18//18 24//24
f 13//13 19//19 24//24
f 13//13 18//18 17//17
f 17//17 16//16 15//15
f 15//15 14//14 13//13
f 24//24 19//19 20//20
f 20//20 21//21 22//22
f 22//22 23//23 24//24
o bound_strand.006
v -0.283138 0.180000 0.194269
v -0.282432 0.141115 0.171632
v -0.286169 0.141115 0.126788
v -0.290612 0.180000 0.104580
v -0.291318 0.218885 0.127217
v -0.287581 0.218885 0.172062
v 0.315928 0.220000 0.133058
v 0.316457 0.190836 0.116080
v 0.313654 0.190836 0.082447
v 0.310322 0.220000 0.065791
v 0.309793 0.249164 0.082769
v 0.312595 0.249164 0.116402
vn -0.5333 -0.0400 0.8450
vn -0.5208 -0.7293 0.4437
vn -0.5871 -0.7293 -0.3513
vn -0.6658 -0.0400 -0.7450
vn -0.6783 0.6494 -0.3437
vn -0.6121 0.6494 0.4513
vn 0.6789 0.0409 0.7331
vn 0.6912 -0.6391 0.3373
vn 0.6259 -0.6391 -0.4470
vn 0.5481 0.0409 -0.8354
vn 0.5358 0.7209 -0.4395
vn 0.6012 0.7209 0.3448
s 1
usemtl verdant_fibre
f 25//25 32//32 31//31
f 27//27 32//32 26//26
f 28//28 33//33 27//27
f 29//29 34//34 28//28
f 29//29 36//36 35//35
f 25//25 36//36 30//30
f 29//29 27//27 25//25
f 32//32 34//34 36//36
f 25//25 26//26 32//32
f 27//27 33//33 32//32
f 28//28 34//34 33//33
f 29//29 35//35 34//34
f 29//29 30//30 36//36
f 25//25 31//31 36//36
f 25//25 30//30 29//29
f 29//29 28//28 27//27
f 27//27 26//26 25//25
f 36//36 31//31 32//32
f 32//32 33//33 34//34
f 34//34 35//35 36//36
o bound_strand.007
v -0.205010 0.220000 -0.074206
v -0.204304 0.181115 -0.096842
v -0.208041 0.181115 -0.141687
v -0.212484 0.220000 -0.163895
v -0.213190 0.258885 -0.141258
v -0.209453 0.258885 -0.096413
v 0.394055 0.260000 -0.135417
v 0.394585 0.230836 -0.152394
v 0.391782 0.230836 -0.186028
v 0.388450 0.260000 -0.202684
v 0.387920 0.289164 -0.185706
v 0.390723 0.289164 -0.152073
vn -0.5333 -0.0400 0.8450
vn -0.5208 -0.7293 0.4437
vn -0.5871 -0.7293 -0.3513
vn -0.6658 -0.0400 -0.7450
vn -0.6783 0.6494 -0.3437
vn -0.6121 0.6494 0.4513
vn 0.6789 0.0409 0.7331
vn 0.6912 -0.6391 0.3372
vn 0.6259 -0.6391 -0.4470
vn 0.5481 0.0409 -0.8354
vn 0.5358 0.7209 -0.4395
vn 0.6012 0.7209 0.3448
s 1
usemtl verdant_fibre
f 38//38 43//43 37//37
f 39//39 44//44 38//38
f 40//40 45//45 39//39
f 41//41 46//46 40//40
f 42//42 47//47 41//41
f 37//37 48//48 42//42
f 41//41 39//39 37//37
f 44//44 46//46 48//48
f 38//38 44//44 43//43
f 39//39 45//45 44//44
f 40//40 46//46 45//45
f 41//41 47//47 46//46
f 42//42 48//48 47//47
f 37//37 43//43 48//48
f 37//37 42//42 41//41
f 41//41 40//40 39//39
f 39//39 38//38 37//37
f 48//48 43//43 44//44
f 44//44 45//45 46//46
f 46//46 47//47 48//48
