# Blender 5.2.1 LTS
# www.blender.org
mtllib payload_raw_silicate_a.mtl
o cleaved_mineral.019
v 0.250000 0.080000 0.000000
v 0.180902 0.080000 -0.095106
v 0.069098 0.080000 -0.058779
v 0.069098 0.080000 0.058779
v 0.180902 0.080000 0.095106
v 0.273500 0.325000 0.000000
v 0.219603 0.325000 -0.074182
v 0.132397 0.325000 -0.045847
v 0.132397 0.325000 0.045847
v 0.219603 0.325000 0.074182
v 0.209500 0.430000 0.000000
vn -0.0000 -1.0000 -0.0000
vn 0.8066 -0.0774 -0.5860
vn 0.7256 0.4423 -0.5272
vn -0.3064 0.1289 -0.9431
vn -0.2600 0.5404 -0.8003
vn -0.9682 0.2501 -0.0000
vn -0.8060 0.5919 -0.0000
vn -0.3064 0.1289 0.9431
vn -0.2600 0.5404 0.8003
vn 0.8066 -0.0774 0.5860
vn 0.7256 0.4423 0.5272
s 0
usemtl verdant_silica
f 4//1 2//1 1//1
f 1//2 7//2 6//2
f 6//3 7//3 11//3
f 2//4 8//4 7//4
f 7//5 8//5 11//5
f 4//6 8//6 3//6
f 8//7 9//7 11//7
f 5//8 9//8 4//8
f 9//9 10//9 11//9
f 1//10 10//10 5//10
f 10//11 6//11 11//11
f 1//1 5//1 4//1
f 4//1 3//1 2//1
f 1//2 2//2 7//2
f 2//4 3//4 8//4
f 4//6 9//6 8//6
f 5//8 10//8 9//8
f 1//10 6//10 10//10
o cleaved_mineral.020
v -0.010609 0.080000 -0.101319
v -0.079707 0.080000 -0.196425
v -0.191511 0.080000 -0.160098
v -0.191511 0.080000 -0.042541
v -0.079707 0.080000 -0.006214
v 0.023291 0.381000 -0.101319
v -0.030606 0.381000 -0.175502
v -0.117812 0.381000 -0.147167
v -0.117812 0.381000 -0.055472
v -0.030606 0.381000 -0.027137
v -0.037509 0.510000 -0.101319
vn -0.0000 -1.0000 -0.0000
vn 0.8057 -0.0907 -0.5854
vn 0.7559 0.3563 -0.5492
vn -0.3069 0.1157 -0.9447
vn -0.2730 0.4686 -0.8402
vn -0.9713 0.2378 -0.0000
vn -0.8489 0.5285 -0.0000
vn -0.3069 0.1157 0.9447
vn -0.2730 0.4686 0.8402
vn 0.8057 -0.0907 0.5854
vn 0.7559 0.3563 0.5492
s 0
usemtl verdant_silica
f 15//12 13//12 12//12
f 12//13 18//13 17//13
f 17//14 18//14 22//14
f 13//15 19//15 18//15
f 18//16 19//16 22//16
f 14//17 20//17 19//17
f 19//18 20//18 22//18
f 16//19 20//19 15//19
f 20//20 21//20 22//20
f 12//21 21//21 16//21
f 21//22 17//22 22//22
f 12//12 16//12 15//12
f 15//12 14//12 13//12
f 12//13 13//13 18//13
f 13//15 14//15 19//15
f 14//17 15//17 20//17
f 16//19 21//19 20//19
f 12//21 17//21 21//21
o cleaved_mineral.021
v 0.113125 0.080000 0.149425
v 0.044027 0.080000 0.054319
v -0.067777 0.080000 0.090646
v -0.067777 0.080000 0.208203
v 0.044027 0.080000 0.244530
v 0.157425 0.437000 0.149425
v 0.103528 0.437000 0.075242
v 0.016322 0.437000 0.103577
v 0.016322 0.437000 0.195272
v 0.103528 0.437000 0.223607
v 0.099825 0.590000 0.149425
vn -0.0000 -1.0000 -0.0000
vn 0.8050 -0.0999 -0.5848
vn 0.7739 0.2914 -0.5623
vn -0.3073 0.1066 -0.9456
vn -0.2814 0.4131 -0.8661
vn -0.9734 0.2293 -0.0000
vn -0.8778 0.4791 -0.0000
vn -0.3073 0.1066 0.9456
vn -0.2814 0.4131 0.8661
vn 0.8050 -0.0999 0.5848
vn 0.7739 0.2914 0.5623
s 0
usemtl verdant_silica
f 26//23 24//23 23//23
f 23//24 29//24 28//24
f 28//25 29//25 33//25
f 24//26 30//26 29//26
f 29//27 30//27 33//27
f 26//28 30//28 25//28
f 30//29 31//29 33//29
f 27//30 31//30 26//30
f 31//31 32//31 33//31
f 23//32 32//32 27//32
f 32//33 28//33 33//33
f 23//23 27//23 26//23
f 26//23 25//23 24//23
f 23//24 24//24 29//24
f 24//26 25//26 30//26
f 26//28 31//28 30//28
f 27//30 32//30 31//30
f 23//32 28//32 32//32
o cleaved_mineral.022
v 0.191253 0.080000 -0.119050
v 0.122154 0.080000 -0.214156
v 0.010351 0.080000 -0.177829
v 0.010351 0.080000 -0.060272
v 0.122154 0.080000 -0.023945
v 0.245953 0.493000 -0.119050
v 0.192056 0.493000 -0.193233
v 0.104849 0.493000 -0.164897
v 0.104849 0.493000 -0.073203
v 0.192056 0.493000 -0.044868
v 0.191553 0.670000 -0.119050
vn -0.0000 -1.0000 -0.0000
vn 0.8044 -0.1065 -0.5844
vn 0.7851 0.2413 -0.5704
vn -0.3075 0.1000 -0.9463
vn -0.2871 0.3696 -0.8837
vn -0.9748 0.2230 -0.0000
vn -0.8980 0.4399 -0.0000
vn -0.3075 0.1000 0.9463
vn -0.2871 0.3696 0.8837
vn 0.8044 -0.1065 0.5844
vn 0.7851 0.2413 0.5704
s 0
usemtl verdant_silica
f 37//34 35//34 34//34
f 34//35 40//35 39//35
f 39//36 40//36 44//36
f 35//37 41//37 40//37
f 40//38 41//38 44//38
f 37//39 41//39 36//39
f 41//40 42//40 44//40
f 38//41 42//41 37//41
f 42//42 43//42 44//42
f 34//43 43//43 38//43
f 43//44 39//44 44//44
f 34//34 38//34 37//34
f 37//34 36//34 35//34
f 34//35 35//35 40//35
f 35//37 36//37 41//37
f 37//39 42//39 41//39
f 38//41 43//41 42//41
f 34//43 39//43 43//43
