# Generated environment blockout: anoxic_colony_a
mtllib environment_blockout.mtl
o anoxic_colony_a
v -1.7 0.0 -0.2
v -1.7 0.0 -0.2
v -1.7 0.0 -0.2
v -1.7 0.0 -0.2
v -1.7 0.0 -0.2
v -1.7 0.0 -0.2
v -1.7 0.0 -0.2
v -1.7 0.0 -0.2
v -1.7 0.0 -0.2
v -1.7 0.0 -0.2
v -1.7 0.0 -0.2
v -1.7 0.0 -0.2
v -0.14115 0.0275 -0.2
v -0.35 0.0275 0.27631
v -0.92058 0.0275 0.625
v -1.7 0.0275 0.75263
v -2.47942 0.0275 0.625
v -3.05 0.0275 0.27631
v -3.25885 0.0275 -0.2
v -3.05 0.0275 -0.67631
v -2.47942 0.0275 -1.025
v -1.7 0.0275 -1.15263
v -0.92058 0.0275 -1.025
v -0.35 0.0275 -0.67631
v -0.14115 0.0825 -0.2
v -0.35 0.0825 0.27631
v -0.92058 0.0825 0.625
v -1.7 0.0825 0.75263
v -2.47942 0.0825 0.625
v -3.05 0.0825 0.27631
v -3.25885 0.0825 -0.2
v -3.05 0.0825 -0.67631
v -2.47942 0.0825 -1.025
v -1.7 0.0825 -1.15263
v -0.92058 0.0825 -1.025
v -0.35 0.0825 -0.67631
v -1.7 0.11 -0.2
v -1.7 0.11 -0.2
v -1.7 0.11 -0.2
v -1.7 0.11 -0.2
v -1.7 0.11 -0.2
v -1.7 0.11 -0.2
v -1.7 0.11 -0.2
v -1.7 0.11 -0.2
v -1.7 0.11 -0.2
v -1.7 0.11 -0.2
v -1.7 0.11 -0.2
v -1.7 0.11 -0.2
v 0.6 0.0 0.5
v 0.6 0.0 0.5
v 0.6 0.0 0.5
v 0.6 0.0 0.5
v 0.6 0.0 0.5
v 0.6 0.0 0.5
v 0.6 0.0 0.5
v 0.6 0.0 0.5
v 0.6 0.0 0.5
v 0.6 0.0 0.5
v 0.6 0.0 0.5
v 0.6 0.0 0.5
v 2.41865 0.0275 0.5
v 2.175 0.0275 1.04127
v 1.50933 0.0275 1.4375
v 0.6 0.0275 1.58253
v -0.30933 0.0275 1.4375
v -0.975 0.0275 1.04127
v -1.21865 0.0275 0.5
v -0.975 0.0275 -0.04127
v -0.30933 0.0275 -0.4375
v 0.6 0.0275 -0.58253
v 1.50933 0.0275 -0.4375
v 2.175 0.0275 -0.04127
v 2.41865 0.0825 0.5
v 2.175 0.0825 1.04127
v 1.50933 0.0825 1.4375
v 0.6 0.0825 1.58253
v -0.30933 0.0825 1.4375
v -0.975 0.0825 1.04127
v -1.21865 0.0825 0.5
v -0.975 0.0825 -0.04127
v -0.30933 0.0825 -0.4375
v 0.6 0.0825 -0.58253
v 1.50933 0.0825 -0.4375
v 2.175 0.0825 -0.04127
v 0.6 0.11 0.5
v 0.6 0.11 0.5
v 0.6 0.11 0.5
v 0.6 0.11 0.5
v 0.6 0.11 0.5
v 0.6 0.11 0.5
v 0.6 0.11 0.5
v 0.6 0.11 0.5
v 0.6 0.11 0.5
v 0.6 0.11 0.5
v 0.6 0.11 0.5
v 0.6 0.11 0.5
v 2.2 0.0 -0.6
v 2.2 0.0 -0.6
v 2.2 0.0 -0.6
v 2.2 0.0 -0.6
v 2.2 0.0 -0.6
v 2.2 0.0 -0.6
v 2.2 0.0 -0.6
v 2.2 0.0 -0.6
v 2.2 0.0 -0.6
v 2.2 0.0 -0.6
v 2.2 0.0 -0.6
v 2.2 0.0 -0.6
v 3.23923 0.0275 -0.6
v 3.1 0.0275 -0.25359
v 2.71962 0.0275 0.0
v 2.2 0.0275 0.09282
v 1.68038 0.0275 0.0
v 1.3 0.0275 -0.25359
v 1.16077 0.0275 -0.6
v 1.3 0.0275 -0.94641
v 1.68038 0.0275 -1.2
v 2.2 0.0275 -1.29282
v 2.71962 0.0275 -1.2
v 3.1 0.0275 -0.94641
v 3.23923 0.0825 -0.6
v 3.1 0.0825 -0.25359
v 2.71962 0.0825 0.0
v 2.2 0.0825 0.09282
v 1.68038 0.0825 0.0
v 1.3 0.0825 -0.25359
v 1.16077 0.0825 -0.6
v 1.3 0.0825 -0.94641
v 1.68038 0.0825 -1.2
v 2.2 0.0825 -1.29282
v 2.71962 0.0825 -1.2
v 3.1 0.0825 -0.94641
v 2.2 0.11 -0.6
v 2.2 0.11 -0.6
v 2.2 0.11 -0.6
v 2.2 0.11 -0.6
v 2.2 0.11 -0.6
v 2.2 0.11 -0.6
v 2.2 0.11 -0.6
v 2.2 0.11 -0.6
v 2.2 0.11 -0.6
v 2.2 0.11 -0.6
v 2.2 0.11 -0.6
v 2.2 0.11 -0.6
v -2.0 0.06 -0.3
v -2.0 0.06 -0.3
v -2.0 0.06 -0.3
v -2.0 0.06 -0.3
v -2.0 0.06 -0.3
v -2.0 0.06 -0.3
v -2.0 0.06 -0.3
v -2.0 0.06 -0.3
v -2.0 0.06 -0.3
v -1.77664 0.19044 -0.3
v -1.8289 0.19044 -0.15643
v -1.96121 0.19044 -0.08003
v -2.11168 0.19044 -0.10657
v -2.20989 0.19044 -0.22361
v -2.20989 0.19044 -0.37639
v -2.11168 0.19044 -0.49343
v -1.96121 0.19044 -0.51997
v -1.8289 0.19044 -0.44357
v -1.6386 0.53194 -0.3
v -1.72315 0.53194 -0.0677
v -1.93724 0.53194 0.05591
v -2.1807 0.53194 0.01298
v -2.33961 0.53194 -0.17639
v -2.33961 0.53194 -0.42361
v -2.1807 0.53194 -0.61298
v -1.93724 0.53194 -0.65591
v -1.72315 0.53194 -0.5323
v -1.6386 0.95406 -0.3
v -1.72315 0.95406 -0.0677
v -1.93724 0.95406 0.05591
v -2.1807 0.95406 0.01298
v -2.33961 0.95406 -0.17639
v -2.33961 0.95406 -0.42361
v -2.1807 0.95406 -0.61298
v -1.93724 0.95406 -0.65591
v -1.72315 0.95406 -0.5323
v -1.77664 1.29556 -0.3
v -1.8289 1.29556 -0.15643
v -1.96121 1.29556 -0.08003
v -2.11168 1.29556 -0.10657
v -2.20989 1.29556 -0.22361
v -2.20989 1.29556 -0.37639
v -2.11168 1.29556 -0.49343
v -1.96121 1.29556 -0.51997
v -1.8289 1.29556 -0.44357
v -2.0 1.426 -0.3
v -2.0 1.426 -0.3
v -2.0 1.426 -0.3
v -2.0 1.426 -0.3
v -2.0 1.426 -0.3
v -2.0 1.426 -0.3
v -2.0 1.426 -0.3
v -2.0 1.426 -0.3
v -2.0 1.426 -0.3
v -2.0 0.08 -0.3456
v -2.0 0.35 -0.3456
v -2.03949 0.08 -0.3228
v -2.03949 0.35 -0.3228
v -2.03949 0.08 -0.2772
v -2.03949 0.35 -0.2772
v -2.0 0.08 -0.2544
v -2.0 0.35 -0.2544
v -1.96051 0.08 -0.2772
v -1.96051 0.35 -0.2772
v -1.96051 0.08 -0.3228
v -1.96051 0.35 -0.3228
v -0.8 0.06 0.7
v -0.8 0.06 0.7
v -0.8 0.06 0.7
v -0.8 0.06 0.7
v -0.8 0.06 0.7
v -0.8 0.06 0.7
v -0.8 0.06 0.7
v -0.8 0.06 0.7
v -0.8 0.06 0.7
v -0.63542 0.18376 0.7
v -0.67392 0.18376 0.80579
v -0.77142 0.18376 0.86208
v -0.88229 0.18376 0.84253
v -0.95465 0.18376 0.75629
v -0.95465 0.18376 0.64371
v -0.88229 0.18376 0.55747
v -0.77142 0.18376 0.53792
v -0.67392 0.18376 0.59421
v -0.5337 0.50776 0.7
v -0.59601 0.50776 0.87117
v -0.75376 0.50776 0.96225
v -0.93315 0.50776 0.93062
v -1.05024 0.50776 0.79108
v -1.05024 0.50776 0.60892
v -0.93315 0.50776 0.46938
v -0.75376 0.50776 0.43775
v -0.59601 0.50776 0.52883
v -0.5337 0.90824 0.7
v -0.59601 0.90824 0.87117
v -0.75376 0.90824 0.96225
v -0.93315 0.90824 0.93062
v -1.05024 0.90824 0.79108
v -1.05024 0.90824 0.60892
v -0.93315 0.90824 0.46938
v -0.75376 0.90824 0.43775
v -0.59601 0.90824 0.52883
v -0.63542 1.23224 0.7
v -0.67392 1.23224 0.80579
v -0.77142 1.23224 0.86208
v -0.88229 1.23224 0.84253
v -0.95465 1.23224 0.75629
v -0.95465 1.23224 0.64371
v -0.88229 1.23224 0.55747
v -0.77142 1.23224 0.53792
v -0.67392 1.23224 0.59421
v -0.8 1.356 0.7
v -0.8 1.356 0.7
v -0.8 1.356 0.7
v -0.8 1.356 0.7
v -0.8 1.356 0.7
v -0.8 1.356 0.7
v -0.8 1.356 0.7
v -0.8 1.356 0.7
v -0.8 1.356 0.7
v -0.8 0.08 0.6664
v -0.8 0.35 0.6664
v -0.8291 0.08 0.6832
v -0.8291 0.35 0.6832
v -0.8291 0.08 0.7168
v -0.8291 0.35 0.7168
v -0.8 0.08 0.7336
v -0.8 0.35 0.7336
v -0.7709 0.08 0.7168
v -0.7709 0.35 0.7168
v -0.7709 0.08 0.6832
v -0.7709 0.35 0.6832
v 0.25 0.06 -0.4
v 0.25 0.06 -0.4
v 0.25 0.06 -0.4
v 0.25 0.06 -0.4
v 0.25 0.06 -0.4
v 0.25 0.06 -0.4
v 0.25 0.06 -0.4
v 0.25 0.06 -0.4
v 0.25 0.06 -0.4
v 0.52038 0.19579 -0.4
v 0.45712 0.19579 -0.2262
v 0.29695 0.19579 -0.13373
v 0.11481 0.19579 -0.16584
v -0.00408 0.19579 -0.30752
v -0.00408 0.19579 -0.49248
v 0.11481 0.19579 -0.63416
v 0.29695 0.19579 -0.66627
v 0.45712 0.19579 -0.5738
v 0.68749 0.55129 -0.4
v 0.58513 0.55129 -0.11879
v 0.32597 0.55129 0.03084
v 0.03126 0.55129 -0.02113
v -0.1611 0.55129 -0.25037
v -0.1611 0.55129 -0.54963
v 0.03126 0.55129 -0.77887
v 0.32597 0.55129 -0.83084
v 0.58513 0.55129 -0.68121
v 0.68749 0.99071 -0.4
v 0.58513 0.99071 -0.11879
v 0.32597 0.99071 0.03084
v 0.03126 0.99071 -0.02113
v -0.1611 0.99071 -0.25037
v -0.1611 0.99071 -0.54963
v 0.03126 0.99071 -0.77887
v 0.32597 0.99071 -0.83084
v 0.58513 0.99071 -0.68121
v 0.52038 1.34621 -0.4
v 0.45712 1.34621 -0.2262
v 0.29695 1.34621 -0.13373
v 0.11481 1.34621 -0.16584
v -0.00408 1.34621 -0.30752
v -0.00408 1.34621 -0.49248
v 0.11481 1.34621 -0.63416
v 0.29695 1.34621 -0.66627
v 0.45712 1.34621 -0.5738
v 0.25 1.482 -0.4
v 0.25 1.482 -0.4
v 0.25 1.482 -0.4
v 0.25 1.482 -0.4
v 0.25 1.482 -0.4
v 0.25 1.482 -0.4
v 0.25 1.482 -0.4
v 0.25 1.482 -0.4
v 0.25 1.482 -0.4
v 0.25 0.08 -0.4552
v 0.25 0.35 -0.4552
v 0.2022 0.08 -0.4276
v 0.2022 0.35 -0.4276
v 0.2022 0.08 -0.3724
v 0.2022 0.35 -0.3724
v 0.25 0.08 -0.3448
v 0.25 0.35 -0.3448
v 0.2978 0.08 -0.3724
v 0.2978 0.35 -0.3724
v 0.2978 0.08 -0.4276
v 0.2978 0.35 -0.4276
v 1.25 0.06 0.55
v 1.25 0.06 0.55
v 1.25 0.06 0.55
v 1.25 0.06 0.55
v 1.25 0.06 0.55
v 1.25 0.06 0.55
v 1.25 0.06 0.55
v 1.25 0.06 0.55
v 1.25 0.06 0.55
v 1.44985 0.18777 0.55
v 1.40309 0.18777 0.67846
v 1.2847 0.18777 0.74681
v 1.15008 0.18777 0.72307
v 1.06221 0.18777 0.61835
v 1.06221 0.18777 0.48165
v 1.15008 0.18777 0.37693
v 1.2847 0.18777 0.35319
v 1.40309 0.18777 0.42154
v 1.57336 0.52227 0.55
v 1.49771 0.52227 0.75785
v 1.30615 0.52227 0.86845
v 1.08832 0.52227 0.83004
v 0.94614 0.52227 0.6606
v 0.94614 0.52227 0.4394
v 1.08832 0.52227 0.26996
v 1.30615 0.52227 0.23155
v 1.49771 0.52227 0.34215
v 1.57336 0.93573 0.55
v 1.49771 0.93573 0.75785
v 1.30615 0.93573 0.86845
v 1.08832 0.93573 0.83004
v 0.94614 0.93573 0.6606
v 0.94614 0.93573 0.4394
v 1.08832 0.93573 0.26996
v 1.30615 0.93573 0.23155
v 1.49771 0.93573 0.34215
v 1.44985 1.27023 0.55
v 1.40309 1.27023 0.67846
v 1.2847 1.27023 0.74681
v 1.15008 1.27023 0.72307
v 1.06221 1.27023 0.61835
v 1.06221 1.27023 0.48165
v 1.15008 1.27023 0.37693
v 1.2847 1.27023 0.35319
v 1.40309 1.27023 0.42154
v 1.25 1.398 0.55
v 1.25 1.398 0.55
v 1.25 1.398 0.55
v 1.25 1.398 0.55
v 1.25 1.398 0.55
v 1.25 1.398 0.55
v 1.25 1.398 0.55
v 1.25 1.398 0.55
v 1.25 1.398 0.55
v 1.25 0.08 0.5092
v 1.25 0.35 0.5092
v 1.21467 0.08 0.5296
v 1.21467 0.35 0.5296
v 1.21467 0.08 0.5704
v 1.21467 0.35 0.5704
v 1.25 0.08 0.5908
v 1.25 0.35 0.5908
v 1.28533 0.08 0.5704
v 1.28533 0.35 0.5704
v 1.28533 0.08 0.5296
v 1.28533 0.35 0.5296
v 2.25 0.06 -0.5
v 2.25 0.06 -0.5
v 2.25 0.06 -0.5
v 2.25 0.06 -0.5
v 2.25 0.06 -0.5
v 2.25 0.06 -0.5
v 2.25 0.06 -0.5
v 2.25 0.06 -0.5
v 2.25 0.06 -0.5
v 2.42634 0.18509 -0.5
v 2.38508 0.18509 -0.38665
v 2.28062 0.18509 -0.32634
v 2.16183 0.18509 -0.34729
v 2.0843 0.18509 -0.43969
v 2.0843 0.18509 -0.56031
v 2.16183 0.18509 -0.65271
v 2.28062 0.18509 -0.67366
v 2.38508 0.18509 -0.61335
v 2.53532 0.51259 -0.5
v 2.46857 0.51259 -0.3166
v 2.29954 0.51259 -0.21902
v 2.10734 0.51259 -0.25291
v 1.98189 0.51259 -0.40242
v 1.98189 0.51259 -0.59758
v 2.10734 0.51259 -0.74709
v 2.29954 0.51259 -0.78098
v 2.46857 0.51259 -0.6834
v 2.53532 0.91741 -0.5
v 2.46857 0.91741 -0.3166
v 2.29954 0.91741 -0.21902
v 2.10734 0.91741 -0.25291
v 1.98189 0.91741 -0.40242
v 1.98189 0.91741 -0.59758
v 2.10734 0.91741 -0.74709
v 2.29954 0.91741 -0.78098
v 2.46857 0.91741 -0.6834
v 2.42634 1.24491 -0.5
v 2.38508 1.24491 -0.38665
v 2.28062 1.24491 -0.32634
v 2.16183 1.24491 -0.34729
v 2.0843 1.24491 -0.43969
v 2.0843 1.24491 -0.56031
v 2.16183 1.24491 -0.65271
v 2.28062 1.24491 -0.67366
v 2.38508 1.24491 -0.61335
v 2.25 1.37 -0.5
v 2.25 1.37 -0.5
v 2.25 1.37 -0.5
v 2.25 1.37 -0.5
v 2.25 1.37 -0.5
v 2.25 1.37 -0.5
v 2.25 1.37 -0.5
v 2.25 1.37 -0.5
v 2.25 1.37 -0.5
v 2.25 0.08 -0.536
v 2.25 0.35 -0.536
v 2.21882 0.08 -0.518
v 2.21882 0.35 -0.518
v 2.21882 0.08 -0.482
v 2.21882 0.35 -0.482
v 2.25 0.08 -0.464
v 2.25 0.35 -0.464
v 2.28118 0.08 -0.482
v 2.28118 0.35 -0.482
v 2.28118 0.08 -0.518
v 2.28118 0.35 -0.518
g film_0
usemtl methane_film
f 1 2 14 13
f 2 3 15 14
f 3 4 16 15
f 4 5 17 16
f 5 6 18 17
f 6 7 19 18
f 7 8 20 19
f 8 9 21 20
f 9 10 22 21
f 10 11 23 22
f 11 12 24 23
f 12 1 13 24
f 13 14 26 25
f 14 15 27 26
f 15 16 28 27
f 16 17 29 28
f 17 18 30 29
f 18 19 31 30
f 19 20 32 31
f 20 21 33 32
f 21 22 34 33
f 22 23 35 34
f 23 24 36 35
f 24 13 25 36
f 25 26 38 37
f 26 27 39 38
f 27 28 40 39
f 28 29 41 40
f 29 30 42 41
f 30 31 43 42
f 31 32 44 43
f 32 33 45 44
f 33 34 46 45
f 34 35 47 46
f 35 36 48 47
f 36 25 37 48
g film_1
usemtl methane_film
f 49 50 62 61
f 50 51 63 62
f 51 52 64 63
f 52 53 65 64
f 53 54 66 65
f 54 55 67 66
f 55 56 68 67
f 56 57 69 68
f 57 58 70 69
f 58 59 71 70
f 59 60 72 71
f 60 49 61 72
f 61 62 74 73
f 62 63 75 74
f 63 64 76 75
f 64 65 77 76
f 65 66 78 77
f 66 67 79 78
f 67 68 80 79
f 68 69 81 80
f 69 70 82 81
f 70 71 83 82
f 71 72 84 83
f 72 61 73 84
f 73 74 86 85
f 74 75 87 86
f 75 76 88 87
f 76 77 89 88
f 77 78 90 89
f 78 79 91 90
f 79 80 92 91
f 80 81 93 92
f 81 82 94 93
f 82 83 95 94
f 83 84 96 95
f 84 73 85 96
g film_2
usemtl methane_film
f 97 98 110 109
f 98 99 111 110
f 99 100 112 111
f 100 101 113 112
f 101 102 114 113
f 102 103 115 114
f 103 104 116 115
f 104 105 117 116
f 105 106 118 117
f 106 107 119 118
f 107 108 120 119
f 108 97 109 120
f 109 110 122 121
f 110 111 123 122
f 111 112 124 123
f 112 113 125 124
f 113 114 126 125
f 114 115 127 126
f 115 116 128 127
f 116 117 129 128
f 117 118 130 129
f 118 119 131 130
f 119 120 132 131
f 120 109 121 132
f 121 122 134 133
f 122 123 135 134
f 123 124 136 135
f 124 125 137 136
f 125 126 138 137
f 126 127 139 138
f 127 128 140 139
f 128 129 141 140
f 129 130 142 141
f 130 131 143 142
f 131 132 144 143
f 132 121 133 144
g bladder_0
usemtl living_methane
f 145 146 155 154
f 146 147 156 155
f 147 148 157 156
f 148 149 158 157
f 149 150 159 158
f 150 151 160 159
f 151 152 161 160
f 152 153 162 161
f 153 145 154 162
f 154 155 164 163
f 155 156 165 164
f 156 157 166 165
f 157 158 167 166
f 158 159 168 167
f 159 160 169 168
f 160 161 170 169
f 161 162 171 170
f 162 154 163 171
f 163 164 173 172
f 164 165 174 173
f 165 166 175 174
f 166 167 176 175
f 167 168 177 176
f 168 169 178 177
f 169 170 179 178
f 170 171 180 179
f 171 163 172 180
f 172 173 182 181
f 173 174 183 182
f 174 175 184 183
f 175 176 185 184
f 176 177 186 185
f 177 178 187 186
f 178 179 188 187
f 179 180 189 188
f 180 172 181 189
f 181 182 191 190
f 182 183 192 191
f 183 184 193 192
f 184 185 194 193
f 185 186 195 194
f 186 187 196 195
f 187 188 197 196
f 188 189 198 197
f 189 181 190 198
g root_0
usemtl methane_rim
f 209 207 205 203 201 199
f 200 202 204 206 208 210
f 199 201 202 200
f 201 203 204 202
f 203 205 206 204
f 205 207 208 206
f 207 209 210 208
f 209 199 200 210
g bladder_1
usemtl living_methane
f 211 212 221 220
f 212 213 222 221
f 213 214 223 222
f 214 215 224 223
f 215 216 225 224
f 216 217 226 225
f 217 218 227 226
f 218 219 228 227
f 219 211 220 228
f 220 221 230 229
f 221 222 231 230
f 222 223 232 231
f 223 224 233 232
f 224 225 234 233
f 225 226 235 234
f 226 227 236 235
f 227 228 237 236
f 228 220 229 237
f 229 230 239 238
f 230 231 240 239
f 231 232 241 240
f 232 233 242 241
f 233 234 243 242
f 234 235 244 243
f 235 236 245 244
f 236 237 246 245
f 237 229 238 246
f 238 239 248 247
f 239 240 249 248
f 240 241 250 249
f 241 242 251 250
f 242 243 252 251
f 243 244 253 252
f 244 245 254 253
f 245 246 255 254
f 246 238 247 255
f 247 248 257 256
f 248 249 258 257
f 249 250 259 258
f 250 251 260 259
f 251 252 261 260
f 252 253 262 261
f 253 254 263 262
f 254 255 264 263
f 255 247 256 264
g root_1
usemtl methane_rim
f 275 273 271 269 267 265
f 266 268 270 272 274 276
f 265 267 268 266
f 267 269 270 268
f 269 271 272 270
f 271 273 274 272
f 273 275 276 274
f 275 265 266 276
g bladder_2
usemtl living_methane
f 277 278 287 286
f 278 279 288 287
f 279 280 289 288
f 280 281 290 289
f 281 282 291 290
f 282 283 292 291
f 283 284 293 292
f 284 285 294 293
f 285 277 286 294
f 286 287 296 295
f 287 288 297 296
f 288 289 298 297
f 289 290 299 298
f 290 291 300 299
f 291 292 301 300
f 292 293 302 301
f 293 294 303 302
f 294 286 295 303
f 295 296 305 304
f 296 297 306 305
f 297 298 307 306
f 298 299 308 307
f 299 300 309 308
f 300 301 310 309
f 301 302 311 310
f 302 303 312 311
f 303 295 304 312
f 304 305 314 313
f 305 306 315 314
f 306 307 316 315
f 307 308 317 316
f 308 309 318 317
f 309 310 319 318
f 310 311 320 319
f 311 312 321 320
f 312 304 313 321
f 313 314 323 322
f 314 315 324 323
f 315 316 325 324
f 316 317 326 325
f 317 318 327 326
f 318 319 328 327
f 319 320 329 328
f 320 321 330 329
f 321 313 322 330
g root_2
usemtl methane_rim
f 341 339 337 335 333 331
f 332 334 336 338 340 342
f 331 333 334 332
f 333 335 336 334
f 335 337 338 336
f 337 339 340 338
f 339 341 342 340
f 341 331 332 342
g bladder_3
usemtl living_methane
f 343 344 353 352
f 344 345 354 353
f 345 346 355 354
f 346 347 356 355
f 347 348 357 356
f 348 349 358 357
f 349 350 359 358
f 350 351 360 359
f 351 343 352 360
f 352 353 362 361
f 353 354 363 362
f 354 355 364 363
f 355 356 365 364
f 356 357 366 365
f 357 358 367 366
f 358 359 368 367
f 359 360 369 368
f 360 352 361 369
f 361 362 371 370
f 362 363 372 371
f 363 364 373 372
f 364 365 374 373
f 365 366 375 374
f 366 367 376 375
f 367 368 377 376
f 368 369 378 377
f 369 361 370 378
f 370 371 380 379
f 371 372 381 380
f 372 373 382 381
f 373 374 383 382
f 374 375 384 383
f 375 376 385 384
f 376 377 386 385
f 377 378 387 386
f 378 370 379 387
f 379 380 389 388
f 380 381 390 389
f 381 382 391 390
f 382 383 392 391
f 383 384 393 392
f 384 385 394 393
f 385 386 395 394
f 386 387 396 395
f 387 379 388 396
g root_3
usemtl methane_rim
f 407 405 403 401 399 397
f 398 400 402 404 406 408
f 397 399 400 398
f 399 401 402 400
f 401 403 404 402
f 403 405 406 404
f 405 407 408 406
f 407 397 398 408
g bladder_4
usemtl living_methane
f 409 410 419 418
f 410 411 420 419
f 411 412 421 420
f 412 413 422 421
f 413 414 423 422
f 414 415 424 423
f 415 416 425 424
f 416 417 426 425
f 417 409 418 426
f 418 419 428 427
f 419 420 429 428
f 420 421 430 429
f 421 422 431 430
f 422 423 432 431
f 423 424 433 432
f 424 425 434 433
f 425 426 435 434
f 426 418 427 435
f 427 428 437 436
f 428 429 438 437
f 429 430 439 438
f 430 431 440 439
f 431 432 441 440
f 432 433 442 441
f 433 434 443 442
f 434 435 444 443
f 435 427 436 444
f 436 437 446 445
f 437 438 447 446
f 438 439 448 447
f 439 440 449 448
f 440 441 450 449
f 441 442 451 450
f 442 443 452 451
f 443 444 453 452
f 444 436 445 453
f 445 446 455 454
f 446 447 456 455
f 447 448 457 456
f 448 449 458 457
f 449 450 459 458
f 450 451 460 459
f 451 452 461 460
f 452 453 462 461
f 453 445 454 462
g root_4
usemtl methane_rim
f 473 471 469 467 465 463
f 464 466 468 470 472 474
f 463 465 466 464
f 465 467 468 466
f 467 469 470 468
f 469 471 472 470
f 471 473 474 472
f 473 463 464 474
