# Generated environment blockout: biomass_bower_c
mtllib environment_blockout.mtl
o biomass_bower_c
v -2.2 0.0 -0.4
v -2.2 0.0 -0.4
v -2.2 0.0 -0.4
v -2.2 0.0 -0.4
v -2.2 0.0 -0.4
v -2.2 0.0 -0.4
v -2.2 0.0 -0.4
v -2.2 0.0 -0.4
v -1.83627 0.07 -0.4
v -1.9428 0.07 -0.15505
v -2.2 0.07 -0.05359
v -2.4572 0.07 -0.15505
v -2.56373 0.07 -0.4
v -2.4572 0.07 -0.64495
v -2.2 0.07 -0.74641
v -1.9428 0.07 -0.64495
v -1.83627 0.21 -0.4
v -1.9428 0.21 -0.15505
v -2.2 0.21 -0.05359
v -2.4572 0.21 -0.15505
v -2.56373 0.21 -0.4
v -2.4572 0.21 -0.64495
v -2.2 0.21 -0.74641
v -1.9428 0.21 -0.64495
v -2.2 0.28 -0.4
v -2.2 0.28 -0.4
v -2.2 0.28 -0.4
v -2.2 0.28 -0.4
v -2.2 0.28 -0.4
v -2.2 0.28 -0.4
v -2.2 0.28 -0.4
v -2.2 0.28 -0.4
v -2.2 0.12005 -0.61
v -2.19085 4.85578 -0.6089
v -2.33499 0.1203 -0.56087
v -2.32584 4.85603 -0.55977
v -2.40681 0.12041 -0.43647
v -2.39766 4.85614 -0.43537
v -2.38186 0.12033 -0.295
v -2.37272 4.85606 -0.2939
v -2.27182 0.12009 -0.20266
v -2.26268 4.85583 -0.20157
v -2.12818 0.11982 -0.20266
v -2.11903 4.85555 -0.20157
v -2.01814 0.11962 -0.295
v -2.00899 4.85536 -0.2939
v -1.99319 0.11961 -0.43647
v -1.98404 4.85534 -0.43537
v -2.06501 0.11978 -0.56087
v -2.05587 4.85551 -0.55977
v -2.1936 3.35046 -0.3989
v -2.91528 3.73613 -0.83996
v -2.89619 3.83013 -0.37034
v -2.87711 3.73613 0.09927
v -3.59879 3.6418 -0.34179
v -2.19502 3.35046 -0.43387
v -3.60021 3.6418 -0.37676
v -2.20078 3.31786 -0.40943
v -3.60598 3.60921 -0.35232
v -2.19662 3.33031 -0.37044
v -3.60181 3.62166 -0.31333
v -2.18828 3.3706 -0.37078
v -3.59347 3.66194 -0.31366
v -2.18729 3.38305 -0.40998
v -3.59248 3.67439 -0.35287
v -2.1936 3.35046 -0.3989
v -2.36333 3.94043 -1.41518
v -2.77033 4.04843 -1.06028
v -3.17732 3.94043 -0.70537
v -3.34705 4.0504 -1.72165
v -2.16722 3.35046 -0.42191
v -3.32068 4.0504 -1.74466
v -2.19355 3.31954 -0.4153
v -3.34701 4.01948 -1.73805
v -2.21995 3.33135 -0.38604
v -3.3734 4.03129 -1.70879
v -2.20993 3.36956 -0.37455
v -3.36339 4.0695 -1.6973
v -2.17734 3.38137 -0.39672
v -3.3308 4.08131 -1.71947
v -2.1936 3.35046 -0.3989
v -1.54349 3.95689 -1.34794
v -2.00592 4.05089 -1.43196
v -2.46835 3.95689 -1.51597
v -1.81824 4.08333 -2.46501
v -2.15916 3.35046 -0.39265
v -1.7838 4.08333 -2.45875
v -2.18099 3.31903 -0.40776
v -1.80564 4.0519 -2.47387
v -2.22024 3.33103 -0.41063
v -1.84489 4.06391 -2.47674
v -2.22267 3.36988 -0.39729
v -1.84731 4.10275 -2.4634
v -2.18492 3.38188 -0.38618
v -1.80956 4.11476 -2.45228
v -2.1936 3.35046 -0.3989
v -1.32361 3.77039 -0.2535
v -1.57929 3.87839 -0.72913
v -1.83498 3.77039 -1.20476
v -0.96499 3.71032 -1.05936
v -2.17702 3.35046 -0.36807
v -0.94842 3.71032 -1.02853
v -2.18115 3.31822 -0.39331
v -0.95255 3.67809 -1.05377
v -2.20248 3.33054 -0.42628
v -0.97387 3.6904 -1.08673
v -2.21153 3.37038 -0.42141
v -0.98293 3.73024 -1.08187
v -2.1958 3.38269 -0.38544
v -0.9672 3.74256 -1.0459
v -2.1936 3.35046 -0.3989
v -1.57987 3.55239 0.37849
v -1.39335 3.64639 -0.05291
v -1.20683 3.55239 -0.48432
v -0.5931 3.27432 0.29308
v -2.20749 3.35046 -0.36678
v -0.60699 3.27432 0.32521
v -2.19922 3.3172 -0.38955
v -0.59872 3.24106 0.30243
v -2.18318 3.3299 -0.42525
v -0.58268 3.25376 0.26673
v -2.18154 3.37101 -0.42454
v -0.58104 3.29487 0.26745
v -2.19656 3.38371 -0.3884
v -0.59606 3.30757 0.30358
v -2.1936 3.35046 -0.3989
v -2.44219 3.50331 0.75411
v -1.92079 3.61131 0.61362
v -1.39938 3.50331 0.47314
v -1.64798 3.17617 1.62615
v -2.22739 3.35046 -0.3898
v -1.68177 3.17617 1.63525
v -2.20476 3.31728 -0.39875
v -1.65914 3.143 1.6263
v -2.1667 3.32995 -0.40791
v -1.62108 3.15567 1.61714
v -2.16581 3.37096 -0.40462
v -1.6202 3.19667 1.62043
v -2.20332 3.38363 -0.39343
v -1.65771 3.20934 1.63162
v -2.1936 3.35046 -0.3989
v -2.98828 3.66829 -0.11357
v -2.61011 3.76229 0.16551
v -2.23193 3.66829 0.44458
v -3.02662 3.50612 0.72991
v -2.22176 3.35046 -0.41968
v -3.05478 3.50612 0.70913
v -2.20448 3.31737 -0.40237
v -3.0375 3.47304 0.72644
v -2.17216 3.33001 -0.38026
v -3.00518 3.48568 0.74855
v -2.16947 3.3709 -0.38391
v -3.00249 3.52657 0.7449
v -2.20012 3.38354 -0.40828
v -3.03314 3.53921 0.72054
v -2.19085 4.95573 -0.4
v -2.19085 4.95573 -0.4
v -2.19085 4.95573 -0.4
v -2.19085 4.95573 -0.4
v -2.19085 4.95573 -0.4
v -2.19085 4.95573 -0.4
v -2.19085 4.95573 -0.4
v -2.19085 4.95573 -0.4
v -2.19085 4.95573 -0.4
v -2.19085 4.95573 -0.4
v -1.8373 5.00845 -0.4
v -1.90482 5.00845 -0.20466
v -2.0816 5.00845 -0.08393
v -2.30011 5.00845 -0.08393
v -2.47688 5.00845 -0.20466
v -2.54441 5.00845 -0.4
v -2.47688 5.00845 -0.59534
v -2.30011 5.00845 -0.71607
v -2.0816 5.00845 -0.71607
v -1.90482 5.00845 -0.59534
v -1.69085 5.13573 -0.4
v -1.78634 5.13573 -0.12374
v -2.03634 5.13573 0.047
v -2.34536 5.13573 0.047
v -2.59536 5.13573 -0.12374
v -2.69085 5.13573 -0.4
v -2.59536 5.13573 -0.67626
v -2.34536 5.13573 -0.847
v -2.03634 5.13573 -0.847
v -1.78634 5.13573 -0.67626
v -1.8373 5.26301 -0.4
v -1.90482 5.26301 -0.20466
v -2.0816 5.26301 -0.08393
v -2.30011 5.26301 -0.08393
v -2.47688 5.26301 -0.20466
v -2.54441 5.26301 -0.4
v -2.47688 5.26301 -0.59534
v -2.30011 5.26301 -0.71607
v -2.0816 5.26301 -0.71607
v -1.90482 5.26301 -0.59534
v -2.19085 5.31573 -0.4
v -2.19085 5.31573 -0.4
v -2.19085 5.31573 -0.4
v -2.19085 5.31573 -0.4
v -2.19085 5.31573 -0.4
v -2.19085 5.31573 -0.4
v -2.19085 5.31573 -0.4
v -2.19085 5.31573 -0.4
v -2.19085 5.31573 -0.4
v -2.19085 5.31573 -0.4
v -2.61049 4.98573 -0.3842
v -2.61049 4.98573 -0.3842
v -2.61049 4.98573 -0.3842
v -2.61049 4.98573 -0.3842
v -2.61049 4.98573 -0.3842
v -2.61049 4.98573 -0.3842
v -2.61049 4.98573 -0.3842
v -2.47192 5.02573 -0.3842
v -2.5241 5.02573 -0.28264
v -2.64132 5.02573 -0.25755
v -2.73533 5.02573 -0.32784
v -2.73533 5.02573 -0.44056
v -2.64132 5.02573 -0.51085
v -2.5241 5.02573 -0.48576
v -2.47192 5.10573 -0.3842
v -2.5241 5.10573 -0.28264
v -2.64132 5.10573 -0.25755
v -2.73533 5.10573 -0.32784
v -2.73533 5.10573 -0.44056
v -2.64132 5.10573 -0.51085
v -2.5241 5.10573 -0.48576
v -2.61049 5.14573 -0.3842
v -2.61049 5.14573 -0.3842
v -2.61049 5.14573 -0.3842
v -2.61049 5.14573 -0.3842
v -2.61049 5.14573 -0.3842
v -2.61049 5.14573 -0.3842
v -2.61049 5.14573 -0.3842
v -2.33714 4.98573 -0.75621
v -2.33714 4.98573 -0.75621
v -2.33714 4.98573 -0.75621
v -2.33714 4.98573 -0.75621
v -2.33714 4.98573 -0.75621
v -2.33714 4.98573 -0.75621
v -2.33714 4.98573 -0.75621
v -2.19857 5.02573 -0.75621
v -2.25074 5.02573 -0.65464
v -2.36797 5.02573 -0.62956
v -2.46198 5.02573 -0.69984
v -2.46198 5.02573 -0.81257
v -2.36797 5.02573 -0.88285
v -2.25074 5.02573 -0.85777
v -2.19857 5.10573 -0.75621
v -2.25074 5.10573 -0.65464
v -2.36797 5.10573 -0.62956
v -2.46198 5.10573 -0.69984
v -2.46198 5.10573 -0.81257
v -2.36797 5.10573 -0.88285
v -2.25074 5.10573 -0.85777
v -2.33714 5.14573 -0.75621
v -2.33714 5.14573 -0.75621
v -2.33714 5.14573 -0.75621
v -2.33714 5.14573 -0.75621
v -2.33714 5.14573 -0.75621
v -2.33714 5.14573 -0.75621
v -2.33714 5.14573 -0.75621
v -1.86162 4.98573 -0.63595
v -1.86162 4.98573 -0.63595
v -1.86162 4.98573 -0.63595
v -1.86162 4.98573 -0.63595
v -1.86162 4.98573 -0.63595
v -1.86162 4.98573 -0.63595
v -1.86162 4.98573 -0.63595
v -1.72306 5.02573 -0.63595
v -1.77523 5.02573 -0.53439
v -1.89246 5.02573 -0.5093
v -1.98647 5.02573 -0.57959
v -1.98647 5.02573 -0.69231
v -1.89246 5.02573 -0.7626
v -1.77523 5.02573 -0.73751
v -1.72306 5.10573 -0.63595
v -1.77523 5.10573 -0.53439
v -1.89246 5.10573 -0.5093
v -1.98647 5.10573 -0.57959
v -1.98647 5.10573 -0.69231
v -1.89246 5.10573 -0.7626
v -1.77523 5.10573 -0.73751
v -1.86162 5.14573 -0.63595
v -1.86162 5.14573 -0.63595
v -1.86162 5.14573 -0.63595
v -1.86162 5.14573 -0.63595
v -1.86162 5.14573 -0.63595
v -1.86162 5.14573 -0.63595
v -1.86162 5.14573 -0.63595
v -1.84109 4.98573 -0.18962
v -1.84109 4.98573 -0.18962
v -1.84109 4.98573 -0.18962
v -1.84109 4.98573 -0.18962
v -1.84109 4.98573 -0.18962
v -1.84109 4.98573 -0.18962
v -1.84109 4.98573 -0.18962
v -1.70253 5.02573 -0.18962
v -1.7547 5.02573 -0.08805
v -1.87193 5.02573 -0.06297
v -1.96594 5.02573 -0.13325
v -1.96594 5.02573 -0.24598
v -1.87193 5.02573 -0.31626
v -1.7547 5.02573 -0.29118
v -1.70253 5.10573 -0.18962
v -1.7547 5.10573 -0.08805
v -1.87193 5.10573 -0.06297
v -1.96594 5.10573 -0.13325
v -1.96594 5.10573 -0.24598
v -1.87193 5.10573 -0.31626
v -1.7547 5.10573 -0.29118
v -1.84109 5.14573 -0.18962
v -1.84109 5.14573 -0.18962
v -1.84109 5.14573 -0.18962
v -1.84109 5.14573 -0.18962
v -1.84109 5.14573 -0.18962
v -1.84109 5.14573 -0.18962
v -1.84109 5.14573 -0.18962
v -2.30392 4.98573 -0.03403
v -2.30392 4.98573 -0.03403
v -2.30392 4.98573 -0.03403
v -2.30392 4.98573 -0.03403
v -2.30392 4.98573 -0.03403
v -2.30392 4.98573 -0.03403
v -2.30392 4.98573 -0.03403
v -2.16535 5.02573 -0.03403
v -2.21752 5.02573 0.06753
v -2.33475 5.02573 0.09262
v -2.42876 5.02573 0.02233
v -2.42876 5.02573 -0.09039
v -2.33475 5.02573 -0.16068
v -2.21752 5.02573 -0.13559
v -2.16535 5.10573 -0.03403
v -2.21752 5.10573 0.06753
v -2.33475 5.10573 0.09262
v -2.42876 5.10573 0.02233
v -2.42876 5.10573 -0.09039
v -2.33475 5.10573 -0.16068
v -2.21752 5.10573 -0.13559
v -2.30392 5.14573 -0.03403
v -2.30392 5.14573 -0.03403
v -2.30392 5.14573 -0.03403
v -2.30392 5.14573 -0.03403
v -2.30392 5.14573 -0.03403
v -2.30392 5.14573 -0.03403
v -2.30392 5.14573 -0.03403
v -0.9 0.0 0.8
v -0.9 0.0 0.8
v -0.9 0.0 0.8
v -0.9 0.0 0.8
v -0.9 0.0 0.8
v -0.9 0.0 0.8
v -0.9 0.0 0.8
v -0.9 0.0 0.8
v -0.53627 0.07 0.8
v -0.6428 0.07 1.04495
v -0.9 0.07 1.14641
v -1.1572 0.07 1.04495
v -1.26373 0.07 0.8
v -1.1572 0.07 0.55505
v -0.9 0.07 0.45359
v -0.6428 0.07 0.55505
v -0.53627 0.21 0.8
v -0.6428 0.21 1.04495
v -0.9 0.21 1.14641
v -1.1572 0.21 1.04495
v -1.26373 0.21 0.8
v -1.1572 0.21 0.55505
v -0.9 0.21 0.45359
v -0.6428 0.21 0.55505
v -0.9 0.28 0.8
v -0.9 0.28 0.8
v -0.9 0.28 0.8
v -0.9 0.28 0.8
v -0.9 0.28 0.8
v -0.9 0.28 0.8
v -0.9 0.28 0.8
v -0.9 0.28 0.8
v -0.9 0.11925 0.64
v -1.11357 5.587 0.61437
v -1.00277 0.11541 0.67745
v -1.21634 5.58316 0.65182
v -1.05745 0.11372 0.77225
v -1.27102 5.58147 0.74662
v -1.03846 0.11497 0.88002
v -1.25203 5.58271 0.8544
v -0.95468 0.11857 0.95036
v -1.16825 5.58631 0.92473
v -0.84532 0.12284 0.95034
v -1.05889 5.59059 0.92471
v -0.76154 0.12578 0.87997
v -0.97511 5.59353 0.85435
v -0.74255 0.12602 0.77219
v -0.95612 5.59377 0.74656
v -0.79723 0.12344 0.67742
v -1.0108 5.59119 0.65179
v -1.0495 3.85554 0.77437
v -1.09462 4.49827 -0.09191
v -1.47588 4.59227 0.18295
v -1.85713 4.49827 0.45781
v -1.90225 4.661 -0.40847
v -1.02111 3.85554 0.7539
v -1.87386 4.661 -0.42893
v -1.05014 3.82641 0.75499
v -1.90289 4.63186 -0.42785
v -1.07828 3.83754 0.78286
v -1.93104 4.64299 -0.39997
v -1.06665 3.87355 0.799
v -1.9194 4.67901 -0.38384
v -1.03131 3.88468 0.7811
v -1.88407 4.69014 -0.40173
v -1.0495 3.85554 0.77437
v -0.26073 4.51722 -0.00148
v -0.77913 4.62522 -0.15267
v -1.29753 4.51722 -0.30386
v -0.50876 4.6989 -1.07972
v -1.0159 3.85554 0.78417
v -0.47516 4.6989 -1.06992
v -1.03539 3.82504 0.76461
v -0.49465 4.6684 -1.08948
v -1.07438 3.83669 0.75854
v -0.53364 4.68005 -1.09555
v -1.07899 3.8744 0.77435
v -0.53825 4.71776 -1.07974
v -1.04284 3.88605 0.79019
v -0.5021 4.72941 -1.0639
v -1.0495 3.85554 0.77437
v 0.23425 4.3026 0.70236
v 0.03821 4.3966 0.2752
v -0.15782 4.3026 -0.15197
v 1.12592 4.26966 -0.22398
v -1.0349 3.85554 0.80618
v 1.14052 4.26966 -0.19217
v -1.03983 3.82275 0.78183
v 1.13559 4.23686 -0.21652
v -1.05812 3.83527 0.74717
v 1.1173 4.24939 -0.25118
v -1.0645 3.87582 0.7501
v 1.11092 4.28994 -0.24825
v -1.05014 3.88834 0.78657
v 1.12528 4.30246 -0.21178
v -1.0495 3.85554 0.77437
v -0.4748 4.05174 1.61006
v -0.26108 4.15974 1.11415
v -0.04736 4.05174 0.61824
v 0.52733 3.76793 1.45393
v -1.06335 3.85554 0.80651
v 0.51348 3.76793 1.48607
v -1.05534 3.8223 0.78363
v 0.52149 3.73468 1.46319
v -1.03925 3.835 0.74795
v 0.53758 3.74738 1.42751
v -1.03733 3.87609 0.74878
v 0.5395 3.78847 1.42834
v -1.05222 3.88879 0.78498
v 0.52461 3.80117 1.46453
v -1.0495 3.85554 0.77437
v -1.19029 3.99527 1.86383
v -0.74321 4.08927 1.71885
v -0.29613 3.99527 1.57386
v -0.43692 3.65499 2.66332
v -1.08279 3.85554 0.78517
v -0.47021 3.65499 2.67412
v -1.06082 3.82243 0.77453
v -0.44824 3.62187 2.66347
v -1.0232 3.83508 0.76367
v -0.41062 3.63452 2.65262
v -1.02193 3.87601 0.7676
v -0.40935 3.67546 2.65655
v -1.05875 3.88866 0.78089
v -0.44617 3.68811 2.66984
v -1.0495 3.85554 0.77437
v -2.11304 4.18511 1.38618
v -1.66525 4.29311 1.68798
v -1.21746 4.18511 1.98978
v -2.281 4.03468 2.60159
v -1.07852 3.85554 0.75481
v -2.31003 4.03468 2.58203
v -1.05997 3.82237 0.77056
v -2.29148 4.0015 2.59778
v -1.02695 3.83504 0.79158
v -2.25846 4.01417 2.6188
v -1.02509 3.87605 0.78881
v -2.25659 4.05518 2.61603
v -1.05696 3.88872 0.76609
v -2.28847 4.06786 2.59331
v -1.0495 3.85554 0.77437
v -1.77804 4.44673 0.33261
v -1.7596 4.54073 0.80225
v -1.74117 4.44673 1.27189
v -2.46971 4.55792 0.83013
v -1.05087 3.85554 0.7394
v -2.47108 4.55792 0.79515
v -1.06466 3.8257 0.76414
v -2.48487 4.52807 0.8199
v -1.05749 3.8371 0.80302
v -2.47771 4.53947 0.85878
v -1.03928 3.87399 0.80231
v -2.45949 4.57636 0.85806
v -1.03519 3.88539 0.76299
v -2.4554 4.58776 0.81874
v -1.11357 5.68775 0.8
v -1.11357 5.68775 0.8
v -1.11357 5.68775 0.8
v -1.11357 5.68775 0.8
v -1.11357 5.68775 0.8
v -1.11357 5.68775 0.8
v -1.11357 5.68775 0.8
v -1.11357 5.68775 0.8
v -1.11357 5.68775 0.8
v -1.11357 5.68775 0.8
v -0.76002 5.74047 0.8
v -0.82754 5.74047 0.99534
v -1.00431 5.74047 1.11607
v -1.22282 5.74047 1.11607
v -1.3996 5.74047 0.99534
v -1.46712 5.74047 0.8
v -1.3996 5.74047 0.60466
v -1.22282 5.74047 0.48393
v -1.00431 5.74047 0.48393
v -0.82754 5.74047 0.60466
v -0.61357 5.86775 0.8
v -0.70906 5.86775 1.07626
v -0.95906 5.86775 1.247
v -1.26808 5.86775 1.247
v -1.51808 5.86775 1.07626
v -1.61357 5.86775 0.8
v -1.51808 5.86775 0.52374
v -1.26808 5.86775 0.353
v -0.95906 5.86775 0.353
v -0.70906 5.86775 0.52374
v -0.76002 5.99503 0.8
v -0.82754 5.99503 0.99534
v -1.00431 5.99503 1.11607
v -1.22282 5.99503 1.11607
v -1.3996 5.99503 0.99534
v -1.46712 5.99503 0.8
v -1.3996 5.99503 0.60466
v -1.22282 5.99503 0.48393
v -1.00431 5.99503 0.48393
v -0.82754 5.99503 0.60466
v -1.11357 6.04775 0.8
v -1.11357 6.04775 0.8
v -1.11357 6.04775 0.8
v -1.11357 6.04775 0.8
v -1.11357 6.04775 0.8
v -1.11357 6.04775 0.8
v -1.11357 6.04775 0.8
v -1.11357 6.04775 0.8
v -1.11357 6.04775 0.8
v -1.11357 6.04775 0.8
v -1.53321 5.71775 0.8158
v -1.53321 5.71775 0.8158
v -1.53321 5.71775 0.8158
v -1.53321 5.71775 0.8158
v -1.53321 5.71775 0.8158
v -1.53321 5.71775 0.8158
v -1.53321 5.71775 0.8158
v -1.39464 5.75775 0.8158
v -1.44681 5.75775 0.91736
v -1.56404 5.75775 0.94245
v -1.65805 5.75775 0.87216
v -1.65805 5.75775 0.75944
v -1.56404 5.75775 0.68915
v -1.44681 5.75775 0.71424
v -1.39464 5.83775 0.8158
v -1.44681 5.83775 0.91736
v -1.56404 5.83775 0.94245
v -1.65805 5.83775 0.87216
v -1.65805 5.83775 0.75944
v -1.56404 5.83775 0.68915
v -1.44681 5.83775 0.71424
v -1.53321 5.87775 0.8158
v -1.53321 5.87775 0.8158
v -1.53321 5.87775 0.8158
v -1.53321 5.87775 0.8158
v -1.53321 5.87775 0.8158
v -1.53321 5.87775 0.8158
v -1.53321 5.87775 0.8158
v -1.25985 5.71775 0.44379
v -1.25985 5.71775 0.44379
v -1.25985 5.71775 0.44379
v -1.25985 5.71775 0.44379
v -1.25985 5.71775 0.44379
v -1.25985 5.71775 0.44379
v -1.25985 5.71775 0.44379
v -1.12129 5.75775 0.44379
v -1.17346 5.75775 0.54536
v -1.29069 5.75775 0.57044
v -1.38469 5.75775 0.50016
v -1.38469 5.75775 0.38743
v -1.29069 5.75775 0.31715
v -1.17346 5.75775 0.34223
v -1.12129 5.83775 0.44379
v -1.17346 5.83775 0.54536
v -1.29069 5.83775 0.57044
v -1.38469 5.83775 0.50016
v -1.38469 5.83775 0.38743
v -1.29069 5.83775 0.31715
v -1.17346 5.83775 0.34223
v -1.25985 5.87775 0.44379
v -1.25985 5.87775 0.44379
v -1.25985 5.87775 0.44379
v -1.25985 5.87775 0.44379
v -1.25985 5.87775 0.44379
v -1.25985 5.87775 0.44379
v -1.25985 5.87775 0.44379
v -0.78434 5.71775 0.56405
v -0.78434 5.71775 0.56405
v -0.78434 5.71775 0.56405
v -0.78434 5.71775 0.56405
v -0.78434 5.71775 0.56405
v -0.78434 5.71775 0.56405
v -0.78434 5.71775 0.56405
v -0.64578 5.75775 0.56405
v -0.69795 5.75775 0.66561
v -0.81517 5.75775 0.6907
v -0.90918 5.75775 0.62041
v -0.90918 5.75775 0.50769
v -0.81517 5.75775 0.4374
v -0.69795 5.75775 0.46249
v -0.64578 5.83775 0.56405
v -0.69795 5.83775 0.66561
v -0.81517 5.83775 0.6907
v -0.90918 5.83775 0.62041
v -0.90918 5.83775 0.50769
v -0.81517 5.83775 0.4374
v -0.69795 5.83775 0.46249
v -0.78434 5.87775 0.56405
v -0.78434 5.87775 0.56405
v -0.78434 5.87775 0.56405
v -0.78434 5.87775 0.56405
v -0.78434 5.87775 0.56405
v -0.78434 5.87775 0.56405
v -0.78434 5.87775 0.56405
v -0.76381 5.71775 1.01038
v -0.76381 5.71775 1.01038
v -0.76381 5.71775 1.01038
v -0.76381 5.71775 1.01038
v -0.76381 5.71775 1.01038
v -0.76381 5.71775 1.01038
v -0.76381 5.71775 1.01038
v -0.62525 5.75775 1.01038
v -0.67742 5.75775 1.11195
v -0.79464 5.75775 1.13703
v -0.88865 5.75775 1.06675
v -0.88865 5.75775 0.95402
v -0.79464 5.75775 0.88374
v -0.67742 5.75775 0.90882
v -0.62525 5.83775 1.01038
v -0.67742 5.83775 1.11195
v -0.79464 5.83775 1.13703
v -0.88865 5.83775 1.06675
v -0.88865 5.83775 0.95402
v -0.79464 5.83775 0.88374
v -0.67742 5.83775 0.90882
v -0.76381 5.87775 1.01038
v -0.76381 5.87775 1.01038
v -0.76381 5.87775 1.01038
v -0.76381 5.87775 1.01038
v -0.76381 5.87775 1.01038
v -0.76381 5.87775 1.01038
v -0.76381 5.87775 1.01038
v -1.22663 5.71775 1.16597
v -1.22663 5.71775 1.16597
v -1.22663 5.71775 1.16597
v -1.22663 5.71775 1.16597
v -1.22663 5.71775 1.16597
v -1.22663 5.71775 1.16597
v -1.22663 5.71775 1.16597
v -1.08807 5.75775 1.16597
v -1.14024 5.75775 1.26753
v -1.25747 5.75775 1.29262
v -1.35148 5.75775 1.22233
v -1.35148 5.75775 1.10961
v -1.25747 5.75775 1.03932
v -1.14024 5.75775 1.06441
v -1.08807 5.83775 1.16597
v -1.14024 5.83775 1.26753
v -1.25747 5.83775 1.29262
v -1.35148 5.83775 1.22233
v -1.35148 5.83775 1.10961
v -1.25747 5.83775 1.03932
v -1.14024 5.83775 1.06441
v -1.22663 5.87775 1.16597
v -1.22663 5.87775 1.16597
v -1.22663 5.87775 1.16597
v -1.22663 5.87775 1.16597
v -1.22663 5.87775 1.16597
v -1.22663 5.87775 1.16597
v -1.22663 5.87775 1.16597
v 0.7 0.0 -0.5
v 0.7 0.0 -0.5
v 0.7 0.0 -0.5
v 0.7 0.0 -0.5
v 0.7 0.0 -0.5
v 0.7 0.0 -0.5
v 0.7 0.0 -0.5
v 0.7 0.0 -0.5
v 1.06373 0.07 -0.5
v 0.9572 0.07 -0.25505
v 0.7 0.07 -0.15359
v 0.4428 0.07 -0.25505
v 0.33627 0.07 -0.5
v 0.4428 0.07 -0.74495
v 0.7 0.07 -0.84641
v 0.9572 0.07 -0.74495
v 1.06373 0.21 -0.5
v 0.9572 0.21 -0.25505
v 0.7 0.21 -0.15359
v 0.4428 0.21 -0.25505
v 0.33627 0.21 -0.5
v 0.4428 0.21 -0.74495
v 0.7 0.21 -0.84641
v 0.9572 0.21 -0.74495
v 0.7 0.28 -0.5
v 0.7 0.28 -0.5
v 0.7 0.28 -0.5
v 0.7 0.28 -0.5
v 0.7 0.28 -0.5
v 0.7 0.28 -0.5
v 0.7 0.28 -0.5
v 0.7 0.28 -0.5
v 0.7 0.11952 -0.71
v 0.60566 5.0515 -0.72132
v 0.56504 0.11705 -0.66086
v 0.4707 5.04903 -0.67218
v 0.49323 0.11596 -0.53646
v 0.39889 5.04795 -0.54778
v 0.51817 0.11676 -0.39499
v 0.42383 5.04875 -0.40631
v 0.62819 0.11908 -0.30266
v 0.53385 5.05106 -0.31398
v 0.77181 0.12183 -0.30267
v 0.67747 5.05381 -0.31399
v 0.88183 0.12372 -0.39501
v 0.78749 5.0557 -0.40633
v 0.90677 0.12387 -0.53648
v 0.81243 5.05586 -0.5478
v 0.83496 0.12221 -0.66087
v 0.74062 5.0542 -0.6722
v 0.63396 3.48587 -0.51132
v 1.31677 4.10712 -1.22969
v 0.8633 4.20112 -1.35322
v 0.40982 4.10712 -1.47675
v 1.09263 4.24836 -2.19512
v 0.66773 3.48587 -0.50212
v 1.1264 4.24836 -2.18592
v 0.6479 3.45537 -0.52134
v 1.10657 4.21786 -2.20514
v 0.60881 3.46702 -0.52671
v 1.06748 4.22951 -2.21051
v 0.60448 3.50472 -0.51082
v 1.06315 4.26722 -2.19462
v 0.64089 3.51637 -0.49562
v 1.09957 4.27887 -2.17942
v 0.63396 3.48587 -0.51132
v 1.83385 3.91308 -0.46465
v 1.60994 4.02108 -0.95604
v 1.38603 3.91308 -1.44743
v 2.58593 3.86028 -1.40076
v 0.64847 3.48587 -0.47947
v 2.60044 3.86028 -1.36892
v 0.64365 3.45308 -0.50385
v 2.59562 3.82749 -1.3933
v 0.62544 3.4656 -0.53855
v 2.57741 3.84002 -1.428
v 0.619 3.50614 -0.53562
v 2.57097 3.88055 -1.42506
v 0.63324 3.51866 -0.49911
v 2.5852 3.89307 -1.38855
v 0.63396 3.48587 -0.51132
v 1.56233 3.68626 0.45152
v 1.76446 3.78026 0.02721
v 1.96659 3.68626 -0.39711
v 2.89495 3.40665 0.56573
v 0.61891 3.48587 -0.47972
v 2.8799 3.40665 0.59733
v 0.62836 3.4526 -0.50201
v 2.88935 3.37338 0.57504
v 0.64555 3.46531 -0.53716
v 2.90654 3.38609 0.53989
v 0.64673 3.50643 -0.5366
v 2.90772 3.42722 0.54045
v 0.63026 3.51914 -0.5011
v 2.89125 3.43992 0.57595
v 0.63396 3.48587 -0.51132
v 0.33548 3.63521 0.48001
v 0.85785 3.74321 0.34314
v 1.38022 3.63521 0.20627
v 1.08174 3.30454 1.19761
v 0.6001 3.48587 -0.50245
v 1.04788 3.30454 1.20648
v 0.62264 3.45276 -0.51187
v 1.07041 3.27143 1.19706
v 0.66082 3.4654 -0.52053
v 1.10859 3.28408 1.1884
v 0.66189 3.50633 -0.51647
v 1.10966 3.32501 1.19246
v 0.62436 3.51898 -0.50529
v 1.07214 3.33765 1.20364
v 0.63396 3.48587 -0.51132
v -0.36193 3.80685 0.02559
v 0.01281 3.90085 0.30926
v 0.38756 3.80685 0.59292
v -0.60833 3.64783 1.12983
v 0.60606 3.48587 -0.53245
v -0.63624 3.64783 1.10871
v 0.62376 3.45269 -0.51577
v -0.61853 3.61464 1.12539
v 0.65556 3.46536 -0.49294
v -0.58673 3.62732 1.14821
v 0.65751 3.50638 -0.49552
v -0.58478 3.66834 1.14564
v 0.62691 3.51905 -0.51993
v -0.61538 3.68101 1.12122
v 0.63396 3.48587 -0.51132
v -0.55381 4.04338 -1.04958
v -0.55301 4.15138 -0.50958
v -0.55222 4.04338 0.03042
v -1.73999 4.1209 -0.50784
v 0.63391 3.48587 -0.54632
v -1.74004 4.1209 -0.54284
v 0.62534 3.45371 -0.52212
v -1.74861 4.08874 -0.51864
v 0.62869 3.466 -0.483
v -1.74526 4.10102 -0.47951
v 0.63932 3.50574 -0.48301
v -1.73463 4.14077 -0.47953
v 0.64255 3.51803 -0.52215
v -1.7314 4.15305 -0.51866
v 0.63396 3.48587 -0.51132
v 0.50273 4.12734 -1.4696
v 0.12673 4.22134 -1.18759
v -0.24926 4.12734 -0.90558
v -0.3805 4.28881 -1.86386
v 0.66196 3.48587 -0.53232
v -0.3525 4.28881 -1.88486
v 0.63405 3.4558 -0.52923
v -0.38041 4.25874 -1.88178
v 0.60601 3.46729 -0.50139
v -0.40845 4.27023 -1.85393
v 0.61661 3.50445 -0.48727
v -0.39785 4.30739 -1.83981
v 0.65118 3.51594 -0.50639
v -0.36328 4.31888 -1.85893
v 0.60566 5.15198 -0.5
v 0.60566 5.15198 -0.5
v 0.60566 5.15198 -0.5
v 0.60566 5.15198 -0.5
v 0.60566 5.15198 -0.5
v 0.60566 5.15198 -0.5
v 0.60566 5.15198 -0.5
v 0.60566 5.15198 -0.5
v 0.60566 5.15198 -0.5
v 0.60566 5.15198 -0.5
v 0.95921 5.20471 -0.5
v 0.89169 5.20471 -0.30466
v 0.71491 5.20471 -0.18393
v 0.49641 5.20471 -0.18393
v 0.31963 5.20471 -0.30466
v 0.25211 5.20471 -0.5
v 0.31963 5.20471 -0.69534
v 0.49641 5.20471 -0.81607
v 0.71491 5.20471 -0.81607
v 0.89169 5.20471 -0.69534
v 1.10566 5.33198 -0.5
v 1.01017 5.33198 -0.22374
v 0.76017 5.33198 -0.053
v 0.45115 5.33198 -0.053
v 0.20115 5.33198 -0.22374
v 0.10566 5.33198 -0.5
v 0.20115 5.33198 -0.77626
v 0.45115 5.33198 -0.947
v 0.76017 5.33198 -0.947
v 1.01017 5.33198 -0.77626
v 0.95921 5.45926 -0.5
v 0.89169 5.45926 -0.30466
v 0.71491 5.45926 -0.18393
v 0.49641 5.45926 -0.18393
v 0.31963 5.45926 -0.30466
v 0.25211 5.45926 -0.5
v 0.31963 5.45926 -0.69534
v 0.49641 5.45926 -0.81607
v 0.71491 5.45926 -0.81607
v 0.89169 5.45926 -0.69534
v 0.60566 5.51198 -0.5
v 0.60566 5.51198 -0.5
v 0.60566 5.51198 -0.5
v 0.60566 5.51198 -0.5
v 0.60566 5.51198 -0.5
v 0.60566 5.51198 -0.5
v 0.60566 5.51198 -0.5
v 0.60566 5.51198 -0.5
v 0.60566 5.51198 -0.5
v 0.60566 5.51198 -0.5
v 0.18602 5.18198 -0.4842
v 0.18602 5.18198 -0.4842
v 0.18602 5.18198 -0.4842
v 0.18602 5.18198 -0.4842
v 0.18602 5.18198 -0.4842
v 0.18602 5.18198 -0.4842
v 0.18602 5.18198 -0.4842
v 0.32459 5.22198 -0.4842
v 0.27242 5.22198 -0.38264
v 0.15519 5.22198 -0.35755
v 0.06118 5.22198 -0.42784
v 0.06118 5.22198 -0.54056
v 0.15519 5.22198 -0.61085
v 0.27242 5.22198 -0.58576
v 0.32459 5.30198 -0.4842
v 0.27242 5.30198 -0.38264
v 0.15519 5.30198 -0.35755
v 0.06118 5.30198 -0.42784
v 0.06118 5.30198 -0.54056
v 0.15519 5.30198 -0.61085
v 0.27242 5.30198 -0.58576
v 0.18602 5.34198 -0.4842
v 0.18602 5.34198 -0.4842
v 0.18602 5.34198 -0.4842
v 0.18602 5.34198 -0.4842
v 0.18602 5.34198 -0.4842
v 0.18602 5.34198 -0.4842
v 0.18602 5.34198 -0.4842
v 0.45938 5.18198 -0.85621
v 0.45938 5.18198 -0.85621
v 0.45938 5.18198 -0.85621
v 0.45938 5.18198 -0.85621
v 0.45938 5.18198 -0.85621
v 0.45938 5.18198 -0.85621
v 0.45938 5.18198 -0.85621
v 0.59794 5.22198 -0.85621
v 0.54577 5.22198 -0.75464
v 0.42854 5.22198 -0.72956
v 0.33453 5.22198 -0.79984
v 0.33453 5.22198 -0.91257
v 0.42854 5.22198 -0.98285
v 0.54577 5.22198 -0.95777
v 0.59794 5.30198 -0.85621
v 0.54577 5.30198 -0.75464
v 0.42854 5.30198 -0.72956
v 0.33453 5.30198 -0.79984
v 0.33453 5.30198 -0.91257
v 0.42854 5.30198 -0.98285
v 0.54577 5.30198 -0.95777
v 0.45938 5.34198 -0.85621
v 0.45938 5.34198 -0.85621
v 0.45938 5.34198 -0.85621
v 0.45938 5.34198 -0.85621
v 0.45938 5.34198 -0.85621
v 0.45938 5.34198 -0.85621
v 0.45938 5.34198 -0.85621
v 0.93489 5.18198 -0.73595
v 0.93489 5.18198 -0.73595
v 0.93489 5.18198 -0.73595
v 0.93489 5.18198 -0.73595
v 0.93489 5.18198 -0.73595
v 0.93489 5.18198 -0.73595
v 0.93489 5.18198 -0.73595
v 1.07345 5.22198 -0.73595
v 1.02128 5.22198 -0.63439
v 0.90405 5.22198 -0.6093
v 0.81005 5.22198 -0.67959
v 0.81005 5.22198 -0.79231
v 0.90405 5.22198 -0.8626
v 1.02128 5.22198 -0.83751
v 1.07345 5.30198 -0.73595
v 1.02128 5.30198 -0.63439
v 0.90405 5.30198 -0.6093
v 0.81005 5.30198 -0.67959
v 0.81005 5.30198 -0.79231
v 0.90405 5.30198 -0.8626
v 1.02128 5.30198 -0.83751
v 0.93489 5.34198 -0.73595
v 0.93489 5.34198 -0.73595
v 0.93489 5.34198 -0.73595
v 0.93489 5.34198 -0.73595
v 0.93489 5.34198 -0.73595
v 0.93489 5.34198 -0.73595
v 0.93489 5.34198 -0.73595
v 0.95542 5.18198 -0.28962
v 0.95542 5.18198 -0.28962
v 0.95542 5.18198 -0.28962
v 0.95542 5.18198 -0.28962
v 0.95542 5.18198 -0.28962
v 0.95542 5.18198 -0.28962
v 0.95542 5.18198 -0.28962
v 1.09398 5.22198 -0.28962
v 1.04181 5.22198 -0.18805
v 0.92458 5.22198 -0.16297
v 0.83058 5.22198 -0.23325
v 0.83058 5.22198 -0.34598
v 0.92458 5.22198 -0.41626
v 1.04181 5.22198 -0.39118
v 1.09398 5.30198 -0.28962
v 1.04181 5.30198 -0.18805
v 0.92458 5.30198 -0.16297
v 0.83058 5.30198 -0.23325
v 0.83058 5.30198 -0.34598
v 0.92458 5.30198 -0.41626
v 1.04181 5.30198 -0.39118
v 0.95542 5.34198 -0.28962
v 0.95542 5.34198 -0.28962
v 0.95542 5.34198 -0.28962
v 0.95542 5.34198 -0.28962
v 0.95542 5.34198 -0.28962
v 0.95542 5.34198 -0.28962
v 0.95542 5.34198 -0.28962
v 0.49259 5.18198 -0.13403
v 0.49259 5.18198 -0.13403
v 0.49259 5.18198 -0.13403
v 0.49259 5.18198 -0.13403
v 0.49259 5.18198 -0.13403
v 0.49259 5.18198 -0.13403
v 0.49259 5.18198 -0.13403
v 0.63116 5.22198 -0.13403
v 0.57899 5.22198 -0.03247
v 0.46176 5.22198 -0.00738
v 0.36775 5.22198 -0.07767
v 0.36775 5.22198 -0.19039
v 0.46176 5.22198 -0.26068
v 0.57899 5.22198 -0.23559
v 0.63116 5.30198 -0.13403
v 0.57899 5.30198 -0.03247
v 0.46176 5.30198 -0.00738
v 0.36775 5.30198 -0.07767
v 0.36775 5.30198 -0.19039
v 0.46176 5.30198 -0.26068
v 0.57899 5.30198 -0.23559
v 0.49259 5.34198 -0.13403
v 0.49259 5.34198 -0.13403
v 0.49259 5.34198 -0.13403
v 0.49259 5.34198 -0.13403
v 0.49259 5.34198 -0.13403
v 0.49259 5.34198 -0.13403
v 0.49259 5.34198 -0.13403
v 2.1 0.0 0.6
v 2.1 0.0 0.6
v 2.1 0.0 0.6
v 2.1 0.0 0.6
v 2.1 0.0 0.6
v 2.1 0.0 0.6
v 2.1 0.0 0.6
v 2.1 0.0 0.6
v 2.46373 0.07 0.6
v 2.3572 0.07 0.84495
v 2.1 0.07 0.94641
v 1.8428 0.07 0.84495
v 1.73627 0.07 0.6
v 1.8428 0.07 0.35505
v 2.1 0.07 0.25359
v 2.3572 0.07 0.35505
v 2.46373 0.21 0.6
v 2.3572 0.21 0.84495
v 2.1 0.21 0.94641
v 1.8428 0.21 0.84495
v 1.73627 0.21 0.6
v 1.8428 0.21 0.35505
v 2.1 0.21 0.25359
v 2.3572 0.21 0.35505
v 2.1 0.28 0.6
v 2.1 0.28 0.6
v 2.1 0.28 0.6
v 2.1 0.28 0.6
v 2.1 0.28 0.6
v 2.1 0.28 0.6
v 2.1 0.28 0.6
v 2.1 0.28 0.6
v 2.1 0.12079 0.44
v 2.27594 4.37114 0.46111
v 1.99724 0.12486 0.47746
v 2.17318 4.37521 0.49857
v 1.94257 0.12665 0.57225
v 2.1185 4.377 0.59336
v 1.96155 0.12533 0.68003
v 2.13749 4.37568 0.70114
v 2.04532 0.12152 0.75036
v 2.22126 4.37186 0.77147
v 2.15468 0.11699 0.75034
v 2.33061 4.36734 0.77145
v 2.23845 0.11387 0.67997
v 2.41438 4.36422 0.70108
v 2.25743 0.11362 0.57218
v 2.43337 4.36397 0.5933
v 2.20276 0.11636 0.47741
v 2.37869 4.3667 0.49853
v 2.22316 3.01554 0.62111
v 3.24176 3.41749 0.63913
v 3.03233 3.51149 0.21837
v 2.82291 3.41749 -0.20239
v 3.84151 3.33943 -0.18437
v 2.23875 3.01554 0.65245
v 3.85711 3.33943 -0.15304
v 2.23323 2.98277 0.62818
v 3.85159 3.30667 -0.17731
v 2.21379 2.99529 0.59415
v 3.83214 3.31918 -0.21134
v 2.20729 3.03579 0.59738
v 3.82565 3.35968 -0.20811
v 2.22272 3.0483 0.63341
v 3.84107 3.3722 -0.17208
v 2.22316 3.01554 0.62111
v 2.91173 3.22127 1.60273
v 3.16678 3.32927 1.12676
v 3.42183 3.22127 0.65079
v 4.11041 2.94701 1.6324
v 2.20662 3.01554 0.65196
v 4.09388 2.94701 1.66325
v 2.21711 2.98227 0.63014
v 4.10436 2.91374 1.64143
v 2.23595 2.99498 0.59584
v 4.1232 2.92645 1.60714
v 2.23711 3.0361 0.59647
v 4.12436 2.96757 1.60776
v 2.21899 3.04881 0.63115
v 4.10624 2.98028 1.64244
v 2.22316 3.01554 0.62111
v 1.95481 3.17711 1.96166
v 2.41929 3.27111 1.88986
v 2.88377 3.17711 1.81805
v 2.61542 2.85868 3.1586
v 2.18857 3.01554 0.62646
v 2.58083 2.85868 3.16395
v 2.21216 2.98231 0.62076
v 2.60442 2.82545 3.15825
v 2.25095 2.995 0.61555
v 2.64321 2.83814 3.15304
v 2.25133 3.03607 0.61803
v 2.6436 2.87921 3.15552
v 2.21278 3.04876 0.62477
v 2.60504 2.8919 3.16226
v 2.22316 3.01554 0.62111
v 1.15337 3.32559 0.97227
v 1.54722 3.43359 1.34171
v 1.94107 3.32559 1.71115
v 0.87128 3.15565 2.06231
v 2.19763 3.01554 0.59717
v 0.84575 3.15565 2.03836
v 2.21366 2.98234 0.61543
v 0.86178 3.12244 2.05663
v 2.24281 2.99502 0.64155
v 0.89094 3.13512 2.08274
v 2.2448 3.03606 0.63942
v 0.89293 3.17617 2.08062
v 2.21688 3.04874 0.612
v 0.865 3.18885 2.05319
v 2.22316 3.01554 0.62111
v 1.04752 3.53021 0.11187
v 1.03195 3.62421 0.58162
v 1.01637 3.53021 1.05136
v -0.15926 3.56489 0.54212
v 2.22432 3.01554 0.58613
v -0.1581 3.56489 0.50714
v 2.21604 2.9831 0.61006
v -0.16637 3.53245 0.53106
v 2.2176 2.99549 0.64926
v -0.16481 3.54484 0.57027
v 2.22683 3.03559 0.64957
v -0.15558 3.58493 0.57057
v 2.23099 3.04798 0.61055
v -0.15143 3.59732 0.53156
v 2.22316 3.01554 0.62111
v 1.79447 3.60284 -0.76946
v 1.37432 3.71084 -0.43024
v 0.95417 3.60284 -0.09102
v 0.52549 3.71014 -1.48159
v 2.25039 3.01554 0.59913
v 0.55272 3.71014 -1.50357
v 2.22637 2.9833 0.60787
v 0.5287 3.6779 -1.49483
v 2.19791 2.99561 0.63492
v 0.50024 3.69022 -1.46778
v 2.20434 3.03546 0.64288
v 0.50667 3.73007 -1.45982
v 2.23678 3.04778 0.62077
v 0.53911 3.74238 -1.48193
v 2.22316 3.01554 0.62111
v 2.85988 3.4767 -0.2285
v 2.39786 3.5707 -0.31475
v 1.93584 3.4767 -0.401
v 2.57257 3.45787 -1.25062
v 2.25756 3.01554 0.62754
v 2.60697 3.45787 -1.24419
v 2.23517 2.98312 0.61569
v 2.58458 3.42545 -1.25604
v 2.19618 2.9955 0.61134
v 2.54559 3.43783 -1.26039
v 2.19447 3.03558 0.62049
v 2.54388 3.47791 -1.25124
v 2.23241 3.04796 0.6305
v 2.58182 3.49029 -1.24123
v 2.27594 4.47035 0.6
v 2.27594 4.47035 0.6
v 2.27594 4.47035 0.6
v 2.27594 4.47035 0.6
v 2.27594 4.47035 0.6
v 2.27594 4.47035 0.6
v 2.27594 4.47035 0.6
v 2.27594 4.47035 0.6
v 2.27594 4.47035 0.6
v 2.27594 4.47035 0.6
v 2.62949 4.52307 0.6
v 2.56197 4.52307 0.79534
v 2.38519 4.52307 0.91607
v 2.16668 4.52307 0.91607
v 1.98991 4.52307 0.79534
v 1.92238 4.52307 0.6
v 1.98991 4.52307 0.40466
v 2.16668 4.52307 0.28393
v 2.38519 4.52307 0.28393
v 2.56197 4.52307 0.40466
v 2.77594 4.65035 0.6
v 2.68045 4.65035 0.87626
v 2.43045 4.65035 1.047
v 2.12143 4.65035 1.047
v 1.87143 4.65035 0.87626
v 1.77594 4.65035 0.6
v 1.87143 4.65035 0.32374
v 2.12143 4.65035 0.153
v 2.43045 4.65035 0.153
v 2.68045 4.65035 0.32374
v 2.62949 4.77763 0.6
v 2.56197 4.77763 0.79534
v 2.38519 4.77763 0.91607
v 2.16668 4.77763 0.91607
v 1.98991 4.77763 0.79534
v 1.92238 4.77763 0.6
v 1.98991 4.77763 0.40466
v 2.16668 4.77763 0.28393
v 2.38519 4.77763 0.28393
v 2.56197 4.77763 0.40466
v 2.27594 4.83035 0.6
v 2.27594 4.83035 0.6
v 2.27594 4.83035 0.6
v 2.27594 4.83035 0.6
v 2.27594 4.83035 0.6
v 2.27594 4.83035 0.6
v 2.27594 4.83035 0.6
v 2.27594 4.83035 0.6
v 2.27594 4.83035 0.6
v 2.27594 4.83035 0.6
v 1.8563 4.50035 0.6158
v 1.8563 4.50035 0.6158
v 1.8563 4.50035 0.6158
v 1.8563 4.50035 0.6158
v 1.8563 4.50035 0.6158
v 1.8563 4.50035 0.6158
v 1.8563 4.50035 0.6158
v 1.99486 4.54035 0.6158
v 1.94269 4.54035 0.71736
v 1.82547 4.54035 0.74245
v 1.73146 4.54035 0.67216
v 1.73146 4.54035 0.55944
v 1.82547 4.54035 0.48915
v 1.94269 4.54035 0.51424
v 1.99486 4.62035 0.6158
v 1.94269 4.62035 0.71736
v 1.82547 4.62035 0.74245
v 1.73146 4.62035 0.67216
v 1.73146 4.62035 0.55944
v 1.82547 4.62035 0.48915
v 1.94269 4.62035 0.51424
v 1.8563 4.66035 0.6158
v 1.8563 4.66035 0.6158
v 1.8563 4.66035 0.6158
v 1.8563 4.66035 0.6158
v 1.8563 4.66035 0.6158
v 1.8563 4.66035 0.6158
v 1.8563 4.66035 0.6158
v 2.12965 4.50035 0.24379
v 2.12965 4.50035 0.24379
v 2.12965 4.50035 0.24379
v 2.12965 4.50035 0.24379
v 2.12965 4.50035 0.24379
v 2.12965 4.50035 0.24379
v 2.12965 4.50035 0.24379
v 2.26822 4.54035 0.24379
v 2.21605 4.54035 0.34536
v 2.09882 4.54035 0.37044
v 2.00481 4.54035 0.30016
v 2.00481 4.54035 0.18743
v 2.09882 4.54035 0.11715
v 2.21605 4.54035 0.14223
v 2.26822 4.62035 0.24379
v 2.21605 4.62035 0.34536
v 2.09882 4.62035 0.37044
v 2.00481 4.62035 0.30016
v 2.00481 4.62035 0.18743
v 2.09882 4.62035 0.11715
v 2.21605 4.62035 0.14223
v 2.12965 4.66035 0.24379
v 2.12965 4.66035 0.24379
v 2.12965 4.66035 0.24379
v 2.12965 4.66035 0.24379
v 2.12965 4.66035 0.24379
v 2.12965 4.66035 0.24379
v 2.12965 4.66035 0.24379
v 2.60516 4.50035 0.36405
v 2.60516 4.50035 0.36405
v 2.60516 4.50035 0.36405
v 2.60516 4.50035 0.36405
v 2.60516 4.50035 0.36405
v 2.60516 4.50035 0.36405
v 2.60516 4.50035 0.36405
v 2.74373 4.54035 0.36405
v 2.69156 4.54035 0.46561
v 2.57433 4.54035 0.4907
v 2.48032 4.54035 0.42041
v 2.48032 4.54035 0.30769
v 2.57433 4.54035 0.2374
v 2.69156 4.54035 0.26249
v 2.74373 4.62035 0.36405
v 2.69156 4.62035 0.46561
v 2.57433 4.62035 0.4907
v 2.48032 4.62035 0.42041
v 2.48032 4.62035 0.30769
v 2.57433 4.62035 0.2374
v 2.69156 4.62035 0.26249
v 2.60516 4.66035 0.36405
v 2.60516 4.66035 0.36405
v 2.60516 4.66035 0.36405
v 2.60516 4.66035 0.36405
v 2.60516 4.66035 0.36405
v 2.60516 4.66035 0.36405
v 2.60516 4.66035 0.36405
v 2.62569 4.50035 0.81038
v 2.62569 4.50035 0.81038
v 2.62569 4.50035 0.81038
v 2.62569 4.50035 0.81038
v 2.62569 4.50035 0.81038
v 2.62569 4.50035 0.81038
v 2.62569 4.50035 0.81038
v 2.76426 4.54035 0.81038
v 2.71209 4.54035 0.91195
v 2.59486 4.54035 0.93703
v 2.50085 4.54035 0.86675
v 2.50085 4.54035 0.75402
v 2.59486 4.54035 0.68374
v 2.71209 4.54035 0.70882
v 2.76426 4.62035 0.81038
v 2.71209 4.62035 0.91195
v 2.59486 4.62035 0.93703
v 2.50085 4.62035 0.86675
v 2.50085 4.62035 0.75402
v 2.59486 4.62035 0.68374
v 2.71209 4.62035 0.70882
v 2.62569 4.66035 0.81038
v 2.62569 4.66035 0.81038
v 2.62569 4.66035 0.81038
v 2.62569 4.66035 0.81038
v 2.62569 4.66035 0.81038
v 2.62569 4.66035 0.81038
v 2.62569 4.66035 0.81038
v 2.16287 4.50035 0.96597
v 2.16287 4.50035 0.96597
v 2.16287 4.50035 0.96597
v 2.16287 4.50035 0.96597
v 2.16287 4.50035 0.96597
v 2.16287 4.50035 0.96597
v 2.16287 4.50035 0.96597
v 2.30143 4.54035 0.96597
v 2.24926 4.54035 1.06753
v 2.13204 4.54035 1.09262
v 2.03803 4.54035 1.02233
v 2.03803 4.54035 0.90961
v 2.13204 4.54035 0.83932
v 2.24926 4.54035 0.86441
v 2.30143 4.62035 0.96597
v 2.24926 4.62035 1.06753
v 2.13204 4.62035 1.09262
v 2.03803 4.62035 1.02233
v 2.03803 4.62035 0.90961
v 2.13204 4.62035 0.83932
v 2.24926 4.62035 0.86441
v 2.16287 4.66035 0.96597
v 2.16287 4.66035 0.96597
v 2.16287 4.66035 0.96597
v 2.16287 4.66035 0.96597
v 2.16287 4.66035 0.96597
v 2.16287 4.66035 0.96597
v 2.16287 4.66035 0.96597
v -1.23879 0.04 0.02794
v -1.33879 0.49 0.02794
v -1.31879 0.04 0.16651
v -1.36879 0.49 0.0799
v -1.47879 0.04 0.16651
v -1.42879 0.49 0.0799
v -1.55879 0.04 0.02794
v -1.45879 0.49 0.02794
v -1.47879 0.04 -0.11062
v -1.42879 0.49 -0.02402
v -1.31879 0.04 -0.11062
v -1.36879 0.49 -0.02402
v 2.88566 0.04 -1.30515
v 2.78566 0.61 -1.30515
v 2.80566 0.04 -1.16658
v 2.75566 0.61 -1.25319
v 2.64566 0.04 -1.16658
v 2.69566 0.61 -1.25319
v 2.56566 0.04 -1.30515
v 2.66566 0.61 -1.30515
v 2.64566 0.04 -1.44371
v 2.69566 0.61 -1.35711
v 2.80566 0.04 -1.44371
v 2.75566 0.61 -1.35711
v 0.05219 0.04 1.17486
v -0.04781 0.73 1.17486
v -0.02781 0.04 1.31342
v -0.07781 0.73 1.22682
v -0.18781 0.04 1.31342
v -0.13781 0.73 1.22682
v -0.26781 0.04 1.17486
v -0.16781 0.73 1.17486
v -0.18781 0.04 1.0363
v -0.13781 0.73 1.1229
v -0.02781 0.04 1.0363
v -0.07781 0.73 1.1229
v -2.99132 0.04 -1.80107
v -3.09132 0.85 -1.80107
v -3.07132 0.04 -1.6625
v -3.12132 0.85 -1.74911
v -3.23132 0.04 -1.6625
v -3.18132 0.85 -1.74911
v -3.31132 0.04 -1.80107
v -3.21132 0.85 -1.80107
v -3.23132 0.04 -1.93963
v -3.18132 0.85 -1.85303
v -3.07132 0.04 -1.93963
v -3.12132 0.85 -1.85303
v 3.63063 0.04 0.21717
v 3.53063 0.49 0.21717
v 3.55063 0.04 0.35573
v 3.50063 0.49 0.26913
v 3.39063 0.04 0.35573
v 3.44063 0.49 0.26913
v 3.31063 0.04 0.21717
v 3.41063 0.49 0.21717
v 3.39063 0.04 0.0786
v 3.44063 0.49 0.16521
v 3.55063 0.04 0.0786
v 3.50063 0.49 0.16521
v -1.55769 0.04 0.5799
v -1.65769 0.61 0.5799
v -1.63769 0.04 0.71846
v -1.68769 0.61 0.63186
v -1.79769 0.04 0.71846
v -1.74769 0.61 0.63186
v -1.87769 0.04 0.5799
v -1.77769 0.61 0.5799
v -1.79769 0.04 0.44133
v -1.74769 0.61 0.52793
v -1.63769 0.04 0.44133
v -1.68769 0.61 0.52793
v 1.1318 0.04 -2.1336
v 1.0318 0.73 -2.1336
v 1.0518 0.04 -1.99504
v 1.0018 0.73 -2.08164
v 0.8918 0.04 -1.99504
v 0.9418 0.73 -2.08164
v 0.8118 0.04 -2.1336
v 0.9118 0.73 -2.1336
v 0.8918 0.04 -2.27217
v 0.9418 0.73 -2.18557
v 1.0518 0.04 -2.27217
v 1.0018 0.73 -2.18557
v 1.74523 0.04 1.30658
v 1.64523 0.85 1.30658
v 1.66523 0.04 1.44515
v 1.61523 0.85 1.35855
v 1.50523 0.04 1.44515
v 1.55523 0.85 1.35855
v 1.42523 0.04 1.30658
v 1.52523 0.85 1.30658
v 1.50523 0.04 1.16802
v 1.55523 0.85 1.25462
v 1.66523 0.04 1.16802
v 1.61523 0.85 1.25462
v -1.5114 0.04 -0.24892
v -1.6114 0.49 -0.24892
v -1.5914 0.04 -0.11036
v -1.6414 0.49 -0.19696
v -1.7514 0.04 -0.11036
v -1.7014 0.49 -0.19696
v -1.8314 0.04 -0.24892
v -1.7314 0.49 -0.24892
v -1.7514 0.04 -0.38748
v -1.7014 0.49 -0.30088
v -1.5914 0.04 -0.38748
v -1.6414 0.49 -0.30088
v 3.95684 0.04 -0.86187
v 3.85684 0.61 -0.86187
v 3.87684 0.04 -0.7233
v 3.82684 0.61 -0.80991
v 3.71684 0.04 -0.7233
v 3.76684 0.61 -0.80991
v 3.63684 0.04 -0.86187
v 3.73684 0.61 -0.86187
v 3.71684 0.04 -1.00043
v 3.76684 0.61 -0.91383
v 3.87684 0.04 -1.00043
v 3.82684 0.61 -0.91383
v -0.89536 0.04 1.24488
v -0.99536 0.73 1.24488
v -0.97536 0.04 1.38344
v -1.02536 0.73 1.29684
v -1.13536 0.04 1.38344
v -1.08536 0.73 1.29684
v -1.21536 0.04 1.24488
v -1.11536 0.73 1.24488
v -1.13536 0.04 1.10631
v -1.08536 0.73 1.19292
v -0.97536 0.04 1.10631
v -1.02536 0.73 1.19292
v -0.32811 0.04 -0.62983
v -0.42811 0.85 -0.62983
v -0.40811 0.04 -0.49127
v -0.45811 0.85 -0.57787
v -0.56811 0.04 -0.49127
v -0.51811 0.85 -0.57787
v -0.64811 0.04 -0.62983
v -0.54811 0.85 -0.62983
v -0.56811 0.04 -0.7684
v -0.51811 0.85 -0.6818
v -0.40811 0.04 -0.7684
v -0.45811 0.85 -0.6818
g holdfast_0
usemtl bower_stem
f 1 2 10 9
f 2 3 11 10
f 3 4 12 11
f 4 5 13 12
f 5 6 14 13
f 6 7 15 14
f 7 8 16 15
f 8 1 9 16
f 9 10 18 17
f 10 11 19 18
f 11 12 20 19
f 12 13 21 20
f 13 14 22 21
f 14 15 23 22
f 15 16 24 23
f 16 9 17 24
f 17 18 26 25
f 18 19 27 26
f 19 20 28 27
f 20 21 29 28
f 21 22 30 29
f 22 23 31 30
f 23 24 32 31
f 24 17 25 32
g trunk_0
usemtl bower_stem
f 49 47 45 43 41 39 37 35 33
f 34 36 38 40 42 44 46 48 50
f 33 35 36 34
f 35 37 38 36
f 37 39 40 38
f 39 41 42 40
f 41 43 44 42
f 43 45 46 44
f 45 47 48 46
f 47 49 50 48
f 49 33 34 50
g frond_0_0
usemtl bower_canopy
f 51 52 53
f 51 53 54
f 52 55 53
f 53 55 54
g vein_0_0
usemtl bower_stem
f 64 62 60 58 56
f 57 59 61 63 65
f 56 58 59 57
f 58 60 61 59
f 60 62 63 61
f 62 64 65 63
f 64 56 57 65
g frond_0_1
usemtl bower_fan
f 66 67 68
f 66 68 69
f 67 70 68
f 68 70 69
g vein_0_1
usemtl bower_stem
f 79 77 75 73 71
f 72 74 76 78 80
f 71 73 74 72
f 73 75 76 74
f 75 77 78 76
f 77 79 80 78
f 79 71 72 80
g frond_0_2
usemtl bower_fan
f 81 82 83
f 81 83 84
f 82 85 83
f 83 85 84
g vein_0_2
usemtl bower_stem
f 94 92 90 88 86
f 87 89 91 93 95
f 86 88 89 87
f 88 90 91 89
f 90 92 93 91
f 92 94 95 93
f 94 86 87 95
g frond_0_3
usemtl bower_canopy
f 96 97 98
f 96 98 99
f 97 100 98
f 98 100 99
g vein_0_3
usemtl bower_stem
f 109 107 105 103 101
f 102 104 106 108 110
f 101 103 104 102
f 103 105 106 104
f 105 107 108 106
f 107 109 110 108
f 109 101 102 110
g frond_0_4
usemtl bower_fan
f 111 112 113
f 111 113 114
f 112 115 113
f 113 115 114
g vein_0_4
usemtl bower_stem
f 124 122 120 118 116
f 117 119 121 123 125
f 116 118 119 117
f 118 120 121 119
f 120 122 123 121
f 122 124 125 123
f 124 116 117 125
g frond_0_5
usemtl bower_fan
f 126 127 128
f 126 128 129
f 127 130 128
f 128 130 129
g vein_0_5
usemtl bower_stem
f 139 137 135 133 131
f 132 134 136 138 140
f 131 133 134 132
f 133 135 136 134
f 135 137 138 136
f 137 139 140 138
f 139 131 132 140
g frond_0_6
usemtl bower_canopy
f 141 142 143
f 141 143 144
f 142 145 143
f 143 145 144
g vein_0_6
usemtl bower_stem
f 154 152 150 148 146
f 147 149 151 153 155
f 146 148 149 147
f 148 150 151 149
f 150 152 153 151
f 152 154 155 153
f 154 146 147 155
g spore_head_0
usemtl bower_spore
f 156 157 167 166
f 157 158 168 167
f 158 159 169 168
f 159 160 170 169
f 160 161 171 170
f 161 162 172 171
f 162 163 173 172
f 163 164 174 173
f 164 165 175 174
f 165 156 166 175
f 166 167 177 176
f 167 168 178 177
f 168 169 179 178
f 169 170 180 179
f 170 171 181 180
f 171 172 182 181
f 172 173 183 182
f 173 174 184 183
f 174 175 185 184
f 175 166 176 185
f 176 177 187 186
f 177 178 188 187
f 178 179 189 188
f 179 180 190 189
f 180 181 191 190
f 181 182 192 191
f 182 183 193 192
f 183 184 194 193
f 184 185 195 194
f 185 176 186 195
f 186 187 197 196
f 187 188 198 197
f 188 189 199 198
f 189 190 200 199
f 190 191 201 200
f 191 192 202 201
f 192 193 203 202
f 193 194 204 203
f 194 195 205 204
f 195 186 196 205
g spore_rim_0_0
usemtl bower_spore
f 206 207 214 213
f 207 208 215 214
f 208 209 216 215
f 209 210 217 216
f 210 211 218 217
f 211 212 219 218
f 212 206 213 219
f 213 214 221 220
f 214 215 222 221
f 215 216 223 222
f 216 217 224 223
f 217 218 225 224
f 218 219 226 225
f 219 213 220 226
f 220 221 228 227
f 221 222 229 228
f 222 223 230 229
f 223 224 231 230
f 224 225 232 231
f 225 226 233 232
f 226 220 227 233
g spore_rim_0_1
usemtl bower_spore
f 234 235 242 241
f 235 236 243 242
f 236 237 244 243
f 237 238 245 244
f 238 239 246 245
f 239 240 247 246
f 240 234 241 247
f 241 242 249 248
f 242 243 250 249
f 243 244 251 250
f 244 245 252 251
f 245 246 253 252
f 246 247 254 253
f 247 241 248 254
f 248 249 256 255
f 249 250 257 256
f 250 251 258 257
f 251 252 259 258
f 252 253 260 259
f 253 254 261 260
f 254 248 255 261
g spore_rim_0_2
usemtl bower_spore
f 262 263 270 269
f 263 264 271 270
f 264 265 272 271
f 265 266 273 272
f 266 267 274 273
f 267 268 275 274
f 268 262 269 275
f 269 270 277 276
f 270 271 278 277
f 271 272 279 278
f 272 273 280 279
f 273 274 281 280
f 274 275 282 281
f 275 269 276 282
f 276 277 284 283
f 277 278 285 284
f 278 279 286 285
f 279 280 287 286
f 280 281 288 287
f 281 282 289 288
f 282 276 283 289
g spore_rim_0_3
usemtl bower_spore
f 290 291 298 297
f 291 292 299 298
f 292 293 300 299
f 293 294 301 300
f 294 295 302 301
f 295 296 303 302
f 296 290 297 303
f 297 298 305 304
f 298 299 306 305
f 299 300 307 306
f 300 301 308 307
f 301 302 309 308
f 302 303 310 309
f 303 297 304 310
f 304 305 312 311
f 305 306 313 312
f 306 307 314 313
f 307 308 315 314
f 308 309 316 315
f 309 310 317 316
f 310 304 311 317
g spore_rim_0_4
usemtl bower_spore
f 318 319 326 325
f 319 320 327 326
f 320 321 328 327
f 321 322 329 328
f 322 323 330 329
f 323 324 331 330
f 324 318 325 331
f 325 326 333 332
f 326 327 334 333
f 327 328 335 334
f 328 329 336 335
f 329 330 337 336
f 330 331 338 337
f 331 325 332 338
f 332 333 340 339
f 333 334 341 340
f 334 335 342 341
f 335 336 343 342
f 336 337 344 343
f 337 338 345 344
f 338 332 339 345
g holdfast_1
usemtl bower_stem
f 346 347 355 354
f 347 348 356 355
f 348 349 357 356
f 349 350 358 357
f 350 351 359 358
f 351 352 360 359
f 352 353 361 360
f 353 346 354 361
f 354 355 363 362
f 355 356 364 363
f 356 357 365 364
f 357 358 366 365
f 358 359 367 366
f 359 360 368 367
f 360 361 369 368
f 361 354 362 369
f 362 363 371 370
f 363 364 372 371
f 364 365 373 372
f 365 366 374 373
f 366 367 375 374
f 367 368 376 375
f 368 369 377 376
f 369 362 370 377
g trunk_1
usemtl bower_stem
f 394 392 390 388 386 384 382 380 378
f 379 381 383 385 387 389 391 393 395
f 378 380 381 379
f 380 382 383 381
f 382 384 385 383
f 384 386 387 385
f 386 388 389 387
f 388 390 391 389
f 390 392 393 391
f 392 394 395 393
f 394 378 379 395
g frond_1_0
usemtl bower_fan
f 396 397 398
f 396 398 399
f 397 400 398
f 398 400 399
g vein_1_0
usemtl bower_stem
f 409 407 405 403 401
f 402 404 406 408 410
f 401 403 404 402
f 403 405 406 404
f 405 407 408 406
f 407 409 410 408
f 409 401 402 410
g frond_1_1
usemtl bower_fan
f 411 412 413
f 411 413 414
f 412 415 413
f 413 415 414
g vein_1_1
usemtl bower_stem
f 424 422 420 418 416
f 417 419 421 423 425
f 416 418 419 417
f 418 420 421 419
f 420 422 423 421
f 422 424 425 423
f 424 416 417 425
g frond_1_2
usemtl bower_canopy
f 426 427 428
f 426 428 429
f 427 430 428
f 428 430 429
g vein_1_2
usemtl bower_stem
f 439 437 435 433 431
f 432 434 436 438 440
f 431 433 434 432
f 433 435 436 434
f 435 437 438 436
f 437 439 440 438
f 439 431 432 440
g frond_1_3
usemtl bower_fan
f 441 442 443
f 441 443 444
f 442 445 443
f 443 445 444
g vein_1_3
usemtl bower_stem
f 454 452 450 448 446
f 447 449 451 453 455
f 446 448 449 447
f 448 450 451 449
f 450 452 453 451
f 452 454 455 453
f 454 446 447 455
g frond_1_4
usemtl bower_fan
f 456 457 458
f 456 458 459
f 457 460 458
f 458 460 459
g vein_1_4
usemtl bower_stem
f 469 467 465 463 461
f 462 464 466 468 470
f 461 463 464 462
f 463 465 466 464
f 465 467 468 466
f 467 469 470 468
f 469 461 462 470
g frond_1_5
usemtl bower_canopy
f 471 472 473
f 471 473 474
f 472 475 473
f 473 475 474
g vein_1_5
usemtl bower_stem
f 484 482 480 478 476
f 477 479 481 483 485
f 476 478 479 477
f 478 480 481 479
f 480 482 483 481
f 482 484 485 483
f 484 476 477 485
g frond_1_6
usemtl bower_fan
f 486 487 488
f 486 488 489
f 487 490 488
f 488 490 489
g vein_1_6
usemtl bower_stem
f 499 497 495 493 491
f 492 494 496 498 500
f 491 493 494 492
f 493 495 496 494
f 495 497 498 496
f 497 499 500 498
f 499 491 492 500
g spore_head_1
usemtl bower_spore
f 501 502 512 511
f 502 503 513 512
f 503 504 514 513
f 504 505 515 514
f 505 506 516 515
f 506 507 517 516
f 507 508 518 517
f 508 509 519 518
f 509 510 520 519
f 510 501 511 520
f 511 512 522 521
f 512 513 523 522
f 513 514 524 523
f 514 515 525 524
f 515 516 526 525
f 516 517 527 526
f 517 518 528 527
f 518 519 529 528
f 519 520 530 529
f 520 511 521 530
f 521 522 532 531
f 522 523 533 532
f 523 524 534 533
f 524 525 535 534
f 525 526 536 535
f 526 527 537 536
f 527 528 538 537
f 528 529 539 538
f 529 530 540 539
f 530 521 531 540
f 531 532 542 541
f 532 533 543 542
f 533 534 544 543
f 534 535 545 544
f 535 536 546 545
f 536 537 547 546
f 537 538 548 547
f 538 539 549 548
f 539 540 550 549
f 540 531 541 550
g spore_rim_1_0
usemtl bower_spore
f 551 552 559 558
f 552 553 560 559
f 553 554 561 560
f 554 555 562 561
f 555 556 563 562
f 556 557 564 563
f 557 551 558 564
f 558 559 566 565
f 559 560 567 566
f 560 561 568 567
f 561 562 569 568
f 562 563 570 569
f 563 564 571 570
f 564 558 565 571
f 565 566 573 572
f 566 567 574 573
f 567 568 575 574
f 568 569 576 575
f 569 570 577 576
f 570 571 578 577
f 571 565 572 578
g spore_rim_1_1
usemtl bower_spore
f 579 580 587 586
f 580 581 588 587
f 581 582 589 588
f 582 583 590 589
f 583 584 591 590
f 584 585 592 591
f 585 579 586 592
f 586 587 594 593
f 587 588 595 594
f 588 589 596 595
f 589 590 597 596
f 590 591 598 597
f 591 592 599 598
f 592 586 593 599
f 593 594 601 600
f 594 595 602 601
f 595 596 603 602
f 596 597 604 603
f 597 598 605 604
f 598 599 606 605
f 599 593 600 606
g spore_rim_1_2
usemtl bower_spore
f 607 608 615 614
f 608 609 616 615
f 609 610 617 616
f 610 611 618 617
f 611 612 619 618
f 612 613 620 619
f 613 607 614 620
f 614 615 622 621
f 615 616 623 622
f 616 617 624 623
f 617 618 625 624
f 618 619 626 625
f 619 620 627 626
f 620 614 621 627
f 621 622 629 628
f 622 623 630 629
f 623 624 631 630
f 624 625 632 631
f 625 626 633 632
f 626 627 634 633
f 627 621 628 634
g spore_rim_1_3
usemtl bower_spore
f 635 636 643 642
f 636 637 644 643
f 637 638 645 644
f 638 639 646 645
f 639 640 647 646
f 640 641 648 647
f 641 635 642 648
f 642 643 650 649
f 643 644 651 650
f 644 645 652 651
f 645 646 653 652
f 646 647 654 653
f 647 648 655 654
f 648 642 649 655
f 649 650 657 656
f 650 651 658 657
f 651 652 659 658
f 652 653 660 659
f 653 654 661 660
f 654 655 662 661
f 655 649 656 662
g spore_rim_1_4
usemtl bower_spore
f 663 664 671 670
f 664 665 672 671
f 665 666 673 672
f 666 667 674 673
f 667 668 675 674
f 668 669 676 675
f 669 663 670 676
f 670 671 678 677
f 671 672 679 678
f 672 673 680 679
f 673 674 681 680
f 674 675 682 681
f 675 676 683 682
f 676 670 677 683
f 677 678 685 684
f 678 679 686 685
f 679 680 687 686
f 680 681 688 687
f 681 682 689 688
f 682 683 690 689
f 683 677 684 690
g holdfast_2
usemtl bower_stem
f 691 692 700 699
f 692 693 701 700
f 693 694 702 701
f 694 695 703 702
f 695 696 704 703
f 696 697 705 704
f 697 698 706 705
f 698 691 699 706
f 699 700 708 707
f 700 701 709 708
f 701 702 710 709
f 702 703 711 710
f 703 704 712 711
f 704 705 713 712
f 705 706 714 713
f 706 699 707 714
f 707 708 716 715
f 708 709 717 716
f 709 710 718 717
f 710 711 719 718
f 711 712 720 719
f 712 713 721 720
f 713 714 722 721
f 714 707 715 722
g trunk_2
usemtl bower_stem
f 739 737 735 733 731 729 727 725 723
f 724 726 728 730 732 734 736 738 740
f 723 725 726 724
f 725 727 728 726
f 727 729 730 728
f 729 731 732 730
f 731 733 734 732
f 733 735 736 734
f 735 737 738 736
f 737 739 740 738
f 739 723 724 740
g frond_2_0
usemtl bower_fan
f 741 742 743
f 741 743 744
f 742 745 743
f 743 745 744
g vein_2_0
usemtl bower_stem
f 754 752 750 748 746
f 747 749 751 753 755
f 746 748 749 747
f 748 750 751 749
f 750 752 753 751
f 752 754 755 753
f 754 746 747 755
g frond_2_1
usemtl bower_canopy
f 756 757 758
f 756 758 759
f 757 760 758
f 758 760 759
g vein_2_1
usemtl bower_stem
f 769 767 765 763 761
f 762 764 766 768 770
f 761 763 764 762
f 763 765 766 764
f 765 767 768 766
f 767 769 770 768
f 769 761 762 770
g frond_2_2
usemtl bower_fan
f 771 772 773
f 771 773 774
f 772 775 773
f 773 775 774
g vein_2_2
usemtl bower_stem
f 784 782 780 778 776
f 777 779 781 783 785
f 776 778 779 777
f 778 780 781 779
f 780 782 783 781
f 782 784 785 783
f 784 776 777 785
g frond_2_3
usemtl bower_fan
f 786 787 788
f 786 788 789
f 787 790 788
f 788 790 789
g vein_2_3
usemtl bower_stem
f 799 797 795 793 791
f 792 794 796 798 800
f 791 793 794 792
f 793 795 796 794
f 795 797 798 796
f 797 799 800 798
f 799 791 792 800
g frond_2_4
usemtl bower_canopy
f 801 802 803
f 801 803 804
f 802 805 803
f 803 805 804
g vein_2_4
usemtl bower_stem
f 814 812 810 808 806
f 807 809 811 813 815
f 806 808 809 807
f 808 810 811 809
f 810 812 813 811
f 812 814 815 813
f 814 806 807 815
g frond_2_5
usemtl bower_fan
f 816 817 818
f 816 818 819
f 817 820 818
f 818 820 819
g vein_2_5
usemtl bower_stem
f 829 827 825 823 821
f 822 824 826 828 830
f 821 823 824 822
f 823 825 826 824
f 825 827 828 826
f 827 829 830 828
f 829 821 822 830
g frond_2_6
usemtl bower_fan
f 831 832 833
f 831 833 834
f 832 835 833
f 833 835 834
g vein_2_6
usemtl bower_stem
f 844 842 840 838 836
f 837 839 841 843 845
f 836 838 839 837
f 838 840 841 839
f 840 842 843 841
f 842 844 845 843
f 844 836 837 845
g spore_head_2
usemtl bower_spore
f 846 847 857 856
f 847 848 858 857
f 848 849 859 858
f 849 850 860 859
f 850 851 861 860
f 851 852 862 861
f 852 853 863 862
f 853 854 864 863
f 854 855 865 864
f 855 846 856 865
f 856 857 867 866
f 857 858 868 867
f 858 859 869 868
f 859 860 870 869
f 860 861 871 870
f 861 862 872 871
f 862 863 873 872
f 863 864 874 873
f 864 865 875 874
f 865 856 866 875
f 866 867 877 876
f 867 868 878 877
f 868 869 879 878
f 869 870 880 879
f 870 871 881 880
f 871 872 882 881
f 872 873 883 882
f 873 874 884 883
f 874 875 885 884
f 875 866 876 885
f 876 877 887 886
f 877 878 888 887
f 878 879 889 888
f 879 880 890 889
f 880 881 891 890
f 881 882 892 891
f 882 883 893 892
f 883 884 894 893
f 884 885 895 894
f 885 876 886 895
g spore_rim_2_0
usemtl bower_spore
f 896 897 904 903
f 897 898 905 904
f 898 899 906 905
f 899 900 907 906
f 900 901 908 907
f 901 902 909 908
f 902 896 903 909
f 903 904 911 910
f 904 905 912 911
f 905 906 913 912
f 906 907 914 913
f 907 908 915 914
f 908 909 916 915
f 909 903 910 916
f 910 911 918 917
f 911 912 919 918
f 912 913 920 919
f 913 914 921 920
f 914 915 922 921
f 915 916 923 922
f 916 910 917 923
g spore_rim_2_1
usemtl bower_spore
f 924 925 932 931
f 925 926 933 932
f 926 927 934 933
f 927 928 935 934
f 928 929 936 935
f 929 930 937 936
f 930 924 931 937
f 931 932 939 938
f 932 933 940 939
f 933 934 941 940
f 934 935 942 941
f 935 936 943 942
f 936 937 944 943
f 937 931 938 944
f 938 939 946 945
f 939 940 947 946
f 940 941 948 947
f 941 942 949 948
f 942 943 950 949
f 943 944 951 950
f 944 938 945 951
g spore_rim_2_2
usemtl bower_spore
f 952 953 960 959
f 953 954 961 960
f 954 955 962 961
f 955 956 963 962
f 956 957 964 963
f 957 958 965 964
f 958 952 959 965
f 959 960 967 966
f 960 961 968 967
f 961 962 969 968
f 962 963 970 969
f 963 964 971 970
f 964 965 972 971
f 965 959 966 972
f 966 967 974 973
f 967 968 975 974
f 968 969 976 975
f 969 970 977 976
f 970 971 978 977
f 971 972 979 978
f 972 966 973 979
g spore_rim_2_3
usemtl bower_spore
f 980 981 988 987
f 981 982 989 988
f 982 983 990 989
f 983 984 991 990
f 984 985 992 991
f 985 986 993 992
f 986 980 987 993
f 987 988 995 994
f 988 989 996 995
f 989 990 997 996
f 990 991 998 997
f 991 992 999 998
f 992 993 1000 999
f 993 987 994 1000
f 994 995 1002 1001
f 995 996 1003 1002
f 996 997 1004 1003
f 997 998 1005 1004
f 998 999 1006 1005
f 999 1000 1007 1006
f 1000 994 1001 1007
g spore_rim_2_4
usemtl bower_spore
f 1008 1009 1016 1015
f 1009 1010 1017 1016
f 1010 1011 1018 1017
f 1011 1012 1019 1018
f 1012 1013 1020 1019
f 1013 1014 1021 1020
f 1014 1008 1015 1021
f 1015 1016 1023 1022
f 1016 1017 1024 1023
f 1017 1018 1025 1024
f 1018 1019 1026 1025
f 1019 1020 1027 1026
f 1020 1021 1028 1027
f 1021 1015 1022 1028
f 1022 1023 1030 1029
f 1023 1024 1031 1030
f 1024 1025 1032 1031
f 1025 1026 1033 1032
f 1026 1027 1034 1033
f 1027 1028 1035 1034
f 1028 1022 1029 1035
g holdfast_3
usemtl bower_stem
f 1036 1037 1045 1044
f 1037 1038 1046 1045
f 1038 1039 1047 1046
f 1039 1040 1048 1047
f 1040 1041 1049 1048
f 1041 1042 1050 1049
f 1042 1043 1051 1050
f 1043 1036 1044 1051
f 1044 1045 1053 1052
f 1045 1046 1054 1053
f 1046 1047 1055 1054
f 1047 1048 1056 1055
f 1048 1049 1057 1056
f 1049 1050 1058 1057
f 1050 1051 1059 1058
f 1051 1044 1052 1059
f 1052 1053 1061 1060
f 1053 1054 1062 1061
f 1054 1055 1063 1062
f 1055 1056 1064 1063
f 1056 1057 1065 1064
f 1057 1058 1066 1065
f 1058 1059 1067 1066
f 1059 1052 1060 1067
g trunk_3
usemtl bower_stem
f 1084 1082 1080 1078 1076 1074 1072 1070 1068
f 1069 1071 1073 1075 1077 1079 1081 1083 1085
f 1068 1070 1071 1069
f 1070 1072 1073 1071
f 1072 1074 1075 1073
f 1074 1076 1077 1075
f 1076 1078 1079 1077
f 1078 1080 1081 1079
f 1080 1082 1083 1081
f 1082 1084 1085 1083
f 1084 1068 1069 1085
g frond_3_0
usemtl bower_canopy
f 1086 1087 1088
f 1086 1088 1089
f 1087 1090 1088
f 1088 1090 1089
g vein_3_0
usemtl bower_stem
f 1099 1097 1095 1093 1091
f 1092 1094 1096 1098 1100
f 1091 1093 1094 1092
f 1093 1095 1096 1094
f 1095 1097 1098 1096
f 1097 1099 1100 1098
f 1099 1091 1092 1100
g frond_3_1
usemtl bower_fan
f 1101 1102 1103
f 1101 1103 1104
f 1102 1105 1103
f 1103 1105 1104
g vein_3_1
usemtl bower_stem
f 1114 1112 1110 1108 1106
f 1107 1109 1111 1113 1115
f 1106 1108 1109 1107
f 1108 1110 1111 1109
f 1110 1112 1113 1111
f 1112 1114 1115 1113
f 1114 1106 1107 1115
g frond_3_2
usemtl bower_fan
f 1116 1117 1118
f 1116 1118 1119
f 1117 1120 1118
f 1118 1120 1119
g vein_3_2
usemtl bower_stem
f 1129 1127 1125 1123 1121
f 1122 1124 1126 1128 1130
f 1121 1123 1124 1122
f 1123 1125 1126 1124
f 1125 1127 1128 1126
f 1127 1129 1130 1128
f 1129 1121 1122 1130
g frond_3_3
usemtl bower_canopy
f 1131 1132 1133
f 1131 1133 1134
f 1132 1135 1133
f 1133 1135 1134
g vein_3_3
usemtl bower_stem
f 1144 1142 1140 1138 1136
f 1137 1139 1141 1143 1145
f 1136 1138 1139 1137
f 1138 1140 1141 1139
f 1140 1142 1143 1141
f 1142 1144 1145 1143
f 1144 1136 1137 1145
g frond_3_4
usemtl bower_fan
f 1146 1147 1148
f 1146 1148 1149
f 1147 1150 1148
f 1148 1150 1149
g vein_3_4
usemtl bower_stem
f 1159 1157 1155 1153 1151
f 1152 1154 1156 1158 1160
f 1151 1153 1154 1152
f 1153 1155 1156 1154
f 1155 1157 1158 1156
f 1157 1159 1160 1158
f 1159 1151 1152 1160
g frond_3_5
usemtl bower_fan
f 1161 1162 1163
f 1161 1163 1164
f 1162 1165 1163
f 1163 1165 1164
g vein_3_5
usemtl bower_stem
f 1174 1172 1170 1168 1166
f 1167 1169 1171 1173 1175
f 1166 1168 1169 1167
f 1168 1170 1171 1169
f 1170 1172 1173 1171
f 1172 1174 1175 1173
f 1174 1166 1167 1175
g frond_3_6
usemtl bower_canopy
f 1176 1177 1178
f 1176 1178 1179
f 1177 1180 1178
f 1178 1180 1179
g vein_3_6
usemtl bower_stem
f 1189 1187 1185 1183 1181
f 1182 1184 1186 1188 1190
f 1181 1183 1184 1182
f 1183 1185 1186 1184
f 1185 1187 1188 1186
f 1187 1189 1190 1188
f 1189 1181 1182 1190
g spore_head_3
usemtl bower_spore
f 1191 1192 1202 1201
f 1192 1193 1203 1202
f 1193 1194 1204 1203
f 1194 1195 1205 1204
f 1195 1196 1206 1205
f 1196 1197 1207 1206
f 1197 1198 1208 1207
f 1198 1199 1209 1208
f 1199 1200 1210 1209
f 1200 1191 1201 1210
f 1201 1202 1212 1211
f 1202 1203 1213 1212
f 1203 1204 1214 1213
f 1204 1205 1215 1214
f 1205 1206 1216 1215
f 1206 1207 1217 1216
f 1207 1208 1218 1217
f 1208 1209 1219 1218
f 1209 1210 1220 1219
f 1210 1201 1211 1220
f 1211 1212 1222 1221
f 1212 1213 1223 1222
f 1213 1214 1224 1223
f 1214 1215 1225 1224
f 1215 1216 1226 1225
f 1216 1217 1227 1226
f 1217 1218 1228 1227
f 1218 1219 1229 1228
f 1219 1220 1230 1229
f 1220 1211 1221 1230
f 1221 1222 1232 1231
f 1222 1223 1233 1232
f 1223 1224 1234 1233
f 1224 1225 1235 1234
f 1225 1226 1236 1235
f 1226 1227 1237 1236
f 1227 1228 1238 1237
f 1228 1229 1239 1238
f 1229 1230 1240 1239
f 1230 1221 1231 1240
g spore_rim_3_0
usemtl bower_spore
f 1241 1242 1249 1248
f 1242 1243 1250 1249
f 1243 1244 1251 1250
f 1244 1245 1252 1251
f 1245 1246 1253 1252
f 1246 1247 1254 1253
f 1247 1241 1248 1254
f 1248 1249 1256 1255
f 1249 1250 1257 1256
f 1250 1251 1258 1257
f 1251 1252 1259 1258
f 1252 1253 1260 1259
f 1253 1254 1261 1260
f 1254 1248 1255 1261
f 1255 1256 1263 1262
f 1256 1257 1264 1263
f 1257 1258 1265 1264
f 1258 1259 1266 1265
f 1259 1260 1267 1266
f 1260 1261 1268 1267
f 1261 1255 1262 1268
g spore_rim_3_1
usemtl bower_spore
f 1269 1270 1277 1276
f 1270 1271 1278 1277
f 1271 1272 1279 1278
f 1272 1273 1280 1279
f 1273 1274 1281 1280
f 1274 1275 1282 1281
f 1275 1269 1276 1282
f 1276 1277 1284 1283
f 1277 1278 1285 1284
f 1278 1279 1286 1285
f 1279 1280 1287 1286
f 1280 1281 1288 1287
f 1281 1282 1289 1288
f 1282 1276 1283 1289
f 1283 1284 1291 1290
f 1284 1285 1292 1291
f 1285 1286 1293 1292
f 1286 1287 1294 1293
f 1287 1288 1295 1294
f 1288 1289 1296 1295
f 1289 1283 1290 1296
g spore_rim_3_2
usemtl bower_spore
f 1297 1298 1305 1304
f 1298 1299 1306 1305
f 1299 1300 1307 1306
f 1300 1301 1308 1307
f 1301 1302 1309 1308
f 1302 1303 1310 1309
f 1303 1297 1304 1310
f 1304 1305 1312 1311
f 1305 1306 1313 1312
f 1306 1307 1314 1313
f 1307 1308 1315 1314
f 1308 1309 1316 1315
f 1309 1310 1317 1316
f 1310 1304 1311 1317
f 1311 1312 1319 1318
f 1312 1313 1320 1319
f 1313 1314 1321 1320
f 1314 1315 1322 1321
f 1315 1316 1323 1322
f 1316 1317 1324 1323
f 1317 1311 1318 1324
g spore_rim_3_3
usemtl bower_spore
f 1325 1326 1333 1332
f 1326 1327 1334 1333
f 1327 1328 1335 1334
f 1328 1329 1336 1335
f 1329 1330 1337 1336
f 1330 1331 1338 1337
f 1331 1325 1332 1338
f 1332 1333 1340 1339
f 1333 1334 1341 1340
f 1334 1335 1342 1341
f 1335 1336 1343 1342
f 1336 1337 1344 1343
f 1337 1338 1345 1344
f 1338 1332 1339 1345
f 1339 1340 1347 1346
f 1340 1341 1348 1347
f 1341 1342 1349 1348
f 1342 1343 1350 1349
f 1343 1344 1351 1350
f 1344 1345 1352 1351
f 1345 1339 1346 1352
g spore_rim_3_4
usemtl bower_spore
f 1353 1354 1361 1360
f 1354 1355 1362 1361
f 1355 1356 1363 1362
f 1356 1357 1364 1363
f 1357 1358 1365 1364
f 1358 1359 1366 1365
f 1359 1353 1360 1366
f 1360 1361 1368 1367
f 1361 1362 1369 1368
f 1362 1363 1370 1369
f 1363 1364 1371 1370
f 1364 1365 1372 1371
f 1365 1366 1373 1372
f 1366 1360 1367 1373
f 1367 1368 1375 1374
f 1368 1369 1376 1375
f 1369 1370 1377 1376
f 1370 1371 1378 1377
f 1371 1372 1379 1378
f 1372 1373 1380 1379
f 1373 1367 1374 1380
g new_growth_0
usemtl living_teal
f 1391 1389 1387 1385 1383 1381
f 1382 1384 1386 1388 1390 1392
f 1381 1383 1384 1382
f 1383 1385 1386 1384
f 1385 1387 1388 1386
f 1387 1389 1390 1388
f 1389 1391 1392 1390
f 1391 1381 1382 1392
g new_growth_1
usemtl living_teal
f 1403 1401 1399 1397 1395 1393
f 1394 1396 1398 1400 1402 1404
f 1393 1395 1396 1394
f 1395 1397 1398 1396
f 1397 1399 1400 1398
f 1399 1401 1402 1400
f 1401 1403 1404 1402
f 1403 1393 1394 1404
g new_growth_2
usemtl living_teal
f 1415 1413 1411 1409 1407 1405
f 1406 1408 1410 1412 1414 1416
f 1405 1407 1408 1406
f 1407 1409 1410 1408
f 1409 1411 1412 1410
f 1411 1413 1414 1412
f 1413 1415 1416 1414
f 1415 1405 1406 1416
g new_growth_3
usemtl living_teal
f 1427 1425 1423 1421 1419 1417
f 1418 1420 1422 1424 1426 1428
f 1417 1419 1420 1418
f 1419 1421 1422 1420
f 1421 1423 1424 1422
f 1423 1425 1426 1424
f 1425 1427 1428 1426
f 1427 1417 1418 1428
g new_growth_4
usemtl living_teal
f 1439 1437 1435 1433 1431 1429
f 1430 1432 1434 1436 1438 1440
f 1429 1431 1432 1430
f 1431 1433 1434 1432
f 1433 1435 1436 1434
f 1435 1437 1438 1436
f 1437 1439 1440 1438
f 1439 1429 1430 1440
g new_growth_5
usemtl living_teal
f 1451 1449 1447 1445 1443 1441
f 1442 1444 1446 1448 1450 1452
f 1441 1443 1444 1442
f 1443 1445 1446 1444
f 1445 1447 1448 1446
f 1447 1449 1450 1448
f 1449 1451 1452 1450
f 1451 1441 1442 1452
g new_growth_6
usemtl living_teal
f 1463 1461 1459 1457 1455 1453
f 1454 1456 1458 1460 1462 1464
f 1453 1455 1456 1454
f 1455 1457 1458 1456
f 1457 1459 1460 1458
f 1459 1461 1462 1460
f 1461 1463 1464 1462
f 1463 1453 1454 1464
g new_growth_7
usemtl living_teal
f 1475 1473 1471 1469 1467 1465
f 1466 1468 1470 1472 1474 1476
f 1465 1467 1468 1466
f 1467 1469 1470 1468
f 1469 1471 1472 1470
f 1471 1473 1474 1472
f 1473 1475 1476 1474
f 1475 1465 1466 1476
g new_growth_8
usemtl living_teal
f 1487 1485 1483 1481 1479 1477
f 1478 1480 1482 1484 1486 1488
f 1477 1479 1480 1478
f 1479 1481 1482 1480
f 1481 1483 1484 1482
f 1483 1485 1486 1484
f 1485 1487 1488 1486
f 1487 1477 1478 1488
g new_growth_9
usemtl living_teal
f 1499 1497 1495 1493 1491 1489
f 1490 1492 1494 1496 1498 1500
f 1489 1491 1492 1490
f 1491 1493 1494 1492
f 1493 1495 1496 1494
f 1495 1497 1498 1496
f 1497 1499 1500 1498
f 1499 1489 1490 1500
g new_growth_10
usemtl living_teal
f 1511 1509 1507 1505 1503 1501
f 1502 1504 1506 1508 1510 1512
f 1501 1503 1504 1502
f 1503 1505 1506 1504
f 1505 1507 1508 1506
f 1507 1509 1510 1508
f 1509 1511 1512 1510
f 1511 1501 1502 1512
g new_growth_11
usemtl living_teal
f 1523 1521 1519 1517 1515 1513
f 1514 1516 1518 1520 1522 1524
f 1513 1515 1516 1514
f 1515 1517 1518 1516
f 1517 1519 1520 1518
f 1519 1521 1522 1520
f 1521 1523 1524 1522
f 1523 1513 1514 1524
