# Generated environment blockout: biomass_bower_b
mtllib environment_blockout.mtl
o biomass_bower_b
v -2.2 0.0 -0.4
v -2.2 0.0 -0.4
v -2.2 0.0 -0.4
v -2.2 0.0 -0.4
v -2.2 0.0 -0.4
v -2.2 0.0 -0.4
v -2.2 0.0 -0.4
v -2.2 0.0 -0.4
v -1.83627 0.07 -0.4
v -1.9428 0.07 -0.15505
v -2.2 0.07 -0.05359
v -2.4572 0.07 -0.15505
v -2.56373 0.07 -0.4
v -2.4572 0.07 -0.64495
v -2.2 0.07 -0.74641
v -1.9428 0.07 -0.64495
v -1.83627 0.21 -0.4
v -1.9428 0.21 -0.15505
v -2.2 0.21 -0.05359
v -2.4572 0.21 -0.15505
v -2.56373 0.21 -0.4
v -2.4572 0.21 -0.64495
v -2.2 0.21 -0.74641
v -1.9428 0.21 -0.64495
v -2.2 0.28 -0.4
v -2.2 0.28 -0.4
v -2.2 0.28 -0.4
v -2.2 0.28 -0.4
v -2.2 0.28 -0.4
v -2.2 0.28 -0.4
v -2.2 0.28 -0.4
v -2.2 0.28 -0.4
v -2.2 0.12147 -0.60999
v -1.98183 3.86354 -0.58381
v -2.33476 0.12898 -0.56081
v -2.11659 3.87105 -0.53463
v -2.40646 0.13229 -0.43638
v -2.18829 3.87436 -0.4102
v -2.38156 0.12985 -0.29493
v -2.16339 3.87192 -0.26875
v -2.2717 0.1228 -0.20264
v -2.05354 3.86487 -0.17646
v -2.1283 0.11444 -0.2027
v -1.91013 3.85651 -0.17652
v -2.01844 0.10868 -0.29508
v -1.80028 3.85075 -0.2689
v -1.99354 0.10822 -0.43655
v -1.77537 3.85029 -0.41037
v -2.06524 0.11327 -0.56092
v -1.84708 3.85534 -0.53474
v -2.04728 2.66483 -0.37382
v -2.67038 3.02069 0.19561
v -2.21383 3.11469 0.30726
v -1.75729 3.02069 0.4189
v -2.38038 2.89655 0.98833
v -2.08128 2.66483 -0.38213
v -2.41438 2.89655 0.98002
v -2.05908 2.63199 -0.37112
v -2.39218 2.86371 0.99103
v -2.02058 2.64453 -0.36384
v -2.35367 2.87625 0.99831
v -2.01898 2.68512 -0.37035
v -2.35208 2.91685 0.9918
v -2.0565 2.69767 -0.38166
v -2.3896 2.92939 0.98049
v -2.04728 2.66483 -0.37382
v -3.12634 3.18318 -0.41058
v -2.87233 3.29118 0.06595
v -2.61833 3.18318 0.54248
v -3.69738 3.22153 0.50573
v -2.06375 2.66483 -0.40471
v -3.71385 3.22153 0.47484
v -2.06075 2.63292 -0.3789
v -3.71085 3.18963 0.50065
v -2.03914 2.64511 -0.34607
v -3.68925 3.20182 0.53348
v -2.02878 2.68454 -0.35159
v -3.67888 3.24125 0.52795
v -2.04399 2.69673 -0.38783
v -3.69409 3.25344 0.49171
v -2.04728 2.66483 -0.37382
v -2.95148 3.19628 -1.19344
v -3.10868 3.29028 -0.7505
v -3.26587 3.19628 -0.30757
v -4.17008 3.24773 -1.12719
v -2.03558 2.66483 -0.4068
v -4.15837 3.24773 -1.16017
v -2.05153 2.6326 -0.3868
v -4.17432 3.2155 -1.14017
v -2.06161 2.64491 -0.34886
v -4.1844 3.22781 -1.10223
v -2.0519 2.68474 -0.34541
v -4.17469 3.26764 -1.09878
v -2.03581 2.69705 -0.38122
v -4.1586 3.27995 -1.13459
v -2.04728 2.66483 -0.37382
v -1.8488 3.04794 -1.26779
v -2.34357 3.15594 -1.05146
v -2.83834 3.04794 -0.83513
v -2.63986 2.95105 -1.72911
v -2.01521 2.66483 -0.38784
v -2.60779 2.95105 -1.74313
v -2.03991 2.63215 -0.38395
v -2.63248 2.91837 -1.73923
v -2.07479 2.64463 -0.36606
v -2.66737 2.93085 -1.72135
v -2.07166 2.68502 -0.3589
v -2.66423 2.97125 -1.71418
v -2.03484 2.69751 -0.37236
v -2.62741 2.98373 -1.72765
v -2.04728 2.66483 -0.37382
v -1.23177 2.87455 -0.89693
v -1.64558 2.96855 -1.11977
v -2.0594 2.87455 -1.34261
v -1.24388 2.60427 -1.86572
v -2.01647 2.66483 -0.35723
v -1.21307 2.60427 -1.84913
v -2.03832 2.63156 -0.36765
v -1.23492 2.571 -1.85955
v -2.07256 2.64427 -0.3866
v -1.26916 2.58371 -1.8785
v -2.07187 2.68539 -0.38789
v -1.26847 2.62483 -1.87979
v -2.0372 2.69809 -0.36974
v -1.2338 2.63753 -1.86164
v -2.04728 2.66483 -0.37382
v -1.0159 2.83552 0.04966
v -1.0784 2.94352 -0.48671
v -1.14089 2.83552 -1.02309
v -0.10951 2.52621 -0.59961
v -2.04323 2.66483 -0.33906
v -0.10546 2.52621 -0.56484
v -2.04838 2.63162 -0.3628
v -0.1106 2.493 -0.58859
v -2.05201 2.64431 -0.40178
v -0.11423 2.50569 -0.62757
v -2.04911 2.68535 -0.40211
v -0.11134 2.54673 -0.6279
v -2.04369 2.69803 -0.36335
v -0.10591 2.55941 -0.58914
v -2.04728 2.66483 -0.37382
v -1.99764 2.96673 0.41799
v -1.63715 3.06073 0.11641
v -1.27667 2.96673 -0.18517
v -1.22703 2.78864 0.60664
v -2.07413 2.66483 -0.35136
v -1.25387 2.78864 0.6291
v -2.05352 2.63169 -0.36442
v -1.23326 2.75551 0.61604
v -2.02429 2.64435 -0.39047
v -1.20404 2.76816 0.58999
v -2.02684 2.6853 -0.39351
v -1.20658 2.80912 0.58695
v -2.05764 2.69796 -0.36934
v -1.23738 2.82177 0.61112
v -1.98183 3.96207 -0.4
v -1.98183 3.96207 -0.4
v -1.98183 3.96207 -0.4
v -1.98183 3.96207 -0.4
v -1.98183 3.96207 -0.4
v -1.98183 3.96207 -0.4
v -1.98183 3.96207 -0.4
v -1.98183 3.96207 -0.4
v -1.98183 3.96207 -0.4
v -1.98183 3.96207 -0.4
v -1.62828 4.01479 -0.4
v -1.6958 4.01479 -0.20466
v -1.87258 4.01479 -0.08393
v -2.09109 4.01479 -0.08393
v -2.26786 4.01479 -0.20466
v -2.33539 4.01479 -0.4
v -2.26786 4.01479 -0.59534
v -2.09109 4.01479 -0.71607
v -1.87258 4.01479 -0.71607
v -1.6958 4.01479 -0.59534
v -1.48183 4.14207 -0.4
v -1.57733 4.14207 -0.12374
v -1.82733 4.14207 0.047
v -2.13634 4.14207 0.047
v -2.38634 4.14207 -0.12374
v -2.48183 4.14207 -0.4
v -2.38634 4.14207 -0.67626
v -2.13634 4.14207 -0.847
v -1.82733 4.14207 -0.847
v -1.57733 4.14207 -0.67626
v -1.62828 4.26935 -0.4
v -1.6958 4.26935 -0.20466
v -1.87258 4.26935 -0.08393
v -2.09109 4.26935 -0.08393
v -2.26786 4.26935 -0.20466
v -2.33539 4.26935 -0.4
v -2.26786 4.26935 -0.59534
v -2.09109 4.26935 -0.71607
v -1.87258 4.26935 -0.71607
v -1.6958 4.26935 -0.59534
v -1.98183 4.32207 -0.4
v -1.98183 4.32207 -0.4
v -1.98183 4.32207 -0.4
v -1.98183 4.32207 -0.4
v -1.98183 4.32207 -0.4
v -1.98183 4.32207 -0.4
v -1.98183 4.32207 -0.4
v -1.98183 4.32207 -0.4
v -1.98183 4.32207 -0.4
v -1.98183 4.32207 -0.4
v -2.03595 3.99207 -0.02317
v -2.03595 3.99207 -0.02317
v -2.03595 3.99207 -0.02317
v -2.03595 3.99207 -0.02317
v -2.03595 3.99207 -0.02317
v -2.03595 3.99207 -0.02317
v -2.03595 3.99207 -0.02317
v -1.89738 4.03207 -0.02317
v -1.94956 4.03207 0.0784
v -2.06678 4.03207 0.10348
v -2.16079 4.03207 0.0332
v -2.16079 4.03207 -0.07953
v -2.06678 4.03207 -0.14981
v -1.94956 4.03207 -0.12473
v -1.89738 4.11207 -0.02317
v -1.94956 4.11207 0.0784
v -2.06678 4.11207 0.10348
v -2.16079 4.11207 0.0332
v -2.16079 4.11207 -0.07953
v -2.06678 4.11207 -0.14981
v -1.94956 4.11207 -0.12473
v -2.03595 4.15207 -0.02317
v -2.03595 4.15207 -0.02317
v -2.03595 4.15207 -0.02317
v -2.03595 4.15207 -0.02317
v -2.03595 4.15207 -0.02317
v -2.03595 4.15207 -0.02317
v -2.03595 4.15207 -0.02317
v -2.39467 3.99207 -0.33012
v -2.39467 3.99207 -0.33012
v -2.39467 3.99207 -0.33012
v -2.39467 3.99207 -0.33012
v -2.39467 3.99207 -0.33012
v -2.39467 3.99207 -0.33012
v -2.39467 3.99207 -0.33012
v -2.25611 4.03207 -0.33012
v -2.30828 4.03207 -0.22855
v -2.4255 4.03207 -0.20347
v -2.51951 4.03207 -0.27375
v -2.51951 4.03207 -0.38648
v -2.4255 4.03207 -0.45676
v -2.30828 4.03207 -0.43168
v -2.25611 4.11207 -0.33012
v -2.30828 4.11207 -0.22855
v -2.4255 4.11207 -0.20347
v -2.51951 4.11207 -0.27375
v -2.51951 4.11207 -0.38648
v -2.4255 4.11207 -0.45676
v -2.30828 4.11207 -0.43168
v -2.39467 4.15207 -0.33012
v -2.39467 4.15207 -0.33012
v -2.39467 4.15207 -0.33012
v -2.39467 4.15207 -0.33012
v -2.39467 4.15207 -0.33012
v -2.39467 4.15207 -0.33012
v -2.39467 4.15207 -0.33012
v -2.18287 3.99207 -0.73364
v -2.18287 3.99207 -0.73364
v -2.18287 3.99207 -0.73364
v -2.18287 3.99207 -0.73364
v -2.18287 3.99207 -0.73364
v -2.18287 3.99207 -0.73364
v -2.18287 3.99207 -0.73364
v -2.0443 4.03207 -0.73364
v -2.09647 4.03207 -0.63208
v -2.2137 4.03207 -0.607
v -2.30771 4.03207 -0.67728
v -2.30771 4.03207 -0.79001
v -2.2137 4.03207 -0.86029
v -2.09647 4.03207 -0.83521
v -2.0443 4.11207 -0.73364
v -2.09647 4.11207 -0.63208
v -2.2137 4.11207 -0.607
v -2.30771 4.11207 -0.67728
v -2.30771 4.11207 -0.79001
v -2.2137 4.11207 -0.86029
v -2.09647 4.11207 -0.83521
v -2.18287 4.15207 -0.73364
v -2.18287 4.15207 -0.73364
v -2.18287 4.15207 -0.73364
v -2.18287 4.15207 -0.73364
v -2.18287 4.15207 -0.73364
v -2.18287 4.15207 -0.73364
v -2.18287 4.15207 -0.73364
v -1.69324 3.99207 -0.67609
v -1.69324 3.99207 -0.67609
v -1.69324 3.99207 -0.67609
v -1.69324 3.99207 -0.67609
v -1.69324 3.99207 -0.67609
v -1.69324 3.99207 -0.67609
v -1.69324 3.99207 -0.67609
v -1.55468 4.03207 -0.67609
v -1.60685 4.03207 -0.57452
v -1.72408 4.03207 -0.54944
v -1.81808 4.03207 -0.61972
v -1.81808 4.03207 -0.73245
v -1.72408 4.03207 -0.80273
v -1.60685 4.03207 -0.77765
v -1.55468 4.11207 -0.67609
v -1.60685 4.11207 -0.57452
v -1.72408 4.11207 -0.54944
v -1.81808 4.11207 -0.61972
v -1.81808 4.11207 -0.73245
v -1.72408 4.11207 -0.80273
v -1.60685 4.11207 -0.77765
v -1.69324 4.15207 -0.67609
v -1.69324 4.15207 -0.67609
v -1.69324 4.15207 -0.67609
v -1.69324 4.15207 -0.67609
v -1.69324 4.15207 -0.67609
v -1.69324 4.15207 -0.67609
v -1.69324 4.15207 -0.67609
v -1.60244 3.99207 -0.23699
v -1.60244 3.99207 -0.23699
v -1.60244 3.99207 -0.23699
v -1.60244 3.99207 -0.23699
v -1.60244 3.99207 -0.23699
v -1.60244 3.99207 -0.23699
v -1.60244 3.99207 -0.23699
v -1.46388 4.03207 -0.23699
v -1.51605 4.03207 -0.13542
v -1.63328 4.03207 -0.11034
v -1.72728 4.03207 -0.18062
v -1.72728 4.03207 -0.29335
v -1.63328 4.03207 -0.36363
v -1.51605 4.03207 -0.33855
v -1.46388 4.11207 -0.23699
v -1.51605 4.11207 -0.13542
v -1.63328 4.11207 -0.11034
v -1.72728 4.11207 -0.18062
v -1.72728 4.11207 -0.29335
v -1.63328 4.11207 -0.36363
v -1.51605 4.11207 -0.33855
v -1.60244 4.15207 -0.23699
v -1.60244 4.15207 -0.23699
v -1.60244 4.15207 -0.23699
v -1.60244 4.15207 -0.23699
v -1.60244 4.15207 -0.23699
v -1.60244 4.15207 -0.23699
v -1.60244 4.15207 -0.23699
v -0.9 0.0 0.8
v -0.9 0.0 0.8
v -0.9 0.0 0.8
v -0.9 0.0 0.8
v -0.9 0.0 0.8
v -0.9 0.0 0.8
v -0.9 0.0 0.8
v -0.9 0.0 0.8
v -0.53627 0.07 0.8
v -0.6428 0.07 1.04495
v -0.9 0.07 1.14641
v -1.1572 0.07 1.04495
v -1.26373 0.07 0.8
v -1.1572 0.07 0.55505
v -0.9 0.07 0.45359
v -0.6428 0.07 0.55505
v -0.53627 0.21 0.8
v -0.6428 0.21 1.04495
v -0.9 0.21 1.14641
v -1.1572 0.21 1.04495
v -1.26373 0.21 0.8
v -1.1572 0.21 0.55505
v -0.9 0.21 0.45359
v -0.6428 0.21 0.55505
v -0.9 0.28 0.8
v -0.9 0.28 0.8
v -0.9 0.28 0.8
v -0.9 0.28 0.8
v -0.9 0.28 0.8
v -0.9 0.28 0.8
v -0.9 0.28 0.8
v -0.9 0.28 0.8
v -0.9 0.12007 0.64
v -0.88426 4.54245 0.64189
v -1.00285 0.12042 0.67743
v -0.98711 4.5428 0.67932
v -1.05757 0.12057 0.77222
v -1.04183 4.54296 0.7741
v -1.03856 0.12046 0.88
v -1.02283 4.54284 0.88189
v -0.95472 0.12013 0.95035
v -0.93899 4.54251 0.95224
v -0.84528 0.11974 0.95035
v -0.82954 4.54212 0.95224
v -0.76144 0.11947 0.88
v -0.7457 4.54186 0.88189
v -0.74243 0.11945 0.77222
v -0.72669 4.54183 0.7741
v -0.79715 0.11969 0.67743
v -0.78142 4.54207 0.67932
v -0.88898 3.13424 0.80189
v -1.80745 3.70163 0.78352
v -1.57511 3.79563 1.19208
v -1.34277 3.70163 1.60064
v -2.26123 3.78902 1.58227
v -0.90629 3.13424 0.77146
v -2.27853 3.78902 1.55185
v -0.90542 3.1035 0.79879
v -2.27766 3.75827 1.57917
v -0.88184 3.11524 0.8304
v -2.25409 3.77001 1.61078
v -0.86814 3.15325 0.82261
v -2.24038 3.80802 1.60299
v -0.88324 3.16499 0.78618
v -2.25549 3.81976 1.56656
v -0.88898 3.13424 0.80189
v -1.58973 3.71704 -0.05408
v -1.78743 3.82504 0.44842
v -1.98512 3.71704 0.95093
v -2.68587 3.81983 0.09496
v -0.87617 3.13424 0.76932
v -2.67305 3.81983 0.06239
v -0.89539 3.10288 0.78775
v -2.69227 3.78846 0.08082
v -0.90576 3.11486 0.82572
v -2.70264 3.80044 0.11879
v -0.89295 3.15363 0.83076
v -2.68983 3.83921 0.12383
v -0.87466 3.16561 0.7959
v -2.67154 3.85119 0.08897
v -0.88898 3.13424 0.80189
v -0.77807 3.54257 -0.4239
v -1.22686 3.63657 -0.2843
v -1.67565 3.54257 -0.1447
v -1.56474 3.47089 -1.37049
v -0.85556 3.13424 0.79149
v -1.53132 3.47089 -1.38088
v -0.8801 3.10132 0.79402
v -1.55586 3.43796 -1.37835
v -0.91692 3.11389 0.80742
v -1.59267 3.45054 -1.36495
v -0.91513 3.1546 0.81317
v -1.59088 3.49124 -1.3592
v -0.87721 3.16717 0.80333
v -1.55297 3.50382 -1.36905
v -0.88898 3.13424 0.80189
v -0.00346 3.33863 0.45543
v -0.45099 3.44663 0.15324
v -0.89851 3.33863 -0.14895
v -0.01299 3.06302 -0.49542
v -0.85998 3.13424 0.82147
v 0.01602 3.06302 -0.47583
v -0.88087 3.10099 0.80919
v -0.00487 3.02977 -0.48811
v -0.91297 3.11369 0.78682
v -0.03698 3.04247 -0.51049
v -0.91193 3.1548 0.78527
v -0.03593 3.08357 -0.51204
v -0.87917 3.1675 0.80669
v -0.00318 3.09627 -0.49062
v -0.88898 3.13424 0.80189
v 0.09781 3.29273 1.19983
v 0.06297 3.38673 0.73112
v 0.02812 3.29273 0.26242
v 1.01492 2.97121 0.66036
v -0.88639 3.13424 0.83679
v 1.01751 2.97121 0.69526
v -0.89101 3.10108 0.81288
v 1.01289 2.93804 0.67136
v -0.89283 3.11375 0.77378
v 1.01107 2.95071 0.63225
v -0.88934 3.15474 0.77352
v 1.01456 2.99171 0.63199
v -0.88536 3.16741 0.81246
v 1.01854 3.00437 0.67094
v -0.88898 3.13424 0.80189
v -0.52185 3.44706 1.99981
v -0.12417 3.55506 1.63451
v 0.27352 3.44706 1.2692
v 0.64065 3.27987 2.46712
v -0.91476 3.13424 0.82557
v 0.61487 3.27987 2.4908
v -0.8955 3.10103 0.81078
v 0.63413 3.24665 2.47601
v -0.86724 3.11371 0.78371
v 0.6624 3.25934 2.44894
v -0.86903 3.15477 0.78176
v 0.66061 3.3004 2.44699
v -0.8984 3.16746 0.80763
v 0.63124 3.31308 2.47286
v -0.88898 3.13424 0.80189
v -1.47714 3.65973 1.50265
v -1.01305 3.75373 1.57694
v -0.54896 3.65973 1.65123
v -1.13711 3.70522 2.35199
v -0.92354 3.13424 0.79636
v -1.17167 3.70522 2.34646
v -0.90146 3.10296 0.81141
v -1.14959 3.67393 2.36152
v -0.86214 3.11491 0.81331
v -1.11026 3.68588 2.36341
v -0.85991 3.15358 0.79942
v -1.10804 3.72455 2.34952
v -0.89787 3.16553 0.78894
v -1.14599 3.7365 2.33905
v -0.88426 4.64238 0.8
v -0.88426 4.64238 0.8
v -0.88426 4.64238 0.8
v -0.88426 4.64238 0.8
v -0.88426 4.64238 0.8
v -0.88426 4.64238 0.8
v -0.88426 4.64238 0.8
v -0.88426 4.64238 0.8
v -0.88426 4.64238 0.8
v -0.88426 4.64238 0.8
v -0.53071 4.6951 0.8
v -0.59823 4.6951 0.99534
v -0.77501 4.6951 1.11607
v -0.99352 4.6951 1.11607
v -1.17029 4.6951 0.99534
v -1.23782 4.6951 0.8
v -1.17029 4.6951 0.60466
v -0.99352 4.6951 0.48393
v -0.77501 4.6951 0.48393
v -0.59823 4.6951 0.60466
v -0.38426 4.82238 0.8
v -0.47975 4.82238 1.07626
v -0.72975 4.82238 1.247
v -1.03877 4.82238 1.247
v -1.28877 4.82238 1.07626
v -1.38426 4.82238 0.8
v -1.28877 4.82238 0.52374
v -1.03877 4.82238 0.353
v -0.72975 4.82238 0.353
v -0.47975 4.82238 0.52374
v -0.53071 4.94966 0.8
v -0.59823 4.94966 0.99534
v -0.77501 4.94966 1.11607
v -0.99352 4.94966 1.11607
v -1.17029 4.94966 0.99534
v -1.23782 4.94966 0.8
v -1.17029 4.94966 0.60466
v -0.99352 4.94966 0.48393
v -0.77501 4.94966 0.48393
v -0.59823 4.94966 0.60466
v -0.88426 5.00238 0.8
v -0.88426 5.00238 0.8
v -0.88426 5.00238 0.8
v -0.88426 5.00238 0.8
v -0.88426 5.00238 0.8
v -0.88426 5.00238 0.8
v -0.88426 5.00238 0.8
v -0.88426 5.00238 0.8
v -0.88426 5.00238 0.8
v -0.88426 5.00238 0.8
v -0.93838 4.67238 1.17683
v -0.93838 4.67238 1.17683
v -0.93838 4.67238 1.17683
v -0.93838 4.67238 1.17683
v -0.93838 4.67238 1.17683
v -0.93838 4.67238 1.17683
v -0.93838 4.67238 1.17683
v -0.79981 4.71238 1.17683
v -0.85198 4.71238 1.2784
v -0.96921 4.71238 1.30348
v -1.06322 4.71238 1.2332
v -1.06322 4.71238 1.12047
v -0.96921 4.71238 1.05019
v -0.85198 4.71238 1.07527
v -0.79981 4.79238 1.17683
v -0.85198 4.79238 1.2784
v -0.96921 4.79238 1.30348
v -1.06322 4.79238 1.2332
v -1.06322 4.79238 1.12047
v -0.96921 4.79238 1.05019
v -0.85198 4.79238 1.07527
v -0.93838 4.83238 1.17683
v -0.93838 4.83238 1.17683
v -0.93838 4.83238 1.17683
v -0.93838 4.83238 1.17683
v -0.93838 4.83238 1.17683
v -0.93838 4.83238 1.17683
v -0.93838 4.83238 1.17683
v -1.2971 4.67238 0.86988
v -1.2971 4.67238 0.86988
v -1.2971 4.67238 0.86988
v -1.2971 4.67238 0.86988
v -1.2971 4.67238 0.86988
v -1.2971 4.67238 0.86988
v -1.2971 4.67238 0.86988
v -1.15854 4.71238 0.86988
v -1.21071 4.71238 0.97145
v -1.32793 4.71238 0.99653
v -1.42194 4.71238 0.92625
v -1.42194 4.71238 0.81352
v -1.32793 4.71238 0.74324
v -1.21071 4.71238 0.76832
v -1.15854 4.79238 0.86988
v -1.21071 4.79238 0.97145
v -1.32793 4.79238 0.99653
v -1.42194 4.79238 0.92625
v -1.42194 4.79238 0.81352
v -1.32793 4.79238 0.74324
v -1.21071 4.79238 0.76832
v -1.2971 4.83238 0.86988
v -1.2971 4.83238 0.86988
v -1.2971 4.83238 0.86988
v -1.2971 4.83238 0.86988
v -1.2971 4.83238 0.86988
v -1.2971 4.83238 0.86988
v -1.2971 4.83238 0.86988
v -1.0853 4.67238 0.46636
v -1.0853 4.67238 0.46636
v -1.0853 4.67238 0.46636
v -1.0853 4.67238 0.46636
v -1.0853 4.67238 0.46636
v -1.0853 4.67238 0.46636
v -1.0853 4.67238 0.46636
v -0.94673 4.71238 0.46636
v -0.9989 4.71238 0.56792
v -1.11613 4.71238 0.593
v -1.21014 4.71238 0.52272
v -1.21014 4.71238 0.40999
v -1.11613 4.71238 0.33971
v -0.9989 4.71238 0.36479
v -0.94673 4.79238 0.46636
v -0.9989 4.79238 0.56792
v -1.11613 4.79238 0.593
v -1.21014 4.79238 0.52272
v -1.21014 4.79238 0.40999
v -1.11613 4.79238 0.33971
v -0.9989 4.79238 0.36479
v -1.0853 4.83238 0.46636
v -1.0853 4.83238 0.46636
v -1.0853 4.83238 0.46636
v -1.0853 4.83238 0.46636
v -1.0853 4.83238 0.46636
v -1.0853 4.83238 0.46636
v -1.0853 4.83238 0.46636
v -0.59567 4.67238 0.52391
v -0.59567 4.67238 0.52391
v -0.59567 4.67238 0.52391
v -0.59567 4.67238 0.52391
v -0.59567 4.67238 0.52391
v -0.59567 4.67238 0.52391
v -0.59567 4.67238 0.52391
v -0.45711 4.71238 0.52391
v -0.50928 4.71238 0.62548
v -0.6265 4.71238 0.65056
v -0.72051 4.71238 0.58028
v -0.72051 4.71238 0.46755
v -0.6265 4.71238 0.39727
v -0.50928 4.71238 0.42235
v -0.45711 4.79238 0.52391
v -0.50928 4.79238 0.62548
v -0.6265 4.79238 0.65056
v -0.72051 4.79238 0.58028
v -0.72051 4.79238 0.46755
v -0.6265 4.79238 0.39727
v -0.50928 4.79238 0.42235
v -0.59567 4.83238 0.52391
v -0.59567 4.83238 0.52391
v -0.59567 4.83238 0.52391
v -0.59567 4.83238 0.52391
v -0.59567 4.83238 0.52391
v -0.59567 4.83238 0.52391
v -0.59567 4.83238 0.52391
v -0.50487 4.67238 0.96301
v -0.50487 4.67238 0.96301
v -0.50487 4.67238 0.96301
v -0.50487 4.67238 0.96301
v -0.50487 4.67238 0.96301
v -0.50487 4.67238 0.96301
v -0.50487 4.67238 0.96301
v -0.36631 4.71238 0.96301
v -0.41848 4.71238 1.06458
v -0.5357 4.71238 1.08966
v -0.62971 4.71238 1.01938
v -0.62971 4.71238 0.90665
v -0.5357 4.71238 0.83637
v -0.41848 4.71238 0.86145
v -0.36631 4.79238 0.96301
v -0.41848 4.79238 1.06458
v -0.5357 4.79238 1.08966
v -0.62971 4.79238 1.01938
v -0.62971 4.79238 0.90665
v -0.5357 4.79238 0.83637
v -0.41848 4.79238 0.86145
v -0.50487 4.83238 0.96301
v -0.50487 4.83238 0.96301
v -0.50487 4.83238 0.96301
v -0.50487 4.83238 0.96301
v -0.50487 4.83238 0.96301
v -0.50487 4.83238 0.96301
v -0.50487 4.83238 0.96301
v 0.7 0.0 -0.5
v 0.7 0.0 -0.5
v 0.7 0.0 -0.5
v 0.7 0.0 -0.5
v 0.7 0.0 -0.5
v 0.7 0.0 -0.5
v 0.7 0.0 -0.5
v 0.7 0.0 -0.5
v 1.06373 0.07 -0.5
v 0.9572 0.07 -0.25505
v 0.7 0.07 -0.15359
v 0.4428 0.07 -0.25505
v 0.33627 0.07 -0.5
v 0.4428 0.07 -0.74495
v 0.7 0.07 -0.84641
v 0.9572 0.07 -0.74495
v 1.06373 0.21 -0.5
v 0.9572 0.21 -0.25505
v 0.7 0.21 -0.15359
v 0.4428 0.21 -0.25505
v 0.33627 0.21 -0.5
v 0.4428 0.21 -0.74495
v 0.7 0.21 -0.84641
v 0.9572 0.21 -0.74495
v 0.7 0.28 -0.5
v 0.7 0.28 -0.5
v 0.7 0.28 -0.5
v 0.7 0.28 -0.5
v 0.7 0.28 -0.5
v 0.7 0.28 -0.5
v 0.7 0.28 -0.5
v 0.7 0.28 -0.5
v 0.7 0.11858 -0.71
v 0.48811 3.88935 -0.73542
v 0.56523 0.11134 -0.66081
v 0.35334 3.88211 -0.68624
v 0.49352 0.10815 -0.53639
v 0.28163 3.87892 -0.56181
v 0.51842 0.11051 -0.39493
v 0.30653 3.88128 -0.42036
v 0.62829 0.1173 -0.30264
v 0.4164 3.88807 -0.32807
v 0.77171 0.12536 -0.3027
v 0.55982 3.89613 -0.32812
v 0.88158 0.13091 -0.39507
v 0.66969 3.90168 -0.4205
v 0.90648 0.13136 -0.53654
v 0.6946 3.90213 -0.56197
v 0.83477 0.12649 -0.66092
v 0.62288 3.89726 -0.68634
v 0.55168 2.68463 -0.52543
v 0.01554 3.21825 -1.27942
v -0.17602 3.31225 -0.85023
v -0.36759 3.21825 -0.42104
v -0.90372 3.27186 -1.17503
v 0.56594 2.68463 -0.55739
v -0.88946 3.27186 -1.207
v 0.54558 2.6534 -0.53999
v -0.90982 3.24063 -1.1896
v 0.53364 2.66533 -0.50247
v -0.92176 3.25256 -1.15208
v 0.54663 2.70394 -0.49667
v -0.90877 3.29117 -1.14628
v 0.5666 2.71587 -0.53061
v -0.88881 3.3031 -1.18022
v 0.55168 2.68463 -0.52543
v 0.87066 3.06881 -1.62992
v 0.34228 3.17681 -1.51851
v -0.1861 3.06881 -1.4071
v 0.13289 2.97298 -2.51159
v 0.58592 2.68463 -0.53265
v 0.16713 2.97298 -2.51881
v 0.56129 2.65168 -0.53224
v 0.1425 2.94003 -2.5184
v 0.52337 2.66426 -0.52242
v 0.10458 2.95262 -2.50858
v 0.52457 2.705 -0.51675
v 0.10578 2.99335 -2.50291
v 0.56323 2.71759 -0.52308
v 0.14444 3.00594 -2.50924
v 0.55168 2.68463 -0.52543
v 1.7039 2.89413 -1.20931
v 1.33749 2.98813 -1.50365
v 0.97107 2.89413 -1.79799
v 2.12329 2.62362 -2.48188
v 0.57896 2.68463 -0.50351
v 2.15058 2.62362 -2.45996
v 0.5596 2.65135 -0.51802
v 2.13122 2.59035 -2.47447
v 0.52929 2.66407 -0.54277
v 2.10091 2.60306 -2.49922
v 0.52992 2.7052 -0.54355
v 2.10153 2.64419 -2.5
v 0.56062 2.71791 -0.51928
v 2.13223 2.6569 -2.47573
v 0.55168 2.68463 -0.52543
v 1.51254 2.85481 -0.01683
v 1.49473 2.96281 -0.55654
v 1.47693 2.85481 -1.09624
v 2.43779 2.54498 -0.58764
v 0.55283 2.68463 -0.49045
v 2.43895 2.54498 -0.55266
v 0.54958 2.65144 -0.51454
v 2.43569 2.51179 -0.57675
v 0.54923 2.66412 -0.55368
v 2.43534 2.52447 -0.61589
v 0.55226 2.70515 -0.55378
v 2.43838 2.5655 -0.61599
v 0.55449 2.71783 -0.5147
v 2.4406 2.57818 -0.57692
v 0.55168 2.68463 -0.52543
v 0.97908 2.987 0.59638
v 1.31771 3.081 0.27044
v 1.65634 2.987 -0.05549
v 2.08375 2.80936 1.06632
v 0.52646 2.68463 -0.50116
v 2.05853 2.80936 1.09059
v 0.54519 2.6514 -0.51657
v 2.07725 2.77613 1.07517
v 0.57288 2.66409 -0.54423
v 2.10495 2.78882 1.04752
v 0.57127 2.70517 -0.5459
v 2.10334 2.8299 1.04584
v 0.54258 2.71787 -0.51928
v 2.07465 2.8426 1.07246
v 0.55168 2.68463 -0.52543
v -0.12197 3.16916 0.6283
v 0.41462 3.27716 0.68886
v 0.95121 3.16916 0.74943
v 0.27756 3.1737 1.90315
v 0.5169 2.68463 -0.52935
v 0.24278 3.1737 1.89923
v 0.5402 2.65199 -0.52015
v 0.26608 3.14106 1.90843
v 0.57936 2.66446 -0.51824
v 0.30524 3.15352 1.91034
v 0.58027 2.7048 -0.52626
v 0.30615 3.19387 1.90232
v 0.54166 2.71727 -0.53313
v 0.26755 3.20634 1.89545
v 0.55168 2.68463 -0.52543
v -0.38632 3.23382 -0.49527
v -0.138 3.32782 -0.09623
v 0.11033 3.23382 0.30281
v -0.82767 3.30301 0.33296
v 0.53319 2.68463 -0.55514
v -0.84616 3.30301 0.30325
v 0.53591 2.65352 -0.52835
v -0.84344 3.27191 0.33004
v 0.56043 2.66541 -0.49752
v -0.81892 3.28379 0.36087
v 0.57285 2.70386 -0.50525
v -0.80649 3.32224 0.35314
v 0.55602 2.71574 -0.54087
v -0.82333 3.33412 0.31753
v 0.48811 3.99077 -0.5
v 0.48811 3.99077 -0.5
v 0.48811 3.99077 -0.5
v 0.48811 3.99077 -0.5
v 0.48811 3.99077 -0.5
v 0.48811 3.99077 -0.5
v 0.48811 3.99077 -0.5
v 0.48811 3.99077 -0.5
v 0.48811 3.99077 -0.5
v 0.48811 3.99077 -0.5
v 0.84166 4.04349 -0.5
v 0.77414 4.04349 -0.30466
v 0.59737 4.04349 -0.18393
v 0.37886 4.04349 -0.18393
v 0.20208 4.04349 -0.30466
v 0.13456 4.04349 -0.5
v 0.20208 4.04349 -0.69534
v 0.37886 4.04349 -0.81607
v 0.59737 4.04349 -0.81607
v 0.77414 4.04349 -0.69534
v 0.98811 4.17077 -0.5
v 0.89262 4.17077 -0.22374
v 0.64262 4.17077 -0.053
v 0.3336 4.17077 -0.053
v 0.0836 4.17077 -0.22374
v -0.01189 4.17077 -0.5
v 0.0836 4.17077 -0.77626
v 0.3336 4.17077 -0.947
v 0.64262 4.17077 -0.947
v 0.89262 4.17077 -0.77626
v 0.84166 4.29805 -0.5
v 0.77414 4.29805 -0.30466
v 0.59737 4.29805 -0.18393
v 0.37886 4.29805 -0.18393
v 0.20208 4.29805 -0.30466
v 0.13456 4.29805 -0.5
v 0.20208 4.29805 -0.69534
v 0.37886 4.29805 -0.81607
v 0.59737 4.29805 -0.81607
v 0.77414 4.29805 -0.69534
v 0.48811 4.35077 -0.5
v 0.48811 4.35077 -0.5
v 0.48811 4.35077 -0.5
v 0.48811 4.35077 -0.5
v 0.48811 4.35077 -0.5
v 0.48811 4.35077 -0.5
v 0.48811 4.35077 -0.5
v 0.48811 4.35077 -0.5
v 0.48811 4.35077 -0.5
v 0.48811 4.35077 -0.5
v 0.434 4.02077 -0.12317
v 0.434 4.02077 -0.12317
v 0.434 4.02077 -0.12317
v 0.434 4.02077 -0.12317
v 0.434 4.02077 -0.12317
v 0.434 4.02077 -0.12317
v 0.434 4.02077 -0.12317
v 0.57256 4.06077 -0.12317
v 0.52039 4.06077 -0.0216
v 0.40316 4.06077 0.00348
v 0.30915 4.06077 -0.0668
v 0.30915 4.06077 -0.17953
v 0.40316 4.06077 -0.24981
v 0.52039 4.06077 -0.22473
v 0.57256 4.14077 -0.12317
v 0.52039 4.14077 -0.0216
v 0.40316 4.14077 0.00348
v 0.30915 4.14077 -0.0668
v 0.30915 4.14077 -0.17953
v 0.40316 4.14077 -0.24981
v 0.52039 4.14077 -0.22473
v 0.434 4.18077 -0.12317
v 0.434 4.18077 -0.12317
v 0.434 4.18077 -0.12317
v 0.434 4.18077 -0.12317
v 0.434 4.18077 -0.12317
v 0.434 4.18077 -0.12317
v 0.434 4.18077 -0.12317
v 0.07527 4.02077 -0.43012
v 0.07527 4.02077 -0.43012
v 0.07527 4.02077 -0.43012
v 0.07527 4.02077 -0.43012
v 0.07527 4.02077 -0.43012
v 0.07527 4.02077 -0.43012
v 0.07527 4.02077 -0.43012
v 0.21384 4.06077 -0.43012
v 0.16167 4.06077 -0.32855
v 0.04444 4.06077 -0.30347
v -0.04957 4.06077 -0.37375
v -0.04957 4.06077 -0.48648
v 0.04444 4.06077 -0.55676
v 0.16167 4.06077 -0.53168
v 0.21384 4.14077 -0.43012
v 0.16167 4.14077 -0.32855
v 0.04444 4.14077 -0.30347
v -0.04957 4.14077 -0.37375
v -0.04957 4.14077 -0.48648
v 0.04444 4.14077 -0.55676
v 0.16167 4.14077 -0.53168
v 0.07527 4.18077 -0.43012
v 0.07527 4.18077 -0.43012
v 0.07527 4.18077 -0.43012
v 0.07527 4.18077 -0.43012
v 0.07527 4.18077 -0.43012
v 0.07527 4.18077 -0.43012
v 0.07527 4.18077 -0.43012
v 0.28708 4.02077 -0.83364
v 0.28708 4.02077 -0.83364
v 0.28708 4.02077 -0.83364
v 0.28708 4.02077 -0.83364
v 0.28708 4.02077 -0.83364
v 0.28708 4.02077 -0.83364
v 0.28708 4.02077 -0.83364
v 0.42564 4.06077 -0.83364
v 0.37347 4.06077 -0.73208
v 0.25625 4.06077 -0.707
v 0.16224 4.06077 -0.77728
v 0.16224 4.06077 -0.89001
v 0.25625 4.06077 -0.96029
v 0.37347 4.06077 -0.93521
v 0.42564 4.14077 -0.83364
v 0.37347 4.14077 -0.73208
v 0.25625 4.14077 -0.707
v 0.16224 4.14077 -0.77728
v 0.16224 4.14077 -0.89001
v 0.25625 4.14077 -0.96029
v 0.37347 4.14077 -0.93521
v 0.28708 4.18077 -0.83364
v 0.28708 4.18077 -0.83364
v 0.28708 4.18077 -0.83364
v 0.28708 4.18077 -0.83364
v 0.28708 4.18077 -0.83364
v 0.28708 4.18077 -0.83364
v 0.28708 4.18077 -0.83364
v 0.7767 4.02077 -0.77609
v 0.7767 4.02077 -0.77609
v 0.7767 4.02077 -0.77609
v 0.7767 4.02077 -0.77609
v 0.7767 4.02077 -0.77609
v 0.7767 4.02077 -0.77609
v 0.7767 4.02077 -0.77609
v 0.91527 4.06077 -0.77609
v 0.8631 4.06077 -0.67452
v 0.74587 4.06077 -0.64944
v 0.65186 4.06077 -0.71972
v 0.65186 4.06077 -0.83245
v 0.74587 4.06077 -0.90273
v 0.8631 4.06077 -0.87765
v 0.91527 4.14077 -0.77609
v 0.8631 4.14077 -0.67452
v 0.74587 4.14077 -0.64944
v 0.65186 4.14077 -0.71972
v 0.65186 4.14077 -0.83245
v 0.74587 4.14077 -0.90273
v 0.8631 4.14077 -0.87765
v 0.7767 4.18077 -0.77609
v 0.7767 4.18077 -0.77609
v 0.7767 4.18077 -0.77609
v 0.7767 4.18077 -0.77609
v 0.7767 4.18077 -0.77609
v 0.7767 4.18077 -0.77609
v 0.7767 4.18077 -0.77609
v 0.8675 4.02077 -0.33699
v 0.8675 4.02077 -0.33699
v 0.8675 4.02077 -0.33699
v 0.8675 4.02077 -0.33699
v 0.8675 4.02077 -0.33699
v 0.8675 4.02077 -0.33699
v 0.8675 4.02077 -0.33699
v 1.00607 4.06077 -0.33699
v 0.9539 4.06077 -0.23542
v 0.83667 4.06077 -0.21034
v 0.74266 4.06077 -0.28062
v 0.74266 4.06077 -0.39335
v 0.83667 4.06077 -0.46363
v 0.9539 4.06077 -0.43855
v 1.00607 4.14077 -0.33699
v 0.9539 4.14077 -0.23542
v 0.83667 4.14077 -0.21034
v 0.74266 4.14077 -0.28062
v 0.74266 4.14077 -0.39335
v 0.83667 4.14077 -0.46363
v 0.9539 4.14077 -0.43855
v 0.8675 4.18077 -0.33699
v 0.8675 4.18077 -0.33699
v 0.8675 4.18077 -0.33699
v 0.8675 4.18077 -0.33699
v 0.8675 4.18077 -0.33699
v 0.8675 4.18077 -0.33699
v 0.8675 4.18077 -0.33699
v 2.1 0.0 0.6
v 2.1 0.0 0.6
v 2.1 0.0 0.6
v 2.1 0.0 0.6
v 2.1 0.0 0.6
v 2.1 0.0 0.6
v 2.1 0.0 0.6
v 2.1 0.0 0.6
v 2.46373 0.07 0.6
v 2.3572 0.07 0.84495
v 2.1 0.07 0.94641
v 1.8428 0.07 0.84495
v 1.73627 0.07 0.6
v 1.8428 0.07 0.35505
v 2.1 0.07 0.25359
v 2.3572 0.07 0.35505
v 2.46373 0.21 0.6
v 2.3572 0.21 0.84495
v 2.1 0.21 0.94641
v 1.8428 0.21 0.84495
v 1.73627 0.21 0.6
v 1.8428 0.21 0.35505
v 2.1 0.21 0.25359
v 2.3572 0.21 0.35505
v 2.1 0.28 0.6
v 2.1 0.28 0.6
v 2.1 0.28 0.6
v 2.1 0.28 0.6
v 2.1 0.28 0.6
v 2.1 0.28 0.6
v 2.1 0.28 0.6
v 2.1 0.28 0.6
v 2.1 0.11936 0.44
v 1.99974 3.10401 0.42797
v 1.99721 0.11605 0.47745
v 1.89695 3.10071 0.46542
v 1.94252 0.1146 0.57224
v 1.84226 3.09925 0.56021
v 1.96151 0.11567 0.68002
v 1.86125 3.10033 0.66799
v 2.04531 0.11877 0.75036
v 1.94505 3.10343 0.73833
v 2.15469 0.12244 0.75034
v 2.05443 3.1071 0.73831
v 2.23849 0.12497 0.67998
v 2.13823 3.10963 0.66795
v 2.25748 0.12518 0.5722
v 2.15722 3.10983 0.56016
v 2.20279 0.12296 0.47742
v 2.10253 3.10761 0.46539
v 2.02982 2.14221 0.58797
v 2.28532 2.49726 -0.43235
v 1.82643 2.59126 -0.33076
v 1.36754 2.49726 -0.22917
v 1.62304 2.37231 -1.24949
v 2.06399 2.14221 0.5804
v 1.65721 2.37231 -1.25705
v 2.03951 2.10917 0.58169
v 1.63273 2.33926 -1.25577
v 2.00163 2.12179 0.59165
v 1.59485 2.35188 -1.24581
v 2.00271 2.16263 0.59653
v 1.59593 2.39273 -1.24093
v 2.04125 2.17525 0.58958
v 1.63447 2.40535 -1.24788
v 2.02982 2.14221 0.58797
v 3.16677 2.35787 0.02767
v 2.74445 2.46587 -0.30886
v 2.32213 2.35787 -0.64538
v 3.45909 2.09353 -1.20568
v 2.05719 2.14221 0.60978
v 3.48646 2.09353 -1.18387
v 2.03784 2.10893 0.59526
v 3.4671 2.06025 -1.19839
v 2.0074 2.12164 0.57066
v 3.43667 2.07296 -1.22299
v 2.00795 2.16278 0.56998
v 3.43721 2.1141 -1.22367
v 2.03872 2.17549 0.59416
v 3.46798 2.12681 -1.19949
v 2.02982 2.14221 0.58797
v 3.3801 2.3265 1.02734
v 3.3694 2.4205 0.55746
v 3.3587 2.3265 0.08758
v 4.70898 2.03078 0.52696
v 2.03062 2.14221 0.62296
v 4.70977 2.03078 0.56195
v 2.02868 2.10895 0.59881
v 4.70784 1.99752 0.5378
v 2.02832 2.12166 0.55968
v 4.70748 2.01022 0.49867
v 2.03003 2.16277 0.55964
v 4.70919 2.05133 0.49863
v 2.03145 2.17547 0.59875
v 4.71061 2.06404 0.53774
v 2.02982 2.14221 0.58797
v 2.27665 2.43198 1.68158
v 2.681 2.53998 1.32368
v 3.08536 2.43198 0.96577
v 3.33219 2.24174 2.05939
v 2.00361 2.14221 0.61117
v 3.30598 2.24174 2.08258
v 2.02284 2.10897 0.5964
v 3.32521 2.2085 2.06782
v 2.05171 2.12167 0.56998
v 3.35408 2.2212 2.0414
v 2.05033 2.16276 0.56842
v 3.3527 2.26229 2.03984
v 2.0206 2.17546 0.59388
v 3.32298 2.27499 2.06529
v 2.02982 2.14221 0.58797
v 1.38077 2.57734 1.62511
v 1.84439 2.67134 1.70226
v 2.30801 2.57734 1.77941
v 1.65896 2.53246 2.81655
v 1.99529 2.14221 0.58222
v 1.62444 2.53246 2.8108
v 2.01822 2.10941 0.59178
v 1.64736 2.49966 2.82036
v 2.05718 2.12194 0.59607
v 1.68632 2.51219 2.82465
v 2.05832 2.16249 0.58916
v 1.68747 2.55274 2.81774
v 2.02008 2.17501 0.5806
v 1.64922 2.56527 2.80918
v 2.02982 2.14221 0.58797
v 0.64961 2.62893 0.71734
v 0.90545 2.73693 1.19289
v 1.1613 2.62893 1.66843
v -0.21892 2.63565 1.7978
v 2.01324 2.14221 0.55715
v -0.2355 2.63565 1.76698
v 2.01913 2.10953 0.58144
v -0.2296 2.60297 1.79127
v 2.0398 2.12201 0.61475
v -0.20894 2.61546 1.82459
v 2.04667 2.16241 0.61106
v -0.20206 2.65585 1.82089
v 2.03026 2.1749 0.57545
v -0.21848 2.66834 1.78529
v 2.02982 2.14221 0.58797
v 1.38933 2.53933 -0.22326
v 1.19322 2.63333 0.20387
v 0.99712 2.53933 0.631
v 0.35663 2.45644 -0.18023
v 2.04442 2.14221 0.55616
v 0.37123 2.45644 -0.21204
v 2.02924 2.1094 0.5758
v 0.35605 2.42363 -0.1924
v 2.01486 2.12193 0.61226
v 0.34167 2.43616 -0.15595
v 2.02115 2.16249 0.61515
v 0.34796 2.47672 -0.15306
v 2.03942 2.17503 0.58048
v 0.36623 2.48925 -0.18773
v 1.99974 3.20466 0.6
v 1.99974 3.20466 0.6
v 1.99974 3.20466 0.6
v 1.99974 3.20466 0.6
v 1.99974 3.20466 0.6
v 1.99974 3.20466 0.6
v 1.99974 3.20466 0.6
v 1.99974 3.20466 0.6
v 1.99974 3.20466 0.6
v 1.99974 3.20466 0.6
v 2.35329 3.25738 0.6
v 2.28577 3.25738 0.79534
v 2.10899 3.25738 0.91607
v 1.89049 3.25738 0.91607
v 1.71371 3.25738 0.79534
v 1.64619 3.25738 0.6
v 1.71371 3.25738 0.40466
v 1.89049 3.25738 0.28393
v 2.10899 3.25738 0.28393
v 2.28577 3.25738 0.40466
v 2.49974 3.38466 0.6
v 2.40425 3.38466 0.87626
v 2.15425 3.38466 1.047
v 1.84523 3.38466 1.047
v 1.59523 3.38466 0.87626
v 1.49974 3.38466 0.6
v 1.59523 3.38466 0.32374
v 1.84523 3.38466 0.153
v 2.15425 3.38466 0.153
v 2.40425 3.38466 0.32374
v 2.35329 3.51194 0.6
v 2.28577 3.51194 0.79534
v 2.10899 3.51194 0.91607
v 1.89049 3.51194 0.91607
v 1.71371 3.51194 0.79534
v 1.64619 3.51194 0.6
v 1.71371 3.51194 0.40466
v 1.89049 3.51194 0.28393
v 2.10899 3.51194 0.28393
v 2.28577 3.51194 0.40466
v 1.99974 3.56466 0.6
v 1.99974 3.56466 0.6
v 1.99974 3.56466 0.6
v 1.99974 3.56466 0.6
v 1.99974 3.56466 0.6
v 1.99974 3.56466 0.6
v 1.99974 3.56466 0.6
v 1.99974 3.56466 0.6
v 1.99974 3.56466 0.6
v 1.99974 3.56466 0.6
v 1.94563 3.23466 0.97683
v 1.94563 3.23466 0.97683
v 1.94563 3.23466 0.97683
v 1.94563 3.23466 0.97683
v 1.94563 3.23466 0.97683
v 1.94563 3.23466 0.97683
v 1.94563 3.23466 0.97683
v 2.08419 3.27466 0.97683
v 2.03202 3.27466 1.0784
v 1.91479 3.27466 1.10348
v 1.82078 3.27466 1.0332
v 1.82078 3.27466 0.92047
v 1.91479 3.27466 0.85019
v 2.03202 3.27466 0.87527
v 2.08419 3.35466 0.97683
v 2.03202 3.35466 1.0784
v 1.91479 3.35466 1.10348
v 1.82078 3.35466 1.0332
v 1.82078 3.35466 0.92047
v 1.91479 3.35466 0.85019
v 2.03202 3.35466 0.87527
v 1.94563 3.39466 0.97683
v 1.94563 3.39466 0.97683
v 1.94563 3.39466 0.97683
v 1.94563 3.39466 0.97683
v 1.94563 3.39466 0.97683
v 1.94563 3.39466 0.97683
v 1.94563 3.39466 0.97683
v 1.5869 3.23466 0.66988
v 1.5869 3.23466 0.66988
v 1.5869 3.23466 0.66988
v 1.5869 3.23466 0.66988
v 1.5869 3.23466 0.66988
v 1.5869 3.23466 0.66988
v 1.5869 3.23466 0.66988
v 1.72547 3.27466 0.66988
v 1.6733 3.27466 0.77145
v 1.55607 3.27466 0.79653
v 1.46206 3.27466 0.72625
v 1.46206 3.27466 0.61352
v 1.55607 3.27466 0.54324
v 1.6733 3.27466 0.56832
v 1.72547 3.35466 0.66988
v 1.6733 3.35466 0.77145
v 1.55607 3.35466 0.79653
v 1.46206 3.35466 0.72625
v 1.46206 3.35466 0.61352
v 1.55607 3.35466 0.54324
v 1.6733 3.35466 0.56832
v 1.5869 3.39466 0.66988
v 1.5869 3.39466 0.66988
v 1.5869 3.39466 0.66988
v 1.5869 3.39466 0.66988
v 1.5869 3.39466 0.66988
v 1.5869 3.39466 0.66988
v 1.5869 3.39466 0.66988
v 1.79871 3.23466 0.26636
v 1.79871 3.23466 0.26636
v 1.79871 3.23466 0.26636
v 1.79871 3.23466 0.26636
v 1.79871 3.23466 0.26636
v 1.79871 3.23466 0.26636
v 1.79871 3.23466 0.26636
v 1.93727 3.27466 0.26636
v 1.8851 3.27466 0.36792
v 1.76787 3.27466 0.393
v 1.67387 3.27466 0.32272
v 1.67387 3.27466 0.20999
v 1.76787 3.27466 0.13971
v 1.8851 3.27466 0.16479
v 1.93727 3.35466 0.26636
v 1.8851 3.35466 0.36792
v 1.76787 3.35466 0.393
v 1.67387 3.35466 0.32272
v 1.67387 3.35466 0.20999
v 1.76787 3.35466 0.13971
v 1.8851 3.35466 0.16479
v 1.79871 3.39466 0.26636
v 1.79871 3.39466 0.26636
v 1.79871 3.39466 0.26636
v 1.79871 3.39466 0.26636
v 1.79871 3.39466 0.26636
v 1.79871 3.39466 0.26636
v 1.79871 3.39466 0.26636
v 2.28833 3.23466 0.32391
v 2.28833 3.23466 0.32391
v 2.28833 3.23466 0.32391
v 2.28833 3.23466 0.32391
v 2.28833 3.23466 0.32391
v 2.28833 3.23466 0.32391
v 2.28833 3.23466 0.32391
v 2.4269 3.27466 0.32391
v 2.37473 3.27466 0.42548
v 2.2575 3.27466 0.45056
v 2.16349 3.27466 0.38028
v 2.16349 3.27466 0.26755
v 2.2575 3.27466 0.19727
v 2.37473 3.27466 0.22235
v 2.4269 3.35466 0.32391
v 2.37473 3.35466 0.42548
v 2.2575 3.35466 0.45056
v 2.16349 3.35466 0.38028
v 2.16349 3.35466 0.26755
v 2.2575 3.35466 0.19727
v 2.37473 3.35466 0.22235
v 2.28833 3.39466 0.32391
v 2.28833 3.39466 0.32391
v 2.28833 3.39466 0.32391
v 2.28833 3.39466 0.32391
v 2.28833 3.39466 0.32391
v 2.28833 3.39466 0.32391
v 2.28833 3.39466 0.32391
v 2.37913 3.23466 0.76301
v 2.37913 3.23466 0.76301
v 2.37913 3.23466 0.76301
v 2.37913 3.23466 0.76301
v 2.37913 3.23466 0.76301
v 2.37913 3.23466 0.76301
v 2.37913 3.23466 0.76301
v 2.5177 3.27466 0.76301
v 2.46553 3.27466 0.86458
v 2.3483 3.27466 0.88966
v 2.25429 3.27466 0.81938
v 2.25429 3.27466 0.70665
v 2.3483 3.27466 0.63637
v 2.46553 3.27466 0.66145
v 2.5177 3.35466 0.76301
v 2.46553 3.35466 0.86458
v 2.3483 3.35466 0.88966
v 2.25429 3.35466 0.81938
v 2.25429 3.35466 0.70665
v 2.3483 3.35466 0.63637
v 2.46553 3.35466 0.66145
v 2.37913 3.39466 0.76301
v 2.37913 3.39466 0.76301
v 2.37913 3.39466 0.76301
v 2.37913 3.39466 0.76301
v 2.37913 3.39466 0.76301
v 2.37913 3.39466 0.76301
v 2.37913 3.39466 0.76301
v -0.02038 0.04 0.6664
v -0.12038 0.49 0.6664
v -0.10038 0.04 0.80496
v -0.15038 0.49 0.71836
v -0.26038 0.04 0.80496
v -0.21038 0.49 0.71836
v -0.34038 0.04 0.6664
v -0.24038 0.49 0.6664
v -0.26038 0.04 0.52783
v -0.21038 0.49 0.61444
v -0.10038 0.04 0.52783
v -0.15038 0.49 0.61444
v -2.05622 0.04 -1.51111
v -2.15622 0.61 -1.51111
v -2.13622 0.04 -1.37255
v -2.18622 0.61 -1.45915
v -2.29622 0.04 -1.37255
v -2.24622 0.61 -1.45915
v -2.37622 0.04 -1.51111
v -2.27622 0.61 -1.51111
v -2.29622 0.04 -1.64968
v -2.24622 0.61 -1.56307
v -2.13622 0.04 -1.64968
v -2.18622 0.61 -1.56307
v 2.55369 0.04 0.25068
v 2.45369 0.73 0.25068
v 2.47369 0.04 0.38925
v 2.42369 0.73 0.30265
v 2.31369 0.04 0.38925
v 2.36369 0.73 0.30265
v 2.23369 0.04 0.25068
v 2.33369 0.73 0.25068
v 2.31369 0.04 0.11212
v 2.36369 0.73 0.19872
v 2.47369 0.04 0.11212
v 2.42369 0.73 0.19872
v -4.07325 0.04 1.1845
v -4.17325 0.85 1.1845
v -4.15325 0.04 1.32307
v -4.20325 0.85 1.23646
v -4.31325 0.04 1.32307
v -4.26325 0.85 1.23646
v -4.39325 0.04 1.1845
v -4.29325 0.85 1.1845
v -4.31325 0.04 1.04594
v -4.26325 0.85 1.13254
v -4.15325 0.04 1.04594
v -4.20325 0.85 1.13254
v 1.19574 0.04 -1.60475
v 1.09574 0.49 -1.60475
v 1.11574 0.04 -1.46619
v 1.06574 0.49 -1.55279
v 0.95574 0.04 -1.46619
v 1.00574 0.49 -1.55279
v 0.87574 0.04 -1.60475
v 0.97574 0.49 -1.60475
v 0.95574 0.04 -1.74332
v 1.00574 0.49 -1.65672
v 1.11574 0.04 -1.74332
v 1.06574 0.49 -1.65672
v 1.05859 0.04 0.91106
v 0.95859 0.61 0.91106
v 0.97859 0.04 1.04962
v 0.92859 0.61 0.96302
v 0.81859 0.04 1.04962
v 0.86859 0.61 0.96302
v 0.73859 0.04 0.91106
v 0.83859 0.61 0.91106
v 0.81859 0.04 0.77249
v 0.86859 0.61 0.8591
v 0.97859 0.04 0.77249
v 0.92859 0.61 0.8591
v -4.05516 0.04 -0.82232
v -4.15516 0.73 -0.82232
v -4.13516 0.04 -0.68376
v -4.18516 0.73 -0.77036
v -4.29516 0.04 -0.68376
v -4.24516 0.73 -0.77036
v -4.37516 0.04 -0.82232
v -4.27516 0.73 -0.82232
v -4.29516 0.04 -0.96088
v -4.24516 0.73 -0.87428
v -4.13516 0.04 -0.96088
v -4.18516 0.73 -0.87428
v 3.11188 0.04 -0.52776
v 3.01188 0.85 -0.52776
v 3.03188 0.04 -0.3892
v 2.98188 0.85 -0.4758
v 2.87188 0.04 -0.3892
v 2.92188 0.85 -0.4758
v 2.79188 0.04 -0.52776
v 2.89188 0.85 -0.52776
v 2.87188 0.04 -0.66633
v 2.92188 0.85 -0.57972
v 3.03188 0.04 -0.66633
v 2.98188 0.85 -0.57972
v -0.63512 0.04 0.74829
v -0.73512 0.49 0.74829
v -0.71512 0.04 0.88685
v -0.76512 0.49 0.80025
v -0.87512 0.04 0.88685
v -0.82512 0.49 0.80025
v -0.95512 0.04 0.74829
v -0.85512 0.49 0.74829
v -0.87512 0.04 0.60973
v -0.82512 0.49 0.69633
v -0.71512 0.04 0.60973
v -0.76512 0.49 0.69633
v -0.9641 0.04 -1.94245
v -1.0641 0.61 -1.94245
v -1.0441 0.04 -1.80389
v -1.0941 0.61 -1.89049
v -1.2041 0.04 -1.80389
v -1.1541 0.61 -1.89049
v -1.2841 0.04 -1.94245
v -1.1841 0.61 -1.94245
v -1.2041 0.04 -2.08102
v -1.1541 0.61 -1.99441
v -1.0441 0.04 -2.08102
v -1.0941 0.61 -1.99441
v 2.53638 0.04 0.71079
v 2.43638 0.73 0.71079
v 2.45638 0.04 0.84935
v 2.40638 0.73 0.76275
v 2.29638 0.04 0.84935
v 2.34638 0.73 0.76275
v 2.21638 0.04 0.71079
v 2.31638 0.73 0.71079
v 2.29638 0.04 0.57223
v 2.34638 0.73 0.65883
v 2.45638 0.04 0.57223
v 2.40638 0.73 0.65883
v -1.21602 0.04 0.12383
v -1.31602 0.85 0.12383
v -1.29602 0.04 0.2624
v -1.34602 0.85 0.17579
v -1.45602 0.04 0.2624
v -1.40602 0.85 0.17579
v -1.53602 0.04 0.12383
v -1.43602 0.85 0.12383
v -1.45602 0.04 -0.01473
v -1.40602 0.85 0.07187
v -1.29602 0.04 -0.01473
v -1.34602 0.85 0.07187
g holdfast_0
usemtl bower_stem
f 1 2 10 9
f 2 3 11 10
f 3 4 12 11
f 4 5 13 12
f 5 6 14 13
f 6 7 15 14
f 7 8 16 15
f 8 1 9 16
f 9 10 18 17
f 10 11 19 18
f 11 12 20 19
f 12 13 21 20
f 13 14 22 21
f 14 15 23 22
f 15 16 24 23
f 16 9 17 24
f 17 18 26 25
f 18 19 27 26
f 19 20 28 27
f 20 21 29 28
f 21 22 30 29
f 22 23 31 30
f 23 24 32 31
f 24 17 25 32
g trunk_0
usemtl bower_stem
f 49 47 45 43 41 39 37 35 33
f 34 36 38 40 42 44 46 48 50
f 33 35 36 34
f 35 37 38 36
f 37 39 40 38
f 39 41 42 40
f 41 43 44 42
f 43 45 46 44
f 45 47 48 46
f 47 49 50 48
f 49 33 34 50
g frond_0_0
usemtl bower_canopy
f 51 52 53
f 51 53 54
f 52 55 53
f 53 55 54
g vein_0_0
usemtl bower_stem
f 64 62 60 58 56
f 57 59 61 63 65
f 56 58 59 57
f 58 60 61 59
f 60 62 63 61
f 62 64 65 63
f 64 56 57 65
g frond_0_1
usemtl bower_fan
f 66 67 68
f 66 68 69
f 67 70 68
f 68 70 69
g vein_0_1
usemtl bower_stem
f 79 77 75 73 71
f 72 74 76 78 80
f 71 73 74 72
f 73 75 76 74
f 75 77 78 76
f 77 79 80 78
f 79 71 72 80
g frond_0_2
usemtl bower_fan
f 81 82 83
f 81 83 84
f 82 85 83
f 83 85 84
g vein_0_2
usemtl bower_stem
f 94 92 90 88 86
f 87 89 91 93 95
f 86 88 89 87
f 88 90 91 89
f 90 92 93 91
f 92 94 95 93
f 94 86 87 95
g frond_0_3
usemtl bower_canopy
f 96 97 98
f 96 98 99
f 97 100 98
f 98 100 99
g vein_0_3
usemtl bower_stem
f 109 107 105 103 101
f 102 104 106 108 110
f 101 103 104 102
f 103 105 106 104
f 105 107 108 106
f 107 109 110 108
f 109 101 102 110
g frond_0_4
usemtl bower_fan
f 111 112 113
f 111 113 114
f 112 115 113
f 113 115 114
g vein_0_4
usemtl bower_stem
f 124 122 120 118 116
f 117 119 121 123 125
f 116 118 119 117
f 118 120 121 119
f 120 122 123 121
f 122 124 125 123
f 124 116 117 125
g frond_0_5
usemtl bower_fan
f 126 127 128
f 126 128 129
f 127 130 128
f 128 130 129
g vein_0_5
usemtl bower_stem
f 139 137 135 133 131
f 132 134 136 138 140
f 131 133 134 132
f 133 135 136 134
f 135 137 138 136
f 137 139 140 138
f 139 131 132 140
g frond_0_6
usemtl bower_canopy
f 141 142 143
f 141 143 144
f 142 145 143
f 143 145 144
g vein_0_6
usemtl bower_stem
f 154 152 150 148 146
f 147 149 151 153 155
f 146 148 149 147
f 148 150 151 149
f 150 152 153 151
f 152 154 155 153
f 154 146 147 155
g spore_head_0
usemtl bower_spore
f 156 157 167 166
f 157 158 168 167
f 158 159 169 168
f 159 160 170 169
f 160 161 171 170
f 161 162 172 171
f 162 163 173 172
f 163 164 174 173
f 164 165 175 174
f 165 156 166 175
f 166 167 177 176
f 167 168 178 177
f 168 169 179 178
f 169 170 180 179
f 170 171 181 180
f 171 172 182 181
f 172 173 183 182
f 173 174 184 183
f 174 175 185 184
f 175 166 176 185
f 176 177 187 186
f 177 178 188 187
f 178 179 189 188
f 179 180 190 189
f 180 181 191 190
f 181 182 192 191
f 182 183 193 192
f 183 184 194 193
f 184 185 195 194
f 185 176 186 195
f 186 187 197 196
f 187 188 198 197
f 188 189 199 198
f 189 190 200 199
f 190 191 201 200
f 191 192 202 201
f 192 193 203 202
f 193 194 204 203
f 194 195 205 204
f 195 186 196 205
g spore_rim_0_0
usemtl bower_spore
f 206 207 214 213
f 207 208 215 214
f 208 209 216 215
f 209 210 217 216
f 210 211 218 217
f 211 212 219 218
f 212 206 213 219
f 213 214 221 220
f 214 215 222 221
f 215 216 223 222
f 216 217 224 223
f 217 218 225 224
f 218 219 226 225
f 219 213 220 226
f 220 221 228 227
f 221 222 229 228
f 222 223 230 229
f 223 224 231 230
f 224 225 232 231
f 225 226 233 232
f 226 220 227 233
g spore_rim_0_1
usemtl bower_spore
f 234 235 242 241
f 235 236 243 242
f 236 237 244 243
f 237 238 245 244
f 238 239 246 245
f 239 240 247 246
f 240 234 241 247
f 241 242 249 248
f 242 243 250 249
f 243 244 251 250
f 244 245 252 251
f 245 246 253 252
f 246 247 254 253
f 247 241 248 254
f 248 249 256 255
f 249 250 257 256
f 250 251 258 257
f 251 252 259 258
f 252 253 260 259
f 253 254 261 260
f 254 248 255 261
g spore_rim_0_2
usemtl bower_spore
f 262 263 270 269
f 263 264 271 270
f 264 265 272 271
f 265 266 273 272
f 266 267 274 273
f 267 268 275 274
f 268 262 269 275
f 269 270 277 276
f 270 271 278 277
f 271 272 279 278
f 272 273 280 279
f 273 274 281 280
f 274 275 282 281
f 275 269 276 282
f 276 277 284 283
f 277 278 285 284
f 278 279 286 285
f 279 280 287 286
f 280 281 288 287
f 281 282 289 288
f 282 276 283 289
g spore_rim_0_3
usemtl bower_spore
f 290 291 298 297
f 291 292 299 298
f 292 293 300 299
f 293 294 301 300
f 294 295 302 301
f 295 296 303 302
f 296 290 297 303
f 297 298 305 304
f 298 299 306 305
f 299 300 307 306
f 300 301 308 307
f 301 302 309 308
f 302 303 310 309
f 303 297 304 310
f 304 305 312 311
f 305 306 313 312
f 306 307 314 313
f 307 308 315 314
f 308 309 316 315
f 309 310 317 316
f 310 304 311 317
g spore_rim_0_4
usemtl bower_spore
f 318 319 326 325
f 319 320 327 326
f 320 321 328 327
f 321 322 329 328
f 322 323 330 329
f 323 324 331 330
f 324 318 325 331
f 325 326 333 332
f 326 327 334 333
f 327 328 335 334
f 328 329 336 335
f 329 330 337 336
f 330 331 338 337
f 331 325 332 338
f 332 333 340 339
f 333 334 341 340
f 334 335 342 341
f 335 336 343 342
f 336 337 344 343
f 337 338 345 344
f 338 332 339 345
g holdfast_1
usemtl bower_stem
f 346 347 355 354
f 347 348 356 355
f 348 349 357 356
f 349 350 358 357
f 350 351 359 358
f 351 352 360 359
f 352 353 361 360
f 353 346 354 361
f 354 355 363 362
f 355 356 364 363
f 356 357 365 364
f 357 358 366 365
f 358 359 367 366
f 359 360 368 367
f 360 361 369 368
f 361 354 362 369
f 362 363 371 370
f 363 364 372 371
f 364 365 373 372
f 365 366 374 373
f 366 367 375 374
f 367 368 376 375
f 368 369 377 376
f 369 362 370 377
g trunk_1
usemtl bower_stem
f 394 392 390 388 386 384 382 380 378
f 379 381 383 385 387 389 391 393 395
f 378 380 381 379
f 380 382 383 381
f 382 384 385 383
f 384 386 387 385
f 386 388 389 387
f 388 390 391 389
f 390 392 393 391
f 392 394 395 393
f 394 378 379 395
g frond_1_0
usemtl bower_fan
f 396 397 398
f 396 398 399
f 397 400 398
f 398 400 399
g vein_1_0
usemtl bower_stem
f 409 407 405 403 401
f 402 404 406 408 410
f 401 403 404 402
f 403 405 406 404
f 405 407 408 406
f 407 409 410 408
f 409 401 402 410
g frond_1_1
usemtl bower_fan
f 411 412 413
f 411 413 414
f 412 415 413
f 413 415 414
g vein_1_1
usemtl bower_stem
f 424 422 420 418 416
f 417 419 421 423 425
f 416 418 419 417
f 418 420 421 419
f 420 422 423 421
f 422 424 425 423
f 424 416 417 425
g frond_1_2
usemtl bower_canopy
f 426 427 428
f 426 428 429
f 427 430 428
f 428 430 429
g vein_1_2
usemtl bower_stem
f 439 437 435 433 431
f 432 434 436 438 440
f 431 433 434 432
f 433 435 436 434
f 435 437 438 436
f 437 439 440 438
f 439 431 432 440
g frond_1_3
usemtl bower_fan
f 441 442 443
f 441 443 444
f 442 445 443
f 443 445 444
g vein_1_3
usemtl bower_stem
f 454 452 450 448 446
f 447 449 451 453 455
f 446 448 449 447
f 448 450 451 449
f 450 452 453 451
f 452 454 455 453
f 454 446 447 455
g frond_1_4
usemtl bower_fan
f 456 457 458
f 456 458 459
f 457 460 458
f 458 460 459
g vein_1_4
usemtl bower_stem
f 469 467 465 463 461
f 462 464 466 468 470
f 461 463 464 462
f 463 465 466 464
f 465 467 468 466
f 467 469 470 468
f 469 461 462 470
g frond_1_5
usemtl bower_canopy
f 471 472 473
f 471 473 474
f 472 475 473
f 473 475 474
g vein_1_5
usemtl bower_stem
f 484 482 480 478 476
f 477 479 481 483 485
f 476 478 479 477
f 478 480 481 479
f 480 482 483 481
f 482 484 485 483
f 484 476 477 485
g frond_1_6
usemtl bower_fan
f 486 487 488
f 486 488 489
f 487 490 488
f 488 490 489
g vein_1_6
usemtl bower_stem
f 499 497 495 493 491
f 492 494 496 498 500
f 491 493 494 492
f 493 495 496 494
f 495 497 498 496
f 497 499 500 498
f 499 491 492 500
g spore_head_1
usemtl bower_spore
f 501 502 512 511
f 502 503 513 512
f 503 504 514 513
f 504 505 515 514
f 505 506 516 515
f 506 507 517 516
f 507 508 518 517
f 508 509 519 518
f 509 510 520 519
f 510 501 511 520
f 511 512 522 521
f 512 513 523 522
f 513 514 524 523
f 514 515 525 524
f 515 516 526 525
f 516 517 527 526
f 517 518 528 527
f 518 519 529 528
f 519 520 530 529
f 520 511 521 530
f 521 522 532 531
f 522 523 533 532
f 523 524 534 533
f 524 525 535 534
f 525 526 536 535
f 526 527 537 536
f 527 528 538 537
f 528 529 539 538
f 529 530 540 539
f 530 521 531 540
f 531 532 542 541
f 532 533 543 542
f 533 534 544 543
f 534 535 545 544
f 535 536 546 545
f 536 537 547 546
f 537 538 548 547
f 538 539 549 548
f 539 540 550 549
f 540 531 541 550
g spore_rim_1_0
usemtl bower_spore
f 551 552 559 558
f 552 553 560 559
f 553 554 561 560
f 554 555 562 561
f 555 556 563 562
f 556 557 564 563
f 557 551 558 564
f 558 559 566 565
f 559 560 567 566
f 560 561 568 567
f 561 562 569 568
f 562 563 570 569
f 563 564 571 570
f 564 558 565 571
f 565 566 573 572
f 566 567 574 573
f 567 568 575 574
f 568 569 576 575
f 569 570 577 576
f 570 571 578 577
f 571 565 572 578
g spore_rim_1_1
usemtl bower_spore
f 579 580 587 586
f 580 581 588 587
f 581 582 589 588
f 582 583 590 589
f 583 584 591 590
f 584 585 592 591
f 585 579 586 592
f 586 587 594 593
f 587 588 595 594
f 588 589 596 595
f 589 590 597 596
f 590 591 598 597
f 591 592 599 598
f 592 586 593 599
f 593 594 601 600
f 594 595 602 601
f 595 596 603 602
f 596 597 604 603
f 597 598 605 604
f 598 599 606 605
f 599 593 600 606
g spore_rim_1_2
usemtl bower_spore
f 607 608 615 614
f 608 609 616 615
f 609 610 617 616
f 610 611 618 617
f 611 612 619 618
f 612 613 620 619
f 613 607 614 620
f 614 615 622 621
f 615 616 623 622
f 616 617 624 623
f 617 618 625 624
f 618 619 626 625
f 619 620 627 626
f 620 614 621 627
f 621 622 629 628
f 622 623 630 629
f 623 624 631 630
f 624 625 632 631
f 625 626 633 632
f 626 627 634 633
f 627 621 628 634
g spore_rim_1_3
usemtl bower_spore
f 635 636 643 642
f 636 637 644 643
f 637 638 645 644
f 638 639 646 645
f 639 640 647 646
f 640 641 648 647
f 641 635 642 648
f 642 643 650 649
f 643 644 651 650
f 644 645 652 651
f 645 646 653 652
f 646 647 654 653
f 647 648 655 654
f 648 642 649 655
f 649 650 657 656
f 650 651 658 657
f 651 652 659 658
f 652 653 660 659
f 653 654 661 660
f 654 655 662 661
f 655 649 656 662
g spore_rim_1_4
usemtl bower_spore
f 663 664 671 670
f 664 665 672 671
f 665 666 673 672
f 666 667 674 673
f 667 668 675 674
f 668 669 676 675
f 669 663 670 676
f 670 671 678 677
f 671 672 679 678
f 672 673 680 679
f 673 674 681 680
f 674 675 682 681
f 675 676 683 682
f 676 670 677 683
f 677 678 685 684
f 678 679 686 685
f 679 680 687 686
f 680 681 688 687
f 681 682 689 688
f 682 683 690 689
f 683 677 684 690
g holdfast_2
usemtl bower_stem
f 691 692 700 699
f 692 693 701 700
f 693 694 702 701
f 694 695 703 702
f 695 696 704 703
f 696 697 705 704
f 697 698 706 705
f 698 691 699 706
f 699 700 708 707
f 700 701 709 708
f 701 702 710 709
f 702 703 711 710
f 703 704 712 711
f 704 705 713 712
f 705 706 714 713
f 706 699 707 714
f 707 708 716 715
f 708 709 717 716
f 709 710 718 717
f 710 711 719 718
f 711 712 720 719
f 712 713 721 720
f 713 714 722 721
f 714 707 715 722
g trunk_2
usemtl bower_stem
f 739 737 735 733 731 729 727 725 723
f 724 726 728 730 732 734 736 738 740
f 723 725 726 724
f 725 727 728 726
f 727 729 730 728
f 729 731 732 730
f 731 733 734 732
f 733 735 736 734
f 735 737 738 736
f 737 739 740 738
f 739 723 724 740
g frond_2_0
usemtl bower_fan
f 741 742 743
f 741 743 744
f 742 745 743
f 743 745 744
g vein_2_0
usemtl bower_stem
f 754 752 750 748 746
f 747 749 751 753 755
f 746 748 749 747
f 748 750 751 749
f 750 752 753 751
f 752 754 755 753
f 754 746 747 755
g frond_2_1
usemtl bower_canopy
f 756 757 758
f 756 758 759
f 757 760 758
f 758 760 759
g vein_2_1
usemtl bower_stem
f 769 767 765 763 761
f 762 764 766 768 770
f 761 763 764 762
f 763 765 766 764
f 765 767 768 766
f 767 769 770 768
f 769 761 762 770
g frond_2_2
usemtl bower_fan
f 771 772 773
f 771 773 774
f 772 775 773
f 773 775 774
g vein_2_2
usemtl bower_stem
f 784 782 780 778 776
f 777 779 781 783 785
f 776 778 779 777
f 778 780 781 779
f 780 782 783 781
f 782 784 785 783
f 784 776 777 785
g frond_2_3
usemtl bower_fan
f 786 787 788
f 786 788 789
f 787 790 788
f 788 790 789
g vein_2_3
usemtl bower_stem
f 799 797 795 793 791
f 792 794 796 798 800
f 791 793 794 792
f 793 795 796 794
f 795 797 798 796
f 797 799 800 798
f 799 791 792 800
g frond_2_4
usemtl bower_canopy
f 801 802 803
f 801 803 804
f 802 805 803
f 803 805 804
g vein_2_4
usemtl bower_stem
f 814 812 810 808 806
f 807 809 811 813 815
f 806 808 809 807
f 808 810 811 809
f 810 812 813 811
f 812 814 815 813
f 814 806 807 815
g frond_2_5
usemtl bower_fan
f 816 817 818
f 816 818 819
f 817 820 818
f 818 820 819
g vein_2_5
usemtl bower_stem
f 829 827 825 823 821
f 822 824 826 828 830
f 821 823 824 822
f 823 825 826 824
f 825 827 828 826
f 827 829 830 828
f 829 821 822 830
g frond_2_6
usemtl bower_fan
f 831 832 833
f 831 833 834
f 832 835 833
f 833 835 834
g vein_2_6
usemtl bower_stem
f 844 842 840 838 836
f 837 839 841 843 845
f 836 838 839 837
f 838 840 841 839
f 840 842 843 841
f 842 844 845 843
f 844 836 837 845
g spore_head_2
usemtl bower_spore
f 846 847 857 856
f 847 848 858 857
f 848 849 859 858
f 849 850 860 859
f 850 851 861 860
f 851 852 862 861
f 852 853 863 862
f 853 854 864 863
f 854 855 865 864
f 855 846 856 865
f 856 857 867 866
f 857 858 868 867
f 858 859 869 868
f 859 860 870 869
f 860 861 871 870
f 861 862 872 871
f 862 863 873 872
f 863 864 874 873
f 864 865 875 874
f 865 856 866 875
f 866 867 877 876
f 867 868 878 877
f 868 869 879 878
f 869 870 880 879
f 870 871 881 880
f 871 872 882 881
f 872 873 883 882
f 873 874 884 883
f 874 875 885 884
f 875 866 876 885
f 876 877 887 886
f 877 878 888 887
f 878 879 889 888
f 879 880 890 889
f 880 881 891 890
f 881 882 892 891
f 882 883 893 892
f 883 884 894 893
f 884 885 895 894
f 885 876 886 895
g spore_rim_2_0
usemtl bower_spore
f 896 897 904 903
f 897 898 905 904
f 898 899 906 905
f 899 900 907 906
f 900 901 908 907
f 901 902 909 908
f 902 896 903 909
f 903 904 911 910
f 904 905 912 911
f 905 906 913 912
f 906 907 914 913
f 907 908 915 914
f 908 909 916 915
f 909 903 910 916
f 910 911 918 917
f 911 912 919 918
f 912 913 920 919
f 913 914 921 920
f 914 915 922 921
f 915 916 923 922
f 916 910 917 923
g spore_rim_2_1
usemtl bower_spore
f 924 925 932 931
f 925 926 933 932
f 926 927 934 933
f 927 928 935 934
f 928 929 936 935
f 929 930 937 936
f 930 924 931 937
f 931 932 939 938
f 932 933 940 939
f 933 934 941 940
f 934 935 942 941
f 935 936 943 942
f 936 937 944 943
f 937 931 938 944
f 938 939 946 945
f 939 940 947 946
f 940 941 948 947
f 941 942 949 948
f 942 943 950 949
f 943 944 951 950
f 944 938 945 951
g spore_rim_2_2
usemtl bower_spore
f 952 953 960 959
f 953 954 961 960
f 954 955 962 961
f 955 956 963 962
f 956 957 964 963
f 957 958 965 964
f 958 952 959 965
f 959 960 967 966
f 960 961 968 967
f 961 962 969 968
f 962 963 970 969
f 963 964 971 970
f 964 965 972 971
f 965 959 966 972
f 966 967 974 973
f 967 968 975 974
f 968 969 976 975
f 969 970 977 976
f 970 971 978 977
f 971 972 979 978
f 972 966 973 979
g spore_rim_2_3
usemtl bower_spore
f 980 981 988 987
f 981 982 989 988
f 982 983 990 989
f 983 984 991 990
f 984 985 992 991
f 985 986 993 992
f 986 980 987 993
f 987 988 995 994
f 988 989 996 995
f 989 990 997 996
f 990 991 998 997
f 991 992 999 998
f 992 993 1000 999
f 993 987 994 1000
f 994 995 1002 1001
f 995 996 1003 1002
f 996 997 1004 1003
f 997 998 1005 1004
f 998 999 1006 1005
f 999 1000 1007 1006
f 1000 994 1001 1007
g spore_rim_2_4
usemtl bower_spore
f 1008 1009 1016 1015
f 1009 1010 1017 1016
f 1010 1011 1018 1017
f 1011 1012 1019 1018
f 1012 1013 1020 1019
f 1013 1014 1021 1020
f 1014 1008 1015 1021
f 1015 1016 1023 1022
f 1016 1017 1024 1023
f 1017 1018 1025 1024
f 1018 1019 1026 1025
f 1019 1020 1027 1026
f 1020 1021 1028 1027
f 1021 1015 1022 1028
f 1022 1023 1030 1029
f 1023 1024 1031 1030
f 1024 1025 1032 1031
f 1025 1026 1033 1032
f 1026 1027 1034 1033
f 1027 1028 1035 1034
f 1028 1022 1029 1035
g holdfast_3
usemtl bower_stem
f 1036 1037 1045 1044
f 1037 1038 1046 1045
f 1038 1039 1047 1046
f 1039 1040 1048 1047
f 1040 1041 1049 1048
f 1041 1042 1050 1049
f 1042 1043 1051 1050
f 1043 1036 1044 1051
f 1044 1045 1053 1052
f 1045 1046 1054 1053
f 1046 1047 1055 1054
f 1047 1048 1056 1055
f 1048 1049 1057 1056
f 1049 1050 1058 1057
f 1050 1051 1059 1058
f 1051 1044 1052 1059
f 1052 1053 1061 1060
f 1053 1054 1062 1061
f 1054 1055 1063 1062
f 1055 1056 1064 1063
f 1056 1057 1065 1064
f 1057 1058 1066 1065
f 1058 1059 1067 1066
f 1059 1052 1060 1067
g trunk_3
usemtl bower_stem
f 1084 1082 1080 1078 1076 1074 1072 1070 1068
f 1069 1071 1073 1075 1077 1079 1081 1083 1085
f 1068 1070 1071 1069
f 1070 1072 1073 1071
f 1072 1074 1075 1073
f 1074 1076 1077 1075
f 1076 1078 1079 1077
f 1078 1080 1081 1079
f 1080 1082 1083 1081
f 1082 1084 1085 1083
f 1084 1068 1069 1085
g frond_3_0
usemtl bower_canopy
f 1086 1087 1088
f 1086 1088 1089
f 1087 1090 1088
f 1088 1090 1089
g vein_3_0
usemtl bower_stem
f 1099 1097 1095 1093 1091
f 1092 1094 1096 1098 1100
f 1091 1093 1094 1092
f 1093 1095 1096 1094
f 1095 1097 1098 1096
f 1097 1099 1100 1098
f 1099 1091 1092 1100
g frond_3_1
usemtl bower_fan
f 1101 1102 1103
f 1101 1103 1104
f 1102 1105 1103
f 1103 1105 1104
g vein_3_1
usemtl bower_stem
f 1114 1112 1110 1108 1106
f 1107 1109 1111 1113 1115
f 1106 1108 1109 1107
f 1108 1110 1111 1109
f 1110 1112 1113 1111
f 1112 1114 1115 1113
f 1114 1106 1107 1115
g frond_3_2
usemtl bower_fan
f 1116 1117 1118
f 1116 1118 1119
f 1117 1120 1118
f 1118 1120 1119
g vein_3_2
usemtl bower_stem
f 1129 1127 1125 1123 1121
f 1122 1124 1126 1128 1130
f 1121 1123 1124 1122
f 1123 1125 1126 1124
f 1125 1127 1128 1126
f 1127 1129 1130 1128
f 1129 1121 1122 1130
g frond_3_3
usemtl bower_canopy
f 1131 1132 1133
f 1131 1133 1134
f 1132 1135 1133
f 1133 1135 1134
g vein_3_3
usemtl bower_stem
f 1144 1142 1140 1138 1136
f 1137 1139 1141 1143 1145
f 1136 1138 1139 1137
f 1138 1140 1141 1139
f 1140 1142 1143 1141
f 1142 1144 1145 1143
f 1144 1136 1137 1145
g frond_3_4
usemtl bower_fan
f 1146 1147 1148
f 1146 1148 1149
f 1147 1150 1148
f 1148 1150 1149
g vein_3_4
usemtl bower_stem
f 1159 1157 1155 1153 1151
f 1152 1154 1156 1158 1160
f 1151 1153 1154 1152
f 1153 1155 1156 1154
f 1155 1157 1158 1156
f 1157 1159 1160 1158
f 1159 1151 1152 1160
g frond_3_5
usemtl bower_fan
f 1161 1162 1163
f 1161 1163 1164
f 1162 1165 1163
f 1163 1165 1164
g vein_3_5
usemtl bower_stem
f 1174 1172 1170 1168 1166
f 1167 1169 1171 1173 1175
f 1166 1168 1169 1167
f 1168 1170 1171 1169
f 1170 1172 1173 1171
f 1172 1174 1175 1173
f 1174 1166 1167 1175
g frond_3_6
usemtl bower_canopy
f 1176 1177 1178
f 1176 1178 1179
f 1177 1180 1178
f 1178 1180 1179
g vein_3_6
usemtl bower_stem
f 1189 1187 1185 1183 1181
f 1182 1184 1186 1188 1190
f 1181 1183 1184 1182
f 1183 1185 1186 1184
f 1185 1187 1188 1186
f 1187 1189 1190 1188
f 1189 1181 1182 1190
g spore_head_3
usemtl bower_spore
f 1191 1192 1202 1201
f 1192 1193 1203 1202
f 1193 1194 1204 1203
f 1194 1195 1205 1204
f 1195 1196 1206 1205
f 1196 1197 1207 1206
f 1197 1198 1208 1207
f 1198 1199 1209 1208
f 1199 1200 1210 1209
f 1200 1191 1201 1210
f 1201 1202 1212 1211
f 1202 1203 1213 1212
f 1203 1204 1214 1213
f 1204 1205 1215 1214
f 1205 1206 1216 1215
f 1206 1207 1217 1216
f 1207 1208 1218 1217
f 1208 1209 1219 1218
f 1209 1210 1220 1219
f 1210 1201 1211 1220
f 1211 1212 1222 1221
f 1212 1213 1223 1222
f 1213 1214 1224 1223
f 1214 1215 1225 1224
f 1215 1216 1226 1225
f 1216 1217 1227 1226
f 1217 1218 1228 1227
f 1218 1219 1229 1228
f 1219 1220 1230 1229
f 1220 1211 1221 1230
f 1221 1222 1232 1231
f 1222 1223 1233 1232
f 1223 1224 1234 1233
f 1224 1225 1235 1234
f 1225 1226 1236 1235
f 1226 1227 1237 1236
f 1227 1228 1238 1237
f 1228 1229 1239 1238
f 1229 1230 1240 1239
f 1230 1221 1231 1240
g spore_rim_3_0
usemtl bower_spore
f 1241 1242 1249 1248
f 1242 1243 1250 1249
f 1243 1244 1251 1250
f 1244 1245 1252 1251
f 1245 1246 1253 1252
f 1246 1247 1254 1253
f 1247 1241 1248 1254
f 1248 1249 1256 1255
f 1249 1250 1257 1256
f 1250 1251 1258 1257
f 1251 1252 1259 1258
f 1252 1253 1260 1259
f 1253 1254 1261 1260
f 1254 1248 1255 1261
f 1255 1256 1263 1262
f 1256 1257 1264 1263
f 1257 1258 1265 1264
f 1258 1259 1266 1265
f 1259 1260 1267 1266
f 1260 1261 1268 1267
f 1261 1255 1262 1268
g spore_rim_3_1
usemtl bower_spore
f 1269 1270 1277 1276
f 1270 1271 1278 1277
f 1271 1272 1279 1278
f 1272 1273 1280 1279
f 1273 1274 1281 1280
f 1274 1275 1282 1281
f 1275 1269 1276 1282
f 1276 1277 1284 1283
f 1277 1278 1285 1284
f 1278 1279 1286 1285
f 1279 1280 1287 1286
f 1280 1281 1288 1287
f 1281 1282 1289 1288
f 1282 1276 1283 1289
f 1283 1284 1291 1290
f 1284 1285 1292 1291
f 1285 1286 1293 1292
f 1286 1287 1294 1293
f 1287 1288 1295 1294
f 1288 1289 1296 1295
f 1289 1283 1290 1296
g spore_rim_3_2
usemtl bower_spore
f 1297 1298 1305 1304
f 1298 1299 1306 1305
f 1299 1300 1307 1306
f 1300 1301 1308 1307
f 1301 1302 1309 1308
f 1302 1303 1310 1309
f 1303 1297 1304 1310
f 1304 1305 1312 1311
f 1305 1306 1313 1312
f 1306 1307 1314 1313
f 1307 1308 1315 1314
f 1308 1309 1316 1315
f 1309 1310 1317 1316
f 1310 1304 1311 1317
f 1311 1312 1319 1318
f 1312 1313 1320 1319
f 1313 1314 1321 1320
f 1314 1315 1322 1321
f 1315 1316 1323 1322
f 1316 1317 1324 1323
f 1317 1311 1318 1324
g spore_rim_3_3
usemtl bower_spore
f 1325 1326 1333 1332
f 1326 1327 1334 1333
f 1327 1328 1335 1334
f 1328 1329 1336 1335
f 1329 1330 1337 1336
f 1330 1331 1338 1337
f 1331 1325 1332 1338
f 1332 1333 1340 1339
f 1333 1334 1341 1340
f 1334 1335 1342 1341
f 1335 1336 1343 1342
f 1336 1337 1344 1343
f 1337 1338 1345 1344
f 1338 1332 1339 1345
f 1339 1340 1347 1346
f 1340 1341 1348 1347
f 1341 1342 1349 1348
f 1342 1343 1350 1349
f 1343 1344 1351 1350
f 1344 1345 1352 1351
f 1345 1339 1346 1352
g spore_rim_3_4
usemtl bower_spore
f 1353 1354 1361 1360
f 1354 1355 1362 1361
f 1355 1356 1363 1362
f 1356 1357 1364 1363
f 1357 1358 1365 1364
f 1358 1359 1366 1365
f 1359 1353 1360 1366
f 1360 1361 1368 1367
f 1361 1362 1369 1368
f 1362 1363 1370 1369
f 1363 1364 1371 1370
f 1364 1365 1372 1371
f 1365 1366 1373 1372
f 1366 1360 1367 1373
f 1367 1368 1375 1374
f 1368 1369 1376 1375
f 1369 1370 1377 1376
f 1370 1371 1378 1377
f 1371 1372 1379 1378
f 1372 1373 1380 1379
f 1373 1367 1374 1380
g new_growth_0
usemtl living_teal
f 1391 1389 1387 1385 1383 1381
f 1382 1384 1386 1388 1390 1392
f 1381 1383 1384 1382
f 1383 1385 1386 1384
f 1385 1387 1388 1386
f 1387 1389 1390 1388
f 1389 1391 1392 1390
f 1391 1381 1382 1392
g new_growth_1
usemtl living_teal
f 1403 1401 1399 1397 1395 1393
f 1394 1396 1398 1400 1402 1404
f 1393 1395 1396 1394
f 1395 1397 1398 1396
f 1397 1399 1400 1398
f 1399 1401 1402 1400
f 1401 1403 1404 1402
f 1403 1393 1394 1404
g new_growth_2
usemtl living_teal
f 1415 1413 1411 1409 1407 1405
f 1406 1408 1410 1412 1414 1416
f 1405 1407 1408 1406
f 1407 1409 1410 1408
f 1409 1411 1412 1410
f 1411 1413 1414 1412
f 1413 1415 1416 1414
f 1415 1405 1406 1416
g new_growth_3
usemtl living_teal
f 1427 1425 1423 1421 1419 1417
f 1418 1420 1422 1424 1426 1428
f 1417 1419 1420 1418
f 1419 1421 1422 1420
f 1421 1423 1424 1422
f 1423 1425 1426 1424
f 1425 1427 1428 1426
f 1427 1417 1418 1428
g new_growth_4
usemtl living_teal
f 1439 1437 1435 1433 1431 1429
f 1430 1432 1434 1436 1438 1440
f 1429 1431 1432 1430
f 1431 1433 1434 1432
f 1433 1435 1436 1434
f 1435 1437 1438 1436
f 1437 1439 1440 1438
f 1439 1429 1430 1440
g new_growth_5
usemtl living_teal
f 1451 1449 1447 1445 1443 1441
f 1442 1444 1446 1448 1450 1452
f 1441 1443 1444 1442
f 1443 1445 1446 1444
f 1445 1447 1448 1446
f 1447 1449 1450 1448
f 1449 1451 1452 1450
f 1451 1441 1442 1452
g new_growth_6
usemtl living_teal
f 1463 1461 1459 1457 1455 1453
f 1454 1456 1458 1460 1462 1464
f 1453 1455 1456 1454
f 1455 1457 1458 1456
f 1457 1459 1460 1458
f 1459 1461 1462 1460
f 1461 1463 1464 1462
f 1463 1453 1454 1464
g new_growth_7
usemtl living_teal
f 1475 1473 1471 1469 1467 1465
f 1466 1468 1470 1472 1474 1476
f 1465 1467 1468 1466
f 1467 1469 1470 1468
f 1469 1471 1472 1470
f 1471 1473 1474 1472
f 1473 1475 1476 1474
f 1475 1465 1466 1476
g new_growth_8
usemtl living_teal
f 1487 1485 1483 1481 1479 1477
f 1478 1480 1482 1484 1486 1488
f 1477 1479 1480 1478
f 1479 1481 1482 1480
f 1481 1483 1484 1482
f 1483 1485 1486 1484
f 1485 1487 1488 1486
f 1487 1477 1478 1488
g new_growth_9
usemtl living_teal
f 1499 1497 1495 1493 1491 1489
f 1490 1492 1494 1496 1498 1500
f 1489 1491 1492 1490
f 1491 1493 1494 1492
f 1493 1495 1496 1494
f 1495 1497 1498 1496
f 1497 1499 1500 1498
f 1499 1489 1490 1500
g new_growth_10
usemtl living_teal
f 1511 1509 1507 1505 1503 1501
f 1502 1504 1506 1508 1510 1512
f 1501 1503 1504 1502
f 1503 1505 1506 1504
f 1505 1507 1508 1506
f 1507 1509 1510 1508
f 1509 1511 1512 1510
f 1511 1501 1502 1512
g new_growth_11
usemtl living_teal
f 1523 1521 1519 1517 1515 1513
f 1514 1516 1518 1520 1522 1524
f 1513 1515 1516 1514
f 1515 1517 1518 1516
f 1517 1519 1520 1518
f 1519 1521 1522 1520
f 1521 1523 1524 1522
f 1523 1513 1514 1524
