# Generated environment blockout: biomass_bower_a
mtllib environment_blockout.mtl
o biomass_bower_a
v -2.2 0.0 -0.4
v -2.2 0.0 -0.4
v -2.2 0.0 -0.4
v -2.2 0.0 -0.4
v -2.2 0.0 -0.4
v -2.2 0.0 -0.4
v -2.2 0.0 -0.4
v -2.2 0.0 -0.4
v -1.83627 0.07 -0.4
v -1.9428 0.07 -0.15505
v -2.2 0.07 -0.05359
v -2.4572 0.07 -0.15505
v -2.56373 0.07 -0.4
v -2.4572 0.07 -0.64495
v -2.2 0.07 -0.74641
v -1.9428 0.07 -0.64495
v -1.83627 0.21 -0.4
v -1.9428 0.21 -0.15505
v -2.2 0.21 -0.05359
v -2.4572 0.21 -0.15505
v -2.56373 0.21 -0.4
v -2.4572 0.21 -0.64495
v -2.2 0.21 -0.74641
v -1.9428 0.21 -0.64495
v -2.2 0.28 -0.4
v -2.2 0.28 -0.4
v -2.2 0.28 -0.4
v -2.2 0.28 -0.4
v -2.2 0.28 -0.4
v -2.2 0.28 -0.4
v -2.2 0.28 -0.4
v -2.2 0.28 -0.4
v -2.2 0.12026 -0.61
v -2.15629 4.37909 -0.60475
v -2.33498 0.12158 -0.56087
v -2.29127 4.38042 -0.55562
v -2.4068 0.12217 -0.43646
v -2.36309 4.381 -0.43122
v -2.38186 0.12174 -0.295
v -2.33815 4.38057 -0.28975
v -2.27182 0.12049 -0.20266
v -2.22811 4.37933 -0.19742
v -2.12818 0.11902 -0.20267
v -2.08447 4.37785 -0.19742
v -2.01814 0.118 -0.295
v -1.97444 4.37684 -0.28976
v -1.9932 0.11792 -0.43647
v -1.94949 4.37676 -0.43122
v -2.06502 0.11881 -0.56087
v -2.02131 4.37765 -0.55563
v -2.1694 3.02139 -0.39476
v -1.59235 3.39276 0.20226
v -1.49866 3.48676 -0.25831
v -1.40497 3.39276 -0.71888
v -0.82791 3.28412 -0.12186
v -2.17638 3.02139 -0.36046
v -0.83488 3.28412 -0.08757
v -2.16541 2.9887 -0.38291
v -0.82391 3.25143 -0.11001
v -2.15996 3.00119 -0.42173
v -0.81846 3.26392 -0.14884
v -2.16756 3.0416 -0.42328
v -0.82606 3.30433 -0.15038
v -2.17771 3.05408 -0.38541
v -0.83621 3.31681 -0.11252
v -2.1694 3.02139 -0.39476
v -2.27008 3.57699 0.62065
v -1.78593 3.68499 0.38147
v -1.30179 3.57699 0.1423
v -1.40246 3.65259 1.1577
v -2.20078 3.02139 -0.37925
v -1.43384 3.65259 1.1732
v -2.17405 2.99012 -0.37974
v -1.40711 3.62132 1.17271
v -2.1409 3.00207 -0.40098
v -1.37396 3.63326 1.15148
v -2.14714 3.04072 -0.41361
v -1.3802 3.67192 1.13884
v -2.18415 3.05267 -0.40019
v -1.41721 3.68386 1.15227
v -2.1694 3.02139 -0.39476
v -3.04257 3.59184 0.35986
v -2.61706 3.68584 0.55947
v -2.19156 3.59184 0.75909
v -3.06472 3.68229 1.5137
v -2.20109 3.02139 -0.40962
v -3.09641 3.68229 1.49884
v -2.18343 2.98963 -0.39033
v -3.07875 3.65053 1.51812
v -2.14638 3.00176 -0.37716
v -3.0417 3.66266 1.5313
v -2.14116 3.04102 -0.3883
v -3.03648 3.70192 1.52016
v -2.17497 3.05316 -0.40836
v -3.07029 3.71405 1.50009
v -2.1694 3.02139 -0.39476
v -2.99149 3.42366 -0.74954
v -2.86315 3.53166 -0.22501
v -2.73481 3.42366 0.29952
v -3.55689 3.34592 -0.05526
v -2.17772 3.02139 -0.42875
v -3.56521 3.34592 -0.08926
v -2.17914 2.98893 -0.40351
v -3.56663 3.31346 -0.06402
v -2.1671 3.00133 -0.36617
v -3.55459 3.32586 -0.02668
v -2.15825 3.04146 -0.36833
v -3.54574 3.36598 -0.02884
v -2.16481 3.05385 -0.40701
v -3.5523 3.37838 -0.06752
v -2.1694 3.02139 -0.39476
v -2.60095 3.22706 -1.30285
v -2.88191 3.32106 -0.92608
v -3.16288 3.22706 -0.5493
v -3.59442 2.95273 -1.4574
v -2.14848 3.02139 -0.42281
v -3.57349 2.95273 -1.48546
v -2.16191 2.98813 -0.40266
v -3.58692 2.91947 -1.4653
v -2.1857 3.00084 -0.37158
v -3.61071 2.93218 -1.43423
v -2.18697 3.04195 -0.37253
v -3.61198 2.97329 -1.43518
v -2.16397 3.05466 -0.40419
v -3.58898 2.986 -1.46684
v -2.1694 3.02139 -0.39476
v -1.67073 3.18281 -1.46804
v -2.21032 3.29081 -1.44707
v -2.74991 3.18281 -1.42609
v -2.25123 2.86423 -2.49937
v -2.13443 3.02139 -0.39611
v -2.21626 2.86423 -2.50073
v -2.1585 2.9882 -0.3927
v -2.24033 2.83103 -2.49732
v -2.19764 3.00088 -0.39213
v -2.27947 2.84371 -2.49675
v -2.19776 3.04191 -0.39518
v -2.27959 2.88474 -2.4998
v -2.15869 3.05459 -0.39765
v -2.24052 2.89742 -2.50227
v -2.1694 3.02139 -0.39476
v -1.34018 3.33158 -0.49207
v -1.64823 3.42558 -0.84704
v -1.95628 3.33158 -1.20201
v -1.12706 3.16177 -1.29933
v -2.14646 3.02139 -0.36832
v -1.10412 3.16177 -1.2729
v -2.15977 2.98828 -0.38879
v -1.11742 3.12866 -1.29337
v -2.18639 3.00093 -0.41751
v -1.14404 3.14131 -1.32208
v -2.18954 3.04186 -0.41478
v -1.14719 3.18224 -1.31935
v -2.16486 3.05451 -0.38438
v -1.12251 3.19489 -1.28895
v -2.15629 4.47883 -0.4
v -2.15629 4.47883 -0.4
v -2.15629 4.47883 -0.4
v -2.15629 4.47883 -0.4
v -2.15629 4.47883 -0.4
v -2.15629 4.47883 -0.4
v -2.15629 4.47883 -0.4
v -2.15629 4.47883 -0.4
v -2.15629 4.47883 -0.4
v -2.15629 4.47883 -0.4
v -1.80274 4.53155 -0.4
v -1.87026 4.53155 -0.20466
v -2.04704 4.53155 -0.08393
v -2.26555 4.53155 -0.08393
v -2.44232 4.53155 -0.20466
v -2.50985 4.53155 -0.4
v -2.44232 4.53155 -0.59534
v -2.26555 4.53155 -0.71607
v -2.04704 4.53155 -0.71607
v -1.87026 4.53155 -0.59534
v -1.65629 4.65883 -0.4
v -1.75178 4.65883 -0.12374
v -2.00178 4.65883 0.047
v -2.3108 4.65883 0.047
v -2.5608 4.65883 -0.12374
v -2.65629 4.65883 -0.4
v -2.5608 4.65883 -0.67626
v -2.3108 4.65883 -0.847
v -2.00178 4.65883 -0.847
v -1.75178 4.65883 -0.67626
v -1.80274 4.78611 -0.4
v -1.87026 4.78611 -0.20466
v -2.04704 4.78611 -0.08393
v -2.26555 4.78611 -0.08393
v -2.44232 4.78611 -0.20466
v -2.50985 4.78611 -0.4
v -2.44232 4.78611 -0.59534
v -2.26555 4.78611 -0.71607
v -2.04704 4.78611 -0.71607
v -1.87026 4.78611 -0.59534
v -2.15629 4.83883 -0.4
v -2.15629 4.83883 -0.4
v -2.15629 4.83883 -0.4
v -2.15629 4.83883 -0.4
v -2.15629 4.83883 -0.4
v -2.15629 4.83883 -0.4
v -2.15629 4.83883 -0.4
v -2.15629 4.83883 -0.4
v -2.15629 4.83883 -0.4
v -2.15629 4.83883 -0.4
v -1.74466 4.50883 -0.32451
v -1.74466 4.50883 -0.32451
v -1.74466 4.50883 -0.32451
v -1.74466 4.50883 -0.32451
v -1.74466 4.50883 -0.32451
v -1.74466 4.50883 -0.32451
v -1.74466 4.50883 -0.32451
v -1.6061 4.54883 -0.32451
v -1.65827 4.54883 -0.22294
v -1.7755 4.54883 -0.19786
v -1.86951 4.54883 -0.26814
v -1.86951 4.54883 -0.38087
v -1.7755 4.54883 -0.45115
v -1.65827 4.54883 -0.42607
v -1.6061 4.62883 -0.32451
v -1.65827 4.62883 -0.22294
v -1.7755 4.62883 -0.19786
v -1.86951 4.62883 -0.26814
v -1.86951 4.62883 -0.38087
v -1.7755 4.62883 -0.45115
v -1.65827 4.62883 -0.42607
v -1.74466 4.66883 -0.32451
v -1.74466 4.66883 -0.32451
v -1.74466 4.66883 -0.32451
v -1.74466 4.66883 -0.32451
v -1.74466 4.66883 -0.32451
v -1.74466 4.66883 -0.32451
v -1.74466 4.66883 -0.32451
v -2.10845 4.50883 -0.02247
v -2.10845 4.50883 -0.02247
v -2.10845 4.50883 -0.02247
v -2.10845 4.50883 -0.02247
v -2.10845 4.50883 -0.02247
v -2.10845 4.50883 -0.02247
v -2.10845 4.50883 -0.02247
v -1.96989 4.54883 -0.02247
v -2.02206 4.54883 0.07909
v -2.13928 4.54883 0.10417
v -2.23329 4.54883 0.03389
v -2.23329 4.54883 -0.07884
v -2.13928 4.54883 -0.14912
v -2.02206 4.54883 -0.12404
v -1.96989 4.62883 -0.02247
v -2.02206 4.62883 0.07909
v -2.13928 4.62883 0.10417
v -2.23329 4.62883 0.03389
v -2.23329 4.62883 -0.07884
v -2.13928 4.62883 -0.14912
v -2.02206 4.62883 -0.12404
v -2.10845 4.66883 -0.02247
v -2.10845 4.66883 -0.02247
v -2.10845 4.66883 -0.02247
v -2.10845 4.66883 -0.02247
v -2.10845 4.66883 -0.02247
v -2.10845 4.66883 -0.02247
v -2.10845 4.66883 -0.02247
v -2.53835 4.50883 -0.24217
v -2.53835 4.50883 -0.24217
v -2.53835 4.50883 -0.24217
v -2.53835 4.50883 -0.24217
v -2.53835 4.50883 -0.24217
v -2.53835 4.50883 -0.24217
v -2.53835 4.50883 -0.24217
v -2.39979 4.54883 -0.24217
v -2.45196 4.54883 -0.14061
v -2.56919 4.54883 -0.11552
v -2.66319 4.54883 -0.18581
v -2.66319 4.54883 -0.29853
v -2.56919 4.54883 -0.36882
v -2.45196 4.54883 -0.34373
v -2.39979 4.62883 -0.24217
v -2.45196 4.62883 -0.14061
v -2.56919 4.62883 -0.11552
v -2.66319 4.62883 -0.18581
v -2.66319 4.62883 -0.29853
v -2.56919 4.62883 -0.36882
v -2.45196 4.62883 -0.34373
v -2.53835 4.66883 -0.24217
v -2.53835 4.66883 -0.24217
v -2.53835 4.66883 -0.24217
v -2.53835 4.66883 -0.24217
v -2.53835 4.66883 -0.24217
v -2.53835 4.66883 -0.24217
v -2.53835 4.66883 -0.24217
v -2.44026 4.50883 -0.67998
v -2.44026 4.50883 -0.67998
v -2.44026 4.50883 -0.67998
v -2.44026 4.50883 -0.67998
v -2.44026 4.50883 -0.67998
v -2.44026 4.50883 -0.67998
v -2.44026 4.50883 -0.67998
v -2.3017 4.54883 -0.67998
v -2.35387 4.54883 -0.57842
v -2.47109 4.54883 -0.55334
v -2.5651 4.54883 -0.62362
v -2.5651 4.54883 -0.73635
v -2.47109 4.54883 -0.80663
v -2.35387 4.54883 -0.78155
v -2.3017 4.62883 -0.67998
v -2.35387 4.62883 -0.57842
v -2.47109 4.62883 -0.55334
v -2.5651 4.62883 -0.62362
v -2.5651 4.62883 -0.73635
v -2.47109 4.62883 -0.80663
v -2.35387 4.62883 -0.78155
v -2.44026 4.66883 -0.67998
v -2.44026 4.66883 -0.67998
v -2.44026 4.66883 -0.67998
v -2.44026 4.66883 -0.67998
v -2.44026 4.66883 -0.67998
v -2.44026 4.66883 -0.67998
v -2.44026 4.66883 -0.67998
v -1.94974 4.50883 -0.73087
v -1.94974 4.50883 -0.73087
v -1.94974 4.50883 -0.73087
v -1.94974 4.50883 -0.73087
v -1.94974 4.50883 -0.73087
v -1.94974 4.50883 -0.73087
v -1.94974 4.50883 -0.73087
v -1.81117 4.54883 -0.73087
v -1.86334 4.54883 -0.62931
v -1.98057 4.54883 -0.60422
v -2.07458 4.54883 -0.67451
v -2.07458 4.54883 -0.78723
v -1.98057 4.54883 -0.85752
v -1.86334 4.54883 -0.83243
v -1.81117 4.62883 -0.73087
v -1.86334 4.62883 -0.62931
v -1.98057 4.62883 -0.60422
v -2.07458 4.62883 -0.67451
v -2.07458 4.62883 -0.78723
v -1.98057 4.62883 -0.85752
v -1.86334 4.62883 -0.83243
v -1.94974 4.66883 -0.73087
v -1.94974 4.66883 -0.73087
v -1.94974 4.66883 -0.73087
v -1.94974 4.66883 -0.73087
v -1.94974 4.66883 -0.73087
v -1.94974 4.66883 -0.73087
v -1.94974 4.66883 -0.73087
v -0.9 0.0 0.8
v -0.9 0.0 0.8
v -0.9 0.0 0.8
v -0.9 0.0 0.8
v -0.9 0.0 0.8
v -0.9 0.0 0.8
v -0.9 0.0 0.8
v -0.9 0.0 0.8
v -0.53627 0.07 0.8
v -0.6428 0.07 1.04495
v -0.9 0.07 1.14641
v -1.1572 0.07 1.04495
v -1.26373 0.07 0.8
v -1.1572 0.07 0.55505
v -0.9 0.07 0.45359
v -0.6428 0.07 0.55505
v -0.53627 0.21 0.8
v -0.6428 0.21 1.04495
v -0.9 0.21 1.14641
v -1.1572 0.21 1.04495
v -1.26373 0.21 0.8
v -1.1572 0.21 0.55505
v -0.9 0.21 0.45359
v -0.6428 0.21 0.55505
v -0.9 0.28 0.8
v -0.9 0.28 0.8
v -0.9 0.28 0.8
v -0.9 0.28 0.8
v -0.9 0.28 0.8
v -0.9 0.28 0.8
v -0.9 0.28 0.8
v -0.9 0.28 0.8
v -0.9 0.12077 0.64
v -0.68 5.57794 0.6664
v -1.00276 0.12474 0.67745
v -0.78276 5.5819 0.70385
v -1.05744 0.12648 0.77225
v -0.83744 5.58365 0.79865
v -1.03845 0.12519 0.88003
v -0.81845 5.58236 0.90643
v -0.95468 0.12148 0.95036
v -0.73468 5.57864 0.97676
v -0.84532 0.11707 0.95034
v -0.62532 5.57423 0.97674
v -0.76155 0.11403 0.87997
v -0.54155 5.5712 0.90637
v -0.74256 0.11379 0.77219
v -0.52256 5.57095 0.79859
v -0.79724 0.11645 0.67741
v -0.57724 5.57362 0.70381
v -0.746 3.84824 0.8264
v -0.92002 4.49021 1.68758
v -0.48099 4.58421 1.51978
v -0.04196 4.49021 1.35198
v -0.21598 4.65218 2.21316
v -0.77869 3.84824 0.8389
v -0.24867 4.65218 2.22565
v -0.75044 3.81897 0.84507
v -0.22042 4.62291 2.23183
v -0.71605 3.83015 0.82544
v -0.18603 4.63409 2.2122
v -0.72305 3.86633 0.80714
v -0.19303 4.67027 2.1939
v -0.76176 3.87751 0.81546
v -0.23174 4.68145 2.20221
v -0.746 3.84824 0.8264
v -1.70555 4.50912 1.40914
v -1.2378 4.61712 1.67896
v -0.77005 4.50912 1.94879
v -1.7296 4.69 2.53152
v -0.77632 3.84824 0.80891
v -1.75992 4.69 2.51403
v -0.76191 3.81764 0.83233
v -1.74551 4.6594 2.53745
v -0.72551 3.82933 0.84756
v -1.70911 4.67109 2.55268
v -0.71743 3.86716 0.83354
v -1.70103 4.70892 2.53866
v -0.74883 3.87885 0.80966
v -1.73243 4.72061 2.51478
v -0.746 3.84824 0.8264
v -2.02307 4.29491 0.60747
v -1.92904 4.38891 1.06797
v -1.835 4.29491 1.52847
v -3.11207 4.26158 1.30954
v -0.753 3.84824 0.79211
v -3.11908 4.26158 1.27525
v -0.75367 3.81543 0.81693
v -3.11974 4.22877 1.30007
v -0.74374 3.82797 0.85484
v -3.10981 4.2413 1.33798
v -0.73693 3.86852 0.85345
v -3.10301 4.28186 1.33659
v -0.74266 3.88105 0.81468
v -3.10873 4.29439 1.29782
v -0.746 3.84824 0.8264
v -1.12078 4.04452 -0.11223
v -1.43771 4.15252 0.32499
v -1.75464 4.04452 0.7622
v -2.12943 3.76079 -0.17643
v -0.72546 3.84824 0.79806
v -2.10889 3.76079 -0.20476
v -0.73827 3.815 0.81864
v -2.1217 3.72755 -0.18418
v -0.76177 3.8277 0.84994
v -2.1452 3.74025 -0.15288
v -0.76347 3.86879 0.84871
v -2.1469 3.78134 -0.15412
v -0.74103 3.88149 0.81664
v -2.12446 3.79404 -0.18618
v -0.746 3.84824 0.8264
v -0.35646 3.98815 -0.18479
v -0.82492 4.08215 -0.1468
v -1.29338 3.98815 -0.10881
v -0.90383 3.64807 -1.12
v -0.71111 3.84824 0.82357
v -0.86895 3.64807 -1.12283
v -0.73495 3.81513 0.82891
v -0.89278 3.61495 -1.11749
v -0.77405 3.82778 0.83078
v -0.93189 3.6276 -1.11562
v -0.77439 3.86871 0.8266
v -0.93223 3.66853 -1.1198
v -0.73549 3.88136 0.82214
v -0.89333 3.68118 -1.12425
v -0.746 3.84824 0.8264
v 0.42271 4.17764 0.50649
v 0.06296 4.28564 0.10377
v -0.29678 4.17764 -0.29895
v 0.87193 4.02704 -0.61886
v -0.72268 3.84824 0.8525
v 0.89524 4.02704 -0.59276
v -0.73676 3.81507 0.83264
v 0.88117 3.99386 -0.61262
v -0.7636 3.82774 0.80416
v 0.85432 4.00654 -0.64111
v -0.76612 3.86875 0.80641
v 0.8518 4.04754 -0.63886
v -0.74083 3.88142 0.83629
v 0.87709 4.06021 -0.60898
v -0.746 3.84824 0.8264
v -0.16367 4.43877 1.44416
v -0.05733 4.53277 0.98635
v 0.049 4.43877 0.52854
v 0.63133 4.54929 1.1463
v -0.75392 3.84824 0.86049
v 0.62341 4.54929 1.18039
v -0.73404 3.81842 0.84028
v 0.64329 4.51946 1.16018
v -0.73069 3.82981 0.80089
v 0.64664 4.53085 1.12079
v -0.7485 3.86668 0.79675
v 0.62884 4.56772 1.11665
v -0.76285 3.87807 0.83359
v 0.61448 4.57911 1.15349
v -0.68 5.67717 0.8
v -0.68 5.67717 0.8
v -0.68 5.67717 0.8
v -0.68 5.67717 0.8
v -0.68 5.67717 0.8
v -0.68 5.67717 0.8
v -0.68 5.67717 0.8
v -0.68 5.67717 0.8
v -0.68 5.67717 0.8
v -0.68 5.67717 0.8
v -0.32645 5.72989 0.8
v -0.39397 5.72989 0.99534
v -0.57075 5.72989 1.11607
v -0.78925 5.72989 1.11607
v -0.96603 5.72989 0.99534
v -1.03355 5.72989 0.8
v -0.96603 5.72989 0.60466
v -0.78925 5.72989 0.48393
v -0.57075 5.72989 0.48393
v -0.39397 5.72989 0.60466
v -0.18 5.85717 0.8
v -0.27549 5.85717 1.07626
v -0.52549 5.85717 1.247
v -0.83451 5.85717 1.247
v -1.08451 5.85717 1.07626
v -1.18 5.85717 0.8
v -1.08451 5.85717 0.52374
v -0.83451 5.85717 0.353
v -0.52549 5.85717 0.353
v -0.27549 5.85717 0.52374
v -0.32645 5.98444 0.8
v -0.39397 5.98444 0.99534
v -0.57075 5.98444 1.11607
v -0.78925 5.98444 1.11607
v -0.96603 5.98444 0.99534
v -1.03355 5.98444 0.8
v -0.96603 5.98444 0.60466
v -0.78925 5.98444 0.48393
v -0.57075 5.98444 0.48393
v -0.39397 5.98444 0.60466
v -0.68 6.03717 0.8
v -0.68 6.03717 0.8
v -0.68 6.03717 0.8
v -0.68 6.03717 0.8
v -0.68 6.03717 0.8
v -0.68 6.03717 0.8
v -0.68 6.03717 0.8
v -0.68 6.03717 0.8
v -0.68 6.03717 0.8
v -0.68 6.03717 0.8
v -0.26837 5.70717 0.87549
v -0.26837 5.70717 0.87549
v -0.26837 5.70717 0.87549
v -0.26837 5.70717 0.87549
v -0.26837 5.70717 0.87549
v -0.26837 5.70717 0.87549
v -0.26837 5.70717 0.87549
v -0.12981 5.74717 0.87549
v -0.18198 5.74717 0.97706
v -0.29921 5.74717 1.00214
v -0.39321 5.74717 0.93186
v -0.39321 5.74717 0.81913
v -0.29921 5.74717 0.74885
v -0.18198 5.74717 0.77393
v -0.12981 5.82717 0.87549
v -0.18198 5.82717 0.97706
v -0.29921 5.82717 1.00214
v -0.39321 5.82717 0.93186
v -0.39321 5.82717 0.81913
v -0.29921 5.82717 0.74885
v -0.18198 5.82717 0.77393
v -0.26837 5.86717 0.87549
v -0.26837 5.86717 0.87549
v -0.26837 5.86717 0.87549
v -0.26837 5.86717 0.87549
v -0.26837 5.86717 0.87549
v -0.26837 5.86717 0.87549
v -0.26837 5.86717 0.87549
v -0.63216 5.70717 1.17753
v -0.63216 5.70717 1.17753
v -0.63216 5.70717 1.17753
v -0.63216 5.70717 1.17753
v -0.63216 5.70717 1.17753
v -0.63216 5.70717 1.17753
v -0.63216 5.70717 1.17753
v -0.49359 5.74717 1.17753
v -0.54576 5.74717 1.27909
v -0.66299 5.74717 1.30417
v -0.757 5.74717 1.23389
v -0.757 5.74717 1.12116
v -0.66299 5.74717 1.05088
v -0.54576 5.74717 1.07596
v -0.49359 5.82717 1.17753
v -0.54576 5.82717 1.27909
v -0.66299 5.82717 1.30417
v -0.757 5.82717 1.23389
v -0.757 5.82717 1.12116
v -0.66299 5.82717 1.05088
v -0.54576 5.82717 1.07596
v -0.63216 5.86717 1.17753
v -0.63216 5.86717 1.17753
v -0.63216 5.86717 1.17753
v -0.63216 5.86717 1.17753
v -0.63216 5.86717 1.17753
v -0.63216 5.86717 1.17753
v -0.63216 5.86717 1.17753
v -1.06206 5.70717 0.95783
v -1.06206 5.70717 0.95783
v -1.06206 5.70717 0.95783
v -1.06206 5.70717 0.95783
v -1.06206 5.70717 0.95783
v -1.06206 5.70717 0.95783
v -1.06206 5.70717 0.95783
v -0.9235 5.74717 0.95783
v -0.97567 5.74717 1.05939
v -1.09289 5.74717 1.08448
v -1.1869 5.74717 1.01419
v -1.1869 5.74717 0.90147
v -1.09289 5.74717 0.83118
v -0.97567 5.74717 0.85627
v -0.9235 5.82717 0.95783
v -0.97567 5.82717 1.05939
v -1.09289 5.82717 1.08448
v -1.1869 5.82717 1.01419
v -1.1869 5.82717 0.90147
v -1.09289 5.82717 0.83118
v -0.97567 5.82717 0.85627
v -1.06206 5.86717 0.95783
v -1.06206 5.86717 0.95783
v -1.06206 5.86717 0.95783
v -1.06206 5.86717 0.95783
v -1.06206 5.86717 0.95783
v -1.06206 5.86717 0.95783
v -1.06206 5.86717 0.95783
v -0.96397 5.70717 0.52002
v -0.96397 5.70717 0.52002
v -0.96397 5.70717 0.52002
v -0.96397 5.70717 0.52002
v -0.96397 5.70717 0.52002
v -0.96397 5.70717 0.52002
v -0.96397 5.70717 0.52002
v -0.8254 5.74717 0.52002
v -0.87758 5.74717 0.62158
v -0.9948 5.74717 0.64666
v -1.08881 5.74717 0.57638
v -1.08881 5.74717 0.46365
v -0.9948 5.74717 0.39337
v -0.87758 5.74717 0.41845
v -0.8254 5.82717 0.52002
v -0.87758 5.82717 0.62158
v -0.9948 5.82717 0.64666
v -1.08881 5.82717 0.57638
v -1.08881 5.82717 0.46365
v -0.9948 5.82717 0.39337
v -0.87758 5.82717 0.41845
v -0.96397 5.86717 0.52002
v -0.96397 5.86717 0.52002
v -0.96397 5.86717 0.52002
v -0.96397 5.86717 0.52002
v -0.96397 5.86717 0.52002
v -0.96397 5.86717 0.52002
v -0.96397 5.86717 0.52002
v -0.47344 5.70717 0.46913
v -0.47344 5.70717 0.46913
v -0.47344 5.70717 0.46913
v -0.47344 5.70717 0.46913
v -0.47344 5.70717 0.46913
v -0.47344 5.70717 0.46913
v -0.47344 5.70717 0.46913
v -0.33488 5.74717 0.46913
v -0.38705 5.74717 0.57069
v -0.50428 5.74717 0.59578
v -0.59828 5.74717 0.52549
v -0.59828 5.74717 0.41277
v -0.50428 5.74717 0.34248
v -0.38705 5.74717 0.36757
v -0.33488 5.82717 0.46913
v -0.38705 5.82717 0.57069
v -0.50428 5.82717 0.59578
v -0.59828 5.82717 0.52549
v -0.59828 5.82717 0.41277
v -0.50428 5.82717 0.34248
v -0.38705 5.82717 0.36757
v -0.47344 5.86717 0.46913
v -0.47344 5.86717 0.46913
v -0.47344 5.86717 0.46913
v -0.47344 5.86717 0.46913
v -0.47344 5.86717 0.46913
v -0.47344 5.86717 0.46913
v -0.47344 5.86717 0.46913
v 0.7 0.0 -0.5
v 0.7 0.0 -0.5
v 0.7 0.0 -0.5
v 0.7 0.0 -0.5
v 0.7 0.0 -0.5
v 0.7 0.0 -0.5
v 0.7 0.0 -0.5
v 0.7 0.0 -0.5
v 1.06373 0.07 -0.5
v 0.9572 0.07 -0.25505
v 0.7 0.07 -0.15359
v 0.4428 0.07 -0.25505
v 0.33627 0.07 -0.5
v 0.4428 0.07 -0.74495
v 0.7 0.07 -0.84641
v 0.9572 0.07 -0.74495
v 1.06373 0.21 -0.5
v 0.9572 0.21 -0.25505
v 0.7 0.21 -0.15359
v 0.4428 0.21 -0.25505
v 0.33627 0.21 -0.5
v 0.4428 0.21 -0.74495
v 0.7 0.21 -0.84641
v 0.9572 0.21 -0.74495
v 0.7 0.28 -0.5
v 0.7 0.28 -0.5
v 0.7 0.28 -0.5
v 0.7 0.28 -0.5
v 0.7 0.28 -0.5
v 0.7 0.28 -0.5
v 0.7 0.28 -0.5
v 0.7 0.28 -0.5
v 0.7 0.12023 -0.71
v 0.74405 5.04163 -0.70471
v 0.56502 0.12138 -0.66087
v 0.60907 5.04278 -0.65558
v 0.4932 0.12189 -0.53646
v 0.53725 5.04329 -0.53118
v 0.51814 0.12151 -0.395
v 0.56219 5.04291 -0.38971
v 0.62818 0.12043 -0.30266
v 0.67223 5.04183 -0.29738
v 0.77182 0.11915 -0.30267
v 0.81587 5.04055 -0.29738
v 0.88186 0.11826 -0.395
v 0.92591 5.03966 -0.38972
v 0.9068 0.11819 -0.53647
v 0.95085 5.03959 -0.53118
v 0.83498 0.11896 -0.66087
v 0.87903 5.04036 -0.65558
v 0.73084 3.47857 -0.49471
v -0.09349 4.09901 0.05897
v 0.32202 4.19301 0.27862
v 0.73754 4.09901 0.49828
v -0.08679 4.23946 1.05196
v 0.69989 3.47857 -0.51107
v -0.11773 4.23946 1.0356
v 0.71507 3.44804 -0.48803
v -0.10255 4.20894 1.05864
v 0.75203 3.4597 -0.47423
v -0.06559 4.2206 1.07244
v 0.7597 3.49743 -0.48873
v -0.05792 4.25833 1.05794
v 0.72748 3.50909 -0.51151
v -0.09014 4.26999 1.03516
v 0.73084 3.47857 -0.49471
v -0.41446 3.90538 -0.81504
v -0.30791 4.01338 -0.28566
v -0.20137 3.90538 0.24373
v -1.34666 3.85219 -0.0766
v 0.72393 3.47857 -0.52903
v -1.35357 3.85219 -0.11091
v 0.72304 3.44578 -0.50418
v -1.35446 3.81941 -0.08606
v 0.73292 3.45831 -0.46625
v -1.34458 3.83193 -0.04814
v 0.73992 3.49883 -0.46766
v -1.33758 3.87245 -0.04955
v 0.73437 3.51135 -0.50646
v -1.34313 3.88498 -0.08835
v 0.73084 3.47857 -0.49471
v 0.07548 3.67904 -1.64062
v -0.2227 3.77304 -1.27732
v -0.52088 3.67904 -0.91401
v -1.17623 3.39952 -2.05992
v 0.75304 3.47857 -0.52177
v -1.15403 3.39952 -2.08698
v 0.73852 3.4453 -0.5024
v -1.16855 3.36625 -2.06761
v 0.71338 3.458 -0.47241
v -1.19369 3.37895 -2.03762
v 0.71236 3.49913 -0.47324
v -1.19471 3.42008 -2.03845
v 0.73687 3.51184 -0.50375
v -1.17019 3.43279 -2.06896
v 0.73084 3.47857 -0.49471
v 1.27317 3.62809 -1.36573
v 0.73317 3.73609 -1.36718
v 0.19317 3.62809 -1.36862
v 0.7355 3.29762 -2.23964
v 0.76584 3.47857 -0.49462
v 0.7705 3.29762 -2.23954
v 0.74164 3.44546 -0.49125
v 0.74631 3.26451 -2.23618
v 0.70251 3.4581 -0.49267
v 0.70718 3.27716 -2.23759
v 0.70253 3.49903 -0.49691
v 0.70719 3.31808 -2.24184
v 0.74166 3.51168 -0.49812
v 0.74633 3.33073 -2.24304
v 0.73084 3.47857 -0.49471
v 1.83516 3.79938 -0.76192
v 1.54556 3.89338 -1.1321
v 1.25595 3.79938 -1.50227
v 2.36028 3.64019 -1.76948
v 0.7524 3.47857 -0.46715
v 2.38184 3.64019 -1.74192
v 0.73954 3.44538 -0.48779
v 2.36898 3.607 -1.76256
v 0.71465 3.45806 -0.518
v 2.34409 3.61968 -1.79277
v 0.71213 3.49908 -0.51603
v 2.34157 3.6607 -1.7908
v 0.73546 3.51175 -0.4846
v 2.3649 3.67337 -1.75937
v 0.73084 3.47857 -0.49471
v 1.76766 4.03541 0.3221
v 1.89904 4.14341 -0.20167
v 2.03043 4.03541 -0.72544
v 3.06725 4.11226 0.09137
v 0.72232 3.47857 -0.46077
v 3.05874 4.11226 0.12532
v 0.73642 3.44637 -0.48216
v 3.07283 4.08007 0.10393
v 0.7428 3.45867 -0.52091
v 3.07922 4.09237 0.06518
v 0.73265 3.49846 -0.52345
v 3.06906 4.13216 0.06264
v 0.71999 3.51076 -0.48628
v 3.05641 4.14445 0.0998
v 0.73084 3.47857 -0.49471
v 0.64641 4.1192 0.48283
v 1.07682 4.2132 0.29402
v 1.50724 4.1192 0.10522
v 1.42281 4.27982 1.08276
v 0.69878 3.47857 -0.48065
v 1.39076 4.27982 1.09682
v 0.72657 3.44838 -0.47751
v 1.41855 4.24964 1.09996
v 0.76025 3.45991 -0.49814
v 1.45223 4.26117 1.07933
v 0.75328 3.49722 -0.51403
v 1.44526 4.29848 1.06344
v 0.71529 3.50875 -0.50323
v 1.40727 4.31001 1.07425
v 0.74405 5.1414 -0.5
v 0.74405 5.1414 -0.5
v 0.74405 5.1414 -0.5
v 0.74405 5.1414 -0.5
v 0.74405 5.1414 -0.5
v 0.74405 5.1414 -0.5
v 0.74405 5.1414 -0.5
v 0.74405 5.1414 -0.5
v 0.74405 5.1414 -0.5
v 0.74405 5.1414 -0.5
v 1.0976 5.19412 -0.5
v 1.03008 5.19412 -0.30466
v 0.8533 5.19412 -0.18393
v 0.6348 5.19412 -0.18393
v 0.45802 5.19412 -0.30466
v 0.3905 5.19412 -0.5
v 0.45802 5.19412 -0.69534
v 0.6348 5.19412 -0.81607
v 0.8533 5.19412 -0.81607
v 1.03008 5.19412 -0.69534
v 1.24405 5.3214 -0.5
v 1.14856 5.3214 -0.22374
v 0.89856 5.3214 -0.053
v 0.58954 5.3214 -0.053
v 0.33954 5.3214 -0.22374
v 0.24405 5.3214 -0.5
v 0.33954 5.3214 -0.77626
v 0.58954 5.3214 -0.947
v 0.89856 5.3214 -0.947
v 1.14856 5.3214 -0.77626
v 1.0976 5.44868 -0.5
v 1.03008 5.44868 -0.30466
v 0.8533 5.44868 -0.18393
v 0.6348 5.44868 -0.18393
v 0.45802 5.44868 -0.30466
v 0.3905 5.44868 -0.5
v 0.45802 5.44868 -0.69534
v 0.6348 5.44868 -0.81607
v 0.8533 5.44868 -0.81607
v 1.03008 5.44868 -0.69534
v 0.74405 5.5014 -0.5
v 0.74405 5.5014 -0.5
v 0.74405 5.5014 -0.5
v 0.74405 5.5014 -0.5
v 0.74405 5.5014 -0.5
v 0.74405 5.5014 -0.5
v 0.74405 5.5014 -0.5
v 0.74405 5.5014 -0.5
v 0.74405 5.5014 -0.5
v 0.74405 5.5014 -0.5
v 1.15568 5.1714 -0.42451
v 1.15568 5.1714 -0.42451
v 1.15568 5.1714 -0.42451
v 1.15568 5.1714 -0.42451
v 1.15568 5.1714 -0.42451
v 1.15568 5.1714 -0.42451
v 1.15568 5.1714 -0.42451
v 1.29424 5.2114 -0.42451
v 1.24207 5.2114 -0.32294
v 1.12485 5.2114 -0.29786
v 1.03084 5.2114 -0.36814
v 1.03084 5.2114 -0.48087
v 1.12485 5.2114 -0.55115
v 1.24207 5.2114 -0.52607
v 1.29424 5.2914 -0.42451
v 1.24207 5.2914 -0.32294
v 1.12485 5.2914 -0.29786
v 1.03084 5.2914 -0.36814
v 1.03084 5.2914 -0.48087
v 1.12485 5.2914 -0.55115
v 1.24207 5.2914 -0.52607
v 1.15568 5.3314 -0.42451
v 1.15568 5.3314 -0.42451
v 1.15568 5.3314 -0.42451
v 1.15568 5.3314 -0.42451
v 1.15568 5.3314 -0.42451
v 1.15568 5.3314 -0.42451
v 1.15568 5.3314 -0.42451
v 0.79189 5.1714 -0.12247
v 0.79189 5.1714 -0.12247
v 0.79189 5.1714 -0.12247
v 0.79189 5.1714 -0.12247
v 0.79189 5.1714 -0.12247
v 0.79189 5.1714 -0.12247
v 0.79189 5.1714 -0.12247
v 0.93046 5.2114 -0.12247
v 0.87829 5.2114 -0.02091
v 0.76106 5.2114 0.00417
v 0.66705 5.2114 -0.06611
v 0.66705 5.2114 -0.17884
v 0.76106 5.2114 -0.24912
v 0.87829 5.2114 -0.22404
v 0.93046 5.2914 -0.12247
v 0.87829 5.2914 -0.02091
v 0.76106 5.2914 0.00417
v 0.66705 5.2914 -0.06611
v 0.66705 5.2914 -0.17884
v 0.76106 5.2914 -0.24912
v 0.87829 5.2914 -0.22404
v 0.79189 5.3314 -0.12247
v 0.79189 5.3314 -0.12247
v 0.79189 5.3314 -0.12247
v 0.79189 5.3314 -0.12247
v 0.79189 5.3314 -0.12247
v 0.79189 5.3314 -0.12247
v 0.79189 5.3314 -0.12247
v 0.36199 5.1714 -0.34217
v 0.36199 5.1714 -0.34217
v 0.36199 5.1714 -0.34217
v 0.36199 5.1714 -0.34217
v 0.36199 5.1714 -0.34217
v 0.36199 5.1714 -0.34217
v 0.36199 5.1714 -0.34217
v 0.50056 5.2114 -0.34217
v 0.44838 5.2114 -0.24061
v 0.33116 5.2114 -0.21552
v 0.23715 5.2114 -0.28581
v 0.23715 5.2114 -0.39853
v 0.33116 5.2114 -0.46882
v 0.44838 5.2114 -0.44373
v 0.50056 5.2914 -0.34217
v 0.44838 5.2914 -0.24061
v 0.33116 5.2914 -0.21552
v 0.23715 5.2914 -0.28581
v 0.23715 5.2914 -0.39853
v 0.33116 5.2914 -0.46882
v 0.44838 5.2914 -0.44373
v 0.36199 5.3314 -0.34217
v 0.36199 5.3314 -0.34217
v 0.36199 5.3314 -0.34217
v 0.36199 5.3314 -0.34217
v 0.36199 5.3314 -0.34217
v 0.36199 5.3314 -0.34217
v 0.36199 5.3314 -0.34217
v 0.46008 5.1714 -0.77998
v 0.46008 5.1714 -0.77998
v 0.46008 5.1714 -0.77998
v 0.46008 5.1714 -0.77998
v 0.46008 5.1714 -0.77998
v 0.46008 5.1714 -0.77998
v 0.46008 5.1714 -0.77998
v 0.59865 5.2114 -0.77998
v 0.54648 5.2114 -0.67842
v 0.42925 5.2114 -0.65334
v 0.33524 5.2114 -0.72362
v 0.33524 5.2114 -0.83635
v 0.42925 5.2114 -0.90663
v 0.54648 5.2114 -0.88155
v 0.59865 5.2914 -0.77998
v 0.54648 5.2914 -0.67842
v 0.42925 5.2914 -0.65334
v 0.33524 5.2914 -0.72362
v 0.33524 5.2914 -0.83635
v 0.42925 5.2914 -0.90663
v 0.54648 5.2914 -0.88155
v 0.46008 5.3314 -0.77998
v 0.46008 5.3314 -0.77998
v 0.46008 5.3314 -0.77998
v 0.46008 5.3314 -0.77998
v 0.46008 5.3314 -0.77998
v 0.46008 5.3314 -0.77998
v 0.46008 5.3314 -0.77998
v 0.95061 5.1714 -0.83087
v 0.95061 5.1714 -0.83087
v 0.95061 5.1714 -0.83087
v 0.95061 5.1714 -0.83087
v 0.95061 5.1714 -0.83087
v 0.95061 5.1714 -0.83087
v 0.95061 5.1714 -0.83087
v 1.08917 5.2114 -0.83087
v 1.037 5.2114 -0.72931
v 0.91977 5.2114 -0.70422
v 0.82577 5.2114 -0.77451
v 0.82577 5.2114 -0.88723
v 0.91977 5.2114 -0.95752
v 1.037 5.2114 -0.93243
v 1.08917 5.2914 -0.83087
v 1.037 5.2914 -0.72931
v 0.91977 5.2914 -0.70422
v 0.82577 5.2914 -0.77451
v 0.82577 5.2914 -0.88723
v 0.91977 5.2914 -0.95752
v 1.037 5.2914 -0.93243
v 0.95061 5.3314 -0.83087
v 0.95061 5.3314 -0.83087
v 0.95061 5.3314 -0.83087
v 0.95061 5.3314 -0.83087
v 0.95061 5.3314 -0.83087
v 0.95061 5.3314 -0.83087
v 0.95061 5.3314 -0.83087
v 2.1 0.0 0.6
v 2.1 0.0 0.6
v 2.1 0.0 0.6
v 2.1 0.0 0.6
v 2.1 0.0 0.6
v 2.1 0.0 0.6
v 2.1 0.0 0.6
v 2.1 0.0 0.6
v 2.46373 0.07 0.6
v 2.3572 0.07 0.84495
v 2.1 0.07 0.94641
v 1.8428 0.07 0.84495
v 1.73627 0.07 0.6
v 1.8428 0.07 0.35505
v 2.1 0.07 0.25359
v 2.3572 0.07 0.35505
v 2.46373 0.21 0.6
v 2.3572 0.21 0.84495
v 2.1 0.21 0.94641
v 1.8428 0.21 0.84495
v 1.73627 0.21 0.6
v 1.8428 0.21 0.35505
v 2.1 0.21 0.25359
v 2.3572 0.21 0.35505
v 2.1 0.28 0.6
v 2.1 0.28 0.6
v 2.1 0.28 0.6
v 2.1 0.28 0.6
v 2.1 0.28 0.6
v 2.1 0.28 0.6
v 2.1 0.28 0.6
v 2.1 0.28 0.6
v 2.1 0.11898 0.44
v 1.89757 3.93227 0.41571
v 1.9973 0.11377 0.47747
v 1.79487 3.92706 0.45318
v 1.94265 0.11147 0.57227
v 1.74022 3.92476 0.54798
v 1.96163 0.11316 0.68005
v 1.7592 3.92645 0.65575
v 2.04535 0.11806 0.75037
v 1.84293 3.93135 0.72607
v 2.15465 0.12386 0.75033
v 1.95222 3.93715 0.72604
v 2.23837 0.12785 0.67995
v 2.03594 3.94114 0.65566
v 2.25735 0.12818 0.57216
v 2.05492 3.94147 0.54787
v 2.2027 0.12467 0.4774
v 2.00027 3.93796 0.45311
v 1.9583 2.71397 0.57571
v 0.99212 3.09972 0.3006
v 1.08985 3.19372 0.76032
v 1.18758 3.09972 1.22005
v 0.22141 3.00547 0.94494
v 1.95102 2.71397 0.54147
v 0.21413 3.00547 0.9107
v 1.95078 2.68112 0.56625
v 0.21388 2.97263 0.93548
v 1.96093 2.69367 0.6041
v 0.22403 2.98517 0.97333
v 1.96745 2.73427 0.60271
v 0.23055 3.02577 0.97194
v 1.96133 2.74682 0.56401
v 0.22443 3.03832 0.93324
v 1.9583 2.71397 0.57571
v 1.54509 2.92313 -0.54862
v 1.17664 3.03113 -0.15385
v 0.80819 2.92313 0.24092
v 0.39498 2.65229 -0.88341
v 1.98218 2.71397 0.55012
v 0.41886 2.65229 -0.909
v 1.96638 2.6807 0.56846
v 0.40306 2.61902 -0.89066
v 1.93941 2.69341 0.59681
v 0.37609 2.63173 -0.86231
v 1.93855 2.73453 0.596
v 0.37523 2.67286 -0.86311
v 1.96498 2.74724 0.56715
v 0.40166 2.68557 -0.89197
v 1.9583 2.71397 0.57571
v 2.55275 2.88338 -0.67007
v 2.085 2.97738 -0.71595
v 1.61724 2.88338 -0.76183
v 2.21169 2.57279 -2.00761
v 1.99313 2.71397 0.57913
v 2.24652 2.57279 -2.00419
v 1.96889 2.68073 0.57856
v 2.22228 2.53956 -2.00475
v 1.93001 2.69343 0.57406
v 2.1834 2.55225 -2.00926
v 1.93023 2.73451 0.57183
v 2.18362 2.59334 -2.01149
v 1.96924 2.74721 0.57497
v 2.22263 2.60603 -2.00835
v 1.9583 2.71397 0.57571
v 3.09613 3.01702 0.47687
v 2.8006 3.12502 0.02492
v 2.50506 3.01702 -0.42703
v 3.64289 2.84007 -0.52587
v 1.97746 2.71397 0.605
v 3.66205 2.84007 -0.49658
v 1.96596 2.68075 0.58362
v 3.65055 2.80684 -0.51796
v 1.94388 2.69344 0.55131
v 3.62847 2.81953 -0.55027
v 1.94173 2.7345 0.55271
v 3.62632 2.8606 -0.54887
v 1.96248 2.74719 0.5859
v 3.64707 2.87329 -0.51568
v 1.9583 2.71397 0.57571
v 2.99759 3.20117 1.34025
v 3.11905 3.29517 0.88622
v 3.24051 3.20117 0.43218
v 4.2798 3.20838 1.19673
v 1.94926 2.71397 0.60952
v 4.27075 3.20838 1.23054
v 1.96199 2.68137 0.58789
v 4.28348 3.17578 1.20891
v 1.96962 2.69382 0.54943
v 4.29112 3.18823 1.17044
v 1.96161 2.73412 0.54728
v 4.28311 3.22853 1.1683
v 1.94903 2.74657 0.58442
v 4.27052 3.24098 1.20544
v 1.9583 2.71397 0.57571
v 2.05849 3.26654 2.02205
v 2.54453 3.37454 1.78677
v 3.03058 3.26654 1.55149
v 3.13077 3.33911 2.99784
v 1.9268 2.71397 0.59096
v 3.09927 3.33911 3.01309
v 1.95185 2.68155 0.5872
v 3.12432 3.30669 3.00933
v 1.98582 2.69393 0.56756
v 3.15828 3.31907 2.98969
v 1.98176 2.73401 0.55918
v 3.15423 3.35915 2.98131
v 1.94528 2.74639 0.57364
v 3.11775 3.37153 2.99577
v 1.9583 2.71397 0.57571
v 1.14893 3.15302 1.23872
v 1.57835 3.24702 1.42976
v 2.00777 3.15302 1.6208
v 1.1984 3.11207 2.28381
v 1.92632 2.71397 0.56148
v 1.16642 3.11207 2.26958
v 1.9456 2.68141 0.57765
v 1.1857 3.07951 2.28575
v 1.98243 2.69385 0.59113
v 1.22253 3.09194 2.29923
v 1.98591 2.73409 0.5833
v 1.22601 3.13219 2.2914
v 1.95124 2.74653 0.56498
v 1.19134 3.14462 2.27308
v 1.89757 4.03329 0.6
v 1.89757 4.03329 0.6
v 1.89757 4.03329 0.6
v 1.89757 4.03329 0.6
v 1.89757 4.03329 0.6
v 1.89757 4.03329 0.6
v 1.89757 4.03329 0.6
v 1.89757 4.03329 0.6
v 1.89757 4.03329 0.6
v 1.89757 4.03329 0.6
v 2.25113 4.08601 0.6
v 2.1836 4.08601 0.79534
v 2.00683 4.08601 0.91607
v 1.78832 4.08601 0.91607
v 1.61154 4.08601 0.79534
v 1.54402 4.08601 0.6
v 1.61154 4.08601 0.40466
v 1.78832 4.08601 0.28393
v 2.00683 4.08601 0.28393
v 2.1836 4.08601 0.40466
v 2.39757 4.21329 0.6
v 2.30208 4.21329 0.87626
v 2.05208 4.21329 1.047
v 1.74306 4.21329 1.047
v 1.49306 4.21329 0.87626
v 1.39757 4.21329 0.6
v 1.49306 4.21329 0.32374
v 1.74306 4.21329 0.153
v 2.05208 4.21329 0.153
v 2.30208 4.21329 0.32374
v 2.25113 4.34057 0.6
v 2.1836 4.34057 0.79534
v 2.00683 4.34057 0.91607
v 1.78832 4.34057 0.91607
v 1.61154 4.34057 0.79534
v 1.54402 4.34057 0.6
v 1.61154 4.34057 0.40466
v 1.78832 4.34057 0.28393
v 2.00683 4.34057 0.28393
v 2.1836 4.34057 0.40466
v 1.89757 4.39329 0.6
v 1.89757 4.39329 0.6
v 1.89757 4.39329 0.6
v 1.89757 4.39329 0.6
v 1.89757 4.39329 0.6
v 1.89757 4.39329 0.6
v 1.89757 4.39329 0.6
v 1.89757 4.39329 0.6
v 1.89757 4.39329 0.6
v 1.89757 4.39329 0.6
v 2.3092 4.06329 0.67549
v 2.3092 4.06329 0.67549
v 2.3092 4.06329 0.67549
v 2.3092 4.06329 0.67549
v 2.3092 4.06329 0.67549
v 2.3092 4.06329 0.67549
v 2.3092 4.06329 0.67549
v 2.44776 4.10329 0.67549
v 2.39559 4.10329 0.77706
v 2.27837 4.10329 0.80214
v 2.18436 4.10329 0.73186
v 2.18436 4.10329 0.61913
v 2.27837 4.10329 0.54885
v 2.39559 4.10329 0.57393
v 2.44776 4.18329 0.67549
v 2.39559 4.18329 0.77706
v 2.27837 4.18329 0.80214
v 2.18436 4.18329 0.73186
v 2.18436 4.18329 0.61913
v 2.27837 4.18329 0.54885
v 2.39559 4.18329 0.57393
v 2.3092 4.22329 0.67549
v 2.3092 4.22329 0.67549
v 2.3092 4.22329 0.67549
v 2.3092 4.22329 0.67549
v 2.3092 4.22329 0.67549
v 2.3092 4.22329 0.67549
v 2.3092 4.22329 0.67549
v 1.94541 4.06329 0.97753
v 1.94541 4.06329 0.97753
v 1.94541 4.06329 0.97753
v 1.94541 4.06329 0.97753
v 1.94541 4.06329 0.97753
v 1.94541 4.06329 0.97753
v 1.94541 4.06329 0.97753
v 2.08398 4.10329 0.97753
v 2.03181 4.10329 1.07909
v 1.91458 4.10329 1.10417
v 1.82057 4.10329 1.03389
v 1.82057 4.10329 0.92116
v 1.91458 4.10329 0.85088
v 2.03181 4.10329 0.87596
v 2.08398 4.18329 0.97753
v 2.03181 4.18329 1.07909
v 1.91458 4.18329 1.10417
v 1.82057 4.18329 1.03389
v 1.82057 4.18329 0.92116
v 1.91458 4.18329 0.85088
v 2.03181 4.18329 0.87596
v 1.94541 4.22329 0.97753
v 1.94541 4.22329 0.97753
v 1.94541 4.22329 0.97753
v 1.94541 4.22329 0.97753
v 1.94541 4.22329 0.97753
v 1.94541 4.22329 0.97753
v 1.94541 4.22329 0.97753
v 1.51551 4.06329 0.75783
v 1.51551 4.06329 0.75783
v 1.51551 4.06329 0.75783
v 1.51551 4.06329 0.75783
v 1.51551 4.06329 0.75783
v 1.51551 4.06329 0.75783
v 1.51551 4.06329 0.75783
v 1.65408 4.10329 0.75783
v 1.60191 4.10329 0.85939
v 1.48468 4.10329 0.88448
v 1.39067 4.10329 0.81419
v 1.39067 4.10329 0.70147
v 1.48468 4.10329 0.63118
v 1.60191 4.10329 0.65627
v 1.65408 4.18329 0.75783
v 1.60191 4.18329 0.85939
v 1.48468 4.18329 0.88448
v 1.39067 4.18329 0.81419
v 1.39067 4.18329 0.70147
v 1.48468 4.18329 0.63118
v 1.60191 4.18329 0.65627
v 1.51551 4.22329 0.75783
v 1.51551 4.22329 0.75783
v 1.51551 4.22329 0.75783
v 1.51551 4.22329 0.75783
v 1.51551 4.22329 0.75783
v 1.51551 4.22329 0.75783
v 1.51551 4.22329 0.75783
v 1.6136 4.06329 0.32002
v 1.6136 4.06329 0.32002
v 1.6136 4.06329 0.32002
v 1.6136 4.06329 0.32002
v 1.6136 4.06329 0.32002
v 1.6136 4.06329 0.32002
v 1.6136 4.06329 0.32002
v 1.75217 4.10329 0.32002
v 1.7 4.10329 0.42158
v 1.58277 4.10329 0.44666
v 1.48876 4.10329 0.37638
v 1.48876 4.10329 0.26365
v 1.58277 4.10329 0.19337
v 1.7 4.10329 0.21845
v 1.75217 4.18329 0.32002
v 1.7 4.18329 0.42158
v 1.58277 4.18329 0.44666
v 1.48876 4.18329 0.37638
v 1.48876 4.18329 0.26365
v 1.58277 4.18329 0.19337
v 1.7 4.18329 0.21845
v 1.6136 4.22329 0.32002
v 1.6136 4.22329 0.32002
v 1.6136 4.22329 0.32002
v 1.6136 4.22329 0.32002
v 1.6136 4.22329 0.32002
v 1.6136 4.22329 0.32002
v 1.6136 4.22329 0.32002
v 2.10413 4.06329 0.26913
v 2.10413 4.06329 0.26913
v 2.10413 4.06329 0.26913
v 2.10413 4.06329 0.26913
v 2.10413 4.06329 0.26913
v 2.10413 4.06329 0.26913
v 2.10413 4.06329 0.26913
v 2.24269 4.10329 0.26913
v 2.19052 4.10329 0.37069
v 2.0733 4.10329 0.39578
v 1.97929 4.10329 0.32549
v 1.97929 4.10329 0.21277
v 2.0733 4.10329 0.14248
v 2.19052 4.10329 0.16757
v 2.24269 4.18329 0.26913
v 2.19052 4.18329 0.37069
v 2.0733 4.18329 0.39578
v 1.97929 4.18329 0.32549
v 1.97929 4.18329 0.21277
v 2.0733 4.18329 0.14248
v 2.19052 4.18329 0.16757
v 2.10413 4.22329 0.26913
v 2.10413 4.22329 0.26913
v 2.10413 4.22329 0.26913
v 2.10413 4.22329 0.26913
v 2.10413 4.22329 0.26913
v 2.10413 4.22329 0.26913
v 2.10413 4.22329 0.26913
v 1.53209 0.04 0.13351
v 1.43209 0.49 0.13351
v 1.45209 0.04 0.27207
v 1.40209 0.49 0.18547
v 1.29209 0.04 0.27207
v 1.34209 0.49 0.18547
v 1.21209 0.04 0.13351
v 1.31209 0.49 0.13351
v 1.29209 0.04 -0.00506
v 1.34209 0.49 0.08154
v 1.45209 0.04 -0.00506
v 1.40209 0.49 0.08154
v -3.13704 0.04 0.95423
v -3.23704 0.61 0.95423
v -3.21704 0.04 1.09279
v -3.26704 0.61 1.00619
v -3.37704 0.04 1.09279
v -3.32704 0.61 1.00619
v -3.45704 0.04 0.95423
v -3.35704 0.61 0.95423
v -3.37704 0.04 0.81567
v -3.32704 0.61 0.90227
v -3.21704 0.04 0.81567
v -3.26704 0.61 0.90227
v 0.85027 0.04 -1.12836
v 0.75027 0.73 -1.12836
v 0.77027 0.04 -0.9898
v 0.72027 0.73 -1.0764
v 0.61027 0.04 -0.9898
v 0.66027 0.73 -1.0764
v 0.53027 0.04 -1.12836
v 0.63027 0.73 -1.12836
v 0.61027 0.04 -1.26692
v 0.66027 0.73 -1.18032
v 0.77027 0.04 -1.26692
v 0.72027 0.73 -1.18032
v 2.32208 0.04 2.11066
v 2.22208 0.85 2.11066
v 2.24208 0.04 2.24922
v 2.19208 0.85 2.16262
v 2.08208 0.04 2.24922
v 2.13208 0.85 2.16262
v 2.00208 0.04 2.11066
v 2.10208 0.85 2.11066
v 2.08208 0.04 1.97209
v 2.13208 0.85 2.0587
v 2.24208 0.04 1.97209
v 2.19208 0.85 2.0587
v -3.1016 0.04 -0.60943
v -3.2016 0.49 -0.60943
v -3.1816 0.04 -0.47086
v -3.2316 0.49 -0.55747
v -3.3416 0.04 -0.47086
v -3.2916 0.49 -0.55747
v -3.4216 0.04 -0.60943
v -3.3216 0.49 -0.60943
v -3.3416 0.04 -0.74799
v -3.2916 0.49 -0.66139
v -3.1816 0.04 -0.74799
v -3.2316 0.49 -0.66139
v 2.11684 0.04 -0.3658
v 2.01684 0.61 -0.3658
v 2.03684 0.04 -0.22723
v 1.98684 0.61 -0.31383
v 1.87684 0.04 -0.22723
v 1.92684 0.61 -0.31383
v 1.79684 0.04 -0.3658
v 1.89684 0.61 -0.3658
v 1.87684 0.04 -0.50436
v 1.92684 0.61 -0.41776
v 2.03684 0.04 -0.50436
v 1.98684 0.61 -0.41776
v -1.84704 0.04 1.96004
v -1.94704 0.73 1.96004
v -1.92704 0.04 2.0986
v -1.97704 0.73 2.012
v -2.08704 0.04 2.0986
v -2.03704 0.73 2.012
v -2.16704 0.04 1.96004
v -2.06704 0.73 1.96004
v -2.08704 0.04 1.82148
v -2.03704 0.73 1.90808
v -1.92704 0.04 1.82148
v -1.97704 0.73 1.90808
v -0.72794 0.04 -1.45069
v -0.82794 0.85 -1.45069
v -0.80794 0.04 -1.31212
v -0.85794 0.85 -1.39872
v -0.96794 0.04 -1.31212
v -0.91794 0.85 -1.39872
v -1.04794 0.04 -1.45069
v -0.94794 0.85 -1.45069
v -0.96794 0.04 -1.58925
v -0.91794 0.85 -1.50265
v -0.80794 0.04 -1.58925
v -0.85794 0.85 -1.50265
v 1.65879 0.04 0.43363
v 1.55879 0.49 0.43363
v 1.57879 0.04 0.5722
v 1.52879 0.49 0.4856
v 1.41879 0.04 0.5722
v 1.46879 0.49 0.4856
v 1.33879 0.04 0.43363
v 1.43879 0.49 0.43363
v 1.41879 0.04 0.29507
v 1.46879 0.49 0.38167
v 1.57879 0.04 0.29507
v 1.52879 0.49 0.38167
v -3.95616 0.04 0.40081
v -4.05616 0.61 0.40081
v -4.03616 0.04 0.53937
v -4.08616 0.61 0.45277
v -4.19616 0.04 0.53937
v -4.14616 0.61 0.45277
v -4.27616 0.04 0.40081
v -4.17616 0.61 0.40081
v -4.19616 0.04 0.26225
v -4.14616 0.61 0.34885
v -4.03616 0.04 0.26225
v -4.08616 0.61 0.34885
v 1.8052 0.04 -1.08753
v 1.7052 0.73 -1.08753
v 1.7252 0.04 -0.94896
v 1.6752 0.73 -1.03557
v 1.5652 0.04 -0.94896
v 1.6152 0.73 -1.03557
v 1.4852 0.04 -1.08753
v 1.5852 0.73 -1.08753
v 1.5652 0.04 -1.22609
v 1.6152 0.73 -1.13949
v 1.7252 0.04 -1.22609
v 1.6752 0.73 -1.13949
v 0.32 0.04 0.6676
v 0.22 0.85 0.6676
v 0.24 0.04 0.80616
v 0.19 0.85 0.71956
v 0.08 0.04 0.80616
v 0.13 0.85 0.71956
v 0.0 0.04 0.6676
v 0.1 0.85 0.6676
v 0.08 0.04 0.52903
v 0.13 0.85 0.61564
v 0.24 0.04 0.52903
v 0.19 0.85 0.61564
g holdfast_0
usemtl bower_stem
f 1 2 10 9
f 2 3 11 10
f 3 4 12 11
f 4 5 13 12
f 5 6 14 13
f 6 7 15 14
f 7 8 16 15
f 8 1 9 16
f 9 10 18 17
f 10 11 19 18
f 11 12 20 19
f 12 13 21 20
f 13 14 22 21
f 14 15 23 22
f 15 16 24 23
f 16 9 17 24
f 17 18 26 25
f 18 19 27 26
f 19 20 28 27
f 20 21 29 28
f 21 22 30 29
f 22 23 31 30
f 23 24 32 31
f 24 17 25 32
g trunk_0
usemtl bower_stem
f 49 47 45 43 41 39 37 35 33
f 34 36 38 40 42 44 46 48 50
f 33 35 36 34
f 35 37 38 36
f 37 39 40 38
f 39 41 42 40
f 41 43 44 42
f 43 45 46 44
f 45 47 48 46
f 47 49 50 48
f 49 33 34 50
g frond_0_0
usemtl bower_canopy
f 51 52 53
f 51 53 54
f 52 55 53
f 53 55 54
g vein_0_0
usemtl bower_stem
f 64 62 60 58 56
f 57 59 61 63 65
f 56 58 59 57
f 58 60 61 59
f 60 62 63 61
f 62 64 65 63
f 64 56 57 65
g frond_0_1
usemtl bower_fan
f 66 67 68
f 66 68 69
f 67 70 68
f 68 70 69
g vein_0_1
usemtl bower_stem
f 79 77 75 73 71
f 72 74 76 78 80
f 71 73 74 72
f 73 75 76 74
f 75 77 78 76
f 77 79 80 78
f 79 71 72 80
g frond_0_2
usemtl bower_fan
f 81 82 83
f 81 83 84
f 82 85 83
f 83 85 84
g vein_0_2
usemtl bower_stem
f 94 92 90 88 86
f 87 89 91 93 95
f 86 88 89 87
f 88 90 91 89
f 90 92 93 91
f 92 94 95 93
f 94 86 87 95
g frond_0_3
usemtl bower_canopy
f 96 97 98
f 96 98 99
f 97 100 98
f 98 100 99
g vein_0_3
usemtl bower_stem
f 109 107 105 103 101
f 102 104 106 108 110
f 101 103 104 102
f 103 105 106 104
f 105 107 108 106
f 107 109 110 108
f 109 101 102 110
g frond_0_4
usemtl bower_fan
f 111 112 113
f 111 113 114
f 112 115 113
f 113 115 114
g vein_0_4
usemtl bower_stem
f 124 122 120 118 116
f 117 119 121 123 125
f 116 118 119 117
f 118 120 121 119
f 120 122 123 121
f 122 124 125 123
f 124 116 117 125
g frond_0_5
usemtl bower_fan
f 126 127 128
f 126 128 129
f 127 130 128
f 128 130 129
g vein_0_5
usemtl bower_stem
f 139 137 135 133 131
f 132 134 136 138 140
f 131 133 134 132
f 133 135 136 134
f 135 137 138 136
f 137 139 140 138
f 139 131 132 140
g frond_0_6
usemtl bower_canopy
f 141 142 143
f 141 143 144
f 142 145 143
f 143 145 144
g vein_0_6
usemtl bower_stem
f 154 152 150 148 146
f 147 149 151 153 155
f 146 148 149 147
f 148 150 151 149
f 150 152 153 151
f 152 154 155 153
f 154 146 147 155
g spore_head_0
usemtl bower_spore
f 156 157 167 166
f 157 158 168 167
f 158 159 169 168
f 159 160 170 169
f 160 161 171 170
f 161 162 172 171
f 162 163 173 172
f 163 164 174 173
f 164 165 175 174
f 165 156 166 175
f 166 167 177 176
f 167 168 178 177
f 168 169 179 178
f 169 170 180 179
f 170 171 181 180
f 171 172 182 181
f 172 173 183 182
f 173 174 184 183
f 174 175 185 184
f 175 166 176 185
f 176 177 187 186
f 177 178 188 187
f 178 179 189 188
f 179 180 190 189
f 180 181 191 190
f 181 182 192 191
f 182 183 193 192
f 183 184 194 193
f 184 185 195 194
f 185 176 186 195
f 186 187 197 196
f 187 188 198 197
f 188 189 199 198
f 189 190 200 199
f 190 191 201 200
f 191 192 202 201
f 192 193 203 202
f 193 194 204 203
f 194 195 205 204
f 195 186 196 205
g spore_rim_0_0
usemtl bower_spore
f 206 207 214 213
f 207 208 215 214
f 208 209 216 215
f 209 210 217 216
f 210 211 218 217
f 211 212 219 218
f 212 206 213 219
f 213 214 221 220
f 214 215 222 221
f 215 216 223 222
f 216 217 224 223
f 217 218 225 224
f 218 219 226 225
f 219 213 220 226
f 220 221 228 227
f 221 222 229 228
f 222 223 230 229
f 223 224 231 230
f 224 225 232 231
f 225 226 233 232
f 226 220 227 233
g spore_rim_0_1
usemtl bower_spore
f 234 235 242 241
f 235 236 243 242
f 236 237 244 243
f 237 238 245 244
f 238 239 246 245
f 239 240 247 246
f 240 234 241 247
f 241 242 249 248
f 242 243 250 249
f 243 244 251 250
f 244 245 252 251
f 245 246 253 252
f 246 247 254 253
f 247 241 248 254
f 248 249 256 255
f 249 250 257 256
f 250 251 258 257
f 251 252 259 258
f 252 253 260 259
f 253 254 261 260
f 254 248 255 261
g spore_rim_0_2
usemtl bower_spore
f 262 263 270 269
f 263 264 271 270
f 264 265 272 271
f 265 266 273 272
f 266 267 274 273
f 267 268 275 274
f 268 262 269 275
f 269 270 277 276
f 270 271 278 277
f 271 272 279 278
f 272 273 280 279
f 273 274 281 280
f 274 275 282 281
f 275 269 276 282
f 276 277 284 283
f 277 278 285 284
f 278 279 286 285
f 279 280 287 286
f 280 281 288 287
f 281 282 289 288
f 282 276 283 289
g spore_rim_0_3
usemtl bower_spore
f 290 291 298 297
f 291 292 299 298
f 292 293 300 299
f 293 294 301 300
f 294 295 302 301
f 295 296 303 302
f 296 290 297 303
f 297 298 305 304
f 298 299 306 305
f 299 300 307 306
f 300 301 308 307
f 301 302 309 308
f 302 303 310 309
f 303 297 304 310
f 304 305 312 311
f 305 306 313 312
f 306 307 314 313
f 307 308 315 314
f 308 309 316 315
f 309 310 317 316
f 310 304 311 317
g spore_rim_0_4
usemtl bower_spore
f 318 319 326 325
f 319 320 327 326
f 320 321 328 327
f 321 322 329 328
f 322 323 330 329
f 323 324 331 330
f 324 318 325 331
f 325 326 333 332
f 326 327 334 333
f 327 328 335 334
f 328 329 336 335
f 329 330 337 336
f 330 331 338 337
f 331 325 332 338
f 332 333 340 339
f 333 334 341 340
f 334 335 342 341
f 335 336 343 342
f 336 337 344 343
f 337 338 345 344
f 338 332 339 345
g holdfast_1
usemtl bower_stem
f 346 347 355 354
f 347 348 356 355
f 348 349 357 356
f 349 350 358 357
f 350 351 359 358
f 351 352 360 359
f 352 353 361 360
f 353 346 354 361
f 354 355 363 362
f 355 356 364 363
f 356 357 365 364
f 357 358 366 365
f 358 359 367 366
f 359 360 368 367
f 360 361 369 368
f 361 354 362 369
f 362 363 371 370
f 363 364 372 371
f 364 365 373 372
f 365 366 374 373
f 366 367 375 374
f 367 368 376 375
f 368 369 377 376
f 369 362 370 377
g trunk_1
usemtl bower_stem
f 394 392 390 388 386 384 382 380 378
f 379 381 383 385 387 389 391 393 395
f 378 380 381 379
f 380 382 383 381
f 382 384 385 383
f 384 386 387 385
f 386 388 389 387
f 388 390 391 389
f 390 392 393 391
f 392 394 395 393
f 394 378 379 395
g frond_1_0
usemtl bower_fan
f 396 397 398
f 396 398 399
f 397 400 398
f 398 400 399
g vein_1_0
usemtl bower_stem
f 409 407 405 403 401
f 402 404 406 408 410
f 401 403 404 402
f 403 405 406 404
f 405 407 408 406
f 407 409 410 408
f 409 401 402 410
g frond_1_1
usemtl bower_fan
f 411 412 413
f 411 413 414
f 412 415 413
f 413 415 414
g vein_1_1
usemtl bower_stem
f 424 422 420 418 416
f 417 419 421 423 425
f 416 418 419 417
f 418 420 421 419
f 420 422 423 421
f 422 424 425 423
f 424 416 417 425
g frond_1_2
usemtl bower_canopy
f 426 427 428
f 426 428 429
f 427 430 428
f 428 430 429
g vein_1_2
usemtl bower_stem
f 439 437 435 433 431
f 432 434 436 438 440
f 431 433 434 432
f 433 435 436 434
f 435 437 438 436
f 437 439 440 438
f 439 431 432 440
g frond_1_3
usemtl bower_fan
f 441 442 443
f 441 443 444
f 442 445 443
f 443 445 444
g vein_1_3
usemtl bower_stem
f 454 452 450 448 446
f 447 449 451 453 455
f 446 448 449 447
f 448 450 451 449
f 450 452 453 451
f 452 454 455 453
f 454 446 447 455
g frond_1_4
usemtl bower_fan
f 456 457 458
f 456 458 459
f 457 460 458
f 458 460 459
g vein_1_4
usemtl bower_stem
f 469 467 465 463 461
f 462 464 466 468 470
f 461 463 464 462
f 463 465 466 464
f 465 467 468 466
f 467 469 470 468
f 469 461 462 470
g frond_1_5
usemtl bower_canopy
f 471 472 473
f 471 473 474
f 472 475 473
f 473 475 474
g vein_1_5
usemtl bower_stem
f 484 482 480 478 476
f 477 479 481 483 485
f 476 478 479 477
f 478 480 481 479
f 480 482 483 481
f 482 484 485 483
f 484 476 477 485
g frond_1_6
usemtl bower_fan
f 486 487 488
f 486 488 489
f 487 490 488
f 488 490 489
g vein_1_6
usemtl bower_stem
f 499 497 495 493 491
f 492 494 496 498 500
f 491 493 494 492
f 493 495 496 494
f 495 497 498 496
f 497 499 500 498
f 499 491 492 500
g spore_head_1
usemtl bower_spore
f 501 502 512 511
f 502 503 513 512
f 503 504 514 513
f 504 505 515 514
f 505 506 516 515
f 506 507 517 516
f 507 508 518 517
f 508 509 519 518
f 509 510 520 519
f 510 501 511 520
f 511 512 522 521
f 512 513 523 522
f 513 514 524 523
f 514 515 525 524
f 515 516 526 525
f 516 517 527 526
f 517 518 528 527
f 518 519 529 528
f 519 520 530 529
f 520 511 521 530
f 521 522 532 531
f 522 523 533 532
f 523 524 534 533
f 524 525 535 534
f 525 526 536 535
f 526 527 537 536
f 527 528 538 537
f 528 529 539 538
f 529 530 540 539
f 530 521 531 540
f 531 532 542 541
f 532 533 543 542
f 533 534 544 543
f 534 535 545 544
f 535 536 546 545
f 536 537 547 546
f 537 538 548 547
f 538 539 549 548
f 539 540 550 549
f 540 531 541 550
g spore_rim_1_0
usemtl bower_spore
f 551 552 559 558
f 552 553 560 559
f 553 554 561 560
f 554 555 562 561
f 555 556 563 562
f 556 557 564 563
f 557 551 558 564
f 558 559 566 565
f 559 560 567 566
f 560 561 568 567
f 561 562 569 568
f 562 563 570 569
f 563 564 571 570
f 564 558 565 571
f 565 566 573 572
f 566 567 574 573
f 567 568 575 574
f 568 569 576 575
f 569 570 577 576
f 570 571 578 577
f 571 565 572 578
g spore_rim_1_1
usemtl bower_spore
f 579 580 587 586
f 580 581 588 587
f 581 582 589 588
f 582 583 590 589
f 583 584 591 590
f 584 585 592 591
f 585 579 586 592
f 586 587 594 593
f 587 588 595 594
f 588 589 596 595
f 589 590 597 596
f 590 591 598 597
f 591 592 599 598
f 592 586 593 599
f 593 594 601 600
f 594 595 602 601
f 595 596 603 602
f 596 597 604 603
f 597 598 605 604
f 598 599 606 605
f 599 593 600 606
g spore_rim_1_2
usemtl bower_spore
f 607 608 615 614
f 608 609 616 615
f 609 610 617 616
f 610 611 618 617
f 611 612 619 618
f 612 613 620 619
f 613 607 614 620
f 614 615 622 621
f 615 616 623 622
f 616 617 624 623
f 617 618 625 624
f 618 619 626 625
f 619 620 627 626
f 620 614 621 627
f 621 622 629 628
f 622 623 630 629
f 623 624 631 630
f 624 625 632 631
f 625 626 633 632
f 626 627 634 633
f 627 621 628 634
g spore_rim_1_3
usemtl bower_spore
f 635 636 643 642
f 636 637 644 643
f 637 638 645 644
f 638 639 646 645
f 639 640 647 646
f 640 641 648 647
f 641 635 642 648
f 642 643 650 649
f 643 644 651 650
f 644 645 652 651
f 645 646 653 652
f 646 647 654 653
f 647 648 655 654
f 648 642 649 655
f 649 650 657 656
f 650 651 658 657
f 651 652 659 658
f 652 653 660 659
f 653 654 661 660
f 654 655 662 661
f 655 649 656 662
g spore_rim_1_4
usemtl bower_spore
f 663 664 671 670
f 664 665 672 671
f 665 666 673 672
f 666 667 674 673
f 667 668 675 674
f 668 669 676 675
f 669 663 670 676
f 670 671 678 677
f 671 672 679 678
f 672 673 680 679
f 673 674 681 680
f 674 675 682 681
f 675 676 683 682
f 676 670 677 683
f 677 678 685 684
f 678 679 686 685
f 679 680 687 686
f 680 681 688 687
f 681 682 689 688
f 682 683 690 689
f 683 677 684 690
g holdfast_2
usemtl bower_stem
f 691 692 700 699
f 692 693 701 700
f 693 694 702 701
f 694 695 703 702
f 695 696 704 703
f 696 697 705 704
f 697 698 706 705
f 698 691 699 706
f 699 700 708 707
f 700 701 709 708
f 701 702 710 709
f 702 703 711 710
f 703 704 712 711
f 704 705 713 712
f 705 706 714 713
f 706 699 707 714
f 707 708 716 715
f 708 709 717 716
f 709 710 718 717
f 710 711 719 718
f 711 712 720 719
f 712 713 721 720
f 713 714 722 721
f 714 707 715 722
g trunk_2
usemtl bower_stem
f 739 737 735 733 731 729 727 725 723
f 724 726 728 730 732 734 736 738 740
f 723 725 726 724
f 725 727 728 726
f 727 729 730 728
f 729 731 732 730
f 731 733 734 732
f 733 735 736 734
f 735 737 738 736
f 737 739 740 738
f 739 723 724 740
g frond_2_0
usemtl bower_fan
f 741 742 743
f 741 743 744
f 742 745 743
f 743 745 744
g vein_2_0
usemtl bower_stem
f 754 752 750 748 746
f 747 749 751 753 755
f 746 748 749 747
f 748 750 751 749
f 750 752 753 751
f 752 754 755 753
f 754 746 747 755
g frond_2_1
usemtl bower_canopy
f 756 757 758
f 756 758 759
f 757 760 758
f 758 760 759
g vein_2_1
usemtl bower_stem
f 769 767 765 763 761
f 762 764 766 768 770
f 761 763 764 762
f 763 765 766 764
f 765 767 768 766
f 767 769 770 768
f 769 761 762 770
g frond_2_2
usemtl bower_fan
f 771 772 773
f 771 773 774
f 772 775 773
f 773 775 774
g vein_2_2
usemtl bower_stem
f 784 782 780 778 776
f 777 779 781 783 785
f 776 778 779 777
f 778 780 781 779
f 780 782 783 781
f 782 784 785 783
f 784 776 777 785
g frond_2_3
usemtl bower_fan
f 786 787 788
f 786 788 789
f 787 790 788
f 788 790 789
g vein_2_3
usemtl bower_stem
f 799 797 795 793 791
f 792 794 796 798 800
f 791 793 794 792
f 793 795 796 794
f 795 797 798 796
f 797 799 800 798
f 799 791 792 800
g frond_2_4
usemtl bower_canopy
f 801 802 803
f 801 803 804
f 802 805 803
f 803 805 804
g vein_2_4
usemtl bower_stem
f 814 812 810 808 806
f 807 809 811 813 815
f 806 808 809 807
f 808 810 811 809
f 810 812 813 811
f 812 814 815 813
f 814 806 807 815
g frond_2_5
usemtl bower_fan
f 816 817 818
f 816 818 819
f 817 820 818
f 818 820 819
g vein_2_5
usemtl bower_stem
f 829 827 825 823 821
f 822 824 826 828 830
f 821 823 824 822
f 823 825 826 824
f 825 827 828 826
f 827 829 830 828
f 829 821 822 830
g frond_2_6
usemtl bower_fan
f 831 832 833
f 831 833 834
f 832 835 833
f 833 835 834
g vein_2_6
usemtl bower_stem
f 844 842 840 838 836
f 837 839 841 843 845
f 836 838 839 837
f 838 840 841 839
f 840 842 843 841
f 842 844 845 843
f 844 836 837 845
g spore_head_2
usemtl bower_spore
f 846 847 857 856
f 847 848 858 857
f 848 849 859 858
f 849 850 860 859
f 850 851 861 860
f 851 852 862 861
f 852 853 863 862
f 853 854 864 863
f 854 855 865 864
f 855 846 856 865
f 856 857 867 866
f 857 858 868 867
f 858 859 869 868
f 859 860 870 869
f 860 861 871 870
f 861 862 872 871
f 862 863 873 872
f 863 864 874 873
f 864 865 875 874
f 865 856 866 875
f 866 867 877 876
f 867 868 878 877
f 868 869 879 878
f 869 870 880 879
f 870 871 881 880
f 871 872 882 881
f 872 873 883 882
f 873 874 884 883
f 874 875 885 884
f 875 866 876 885
f 876 877 887 886
f 877 878 888 887
f 878 879 889 888
f 879 880 890 889
f 880 881 891 890
f 881 882 892 891
f 882 883 893 892
f 883 884 894 893
f 884 885 895 894
f 885 876 886 895
g spore_rim_2_0
usemtl bower_spore
f 896 897 904 903
f 897 898 905 904
f 898 899 906 905
f 899 900 907 906
f 900 901 908 907
f 901 902 909 908
f 902 896 903 909
f 903 904 911 910
f 904 905 912 911
f 905 906 913 912
f 906 907 914 913
f 907 908 915 914
f 908 909 916 915
f 909 903 910 916
f 910 911 918 917
f 911 912 919 918
f 912 913 920 919
f 913 914 921 920
f 914 915 922 921
f 915 916 923 922
f 916 910 917 923
g spore_rim_2_1
usemtl bower_spore
f 924 925 932 931
f 925 926 933 932
f 926 927 934 933
f 927 928 935 934
f 928 929 936 935
f 929 930 937 936
f 930 924 931 937
f 931 932 939 938
f 932 933 940 939
f 933 934 941 940
f 934 935 942 941
f 935 936 943 942
f 936 937 944 943
f 937 931 938 944
f 938 939 946 945
f 939 940 947 946
f 940 941 948 947
f 941 942 949 948
f 942 943 950 949
f 943 944 951 950
f 944 938 945 951
g spore_rim_2_2
usemtl bower_spore
f 952 953 960 959
f 953 954 961 960
f 954 955 962 961
f 955 956 963 962
f 956 957 964 963
f 957 958 965 964
f 958 952 959 965
f 959 960 967 966
f 960 961 968 967
f 961 962 969 968
f 962 963 970 969
f 963 964 971 970
f 964 965 972 971
f 965 959 966 972
f 966 967 974 973
f 967 968 975 974
f 968 969 976 975
f 969 970 977 976
f 970 971 978 977
f 971 972 979 978
f 972 966 973 979
g spore_rim_2_3
usemtl bower_spore
f 980 981 988 987
f 981 982 989 988
f 982 983 990 989
f 983 984 991 990
f 984 985 992 991
f 985 986 993 992
f 986 980 987 993
f 987 988 995 994
f 988 989 996 995
f 989 990 997 996
f 990 991 998 997
f 991 992 999 998
f 992 993 1000 999
f 993 987 994 1000
f 994 995 1002 1001
f 995 996 1003 1002
f 996 997 1004 1003
f 997 998 1005 1004
f 998 999 1006 1005
f 999 1000 1007 1006
f 1000 994 1001 1007
g spore_rim_2_4
usemtl bower_spore
f 1008 1009 1016 1015
f 1009 1010 1017 1016
f 1010 1011 1018 1017
f 1011 1012 1019 1018
f 1012 1013 1020 1019
f 1013 1014 1021 1020
f 1014 1008 1015 1021
f 1015 1016 1023 1022
f 1016 1017 1024 1023
f 1017 1018 1025 1024
f 1018 1019 1026 1025
f 1019 1020 1027 1026
f 1020 1021 1028 1027
f 1021 1015 1022 1028
f 1022 1023 1030 1029
f 1023 1024 1031 1030
f 1024 1025 1032 1031
f 1025 1026 1033 1032
f 1026 1027 1034 1033
f 1027 1028 1035 1034
f 1028 1022 1029 1035
g holdfast_3
usemtl bower_stem
f 1036 1037 1045 1044
f 1037 1038 1046 1045
f 1038 1039 1047 1046
f 1039 1040 1048 1047
f 1040 1041 1049 1048
f 1041 1042 1050 1049
f 1042 1043 1051 1050
f 1043 1036 1044 1051
f 1044 1045 1053 1052
f 1045 1046 1054 1053
f 1046 1047 1055 1054
f 1047 1048 1056 1055
f 1048 1049 1057 1056
f 1049 1050 1058 1057
f 1050 1051 1059 1058
f 1051 1044 1052 1059
f 1052 1053 1061 1060
f 1053 1054 1062 1061
f 1054 1055 1063 1062
f 1055 1056 1064 1063
f 1056 1057 1065 1064
f 1057 1058 1066 1065
f 1058 1059 1067 1066
f 1059 1052 1060 1067
g trunk_3
usemtl bower_stem
f 1084 1082 1080 1078 1076 1074 1072 1070 1068
f 1069 1071 1073 1075 1077 1079 1081 1083 1085
f 1068 1070 1071 1069
f 1070 1072 1073 1071
f 1072 1074 1075 1073
f 1074 1076 1077 1075
f 1076 1078 1079 1077
f 1078 1080 1081 1079
f 1080 1082 1083 1081
f 1082 1084 1085 1083
f 1084 1068 1069 1085
g frond_3_0
usemtl bower_canopy
f 1086 1087 1088
f 1086 1088 1089
f 1087 1090 1088
f 1088 1090 1089
g vein_3_0
usemtl bower_stem
f 1099 1097 1095 1093 1091
f 1092 1094 1096 1098 1100
f 1091 1093 1094 1092
f 1093 1095 1096 1094
f 1095 1097 1098 1096
f 1097 1099 1100 1098
f 1099 1091 1092 1100
g frond_3_1
usemtl bower_fan
f 1101 1102 1103
f 1101 1103 1104
f 1102 1105 1103
f 1103 1105 1104
g vein_3_1
usemtl bower_stem
f 1114 1112 1110 1108 1106
f 1107 1109 1111 1113 1115
f 1106 1108 1109 1107
f 1108 1110 1111 1109
f 1110 1112 1113 1111
f 1112 1114 1115 1113
f 1114 1106 1107 1115
g frond_3_2
usemtl bower_fan
f 1116 1117 1118
f 1116 1118 1119
f 1117 1120 1118
f 1118 1120 1119
g vein_3_2
usemtl bower_stem
f 1129 1127 1125 1123 1121
f 1122 1124 1126 1128 1130
f 1121 1123 1124 1122
f 1123 1125 1126 1124
f 1125 1127 1128 1126
f 1127 1129 1130 1128
f 1129 1121 1122 1130
g frond_3_3
usemtl bower_canopy
f 1131 1132 1133
f 1131 1133 1134
f 1132 1135 1133
f 1133 1135 1134
g vein_3_3
usemtl bower_stem
f 1144 1142 1140 1138 1136
f 1137 1139 1141 1143 1145
f 1136 1138 1139 1137
f 1138 1140 1141 1139
f 1140 1142 1143 1141
f 1142 1144 1145 1143
f 1144 1136 1137 1145
g frond_3_4
usemtl bower_fan
f 1146 1147 1148
f 1146 1148 1149
f 1147 1150 1148
f 1148 1150 1149
g vein_3_4
usemtl bower_stem
f 1159 1157 1155 1153 1151
f 1152 1154 1156 1158 1160
f 1151 1153 1154 1152
f 1153 1155 1156 1154
f 1155 1157 1158 1156
f 1157 1159 1160 1158
f 1159 1151 1152 1160
g frond_3_5
usemtl bower_fan
f 1161 1162 1163
f 1161 1163 1164
f 1162 1165 1163
f 1163 1165 1164
g vein_3_5
usemtl bower_stem
f 1174 1172 1170 1168 1166
f 1167 1169 1171 1173 1175
f 1166 1168 1169 1167
f 1168 1170 1171 1169
f 1170 1172 1173 1171
f 1172 1174 1175 1173
f 1174 1166 1167 1175
g frond_3_6
usemtl bower_canopy
f 1176 1177 1178
f 1176 1178 1179
f 1177 1180 1178
f 1178 1180 1179
g vein_3_6
usemtl bower_stem
f 1189 1187 1185 1183 1181
f 1182 1184 1186 1188 1190
f 1181 1183 1184 1182
f 1183 1185 1186 1184
f 1185 1187 1188 1186
f 1187 1189 1190 1188
f 1189 1181 1182 1190
g spore_head_3
usemtl bower_spore
f 1191 1192 1202 1201
f 1192 1193 1203 1202
f 1193 1194 1204 1203
f 1194 1195 1205 1204
f 1195 1196 1206 1205
f 1196 1197 1207 1206
f 1197 1198 1208 1207
f 1198 1199 1209 1208
f 1199 1200 1210 1209
f 1200 1191 1201 1210
f 1201 1202 1212 1211
f 1202 1203 1213 1212
f 1203 1204 1214 1213
f 1204 1205 1215 1214
f 1205 1206 1216 1215
f 1206 1207 1217 1216
f 1207 1208 1218 1217
f 1208 1209 1219 1218
f 1209 1210 1220 1219
f 1210 1201 1211 1220
f 1211 1212 1222 1221
f 1212 1213 1223 1222
f 1213 1214 1224 1223
f 1214 1215 1225 1224
f 1215 1216 1226 1225
f 1216 1217 1227 1226
f 1217 1218 1228 1227
f 1218 1219 1229 1228
f 1219 1220 1230 1229
f 1220 1211 1221 1230
f 1221 1222 1232 1231
f 1222 1223 1233 1232
f 1223 1224 1234 1233
f 1224 1225 1235 1234
f 1225 1226 1236 1235
f 1226 1227 1237 1236
f 1227 1228 1238 1237
f 1228 1229 1239 1238
f 1229 1230 1240 1239
f 1230 1221 1231 1240
g spore_rim_3_0
usemtl bower_spore
f 1241 1242 1249 1248
f 1242 1243 1250 1249
f 1243 1244 1251 1250
f 1244 1245 1252 1251
f 1245 1246 1253 1252
f 1246 1247 1254 1253
f 1247 1241 1248 1254
f 1248 1249 1256 1255
f 1249 1250 1257 1256
f 1250 1251 1258 1257
f 1251 1252 1259 1258
f 1252 1253 1260 1259
f 1253 1254 1261 1260
f 1254 1248 1255 1261
f 1255 1256 1263 1262
f 1256 1257 1264 1263
f 1257 1258 1265 1264
f 1258 1259 1266 1265
f 1259 1260 1267 1266
f 1260 1261 1268 1267
f 1261 1255 1262 1268
g spore_rim_3_1
usemtl bower_spore
f 1269 1270 1277 1276
f 1270 1271 1278 1277
f 1271 1272 1279 1278
f 1272 1273 1280 1279
f 1273 1274 1281 1280
f 1274 1275 1282 1281
f 1275 1269 1276 1282
f 1276 1277 1284 1283
f 1277 1278 1285 1284
f 1278 1279 1286 1285
f 1279 1280 1287 1286
f 1280 1281 1288 1287
f 1281 1282 1289 1288
f 1282 1276 1283 1289
f 1283 1284 1291 1290
f 1284 1285 1292 1291
f 1285 1286 1293 1292
f 1286 1287 1294 1293
f 1287 1288 1295 1294
f 1288 1289 1296 1295
f 1289 1283 1290 1296
g spore_rim_3_2
usemtl bower_spore
f 1297 1298 1305 1304
f 1298 1299 1306 1305
f 1299 1300 1307 1306
f 1300 1301 1308 1307
f 1301 1302 1309 1308
f 1302 1303 1310 1309
f 1303 1297 1304 1310
f 1304 1305 1312 1311
f 1305 1306 1313 1312
f 1306 1307 1314 1313
f 1307 1308 1315 1314
f 1308 1309 1316 1315
f 1309 1310 1317 1316
f 1310 1304 1311 1317
f 1311 1312 1319 1318
f 1312 1313 1320 1319
f 1313 1314 1321 1320
f 1314 1315 1322 1321
f 1315 1316 1323 1322
f 1316 1317 1324 1323
f 1317 1311 1318 1324
g spore_rim_3_3
usemtl bower_spore
f 1325 1326 1333 1332
f 1326 1327 1334 1333
f 1327 1328 1335 1334
f 1328 1329 1336 1335
f 1329 1330 1337 1336
f 1330 1331 1338 1337
f 1331 1325 1332 1338
f 1332 1333 1340 1339
f 1333 1334 1341 1340
f 1334 1335 1342 1341
f 1335 1336 1343 1342
f 1336 1337 1344 1343
f 1337 1338 1345 1344
f 1338 1332 1339 1345
f 1339 1340 1347 1346
f 1340 1341 1348 1347
f 1341 1342 1349 1348
f 1342 1343 1350 1349
f 1343 1344 1351 1350
f 1344 1345 1352 1351
f 1345 1339 1346 1352
g spore_rim_3_4
usemtl bower_spore
f 1353 1354 1361 1360
f 1354 1355 1362 1361
f 1355 1356 1363 1362
f 1356 1357 1364 1363
f 1357 1358 1365 1364
f 1358 1359 1366 1365
f 1359 1353 1360 1366
f 1360 1361 1368 1367
f 1361 1362 1369 1368
f 1362 1363 1370 1369
f 1363 1364 1371 1370
f 1364 1365 1372 1371
f 1365 1366 1373 1372
f 1366 1360 1367 1373
f 1367 1368 1375 1374
f 1368 1369 1376 1375
f 1369 1370 1377 1376
f 1370 1371 1378 1377
f 1371 1372 1379 1378
f 1372 1373 1380 1379
f 1373 1367 1374 1380
g new_growth_0
usemtl living_teal
f 1391 1389 1387 1385 1383 1381
f 1382 1384 1386 1388 1390 1392
f 1381 1383 1384 1382
f 1383 1385 1386 1384
f 1385 1387 1388 1386
f 1387 1389 1390 1388
f 1389 1391 1392 1390
f 1391 1381 1382 1392
g new_growth_1
usemtl living_teal
f 1403 1401 1399 1397 1395 1393
f 1394 1396 1398 1400 1402 1404
f 1393 1395 1396 1394
f 1395 1397 1398 1396
f 1397 1399 1400 1398
f 1399 1401 1402 1400
f 1401 1403 1404 1402
f 1403 1393 1394 1404
g new_growth_2
usemtl living_teal
f 1415 1413 1411 1409 1407 1405
f 1406 1408 1410 1412 1414 1416
f 1405 1407 1408 1406
f 1407 1409 1410 1408
f 1409 1411 1412 1410
f 1411 1413 1414 1412
f 1413 1415 1416 1414
f 1415 1405 1406 1416
g new_growth_3
usemtl living_teal
f 1427 1425 1423 1421 1419 1417
f 1418 1420 1422 1424 1426 1428
f 1417 1419 1420 1418
f 1419 1421 1422 1420
f 1421 1423 1424 1422
f 1423 1425 1426 1424
f 1425 1427 1428 1426
f 1427 1417 1418 1428
g new_growth_4
usemtl living_teal
f 1439 1437 1435 1433 1431 1429
f 1430 1432 1434 1436 1438 1440
f 1429 1431 1432 1430
f 1431 1433 1434 1432
f 1433 1435 1436 1434
f 1435 1437 1438 1436
f 1437 1439 1440 1438
f 1439 1429 1430 1440
g new_growth_5
usemtl living_teal
f 1451 1449 1447 1445 1443 1441
f 1442 1444 1446 1448 1450 1452
f 1441 1443 1444 1442
f 1443 1445 1446 1444
f 1445 1447 1448 1446
f 1447 1449 1450 1448
f 1449 1451 1452 1450
f 1451 1441 1442 1452
g new_growth_6
usemtl living_teal
f 1463 1461 1459 1457 1455 1453
f 1454 1456 1458 1460 1462 1464
f 1453 1455 1456 1454
f 1455 1457 1458 1456
f 1457 1459 1460 1458
f 1459 1461 1462 1460
f 1461 1463 1464 1462
f 1463 1453 1454 1464
g new_growth_7
usemtl living_teal
f 1475 1473 1471 1469 1467 1465
f 1466 1468 1470 1472 1474 1476
f 1465 1467 1468 1466
f 1467 1469 1470 1468
f 1469 1471 1472 1470
f 1471 1473 1474 1472
f 1473 1475 1476 1474
f 1475 1465 1466 1476
g new_growth_8
usemtl living_teal
f 1487 1485 1483 1481 1479 1477
f 1478 1480 1482 1484 1486 1488
f 1477 1479 1480 1478
f 1479 1481 1482 1480
f 1481 1483 1484 1482
f 1483 1485 1486 1484
f 1485 1487 1488 1486
f 1487 1477 1478 1488
g new_growth_9
usemtl living_teal
f 1499 1497 1495 1493 1491 1489
f 1490 1492 1494 1496 1498 1500
f 1489 1491 1492 1490
f 1491 1493 1494 1492
f 1493 1495 1496 1494
f 1495 1497 1498 1496
f 1497 1499 1500 1498
f 1499 1489 1490 1500
g new_growth_10
usemtl living_teal
f 1511 1509 1507 1505 1503 1501
f 1502 1504 1506 1508 1510 1512
f 1501 1503 1504 1502
f 1503 1505 1506 1504
f 1505 1507 1508 1506
f 1507 1509 1510 1508
f 1509 1511 1512 1510
f 1511 1501 1502 1512
g new_growth_11
usemtl living_teal
f 1523 1521 1519 1517 1515 1513
f 1514 1516 1518 1520 1522 1524
f 1513 1515 1516 1514
f 1515 1517 1518 1516
f 1517 1519 1520 1518
f 1519 1521 1522 1520
f 1521 1523 1524 1522
f 1523 1513 1514 1524
