# Generated environment blockout: boulder_c
mtllib environment_blockout.mtl
o boulder_c
v 0.0 0.0 0.0
v 0.0 0.0 0.0
v 0.0 0.0 0.0
v -0.0 0.0 0.0
v -0.0 0.0 0.0
v -0.0 0.0 -0.0
v -0.0 0.0 -0.0
v 0.0 0.0 -0.0
v 0.0 0.0 -0.0
v 0.8229 0.08594 0.0
v 0.63038 0.08594 0.4156
v 0.14289 0.08594 0.63674
v -0.41145 0.08594 0.55994
v -0.77327 0.08594 0.22114
v -0.77327 0.08594 -0.22114
v -0.41145 0.08594 -0.55994
v 0.14289 0.08594 -0.63674
v 0.63038 0.08594 -0.4156
v 1.33148 0.31094 0.0
v 1.01997 0.31094 0.67246
v 0.23121 0.31094 1.03027
v -0.66574 0.31094 0.906
v -1.25118 0.31094 0.35781
v -1.25118 0.31094 -0.35781
v -0.66574 0.31094 -0.906
v 0.23121 0.31094 -1.03027
v 1.01997 0.31094 -0.67246
v 1.33148 0.58906 0.0
v 1.01997 0.58906 0.67246
v 0.23121 0.58906 1.03027
v -0.66574 0.58906 0.906
v -1.25118 0.58906 0.35781
v -1.25118 0.58906 -0.35781
v -0.66574 0.58906 -0.906
v 0.23121 0.58906 -1.03027
v 1.01997 0.58906 -0.67246
v 0.8229 0.81406 0.0
v 0.63038 0.81406 0.4156
v 0.14289 0.81406 0.63674
v -0.41145 0.81406 0.55994
v -0.77327 0.81406 0.22114
v -0.77327 0.81406 -0.22114
v -0.41145 0.81406 -0.55994
v 0.14289 0.81406 -0.63674
v 0.63038 0.81406 -0.4156
v 0.0 0.9 0.0
v 0.0 0.9 0.0
v 0.0 0.9 0.0
v -0.0 0.9 0.0
v -0.0 0.9 0.0
v -0.0 0.9 -0.0
v -0.0 0.9 -0.0
v 0.0 0.9 -0.0
v 0.0 0.9 -0.0
g boulder
usemtl rock
f 1 2 11 10
f 2 3 12 11
f 3 4 13 12
f 4 5 14 13
f 5 6 15 14
f 6 7 16 15
f 7 8 17 16
f 8 9 18 17
f 9 1 10 18
f 10 11 20 19
f 11 12 21 20
f 12 13 22 21
f 13 14 23 22
f 14 15 24 23
f 15 16 25 24
f 16 17 26 25
f 17 18 27 26
f 18 10 19 27
f 19 20 29 28
f 20 21 30 29
f 21 22 31 30
f 22 23 32 31
f 23 24 33 32
f 24 25 34 33
f 25 26 35 34
f 26 27 36 35
f 27 19 28 36
f 28 29 38 37
f 29 30 39 38
f 30 31 40 39
f 31 32 41 40
f 32 33 42 41
f 33 34 43 42
f 34 35 44 43
f 35 36 45 44
f 36 28 37 45
f 37 38 47 46
f 38 39 48 47
f 39 40 49 48
f 40 41 50 49
f 41 42 51 50
f 42 43 52 51
f 43 44 53 52
f 44 45 54 53
f 45 37 46 54
