# Generated environment blockout: carbonate_colony_a
mtllib environment_blockout.mtl
o carbonate_colony_a
v -1.8 0.0 -0.2
v -1.8 0.0 -0.2
v -1.8 0.0 -0.2
v -1.8 0.0 -0.2
v -1.8 0.0 -0.2
v -1.8 0.0 -0.2
v -1.8 0.0 -0.2
v -1.8 0.0 -0.2
v -1.8 0.0 -0.2
v -1.8 0.0 -0.2
v -1.8 0.0 -0.2
v -1.8 0.0 -0.2
v -0.15455 0.035 -0.2
v -0.375 0.035 0.27631
v -0.97728 0.035 0.625
v -1.8 0.035 0.75263
v -2.62272 0.035 0.625
v -3.225 0.035 0.27631
v -3.44545 0.035 -0.2
v -3.225 0.035 -0.67631
v -2.62272 0.035 -1.025
v -1.8 0.035 -1.15263
v -0.97728 0.035 -1.025
v -0.375 0.035 -0.67631
v -0.15455 0.105 -0.2
v -0.375 0.105 0.27631
v -0.97728 0.105 0.625
v -1.8 0.105 0.75263
v -2.62272 0.105 0.625
v -3.225 0.105 0.27631
v -3.44545 0.105 -0.2
v -3.225 0.105 -0.67631
v -2.62272 0.105 -1.025
v -1.8 0.105 -1.15263
v -0.97728 0.105 -1.025
v -0.375 0.105 -0.67631
v -1.8 0.14 -0.2
v -1.8 0.14 -0.2
v -1.8 0.14 -0.2
v -1.8 0.14 -0.2
v -1.8 0.14 -0.2
v -1.8 0.14 -0.2
v -1.8 0.14 -0.2
v -1.8 0.14 -0.2
v -1.8 0.14 -0.2
v -1.8 0.14 -0.2
v -1.8 0.14 -0.2
v -1.8 0.14 -0.2
v 0.4 0.0 0.5
v 0.4 0.0 0.5
v 0.4 0.0 0.5
v 0.4 0.0 0.5
v 0.4 0.0 0.5
v 0.4 0.0 0.5
v 0.4 0.0 0.5
v 0.4 0.0 0.5
v 0.4 0.0 0.5
v 0.4 0.0 0.5
v 0.4 0.0 0.5
v 0.4 0.0 0.5
v 2.30526 0.035 0.5
v 2.05 0.035 1.06292
v 1.35263 0.035 1.475
v 0.4 0.035 1.62583
v -0.55263 0.035 1.475
v -1.25 0.035 1.06292
v -1.50526 0.035 0.5
v -1.25 0.035 -0.06292
v -0.55263 0.035 -0.475
v 0.4 0.035 -0.62583
v 1.35263 0.035 -0.475
v 2.05 0.035 -0.06292
v 2.30526 0.105 0.5
v 2.05 0.105 1.06292
v 1.35263 0.105 1.475
v 0.4 0.105 1.62583
v -0.55263 0.105 1.475
v -1.25 0.105 1.06292
v -1.50526 0.105 0.5
v -1.25 0.105 -0.06292
v -0.55263 0.105 -0.475
v 0.4 0.105 -0.62583
v 1.35263 0.105 -0.475
v 2.05 0.105 -0.06292
v 0.4 0.14 0.5
v 0.4 0.14 0.5
v 0.4 0.14 0.5
v 0.4 0.14 0.5
v 0.4 0.14 0.5
v 0.4 0.14 0.5
v 0.4 0.14 0.5
v 0.4 0.14 0.5
v 0.4 0.14 0.5
v 0.4 0.14 0.5
v 0.4 0.14 0.5
v 0.4 0.14 0.5
v 2.0 0.0 -0.6
v 2.0 0.0 -0.6
v 2.0 0.0 -0.6
v 2.0 0.0 -0.6
v 2.0 0.0 -0.6
v 2.0 0.0 -0.6
v 2.0 0.0 -0.6
v 2.0 0.0 -0.6
v 2.0 0.0 -0.6
v 2.0 0.0 -0.6
v 2.0 0.0 -0.6
v 2.0 0.0 -0.6
v 3.16913 0.035 -0.6
v 3.0125 0.035 -0.23194
v 2.58457 0.035 0.0375
v 2.0 0.035 0.13612
v 1.41543 0.035 0.0375
v 0.9875 0.035 -0.23194
v 0.83087 0.035 -0.6
v 0.9875 0.035 -0.96806
v 1.41543 0.035 -1.2375
v 2.0 0.035 -1.33612
v 2.58457 0.035 -1.2375
v 3.0125 0.035 -0.96806
v 3.16913 0.105 -0.6
v 3.0125 0.105 -0.23194
v 2.58457 0.105 0.0375
v 2.0 0.105 0.13612
v 1.41543 0.105 0.0375
v 0.9875 0.105 -0.23194
v 0.83087 0.105 -0.6
v 0.9875 0.105 -0.96806
v 1.41543 0.105 -1.2375
v 2.0 0.105 -1.33612
v 2.58457 0.105 -1.2375
v 3.0125 0.105 -0.96806
v 2.0 0.14 -0.6
v 2.0 0.14 -0.6
v 2.0 0.14 -0.6
v 2.0 0.14 -0.6
v 2.0 0.14 -0.6
v 2.0 0.14 -0.6
v 2.0 0.14 -0.6
v 2.0 0.14 -0.6
v 2.0 0.14 -0.6
v 2.0 0.14 -0.6
v 2.0 0.14 -0.6
v 2.0 0.14 -0.6
v 0.43513 0.06 0.229
v 0.43513 0.35 0.229
v 0.35694 0.06 0.26665
v 0.35694 0.35 0.26665
v 0.33763 0.06 0.35125
v 0.33763 0.35 0.35125
v 0.39174 0.06 0.41909
v 0.39174 0.35 0.41909
v 0.47852 0.06 0.41909
v 0.47852 0.35 0.41909
v 0.53262 0.06 0.35125
v 0.53262 0.35 0.35125
v 0.51331 0.06 0.26665
v 0.51331 0.35 0.26665
v 0.43513 0.28 0.329
v 0.43513 0.28 0.329
v 0.43513 0.28 0.329
v 0.43513 0.28 0.329
v 0.43513 0.28 0.329
v 0.43513 0.28 0.329
v 0.43513 0.28 0.329
v 0.60833 0.33 0.329
v 0.54312 0.33 0.46441
v 0.39659 0.33 0.49786
v 0.27907 0.33 0.40415
v 0.27907 0.33 0.25385
v 0.39659 0.33 0.16013
v 0.54312 0.33 0.19358
v 0.60833 0.43 0.329
v 0.54312 0.43 0.46441
v 0.39659 0.43 0.49786
v 0.27907 0.43 0.40415
v 0.27907 0.43 0.25385
v 0.39659 0.43 0.16013
v 0.54312 0.43 0.19358
v 0.43513 0.48 0.329
v 0.43513 0.48 0.329
v 0.43513 0.48 0.329
v 0.43513 0.48 0.329
v 0.43513 0.48 0.329
v 0.43513 0.48 0.329
v 0.43513 0.48 0.329
v -2.37033 0.06 -0.32573
v -2.37033 0.8 -0.32573
v -2.44851 0.06 -0.28808
v -2.44851 0.8 -0.28808
v -2.46782 0.06 -0.20348
v -2.46782 0.8 -0.20348
v -2.41372 0.06 -0.13563
v -2.41372 0.8 -0.13563
v -2.32694 0.06 -0.13563
v -2.32694 0.8 -0.13563
v -2.27284 0.06 -0.20348
v -2.27284 0.8 -0.20348
v -2.29215 0.06 -0.28808
v -2.29215 0.8 -0.28808
v -2.37033 0.73 -0.22573
v -2.37033 0.73 -0.22573
v -2.37033 0.73 -0.22573
v -2.37033 0.73 -0.22573
v -2.37033 0.73 -0.22573
v -2.37033 0.73 -0.22573
v -2.37033 0.73 -0.22573
v -2.19712 0.78 -0.22573
v -2.26234 0.78 -0.09031
v -2.40887 0.78 -0.05687
v -2.52638 0.78 -0.15058
v -2.52638 0.78 -0.30088
v -2.40887 0.78 -0.39459
v -2.26234 0.78 -0.36115
v -2.19712 0.88 -0.22573
v -2.26234 0.88 -0.09031
v -2.40887 0.88 -0.05687
v -2.52638 0.88 -0.15058
v -2.52638 0.88 -0.30088
v -2.40887 0.88 -0.39459
v -2.26234 0.88 -0.36115
v -2.37033 0.93 -0.22573
v -2.37033 0.93 -0.22573
v -2.37033 0.93 -0.22573
v -2.37033 0.93 -0.22573
v -2.37033 0.93 -0.22573
v -2.37033 0.93 -0.22573
v -2.37033 0.93 -0.22573
v 1.15038 0.06 -0.55735
v 1.15038 0.35 -0.55735
v 1.0722 0.06 -0.5197
v 1.0722 0.35 -0.5197
v 1.05289 0.06 -0.4351
v 1.05289 0.35 -0.4351
v 1.10699 0.06 -0.36725
v 1.10699 0.35 -0.36725
v 1.19377 0.06 -0.36725
v 1.19377 0.35 -0.36725
v 1.24787 0.06 -0.4351
v 1.24787 0.35 -0.4351
v 1.22856 0.06 -0.5197
v 1.22856 0.35 -0.5197
v 1.15038 0.28 -0.45735
v 1.15038 0.28 -0.45735
v 1.15038 0.28 -0.45735
v 1.15038 0.28 -0.45735
v 1.15038 0.28 -0.45735
v 1.15038 0.28 -0.45735
v 1.15038 0.28 -0.45735
v 1.32359 0.33 -0.45735
v 1.25837 0.33 -0.32193
v 1.11184 0.33 -0.28849
v 0.99433 0.33 -0.3822
v 0.99433 0.33 -0.5325
v 1.11184 0.33 -0.62621
v 1.25837 0.33 -0.59277
v 1.32359 0.43 -0.45735
v 1.25837 0.43 -0.32193
v 1.11184 0.43 -0.28849
v 0.99433 0.43 -0.3822
v 0.99433 0.43 -0.5325
v 1.11184 0.43 -0.62621
v 1.25837 0.43 -0.59277
v 1.15038 0.48 -0.45735
v 1.15038 0.48 -0.45735
v 1.15038 0.48 -0.45735
v 1.15038 0.48 -0.45735
v 1.15038 0.48 -0.45735
v 1.15038 0.48 -0.45735
v 1.15038 0.48 -0.45735
v -0.74115 0.06 1.6937
v -0.74115 0.8 1.6937
v -0.81933 0.06 1.73135
v -0.81933 0.8 1.73135
v -0.83864 0.06 1.81595
v -0.83864 0.8 1.81595
v -0.78454 0.06 1.8838
v -0.78454 0.8 1.8838
v -0.69776 0.06 1.8838
v -0.69776 0.8 1.8838
v -0.64366 0.06 1.81595
v -0.64366 0.8 1.81595
v -0.66297 0.06 1.73135
v -0.66297 0.8 1.73135
v -0.74115 0.73 1.7937
v -0.74115 0.73 1.7937
v -0.74115 0.73 1.7937
v -0.74115 0.73 1.7937
v -0.74115 0.73 1.7937
v -0.74115 0.73 1.7937
v -0.74115 0.73 1.7937
v -0.56795 0.78 1.7937
v -0.63316 0.78 1.92912
v -0.77969 0.78 1.96256
v -0.8972 0.78 1.86885
v -0.8972 0.78 1.71855
v -0.77969 0.78 1.62484
v -0.63316 0.78 1.65828
v -0.56795 0.88 1.7937
v -0.63316 0.88 1.92912
v -0.77969 0.88 1.96256
v -0.8972 0.88 1.86885
v -0.8972 0.88 1.71855
v -0.77969 0.88 1.62484
v -0.63316 0.88 1.65828
v -0.74115 0.93 1.7937
v -0.74115 0.93 1.7937
v -0.74115 0.93 1.7937
v -0.74115 0.93 1.7937
v -0.74115 0.93 1.7937
v -0.74115 0.93 1.7937
v -0.74115 0.93 1.7937
v -0.98685 0.06 -1.18494
v -0.98685 0.35 -1.18494
v -1.06503 0.06 -1.14729
v -1.06503 0.35 -1.14729
v -1.08434 0.06 -1.06269
v -1.08434 0.35 -1.06269
v -1.03024 0.06 -0.99485
v -1.03024 0.35 -0.99485
v -0.94346 0.06 -0.99485
v -0.94346 0.35 -0.99485
v -0.88935 0.06 -1.06269
v -0.88935 0.35 -1.06269
v -0.90866 0.06 -1.14729
v -0.90866 0.35 -1.14729
v -0.98685 0.28 -1.08494
v -0.98685 0.28 -1.08494
v -0.98685 0.28 -1.08494
v -0.98685 0.28 -1.08494
v -0.98685 0.28 -1.08494
v -0.98685 0.28 -1.08494
v -0.98685 0.28 -1.08494
v -0.81364 0.33 -1.08494
v -0.87886 0.33 -0.94953
v -1.02539 0.33 -0.91608
v -1.1429 0.33 -1.00979
v -1.1429 0.33 -1.1601
v -1.02539 0.33 -1.25381
v -0.87886 0.33 -1.22036
v -0.81364 0.43 -1.08494
v -0.87886 0.43 -0.94953
v -1.02539 0.43 -0.91608
v -1.1429 0.43 -1.00979
v -1.1429 0.43 -1.1601
v -1.02539 0.43 -1.25381
v -0.87886 0.43 -1.22036
v -0.98685 0.48 -1.08494
v -0.98685 0.48 -1.08494
v -0.98685 0.48 -1.08494
v -0.98685 0.48 -1.08494
v -0.98685 0.48 -1.08494
v -0.98685 0.48 -1.08494
v -0.98685 0.48 -1.08494
v 0.98435 0.06 0.10139
v 0.98435 0.8 0.10139
v 0.90616 0.06 0.13904
v 0.90616 0.8 0.13904
v 0.88685 0.06 0.22365
v 0.88685 0.8 0.22365
v 0.94096 0.06 0.29149
v 0.94096 0.8 0.29149
v 1.02773 0.06 0.29149
v 1.02773 0.8 0.29149
v 1.08184 0.06 0.22365
v 1.08184 0.8 0.22365
v 1.06253 0.06 0.13904
v 1.06253 0.8 0.13904
v 0.98435 0.73 0.20139
v 0.98435 0.73 0.20139
v 0.98435 0.73 0.20139
v 0.98435 0.73 0.20139
v 0.98435 0.73 0.20139
v 0.98435 0.73 0.20139
v 0.98435 0.73 0.20139
v 1.15755 0.78 0.20139
v 1.09234 0.78 0.33681
v 0.9458 0.78 0.37026
v 0.82829 0.78 0.27654
v 0.82829 0.78 0.12624
v 0.9458 0.78 0.03253
v 1.09234 0.78 0.06598
v 1.15755 0.88 0.20139
v 1.09234 0.88 0.33681
v 0.9458 0.88 0.37026
v 0.82829 0.88 0.27654
v 0.82829 0.88 0.12624
v 0.9458 0.88 0.03253
v 1.09234 0.88 0.06598
v 0.98435 0.93 0.20139
v 0.98435 0.93 0.20139
v 0.98435 0.93 0.20139
v 0.98435 0.93 0.20139
v 0.98435 0.93 0.20139
v 0.98435 0.93 0.20139
v 0.98435 0.93 0.20139
v -2.50856 0.06 0.56128
v -2.50856 0.35 0.56128
v -2.58675 0.06 0.59894
v -2.58675 0.35 0.59894
v -2.60606 0.06 0.68354
v -2.60606 0.35 0.68354
v -2.55195 0.06 0.75138
v -2.55195 0.35 0.75138
v -2.46517 0.06 0.75138
v -2.46517 0.35 0.75138
v -2.41107 0.06 0.68354
v -2.41107 0.35 0.68354
v -2.43038 0.06 0.59894
v -2.43038 0.35 0.59894
v -2.50856 0.28 0.66128
v -2.50856 0.28 0.66128
v -2.50856 0.28 0.66128
v -2.50856 0.28 0.66128
v -2.50856 0.28 0.66128
v -2.50856 0.28 0.66128
v -2.50856 0.28 0.66128
v -2.33536 0.33 0.66128
v -2.40057 0.33 0.7967
v -2.5471 0.33 0.83015
v -2.66462 0.33 0.73644
v -2.66462 0.33 0.58613
v -2.5471 0.33 0.49242
v -2.40057 0.33 0.52587
v -2.33536 0.43 0.66128
v -2.40057 0.43 0.7967
v -2.5471 0.43 0.83015
v -2.66462 0.43 0.73644
v -2.66462 0.43 0.58613
v -2.5471 0.43 0.49242
v -2.40057 0.43 0.52587
v -2.50856 0.48 0.66128
v -2.50856 0.48 0.66128
v -2.50856 0.48 0.66128
v -2.50856 0.48 0.66128
v -2.50856 0.48 0.66128
v -2.50856 0.48 0.66128
v -2.50856 0.48 0.66128
v 0.69229 0.06 -1.04472
v 0.69229 0.8 -1.04472
v 0.61411 0.06 -1.00706
v 0.61411 0.8 -1.00706
v 0.5948 0.06 -0.92246
v 0.5948 0.8 -0.92246
v 0.6489 0.06 -0.85462
v 0.6489 0.8 -0.85462
v 0.73568 0.06 -0.85462
v 0.73568 0.8 -0.85462
v 0.78978 0.06 -0.92246
v 0.78978 0.8 -0.92246
v 0.77047 0.06 -1.00706
v 0.77047 0.8 -1.00706
v 0.69229 0.73 -0.94472
v 0.69229 0.73 -0.94472
v 0.69229 0.73 -0.94472
v 0.69229 0.73 -0.94472
v 0.69229 0.73 -0.94472
v 0.69229 0.73 -0.94472
v 0.69229 0.73 -0.94472
v 0.8655 0.78 -0.94472
v 0.80028 0.78 -0.8093
v 0.65375 0.78 -0.77585
v 0.53624 0.78 -0.86956
v 0.53624 0.78 -1.01987
v 0.65375 0.78 -1.11358
v 0.80028 0.78 -1.08013
v 0.8655 0.88 -0.94472
v 0.80028 0.88 -0.8093
v 0.65375 0.88 -0.77585
v 0.53624 0.88 -0.86956
v 0.53624 0.88 -1.01987
v 0.65375 0.88 -1.11358
v 0.80028 0.88 -1.08013
v 0.69229 0.93 -0.94472
v 0.69229 0.93 -0.94472
v 0.69229 0.93 -0.94472
v 0.69229 0.93 -0.94472
v 0.69229 0.93 -0.94472
v 0.69229 0.93 -0.94472
v 0.69229 0.93 -0.94472
v 0.22574 0.06 0.29756
v 0.22574 0.35 0.29756
v 0.14756 0.06 0.33521
v 0.14756 0.35 0.33521
v 0.12825 0.06 0.41981
v 0.12825 0.35 0.41981
v 0.18235 0.06 0.48766
v 0.18235 0.35 0.48766
v 0.26913 0.06 0.48766
v 0.26913 0.35 0.48766
v 0.32323 0.06 0.41981
v 0.32323 0.35 0.41981
v 0.30392 0.06 0.33521
v 0.30392 0.35 0.33521
v 0.22574 0.28 0.39756
v 0.22574 0.28 0.39756
v 0.22574 0.28 0.39756
v 0.22574 0.28 0.39756
v 0.22574 0.28 0.39756
v 0.22574 0.28 0.39756
v 0.22574 0.28 0.39756
v 0.39894 0.33 0.39756
v 0.33373 0.33 0.53298
v 0.1872 0.33 0.56642
v 0.06969 0.33 0.47271
v 0.06969 0.33 0.32241
v 0.1872 0.33 0.2287
v 0.33373 0.33 0.26214
v 0.39894 0.43 0.39756
v 0.33373 0.43 0.53298
v 0.1872 0.43 0.56642
v 0.06969 0.43 0.47271
v 0.06969 0.43 0.32241
v 0.1872 0.43 0.2287
v 0.33373 0.43 0.26214
v 0.22574 0.48 0.39756
v 0.22574 0.48 0.39756
v 0.22574 0.48 0.39756
v 0.22574 0.48 0.39756
v 0.22574 0.48 0.39756
v 0.22574 0.48 0.39756
v 0.22574 0.48 0.39756
g carbonate_mat_0
usemtl carbonate
f 1 2 14 13
f 2 3 15 14
f 3 4 16 15
f 4 5 17 16
f 5 6 18 17
f 6 7 19 18
f 7 8 20 19
f 8 9 21 20
f 9 10 22 21
f 10 11 23 22
f 11 12 24 23
f 12 1 13 24
f 13 14 26 25
f 14 15 27 26
f 15 16 28 27
f 16 17 29 28
f 17 18 30 29
f 18 19 31 30
f 19 20 32 31
f 20 21 33 32
f 21 22 34 33
f 22 23 35 34
f 23 24 36 35
f 24 13 25 36
f 25 26 38 37
f 26 27 39 38
f 27 28 40 39
f 28 29 41 40
f 29 30 42 41
f 30 31 43 42
f 31 32 44 43
f 32 33 45 44
f 33 34 46 45
f 34 35 47 46
f 35 36 48 47
f 36 25 37 48
g carbonate_mat_1
usemtl carbonate
f 49 50 62 61
f 50 51 63 62
f 51 52 64 63
f 52 53 65 64
f 53 54 66 65
f 54 55 67 66
f 55 56 68 67
f 56 57 69 68
f 57 58 70 69
f 58 59 71 70
f 59 60 72 71
f 60 49 61 72
f 61 62 74 73
f 62 63 75 74
f 63 64 76 75
f 64 65 77 76
f 65 66 78 77
f 66 67 79 78
f 67 68 80 79
f 68 69 81 80
f 69 70 82 81
f 70 71 83 82
f 71 72 84 83
f 72 61 73 84
f 73 74 86 85
f 74 75 87 86
f 75 76 88 87
f 76 77 89 88
f 77 78 90 89
f 78 79 91 90
f 79 80 92 91
f 80 81 93 92
f 81 82 94 93
f 82 83 95 94
f 83 84 96 95
f 84 73 85 96
g carbonate_mat_2
usemtl carbonate
f 97 98 110 109
f 98 99 111 110
f 99 100 112 111
f 100 101 113 112
f 101 102 114 113
f 102 103 115 114
f 103 104 116 115
f 104 105 117 116
f 105 106 118 117
f 106 107 119 118
f 107 108 120 119
f 108 97 109 120
f 109 110 122 121
f 110 111 123 122
f 111 112 124 123
f 112 113 125 124
f 113 114 126 125
f 114 115 127 126
f 115 116 128 127
f 116 117 129 128
f 117 118 130 129
f 118 119 131 130
f 119 120 132 131
f 120 109 121 132
f 121 122 134 133
f 122 123 135 134
f 123 124 136 135
f 124 125 137 136
f 125 126 138 137
f 126 127 139 138
f 127 128 140 139
f 128 129 141 140
f 129 130 142 141
f 130 131 143 142
f 131 132 144 143
f 132 121 133 144
g tube_0
usemtl carbonate_shadow
f 157 155 153 151 149 147 145
f 146 148 150 152 154 156 158
f 145 147 148 146
f 147 149 150 148
f 149 151 152 150
f 151 153 154 152
f 153 155 156 154
f 155 157 158 156
f 157 145 146 158
g rim_0
usemtl living_pale
f 159 160 167 166
f 160 161 168 167
f 161 162 169 168
f 162 163 170 169
f 163 164 171 170
f 164 165 172 171
f 165 159 166 172
f 166 167 174 173
f 167 168 175 174
f 168 169 176 175
f 169 170 177 176
f 170 171 178 177
f 171 172 179 178
f 172 166 173 179
f 173 174 181 180
f 174 175 182 181
f 175 176 183 182
f 176 177 184 183
f 177 178 185 184
f 178 179 186 185
f 179 173 180 186
g tube_1
usemtl carbonate_shadow
f 199 197 195 193 191 189 187
f 188 190 192 194 196 198 200
f 187 189 190 188
f 189 191 192 190
f 191 193 194 192
f 193 195 196 194
f 195 197 198 196
f 197 199 200 198
f 199 187 188 200
g rim_1
usemtl living_pale
f 201 202 209 208
f 202 203 210 209
f 203 204 211 210
f 204 205 212 211
f 205 206 213 212
f 206 207 214 213
f 207 201 208 214
f 208 209 216 215
f 209 210 217 216
f 210 211 218 217
f 211 212 219 218
f 212 213 220 219
f 213 214 221 220
f 214 208 215 221
f 215 216 223 222
f 216 217 224 223
f 217 218 225 224
f 218 219 226 225
f 219 220 227 226
f 220 221 228 227
f 221 215 222 228
g tube_2
usemtl carbonate_shadow
f 241 239 237 235 233 231 229
f 230 232 234 236 238 240 242
f 229 231 232 230
f 231 233 234 232
f 233 235 236 234
f 235 237 238 236
f 237 239 240 238
f 239 241 242 240
f 241 229 230 242
g rim_2
usemtl living_pale
f 243 244 251 250
f 244 245 252 251
f 245 246 253 252
f 246 247 254 253
f 247 248 255 254
f 248 249 256 255
f 249 243 250 256
f 250 251 258 257
f 251 252 259 258
f 252 253 260 259
f 253 254 261 260
f 254 255 262 261
f 255 256 263 262
f 256 250 257 263
f 257 258 265 264
f 258 259 266 265
f 259 260 267 266
f 260 261 268 267
f 261 262 269 268
f 262 263 270 269
f 263 257 264 270
g tube_3
usemtl carbonate_shadow
f 283 281 279 277 275 273 271
f 272 274 276 278 280 282 284
f 271 273 274 272
f 273 275 276 274
f 275 277 278 276
f 277 279 280 278
f 279 281 282 280
f 281 283 284 282
f 283 271 272 284
g rim_3
usemtl living_pale
f 285 286 293 292
f 286 287 294 293
f 287 288 295 294
f 288 289 296 295
f 289 290 297 296
f 290 291 298 297
f 291 285 292 298
f 292 293 300 299
f 293 294 301 300
f 294 295 302 301
f 295 296 303 302
f 296 297 304 303
f 297 298 305 304
f 298 292 299 305
f 299 300 307 306
f 300 301 308 307
f 301 302 309 308
f 302 303 310 309
f 303 304 311 310
f 304 305 312 311
f 305 299 306 312
g tube_4
usemtl carbonate_shadow
f 325 323 321 319 317 315 313
f 314 316 318 320 322 324 326
f 313 315 316 314
f 315 317 318 316
f 317 319 320 318
f 319 321 322 320
f 321 323 324 322
f 323 325 326 324
f 325 313 314 326
g rim_4
usemtl living_pale
f 327 328 335 334
f 328 329 336 335
f 329 330 337 336
f 330 331 338 337
f 331 332 339 338
f 332 333 340 339
f 333 327 334 340
f 334 335 342 341
f 335 336 343 342
f 336 337 344 343
f 337 338 345 344
f 338 339 346 345
f 339 340 347 346
f 340 334 341 347
f 341 342 349 348
f 342 343 350 349
f 343 344 351 350
f 344 345 352 351
f 345 346 353 352
f 346 347 354 353
f 347 341 348 354
g tube_5
usemtl carbonate_shadow
f 367 365 363 361 359 357 355
f 356 358 360 362 364 366 368
f 355 357 358 356
f 357 359 360 358
f 359 361 362 360
f 361 363 364 362
f 363 365 366 364
f 365 367 368 366
f 367 355 356 368
g rim_5
usemtl living_pale
f 369 370 377 376
f 370 371 378 377
f 371 372 379 378
f 372 373 380 379
f 373 374 381 380
f 374 375 382 381
f 375 369 376 382
f 376 377 384 383
f 377 378 385 384
f 378 379 386 385
f 379 380 387 386
f 380 381 388 387
f 381 382 389 388
f 382 376 383 389
f 383 384 391 390
f 384 385 392 391
f 385 386 393 392
f 386 387 394 393
f 387 388 395 394
f 388 389 396 395
f 389 383 390 396
g tube_6
usemtl carbonate_shadow
f 409 407 405 403 401 399 397
f 398 400 402 404 406 408 410
f 397 399 400 398
f 399 401 402 400
f 401 403 404 402
f 403 405 406 404
f 405 407 408 406
f 407 409 410 408
f 409 397 398 410
g rim_6
usemtl living_pale
f 411 412 419 418
f 412 413 420 419
f 413 414 421 420
f 414 415 422 421
f 415 416 423 422
f 416 417 424 423
f 417 411 418 424
f 418 419 426 425
f 419 420 427 426
f 420 421 428 427
f 421 422 429 428
f 422 423 430 429
f 423 424 431 430
f 424 418 425 431
f 425 426 433 432
f 426 427 434 433
f 427 428 435 434
f 428 429 436 435
f 429 430 437 436
f 430 431 438 437
f 431 425 432 438
g tube_7
usemtl carbonate_shadow
f 451 449 447 445 443 441 439
f 440 442 444 446 448 450 452
f 439 441 442 440
f 441 443 444 442
f 443 445 446 444
f 445 447 448 446
f 447 449 450 448
f 449 451 452 450
f 451 439 440 452
g rim_7
usemtl living_pale
f 453 454 461 460
f 454 455 462 461
f 455 456 463 462
f 456 457 464 463
f 457 458 465 464
f 458 459 466 465
f 459 453 460 466
f 460 461 468 467
f 461 462 469 468
f 462 463 470 469
f 463 464 471 470
f 464 465 472 471
f 465 466 473 472
f 466 460 467 473
f 467 468 475 474
f 468 469 476 475
f 469 470 477 476
f 470 471 478 477
f 471 472 479 478
f 472 473 480 479
f 473 467 474 480
g tube_8
usemtl carbonate_shadow
f 493 491 489 487 485 483 481
f 482 484 486 488 490 492 494
f 481 483 484 482
f 483 485 486 484
f 485 487 488 486
f 487 489 490 488
f 489 491 492 490
f 491 493 494 492
f 493 481 482 494
g rim_8
usemtl living_pale
f 495 496 503 502
f 496 497 504 503
f 497 498 505 504
f 498 499 506 505
f 499 500 507 506
f 500 501 508 507
f 501 495 502 508
f 502 503 510 509
f 503 504 511 510
f 504 505 512 511
f 505 506 513 512
f 506 507 514 513
f 507 508 515 514
f 508 502 509 515
f 509 510 517 516
f 510 511 518 517
f 511 512 519 518
f 512 513 520 519
f 513 514 521 520
f 514 515 522 521
f 515 509 516 522
