# Generated environment blockout: carbonate_shelf_a
mtllib environment_blockout.mtl
o carbonate_shelf_a
v -2.2 0.0 0.1
v -2.2 0.0 0.1
v -2.2 0.0 0.1
v -2.2 0.0 0.1
v -2.2 0.0 0.1
v -2.2 0.0 0.1
v -2.2 0.0 0.1
v -2.2 0.0 0.1
v -2.2 0.0 0.1
v -2.2 0.0 0.1
v -2.2 0.0 0.1
v -2.2 0.0 0.1
v -2.2 0.0 0.1
v -0.43223 0.05858 0.1
v -0.63472 0.05858 0.62577
v -1.19579 0.05858 1.0311
v -1.98692 0.05858 1.22312
v -2.82686 0.05858 1.15785
v -3.52319 0.05858 0.85024
v -3.9164 0.05858 0.37075
v -3.9164 0.05858 -0.17075
v -3.52319 0.05858 -0.65024
v -2.82686 0.05858 -0.95785
v -1.98692 0.05858 -1.02312
v -1.19579 0.05858 -0.8311
v -0.63472 0.05858 -0.42577
v 0.3 0.2 0.1
v 0.01364 0.2 0.84356
v -0.77984 0.2 1.41677
v -1.89866 0.2 1.68833
v -3.08651 0.2 1.59603
v -4.07128 0.2 1.161
v -4.62735 0.2 0.48291
v -4.62735 0.2 -0.28291
v -4.07128 0.2 -0.961
v -3.08651 0.2 -1.39603
v -1.89866 0.2 -1.48833
v -0.77984 0.2 -1.21677
v 0.01364 0.2 -0.64356
v -0.43223 0.34142 0.1
v -0.63472 0.34142 0.62577
v -1.19579 0.34142 1.0311
v -1.98692 0.34142 1.22312
v -2.82686 0.34142 1.15785
v -3.52319 0.34142 0.85024
v -3.9164 0.34142 0.37075
v -3.9164 0.34142 -0.17075
v -3.52319 0.34142 -0.65024
v -2.82686 0.34142 -0.95785
v -1.98692 0.34142 -1.02312
v -1.19579 0.34142 -0.8311
v -0.63472 0.34142 -0.42577
v -2.2 0.4 0.1
v -2.2 0.4 0.1
v -2.2 0.4 0.1
v -2.2 0.4 0.1
v -2.2 0.4 0.1
v -2.2 0.4 0.1
v -2.2 0.4 0.1
v -2.2 0.4 0.1
v -2.2 0.4 0.1
v -2.2 0.4 0.1
v -2.2 0.4 0.1
v -2.2 0.4 0.1
v -2.2 0.4 0.1
v 0.2 0.22 -0.35
v 0.2 0.22 -0.35
v 0.2 0.22 -0.35
v 0.2 0.22 -0.35
v 0.2 0.22 -0.35
v 0.2 0.22 -0.35
v 0.2 0.22 -0.35
v 0.2 0.22 -0.35
v 0.2 0.22 -0.35
v 0.2 0.22 -0.35
v 0.2 0.22 -0.35
v 0.2 0.22 -0.35
v 0.2 0.22 -0.35
v 2.25061 0.28737 -0.35
v 2.01572 0.28737 0.2415
v 1.36488 0.28737 0.69749
v 0.44717 0.28737 0.91351
v -0.52716 0.28737 0.84008
v -1.3349 0.28737 0.49402
v -1.79102 0.28737 -0.0454
v -1.79102 0.28737 -0.6546
v -1.3349 0.28737 -1.19402
v -0.52716 0.28737 -1.54008
v 0.44717 0.28737 -1.61351
v 1.36488 0.28737 -1.39749
v 2.01572 0.28737 -0.9415
v 3.1 0.45 -0.35
v 2.76782 0.45 0.4865
v 1.84739 0.45 1.13137
v 0.54956 0.45 1.43688
v -0.82835 0.45 1.33303
v -1.97068 0.45 0.84362
v -2.61573 0.45 0.08077
v -2.61573 0.45 -0.78077
v -1.97068 0.45 -1.54362
v -0.82835 0.45 -2.03303
v 0.54956 0.45 -2.13688
v 1.84739 0.45 -1.83137
v 2.76782 0.45 -1.1865
v 2.25061 0.61263 -0.35
v 2.01572 0.61263 0.2415
v 1.36488 0.61263 0.69749
v 0.44717 0.61263 0.91351
v -0.52716 0.61263 0.84008
v -1.3349 0.61263 0.49402
v -1.79102 0.61263 -0.0454
v -1.79102 0.61263 -0.6546
v -1.3349 0.61263 -1.19402
v -0.52716 0.61263 -1.54008
v 0.44717 0.61263 -1.61351
v 1.36488 0.61263 -1.39749
v 2.01572 0.61263 -0.9415
v 0.2 0.68 -0.35
v 0.2 0.68 -0.35
v 0.2 0.68 -0.35
v 0.2 0.68 -0.35
v 0.2 0.68 -0.35
v 0.2 0.68 -0.35
v 0.2 0.68 -0.35
v 0.2 0.68 -0.35
v 0.2 0.68 -0.35
v 0.2 0.68 -0.35
v 0.2 0.68 -0.35
v 0.2 0.68 -0.35
v 0.2 0.68 -0.35
v 2.3 0.43 0.4
v 2.3 0.43 0.4
v 2.3 0.43 0.4
v 2.3 0.43 0.4
v 2.3 0.43 0.4
v 2.3 0.43 0.4
v 2.3 0.43 0.4
v 2.3 0.43 0.4
v 2.3 0.43 0.4
v 2.3 0.43 0.4
v 2.3 0.43 0.4
v 2.3 0.43 0.4
v 2.3 0.43 0.4
v 3.57279 0.48272 0.4
v 3.427 0.48272 0.81076
v 3.02303 0.48272 1.12742
v 2.45342 0.48272 1.27744
v 1.84866 0.48272 1.22645
v 1.3473 0.48272 0.98612
v 1.06419 0.48272 0.61153
v 1.06419 0.48272 0.18847
v 1.3473 0.48272 -0.18612
v 1.84866 0.48272 -0.42645
v 2.45342 0.48272 -0.47744
v 3.02303 0.48272 -0.32742
v 3.427 0.48272 -0.01076
v 4.1 0.61 0.4
v 3.89382 0.61 0.9809
v 3.32252 0.61 1.42873
v 2.51697 0.61 1.64089
v 1.66171 0.61 1.56877
v 0.95268 0.61 1.2289
v 0.5523 0.61 0.69914
v 0.5523 0.61 0.10086
v 0.95268 0.61 -0.4289
v 1.66171 0.61 -0.76877
v 2.51697 0.61 -0.84089
v 3.32252 0.61 -0.62873
v 3.89382 0.61 -0.1809
v 3.57279 0.73728 0.4
v 3.427 0.73728 0.81076
v 3.02303 0.73728 1.12742
v 2.45342 0.73728 1.27744
v 1.84866 0.73728 1.22645
v 1.3473 0.73728 0.98612
v 1.06419 0.73728 0.61153
v 1.06419 0.73728 0.18847
v 1.3473 0.73728 -0.18612
v 1.84866 0.73728 -0.42645
v 2.45342 0.73728 -0.47744
v 3.02303 0.73728 -0.32742
v 3.427 0.73728 -0.01076
v 2.3 0.79 0.4
v 2.3 0.79 0.4
v 2.3 0.79 0.4
v 2.3 0.79 0.4
v 2.3 0.79 0.4
v 2.3 0.79 0.4
v 2.3 0.79 0.4
v 2.3 0.79 0.4
v 2.3 0.79 0.4
v 2.3 0.79 0.4
v 2.3 0.79 0.4
v 2.3 0.79 0.4
v 2.3 0.79 0.4
v -0.7 0.52 0.55
v -0.7 0.52 0.55
v -0.7 0.52 0.55
v -0.7 0.52 0.55
v -0.7 0.52 0.55
v -0.7 0.52 0.55
v -0.7 0.52 0.55
v -0.7 0.52 0.55
v -0.7 0.52 0.55
v -0.7 0.52 0.55
v -0.7 0.52 0.55
v -0.7 0.52 0.55
v -0.7 0.52 0.55
v 0.57279 0.56686 0.55
v 0.427 0.56686 0.87861
v 0.02303 0.56686 1.13194
v -0.54658 0.56686 1.25195
v -1.15134 0.56686 1.21116
v -1.6527 0.56686 1.0189
v -1.93581 0.56686 0.71922
v -1.93581 0.56686 0.38078
v -1.6527 0.56686 0.0811
v -1.15134 0.56686 -0.11116
v -0.54658 0.56686 -0.15195
v 0.02303 0.56686 -0.03194
v 0.427 0.56686 0.22139
v 1.1 0.68 0.55
v 0.89382 0.68 1.01472
v 0.32252 0.68 1.37298
v -0.48303 0.68 1.54271
v -1.33829 0.68 1.48502
v -2.04732 0.68 1.21312
v -2.4477 0.68 0.78932
v -2.4477 0.68 0.31068
v -2.04732 0.68 -0.11312
v -1.33829 0.68 -0.38502
v -0.48303 0.68 -0.44271
v 0.32252 0.68 -0.27298
v 0.89382 0.68 0.08528
v 0.57279 0.79314 0.55
v 0.427 0.79314 0.87861
v 0.02303 0.79314 1.13194
v -0.54658 0.79314 1.25195
v -1.15134 0.79314 1.21116
v -1.6527 0.79314 1.0189
v -1.93581 0.79314 0.71922
v -1.93581 0.79314 0.38078
v -1.6527 0.79314 0.0811
v -1.15134 0.79314 -0.11116
v -0.54658 0.79314 -0.15195
v 0.02303 0.79314 -0.03194
v 0.427 0.79314 0.22139
v -0.7 0.84 0.55
v -0.7 0.84 0.55
v -0.7 0.84 0.55
v -0.7 0.84 0.55
v -0.7 0.84 0.55
v -0.7 0.84 0.55
v -0.7 0.84 0.55
v -0.7 0.84 0.55
v -0.7 0.84 0.55
v -0.7 0.84 0.55
v -0.7 0.84 0.55
v -0.7 0.84 0.55
v -0.7 0.84 0.55
v -2.8 0.1 -0.7
v -2.8 0.1 -0.7
v -2.8 0.1 -0.7
v -2.8 0.1 -0.7
v -2.8 0.1 -0.7
v -2.8 0.1 -0.7
v -2.8 0.1 -0.7
v -2.8 0.1 -0.7
v -2.55958 0.19373 -0.7
v -2.63 0.19373 -0.53
v -2.8 0.19373 -0.45958
v -2.97 0.19373 -0.53
v -3.04042 0.19373 -0.7
v -2.97 0.19373 -0.87
v -2.8 0.19373 -0.94042
v -2.63 0.19373 -0.87
v -2.46 0.42 -0.7
v -2.55958 0.42 -0.45958
v -2.8 0.42 -0.36
v -3.04042 0.42 -0.45958
v -3.14 0.42 -0.7
v -3.04042 0.42 -0.94042
v -2.8 0.42 -1.04
v -2.55958 0.42 -0.94042
v -2.55958 0.64627 -0.7
v -2.63 0.64627 -0.53
v -2.8 0.64627 -0.45958
v -2.97 0.64627 -0.53
v -3.04042 0.64627 -0.7
v -2.97 0.64627 -0.87
v -2.8 0.64627 -0.94042
v -2.63 0.64627 -0.87
v -2.8 0.74 -0.7
v -2.8 0.74 -0.7
v -2.8 0.74 -0.7
v -2.8 0.74 -0.7
v -2.8 0.74 -0.7
v -2.8 0.74 -0.7
v -2.8 0.74 -0.7
v -2.8 0.74 -0.7
v -1.2 0.1 0.8
v -1.2 0.1 0.8
v -1.2 0.1 0.8
v -1.2 0.1 0.8
v -1.2 0.1 0.8
v -1.2 0.1 0.8
v -1.2 0.1 0.8
v -1.2 0.1 0.8
v -1.01615 0.19373 0.8
v -1.07 0.19373 0.93
v -1.2 0.19373 0.98385
v -1.33 0.19373 0.93
v -1.38385 0.19373 0.8
v -1.33 0.19373 0.67
v -1.2 0.19373 0.61615
v -1.07 0.19373 0.67
v -0.94 0.42 0.8
v -1.01615 0.42 0.98385
v -1.2 0.42 1.06
v -1.38385 0.42 0.98385
v -1.46 0.42 0.8
v -1.38385 0.42 0.61615
v -1.2 0.42 0.54
v -1.01615 0.42 0.61615
v -1.01615 0.64627 0.8
v -1.07 0.64627 0.93
v -1.2 0.64627 0.98385
v -1.33 0.64627 0.93
v -1.38385 0.64627 0.8
v -1.33 0.64627 0.67
v -1.2 0.64627 0.61615
v -1.07 0.64627 0.67
v -1.2 0.74 0.8
v -1.2 0.74 0.8
v -1.2 0.74 0.8
v -1.2 0.74 0.8
v -1.2 0.74 0.8
v -1.2 0.74 0.8
v -1.2 0.74 0.8
v -1.2 0.74 0.8
v 0.6 0.1 -0.8
v 0.6 0.1 -0.8
v 0.6 0.1 -0.8
v 0.6 0.1 -0.8
v 0.6 0.1 -0.8
v 0.6 0.1 -0.8
v 0.6 0.1 -0.8
v 0.6 0.1 -0.8
v 0.89698 0.19373 -0.8
v 0.81 0.19373 -0.59
v 0.6 0.19373 -0.50302
v 0.39 0.19373 -0.59
v 0.30302 0.19373 -0.8
v 0.39 0.19373 -1.01
v 0.6 0.19373 -1.09698
v 0.81 0.19373 -1.01
v 1.02 0.42 -0.8
v 0.89698 0.42 -0.50302
v 0.6 0.42 -0.38
v 0.30302 0.42 -0.50302
v 0.18 0.42 -0.8
v 0.30302 0.42 -1.09698
v 0.6 0.42 -1.22
v 0.89698 0.42 -1.09698
v 0.89698 0.64627 -0.8
v 0.81 0.64627 -0.59
v 0.6 0.64627 -0.50302
v 0.39 0.64627 -0.59
v 0.30302 0.64627 -0.8
v 0.39 0.64627 -1.01
v 0.6 0.64627 -1.09698
v 0.81 0.64627 -1.01
v 0.6 0.74 -0.8
v 0.6 0.74 -0.8
v 0.6 0.74 -0.8
v 0.6 0.74 -0.8
v 0.6 0.74 -0.8
v 0.6 0.74 -0.8
v 0.6 0.74 -0.8
v 0.6 0.74 -0.8
v 2.1 0.1 0.65
v 2.1 0.1 0.65
v 2.1 0.1 0.65
v 2.1 0.1 0.65
v 2.1 0.1 0.65
v 2.1 0.1 0.65
v 2.1 0.1 0.65
v 2.1 0.1 0.65
v 2.31213 0.19373 0.65
v 2.25 0.19373 0.8
v 2.1 0.19373 0.86213
v 1.95 0.19373 0.8
v 1.88787 0.19373 0.65
v 1.95 0.19373 0.5
v 2.1 0.19373 0.43787
v 2.25 0.19373 0.5
v 2.4 0.42 0.65
v 2.31213 0.42 0.86213
v 2.1 0.42 0.95
v 1.88787 0.42 0.86213
v 1.8 0.42 0.65
v 1.88787 0.42 0.43787
v 2.1 0.42 0.35
v 2.31213 0.42 0.43787
v 2.31213 0.64627 0.65
v 2.25 0.64627 0.8
v 2.1 0.64627 0.86213
v 1.95 0.64627 0.8
v 1.88787 0.64627 0.65
v 1.95 0.64627 0.5
v 2.1 0.64627 0.43787
v 2.25 0.64627 0.5
v 2.1 0.74 0.65
v 2.1 0.74 0.65
v 2.1 0.74 0.65
v 2.1 0.74 0.65
v 2.1 0.74 0.65
v 2.1 0.74 0.65
v 2.1 0.74 0.65
v 2.1 0.74 0.65
g precipitate_shelf_0
usemtl carbonate
f 1 2 15 14
f 2 3 16 15
f 3 4 17 16
f 4 5 18 17
f 5 6 19 18
f 6 7 20 19
f 7 8 21 20
f 8 9 22 21
f 9 10 23 22
f 10 11 24 23
f 11 12 25 24
f 12 13 26 25
f 13 1 14 26
f 14 15 28 27
f 15 16 29 28
f 16 17 30 29
f 17 18 31 30
f 18 19 32 31
f 19 20 33 32
f 20 21 34 33
f 21 22 35 34
f 22 23 36 35
f 23 24 37 36
f 24 25 38 37
f 25 26 39 38
f 26 14 27 39
f 27 28 41 40
f 28 29 42 41
f 29 30 43 42
f 30 31 44 43
f 31 32 45 44
f 32 33 46 45
f 33 34 47 46
f 34 35 48 47
f 35 36 49 48
f 36 37 50 49
f 37 38 51 50
f 38 39 52 51
f 39 27 40 52
f 40 41 54 53
f 41 42 55 54
f 42 43 56 55
f 43 44 57 56
f 44 45 58 57
f 45 46 59 58
f 46 47 60 59
f 47 48 61 60
f 48 49 62 61
f 49 50 63 62
f 50 51 64 63
f 51 52 65 64
f 52 40 53 65
g precipitate_shelf_1
usemtl carbonate
f 66 67 80 79
f 67 68 81 80
f 68 69 82 81
f 69 70 83 82
f 70 71 84 83
f 71 72 85 84
f 72 73 86 85
f 73 74 87 86
f 74 75 88 87
f 75 76 89 88
f 76 77 90 89
f 77 78 91 90
f 78 66 79 91
f 79 80 93 92
f 80 81 94 93
f 81 82 95 94
f 82 83 96 95
f 83 84 97 96
f 84 85 98 97
f 85 86 99 98
f 86 87 100 99
f 87 88 101 100
f 88 89 102 101
f 89 90 103 102
f 90 91 104 103
f 91 79 92 104
f 92 93 106 105
f 93 94 107 106
f 94 95 108 107
f 95 96 109 108
f 96 97 110 109
f 97 98 111 110
f 98 99 112 111
f 99 100 113 112
f 100 101 114 113
f 101 102 115 114
f 102 103 116 115
f 103 104 117 116
f 104 92 105 117
f 105 106 119 118
f 106 107 120 119
f 107 108 121 120
f 108 109 122 121
f 109 110 123 122
f 110 111 124 123
f 111 112 125 124
f 112 113 126 125
f 113 114 127 126
f 114 115 128 127
f 115 116 129 128
f 116 117 130 129
f 117 105 118 130
g precipitate_shelf_2
usemtl carbonate
f 131 132 145 144
f 132 133 146 145
f 133 134 147 146
f 134 135 148 147
f 135 136 149 148
f 136 137 150 149
f 137 138 151 150
f 138 139 152 151
f 139 140 153 152
f 140 141 154 153
f 141 142 155 154
f 142 143 156 155
f 143 131 144 156
f 144 145 158 157
f 145 146 159 158
f 146 147 160 159
f 147 148 161 160
f 148 149 162 161
f 149 150 163 162
f 150 151 164 163
f 151 152 165 164
f 152 153 166 165
f 153 154 167 166
f 154 155 168 167
f 155 156 169 168
f 156 144 157 169
f 157 158 171 170
f 158 159 172 171
f 159 160 173 172
f 160 161 174 173
f 161 162 175 174
f 162 163 176 175
f 163 164 177 176
f 164 165 178 177
f 165 166 179 178
f 166 167 180 179
f 167 168 181 180
f 168 169 182 181
f 169 157 170 182
f 170 171 184 183
f 171 172 185 184
f 172 173 186 185
f 173 174 187 186
f 174 175 188 187
f 175 176 189 188
f 176 177 190 189
f 177 178 191 190
f 178 179 192 191
f 179 180 193 192
f 180 181 194 193
f 181 182 195 194
f 182 170 183 195
g precipitate_shelf_3
usemtl carbonate
f 196 197 210 209
f 197 198 211 210
f 198 199 212 211
f 199 200 213 212
f 200 201 214 213
f 201 202 215 214
f 202 203 216 215
f 203 204 217 216
f 204 205 218 217
f 205 206 219 218
f 206 207 220 219
f 207 208 221 220
f 208 196 209 221
f 209 210 223 222
f 210 211 224 223
f 211 212 225 224
f 212 213 226 225
f 213 214 227 226
f 214 215 228 227
f 215 216 229 228
f 216 217 230 229
f 217 218 231 230
f 218 219 232 231
f 219 220 233 232
f 220 221 234 233
f 221 209 222 234
f 222 223 236 235
f 223 224 237 236
f 224 225 238 237
f 225 226 239 238
f 226 227 240 239
f 227 228 241 240
f 228 229 242 241
f 229 230 243 242
f 230 231 244 243
f 231 232 245 244
f 232 233 246 245
f 233 234 247 246
f 234 222 235 247
f 235 236 249 248
f 236 237 250 249
f 237 238 251 250
f 238 239 252 251
f 239 240 253 252
f 240 241 254 253
f 241 242 255 254
f 242 243 256 255
f 243 244 257 256
f 244 245 258 257
f 245 246 259 258
f 246 247 260 259
f 247 235 248 260
g carbon_inclusion_0
usemtl carbonate_shadow
f 261 262 270 269
f 262 263 271 270
f 263 264 272 271
f 264 265 273 272
f 265 266 274 273
f 266 267 275 274
f 267 268 276 275
f 268 261 269 276
f 269 270 278 277
f 270 271 279 278
f 271 272 280 279
f 272 273 281 280
f 273 274 282 281
f 274 275 283 282
f 275 276 284 283
f 276 269 277 284
f 277 278 286 285
f 278 279 287 286
f 279 280 288 287
f 280 281 289 288
f 281 282 290 289
f 282 283 291 290
f 283 284 292 291
f 284 277 285 292
f 285 286 294 293
f 286 287 295 294
f 287 288 296 295
f 288 289 297 296
f 289 290 298 297
f 290 291 299 298
f 291 292 300 299
f 292 285 293 300
g carbon_inclusion_1
usemtl carbonate_shadow
f 301 302 310 309
f 302 303 311 310
f 303 304 312 311
f 304 305 313 312
f 305 306 314 313
f 306 307 315 314
f 307 308 316 315
f 308 301 309 316
f 309 310 318 317
f 310 311 319 318
f 311 312 320 319
f 312 313 321 320
f 313 314 322 321
f 314 315 323 322
f 315 316 324 323
f 316 309 317 324
f 317 318 326 325
f 318 319 327 326
f 319 320 328 327
f 320 321 329 328
f 321 322 330 329
f 322 323 331 330
f 323 324 332 331
f 324 317 325 332
f 325 326 334 333
f 326 327 335 334
f 327 328 336 335
f 328 329 337 336
f 329 330 338 337
f 330 331 339 338
f 331 332 340 339
f 332 325 333 340
g carbon_inclusion_2
usemtl carbonate_shadow
f 341 342 350 349
f 342 343 351 350
f 343 344 352 351
f 344 345 353 352
f 345 346 354 353
f 346 347 355 354
f 347 348 356 355
f 348 341 349 356
f 349 350 358 357
f 350 351 359 358
f 351 352 360 359
f 352 353 361 360
f 353 354 362 361
f 354 355 363 362
f 355 356 364 363
f 356 349 357 364
f 357 358 366 365
f 358 359 367 366
f 359 360 368 367
f 360 361 369 368
f 361 362 370 369
f 362 363 371 370
f 363 364 372 371
f 364 357 365 372
f 365 366 374 373
f 366 367 375 374
f 367 368 376 375
f 368 369 377 376
f 369 370 378 377
f 370 371 379 378
f 371 372 380 379
f 372 365 373 380
g carbon_inclusion_3
usemtl carbonate_shadow
f 381 382 390 389
f 382 383 391 390
f 383 384 392 391
f 384 385 393 392
f 385 386 394 393
f 386 387 395 394
f 387 388 396 395
f 388 381 389 396
f 389 390 398 397
f 390 391 399 398
f 391 392 400 399
f 392 393 401 400
f 393 394 402 401
f 394 395 403 402
f 395 396 404 403
f 396 389 397 404
f 397 398 406 405
f 398 399 407 406
f 399 400 408 407
f 400 401 409 408
f 401 402 410 409
f 402 403 411 410
f 403 404 412 411
f 404 397 405 412
f 405 406 414 413
f 406 407 415 414
f 407 408 416 415
f 408 409 417 416
f 409 410 418 417
f 410 411 419 418
f 411 412 420 419
f 412 405 413 420
