# Generated environment blockout: channel_bank_bend_a
mtllib environment_blockout.mtl
o channel_bank_bend_a
v -3.9 0.0 -4.0
v -1.7 0.0 -4.0
v -1.7 0.44 -4.0
v -3.9 0.44 -4.0
v -3.9 0.0 1.0
v -1.7 0.0 1.0
v -1.7 0.44 1.0
v -3.9 0.44 1.0
v -4.0 0.0 -3.9
v 1.0 0.0 -3.9
v 1.0 0.44 -3.9
v -4.0 0.44 -3.9
v -4.0 0.0 -1.7
v 1.0 0.0 -1.7
v 1.0 0.44 -1.7
v -4.0 0.44 -1.7
v 1.8 0.18 1.8
v 1.8 0.18 1.8
v 1.8 0.18 1.8
v 1.8 0.18 1.8
v 1.8 0.18 1.8
v 1.8 0.18 1.8
v 1.8 0.18 1.8
v 1.8 0.18 1.8
v 1.8 0.18 1.8
v 3.70526 0.26 1.8
v 3.25951 0.26 3.02467
v 2.13084 0.26 3.67631
v 0.84737 0.26 3.45
v 0.00965 0.26 2.45164
v 0.00965 0.26 1.14836
v 0.84737 0.26 0.15
v 2.13084 0.26 -0.07631
v 3.25951 0.26 0.57533
v 3.70526 0.42 1.8
v 3.25951 0.42 3.02467
v 2.13084 0.42 3.67631
v 0.84737 0.42 3.45
v 0.00965 0.42 2.45164
v 0.00965 0.42 1.14836
v 0.84737 0.42 0.15
v 2.13084 0.42 -0.07631
v 3.25951 0.42 0.57533
v 1.8 0.5 1.8
v 1.8 0.5 1.8
v 1.8 0.5 1.8
v 1.8 0.5 1.8
v 1.8 0.5 1.8
v 1.8 0.5 1.8
v 1.8 0.5 1.8
v 1.8 0.5 1.8
v 1.8 0.5 1.8
g outer_bank_a
usemtl flood_silt
f 1 2 3 4
f 5 8 7 6
f 1 5 6 2
f 2 6 7 3
f 3 7 8 4
f 5 1 4 8
g outer_bank_b
usemtl flood_silt
f 9 10 11 12
f 13 16 15 14
f 9 13 14 10
f 10 14 15 11
f 11 15 16 12
f 13 9 12 16
g inner_deposit
usemtl flood_silt
f 17 18 27 26
f 18 19 28 27
f 19 20 29 28
f 20 21 30 29
f 21 22 31 30
f 22 23 32 31
f 23 24 33 32
f 24 25 34 33
f 25 17 26 34
f 26 27 36 35
f 27 28 37 36
f 28 29 38 37
f 29 30 39 38
f 30 31 40 39
f 31 32 41 40
f 32 33 42 41
f 33 34 43 42
f 34 26 35 43
f 35 36 45 44
f 36 37 46 45
f 37 38 47 46
f 38 39 48 47
f 39 40 49 48
f 40 41 50 49
f 41 42 51 50
f 42 43 52 51
f 43 35 44 52
