# Generated environment blockout: channel_bank_straight_a
mtllib environment_blockout.mtl
o channel_bank_straight_a
v -4.3 0.0 -4.0
v -2.2 0.0 -4.0
v -2.2 0.44 -4.0
v -4.3 0.44 -4.0
v -4.3 0.0 4.0
v -2.2 0.0 4.0
v -2.2 0.44 4.0
v -4.3 0.44 4.0
v -2.35 0.25 -3.0
v -2.35 0.25 -3.0
v -2.35 0.25 -3.0
v -2.35 0.25 -3.0
v -2.35 0.25 -3.0
v -2.35 0.25 -3.0
v -2.35 0.25 -3.0
v -2.35 0.25 -3.0
v -1.18087 0.34 -3.0
v -1.5233 0.34 -2.11206
v -2.35 0.34 -1.74426
v -3.1767 0.34 -2.11206
v -3.51913 0.34 -3.0
v -3.1767 0.34 -3.88794
v -2.35 0.34 -4.25574
v -1.5233 0.34 -3.88794
v -1.18087 0.52 -3.0
v -1.5233 0.52 -2.11206
v -2.35 0.52 -1.74426
v -3.1767 0.52 -2.11206
v -3.51913 0.52 -3.0
v -3.1767 0.52 -3.88794
v -2.35 0.52 -4.25574
v -1.5233 0.52 -3.88794
v -2.35 0.61 -3.0
v -2.35 0.61 -3.0
v -2.35 0.61 -3.0
v -2.35 0.61 -3.0
v -2.35 0.61 -3.0
v -2.35 0.61 -3.0
v -2.35 0.61 -3.0
v -2.35 0.61 -3.0
v -2.35 0.25 -1.0
v -2.35 0.25 -1.0
v -2.35 0.25 -1.0
v -2.35 0.25 -1.0
v -2.35 0.25 -1.0
v -2.35 0.25 -1.0
v -2.35 0.25 -1.0
v -2.35 0.25 -1.0
v -1.18087 0.34 -1.0
v -1.5233 0.34 -0.11206
v -2.35 0.34 0.25574
v -3.1767 0.34 -0.11206
v -3.51913 0.34 -1.0
v -3.1767 0.34 -1.88794
v -2.35 0.34 -2.25574
v -1.5233 0.34 -1.88794
v -1.18087 0.52 -1.0
v -1.5233 0.52 -0.11206
v -2.35 0.52 0.25574
v -3.1767 0.52 -0.11206
v -3.51913 0.52 -1.0
v -3.1767 0.52 -1.88794
v -2.35 0.52 -2.25574
v -1.5233 0.52 -1.88794
v -2.35 0.61 -1.0
v -2.35 0.61 -1.0
v -2.35 0.61 -1.0
v -2.35 0.61 -1.0
v -2.35 0.61 -1.0
v -2.35 0.61 -1.0
v -2.35 0.61 -1.0
v -2.35 0.61 -1.0
v -2.35 0.25 1.0
v -2.35 0.25 1.0
v -2.35 0.25 1.0
v -2.35 0.25 1.0
v -2.35 0.25 1.0
v -2.35 0.25 1.0
v -2.35 0.25 1.0
v -2.35 0.25 1.0
v -1.18087 0.34 1.0
v -1.5233 0.34 1.88794
v -2.35 0.34 2.25574
v -3.1767 0.34 1.88794
v -3.51913 0.34 1.0
v -3.1767 0.34 0.11206
v -2.35 0.34 -0.25574
v -1.5233 0.34 0.11206
v -1.18087 0.52 1.0
v -1.5233 0.52 1.88794
v -2.35 0.52 2.25574
v -3.1767 0.52 1.88794
v -3.51913 0.52 1.0
v -3.1767 0.52 0.11206
v -2.35 0.52 -0.25574
v -1.5233 0.52 0.11206
v -2.35 0.61 1.0
v -2.35 0.61 1.0
v -2.35 0.61 1.0
v -2.35 0.61 1.0
v -2.35 0.61 1.0
v -2.35 0.61 1.0
v -2.35 0.61 1.0
v -2.35 0.61 1.0
v -2.35 0.25 3.0
v -2.35 0.25 3.0
v -2.35 0.25 3.0
v -2.35 0.25 3.0
v -2.35 0.25 3.0
v -2.35 0.25 3.0
v -2.35 0.25 3.0
v -2.35 0.25 3.0
v -1.18087 0.34 3.0
v -1.5233 0.34 3.88794
v -2.35 0.34 4.25574
v -3.1767 0.34 3.88794
v -3.51913 0.34 3.0
v -3.1767 0.34 2.11206
v -2.35 0.34 1.74426
v -1.5233 0.34 2.11206
v -1.18087 0.52 3.0
v -1.5233 0.52 3.88794
v -2.35 0.52 4.25574
v -3.1767 0.52 3.88794
v -3.51913 0.52 3.0
v -3.1767 0.52 2.11206
v -2.35 0.52 1.74426
v -1.5233 0.52 2.11206
v -2.35 0.61 3.0
v -2.35 0.61 3.0
v -2.35 0.61 3.0
v -2.35 0.61 3.0
v -2.35 0.61 3.0
v -2.35 0.61 3.0
v -2.35 0.61 3.0
v -2.35 0.61 3.0
v 2.2 0.0 -4.0
v 4.3 0.0 -4.0
v 4.3 0.44 -4.0
v 2.2 0.44 -4.0
v 2.2 0.0 4.0
v 4.3 0.0 4.0
v 4.3 0.44 4.0
v 2.2 0.44 4.0
v 2.35 0.25 -3.0
v 2.35 0.25 -3.0
v 2.35 0.25 -3.0
v 2.35 0.25 -3.0
v 2.35 0.25 -3.0
v 2.35 0.25 -3.0
v 2.35 0.25 -3.0
v 2.35 0.25 -3.0
v 3.51913 0.34 -3.0
v 3.1767 0.34 -2.11206
v 2.35 0.34 -1.74426
v 1.5233 0.34 -2.11206
v 1.18087 0.34 -3.0
v 1.5233 0.34 -3.88794
v 2.35 0.34 -4.25574
v 3.1767 0.34 -3.88794
v 3.51913 0.52 -3.0
v 3.1767 0.52 -2.11206
v 2.35 0.52 -1.74426
v 1.5233 0.52 -2.11206
v 1.18087 0.52 -3.0
v 1.5233 0.52 -3.88794
v 2.35 0.52 -4.25574
v 3.1767 0.52 -3.88794
v 2.35 0.61 -3.0
v 2.35 0.61 -3.0
v 2.35 0.61 -3.0
v 2.35 0.61 -3.0
v 2.35 0.61 -3.0
v 2.35 0.61 -3.0
v 2.35 0.61 -3.0
v 2.35 0.61 -3.0
v 2.35 0.25 -1.0
v 2.35 0.25 -1.0
v 2.35 0.25 -1.0
v 2.35 0.25 -1.0
v 2.35 0.25 -1.0
v 2.35 0.25 -1.0
v 2.35 0.25 -1.0
v 2.35 0.25 -1.0
v 3.51913 0.34 -1.0
v 3.1767 0.34 -0.11206
v 2.35 0.34 0.25574
v 1.5233 0.34 -0.11206
v 1.18087 0.34 -1.0
v 1.5233 0.34 -1.88794
v 2.35 0.34 -2.25574
v 3.1767 0.34 -1.88794
v 3.51913 0.52 -1.0
v 3.1767 0.52 -0.11206
v 2.35 0.52 0.25574
v 1.5233 0.52 -0.11206
v 1.18087 0.52 -1.0
v 1.5233 0.52 -1.88794
v 2.35 0.52 -2.25574
v 3.1767 0.52 -1.88794
v 2.35 0.61 -1.0
v 2.35 0.61 -1.0
v 2.35 0.61 -1.0
v 2.35 0.61 -1.0
v 2.35 0.61 -1.0
v 2.35 0.61 -1.0
v 2.35 0.61 -1.0
v 2.35 0.61 -1.0
v 2.35 0.25 1.0
v 2.35 0.25 1.0
v 2.35 0.25 1.0
v 2.35 0.25 1.0
v 2.35 0.25 1.0
v 2.35 0.25 1.0
v 2.35 0.25 1.0
v 2.35 0.25 1.0
v 3.51913 0.34 1.0
v 3.1767 0.34 1.88794
v 2.35 0.34 2.25574
v 1.5233 0.34 1.88794
v 1.18087 0.34 1.0
v 1.5233 0.34 0.11206
v 2.35 0.34 -0.25574
v 3.1767 0.34 0.11206
v 3.51913 0.52 1.0
v 3.1767 0.52 1.88794
v 2.35 0.52 2.25574
v 1.5233 0.52 1.88794
v 1.18087 0.52 1.0
v 1.5233 0.52 0.11206
v 2.35 0.52 -0.25574
v 3.1767 0.52 0.11206
v 2.35 0.61 1.0
v 2.35 0.61 1.0
v 2.35 0.61 1.0
v 2.35 0.61 1.0
v 2.35 0.61 1.0
v 2.35 0.61 1.0
v 2.35 0.61 1.0
v 2.35 0.61 1.0
v 2.35 0.25 3.0
v 2.35 0.25 3.0
v 2.35 0.25 3.0
v 2.35 0.25 3.0
v 2.35 0.25 3.0
v 2.35 0.25 3.0
v 2.35 0.25 3.0
v 2.35 0.25 3.0
v 3.51913 0.34 3.0
v 3.1767 0.34 3.88794
v 2.35 0.34 4.25574
v 1.5233 0.34 3.88794
v 1.18087 0.34 3.0
v 1.5233 0.34 2.11206
v 2.35 0.34 1.74426
v 3.1767 0.34 2.11206
v 3.51913 0.52 3.0
v 3.1767 0.52 3.88794
v 2.35 0.52 4.25574
v 1.5233 0.52 3.88794
v 1.18087 0.52 3.0
v 1.5233 0.52 2.11206
v 2.35 0.52 1.74426
v 3.1767 0.52 2.11206
v 2.35 0.61 3.0
v 2.35 0.61 3.0
v 2.35 0.61 3.0
v 2.35 0.61 3.0
v 2.35 0.61 3.0
v 2.35 0.61 3.0
v 2.35 0.61 3.0
v 2.35 0.61 3.0
g bank_-1
usemtl flood_silt
f 1 2 3 4
f 5 8 7 6
f 1 5 6 2
f 2 6 7 3
f 3 7 8 4
f 5 1 4 8
g bank_lip_-1_-3
usemtl flood_silt
f 9 10 18 17
f 10 11 19 18
f 11 12 20 19
f 12 13 21 20
f 13 14 22 21
f 14 15 23 22
f 15 16 24 23
f 16 9 17 24
f 17 18 26 25
f 18 19 27 26
f 19 20 28 27
f 20 21 29 28
f 21 22 30 29
f 22 23 31 30
f 23 24 32 31
f 24 17 25 32
f 25 26 34 33
f 26 27 35 34
f 27 28 36 35
f 28 29 37 36
f 29 30 38 37
f 30 31 39 38
f 31 32 40 39
f 32 25 33 40
g bank_lip_-1_-1
usemtl flood_silt
f 41 42 50 49
f 42 43 51 50
f 43 44 52 51
f 44 45 53 52
f 45 46 54 53
f 46 47 55 54
f 47 48 56 55
f 48 41 49 56
f 49 50 58 57
f 50 51 59 58
f 51 52 60 59
f 52 53 61 60
f 53 54 62 61
f 54 55 63 62
f 55 56 64 63
f 56 49 57 64
f 57 58 66 65
f 58 59 67 66
f 59 60 68 67
f 60 61 69 68
f 61 62 70 69
f 62 63 71 70
f 63 64 72 71
f 64 57 65 72
g bank_lip_-1_1
usemtl flood_silt
f 73 74 82 81
f 74 75 83 82
f 75 76 84 83
f 76 77 85 84
f 77 78 86 85
f 78 79 87 86
f 79 80 88 87
f 80 73 81 88
f 81 82 90 89
f 82 83 91 90
f 83 84 92 91
f 84 85 93 92
f 85 86 94 93
f 86 87 95 94
f 87 88 96 95
f 88 81 89 96
f 89 90 98 97
f 90 91 99 98
f 91 92 100 99
f 92 93 101 100
f 93 94 102 101
f 94 95 103 102
f 95 96 104 103
f 96 89 97 104
g bank_lip_-1_3
usemtl flood_silt
f 105 106 114 113
f 106 107 115 114
f 107 108 116 115
f 108 109 117 116
f 109 110 118 117
f 110 111 119 118
f 111 112 120 119
f 112 105 113 120
f 113 114 122 121
f 114 115 123 122
f 115 116 124 123
f 116 117 125 124
f 117 118 126 125
f 118 119 127 126
f 119 120 128 127
f 120 113 121 128
f 121 122 130 129
f 122 123 131 130
f 123 124 132 131
f 124 125 133 132
f 125 126 134 133
f 126 127 135 134
f 127 128 136 135
f 128 121 129 136
g bank_1
usemtl flood_silt
f 137 138 139 140
f 141 144 143 142
f 137 141 142 138
f 138 142 143 139
f 139 143 144 140
f 141 137 140 144
g bank_lip_1_-3
usemtl flood_silt
f 145 146 154 153
f 146 147 155 154
f 147 148 156 155
f 148 149 157 156
f 149 150 158 157
f 150 151 159 158
f 151 152 160 159
f 152 145 153 160
f 153 154 162 161
f 154 155 163 162
f 155 156 164 163
f 156 157 165 164
f 157 158 166 165
f 158 159 167 166
f 159 160 168 167
f 160 153 161 168
f 161 162 170 169
f 162 163 171 170
f 163 164 172 171
f 164 165 173 172
f 165 166 174 173
f 166 167 175 174
f 167 168 176 175
f 168 161 169 176
g bank_lip_1_-1
usemtl flood_silt
f 177 178 186 185
f 178 179 187 186
f 179 180 188 187
f 180 181 189 188
f 181 182 190 189
f 182 183 191 190
f 183 184 192 191
f 184 177 185 192
f 185 186 194 193
f 186 187 195 194
f 187 188 196 195
f 188 189 197 196
f 189 190 198 197
f 190 191 199 198
f 191 192 200 199
f 192 185 193 200
f 193 194 202 201
f 194 195 203 202
f 195 196 204 203
f 196 197 205 204
f 197 198 206 205
f 198 199 207 206
f 199 200 208 207
f 200 193 201 208
g bank_lip_1_1
usemtl flood_silt
f 209 210 218 217
f 210 211 219 218
f 211 212 220 219
f 212 213 221 220
f 213 214 222 221
f 214 215 223 222
f 215 216 224 223
f 216 209 217 224
f 217 218 226 225
f 218 219 227 226
f 219 220 228 227
f 220 221 229 228
f 221 222 230 229
f 222 223 231 230
f 223 224 232 231
f 224 217 225 232
f 225 226 234 233
f 226 227 235 234
f 227 228 236 235
f 228 229 237 236
f 229 230 238 237
f 230 231 239 238
f 231 232 240 239
f 232 225 233 240
g bank_lip_1_3
usemtl flood_silt
f 241 242 250 249
f 242 243 251 250
f 243 244 252 251
f 244 245 253 252
f 245 246 254 253
f 246 247 255 254
f 247 248 256 255
f 248 241 249 256
f 249 250 258 257
f 250 251 259 258
f 251 252 260 259
f 252 253 261 260
f 253 254 262 261
f 254 255 263 262
f 255 256 264 263
f 256 249 257 264
f 257 258 266 265
f 258 259 267 266
f 259 260 268 267
f 260 261 269 268
f 261 262 270 269
f 262 263 271 270
f 263 264 272 271
f 264 257 265 272
