# Generated environment blockout: delta_island_a
mtllib environment_blockout.mtl
o delta_island_a
v 0.0 0.0 0.0
v 0.0 0.0 0.0
v 0.0 0.0 0.0
v 0.0 0.0 0.0
v -0.0 0.0 0.0
v -0.0 0.0 0.0
v -0.0 0.0 0.0
v -0.0 0.0 0.0
v -0.0 0.0 -0.0
v -0.0 0.0 -0.0
v -0.0 0.0 -0.0
v 0.0 0.0 -0.0
v 0.0 0.0 -0.0
v 0.0 0.0 -0.0
v 3.88909 0.07029 0.0
v 3.50395 0.07029 0.73633
v 2.42481 0.07029 1.32681
v 0.8654 0.07029 1.65451
v -0.8654 0.07029 1.65451
v -2.42481 0.07029 1.32681
v -3.50395 0.07029 0.73633
v -3.88909 0.07029 0.0
v -3.50395 0.07029 -0.73633
v -2.42481 0.07029 -1.32681
v -0.8654 0.07029 -1.65451
v 0.8654 0.07029 -1.65451
v 2.42481 0.07029 -1.32681
v 3.50395 0.07029 -0.73633
v 5.5 0.24 0.0
v 4.95533 0.24 1.04132
v 3.42919 0.24 1.8764
v 1.22387 0.24 2.33983
v -1.22387 0.24 2.33983
v -3.42919 0.24 1.8764
v -4.95533 0.24 1.04132
v -5.5 0.24 0.0
v -4.95533 0.24 -1.04132
v -3.42919 0.24 -1.8764
v -1.22387 0.24 -2.33983
v 1.22387 0.24 -2.33983
v 3.42919 0.24 -1.8764
v 4.95533 0.24 -1.04132
v 3.88909 0.40971 0.0
v 3.50395 0.40971 0.73633
v 2.42481 0.40971 1.32681
v 0.8654 0.40971 1.65451
v -0.8654 0.40971 1.65451
v -2.42481 0.40971 1.32681
v -3.50395 0.40971 0.73633
v -3.88909 0.40971 0.0
v -3.50395 0.40971 -0.73633
v -2.42481 0.40971 -1.32681
v -0.8654 0.40971 -1.65451
v 0.8654 0.40971 -1.65451
v 2.42481 0.40971 -1.32681
v 3.50395 0.40971 -0.73633
v 0.0 0.48 0.0
v 0.0 0.48 0.0
v 0.0 0.48 0.0
v 0.0 0.48 0.0
v -0.0 0.48 0.0
v -0.0 0.48 0.0
v -0.0 0.48 0.0
v -0.0 0.48 0.0
v -0.0 0.48 -0.0
v -0.0 0.48 -0.0
v -0.0 0.48 -0.0
v 0.0 0.48 -0.0
v 0.0 0.48 -0.0
v 0.0 0.48 -0.0
v -3.8 0.22879 -0.05935
v -3.62 1.03879 0.06065
v -3.85075 0.23543 -0.02804
v -3.67075 1.04543 0.09196
v -3.85075 0.22664 0.03131
v -3.67075 1.03664 0.15131
v -3.8 0.21121 0.05935
v -3.62 1.02121 0.17935
v -3.74925 0.20457 0.02804
v -3.56925 1.01457 0.14804
v -3.74925 0.21336 -0.03131
v -3.56925 1.02336 0.08869
v -2.55 0.22977 0.42772
v -2.37 0.95702 0.54772
v -2.60048 0.23705 0.45933
v -2.42048 0.9643 0.57933
v -2.60048 0.22728 0.51853
v -2.42048 0.95453 0.63853
v -2.55 0.21023 0.54612
v -2.37 0.93749 0.66612
v -2.49952 0.20295 0.51452
v -2.31952 0.93021 0.63452
v -2.49952 0.21272 0.45532
v -2.31952 0.93998 0.57532
v -1.3 0.23268 -0.27991
v -1.12 0.78777 -0.15991
v -1.34953 0.24168 -0.24727
v -1.16953 0.79678 -0.12727
v -1.34953 0.22901 -0.18862
v -1.16953 0.7841 -0.06862
v -1.3 0.20732 -0.16261
v -1.12 0.76242 -0.04261
v -1.25047 0.19832 -0.19525
v -1.07047 0.75341 -0.07525
v -1.25047 0.21099 -0.2539
v -1.07047 0.76609 -0.1339
v -0.05 0.2354 -0.44437
v 0.13 0.6872 -0.32437
v -0.09849 0.24575 -0.41058
v 0.08151 0.69755 -0.29058
v -0.09849 0.23034 -0.35259
v 0.08151 0.68215 -0.23259
v -0.05 0.2046 -0.32839
v 0.13 0.6564 -0.20839
v -0.00151 0.19425 -0.36218
v 0.17849 0.64605 -0.24218
v -0.00151 0.20966 -0.42017
v 0.17849 0.66146 -0.30017
v 1.2 0.23368 0.33841
v 1.38 0.74603 0.45841
v 1.15084 0.24322 0.37146
v 1.33084 0.75556 0.49146
v 1.15084 0.22953 0.42988
v 1.33084 0.74188 0.54988
v 1.2 0.20632 0.45525
v 1.38 0.71866 0.57525
v 1.24916 0.19678 0.42221
v 1.42916 0.70913 0.54221
v 1.24916 0.21047 0.36379
v 1.42916 0.72281 0.48379
v 2.45 0.23041 0.14697
v 2.63 0.91147 0.26697
v 2.39971 0.2381 0.17879
v 2.57971 0.91916 0.29879
v 2.39971 0.22768 0.23788
v 2.57971 0.90874 0.35788
v 2.45 0.20959 0.26515
v 2.63 0.89065 0.38515
v 2.50029 0.2019 0.23333
v 2.68029 0.88296 0.35333
v 2.50029 0.21232 0.17424
v 2.68029 0.89337 0.29424
v 3.7 0.22887 -0.54981
v 3.88 1.0317 -0.42981
v 3.64927 0.23556 -0.51848
v 3.82927 1.03839 -0.39848
v 3.64927 0.22669 -0.45913
v 3.82927 1.02952 -0.33913
v 3.7 0.21113 -0.43113
v 3.88 1.01396 -0.31113
v 3.75073 0.20444 -0.46246
v 3.93073 1.00727 -0.34246
v 3.75073 0.21331 -0.5218
v 3.93073 1.01614 -0.4018
g island
usemtl flood_silt
f 1 2 16 15
f 2 3 17 16
f 3 4 18 17
f 4 5 19 18
f 5 6 20 19
f 6 7 21 20
f 7 8 22 21
f 8 9 23 22
f 9 10 24 23
f 10 11 25 24
f 11 12 26 25
f 12 13 27 26
f 13 14 28 27
f 14 1 15 28
f 15 16 30 29
f 16 17 31 30
f 17 18 32 31
f 18 19 33 32
f 19 20 34 33
f 20 21 35 34
f 21 22 36 35
f 22 23 37 36
f 23 24 38 37
f 24 25 39 38
f 25 26 40 39
f 26 27 41 40
f 27 28 42 41
f 28 15 29 42
f 29 30 44 43
f 30 31 45 44
f 31 32 46 45
f 32 33 47 46
f 33 34 48 47
f 34 35 49 48
f 35 36 50 49
f 36 37 51 50
f 37 38 52 51
f 38 39 53 52
f 39 40 54 53
f 40 41 55 54
f 41 42 56 55
f 42 29 43 56
f 43 44 58 57
f 44 45 59 58
f 45 46 60 59
f 46 47 61 60
f 47 48 62 61
f 48 49 63 62
f 49 50 64 63
f 50 51 65 64
f 51 52 66 65
f 52 53 67 66
f 53 54 68 67
f 54 55 69 68
f 55 56 70 69
f 56 43 57 70
g filter_stalk_0
usemtl living_green
f 81 79 77 75 73 71
f 72 74 76 78 80 82
f 71 73 74 72
f 73 75 76 74
f 75 77 78 76
f 77 79 80 78
f 79 81 82 80
f 81 71 72 82
g filter_stalk_1
usemtl living_green
f 93 91 89 87 85 83
f 84 86 88 90 92 94
f 83 85 86 84
f 85 87 88 86
f 87 89 90 88
f 89 91 92 90
f 91 93 94 92
f 93 83 84 94
g filter_stalk_2
usemtl living_green
f 105 103 101 99 97 95
f 96 98 100 102 104 106
f 95 97 98 96
f 97 99 100 98
f 99 101 102 100
f 101 103 104 102
f 103 105 106 104
f 105 95 96 106
g filter_stalk_3
usemtl living_green
f 117 115 113 111 109 107
f 108 110 112 114 116 118
f 107 109 110 108
f 109 111 112 110
f 111 113 114 112
f 113 115 116 114
f 115 117 118 116
f 117 107 108 118
g filter_stalk_4
usemtl living_green
f 129 127 125 123 121 119
f 120 122 124 126 128 130
f 119 121 122 120
f 121 123 124 122
f 123 125 126 124
f 125 127 128 126
f 127 129 130 128
f 129 119 120 130
g filter_stalk_5
usemtl living_green
f 141 139 137 135 133 131
f 132 134 136 138 140 142
f 131 133 134 132
f 133 135 136 134
f 135 137 138 136
f 137 139 140 138
f 139 141 142 140
f 141 131 132 142
g filter_stalk_6
usemtl living_green
f 153 151 149 147 145 143
f 144 146 148 150 152 154
f 143 145 146 144
f 145 147 148 146
f 147 149 150 148
f 149 151 152 150
f 151 153 154 152
f 153 143 144 154
