# Generated environment blockout: detail_pebbles_a
mtllib environment_blockout.mtl
o detail_pebbles_a
v -0.8 0.0 -0.3
v -0.8 0.0 -0.3
v -0.8 0.0 -0.3
v -0.8 0.0 -0.3
v -0.8 0.0 -0.3
v -0.8 0.0 -0.3
v -0.60947 0.0495 -0.3
v -0.70474 0.0495 -0.168
v -0.89526 0.0495 -0.168
v -0.99053 0.0495 -0.3
v -0.89526 0.0495 -0.432
v -0.70474 0.0495 -0.432
v -0.60947 0.1485 -0.3
v -0.70474 0.1485 -0.168
v -0.89526 0.1485 -0.168
v -0.99053 0.1485 -0.3
v -0.89526 0.1485 -0.432
v -0.70474 0.1485 -0.432
v -0.8 0.198 -0.3
v -0.8 0.198 -0.3
v -0.8 0.198 -0.3
v -0.8 0.198 -0.3
v -0.8 0.198 -0.3
v -0.8 0.198 -0.3
v -0.25 0.0 0.2
v -0.25 0.0 0.2
v -0.25 0.0 0.2
v -0.25 0.0 0.2
v -0.25 0.0 0.2
v -0.25 0.0 0.2
v -0.11144 0.036 0.2
v -0.18072 0.036 0.296
v -0.31928 0.036 0.296
v -0.38856 0.036 0.2
v -0.31928 0.036 0.104
v -0.18072 0.036 0.104
v -0.11144 0.108 0.2
v -0.18072 0.108 0.296
v -0.31928 0.108 0.296
v -0.38856 0.108 0.2
v -0.31928 0.108 0.104
v -0.18072 0.108 0.104
v -0.25 0.144 0.2
v -0.25 0.144 0.2
v -0.25 0.144 0.2
v -0.25 0.144 0.2
v -0.25 0.144 0.2
v -0.25 0.144 0.2
v 0.22 0.0 -0.15
v 0.22 0.0 -0.15
v 0.22 0.0 -0.15
v 0.22 0.0 -0.15
v 0.22 0.0 -0.15
v 0.22 0.0 -0.15
v 0.38454 0.04275 -0.15
v 0.30227 0.04275 -0.036
v 0.13773 0.04275 -0.036
v 0.05546 0.04275 -0.15
v 0.13773 0.04275 -0.264
v 0.30227 0.04275 -0.264
v 0.38454 0.12825 -0.15
v 0.30227 0.12825 -0.036
v 0.13773 0.12825 -0.036
v 0.05546 0.12825 -0.15
v 0.13773 0.12825 -0.264
v 0.30227 0.12825 -0.264
v 0.22 0.171 -0.15
v 0.22 0.171 -0.15
v 0.22 0.171 -0.15
v 0.22 0.171 -0.15
v 0.22 0.171 -0.15
v 0.22 0.171 -0.15
v 0.7 0.0 0.25
v 0.7 0.0 0.25
v 0.7 0.0 0.25
v 0.7 0.0 0.25
v 0.7 0.0 0.25
v 0.7 0.0 0.25
v 0.91651 0.05625 0.25
v 0.80825 0.05625 0.4
v 0.59175 0.05625 0.4
v 0.48349 0.05625 0.25
v 0.59175 0.05625 0.1
v 0.80825 0.05625 0.1
v 0.91651 0.16875 0.25
v 0.80825 0.16875 0.4
v 0.59175 0.16875 0.4
v 0.48349 0.16875 0.25
v 0.59175 0.16875 0.1
v 0.80825 0.16875 0.1
v 0.7 0.225 0.25
v 0.7 0.225 0.25
v 0.7 0.225 0.25
v 0.7 0.225 0.25
v 0.7 0.225 0.25
v 0.7 0.225 0.25
v 0.05 0.0 0.55
v 0.05 0.0 0.55
v 0.05 0.0 0.55
v 0.05 0.0 0.55
v 0.05 0.0 0.55
v 0.05 0.0 0.55
v 0.15392 0.027 0.55
v 0.10196 0.027 0.622
v -0.00196 0.027 0.622
v -0.05392 0.027 0.55
v -0.00196 0.027 0.478
v 0.10196 0.027 0.478
v 0.15392 0.081 0.55
v 0.10196 0.081 0.622
v -0.00196 0.081 0.622
v -0.05392 0.081 0.55
v -0.00196 0.081 0.478
v 0.10196 0.081 0.478
v 0.05 0.108 0.55
v 0.05 0.108 0.55
v 0.05 0.108 0.55
v 0.05 0.108 0.55
v 0.05 0.108 0.55
v 0.05 0.108 0.55
g pebble_0
usemtl rock
f 1 2 8 7
f 2 3 9 8
f 3 4 10 9
f 4 5 11 10
f 5 6 12 11
f 6 1 7 12
f 7 8 14 13
f 8 9 15 14
f 9 10 16 15
f 10 11 17 16
f 11 12 18 17
f 12 7 13 18
f 13 14 20 19
f 14 15 21 20
f 15 16 22 21
f 16 17 23 22
f 17 18 24 23
f 18 13 19 24
g pebble_1
usemtl rock
f 25 26 32 31
f 26 27 33 32
f 27 28 34 33
f 28 29 35 34
f 29 30 36 35
f 30 25 31 36
f 31 32 38 37
f 32 33 39 38
f 33 34 40 39
f 34 35 41 40
f 35 36 42 41
f 36 31 37 42
f 37 38 44 43
f 38 39 45 44
f 39 40 46 45
f 40 41 47 46
f 41 42 48 47
f 42 37 43 48
g pebble_2
usemtl rock
f 49 50 56 55
f 50 51 57 56
f 51 52 58 57
f 52 53 59 58
f 53 54 60 59
f 54 49 55 60
f 55 56 62 61
f 56 57 63 62
f 57 58 64 63
f 58 59 65 64
f 59 60 66 65
f 60 55 61 66
f 61 62 68 67
f 62 63 69 68
f 63 64 70 69
f 64 65 71 70
f 65 66 72 71
f 66 61 67 72
g pebble_3
usemtl rock
f 73 74 80 79
f 74 75 81 80
f 75 76 82 81
f 76 77 83 82
f 77 78 84 83
f 78 73 79 84
f 79 80 86 85
f 80 81 87 86
f 81 82 88 87
f 82 83 89 88
f 83 84 90 89
f 84 79 85 90
f 85 86 92 91
f 86 87 93 92
f 87 88 94 93
f 88 89 95 94
f 89 90 96 95
f 90 85 91 96
g pebble_4
usemtl rock
f 97 98 104 103
f 98 99 105 104
f 99 100 106 105
f 100 101 107 106
f 101 102 108 107
f 102 97 103 108
f 103 104 110 109
f 104 105 111 110
f 105 106 112 111
f 106 107 113 112
f 107 108 114 113
f 108 103 109 114
f 109 110 116 115
f 110 111 117 116
f 111 112 118 117
f 112 113 119 118
f 113 114 120 119
f 114 109 115 120
