# Generated environment blockout: detail_scar_a
mtllib environment_blockout.mtl
o detail_scar_a
v -1.21336 0.05 -0.46765
v 1.08664 0.05 0.48235
v -1.20413 0.01671 -0.49
v 1.09587 0.01671 0.46
v -1.18919 0.02943 -0.52617
v 1.11081 0.02943 0.42383
v -1.18919 0.07057 -0.52617
v 1.11081 0.07057 0.42383
v -1.20413 0.08329 -0.49
v 1.09587 0.08329 0.46
v -0.87803 0.05 0.62724
v 0.67197 0.05 -0.62276
v -0.89321 0.01671 0.60842
v 0.65679 0.01671 -0.64158
v -0.91778 0.02943 0.57796
v 0.63222 0.02943 -0.67204
v -0.91778 0.07057 0.57796
v 0.63222 0.07057 -0.67204
v -0.89321 0.08329 0.60842
v 0.65679 0.08329 -0.64158
v -0.2668 0.05 0.76107
v 0.2332 0.05 -0.73893
v -0.28974 0.01671 0.75342
v 0.21026 0.01671 -0.74658
v -0.32686 0.02943 0.74105
v 0.17314 0.02943 -0.75895
v -0.32686 0.07057 0.74105
v 0.17314 0.07057 -0.75895
v -0.28974 0.08329 0.75342
v 0.21026 0.08329 -0.74658
g scar
usemtl rock
f 9 7 5 3 1
f 2 4 6 8 10
f 1 3 4 2
f 3 5 6 4
f 5 7 8 6
f 7 9 10 8
f 9 1 2 10
f 19 17 15 13 11
f 12 14 16 18 20
f 11 13 14 12
f 13 15 16 14
f 15 17 18 16
f 17 19 20 18
f 19 11 12 20
f 29 27 25 23 21
f 22 24 26 28 30
f 21 23 24 22
f 23 25 26 24
f 25 27 28 26
f 27 29 30 28
f 29 21 22 30
