# Generated environment blockout: detail_ripple_a
mtllib environment_blockout.mtl
o detail_ripple_a
v -1.2 0.025 -0.525
v 1.2 0.025 -0.525
v -1.2 0.00122 -0.54227
v 1.2 0.00122 -0.54227
v -1.2 0.01031 -0.57023
v 1.2 0.01031 -0.57023
v -1.2 0.03969 -0.57023
v 1.2 0.03969 -0.57023
v -1.2 0.04878 -0.54227
v 1.2 0.04878 -0.54227
v -1.2 0.025 0.025
v 1.2 0.025 0.025
v -1.2 0.00122 0.00773
v 1.2 0.00122 0.00773
v -1.2 0.01031 -0.02023
v 1.2 0.01031 -0.02023
v -1.2 0.03969 -0.02023
v 1.2 0.03969 -0.02023
v -1.2 0.04878 0.00773
v 1.2 0.04878 0.00773
v -1.2 0.025 0.575
v 1.2 0.025 0.575
v -1.2 0.00122 0.55773
v 1.2 0.00122 0.55773
v -1.2 0.01031 0.52977
v 1.2 0.01031 0.52977
v -1.2 0.03969 0.52977
v 1.2 0.03969 0.52977
v -1.2 0.04878 0.55773
v 1.2 0.04878 0.55773
g ripple
usemtl sand
f 9 7 5 3 1
f 2 4 6 8 10
f 1 3 4 2
f 3 5 6 4
f 5 7 8 6
f 7 9 10 8
f 9 1 2 10
f 19 17 15 13 11
f 12 14 16 18 20
f 11 13 14 12
f 13 15 16 14
f 15 17 18 16
f 17 19 20 18
f 19 11 12 20
f 29 27 25 23 21
f 22 24 26 28 30
f 21 23 24 22
f 23 25 26 24
f 25 27 28 26
f 27 29 30 28
f 29 21 22 30
