# Generated environment blockout: filter_grove_a
mtllib environment_blockout.mtl
o filter_grove_a
v -1.8 0.0 -0.6
v -1.8 0.0 -0.6
v -1.8 0.0 -0.6
v -1.8 0.0 -0.6
v -1.8 0.0 -0.6
v -1.8 0.0 -0.6
v -1.8 0.0 -0.6
v -1.8 0.0 -0.6
v -1.8 0.0 -0.6
v -1.8 0.0 -0.6
v -1.8 0.0 -0.6
v -0.15455 0.0275 -0.6
v -0.41576 0.0275 -0.13179
v -1.11646 0.0275 0.18776
v -2.03417 0.0275 0.25721
v -2.87754 0.0275 0.0545
v -3.3788 0.0275 -0.35601
v -3.3788 0.0275 -0.84399
v -2.87754 0.0275 -1.2545
v -2.03417 0.0275 -1.45721
v -1.11646 0.0275 -1.38776
v -0.41576 0.0275 -1.06821
v -0.15455 0.0825 -0.6
v -0.41576 0.0825 -0.13179
v -1.11646 0.0825 0.18776
v -2.03417 0.0825 0.25721
v -2.87754 0.0825 0.0545
v -3.3788 0.0825 -0.35601
v -3.3788 0.0825 -0.84399
v -2.87754 0.0825 -1.2545
v -2.03417 0.0825 -1.45721
v -1.11646 0.0825 -1.38776
v -0.41576 0.0825 -1.06821
v -1.8 0.11 -0.6
v -1.8 0.11 -0.6
v -1.8 0.11 -0.6
v -1.8 0.11 -0.6
v -1.8 0.11 -0.6
v -1.8 0.11 -0.6
v -1.8 0.11 -0.6
v -1.8 0.11 -0.6
v -1.8 0.11 -0.6
v -1.8 0.11 -0.6
v -1.8 0.11 -0.6
v 0.4 0.0 0.5
v 0.4 0.0 0.5
v 0.4 0.0 0.5
v 0.4 0.0 0.5
v 0.4 0.0 0.5
v 0.4 0.0 0.5
v 0.4 0.0 0.5
v 0.4 0.0 0.5
v 0.4 0.0 0.5
v 0.4 0.0 0.5
v 0.4 0.0 0.5
v 2.30526 0.0275 0.5
v 2.0028 0.0275 1.08526
v 1.19147 0.0275 1.48471
v 0.12885 0.0275 1.57151
v -0.84768 0.0275 1.31812
v -1.42808 0.0275 0.80498
v -1.42808 0.0275 0.19502
v -0.84768 0.0275 -0.31812
v 0.12885 0.0275 -0.57151
v 1.19147 0.0275 -0.48471
v 2.0028 0.0275 -0.08526
v 2.30526 0.0825 0.5
v 2.0028 0.0825 1.08526
v 1.19147 0.0825 1.48471
v 0.12885 0.0825 1.57151
v -0.84768 0.0825 1.31812
v -1.42808 0.0825 0.80498
v -1.42808 0.0825 0.19502
v -0.84768 0.0825 -0.31812
v 0.12885 0.0825 -0.57151
v 1.19147 0.0825 -0.48471
v 2.0028 0.0825 -0.08526
v 0.4 0.11 0.5
v 0.4 0.11 0.5
v 0.4 0.11 0.5
v 0.4 0.11 0.5
v 0.4 0.11 0.5
v 0.4 0.11 0.5
v 0.4 0.11 0.5
v 0.4 0.11 0.5
v 0.4 0.11 0.5
v 0.4 0.11 0.5
v 0.4 0.11 0.5
v 2.1 0.0 -0.4
v 2.1 0.0 -0.4
v 2.1 0.0 -0.4
v 2.1 0.0 -0.4
v 2.1 0.0 -0.4
v 2.1 0.0 -0.4
v 2.1 0.0 -0.4
v 2.1 0.0 -0.4
v 2.1 0.0 -0.4
v 2.1 0.0 -0.4
v 2.1 0.0 -0.4
v 3.35574 0.0275 -0.4
v 3.15639 0.0275 0.02139
v 2.62165 0.0275 0.30899
v 1.92129 0.0275 0.37149
v 1.27767 0.0275 0.18905
v 0.89513 0.0275 -0.18041
v 0.89513 0.0275 -0.61959
v 1.27767 0.0275 -0.98905
v 1.92129 0.0275 -1.17149
v 2.62165 0.0275 -1.10899
v 3.15639 0.0275 -0.82139
v 3.35574 0.0825 -0.4
v 3.15639 0.0825 0.02139
v 2.62165 0.0825 0.30899
v 1.92129 0.0825 0.37149
v 1.27767 0.0825 0.18905
v 0.89513 0.0825 -0.18041
v 0.89513 0.0825 -0.61959
v 1.27767 0.0825 -0.98905
v 1.92129 0.0825 -1.17149
v 2.62165 0.0825 -1.10899
v 3.15639 0.0825 -0.82139
v 2.1 0.11 -0.4
v 2.1 0.11 -0.4
v 2.1 0.11 -0.4
v 2.1 0.11 -0.4
v 2.1 0.11 -0.4
v 2.1 0.11 -0.4
v 2.1 0.11 -0.4
v 2.1 0.11 -0.4
v 2.1 0.11 -0.4
v 2.1 0.11 -0.4
v 2.1 0.11 -0.4
v 0.64474 0.07836 0.03952
v 0.8208 1.26836 0.22373
v 0.55191 0.08486 0.08624
v 0.72797 1.27486 0.27045
v 0.52898 0.07264 0.18708
v 0.70504 1.26264 0.37129
v 0.59322 0.0509 0.2661
v 0.76929 1.2409 0.45031
v 0.69626 0.03602 0.2638
v 0.87232 1.22602 0.44801
v 0.7605 0.03919 0.1819
v 0.93657 1.22919 0.36612
v 0.73758 0.05803 0.08209
v 0.91364 1.24803 0.2663
v 0.66029 0.625 0.11587
v 0.34029 0.865 -0.00193
v 0.62643 0.59 0.13654
v 0.30643 0.83 0.01874
v 0.61788 0.60337 0.18701
v 0.29788 0.84337 0.0692
v 0.64645 0.64663 0.19753
v 0.32645 0.88663 0.07972
v 0.67266 0.66 0.15356
v 0.35266 0.9 0.03576
v 0.32474 0.865 0.0403
v 0.32474 0.865 0.0403
v 0.32474 0.865 0.0403
v 0.32474 0.865 0.0403
v 0.32474 0.865 0.0403
v 0.32474 0.865 0.0403
v 0.44599 0.955 0.0403
v 0.38536 0.955 0.1078
v 0.26412 0.955 0.1078
v 0.2035 0.955 0.0403
v 0.26412 0.955 -0.0272
v 0.38536 0.955 -0.0272
v 0.44599 1.135 0.0403
v 0.38536 1.135 0.1078
v 0.26412 1.135 0.1078
v 0.2035 1.135 0.0403
v 0.26412 1.135 -0.0272
v 0.38536 1.135 -0.0272
v 0.32474 1.225 0.0403
v 0.32474 1.225 0.0403
v 0.32474 1.225 0.0403
v 0.32474 1.225 0.0403
v 0.32474 1.225 0.0403
v 0.32474 1.225 0.0403
v 0.6292 0.925 0.20033
v 0.9492 1.165 0.31814
v 0.66305 0.89 0.17966
v 0.98305 1.13 0.29747
v 0.67161 0.90337 0.1292
v 0.99161 1.14337 0.24701
v 0.64303 0.94663 0.11868
v 0.96303 1.18663 0.23649
v 0.61682 0.96 0.16264
v 0.93682 1.2 0.28045
v 0.96474 1.165 0.27591
v 0.96474 1.165 0.27591
v 0.96474 1.165 0.27591
v 0.96474 1.165 0.27591
v 0.96474 1.165 0.27591
v 0.96474 1.165 0.27591
v 1.08599 1.255 0.27591
v 1.02536 1.255 0.34341
v 0.90412 1.255 0.34341
v 0.8435 1.255 0.27591
v 0.90412 1.255 0.20841
v 1.02536 1.255 0.20841
v 1.08599 1.435 0.27591
v 1.02536 1.435 0.34341
v 0.90412 1.435 0.34341
v 0.8435 1.435 0.27591
v 0.90412 1.435 0.20841
v 1.02536 1.435 0.20841
v 0.96474 1.525 0.27591
v 0.96474 1.525 0.27591
v 0.96474 1.525 0.27591
v 0.96474 1.525 0.27591
v 0.96474 1.525 0.27591
v 0.96474 1.525 0.27591
v 0.8208 1.15 0.34232
v 0.8208 1.15 0.34232
v 0.8208 1.15 0.34232
v 0.8208 1.15 0.34232
v 0.8208 1.15 0.34232
v 0.8208 1.15 0.34232
v 0.8208 1.15 0.34232
v 1.04597 1.225 0.34232
v 0.96119 1.225 0.51836
v 0.7707 1.225 0.56184
v 0.61794 1.225 0.44001
v 0.61794 1.225 0.24462
v 0.7707 1.225 0.12279
v 0.96119 1.225 0.16627
v 1.04597 1.375 0.34232
v 0.96119 1.375 0.51836
v 0.7707 1.375 0.56184
v 0.61794 1.375 0.44001
v 0.61794 1.375 0.24462
v 0.7707 1.375 0.12279
v 0.96119 1.375 0.16627
v 0.8208 1.45 0.34232
v 0.8208 1.45 0.34232
v 0.8208 1.45 0.34232
v 0.8208 1.45 0.34232
v 0.8208 1.45 0.34232
v 0.8208 1.45 0.34232
v 0.8208 1.45 0.34232
v -1.97796 0.05443 0.32435
v -2.25767 2.92443 0.13597
v -2.04411 0.05011 0.3567
v -2.32381 2.92011 0.16832
v -2.06044 0.05323 0.42856
v -2.34015 2.92323 0.24018
v -2.01467 0.06145 0.48581
v -2.29437 2.93145 0.29744
v -1.94126 0.06858 0.48535
v -2.22096 2.93858 0.29697
v -1.89548 0.06924 0.42751
v -2.17519 2.93924 0.23913
v -1.91182 0.06295 0.35586
v -2.19152 2.93295 0.16748
v -1.97796 1.465 0.36416
v -2.34796 1.705 0.36416
v -2.00125 1.42909 0.39526
v -2.37125 1.66909 0.39526
v -1.99236 1.44281 0.44557
v -2.36236 1.68281 0.44557
v -1.96357 1.48719 0.44557
v -2.33357 1.72719 0.44557
v -1.95467 1.50091 0.39526
v -2.32467 1.74091 0.39526
v -2.34796 1.705 0.40916
v -2.34796 1.705 0.40916
v -2.34796 1.705 0.40916
v -2.34796 1.705 0.40916
v -2.34796 1.705 0.40916
v -2.34796 1.705 0.40916
v -2.22672 1.795 0.40916
v -2.28734 1.795 0.47666
v -2.40858 1.795 0.47666
v -2.46921 1.795 0.40916
v -2.40858 1.795 0.34166
v -2.28734 1.795 0.34166
v -2.22672 1.975 0.40916
v -2.28734 1.975 0.47666
v -2.40858 1.975 0.47666
v -2.46921 1.975 0.40916
v -2.40858 1.975 0.34166
v -2.28734 1.975 0.34166
v -2.34796 2.065 0.40916
v -2.34796 2.065 0.40916
v -2.34796 2.065 0.40916
v -2.34796 2.065 0.40916
v -2.34796 2.065 0.40916
v -2.34796 2.065 0.40916
v -1.9926 2.1682 0.45171
v -1.6226 2.4082 0.57902
v -1.96133 2.13172 0.42959
v -1.59133 2.37172 0.55689
v -1.95304 2.14565 0.37924
v -1.58304 2.38565 0.50654
v -1.9792 2.19075 0.37024
v -1.6092 2.43075 0.49754
v -2.00365 2.20468 0.41503
v -1.63365 2.44468 0.54233
v -1.60796 2.4082 0.53646
v -1.60796 2.4082 0.53646
v -1.60796 2.4082 0.53646
v -1.60796 2.4082 0.53646
v -1.60796 2.4082 0.53646
v -1.60796 2.4082 0.53646
v -1.48672 2.4982 0.53646
v -1.54734 2.4982 0.60396
v -1.66858 2.4982 0.60396
v -1.72921 2.4982 0.53646
v -1.66858 2.4982 0.46896
v -1.54734 2.4982 0.46896
v -1.48672 2.6782 0.53646
v -1.54734 2.6782 0.60396
v -1.66858 2.6782 0.60396
v -1.72921 2.6782 0.53646
v -1.66858 2.6782 0.46896
v -1.54734 2.6782 0.46896
v -1.60796 2.7682 0.53646
v -1.60796 2.7682 0.53646
v -1.60796 2.7682 0.53646
v -1.60796 2.7682 0.53646
v -1.60796 2.7682 0.53646
v -1.60796 2.7682 0.53646
v 1.63362 0.06332 -1.88025
v 1.78898 2.45332 -1.7869
v 1.5673 0.06637 -1.8481
v 1.72266 2.45637 -1.75475
v 1.55093 0.06463 -1.7762
v 1.70628 2.45463 -1.68285
v 1.59682 0.0594 -1.71869
v 1.75218 2.4494 -1.62534
v 1.67042 0.05462 -1.71888
v 1.82578 2.44462 -1.62553
v 1.71632 0.05389 -1.77662
v 1.87167 2.44389 -1.68327
v 1.69994 0.05776 -1.84844
v 1.85529 2.44776 -1.75509
v 1.62147 1.225 -1.83864
v 1.20147 1.465 -1.72083
v 1.61 1.1875 -1.80313
v 1.19 1.4275 -1.68532
v 1.63118 1.20183 -1.75682
v 1.21118 1.44183 -1.63901
v 1.65573 1.24817 -1.7637
v 1.23573 1.48817 -1.6459
v 1.64973 1.2625 -1.81427
v 1.22973 1.5025 -1.69647
v 1.21362 1.465 -1.67751
v 1.21362 1.465 -1.67751
v 1.21362 1.465 -1.67751
v 1.21362 1.465 -1.67751
v 1.21362 1.465 -1.67751
v 1.21362 1.465 -1.67751
v 1.33486 1.555 -1.67751
v 1.27424 1.555 -1.61001
v 1.153 1.555 -1.61001
v 1.09238 1.555 -1.67751
v 1.153 1.555 -1.74501
v 1.27424 1.555 -1.74501
v 1.33486 1.735 -1.67751
v 1.27424 1.735 -1.61001
v 1.153 1.735 -1.61001
v 1.09238 1.735 -1.67751
v 1.153 1.735 -1.74501
v 1.27424 1.735 -1.74501
v 1.21362 1.825 -1.67751
v 1.21362 1.825 -1.67751
v 1.21362 1.825 -1.67751
v 1.21362 1.825 -1.67751
v 1.21362 1.825 -1.67751
v 1.21362 1.825 -1.67751
v 1.63151 1.813 -1.75036
v 2.05151 2.053 -1.7306
v 1.65416 1.77583 -1.78042
v 2.07416 2.01583 -1.76067
v 1.64843 1.79003 -1.83106
v 2.06843 2.03003 -1.8113
v 1.62223 1.83597 -1.83229
v 2.04223 2.07597 -1.81254
v 1.61178 1.85017 -1.78242
v 2.03178 2.09017 -1.76266
v 2.05362 2.053 -1.77555
v 2.05362 2.053 -1.77555
v 2.05362 2.053 -1.77555
v 2.05362 2.053 -1.77555
v 2.05362 2.053 -1.77555
v 2.05362 2.053 -1.77555
v 2.17486 2.143 -1.77555
v 2.11424 2.143 -1.70805
v 1.993 2.143 -1.70805
v 1.93238 2.143 -1.77555
v 1.993 2.143 -1.84305
v 2.11424 2.143 -1.84305
v 2.17486 2.323 -1.77555
v 2.11424 2.323 -1.70805
v 1.993 2.323 -1.70805
v 1.93238 2.323 -1.77555
v 1.993 2.323 -1.84305
v 2.11424 2.323 -1.84305
v 2.05362 2.413 -1.77555
v 2.05362 2.413 -1.77555
v 2.05362 2.413 -1.77555
v 2.05362 2.413 -1.77555
v 2.05362 2.413 -1.77555
v 2.05362 2.413 -1.77555
v 0.46258 0.06226 0.93597
v 0.5582 1.97226 0.9868
v 0.3962 0.06473 0.96805
v 0.49183 1.97473 1.01888
v 0.37981 0.06364 1.03995
v 0.47543 1.97364 1.09079
v 0.42574 0.05981 1.09754
v 0.52137 1.96981 1.14837
v 0.49941 0.05612 1.09744
v 0.59503 1.96612 1.14827
v 0.54534 0.05536 1.03973
v 0.64097 1.96536 1.09057
v 0.52895 0.05809 0.96787
v 0.62457 1.96809 1.0187
v 0.44594 0.985 0.97912
v 0.12594 1.225 1.10642
v 0.4347 0.94989 1.01706
v 0.1147 1.18989 1.14436
v 0.46198 0.9633 1.06035
v 0.14198 1.2033 1.18765
v 0.49008 1.0067 1.04917
v 0.17008 1.2467 1.17647
v 0.48017 1.02011 0.99897
v 0.16017 1.26011 1.12627
v 0.14258 1.225 1.14824
v 0.14258 1.225 1.14824
v 0.14258 1.225 1.14824
v 0.14258 1.225 1.14824
v 0.14258 1.225 1.14824
v 0.14258 1.225 1.14824
v 0.26382 1.315 1.14824
v 0.2032 1.315 1.21574
v 0.08195 1.315 1.21574
v 0.02133 1.315 1.14824
v 0.08195 1.315 1.08074
v 0.2032 1.315 1.08074
v 0.26382 1.495 1.14824
v 0.2032 1.495 1.21574
v 0.08195 1.495 1.21574
v 0.02133 1.495 1.14824
v 0.08195 1.495 1.08074
v 0.2032 1.495 1.08074
v 0.14258 1.585 1.14824
v 0.14258 1.585 1.14824
v 0.14258 1.585 1.14824
v 0.14258 1.585 1.14824
v 0.14258 1.585 1.14824
v 0.14258 1.585 1.14824
v 0.47672 1.4578 1.06365
v 0.79672 1.6978 0.9577
v 0.49051 1.42294 1.02633
v 0.81051 1.66294 0.92038
v 0.4657 1.43625 0.98155
v 0.7857 1.67625 0.8756
v 0.43657 1.47935 0.9912
v 0.75657 1.71935 0.88524
v 0.44338 1.49266 1.04194
v 0.76338 1.73266 0.93599
v 0.78258 1.6978 0.91498
v 0.78258 1.6978 0.91498
v 0.78258 1.6978 0.91498
v 0.78258 1.6978 0.91498
v 0.78258 1.6978 0.91498
v 0.78258 1.6978 0.91498
v 0.90382 1.7878 0.91498
v 0.8432 1.7878 0.98248
v 0.72195 1.7878 0.98248
v 0.66133 1.7878 0.91498
v 0.72195 1.7878 0.84748
v 0.8432 1.7878 0.84748
v 0.90382 1.9678 0.91498
v 0.8432 1.9678 0.98248
v 0.72195 1.9678 0.98248
v 0.66133 1.9678 0.91498
v 0.72195 1.9678 0.84748
v 0.8432 1.9678 0.84748
v 0.78258 2.0578 0.91498
v 0.78258 2.0578 0.91498
v 0.78258 2.0578 0.91498
v 0.78258 2.0578 0.91498
v 0.78258 2.0578 0.91498
v 0.78258 2.0578 0.91498
v 0.5582 1.87 1.07177
v 0.5582 1.87 1.07177
v 0.5582 1.87 1.07177
v 0.5582 1.87 1.07177
v 0.5582 1.87 1.07177
v 0.5582 1.87 1.07177
v 0.5582 1.87 1.07177
v 0.78337 1.945 1.07177
v 0.69859 1.945 1.24781
v 0.5081 1.945 1.29129
v 0.35533 1.945 1.16946
v 0.35533 1.945 0.97407
v 0.5081 1.945 0.85225
v 0.69859 1.945 0.89573
v 0.78337 2.095 1.07177
v 0.69859 2.095 1.24781
v 0.5081 2.095 1.29129
v 0.35533 2.095 1.16946
v 0.35533 2.095 0.97407
v 0.5081 2.095 0.85225
v 0.69859 2.095 0.89573
v 0.5582 2.17 1.07177
v 0.5582 2.17 1.07177
v 0.5582 2.17 1.07177
v 0.5582 2.17 1.07177
v 0.5582 2.17 1.07177
v 0.5582 2.17 1.07177
v 0.5582 2.17 1.07177
v -2.7088 0.04598 -1.12892
v -2.97746 1.47598 -1.29716
v -2.80102 0.03417 -1.08203
v -3.06968 1.46417 -1.25028
v -2.8238 0.04181 -0.98071
v -3.09246 1.47181 -1.14896
v -2.75998 0.06315 -0.90125
v -3.02864 1.49315 -1.06949
v -2.65761 0.08212 -0.90348
v -2.92627 1.51212 -1.07173
v -2.59379 0.08443 -0.98573
v -2.86245 1.51443 -1.15397
v -2.61657 0.06835 -1.08605
v -2.88523 1.49835 -1.2543
v -2.7112 0.745 -1.05467
v -3.0812 0.985 -1.03492
v -2.73277 0.70908 -1.02238
v -3.10277 0.94908 -1.00263
v -2.72121 0.7228 -0.97262
v -3.09121 0.9628 -0.95286
v -2.6925 0.7672 -0.97415
v -3.0625 1.0072 -0.95439
v -2.6863 0.78092 -1.02486
v -3.0563 1.02092 -1.00511
v -3.0788 0.985 -0.98998
v -3.0788 0.985 -0.98998
v -3.0788 0.985 -0.98998
v -3.0788 0.985 -0.98998
v -3.0788 0.985 -0.98998
v -3.0788 0.985 -0.98998
v -2.95755 1.075 -0.98998
v -3.01817 1.075 -0.92248
v -3.13942 1.075 -0.92248
v -3.20004 1.075 -0.98998
v -3.13942 1.075 -1.05748
v -3.01817 1.075 -1.05748
v -2.95755 1.255 -0.98998
v -3.01817 1.255 -0.92248
v -3.13942 1.255 -0.92248
v -3.20004 1.255 -0.98998
v -3.13942 1.255 -1.05748
v -3.01817 1.255 -1.05748
v -3.0788 1.345 -0.98998
v -3.0788 1.345 -0.98998
v -3.0788 1.345 -0.98998
v -3.0788 1.345 -0.98998
v -3.0788 1.345 -0.98998
v -3.0788 1.345 -0.98998
v -2.69345 1.1026 -0.96744
v -2.32345 1.3426 -1.10169
v -2.68311 1.06606 -1.00427
v -2.31311 1.30606 -1.13851
v -2.70827 1.08002 -1.04866
v -2.33827 1.32002 -1.18291
v -2.73416 1.12518 -1.03926
v -2.36416 1.36518 -1.17351
v -2.725 1.13914 -0.98907
v -2.355 1.37914 -1.12332
v -2.3388 1.3426 -1.14399
v -2.3388 1.3426 -1.14399
v -2.3388 1.3426 -1.14399
v -2.3388 1.3426 -1.14399
v -2.3388 1.3426 -1.14399
v -2.3388 1.3426 -1.14399
v -2.21755 1.4326 -1.14399
v -2.27817 1.4326 -1.07649
v -2.39942 1.4326 -1.07649
v -2.46004 1.4326 -1.14399
v -2.39942 1.4326 -1.21149
v -2.27817 1.4326 -1.21149
v -2.21755 1.6126 -1.14399
v -2.27817 1.6126 -1.07649
v -2.39942 1.6126 -1.07649
v -2.46004 1.6126 -1.14399
v -2.39942 1.6126 -1.21149
v -2.27817 1.6126 -1.21149
v -2.3388 1.7026 -1.14399
v -2.3388 1.7026 -1.14399
v -2.3388 1.7026 -1.14399
v -2.3388 1.7026 -1.14399
v -2.3388 1.7026 -1.14399
v -2.3388 1.7026 -1.14399
v 1.51744 0.06538 -0.23715
v 1.74015 3.17538 -0.04008
v 1.45116 0.06808 -0.20491
v 1.67386 3.17808 -0.00784
v 1.43478 0.0647 -0.13307
v 1.65749 3.1747 0.064
v 1.48066 0.05778 -0.07572
v 1.70336 3.16778 0.12135
v 1.55423 0.05253 -0.07606
v 1.77694 3.16253 0.12101
v 1.6001 0.05291 -0.13382
v 1.82281 3.16291 0.06325
v 1.58373 0.05862 -0.20551
v 1.80644 3.16862 -0.00844
v 1.52845 1.585 -0.19595
v 1.10845 1.825 -0.30191
v 1.50073 1.54756 -0.17088
v 1.08073 1.78756 -0.27683
v 1.49611 1.56186 -0.12016
v 1.07611 1.80186 -0.22611
v 1.52097 1.60814 -0.11388
v 1.10097 1.84814 -0.21984
v 1.54096 1.62244 -0.16073
v 1.12096 1.86244 -0.26668
v 1.09744 1.825 -0.25827
v 1.09744 1.825 -0.25827
v 1.09744 1.825 -0.25827
v 1.09744 1.825 -0.25827
v 1.09744 1.825 -0.25827
v 1.09744 1.825 -0.25827
v 1.21869 1.915 -0.25827
v 1.15806 1.915 -0.19077
v 1.03682 1.915 -0.19077
v 0.9762 1.915 -0.25827
v 1.03682 1.915 -0.32577
v 1.15806 1.915 -0.32577
v 1.21869 2.095 -0.25827
v 1.15806 2.095 -0.19077
v 1.03682 2.095 -0.19077
v 0.9762 2.095 -0.25827
v 1.03682 2.095 -0.32577
v 1.15806 2.095 -0.32577
v 1.09744 2.185 -0.25827
v 1.09744 2.185 -0.25827
v 1.09744 2.185 -0.25827
v 1.09744 2.185 -0.25827
v 1.09744 2.185 -0.25827
v 1.09744 2.185 -0.25827
v 1.52162 2.3458 -0.10751
v 1.94162 2.5858 -0.14663
v 1.5398 2.3086 -0.14044
v 1.9598 2.5486 -0.17956
v 1.52709 2.32281 -0.18978
v 1.94709 2.56281 -0.2289
v 1.50104 2.36879 -0.18736
v 1.92104 2.60879 -0.22647
v 1.49766 2.383 -0.13651
v 1.91766 2.623 -0.17563
v 1.93744 2.5858 -0.19144
v 1.93744 2.5858 -0.19144
v 1.93744 2.5858 -0.19144
v 1.93744 2.5858 -0.19144
v 1.93744 2.5858 -0.19144
v 1.93744 2.5858 -0.19144
v 2.05869 2.6758 -0.19144
v 1.99806 2.6758 -0.12394
v 1.87682 2.6758 -0.12394
v 1.8162 2.6758 -0.19144
v 1.87682 2.6758 -0.25894
v 1.99806 2.6758 -0.25894
v 2.05869 2.8558 -0.19144
v 1.99806 2.8558 -0.12394
v 1.87682 2.8558 -0.12394
v 1.8162 2.8558 -0.19144
v 1.87682 2.8558 -0.25894
v 1.99806 2.8558 -0.25894
v 1.93744 2.9458 -0.19144
v 1.93744 2.9458 -0.19144
v 1.93744 2.9458 -0.19144
v 1.93744 2.9458 -0.19144
v 1.93744 2.9458 -0.19144
v 1.93744 2.9458 -0.19144
v -1.7952 0.05606 1.26549
v -1.79042 2.68606 1.14337
v -1.86165 0.05766 1.29745
v -1.85688 2.68766 1.17533
v -1.87807 0.06103 1.36929
v -1.87329 2.69103 1.24716
v -1.83208 0.06362 1.4269
v -1.8273 2.69362 1.30477
v -1.75832 0.06349 1.4269
v -1.75354 2.69349 1.30478
v -1.71233 0.06073 1.3693
v -1.70755 2.69073 1.24718
v -1.72874 0.05742 1.29746
v -1.72397 2.68742 1.17534
v -1.77779 1.345 1.3089
v -2.09779 1.585 1.17465
v -1.81227 1.3098 1.32816
v -2.13227 1.5498 1.19391
v -1.82316 1.32325 1.37815
v -2.14316 1.56325 1.2439
v -1.79541 1.36675 1.38979
v -2.11541 1.60675 1.25554
v -1.76737 1.3802 1.34699
v -2.08737 1.6202 1.21274
v -2.1152 1.585 1.21615
v -2.1152 1.585 1.21615
v -2.1152 1.585 1.21615
v -2.1152 1.585 1.21615
v -2.1152 1.585 1.21615
v -2.1152 1.585 1.21615
v -1.99396 1.675 1.21615
v -2.05458 1.675 1.28365
v -2.17582 1.675 1.28365
v -2.23644 1.675 1.21615
v -2.17582 1.675 1.14865
v -2.05458 1.675 1.14865
v -1.99396 1.855 1.21615
v -2.05458 1.855 1.28365
v -2.17582 1.855 1.28365
v -2.23644 1.855 1.21615
v -2.17582 1.855 1.14865
v -2.05458 1.855 1.14865
v -2.1152 1.945 1.21615
v -2.1152 1.945 1.21615
v -2.1152 1.945 1.21615
v -2.1152 1.945 1.21615
v -2.1152 1.945 1.21615
v -2.1152 1.945 1.21615
v -1.80763 1.9906 1.39365
v -1.48763 2.2306 1.48563
v -1.77499 1.95588 1.37068
v -1.45499 2.19588 1.46265
v -1.77028 1.96914 1.31968
v -1.45028 2.20914 1.41166
v -1.80001 2.01206 1.31114
v -1.48001 2.25206 1.40312
v -1.82309 2.02532 1.35685
v -1.50309 2.26532 1.44883
v -1.4752 2.2306 1.44238
v -1.4752 2.2306 1.44238
v -1.4752 2.2306 1.44238
v -1.4752 2.2306 1.44238
v -1.4752 2.2306 1.44238
v -1.4752 2.2306 1.44238
v -1.35396 2.3206 1.44238
v -1.41458 2.3206 1.50988
v -1.53582 2.3206 1.50988
v -1.59644 2.3206 1.44238
v -1.53582 2.3206 1.37488
v -1.41458 2.3206 1.37488
v -1.35396 2.5006 1.44238
v -1.41458 2.5006 1.50988
v -1.53582 2.5006 1.50988
v -1.59644 2.5006 1.44238
v -1.53582 2.5006 1.37488
v -1.41458 2.5006 1.37488
v -1.4752 2.5906 1.44238
v -1.4752 2.5906 1.44238
v -1.4752 2.5906 1.44238
v -1.4752 2.5906 1.44238
v -1.4752 2.5906 1.44238
v -1.4752 2.5906 1.44238
v -1.79042 2.59 1.22828
v -1.79042 2.59 1.22828
v -1.79042 2.59 1.22828
v -1.79042 2.59 1.22828
v -1.79042 2.59 1.22828
v -1.79042 2.59 1.22828
v -1.79042 2.59 1.22828
v -1.56526 2.665 1.22828
v -1.65003 2.665 1.40432
v -1.84053 2.665 1.4478
v -1.99329 2.665 1.32597
v -1.99329 2.665 1.13058
v -1.84053 2.665 1.00876
v -1.65003 2.665 1.05223
v -1.56526 2.815 1.22828
v -1.65003 2.815 1.40432
v -1.84053 2.815 1.4478
v -1.99329 2.815 1.32597
v -1.99329 2.815 1.13058
v -1.84053 2.815 1.00876
v -1.65003 2.815 1.05223
v -1.79042 2.89 1.22828
v -1.79042 2.89 1.22828
v -1.79042 2.89 1.22828
v -1.79042 2.89 1.22828
v -1.79042 2.89 1.22828
v -1.79042 2.89 1.22828
v -1.79042 2.89 1.22828
v -0.10792 0.05932 -0.81311
v -0.33629 2.20932 -0.83024
v -0.17401 0.05256 -0.78105
v -0.40238 2.20256 -0.79818
v -0.19033 0.0514 -0.70913
v -0.4187 2.2014 -0.72626
v -0.1446 0.05672 -0.6515
v -0.37297 2.20672 -0.66863
v -0.07125 0.06451 -0.65157
v -0.29962 2.21451 -0.6687
v -0.02552 0.0689 -0.70927
v -0.25389 2.2189 -0.7264
v -0.04184 0.0666 -0.78117
v -0.27021 2.2166 -0.7983
v -0.10319 1.105 -0.77286
v -0.47319 1.345 -0.81198
v -0.12953 1.06904 -0.74438
v -0.49953 1.30904 -0.7835
v -0.12601 1.08277 -0.69342
v -0.49601 1.32277 -0.73254
v -0.09749 1.12723 -0.6904
v -0.46749 1.36723 -0.72952
v -0.08339 1.14096 -0.7395
v -0.45339 1.38096 -0.77862
v -0.47792 1.345 -0.76723
v -0.47792 1.345 -0.76723
v -0.47792 1.345 -0.76723
v -0.47792 1.345 -0.76723
v -0.47792 1.345 -0.76723
v -0.47792 1.345 -0.76723
v -0.35668 1.435 -0.76723
v -0.4173 1.435 -0.69973
v -0.53855 1.435 -0.69973
v -0.59917 1.435 -0.76723
v -0.53855 1.435 -0.83473
v -0.4173 1.435 -0.83473
v -0.35668 1.615 -0.76723
v -0.4173 1.615 -0.69973
v -0.53855 1.615 -0.69973
v -0.59917 1.615 -0.76723
v -0.53855 1.615 -0.83473
v -0.4173 1.615 -0.83473
v -0.47792 1.705 -0.76723
v -0.47792 1.705 -0.76723
v -0.47792 1.705 -0.76723
v -0.47792 1.705 -0.76723
v -0.47792 1.705 -0.76723
v -0.47792 1.705 -0.76723
v -0.1237 1.6354 -0.68597
v 0.2463 1.8754 -0.54746
v -0.09199 1.59882 -0.7073
v 0.27801 1.83882 -0.56879
v -0.0823 1.61279 -0.75739
v 0.2877 1.85279 -0.61888
v -0.10802 1.65801 -0.76702
v 0.26198 1.89801 -0.62851
v -0.13361 1.67198 -0.72288
v 0.23639 1.91198 -0.58437
v 0.26208 1.8754 -0.5896
v 0.26208 1.8754 -0.5896
v 0.26208 1.8754 -0.5896
v 0.26208 1.8754 -0.5896
v 0.26208 1.8754 -0.5896
v 0.26208 1.8754 -0.5896
v 0.38332 1.9654 -0.5896
v 0.3227 1.9654 -0.5221
v 0.20145 1.9654 -0.5221
v 0.14083 1.9654 -0.5896
v 0.20145 1.9654 -0.6571
v 0.3227 1.9654 -0.6571
v 0.38332 2.1454 -0.5896
v 0.3227 2.1454 -0.5221
v 0.20145 2.1454 -0.5221
v 0.14083 2.1454 -0.5896
v 0.20145 2.1454 -0.6571
v 0.3227 2.1454 -0.6571
v 0.26208 2.2354 -0.5896
v 0.26208 2.2354 -0.5896
v 0.26208 2.2354 -0.5896
v 0.26208 2.2354 -0.5896
v 0.26208 2.2354 -0.5896
v 0.26208 2.2354 -0.5896
v 1.95994 0.07055 0.92354
v 2.22575 1.74055 1.0709
v 1.86727 0.08121 0.96984
v 2.13309 1.75121 1.1172
v 1.84439 0.0759 1.07128
v 2.1102 1.7459 1.21865
v 1.90851 0.05862 1.15149
v 2.17433 1.72862 1.29885
v 2.01136 0.04237 1.15005
v 2.27717 1.71237 1.29742
v 2.07548 0.0394 1.06806
v 2.3413 1.7094 1.21543
v 2.0526 0.05194 0.96725
v 2.31841 1.72194 1.11462
v 1.95031 0.865 0.99911
v 1.53031 1.105 1.09109
v 1.93659 0.82763 1.03395
v 1.51659 1.06763 1.12593
v 1.95513 0.8419 1.08139
v 1.53513 1.0819 1.17337
v 1.98032 0.8881 1.07588
v 1.56032 1.1281 1.16786
v 1.97734 0.90237 1.02503
v 1.55734 1.14237 1.117
v 1.53994 1.105 1.13505
v 1.53994 1.105 1.13505
v 1.53994 1.105 1.13505
v 1.53994 1.105 1.13505
v 1.53994 1.105 1.13505
v 1.53994 1.105 1.13505
v 1.66118 1.195 1.13505
v 1.60056 1.195 1.20255
v 1.47932 1.195 1.20255
v 1.41869 1.195 1.13505
v 1.47932 1.195 1.06755
v 1.60056 1.195 1.06755
v 1.66118 1.375 1.13505
v 1.60056 1.375 1.20255
v 1.47932 1.375 1.20255
v 1.41869 1.375 1.13505
v 1.47932 1.375 1.06755
v 1.60056 1.375 1.06755
v 1.53994 1.465 1.13505
v 1.53994 1.465 1.13505
v 1.53994 1.465 1.13505
v 1.53994 1.465 1.13505
v 1.53994 1.465 1.13505
v 1.53994 1.465 1.13505
v 1.95381 1.2802 1.08765
v 2.37381 1.5202 1.14535
v 1.97893 1.24296 1.05972
v 2.39893 1.48296 1.11742
v 1.9778 1.25718 1.00878
v 2.3978 1.49718 1.06648
v 1.95198 1.30322 1.00523
v 2.37198 1.54322 1.06293
v 1.93716 1.31744 1.05398
v 2.35716 1.55744 1.11168
v 2.37994 1.5202 1.10077
v 2.37994 1.5202 1.10077
v 2.37994 1.5202 1.10077
v 2.37994 1.5202 1.10077
v 2.37994 1.5202 1.10077
v 2.37994 1.5202 1.10077
v 2.50118 1.6102 1.10077
v 2.44056 1.6102 1.16827
v 2.31932 1.6102 1.16827
v 2.25869 1.6102 1.10077
v 2.31932 1.6102 1.03327
v 2.44056 1.6102 1.03327
v 2.50118 1.7902 1.10077
v 2.44056 1.7902 1.16827
v 2.31932 1.7902 1.16827
v 2.25869 1.7902 1.10077
v 2.31932 1.7902 1.03327
v 2.44056 1.7902 1.03327
v 2.37994 1.8802 1.10077
v 2.37994 1.8802 1.10077
v 2.37994 1.8802 1.10077
v 2.37994 1.8802 1.10077
v 2.37994 1.8802 1.10077
v 2.37994 1.8802 1.10077
v -0.98 0.04591 -0.08374
v -1.06659 1.23591 -0.28374
v -1.04629 0.04653 -0.05139
v -1.13288 1.23653 -0.25139
v -1.06266 0.05729 0.01972
v -1.14925 1.24729 -0.18028
v -1.01679 0.07009 0.07605
v -1.10338 1.26009 -0.12395
v -0.94321 0.0753 0.07517
v -1.02981 1.2653 -0.12483
v -0.89734 0.06898 0.01775
v -0.98394 1.25898 -0.18225
v -0.91371 0.05591 -0.05297
v -1.00031 1.24591 -0.25297
v -0.99788 0.625 -0.04121
v -1.31788 0.865 0.0973
v -1.00779 0.58975 -0.00304
v -1.32779 0.82975 0.13547
v -0.9793 0.60321 0.03945
v -1.2993 0.84321 0.17796
v -0.95178 0.64679 0.02754
v -1.27178 0.88679 0.16605
v -0.96326 0.66025 -0.02232
v -1.28326 0.90025 0.11619
v -1.3 0.865 0.13859
v -1.3 0.865 0.13859
v -1.3 0.865 0.13859
v -1.3 0.865 0.13859
v -1.3 0.865 0.13859
v -1.3 0.865 0.13859
v -1.17876 0.955 0.13859
v -1.23938 0.955 0.20609
v -1.36062 0.955 0.20609
v -1.42124 0.955 0.13859
v -1.36062 0.955 0.07109
v -1.23938 0.955 0.07109
v -1.17876 1.135 0.13859
v -1.23938 1.135 0.20609
v -1.36062 1.135 0.20609
v -1.42124 1.135 0.13859
v -1.36062 1.135 0.07109
v -1.23938 1.135 0.07109
v -1.3 1.225 0.13859
v -1.3 1.225 0.13859
v -1.3 1.225 0.13859
v -1.3 1.225 0.13859
v -1.3 1.225 0.13859
v -1.3 1.225 0.13859
v -0.96958 0.925 0.04386
v -0.64958 1.165 -0.0323
v -0.95224 0.89043 0.00777
v -0.63224 1.13043 -0.06839
v -0.97326 0.90363 -0.03894
v -0.65326 1.14363 -0.1151
v -1.0036 0.94637 -0.03172
v -0.6836 1.18637 -0.10789
v -1.00132 0.95957 0.01945
v -0.68132 1.19957 -0.05671
v -0.66 1.165 -0.07608
v -0.66 1.165 -0.07608
v -0.66 1.165 -0.07608
v -0.66 1.165 -0.07608
v -0.66 1.165 -0.07608
v -0.66 1.165 -0.07608
v -0.53876 1.255 -0.07608
v -0.59938 1.255 -0.00858
v -0.72062 1.255 -0.00858
v -0.78124 1.255 -0.07608
v -0.72062 1.255 -0.14358
v -0.59938 1.255 -0.14358
v -0.53876 1.435 -0.07608
v -0.59938 1.435 -0.00858
v -0.72062 1.435 -0.00858
v -0.78124 1.435 -0.07608
v -0.72062 1.435 -0.14358
v -0.59938 1.435 -0.14358
v -0.66 1.525 -0.07608
v -0.66 1.525 -0.07608
v -0.66 1.525 -0.07608
v -0.66 1.525 -0.07608
v -0.66 1.525 -0.07608
v -0.66 1.525 -0.07608
v -1.06659 1.15 -0.19992
v -1.06659 1.15 -0.19992
v -1.06659 1.15 -0.19992
v -1.06659 1.15 -0.19992
v -1.06659 1.15 -0.19992
v -1.06659 1.15 -0.19992
v -1.06659 1.15 -0.19992
v -0.84143 1.225 -0.19992
v -0.9262 1.225 -0.02387
v -1.1167 1.225 0.01961
v -1.26946 1.225 -0.10222
v -1.26946 1.225 -0.29761
v -1.1167 1.225 -0.41944
v -0.9262 1.225 -0.37596
v -0.84143 1.375 -0.19992
v -0.9262 1.375 -0.02387
v -1.1167 1.375 0.01961
v -1.26946 1.375 -0.10222
v -1.26946 1.375 -0.29761
v -1.1167 1.375 -0.41944
v -0.9262 1.375 -0.37596
v -1.06659 1.45 -0.19992
v -1.06659 1.45 -0.19992
v -1.06659 1.45 -0.19992
v -1.06659 1.45 -0.19992
v -1.06659 1.45 -0.19992
v -1.06659 1.45 -0.19992
v -1.06659 1.45 -0.19992
v 1.75315 0.06436 -1.01847
v 1.58994 2.93436 -0.87114
v 1.6868 0.05895 -0.9867
v 1.52359 2.92895 -0.83937
v 1.67041 0.05434 -0.91493
v 1.5072 2.92434 -0.76761
v 1.71633 0.05399 -0.8572
v 1.55312 2.92399 -0.70988
v 1.78997 0.05816 -0.85699
v 1.62676 2.92816 -0.70967
v 1.83588 0.06372 -0.91445
v 1.67267 2.93372 -0.76712
v 1.8195 0.06648 -0.98631
v 1.65629 2.93648 -0.83899
v 1.74622 1.465 -0.97804
v 1.37622 1.705 -0.92034
v 1.72819 1.42897 -0.94376
v 1.35819 1.66897 -0.88606
v 1.74466 1.44273 -0.89541
v 1.37466 1.68273 -0.83771
v 1.77286 1.48727 -0.89981
v 1.40286 1.72727 -0.84211
v 1.77382 1.50103 -0.95088
v 1.40382 1.74103 -0.89318
v 1.38315 1.705 -0.87588
v 1.38315 1.705 -0.87588
v 1.38315 1.705 -0.87588
v 1.38315 1.705 -0.87588
v 1.38315 1.705 -0.87588
v 1.38315 1.705 -0.87588
v 1.50439 1.795 -0.87588
v 1.44377 1.795 -0.80838
v 1.32253 1.795 -0.80838
v 1.26191 1.795 -0.87588
v 1.32253 1.795 -0.94338
v 1.44377 1.795 -0.94338
v 1.50439 1.975 -0.87588
v 1.44377 1.975 -0.80838
v 1.32253 1.975 -0.80838
v 1.26191 1.975 -0.87588
v 1.32253 1.975 -0.94338
v 1.44377 1.975 -0.94338
v 1.38315 2.065 -0.87588
v 1.38315 2.065 -0.87588
v 1.38315 2.065 -0.87588
v 1.38315 2.065 -0.87588
v 1.38315 2.065 -0.87588
v 1.38315 2.065 -0.87588
v 1.76907 2.1682 -0.89149
v 2.13907 2.4082 -1.03149
v 1.77883 2.13161 -0.92843
v 2.14883 2.37161 -1.06843
v 1.7531 2.14559 -0.97248
v 2.1231 2.38559 -1.11248
v 1.72743 2.19081 -0.96277
v 2.09743 2.43081 -1.10277
v 1.73731 2.20479 -0.91272
v 2.10731 2.44479 -1.05271
v 2.12315 2.4082 -1.07358
v 2.12315 2.4082 -1.07358
v 2.12315 2.4082 -1.07358
v 2.12315 2.4082 -1.07358
v 2.12315 2.4082 -1.07358
v 2.12315 2.4082 -1.07358
v 2.24439 2.4982 -1.07358
v 2.18377 2.4982 -1.00608
v 2.06253 2.4982 -1.00608
v 2.00191 2.4982 -1.07358
v 2.06253 2.4982 -1.14108
v 2.18377 2.4982 -1.14108
v 2.24439 2.6782 -1.07358
v 2.18377 2.6782 -1.00608
v 2.06253 2.6782 -1.00608
v 2.00191 2.6782 -1.07358
v 2.06253 2.6782 -1.14108
v 2.18377 2.6782 -1.14108
v 2.12315 2.7682 -1.07358
v 2.12315 2.7682 -1.07358
v 2.12315 2.7682 -1.07358
v 2.12315 2.7682 -1.07358
v 2.12315 2.7682 -1.07358
v 2.12315 2.7682 -1.07358
v -0.05975 0.05939 0.31952
v 0.22023 2.44939 0.30245
v -0.12576 0.06735 0.35147
v 0.15423 2.45735 0.3344
v -0.14206 0.06978 0.42336
v 0.13792 2.45978 0.40629
v -0.09638 0.06484 0.48107
v 0.1836 2.45484 0.464
v -0.02312 0.05626 0.48113
v 0.25686 2.44626 0.46406
v 0.02256 0.05049 0.4235
v 0.30254 2.44049 0.40643
v 0.00625 0.05189 0.35158
v 0.28623 2.44189 0.33451
v -0.05172 1.225 0.36024
v -0.47172 1.465 0.28408
v -0.07791 1.18769 0.38709
v -0.49791 1.42769 0.31093
v -0.079 1.20194 0.43803
v -0.499 1.44194 0.36186
v -0.05349 1.24806 0.44265
v -0.47349 1.48806 0.36649
v -0.03663 1.26231 0.39458
v -0.45663 1.50231 0.31842
v -0.47975 1.465 0.32836
v -0.47975 1.465 0.32836
v -0.47975 1.465 0.32836
v -0.47975 1.465 0.32836
v -0.47975 1.465 0.32836
v -0.47975 1.465 0.32836
v -0.35851 1.555 0.32836
v -0.41913 1.555 0.39586
v -0.54037 1.555 0.39586
v -0.60099 1.555 0.32836
v -0.54037 1.555 0.26086
v -0.41913 1.555 0.26086
v -0.35851 1.735 0.32836
v -0.41913 1.735 0.39586
v -0.54037 1.735 0.39586
v -0.60099 1.735 0.32836
v -0.54037 1.735 0.26086
v -0.41913 1.735 0.26086
v -0.47975 1.825 0.32836
v -0.47975 1.825 0.32836
v -0.47975 1.825 0.32836
v -0.47975 1.825 0.32836
v -0.47975 1.825 0.32836
v -0.47975 1.825 0.32836
v -0.05183 1.813 0.44882
v 0.36817 2.053 0.3737
v -0.03665 1.7757 0.41451
v 0.38335 2.0157 0.33939
v -0.0534 1.78995 0.3664
v 0.3666 2.02995 0.29128
v -0.07893 1.83605 0.37096
v 0.34107 2.07605 0.29584
v -0.07796 1.8503 0.4219
v 0.34204 2.0903 0.34678
v 0.36025 2.053 0.3294
v 0.36025 2.053 0.3294
v 0.36025 2.053 0.3294
v 0.36025 2.053 0.3294
v 0.36025 2.053 0.3294
v 0.36025 2.053 0.3294
v 0.48149 2.143 0.3294
v 0.42087 2.143 0.3969
v 0.29963 2.143 0.3969
v 0.23901 2.143 0.3294
v 0.29963 2.143 0.2619
v 0.42087 2.143 0.2619
v 0.48149 2.323 0.3294
v 0.42087 2.323 0.3969
v 0.29963 2.323 0.3969
v 0.23901 2.323 0.3294
v 0.29963 2.323 0.2619
v 0.42087 2.323 0.2619
v 0.36025 2.413 0.3294
v 0.36025 2.413 0.3294
v 0.36025 2.413 0.3294
v 0.36025 2.413 0.3294
v 0.36025 2.413 0.3294
v 0.36025 2.413 0.3294
v -1.28278 0.05234 -1.0841
v -1.45131 1.96234 -1.20627
v -1.37624 0.04701 -1.03849
v -1.54477 1.95701 -1.16066
v -1.39932 0.05146 -0.93705
v -1.56785 1.96146 -1.05922
v -1.33464 0.06234 -0.85616
v -1.50318 1.97234 -0.97833
v -1.23091 0.07146 -0.85675
v -1.39945 1.98146 -0.97891
v -1.16624 0.07195 -0.93836
v -1.33477 1.98195 -1.06053
v -1.18932 0.06344 -1.03954
v -1.35785 1.97344 -1.16171
v -1.26474 0.985 -1.00558
v -1.58474 1.225 -1.14558
v -1.29941 0.94973 -0.9868
v -1.61941 1.18973 -1.1268
v -1.31109 0.9632 -0.937
v -1.63109 1.2032 -1.077
v -1.28365 1.0068 -0.92499
v -1.60365 1.2468 -1.06499
v -1.255 1.02027 -0.96738
v -1.575 1.26027 -1.10737
v -1.60278 1.225 -1.10435
v -1.60278 1.225 -1.10435
v -1.60278 1.225 -1.10435
v -1.60278 1.225 -1.10435
v -1.60278 1.225 -1.10435
v -1.60278 1.225 -1.10435
v -1.48154 1.315 -1.10435
v -1.54216 1.315 -1.03685
v -1.6634 1.315 -1.03685
v -1.72402 1.315 -1.10435
v -1.6634 1.315 -1.17185
v -1.54216 1.315 -1.17185
v -1.48154 1.495 -1.10435
v -1.54216 1.495 -1.03685
v -1.6634 1.495 -1.03685
v -1.72402 1.495 -1.10435
v -1.6634 1.495 -1.17185
v -1.54216 1.495 -1.17185
v -1.60278 1.585 -1.10435
v -1.60278 1.585 -1.10435
v -1.60278 1.585 -1.10435
v -1.60278 1.585 -1.10435
v -1.60278 1.585 -1.10435
v -1.60278 1.585 -1.10435
v -1.29091 1.4578 -0.92009
v -0.97091 1.6978 -0.86127
v -1.26031 1.42336 -0.94608
v -0.94031 1.66336 -0.88726
v -1.26075 1.43651 -0.99732
v -0.94075 1.67651 -0.93849
v -1.29164 1.47909 -1.00299
v -0.97164 1.71909 -0.94417
v -1.31028 1.49224 -0.95527
v -0.99028 1.73224 -0.89644
v -0.96278 1.6978 -0.90553
v -0.96278 1.6978 -0.90553
v -0.96278 1.6978 -0.90553
v -0.96278 1.6978 -0.90553
v -0.96278 1.6978 -0.90553
v -0.96278 1.6978 -0.90553
v -0.84154 1.7878 -0.90553
v -0.90216 1.7878 -0.83803
v -1.0234 1.7878 -0.83803
v -1.08402 1.7878 -0.90553
v -1.0234 1.7878 -0.97303
v -0.90216 1.7878 -0.97303
v -0.84154 1.9678 -0.90553
v -0.90216 1.9678 -0.83803
v -1.0234 1.9678 -0.83803
v -1.08402 1.9678 -0.90553
v -1.0234 1.9678 -0.97303
v -0.90216 1.9678 -0.97303
v -0.96278 2.0578 -0.90553
v -0.96278 2.0578 -0.90553
v -0.96278 2.0578 -0.90553
v -0.96278 2.0578 -0.90553
v -0.96278 2.0578 -0.90553
v -0.96278 2.0578 -0.90553
v -1.45131 1.87 -1.08652
v -1.45131 1.87 -1.08652
v -1.45131 1.87 -1.08652
v -1.45131 1.87 -1.08652
v -1.45131 1.87 -1.08652
v -1.45131 1.87 -1.08652
v -1.45131 1.87 -1.08652
v -1.22615 1.945 -1.08652
v -1.31092 1.945 -0.91048
v -1.50142 1.945 -0.867
v -1.65418 1.945 -0.98882
v -1.65418 1.945 -1.18422
v -1.50142 1.945 -1.30604
v -1.31092 1.945 -1.26256
v -1.22615 2.095 -1.08652
v -1.31092 2.095 -0.91048
v -1.50142 2.095 -0.867
v -1.65418 2.095 -0.98882
v -1.65418 2.095 -1.18422
v -1.50142 2.095 -1.30604
v -1.31092 2.095 -1.26256
v -1.45131 2.17 -1.08652
v -1.45131 2.17 -1.08652
v -1.45131 2.17 -1.08652
v -1.45131 2.17 -1.08652
v -1.45131 2.17 -1.08652
v -1.45131 2.17 -1.08652
v -1.45131 2.17 -1.08652
g substrate_0
usemtl living_green
f 1 2 13 12
f 2 3 14 13
f 3 4 15 14
f 4 5 16 15
f 5 6 17 16
f 6 7 18 17
f 7 8 19 18
f 8 9 20 19
f 9 10 21 20
f 10 11 22 21
f 11 1 12 22
f 12 13 24 23
f 13 14 25 24
f 14 15 26 25
f 15 16 27 26
f 16 17 28 27
f 17 18 29 28
f 18 19 30 29
f 19 20 31 30
f 20 21 32 31
f 21 22 33 32
f 22 12 23 33
f 23 24 35 34
f 24 25 36 35
f 25 26 37 36
f 26 27 38 37
f 27 28 39 38
f 28 29 40 39
f 29 30 41 40
f 30 31 42 41
f 31 32 43 42
f 32 33 44 43
f 33 23 34 44
g substrate_1
usemtl living_green
f 45 46 57 56
f 46 47 58 57
f 47 48 59 58
f 48 49 60 59
f 49 50 61 60
f 50 51 62 61
f 51 52 63 62
f 52 53 64 63
f 53 54 65 64
f 54 55 66 65
f 55 45 56 66
f 56 57 68 67
f 57 58 69 68
f 58 59 70 69
f 59 60 71 70
f 60 61 72 71
f 61 62 73 72
f 62 63 74 73
f 63 64 75 74
f 64 65 76 75
f 65 66 77 76
f 66 56 67 77
f 67 68 79 78
f 68 69 80 79
f 69 70 81 80
f 70 71 82 81
f 71 72 83 82
f 72 73 84 83
f 73 74 85 84
f 74 75 86 85
f 75 76 87 86
f 76 77 88 87
f 77 67 78 88
g substrate_2
usemtl living_green
f 89 90 101 100
f 90 91 102 101
f 91 92 103 102
f 92 93 104 103
f 93 94 105 104
f 94 95 106 105
f 95 96 107 106
f 96 97 108 107
f 97 98 109 108
f 98 99 110 109
f 99 89 100 110
f 100 101 112 111
f 101 102 113 112
f 102 103 114 113
f 103 104 115 114
f 104 105 116 115
f 105 106 117 116
f 106 107 118 117
f 107 108 119 118
f 108 109 120 119
f 109 110 121 120
f 110 100 111 121
f 111 112 123 122
f 112 113 124 123
f 113 114 125 124
f 114 115 126 125
f 115 116 127 126
f 116 117 128 127
f 117 118 129 128
f 118 119 130 129
f 119 120 131 130
f 120 121 132 131
f 121 111 122 132
g stem_0
usemtl living_teal
f 145 143 141 139 137 135 133
f 134 136 138 140 142 144 146
f 133 135 136 134
f 135 137 138 136
f 137 139 140 138
f 139 141 142 140
f 141 143 144 142
f 143 145 146 144
f 145 133 134 146
g arm_0_-1
usemtl living_silica
f 155 153 151 149 147
f 148 150 152 154 156
f 147 149 150 148
f 149 151 152 150
f 151 153 154 152
f 153 155 156 154
f 155 147 148 156
g filter_0_-1
usemtl living_pale
f 157 158 164 163
f 158 159 165 164
f 159 160 166 165
f 160 161 167 166
f 161 162 168 167
f 162 157 163 168
f 163 164 170 169
f 164 165 171 170
f 165 166 172 171
f 166 167 173 172
f 167 168 174 173
f 168 163 169 174
f 169 170 176 175
f 170 171 177 176
f 171 172 178 177
f 172 173 179 178
f 173 174 180 179
f 174 169 175 180
g arm_0_1
usemtl living_silica
f 189 187 185 183 181
f 182 184 186 188 190
f 181 183 184 182
f 183 185 186 184
f 185 187 188 186
f 187 189 190 188
f 189 181 182 190
g filter_0_1
usemtl living_pale
f 191 192 198 197
f 192 193 199 198
f 193 194 200 199
f 194 195 201 200
f 195 196 202 201
f 196 191 197 202
f 197 198 204 203
f 198 199 205 204
f 199 200 206 205
f 200 201 207 206
f 201 202 208 207
f 202 197 203 208
f 203 204 210 209
f 204 205 211 210
f 205 206 212 211
f 206 207 213 212
f 207 208 214 213
f 208 203 209 214
g crown_0
usemtl living_pale
f 215 216 223 222
f 216 217 224 223
f 217 218 225 224
f 218 219 226 225
f 219 220 227 226
f 220 221 228 227
f 221 215 222 228
f 222 223 230 229
f 223 224 231 230
f 224 225 232 231
f 225 226 233 232
f 226 227 234 233
f 227 228 235 234
f 228 222 229 235
f 229 230 237 236
f 230 231 238 237
f 231 232 239 238
f 232 233 240 239
f 233 234 241 240
f 234 235 242 241
f 235 229 236 242
g stem_1
usemtl living_teal
f 255 253 251 249 247 245 243
f 244 246 248 250 252 254 256
f 243 245 246 244
f 245 247 248 246
f 247 249 250 248
f 249 251 252 250
f 251 253 254 252
f 253 255 256 254
f 255 243 244 256
g arm_1_-1
usemtl living_silica
f 265 263 261 259 257
f 258 260 262 264 266
f 257 259 260 258
f 259 261 262 260
f 261 263 264 262
f 263 265 266 264
f 265 257 258 266
g filter_1_-1
usemtl living_pale
f 267 268 274 273
f 268 269 275 274
f 269 270 276 275
f 270 271 277 276
f 271 272 278 277
f 272 267 273 278
f 273 274 280 279
f 274 275 281 280
f 275 276 282 281
f 276 277 283 282
f 277 278 284 283
f 278 273 279 284
f 279 280 286 285
f 280 281 287 286
f 281 282 288 287
f 282 283 289 288
f 283 284 290 289
f 284 279 285 290
g arm_1_1
usemtl living_silica
f 299 297 295 293 291
f 292 294 296 298 300
f 291 293 294 292
f 293 295 296 294
f 295 297 298 296
f 297 299 300 298
f 299 291 292 300
g filter_1_1
usemtl living_pale
f 301 302 308 307
f 302 303 309 308
f 303 304 310 309
f 304 305 311 310
f 305 306 312 311
f 306 301 307 312
f 307 308 314 313
f 308 309 315 314
f 309 310 316 315
f 310 311 317 316
f 311 312 318 317
f 312 307 313 318
f 313 314 320 319
f 314 315 321 320
f 315 316 322 321
f 316 317 323 322
f 317 318 324 323
f 318 313 319 324
g stem_2
usemtl living_teal
f 337 335 333 331 329 327 325
f 326 328 330 332 334 336 338
f 325 327 328 326
f 327 329 330 328
f 329 331 332 330
f 331 333 334 332
f 333 335 336 334
f 335 337 338 336
f 337 325 326 338
g arm_2_-1
usemtl living_silica
f 347 345 343 341 339
f 340 342 344 346 348
f 339 341 342 340
f 341 343 344 342
f 343 345 346 344
f 345 347 348 346
f 347 339 340 348
g filter_2_-1
usemtl living_pale
f 349 350 356 355
f 350 351 357 356
f 351 352 358 357
f 352 353 359 358
f 353 354 360 359
f 354 349 355 360
f 355 356 362 361
f 356 357 363 362
f 357 358 364 363
f 358 359 365 364
f 359 360 366 365
f 360 355 361 366
f 361 362 368 367
f 362 363 369 368
f 363 364 370 369
f 364 365 371 370
f 365 366 372 371
f 366 361 367 372
g arm_2_1
usemtl living_silica
f 381 379 377 375 373
f 374 376 378 380 382
f 373 375 376 374
f 375 377 378 376
f 377 379 380 378
f 379 381 382 380
f 381 373 374 382
g filter_2_1
usemtl living_pale
f 383 384 390 389
f 384 385 391 390
f 385 386 392 391
f 386 387 393 392
f 387 388 394 393
f 388 383 389 394
f 389 390 396 395
f 390 391 397 396
f 391 392 398 397
f 392 393 399 398
f 393 394 400 399
f 394 389 395 400
f 395 396 402 401
f 396 397 403 402
f 397 398 404 403
f 398 399 405 404
f 399 400 406 405
f 400 395 401 406
g stem_3
usemtl living_teal
f 419 417 415 413 411 409 407
f 408 410 412 414 416 418 420
f 407 409 410 408
f 409 411 412 410
f 411 413 414 412
f 413 415 416 414
f 415 417 418 416
f 417 419 420 418
f 419 407 408 420
g arm_3_-1
usemtl living_silica
f 429 427 425 423 421
f 422 424 426 428 430
f 421 423 424 422
f 423 425 426 424
f 425 427 428 426
f 427 429 430 428
f 429 421 422 430
g filter_3_-1
usemtl living_pale
f 431 432 438 437
f 432 433 439 438
f 433 434 440 439
f 434 435 441 440
f 435 436 442 441
f 436 431 437 442
f 437 438 444 443
f 438 439 445 444
f 439 440 446 445
f 440 441 447 446
f 441 442 448 447
f 442 437 443 448
f 443 444 450 449
f 444 445 451 450
f 445 446 452 451
f 446 447 453 452
f 447 448 454 453
f 448 443 449 454
g arm_3_1
usemtl living_silica
f 463 461 459 457 455
f 456 458 460 462 464
f 455 457 458 456
f 457 459 460 458
f 459 461 462 460
f 461 463 464 462
f 463 455 456 464
g filter_3_1
usemtl living_pale
f 465 466 472 471
f 466 467 473 472
f 467 468 474 473
f 468 469 475 474
f 469 470 476 475
f 470 465 471 476
f 471 472 478 477
f 472 473 479 478
f 473 474 480 479
f 474 475 481 480
f 475 476 482 481
f 476 471 477 482
f 477 478 484 483
f 478 479 485 484
f 479 480 486 485
f 480 481 487 486
f 481 482 488 487
f 482 477 483 488
g crown_3
usemtl living_pale
f 489 490 497 496
f 490 491 498 497
f 491 492 499 498
f 492 493 500 499
f 493 494 501 500
f 494 495 502 501
f 495 489 496 502
f 496 497 504 503
f 497 498 505 504
f 498 499 506 505
f 499 500 507 506
f 500 501 508 507
f 501 502 509 508
f 502 496 503 509
f 503 504 511 510
f 504 505 512 511
f 505 506 513 512
f 506 507 514 513
f 507 508 515 514
f 508 509 516 515
f 509 503 510 516
g stem_4
usemtl living_teal
f 529 527 525 523 521 519 517
f 518 520 522 524 526 528 530
f 517 519 520 518
f 519 521 522 520
f 521 523 524 522
f 523 525 526 524
f 525 527 528 526
f 527 529 530 528
f 529 517 518 530
g arm_4_-1
usemtl living_silica
f 539 537 535 533 531
f 532 534 536 538 540
f 531 533 534 532
f 533 535 536 534
f 535 537 538 536
f 537 539 540 538
f 539 531 532 540
g filter_4_-1
usemtl living_pale
f 541 542 548 547
f 542 543 549 548
f 543 544 550 549
f 544 545 551 550
f 545 546 552 551
f 546 541 547 552
f 547 548 554 553
f 548 549 555 554
f 549 550 556 555
f 550 551 557 556
f 551 552 558 557
f 552 547 553 558
f 553 554 560 559
f 554 555 561 560
f 555 556 562 561
f 556 557 563 562
f 557 558 564 563
f 558 553 559 564
g arm_4_1
usemtl living_silica
f 573 571 569 567 565
f 566 568 570 572 574
f 565 567 568 566
f 567 569 570 568
f 569 571 572 570
f 571 573 574 572
f 573 565 566 574
g filter_4_1
usemtl living_pale
f 575 576 582 581
f 576 577 583 582
f 577 578 584 583
f 578 579 585 584
f 579 580 586 585
f 580 575 581 586
f 581 582 588 587
f 582 583 589 588
f 583 584 590 589
f 584 585 591 590
f 585 586 592 591
f 586 581 587 592
f 587 588 594 593
f 588 589 595 594
f 589 590 596 595
f 590 591 597 596
f 591 592 598 597
f 592 587 593 598
g stem_5
usemtl living_teal
f 611 609 607 605 603 601 599
f 600 602 604 606 608 610 612
f 599 601 602 600
f 601 603 604 602
f 603 605 606 604
f 605 607 608 606
f 607 609 610 608
f 609 611 612 610
f 611 599 600 612
g arm_5_-1
usemtl living_silica
f 621 619 617 615 613
f 614 616 618 620 622
f 613 615 616 614
f 615 617 618 616
f 617 619 620 618
f 619 621 622 620
f 621 613 614 622
g filter_5_-1
usemtl living_pale
f 623 624 630 629
f 624 625 631 630
f 625 626 632 631
f 626 627 633 632
f 627 628 634 633
f 628 623 629 634
f 629 630 636 635
f 630 631 637 636
f 631 632 638 637
f 632 633 639 638
f 633 634 640 639
f 634 629 635 640
f 635 636 642 641
f 636 637 643 642
f 637 638 644 643
f 638 639 645 644
f 639 640 646 645
f 640 635 641 646
g arm_5_1
usemtl living_silica
f 655 653 651 649 647
f 648 650 652 654 656
f 647 649 650 648
f 649 651 652 650
f 651 653 654 652
f 653 655 656 654
f 655 647 648 656
g filter_5_1
usemtl living_pale
f 657 658 664 663
f 658 659 665 664
f 659 660 666 665
f 660 661 667 666
f 661 662 668 667
f 662 657 663 668
f 663 664 670 669
f 664 665 671 670
f 665 666 672 671
f 666 667 673 672
f 667 668 674 673
f 668 663 669 674
f 669 670 676 675
f 670 671 677 676
f 671 672 678 677
f 672 673 679 678
f 673 674 680 679
f 674 669 675 680
g stem_6
usemtl living_teal
f 693 691 689 687 685 683 681
f 682 684 686 688 690 692 694
f 681 683 684 682
f 683 685 686 684
f 685 687 688 686
f 687 689 690 688
f 689 691 692 690
f 691 693 694 692
f 693 681 682 694
g arm_6_-1
usemtl living_silica
f 703 701 699 697 695
f 696 698 700 702 704
f 695 697 698 696
f 697 699 700 698
f 699 701 702 700
f 701 703 704 702
f 703 695 696 704
g filter_6_-1
usemtl living_pale
f 705 706 712 711
f 706 707 713 712
f 707 708 714 713
f 708 709 715 714
f 709 710 716 715
f 710 705 711 716
f 711 712 718 717
f 712 713 719 718
f 713 714 720 719
f 714 715 721 720
f 715 716 722 721
f 716 711 717 722
f 717 718 724 723
f 718 719 725 724
f 719 720 726 725
f 720 721 727 726
f 721 722 728 727
f 722 717 723 728
g arm_6_1
usemtl living_silica
f 737 735 733 731 729
f 730 732 734 736 738
f 729 731 732 730
f 731 733 734 732
f 733 735 736 734
f 735 737 738 736
f 737 729 730 738
g filter_6_1
usemtl living_pale
f 739 740 746 745
f 740 741 747 746
f 741 742 748 747
f 742 743 749 748
f 743 744 750 749
f 744 739 745 750
f 745 746 752 751
f 746 747 753 752
f 747 748 754 753
f 748 749 755 754
f 749 750 756 755
f 750 745 751 756
f 751 752 758 757
f 752 753 759 758
f 753 754 760 759
f 754 755 761 760
f 755 756 762 761
f 756 751 757 762
g crown_6
usemtl living_pale
f 763 764 771 770
f 764 765 772 771
f 765 766 773 772
f 766 767 774 773
f 767 768 775 774
f 768 769 776 775
f 769 763 770 776
f 770 771 778 777
f 771 772 779 778
f 772 773 780 779
f 773 774 781 780
f 774 775 782 781
f 775 776 783 782
f 776 770 777 783
f 777 778 785 784
f 778 779 786 785
f 779 780 787 786
f 780 781 788 787
f 781 782 789 788
f 782 783 790 789
f 783 777 784 790
g stem_7
usemtl living_teal
f 803 801 799 797 795 793 791
f 792 794 796 798 800 802 804
f 791 793 794 792
f 793 795 796 794
f 795 797 798 796
f 797 799 800 798
f 799 801 802 800
f 801 803 804 802
f 803 791 792 804
g arm_7_-1
usemtl living_silica
f 813 811 809 807 805
f 806 808 810 812 814
f 805 807 808 806
f 807 809 810 808
f 809 811 812 810
f 811 813 814 812
f 813 805 806 814
g filter_7_-1
usemtl living_pale
f 815 816 822 821
f 816 817 823 822
f 817 818 824 823
f 818 819 825 824
f 819 820 826 825
f 820 815 821 826
f 821 822 828 827
f 822 823 829 828
f 823 824 830 829
f 824 825 831 830
f 825 826 832 831
f 826 821 827 832
f 827 828 834 833
f 828 829 835 834
f 829 830 836 835
f 830 831 837 836
f 831 832 838 837
f 832 827 833 838
g arm_7_1
usemtl living_silica
f 847 845 843 841 839
f 840 842 844 846 848
f 839 841 842 840
f 841 843 844 842
f 843 845 846 844
f 845 847 848 846
f 847 839 840 848
g filter_7_1
usemtl living_pale
f 849 850 856 855
f 850 851 857 856
f 851 852 858 857
f 852 853 859 858
f 853 854 860 859
f 854 849 855 860
f 855 856 862 861
f 856 857 863 862
f 857 858 864 863
f 858 859 865 864
f 859 860 866 865
f 860 855 861 866
f 861 862 868 867
f 862 863 869 868
f 863 864 870 869
f 864 865 871 870
f 865 866 872 871
f 866 861 867 872
g stem_8
usemtl living_teal
f 885 883 881 879 877 875 873
f 874 876 878 880 882 884 886
f 873 875 876 874
f 875 877 878 876
f 877 879 880 878
f 879 881 882 880
f 881 883 884 882
f 883 885 886 884
f 885 873 874 886
g arm_8_-1
usemtl living_silica
f 895 893 891 889 887
f 888 890 892 894 896
f 887 889 890 888
f 889 891 892 890
f 891 893 894 892
f 893 895 896 894
f 895 887 888 896
g filter_8_-1
usemtl living_pale
f 897 898 904 903
f 898 899 905 904
f 899 900 906 905
f 900 901 907 906
f 901 902 908 907
f 902 897 903 908
f 903 904 910 909
f 904 905 911 910
f 905 906 912 911
f 906 907 913 912
f 907 908 914 913
f 908 903 909 914
f 909 910 916 915
f 910 911 917 916
f 911 912 918 917
f 912 913 919 918
f 913 914 920 919
f 914 909 915 920
g arm_8_1
usemtl living_silica
f 929 927 925 923 921
f 922 924 926 928 930
f 921 923 924 922
f 923 925 926 924
f 925 927 928 926
f 927 929 930 928
f 929 921 922 930
g filter_8_1
usemtl living_pale
f 931 932 938 937
f 932 933 939 938
f 933 934 940 939
f 934 935 941 940
f 935 936 942 941
f 936 931 937 942
f 937 938 944 943
f 938 939 945 944
f 939 940 946 945
f 940 941 947 946
f 941 942 948 947
f 942 937 943 948
f 943 944 950 949
f 944 945 951 950
f 945 946 952 951
f 946 947 953 952
f 947 948 954 953
f 948 943 949 954
g stem_9
usemtl living_teal
f 967 965 963 961 959 957 955
f 956 958 960 962 964 966 968
f 955 957 958 956
f 957 959 960 958
f 959 961 962 960
f 961 963 964 962
f 963 965 966 964
f 965 967 968 966
f 967 955 956 968
g arm_9_-1
usemtl living_silica
f 977 975 973 971 969
f 970 972 974 976 978
f 969 971 972 970
f 971 973 974 972
f 973 975 976 974
f 975 977 978 976
f 977 969 970 978
g filter_9_-1
usemtl living_pale
f 979 980 986 985
f 980 981 987 986
f 981 982 988 987
f 982 983 989 988
f 983 984 990 989
f 984 979 985 990
f 985 986 992 991
f 986 987 993 992
f 987 988 994 993
f 988 989 995 994
f 989 990 996 995
f 990 985 991 996
f 991 992 998 997
f 992 993 999 998
f 993 994 1000 999
f 994 995 1001 1000
f 995 996 1002 1001
f 996 991 997 1002
g arm_9_1
usemtl living_silica
f 1011 1009 1007 1005 1003
f 1004 1006 1008 1010 1012
f 1003 1005 1006 1004
f 1005 1007 1008 1006
f 1007 1009 1010 1008
f 1009 1011 1012 1010
f 1011 1003 1004 1012
g filter_9_1
usemtl living_pale
f 1013 1014 1020 1019
f 1014 1015 1021 1020
f 1015 1016 1022 1021
f 1016 1017 1023 1022
f 1017 1018 1024 1023
f 1018 1013 1019 1024
f 1019 1020 1026 1025
f 1020 1021 1027 1026
f 1021 1022 1028 1027
f 1022 1023 1029 1028
f 1023 1024 1030 1029
f 1024 1019 1025 1030
f 1025 1026 1032 1031
f 1026 1027 1033 1032
f 1027 1028 1034 1033
f 1028 1029 1035 1034
f 1029 1030 1036 1035
f 1030 1025 1031 1036
g crown_9
usemtl living_pale
f 1037 1038 1045 1044
f 1038 1039 1046 1045
f 1039 1040 1047 1046
f 1040 1041 1048 1047
f 1041 1042 1049 1048
f 1042 1043 1050 1049
f 1043 1037 1044 1050
f 1044 1045 1052 1051
f 1045 1046 1053 1052
f 1046 1047 1054 1053
f 1047 1048 1055 1054
f 1048 1049 1056 1055
f 1049 1050 1057 1056
f 1050 1044 1051 1057
f 1051 1052 1059 1058
f 1052 1053 1060 1059
f 1053 1054 1061 1060
f 1054 1055 1062 1061
f 1055 1056 1063 1062
f 1056 1057 1064 1063
f 1057 1051 1058 1064
g stem_10
usemtl living_teal
f 1077 1075 1073 1071 1069 1067 1065
f 1066 1068 1070 1072 1074 1076 1078
f 1065 1067 1068 1066
f 1067 1069 1070 1068
f 1069 1071 1072 1070
f 1071 1073 1074 1072
f 1073 1075 1076 1074
f 1075 1077 1078 1076
f 1077 1065 1066 1078
g arm_10_-1
usemtl living_silica
f 1087 1085 1083 1081 1079
f 1080 1082 1084 1086 1088
f 1079 1081 1082 1080
f 1081 1083 1084 1082
f 1083 1085 1086 1084
f 1085 1087 1088 1086
f 1087 1079 1080 1088
g filter_10_-1
usemtl living_pale
f 1089 1090 1096 1095
f 1090 1091 1097 1096
f 1091 1092 1098 1097
f 1092 1093 1099 1098
f 1093 1094 1100 1099
f 1094 1089 1095 1100
f 1095 1096 1102 1101
f 1096 1097 1103 1102
f 1097 1098 1104 1103
f 1098 1099 1105 1104
f 1099 1100 1106 1105
f 1100 1095 1101 1106
f 1101 1102 1108 1107
f 1102 1103 1109 1108
f 1103 1104 1110 1109
f 1104 1105 1111 1110
f 1105 1106 1112 1111
f 1106 1101 1107 1112
g arm_10_1
usemtl living_silica
f 1121 1119 1117 1115 1113
f 1114 1116 1118 1120 1122
f 1113 1115 1116 1114
f 1115 1117 1118 1116
f 1117 1119 1120 1118
f 1119 1121 1122 1120
f 1121 1113 1114 1122
g filter_10_1
usemtl living_pale
f 1123 1124 1130 1129
f 1124 1125 1131 1130
f 1125 1126 1132 1131
f 1126 1127 1133 1132
f 1127 1128 1134 1133
f 1128 1123 1129 1134
f 1129 1130 1136 1135
f 1130 1131 1137 1136
f 1131 1132 1138 1137
f 1132 1133 1139 1138
f 1133 1134 1140 1139
f 1134 1129 1135 1140
f 1135 1136 1142 1141
f 1136 1137 1143 1142
f 1137 1138 1144 1143
f 1138 1139 1145 1144
f 1139 1140 1146 1145
f 1140 1135 1141 1146
g stem_11
usemtl living_teal
f 1159 1157 1155 1153 1151 1149 1147
f 1148 1150 1152 1154 1156 1158 1160
f 1147 1149 1150 1148
f 1149 1151 1152 1150
f 1151 1153 1154 1152
f 1153 1155 1156 1154
f 1155 1157 1158 1156
f 1157 1159 1160 1158
f 1159 1147 1148 1160
g arm_11_-1
usemtl living_silica
f 1169 1167 1165 1163 1161
f 1162 1164 1166 1168 1170
f 1161 1163 1164 1162
f 1163 1165 1166 1164
f 1165 1167 1168 1166
f 1167 1169 1170 1168
f 1169 1161 1162 1170
g filter_11_-1
usemtl living_pale
f 1171 1172 1178 1177
f 1172 1173 1179 1178
f 1173 1174 1180 1179
f 1174 1175 1181 1180
f 1175 1176 1182 1181
f 1176 1171 1177 1182
f 1177 1178 1184 1183
f 1178 1179 1185 1184
f 1179 1180 1186 1185
f 1180 1181 1187 1186
f 1181 1182 1188 1187
f 1182 1177 1183 1188
f 1183 1184 1190 1189
f 1184 1185 1191 1190
f 1185 1186 1192 1191
f 1186 1187 1193 1192
f 1187 1188 1194 1193
f 1188 1183 1189 1194
g arm_11_1
usemtl living_silica
f 1203 1201 1199 1197 1195
f 1196 1198 1200 1202 1204
f 1195 1197 1198 1196
f 1197 1199 1200 1198
f 1199 1201 1202 1200
f 1201 1203 1204 1202
f 1203 1195 1196 1204
g filter_11_1
usemtl living_pale
f 1205 1206 1212 1211
f 1206 1207 1213 1212
f 1207 1208 1214 1213
f 1208 1209 1215 1214
f 1209 1210 1216 1215
f 1210 1205 1211 1216
f 1211 1212 1218 1217
f 1212 1213 1219 1218
f 1213 1214 1220 1219
f 1214 1215 1221 1220
f 1215 1216 1222 1221
f 1216 1211 1217 1222
f 1217 1218 1224 1223
f 1218 1219 1225 1224
f 1219 1220 1226 1225
f 1220 1221 1227 1226
f 1221 1222 1228 1227
f 1222 1217 1223 1228
g stem_12
usemtl living_teal
f 1241 1239 1237 1235 1233 1231 1229
f 1230 1232 1234 1236 1238 1240 1242
f 1229 1231 1232 1230
f 1231 1233 1234 1232
f 1233 1235 1236 1234
f 1235 1237 1238 1236
f 1237 1239 1240 1238
f 1239 1241 1242 1240
f 1241 1229 1230 1242
g arm_12_-1
usemtl living_silica
f 1251 1249 1247 1245 1243
f 1244 1246 1248 1250 1252
f 1243 1245 1246 1244
f 1245 1247 1248 1246
f 1247 1249 1250 1248
f 1249 1251 1252 1250
f 1251 1243 1244 1252
g filter_12_-1
usemtl living_pale
f 1253 1254 1260 1259
f 1254 1255 1261 1260
f 1255 1256 1262 1261
f 1256 1257 1263 1262
f 1257 1258 1264 1263
f 1258 1253 1259 1264
f 1259 1260 1266 1265
f 1260 1261 1267 1266
f 1261 1262 1268 1267
f 1262 1263 1269 1268
f 1263 1264 1270 1269
f 1264 1259 1265 1270
f 1265 1266 1272 1271
f 1266 1267 1273 1272
f 1267 1268 1274 1273
f 1268 1269 1275 1274
f 1269 1270 1276 1275
f 1270 1265 1271 1276
g arm_12_1
usemtl living_silica
f 1285 1283 1281 1279 1277
f 1278 1280 1282 1284 1286
f 1277 1279 1280 1278
f 1279 1281 1282 1280
f 1281 1283 1284 1282
f 1283 1285 1286 1284
f 1285 1277 1278 1286
g filter_12_1
usemtl living_pale
f 1287 1288 1294 1293
f 1288 1289 1295 1294
f 1289 1290 1296 1295
f 1290 1291 1297 1296
f 1291 1292 1298 1297
f 1292 1287 1293 1298
f 1293 1294 1300 1299
f 1294 1295 1301 1300
f 1295 1296 1302 1301
f 1296 1297 1303 1302
f 1297 1298 1304 1303
f 1298 1293 1299 1304
f 1299 1300 1306 1305
f 1300 1301 1307 1306
f 1301 1302 1308 1307
f 1302 1303 1309 1308
f 1303 1304 1310 1309
f 1304 1299 1305 1310
g crown_12
usemtl living_pale
f 1311 1312 1319 1318
f 1312 1313 1320 1319
f 1313 1314 1321 1320
f 1314 1315 1322 1321
f 1315 1316 1323 1322
f 1316 1317 1324 1323
f 1317 1311 1318 1324
f 1318 1319 1326 1325
f 1319 1320 1327 1326
f 1320 1321 1328 1327
f 1321 1322 1329 1328
f 1322 1323 1330 1329
f 1323 1324 1331 1330
f 1324 1318 1325 1331
f 1325 1326 1333 1332
f 1326 1327 1334 1333
f 1327 1328 1335 1334
f 1328 1329 1336 1335
f 1329 1330 1337 1336
f 1330 1331 1338 1337
f 1331 1325 1332 1338
