# Generated environment blockout: filter_grove_b
mtllib environment_blockout.mtl
o filter_grove_b
v -1.8 0.0 -0.6
v -1.8 0.0 -0.6
v -1.8 0.0 -0.6
v -1.8 0.0 -0.6
v -1.8 0.0 -0.6
v -1.8 0.0 -0.6
v -1.8 0.0 -0.6
v -1.8 0.0 -0.6
v -1.8 0.0 -0.6
v -1.8 0.0 -0.6
v -1.8 0.0 -0.6
v -0.15455 0.0275 -0.6
v -0.41576 0.0275 -0.13179
v -1.11646 0.0275 0.18776
v -2.03417 0.0275 0.25721
v -2.87754 0.0275 0.0545
v -3.3788 0.0275 -0.35601
v -3.3788 0.0275 -0.84399
v -2.87754 0.0275 -1.2545
v -2.03417 0.0275 -1.45721
v -1.11646 0.0275 -1.38776
v -0.41576 0.0275 -1.06821
v -0.15455 0.0825 -0.6
v -0.41576 0.0825 -0.13179
v -1.11646 0.0825 0.18776
v -2.03417 0.0825 0.25721
v -2.87754 0.0825 0.0545
v -3.3788 0.0825 -0.35601
v -3.3788 0.0825 -0.84399
v -2.87754 0.0825 -1.2545
v -2.03417 0.0825 -1.45721
v -1.11646 0.0825 -1.38776
v -0.41576 0.0825 -1.06821
v -1.8 0.11 -0.6
v -1.8 0.11 -0.6
v -1.8 0.11 -0.6
v -1.8 0.11 -0.6
v -1.8 0.11 -0.6
v -1.8 0.11 -0.6
v -1.8 0.11 -0.6
v -1.8 0.11 -0.6
v -1.8 0.11 -0.6
v -1.8 0.11 -0.6
v -1.8 0.11 -0.6
v 0.4 0.0 0.5
v 0.4 0.0 0.5
v 0.4 0.0 0.5
v 0.4 0.0 0.5
v 0.4 0.0 0.5
v 0.4 0.0 0.5
v 0.4 0.0 0.5
v 0.4 0.0 0.5
v 0.4 0.0 0.5
v 0.4 0.0 0.5
v 0.4 0.0 0.5
v 2.30526 0.0275 0.5
v 2.0028 0.0275 1.08526
v 1.19147 0.0275 1.48471
v 0.12885 0.0275 1.57151
v -0.84768 0.0275 1.31812
v -1.42808 0.0275 0.80498
v -1.42808 0.0275 0.19502
v -0.84768 0.0275 -0.31812
v 0.12885 0.0275 -0.57151
v 1.19147 0.0275 -0.48471
v 2.0028 0.0275 -0.08526
v 2.30526 0.0825 0.5
v 2.0028 0.0825 1.08526
v 1.19147 0.0825 1.48471
v 0.12885 0.0825 1.57151
v -0.84768 0.0825 1.31812
v -1.42808 0.0825 0.80498
v -1.42808 0.0825 0.19502
v -0.84768 0.0825 -0.31812
v 0.12885 0.0825 -0.57151
v 1.19147 0.0825 -0.48471
v 2.0028 0.0825 -0.08526
v 0.4 0.11 0.5
v 0.4 0.11 0.5
v 0.4 0.11 0.5
v 0.4 0.11 0.5
v 0.4 0.11 0.5
v 0.4 0.11 0.5
v 0.4 0.11 0.5
v 0.4 0.11 0.5
v 0.4 0.11 0.5
v 0.4 0.11 0.5
v 0.4 0.11 0.5
v 2.1 0.0 -0.4
v 2.1 0.0 -0.4
v 2.1 0.0 -0.4
v 2.1 0.0 -0.4
v 2.1 0.0 -0.4
v 2.1 0.0 -0.4
v 2.1 0.0 -0.4
v 2.1 0.0 -0.4
v 2.1 0.0 -0.4
v 2.1 0.0 -0.4
v 2.1 0.0 -0.4
v 3.35574 0.0275 -0.4
v 3.15639 0.0275 0.02139
v 2.62165 0.0275 0.30899
v 1.92129 0.0275 0.37149
v 1.27767 0.0275 0.18905
v 0.89513 0.0275 -0.18041
v 0.89513 0.0275 -0.61959
v 1.27767 0.0275 -0.98905
v 1.92129 0.0275 -1.17149
v 2.62165 0.0275 -1.10899
v 3.15639 0.0275 -0.82139
v 3.35574 0.0825 -0.4
v 3.15639 0.0825 0.02139
v 2.62165 0.0825 0.30899
v 1.92129 0.0825 0.37149
v 1.27767 0.0825 0.18905
v 0.89513 0.0825 -0.18041
v 0.89513 0.0825 -0.61959
v 1.27767 0.0825 -0.98905
v 1.92129 0.0825 -1.17149
v 2.62165 0.0825 -1.10899
v 3.15639 0.0825 -0.82139
v 2.1 0.11 -0.4
v 2.1 0.11 -0.4
v 2.1 0.11 -0.4
v 2.1 0.11 -0.4
v 2.1 0.11 -0.4
v 2.1 0.11 -0.4
v 2.1 0.11 -0.4
v 2.1 0.11 -0.4
v 2.1 0.11 -0.4
v 2.1 0.11 -0.4
v 2.1 0.11 -0.4
v -0.41195 0.04819 0.20883
v -0.56968 1.23819 0.09113
v -0.50496 0.04043 0.255
v -0.6627 1.23043 0.1373
v -0.52794 0.0474 0.35633
v -0.68567 1.2374 0.23863
v -0.46357 0.06387 0.43651
v -0.6213 1.25387 0.31881
v -0.36033 0.07742 0.43517
v -0.51806 1.26742 0.31747
v -0.29596 0.07785 0.35332
v -0.4537 1.26785 0.23562
v -0.31894 0.06485 0.25259
v -0.47667 1.25485 0.13489
v -0.3964 0.625 0.28602
v -0.7164 0.865 0.16821
v -0.43026 0.59 0.30669
v -0.75026 0.83 0.18888
v -0.43881 0.60337 0.35715
v -0.75881 0.84337 0.23935
v -0.41024 0.64663 0.36767
v -0.73024 0.88663 0.24987
v -0.38403 0.66 0.32371
v -0.70403 0.9 0.2059
v -0.73195 0.865 0.21044
v -0.73195 0.865 0.21044
v -0.73195 0.865 0.21044
v -0.73195 0.865 0.21044
v -0.73195 0.865 0.21044
v -0.73195 0.865 0.21044
v -0.61071 0.955 0.21044
v -0.67133 0.955 0.27794
v -0.79257 0.955 0.27794
v -0.85319 0.955 0.21044
v -0.79257 0.955 0.14294
v -0.67133 0.955 0.14294
v -0.61071 1.135 0.21044
v -0.67133 1.135 0.27794
v -0.79257 1.135 0.27794
v -0.85319 1.135 0.21044
v -0.79257 1.135 0.14294
v -0.67133 1.135 0.14294
v -0.73195 1.225 0.21044
v -0.73195 1.225 0.21044
v -0.73195 1.225 0.21044
v -0.73195 1.225 0.21044
v -0.73195 1.225 0.21044
v -0.73195 1.225 0.21044
v -0.4275 0.925 0.37048
v -0.1075 1.165 0.48828
v -0.39364 0.89 0.34981
v -0.07364 1.13 0.46761
v -0.38509 0.90337 0.29934
v -0.06509 1.14337 0.41715
v -0.41366 0.94663 0.28883
v -0.09366 1.18663 0.40663
v -0.43987 0.96 0.33279
v -0.11987 1.2 0.4506
v -0.09195 1.165 0.44606
v -0.09195 1.165 0.44606
v -0.09195 1.165 0.44606
v -0.09195 1.165 0.44606
v -0.09195 1.165 0.44606
v -0.09195 1.165 0.44606
v 0.02929 1.255 0.44606
v -0.03133 1.255 0.51356
v -0.15257 1.255 0.51356
v -0.21319 1.255 0.44606
v -0.15257 1.255 0.37856
v -0.03133 1.255 0.37856
v 0.02929 1.435 0.44606
v -0.03133 1.435 0.51356
v -0.15257 1.435 0.51356
v -0.21319 1.435 0.44606
v -0.15257 1.435 0.37856
v -0.03133 1.435 0.37856
v -0.09195 1.525 0.44606
v -0.09195 1.525 0.44606
v -0.09195 1.525 0.44606
v -0.09195 1.525 0.44606
v -0.09195 1.525 0.44606
v -0.09195 1.525 0.44606
v -0.56968 1.15 0.21055
v -0.56968 1.15 0.21055
v -0.56968 1.15 0.21055
v -0.56968 1.15 0.21055
v -0.56968 1.15 0.21055
v -0.56968 1.15 0.21055
v -0.56968 1.15 0.21055
v -0.34452 1.225 0.21055
v -0.42929 1.225 0.38659
v -0.61979 1.225 0.43007
v -0.77255 1.225 0.30825
v -0.77255 1.225 0.11285
v -0.61979 1.225 -0.00897
v -0.42929 1.225 0.03451
v -0.34452 1.375 0.21055
v -0.42929 1.375 0.38659
v -0.61979 1.375 0.43007
v -0.77255 1.375 0.30825
v -0.77255 1.375 0.11285
v -0.61979 1.375 -0.00897
v -0.42929 1.375 0.03451
v -0.56968 1.45 0.21055
v -0.56968 1.45 0.21055
v -0.56968 1.45 0.21055
v -0.56968 1.45 0.21055
v -0.56968 1.45 0.21055
v -0.56968 1.45 0.21055
v -0.56968 1.45 0.21055
v -0.23761 0.05933 -1.29518
v 0.04221 2.92933 -1.31781
v -0.30375 0.06603 -1.26322
v -0.02393 2.93603 -1.28585
v -0.32008 0.06819 -1.19133
v -0.04026 2.93819 -1.21396
v -0.27431 0.06418 -1.13363
v 0.00551 2.93418 -1.15626
v -0.2009 0.05703 -1.13357
v 0.07892 2.92703 -1.1562
v -0.15513 0.05211 -1.1912
v 0.12469 2.92211 -1.21383
v -0.17146 0.05313 -1.26312
v 0.10836 2.92313 -1.28575
v -0.23761 1.465 -1.25518
v -0.60761 1.705 -1.25518
v -0.2609 1.42909 -1.22408
v -0.6309 1.66909 -1.22408
v -0.252 1.44281 -1.17377
v -0.622 1.68281 -1.17377
v -0.22321 1.48719 -1.17377
v -0.59321 1.72719 -1.17377
v -0.21432 1.50091 -1.22408
v -0.58432 1.74091 -1.22408
v -0.60761 1.705 -1.21018
v -0.60761 1.705 -1.21018
v -0.60761 1.705 -1.21018
v -0.60761 1.705 -1.21018
v -0.60761 1.705 -1.21018
v -0.60761 1.705 -1.21018
v -0.48636 1.795 -1.21018
v -0.54699 1.795 -1.14268
v -0.66823 1.795 -1.14268
v -0.72885 1.795 -1.21018
v -0.66823 1.795 -1.27768
v -0.54699 1.795 -1.27768
v -0.48636 1.975 -1.21018
v -0.54699 1.975 -1.14268
v -0.66823 1.975 -1.14268
v -0.72885 1.975 -1.21018
v -0.66823 1.975 -1.27768
v -0.54699 1.975 -1.27768
v -0.60761 2.065 -1.21018
v -0.60761 2.065 -1.21018
v -0.60761 2.065 -1.21018
v -0.60761 2.065 -1.21018
v -0.60761 2.065 -1.21018
v -0.60761 2.065 -1.21018
v -0.25225 2.1682 -1.16763
v 0.11775 2.4082 -1.04032
v -0.22097 2.13172 -1.18975
v 0.14903 2.37172 -1.06245
v -0.21269 2.14565 -1.2401
v 0.15731 2.38565 -1.1128
v -0.23884 2.19075 -1.2491
v 0.13116 2.43075 -1.1218
v -0.26329 2.20468 -1.20431
v 0.10671 2.44468 -1.07701
v 0.13239 2.4082 -1.08288
v 0.13239 2.4082 -1.08288
v 0.13239 2.4082 -1.08288
v 0.13239 2.4082 -1.08288
v 0.13239 2.4082 -1.08288
v 0.13239 2.4082 -1.08288
v 0.25364 2.4982 -1.08288
v 0.19301 2.4982 -1.01538
v 0.07177 2.4982 -1.01538
v 0.01115 2.4982 -1.08288
v 0.07177 2.4982 -1.15038
v 0.19301 2.4982 -1.15038
v 0.25364 2.6782 -1.08288
v 0.19301 2.6782 -1.01538
v 0.07177 2.6782 -1.01538
v 0.01115 2.6782 -1.08288
v 0.07177 2.6782 -1.15038
v 0.19301 2.6782 -1.15038
v 0.13239 2.7682 -1.08288
v 0.13239 2.7682 -1.08288
v 0.13239 2.7682 -1.08288
v 0.13239 2.7682 -1.08288
v 0.13239 2.7682 -1.08288
v 0.13239 2.7682 -1.08288
v 2.64325 0.06536 1.24579
v 2.46943 2.45536 1.39683
v 2.57697 0.05854 1.27742
v 2.40314 2.44854 1.42847
v 2.5606 0.05282 1.34912
v 2.38677 2.44282 1.50016
v 2.60647 0.05251 1.40688
v 2.43264 2.44251 1.55792
v 2.68003 0.05783 1.40722
v 2.50621 2.44783 1.55826
v 2.7259 0.06479 1.34987
v 2.55208 2.45479 1.50092
v 2.70953 0.06814 1.27803
v 2.53571 2.45814 1.42907
v 2.6311 1.225 1.28729
v 2.2111 1.465 1.4051
v 2.61963 1.1875 1.3228
v 2.19963 1.4275 1.44061
v 2.64081 1.20183 1.36912
v 2.22081 1.44183 1.48692
v 2.66536 1.24817 1.36223
v 2.24536 1.48817 1.48003
v 2.65936 1.2625 1.31166
v 2.23936 1.5025 1.42946
v 2.22325 1.465 1.44843
v 2.22325 1.465 1.44843
v 2.22325 1.465 1.44843
v 2.22325 1.465 1.44843
v 2.22325 1.465 1.44843
v 2.22325 1.465 1.44843
v 2.3445 1.555 1.44843
v 2.28387 1.555 1.51593
v 2.16263 1.555 1.51593
v 2.10201 1.555 1.44843
v 2.16263 1.555 1.38093
v 2.28387 1.555 1.38093
v 2.3445 1.735 1.44843
v 2.28387 1.735 1.51593
v 2.16263 1.735 1.51593
v 2.10201 1.735 1.44843
v 2.16263 1.735 1.38093
v 2.28387 1.735 1.38093
v 2.22325 1.825 1.44843
v 2.22325 1.825 1.44843
v 2.22325 1.825 1.44843
v 2.22325 1.825 1.44843
v 2.22325 1.825 1.44843
v 2.22325 1.825 1.44843
v 2.64114 1.813 1.37557
v 3.06114 2.053 1.39533
v 2.66379 1.77583 1.34551
v 3.08379 2.01583 1.36526
v 2.65806 1.79003 1.29487
v 3.07806 2.03003 1.31463
v 2.63186 1.83597 1.29364
v 3.05186 2.07597 1.31339
v 2.62141 1.85017 1.34351
v 3.04141 2.09017 1.36327
v 3.06325 2.053 1.35038
v 3.06325 2.053 1.35038
v 3.06325 2.053 1.35038
v 3.06325 2.053 1.35038
v 3.06325 2.053 1.35038
v 3.06325 2.053 1.35038
v 3.1845 2.143 1.35038
v 3.12387 2.143 1.41788
v 3.00263 2.143 1.41788
v 2.94201 2.143 1.35038
v 3.00263 2.143 1.28288
v 3.12387 2.143 1.28288
v 3.1845 2.323 1.35038
v 3.12387 2.323 1.41788
v 3.00263 2.323 1.41788
v 2.94201 2.323 1.35038
v 3.00263 2.323 1.28288
v 3.12387 2.323 1.28288
v 3.06325 2.413 1.35038
v 3.06325 2.413 1.35038
v 3.06325 2.413 1.35038
v 3.06325 2.413 1.35038
v 3.06325 2.413 1.35038
v 3.06325 2.413 1.35038
v -1.8193 0.05115 -0.05522
v -1.89316 1.96115 -0.25514
v -1.8857 0.05194 -0.02312
v -1.95956 1.96194 -0.22305
v -1.90211 0.0588 0.04846
v -1.97596 1.9688 -0.15146
v -1.85615 0.06656 0.10563
v -1.93001 1.97656 -0.09429
v -1.78245 0.06938 0.10534
v -1.8563 1.97938 -0.09459
v -1.73649 0.06514 0.0478
v -1.81035 1.97514 -0.15212
v -1.75289 0.05702 -0.02366
v -1.82675 1.96702 -0.22358
v -1.83593 0.985 -0.01249
v -2.15593 1.225 0.11481
v -1.84717 0.94989 0.02544
v -2.16717 1.18989 0.15274
v -1.81989 0.9633 0.06874
v -2.13989 1.2033 0.19604
v -1.79179 1.0067 0.05756
v -2.11179 1.2467 0.18486
v -1.8017 1.02011 0.00735
v -2.1217 1.26011 0.13465
v -2.1393 1.225 0.15662
v -2.1393 1.225 0.15662
v -2.1393 1.225 0.15662
v -2.1393 1.225 0.15662
v -2.1393 1.225 0.15662
v -2.1393 1.225 0.15662
v -2.01805 1.315 0.15662
v -2.07868 1.315 0.22412
v -2.19992 1.315 0.22412
v -2.26054 1.315 0.15662
v -2.19992 1.315 0.08912
v -2.07868 1.315 0.08912
v -2.01805 1.495 0.15662
v -2.07868 1.495 0.22412
v -2.19992 1.495 0.22412
v -2.26054 1.495 0.15662
v -2.19992 1.495 0.08912
v -2.07868 1.495 0.08912
v -2.1393 1.585 0.15662
v -2.1393 1.585 0.15662
v -2.1393 1.585 0.15662
v -2.1393 1.585 0.15662
v -2.1393 1.585 0.15662
v -2.1393 1.585 0.15662
v -1.80515 1.4578 0.07204
v -1.48515 1.6978 -0.03391
v -1.79136 1.42294 0.03472
v -1.47136 1.66294 -0.07123
v -1.81618 1.43625 -0.01006
v -1.49618 1.67625 -0.11602
v -1.8453 1.47935 -0.00042
v -1.5253 1.71935 -0.10637
v -1.83849 1.49266 0.05032
v -1.51849 1.73266 -0.05563
v -1.4993 1.6978 -0.07663
v -1.4993 1.6978 -0.07663
v -1.4993 1.6978 -0.07663
v -1.4993 1.6978 -0.07663
v -1.4993 1.6978 -0.07663
v -1.4993 1.6978 -0.07663
v -1.37805 1.7878 -0.07663
v -1.43868 1.7878 -0.00913
v -1.55992 1.7878 -0.00913
v -1.62054 1.7878 -0.07663
v -1.55992 1.7878 -0.14413
v -1.43868 1.7878 -0.14413
v -1.37805 1.9678 -0.07663
v -1.43868 1.9678 -0.00913
v -1.55992 1.9678 -0.00913
v -1.62054 1.9678 -0.07663
v -1.55992 1.9678 -0.14413
v -1.43868 1.9678 -0.14413
v -1.4993 2.0578 -0.07663
v -1.4993 2.0578 -0.07663
v -1.4993 2.0578 -0.07663
v -1.4993 2.0578 -0.07663
v -1.4993 2.0578 -0.07663
v -1.4993 2.0578 -0.07663
v -1.89316 1.87 -0.1706
v -1.89316 1.87 -0.1706
v -1.89316 1.87 -0.1706
v -1.89316 1.87 -0.1706
v -1.89316 1.87 -0.1706
v -1.89316 1.87 -0.1706
v -1.89316 1.87 -0.1706
v -1.66799 1.945 -0.1706
v -1.75277 1.945 0.00544
v -1.94326 1.945 0.04892
v -2.09602 1.945 -0.07291
v -2.09602 1.945 -0.2683
v -1.94326 1.945 -0.39013
v -1.75277 1.945 -0.34665
v -1.66799 2.095 -0.1706
v -1.75277 2.095 0.00544
v -1.94326 2.095 0.04892
v -2.09602 2.095 -0.07291
v -2.09602 2.095 -0.2683
v -1.94326 2.095 -0.39013
v -1.75277 2.095 -0.34665
v -1.89316 2.17 -0.1706
v -1.89316 2.17 -0.1706
v -1.89316 2.17 -0.1706
v -1.89316 2.17 -0.1706
v -1.89316 2.17 -0.1706
v -1.89316 2.17 -0.1706
v -1.89316 2.17 -0.1706
v 2.31084 0.07198 -1.42
v 2.57218 1.50198 -1.27647
v 2.21854 0.08417 -1.37337
v 2.47987 1.51417 -1.22984
v 2.19574 0.07816 -1.27194
v 2.45708 1.50816 -1.12841
v 2.25962 0.05847 -1.19209
v 2.52095 1.48847 -1.04856
v 2.36207 0.03993 -1.19395
v 2.62341 1.46993 -1.05042
v 2.42595 0.03651 -1.27612
v 2.68728 1.46651 -1.13259
v 2.40315 0.05077 -1.37672
v 2.66449 1.48077 -1.23319
v 2.30844 0.745 -1.34553
v 1.93844 0.985 -1.32578
v 2.28687 0.70908 -1.31324
v 1.91687 0.94908 -1.29349
v 2.29842 0.7228 -1.26348
v 1.92842 0.9628 -1.24372
v 2.32714 0.7672 -1.26501
v 1.95714 1.0072 -1.24525
v 2.33333 0.78092 -1.31573
v 1.96333 1.02092 -1.29597
v 1.94084 0.985 -1.28084
v 1.94084 0.985 -1.28084
v 1.94084 0.985 -1.28084
v 1.94084 0.985 -1.28084
v 1.94084 0.985 -1.28084
v 1.94084 0.985 -1.28084
v 2.06209 1.075 -1.28084
v 2.00146 1.075 -1.21334
v 1.88022 1.075 -1.21334
v 1.8196 1.075 -1.28084
v 1.88022 1.075 -1.34834
v 2.00146 1.075 -1.34834
v 2.06209 1.255 -1.28084
v 2.00146 1.255 -1.21334
v 1.88022 1.255 -1.21334
v 1.8196 1.255 -1.28084
v 1.88022 1.255 -1.34834
v 2.00146 1.255 -1.34834
v 1.94084 1.345 -1.28084
v 1.94084 1.345 -1.28084
v 1.94084 1.345 -1.28084
v 1.94084 1.345 -1.28084
v 1.94084 1.345 -1.28084
v 1.94084 1.345 -1.28084
v 2.32619 1.1026 -1.2583
v 2.69619 1.3426 -1.39255
v 2.33653 1.06606 -1.29513
v 2.70653 1.30606 -1.42938
v 2.31137 1.08002 -1.33952
v 2.68137 1.32002 -1.47377
v 2.28548 1.12518 -1.33012
v 2.65548 1.36518 -1.46437
v 2.29464 1.13914 -1.27993
v 2.66464 1.37914 -1.41418
v 2.68084 1.3426 -1.43485
v 2.68084 1.3426 -1.43485
v 2.68084 1.3426 -1.43485
v 2.68084 1.3426 -1.43485
v 2.68084 1.3426 -1.43485
v 2.68084 1.3426 -1.43485
v 2.80209 1.4326 -1.43485
v 2.74146 1.4326 -1.36735
v 2.62022 1.4326 -1.36735
v 2.5596 1.4326 -1.43485
v 2.62022 1.4326 -1.50235
v 2.74146 1.4326 -1.50235
v 2.80209 1.6126 -1.43485
v 2.74146 1.6126 -1.36735
v 2.62022 1.6126 -1.36735
v 2.5596 1.6126 -1.43485
v 2.62022 1.6126 -1.50235
v 2.74146 1.6126 -1.50235
v 2.68084 1.7026 -1.43485
v 2.68084 1.7026 -1.43485
v 2.68084 1.7026 -1.43485
v 2.68084 1.7026 -1.43485
v 2.68084 1.7026 -1.43485
v 2.68084 1.7026 -1.43485
v -0.08901 0.05968 0.80671
v -0.32481 3.16968 0.79515
v -0.15528 0.05478 0.83873
v -0.39108 3.16478 0.82717
v -0.17164 0.05381 0.91064
v -0.40744 3.16381 0.89908
v -0.12579 0.0575 0.9683
v -0.36159 3.1675 0.95674
v -0.05224 0.06307 0.96828
v -0.28804 3.17307 0.95672
v -0.00638 0.06634 0.9106
v -0.24218 3.17634 0.89904
v -0.02275 0.06483 0.83869
v -0.25855 3.17483 0.82713
v -0.07801 1.585 0.84807
v -0.49801 1.825 0.74212
v -0.10572 1.54756 0.87315
v -0.52572 1.78756 0.7672
v -0.11035 1.56186 0.92387
v -0.53035 1.80186 0.81792
v -0.08549 1.60814 0.93014
v -0.50549 1.84814 0.82419
v -0.0655 1.62244 0.8833
v -0.4855 1.86244 0.77734
v -0.50901 1.825 0.78575
v -0.50901 1.825 0.78575
v -0.50901 1.825 0.78575
v -0.50901 1.825 0.78575
v -0.50901 1.825 0.78575
v -0.50901 1.825 0.78575
v -0.38777 1.915 0.78575
v -0.44839 1.915 0.85325
v -0.56964 1.915 0.85325
v -0.63026 1.915 0.78575
v -0.56964 1.915 0.71825
v -0.44839 1.915 0.71825
v -0.38777 2.095 0.78575
v -0.44839 2.095 0.85325
v -0.56964 2.095 0.85325
v -0.63026 2.095 0.78575
v -0.56964 2.095 0.71825
v -0.44839 2.095 0.71825
v -0.50901 2.185 0.78575
v -0.50901 2.185 0.78575
v -0.50901 2.185 0.78575
v -0.50901 2.185 0.78575
v -0.50901 2.185 0.78575
v -0.50901 2.185 0.78575
v -0.08484 2.3458 0.93651
v 0.33516 2.5858 0.89739
v -0.06665 2.3086 0.90359
v 0.35335 2.5486 0.86447
v -0.07937 2.32281 0.85424
v 0.34063 2.56281 0.81513
v -0.10541 2.36879 0.85667
v 0.31459 2.60879 0.81755
v -0.1088 2.383 0.90752
v 0.3112 2.623 0.8684
v 0.33099 2.5858 0.85259
v 0.33099 2.5858 0.85259
v 0.33099 2.5858 0.85259
v 0.33099 2.5858 0.85259
v 0.33099 2.5858 0.85259
v 0.33099 2.5858 0.85259
v 0.45223 2.6758 0.85259
v 0.39161 2.6758 0.92009
v 0.27036 2.6758 0.92009
v 0.20974 2.6758 0.85259
v 0.27036 2.6758 0.78509
v 0.39161 2.6758 0.78509
v 0.45223 2.8558 0.85259
v 0.39161 2.8558 0.92009
v 0.27036 2.8558 0.92009
v 0.20974 2.8558 0.85259
v 0.27036 2.8558 0.78509
v 0.39161 2.8558 0.78509
v 0.33099 2.9458 0.85259
v 0.33099 2.9458 0.85259
v 0.33099 2.9458 0.85259
v 0.33099 2.9458 0.85259
v 0.33099 2.9458 0.85259
v 0.33099 2.9458 0.85259
v -1.85951 0.05592 -1.4057
v -1.84145 2.68592 -1.5322
v -1.92597 0.05791 -1.37376
v -1.90791 2.68791 -1.50025
v -1.94238 0.06148 -1.30193
v -1.92432 2.69148 -1.42843
v -1.89639 0.06393 -1.24432
v -1.87833 2.69393 -1.37081
v -1.82263 0.06343 -1.24429
v -1.80458 2.69343 -1.37079
v -1.77664 0.06034 -1.30188
v -1.75859 2.69034 -1.42838
v -1.79306 0.057 -1.37371
v -1.775 2.687 -1.50021
v -1.8421 1.345 -1.36229
v -2.1621 1.585 -1.49654
v -1.87658 1.3098 -1.34304
v -2.19658 1.5498 -1.47729
v -1.88747 1.32325 -1.29305
v -2.20747 1.56325 -1.4273
v -1.85972 1.36675 -1.28141
v -2.17972 1.60675 -1.41566
v -1.83168 1.3802 -1.3242
v -2.15168 1.6202 -1.45845
v -2.17951 1.585 -1.45505
v -2.17951 1.585 -1.45505
v -2.17951 1.585 -1.45505
v -2.17951 1.585 -1.45505
v -2.17951 1.585 -1.45505
v -2.17951 1.585 -1.45505
v -2.05827 1.675 -1.45505
v -2.11889 1.675 -1.38755
v -2.24013 1.675 -1.38755
v -2.30075 1.675 -1.45505
v -2.24013 1.675 -1.52255
v -2.11889 1.675 -1.52255
v -2.05827 1.855 -1.45505
v -2.11889 1.855 -1.38755
v -2.24013 1.855 -1.38755
v -2.30075 1.855 -1.45505
v -2.24013 1.855 -1.52255
v -2.11889 1.855 -1.52255
v -2.17951 1.945 -1.45505
v -2.17951 1.945 -1.45505
v -2.17951 1.945 -1.45505
v -2.17951 1.945 -1.45505
v -2.17951 1.945 -1.45505
v -2.17951 1.945 -1.45505
v -1.87194 1.9906 -1.27755
v -1.55194 2.2306 -1.18557
v -1.8393 1.95588 -1.30052
v -1.5193 2.19588 -1.20854
v -1.83459 1.96914 -1.35152
v -1.51459 2.20914 -1.25954
v -1.86432 2.01206 -1.36006
v -1.54432 2.25206 -1.26808
v -1.8874 2.02532 -1.31435
v -1.5674 2.26532 -1.22237
v -1.53951 2.2306 -1.22882
v -1.53951 2.2306 -1.22882
v -1.53951 2.2306 -1.22882
v -1.53951 2.2306 -1.22882
v -1.53951 2.2306 -1.22882
v -1.53951 2.2306 -1.22882
v -1.41827 2.3206 -1.22882
v -1.47889 2.3206 -1.16132
v -1.60013 2.3206 -1.16132
v -1.66075 2.3206 -1.22882
v -1.60013 2.3206 -1.29632
v -1.47889 2.3206 -1.29632
v -1.41827 2.5006 -1.22882
v -1.47889 2.5006 -1.16132
v -1.60013 2.5006 -1.16132
v -1.66075 2.5006 -1.22882
v -1.60013 2.5006 -1.29632
v -1.47889 2.5006 -1.29632
v -1.53951 2.5906 -1.22882
v -1.53951 2.5906 -1.22882
v -1.53951 2.5906 -1.22882
v -1.53951 2.5906 -1.22882
v -1.53951 2.5906 -1.22882
v -1.53951 2.5906 -1.22882
v -1.84145 2.59 -1.4473
v -1.84145 2.59 -1.4473
v -1.84145 2.59 -1.4473
v -1.84145 2.59 -1.4473
v -1.84145 2.59 -1.4473
v -1.84145 2.59 -1.4473
v -1.84145 2.59 -1.4473
v -1.61629 2.665 -1.4473
v -1.70107 2.665 -1.27125
v -1.89156 2.665 -1.22777
v -2.04432 2.665 -1.3496
v -2.04432 2.665 -1.54499
v -1.89156 2.665 -1.66682
v -1.70107 2.665 -1.62334
v -1.61629 2.815 -1.4473
v -1.70107 2.815 -1.27125
v -1.89156 2.815 -1.22777
v -2.04432 2.815 -1.3496
v -2.04432 2.815 -1.54499
v -1.89156 2.815 -1.66682
v -1.70107 2.815 -1.62334
v -1.84145 2.89 -1.4473
v -1.84145 2.89 -1.4473
v -1.84145 2.89 -1.4473
v -1.84145 2.89 -1.4473
v -1.84145 2.89 -1.4473
v -1.84145 2.89 -1.4473
v -1.84145 2.89 -1.4473
v 1.24706 0.06779 0.01983
v 1.46146 2.21779 0.21777
v 1.18093 0.0714 0.0523
v 1.39533 2.2214 0.25024
v 1.1646 0.06642 0.12406
v 1.379 2.21642 0.322
v 1.21036 0.05661 0.18106
v 1.42476 2.20661 0.37901
v 1.28376 0.04935 0.1804
v 1.49816 2.19935 0.37834
v 1.32952 0.05011 0.12255
v 1.54393 2.20011 0.3205
v 1.31319 0.05832 0.05109
v 1.52759 2.20832 0.24904
v 1.25179 1.105 0.05972
v 0.88179 1.345 0.0206
v 1.22545 1.06904 0.0882
v 0.85545 1.30904 0.04908
v 1.22897 1.08277 0.13917
v 0.85897 1.32277 0.10005
v 1.25749 1.12723 0.14218
v 0.88749 1.36723 0.10306
v 1.27159 1.14096 0.09308
v 0.90159 1.38096 0.05396
v 0.87706 1.345 0.06535
v 0.87706 1.345 0.06535
v 0.87706 1.345 0.06535
v 0.87706 1.345 0.06535
v 0.87706 1.345 0.06535
v 0.87706 1.345 0.06535
v 0.9983 1.435 0.06535
v 0.93768 1.435 0.13285
v 0.81644 1.435 0.13285
v 0.75582 1.435 0.06535
v 0.81644 1.435 -0.00215
v 0.93768 1.435 -0.00215
v 0.9983 1.615 0.06535
v 0.93768 1.615 0.13285
v 0.81644 1.615 0.13285
v 0.75582 1.615 0.06535
v 0.81644 1.615 -0.00215
v 0.93768 1.615 -0.00215
v 0.87706 1.705 0.06535
v 0.87706 1.705 0.06535
v 0.87706 1.705 0.06535
v 0.87706 1.705 0.06535
v 0.87706 1.705 0.06535
v 0.87706 1.705 0.06535
v 1.23128 1.6354 0.14661
v 1.60128 1.8754 0.28512
v 1.26299 1.59882 0.12528
v 1.63299 1.83882 0.26379
v 1.27268 1.61279 0.07519
v 1.64268 1.85279 0.2137
v 1.24696 1.65801 0.06556
v 1.61696 1.89801 0.20407
v 1.22137 1.67198 0.1097
v 1.59137 1.91198 0.24821
v 1.61706 1.8754 0.24298
v 1.61706 1.8754 0.24298
v 1.61706 1.8754 0.24298
v 1.61706 1.8754 0.24298
v 1.61706 1.8754 0.24298
v 1.61706 1.8754 0.24298
v 1.7383 1.9654 0.24298
v 1.67768 1.9654 0.31048
v 1.55644 1.9654 0.31048
v 1.49582 1.9654 0.24298
v 1.55644 1.9654 0.17548
v 1.67768 1.9654 0.17548
v 1.7383 2.1454 0.24298
v 1.67768 2.1454 0.31048
v 1.55644 2.1454 0.31048
v 1.49582 2.1454 0.24298
v 1.55644 2.1454 0.17548
v 1.67768 2.1454 0.17548
v 1.61706 2.2354 0.24298
v 1.61706 2.2354 0.24298
v 1.61706 2.2354 0.24298
v 1.61706 2.2354 0.24298
v 1.61706 2.2354 0.24298
v 1.61706 2.2354 0.24298
v -2.19667 0.04819 0.75063
v -2.46877 1.71819 0.58547
v -2.28928 0.03769 0.79707
v -2.56138 1.70769 0.63191
v -2.31215 0.04399 0.89846
v -2.58426 1.71399 0.7333
v -2.24807 0.06235 0.97846
v -2.52017 1.73235 0.81329
v -2.14528 0.07893 0.97682
v -2.41738 1.74893 0.81165
v -2.08119 0.08126 0.89478
v -2.35329 1.75126 0.72961
v -2.10406 0.06758 0.79411
v -2.37616 1.73758 0.62895
v -2.2063 0.865 0.82609
v -2.6263 1.105 0.91807
v -2.22002 0.82763 0.86092
v -2.64002 1.06763 0.9529
v -2.20148 0.8419 0.90837
v -2.62148 1.0819 1.00034
v -2.17629 0.8881 0.90285
v -2.59629 1.1281 0.99483
v -2.17927 0.90237 0.852
v -2.59927 1.14237 0.94398
v -2.61667 1.105 0.96202
v -2.61667 1.105 0.96202
v -2.61667 1.105 0.96202
v -2.61667 1.105 0.96202
v -2.61667 1.105 0.96202
v -2.61667 1.105 0.96202
v -2.49543 1.195 0.96202
v -2.55605 1.195 1.02952
v -2.67729 1.195 1.02952
v -2.73791 1.195 0.96202
v -2.67729 1.195 0.89452
v -2.55605 1.195 0.89452
v -2.49543 1.375 0.96202
v -2.55605 1.375 1.02952
v -2.67729 1.375 1.02952
v -2.73791 1.375 0.96202
v -2.67729 1.375 0.89452
v -2.55605 1.375 0.89452
v -2.61667 1.465 0.96202
v -2.61667 1.465 0.96202
v -2.61667 1.465 0.96202
v -2.61667 1.465 0.96202
v -2.61667 1.465 0.96202
v -2.61667 1.465 0.96202
v -2.20279 1.2802 0.91463
v -1.78279 1.5202 0.97232
v -2.17768 1.24296 0.88669
v -1.75768 1.48296 0.94439
v -2.17881 1.25718 0.83575
v -1.75881 1.49718 0.89345
v -2.20463 1.30322 0.83221
v -1.78463 1.54322 0.8899
v -2.21945 1.31744 0.88095
v -1.79945 1.55744 0.93865
v -1.77667 1.5202 0.92774
v -1.77667 1.5202 0.92774
v -1.77667 1.5202 0.92774
v -1.77667 1.5202 0.92774
v -1.77667 1.5202 0.92774
v -1.77667 1.5202 0.92774
v -1.65543 1.6102 0.92774
v -1.71605 1.6102 0.99524
v -1.83729 1.6102 0.99524
v -1.89791 1.6102 0.92774
v -1.83729 1.6102 0.86024
v -1.71605 1.6102 0.86024
v -1.65543 1.7902 0.92774
v -1.71605 1.7902 0.99524
v -1.83729 1.7902 0.99524
v -1.89791 1.7902 0.92774
v -1.83729 1.7902 0.86024
v -1.71605 1.7902 0.86024
v -1.77667 1.8802 0.92774
v -1.77667 1.8802 0.92774
v -1.77667 1.8802 0.92774
v -1.77667 1.8802 0.92774
v -1.77667 1.8802 0.92774
v -1.77667 1.8802 0.92774
v 0.22252 0.06324 -0.63849
v 0.33052 1.25324 -0.59308
v 0.15633 0.06802 -0.60628
v 0.26434 1.25802 -0.56087
v 0.13999 0.06676 -0.53437
v 0.24799 1.25676 -0.48896
v 0.18579 0.06041 -0.4769
v 0.29379 1.25041 -0.43149
v 0.25925 0.05375 -0.47715
v 0.36725 1.24375 -0.43174
v 0.30505 0.0518 -0.53494
v 0.41305 1.2418 -0.48953
v 0.2887 0.05602 -0.60674
v 0.39671 1.24602 -0.56133
v 0.20464 0.625 -0.59485
v -0.11536 0.865 -0.45634
v 0.19472 0.58975 -0.55668
v -0.12528 0.82975 -0.41817
v 0.22322 0.60321 -0.51419
v -0.09678 0.84321 -0.37568
v 0.25074 0.64679 -0.5261
v -0.06926 0.88679 -0.38759
v 0.23926 0.66025 -0.57595
v -0.08074 0.90025 -0.43744
v -0.09748 0.865 -0.41504
v -0.09748 0.865 -0.41504
v -0.09748 0.865 -0.41504
v -0.09748 0.865 -0.41504
v -0.09748 0.865 -0.41504
v -0.09748 0.865 -0.41504
v 0.02376 0.955 -0.41504
v -0.03686 0.955 -0.34754
v -0.15811 0.955 -0.34754
v -0.21873 0.955 -0.41504
v -0.15811 0.955 -0.48254
v -0.03686 0.955 -0.48254
v 0.02376 1.135 -0.41504
v -0.03686 1.135 -0.34754
v -0.15811 1.135 -0.34754
v -0.21873 1.135 -0.41504
v -0.15811 1.135 -0.48254
v -0.03686 1.135 -0.48254
v -0.09748 1.225 -0.41504
v -0.09748 1.225 -0.41504
v -0.09748 1.225 -0.41504
v -0.09748 1.225 -0.41504
v -0.09748 1.225 -0.41504
v -0.09748 1.225 -0.41504
v 0.23294 0.925 -0.50978
v 0.55294 1.165 -0.58594
v 0.25028 0.89043 -0.54587
v 0.57028 1.13043 -0.62203
v 0.22925 0.90363 -0.59258
v 0.54925 1.14363 -0.66874
v 0.19892 0.94637 -0.58536
v 0.51892 1.18637 -0.66152
v 0.2012 0.95957 -0.53419
v 0.5212 1.19957 -0.61035
v 0.54252 1.165 -0.62972
v 0.54252 1.165 -0.62972
v 0.54252 1.165 -0.62972
v 0.54252 1.165 -0.62972
v 0.54252 1.165 -0.62972
v 0.54252 1.165 -0.62972
v 0.66376 1.255 -0.62972
v 0.60314 1.255 -0.56222
v 0.48189 1.255 -0.56222
v 0.42127 1.255 -0.62972
v 0.48189 1.255 -0.69722
v 0.60314 1.255 -0.69722
v 0.66376 1.435 -0.62972
v 0.60314 1.435 -0.56222
v 0.48189 1.435 -0.56222
v 0.42127 1.435 -0.62972
v 0.48189 1.435 -0.69722
v 0.60314 1.435 -0.69722
v 0.54252 1.525 -0.62972
v 0.54252 1.525 -0.62972
v 0.54252 1.525 -0.62972
v 0.54252 1.525 -0.62972
v 0.54252 1.525 -0.62972
v 0.54252 1.525 -0.62972
v 0.33052 1.15 -0.50814
v 0.33052 1.15 -0.50814
v 0.33052 1.15 -0.50814
v 0.33052 1.15 -0.50814
v 0.33052 1.15 -0.50814
v 0.33052 1.15 -0.50814
v 0.33052 1.15 -0.50814
v 0.55569 1.225 -0.50814
v 0.47091 1.225 -0.3321
v 0.28042 1.225 -0.28862
v 0.12765 1.225 -0.41045
v 0.12765 1.225 -0.60584
v 0.28042 1.225 -0.72766
v 0.47091 1.225 -0.68419
v 0.55569 1.375 -0.50814
v 0.47091 1.375 -0.3321
v 0.28042 1.375 -0.28862
v 0.12765 1.375 -0.41045
v 0.12765 1.375 -0.60584
v 0.28042 1.375 -0.72766
v 0.47091 1.375 -0.68419
v 0.33052 1.45 -0.50814
v 0.33052 1.45 -0.50814
v 0.33052 1.45 -0.50814
v 0.33052 1.45 -0.50814
v 0.33052 1.45 -0.50814
v 0.33052 1.45 -0.50814
v 0.33052 1.45 -0.50814
v 1.1692 0.06291 1.11739
v 1.31333 2.93291 1.21565
v 1.10283 0.06514 1.14949
v 1.24696 2.93514 1.24775
v 1.08644 0.0635 1.22139
v 1.23056 2.9335 1.31964
v 1.13237 0.05923 1.27895
v 1.2765 2.92923 1.3772
v 1.20604 0.05553 1.27882
v 1.35016 2.92553 1.37707
v 1.25197 0.0552 1.22111
v 1.39609 2.9252 1.31936
v 1.23557 0.05848 1.14927
v 1.3797 2.92848 1.24752
v 1.16227 1.465 1.15788
v 0.79227 1.705 1.21558
v 1.14424 1.42897 1.19216
v 0.77424 1.66897 1.24986
v 1.16071 1.44273 1.24052
v 0.79071 1.68273 1.29821
v 1.18891 1.48727 1.23612
v 0.81891 1.72727 1.29381
v 1.18988 1.50103 1.18505
v 0.81988 1.74103 1.24274
v 0.7992 1.705 1.26004
v 0.7992 1.705 1.26004
v 0.7992 1.705 1.26004
v 0.7992 1.705 1.26004
v 0.7992 1.705 1.26004
v 0.7992 1.705 1.26004
v 0.92045 1.795 1.26004
v 0.85982 1.795 1.32754
v 0.73858 1.795 1.32754
v 0.67796 1.795 1.26004
v 0.73858 1.795 1.19254
v 0.85982 1.795 1.19254
v 0.92045 1.975 1.26004
v 0.85982 1.975 1.32754
v 0.73858 1.975 1.32754
v 0.67796 1.975 1.26004
v 0.73858 1.975 1.19254
v 0.85982 1.975 1.19254
v 0.7992 2.065 1.26004
v 0.7992 2.065 1.26004
v 0.7992 2.065 1.26004
v 0.7992 2.065 1.26004
v 0.7992 2.065 1.26004
v 0.7992 2.065 1.26004
v 1.18513 2.1682 1.24443
v 1.55513 2.4082 1.10443
v 1.19489 2.13161 1.2075
v 1.56489 2.37161 1.0675
v 1.16915 2.14559 1.16344
v 1.53915 2.38559 1.02344
v 1.14349 2.19081 1.17315
v 1.51349 2.43081 1.03315
v 1.15336 2.20479 1.22321
v 1.52336 2.44479 1.08321
v 1.5392 2.4082 1.06235
v 1.5392 2.4082 1.06235
v 1.5392 2.4082 1.06235
v 1.5392 2.4082 1.06235
v 1.5392 2.4082 1.06235
v 1.5392 2.4082 1.06235
v 1.66045 2.4982 1.06235
v 1.59982 2.4982 1.12985
v 1.47858 2.4982 1.12985
v 1.41796 2.4982 1.06235
v 1.47858 2.4982 0.99485
v 1.59982 2.4982 0.99485
v 1.66045 2.6782 1.06235
v 1.59982 2.6782 1.12985
v 1.47858 2.6782 1.12985
v 1.41796 2.6782 1.06235
v 1.47858 2.6782 0.99485
v 1.59982 2.6782 0.99485
v 1.5392 2.7682 1.06235
v 1.5392 2.7682 1.06235
v 1.5392 2.7682 1.06235
v 1.5392 2.7682 1.06235
v 1.5392 2.7682 1.06235
v 1.5392 2.7682 1.06235
v -0.66563 0.05326 -0.21039
v -0.94441 2.44326 -0.40057
v -0.73164 0.04814 -0.17788
v -1.01042 2.43814 -0.36806
v -0.74794 0.05196 -0.10604
v -1.02672 2.44196 -0.29622
v -0.70226 0.06183 -0.04898
v -0.98104 2.45183 -0.23916
v -0.629 0.07032 -0.04965
v -0.90778 2.46032 -0.23983
v -0.58332 0.07104 -0.10756
v -0.8621 2.46104 -0.29774
v -0.59962 0.06345 -0.1791
v -0.8784 2.45345 -0.36928
v -0.6576 1.225 -0.16993
v -1.0776 1.465 -0.2461
v -0.68379 1.18769 -0.14308
v -1.10379 1.42769 -0.21924
v -0.68488 1.20194 -0.09215
v -1.10488 1.44194 -0.16831
v -0.65937 1.24806 -0.08752
v -1.07937 1.48806 -0.16368
v -0.64251 1.26231 -0.1356
v -1.06251 1.50231 -0.21176
v -1.08563 1.465 -0.20182
v -1.08563 1.465 -0.20182
v -1.08563 1.465 -0.20182
v -1.08563 1.465 -0.20182
v -1.08563 1.465 -0.20182
v -1.08563 1.465 -0.20182
v -0.96439 1.555 -0.20182
v -1.02501 1.555 -0.13432
v -1.14625 1.555 -0.13432
v -1.20687 1.555 -0.20182
v -1.14625 1.555 -0.26932
v -1.02501 1.555 -0.26932
v -0.96439 1.735 -0.20182
v -1.02501 1.735 -0.13432
v -1.14625 1.735 -0.13432
v -1.20687 1.735 -0.20182
v -1.14625 1.735 -0.26932
v -1.02501 1.735 -0.26932
v -1.08563 1.825 -0.20182
v -1.08563 1.825 -0.20182
v -1.08563 1.825 -0.20182
v -1.08563 1.825 -0.20182
v -1.08563 1.825 -0.20182
v -1.08563 1.825 -0.20182
v -0.65771 1.813 -0.08136
v -0.23771 2.053 -0.15648
v -0.64253 1.7757 -0.11566
v -0.22253 2.0157 -0.19078
v -0.65927 1.78995 -0.16378
v -0.23927 2.02995 -0.2389
v -0.6848 1.83605 -0.15921
v -0.2648 2.07605 -0.23433
v -0.68384 1.8503 -0.10827
v -0.26384 2.0903 -0.18339
v -0.24563 2.053 -0.20078
v -0.24563 2.053 -0.20078
v -0.24563 2.053 -0.20078
v -0.24563 2.053 -0.20078
v -0.24563 2.053 -0.20078
v -0.24563 2.053 -0.20078
v -0.12439 2.143 -0.20078
v -0.18501 2.143 -0.13328
v -0.30625 2.143 -0.13328
v -0.36687 2.143 -0.20078
v -0.30625 2.143 -0.26828
v -0.18501 2.143 -0.26828
v -0.12439 2.323 -0.20078
v -0.18501 2.323 -0.13328
v -0.30625 2.323 -0.13328
v -0.36687 2.323 -0.20078
v -0.30625 2.323 -0.26828
v -0.18501 2.323 -0.26828
v -0.24563 2.413 -0.20078
v -0.24563 2.413 -0.20078
v -0.24563 2.413 -0.20078
v -0.24563 2.413 -0.20078
v -0.24563 2.413 -0.20078
v -0.24563 2.413 -0.20078
v 1.91064 0.07138 -0.62491
v 2.09684 1.98138 -0.44295
v 1.81726 0.07612 -0.57907
v 2.00345 1.98612 -0.39711
v 1.79419 0.06872 -0.4778
v 1.98039 1.97872 -0.29583
v 1.85882 0.05475 -0.39735
v 2.04501 1.96475 -0.21538
v 1.96246 0.04474 -0.3983
v 2.14866 1.95474 -0.21633
v 2.02708 0.04622 -0.47994
v 2.21328 1.95622 -0.29798
v 2.00402 0.05807 -0.58079
v 2.19022 1.96807 -0.39883
v 1.92868 0.985 -0.54668
v 1.60868 1.225 -0.68668
v 1.89401 0.94973 -0.52791
v 1.57401 1.18973 -0.66791
v 1.88232 0.9632 -0.4781
v 1.56232 1.2032 -0.6181
v 1.90977 1.0068 -0.46609
v 1.58977 1.2468 -0.60609
v 1.93842 1.02027 -0.50848
v 1.61842 1.26027 -0.64848
v 1.59064 1.225 -0.64545
v 1.59064 1.225 -0.64545
v 1.59064 1.225 -0.64545
v 1.59064 1.225 -0.64545
v 1.59064 1.225 -0.64545
v 1.59064 1.225 -0.64545
v 1.71188 1.315 -0.64545
v 1.65126 1.315 -0.57795
v 1.53002 1.315 -0.57795
v 1.4694 1.315 -0.64545
v 1.53002 1.315 -0.71295
v 1.65126 1.315 -0.71295
v 1.71188 1.495 -0.64545
v 1.65126 1.495 -0.57795
v 1.53002 1.495 -0.57795
v 1.4694 1.495 -0.64545
v 1.53002 1.495 -0.71295
v 1.65126 1.495 -0.71295
v 1.59064 1.585 -0.64545
v 1.59064 1.585 -0.64545
v 1.59064 1.585 -0.64545
v 1.59064 1.585 -0.64545
v 1.59064 1.585 -0.64545
v 1.59064 1.585 -0.64545
v 1.9025 1.4578 -0.46119
v 2.2225 1.6978 -0.40237
v 1.93311 1.42336 -0.48718
v 2.25311 1.66336 -0.42836
v 1.93266 1.43651 -0.53842
v 2.25266 1.67651 -0.4796
v 1.90178 1.47909 -0.5441
v 2.22178 1.71909 -0.48527
v 1.88314 1.49224 -0.49637
v 2.20314 1.73224 -0.43755
v 2.23064 1.6978 -0.44663
v 2.23064 1.6978 -0.44663
v 2.23064 1.6978 -0.44663
v 2.23064 1.6978 -0.44663
v 2.23064 1.6978 -0.44663
v 2.23064 1.6978 -0.44663
v 2.35188 1.7878 -0.44663
v 2.29126 1.7878 -0.37913
v 2.17002 1.7878 -0.37913
v 2.1094 1.7878 -0.44663
v 2.17002 1.7878 -0.51413
v 2.29126 1.7878 -0.51413
v 2.35188 1.9678 -0.44663
v 2.29126 1.9678 -0.37913
v 2.17002 1.9678 -0.37913
v 2.1094 1.9678 -0.44663
v 2.17002 1.9678 -0.51413
v 2.29126 1.9678 -0.51413
v 2.23064 2.0578 -0.44663
v 2.23064 2.0578 -0.44663
v 2.23064 2.0578 -0.44663
v 2.23064 2.0578 -0.44663
v 2.23064 2.0578 -0.44663
v 2.23064 2.0578 -0.44663
v 2.09684 1.87 -0.32349
v 2.09684 1.87 -0.32349
v 2.09684 1.87 -0.32349
v 2.09684 1.87 -0.32349
v 2.09684 1.87 -0.32349
v 2.09684 1.87 -0.32349
v 2.09684 1.87 -0.32349
v 2.322 1.945 -0.32349
v 2.23722 1.945 -0.14744
v 2.04673 1.945 -0.10397
v 1.89397 1.945 -0.22579
v 1.89397 1.945 -0.42118
v 2.04673 1.945 -0.54301
v 2.23722 1.945 -0.49953
v 2.322 2.095 -0.32349
v 2.23722 2.095 -0.14744
v 2.04673 2.095 -0.10397
v 1.89397 2.095 -0.22579
v 1.89397 2.095 -0.42118
v 2.04673 2.095 -0.54301
v 2.23722 2.095 -0.49953
v 2.09684 2.17 -0.32349
v 2.09684 2.17 -0.32349
v 2.09684 2.17 -0.32349
v 2.09684 2.17 -0.32349
v 2.09684 2.17 -0.32349
v 2.09684 2.17 -0.32349
v 2.09684 2.17 -0.32349
g substrate_0
usemtl living_green
f 1 2 13 12
f 2 3 14 13
f 3 4 15 14
f 4 5 16 15
f 5 6 17 16
f 6 7 18 17
f 7 8 19 18
f 8 9 20 19
f 9 10 21 20
f 10 11 22 21
f 11 1 12 22
f 12 13 24 23
f 13 14 25 24
f 14 15 26 25
f 15 16 27 26
f 16 17 28 27
f 17 18 29 28
f 18 19 30 29
f 19 20 31 30
f 20 21 32 31
f 21 22 33 32
f 22 12 23 33
f 23 24 35 34
f 24 25 36 35
f 25 26 37 36
f 26 27 38 37
f 27 28 39 38
f 28 29 40 39
f 29 30 41 40
f 30 31 42 41
f 31 32 43 42
f 32 33 44 43
f 33 23 34 44
g substrate_1
usemtl living_green
f 45 46 57 56
f 46 47 58 57
f 47 48 59 58
f 48 49 60 59
f 49 50 61 60
f 50 51 62 61
f 51 52 63 62
f 52 53 64 63
f 53 54 65 64
f 54 55 66 65
f 55 45 56 66
f 56 57 68 67
f 57 58 69 68
f 58 59 70 69
f 59 60 71 70
f 60 61 72 71
f 61 62 73 72
f 62 63 74 73
f 63 64 75 74
f 64 65 76 75
f 65 66 77 76
f 66 56 67 77
f 67 68 79 78
f 68 69 80 79
f 69 70 81 80
f 70 71 82 81
f 71 72 83 82
f 72 73 84 83
f 73 74 85 84
f 74 75 86 85
f 75 76 87 86
f 76 77 88 87
f 77 67 78 88
g substrate_2
usemtl living_green
f 89 90 101 100
f 90 91 102 101
f 91 92 103 102
f 92 93 104 103
f 93 94 105 104
f 94 95 106 105
f 95 96 107 106
f 96 97 108 107
f 97 98 109 108
f 98 99 110 109
f 99 89 100 110
f 100 101 112 111
f 101 102 113 112
f 102 103 114 113
f 103 104 115 114
f 104 105 116 115
f 105 106 117 116
f 106 107 118 117
f 107 108 119 118
f 108 109 120 119
f 109 110 121 120
f 110 100 111 121
f 111 112 123 122
f 112 113 124 123
f 113 114 125 124
f 114 115 126 125
f 115 116 127 126
f 116 117 128 127
f 117 118 129 128
f 118 119 130 129
f 119 120 131 130
f 120 121 132 131
f 121 111 122 132
g stem_0
usemtl living_teal
f 145 143 141 139 137 135 133
f 134 136 138 140 142 144 146
f 133 135 136 134
f 135 137 138 136
f 137 139 140 138
f 139 141 142 140
f 141 143 144 142
f 143 145 146 144
f 145 133 134 146
g arm_0_-1
usemtl living_silica
f 155 153 151 149 147
f 148 150 152 154 156
f 147 149 150 148
f 149 151 152 150
f 151 153 154 152
f 153 155 156 154
f 155 147 148 156
g filter_0_-1
usemtl living_pale
f 157 158 164 163
f 158 159 165 164
f 159 160 166 165
f 160 161 167 166
f 161 162 168 167
f 162 157 163 168
f 163 164 170 169
f 164 165 171 170
f 165 166 172 171
f 166 167 173 172
f 167 168 174 173
f 168 163 169 174
f 169 170 176 175
f 170 171 177 176
f 171 172 178 177
f 172 173 179 178
f 173 174 180 179
f 174 169 175 180
g arm_0_1
usemtl living_silica
f 189 187 185 183 181
f 182 184 186 188 190
f 181 183 184 182
f 183 185 186 184
f 185 187 188 186
f 187 189 190 188
f 189 181 182 190
g filter_0_1
usemtl living_pale
f 191 192 198 197
f 192 193 199 198
f 193 194 200 199
f 194 195 201 200
f 195 196 202 201
f 196 191 197 202
f 197 198 204 203
f 198 199 205 204
f 199 200 206 205
f 200 201 207 206
f 201 202 208 207
f 202 197 203 208
f 203 204 210 209
f 204 205 211 210
f 205 206 212 211
f 206 207 213 212
f 207 208 214 213
f 208 203 209 214
g crown_0
usemtl living_pale
f 215 216 223 222
f 216 217 224 223
f 217 218 225 224
f 218 219 226 225
f 219 220 227 226
f 220 221 228 227
f 221 215 222 228
f 222 223 230 229
f 223 224 231 230
f 224 225 232 231
f 225 226 233 232
f 226 227 234 233
f 227 228 235 234
f 228 222 229 235
f 229 230 237 236
f 230 231 238 237
f 231 232 239 238
f 232 233 240 239
f 233 234 241 240
f 234 235 242 241
f 235 229 236 242
g stem_1
usemtl living_teal
f 255 253 251 249 247 245 243
f 244 246 248 250 252 254 256
f 243 245 246 244
f 245 247 248 246
f 247 249 250 248
f 249 251 252 250
f 251 253 254 252
f 253 255 256 254
f 255 243 244 256
g arm_1_-1
usemtl living_silica
f 265 263 261 259 257
f 258 260 262 264 266
f 257 259 260 258
f 259 261 262 260
f 261 263 264 262
f 263 265 266 264
f 265 257 258 266
g filter_1_-1
usemtl living_pale
f 267 268 274 273
f 268 269 275 274
f 269 270 276 275
f 270 271 277 276
f 271 272 278 277
f 272 267 273 278
f 273 274 280 279
f 274 275 281 280
f 275 276 282 281
f 276 277 283 282
f 277 278 284 283
f 278 273 279 284
f 279 280 286 285
f 280 281 287 286
f 281 282 288 287
f 282 283 289 288
f 283 284 290 289
f 284 279 285 290
g arm_1_1
usemtl living_silica
f 299 297 295 293 291
f 292 294 296 298 300
f 291 293 294 292
f 293 295 296 294
f 295 297 298 296
f 297 299 300 298
f 299 291 292 300
g filter_1_1
usemtl living_pale
f 301 302 308 307
f 302 303 309 308
f 303 304 310 309
f 304 305 311 310
f 305 306 312 311
f 306 301 307 312
f 307 308 314 313
f 308 309 315 314
f 309 310 316 315
f 310 311 317 316
f 311 312 318 317
f 312 307 313 318
f 313 314 320 319
f 314 315 321 320
f 315 316 322 321
f 316 317 323 322
f 317 318 324 323
f 318 313 319 324
g stem_2
usemtl living_teal
f 337 335 333 331 329 327 325
f 326 328 330 332 334 336 338
f 325 327 328 326
f 327 329 330 328
f 329 331 332 330
f 331 333 334 332
f 333 335 336 334
f 335 337 338 336
f 337 325 326 338
g arm_2_-1
usemtl living_silica
f 347 345 343 341 339
f 340 342 344 346 348
f 339 341 342 340
f 341 343 344 342
f 343 345 346 344
f 345 347 348 346
f 347 339 340 348
g filter_2_-1
usemtl living_pale
f 349 350 356 355
f 350 351 357 356
f 351 352 358 357
f 352 353 359 358
f 353 354 360 359
f 354 349 355 360
f 355 356 362 361
f 356 357 363 362
f 357 358 364 363
f 358 359 365 364
f 359 360 366 365
f 360 355 361 366
f 361 362 368 367
f 362 363 369 368
f 363 364 370 369
f 364 365 371 370
f 365 366 372 371
f 366 361 367 372
g arm_2_1
usemtl living_silica
f 381 379 377 375 373
f 374 376 378 380 382
f 373 375 376 374
f 375 377 378 376
f 377 379 380 378
f 379 381 382 380
f 381 373 374 382
g filter_2_1
usemtl living_pale
f 383 384 390 389
f 384 385 391 390
f 385 386 392 391
f 386 387 393 392
f 387 388 394 393
f 388 383 389 394
f 389 390 396 395
f 390 391 397 396
f 391 392 398 397
f 392 393 399 398
f 393 394 400 399
f 394 389 395 400
f 395 396 402 401
f 396 397 403 402
f 397 398 404 403
f 398 399 405 404
f 399 400 406 405
f 400 395 401 406
g stem_3
usemtl living_teal
f 419 417 415 413 411 409 407
f 408 410 412 414 416 418 420
f 407 409 410 408
f 409 411 412 410
f 411 413 414 412
f 413 415 416 414
f 415 417 418 416
f 417 419 420 418
f 419 407 408 420
g arm_3_-1
usemtl living_silica
f 429 427 425 423 421
f 422 424 426 428 430
f 421 423 424 422
f 423 425 426 424
f 425 427 428 426
f 427 429 430 428
f 429 421 422 430
g filter_3_-1
usemtl living_pale
f 431 432 438 437
f 432 433 439 438
f 433 434 440 439
f 434 435 441 440
f 435 436 442 441
f 436 431 437 442
f 437 438 444 443
f 438 439 445 444
f 439 440 446 445
f 440 441 447 446
f 441 442 448 447
f 442 437 443 448
f 443 444 450 449
f 444 445 451 450
f 445 446 452 451
f 446 447 453 452
f 447 448 454 453
f 448 443 449 454
g arm_3_1
usemtl living_silica
f 463 461 459 457 455
f 456 458 460 462 464
f 455 457 458 456
f 457 459 460 458
f 459 461 462 460
f 461 463 464 462
f 463 455 456 464
g filter_3_1
usemtl living_pale
f 465 466 472 471
f 466 467 473 472
f 467 468 474 473
f 468 469 475 474
f 469 470 476 475
f 470 465 471 476
f 471 472 478 477
f 472 473 479 478
f 473 474 480 479
f 474 475 481 480
f 475 476 482 481
f 476 471 477 482
f 477 478 484 483
f 478 479 485 484
f 479 480 486 485
f 480 481 487 486
f 481 482 488 487
f 482 477 483 488
g crown_3
usemtl living_pale
f 489 490 497 496
f 490 491 498 497
f 491 492 499 498
f 492 493 500 499
f 493 494 501 500
f 494 495 502 501
f 495 489 496 502
f 496 497 504 503
f 497 498 505 504
f 498 499 506 505
f 499 500 507 506
f 500 501 508 507
f 501 502 509 508
f 502 496 503 509
f 503 504 511 510
f 504 505 512 511
f 505 506 513 512
f 506 507 514 513
f 507 508 515 514
f 508 509 516 515
f 509 503 510 516
g stem_4
usemtl living_teal
f 529 527 525 523 521 519 517
f 518 520 522 524 526 528 530
f 517 519 520 518
f 519 521 522 520
f 521 523 524 522
f 523 525 526 524
f 525 527 528 526
f 527 529 530 528
f 529 517 518 530
g arm_4_-1
usemtl living_silica
f 539 537 535 533 531
f 532 534 536 538 540
f 531 533 534 532
f 533 535 536 534
f 535 537 538 536
f 537 539 540 538
f 539 531 532 540
g filter_4_-1
usemtl living_pale
f 541 542 548 547
f 542 543 549 548
f 543 544 550 549
f 544 545 551 550
f 545 546 552 551
f 546 541 547 552
f 547 548 554 553
f 548 549 555 554
f 549 550 556 555
f 550 551 557 556
f 551 552 558 557
f 552 547 553 558
f 553 554 560 559
f 554 555 561 560
f 555 556 562 561
f 556 557 563 562
f 557 558 564 563
f 558 553 559 564
g arm_4_1
usemtl living_silica
f 573 571 569 567 565
f 566 568 570 572 574
f 565 567 568 566
f 567 569 570 568
f 569 571 572 570
f 571 573 574 572
f 573 565 566 574
g filter_4_1
usemtl living_pale
f 575 576 582 581
f 576 577 583 582
f 577 578 584 583
f 578 579 585 584
f 579 580 586 585
f 580 575 581 586
f 581 582 588 587
f 582 583 589 588
f 583 584 590 589
f 584 585 591 590
f 585 586 592 591
f 586 581 587 592
f 587 588 594 593
f 588 589 595 594
f 589 590 596 595
f 590 591 597 596
f 591 592 598 597
f 592 587 593 598
g stem_5
usemtl living_teal
f 611 609 607 605 603 601 599
f 600 602 604 606 608 610 612
f 599 601 602 600
f 601 603 604 602
f 603 605 606 604
f 605 607 608 606
f 607 609 610 608
f 609 611 612 610
f 611 599 600 612
g arm_5_-1
usemtl living_silica
f 621 619 617 615 613
f 614 616 618 620 622
f 613 615 616 614
f 615 617 618 616
f 617 619 620 618
f 619 621 622 620
f 621 613 614 622
g filter_5_-1
usemtl living_pale
f 623 624 630 629
f 624 625 631 630
f 625 626 632 631
f 626 627 633 632
f 627 628 634 633
f 628 623 629 634
f 629 630 636 635
f 630 631 637 636
f 631 632 638 637
f 632 633 639 638
f 633 634 640 639
f 634 629 635 640
f 635 636 642 641
f 636 637 643 642
f 637 638 644 643
f 638 639 645 644
f 639 640 646 645
f 640 635 641 646
g arm_5_1
usemtl living_silica
f 655 653 651 649 647
f 648 650 652 654 656
f 647 649 650 648
f 649 651 652 650
f 651 653 654 652
f 653 655 656 654
f 655 647 648 656
g filter_5_1
usemtl living_pale
f 657 658 664 663
f 658 659 665 664
f 659 660 666 665
f 660 661 667 666
f 661 662 668 667
f 662 657 663 668
f 663 664 670 669
f 664 665 671 670
f 665 666 672 671
f 666 667 673 672
f 667 668 674 673
f 668 663 669 674
f 669 670 676 675
f 670 671 677 676
f 671 672 678 677
f 672 673 679 678
f 673 674 680 679
f 674 669 675 680
g stem_6
usemtl living_teal
f 693 691 689 687 685 683 681
f 682 684 686 688 690 692 694
f 681 683 684 682
f 683 685 686 684
f 685 687 688 686
f 687 689 690 688
f 689 691 692 690
f 691 693 694 692
f 693 681 682 694
g arm_6_-1
usemtl living_silica
f 703 701 699 697 695
f 696 698 700 702 704
f 695 697 698 696
f 697 699 700 698
f 699 701 702 700
f 701 703 704 702
f 703 695 696 704
g filter_6_-1
usemtl living_pale
f 705 706 712 711
f 706 707 713 712
f 707 708 714 713
f 708 709 715 714
f 709 710 716 715
f 710 705 711 716
f 711 712 718 717
f 712 713 719 718
f 713 714 720 719
f 714 715 721 720
f 715 716 722 721
f 716 711 717 722
f 717 718 724 723
f 718 719 725 724
f 719 720 726 725
f 720 721 727 726
f 721 722 728 727
f 722 717 723 728
g arm_6_1
usemtl living_silica
f 737 735 733 731 729
f 730 732 734 736 738
f 729 731 732 730
f 731 733 734 732
f 733 735 736 734
f 735 737 738 736
f 737 729 730 738
g filter_6_1
usemtl living_pale
f 739 740 746 745
f 740 741 747 746
f 741 742 748 747
f 742 743 749 748
f 743 744 750 749
f 744 739 745 750
f 745 746 752 751
f 746 747 753 752
f 747 748 754 753
f 748 749 755 754
f 749 750 756 755
f 750 745 751 756
f 751 752 758 757
f 752 753 759 758
f 753 754 760 759
f 754 755 761 760
f 755 756 762 761
f 756 751 757 762
g crown_6
usemtl living_pale
f 763 764 771 770
f 764 765 772 771
f 765 766 773 772
f 766 767 774 773
f 767 768 775 774
f 768 769 776 775
f 769 763 770 776
f 770 771 778 777
f 771 772 779 778
f 772 773 780 779
f 773 774 781 780
f 774 775 782 781
f 775 776 783 782
f 776 770 777 783
f 777 778 785 784
f 778 779 786 785
f 779 780 787 786
f 780 781 788 787
f 781 782 789 788
f 782 783 790 789
f 783 777 784 790
g stem_7
usemtl living_teal
f 803 801 799 797 795 793 791
f 792 794 796 798 800 802 804
f 791 793 794 792
f 793 795 796 794
f 795 797 798 796
f 797 799 800 798
f 799 801 802 800
f 801 803 804 802
f 803 791 792 804
g arm_7_-1
usemtl living_silica
f 813 811 809 807 805
f 806 808 810 812 814
f 805 807 808 806
f 807 809 810 808
f 809 811 812 810
f 811 813 814 812
f 813 805 806 814
g filter_7_-1
usemtl living_pale
f 815 816 822 821
f 816 817 823 822
f 817 818 824 823
f 818 819 825 824
f 819 820 826 825
f 820 815 821 826
f 821 822 828 827
f 822 823 829 828
f 823 824 830 829
f 824 825 831 830
f 825 826 832 831
f 826 821 827 832
f 827 828 834 833
f 828 829 835 834
f 829 830 836 835
f 830 831 837 836
f 831 832 838 837
f 832 827 833 838
g arm_7_1
usemtl living_silica
f 847 845 843 841 839
f 840 842 844 846 848
f 839 841 842 840
f 841 843 844 842
f 843 845 846 844
f 845 847 848 846
f 847 839 840 848
g filter_7_1
usemtl living_pale
f 849 850 856 855
f 850 851 857 856
f 851 852 858 857
f 852 853 859 858
f 853 854 860 859
f 854 849 855 860
f 855 856 862 861
f 856 857 863 862
f 857 858 864 863
f 858 859 865 864
f 859 860 866 865
f 860 855 861 866
f 861 862 868 867
f 862 863 869 868
f 863 864 870 869
f 864 865 871 870
f 865 866 872 871
f 866 861 867 872
g stem_8
usemtl living_teal
f 885 883 881 879 877 875 873
f 874 876 878 880 882 884 886
f 873 875 876 874
f 875 877 878 876
f 877 879 880 878
f 879 881 882 880
f 881 883 884 882
f 883 885 886 884
f 885 873 874 886
g arm_8_-1
usemtl living_silica
f 895 893 891 889 887
f 888 890 892 894 896
f 887 889 890 888
f 889 891 892 890
f 891 893 894 892
f 893 895 896 894
f 895 887 888 896
g filter_8_-1
usemtl living_pale
f 897 898 904 903
f 898 899 905 904
f 899 900 906 905
f 900 901 907 906
f 901 902 908 907
f 902 897 903 908
f 903 904 910 909
f 904 905 911 910
f 905 906 912 911
f 906 907 913 912
f 907 908 914 913
f 908 903 909 914
f 909 910 916 915
f 910 911 917 916
f 911 912 918 917
f 912 913 919 918
f 913 914 920 919
f 914 909 915 920
g arm_8_1
usemtl living_silica
f 929 927 925 923 921
f 922 924 926 928 930
f 921 923 924 922
f 923 925 926 924
f 925 927 928 926
f 927 929 930 928
f 929 921 922 930
g filter_8_1
usemtl living_pale
f 931 932 938 937
f 932 933 939 938
f 933 934 940 939
f 934 935 941 940
f 935 936 942 941
f 936 931 937 942
f 937 938 944 943
f 938 939 945 944
f 939 940 946 945
f 940 941 947 946
f 941 942 948 947
f 942 937 943 948
f 943 944 950 949
f 944 945 951 950
f 945 946 952 951
f 946 947 953 952
f 947 948 954 953
f 948 943 949 954
g stem_9
usemtl living_teal
f 967 965 963 961 959 957 955
f 956 958 960 962 964 966 968
f 955 957 958 956
f 957 959 960 958
f 959 961 962 960
f 961 963 964 962
f 963 965 966 964
f 965 967 968 966
f 967 955 956 968
g arm_9_-1
usemtl living_silica
f 977 975 973 971 969
f 970 972 974 976 978
f 969 971 972 970
f 971 973 974 972
f 973 975 976 974
f 975 977 978 976
f 977 969 970 978
g filter_9_-1
usemtl living_pale
f 979 980 986 985
f 980 981 987 986
f 981 982 988 987
f 982 983 989 988
f 983 984 990 989
f 984 979 985 990
f 985 986 992 991
f 986 987 993 992
f 987 988 994 993
f 988 989 995 994
f 989 990 996 995
f 990 985 991 996
f 991 992 998 997
f 992 993 999 998
f 993 994 1000 999
f 994 995 1001 1000
f 995 996 1002 1001
f 996 991 997 1002
g arm_9_1
usemtl living_silica
f 1011 1009 1007 1005 1003
f 1004 1006 1008 1010 1012
f 1003 1005 1006 1004
f 1005 1007 1008 1006
f 1007 1009 1010 1008
f 1009 1011 1012 1010
f 1011 1003 1004 1012
g filter_9_1
usemtl living_pale
f 1013 1014 1020 1019
f 1014 1015 1021 1020
f 1015 1016 1022 1021
f 1016 1017 1023 1022
f 1017 1018 1024 1023
f 1018 1013 1019 1024
f 1019 1020 1026 1025
f 1020 1021 1027 1026
f 1021 1022 1028 1027
f 1022 1023 1029 1028
f 1023 1024 1030 1029
f 1024 1019 1025 1030
f 1025 1026 1032 1031
f 1026 1027 1033 1032
f 1027 1028 1034 1033
f 1028 1029 1035 1034
f 1029 1030 1036 1035
f 1030 1025 1031 1036
g crown_9
usemtl living_pale
f 1037 1038 1045 1044
f 1038 1039 1046 1045
f 1039 1040 1047 1046
f 1040 1041 1048 1047
f 1041 1042 1049 1048
f 1042 1043 1050 1049
f 1043 1037 1044 1050
f 1044 1045 1052 1051
f 1045 1046 1053 1052
f 1046 1047 1054 1053
f 1047 1048 1055 1054
f 1048 1049 1056 1055
f 1049 1050 1057 1056
f 1050 1044 1051 1057
f 1051 1052 1059 1058
f 1052 1053 1060 1059
f 1053 1054 1061 1060
f 1054 1055 1062 1061
f 1055 1056 1063 1062
f 1056 1057 1064 1063
f 1057 1051 1058 1064
g stem_10
usemtl living_teal
f 1077 1075 1073 1071 1069 1067 1065
f 1066 1068 1070 1072 1074 1076 1078
f 1065 1067 1068 1066
f 1067 1069 1070 1068
f 1069 1071 1072 1070
f 1071 1073 1074 1072
f 1073 1075 1076 1074
f 1075 1077 1078 1076
f 1077 1065 1066 1078
g arm_10_-1
usemtl living_silica
f 1087 1085 1083 1081 1079
f 1080 1082 1084 1086 1088
f 1079 1081 1082 1080
f 1081 1083 1084 1082
f 1083 1085 1086 1084
f 1085 1087 1088 1086
f 1087 1079 1080 1088
g filter_10_-1
usemtl living_pale
f 1089 1090 1096 1095
f 1090 1091 1097 1096
f 1091 1092 1098 1097
f 1092 1093 1099 1098
f 1093 1094 1100 1099
f 1094 1089 1095 1100
f 1095 1096 1102 1101
f 1096 1097 1103 1102
f 1097 1098 1104 1103
f 1098 1099 1105 1104
f 1099 1100 1106 1105
f 1100 1095 1101 1106
f 1101 1102 1108 1107
f 1102 1103 1109 1108
f 1103 1104 1110 1109
f 1104 1105 1111 1110
f 1105 1106 1112 1111
f 1106 1101 1107 1112
g arm_10_1
usemtl living_silica
f 1121 1119 1117 1115 1113
f 1114 1116 1118 1120 1122
f 1113 1115 1116 1114
f 1115 1117 1118 1116
f 1117 1119 1120 1118
f 1119 1121 1122 1120
f 1121 1113 1114 1122
g filter_10_1
usemtl living_pale
f 1123 1124 1130 1129
f 1124 1125 1131 1130
f 1125 1126 1132 1131
f 1126 1127 1133 1132
f 1127 1128 1134 1133
f 1128 1123 1129 1134
f 1129 1130 1136 1135
f 1130 1131 1137 1136
f 1131 1132 1138 1137
f 1132 1133 1139 1138
f 1133 1134 1140 1139
f 1134 1129 1135 1140
f 1135 1136 1142 1141
f 1136 1137 1143 1142
f 1137 1138 1144 1143
f 1138 1139 1145 1144
f 1139 1140 1146 1145
f 1140 1135 1141 1146
g stem_11
usemtl living_teal
f 1159 1157 1155 1153 1151 1149 1147
f 1148 1150 1152 1154 1156 1158 1160
f 1147 1149 1150 1148
f 1149 1151 1152 1150
f 1151 1153 1154 1152
f 1153 1155 1156 1154
f 1155 1157 1158 1156
f 1157 1159 1160 1158
f 1159 1147 1148 1160
g arm_11_-1
usemtl living_silica
f 1169 1167 1165 1163 1161
f 1162 1164 1166 1168 1170
f 1161 1163 1164 1162
f 1163 1165 1166 1164
f 1165 1167 1168 1166
f 1167 1169 1170 1168
f 1169 1161 1162 1170
g filter_11_-1
usemtl living_pale
f 1171 1172 1178 1177
f 1172 1173 1179 1178
f 1173 1174 1180 1179
f 1174 1175 1181 1180
f 1175 1176 1182 1181
f 1176 1171 1177 1182
f 1177 1178 1184 1183
f 1178 1179 1185 1184
f 1179 1180 1186 1185
f 1180 1181 1187 1186
f 1181 1182 1188 1187
f 1182 1177 1183 1188
f 1183 1184 1190 1189
f 1184 1185 1191 1190
f 1185 1186 1192 1191
f 1186 1187 1193 1192
f 1187 1188 1194 1193
f 1188 1183 1189 1194
g arm_11_1
usemtl living_silica
f 1203 1201 1199 1197 1195
f 1196 1198 1200 1202 1204
f 1195 1197 1198 1196
f 1197 1199 1200 1198
f 1199 1201 1202 1200
f 1201 1203 1204 1202
f 1203 1195 1196 1204
g filter_11_1
usemtl living_pale
f 1205 1206 1212 1211
f 1206 1207 1213 1212
f 1207 1208 1214 1213
f 1208 1209 1215 1214
f 1209 1210 1216 1215
f 1210 1205 1211 1216
f 1211 1212 1218 1217
f 1212 1213 1219 1218
f 1213 1214 1220 1219
f 1214 1215 1221 1220
f 1215 1216 1222 1221
f 1216 1211 1217 1222
f 1217 1218 1224 1223
f 1218 1219 1225 1224
f 1219 1220 1226 1225
f 1220 1221 1227 1226
f 1221 1222 1228 1227
f 1222 1217 1223 1228
g stem_12
usemtl living_teal
f 1241 1239 1237 1235 1233 1231 1229
f 1230 1232 1234 1236 1238 1240 1242
f 1229 1231 1232 1230
f 1231 1233 1234 1232
f 1233 1235 1236 1234
f 1235 1237 1238 1236
f 1237 1239 1240 1238
f 1239 1241 1242 1240
f 1241 1229 1230 1242
g arm_12_-1
usemtl living_silica
f 1251 1249 1247 1245 1243
f 1244 1246 1248 1250 1252
f 1243 1245 1246 1244
f 1245 1247 1248 1246
f 1247 1249 1250 1248
f 1249 1251 1252 1250
f 1251 1243 1244 1252
g filter_12_-1
usemtl living_pale
f 1253 1254 1260 1259
f 1254 1255 1261 1260
f 1255 1256 1262 1261
f 1256 1257 1263 1262
f 1257 1258 1264 1263
f 1258 1253 1259 1264
f 1259 1260 1266 1265
f 1260 1261 1267 1266
f 1261 1262 1268 1267
f 1262 1263 1269 1268
f 1263 1264 1270 1269
f 1264 1259 1265 1270
f 1265 1266 1272 1271
f 1266 1267 1273 1272
f 1267 1268 1274 1273
f 1268 1269 1275 1274
f 1269 1270 1276 1275
f 1270 1265 1271 1276
g arm_12_1
usemtl living_silica
f 1285 1283 1281 1279 1277
f 1278 1280 1282 1284 1286
f 1277 1279 1280 1278
f 1279 1281 1282 1280
f 1281 1283 1284 1282
f 1283 1285 1286 1284
f 1285 1277 1278 1286
g filter_12_1
usemtl living_pale
f 1287 1288 1294 1293
f 1288 1289 1295 1294
f 1289 1290 1296 1295
f 1290 1291 1297 1296
f 1291 1292 1298 1297
f 1292 1287 1293 1298
f 1293 1294 1300 1299
f 1294 1295 1301 1300
f 1295 1296 1302 1301
f 1296 1297 1303 1302
f 1297 1298 1304 1303
f 1298 1293 1299 1304
f 1299 1300 1306 1305
f 1300 1301 1307 1306
f 1301 1302 1308 1307
f 1302 1303 1309 1308
f 1303 1304 1310 1309
f 1304 1299 1305 1310
g crown_12
usemtl living_pale
f 1311 1312 1319 1318
f 1312 1313 1320 1319
f 1313 1314 1321 1320
f 1314 1315 1322 1321
f 1315 1316 1323 1322
f 1316 1317 1324 1323
f 1317 1311 1318 1324
f 1318 1319 1326 1325
f 1319 1320 1327 1326
f 1320 1321 1328 1327
f 1321 1322 1329 1328
f 1322 1323 1330 1329
f 1323 1324 1331 1330
f 1324 1318 1325 1331
f 1325 1326 1333 1332
f 1326 1327 1334 1333
f 1327 1328 1335 1334
f 1328 1329 1336 1335
f 1329 1330 1337 1336
f 1330 1331 1338 1337
f 1331 1325 1332 1338
