# Generated environment blockout: floodplain_shelf_a
mtllib environment_blockout.mtl
o floodplain_shelf_a
v 0.0 0.0 0.0
v 0.0 0.0 0.0
v 0.0 0.0 0.0
v 0.0 0.0 0.0
v -0.0 0.0 0.0
v -0.0 0.0 0.0
v -0.0 0.0 0.0
v -0.0 0.0 0.0
v -0.0 0.0 -0.0
v -0.0 0.0 -0.0
v -0.0 0.0 -0.0
v 0.0 0.0 -0.0
v 0.0 0.0 -0.0
v 0.0 0.0 -0.0
v 4.10122 0.08201 0.0
v 3.69507 0.08201 1.16585
v 2.55707 0.08201 2.10079
v 0.91261 0.08201 2.61964
v -0.91261 0.08201 2.61964
v -2.55707 0.08201 2.10079
v -3.69507 0.08201 1.16585
v -4.10122 0.08201 0.0
v -3.69507 0.08201 -1.16585
v -2.55707 0.08201 -2.10079
v -0.91261 0.08201 -2.61964
v 0.91261 0.08201 -2.61964
v 2.55707 0.08201 -2.10079
v 3.69507 0.08201 -1.16585
v 5.8 0.28 0.0
v 5.22562 0.28 1.64876
v 3.61624 0.28 2.97096
v 1.29062 0.28 3.70473
v -1.29062 0.28 3.70473
v -3.61624 0.28 2.97096
v -5.22562 0.28 1.64876
v -5.8 0.28 0.0
v -5.22562 0.28 -1.64876
v -3.61624 0.28 -2.97096
v -1.29062 0.28 -3.70473
v 1.29062 0.28 -3.70473
v 3.61624 0.28 -2.97096
v 5.22562 0.28 -1.64876
v 4.10122 0.47799 0.0
v 3.69507 0.47799 1.16585
v 2.55707 0.47799 2.10079
v 0.91261 0.47799 2.61964
v -0.91261 0.47799 2.61964
v -2.55707 0.47799 2.10079
v -3.69507 0.47799 1.16585
v -4.10122 0.47799 0.0
v -3.69507 0.47799 -1.16585
v -2.55707 0.47799 -2.10079
v -0.91261 0.47799 -2.61964
v 0.91261 0.47799 -2.61964
v 2.55707 0.47799 -2.10079
v 3.69507 0.47799 -1.16585
v 0.0 0.56 0.0
v 0.0 0.56 0.0
v 0.0 0.56 0.0
v 0.0 0.56 0.0
v -0.0 0.56 0.0
v -0.0 0.56 0.0
v -0.0 0.56 0.0
v -0.0 0.56 0.0
v -0.0 0.56 -0.0
v -0.0 0.56 -0.0
v -0.0 0.56 -0.0
v 0.0 0.56 -0.0
v 0.0 0.56 -0.0
v 0.0 0.56 -0.0
v -4.50136 0.31 -2.04502
v 4.39864 0.31 -1.82502
v -4.50068 0.26237 -2.07251
v 4.39932 0.26237 -1.85251
v -4.49932 0.26237 -2.12749
v 4.40068 0.26237 -1.90749
v -4.49864 0.31 -2.15498
v 4.40136 0.31 -1.93498
v -4.49932 0.35763 -2.12749
v 4.40068 0.35763 -1.90749
v -4.50068 0.35763 -2.07251
v 4.39932 0.35763 -1.85251
v -4.50136 0.31 -0.64502
v 4.39864 0.31 -0.42502
v -4.50068 0.26237 -0.67251
v 4.39932 0.26237 -0.45251
v -4.49932 0.26237 -0.72749
v 4.40068 0.26237 -0.50749
v -4.49864 0.31 -0.75498
v 4.40136 0.31 -0.53498
v -4.49932 0.35763 -0.72749
v 4.40068 0.35763 -0.50749
v -4.50068 0.35763 -0.67251
v 4.39932 0.35763 -0.45251
v -4.50136 0.31 0.75498
v 4.39864 0.31 0.97498
v -4.50068 0.26237 0.72749
v 4.39932 0.26237 0.94749
v -4.49932 0.26237 0.67251
v 4.40068 0.26237 0.89251
v -4.49864 0.31 0.64502
v 4.40136 0.31 0.86502
v -4.49932 0.35763 0.67251
v 4.40068 0.35763 0.89251
v -4.50068 0.35763 0.72749
v 4.39932 0.35763 0.94749
v -4.50136 0.31 2.15498
v 4.39864 0.31 2.37498
v -4.50068 0.26237 2.12749
v 4.39932 0.26237 2.34749
v -4.49932 0.26237 2.07251
v 4.40068 0.26237 2.29251
v -4.49864 0.31 2.04502
v 4.40136 0.31 2.26502
v -4.49932 0.35763 2.07251
v 4.40068 0.35763 2.29251
v -4.50068 0.35763 2.12749
v 4.39932 0.35763 2.34749
v -3.4 0.28 -2.6
v -3.4 0.28 -2.6
v -3.4 0.28 -2.6
v -3.4 0.28 -2.6
v -3.4 0.28 -2.6
v -3.4 0.28 -2.6
v -3.4 0.28 -2.6
v -2.96699 0.36 -2.6
v -3.13002 0.36 -2.09219
v -3.49635 0.36 -1.96677
v -3.79013 0.36 -2.31818
v -3.79013 0.36 -2.88182
v -3.49635 0.36 -3.23323
v -3.13002 0.36 -3.10781
v -2.96699 0.52 -2.6
v -3.13002 0.52 -2.09219
v -3.49635 0.52 -1.96677
v -3.79013 0.52 -2.31818
v -3.79013 0.52 -2.88182
v -3.49635 0.52 -3.23323
v -3.13002 0.52 -3.10781
v -3.4 0.6 -2.6
v -3.4 0.6 -2.6
v -3.4 0.6 -2.6
v -3.4 0.6 -2.6
v -3.4 0.6 -2.6
v -3.4 0.6 -2.6
v -3.4 0.6 -2.6
v 0.0 0.28 -2.6
v 0.0 0.28 -2.6
v -0.0 0.28 -2.6
v -0.0 0.28 -2.6
v -0.0 0.28 -2.6
v -0.0 0.28 -2.6
v 0.0 0.28 -2.6
v 0.43301 0.36 -2.6
v 0.26998 0.36 -2.09219
v -0.09635 0.36 -1.96677
v -0.39013 0.36 -2.31818
v -0.39013 0.36 -2.88182
v -0.09635 0.36 -3.23323
v 0.26998 0.36 -3.10781
v 0.43301 0.52 -2.6
v 0.26998 0.52 -2.09219
v -0.09635 0.52 -1.96677
v -0.39013 0.52 -2.31818
v -0.39013 0.52 -2.88182
v -0.09635 0.52 -3.23323
v 0.26998 0.52 -3.10781
v 0.0 0.6 -2.6
v 0.0 0.6 -2.6
v -0.0 0.6 -2.6
v -0.0 0.6 -2.6
v -0.0 0.6 -2.6
v -0.0 0.6 -2.6
v 0.0 0.6 -2.6
v 3.0 0.28 -2.6
v 3.0 0.28 -2.6
v 3.0 0.28 -2.6
v 3.0 0.28 -2.6
v 3.0 0.28 -2.6
v 3.0 0.28 -2.6
v 3.0 0.28 -2.6
v 3.43301 0.36 -2.6
v 3.26998 0.36 -2.09219
v 2.90365 0.36 -1.96677
v 2.60987 0.36 -2.31818
v 2.60987 0.36 -2.88182
v 2.90365 0.36 -3.23323
v 3.26998 0.36 -3.10781
v 3.43301 0.52 -2.6
v 3.26998 0.52 -2.09219
v 2.90365 0.52 -1.96677
v 2.60987 0.52 -2.31818
v 2.60987 0.52 -2.88182
v 2.90365 0.52 -3.23323
v 3.26998 0.52 -3.10781
v 3.0 0.6 -2.6
v 3.0 0.6 -2.6
v 3.0 0.6 -2.6
v 3.0 0.6 -2.6
v 3.0 0.6 -2.6
v 3.0 0.6 -2.6
v 3.0 0.6 -2.6
g shelf
usemtl flood_silt
f 1 2 16 15
f 2 3 17 16
f 3 4 18 17
f 4 5 19 18
f 5 6 20 19
f 6 7 21 20
f 7 8 22 21
f 8 9 23 22
f 9 10 24 23
f 10 11 25 24
f 11 12 26 25
f 12 13 27 26
f 13 14 28 27
f 14 1 15 28
f 15 16 30 29
f 16 17 31 30
f 17 18 32 31
f 18 19 33 32
f 19 20 34 33
f 20 21 35 34
f 21 22 36 35
f 22 23 37 36
f 23 24 38 37
f 24 25 39 38
f 25 26 40 39
f 26 27 41 40
f 27 28 42 41
f 28 15 29 42
f 29 30 44 43
f 30 31 45 44
f 31 32 46 45
f 32 33 47 46
f 33 34 48 47
f 34 35 49 48
f 35 36 50 49
f 36 37 51 50
f 37 38 52 51
f 38 39 53 52
f 39 40 54 53
f 40 41 55 54
f 41 42 56 55
f 42 29 43 56
f 43 44 58 57
f 44 45 59 58
f 45 46 60 59
f 46 47 61 60
f 47 48 62 61
f 48 49 63 62
f 49 50 64 63
f 50 51 65 64
f 51 52 66 65
f 52 53 67 66
f 53 54 68 67
f 54 55 69 68
f 55 56 70 69
f 56 43 57 70
g deposition_ripple
usemtl carbonate
f 81 79 77 75 73 71
f 72 74 76 78 80 82
f 71 73 74 72
f 73 75 76 74
f 75 77 78 76
f 77 79 80 78
f 79 81 82 80
f 81 71 72 82
f 93 91 89 87 85 83
f 84 86 88 90 92 94
f 83 85 86 84
f 85 87 88 86
f 87 89 90 88
f 89 91 92 90
f 91 93 94 92
f 93 83 84 94
f 105 103 101 99 97 95
f 96 98 100 102 104 106
f 95 97 98 96
f 97 99 100 98
f 99 101 102 100
f 101 103 104 102
f 103 105 106 104
f 105 95 96 106
f 117 115 113 111 109 107
f 108 110 112 114 116 118
f 107 109 110 108
f 109 111 112 110
f 111 113 114 112
f 113 115 116 114
f 115 117 118 116
f 117 107 108 118
g edge_growth
usemtl living_green
f 119 120 127 126
f 120 121 128 127
f 121 122 129 128
f 122 123 130 129
f 123 124 131 130
f 124 125 132 131
f 125 119 126 132
f 126 127 134 133
f 127 128 135 134
f 128 129 136 135
f 129 130 137 136
f 130 131 138 137
f 131 132 139 138
f 132 126 133 139
f 133 134 141 140
f 134 135 142 141
f 135 136 143 142
f 136 137 144 143
f 137 138 145 144
f 138 139 146 145
f 139 133 140 146
f 147 148 155 154
f 148 149 156 155
f 149 150 157 156
f 150 151 158 157
f 151 152 159 158
f 152 153 160 159
f 153 147 154 160
f 154 155 162 161
f 155 156 163 162
f 156 157 164 163
f 157 158 165 164
f 158 159 166 165
f 159 160 167 166
f 160 154 161 167
f 161 162 169 168
f 162 163 170 169
f 163 164 171 170
f 164 165 172 171
f 165 166 173 172
f 166 167 174 173
f 167 161 168 174
f 175 176 183 182
f 176 177 184 183
f 177 178 185 184
f 178 179 186 185
f 179 180 187 186
f 180 181 188 187
f 181 175 182 188
f 182 183 190 189
f 183 184 191 190
f 184 185 192 191
f 185 186 193 192
f 186 187 194 193
f 187 188 195 194
f 188 182 189 195
f 189 190 197 196
f 190 191 198 197
f 191 192 199 198
f 192 193 200 199
f 193 194 201 200
f 194 195 202 201
f 195 189 196 202
