# Generated environment blockout: ledge_corner_a
mtllib environment_blockout.mtl
o ledge_corner_a
v -4.0 0.0 -1.0
v 1.0 0.0 -1.0
v 1.0 0.9 -1.0
v -4.0 0.9 -1.0
v -4.0 0.0 1.0
v 1.0 0.0 1.0
v 1.0 0.9 1.0
v -4.0 0.9 1.0
v -1.0 0.0 -1.0
v 1.0 0.0 -1.0
v 1.0 0.9 -1.0
v -1.0 0.9 -1.0
v -1.0 0.0 4.0
v 1.0 0.0 4.0
v 1.0 0.9 4.0
v -1.0 0.9 4.0
v 0.0 0.65 0.0
v 0.0 0.65 0.0
v 0.0 0.65 0.0
v -0.0 0.65 0.0
v -0.0 0.65 0.0
v -0.0 0.65 -0.0
v -0.0 0.65 -0.0
v 0.0 0.65 -0.0
v 0.0 0.65 -0.0
v 0.88388 0.79645 0.0
v 0.67709 0.79645 0.56815
v 0.15348 0.79645 0.87046
v -0.44194 0.79645 0.76547
v -0.83058 0.79645 0.30231
v -0.83058 0.79645 -0.30231
v -0.44194 0.79645 -0.76547
v 0.15348 0.79645 -0.87046
v 0.67709 0.79645 -0.56815
v 1.25 1.15 0.0
v 0.95756 1.15 0.80348
v 0.21706 1.15 1.23101
v -0.625 1.15 1.08253
v -1.17462 1.15 0.42753
v -1.17462 1.15 -0.42753
v -0.625 1.15 -1.08253
v 0.21706 1.15 -1.23101
v 0.95756 1.15 -0.80348
v 0.88388 1.50355 0.0
v 0.67709 1.50355 0.56815
v 0.15348 1.50355 0.87046
v -0.44194 1.50355 0.76547
v -0.83058 1.50355 0.30231
v -0.83058 1.50355 -0.30231
v -0.44194 1.50355 -0.76547
v 0.15348 1.50355 -0.87046
v 0.67709 1.50355 -0.56815
v 0.0 1.65 0.0
v 0.0 1.65 0.0
v 0.0 1.65 0.0
v -0.0 1.65 0.0
v -0.0 1.65 0.0
v -0.0 1.65 -0.0
v -0.0 1.65 -0.0
v 0.0 1.65 -0.0
v 0.0 1.65 -0.0
g ledge_x
usemtl rock
f 1 2 3 4
f 5 8 7 6
f 1 5 6 2
f 2 6 7 3
f 3 7 8 4
f 5 1 4 8
g ledge_z
usemtl rock
f 9 10 11 12
f 13 16 15 14
f 9 13 14 10
f 10 14 15 11
f 11 15 16 12
f 13 9 12 16
g corner_breakup
usemtl rock
f 17 18 27 26
f 18 19 28 27
f 19 20 29 28
f 20 21 30 29
f 21 22 31 30
f 22 23 32 31
f 23 24 33 32
f 24 25 34 33
f 25 17 26 34
f 26 27 36 35
f 27 28 37 36
f 28 29 38 37
f 29 30 39 38
f 30 31 40 39
f 31 32 41 40
f 32 33 42 41
f 33 34 43 42
f 34 26 35 43
f 35 36 45 44
f 36 37 46 45
f 37 38 47 46
f 38 39 48 47
f 39 40 49 48
f 40 41 50 49
f 41 42 51 50
f 42 43 52 51
f 43 35 44 52
f 44 45 54 53
f 45 46 55 54
f 46 47 56 55
f 47 48 57 56
f 48 49 58 57
f 49 50 59 58
f 50 51 60 59
f 51 52 61 60
f 52 44 53 61
