# Generated environment blockout: ledge_straight_a
mtllib environment_blockout.mtl
o ledge_straight_a
v -4.0 0.0 -1.0
v 4.0 0.0 -1.0
v 4.0 0.9 -1.0
v -4.0 0.9 -1.0
v -4.0 0.0 1.0
v 4.0 0.0 1.0
v 4.0 0.9 1.0
v -4.0 0.9 1.0
v -3.1 0.7 -0.05
v -3.1 0.7 -0.05
v -3.1 0.7 -0.05
v -3.1 0.7 -0.05
v -3.1 0.7 -0.05
v -3.1 0.7 -0.05
v -3.1 0.7 -0.05
v -3.1 0.7 -0.05
v -3.1 0.7 -0.05
v -2.64038 0.8318 -0.05
v -2.74791 0.8318 0.35907
v -3.02019 0.8318 0.57673
v -3.32981 0.8318 0.50114
v -3.5319 0.8318 0.16766
v -3.5319 0.8318 -0.26766
v -3.32981 0.8318 -0.60114
v -3.02019 0.8318 -0.67673
v -2.74791 0.8318 -0.45907
v -2.45 1.15 -0.05
v -2.60207 1.15 0.52851
v -2.98713 1.15 0.83633
v -3.425 1.15 0.72942
v -3.7108 1.15 0.25782
v -3.7108 1.15 -0.35782
v -3.425 1.15 -0.82942
v -2.98713 1.15 -0.93633
v -2.60207 1.15 -0.62851
v -2.64038 1.4682 -0.05
v -2.74791 1.4682 0.35907
v -3.02019 1.4682 0.57673
v -3.32981 1.4682 0.50114
v -3.5319 1.4682 0.16766
v -3.5319 1.4682 -0.26766
v -3.32981 1.4682 -0.60114
v -3.02019 1.4682 -0.67673
v -2.74791 1.4682 -0.45907
v -3.1 1.6 -0.05
v -3.1 1.6 -0.05
v -3.1 1.6 -0.05
v -3.1 1.6 -0.05
v -3.1 1.6 -0.05
v -3.1 1.6 -0.05
v -3.1 1.6 -0.05
v -3.1 1.6 -0.05
v -3.1 1.6 -0.05
v -1.6 0.7 -0.05
v -1.6 0.7 -0.05
v -1.6 0.7 -0.05
v -1.6 0.7 -0.05
v -1.6 0.7 -0.05
v -1.6 0.7 -0.05
v -1.6 0.7 -0.05
v -1.6 0.7 -0.05
v -1.6 0.7 -0.05
v -0.99896 0.8318 -0.05
v -1.13958 0.8318 0.35907
v -1.49563 0.8318 0.57673
v -1.90052 0.8318 0.50114
v -2.16479 0.8318 0.16766
v -2.16479 0.8318 -0.26766
v -1.90052 0.8318 -0.60114
v -1.49563 0.8318 -0.67673
v -1.13958 0.8318 -0.45907
v -0.75 1.15 -0.05
v -0.94886 1.15 0.52851
v -1.4524 1.15 0.83633
v -2.025 1.15 0.72942
v -2.39874 1.15 0.25782
v -2.39874 1.15 -0.35782
v -2.025 1.15 -0.82942
v -1.4524 1.15 -0.93633
v -0.94886 1.15 -0.62851
v -0.99896 1.4682 -0.05
v -1.13958 1.4682 0.35907
v -1.49563 1.4682 0.57673
v -1.90052 1.4682 0.50114
v -2.16479 1.4682 0.16766
v -2.16479 1.4682 -0.26766
v -1.90052 1.4682 -0.60114
v -1.49563 1.4682 -0.67673
v -1.13958 1.4682 -0.45907
v -1.6 1.6 -0.05
v -1.6 1.6 -0.05
v -1.6 1.6 -0.05
v -1.6 1.6 -0.05
v -1.6 1.6 -0.05
v -1.6 1.6 -0.05
v -1.6 1.6 -0.05
v -1.6 1.6 -0.05
v -1.6 1.6 -0.05
v 0.0 0.7 -0.05
v 0.0 0.7 -0.05
v 0.0 0.7 -0.05
v -0.0 0.7 -0.05
v -0.0 0.7 -0.05
v -0.0 0.7 -0.05
v -0.0 0.7 -0.05
v 0.0 0.7 -0.05
v 0.0 0.7 -0.05
v 0.50912 0.8318 -0.05
v 0.39001 0.8318 0.35907
v 0.08841 0.8318 0.57673
v -0.25456 0.8318 0.50114
v -0.47841 0.8318 0.16766
v -0.47841 0.8318 -0.26766
v -0.25456 0.8318 -0.60114
v 0.08841 0.8318 -0.67673
v 0.39001 0.8318 -0.45907
v 0.72 1.15 -0.05
v 0.55155 1.15 0.52851
v 0.12503 1.15 0.83633
v -0.36 1.15 0.72942
v -0.67658 1.15 0.25782
v -0.67658 1.15 -0.35782
v -0.36 1.15 -0.82942
v 0.12503 1.15 -0.93633
v 0.55155 1.15 -0.62851
v 0.50912 1.4682 -0.05
v 0.39001 1.4682 0.35907
v 0.08841 1.4682 0.57673
v -0.25456 1.4682 0.50114
v -0.47841 1.4682 0.16766
v -0.47841 1.4682 -0.26766
v -0.25456 1.4682 -0.60114
v 0.08841 1.4682 -0.67673
v 0.39001 1.4682 -0.45907
v 0.0 1.6 -0.05
v 0.0 1.6 -0.05
v 0.0 1.6 -0.05
v -0.0 1.6 -0.05
v -0.0 1.6 -0.05
v -0.0 1.6 -0.05
v -0.0 1.6 -0.05
v 0.0 1.6 -0.05
v 0.0 1.6 -0.05
v 1.8 0.7 -0.05
v 1.8 0.7 -0.05
v 1.8 0.7 -0.05
v 1.8 0.7 -0.05
v 1.8 0.7 -0.05
v 1.8 0.7 -0.05
v 1.8 0.7 -0.05
v 1.8 0.7 -0.05
v 1.8 0.7 -0.05
v 2.4364 0.8318 -0.05
v 2.28751 0.8318 0.35907
v 1.91051 0.8318 0.57673
v 1.4818 0.8318 0.50114
v 1.20198 0.8318 0.16766
v 1.20198 0.8318 -0.26766
v 1.4818 0.8318 -0.60114
v 1.91051 0.8318 -0.67673
v 2.28751 0.8318 -0.45907
v 2.7 1.15 -0.05
v 2.48944 1.15 0.52851
v 1.95628 1.15 0.83633
v 1.35 1.15 0.72942
v 0.95428 1.15 0.25782
v 0.95428 1.15 -0.35782
v 1.35 1.15 -0.82942
v 1.95628 1.15 -0.93633
v 2.48944 1.15 -0.62851
v 2.4364 1.4682 -0.05
v 2.28751 1.4682 0.35907
v 1.91051 1.4682 0.57673
v 1.4818 1.4682 0.50114
v 1.20198 1.4682 0.16766
v 1.20198 1.4682 -0.26766
v 1.4818 1.4682 -0.60114
v 1.91051 1.4682 -0.67673
v 2.28751 1.4682 -0.45907
v 1.8 1.6 -0.05
v 1.8 1.6 -0.05
v 1.8 1.6 -0.05
v 1.8 1.6 -0.05
v 1.8 1.6 -0.05
v 1.8 1.6 -0.05
v 1.8 1.6 -0.05
v 1.8 1.6 -0.05
v 1.8 1.6 -0.05
v 3.35 0.7 -0.05
v 3.35 0.7 -0.05
v 3.35 0.7 -0.05
v 3.35 0.7 -0.05
v 3.35 0.7 -0.05
v 3.35 0.7 -0.05
v 3.35 0.7 -0.05
v 3.35 0.7 -0.05
v 3.35 0.7 -0.05
v 3.76012 0.8318 -0.05
v 3.66417 0.8318 0.35907
v 3.42122 0.8318 0.57673
v 3.14494 0.8318 0.50114
v 2.96461 0.8318 0.16766
v 2.96461 0.8318 -0.26766
v 3.14494 0.8318 -0.60114
v 3.42122 0.8318 -0.67673
v 3.66417 0.8318 -0.45907
v 3.93 1.15 -0.05
v 3.79431 1.15 0.52851
v 3.45072 1.15 0.83633
v 3.06 1.15 0.72942
v 2.80498 1.15 0.25782
v 2.80498 1.15 -0.35782
v 3.06 1.15 -0.82942
v 3.45072 1.15 -0.93633
v 3.79431 1.15 -0.62851
v 3.76012 1.4682 -0.05
v 3.66417 1.4682 0.35907
v 3.42122 1.4682 0.57673
v 3.14494 1.4682 0.50114
v 2.96461 1.4682 0.16766
v 2.96461 1.4682 -0.26766
v 3.14494 1.4682 -0.60114
v 3.42122 1.4682 -0.67673
v 3.66417 1.4682 -0.45907
v 3.35 1.6 -0.05
v 3.35 1.6 -0.05
v 3.35 1.6 -0.05
v 3.35 1.6 -0.05
v 3.35 1.6 -0.05
v 3.35 1.6 -0.05
v 3.35 1.6 -0.05
v 3.35 1.6 -0.05
v 3.35 1.6 -0.05
g ledge_mass
usemtl rock
f 1 2 3 4
f 5 8 7 6
f 1 5 6 2
f 2 6 7 3
f 3 7 8 4
f 5 1 4 8
g ledge_breakup_0
usemtl rock
f 9 10 19 18
f 10 11 20 19
f 11 12 21 20
f 12 13 22 21
f 13 14 23 22
f 14 15 24 23
f 15 16 25 24
f 16 17 26 25
f 17 9 18 26
f 18 19 28 27
f 19 20 29 28
f 20 21 30 29
f 21 22 31 30
f 22 23 32 31
f 23 24 33 32
f 24 25 34 33
f 25 26 35 34
f 26 18 27 35
f 27 28 37 36
f 28 29 38 37
f 29 30 39 38
f 30 31 40 39
f 31 32 41 40
f 32 33 42 41
f 33 34 43 42
f 34 35 44 43
f 35 27 36 44
f 36 37 46 45
f 37 38 47 46
f 38 39 48 47
f 39 40 49 48
f 40 41 50 49
f 41 42 51 50
f 42 43 52 51
f 43 44 53 52
f 44 36 45 53
g ledge_breakup_1
usemtl rock
f 54 55 64 63
f 55 56 65 64
f 56 57 66 65
f 57 58 67 66
f 58 59 68 67
f 59 60 69 68
f 60 61 70 69
f 61 62 71 70
f 62 54 63 71
f 63 64 73 72
f 64 65 74 73
f 65 66 75 74
f 66 67 76 75
f 67 68 77 76
f 68 69 78 77
f 69 70 79 78
f 70 71 80 79
f 71 63 72 80
f 72 73 82 81
f 73 74 83 82
f 74 75 84 83
f 75 76 85 84
f 76 77 86 85
f 77 78 87 86
f 78 79 88 87
f 79 80 89 88
f 80 72 81 89
f 81 82 91 90
f 82 83 92 91
f 83 84 93 92
f 84 85 94 93
f 85 86 95 94
f 86 87 96 95
f 87 88 97 96
f 88 89 98 97
f 89 81 90 98
g ledge_breakup_2
usemtl rock
f 99 100 109 108
f 100 101 110 109
f 101 102 111 110
f 102 103 112 111
f 103 104 113 112
f 104 105 114 113
f 105 106 115 114
f 106 107 116 115
f 107 99 108 116
f 108 109 118 117
f 109 110 119 118
f 110 111 120 119
f 111 112 121 120
f 112 113 122 121
f 113 114 123 122
f 114 115 124 123
f 115 116 125 124
f 116 108 117 125
f 117 118 127 126
f 118 119 128 127
f 119 120 129 128
f 120 121 130 129
f 121 122 131 130
f 122 123 132 131
f 123 124 133 132
f 124 125 134 133
f 125 117 126 134
f 126 127 136 135
f 127 128 137 136
f 128 129 138 137
f 129 130 139 138
f 130 131 140 139
f 131 132 141 140
f 132 133 142 141
f 133 134 143 142
f 134 126 135 143
g ledge_breakup_3
usemtl rock
f 144 145 154 153
f 145 146 155 154
f 146 147 156 155
f 147 148 157 156
f 148 149 158 157
f 149 150 159 158
f 150 151 160 159
f 151 152 161 160
f 152 144 153 161
f 153 154 163 162
f 154 155 164 163
f 155 156 165 164
f 156 157 166 165
f 157 158 167 166
f 158 159 168 167
f 159 160 169 168
f 160 161 170 169
f 161 153 162 170
f 162 163 172 171
f 163 164 173 172
f 164 165 174 173
f 165 166 175 174
f 166 167 176 175
f 167 168 177 176
f 168 169 178 177
f 169 170 179 178
f 170 162 171 179
f 171 172 181 180
f 172 173 182 181
f 173 174 183 182
f 174 175 184 183
f 175 176 185 184
f 176 177 186 185
f 177 178 187 186
f 178 179 188 187
f 179 171 180 188
g ledge_breakup_4
usemtl rock
f 189 190 199 198
f 190 191 200 199
f 191 192 201 200
f 192 193 202 201
f 193 194 203 202
f 194 195 204 203
f 195 196 205 204
f 196 197 206 205
f 197 189 198 206
f 198 199 208 207
f 199 200 209 208
f 200 201 210 209
f 201 202 211 210
f 202 203 212 211
f 203 204 213 212
f 204 205 214 213
f 205 206 215 214
f 206 198 207 215
f 207 208 217 216
f 208 209 218 217
f 209 210 219 218
f 210 211 220 219
f 211 212 221 220
f 212 213 222 221
f 213 214 223 222
f 214 215 224 223
f 215 207 216 224
f 216 217 226 225
f 217 218 227 226
f 218 219 228 227
f 219 220 229 228
f 220 221 230 229
f 221 222 231 230
f 222 223 232 231
f 223 224 233 232
f 224 216 225 233
