# Generated environment blockout: methane_seep_a
mtllib environment_blockout.mtl
o methane_seep_a
v -2.8 0.0 -0.4
v -2.8 0.0 -0.4
v -2.8 0.0 -0.4
v -2.8 0.0 -0.4
v -2.8 0.0 -0.4
v -2.8 0.0 -0.4
v -2.8 0.0 -0.4
v -2.8 0.0 -0.4
v -2.8 0.0 -0.4
v -2.8 0.0 -0.4
v -2.8 0.0 -0.4
v -2.8 0.0 -0.4
v -2.8 0.0 -0.4
v -2.8 0.0 -0.4
v -0.46173 0.04 -0.4
v -0.69329 0.04 0.27636
v -1.34211 0.04 0.81875
v -2.27969 0.04 1.11976
v -3.32031 0.04 1.11976
v -4.25789 0.04 0.81875
v -4.90671 0.04 0.27636
v -5.13827 0.04 -0.4
v -4.90671 0.04 -1.07636
v -4.25789 0.04 -1.61875
v -3.32031 0.04 -1.91976
v -2.27969 0.04 -1.91976
v -1.34211 0.04 -1.61875
v -0.69329 0.04 -1.07636
v -0.46173 0.12 -0.4
v -0.69329 0.12 0.27636
v -1.34211 0.12 0.81875
v -2.27969 0.12 1.11976
v -3.32031 0.12 1.11976
v -4.25789 0.12 0.81875
v -4.90671 0.12 0.27636
v -5.13827 0.12 -0.4
v -4.90671 0.12 -1.07636
v -4.25789 0.12 -1.61875
v -3.32031 0.12 -1.91976
v -2.27969 0.12 -1.91976
v -1.34211 0.12 -1.61875
v -0.69329 0.12 -1.07636
v -2.8 0.16 -0.4
v -2.8 0.16 -0.4
v -2.8 0.16 -0.4
v -2.8 0.16 -0.4
v -2.8 0.16 -0.4
v -2.8 0.16 -0.4
v -2.8 0.16 -0.4
v -2.8 0.16 -0.4
v -2.8 0.16 -0.4
v -2.8 0.16 -0.4
v -2.8 0.16 -0.4
v -2.8 0.16 -0.4
v -2.8 0.16 -0.4
v -2.8 0.16 -0.4
v -2.55 0.07 -0.52
v -2.55 0.07 -0.52
v -2.55 0.07 -0.52
v -2.55 0.07 -0.52
v -2.55 0.07 -0.52
v -2.55 0.07 -0.52
v -2.55 0.07 -0.52
v -2.55 0.07 -0.52
v -2.55 0.07 -0.52
v -2.55 0.07 -0.52
v -2.55 0.07 -0.52
v -2.55 0.07 -0.52
v -2.55 0.07 -0.52
v -0.95998 0.12 -0.52
v -1.1421 0.12 -0.07085
v -1.64676 0.12 0.2754
v -2.35834 0.12 0.43944
v -3.11383 0.12 0.38368
v -3.74015 0.12 0.1209
v -4.09382 0.12 -0.28871
v -4.09382 0.12 -0.75129
v -3.74015 0.12 -1.1609
v -3.11383 0.12 -1.42368
v -2.35834 0.12 -1.47944
v -1.64676 0.12 -1.3154
v -1.1421 0.12 -0.96915
v -0.95998 0.22 -0.52
v -1.1421 0.22 -0.07085
v -1.64676 0.22 0.2754
v -2.35834 0.22 0.43944
v -3.11383 0.22 0.38368
v -3.74015 0.22 0.1209
v -4.09382 0.22 -0.28871
v -4.09382 0.22 -0.75129
v -3.74015 0.22 -1.1609
v -3.11383 0.22 -1.42368
v -2.35834 0.22 -1.47944
v -1.64676 0.22 -1.3154
v -1.1421 0.22 -0.96915
v -2.55 0.27 -0.52
v -2.55 0.27 -0.52
v -2.55 0.27 -0.52
v -2.55 0.27 -0.52
v -2.55 0.27 -0.52
v -2.55 0.27 -0.52
v -2.55 0.27 -0.52
v -2.55 0.27 -0.52
v -2.55 0.27 -0.52
v -2.55 0.27 -0.52
v -2.55 0.27 -0.52
v -2.55 0.27 -0.52
v -2.55 0.27 -0.52
v 0.2 0.0 0.7
v 0.2 0.0 0.7
v 0.2 0.0 0.7
v 0.2 0.0 0.7
v 0.2 0.0 0.7
v 0.2 0.0 0.7
v 0.2 0.0 0.7
v 0.2 0.0 0.7
v 0.2 0.0 0.7
v 0.2 0.0 0.7
v 0.2 0.0 0.7
v 0.2 0.0 0.7
v 0.2 0.0 0.7
v 0.2 0.0 0.7
v 3.14449 0.04 0.7
v 2.85289 0.04 1.52666
v 2.03586 0.04 2.18959
v 0.85521 0.04 2.55749
v -0.45521 0.04 2.55749
v -1.63586 0.04 2.18959
v -2.45289 0.04 1.52666
v -2.74449 0.04 0.7
v -2.45289 0.04 -0.12666
v -1.63586 0.04 -0.78959
v -0.45521 0.04 -1.15749
v 0.85521 0.04 -1.15749
v 2.03586 0.04 -0.78959
v 2.85289 0.04 -0.12666
v 3.14449 0.12 0.7
v 2.85289 0.12 1.52666
v 2.03586 0.12 2.18959
v 0.85521 0.12 2.55749
v -0.45521 0.12 2.55749
v -1.63586 0.12 2.18959
v -2.45289 0.12 1.52666
v -2.74449 0.12 0.7
v -2.45289 0.12 -0.12666
v -1.63586 0.12 -0.78959
v -0.45521 0.12 -1.15749
v 0.85521 0.12 -1.15749
v 2.03586 0.12 -0.78959
v 2.85289 0.12 -0.12666
v 0.2 0.16 0.7
v 0.2 0.16 0.7
v 0.2 0.16 0.7
v 0.2 0.16 0.7
v 0.2 0.16 0.7
v 0.2 0.16 0.7
v 0.2 0.16 0.7
v 0.2 0.16 0.7
v 0.2 0.16 0.7
v 0.2 0.16 0.7
v 0.2 0.16 0.7
v 0.2 0.16 0.7
v 0.2 0.16 0.7
v 0.2 0.16 0.7
v 0.45 0.07 0.58
v 0.45 0.07 0.58
v 0.45 0.07 0.58
v 0.45 0.07 0.58
v 0.45 0.07 0.58
v 0.45 0.07 0.58
v 0.45 0.07 0.58
v 0.45 0.07 0.58
v 0.45 0.07 0.58
v 0.45 0.07 0.58
v 0.45 0.07 0.58
v 0.45 0.07 0.58
v 0.45 0.07 0.58
v 2.45225 0.12 0.58
v 2.2229 0.12 1.12896
v 1.58741 0.12 1.55216
v 0.69134 0.12 1.75265
v -0.26001 0.12 1.6845
v -1.04871 0.12 1.36332
v -1.49407 0.12 0.86269
v -1.49407 0.12 0.29731
v -1.04871 0.12 -0.20332
v -0.26001 0.12 -0.5245
v 0.69134 0.12 -0.59265
v 1.58741 0.12 -0.39216
v 2.2229 0.12 0.03104
v 2.45225 0.22 0.58
v 2.2229 0.22 1.12896
v 1.58741 0.22 1.55216
v 0.69134 0.22 1.75265
v -0.26001 0.22 1.6845
v -1.04871 0.22 1.36332
v -1.49407 0.22 0.86269
v -1.49407 0.22 0.29731
v -1.04871 0.22 -0.20332
v -0.26001 0.22 -0.5245
v 0.69134 0.22 -0.59265
v 1.58741 0.22 -0.39216
v 2.2229 0.22 0.03104
v 0.45 0.27 0.58
v 0.45 0.27 0.58
v 0.45 0.27 0.58
v 0.45 0.27 0.58
v 0.45 0.27 0.58
v 0.45 0.27 0.58
v 0.45 0.27 0.58
v 0.45 0.27 0.58
v 0.45 0.27 0.58
v 0.45 0.27 0.58
v 0.45 0.27 0.58
v 0.45 0.27 0.58
v 0.45 0.27 0.58
v 3.1 0.0 -1.2
v 3.1 0.0 -1.2
v 3.1 0.0 -1.2
v 3.1 0.0 -1.2
v 3.1 0.0 -1.2
v 3.1 0.0 -1.2
v 3.1 0.0 -1.2
v 3.1 0.0 -1.2
v 3.1 0.0 -1.2
v 3.1 0.0 -1.2
v 3.1 0.0 -1.2
v 3.1 0.0 -1.2
v 3.1 0.0 -1.2
v 3.1 0.0 -1.2
v 4.83205 0.04 -1.2
v 4.66052 0.04 -0.65516
v 4.17992 0.04 -0.21823
v 3.48542 0.04 0.02425
v 2.71458 0.04 0.02425
v 2.02008 0.04 -0.21823
v 1.53948 0.04 -0.65516
v 1.36795 0.04 -1.2
v 1.53948 0.04 -1.74484
v 2.02008 0.04 -2.18177
v 2.71458 0.04 -2.42425
v 3.48542 0.04 -2.42425
v 4.17992 0.04 -2.18177
v 4.66052 0.04 -1.74484
v 4.83205 0.12 -1.2
v 4.66052 0.12 -0.65516
v 4.17992 0.12 -0.21823
v 3.48542 0.12 0.02425
v 2.71458 0.12 0.02425
v 2.02008 0.12 -0.21823
v 1.53948 0.12 -0.65516
v 1.36795 0.12 -1.2
v 1.53948 0.12 -1.74484
v 2.02008 0.12 -2.18177
v 2.71458 0.12 -2.42425
v 3.48542 0.12 -2.42425
v 4.17992 0.12 -2.18177
v 4.66052 0.12 -1.74484
v 3.1 0.16 -1.2
v 3.1 0.16 -1.2
v 3.1 0.16 -1.2
v 3.1 0.16 -1.2
v 3.1 0.16 -1.2
v 3.1 0.16 -1.2
v 3.1 0.16 -1.2
v 3.1 0.16 -1.2
v 3.1 0.16 -1.2
v 3.1 0.16 -1.2
v 3.1 0.16 -1.2
v 3.1 0.16 -1.2
v 3.1 0.16 -1.2
v 3.1 0.16 -1.2
v 3.35 0.07 -1.32
v 3.35 0.07 -1.32
v 3.35 0.07 -1.32
v 3.35 0.07 -1.32
v 3.35 0.07 -1.32
v 3.35 0.07 -1.32
v 3.35 0.07 -1.32
v 3.35 0.07 -1.32
v 3.35 0.07 -1.32
v 3.35 0.07 -1.32
v 3.35 0.07 -1.32
v 3.35 0.07 -1.32
v 3.35 0.07 -1.32
v 4.52779 0.12 -1.32
v 4.39289 0.12 -0.95819
v 4.01906 0.12 -0.67926
v 3.49197 0.12 -0.54712
v 2.93235 0.12 -0.59204
v 2.46841 0.12 -0.80372
v 2.20643 0.12 -1.13368
v 2.20643 0.12 -1.50632
v 2.46841 0.12 -1.83628
v 2.93235 0.12 -2.04796
v 3.49197 0.12 -2.09288
v 4.01906 0.12 -1.96074
v 4.39289 0.12 -1.68181
v 4.52779 0.22 -1.32
v 4.39289 0.22 -0.95819
v 4.01906 0.22 -0.67926
v 3.49197 0.22 -0.54712
v 2.93235 0.22 -0.59204
v 2.46841 0.22 -0.80372
v 2.20643 0.22 -1.13368
v 2.20643 0.22 -1.50632
v 2.46841 0.22 -1.83628
v 2.93235 0.22 -2.04796
v 3.49197 0.22 -2.09288
v 4.01906 0.22 -1.96074
v 4.39289 0.22 -1.68181
v 3.35 0.27 -1.32
v 3.35 0.27 -1.32
v 3.35 0.27 -1.32
v 3.35 0.27 -1.32
v 3.35 0.27 -1.32
v 3.35 0.27 -1.32
v 3.35 0.27 -1.32
v 3.35 0.27 -1.32
v 3.35 0.27 -1.32
v 3.35 0.27 -1.32
v 3.35 0.27 -1.32
v 3.35 0.27 -1.32
v 3.35 0.27 -1.32
v -3.4 0.13 -0.6
v -3.4 0.13 -0.6
v -3.4 0.13 -0.6
v -3.4 0.13 -0.6
v -3.4 0.13 -0.6
v -3.4 0.13 -0.6
v -3.4 0.13 -0.6
v -3.4 0.13 -0.6
v -3.4 0.13 -0.6
v -2.90503 0.22373 -0.6
v -3.02083 0.22373 -0.36365
v -3.31405 0.22373 -0.23789
v -3.64749 0.22373 -0.28157
v -3.86512 0.22373 -0.47424
v -3.86512 0.22373 -0.72576
v -3.64749 0.22373 -0.91843
v -3.31405 0.22373 -0.96211
v -3.02083 0.22373 -0.83635
v -2.7 0.45 -0.6
v -2.86377 0.45 -0.26575
v -3.27845 0.45 -0.0879
v -3.75 0.45 -0.14967
v -4.05778 0.45 -0.42215
v -4.05778 0.45 -0.77785
v -3.75 0.45 -1.05033
v -3.27845 0.45 -1.1121
v -2.86377 0.45 -0.93425
v -2.90503 0.67627 -0.6
v -3.02083 0.67627 -0.36365
v -3.31405 0.67627 -0.23789
v -3.64749 0.67627 -0.28157
v -3.86512 0.67627 -0.47424
v -3.86512 0.67627 -0.72576
v -3.64749 0.67627 -0.91843
v -3.31405 0.67627 -0.96211
v -3.02083 0.67627 -0.83635
v -3.4 0.77 -0.6
v -3.4 0.77 -0.6
v -3.4 0.77 -0.6
v -3.4 0.77 -0.6
v -3.4 0.77 -0.6
v -3.4 0.77 -0.6
v -3.4 0.77 -0.6
v -3.4 0.77 -0.6
v -3.4 0.77 -0.6
v -3.4 0.44 -0.6
v -3.4 0.44 -0.6
v -3.4 0.44 -0.6
v -3.4 0.44 -0.6
v -3.4 0.44 -0.6
v -3.4 0.44 -0.6
v -3.4 0.44 -0.6
v -3.4 0.44 -0.6
v -3.14539 0.525 -0.6
v -3.21996 0.525 -0.46626
v -3.4 0.525 -0.41086
v -3.58004 0.525 -0.46626
v -3.65461 0.525 -0.6
v -3.58004 0.525 -0.73374
v -3.4 0.525 -0.78914
v -3.21996 0.525 -0.73374
v -3.14539 0.695 -0.6
v -3.21996 0.695 -0.46626
v -3.4 0.695 -0.41086
v -3.58004 0.695 -0.46626
v -3.65461 0.695 -0.6
v -3.58004 0.695 -0.73374
v -3.4 0.695 -0.78914
v -3.21996 0.695 -0.73374
v -3.4 0.78 -0.6
v -3.4 0.78 -0.6
v -3.4 0.78 -0.6
v -3.4 0.78 -0.6
v -3.4 0.78 -0.6
v -3.4 0.78 -0.6
v -3.4 0.78 -0.6
v -3.4 0.78 -0.6
v -1.0 0.13 0.7
v -1.0 0.13 0.7
v -1.0 0.13 0.7
v -1.0 0.13 0.7
v -1.0 0.13 0.7
v -1.0 0.13 0.7
v -1.0 0.13 0.7
v -1.0 0.13 0.7
v -1.0 0.13 0.7
v -0.61109 0.22373 0.7
v -0.70208 0.22373 0.8909
v -0.93247 0.22373 0.99247
v -1.19445 0.22373 0.9572
v -1.36545 0.22373 0.80157
v -1.36545 0.22373 0.59843
v -1.19445 0.22373 0.4428
v -0.93247 0.22373 0.40753
v -0.70208 0.22373 0.5091
v -0.45 0.45 0.7
v -0.57868 0.45 0.96997
v -0.90449 0.45 1.11362
v -1.275 0.45 1.06373
v -1.51683 0.45 0.84365
v -1.51683 0.45 0.55635
v -1.275 0.45 0.33627
v -0.90449 0.45 0.28638
v -0.57868 0.45 0.43003
v -0.61109 0.67627 0.7
v -0.70208 0.67627 0.8909
v -0.93247 0.67627 0.99247
v -1.19445 0.67627 0.9572
v -1.36545 0.67627 0.80157
v -1.36545 0.67627 0.59843
v -1.19445 0.67627 0.4428
v -0.93247 0.67627 0.40753
v -0.70208 0.67627 0.5091
v -1.0 0.77 0.7
v -1.0 0.77 0.7
v -1.0 0.77 0.7
v -1.0 0.77 0.7
v -1.0 0.77 0.7
v -1.0 0.77 0.7
v -1.0 0.77 0.7
v -1.0 0.77 0.7
v -1.0 0.77 0.7
v -1.0 0.44 0.7
v -1.0 0.44 0.7
v -1.0 0.44 0.7
v -1.0 0.44 0.7
v -1.0 0.44 0.7
v -1.0 0.44 0.7
v -1.0 0.44 0.7
v -1.0 0.44 0.7
v -0.79995 0.525 0.7
v -0.85854 0.525 0.80802
v -1.0 0.525 0.85277
v -1.14146 0.525 0.80802
v -1.20005 0.525 0.7
v -1.14146 0.525 0.59198
v -1.0 0.525 0.54723
v -0.85854 0.525 0.59198
v -0.79995 0.695 0.7
v -0.85854 0.695 0.80802
v -1.0 0.695 0.85277
v -1.14146 0.695 0.80802
v -1.20005 0.695 0.7
v -1.14146 0.695 0.59198
v -1.0 0.695 0.54723
v -0.85854 0.695 0.59198
v -1.0 0.78 0.7
v -1.0 0.78 0.7
v -1.0 0.78 0.7
v -1.0 0.78 0.7
v -1.0 0.78 0.7
v -1.0 0.78 0.7
v -1.0 0.78 0.7
v -1.0 0.78 0.7
v 1.2 0.13 0.25
v 1.2 0.13 0.25
v 1.2 0.13 0.25
v 1.2 0.13 0.25
v 1.2 0.13 0.25
v 1.2 0.13 0.25
v 1.2 0.13 0.25
v 1.2 0.13 0.25
v 1.2 0.13 0.25
v 1.8364 0.22373 0.25
v 1.68751 0.22373 0.5318
v 1.31051 0.22373 0.68175
v 0.8818 0.22373 0.62967
v 0.60198 0.22373 0.39994
v 0.60198 0.22373 0.10006
v 0.8818 0.22373 -0.12967
v 1.31051 0.22373 -0.18175
v 1.68751 0.22373 -0.0318
v 2.1 0.45 0.25
v 1.88944 0.45 0.64853
v 1.35628 0.45 0.86058
v 0.75 0.45 0.78694
v 0.35428 0.45 0.46205
v 0.35428 0.45 0.03795
v 0.75 0.45 -0.28694
v 1.35628 0.45 -0.36058
v 1.88944 0.45 -0.14853
v 1.8364 0.67627 0.25
v 1.68751 0.67627 0.5318
v 1.31051 0.67627 0.68175
v 0.8818 0.67627 0.62967
v 0.60198 0.67627 0.39994
v 0.60198 0.67627 0.10006
v 0.8818 0.67627 -0.12967
v 1.31051 0.67627 -0.18175
v 1.68751 0.67627 -0.0318
v 1.2 0.77 0.25
v 1.2 0.77 0.25
v 1.2 0.77 0.25
v 1.2 0.77 0.25
v 1.2 0.77 0.25
v 1.2 0.77 0.25
v 1.2 0.77 0.25
v 1.2 0.77 0.25
v 1.2 0.77 0.25
v 1.2 0.44 0.25
v 1.2 0.44 0.25
v 1.2 0.44 0.25
v 1.2 0.44 0.25
v 1.2 0.44 0.25
v 1.2 0.44 0.25
v 1.2 0.44 0.25
v 1.2 0.44 0.25
v 1.52736 0.525 0.25
v 1.43148 0.525 0.40946
v 1.2 0.525 0.47551
v 0.96852 0.525 0.40946
v 0.87264 0.525 0.25
v 0.96852 0.525 0.09054
v 1.2 0.525 0.02449
v 1.43148 0.525 0.09054
v 1.52736 0.695 0.25
v 1.43148 0.695 0.40946
v 1.2 0.695 0.47551
v 0.96852 0.695 0.40946
v 0.87264 0.695 0.25
v 0.96852 0.695 0.09054
v 1.2 0.695 0.02449
v 1.43148 0.695 0.09054
v 1.2 0.78 0.25
v 1.2 0.78 0.25
v 1.2 0.78 0.25
v 1.2 0.78 0.25
v 1.2 0.78 0.25
v 1.2 0.78 0.25
v 1.2 0.78 0.25
v 1.2 0.78 0.25
v 3.4 0.13 -1.25
v 3.4 0.13 -1.25
v 3.4 0.13 -1.25
v 3.4 0.13 -1.25
v 3.4 0.13 -1.25
v 3.4 0.13 -1.25
v 3.4 0.13 -1.25
v 3.4 0.13 -1.25
v 3.4 0.13 -1.25
v 3.83841 0.22373 -1.25
v 3.73584 0.22373 -1.03183
v 3.47613 0.22373 -0.91575
v 3.1808 0.22373 -0.95606
v 2.98803 0.22373 -1.13391
v 2.98803 0.22373 -1.36609
v 3.1808 0.22373 -1.54394
v 3.47613 0.22373 -1.58425
v 3.73584 0.22373 -1.46817
v 4.02 0.45 -1.25
v 3.87495 0.45 -0.94146
v 3.50766 0.45 -0.77729
v 3.09 0.45 -0.83431
v 2.81739 0.45 -1.08583
v 2.81739 0.45 -1.41417
v 3.09 0.45 -1.66569
v 3.50766 0.45 -1.72271
v 3.87495 0.45 -1.55854
v 3.83841 0.67627 -1.25
v 3.73584 0.67627 -1.03183
v 3.47613 0.67627 -0.91575
v 3.1808 0.67627 -0.95606
v 2.98803 0.67627 -1.13391
v 2.98803 0.67627 -1.36609
v 3.1808 0.67627 -1.54394
v 3.47613 0.67627 -1.58425
v 3.73584 0.67627 -1.46817
v 3.4 0.77 -1.25
v 3.4 0.77 -1.25
v 3.4 0.77 -1.25
v 3.4 0.77 -1.25
v 3.4 0.77 -1.25
v 3.4 0.77 -1.25
v 3.4 0.77 -1.25
v 3.4 0.77 -1.25
v 3.4 0.77 -1.25
v 3.4 0.44 -1.25
v 3.4 0.44 -1.25
v 3.4 0.44 -1.25
v 3.4 0.44 -1.25
v 3.4 0.44 -1.25
v 3.4 0.44 -1.25
v 3.4 0.44 -1.25
v 3.4 0.44 -1.25
v 3.62551 0.525 -1.25
v 3.55946 0.525 -1.12655
v 3.4 0.525 -1.07541
v 3.24054 0.525 -1.12655
v 3.17449 0.525 -1.25
v 3.24054 0.525 -1.37345
v 3.4 0.525 -1.42459
v 3.55946 0.525 -1.37345
v 3.62551 0.695 -1.25
v 3.55946 0.695 -1.12655
v 3.4 0.695 -1.07541
v 3.24054 0.695 -1.12655
v 3.17449 0.695 -1.25
v 3.24054 0.695 -1.37345
v 3.4 0.695 -1.42459
v 3.55946 0.695 -1.37345
v 3.4 0.78 -1.25
v 3.4 0.78 -1.25
v 3.4 0.78 -1.25
v 3.4 0.78 -1.25
v 3.4 0.78 -1.25
v 3.4 0.78 -1.25
v 3.4 0.78 -1.25
v 3.4 0.78 -1.25
g seep_film_0
usemtl methane_film
f 1 2 16 15
f 2 3 17 16
f 3 4 18 17
f 4 5 19 18
f 5 6 20 19
f 6 7 21 20
f 7 8 22 21
f 8 9 23 22
f 9 10 24 23
f 10 11 25 24
f 11 12 26 25
f 12 13 27 26
f 13 14 28 27
f 14 1 15 28
f 15 16 30 29
f 16 17 31 30
f 17 18 32 31
f 18 19 33 32
f 19 20 34 33
f 20 21 35 34
f 21 22 36 35
f 22 23 37 36
f 23 24 38 37
f 24 25 39 38
f 25 26 40 39
f 26 27 41 40
f 27 28 42 41
f 28 15 29 42
f 29 30 44 43
f 30 31 45 44
f 31 32 46 45
f 32 33 47 46
f 33 34 48 47
f 34 35 49 48
f 35 36 50 49
f 36 37 51 50
f 37 38 52 51
f 38 39 53 52
f 39 40 54 53
f 40 41 55 54
f 41 42 56 55
f 42 29 43 56
g anoxic_pool_0
usemtl methane
f 57 58 71 70
f 58 59 72 71
f 59 60 73 72
f 60 61 74 73
f 61 62 75 74
f 62 63 76 75
f 63 64 77 76
f 64 65 78 77
f 65 66 79 78
f 66 67 80 79
f 67 68 81 80
f 68 69 82 81
f 69 57 70 82
f 70 71 84 83
f 71 72 85 84
f 72 73 86 85
f 73 74 87 86
f 74 75 88 87
f 75 76 89 88
f 76 77 90 89
f 77 78 91 90
f 78 79 92 91
f 79 80 93 92
f 80 81 94 93
f 81 82 95 94
f 82 70 83 95
f 83 84 97 96
f 84 85 98 97
f 85 86 99 98
f 86 87 100 99
f 87 88 101 100
f 88 89 102 101
f 89 90 103 102
f 90 91 104 103
f 91 92 105 104
f 92 93 106 105
f 93 94 107 106
f 94 95 108 107
f 95 83 96 108
g seep_film_1
usemtl methane_film
f 109 110 124 123
f 110 111 125 124
f 111 112 126 125
f 112 113 127 126
f 113 114 128 127
f 114 115 129 128
f 115 116 130 129
f 116 117 131 130
f 117 118 132 131
f 118 119 133 132
f 119 120 134 133
f 120 121 135 134
f 121 122 136 135
f 122 109 123 136
f 123 124 138 137
f 124 125 139 138
f 125 126 140 139
f 126 127 141 140
f 127 128 142 141
f 128 129 143 142
f 129 130 144 143
f 130 131 145 144
f 131 132 146 145
f 132 133 147 146
f 133 134 148 147
f 134 135 149 148
f 135 136 150 149
f 136 123 137 150
f 137 138 152 151
f 138 139 153 152
f 139 140 154 153
f 140 141 155 154
f 141 142 156 155
f 142 143 157 156
f 143 144 158 157
f 144 145 159 158
f 145 146 160 159
f 146 147 161 160
f 147 148 162 161
f 148 149 163 162
f 149 150 164 163
f 150 137 151 164
g anoxic_pool_1
usemtl methane
f 165 166 179 178
f 166 167 180 179
f 167 168 181 180
f 168 169 182 181
f 169 170 183 182
f 170 171 184 183
f 171 172 185 184
f 172 173 186 185
f 173 174 187 186
f 174 175 188 187
f 175 176 189 188
f 176 177 190 189
f 177 165 178 190
f 178 179 192 191
f 179 180 193 192
f 180 181 194 193
f 181 182 195 194
f 182 183 196 195
f 183 184 197 196
f 184 185 198 197
f 185 186 199 198
f 186 187 200 199
f 187 188 201 200
f 188 189 202 201
f 189 190 203 202
f 190 178 191 203
f 191 192 205 204
f 192 193 206 205
f 193 194 207 206
f 194 195 208 207
f 195 196 209 208
f 196 197 210 209
f 197 198 211 210
f 198 199 212 211
f 199 200 213 212
f 200 201 214 213
f 201 202 215 214
f 202 203 216 215
f 203 191 204 216
g seep_film_2
usemtl methane_film
f 217 218 232 231
f 218 219 233 232
f 219 220 234 233
f 220 221 235 234
f 221 222 236 235
f 222 223 237 236
f 223 224 238 237
f 224 225 239 238
f 225 226 240 239
f 226 227 241 240
f 227 228 242 241
f 228 229 243 242
f 229 230 244 243
f 230 217 231 244
f 231 232 246 245
f 232 233 247 246
f 233 234 248 247
f 234 235 249 248
f 235 236 250 249
f 236 237 251 250
f 237 238 252 251
f 238 239 253 252
f 239 240 254 253
f 240 241 255 254
f 241 242 256 255
f 242 243 257 256
f 243 244 258 257
f 244 231 245 258
f 245 246 260 259
f 246 247 261 260
f 247 248 262 261
f 248 249 263 262
f 249 250 264 263
f 250 251 265 264
f 251 252 266 265
f 252 253 267 266
f 253 254 268 267
f 254 255 269 268
f 255 256 270 269
f 256 257 271 270
f 257 258 272 271
f 258 245 259 272
g anoxic_pool_2
usemtl methane
f 273 274 287 286
f 274 275 288 287
f 275 276 289 288
f 276 277 290 289
f 277 278 291 290
f 278 279 292 291
f 279 280 293 292
f 280 281 294 293
f 281 282 295 294
f 282 283 296 295
f 283 284 297 296
f 284 285 298 297
f 285 273 286 298
f 286 287 300 299
f 287 288 301 300
f 288 289 302 301
f 289 290 303 302
f 290 291 304 303
f 291 292 305 304
f 292 293 306 305
f 293 294 307 306
f 294 295 308 307
f 295 296 309 308
f 296 297 310 309
f 297 298 311 310
f 298 286 299 311
f 299 300 313 312
f 300 301 314 313
f 301 302 315 314
f 302 303 316 315
f 303 304 317 316
f 304 305 318 317
f 305 306 319 318
f 306 307 320 319
f 307 308 321 320
f 308 309 322 321
f 309 310 323 322
f 310 311 324 323
f 311 299 312 324
g gas_dome_0
usemtl methane_rim
f 325 326 335 334
f 326 327 336 335
f 327 328 337 336
f 328 329 338 337
f 329 330 339 338
f 330 331 340 339
f 331 332 341 340
f 332 333 342 341
f 333 325 334 342
f 334 335 344 343
f 335 336 345 344
f 336 337 346 345
f 337 338 347 346
f 338 339 348 347
f 339 340 349 348
f 340 341 350 349
f 341 342 351 350
f 342 334 343 351
f 343 344 353 352
f 344 345 354 353
f 345 346 355 354
f 346 347 356 355
f 347 348 357 356
f 348 349 358 357
f 349 350 359 358
f 350 351 360 359
f 351 343 352 360
f 352 353 362 361
f 353 354 363 362
f 354 355 364 363
f 355 356 365 364
f 356 357 366 365
f 357 358 367 366
f 358 359 368 367
f 359 360 369 368
f 360 352 361 369
g gas_eye_0
usemtl methane_film
f 370 371 379 378
f 371 372 380 379
f 372 373 381 380
f 373 374 382 381
f 374 375 383 382
f 375 376 384 383
f 376 377 385 384
f 377 370 378 385
f 378 379 387 386
f 379 380 388 387
f 380 381 389 388
f 381 382 390 389
f 382 383 391 390
f 383 384 392 391
f 384 385 393 392
f 385 378 386 393
f 386 387 395 394
f 387 388 396 395
f 388 389 397 396
f 389 390 398 397
f 390 391 399 398
f 391 392 400 399
f 392 393 401 400
f 393 386 394 401
g gas_dome_1
usemtl methane_rim
f 402 403 412 411
f 403 404 413 412
f 404 405 414 413
f 405 406 415 414
f 406 407 416 415
f 407 408 417 416
f 408 409 418 417
f 409 410 419 418
f 410 402 411 419
f 411 412 421 420
f 412 413 422 421
f 413 414 423 422
f 414 415 424 423
f 415 416 425 424
f 416 417 426 425
f 417 418 427 426
f 418 419 428 427
f 419 411 420 428
f 420 421 430 429
f 421 422 431 430
f 422 423 432 431
f 423 424 433 432
f 424 425 434 433
f 425 426 435 434
f 426 427 436 435
f 427 428 437 436
f 428 420 429 437
f 429 430 439 438
f 430 431 440 439
f 431 432 441 440
f 432 433 442 441
f 433 434 443 442
f 434 435 444 443
f 435 436 445 444
f 436 437 446 445
f 437 429 438 446
g gas_eye_1
usemtl methane_film
f 447 448 456 455
f 448 449 457 456
f 449 450 458 457
f 450 451 459 458
f 451 452 460 459
f 452 453 461 460
f 453 454 462 461
f 454 447 455 462
f 455 456 464 463
f 456 457 465 464
f 457 458 466 465
f 458 459 467 466
f 459 460 468 467
f 460 461 469 468
f 461 462 470 469
f 462 455 463 470
f 463 464 472 471
f 464 465 473 472
f 465 466 474 473
f 466 467 475 474
f 467 468 476 475
f 468 469 477 476
f 469 470 478 477
f 470 463 471 478
g gas_dome_2
usemtl methane_rim
f 479 480 489 488
f 480 481 490 489
f 481 482 491 490
f 482 483 492 491
f 483 484 493 492
f 484 485 494 493
f 485 486 495 494
f 486 487 496 495
f 487 479 488 496
f 488 489 498 497
f 489 490 499 498
f 490 491 500 499
f 491 492 501 500
f 492 493 502 501
f 493 494 503 502
f 494 495 504 503
f 495 496 505 504
f 496 488 497 505
f 497 498 507 506
f 498 499 508 507
f 499 500 509 508
f 500 501 510 509
f 501 502 511 510
f 502 503 512 511
f 503 504 513 512
f 504 505 514 513
f 505 497 506 514
f 506 507 516 515
f 507 508 517 516
f 508 509 518 517
f 509 510 519 518
f 510 511 520 519
f 511 512 521 520
f 512 513 522 521
f 513 514 523 522
f 514 506 515 523
g gas_eye_2
usemtl methane_film
f 524 525 533 532
f 525 526 534 533
f 526 527 535 534
f 527 528 536 535
f 528 529 537 536
f 529 530 538 537
f 530 531 539 538
f 531 524 532 539
f 532 533 541 540
f 533 534 542 541
f 534 535 543 542
f 535 536 544 543
f 536 537 545 544
f 537 538 546 545
f 538 539 547 546
f 539 532 540 547
f 540 541 549 548
f 541 542 550 549
f 542 543 551 550
f 543 544 552 551
f 544 545 553 552
f 545 546 554 553
f 546 547 555 554
f 547 540 548 555
g gas_dome_3
usemtl methane_rim
f 556 557 566 565
f 557 558 567 566
f 558 559 568 567
f 559 560 569 568
f 560 561 570 569
f 561 562 571 570
f 562 563 572 571
f 563 564 573 572
f 564 556 565 573
f 565 566 575 574
f 566 567 576 575
f 567 568 577 576
f 568 569 578 577
f 569 570 579 578
f 570 571 580 579
f 571 572 581 580
f 572 573 582 581
f 573 565 574 582
f 574 575 584 583
f 575 576 585 584
f 576 577 586 585
f 577 578 587 586
f 578 579 588 587
f 579 580 589 588
f 580 581 590 589
f 581 582 591 590
f 582 574 583 591
f 583 584 593 592
f 584 585 594 593
f 585 586 595 594
f 586 587 596 595
f 587 588 597 596
f 588 589 598 597
f 589 590 599 598
f 590 591 600 599
f 591 583 592 600
g gas_eye_3
usemtl methane_film
f 601 602 610 609
f 602 603 611 610
f 603 604 612 611
f 604 605 613 612
f 605 606 614 613
f 606 607 615 614
f 607 608 616 615
f 608 601 609 616
f 609 610 618 617
f 610 611 619 618
f 611 612 620 619
f 612 613 621 620
f 613 614 622 621
f 614 615 623 622
f 615 616 624 623
f 616 609 617 624
f 617 618 626 625
f 618 619 627 626
f 619 620 628 627
f 620 621 629 628
f 621 622 630 629
f 622 623 631 630
f 623 624 632 631
f 624 617 625 632
