# Generated environment blockout: methane_crater_b
mtllib environment_blockout.mtl
o methane_crater_b
v 0.0 0.0 0.0
v 0.0 0.0 0.0
v 0.0 0.0 0.0
v 0.0 0.0 0.0
v -0.0 0.0 0.0
v -0.0 0.0 0.0
v -0.0 0.0 0.0
v -0.0 0.0 0.0
v -0.0 0.0 -0.0
v -0.0 0.0 -0.0
v -0.0 0.0 -0.0
v 0.0 0.0 -0.0
v 0.0 0.0 -0.0
v 0.0 0.0 -0.0
v 2.77128 0.03 0.0
v 2.49684 0.03 0.82666
v 1.72787 0.03 1.48959
v 0.61667 0.03 1.85749
v -0.61667 0.03 1.85749
v -1.72787 0.03 1.48959
v -2.49684 0.03 0.82666
v -2.77128 0.03 0.0
v -2.49684 0.03 -0.82666
v -1.72787 0.03 -1.48959
v -0.61667 0.03 -1.85749
v 0.61667 0.03 -1.85749
v 1.72787 0.03 -1.48959
v 2.49684 0.03 -0.82666
v 2.77128 0.09 0.0
v 2.49684 0.09 0.82666
v 1.72787 0.09 1.48959
v 0.61667 0.09 1.85749
v -0.61667 0.09 1.85749
v -1.72787 0.09 1.48959
v -2.49684 0.09 0.82666
v -2.77128 0.09 0.0
v -2.49684 0.09 -0.82666
v -1.72787 0.09 -1.48959
v -0.61667 0.09 -1.85749
v 0.61667 0.09 -1.85749
v 1.72787 0.09 -1.48959
v 2.49684 0.09 -0.82666
v 0.0 0.12 0.0
v 0.0 0.12 0.0
v 0.0 0.12 0.0
v 0.0 0.12 0.0
v -0.0 0.12 0.0
v -0.0 0.12 0.0
v -0.0 0.12 0.0
v -0.0 0.12 0.0
v -0.0 0.12 -0.0
v -0.0 0.12 -0.0
v -0.0 0.12 -0.0
v 0.0 0.12 -0.0
v 0.0 0.12 -0.0
v 0.0 0.12 -0.0
v 2.7 0.04 0.0
v 2.7 0.04 0.0
v 2.7 0.04 0.0
v 2.7 0.04 0.0
v 2.7 0.04 0.0
v 2.7 0.04 -0.0
v 2.7 0.04 -0.0
v 2.7 0.04 -0.0
v 3.23033 0.11615 0.0
v 3.075 0.11615 0.29
v 2.7 0.11615 0.41012
v 2.325 0.11615 0.29
v 2.16967 0.11615 0.0
v 2.325 0.11615 -0.29
v 2.7 0.11615 -0.41012
v 3.075 0.11615 -0.29
v 3.45 0.3 0.0
v 3.23033 0.3 0.41012
v 2.7 0.3 0.58
v 2.16967 0.3 0.41012
v 1.95 0.3 0.0
v 2.16967 0.3 -0.41012
v 2.7 0.3 -0.58
v 3.23033 0.3 -0.41012
v 3.23033 0.48385 0.0
v 3.075 0.48385 0.29
v 2.7 0.48385 0.41012
v 2.325 0.48385 0.29
v 2.16967 0.48385 0.0
v 2.325 0.48385 -0.29
v 2.7 0.48385 -0.41012
v 3.075 0.48385 -0.29
v 2.7 0.56 0.0
v 2.7 0.56 0.0
v 2.7 0.56 0.0
v 2.7 0.56 0.0
v 2.7 0.56 0.0
v 2.7 0.56 -0.0
v 2.7 0.56 -0.0
v 2.7 0.56 -0.0
v 2.06832 0.04 1.15702
v 2.06832 0.04 1.15702
v 2.06832 0.04 1.15702
v 2.06832 0.04 1.15702
v 2.06832 0.04 1.15702
v 2.06832 0.04 1.15702
v 2.06832 0.04 1.15702
v 2.06832 0.04 1.15702
v 2.59865 0.11615 1.15702
v 2.44332 0.11615 1.44702
v 2.06832 0.11615 1.56714
v 1.69332 0.11615 1.44702
v 1.53799 0.11615 1.15702
v 1.69332 0.11615 0.86702
v 2.06832 0.11615 0.7469
v 2.44332 0.11615 0.86702
v 2.81832 0.3 1.15702
v 2.59865 0.3 1.56714
v 2.06832 0.3 1.73702
v 1.53799 0.3 1.56714
v 1.31832 0.3 1.15702
v 1.53799 0.3 0.7469
v 2.06832 0.3 0.57702
v 2.59865 0.3 0.7469
v 2.59865 0.48385 1.15702
v 2.44332 0.48385 1.44702
v 2.06832 0.48385 1.56714
v 1.69332 0.48385 1.44702
v 1.53799 0.48385 1.15702
v 1.69332 0.48385 0.86702
v 2.06832 0.48385 0.7469
v 2.44332 0.48385 0.86702
v 2.06832 0.56 1.15702
v 2.06832 0.56 1.15702
v 2.06832 0.56 1.15702
v 2.06832 0.56 1.15702
v 2.06832 0.56 1.15702
v 2.06832 0.56 1.15702
v 2.06832 0.56 1.15702
v 2.06832 0.56 1.15702
v 0.46885 0.04 1.77265
v 0.46885 0.04 1.77265
v 0.46885 0.04 1.77265
v 0.46885 0.04 1.77265
v 0.46885 0.04 1.77265
v 0.46885 0.04 1.77265
v 0.46885 0.04 1.77265
v 0.46885 0.04 1.77265
v 0.99918 0.11615 1.77265
v 0.84385 0.11615 2.06265
v 0.46885 0.11615 2.18278
v 0.09385 0.11615 2.06265
v -0.06148 0.11615 1.77265
v 0.09385 0.11615 1.48265
v 0.46885 0.11615 1.36253
v 0.84385 0.11615 1.48265
v 1.21885 0.3 1.77265
v 0.99918 0.3 2.18278
v 0.46885 0.3 2.35265
v -0.06148 0.3 2.18278
v -0.28115 0.3 1.77265
v -0.06148 0.3 1.36253
v 0.46885 0.3 1.19265
v 0.99918 0.3 1.36253
v 0.99918 0.48385 1.77265
v 0.84385 0.48385 2.06265
v 0.46885 0.48385 2.18278
v 0.09385 0.48385 2.06265
v -0.06148 0.48385 1.77265
v 0.09385 0.48385 1.48265
v 0.46885 0.48385 1.36253
v 0.84385 0.48385 1.48265
v 0.46885 0.56 1.77265
v 0.46885 0.56 1.77265
v 0.46885 0.56 1.77265
v 0.46885 0.56 1.77265
v 0.46885 0.56 1.77265
v 0.46885 0.56 1.77265
v 0.46885 0.56 1.77265
v 0.46885 0.56 1.77265
v -1.35 0.04 1.55885
v -1.35 0.04 1.55885
v -1.35 0.04 1.55885
v -1.35 0.04 1.55885
v -1.35 0.04 1.55885
v -1.35 0.04 1.55885
v -1.35 0.04 1.55885
v -1.35 0.04 1.55885
v -0.81967 0.11615 1.55885
v -0.975 0.11615 1.84885
v -1.35 0.11615 1.96897
v -1.725 0.11615 1.84885
v -1.88033 0.11615 1.55885
v -1.725 0.11615 1.26885
v -1.35 0.11615 1.14872
v -0.975 0.11615 1.26885
v -0.6 0.3 1.55885
v -0.81967 0.3 1.96897
v -1.35 0.3 2.13885
v -1.88033 0.3 1.96897
v -2.1 0.3 1.55885
v -1.88033 0.3 1.14872
v -1.35 0.3 0.97885
v -0.81967 0.3 1.14872
v -0.81967 0.48385 1.55885
v -0.975 0.48385 1.84885
v -1.35 0.48385 1.96897
v -1.725 0.48385 1.84885
v -1.88033 0.48385 1.55885
v -1.725 0.48385 1.26885
v -1.35 0.48385 1.14872
v -0.975 0.48385 1.26885
v -1.35 0.56 1.55885
v -1.35 0.56 1.55885
v -1.35 0.56 1.55885
v -1.35 0.56 1.55885
v -1.35 0.56 1.55885
v -1.35 0.56 1.55885
v -1.35 0.56 1.55885
v -1.35 0.56 1.55885
v -2.53717 0.04 0.61564
v -2.53717 0.04 0.61564
v -2.53717 0.04 0.61564
v -2.53717 0.04 0.61564
v -2.53717 0.04 0.61564
v -2.53717 0.04 0.61564
v -2.53717 0.04 0.61564
v -2.53717 0.04 0.61564
v -2.00684 0.11615 0.61564
v -2.16217 0.11615 0.90564
v -2.53717 0.11615 1.02576
v -2.91217 0.11615 0.90564
v -3.0675 0.11615 0.61564
v -2.91217 0.11615 0.32564
v -2.53717 0.11615 0.20551
v -2.16217 0.11615 0.32564
v -1.78717 0.3 0.61564
v -2.00684 0.3 1.02576
v -2.53717 0.3 1.19564
v -3.0675 0.3 1.02576
v -3.28717 0.3 0.61564
v -3.0675 0.3 0.20551
v -2.53717 0.3 0.03564
v -2.00684 0.3 0.20551
v -2.00684 0.48385 0.61564
v -2.16217 0.48385 0.90564
v -2.53717 0.48385 1.02576
v -2.91217 0.48385 0.90564
v -3.0675 0.48385 0.61564
v -2.91217 0.48385 0.32564
v -2.53717 0.48385 0.20551
v -2.16217 0.48385 0.32564
v -2.53717 0.56 0.61564
v -2.53717 0.56 0.61564
v -2.53717 0.56 0.61564
v -2.53717 0.56 0.61564
v -2.53717 0.56 0.61564
v -2.53717 0.56 0.61564
v -2.53717 0.56 0.61564
v -2.53717 0.56 0.61564
v -2.53717 0.04 -0.61564
v -2.53717 0.04 -0.61564
v -2.53717 0.04 -0.61564
v -2.53717 0.04 -0.61564
v -2.53717 0.04 -0.61564
v -2.53717 0.04 -0.61564
v -2.53717 0.04 -0.61564
v -2.53717 0.04 -0.61564
v -2.00684 0.11615 -0.61564
v -2.16217 0.11615 -0.32564
v -2.53717 0.11615 -0.20551
v -2.91217 0.11615 -0.32564
v -3.0675 0.11615 -0.61564
v -2.91217 0.11615 -0.90564
v -2.53717 0.11615 -1.02576
v -2.16217 0.11615 -0.90564
v -1.78717 0.3 -0.61564
v -2.00684 0.3 -0.20551
v -2.53717 0.3 -0.03564
v -3.0675 0.3 -0.20551
v -3.28717 0.3 -0.61564
v -3.0675 0.3 -1.02576
v -2.53717 0.3 -1.19564
v -2.00684 0.3 -1.02576
v -2.00684 0.48385 -0.61564
v -2.16217 0.48385 -0.32564
v -2.53717 0.48385 -0.20551
v -2.91217 0.48385 -0.32564
v -3.0675 0.48385 -0.61564
v -2.91217 0.48385 -0.90564
v -2.53717 0.48385 -1.02576
v -2.16217 0.48385 -0.90564
v -2.53717 0.56 -0.61564
v -2.53717 0.56 -0.61564
v -2.53717 0.56 -0.61564
v -2.53717 0.56 -0.61564
v -2.53717 0.56 -0.61564
v -2.53717 0.56 -0.61564
v -2.53717 0.56 -0.61564
v -2.53717 0.56 -0.61564
v -1.35 0.04 -1.55885
v -1.35 0.04 -1.55885
v -1.35 0.04 -1.55885
v -1.35 0.04 -1.55885
v -1.35 0.04 -1.55885
v -1.35 0.04 -1.55885
v -1.35 0.04 -1.55885
v -1.35 0.04 -1.55885
v -0.81967 0.11615 -1.55885
v -0.975 0.11615 -1.26885
v -1.35 0.11615 -1.14872
v -1.725 0.11615 -1.26885
v -1.88033 0.11615 -1.55885
v -1.725 0.11615 -1.84885
v -1.35 0.11615 -1.96897
v -0.975 0.11615 -1.84885
v -0.6 0.3 -1.55885
v -0.81967 0.3 -1.14872
v -1.35 0.3 -0.97885
v -1.88033 0.3 -1.14872
v -2.1 0.3 -1.55885
v -1.88033 0.3 -1.96897
v -1.35 0.3 -2.13885
v -0.81967 0.3 -1.96897
v -0.81967 0.48385 -1.55885
v -0.975 0.48385 -1.26885
v -1.35 0.48385 -1.14872
v -1.725 0.48385 -1.26885
v -1.88033 0.48385 -1.55885
v -1.725 0.48385 -1.84885
v -1.35 0.48385 -1.96897
v -0.975 0.48385 -1.84885
v -1.35 0.56 -1.55885
v -1.35 0.56 -1.55885
v -1.35 0.56 -1.55885
v -1.35 0.56 -1.55885
v -1.35 0.56 -1.55885
v -1.35 0.56 -1.55885
v -1.35 0.56 -1.55885
v -1.35 0.56 -1.55885
v 0.46885 0.04 -1.77265
v 0.46885 0.04 -1.77265
v 0.46885 0.04 -1.77265
v 0.46885 0.04 -1.77265
v 0.46885 0.04 -1.77265
v 0.46885 0.04 -1.77265
v 0.46885 0.04 -1.77265
v 0.46885 0.04 -1.77265
v 0.99918 0.11615 -1.77265
v 0.84385 0.11615 -1.48265
v 0.46885 0.11615 -1.36253
v 0.09385 0.11615 -1.48265
v -0.06148 0.11615 -1.77265
v 0.09385 0.11615 -2.06265
v 0.46885 0.11615 -2.18278
v 0.84385 0.11615 -2.06265
v 1.21885 0.3 -1.77265
v 0.99918 0.3 -1.36253
v 0.46885 0.3 -1.19265
v -0.06148 0.3 -1.36253
v -0.28115 0.3 -1.77265
v -0.06148 0.3 -2.18278
v 0.46885 0.3 -2.35265
v 0.99918 0.3 -2.18278
v 0.99918 0.48385 -1.77265
v 0.84385 0.48385 -1.48265
v 0.46885 0.48385 -1.36253
v 0.09385 0.48385 -1.48265
v -0.06148 0.48385 -1.77265
v 0.09385 0.48385 -2.06265
v 0.46885 0.48385 -2.18278
v 0.84385 0.48385 -2.06265
v 0.46885 0.56 -1.77265
v 0.46885 0.56 -1.77265
v 0.46885 0.56 -1.77265
v 0.46885 0.56 -1.77265
v 0.46885 0.56 -1.77265
v 0.46885 0.56 -1.77265
v 0.46885 0.56 -1.77265
v 0.46885 0.56 -1.77265
v 2.06832 0.04 -1.15702
v 2.06832 0.04 -1.15702
v 2.06832 0.04 -1.15702
v 2.06832 0.04 -1.15702
v 2.06832 0.04 -1.15702
v 2.06832 0.04 -1.15702
v 2.06832 0.04 -1.15702
v 2.06832 0.04 -1.15702
v 2.59865 0.11615 -1.15702
v 2.44332 0.11615 -0.86702
v 2.06832 0.11615 -0.7469
v 1.69332 0.11615 -0.86702
v 1.53799 0.11615 -1.15702
v 1.69332 0.11615 -1.44702
v 2.06832 0.11615 -1.56714
v 2.44332 0.11615 -1.44702
v 2.81832 0.3 -1.15702
v 2.59865 0.3 -0.7469
v 2.06832 0.3 -0.57702
v 1.53799 0.3 -0.7469
v 1.31832 0.3 -1.15702
v 1.53799 0.3 -1.56714
v 2.06832 0.3 -1.73702
v 2.59865 0.3 -1.56714
v 2.59865 0.48385 -1.15702
v 2.44332 0.48385 -0.86702
v 2.06832 0.48385 -0.7469
v 1.69332 0.48385 -0.86702
v 1.53799 0.48385 -1.15702
v 1.69332 0.48385 -1.44702
v 2.06832 0.48385 -1.56714
v 2.44332 0.48385 -1.44702
v 2.06832 0.56 -1.15702
v 2.06832 0.56 -1.15702
v 2.06832 0.56 -1.15702
v 2.06832 0.56 -1.15702
v 2.06832 0.56 -1.15702
v 2.06832 0.56 -1.15702
v 2.06832 0.56 -1.15702
v 2.06832 0.56 -1.15702
v -0.9 0.08 0.2
v -0.9 0.08 0.2
v -0.9 0.08 0.2
v -0.9 0.08 0.2
v -0.9 0.08 0.2
v -0.9 0.08 0.2
v -0.9 0.08 0.2
v -0.9 0.08 0.2
v -0.67373 0.1913 0.2
v -0.74 0.1913 0.36
v -0.9 0.1913 0.42627
v -1.06 0.1913 0.36
v -1.12627 0.1913 0.2
v -1.06 0.1913 0.04
v -0.9 0.1913 -0.02627
v -0.74 0.1913 0.04
v -0.58 0.46 0.2
v -0.67373 0.46 0.42627
v -0.9 0.46 0.52
v -1.12627 0.46 0.42627
v -1.22 0.46 0.2
v -1.12627 0.46 -0.02627
v -0.9 0.46 -0.12
v -0.67373 0.46 -0.02627
v -0.67373 0.7287 0.2
v -0.74 0.7287 0.36
v -0.9 0.7287 0.42627
v -1.06 0.7287 0.36
v -1.12627 0.7287 0.2
v -1.06 0.7287 0.04
v -0.9 0.7287 -0.02627
v -0.74 0.7287 0.04
v -0.9 0.84 0.2
v -0.9 0.84 0.2
v -0.9 0.84 0.2
v -0.9 0.84 0.2
v -0.9 0.84 0.2
v -0.9 0.84 0.2
v -0.9 0.84 0.2
v -0.9 0.84 0.2
v 0.5 0.08 -0.4
v 0.5 0.08 -0.4
v 0.5 0.08 -0.4
v 0.5 0.08 -0.4
v 0.5 0.08 -0.4
v 0.5 0.08 -0.4
v 0.5 0.08 -0.4
v 0.5 0.08 -0.4
v 0.79698 0.1913 -0.4
v 0.71 0.1913 -0.19
v 0.5 0.1913 -0.10302
v 0.29 0.1913 -0.19
v 0.20302 0.1913 -0.4
v 0.29 0.1913 -0.61
v 0.5 0.1913 -0.69698
v 0.71 0.1913 -0.61
v 0.92 0.46 -0.4
v 0.79698 0.46 -0.10302
v 0.5 0.46 0.02
v 0.20302 0.46 -0.10302
v 0.08 0.46 -0.4
v 0.20302 0.46 -0.69698
v 0.5 0.46 -0.82
v 0.79698 0.46 -0.69698
v 0.79698 0.7287 -0.4
v 0.71 0.7287 -0.19
v 0.5 0.7287 -0.10302
v 0.29 0.7287 -0.19
v 0.20302 0.7287 -0.4
v 0.29 0.7287 -0.61
v 0.5 0.7287 -0.69698
v 0.71 0.7287 -0.61
v 0.5 0.84 -0.4
v 0.5 0.84 -0.4
v 0.5 0.84 -0.4
v 0.5 0.84 -0.4
v 0.5 0.84 -0.4
v 0.5 0.84 -0.4
v 0.5 0.84 -0.4
v 0.5 0.84 -0.4
v 1.25 0.08 0.55
v 1.25 0.08 0.55
v 1.25 0.08 0.55
v 1.25 0.08 0.55
v 1.25 0.08 0.55
v 1.25 0.08 0.55
v 1.25 0.08 0.55
v 1.25 0.08 0.55
v 1.44092 0.1913 0.55
v 1.385 0.1913 0.685
v 1.25 0.1913 0.74092
v 1.115 0.1913 0.685
v 1.05908 0.1913 0.55
v 1.115 0.1913 0.415
v 1.25 0.1913 0.35908
v 1.385 0.1913 0.415
v 1.52 0.46 0.55
v 1.44092 0.46 0.74092
v 1.25 0.46 0.82
v 1.05908 0.46 0.74092
v 0.98 0.46 0.55
v 1.05908 0.46 0.35908
v 1.25 0.46 0.28
v 1.44092 0.46 0.35908
v 1.44092 0.7287 0.55
v 1.385 0.7287 0.685
v 1.25 0.7287 0.74092
v 1.115 0.7287 0.685
v 1.05908 0.7287 0.55
v 1.115 0.7287 0.415
v 1.25 0.7287 0.35908
v 1.385 0.7287 0.415
v 1.25 0.84 0.55
v 1.25 0.84 0.55
v 1.25 0.84 0.55
v 1.25 0.84 0.55
v 1.25 0.84 0.55
v 1.25 0.84 0.55
v 1.25 0.84 0.55
v 1.25 0.84 0.55
g pool
usemtl methane
f 1 2 16 15
f 2 3 17 16
f 3 4 18 17
f 4 5 19 18
f 5 6 20 19
f 6 7 21 20
f 7 8 22 21
f 8 9 23 22
f 9 10 24 23
f 10 11 25 24
f 11 12 26 25
f 12 13 27 26
f 13 14 28 27
f 14 1 15 28
f 15 16 30 29
f 16 17 31 30
f 17 18 32 31
f 18 19 33 32
f 19 20 34 33
f 20 21 35 34
f 21 22 36 35
f 22 23 37 36
f 23 24 38 37
f 24 25 39 38
f 25 26 40 39
f 26 27 41 40
f 27 28 42 41
f 28 15 29 42
f 29 30 44 43
f 30 31 45 44
f 31 32 46 45
f 32 33 47 46
f 33 34 48 47
f 34 35 49 48
f 35 36 50 49
f 36 37 51 50
f 37 38 52 51
f 38 39 53 52
f 39 40 54 53
f 40 41 55 54
f 41 42 56 55
f 42 29 43 56
g rim_0
usemtl methane_rim
f 57 58 66 65
f 58 59 67 66
f 59 60 68 67
f 60 61 69 68
f 61 62 70 69
f 62 63 71 70
f 63 64 72 71
f 64 57 65 72
f 65 66 74 73
f 66 67 75 74
f 67 68 76 75
f 68 69 77 76
f 69 70 78 77
f 70 71 79 78
f 71 72 80 79
f 72 65 73 80
f 73 74 82 81
f 74 75 83 82
f 75 76 84 83
f 76 77 85 84
f 77 78 86 85
f 78 79 87 86
f 79 80 88 87
f 80 73 81 88
f 81 82 90 89
f 82 83 91 90
f 83 84 92 91
f 84 85 93 92
f 85 86 94 93
f 86 87 95 94
f 87 88 96 95
f 88 81 89 96
g rim_1
usemtl methane_rim
f 97 98 106 105
f 98 99 107 106
f 99 100 108 107
f 100 101 109 108
f 101 102 110 109
f 102 103 111 110
f 103 104 112 111
f 104 97 105 112
f 105 106 114 113
f 106 107 115 114
f 107 108 116 115
f 108 109 117 116
f 109 110 118 117
f 110 111 119 118
f 111 112 120 119
f 112 105 113 120
f 113 114 122 121
f 114 115 123 122
f 115 116 124 123
f 116 117 125 124
f 117 118 126 125
f 118 119 127 126
f 119 120 128 127
f 120 113 121 128
f 121 122 130 129
f 122 123 131 130
f 123 124 132 131
f 124 125 133 132
f 125 126 134 133
f 126 127 135 134
f 127 128 136 135
f 128 121 129 136
g rim_2
usemtl methane_rim
f 137 138 146 145
f 138 139 147 146
f 139 140 148 147
f 140 141 149 148
f 141 142 150 149
f 142 143 151 150
f 143 144 152 151
f 144 137 145 152
f 145 146 154 153
f 146 147 155 154
f 147 148 156 155
f 148 149 157 156
f 149 150 158 157
f 150 151 159 158
f 151 152 160 159
f 152 145 153 160
f 153 154 162 161
f 154 155 163 162
f 155 156 164 163
f 156 157 165 164
f 157 158 166 165
f 158 159 167 166
f 159 160 168 167
f 160 153 161 168
f 161 162 170 169
f 162 163 171 170
f 163 164 172 171
f 164 165 173 172
f 165 166 174 173
f 166 167 175 174
f 167 168 176 175
f 168 161 169 176
g rim_3
usemtl methane_rim
f 177 178 186 185
f 178 179 187 186
f 179 180 188 187
f 180 181 189 188
f 181 182 190 189
f 182 183 191 190
f 183 184 192 191
f 184 177 185 192
f 185 186 194 193
f 186 187 195 194
f 187 188 196 195
f 188 189 197 196
f 189 190 198 197
f 190 191 199 198
f 191 192 200 199
f 192 185 193 200
f 193 194 202 201
f 194 195 203 202
f 195 196 204 203
f 196 197 205 204
f 197 198 206 205
f 198 199 207 206
f 199 200 208 207
f 200 193 201 208
f 201 202 210 209
f 202 203 211 210
f 203 204 212 211
f 204 205 213 212
f 205 206 214 213
f 206 207 215 214
f 207 208 216 215
f 208 201 209 216
g rim_4
usemtl methane_rim
f 217 218 226 225
f 218 219 227 226
f 219 220 228 227
f 220 221 229 228
f 221 222 230 229
f 222 223 231 230
f 223 224 232 231
f 224 217 225 232
f 225 226 234 233
f 226 227 235 234
f 227 228 236 235
f 228 229 237 236
f 229 230 238 237
f 230 231 239 238
f 231 232 240 239
f 232 225 233 240
f 233 234 242 241
f 234 235 243 242
f 235 236 244 243
f 236 237 245 244
f 237 238 246 245
f 238 239 247 246
f 239 240 248 247
f 240 233 241 248
f 241 242 250 249
f 242 243 251 250
f 243 244 252 251
f 244 245 253 252
f 245 246 254 253
f 246 247 255 254
f 247 248 256 255
f 248 241 249 256
g rim_5
usemtl methane_rim
f 257 258 266 265
f 258 259 267 266
f 259 260 268 267
f 260 261 269 268
f 261 262 270 269
f 262 263 271 270
f 263 264 272 271
f 264 257 265 272
f 265 266 274 273
f 266 267 275 274
f 267 268 276 275
f 268 269 277 276
f 269 270 278 277
f 270 271 279 278
f 271 272 280 279
f 272 265 273 280
f 273 274 282 281
f 274 275 283 282
f 275 276 284 283
f 276 277 285 284
f 277 278 286 285
f 278 279 287 286
f 279 280 288 287
f 280 273 281 288
f 281 282 290 289
f 282 283 291 290
f 283 284 292 291
f 284 285 293 292
f 285 286 294 293
f 286 287 295 294
f 287 288 296 295
f 288 281 289 296
g rim_6
usemtl methane_rim
f 297 298 306 305
f 298 299 307 306
f 299 300 308 307
f 300 301 309 308
f 301 302 310 309
f 302 303 311 310
f 303 304 312 311
f 304 297 305 312
f 305 306 314 313
f 306 307 315 314
f 307 308 316 315
f 308 309 317 316
f 309 310 318 317
f 310 311 319 318
f 311 312 320 319
f 312 305 313 320
f 313 314 322 321
f 314 315 323 322
f 315 316 324 323
f 316 317 325 324
f 317 318 326 325
f 318 319 327 326
f 319 320 328 327
f 320 313 321 328
f 321 322 330 329
f 322 323 331 330
f 323 324 332 331
f 324 325 333 332
f 325 326 334 333
f 326 327 335 334
f 327 328 336 335
f 328 321 329 336
g rim_7
usemtl methane_rim
f 337 338 346 345
f 338 339 347 346
f 339 340 348 347
f 340 341 349 348
f 341 342 350 349
f 342 343 351 350
f 343 344 352 351
f 344 337 345 352
f 345 346 354 353
f 346 347 355 354
f 347 348 356 355
f 348 349 357 356
f 349 350 358 357
f 350 351 359 358
f 351 352 360 359
f 352 345 353 360
f 353 354 362 361
f 354 355 363 362
f 355 356 364 363
f 356 357 365 364
f 357 358 366 365
f 358 359 367 366
f 359 360 368 367
f 360 353 361 368
f 361 362 370 369
f 362 363 371 370
f 363 364 372 371
f 364 365 373 372
f 365 366 374 373
f 366 367 375 374
f 367 368 376 375
f 368 361 369 376
g rim_8
usemtl methane_rim
f 377 378 386 385
f 378 379 387 386
f 379 380 388 387
f 380 381 389 388
f 381 382 390 389
f 382 383 391 390
f 383 384 392 391
f 384 377 385 392
f 385 386 394 393
f 386 387 395 394
f 387 388 396 395
f 388 389 397 396
f 389 390 398 397
f 390 391 399 398
f 391 392 400 399
f 392 385 393 400
f 393 394 402 401
f 394 395 403 402
f 395 396 404 403
f 396 397 405 404
f 397 398 406 405
f 398 399 407 406
f 399 400 408 407
f 400 393 401 408
f 401 402 410 409
f 402 403 411 410
f 403 404 412 411
f 404 405 413 412
f 405 406 414 413
f 406 407 415 414
f 407 408 416 415
f 408 401 409 416
g dome_0
usemtl living_methane
f 417 418 426 425
f 418 419 427 426
f 419 420 428 427
f 420 421 429 428
f 421 422 430 429
f 422 423 431 430
f 423 424 432 431
f 424 417 425 432
f 425 426 434 433
f 426 427 435 434
f 427 428 436 435
f 428 429 437 436
f 429 430 438 437
f 430 431 439 438
f 431 432 440 439
f 432 425 433 440
f 433 434 442 441
f 434 435 443 442
f 435 436 444 443
f 436 437 445 444
f 437 438 446 445
f 438 439 447 446
f 439 440 448 447
f 440 433 441 448
f 441 442 450 449
f 442 443 451 450
f 443 444 452 451
f 444 445 453 452
f 445 446 454 453
f 446 447 455 454
f 447 448 456 455
f 448 441 449 456
g dome_1
usemtl living_methane
f 457 458 466 465
f 458 459 467 466
f 459 460 468 467
f 460 461 469 468
f 461 462 470 469
f 462 463 471 470
f 463 464 472 471
f 464 457 465 472
f 465 466 474 473
f 466 467 475 474
f 467 468 476 475
f 468 469 477 476
f 469 470 478 477
f 470 471 479 478
f 471 472 480 479
f 472 465 473 480
f 473 474 482 481
f 474 475 483 482
f 475 476 484 483
f 476 477 485 484
f 477 478 486 485
f 478 479 487 486
f 479 480 488 487
f 480 473 481 488
f 481 482 490 489
f 482 483 491 490
f 483 484 492 491
f 484 485 493 492
f 485 486 494 493
f 486 487 495 494
f 487 488 496 495
f 488 481 489 496
g dome_2
usemtl living_methane
f 497 498 506 505
f 498 499 507 506
f 499 500 508 507
f 500 501 509 508
f 501 502 510 509
f 502 503 511 510
f 503 504 512 511
f 504 497 505 512
f 505 506 514 513
f 506 507 515 514
f 507 508 516 515
f 508 509 517 516
f 509 510 518 517
f 510 511 519 518
f 511 512 520 519
f 512 505 513 520
f 513 514 522 521
f 514 515 523 522
f 515 516 524 523
f 516 517 525 524
f 517 518 526 525
f 518 519 527 526
f 519 520 528 527
f 520 513 521 528
f 521 522 530 529
f 522 523 531 530
f 523 524 532 531
f 524 525 533 532
f 525 526 534 533
f 526 527 535 534
f 527 528 536 535
f 528 521 529 536
