# Generated environment blockout: plant_cup_a
mtllib environment_blockout.mtl
o plant_cup_a
v 0.0 0.0 0.0
v 0.0 0.0 0.0
v 0.0 0.0 0.0
v -0.0 0.0 0.0
v -0.0 0.0 0.0
v -0.0 0.0 -0.0
v -0.0 0.0 -0.0
v 0.0 0.0 -0.0
v 0.38971 0.075 0.0
v 0.27557 0.075 0.27557
v 0.0 0.075 0.38971
v -0.27557 0.075 0.27557
v -0.38971 0.075 0.0
v -0.27557 0.075 -0.27557
v -0.0 0.075 -0.38971
v 0.27557 0.075 -0.27557
v 0.38971 0.225 0.0
v 0.27557 0.225 0.27557
v 0.0 0.225 0.38971
v -0.27557 0.225 0.27557
v -0.38971 0.225 0.0
v -0.27557 0.225 -0.27557
v -0.0 0.225 -0.38971
v 0.27557 0.225 -0.27557
v 0.0 0.3 0.0
v 0.0 0.3 0.0
v 0.0 0.3 0.0
v -0.0 0.3 0.0
v -0.0 0.3 0.0
v -0.0 0.3 -0.0
v -0.0 0.3 -0.0
v 0.0 0.3 -0.0
v 0.0 0.12 -0.05
v 0.34 0.85 -0.05
v -0.03925 0.13828 -0.025
v 0.30075 0.86828 -0.025
v -0.03925 0.13828 0.025
v 0.30075 0.86828 0.025
v -0.0 0.12 0.05
v 0.34 0.85 0.05
v 0.03925 0.10172 0.025
v 0.37925 0.83172 0.025
v 0.03925 0.10172 -0.025
v 0.37925 0.83172 -0.025
v 0.34 0.85 0.0
v 0.34 0.85 0.0
v 0.34 0.85 0.0
v 0.34 0.85 0.0
v 0.34 0.85 -0.0
v 0.34 0.85 -0.0
v 0.34 0.85 -0.0
v 0.59981 0.91 0.0
v 0.50199 0.91 0.20313
v 0.28219 0.91 0.25329
v 0.10592 0.91 0.11273
v 0.10592 0.91 -0.11273
v 0.28219 0.91 -0.25329
v 0.50199 0.91 -0.20313
v 0.59981 1.03 0.0
v 0.50199 1.03 0.20313
v 0.28219 1.03 0.25329
v 0.10592 1.03 0.11273
v 0.10592 1.03 -0.11273
v 0.28219 1.03 -0.25329
v 0.50199 1.03 -0.20313
v 0.34 1.09 0.0
v 0.34 1.09 0.0
v 0.34 1.09 0.0
v 0.34 1.09 0.0
v 0.34 1.09 -0.0
v 0.34 1.09 -0.0
v 0.34 1.09 -0.0
v 0.0 0.13711 -0.04698
v 0.21199 0.86711 0.21884
v -0.04177 0.13926 -0.01959
v 0.17021 0.86926 0.24623
v -0.04177 0.12216 0.02739
v 0.17021 0.85216 0.29321
v -0.0 0.10289 0.04698
v 0.21199 0.83289 0.3128
v 0.04177 0.10074 0.01959
v 0.25376 0.83074 0.28541
v 0.04177 0.11784 -0.02739
v 0.25376 0.84784 0.23843
v 0.21199 0.85 0.26582
v 0.21199 0.85 0.26582
v 0.21199 0.85 0.26582
v 0.21199 0.85 0.26582
v 0.21199 0.85 0.26582
v 0.21199 0.85 0.26582
v 0.21199 0.85 0.26582
v 0.47179 0.91 0.26582
v 0.37397 0.91 0.46895
v 0.15417 0.91 0.51912
v -0.02209 0.91 0.37855
v -0.02209 0.91 0.1531
v 0.15417 0.91 0.01253
v 0.37397 0.91 0.0627
v 0.47179 1.03 0.26582
v 0.37397 1.03 0.46895
v 0.15417 1.03 0.51912
v -0.02209 1.03 0.37855
v -0.02209 1.03 0.1531
v 0.15417 1.03 0.01253
v 0.37397 1.03 0.0627
v 0.21199 1.09 0.26582
v 0.21199 1.09 0.26582
v 0.21199 1.09 0.26582
v 0.21199 1.09 0.26582
v 0.21199 1.09 0.26582
v 0.21199 1.09 0.26582
v 0.21199 1.09 0.26582
v 0.0 0.14067 -0.04553
v -0.07566 0.87067 0.28595
v -0.04311 0.12663 -0.02445
v -0.11877 0.85663 0.30703
v -0.04311 0.10596 0.02108
v -0.11877 0.83596 0.35256
v -0.0 0.09933 0.04553
v -0.07566 0.82933 0.377
v 0.04311 0.11337 0.02445
v -0.03255 0.84337 0.35592
v 0.04311 0.13404 -0.02108
v -0.03255 0.86404 0.31039
v -0.07566 0.85 0.33148
v -0.07566 0.85 0.33148
v -0.07566 0.85 0.33148
v -0.07566 0.85 0.33148
v -0.07566 0.85 0.33148
v -0.07566 0.85 0.33148
v -0.07566 0.85 0.33148
v 0.18415 0.91 0.33148
v 0.08633 0.91 0.5346
v -0.13347 0.91 0.58477
v -0.30974 0.91 0.4442
v -0.30974 0.91 0.21875
v -0.13347 0.91 0.07818
v 0.08633 0.91 0.12835
v 0.18415 1.03 0.33148
v 0.08633 1.03 0.5346
v -0.13347 1.03 0.58477
v -0.30974 1.03 0.4442
v -0.30974 1.03 0.21875
v -0.13347 1.03 0.07818
v 0.08633 1.03 0.12835
v -0.07566 1.09 0.33148
v -0.07566 1.09 0.33148
v -0.07566 1.09 0.33148
v -0.07566 1.09 0.33148
v -0.07566 1.09 0.33148
v -0.07566 1.09 0.33148
v -0.07566 1.09 0.33148
v 0.0 0.1299 -0.04901
v -0.30633 0.8599 0.09851
v -0.04005 0.10881 -0.02777
v -0.34638 0.83881 0.11975
v -0.04005 0.0989 0.02124
v -0.34638 0.8289 0.16876
v -0.0 0.1101 0.04901
v -0.30633 0.8401 0.19653
v 0.04005 0.13119 0.02777
v -0.26628 0.86119 0.17529
v 0.04005 0.1411 -0.02124
v -0.26628 0.8711 0.12628
v -0.30633 0.85 0.14752
v -0.30633 0.85 0.14752
v -0.30633 0.85 0.14752
v -0.30633 0.85 0.14752
v -0.30633 0.85 0.14752
v -0.30633 0.85 0.14752
v -0.30633 0.85 0.14752
v -0.04652 0.91 0.14752
v -0.14434 0.91 0.35065
v -0.36414 0.91 0.40081
v -0.54041 0.91 0.26025
v -0.54041 0.91 0.03479
v -0.36414 0.91 -0.10577
v -0.14434 0.91 -0.05561
v -0.04652 1.03 0.14752
v -0.14434 1.03 0.35065
v -0.36414 1.03 0.40081
v -0.54041 1.03 0.26025
v -0.54041 1.03 0.03479
v -0.36414 1.03 -0.10577
v -0.14434 1.03 -0.05561
v -0.30633 1.09 0.14752
v -0.30633 1.09 0.14752
v -0.30633 1.09 0.14752
v -0.30633 1.09 0.14752
v -0.30633 1.09 0.14752
v -0.30633 1.09 0.14752
v -0.30633 1.09 0.14752
v 0.0 0.1101 -0.04901
v -0.30633 0.8401 -0.19653
v -0.04005 0.0989 -0.02124
v -0.34638 0.8289 -0.16876
v -0.04005 0.10881 0.02777
v -0.34638 0.83881 -0.11975
v -0.0 0.1299 0.04901
v -0.30633 0.8599 -0.09851
v 0.04005 0.1411 0.02124
v -0.26628 0.8711 -0.12628
v 0.04005 0.13119 -0.02777
v -0.26628 0.86119 -0.17529
v -0.30633 0.85 -0.14752
v -0.30633 0.85 -0.14752
v -0.30633 0.85 -0.14752
v -0.30633 0.85 -0.14752
v -0.30633 0.85 -0.14752
v -0.30633 0.85 -0.14752
v -0.30633 0.85 -0.14752
v -0.04652 0.91 -0.14752
v -0.14434 0.91 0.05561
v -0.36414 0.91 0.10577
v -0.54041 0.91 -0.03479
v -0.54041 0.91 -0.26025
v -0.36414 0.91 -0.40081
v -0.14434 0.91 -0.35065
v -0.04652 1.03 -0.14752
v -0.14434 1.03 0.05561
v -0.36414 1.03 0.10577
v -0.54041 1.03 -0.03479
v -0.54041 1.03 -0.26025
v -0.36414 1.03 -0.40081
v -0.14434 1.03 -0.35065
v -0.30633 1.09 -0.14752
v -0.30633 1.09 -0.14752
v -0.30633 1.09 -0.14752
v -0.30633 1.09 -0.14752
v -0.30633 1.09 -0.14752
v -0.30633 1.09 -0.14752
v -0.30633 1.09 -0.14752
v 0.0 0.09933 -0.04553
v -0.07566 0.82933 -0.377
v -0.04311 0.10596 -0.02108
v -0.11877 0.83596 -0.35256
v -0.04311 0.12663 0.02445
v -0.11877 0.85663 -0.30703
v -0.0 0.14067 0.04553
v -0.07566 0.87067 -0.28595
v 0.04311 0.13404 0.02108
v -0.03255 0.86404 -0.31039
v 0.04311 0.11337 -0.02445
v -0.03255 0.84337 -0.35592
v -0.07566 0.85 -0.33148
v -0.07566 0.85 -0.33148
v -0.07566 0.85 -0.33148
v -0.07566 0.85 -0.33148
v -0.07566 0.85 -0.33148
v -0.07566 0.85 -0.33148
v -0.07566 0.85 -0.33148
v 0.18415 0.91 -0.33148
v 0.08633 0.91 -0.12835
v -0.13347 0.91 -0.07818
v -0.30974 0.91 -0.21875
v -0.30974 0.91 -0.4442
v -0.13347 0.91 -0.58477
v 0.08633 0.91 -0.5346
v 0.18415 1.03 -0.33148
v 0.08633 1.03 -0.12835
v -0.13347 1.03 -0.07818
v -0.30974 1.03 -0.21875
v -0.30974 1.03 -0.4442
v -0.13347 1.03 -0.58477
v 0.08633 1.03 -0.5346
v -0.07566 1.09 -0.33148
v -0.07566 1.09 -0.33148
v -0.07566 1.09 -0.33148
v -0.07566 1.09 -0.33148
v -0.07566 1.09 -0.33148
v -0.07566 1.09 -0.33148
v -0.07566 1.09 -0.33148
v 0.0 0.10289 -0.04698
v 0.21199 0.83289 -0.3128
v -0.04177 0.12216 -0.02739
v 0.17021 0.85216 -0.29321
v -0.04177 0.13926 0.01959
v 0.17021 0.86926 -0.24623
v -0.0 0.13711 0.04698
v 0.21199 0.86711 -0.21884
v 0.04177 0.11784 0.02739
v 0.25376 0.84784 -0.23843
v 0.04177 0.10074 -0.01959
v 0.25376 0.83074 -0.28541
v 0.21199 0.85 -0.26582
v 0.21199 0.85 -0.26582
v 0.21199 0.85 -0.26582
v 0.21199 0.85 -0.26582
v 0.21199 0.85 -0.26582
v 0.21199 0.85 -0.26582
v 0.21199 0.85 -0.26582
v 0.47179 0.91 -0.26582
v 0.37397 0.91 -0.0627
v 0.15417 0.91 -0.01253
v -0.02209 0.91 -0.1531
v -0.02209 0.91 -0.37855
v 0.15417 0.91 -0.51912
v 0.37397 0.91 -0.46895
v 0.47179 1.03 -0.26582
v 0.37397 1.03 -0.0627
v 0.15417 1.03 -0.01253
v -0.02209 1.03 -0.1531
v -0.02209 1.03 -0.37855
v 0.15417 1.03 -0.51912
v 0.37397 1.03 -0.46895
v 0.21199 1.09 -0.26582
v 0.21199 1.09 -0.26582
v 0.21199 1.09 -0.26582
v 0.21199 1.09 -0.26582
v 0.21199 1.09 -0.26582
v 0.21199 1.09 -0.26582
v 0.21199 1.09 -0.26582
g holdfast
usemtl root
f 1 2 10 9
f 2 3 11 10
f 3 4 12 11
f 4 5 13 12
f 5 6 14 13
f 6 7 15 14
f 7 8 16 15
f 8 1 9 16
f 9 10 18 17
f 10 11 19 18
f 11 12 20 19
f 12 13 21 20
f 13 14 22 21
f 14 15 23 22
f 15 16 24 23
f 16 9 17 24
f 17 18 26 25
f 18 19 27 26
f 19 20 28 27
f 20 21 29 28
f 21 22 30 29
f 22 23 31 30
f 23 24 32 31
f 24 17 25 32
g stem_0
usemtl root
f 43 41 39 37 35 33
f 34 36 38 40 42 44
f 33 35 36 34
f 35 37 38 36
f 37 39 40 38
f 39 41 42 40
f 41 43 44 42
f 43 33 34 44
g cup_0
usemtl route_membrane
f 45 46 53 52
f 46 47 54 53
f 47 48 55 54
f 48 49 56 55
f 49 50 57 56
f 50 51 58 57
f 51 45 52 58
f 52 53 60 59
f 53 54 61 60
f 54 55 62 61
f 55 56 63 62
f 56 57 64 63
f 57 58 65 64
f 58 52 59 65
f 59 60 67 66
f 60 61 68 67
f 61 62 69 68
f 62 63 70 69
f 63 64 71 70
f 64 65 72 71
f 65 59 66 72
g stem_1
usemtl root
f 83 81 79 77 75 73
f 74 76 78 80 82 84
f 73 75 76 74
f 75 77 78 76
f 77 79 80 78
f 79 81 82 80
f 81 83 84 82
f 83 73 74 84
g cup_1
usemtl route_membrane
f 85 86 93 92
f 86 87 94 93
f 87 88 95 94
f 88 89 96 95
f 89 90 97 96
f 90 91 98 97
f 91 85 92 98
f 92 93 100 99
f 93 94 101 100
f 94 95 102 101
f 95 96 103 102
f 96 97 104 103
f 97 98 105 104
f 98 92 99 105
f 99 100 107 106
f 100 101 108 107
f 101 102 109 108
f 102 103 110 109
f 103 104 111 110
f 104 105 112 111
f 105 99 106 112
g stem_2
usemtl root
f 123 121 119 117 115 113
f 114 116 118 120 122 124
f 113 115 116 114
f 115 117 118 116
f 117 119 120 118
f 119 121 122 120
f 121 123 124 122
f 123 113 114 124
g cup_2
usemtl route_membrane
f 125 126 133 132
f 126 127 134 133
f 127 128 135 134
f 128 129 136 135
f 129 130 137 136
f 130 131 138 137
f 131 125 132 138
f 132 133 140 139
f 133 134 141 140
f 134 135 142 141
f 135 136 143 142
f 136 137 144 143
f 137 138 145 144
f 138 132 139 145
f 139 140 147 146
f 140 141 148 147
f 141 142 149 148
f 142 143 150 149
f 143 144 151 150
f 144 145 152 151
f 145 139 146 152
g stem_3
usemtl root
f 163 161 159 157 155 153
f 154 156 158 160 162 164
f 153 155 156 154
f 155 157 158 156
f 157 159 160 158
f 159 161 162 160
f 161 163 164 162
f 163 153 154 164
g cup_3
usemtl route_membrane
f 165 166 173 172
f 166 167 174 173
f 167 168 175 174
f 168 169 176 175
f 169 170 177 176
f 170 171 178 177
f 171 165 172 178
f 172 173 180 179
f 173 174 181 180
f 174 175 182 181
f 175 176 183 182
f 176 177 184 183
f 177 178 185 184
f 178 172 179 185
f 179 180 187 186
f 180 181 188 187
f 181 182 189 188
f 182 183 190 189
f 183 184 191 190
f 184 185 192 191
f 185 179 186 192
g stem_4
usemtl root
f 203 201 199 197 195 193
f 194 196 198 200 202 204
f 193 195 196 194
f 195 197 198 196
f 197 199 200 198
f 199 201 202 200
f 201 203 204 202
f 203 193 194 204
g cup_4
usemtl route_membrane
f 205 206 213 212
f 206 207 214 213
f 207 208 215 214
f 208 209 216 215
f 209 210 217 216
f 210 211 218 217
f 211 205 212 218
f 212 213 220 219
f 213 214 221 220
f 214 215 222 221
f 215 216 223 222
f 216 217 224 223
f 217 218 225 224
f 218 212 219 225
f 219 220 227 226
f 220 221 228 227
f 221 222 229 228
f 222 223 230 229
f 223 224 231 230
f 224 225 232 231
f 225 219 226 232
g stem_5
usemtl root
f 243 241 239 237 235 233
f 234 236 238 240 242 244
f 233 235 236 234
f 235 237 238 236
f 237 239 240 238
f 239 241 242 240
f 241 243 244 242
f 243 233 234 244
g cup_5
usemtl route_membrane
f 245 246 253 252
f 246 247 254 253
f 247 248 255 254
f 248 249 256 255
f 249 250 257 256
f 250 251 258 257
f 251 245 252 258
f 252 253 260 259
f 253 254 261 260
f 254 255 262 261
f 255 256 263 262
f 256 257 264 263
f 257 258 265 264
f 258 252 259 265
f 259 260 267 266
f 260 261 268 267
f 261 262 269 268
f 262 263 270 269
f 263 264 271 270
f 264 265 272 271
f 265 259 266 272
g stem_6
usemtl root
f 283 281 279 277 275 273
f 274 276 278 280 282 284
f 273 275 276 274
f 275 277 278 276
f 277 279 280 278
f 279 281 282 280
f 281 283 284 282
f 283 273 274 284
g cup_6
usemtl route_membrane
f 285 286 293 292
f 286 287 294 293
f 287 288 295 294
f 288 289 296 295
f 289 290 297 296
f 290 291 298 297
f 291 285 292 298
f 292 293 300 299
f 293 294 301 300
f 294 295 302 301
f 295 296 303 302
f 296 297 304 303
f 297 298 305 304
f 298 292 299 305
f 299 300 307 306
f 300 301 308 307
f 301 302 309 308
f 302 303 310 309
f 303 304 311 310
f 304 305 312 311
f 305 299 306 312
