# Generated environment blockout: plant_ribbon_b
mtllib environment_blockout.mtl
o plant_ribbon_b
v 0.0 0.0 0.0
v 0.0 0.0 0.0
v -0.0 0.0 0.0
v -0.0 0.0 0.0
v -0.0 0.0 -0.0
v -0.0 0.0 -0.0
v 0.0 0.0 -0.0
v 0.32909 0.065 0.0
v 0.20518 0.065 0.25729
v -0.07323 0.065 0.32084
v -0.2965 0.065 0.14279
v -0.2965 0.065 -0.14279
v -0.07323 0.065 -0.32084
v 0.20518 0.065 -0.25729
v 0.32909 0.195 0.0
v 0.20518 0.195 0.25729
v -0.07323 0.195 0.32084
v -0.2965 0.195 0.14279
v -0.2965 0.195 -0.14279
v -0.07323 0.195 -0.32084
v 0.20518 0.195 -0.25729
v 0.0 0.26 0.0
v 0.0 0.26 0.0
v -0.0 0.26 0.0
v -0.0 0.26 0.0
v -0.0 0.26 -0.0
v -0.0 0.26 -0.0
v 0.0 0.26 -0.0
v 0.18 0.12488 -0.04473
v 0.3006 1.12988 0.06499
v 0.1375 0.12655 -0.01327
v 0.2581 1.13155 0.09645
v 0.15374 0.11916 0.03653
v 0.27434 1.12416 0.14626
v 0.20626 0.11293 0.03585
v 0.32686 1.11793 0.14558
v 0.2225 0.11647 -0.01437
v 0.3431 1.12147 0.09535
v 0.3006 1.13111 0.07526
v 0.36712 2.25611 0.27476
v 0.26737 1.12879 0.09942
v 0.33389 2.25379 0.29891
v 0.28006 1.12123 0.13782
v 0.34659 2.24623 0.33731
v 0.32114 1.11888 0.1374
v 0.38766 2.24388 0.3369
v 0.33383 1.12498 0.09874
v 0.40035 2.24998 0.29824
v 0.11223 0.12719 0.09631
v 0.10163 1.13219 0.25901
v 0.06943 0.12178 0.12693
v 0.05884 1.12678 0.28963
v 0.08578 0.11391 0.17662
v 0.07518 1.11891 0.33933
v 0.13868 0.11445 0.17671
v 0.12808 1.11945 0.33941
v 0.15502 0.12266 0.12707
v 0.14443 1.12766 0.28978
v 0.10163 1.13042 0.26885
v -0.01286 2.25542 0.44525
v 0.06851 1.12339 0.29223
v -0.04598 2.24839 0.46863
v 0.08116 1.11858 0.33109
v -0.03333 2.24358 0.50748
v 0.1221 1.12265 0.33172
v 0.00761 2.24765 0.50812
v 0.13475 1.12997 0.29326
v 0.02026 2.25497 0.46966
v -0.04005 0.12415 0.13068
v -0.17387 1.12915 0.22384
v -0.08248 0.11568 0.16112
v -0.21629 1.12068 0.25428
v -0.06627 0.11318 0.21142
v -0.20009 1.11818 0.30458
v -0.01383 0.1201 0.21206
v -0.14764 1.1251 0.30522
v 0.00237 0.12688 0.16216
v -0.13144 1.13188 0.25532
v -0.17387 1.12564 0.23365
v -0.38316 2.25064 0.25412
v -0.20659 1.11911 0.25772
v -0.41589 2.24411 0.27819
v -0.19409 1.12072 0.29689
v -0.40339 2.24572 0.31735
v -0.15364 1.12825 0.29703
v -0.36294 2.25325 0.31749
v -0.14114 1.13128 0.25794
v -0.35044 2.25628 0.27841
v -0.16217 0.11792 0.03315
v -0.31844 1.12292 -0.01339
v -0.20446 0.1128 0.06451
v -0.36073 1.1178 0.01798
v -0.18831 0.11763 0.11465
v -0.34458 1.12263 0.06812
v -0.13604 0.12574 0.11428
v -0.2923 1.13074 0.06774
v -0.11988 0.12592 0.0639
v -0.27615 1.13092 0.01737
v -0.31844 1.12035 -0.00313
v -0.46493 2.24535 -0.154
v -0.35145 1.11934 0.02141
v -0.49795 2.24434 -0.12947
v -0.33884 1.12615 0.05998
v -0.48534 2.25115 -0.0909
v -0.29804 1.13137 0.05928
v -0.44453 2.25637 -0.0916
v -0.28543 1.12779 0.02028
v -0.43192 2.25279 -0.1306
v -0.16217 0.11331 -0.1226
v -0.22322 1.11831 -0.27379
v -0.20489 0.11539 -0.09147
v -0.26594 1.12039 -0.24266
v -0.18858 0.12385 -0.04186
v -0.24962 1.12885 -0.19305
v -0.13577 0.12698 -0.04233
v -0.19682 1.13198 -0.19352
v -0.11945 0.12047 -0.09223
v -0.1805 1.12547 -0.24342
v -0.22322 1.11862 -0.2637
v -0.1966 2.24362 -0.4723
v -0.2565 1.12379 -0.24006
v -0.22988 2.24879 -0.44867
v -0.24379 1.13063 -0.20153
v -0.21717 2.25563 -0.41014
v -0.20265 1.12969 -0.20136
v -0.17603 2.25469 -0.40996
v -0.18994 1.12227 -0.23978
v -0.16332 2.24727 -0.44838
v -0.04005 0.1137 -0.22004
v 0.04009 1.1187 -0.36204
v -0.08272 0.12139 -0.18973
v -0.00258 1.12639 -0.33172
v -0.06642 0.12715 -0.13973
v 0.01372 1.13215 -0.28172
v -0.01369 0.12303 -0.13915
v 0.06645 1.12803 -0.28114
v 0.00261 0.11472 -0.18878
v 0.08275 1.11972 -0.33078
v 0.04009 1.12162 -0.35232
v 0.21978 2.24662 -0.46156
v 0.00721 1.12916 -0.32875
v 0.1869 2.25416 -0.438
v 0.01977 1.13095 -0.28961
v 0.19946 2.25595 -0.39886
v 0.0604 1.12452 -0.28898
v 0.2401 2.24952 -0.39823
v 0.07296 1.11875 -0.32774
v 0.25265 2.24375 -0.43699
v 0.11223 0.11884 -0.18571
v 0.27321 1.12384 -0.21159
v 0.06997 0.12641 -0.1548
v 0.23095 1.13141 -0.18068
v 0.08611 0.12512 -0.10444
v 0.24709 1.13012 -0.13032
v 0.13835 0.11676 -0.10423
v 0.29933 1.12176 -0.1301
v 0.15449 0.11288 -0.15446
v 0.31547 1.11788 -0.18033
v 0.27321 1.12725 -0.20153
v 0.47066 2.25225 -0.12916
v 0.24042 1.13143 -0.17703
v 0.43787 2.25643 -0.10466
v 0.25294 1.12672 -0.13812
v 0.4504 2.25172 -0.06575
v 0.29347 1.11964 -0.13857
v 0.49092 2.24464 -0.0662
v 0.306 1.11996 -0.17777
v 0.50345 2.24496 -0.10539
g holdfast
usemtl root
f 1 2 9 8
f 2 3 10 9
f 3 4 11 10
f 4 5 12 11
f 5 6 13 12
f 6 7 14 13
f 7 1 8 14
f 8 9 16 15
f 9 10 17 16
f 10 11 18 17
f 11 12 19 18
f 12 13 20 19
f 13 14 21 20
f 14 8 15 21
f 15 16 23 22
f 16 17 24 23
f 17 18 25 24
f 18 19 26 25
f 19 20 27 26
f 20 21 28 27
f 21 15 22 28
g ribbon_0
usemtl route_membrane
f 37 35 33 31 29
f 30 32 34 36 38
f 29 31 32 30
f 31 33 34 32
f 33 35 36 34
f 35 37 38 36
f 37 29 30 38
f 47 45 43 41 39
f 40 42 44 46 48
f 39 41 42 40
f 41 43 44 42
f 43 45 46 44
f 45 47 48 46
f 47 39 40 48
g ribbon_1
usemtl route_membrane
f 57 55 53 51 49
f 50 52 54 56 58
f 49 51 52 50
f 51 53 54 52
f 53 55 56 54
f 55 57 58 56
f 57 49 50 58
f 67 65 63 61 59
f 60 62 64 66 68
f 59 61 62 60
f 61 63 64 62
f 63 65 66 64
f 65 67 68 66
f 67 59 60 68
g ribbon_2
usemtl route_membrane
f 77 75 73 71 69
f 70 72 74 76 78
f 69 71 72 70
f 71 73 74 72
f 73 75 76 74
f 75 77 78 76
f 77 69 70 78
f 87 85 83 81 79
f 80 82 84 86 88
f 79 81 82 80
f 81 83 84 82
f 83 85 86 84
f 85 87 88 86
f 87 79 80 88
g ribbon_3
usemtl route_membrane
f 97 95 93 91 89
f 90 92 94 96 98
f 89 91 92 90
f 91 93 94 92
f 93 95 96 94
f 95 97 98 96
f 97 89 90 98
f 107 105 103 101 99
f 100 102 104 106 108
f 99 101 102 100
f 101 103 104 102
f 103 105 106 104
f 105 107 108 106
f 107 99 100 108
g ribbon_4
usemtl route_membrane
f 117 115 113 111 109
f 110 112 114 116 118
f 109 111 112 110
f 111 113 114 112
f 113 115 116 114
f 115 117 118 116
f 117 109 110 118
f 127 125 123 121 119
f 120 122 124 126 128
f 119 121 122 120
f 121 123 124 122
f 123 125 126 124
f 125 127 128 126
f 127 119 120 128
g ribbon_5
usemtl route_membrane
f 137 135 133 131 129
f 130 132 134 136 138
f 129 131 132 130
f 131 133 134 132
f 133 135 136 134
f 135 137 138 136
f 137 129 130 138
f 147 145 143 141 139
f 140 142 144 146 148
f 139 141 142 140
f 141 143 144 142
f 143 145 146 144
f 145 147 148 146
f 147 139 140 148
g ribbon_6
usemtl route_membrane
f 157 155 153 151 149
f 150 152 154 156 158
f 149 151 152 150
f 151 153 154 152
f 153 155 156 154
f 155 157 158 156
f 157 149 150 158
f 167 165 163 161 159
f 160 162 164 166 168
f 159 161 162 160
f 161 163 164 162
f 163 165 166 164
f 165 167 168 166
f 167 159 160 168
