# Generated environment blockout: plant_fan_a
mtllib environment_blockout.mtl
o plant_fan_a
v 0.0 0.0 0.0
v 0.0 0.0 0.0
v -0.0 0.0 0.0
v -0.0 0.0 0.0
v -0.0 0.0 -0.0
v -0.0 0.0 -0.0
v 0.0 0.0 -0.0
v 0.36373 0.08 0.0
v 0.22678 0.08 0.28438
v -0.08094 0.08 0.35461
v -0.32771 0.08 0.15782
v -0.32771 0.08 -0.15782
v -0.08094 0.08 -0.35461
v 0.22678 0.08 -0.28438
v 0.36373 0.24 0.0
v 0.22678 0.24 0.28438
v -0.08094 0.24 0.35461
v -0.32771 0.24 0.15782
v -0.32771 0.24 -0.15782
v -0.08094 0.24 -0.35461
v 0.22678 0.24 -0.28438
v 0.0 0.32 0.0
v 0.0 0.32 0.0
v -0.0 0.32 0.0
v -0.0 0.32 0.0
v -0.0 0.32 -0.0
v -0.0 0.32 -0.0
v 0.0 0.32 -0.0
v 0.0 0.14 -0.055
v -0.45077 1.26738 -0.055
v -0.04423 0.12232 -0.0275
v -0.495 1.24969 -0.0275
v -0.04423 0.12232 0.0275
v -0.495 1.24969 0.0275
v -0.0 0.14 0.055
v -0.45077 1.26738 0.055
v 0.04423 0.15768 0.0275
v -0.40654 1.28506 0.0275
v 0.04423 0.15768 -0.0275
v -0.40654 1.28506 -0.0275
v -0.45077 1.14738 0.0
v -0.45077 1.14738 0.0
v -0.45077 1.14738 0.0
v -0.45077 1.14738 0.0
v -0.45077 1.14738 -0.0
v -0.45077 1.14738 -0.0
v -0.34685 1.24738 0.0
v -0.39881 1.24738 0.03375
v -0.50273 1.24738 0.03375
v -0.55469 1.24738 0.0
v -0.50273 1.24738 -0.03375
v -0.39881 1.24738 -0.03375
v -0.34685 1.44738 0.0
v -0.39881 1.44738 0.03375
v -0.50273 1.44738 0.03375
v -0.55469 1.44738 0.0
v -0.50273 1.44738 -0.03375
v -0.39881 1.44738 -0.03375
v -0.45077 1.54738 0.0
v -0.45077 1.54738 0.0
v -0.45077 1.54738 0.0
v -0.45077 1.54738 0.0
v -0.45077 1.54738 -0.0
v -0.45077 1.54738 -0.0
v 0.0 0.14548 -0.05473
v -0.24739 1.33386 0.06427
v -0.04664 0.13313 -0.02833
v -0.29403 1.32151 0.09067
v -0.04664 0.12765 0.0264
v -0.29403 1.31603 0.1454
v -0.0 0.13452 0.05473
v -0.24739 1.3229 0.17373
v 0.04664 0.14687 0.02833
v -0.20075 1.33526 0.14733
v 0.04664 0.15235 -0.0264
v -0.20075 1.34074 0.0926
v -0.24739 1.20838 0.119
v -0.24739 1.20838 0.119
v -0.24739 1.20838 0.119
v -0.24739 1.20838 0.119
v -0.24739 1.20838 0.119
v -0.24739 1.20838 0.119
v -0.14347 1.30838 0.119
v -0.19543 1.30838 0.15275
v -0.29935 1.30838 0.15275
v -0.35132 1.30838 0.119
v -0.29935 1.30838 0.08525
v -0.19543 1.30838 0.08525
v -0.14347 1.50838 0.119
v -0.19543 1.50838 0.15275
v -0.29935 1.50838 0.15275
v -0.35132 1.50838 0.119
v -0.29935 1.50838 0.08525
v -0.19543 1.50838 0.08525
v -0.24739 1.60838 0.119
v -0.24739 1.60838 0.119
v -0.24739 1.60838 0.119
v -0.24739 1.60838 0.119
v -0.24739 1.60838 0.119
v -0.24739 1.60838 0.119
v 0.0 0.13861 -0.05498
v 0.0 1.34861 -0.08565
v -0.04763 0.1393 -0.02749
v -0.04763 1.3493 -0.05816
v -0.04763 0.1407 0.02749
v -0.04763 1.3507 -0.00317
v -0.0 0.14139 0.05498
v -0.0 1.35139 0.02432
v 0.04763 0.1407 0.02749
v 0.04763 1.3507 -0.00317
v 0.04763 0.1393 -0.02749
v 0.04763 1.3493 -0.05816
v 0.0 1.23 -0.03066
v 0.0 1.23 -0.03066
v -0.0 1.23 -0.03066
v -0.0 1.23 -0.03066
v -0.0 1.23 -0.03066
v 0.0 1.23 -0.03066
v 0.10392 1.33 -0.03066
v 0.05196 1.33 0.00309
v -0.05196 1.33 0.00309
v -0.10392 1.33 -0.03066
v -0.05196 1.33 -0.06441
v 0.05196 1.33 -0.06441
v 0.10392 1.53 -0.03066
v 0.05196 1.53 0.00309
v -0.05196 1.53 0.00309
v -0.10392 1.53 -0.03066
v -0.05196 1.53 -0.06441
v 0.05196 1.53 -0.06441
v 0.0 1.63 -0.03066
v 0.0 1.63 -0.03066
v -0.0 1.63 -0.03066
v -0.0 1.63 -0.03066
v -0.0 1.63 -0.03066
v 0.0 1.63 -0.03066
v 0.0 0.13488 -0.05476
v 0.24739 1.32326 -0.16586
v -0.04664 0.14707 -0.02828
v 0.20075 1.33545 -0.13938
v -0.04664 0.15218 0.02648
v 0.20075 1.34057 -0.08462
v -0.0 0.14512 0.05476
v 0.24739 1.3335 -0.05634
v 0.04664 0.13293 0.02828
v 0.29403 1.32132 -0.08282
v 0.04664 0.12782 -0.02648
v 0.29403 1.3162 -0.13758
v 0.24739 1.20838 -0.1111
v 0.24739 1.20838 -0.1111
v 0.24739 1.20838 -0.1111
v 0.24739 1.20838 -0.1111
v 0.24739 1.20838 -0.1111
v 0.24739 1.20838 -0.1111
v 0.35132 1.30838 -0.1111
v 0.29935 1.30838 -0.07735
v 0.19543 1.30838 -0.07735
v 0.14347 1.30838 -0.1111
v 0.19543 1.30838 -0.14485
v 0.29935 1.30838 -0.14485
v 0.35132 1.50838 -0.1111
v 0.29935 1.50838 -0.07735
v 0.19543 1.50838 -0.07735
v 0.14347 1.50838 -0.1111
v 0.19543 1.50838 -0.14485
v 0.29935 1.50838 -0.14485
v 0.24739 1.60838 -0.1111
v 0.24739 1.60838 -0.1111
v 0.24739 1.60838 -0.1111
v 0.24739 1.60838 -0.1111
v 0.24739 1.60838 -0.1111
v 0.24739 1.60838 -0.1111
v 0.0 0.14289 -0.05492
v 0.45077 1.27026 0.00437
v -0.04424 0.15908 -0.02653
v 0.40653 1.28646 0.03276
v -0.04424 0.15619 0.02839
v 0.40653 1.28357 0.08768
v -0.0 0.13711 0.05492
v 0.45077 1.26449 0.11422
v 0.04424 0.12092 0.02653
v 0.495 1.24829 0.08583
v 0.04424 0.12381 -0.02839
v 0.495 1.25118 0.0309
v 0.45077 1.14738 0.05929
v 0.45077 1.14738 0.05929
v 0.45077 1.14738 0.05929
v 0.45077 1.14738 0.05929
v 0.45077 1.14738 0.05929
v 0.45077 1.14738 0.05929
v 0.55469 1.24738 0.05929
v 0.50273 1.24738 0.09304
v 0.39881 1.24738 0.09304
v 0.34685 1.24738 0.05929
v 0.39881 1.24738 0.02554
v 0.50273 1.24738 0.02554
v 0.55469 1.44738 0.05929
v 0.50273 1.44738 0.09304
v 0.39881 1.44738 0.09304
v 0.34685 1.44738 0.05929
v 0.39881 1.44738 0.02554
v 0.50273 1.44738 0.02554
v 0.45077 1.54738 0.05929
v 0.45077 1.54738 0.05929
v 0.45077 1.54738 0.05929
v 0.45077 1.54738 0.05929
v 0.45077 1.54738 0.05929
v 0.45077 1.54738 0.05929
g holdfast
usemtl root
f 1 2 9 8
f 2 3 10 9
f 3 4 11 10
f 4 5 12 11
f 5 6 13 12
f 6 7 14 13
f 7 1 8 14
f 8 9 16 15
f 9 10 17 16
f 10 11 18 17
f 11 12 19 18
f 12 13 20 19
f 13 14 21 20
f 14 8 15 21
f 15 16 23 22
f 16 17 24 23
f 17 18 25 24
f 18 19 26 25
f 19 20 27 26
f 20 21 28 27
f 21 15 22 28
g blade_0
usemtl route_membrane
f 39 37 35 33 31 29
f 30 32 34 36 38 40
f 29 31 32 30
f 31 33 34 32
f 33 35 36 34
f 35 37 38 36
f 37 39 40 38
f 39 29 30 40
g blade_tip_0
usemtl route_membrane
f 41 42 48 47
f 42 43 49 48
f 43 44 50 49
f 44 45 51 50
f 45 46 52 51
f 46 41 47 52
f 47 48 54 53
f 48 49 55 54
f 49 50 56 55
f 50 51 57 56
f 51 52 58 57
f 52 47 53 58
f 53 54 60 59
f 54 55 61 60
f 55 56 62 61
f 56 57 63 62
f 57 58 64 63
f 58 53 59 64
g blade_1
usemtl route_membrane
f 75 73 71 69 67 65
f 66 68 70 72 74 76
f 65 67 68 66
f 67 69 70 68
f 69 71 72 70
f 71 73 74 72
f 73 75 76 74
f 75 65 66 76
g blade_tip_1
usemtl route_membrane
f 77 78 84 83
f 78 79 85 84
f 79 80 86 85
f 80 81 87 86
f 81 82 88 87
f 82 77 83 88
f 83 84 90 89
f 84 85 91 90
f 85 86 92 91
f 86 87 93 92
f 87 88 94 93
f 88 83 89 94
f 89 90 96 95
f 90 91 97 96
f 91 92 98 97
f 92 93 99 98
f 93 94 100 99
f 94 89 95 100
g blade_2
usemtl route_membrane
f 111 109 107 105 103 101
f 102 104 106 108 110 112
f 101 103 104 102
f 103 105 106 104
f 105 107 108 106
f 107 109 110 108
f 109 111 112 110
f 111 101 102 112
g blade_tip_2
usemtl route_membrane
f 113 114 120 119
f 114 115 121 120
f 115 116 122 121
f 116 117 123 122
f 117 118 124 123
f 118 113 119 124
f 119 120 126 125
f 120 121 127 126
f 121 122 128 127
f 122 123 129 128
f 123 124 130 129
f 124 119 125 130
f 125 126 132 131
f 126 127 133 132
f 127 128 134 133
f 128 129 135 134
f 129 130 136 135
f 130 125 131 136
g blade_3
usemtl route_membrane
f 147 145 143 141 139 137
f 138 140 142 144 146 148
f 137 139 140 138
f 139 141 142 140
f 141 143 144 142
f 143 145 146 144
f 145 147 148 146
f 147 137 138 148
g blade_tip_3
usemtl route_membrane
f 149 150 156 155
f 150 151 157 156
f 151 152 158 157
f 152 153 159 158
f 153 154 160 159
f 154 149 155 160
f 155 156 162 161
f 156 157 163 162
f 157 158 164 163
f 158 159 165 164
f 159 160 166 165
f 160 155 161 166
f 161 162 168 167
f 162 163 169 168
f 163 164 170 169
f 164 165 171 170
f 165 166 172 171
f 166 161 167 172
g blade_4
usemtl route_membrane
f 183 181 179 177 175 173
f 174 176 178 180 182 184
f 173 175 176 174
f 175 177 178 176
f 177 179 180 178
f 179 181 182 180
f 181 183 184 182
f 183 173 174 184
g blade_tip_4
usemtl route_membrane
f 185 186 192 191
f 186 187 193 192
f 187 188 194 193
f 188 189 195 194
f 189 190 196 195
f 190 185 191 196
f 191 192 198 197
f 192 193 199 198
f 193 194 200 199
f 194 195 201 200
f 195 196 202 201
f 196 191 197 202
f 197 198 204 203
f 198 199 205 204
f 199 200 206 205
f 200 201 207 206
f 201 202 208 207
f 202 197 203 208
