# Generated environment blockout: plant_fan_b
mtllib environment_blockout.mtl
o plant_fan_b
v 0.0 0.0 0.0
v 0.0 0.0 0.0
v -0.0 0.0 0.0
v -0.0 0.0 0.0
v -0.0 0.0 -0.0
v -0.0 0.0 -0.0
v 0.0 0.0 -0.0
v 0.36373 0.08 0.0
v 0.22678 0.08 0.28438
v -0.08094 0.08 0.35461
v -0.32771 0.08 0.15782
v -0.32771 0.08 -0.15782
v -0.08094 0.08 -0.35461
v 0.22678 0.08 -0.28438
v 0.36373 0.24 0.0
v 0.22678 0.24 0.28438
v -0.08094 0.24 0.35461
v -0.32771 0.24 0.15782
v -0.32771 0.24 -0.15782
v -0.08094 0.24 -0.35461
v 0.22678 0.24 -0.28438
v 0.0 0.32 0.0
v 0.0 0.32 0.0
v -0.0 0.32 0.0
v -0.0 0.32 0.0
v -0.0 0.32 -0.0
v -0.0 0.32 -0.0
v 0.0 0.32 -0.0
v 0.0 0.14 -0.055
v -0.63859 1.68983 -0.055
v -0.04404 0.12185 -0.0275
v -0.68263 1.67169 -0.0275
v -0.04404 0.12185 0.0275
v -0.68263 1.67169 0.0275
v -0.0 0.14 0.055
v -0.63859 1.68983 0.055
v 0.04404 0.15815 0.0275
v -0.59455 1.70798 0.0275
v 0.04404 0.15815 -0.0275
v -0.59455 1.70798 -0.0275
v -0.63859 1.56983 0.0
v -0.63859 1.56983 0.0
v -0.63859 1.56983 0.0
v -0.63859 1.56983 0.0
v -0.63859 1.56983 -0.0
v -0.63859 1.56983 -0.0
v -0.53467 1.66983 0.0
v -0.58663 1.66983 0.03375
v -0.69055 1.66983 0.03375
v -0.74251 1.66983 0.0
v -0.69055 1.66983 -0.03375
v -0.58663 1.66983 -0.03375
v -0.53467 1.86983 0.0
v -0.58663 1.86983 0.03375
v -0.69055 1.86983 0.03375
v -0.74251 1.86983 0.0
v -0.69055 1.86983 -0.03375
v -0.58663 1.86983 -0.03375
v -0.63859 1.96983 0.0
v -0.63859 1.96983 0.0
v -0.63859 1.96983 0.0
v -0.63859 1.96983 0.0
v -0.63859 1.96983 -0.0
v -0.63859 1.96983 -0.0
v 0.0 0.14406 -0.05485
v -0.4563 1.75341 0.06415
v -0.04583 0.1291 -0.02838
v -0.50213 1.73846 0.09062
v -0.04583 0.12505 0.02647
v -0.50213 1.7344 0.14547
v -0.0 0.13594 0.05485
v -0.4563 1.7453 0.17385
v 0.04583 0.1509 0.02838
v -0.41046 1.76025 0.14738
v 0.04583 0.15495 -0.02647
v -0.41046 1.76431 0.09253
v -0.4563 1.62936 0.119
v -0.4563 1.62936 0.119
v -0.4563 1.62936 0.119
v -0.4563 1.62936 0.119
v -0.4563 1.62936 0.119
v -0.4563 1.62936 0.119
v -0.35238 1.72936 0.119
v -0.40434 1.72936 0.15275
v -0.50826 1.72936 0.15275
v -0.56022 1.72936 0.119
v -0.50826 1.72936 0.08525
v -0.40434 1.72936 0.08525
v -0.35238 1.92936 0.119
v -0.40434 1.92936 0.15275
v -0.50826 1.92936 0.15275
v -0.56022 1.92936 0.119
v -0.50826 1.92936 0.08525
v -0.40434 1.92936 0.08525
v -0.4563 2.02936 0.119
v -0.4563 2.02936 0.119
v -0.4563 2.02936 0.119
v -0.4563 2.02936 0.119
v -0.4563 2.02936 0.119
v -0.4563 2.02936 0.119
v 0.0 0.13898 -0.05499
v -0.23762 1.78606 -0.08566
v -0.04714 0.13269 -0.02737
v -0.28477 1.77977 -0.05803
v -0.04714 0.13371 0.02762
v -0.28477 1.78079 -0.00304
v -0.0 0.14102 0.05499
v -0.23762 1.78811 0.02433
v 0.04714 0.14731 0.02737
v -0.19048 1.79439 -0.0033
v 0.04714 0.14629 -0.02762
v -0.19048 1.79337 -0.05829
v -0.23762 1.66708 -0.03066
v -0.23762 1.66708 -0.03066
v -0.23762 1.66708 -0.03066
v -0.23762 1.66708 -0.03066
v -0.23762 1.66708 -0.03066
v -0.23762 1.66708 -0.03066
v -0.1337 1.76708 -0.03066
v -0.18566 1.76708 0.00309
v -0.28959 1.76708 0.00309
v -0.34155 1.76708 -0.03066
v -0.28959 1.76708 -0.06441
v -0.18566 1.76708 -0.06441
v -0.1337 1.96708 -0.03066
v -0.18566 1.96708 0.00309
v -0.28959 1.96708 0.00309
v -0.34155 1.96708 -0.03066
v -0.28959 1.96708 -0.06441
v -0.18566 1.96708 -0.06441
v -0.23762 2.06708 -0.03066
v -0.23762 2.06708 -0.03066
v -0.23762 2.06708 -0.03066
v -0.23762 2.06708 -0.03066
v -0.23762 2.06708 -0.03066
v -0.23762 2.06708 -0.03066
v 0.0 0.13633 -0.05488
v 0.0 1.79633 -0.16597
v -0.04763 0.13816 -0.02744
v -0.04763 1.79816 -0.13854
v -0.04763 0.14184 0.02744
v -0.04763 1.80184 -0.08366
v -0.0 0.14367 0.05488
v -0.0 1.80367 -0.05622
v 0.04763 0.14184 0.02744
v 0.04763 1.80184 -0.08366
v 0.04763 0.13816 -0.02744
v 0.04763 1.79816 -0.13854
v 0.0 1.68 -0.1111
v 0.0 1.68 -0.1111
v -0.0 1.68 -0.1111
v -0.0 1.68 -0.1111
v -0.0 1.68 -0.1111
v 0.0 1.68 -0.1111
v 0.10392 1.78 -0.1111
v 0.05196 1.78 -0.07735
v -0.05196 1.78 -0.07735
v -0.10392 1.78 -0.1111
v -0.05196 1.78 -0.14485
v 0.05196 1.78 -0.14485
v 0.10392 1.98 -0.1111
v 0.05196 1.98 -0.07735
v -0.05196 1.98 -0.07735
v -0.10392 1.98 -0.1111
v -0.05196 1.98 -0.14485
v 0.05196 1.98 -0.14485
v 0.0 2.08 -0.1111
v 0.0 2.08 -0.1111
v -0.0 2.08 -0.1111
v -0.0 2.08 -0.1111
v -0.0 2.08 -0.1111
v 0.0 2.08 -0.1111
v 0.0 0.14198 -0.05496
v 0.23762 1.78906 0.00433
v -0.04714 0.14778 -0.02724
v 0.19048 1.79486 0.03206
v -0.04714 0.1458 0.02773
v 0.19048 1.79289 0.08702
v -0.0 0.13802 0.05496
v 0.23762 1.7851 0.11426
v 0.04714 0.13222 0.02724
v 0.28477 1.7793 0.08653
v 0.04714 0.1342 -0.02773
v 0.28477 1.78128 0.03157
v 0.23762 1.66708 0.05929
v 0.23762 1.66708 0.05929
v 0.23762 1.66708 0.05929
v 0.23762 1.66708 0.05929
v 0.23762 1.66708 0.05929
v 0.23762 1.66708 0.05929
v 0.34155 1.76708 0.05929
v 0.28959 1.76708 0.09304
v 0.18566 1.76708 0.09304
v 0.1337 1.76708 0.05929
v 0.18566 1.76708 0.02554
v 0.28959 1.76708 0.02554
v 0.34155 1.96708 0.05929
v 0.28959 1.96708 0.09304
v 0.18566 1.96708 0.09304
v 0.1337 1.96708 0.05929
v 0.18566 1.96708 0.02554
v 0.28959 1.96708 0.02554
v 0.23762 2.06708 0.05929
v 0.23762 2.06708 0.05929
v 0.23762 2.06708 0.05929
v 0.23762 2.06708 0.05929
v 0.23762 2.06708 0.05929
v 0.23762 2.06708 0.05929
v 0.0 0.14327 -0.0549
v 0.4563 1.75263 0.04092
v -0.04583 0.15458 -0.02668
v 0.41047 1.76394 0.06914
v -0.04583 0.15131 0.02822
v 0.41047 1.76067 0.12404
v -0.0 0.13673 0.0549
v 0.4563 1.74609 0.15072
v 0.04583 0.12542 0.02668
v 0.50213 1.73477 0.1225
v 0.04583 0.12869 -0.02822
v 0.50213 1.73804 0.0676
v 0.4563 1.62936 0.09582
v 0.4563 1.62936 0.09582
v 0.4563 1.62936 0.09582
v 0.4563 1.62936 0.09582
v 0.4563 1.62936 0.09582
v 0.4563 1.62936 0.09582
v 0.56022 1.72936 0.09582
v 0.50826 1.72936 0.12957
v 0.40434 1.72936 0.12957
v 0.35238 1.72936 0.09582
v 0.40434 1.72936 0.06207
v 0.50826 1.72936 0.06207
v 0.56022 1.92936 0.09582
v 0.50826 1.92936 0.12957
v 0.40434 1.92936 0.12957
v 0.35238 1.92936 0.09582
v 0.40434 1.92936 0.06207
v 0.50826 1.92936 0.06207
v 0.4563 2.02936 0.09582
v 0.4563 2.02936 0.09582
v 0.4563 2.02936 0.09582
v 0.4563 2.02936 0.09582
v 0.4563 2.02936 0.09582
v 0.4563 2.02936 0.09582
v 0.0 0.13702 -0.05492
v 0.63859 1.68686 -0.1389
v -0.04405 0.15661 -0.02844
v 0.59454 1.70644 -0.11243
v -0.04405 0.15958 0.02648
v 0.59454 1.70942 -0.05751
v -0.0 0.14298 0.05492
v 0.63859 1.69281 -0.02907
v 0.04405 0.12339 0.02844
v 0.68264 1.67323 -0.05554
v 0.04405 0.12042 -0.02648
v 0.68264 1.67025 -0.11046
v 0.63859 1.56983 -0.08398
v 0.63859 1.56983 -0.08398
v 0.63859 1.56983 -0.08398
v 0.63859 1.56983 -0.08398
v 0.63859 1.56983 -0.08398
v 0.63859 1.56983 -0.08398
v 0.74251 1.66983 -0.08398
v 0.69055 1.66983 -0.05023
v 0.58663 1.66983 -0.05023
v 0.53467 1.66983 -0.08398
v 0.58663 1.66983 -0.11773
v 0.69055 1.66983 -0.11773
v 0.74251 1.86983 -0.08398
v 0.69055 1.86983 -0.05023
v 0.58663 1.86983 -0.05023
v 0.53467 1.86983 -0.08398
v 0.58663 1.86983 -0.11773
v 0.69055 1.86983 -0.11773
v 0.63859 1.96983 -0.08398
v 0.63859 1.96983 -0.08398
v 0.63859 1.96983 -0.08398
v 0.63859 1.96983 -0.08398
v 0.63859 1.96983 -0.08398
v 0.63859 1.96983 -0.08398
g holdfast
usemtl root
f 1 2 9 8
f 2 3 10 9
f 3 4 11 10
f 4 5 12 11
f 5 6 13 12
f 6 7 14 13
f 7 1 8 14
f 8 9 16 15
f 9 10 17 16
f 10 11 18 17
f 11 12 19 18
f 12 13 20 19
f 13 14 21 20
f 14 8 15 21
f 15 16 23 22
f 16 17 24 23
f 17 18 25 24
f 18 19 26 25
f 19 20 27 26
f 20 21 28 27
f 21 15 22 28
g blade_0
usemtl route_membrane
f 39 37 35 33 31 29
f 30 32 34 36 38 40
f 29 31 32 30
f 31 33 34 32
f 33 35 36 34
f 35 37 38 36
f 37 39 40 38
f 39 29 30 40
g blade_tip_0
usemtl route_membrane
f 41 42 48 47
f 42 43 49 48
f 43 44 50 49
f 44 45 51 50
f 45 46 52 51
f 46 41 47 52
f 47 48 54 53
f 48 49 55 54
f 49 50 56 55
f 50 51 57 56
f 51 52 58 57
f 52 47 53 58
f 53 54 60 59
f 54 55 61 60
f 55 56 62 61
f 56 57 63 62
f 57 58 64 63
f 58 53 59 64
g blade_1
usemtl route_membrane
f 75 73 71 69 67 65
f 66 68 70 72 74 76
f 65 67 68 66
f 67 69 70 68
f 69 71 72 70
f 71 73 74 72
f 73 75 76 74
f 75 65 66 76
g blade_tip_1
usemtl route_membrane
f 77 78 84 83
f 78 79 85 84
f 79 80 86 85
f 80 81 87 86
f 81 82 88 87
f 82 77 83 88
f 83 84 90 89
f 84 85 91 90
f 85 86 92 91
f 86 87 93 92
f 87 88 94 93
f 88 83 89 94
f 89 90 96 95
f 90 91 97 96
f 91 92 98 97
f 92 93 99 98
f 93 94 100 99
f 94 89 95 100
g blade_2
usemtl route_membrane
f 111 109 107 105 103 101
f 102 104 106 108 110 112
f 101 103 104 102
f 103 105 106 104
f 105 107 108 106
f 107 109 110 108
f 109 111 112 110
f 111 101 102 112
g blade_tip_2
usemtl route_membrane
f 113 114 120 119
f 114 115 121 120
f 115 116 122 121
f 116 117 123 122
f 117 118 124 123
f 118 113 119 124
f 119 120 126 125
f 120 121 127 126
f 121 122 128 127
f 122 123 129 128
f 123 124 130 129
f 124 119 125 130
f 125 126 132 131
f 126 127 133 132
f 127 128 134 133
f 128 129 135 134
f 129 130 136 135
f 130 125 131 136
g blade_3
usemtl route_membrane
f 147 145 143 141 139 137
f 138 140 142 144 146 148
f 137 139 140 138
f 139 141 142 140
f 141 143 144 142
f 143 145 146 144
f 145 147 148 146
f 147 137 138 148
g blade_tip_3
usemtl route_membrane
f 149 150 156 155
f 150 151 157 156
f 151 152 158 157
f 152 153 159 158
f 153 154 160 159
f 154 149 155 160
f 155 156 162 161
f 156 157 163 162
f 157 158 164 163
f 158 159 165 164
f 159 160 166 165
f 160 155 161 166
f 161 162 168 167
f 162 163 169 168
f 163 164 170 169
f 164 165 171 170
f 165 166 172 171
f 166 161 167 172
g blade_4
usemtl route_membrane
f 183 181 179 177 175 173
f 174 176 178 180 182 184
f 173 175 176 174
f 175 177 178 176
f 177 179 180 178
f 179 181 182 180
f 181 183 184 182
f 183 173 174 184
g blade_tip_4
usemtl route_membrane
f 185 186 192 191
f 186 187 193 192
f 187 188 194 193
f 188 189 195 194
f 189 190 196 195
f 190 185 191 196
f 191 192 198 197
f 192 193 199 198
f 193 194 200 199
f 194 195 201 200
f 195 196 202 201
f 196 191 197 202
f 197 198 204 203
f 198 199 205 204
f 199 200 206 205
f 200 201 207 206
f 201 202 208 207
f 202 197 203 208
g blade_5
usemtl route_membrane
f 219 217 215 213 211 209
f 210 212 214 216 218 220
f 209 211 212 210
f 211 213 214 212
f 213 215 216 214
f 215 217 218 216
f 217 219 220 218
f 219 209 210 220
g blade_tip_5
usemtl route_membrane
f 221 222 228 227
f 222 223 229 228
f 223 224 230 229
f 224 225 231 230
f 225 226 232 231
f 226 221 227 232
f 227 228 234 233
f 228 229 235 234
f 229 230 236 235
f 230 231 237 236
f 231 232 238 237
f 232 227 233 238
f 233 234 240 239
f 234 235 241 240
f 235 236 242 241
f 236 237 243 242
f 237 238 244 243
f 238 233 239 244
g blade_6
usemtl route_membrane
f 255 253 251 249 247 245
f 246 248 250 252 254 256
f 245 247 248 246
f 247 249 250 248
f 249 251 252 250
f 251 253 254 252
f 253 255 256 254
f 255 245 246 256
g blade_tip_6
usemtl route_membrane
f 257 258 264 263
f 258 259 265 264
f 259 260 266 265
f 260 261 267 266
f 261 262 268 267
f 262 257 263 268
f 263 264 270 269
f 264 265 271 270
f 265 266 272 271
f 266 267 273 272
f 267 268 274 273
f 268 263 269 274
f 269 270 276 275
f 270 271 277 276
f 271 272 278 277
f 272 273 279 278
f 273 274 280 279
f 274 269 275 280
