# Generated environment blockout: plant_branch_b
mtllib environment_blockout.mtl
o plant_branch_b
v 0.0 0.11 -0.11
v 0.0 2.1 -0.11
v -0.086 0.11 -0.06858
v -0.086 2.1 -0.06858
v -0.10724 0.11 0.02448
v -0.10724 2.1 0.02448
v -0.04773 0.11 0.09911
v -0.04773 2.1 0.09911
v 0.04773 0.11 0.09911
v 0.04773 2.1 0.09911
v 0.10724 0.11 0.02448
v 0.10724 2.1 0.02448
v 0.086 0.11 -0.06858
v 0.086 2.1 -0.06858
v 0.0 0.35 0.07
v 0.45 0.67 0.07
v 0.03513 0.3006 0.035
v 0.48513 0.6206 0.035
v 0.03513 0.3006 -0.035
v 0.48513 0.6206 -0.035
v 0.0 0.35 -0.07
v 0.45 0.67 -0.07
v -0.03513 0.3994 -0.035
v 0.41487 0.7194 -0.035
v -0.03513 0.3994 0.035
v 0.41487 0.7194 0.035
v 0.45 0.67 0.0
v 0.45 0.67 0.0
v 0.45 0.67 0.0
v 0.45 0.67 0.0
v 0.45 0.67 -0.0
v 0.45 0.67 -0.0
v 0.58856 0.77 0.0
v 0.51928 0.77 0.06
v 0.38072 0.77 0.06
v 0.31144 0.77 0.0
v 0.38072 0.77 -0.06
v 0.51928 0.77 -0.06
v 0.58856 0.97 0.0
v 0.51928 0.97 0.06
v 0.38072 0.97 0.06
v 0.31144 0.97 0.0
v 0.38072 0.97 -0.06
v 0.51928 0.97 -0.06
v 0.45 1.07 0.0
v 0.45 1.07 0.0
v 0.45 1.07 0.0
v 0.45 1.07 0.0
v 0.45 1.07 -0.0
v 0.45 1.07 -0.0
v -0.01287 0.581 -0.06881
v -0.55287 0.901 0.03217
v -0.03643 0.52862 -0.0288
v -0.57643 0.84862 0.07218
v -0.02356 0.52862 0.04001
v -0.56356 0.84862 0.14099
v 0.01287 0.581 0.06881
v -0.52713 0.901 0.16978
v 0.03643 0.63338 0.0288
v -0.50357 0.95338 0.12977
v 0.02356 0.63338 -0.04001
v -0.51644 0.95338 0.06096
v -0.54 0.901 0.10098
v -0.54 0.901 0.10098
v -0.54 0.901 0.10098
v -0.54 0.901 0.10098
v -0.54 0.901 0.10098
v -0.54 0.901 0.10098
v -0.40144 1.001 0.10098
v -0.47072 1.001 0.16098
v -0.60928 1.001 0.16098
v -0.67856 1.001 0.10098
v -0.60928 1.001 0.04098
v -0.47072 1.001 0.04098
v -0.40144 1.201 0.10098
v -0.47072 1.201 0.16098
v -0.60928 1.201 0.16098
v -0.67856 1.201 0.10098
v -0.60928 1.201 0.04098
v -0.47072 1.201 0.04098
v -0.54 1.301 0.10098
v -0.54 1.301 0.10098
v -0.54 1.301 0.10098
v -0.54 1.301 0.10098
v -0.54 1.301 0.10098
v -0.54 1.301 0.10098
v -0.01195 0.812 0.06897
v 0.61805 1.132 0.17809
v 0.02076 0.75779 0.03912
v 0.65076 1.07779 0.14823
v 0.03271 0.75779 -0.02986
v 0.66271 1.07779 0.07926
v 0.01195 0.812 -0.06897
v 0.64195 1.132 0.04014
v -0.02076 0.86621 -0.03912
v 0.60924 1.18621 0.07
v -0.03271 0.86621 0.02986
v 0.59729 1.18621 0.13897
v 0.63 1.132 0.10912
v 0.63 1.132 0.10912
v 0.63 1.132 0.10912
v 0.63 1.132 0.10912
v 0.63 1.132 0.10912
v 0.63 1.132 0.10912
v 0.76856 1.232 0.10912
v 0.69928 1.232 0.16912
v 0.56072 1.232 0.16912
v 0.49144 1.232 0.10912
v 0.56072 1.232 0.04912
v 0.69928 1.232 0.04912
v 0.76856 1.432 0.10912
v 0.69928 1.432 0.16912
v 0.56072 1.432 0.16912
v 0.49144 1.432 0.10912
v 0.56072 1.432 0.04912
v 0.69928 1.432 0.04912
v 0.63 1.532 0.10912
v 0.63 1.532 0.10912
v 0.63 1.532 0.10912
v 0.63 1.532 0.10912
v 0.63 1.532 0.10912
v 0.63 1.532 0.10912
v -0.00165 1.043 -0.06998
v -0.72165 1.363 -0.05305
v -0.02543 0.9876 -0.03441
v -0.74543 1.3076 -0.01748
v -0.02379 0.9876 0.03557
v -0.74379 1.3076 0.0525
v 0.00165 1.043 0.06998
v -0.71835 1.363 0.08692
v 0.02543 1.0984 0.03441
v -0.69457 1.4184 0.05135
v 0.02379 1.0984 -0.03557
v -0.69621 1.4184 -0.01863
v -0.72 1.363 0.01693
v -0.72 1.363 0.01693
v -0.72 1.363 0.01693
v -0.72 1.363 0.01693
v -0.72 1.363 0.01693
v -0.72 1.363 0.01693
v -0.58144 1.463 0.01693
v -0.65072 1.463 0.07693
v -0.78928 1.463 0.07693
v -0.85856 1.463 0.01693
v -0.78928 1.463 -0.04307
v -0.65072 1.463 -0.04307
v -0.58144 1.663 0.01693
v -0.65072 1.663 0.07693
v -0.78928 1.663 0.07693
v -0.85856 1.663 0.01693
v -0.78928 1.663 -0.04307
v -0.65072 1.663 -0.04307
v -0.72 1.763 0.01693
v -0.72 1.763 0.01693
v -0.72 1.763 0.01693
v -0.72 1.763 0.01693
v -0.72 1.763 0.01693
v -0.72 1.763 0.01693
v 0.0078 1.274 0.06956
v 0.8178 1.594 -0.02125
v 0.02592 1.21757 0.03231
v 0.83592 1.53757 -0.0585
v 0.01812 1.21757 -0.03725
v 0.82812 1.53757 -0.12807
v -0.0078 1.274 -0.06956
v 0.8022 1.594 -0.16038
v -0.02592 1.33043 -0.03231
v 0.78408 1.65043 -0.12313
v -0.01812 1.33043 0.03725
v 0.79188 1.65043 -0.05357
v 0.81 1.594 -0.09082
v 0.81 1.594 -0.09082
v 0.81 1.594 -0.09082
v 0.81 1.594 -0.09082
v 0.81 1.594 -0.09082
v 0.81 1.594 -0.09082
v 0.94856 1.694 -0.09082
v 0.87928 1.694 -0.03082
v 0.74072 1.694 -0.03082
v 0.67144 1.694 -0.09082
v 0.74072 1.694 -0.15082
v 0.87928 1.694 -0.15082
v 0.94856 1.894 -0.09082
v 0.87928 1.894 -0.03082
v 0.74072 1.894 -0.03082
v 0.67144 1.894 -0.09082
v 0.74072 1.894 -0.15082
v 0.87928 1.894 -0.15082
v 0.81 1.994 -0.09082
v 0.81 1.994 -0.09082
v 0.81 1.994 -0.09082
v 0.81 1.994 -0.09082
v 0.81 1.994 -0.09082
v 0.81 1.994 -0.09082
v 0.00888 1.505 -0.06943
v -0.89112 1.825 -0.18451
v -0.01556 1.44783 -0.03727
v -0.91556 1.76783 -0.15235
v -0.02444 1.44783 0.03216
v -0.92444 1.76783 -0.08291
v -0.00888 1.505 0.06943
v -0.90888 1.825 -0.04564
v 0.01556 1.56217 0.03727
v -0.88444 1.88217 -0.0778
v 0.02444 1.56217 -0.03216
v -0.87556 1.88217 -0.14723
v -0.9 1.825 -0.11507
v -0.9 1.825 -0.11507
v -0.9 1.825 -0.11507
v -0.9 1.825 -0.11507
v -0.9 1.825 -0.11507
v -0.9 1.825 -0.11507
v -0.76144 1.925 -0.11507
v -0.83072 1.925 -0.05507
v -0.96928 1.925 -0.05507
v -1.03856 1.925 -0.11507
v -0.96928 1.925 -0.17507
v -0.83072 1.925 -0.17507
v -0.76144 2.125 -0.11507
v -0.83072 2.125 -0.05507
v -0.96928 2.125 -0.05507
v -1.03856 2.125 -0.11507
v -0.96928 2.125 -0.17507
v -0.83072 2.125 -0.17507
v -0.9 2.225 -0.11507
v -0.9 2.225 -0.11507
v -0.9 2.225 -0.11507
v -0.9 2.225 -0.11507
v -0.9 2.225 -0.11507
v -0.9 2.225 -0.11507
g trunk
usemtl root
f 13 11 9 7 5 3 1
f 2 4 6 8 10 12 14
f 1 3 4 2
f 3 5 6 4
f 5 7 8 6
f 7 9 10 8
f 9 11 12 10
f 11 13 14 12
f 13 1 2 14
g branch_0
usemtl root
f 25 23 21 19 17 15
f 16 18 20 22 24 26
f 15 17 18 16
f 17 19 20 18
f 19 21 22 20
f 21 23 24 22
f 23 25 26 24
f 25 15 16 26
g polyp_0
usemtl route_membrane
f 27 28 34 33
f 28 29 35 34
f 29 30 36 35
f 30 31 37 36
f 31 32 38 37
f 32 27 33 38
f 33 34 40 39
f 34 35 41 40
f 35 36 42 41
f 36 37 43 42
f 37 38 44 43
f 38 33 39 44
f 39 40 46 45
f 40 41 47 46
f 41 42 48 47
f 42 43 49 48
f 43 44 50 49
f 44 39 45 50
g branch_1
usemtl root
f 61 59 57 55 53 51
f 52 54 56 58 60 62
f 51 53 54 52
f 53 55 56 54
f 55 57 58 56
f 57 59 60 58
f 59 61 62 60
f 61 51 52 62
g polyp_1
usemtl route_membrane
f 63 64 70 69
f 64 65 71 70
f 65 66 72 71
f 66 67 73 72
f 67 68 74 73
f 68 63 69 74
f 69 70 76 75
f 70 71 77 76
f 71 72 78 77
f 72 73 79 78
f 73 74 80 79
f 74 69 75 80
f 75 76 82 81
f 76 77 83 82
f 77 78 84 83
f 78 79 85 84
f 79 80 86 85
f 80 75 81 86
g branch_2
usemtl root
f 97 95 93 91 89 87
f 88 90 92 94 96 98
f 87 89 90 88
f 89 91 92 90
f 91 93 94 92
f 93 95 96 94
f 95 97 98 96
f 97 87 88 98
g polyp_2
usemtl route_membrane
f 99 100 106 105
f 100 101 107 106
f 101 102 108 107
f 102 103 109 108
f 103 104 110 109
f 104 99 105 110
f 105 106 112 111
f 106 107 113 112
f 107 108 114 113
f 108 109 115 114
f 109 110 116 115
f 110 105 111 116
f 111 112 118 117
f 112 113 119 118
f 113 114 120 119
f 114 115 121 120
f 115 116 122 121
f 116 111 117 122
g branch_3
usemtl root
f 133 131 129 127 125 123
f 124 126 128 130 132 134
f 123 125 126 124
f 125 127 128 126
f 127 129 130 128
f 129 131 132 130
f 131 133 134 132
f 133 123 124 134
g polyp_3
usemtl route_membrane
f 135 136 142 141
f 136 137 143 142
f 137 138 144 143
f 138 139 145 144
f 139 140 146 145
f 140 135 141 146
f 141 142 148 147
f 142 143 149 148
f 143 144 150 149
f 144 145 151 150
f 145 146 152 151
f 146 141 147 152
f 147 148 154 153
f 148 149 155 154
f 149 150 156 155
f 150 151 157 156
f 151 152 158 157
f 152 147 153 158
g branch_4
usemtl root
f 169 167 165 163 161 159
f 160 162 164 166 168 170
f 159 161 162 160
f 161 163 164 162
f 163 165 166 164
f 165 167 168 166
f 167 169 170 168
f 169 159 160 170
g polyp_4
usemtl route_membrane
f 171 172 178 177
f 172 173 179 178
f 173 174 180 179
f 174 175 181 180
f 175 176 182 181
f 176 171 177 182
f 177 178 184 183
f 178 179 185 184
f 179 180 186 185
f 180 181 187 186
f 181 182 188 187
f 182 177 183 188
f 183 184 190 189
f 184 185 191 190
f 185 186 192 191
f 186 187 193 192
f 187 188 194 193
f 188 183 189 194
g branch_5
usemtl root
f 205 203 201 199 197 195
f 196 198 200 202 204 206
f 195 197 198 196
f 197 199 200 198
f 199 201 202 200
f 201 203 204 202
f 203 205 206 204
f 205 195 196 206
g polyp_5
usemtl route_membrane
f 207 208 214 213
f 208 209 215 214
f 209 210 216 215
f 210 211 217 216
f 211 212 218 217
f 212 207 213 218
f 213 214 220 219
f 214 215 221 220
f 215 216 222 221
f 216 217 223 222
f 217 218 224 223
f 218 213 219 224
f 219 220 226 225
f 220 221 227 226
f 221 222 228 227
f 222 223 229 228
f 223 224 230 229
f 224 219 225 230
