# Generated environment blockout: plant_ribbon_a
mtllib environment_blockout.mtl
o plant_ribbon_a
v 0.0 0.0 0.0
v 0.0 0.0 0.0
v -0.0 0.0 0.0
v -0.0 0.0 0.0
v -0.0 0.0 -0.0
v -0.0 0.0 -0.0
v 0.0 0.0 -0.0
v 0.32909 0.065 0.0
v 0.20518 0.065 0.25729
v -0.07323 0.065 0.32084
v -0.2965 0.065 0.14279
v -0.2965 0.065 -0.14279
v -0.07323 0.065 -0.32084
v 0.20518 0.065 -0.25729
v 0.32909 0.195 0.0
v 0.20518 0.195 0.25729
v -0.07323 0.195 0.32084
v -0.2965 0.195 0.14279
v -0.2965 0.195 -0.14279
v -0.07323 0.195 -0.32084
v 0.20518 0.195 -0.25729
v 0.0 0.26 0.0
v 0.0 0.26 0.0
v -0.0 0.26 0.0
v -0.0 0.26 0.0
v -0.0 0.26 -0.0
v -0.0 0.26 -0.0
v 0.0 0.26 -0.0
v 0.18 0.12717 -0.04443
v 0.3006 0.80717 0.0653
v 0.13784 0.1295 -0.01255
v 0.25844 0.8095 0.09717
v 0.15395 0.1187 0.03667
v 0.27455 0.7987 0.14639
v 0.20605 0.1097 0.03521
v 0.32665 0.7897 0.14494
v 0.22216 0.11493 -0.0149
v 0.34276 0.79493 0.09482
v 0.3006 0.80847 0.07577
v 0.36712 1.60847 0.27526
v 0.26742 0.80521 0.09988
v 0.33395 1.60521 0.29938
v 0.28009 0.79475 0.1376
v 0.34662 1.59475 0.3371
v 0.32111 0.79154 0.1368
v 0.38763 1.59154 0.3363
v 0.33378 0.80002 0.09859
v 0.4003 1.60002 0.29808
v 0.05562 0.12961 0.12723
v -0.01147 0.80961 0.27583
v 0.01302 0.11896 0.15673
v -0.05407 0.79896 0.30533
v 0.02929 0.10975 0.20621
v -0.03779 0.78975 0.35482
v 0.08195 0.11471 0.2073
v 0.01486 0.79471 0.3559
v 0.09822 0.12698 0.15848
v 0.03113 0.80698 0.30709
v -0.01147 0.8054 0.28521
v -0.18064 1.6054 0.41013
v -0.04405 0.79494 0.30806
v -0.21323 1.59494 0.43298
v -0.0316 0.79147 0.34712
v -0.20078 1.59147 0.47204
v 0.00867 0.79979 0.34842
v -0.1605 1.59979 0.47334
v 0.02112 0.80839 0.31016
v -0.14806 1.60839 0.43508
v -0.14562 0.11882 0.06082
v -0.30769 0.79882 0.04293
v -0.18726 0.10972 0.09216
v -0.34932 0.78972 0.07428
v -0.17135 0.11483 0.14236
v -0.33342 0.79483 0.12447
v -0.11989 0.12709 0.14203
v -0.28196 0.80709 0.12415
v -0.10399 0.12955 0.09164
v -0.26605 0.80955 0.07375
v -0.30769 0.79471 0.05332
v -0.47877 1.59471 -0.06898
v -0.34025 0.79156 0.07827
v -0.51133 1.59156 -0.04403
v -0.32781 0.80007 0.11655
v -0.4989 1.60007 -0.00574
v -0.28756 0.80848 0.11526
v -0.45864 1.60848 -0.00703
v -0.27512 0.80517 0.07618
v -0.4462 1.60517 -0.04611
v -0.14562 0.10971 -0.14961
v -0.17869 0.78971 -0.30927
v -0.18837 0.11485 -0.11888
v -0.22144 0.79485 -0.27853
v -0.17204 0.1271 -0.07007
v -0.20511 0.8071 -0.22973
v -0.1192 0.12954 -0.07065
v -0.15227 0.80954 -0.2303
v -0.10287 0.11879 -0.1198
v -0.13594 0.79879 -0.27946
v -0.17869 0.79149 -0.29941
v -0.11525 1.59149 -0.49991
v -0.21188 0.79985 -0.27657
v -0.14844 1.59985 -0.47707
v -0.19921 0.80841 -0.23838
v -0.13576 1.60841 -0.43888
v -0.15818 0.80535 -0.23761
v -0.09474 1.60535 -0.43811
v -0.1455 0.79489 -0.27533
v -0.08206 1.59489 -0.47583
v 0.05562 0.11469 -0.21588
v 0.19725 0.79469 -0.29667
v 0.01371 0.12697 -0.18602
v 0.15534 0.80697 -0.26681
v 0.02972 0.12961 -0.13567
v 0.17134 0.80961 -0.21646
v 0.08153 0.11898 -0.13441
v 0.22315 0.79898 -0.2152
v 0.09753 0.10975 -0.18398
v 0.23916 0.78975 -0.26477
v 0.19725 0.79993 -0.28698
v 0.40754 1.59993 -0.2886
v 0.16505 0.80844 -0.26281
v 0.37534 1.60844 -0.26443
v 0.17735 0.80529 -0.22367
v 0.38764 1.60529 -0.2253
v 0.21714 0.79483 -0.22365
v 0.42743 1.59483 -0.22527
v 0.22944 0.79152 -0.26278
v 0.43973 1.59152 -0.2644
g holdfast
usemtl root
f 1 2 9 8
f 2 3 10 9
f 3 4 11 10
f 4 5 12 11
f 5 6 13 12
f 6 7 14 13
f 7 1 8 14
f 8 9 16 15
f 9 10 17 16
f 10 11 18 17
f 11 12 19 18
f 12 13 20 19
f 13 14 21 20
f 14 8 15 21
f 15 16 23 22
f 16 17 24 23
f 17 18 25 24
f 18 19 26 25
f 19 20 27 26
f 20 21 28 27
f 21 15 22 28
g ribbon_0
usemtl route_membrane
f 37 35 33 31 29
f 30 32 34 36 38
f 29 31 32 30
f 31 33 34 32
f 33 35 36 34
f 35 37 38 36
f 37 29 30 38
f 47 45 43 41 39
f 40 42 44 46 48
f 39 41 42 40
f 41 43 44 42
f 43 45 46 44
f 45 47 48 46
f 47 39 40 48
g ribbon_1
usemtl route_membrane
f 57 55 53 51 49
f 50 52 54 56 58
f 49 51 52 50
f 51 53 54 52
f 53 55 56 54
f 55 57 58 56
f 57 49 50 58
f 67 65 63 61 59
f 60 62 64 66 68
f 59 61 62 60
f 61 63 64 62
f 63 65 66 64
f 65 67 68 66
f 67 59 60 68
g ribbon_2
usemtl route_membrane
f 77 75 73 71 69
f 70 72 74 76 78
f 69 71 72 70
f 71 73 74 72
f 73 75 76 74
f 75 77 78 76
f 77 69 70 78
f 87 85 83 81 79
f 80 82 84 86 88
f 79 81 82 80
f 81 83 84 82
f 83 85 86 84
f 85 87 88 86
f 87 79 80 88
g ribbon_3
usemtl route_membrane
f 97 95 93 91 89
f 90 92 94 96 98
f 89 91 92 90
f 91 93 94 92
f 93 95 96 94
f 95 97 98 96
f 97 89 90 98
f 107 105 103 101 99
f 100 102 104 106 108
f 99 101 102 100
f 101 103 104 102
f 103 105 106 104
f 105 107 108 106
f 107 99 100 108
g ribbon_4
usemtl route_membrane
f 117 115 113 111 109
f 110 112 114 116 118
f 109 111 112 110
f 111 113 114 112
f 113 115 116 114
f 115 117 118 116
f 117 109 110 118
f 127 125 123 121 119
f 120 122 124 126 128
f 119 121 122 120
f 121 123 124 122
f 123 125 126 124
f 125 127 128 126
f 127 119 120 128
