# Generated environment blockout: river_debris_a
mtllib environment_blockout.mtl
o river_debris_a
v -1.8 0.0 -0.2
v -1.8 0.0 -0.2
v -1.8 0.0 -0.2
v -1.8 0.0 -0.2
v -1.8 0.0 -0.2
v -1.8 0.0 -0.2
v -1.8 0.0 -0.2
v -1.8 0.0 -0.2
v -1.8 0.0 -0.2
v -1.8 0.0 -0.2
v -0.50096 0.0225 -0.2
v -0.74906 0.0225 0.07997
v -1.39858 0.0225 0.253
v -2.20142 0.0225 0.253
v -2.85094 0.0225 0.07997
v -3.09904 0.0225 -0.2
v -2.85094 0.0225 -0.47997
v -2.20142 0.0225 -0.653
v -1.39858 0.0225 -0.653
v -0.74906 0.0225 -0.47997
v -0.50096 0.0675 -0.2
v -0.74906 0.0675 0.07997
v -1.39858 0.0675 0.253
v -2.20142 0.0675 0.253
v -2.85094 0.0675 0.07997
v -3.09904 0.0675 -0.2
v -2.85094 0.0675 -0.47997
v -2.20142 0.0675 -0.653
v -1.39858 0.0675 -0.653
v -0.74906 0.0675 -0.47997
v -1.8 0.09 -0.2
v -1.8 0.09 -0.2
v -1.8 0.09 -0.2
v -1.8 0.09 -0.2
v -1.8 0.09 -0.2
v -1.8 0.09 -0.2
v -1.8 0.09 -0.2
v -1.8 0.09 -0.2
v -1.8 0.09 -0.2
v -1.8 0.09 -0.2
v 0.5 0.0 0.3
v 0.5 0.0 0.3
v 0.5 0.0 0.3
v 0.5 0.0 0.3
v 0.5 0.0 0.3
v 0.5 0.0 0.3
v 0.5 0.0 0.3
v 0.5 0.0 0.3
v 0.5 0.0 0.3
v 0.5 0.0 0.3
v 2.05885 0.0225 0.3
v 1.76113 0.0225 0.65633
v 0.98171 0.0225 0.87655
v 0.01829 0.0225 0.87655
v -0.76113 0.0225 0.65633
v -1.05885 0.0225 0.3
v -0.76113 0.0225 -0.05633
v 0.01829 0.0225 -0.27655
v 0.98171 0.0225 -0.27655
v 1.76113 0.0225 -0.05633
v 2.05885 0.0675 0.3
v 1.76113 0.0675 0.65633
v 0.98171 0.0675 0.87655
v 0.01829 0.0675 0.87655
v -0.76113 0.0675 0.65633
v -1.05885 0.0675 0.3
v -0.76113 0.0675 -0.05633
v 0.01829 0.0675 -0.27655
v 0.98171 0.0675 -0.27655
v 1.76113 0.0675 -0.05633
v 0.5 0.09 0.3
v 0.5 0.09 0.3
v 0.5 0.09 0.3
v 0.5 0.09 0.3
v 0.5 0.09 0.3
v 0.5 0.09 0.3
v 0.5 0.09 0.3
v 0.5 0.09 0.3
v 0.5 0.09 0.3
v 0.5 0.09 0.3
v 2.1 0.0 -0.45
v 2.1 0.0 -0.45
v 2.1 0.0 -0.45
v 2.1 0.0 -0.45
v 2.1 0.0 -0.45
v 2.1 0.0 -0.45
v 2.1 0.0 -0.45
v 2.1 0.0 -0.45
v 2.1 0.0 -0.45
v 2.1 0.0 -0.45
v 3.05263 0.0225 -0.45
v 2.87069 0.0225 -0.20566
v 2.39438 0.0225 -0.05465
v 1.80562 0.0225 -0.05465
v 1.32931 0.0225 -0.20566
v 1.14737 0.0225 -0.45
v 1.32931 0.0225 -0.69434
v 1.80562 0.0225 -0.84535
v 2.39438 0.0225 -0.84535
v 2.87069 0.0225 -0.69434
v 3.05263 0.0675 -0.45
v 2.87069 0.0675 -0.20566
v 2.39438 0.0675 -0.05465
v 1.80562 0.0675 -0.05465
v 1.32931 0.0675 -0.20566
v 1.14737 0.0675 -0.45
v 1.32931 0.0675 -0.69434
v 1.80562 0.0675 -0.84535
v 2.39438 0.0675 -0.84535
v 2.87069 0.0675 -0.69434
v 2.1 0.09 -0.45
v 2.1 0.09 -0.45
v 2.1 0.09 -0.45
v 2.1 0.09 -0.45
v 2.1 0.09 -0.45
v 2.1 0.09 -0.45
v 2.1 0.09 -0.45
v 2.1 0.09 -0.45
v 2.1 0.09 -0.45
v 2.1 0.09 -0.45
v -2.9076 0.14 -0.47036
v -0.7076 0.15 -0.26036
v -2.90349 0.07072 -0.51015
v -0.70349 0.08072 -0.30015
v -2.89589 0.07072 -0.58979
v -0.69589 0.08072 -0.37979
v -2.8924 0.14 -0.62964
v -0.6924 0.15 -0.41964
v -2.89651 0.20928 -0.58985
v -0.69651 0.21928 -0.37985
v -2.90411 0.20928 -0.51021
v -0.70411 0.21928 -0.30021
v -0.50952 0.16 0.39955
v 1.79048 0.17 0.61955
v -0.50439 0.0734 0.34981
v 1.79561 0.0834 0.56981
v -0.49487 0.0734 0.25026
v 1.80513 0.0834 0.47026
v -0.49048 0.16 0.20045
v 1.80952 0.17 0.42045
v -0.49561 0.2466 0.25019
v 1.80439 0.2566 0.47019
v -0.50513 0.2466 0.34974
v 1.79487 0.2566 0.56974
v 1.01591 0.14 -0.13183
v 2.51591 0.15 -0.48183
v 1.00834 0.07938 -0.166
v 2.50834 0.08938 -0.516
v 0.99243 0.07938 -0.23417
v 2.49243 0.08938 -0.58417
v 0.98409 0.14 -0.26817
v 2.48409 0.15 -0.61817
v 0.99166 0.20062 -0.234
v 2.49166 0.21062 -0.584
v 1.00757 0.20062 -0.16583
v 2.50757 0.21062 -0.51583
v -1.35 0.03 0.45
v -1.35 0.03 0.45
v -1.35 0.03 0.45
v -1.35 0.03 0.45
v -1.35 0.03 0.45
v -1.35 0.03 0.45
v -1.35 0.03 0.45
v -1.21144 0.065 0.45
v -1.26361 0.065 0.528
v -1.38083 0.065 0.54726
v -1.47484 0.065 0.49329
v -1.47484 0.065 0.40671
v -1.38083 0.065 0.35274
v -1.26361 0.065 0.372
v -1.21144 0.135 0.45
v -1.26361 0.135 0.528
v -1.38083 0.135 0.54726
v -1.47484 0.135 0.49329
v -1.47484 0.135 0.40671
v -1.38083 0.135 0.35274
v -1.26361 0.135 0.372
v -1.35 0.17 0.45
v -1.35 0.17 0.45
v -1.35 0.17 0.45
v -1.35 0.17 0.45
v -1.35 0.17 0.45
v -1.35 0.17 0.45
v -1.35 0.17 0.45
v 0.2 0.03 -0.5
v 0.2 0.03 -0.5
v 0.2 0.03 -0.5
v 0.2 0.03 -0.5
v 0.2 0.03 -0.5
v 0.2 0.03 -0.5
v 0.2 0.03 -0.5
v 0.39053 0.065 -0.5
v 0.31879 0.065 -0.39275
v 0.1576 0.065 -0.36626
v 0.02834 0.065 -0.44048
v 0.02834 0.065 -0.55952
v 0.1576 0.065 -0.63374
v 0.31879 0.065 -0.60725
v 0.39053 0.135 -0.5
v 0.31879 0.135 -0.39275
v 0.1576 0.135 -0.36626
v 0.02834 0.135 -0.44048
v 0.02834 0.135 -0.55952
v 0.1576 0.135 -0.63374
v 0.31879 0.135 -0.60725
v 0.2 0.17 -0.5
v 0.2 0.17 -0.5
v 0.2 0.17 -0.5
v 0.2 0.17 -0.5
v 0.2 0.17 -0.5
v 0.2 0.17 -0.5
v 0.2 0.17 -0.5
v 1.7 0.03 0.55
v 1.7 0.03 0.55
v 1.7 0.03 0.55
v 1.7 0.03 0.55
v 1.7 0.03 0.55
v 1.7 0.03 0.55
v 1.7 0.03 0.55
v 1.81258 0.065 0.55
v 1.77019 0.065 0.61338
v 1.67495 0.065 0.62903
v 1.59857 0.065 0.58517
v 1.59857 0.065 0.51483
v 1.67495 0.065 0.47097
v 1.77019 0.065 0.48662
v 1.81258 0.135 0.55
v 1.77019 0.135 0.61338
v 1.67495 0.135 0.62903
v 1.59857 0.135 0.58517
v 1.59857 0.135 0.51483
v 1.67495 0.135 0.47097
v 1.77019 0.135 0.48662
v 1.7 0.17 0.55
v 1.7 0.17 0.55
v 1.7 0.17 0.55
v 1.7 0.17 0.55
v 1.7 0.17 0.55
v 1.7 0.17 0.55
v 1.7 0.17 0.55
g silt_lobe_0
usemtl flood_silt
f 1 2 12 11
f 2 3 13 12
f 3 4 14 13
f 4 5 15 14
f 5 6 16 15
f 6 7 17 16
f 7 8 18 17
f 8 9 19 18
f 9 10 20 19
f 10 1 11 20
f 11 12 22 21
f 12 13 23 22
f 13 14 24 23
f 14 15 25 24
f 15 16 26 25
f 16 17 27 26
f 17 18 28 27
f 18 19 29 28
f 19 20 30 29
f 20 11 21 30
f 21 22 32 31
f 22 23 33 32
f 23 24 34 33
f 24 25 35 34
f 25 26 36 35
f 26 27 37 36
f 27 28 38 37
f 28 29 39 38
f 29 30 40 39
f 30 21 31 40
g silt_lobe_1
usemtl flood_silt
f 41 42 52 51
f 42 43 53 52
f 43 44 54 53
f 44 45 55 54
f 45 46 56 55
f 46 47 57 56
f 47 48 58 57
f 48 49 59 58
f 49 50 60 59
f 50 41 51 60
f 51 52 62 61
f 52 53 63 62
f 53 54 64 63
f 54 55 65 64
f 55 56 66 65
f 56 57 67 66
f 57 58 68 67
f 58 59 69 68
f 59 60 70 69
f 60 51 61 70
f 61 62 72 71
f 62 63 73 72
f 63 64 74 73
f 64 65 75 74
f 65 66 76 75
f 66 67 77 76
f 67 68 78 77
f 68 69 79 78
f 69 70 80 79
f 70 61 71 80
g silt_lobe_2
usemtl flood_silt
f 81 82 92 91
f 82 83 93 92
f 83 84 94 93
f 84 85 95 94
f 85 86 96 95
f 86 87 97 96
f 87 88 98 97
f 88 89 99 98
f 89 90 100 99
f 90 81 91 100
f 91 92 102 101
f 92 93 103 102
f 93 94 104 103
f 94 95 105 104
f 95 96 106 105
f 96 97 107 106
f 97 98 108 107
f 98 99 109 108
f 99 100 110 109
f 100 91 101 110
f 101 102 112 111
f 102 103 113 112
f 103 104 114 113
f 104 105 115 114
f 105 106 116 115
f 106 107 117 116
f 107 108 118 117
f 108 109 119 118
f 109 110 120 119
f 110 101 111 120
g stranded_fibre_0
usemtl root
f 131 129 127 125 123 121
f 122 124 126 128 130 132
f 121 123 124 122
f 123 125 126 124
f 125 127 128 126
f 127 129 130 128
f 129 131 132 130
f 131 121 122 132
g stranded_fibre_1
usemtl root
f 143 141 139 137 135 133
f 134 136 138 140 142 144
f 133 135 136 134
f 135 137 138 136
f 137 139 140 138
f 139 141 142 140
f 141 143 144 142
f 143 133 134 144
g stranded_fibre_2
usemtl root
f 155 153 151 149 147 145
f 146 148 150 152 154 156
f 145 147 148 146
f 147 149 150 148
f 149 151 152 150
f 151 153 154 152
f 153 155 156 154
f 155 145 146 156
g grain_0
usemtl carbonate
f 157 158 165 164
f 158 159 166 165
f 159 160 167 166
f 160 161 168 167
f 161 162 169 168
f 162 163 170 169
f 163 157 164 170
f 164 165 172 171
f 165 166 173 172
f 166 167 174 173
f 167 168 175 174
f 168 169 176 175
f 169 170 177 176
f 170 164 171 177
f 171 172 179 178
f 172 173 180 179
f 173 174 181 180
f 174 175 182 181
f 175 176 183 182
f 176 177 184 183
f 177 171 178 184
g grain_1
usemtl carbonate
f 185 186 193 192
f 186 187 194 193
f 187 188 195 194
f 188 189 196 195
f 189 190 197 196
f 190 191 198 197
f 191 185 192 198
f 192 193 200 199
f 193 194 201 200
f 194 195 202 201
f 195 196 203 202
f 196 197 204 203
f 197 198 205 204
f 198 192 199 205
f 199 200 207 206
f 200 201 208 207
f 201 202 209 208
f 202 203 210 209
f 203 204 211 210
f 204 205 212 211
f 205 199 206 212
g grain_2
usemtl carbonate
f 213 214 221 220
f 214 215 222 221
f 215 216 223 222
f 216 217 224 223
f 217 218 225 224
f 218 219 226 225
f 219 213 220 226
f 220 221 228 227
f 221 222 229 228
f 222 223 230 229
f 223 224 231 230
f 224 225 232 231
f 225 226 233 232
f 226 220 227 233
f 227 228 235 234
f 228 229 236 235
f 229 230 237 236
f 230 231 238 237
f 231 232 239 238
f 232 233 240 239
f 233 227 234 240
