# Generated environment blockout: root_arch_a
mtllib environment_blockout.mtl
o root_arch_a
v -3.0 0.22 0.22
v -2.2 1.5 0.22
v -2.86808 0.13755 0.15556
v -2.06808 1.41755 0.15556
v -2.81344 0.1034 0.0
v -2.01344 1.3834 0.0
v -2.86808 0.13755 -0.15556
v -2.06808 1.41755 -0.15556
v -3.0 0.22 -0.22
v -2.2 1.5 -0.22
v -3.13192 0.30245 -0.15556
v -2.33192 1.58245 -0.15556
v -3.18656 0.3366 -0.0
v -2.38656 1.6166 -0.0
v -3.13192 0.30245 0.15556
v -2.33192 1.58245 0.15556
v -2.2 1.5 0.18
v -1.1 2.7 0.18
v -2.10618 1.41399 0.12728
v -1.00618 2.61399 0.12728
v -2.06731 1.37837 0.0
v -0.96731 2.57837 0.0
v -2.10618 1.41399 -0.12728
v -1.00618 2.61399 -0.12728
v -2.2 1.5 -0.18
v -1.1 2.7 -0.18
v -2.29382 1.58601 -0.12728
v -1.19382 2.78601 -0.12728
v -2.33269 1.62163 -0.0
v -1.23269 2.82163 -0.0
v -2.29382 1.58601 0.12728
v -1.19382 2.78601 0.12728
v -1.1 2.7 0.18
v 0.0 3.15 0.18
v -1.05181 2.5822 0.12728
v 0.04819 3.0322 0.12728
v -1.03185 2.5334 0.0
v 0.06815 2.9834 0.0
v -1.05181 2.5822 -0.12728
v 0.04819 3.0322 -0.12728
v -1.1 2.7 -0.18
v 0.0 3.15 -0.18
v -1.14819 2.8178 -0.12728
v -0.04819 3.2678 -0.12728
v -1.16815 2.8666 -0.0
v -0.06815 3.3166 -0.0
v -1.14819 2.8178 0.12728
v -0.04819 3.2678 0.12728
v 0.0 3.15 0.18
v 1.1 2.7 0.18
v -0.04819 3.0322 0.12728
v 1.05181 2.5822 0.12728
v -0.06815 2.9834 0.0
v 1.03185 2.5334 0.0
v -0.04819 3.0322 -0.12728
v 1.05181 2.5822 -0.12728
v -0.0 3.15 -0.18
v 1.1 2.7 -0.18
v 0.04819 3.2678 -0.12728
v 1.14819 2.8178 -0.12728
v 0.06815 3.3166 -0.0
v 1.16815 2.8666 -0.0
v 0.04819 3.2678 0.12728
v 1.14819 2.8178 0.12728
v 1.1 2.7 0.18
v 2.2 1.5 0.18
v 1.00618 2.61399 0.12728
v 2.10618 1.41399 0.12728
v 0.96731 2.57837 0.0
v 2.06731 1.37837 0.0
v 1.00618 2.61399 -0.12728
v 2.10618 1.41399 -0.12728
v 1.1 2.7 -0.18
v 2.2 1.5 -0.18
v 1.19382 2.78601 -0.12728
v 2.29382 1.58601 -0.12728
v 1.23269 2.82163 -0.0
v 2.33269 1.62163 -0.0
v 1.19382 2.78601 0.12728
v 2.29382 1.58601 0.12728
v 2.2 1.5 0.22
v 3.0 0.22 0.22
v 2.06808 1.41755 0.15556
v 2.86808 0.13755 0.15556
v 2.01344 1.3834 0.0
v 2.81344 0.1034 0.0
v 2.06808 1.41755 -0.15556
v 2.86808 0.13755 -0.15556
v 2.2 1.5 -0.22
v 3.0 0.22 -0.22
v 2.33192 1.58245 -0.15556
v 3.13192 0.30245 -0.15556
v 2.38656 1.6166 -0.0
v 3.18656 0.3366 -0.0
v 2.33192 1.58245 0.15556
v 3.13192 0.30245 0.15556
v -2.31296 0.9 0.0405
v -1.82896 0.12 1.3905
v -2.28556 0.81758 -0.01695
v -1.80156 0.03758 1.33305
v -2.19373 0.79723 -0.06163
v -1.70973 0.01723 1.28837
v -2.10662 0.85426 -0.0599
v -1.62262 0.07426 1.2901
v -2.08983 0.94574 -0.01307
v -1.60583 0.16574 1.33693
v -2.156 1.00277 0.04361
v -1.672 0.22277 1.39361
v -2.2553 0.98242 0.06745
v -1.7713 0.20242 1.41745
v 2.08704 0.9 -0.0405
v 1.60304 0.12 1.3095
v 2.1447 0.81758 -0.06745
v 1.6607 0.03758 1.28255
v 2.244 0.79723 -0.04361
v 1.76 0.01723 1.30639
v 2.31017 0.85426 0.01307
v 1.82617 0.07426 1.36307
v 2.29338 0.94574 0.0599
v 1.80938 0.16574 1.4099
v 2.20627 1.00277 0.06163
v 1.72227 0.22277 1.41163
v 2.11444 0.98242 0.01695
v 1.63044 0.20242 1.36695
g arch
usemtl root
f 15 13 11 9 7 5 3 1
f 2 4 6 8 10 12 14 16
f 1 3 4 2
f 3 5 6 4
f 5 7 8 6
f 7 9 10 8
f 9 11 12 10
f 11 13 14 12
f 13 15 16 14
f 15 1 2 16
f 31 29 27 25 23 21 19 17
f 18 20 22 24 26 28 30 32
f 17 19 20 18
f 19 21 22 20
f 21 23 24 22
f 23 25 26 24
f 25 27 28 26
f 27 29 30 28
f 29 31 32 30
f 31 17 18 32
f 47 45 43 41 39 37 35 33
f 34 36 38 40 42 44 46 48
f 33 35 36 34
f 35 37 38 36
f 37 39 40 38
f 39 41 42 40
f 41 43 44 42
f 43 45 46 44
f 45 47 48 46
f 47 33 34 48
f 63 61 59 57 55 53 51 49
f 50 52 54 56 58 60 62 64
f 49 51 52 50
f 51 53 54 52
f 53 55 56 54
f 55 57 58 56
f 57 59 60 58
f 59 61 62 60
f 61 63 64 62
f 63 49 50 64
f 79 77 75 73 71 69 67 65
f 66 68 70 72 74 76 78 80
f 65 67 68 66
f 67 69 70 68
f 69 71 72 70
f 71 73 74 72
f 73 75 76 74
f 75 77 78 76
f 77 79 80 78
f 79 65 66 80
f 95 93 91 89 87 85 83 81
f 82 84 86 88 90 92 94 96
f 81 83 84 82
f 83 85 86 84
f 85 87 88 86
f 87 89 90 88
f 89 91 92 90
f 91 93 94 92
f 93 95 96 94
f 95 81 82 96
g brace
usemtl root
f 109 107 105 103 101 99 97
f 98 100 102 104 106 108 110
f 97 99 100 98
f 99 101 102 100
f 101 103 104 102
f 103 105 106 104
f 105 107 108 106
f 107 109 110 108
f 109 97 98 110
f 123 121 119 117 115 113 111
f 112 114 116 118 120 122 124
f 111 113 114 112
f 113 115 116 114
f 115 117 118 116
f 117 119 120 118
f 119 121 122 120
f 121 123 124 122
f 123 111 112 124
