# Generated environment blockout: route_flow_junction_a
mtllib environment_blockout.mtl
o route_flow_junction_a
v -2.0 0.0 -0.45
v 2.0 0.0 -0.45
v 2.0 0.08 -0.45
v -2.0 0.08 -0.45
v -2.0 0.0 0.45
v 2.0 0.0 0.45
v 2.0 0.08 0.45
v -2.0 0.08 0.45
v -0.45 0.0 -2.0
v 0.45 0.0 -2.0
v 0.45 0.08 -2.0
v -0.45 0.08 -2.0
v -0.45 0.0 2.0
v 0.45 0.0 2.0
v 0.45 0.08 2.0
v -0.45 0.08 2.0
g route_x
usemtl route_membrane
f 1 2 3 4
f 5 8 7 6
f 1 5 6 2
f 2 6 7 3
f 3 7 8 4
f 5 1 4 8
g route_z
usemtl route_membrane
f 9 10 11 12
f 13 16 15 14
f 9 13 14 10
f 10 14 15 11
f 11 15 16 12
f 13 9 12 16
