# Generated environment blockout: route_flow_straight_a
mtllib environment_blockout.mtl
o route_flow_straight_a
v -2.0 0.0 -0.45
v 2.0 0.0 -0.45
v 2.0 0.08 -0.45
v -2.0 0.08 -0.45
v -2.0 0.0 0.45
v 2.0 0.0 0.45
v 2.0 0.08 0.45
v -2.0 0.08 0.45
v -2.0 0.12 -0.435
v 2.0 0.12 -0.435
v -2.0 0.06918 -0.45947
v 2.0 0.06918 -0.45947
v -2.0 0.05663 -0.51446
v 2.0 0.05663 -0.51446
v -2.0 0.0918 -0.55856
v 2.0 0.0918 -0.55856
v -2.0 0.1482 -0.55856
v 2.0 0.1482 -0.55856
v -2.0 0.18337 -0.51446
v 2.0 0.18337 -0.51446
v -2.0 0.17082 -0.45947
v 2.0 0.17082 -0.45947
v -2.0 0.12 0.565
v 2.0 0.12 0.565
v -2.0 0.06918 0.54053
v 2.0 0.06918 0.54053
v -2.0 0.05663 0.48554
v 2.0 0.05663 0.48554
v -2.0 0.0918 0.44144
v 2.0 0.0918 0.44144
v -2.0 0.1482 0.44144
v 2.0 0.1482 0.44144
v -2.0 0.18337 0.48554
v 2.0 0.18337 0.48554
v -2.0 0.17082 0.54053
v 2.0 0.17082 0.54053
g route_surface
usemtl route_membrane
f 1 2 3 4
f 5 8 7 6
f 1 5 6 2
f 2 6 7 3
f 3 7 8 4
f 5 1 4 8
g route_rib
usemtl carbonate
f 21 19 17 15 13 11 9
f 10 12 14 16 18 20 22
f 9 11 12 10
f 11 13 14 12
f 13 15 16 14
f 15 17 18 16
f 17 19 20 18
f 19 21 22 20
f 21 9 10 22
f 35 33 31 29 27 25 23
f 24 26 28 30 32 34 36
f 23 25 26 24
f 25 27 28 26
f 27 29 30 28
f 29 31 32 30
f 31 33 34 32
f 33 35 36 34
f 35 23 24 36
