# Generated environment blockout: route_flow_corner_a
mtllib environment_blockout.mtl
o route_flow_corner_a
v -2.0 0.0 -0.45
v 0.0 0.0 -0.45
v 0.0 0.08 -0.45
v -2.0 0.08 -0.45
v -2.0 0.0 0.45
v 0.0 0.0 0.45
v 0.0 0.08 0.45
v -2.0 0.08 0.45
v -0.45 0.0 0.0
v 0.45 0.0 0.0
v 0.45 0.08 0.0
v -0.45 0.08 0.0
v -0.45 0.0 2.0
v 0.45 0.0 2.0
v 0.45 0.08 2.0
v -0.45 0.08 2.0
v -2.0 0.12 -0.435
v 0.0 0.12 -0.435
v -2.0 0.06918 -0.45947
v 0.0 0.06918 -0.45947
v -2.0 0.05663 -0.51446
v 0.0 0.05663 -0.51446
v -2.0 0.0918 -0.55856
v 0.0 0.0918 -0.55856
v -2.0 0.1482 -0.55856
v 0.0 0.1482 -0.55856
v -2.0 0.18337 -0.51446
v 0.0 0.18337 -0.51446
v -2.0 0.17082 -0.45947
v 0.0 0.17082 -0.45947
v -2.0 0.12 0.565
v -0.5 0.12 0.565
v -2.0 0.06918 0.54053
v -0.5 0.06918 0.54053
v -2.0 0.05663 0.48554
v -0.5 0.05663 0.48554
v -2.0 0.0918 0.44144
v -0.5 0.0918 0.44144
v -2.0 0.1482 0.44144
v -0.5 0.1482 0.44144
v -2.0 0.18337 0.48554
v -0.5 0.18337 0.48554
v -2.0 0.17082 0.54053
v -0.5 0.17082 0.54053
v -0.565 0.12 0.5
v -0.565 0.12 2.0
v -0.54053 0.06918 0.5
v -0.54053 0.06918 2.0
v -0.48554 0.05663 0.5
v -0.48554 0.05663 2.0
v -0.44144 0.0918 0.5
v -0.44144 0.0918 2.0
v -0.44144 0.1482 0.5
v -0.44144 0.1482 2.0
v -0.48554 0.18337 0.5
v -0.48554 0.18337 2.0
v -0.54053 0.17082 0.5
v -0.54053 0.17082 2.0
v 0.435 0.12 0.0
v 0.435 0.12 2.0
v 0.45947 0.06918 0.0
v 0.45947 0.06918 2.0
v 0.51446 0.05663 0.0
v 0.51446 0.05663 2.0
v 0.55856 0.0918 0.0
v 0.55856 0.0918 2.0
v 0.55856 0.1482 0.0
v 0.55856 0.1482 2.0
v 0.51446 0.18337 0.0
v 0.51446 0.18337 2.0
v 0.45947 0.17082 0.0
v 0.45947 0.17082 2.0
g route_x
usemtl route_membrane
f 1 2 3 4
f 5 8 7 6
f 1 5 6 2
f 2 6 7 3
f 3 7 8 4
f 5 1 4 8
g route_z
usemtl route_membrane
f 9 10 11 12
f 13 16 15 14
f 9 13 14 10
f 10 14 15 11
f 11 15 16 12
f 13 9 12 16
g route_rib
usemtl carbonate
f 29 27 25 23 21 19 17
f 18 20 22 24 26 28 30
f 17 19 20 18
f 19 21 22 20
f 21 23 24 22
f 23 25 26 24
f 25 27 28 26
f 27 29 30 28
f 29 17 18 30
f 43 41 39 37 35 33 31
f 32 34 36 38 40 42 44
f 31 33 34 32
f 33 35 36 34
f 35 37 38 36
f 37 39 40 38
f 39 41 42 40
f 41 43 44 42
f 43 31 32 44
f 57 55 53 51 49 47 45
f 46 48 50 52 54 56 58
f 45 47 48 46
f 47 49 50 48
f 49 51 52 50
f 51 53 54 52
f 53 55 56 54
f 55 57 58 56
f 57 45 46 58
f 71 69 67 65 63 61 59
f 60 62 64 66 68 70 72
f 59 61 62 60
f 61 63 64 62
f 63 65 66 64
f 65 67 68 66
f 67 69 70 68
f 69 71 72 70
f 71 59 60 72
