# Generated environment blockout: silica_outcrop_b
mtllib environment_blockout.mtl
o silica_outcrop_b
v -1.8 0.0 0.2
v -1.8 0.0 0.2
v -1.8 0.0 0.2
v -1.8 0.0 0.2
v -1.8 0.0 0.2
v -1.8 0.0 0.2
v -1.8 0.0 0.2
v -1.8 0.0 0.2
v -1.8 0.0 0.2
v -1.8 0.0 0.2
v -1.8 0.0 0.2
v -0.24437 0.09373 0.2
v -0.49132 0.09373 0.73521
v -1.15377 0.09373 1.10049
v -2.02139 0.09373 1.17987
v -2.81872 0.09373 0.94815
v -3.29262 0.09373 0.4789
v -3.29262 0.09373 -0.0789
v -2.81872 0.09373 -0.54815
v -2.02139 0.09373 -0.77987
v -1.15377 0.09373 -0.70049
v -0.49132 0.09373 -0.33521
v 0.4 0.32 0.2
v 0.05076 0.32 0.9569
v -0.88609 0.32 1.47348
v -2.11309 0.32 1.58575
v -3.24069 0.32 1.25805
v -3.91088 0.32 0.59443
v -3.91088 0.32 -0.19443
v -3.24069 0.32 -0.85805
v -2.11309 0.32 -1.18575
v -0.88609 0.32 -1.07348
v 0.05076 0.32 -0.5569
v -0.24437 0.54627 0.2
v -0.49132 0.54627 0.73521
v -1.15377 0.54627 1.10049
v -2.02139 0.54627 1.17987
v -2.81872 0.54627 0.94815
v -3.29262 0.54627 0.4789
v -3.29262 0.54627 -0.0789
v -2.81872 0.54627 -0.54815
v -2.02139 0.54627 -0.77987
v -1.15377 0.54627 -0.70049
v -0.49132 0.54627 -0.33521
v -1.8 0.64 0.2
v -1.8 0.64 0.2
v -1.8 0.64 0.2
v -1.8 0.64 0.2
v -1.8 0.64 0.2
v -1.8 0.64 0.2
v -1.8 0.64 0.2
v -1.8 0.64 0.2
v -1.8 0.64 0.2
v -1.8 0.64 0.2
v -1.8 0.64 0.2
v 0.2 0.35 -0.1
v 0.2 0.35 -0.1
v 0.2 0.35 -0.1
v 0.2 0.35 -0.1
v 0.2 0.35 -0.1
v 0.2 0.35 -0.1
v 0.2 0.35 -0.1
v 0.2 0.35 -0.1
v 0.2 0.35 -0.1
v 0.2 0.35 -0.1
v 0.2 0.35 -0.1
v 1.96777 0.4613 -0.1
v 1.68714 0.4613 0.49255
v 0.93436 0.4613 0.89697
v -0.05158 0.4613 0.98486
v -0.95764 0.4613 0.72831
v -1.49616 0.4613 0.20878
v -1.49616 0.4613 -0.40878
v -0.95764 0.4613 -0.92831
v -0.05158 0.4613 -1.18486
v 0.93436 0.4613 -1.09697
v 1.68714 0.4613 -0.69255
v 2.7 0.73 -0.1
v 2.30313 0.73 0.73799
v 1.23854 0.73 1.30993
v -0.15579 0.73 1.43422
v -1.43715 0.73 1.07141
v -2.19873 0.73 0.33669
v -2.19873 0.73 -0.53669
v -1.43715 0.73 -1.27141
v -0.15579 0.73 -1.63422
v 1.23854 0.73 -1.50993
v 2.30313 0.73 -0.93799
v 1.96777 0.9987 -0.1
v 1.68714 0.9987 0.49255
v 0.93436 0.9987 0.89697
v -0.05158 0.9987 0.98486
v -0.95764 0.9987 0.72831
v -1.49616 0.9987 0.20878
v -1.49616 0.9987 -0.40878
v -0.95764 0.9987 -0.92831
v -0.05158 0.9987 -1.18486
v 0.93436 0.9987 -1.09697
v 1.68714 0.9987 -0.69255
v 0.2 1.11 -0.1
v 0.2 1.11 -0.1
v 0.2 1.11 -0.1
v 0.2 1.11 -0.1
v 0.2 1.11 -0.1
v 0.2 1.11 -0.1
v 0.2 1.11 -0.1
v 0.2 1.11 -0.1
v 0.2 1.11 -0.1
v 0.2 1.11 -0.1
v 0.2 1.11 -0.1
v 2.0 0.72 0.35
v 2.0 0.72 0.35
v 2.0 0.72 0.35
v 2.0 0.72 0.35
v 2.0 0.72 0.35
v 2.0 0.72 0.35
v 2.0 0.72 0.35
v 2.0 0.72 0.35
v 2.0 0.72 0.35
v 2.0 0.72 0.35
v 2.0 0.72 0.35
v 3.27279 0.80494 0.35
v 3.07074 0.80494 0.78963
v 2.52874 0.80494 1.08969
v 1.81886 0.80494 1.1549
v 1.1665 0.80494 0.96455
v 0.77876 0.80494 0.5791
v 0.77876 0.80494 0.1209
v 1.1665 0.80494 -0.26455
v 1.81886 0.80494 -0.4549
v 2.52874 0.80494 -0.38969
v 3.07074 0.80494 -0.08963
v 3.8 1.01 0.35
v 3.51426 1.01 0.97174
v 2.74775 1.01 1.39608
v 1.74383 1.01 1.48829
v 0.82125 1.01 1.21911
v 0.27291 1.01 0.67399
v 0.27291 1.01 0.02601
v 0.82125 1.01 -0.51911
v 1.74383 1.01 -0.78829
v 2.74775 1.01 -0.69608
v 3.51426 1.01 -0.27174
v 3.27279 1.21506 0.35
v 3.07074 1.21506 0.78963
v 2.52874 1.21506 1.08969
v 1.81886 1.21506 1.1549
v 1.1665 1.21506 0.96455
v 0.77876 1.21506 0.5791
v 0.77876 1.21506 0.1209
v 1.1665 1.21506 -0.26455
v 1.81886 1.21506 -0.4549
v 2.52874 1.21506 -0.38969
v 3.07074 1.21506 -0.08963
v 2.0 1.3 0.35
v 2.0 1.3 0.35
v 2.0 1.3 0.35
v 2.0 1.3 0.35
v 2.0 1.3 0.35
v 2.0 1.3 0.35
v 2.0 1.3 0.35
v 2.0 1.3 0.35
v 2.0 1.3 0.35
v 2.0 1.3 0.35
v 2.0 1.3 0.35
v -2.59501 0.7 -0.66014
v 0.10499 1.0 -0.81014
v -2.58892 0.62253 -0.70555
v 0.11108 0.92253 -0.85555
v -2.59392 0.62253 -0.79541
v 0.10608 0.92253 -0.94541
v -2.60499 0.7 -0.83986
v 0.09501 1.0 -0.98986
v -2.61108 0.77747 -0.79445
v 0.08892 1.07747 -0.94445
v -2.60608 0.77747 -0.70459
v 0.09392 1.07747 -0.85459
v -0.3964 1.25 -0.46007
v 2.1036 1.38 -0.56007
v -0.39416 1.17216 -0.5052
v 2.10584 1.30216 -0.6052
v -0.39776 1.17216 -0.59513
v 2.10224 1.30216 -0.69513
v -0.4036 1.25 -0.63993
v 2.0964 1.38 -0.73993
v -0.40584 1.32784 -0.5948
v 2.09416 1.45784 -0.6948
v -0.40224 1.32784 -0.50487
v 2.09776 1.45784 -0.60487
g shelf_0
usemtl silica_matrix
f 1 2 13 12
f 2 3 14 13
f 3 4 15 14
f 4 5 16 15
f 5 6 17 16
f 6 7 18 17
f 7 8 19 18
f 8 9 20 19
f 9 10 21 20
f 10 11 22 21
f 11 1 12 22
f 12 13 24 23
f 13 14 25 24
f 14 15 26 25
f 15 16 27 26
f 16 17 28 27
f 17 18 29 28
f 18 19 30 29
f 19 20 31 30
f 20 21 32 31
f 21 22 33 32
f 22 12 23 33
f 23 24 35 34
f 24 25 36 35
f 25 26 37 36
f 26 27 38 37
f 27 28 39 38
f 28 29 40 39
f 29 30 41 40
f 30 31 42 41
f 31 32 43 42
f 32 33 44 43
f 33 23 34 44
f 34 35 46 45
f 35 36 47 46
f 36 37 48 47
f 37 38 49 48
f 38 39 50 49
f 39 40 51 50
f 40 41 52 51
f 41 42 53 52
f 42 43 54 53
f 43 44 55 54
f 44 34 45 55
g shelf_1
usemtl silica_matrix
f 56 57 68 67
f 57 58 69 68
f 58 59 70 69
f 59 60 71 70
f 60 61 72 71
f 61 62 73 72
f 62 63 74 73
f 63 64 75 74
f 64 65 76 75
f 65 66 77 76
f 66 56 67 77
f 67 68 79 78
f 68 69 80 79
f 69 70 81 80
f 70 71 82 81
f 71 72 83 82
f 72 73 84 83
f 73 74 85 84
f 74 75 86 85
f 75 76 87 86
f 76 77 88 87
f 77 67 78 88
f 78 79 90 89
f 79 80 91 90
f 80 81 92 91
f 81 82 93 92
f 82 83 94 93
f 83 84 95 94
f 84 85 96 95
f 85 86 97 96
f 86 87 98 97
f 87 88 99 98
f 88 78 89 99
f 89 90 101 100
f 90 91 102 101
f 91 92 103 102
f 92 93 104 103
f 93 94 105 104
f 94 95 106 105
f 95 96 107 106
f 96 97 108 107
f 97 98 109 108
f 98 99 110 109
f 99 89 100 110
g shelf_2
usemtl silica_matrix
f 111 112 123 122
f 112 113 124 123
f 113 114 125 124
f 114 115 126 125
f 115 116 127 126
f 116 117 128 127
f 117 118 129 128
f 118 119 130 129
f 119 120 131 130
f 120 121 132 131
f 121 111 122 132
f 122 123 134 133
f 123 124 135 134
f 124 125 136 135
f 125 126 137 136
f 126 127 138 137
f 127 128 139 138
f 128 129 140 139
f 129 130 141 140
f 130 131 142 141
f 131 132 143 142
f 132 122 133 143
f 133 134 145 144
f 134 135 146 145
f 135 136 147 146
f 136 137 148 147
f 137 138 149 148
f 138 139 150 149
f 139 140 151 150
f 140 141 152 151
f 141 142 153 152
f 142 143 154 153
f 143 133 144 154
f 144 145 156 155
f 145 146 157 156
f 146 147 158 157
f 147 148 159 158
f 148 149 160 159
f 149 150 161 160
f 150 151 162 161
f 151 152 163 162
f 152 153 164 163
f 153 154 165 164
f 154 144 155 165
g seam_0
usemtl silica
f 176 174 172 170 168 166
f 167 169 171 173 175 177
f 166 168 169 167
f 168 170 171 169
f 170 172 173 171
f 172 174 175 173
f 174 176 177 175
f 176 166 167 177
g seam_1
usemtl silica
f 188 186 184 182 180 178
f 179 181 183 185 187 189
f 178 180 181 179
f 180 182 183 181
f 182 184 185 183
f 184 186 187 185
f 186 188 189 187
f 188 178 179 189
