# Generated environment blockout: silica_lichen_a
mtllib environment_blockout.mtl
o silica_lichen_a
v -1.6 0.0 -0.3
v -1.6 0.0 -0.3
v -1.6 0.0 -0.3
v -1.6 0.0 -0.3
v -1.6 0.0 -0.3
v -1.6 0.0 -0.3
v -1.6 0.0 -0.3
v -1.6 0.0 -0.3
v -1.6 0.0 -0.3
v -1.6 0.0 -0.3
v -1.6 0.0 -0.3
v -1.6 0.0 -0.3
v -0.12776 0.025 -0.3
v -0.325 0.025 0.11136
v -0.86388 0.025 0.4125
v -1.6 0.025 0.52272
v -2.33612 0.025 0.4125
v -2.875 0.025 0.11136
v -3.07224 0.025 -0.3
v -2.875 0.025 -0.71136
v -2.33612 0.025 -1.0125
v -1.6 0.025 -1.12272
v -0.86388 0.025 -1.0125
v -0.325 0.025 -0.71136
v -0.12776 0.075 -0.3
v -0.325 0.075 0.11136
v -0.86388 0.075 0.4125
v -1.6 0.075 0.52272
v -2.33612 0.075 0.4125
v -2.875 0.075 0.11136
v -3.07224 0.075 -0.3
v -2.875 0.075 -0.71136
v -2.33612 0.075 -1.0125
v -1.6 0.075 -1.12272
v -0.86388 0.075 -1.0125
v -0.325 0.075 -0.71136
v -1.6 0.1 -0.3
v -1.6 0.1 -0.3
v -1.6 0.1 -0.3
v -1.6 0.1 -0.3
v -1.6 0.1 -0.3
v -1.6 0.1 -0.3
v -1.6 0.1 -0.3
v -1.6 0.1 -0.3
v -1.6 0.1 -0.3
v -1.6 0.1 -0.3
v -1.6 0.1 -0.3
v -1.6 0.1 -0.3
v 0.5 0.0 0.5
v 0.5 0.0 0.5
v 0.5 0.0 0.5
v 0.5 0.0 0.5
v 0.5 0.0 0.5
v 0.5 0.0 0.5
v 0.5 0.0 0.5
v 0.5 0.0 0.5
v 0.5 0.0 0.5
v 0.5 0.0 0.5
v 0.5 0.0 0.5
v 0.5 0.0 0.5
v 2.23205 0.025 0.5
v 2.0 0.025 0.99796
v 1.36603 0.025 1.3625
v 0.5 0.025 1.49593
v -0.36603 0.025 1.3625
v -1.0 0.025 0.99796
v -1.23205 0.025 0.5
v -1.0 0.025 0.00204
v -0.36603 0.025 -0.3625
v 0.5 0.025 -0.49593
v 1.36603 0.025 -0.3625
v 2.0 0.025 0.00204
v 2.23205 0.075 0.5
v 2.0 0.075 0.99796
v 1.36603 0.075 1.3625
v 0.5 0.075 1.49593
v -0.36603 0.075 1.3625
v -1.0 0.075 0.99796
v -1.23205 0.075 0.5
v -1.0 0.075 0.00204
v -0.36603 0.075 -0.3625
v 0.5 0.075 -0.49593
v 1.36603 0.075 -0.3625
v 2.0 0.075 0.00204
v 0.5 0.1 0.5
v 0.5 0.1 0.5
v 0.5 0.1 0.5
v 0.5 0.1 0.5
v 0.5 0.1 0.5
v 0.5 0.1 0.5
v 0.5 0.1 0.5
v 0.5 0.1 0.5
v 0.5 0.1 0.5
v 0.5 0.1 0.5
v 0.5 0.1 0.5
v 0.5 0.1 0.5
v 2.0 0.0 -0.5
v 2.0 0.0 -0.5
v 2.0 0.0 -0.5
v 2.0 0.0 -0.5
v 2.0 0.0 -0.5
v 2.0 0.0 -0.5
v 2.0 0.0 -0.5
v 2.0 0.0 -0.5
v 2.0 0.0 -0.5
v 2.0 0.0 -0.5
v 2.0 0.0 -0.5
v 2.0 0.0 -0.5
v 3.08253 0.025 -0.5
v 2.9375 0.025 -0.17524
v 2.54127 0.025 0.0625
v 2.0 0.025 0.14952
v 1.45873 0.025 0.0625
v 1.0625 0.025 -0.17524
v 0.91747 0.025 -0.5
v 1.0625 0.025 -0.82476
v 1.45873 0.025 -1.0625
v 2.0 0.025 -1.14952
v 2.54127 0.025 -1.0625
v 2.9375 0.025 -0.82476
v 3.08253 0.075 -0.5
v 2.9375 0.075 -0.17524
v 2.54127 0.075 0.0625
v 2.0 0.075 0.14952
v 1.45873 0.075 0.0625
v 1.0625 0.075 -0.17524
v 0.91747 0.075 -0.5
v 1.0625 0.075 -0.82476
v 1.45873 0.075 -1.0625
v 2.0 0.075 -1.14952
v 2.54127 0.075 -1.0625
v 2.9375 0.075 -0.82476
v 2.0 0.1 -0.5
v 2.0 0.1 -0.5
v 2.0 0.1 -0.5
v 2.0 0.1 -0.5
v 2.0 0.1 -0.5
v 2.0 0.1 -0.5
v 2.0 0.1 -0.5
v 2.0 0.1 -0.5
v 2.0 0.1 -0.5
v 2.0 0.1 -0.5
v 2.0 0.1 -0.5
v 2.0 0.1 -0.5
v 0.24948 0.07455 0.21655
v 0.30391 0.46455 0.32349
v 0.20227 0.0734 0.24475
v 0.2567 0.4634 0.35169
v 0.20227 0.05886 0.29779
v 0.2567 0.44886 0.40474
v 0.24948 0.04545 0.32263
v 0.30391 0.43545 0.42958
v 0.29668 0.0466 0.29443
v 0.35112 0.4366 0.40138
v 0.29668 0.06114 0.24139
v 0.35112 0.45114 0.34833
v 0.24948 0.37 0.26959
v 0.24948 0.37 0.26959
v 0.24948 0.37 0.26959
v 0.24948 0.37 0.26959
v 0.24948 0.37 0.26959
v 0.24948 0.37 0.26959
v 0.3534 0.46 0.26959
v 0.30144 0.46 0.32209
v 0.19752 0.46 0.32209
v 0.14555 0.46 0.26959
v 0.19752 0.46 0.21709
v 0.30144 0.46 0.21709
v 0.3534 0.64 0.26959
v 0.30144 0.64 0.32209
v 0.19752 0.64 0.32209
v 0.14555 0.64 0.26959
v 0.19752 0.64 0.21709
v 0.30144 0.64 0.21709
v 0.24948 0.73 0.26959
v 0.24948 0.73 0.26959
v 0.24948 0.73 0.26959
v 0.24948 0.73 0.26959
v 0.24948 0.73 0.26959
v 0.24948 0.73 0.26959
v -2.35139 0.05757 -0.53791
v -2.4638 1.00757 -0.57989
v -2.39869 0.0532 -0.51019
v -2.5111 1.0032 -0.55217
v -2.39869 0.05563 -0.45524
v -2.5111 1.00563 -0.49722
v -2.35139 0.06243 -0.42802
v -2.4638 1.01243 -0.47
v -2.30408 0.0668 -0.45574
v -2.4165 1.0168 -0.49772
v -2.30408 0.06437 -0.51068
v -2.4165 1.01437 -0.55266
v -2.35139 0.93 -0.48296
v -2.35139 0.93 -0.48296
v -2.35139 0.93 -0.48296
v -2.35139 0.93 -0.48296
v -2.35139 0.93 -0.48296
v -2.35139 0.93 -0.48296
v -2.24746 1.02 -0.48296
v -2.29942 1.02 -0.43046
v -2.40335 1.02 -0.43046
v -2.45531 1.02 -0.48296
v -2.40335 1.02 -0.53546
v -2.29942 1.02 -0.53546
v -2.24746 1.2 -0.48296
v -2.29942 1.2 -0.43046
v -2.40335 1.2 -0.43046
v -2.45531 1.2 -0.48296
v -2.40335 1.2 -0.53546
v -2.29942 1.2 -0.53546
v -2.35139 1.29 -0.48296
v -2.35139 1.29 -0.48296
v -2.35139 1.29 -0.48296
v -2.35139 1.29 -0.48296
v -2.35139 1.29 -0.48296
v -2.35139 1.29 -0.48296
v 1.54764 0.05534 -0.39991
v 1.65884 0.58534 -0.445
v 1.50101 0.06738 -0.37334
v 1.61222 0.59738 -0.41842
v 1.50101 0.07204 -0.31853
v 1.61222 0.60204 -0.36362
v 1.54764 0.06466 -0.29031
v 1.65884 0.59466 -0.33539
v 1.59426 0.05262 -0.31688
v 1.70547 0.58262 -0.36197
v 1.59426 0.04796 -0.37168
v 1.70547 0.57796 -0.41677
v 1.54764 0.51 -0.34511
v 1.54764 0.51 -0.34511
v 1.54764 0.51 -0.34511
v 1.54764 0.51 -0.34511
v 1.54764 0.51 -0.34511
v 1.54764 0.51 -0.34511
v 1.65156 0.6 -0.34511
v 1.5996 0.6 -0.29261
v 1.49568 0.6 -0.29261
v 1.44371 0.6 -0.34511
v 1.49568 0.6 -0.39761
v 1.5996 0.6 -0.39761
v 1.65156 0.78 -0.34511
v 1.5996 0.78 -0.29261
v 1.49568 0.78 -0.29261
v 1.44371 0.78 -0.34511
v 1.49568 0.78 -0.39761
v 1.5996 0.78 -0.39761
v 1.54764 0.87 -0.34511
v 1.54764 0.87 -0.34511
v 1.54764 0.87 -0.34511
v 1.54764 0.87 -0.34511
v 1.54764 0.87 -0.34511
v 1.54764 0.87 -0.34511
v -0.35579 0.06544 0.3577
v -0.40723 1.15544 0.46612
v -0.40337 0.0605 0.38484
v -0.45481 1.1505 0.49326
v -0.40337 0.05505 0.43957
v -0.45481 1.14505 0.54799
v -0.35579 0.05456 0.46716
v -0.40723 1.14456 0.57558
v -0.30822 0.0595 0.44002
v -0.35966 1.1495 0.54843
v -0.30822 0.06495 0.38529
v -0.35966 1.15495 0.4937
v -0.35579 1.07 0.41243
v -0.35579 1.07 0.41243
v -0.35579 1.07 0.41243
v -0.35579 1.07 0.41243
v -0.35579 1.07 0.41243
v -0.35579 1.07 0.41243
v -0.25187 1.16 0.41243
v -0.30383 1.16 0.46493
v -0.40776 1.16 0.46493
v -0.45972 1.16 0.41243
v -0.40776 1.16 0.35993
v -0.30383 1.16 0.35993
v -0.25187 1.34 0.41243
v -0.30383 1.34 0.46493
v -0.40776 1.34 0.46493
v -0.45972 1.34 0.41243
v -0.40776 1.34 0.35993
v -0.30383 1.34 0.35993
v -0.35579 1.43 0.41243
v -0.35579 1.43 0.41243
v -0.35579 1.43 0.41243
v -0.35579 1.43 0.41243
v -0.35579 1.43 0.41243
v -0.35579 1.43 0.41243
v -0.82337 0.05072 -1.52037
v -0.85878 0.72072 -1.63502
v -0.87093 0.05292 -1.49284
v -0.90635 0.72292 -1.6075
v -0.87093 0.0622 -1.43863
v -0.90635 0.7322 -1.55329
v -0.82337 0.06928 -1.41194
v -0.85878 0.73928 -1.5266
v -0.7758 0.06708 -1.43947
v -0.81121 0.73708 -1.55412
v -0.7758 0.0578 -1.49368
v -0.81121 0.7278 -1.60834
v -0.82337 0.65 -1.46616
v -0.82337 0.65 -1.46616
v -0.82337 0.65 -1.46616
v -0.82337 0.65 -1.46616
v -0.82337 0.65 -1.46616
v -0.82337 0.65 -1.46616
v -0.71944 0.74 -1.46616
v -0.77141 0.74 -1.41366
v -0.87533 0.74 -1.41366
v -0.92729 0.74 -1.46616
v -0.87533 0.74 -1.51866
v -0.77141 0.74 -1.51866
v -0.71944 0.92 -1.46616
v -0.77141 0.92 -1.41366
v -0.87533 0.92 -1.41366
v -0.92729 0.92 -1.46616
v -0.87533 0.92 -1.51866
v -0.77141 0.92 -1.51866
v -0.82337 1.01 -1.46616
v -0.82337 1.01 -1.46616
v -0.82337 1.01 -1.46616
v -0.82337 1.01 -1.46616
v -0.82337 1.01 -1.46616
v -0.82337 1.01 -1.46616
v 1.68382 0.0627 0.48598
v 1.78744 1.2927 0.5465
v 1.63636 0.06534 0.51365
v 1.73998 1.29534 0.57417
v 1.63636 0.06264 0.56858
v 1.73998 1.29264 0.6291
v 1.68382 0.0573 0.59585
v 1.78744 1.2873 0.65637
v 1.73129 0.05466 0.56819
v 1.83491 1.28466 0.62871
v 1.73129 0.05736 0.51325
v 1.83491 1.28736 0.57377
v 1.68382 1.21 0.54092
v 1.68382 1.21 0.54092
v 1.68382 1.21 0.54092
v 1.68382 1.21 0.54092
v 1.68382 1.21 0.54092
v 1.68382 1.21 0.54092
v 1.78775 1.3 0.54092
v 1.73578 1.3 0.59342
v 1.63186 1.3 0.59342
v 1.5799 1.3 0.54092
v 1.63186 1.3 0.48842
v 1.73578 1.3 0.48842
v 1.78775 1.48 0.54092
v 1.73578 1.48 0.59342
v 1.63186 1.48 0.59342
v 1.5799 1.48 0.54092
v 1.63186 1.48 0.48842
v 1.73578 1.48 0.48842
v 1.68382 1.57 0.54092
v 1.68382 1.57 0.54092
v 1.68382 1.57 0.54092
v 1.68382 1.57 0.54092
v 1.68382 1.57 0.54092
v 1.68382 1.57 0.54092
v -1.08469 0.06173 0.07466
v -1.20195 0.87173 0.10014
v -1.13183 0.05405 0.10193
v -1.24909 0.86405 0.12741
v -1.13183 0.05232 0.1569
v -1.24909 0.86232 0.18238
v -1.08469 0.05827 0.1846
v -1.20195 0.86827 0.21008
v -1.03755 0.06595 0.15733
v -1.15481 0.87595 0.18281
v -1.03755 0.06768 0.10236
v -1.15481 0.87768 0.12784
v -1.08469 0.79 0.12963
v -1.08469 0.79 0.12963
v -1.08469 0.79 0.12963
v -1.08469 0.79 0.12963
v -1.08469 0.79 0.12963
v -1.08469 0.79 0.12963
v -0.98077 0.88 0.12963
v -1.03273 0.88 0.18213
v -1.13665 0.88 0.18213
v -1.18861 0.88 0.12963
v -1.13665 0.88 0.07713
v -1.03273 0.88 0.07713
v -0.98077 1.06 0.12963
v -1.03273 1.06 0.18213
v -1.13665 1.06 0.18213
v -1.18861 1.06 0.12963
v -1.13665 1.06 0.07713
v -1.03273 1.06 0.07713
v -1.08469 1.15 0.12963
v -1.08469 1.15 0.12963
v -1.08469 1.15 0.12963
v -1.08469 1.15 0.12963
v -1.08469 1.15 0.12963
v -1.08469 1.15 0.12963
v 1.76936 0.04659 -1.4332
v 1.83852 0.43659 -1.53127
v 1.72242 0.06112 -1.4085
v 1.79158 0.45112 -1.50657
v 1.72242 0.07454 -1.35516
v 1.79158 0.46454 -1.45323
v 1.76936 0.07341 -1.32652
v 1.83852 0.46341 -1.42459
v 1.8163 0.05888 -1.35122
v 1.88546 0.44888 -1.44929
v 1.8163 0.04546 -1.40456
v 1.88546 0.43546 -1.50263
v 1.76936 0.37 -1.37986
v 1.76936 0.37 -1.37986
v 1.76936 0.37 -1.37986
v 1.76936 0.37 -1.37986
v 1.76936 0.37 -1.37986
v 1.76936 0.37 -1.37986
v 1.87328 0.46 -1.37986
v 1.82132 0.46 -1.32736
v 1.7174 0.46 -1.32736
v 1.66543 0.46 -1.37986
v 1.7174 0.46 -1.43236
v 1.82132 0.46 -1.43236
v 1.87328 0.64 -1.37986
v 1.82132 0.64 -1.32736
v 1.7174 0.64 -1.32736
v 1.66543 0.64 -1.37986
v 1.7174 0.64 -1.43236
v 1.82132 0.64 -1.43236
v 1.76936 0.73 -1.37986
v 1.76936 0.73 -1.37986
v 1.76936 0.73 -1.37986
v 1.76936 0.73 -1.37986
v 1.76936 0.73 -1.37986
v 1.76936 0.73 -1.37986
v 0.28544 0.06684 1.16184
v 0.3008 1.01684 1.28085
v 0.23781 0.06418 1.18922
v 0.25318 1.01418 1.30823
v 0.23781 0.05734 1.24379
v 0.25318 1.00734 1.36281
v 0.28544 0.05316 1.27098
v 0.3008 1.00316 1.39
v 0.33307 0.05582 1.2436
v 0.34843 1.00582 1.36262
v 0.33307 0.06266 1.18903
v 0.34843 1.01266 1.30804
v 0.28544 0.93 1.21641
v 0.28544 0.93 1.21641
v 0.28544 0.93 1.21641
v 0.28544 0.93 1.21641
v 0.28544 0.93 1.21641
v 0.28544 0.93 1.21641
v 0.38936 1.02 1.21641
v 0.3374 1.02 1.26891
v 0.23348 1.02 1.26891
v 0.18152 1.02 1.21641
v 0.23348 1.02 1.16391
v 0.3374 1.02 1.16391
v 0.38936 1.2 1.21641
v 0.3374 1.2 1.26891
v 0.23348 1.2 1.26891
v 0.18152 1.2 1.21641
v 0.23348 1.2 1.16391
v 0.3374 1.2 1.16391
v 0.28544 1.29 1.21641
v 0.28544 1.29 1.21641
v 0.28544 1.29 1.21641
v 0.28544 1.29 1.21641
v 0.28544 1.29 1.21641
v 0.28544 1.29 1.21641
v -1.06326 0.05206 -0.54684
v -1.15506 0.58206 -0.62413
v -1.11021 0.04807 -0.51847
v -1.202 0.57807 -0.59576
v -1.11021 0.05601 -0.46404
v -1.202 0.58601 -0.54134
v -1.06326 0.06794 -0.43799
v -1.15506 0.59794 -0.51529
v -1.01632 0.07193 -0.46637
v -1.10811 0.60193 -0.54366
v -1.01632 0.06399 -0.52079
v -1.10811 0.59399 -0.59808
v -1.06326 0.51 -0.49242
v -1.06326 0.51 -0.49242
v -1.06326 0.51 -0.49242
v -1.06326 0.51 -0.49242
v -1.06326 0.51 -0.49242
v -1.06326 0.51 -0.49242
v -0.95934 0.6 -0.49242
v -1.0113 0.6 -0.43992
v -1.11523 0.6 -0.43992
v -1.16719 0.6 -0.49242
v -1.11523 0.6 -0.54492
v -1.0113 0.6 -0.54492
v -0.95934 0.78 -0.49242
v -1.0113 0.78 -0.43992
v -1.11523 0.78 -0.43992
v -1.16719 0.78 -0.49242
v -1.11523 0.78 -0.54492
v -1.0113 0.78 -0.54492
v -1.06326 0.87 -0.49242
v -1.06326 0.87 -0.49242
v -1.06326 0.87 -0.49242
v -1.06326 0.87 -0.49242
v -1.06326 0.87 -0.49242
v -1.06326 0.87 -0.49242
v 0.5495 0.05974 -0.06792
v 0.66939 1.14974 -0.07305
v 0.50215 0.06508 -0.04045
v 0.62204 1.15508 -0.04558
v 0.50215 0.06534 0.01455
v 0.62204 1.15534 0.00942
v 0.5495 0.06026 0.04207
v 0.66939 1.15026 0.03695
v 0.59684 0.05492 0.0146
v 0.71673 1.14492 0.00947
v 0.59684 0.05466 -0.0404
v 0.71673 1.14466 -0.04553
v 0.5495 1.07 -0.01293
v 0.5495 1.07 -0.01293
v 0.5495 1.07 -0.01293
v 0.5495 1.07 -0.01293
v 0.5495 1.07 -0.01293
v 0.5495 1.07 -0.01293
v 0.65342 1.16 -0.01293
v 0.60146 1.16 0.03957
v 0.49754 1.16 0.03957
v 0.44557 1.16 -0.01293
v 0.49754 1.16 -0.06543
v 0.60146 1.16 -0.06543
v 0.65342 1.34 -0.01293
v 0.60146 1.34 0.03957
v 0.49754 1.34 0.03957
v 0.44557 1.34 -0.01293
v 0.49754 1.34 -0.06543
v 0.60146 1.34 -0.06543
v 0.5495 1.43 -0.01293
v 0.5495 1.43 -0.01293
v 0.5495 1.43 -0.01293
v 0.5495 1.43 -0.01293
v 0.5495 1.43 -0.01293
v 0.5495 1.43 -0.01293
v -1.77495 0.06691 0.92153
v -1.85981 0.73691 1.00638
v -1.82221 0.05756 0.94807
v -1.90707 0.72756 1.03292
v -1.82221 0.05065 1.00263
v -1.90707 0.72065 1.08748
v -1.77495 0.05309 1.03066
v -1.85981 0.72309 1.11551
v -1.72769 0.06244 1.00413
v -1.81255 0.73244 1.08897
v -1.72769 0.06935 0.94956
v -1.81255 0.73935 1.03441
v -1.77495 0.65 0.9761
v -1.77495 0.65 0.9761
v -1.77495 0.65 0.9761
v -1.77495 0.65 0.9761
v -1.77495 0.65 0.9761
v -1.77495 0.65 0.9761
v -1.67103 0.74 0.9761
v -1.72299 0.74 1.0286
v -1.82691 0.74 1.0286
v -1.87888 0.74 0.9761
v -1.82691 0.74 0.9236
v -1.72299 0.74 0.9236
v -1.67103 0.92 0.9761
v -1.72299 0.92 1.0286
v -1.82691 0.92 1.0286
v -1.87888 0.92 0.9761
v -1.82691 0.92 0.9236
v -1.72299 0.92 0.9236
v -1.77495 1.01 0.9761
v -1.77495 1.01 0.9761
v -1.77495 1.01 0.9761
v -1.77495 1.01 0.9761
v -1.77495 1.01 0.9761
v -1.77495 1.01 0.9761
g lichen_plate_0
usemtl silica_matrix
f 1 2 14 13
f 2 3 15 14
f 3 4 16 15
f 4 5 17 16
f 5 6 18 17
f 6 7 19 18
f 7 8 20 19
f 8 9 21 20
f 9 10 22 21
f 10 11 23 22
f 11 12 24 23
f 12 1 13 24
f 13 14 26 25
f 14 15 27 26
f 15 16 28 27
f 16 17 29 28
f 17 18 30 29
f 18 19 31 30
f 19 20 32 31
f 20 21 33 32
f 21 22 34 33
f 22 23 35 34
f 23 24 36 35
f 24 13 25 36
f 25 26 38 37
f 26 27 39 38
f 27 28 40 39
f 28 29 41 40
f 29 30 42 41
f 30 31 43 42
f 31 32 44 43
f 32 33 45 44
f 33 34 46 45
f 34 35 47 46
f 35 36 48 47
f 36 25 37 48
g lichen_plate_1
usemtl silica_matrix
f 49 50 62 61
f 50 51 63 62
f 51 52 64 63
f 52 53 65 64
f 53 54 66 65
f 54 55 67 66
f 55 56 68 67
f 56 57 69 68
f 57 58 70 69
f 58 59 71 70
f 59 60 72 71
f 60 49 61 72
f 61 62 74 73
f 62 63 75 74
f 63 64 76 75
f 64 65 77 76
f 65 66 78 77
f 66 67 79 78
f 67 68 80 79
f 68 69 81 80
f 69 70 82 81
f 70 71 83 82
f 71 72 84 83
f 72 61 73 84
f 73 74 86 85
f 74 75 87 86
f 75 76 88 87
f 76 77 89 88
f 77 78 90 89
f 78 79 91 90
f 79 80 92 91
f 80 81 93 92
f 81 82 94 93
f 82 83 95 94
f 83 84 96 95
f 84 73 85 96
g lichen_plate_2
usemtl silica_matrix
f 97 98 110 109
f 98 99 111 110
f 99 100 112 111
f 100 101 113 112
f 101 102 114 113
f 102 103 115 114
f 103 104 116 115
f 104 105 117 116
f 105 106 118 117
f 106 107 119 118
f 107 108 120 119
f 108 97 109 120
f 109 110 122 121
f 110 111 123 122
f 111 112 124 123
f 112 113 125 124
f 113 114 126 125
f 114 115 127 126
f 115 116 128 127
f 116 117 129 128
f 117 118 130 129
f 118 119 131 130
f 119 120 132 131
f 120 109 121 132
f 121 122 134 133
f 122 123 135 134
f 123 124 136 135
f 124 125 137 136
f 125 126 138 137
f 126 127 139 138
f 127 128 140 139
f 128 129 141 140
f 129 130 142 141
f 130 131 143 142
f 131 132 144 143
f 132 121 133 144
g glass_lichen_0
usemtl living_silica
f 155 153 151 149 147 145
f 146 148 150 152 154 156
f 145 147 148 146
f 147 149 150 148
f 149 151 152 150
f 151 153 154 152
f 153 155 156 154
f 155 145 146 156
g blade_0
usemtl living_pale
f 157 158 164 163
f 158 159 165 164
f 159 160 166 165
f 160 161 167 166
f 161 162 168 167
f 162 157 163 168
f 163 164 170 169
f 164 165 171 170
f 165 166 172 171
f 166 167 173 172
f 167 168 174 173
f 168 163 169 174
f 169 170 176 175
f 170 171 177 176
f 171 172 178 177
f 172 173 179 178
f 173 174 180 179
f 174 169 175 180
g glass_lichen_1
usemtl living_silica
f 191 189 187 185 183 181
f 182 184 186 188 190 192
f 181 183 184 182
f 183 185 186 184
f 185 187 188 186
f 187 189 190 188
f 189 191 192 190
f 191 181 182 192
g blade_1
usemtl living_pale
f 193 194 200 199
f 194 195 201 200
f 195 196 202 201
f 196 197 203 202
f 197 198 204 203
f 198 193 199 204
f 199 200 206 205
f 200 201 207 206
f 201 202 208 207
f 202 203 209 208
f 203 204 210 209
f 204 199 205 210
f 205 206 212 211
f 206 207 213 212
f 207 208 214 213
f 208 209 215 214
f 209 210 216 215
f 210 205 211 216
g glass_lichen_2
usemtl living_silica
f 227 225 223 221 219 217
f 218 220 222 224 226 228
f 217 219 220 218
f 219 221 222 220
f 221 223 224 222
f 223 225 226 224
f 225 227 228 226
f 227 217 218 228
g blade_2
usemtl living_pale
f 229 230 236 235
f 230 231 237 236
f 231 232 238 237
f 232 233 239 238
f 233 234 240 239
f 234 229 235 240
f 235 236 242 241
f 236 237 243 242
f 237 238 244 243
f 238 239 245 244
f 239 240 246 245
f 240 235 241 246
f 241 242 248 247
f 242 243 249 248
f 243 244 250 249
f 244 245 251 250
f 245 246 252 251
f 246 241 247 252
g glass_lichen_3
usemtl living_silica
f 263 261 259 257 255 253
f 254 256 258 260 262 264
f 253 255 256 254
f 255 257 258 256
f 257 259 260 258
f 259 261 262 260
f 261 263 264 262
f 263 253 254 264
g blade_3
usemtl living_pale
f 265 266 272 271
f 266 267 273 272
f 267 268 274 273
f 268 269 275 274
f 269 270 276 275
f 270 265 271 276
f 271 272 278 277
f 272 273 279 278
f 273 274 280 279
f 274 275 281 280
f 275 276 282 281
f 276 271 277 282
f 277 278 284 283
f 278 279 285 284
f 279 280 286 285
f 280 281 287 286
f 281 282 288 287
f 282 277 283 288
g glass_lichen_4
usemtl living_silica
f 299 297 295 293 291 289
f 290 292 294 296 298 300
f 289 291 292 290
f 291 293 294 292
f 293 295 296 294
f 295 297 298 296
f 297 299 300 298
f 299 289 290 300
g blade_4
usemtl living_pale
f 301 302 308 307
f 302 303 309 308
f 303 304 310 309
f 304 305 311 310
f 305 306 312 311
f 306 301 307 312
f 307 308 314 313
f 308 309 315 314
f 309 310 316 315
f 310 311 317 316
f 311 312 318 317
f 312 307 313 318
f 313 314 320 319
f 314 315 321 320
f 315 316 322 321
f 316 317 323 322
f 317 318 324 323
f 318 313 319 324
g glass_lichen_5
usemtl living_silica
f 335 333 331 329 327 325
f 326 328 330 332 334 336
f 325 327 328 326
f 327 329 330 328
f 329 331 332 330
f 331 333 334 332
f 333 335 336 334
f 335 325 326 336
g blade_5
usemtl living_pale
f 337 338 344 343
f 338 339 345 344
f 339 340 346 345
f 340 341 347 346
f 341 342 348 347
f 342 337 343 348
f 343 344 350 349
f 344 345 351 350
f 345 346 352 351
f 346 347 353 352
f 347 348 354 353
f 348 343 349 354
f 349 350 356 355
f 350 351 357 356
f 351 352 358 357
f 352 353 359 358
f 353 354 360 359
f 354 349 355 360
g glass_lichen_6
usemtl living_silica
f 371 369 367 365 363 361
f 362 364 366 368 370 372
f 361 363 364 362
f 363 365 366 364
f 365 367 368 366
f 367 369 370 368
f 369 371 372 370
f 371 361 362 372
g blade_6
usemtl living_pale
f 373 374 380 379
f 374 375 381 380
f 375 376 382 381
f 376 377 383 382
f 377 378 384 383
f 378 373 379 384
f 379 380 386 385
f 380 381 387 386
f 381 382 388 387
f 382 383 389 388
f 383 384 390 389
f 384 379 385 390
f 385 386 392 391
f 386 387 393 392
f 387 388 394 393
f 388 389 395 394
f 389 390 396 395
f 390 385 391 396
g glass_lichen_7
usemtl living_silica
f 407 405 403 401 399 397
f 398 400 402 404 406 408
f 397 399 400 398
f 399 401 402 400
f 401 403 404 402
f 403 405 406 404
f 405 407 408 406
f 407 397 398 408
g blade_7
usemtl living_pale
f 409 410 416 415
f 410 411 417 416
f 411 412 418 417
f 412 413 419 418
f 413 414 420 419
f 414 409 415 420
f 415 416 422 421
f 416 417 423 422
f 417 418 424 423
f 418 419 425 424
f 419 420 426 425
f 420 415 421 426
f 421 422 428 427
f 422 423 429 428
f 423 424 430 429
f 424 425 431 430
f 425 426 432 431
f 426 421 427 432
g glass_lichen_8
usemtl living_silica
f 443 441 439 437 435 433
f 434 436 438 440 442 444
f 433 435 436 434
f 435 437 438 436
f 437 439 440 438
f 439 441 442 440
f 441 443 444 442
f 443 433 434 444
g blade_8
usemtl living_pale
f 445 446 452 451
f 446 447 453 452
f 447 448 454 453
f 448 449 455 454
f 449 450 456 455
f 450 445 451 456
f 451 452 458 457
f 452 453 459 458
f 453 454 460 459
f 454 455 461 460
f 455 456 462 461
f 456 451 457 462
f 457 458 464 463
f 458 459 465 464
f 459 460 466 465
f 460 461 467 466
f 461 462 468 467
f 462 457 463 468
g glass_lichen_9
usemtl living_silica
f 479 477 475 473 471 469
f 470 472 474 476 478 480
f 469 471 472 470
f 471 473 474 472
f 473 475 476 474
f 475 477 478 476
f 477 479 480 478
f 479 469 470 480
g blade_9
usemtl living_pale
f 481 482 488 487
f 482 483 489 488
f 483 484 490 489
f 484 485 491 490
f 485 486 492 491
f 486 481 487 492
f 487 488 494 493
f 488 489 495 494
f 489 490 496 495
f 490 491 497 496
f 491 492 498 497
f 492 487 493 498
f 493 494 500 499
f 494 495 501 500
f 495 496 502 501
f 496 497 503 502
f 497 498 504 503
f 498 493 499 504
g glass_lichen_10
usemtl living_silica
f 515 513 511 509 507 505
f 506 508 510 512 514 516
f 505 507 508 506
f 507 509 510 508
f 509 511 512 510
f 511 513 514 512
f 513 515 516 514
f 515 505 506 516
g blade_10
usemtl living_pale
f 517 518 524 523
f 518 519 525 524
f 519 520 526 525
f 520 521 527 526
f 521 522 528 527
f 522 517 523 528
f 523 524 530 529
f 524 525 531 530
f 525 526 532 531
f 526 527 533 532
f 527 528 534 533
f 528 523 529 534
f 529 530 536 535
f 530 531 537 536
f 531 532 538 537
f 532 533 539 538
f 533 534 540 539
f 534 529 535 540
g glass_lichen_11
usemtl living_silica
f 551 549 547 545 543 541
f 542 544 546 548 550 552
f 541 543 544 542
f 543 545 546 544
f 545 547 548 546
f 547 549 550 548
f 549 551 552 550
f 551 541 542 552
g blade_11
usemtl living_pale
f 553 554 560 559
f 554 555 561 560
f 555 556 562 561
f 556 557 563 562
f 557 558 564 563
f 558 553 559 564
f 559 560 566 565
f 560 561 567 566
f 561 562 568 567
f 562 563 569 568
f 563 564 570 569
f 564 559 565 570
f 565 566 572 571
f 566 567 573 572
f 567 568 574 573
f 568 569 575 574
f 569 570 576 575
f 570 565 571 576
