# Generated environment blockout: silica_cliff_a
mtllib environment_blockout.mtl
o silica_cliff_a
v -3.5 0.0 0.7
v -3.5 0.0 0.7
v -3.5 0.0 0.7
v -3.5 0.0 0.7
v -3.5 0.0 0.7
v -3.5 0.0 0.7
v -3.5 0.0 0.7
v -3.5 0.0 0.7
v -3.5 0.0 0.7
v -1.94437 0.43934 0.7
v -2.30831 0.43934 1.65449
v -3.22987 0.43934 2.16236
v -4.27782 0.43934 1.98598
v -4.96182 0.43934 1.20787
v -4.96182 0.43934 0.19213
v -4.27782 0.43934 -0.58598
v -3.22987 0.43934 -0.76236
v -2.30831 0.43934 -0.25449
v -1.3 1.5 0.7
v -1.8147 1.5 2.04985
v -3.11797 1.5 2.7681
v -4.6 1.5 2.51865
v -5.56732 1.5 1.41824
v -5.56732 1.5 -0.01824
v -4.6 1.5 -1.11865
v -3.11797 1.5 -1.3681
v -1.8147 1.5 -0.64985
v -1.94437 2.56066 0.7
v -2.30831 2.56066 1.65449
v -3.22987 2.56066 2.16236
v -4.27782 2.56066 1.98598
v -4.96182 2.56066 1.20787
v -4.96182 2.56066 0.19213
v -4.27782 2.56066 -0.58598
v -3.22987 2.56066 -0.76236
v -2.30831 2.56066 -0.25449
v -3.5 3.0 0.7
v -3.5 3.0 0.7
v -3.5 3.0 0.7
v -3.5 3.0 0.7
v -3.5 3.0 0.7
v -3.5 3.0 0.7
v -3.5 3.0 0.7
v -3.5 3.0 0.7
v -3.5 3.0 0.7
v -1.2 0.0 0.3
v -1.2 0.0 0.3
v -1.2 0.0 0.3
v -1.2 0.0 0.3
v -1.2 0.0 0.3
v -1.2 0.0 0.3
v -1.2 0.0 0.3
v -1.2 0.0 0.3
v -1.2 0.0 0.3
v 0.49706 0.58579 0.3
v 0.10002 0.58579 1.34539
v -0.90531 0.58579 1.90164
v -2.04853 0.58579 1.70846
v -2.79471 0.58579 0.85624
v -2.79471 0.58579 -0.25624
v -2.04853 0.58579 -1.10846
v -0.90531 0.58579 -1.30164
v 0.10002 0.58579 -0.74539
v 1.2 2.0 0.3
v 0.63851 2.0 1.77841
v -0.78324 2.0 2.56506
v -2.4 2.0 2.29186
v -3.45526 2.0 1.08665
v -3.45526 2.0 -0.48665
v -2.4 2.0 -1.69186
v -0.78324 2.0 -1.96506
v 0.63851 2.0 -1.17841
v 0.49706 3.41421 0.3
v 0.10002 3.41421 1.34539
v -0.90531 3.41421 1.90164
v -2.04853 3.41421 1.70846
v -2.79471 3.41421 0.85624
v -2.79471 3.41421 -0.25624
v -2.04853 3.41421 -1.10846
v -0.90531 3.41421 -1.30164
v 0.10002 3.41421 -0.74539
v -1.2 4.0 0.3
v -1.2 4.0 0.3
v -1.2 4.0 0.3
v -1.2 4.0 0.3
v -1.2 4.0 0.3
v -1.2 4.0 0.3
v -1.2 4.0 0.3
v -1.2 4.0 0.3
v -1.2 4.0 0.3
v 1.3 0.0 0.5
v 1.3 0.0 0.5
v 1.3 0.0 0.5
v 1.3 0.0 0.5
v 1.3 0.0 0.5
v 1.3 0.0 0.5
v 1.3 0.0 0.5
v 1.3 0.0 0.5
v 1.3 0.0 0.5
v 3.20919 0.49792 0.5
v 2.76252 0.49792 1.49994
v 1.63153 0.49792 2.032
v 0.34541 0.49792 1.84722
v -0.49405 0.49792 1.03206
v -0.49405 0.49792 -0.03206
v 0.34541 0.49792 -0.84722
v 1.63153 0.49792 -1.032
v 2.76252 0.49792 -0.49994
v 4.0 1.7 0.5
v 3.36832 1.7 1.91413
v 1.76885 1.7 2.66658
v -0.05 1.7 2.40526
v -1.23717 1.7 1.25244
v -1.23717 1.7 -0.25244
v -0.05 1.7 -1.40526
v 1.76885 1.7 -1.66658
v 3.36832 1.7 -0.91413
v 3.20919 2.90208 0.5
v 2.76252 2.90208 1.49994
v 1.63153 2.90208 2.032
v 0.34541 2.90208 1.84722
v -0.49405 2.90208 1.03206
v -0.49405 2.90208 -0.03206
v 0.34541 2.90208 -0.84722
v 1.63153 2.90208 -1.032
v 2.76252 2.90208 -0.49994
v 1.3 3.4 0.5
v 1.3 3.4 0.5
v 1.3 3.4 0.5
v 1.3 3.4 0.5
v 1.3 3.4 0.5
v 1.3 3.4 0.5
v 1.3 3.4 0.5
v 1.3 3.4 0.5
v 1.3 3.4 0.5
v 3.5 0.0 0.8
v 3.5 0.0 0.8
v 3.5 0.0 0.8
v 3.5 0.0 0.8
v 3.5 0.0 0.8
v 3.5 0.0 0.8
v 3.5 0.0 0.8
v 3.5 0.0 0.8
v 3.5 0.0 0.8
v 4.91421 0.39541 0.8
v 4.58335 0.39541 1.61814
v 3.74558 0.39541 2.05346
v 2.79289 0.39541 1.90227
v 2.17107 0.39541 1.23532
v 2.17107 0.39541 0.36468
v 2.79289 0.39541 -0.30227
v 3.74558 0.39541 -0.45346
v 4.58335 0.39541 -0.01814
v 5.5 1.35 0.8
v 5.03209 1.35 1.95702
v 3.8473 1.35 2.57265
v 2.5 1.35 2.35885
v 1.62061 1.35 1.41564
v 1.62061 1.35 0.18436
v 2.5 1.35 -0.75885
v 3.8473 1.35 -0.97265
v 5.03209 1.35 -0.35702
v 4.91421 2.30459 0.8
v 4.58335 2.30459 1.61814
v 3.74558 2.30459 2.05346
v 2.79289 2.30459 1.90227
v 2.17107 2.30459 1.23532
v 2.17107 2.30459 0.36468
v 2.79289 2.30459 -0.30227
v 3.74558 2.30459 -0.45346
v 4.58335 2.30459 -0.01814
v 3.5 2.7 0.8
v 3.5 2.7 0.8
v 3.5 2.7 0.8
v 3.5 2.7 0.8
v 3.5 2.7 0.8
v 3.5 2.7 0.8
v 3.5 2.7 0.8
v 3.5 2.7 0.8
v 3.5 2.7 0.8
v -2.95 0.7 -0.35
v -3.42 5.5 -0.35
v -3.15708 0.7 0.08001
v -3.45012 5.5 -0.28745
v -3.62239 0.7 0.18621
v -3.5178 5.5 -0.27201
v -3.99553 0.7 -0.11136
v -3.57208 5.5 -0.31529
v -3.99553 0.7 -0.58864
v -3.57208 5.5 -0.38471
v -3.62239 0.7 -0.88621
v -3.5178 5.5 -0.42799
v -3.15708 0.7 -0.78001
v -3.45012 5.5 -0.41255
v -3.5 0.35 -1.15
v -3.5 0.35 -1.15
v -3.5 0.35 -1.15
v -3.5 0.35 -1.15
v -3.5 0.35 -1.15
v -3.5 0.35 -1.15
v -3.5 0.35 -1.15
v -2.78553 0.5 -1.15
v -3.05453 0.5 -0.74036
v -3.65898 0.5 -0.63919
v -4.14372 0.5 -0.92267
v -4.14372 0.5 -1.37733
v -3.65898 0.5 -1.66081
v -3.05453 0.5 -1.55964
v -2.78553 0.8 -1.15
v -3.05453 0.8 -0.74036
v -3.65898 0.8 -0.63919
v -4.14372 0.8 -0.92267
v -4.14372 0.8 -1.37733
v -3.65898 0.8 -1.66081
v -3.05453 0.8 -1.55964
v -3.5 0.95 -1.15
v -3.5 0.95 -1.15
v -3.5 0.95 -1.15
v -3.5 0.95 -1.15
v -3.5 0.95 -1.15
v -3.5 0.95 -1.15
v -3.5 0.95 -1.15
v -1.42 0.7 -0.35
v -2.02 6.8 -0.35
v -1.67603 0.7 0.18165
v -2.05012 6.8 -0.28745
v -2.25131 0.7 0.31295
v -2.1178 6.8 -0.27201
v -2.71266 0.7 -0.05496
v -2.17208 6.8 -0.31529
v -2.71266 0.7 -0.64504
v -2.17208 6.8 -0.38471
v -2.25131 0.7 -1.01295
v -2.1178 6.8 -0.42799
v -1.67603 0.7 -0.88165
v -2.05012 6.8 -0.41255
v -2.1 0.35 -1.15
v -2.1 0.35 -1.15
v -2.1 0.35 -1.15
v -2.1 0.35 -1.15
v -2.1 0.35 -1.15
v -2.1 0.35 -1.15
v -2.1 0.35 -1.15
v -1.21665 0.5 -1.15
v -1.54924 0.5 -0.64354
v -2.29656 0.5 -0.51845
v -2.89587 0.5 -0.86894
v -2.89587 0.5 -1.43106
v -2.29656 0.5 -1.78155
v -1.54924 0.5 -1.65646
v -1.21665 0.8 -1.15
v -1.54924 0.8 -0.64354
v -2.29656 0.8 -0.51845
v -2.89587 0.8 -0.86894
v -2.89587 0.8 -1.43106
v -2.29656 0.8 -1.78155
v -1.54924 0.8 -1.65646
v -2.1 0.95 -1.15
v -2.1 0.95 -1.15
v -2.1 0.95 -1.15
v -2.1 0.95 -1.15
v -2.1 0.95 -1.15
v -2.1 0.95 -1.15
v -2.1 0.95 -1.15
v 0.22 0.7 -0.35
v -0.32 4.9 -0.35
v -0.01344 0.7 0.13474
v -0.35012 4.9 -0.28745
v -0.53796 0.7 0.25446
v -0.4178 4.9 -0.27201
v -0.9586 0.7 -0.08099
v -0.47208 4.9 -0.31529
v -0.9586 0.7 -0.61901
v -0.47208 4.9 -0.38471
v -0.53796 0.7 -0.95446
v -0.4178 4.9 -0.42799
v -0.01344 0.7 -0.83474
v -0.35012 4.9 -0.41255
v -0.4 0.35 -1.15
v -0.4 0.35 -1.15
v -0.4 0.35 -1.15
v -0.4 0.35 -1.15
v -0.4 0.35 -1.15
v -0.4 0.35 -1.15
v -0.4 0.35 -1.15
v 0.4054 0.5 -1.15
v 0.10216 0.5 -0.68823
v -0.57922 0.5 -0.57418
v -1.12564 0.5 -0.89374
v -1.12564 0.5 -1.40626
v -0.57922 0.5 -1.72582
v 0.10216 0.5 -1.61177
v 0.4054 0.8 -1.15
v 0.10216 0.8 -0.68823
v -0.57922 0.8 -0.57418
v -1.12564 0.8 -0.89374
v -1.12564 0.8 -1.40626
v -0.57922 0.8 -1.72582
v 0.10216 0.8 -1.61177
v -0.4 0.95 -1.15
v -0.4 0.95 -1.15
v -0.4 0.95 -1.15
v -0.4 0.95 -1.15
v -0.4 0.95 -1.15
v -0.4 0.95 -1.15
v -0.4 0.95 -1.15
v 1.88 0.7 -0.35
v 1.18 7.5 -0.35
v 1.58632 0.7 0.25983
v 1.14988 7.5 -0.28745
v 0.92643 0.7 0.41044
v 1.0822 7.5 -0.27201
v 0.39724 0.7 -0.01157
v 1.02792 7.5 -0.31529
v 0.39724 0.7 -0.68843
v 1.02792 7.5 -0.38471
v 0.92643 0.7 -1.11044
v 1.0822 7.5 -0.42799
v 1.58632 0.7 -0.95983
v 1.14988 7.5 -0.41255
v 1.1 0.35 -1.15
v 1.1 0.35 -1.15
v 1.1 0.35 -1.15
v 1.1 0.35 -1.15
v 1.1 0.35 -1.15
v 1.1 0.35 -1.15
v 1.1 0.35 -1.15
v 2.11325 0.5 -1.15
v 1.73175 0.5 -0.56906
v 0.87453 0.5 -0.42558
v 0.18709 0.5 -0.8276
v 0.18709 0.5 -1.4724
v 0.87453 0.5 -1.87442
v 1.73175 0.5 -1.73094
v 2.11325 0.8 -1.15
v 1.73175 0.8 -0.56906
v 0.87453 0.8 -0.42558
v 0.18709 0.8 -0.8276
v 0.18709 0.8 -1.4724
v 0.87453 0.8 -1.87442
v 1.73175 0.8 -1.73094
v 1.1 0.95 -1.15
v 1.1 0.95 -1.15
v 1.1 0.95 -1.15
v 1.1 0.95 -1.15
v 1.1 0.95 -1.15
v 1.1 0.95 -1.15
v 1.1 0.95 -1.15
v 3.44 0.7 -0.35
v 2.88 6.1 -0.35
v 3.19903 0.7 0.15037
v 2.84988 6.1 -0.28745
v 2.65759 0.7 0.27395
v 2.7822 6.1 -0.27201
v 2.22338 0.7 -0.07231
v 2.72792 6.1 -0.31529
v 2.22338 0.7 -0.62769
v 2.72792 6.1 -0.38471
v 2.65759 0.7 -0.97395
v 2.7822 6.1 -0.42799
v 3.19903 0.7 -0.85037
v 2.84988 6.1 -0.41255
v 2.8 0.35 -1.15
v 2.8 0.35 -1.15
v 2.8 0.35 -1.15
v 2.8 0.35 -1.15
v 2.8 0.35 -1.15
v 2.8 0.35 -1.15
v 2.8 0.35 -1.15
v 3.63138 0.5 -1.15
v 3.31836 0.5 -0.67333
v 2.615 0.5 -0.5556
v 2.05095 0.5 -0.88547
v 2.05095 0.5 -1.41453
v 2.615 0.5 -1.7444
v 3.31836 0.5 -1.62667
v 3.63138 0.8 -1.15
v 3.31836 0.8 -0.67333
v 2.615 0.8 -0.5556
v 2.05095 0.8 -0.88547
v 2.05095 0.8 -1.41453
v 2.615 0.8 -1.7444
v 3.31836 0.8 -1.62667
v 2.8 0.95 -1.15
v 2.8 0.95 -1.15
v 2.8 0.95 -1.15
v 2.8 0.95 -1.15
v 2.8 0.95 -1.15
v 2.8 0.95 -1.15
v 2.8 0.95 -1.15
v 4.18 0.7 -0.35
v 3.78 4.4 -0.35
v 3.99928 0.7 0.02528
v 3.74988 4.4 -0.28745
v 3.59319 0.7 0.11797
v 3.6822 4.4 -0.27201
v 3.26753 0.7 -0.14174
v 3.62792 4.4 -0.31529
v 3.26753 0.7 -0.55826
v 3.62792 4.4 -0.38471
v 3.59319 0.7 -0.81797
v 3.6822 4.4 -0.42799
v 3.99928 0.7 -0.72528
v 3.74988 4.4 -0.41255
v 3.7 0.35 -1.15
v 3.7 0.35 -1.15
v 3.7 0.35 -1.15
v 3.7 0.35 -1.15
v 3.7 0.35 -1.15
v 3.7 0.35 -1.15
v 3.7 0.35 -1.15
v 4.32354 0.5 -1.15
v 4.08877 0.5 -0.7925
v 3.56125 0.5 -0.7042
v 3.13821 0.5 -0.9516
v 3.13821 0.5 -1.3484
v 3.56125 0.5 -1.5958
v 4.08877 0.5 -1.5075
v 4.32354 0.8 -1.15
v 4.08877 0.8 -0.7925
v 3.56125 0.8 -0.7042
v 3.13821 0.8 -0.9516
v 3.13821 0.8 -1.3484
v 3.56125 0.8 -1.5958
v 4.08877 0.8 -1.5075
v 3.7 0.95 -1.15
v 3.7 0.95 -1.15
v 3.7 0.95 -1.15
v 3.7 0.95 -1.15
v 3.7 0.95 -1.15
v 3.7 0.95 -1.15
v 3.7 0.95 -1.15
g cliff_mass_0
usemtl rock
f 1 2 11 10
f 2 3 12 11
f 3 4 13 12
f 4 5 14 13
f 5 6 15 14
f 6 7 16 15
f 7 8 17 16
f 8 9 18 17
f 9 1 10 18
f 10 11 20 19
f 11 12 21 20
f 12 13 22 21
f 13 14 23 22
f 14 15 24 23
f 15 16 25 24
f 16 17 26 25
f 17 18 27 26
f 18 10 19 27
f 19 20 29 28
f 20 21 30 29
f 21 22 31 30
f 22 23 32 31
f 23 24 33 32
f 24 25 34 33
f 25 26 35 34
f 26 27 36 35
f 27 19 28 36
f 28 29 38 37
f 29 30 39 38
f 30 31 40 39
f 31 32 41 40
f 32 33 42 41
f 33 34 43 42
f 34 35 44 43
f 35 36 45 44
f 36 28 37 45
g cliff_mass_1
usemtl rock
f 46 47 56 55
f 47 48 57 56
f 48 49 58 57
f 49 50 59 58
f 50 51 60 59
f 51 52 61 60
f 52 53 62 61
f 53 54 63 62
f 54 46 55 63
f 55 56 65 64
f 56 57 66 65
f 57 58 67 66
f 58 59 68 67
f 59 60 69 68
f 60 61 70 69
f 61 62 71 70
f 62 63 72 71
f 63 55 64 72
f 64 65 74 73
f 65 66 75 74
f 66 67 76 75
f 67 68 77 76
f 68 69 78 77
f 69 70 79 78
f 70 71 80 79
f 71 72 81 80
f 72 64 73 81
f 73 74 83 82
f 74 75 84 83
f 75 76 85 84
f 76 77 86 85
f 77 78 87 86
f 78 79 88 87
f 79 80 89 88
f 80 81 90 89
f 81 73 82 90
g cliff_mass_2
usemtl rock
f 91 92 101 100
f 92 93 102 101
f 93 94 103 102
f 94 95 104 103
f 95 96 105 104
f 96 97 106 105
f 97 98 107 106
f 98 99 108 107
f 99 91 100 108
f 100 101 110 109
f 101 102 111 110
f 102 103 112 111
f 103 104 113 112
f 104 105 114 113
f 105 106 115 114
f 106 107 116 115
f 107 108 117 116
f 108 100 109 117
f 109 110 119 118
f 110 111 120 119
f 111 112 121 120
f 112 113 122 121
f 113 114 123 122
f 114 115 124 123
f 115 116 125 124
f 116 117 126 125
f 117 109 118 126
f 118 119 128 127
f 119 120 129 128
f 120 121 130 129
f 121 122 131 130
f 122 123 132 131
f 123 124 133 132
f 124 125 134 133
f 125 126 135 134
f 126 118 127 135
g cliff_mass_3
usemtl rock
f 136 137 146 145
f 137 138 147 146
f 138 139 148 147
f 139 140 149 148
f 140 141 150 149
f 141 142 151 150
f 142 143 152 151
f 143 144 153 152
f 144 136 145 153
f 145 146 155 154
f 146 147 156 155
f 147 148 157 156
f 148 149 158 157
f 149 150 159 158
f 150 151 160 159
f 151 152 161 160
f 152 153 162 161
f 153 145 154 162
f 154 155 164 163
f 155 156 165 164
f 156 157 166 165
f 157 158 167 166
f 158 159 168 167
f 159 160 169 168
f 160 161 170 169
f 161 162 171 170
f 162 154 163 171
f 163 164 173 172
f 164 165 174 173
f 165 166 175 174
f 166 167 176 175
f 167 168 177 176
f 168 169 178 177
f 169 170 179 178
f 170 171 180 179
f 171 163 172 180
g silica_spire_0
usemtl silica
f 193 191 189 187 185 183 181
f 182 184 186 188 190 192 194
f 181 183 184 182
f 183 185 186 184
f 185 187 188 186
f 187 189 190 188
f 189 191 192 190
f 191 193 194 192
f 193 181 182 194
g spire_foot_0
usemtl carbonate
f 195 196 203 202
f 196 197 204 203
f 197 198 205 204
f 198 199 206 205
f 199 200 207 206
f 200 201 208 207
f 201 195 202 208
f 202 203 210 209
f 203 204 211 210
f 204 205 212 211
f 205 206 213 212
f 206 207 214 213
f 207 208 215 214
f 208 202 209 215
f 209 210 217 216
f 210 211 218 217
f 211 212 219 218
f 212 213 220 219
f 213 214 221 220
f 214 215 222 221
f 215 209 216 222
g silica_spire_1
usemtl silica
f 235 233 231 229 227 225 223
f 224 226 228 230 232 234 236
f 223 225 226 224
f 225 227 228 226
f 227 229 230 228
f 229 231 232 230
f 231 233 234 232
f 233 235 236 234
f 235 223 224 236
g spire_foot_1
usemtl carbonate
f 237 238 245 244
f 238 239 246 245
f 239 240 247 246
f 240 241 248 247
f 241 242 249 248
f 242 243 250 249
f 243 237 244 250
f 244 245 252 251
f 245 246 253 252
f 246 247 254 253
f 247 248 255 254
f 248 249 256 255
f 249 250 257 256
f 250 244 251 257
f 251 252 259 258
f 252 253 260 259
f 253 254 261 260
f 254 255 262 261
f 255 256 263 262
f 256 257 264 263
f 257 251 258 264
g silica_spire_2
usemtl silica
f 277 275 273 271 269 267 265
f 266 268 270 272 274 276 278
f 265 267 268 266
f 267 269 270 268
f 269 271 272 270
f 271 273 274 272
f 273 275 276 274
f 275 277 278 276
f 277 265 266 278
g spire_foot_2
usemtl carbonate
f 279 280 287 286
f 280 281 288 287
f 281 282 289 288
f 282 283 290 289
f 283 284 291 290
f 284 285 292 291
f 285 279 286 292
f 286 287 294 293
f 287 288 295 294
f 288 289 296 295
f 289 290 297 296
f 290 291 298 297
f 291 292 299 298
f 292 286 293 299
f 293 294 301 300
f 294 295 302 301
f 295 296 303 302
f 296 297 304 303
f 297 298 305 304
f 298 299 306 305
f 299 293 300 306
g silica_spire_3
usemtl silica
f 319 317 315 313 311 309 307
f 308 310 312 314 316 318 320
f 307 309 310 308
f 309 311 312 310
f 311 313 314 312
f 313 315 316 314
f 315 317 318 316
f 317 319 320 318
f 319 307 308 320
g spire_foot_3
usemtl carbonate
f 321 322 329 328
f 322 323 330 329
f 323 324 331 330
f 324 325 332 331
f 325 326 333 332
f 326 327 334 333
f 327 321 328 334
f 328 329 336 335
f 329 330 337 336
f 330 331 338 337
f 331 332 339 338
f 332 333 340 339
f 333 334 341 340
f 334 328 335 341
f 335 336 343 342
f 336 337 344 343
f 337 338 345 344
f 338 339 346 345
f 339 340 347 346
f 340 341 348 347
f 341 335 342 348
g silica_spire_4
usemtl silica
f 361 359 357 355 353 351 349
f 350 352 354 356 358 360 362
f 349 351 352 350
f 351 353 354 352
f 353 355 356 354
f 355 357 358 356
f 357 359 360 358
f 359 361 362 360
f 361 349 350 362
g spire_foot_4
usemtl carbonate
f 363 364 371 370
f 364 365 372 371
f 365 366 373 372
f 366 367 374 373
f 367 368 375 374
f 368 369 376 375
f 369 363 370 376
f 370 371 378 377
f 371 372 379 378
f 372 373 380 379
f 373 374 381 380
f 374 375 382 381
f 375 376 383 382
f 376 370 377 383
f 377 378 385 384
f 378 379 386 385
f 379 380 387 386
f 380 381 388 387
f 381 382 389 388
f 382 383 390 389
f 383 377 384 390
g silica_spire_5
usemtl silica
f 403 401 399 397 395 393 391
f 392 394 396 398 400 402 404
f 391 393 394 392
f 393 395 396 394
f 395 397 398 396
f 397 399 400 398
f 399 401 402 400
f 401 403 404 402
f 403 391 392 404
g spire_foot_5
usemtl carbonate
f 405 406 413 412
f 406 407 414 413
f 407 408 415 414
f 408 409 416 415
f 409 410 417 416
f 410 411 418 417
f 411 405 412 418
f 412 413 420 419
f 413 414 421 420
f 414 415 422 421
f 415 416 423 422
f 416 417 424 423
f 417 418 425 424
f 418 412 419 425
f 419 420 427 426
f 420 421 428 427
f 421 422 429 428
f 422 423 430 429
f 423 424 431 430
f 424 425 432 431
f 425 419 426 432
