# Generated environment blockout: sulphur_colony_a
mtllib environment_blockout.mtl
o sulphur_colony_a
v -1.8 0.0 0.1
v -1.8 0.0 0.1
v -1.8 0.0 0.1
v -1.8 0.0 0.1
v -1.8 0.0 0.1
v -1.8 0.0 0.1
v -1.8 0.0 0.1
v -1.8 0.0 0.1
v -1.8 0.0 0.1
v -1.8 0.0 0.1
v -1.8 0.0 0.1
v -1.8 0.0 0.1
v -0.15455 0.03 0.1
v -0.375 0.03 0.55466
v -0.97728 0.03 0.8875
v -1.8 0.03 1.00933
v -2.62272 0.03 0.8875
v -3.225 0.03 0.55466
v -3.44545 0.03 0.1
v -3.225 0.03 -0.35466
v -2.62272 0.03 -0.6875
v -1.8 0.03 -0.80933
v -0.97728 0.03 -0.6875
v -0.375 0.03 -0.35466
v -0.15455 0.09 0.1
v -0.375 0.09 0.55466
v -0.97728 0.09 0.8875
v -1.8 0.09 1.00933
v -2.62272 0.09 0.8875
v -3.225 0.09 0.55466
v -3.44545 0.09 0.1
v -3.225 0.09 -0.35466
v -2.62272 0.09 -0.6875
v -1.8 0.09 -0.80933
v -0.97728 0.09 -0.6875
v -0.375 0.09 -0.35466
v -1.8 0.12 0.1
v -1.8 0.12 0.1
v -1.8 0.12 0.1
v -1.8 0.12 0.1
v -1.8 0.12 0.1
v -1.8 0.12 0.1
v -1.8 0.12 0.1
v -1.8 0.12 0.1
v -1.8 0.12 0.1
v -1.8 0.12 0.1
v -1.8 0.12 0.1
v -1.8 0.12 0.1
v 0.4 0.0 -0.5
v 0.4 0.0 -0.5
v 0.4 0.0 -0.5
v 0.4 0.0 -0.5
v 0.4 0.0 -0.5
v 0.4 0.0 -0.5
v 0.4 0.0 -0.5
v 0.4 0.0 -0.5
v 0.4 0.0 -0.5
v 0.4 0.0 -0.5
v 0.4 0.0 -0.5
v 0.4 0.0 -0.5
v 2.30526 0.03 -0.5
v 2.05 0.03 0.01962
v 1.35263 0.03 0.4
v 0.4 0.03 0.53923
v -0.55263 0.03 0.4
v -1.25 0.03 0.01962
v -1.50526 0.03 -0.5
v -1.25 0.03 -1.01962
v -0.55263 0.03 -1.4
v 0.4 0.03 -1.53923
v 1.35263 0.03 -1.4
v 2.05 0.03 -1.01962
v 2.30526 0.09 -0.5
v 2.05 0.09 0.01962
v 1.35263 0.09 0.4
v 0.4 0.09 0.53923
v -0.55263 0.09 0.4
v -1.25 0.09 0.01962
v -1.50526 0.09 -0.5
v -1.25 0.09 -1.01962
v -0.55263 0.09 -1.4
v 0.4 0.09 -1.53923
v 1.35263 0.09 -1.4
v 2.05 0.09 -1.01962
v 0.4 0.12 -0.5
v 0.4 0.12 -0.5
v 0.4 0.12 -0.5
v 0.4 0.12 -0.5
v 0.4 0.12 -0.5
v 0.4 0.12 -0.5
v 0.4 0.12 -0.5
v 0.4 0.12 -0.5
v 0.4 0.12 -0.5
v 0.4 0.12 -0.5
v 0.4 0.12 -0.5
v 0.4 0.12 -0.5
v 2.1 0.0 0.55
v 2.1 0.0 0.55
v 2.1 0.0 0.55
v 2.1 0.0 0.55
v 2.1 0.0 0.55
v 2.1 0.0 0.55
v 2.1 0.0 0.55
v 2.1 0.0 0.55
v 2.1 0.0 0.55
v 2.1 0.0 0.55
v 2.1 0.0 0.55
v 2.1 0.0 0.55
v 3.26913 0.03 0.55
v 3.1125 0.03 0.90507
v 2.68457 0.03 1.165
v 2.1 0.03 1.26014
v 1.51543 0.03 1.165
v 1.0875 0.03 0.90507
v 0.93087 0.03 0.55
v 1.0875 0.03 0.19493
v 1.51543 0.03 -0.065
v 2.1 0.03 -0.16014
v 2.68457 0.03 -0.065
v 3.1125 0.03 0.19493
v 3.26913 0.09 0.55
v 3.1125 0.09 0.90507
v 2.68457 0.09 1.165
v 2.1 0.09 1.26014
v 1.51543 0.09 1.165
v 1.0875 0.09 0.90507
v 0.93087 0.09 0.55
v 1.0875 0.09 0.19493
v 1.51543 0.09 -0.065
v 2.1 0.09 -0.16014
v 2.68457 0.09 -0.065
v 3.1125 0.09 0.19493
v 2.1 0.12 0.55
v 2.1 0.12 0.55
v 2.1 0.12 0.55
v 2.1 0.12 0.55
v 2.1 0.12 0.55
v 2.1 0.12 0.55
v 2.1 0.12 0.55
v 2.1 0.12 0.55
v 2.1 0.12 0.55
v 2.1 0.12 0.55
v 2.1 0.12 0.55
v 2.1 0.12 0.55
v 0.72655 0.08 0.16684
v 0.60655 0.53 0.16684
v 0.65125 0.08 0.32321
v 0.57643 0.53 0.22939
v 0.48205 0.08 0.36183
v 0.50875 0.53 0.24483
v 0.34636 0.08 0.25362
v 0.45447 0.53 0.20155
v 0.34636 0.08 0.08006
v 0.45447 0.53 0.13213
v 0.48205 0.08 -0.02815
v 0.50875 0.53 0.08885
v 0.65125 0.08 0.01047
v 0.57643 0.53 0.10429
v 0.52655 0.5 0.16684
v 0.52655 0.5 0.16684
v 0.52655 0.5 0.16684
v 0.52655 0.5 0.16684
v 0.52655 0.5 0.16684
v 0.52655 0.5 0.16684
v 0.52655 0.5 0.16684
v 0.68243 0.55 0.16684
v 0.62374 0.55 0.28872
v 0.49186 0.55 0.31882
v 0.3861 0.55 0.23448
v 0.3861 0.55 0.0992
v 0.49186 0.55 0.01486
v 0.62374 0.55 0.04496
v 0.68243 0.65 0.16684
v 0.62374 0.65 0.28872
v 0.49186 0.65 0.31882
v 0.3861 0.65 0.23448
v 0.3861 0.65 0.0992
v 0.49186 0.65 0.01486
v 0.62374 0.65 0.04496
v 0.52655 0.7 0.16684
v 0.52655 0.7 0.16684
v 0.52655 0.7 0.16684
v 0.52655 0.7 0.16684
v 0.52655 0.7 0.16684
v 0.52655 0.7 0.16684
v 0.52655 0.7 0.16684
v -1.85704 0.08 0.29955
v -2.00704 1.01 0.29955
v -1.94364 0.08 0.47938
v -2.03717 1.01 0.3621
v -2.13822 0.08 0.52379
v -2.10485 1.01 0.37755
v -2.29427 0.08 0.39935
v -2.15912 1.01 0.33427
v -2.29427 0.08 0.19976
v -2.15912 1.01 0.26484
v -2.13822 0.08 0.07532
v -2.10485 1.01 0.22156
v -1.94364 0.08 0.11973
v -2.03717 1.01 0.23701
v 0.76296 0.08 -0.43986
v 0.58296 1.49 -0.43986
v 0.66507 0.08 -0.23658
v 0.55284 1.49 -0.37731
v 0.44511 0.08 -0.18637
v 0.48516 1.49 -0.36186
v 0.26871 0.08 -0.32705
v 0.43089 1.49 -0.40514
v 0.26871 0.08 -0.55266
v 0.43089 1.49 -0.47457
v 0.44511 0.08 -0.69334
v 0.48516 1.49 -0.51785
v 0.66507 0.08 -0.64313
v 0.55284 1.49 -0.5024
v 0.58459 0.08 1.40926
v 0.46459 0.85 1.40926
v 0.50929 0.08 1.56562
v 0.43447 0.85 1.4718
v 0.34009 0.08 1.60424
v 0.36679 0.85 1.48725
v 0.2044 0.08 1.49603
v 0.31251 0.85 1.44397
v 0.2044 0.08 1.32248
v 0.31251 0.85 1.37454
v 0.34009 0.08 1.21427
v 0.36679 0.85 1.33126
v 0.50929 0.08 1.25289
v 0.43447 0.85 1.34671
v 0.38459 0.82 1.40926
v 0.38459 0.82 1.40926
v 0.38459 0.82 1.40926
v 0.38459 0.82 1.40926
v 0.38459 0.82 1.40926
v 0.38459 0.82 1.40926
v 0.38459 0.82 1.40926
v 0.54048 0.87 1.40926
v 0.48178 0.87 1.53113
v 0.3499 0.87 1.56123
v 0.24414 0.87 1.47689
v 0.24414 0.87 1.34162
v 0.3499 0.87 1.25728
v 0.48178 0.87 1.28738
v 0.54048 0.97 1.40926
v 0.48178 0.97 1.53113
v 0.3499 0.97 1.56123
v 0.24414 0.97 1.47689
v 0.24414 0.97 1.34162
v 0.3499 0.97 1.25728
v 0.48178 0.97 1.28738
v 0.38459 1.02 1.40926
v 0.38459 1.02 1.40926
v 0.38459 1.02 1.40926
v 0.38459 1.02 1.40926
v 0.38459 1.02 1.40926
v 0.38459 1.02 1.40926
v 0.38459 1.02 1.40926
v -0.72534 0.08 -0.44009
v -0.87534 1.33 -0.44009
v -0.81193 0.08 -0.26027
v -0.90546 1.33 -0.37754
v -1.00652 0.08 -0.21585
v -0.97314 1.33 -0.36209
v -1.16256 0.08 -0.34029
v -1.02741 1.33 -0.40538
v -1.16256 0.08 -0.53988
v -1.02741 1.33 -0.4748
v -1.00652 0.08 -0.66432
v -0.97314 1.33 -0.51808
v -0.81193 0.08 -0.61991
v -0.90546 1.33 -0.50263
v 3.02295 0.08 -0.11457
v 2.84295 0.69 -0.11457
v 2.92506 0.08 0.08871
v 2.81283 0.69 -0.05202
v 2.70509 0.08 0.13891
v 2.74515 0.69 -0.03657
v 2.5287 0.08 -0.00176
v 2.69087 0.69 -0.07986
v 2.5287 0.08 -0.22738
v 2.69087 0.69 -0.14928
v 2.70509 0.08 -0.36805
v 2.74515 0.69 -0.19256
v 2.92506 0.08 -0.31784
v 2.81283 0.69 -0.17711
v -0.85053 0.08 0.64515
v -0.97053 1.17 0.64515
v -0.92583 0.08 0.80152
v -1.00065 1.17 0.7077
v -1.09504 0.08 0.84014
v -1.06833 1.17 0.72315
v -1.23073 0.08 0.73193
v -1.12261 1.17 0.67986
v -1.23073 0.08 0.55838
v -1.12261 1.17 0.61044
v -1.09504 0.08 0.45017
v -1.06833 1.17 0.56716
v -0.92583 0.08 0.48879
v -1.00065 1.17 0.58261
v -1.05053 1.14 0.64515
v -1.05053 1.14 0.64515
v -1.05053 1.14 0.64515
v -1.05053 1.14 0.64515
v -1.05053 1.14 0.64515
v -1.05053 1.14 0.64515
v -1.05053 1.14 0.64515
v -0.89465 1.19 0.64515
v -0.95334 1.19 0.76703
v -1.08522 1.19 0.79713
v -1.19098 1.19 0.71279
v -1.19098 1.19 0.57752
v -1.08522 1.19 0.49318
v -0.95334 1.19 0.52328
v -0.89465 1.29 0.64515
v -0.95334 1.29 0.76703
v -1.08522 1.29 0.79713
v -1.19098 1.29 0.71279
v -1.19098 1.29 0.57752
v -1.08522 1.29 0.49318
v -0.95334 1.29 0.52328
v -1.05053 1.34 0.64515
v -1.05053 1.34 0.64515
v -1.05053 1.34 0.64515
v -1.05053 1.34 0.64515
v -1.05053 1.34 0.64515
v -1.05053 1.34 0.64515
v -1.05053 1.34 0.64515
v 0.27386 0.08 -1.78622
v 0.12386 0.53 -1.78622
v 0.18726 0.08 -1.6064
v 0.09374 0.53 -1.72367
v -0.00732 0.08 -1.56199
v 0.02606 0.53 -1.70822
v -0.16336 0.08 -1.68643
v -0.02822 0.53 -1.75151
v -0.16336 0.08 -1.88601
v -0.02822 0.53 -1.82093
v -0.00732 0.08 -2.01045
v 0.02606 0.53 -1.86421
v 0.18726 0.08 -1.96604
v 0.09374 0.53 -1.84877
v 1.48478 0.08 0.79642
v 1.30478 1.01 0.79642
v 1.38689 0.08 0.9997
v 1.27466 1.01 0.85897
v 1.16692 0.08 1.0499
v 1.20698 1.01 0.87442
v 0.99053 0.08 0.90923
v 1.1527 1.01 0.83113
v 0.99053 0.08 0.68361
v 1.1527 1.01 0.76171
v 1.16692 0.08 0.54294
v 1.20698 1.01 0.71843
v 1.38689 0.08 0.59315
v 1.27466 1.01 0.73388
v -0.39701 0.08 -0.03469
v -0.51701 1.49 -0.03469
v -0.47231 0.08 0.12168
v -0.54713 1.49 0.02786
v -0.64152 0.08 0.16029
v -0.61481 1.49 0.0433
v -0.77721 0.08 0.05209
v -0.66909 1.49 2e-05
v -0.77721 0.08 -0.12147
v -0.66909 1.49 -0.0694
v -0.64152 0.08 -0.22968
v -0.61481 1.49 -0.11268
v -0.47231 0.08 -0.19106
v -0.54713 1.49 -0.09724
v -0.59701 1.46 -0.03469
v -0.59701 1.46 -0.03469
v -0.59701 1.46 -0.03469
v -0.59701 1.46 -0.03469
v -0.59701 1.46 -0.03469
v -0.59701 1.46 -0.03469
v -0.59701 1.46 -0.03469
v -0.44113 1.51 -0.03469
v -0.49982 1.51 0.08718
v -0.6317 1.51 0.11729
v -0.73746 1.51 0.03295
v -0.73746 1.51 -0.10233
v -0.6317 1.51 -0.18667
v -0.49982 1.51 -0.15657
v -0.44113 1.61 -0.03469
v -0.49982 1.61 0.08718
v -0.6317 1.61 0.11729
v -0.73746 1.61 0.03295
v -0.73746 1.61 -0.10233
v -0.6317 1.61 -0.18667
v -0.49982 1.61 -0.15657
v -0.59701 1.66 -0.03469
v -0.59701 1.66 -0.03469
v -0.59701 1.66 -0.03469
v -0.59701 1.66 -0.03469
v -0.59701 1.66 -0.03469
v -0.59701 1.66 -0.03469
v -0.59701 1.66 -0.03469
v 1.95098 0.08 -0.74744
v 1.80098 0.85 -0.74744
v 1.86438 0.08 -0.56762
v 1.77086 0.85 -0.6849
v 1.6698 0.08 -0.52321
v 1.70318 0.85 -0.66945
v 1.51376 0.08 -0.64765
v 1.6489 0.85 -0.71273
v 1.51376 0.08 -0.84723
v 1.6489 0.85 -0.78215
v 1.6698 0.08 -0.97168
v 1.70318 0.85 -0.82544
v 1.86438 0.08 -0.92726
v 1.77086 0.85 -0.80999
g crust_0
usemtl sulphur_crust
f 1 2 14 13
f 2 3 15 14
f 3 4 16 15
f 4 5 17 16
f 5 6 18 17
f 6 7 19 18
f 7 8 20 19
f 8 9 21 20
f 9 10 22 21
f 10 11 23 22
f 11 12 24 23
f 12 1 13 24
f 13 14 26 25
f 14 15 27 26
f 15 16 28 27
f 16 17 29 28
f 17 18 30 29
f 18 19 31 30
f 19 20 32 31
f 20 21 33 32
f 21 22 34 33
f 22 23 35 34
f 23 24 36 35
f 24 13 25 36
f 25 26 38 37
f 26 27 39 38
f 27 28 40 39
f 28 29 41 40
f 29 30 42 41
f 30 31 43 42
f 31 32 44 43
f 32 33 45 44
f 33 34 46 45
f 34 35 47 46
f 35 36 48 47
f 36 25 37 48
g crust_1
usemtl sulphur_crust
f 49 50 62 61
f 50 51 63 62
f 51 52 64 63
f 52 53 65 64
f 53 54 66 65
f 54 55 67 66
f 55 56 68 67
f 56 57 69 68
f 57 58 70 69
f 58 59 71 70
f 59 60 72 71
f 60 49 61 72
f 61 62 74 73
f 62 63 75 74
f 63 64 76 75
f 64 65 77 76
f 65 66 78 77
f 66 67 79 78
f 67 68 80 79
f 68 69 81 80
f 69 70 82 81
f 70 71 83 82
f 71 72 84 83
f 72 61 73 84
f 73 74 86 85
f 74 75 87 86
f 75 76 88 87
f 76 77 89 88
f 77 78 90 89
f 78 79 91 90
f 79 80 92 91
f 80 81 93 92
f 81 82 94 93
f 82 83 95 94
f 83 84 96 95
f 84 73 85 96
g crust_2
usemtl sulphur_crust
f 97 98 110 109
f 98 99 111 110
f 99 100 112 111
f 100 101 113 112
f 101 102 114 113
f 102 103 115 114
f 103 104 116 115
f 104 105 117 116
f 105 106 118 117
f 106 107 119 118
f 107 108 120 119
f 108 97 109 120
f 109 110 122 121
f 110 111 123 122
f 111 112 124 123
f 112 113 125 124
f 113 114 126 125
f 114 115 127 126
f 115 116 128 127
f 116 117 129 128
f 117 118 130 129
f 118 119 131 130
f 119 120 132 131
f 120 109 121 132
f 121 122 134 133
f 122 123 135 134
f 123 124 136 135
f 124 125 137 136
f 125 126 138 137
f 126 127 139 138
f 127 128 140 139
f 128 129 141 140
f 129 130 142 141
f 130 131 143 142
f 131 132 144 143
f 132 121 133 144
g feeder_0
usemtl living_sulphur
f 157 155 153 151 149 147 145
f 146 148 150 152 154 156 158
f 145 147 148 146
f 147 149 150 148
f 149 151 152 150
f 151 153 154 152
f 153 155 156 154
f 155 157 158 156
f 157 145 146 158
g crown_0
usemtl carbonate
f 159 160 167 166
f 160 161 168 167
f 161 162 169 168
f 162 163 170 169
f 163 164 171 170
f 164 165 172 171
f 165 159 166 172
f 166 167 174 173
f 167 168 175 174
f 168 169 176 175
f 169 170 177 176
f 170 171 178 177
f 171 172 179 178
f 172 166 173 179
f 173 174 181 180
f 174 175 182 181
f 175 176 183 182
f 176 177 184 183
f 177 178 185 184
f 178 179 186 185
f 179 173 180 186
g feeder_1
usemtl living_sulphur
f 199 197 195 193 191 189 187
f 188 190 192 194 196 198 200
f 187 189 190 188
f 189 191 192 190
f 191 193 194 192
f 193 195 196 194
f 195 197 198 196
f 197 199 200 198
f 199 187 188 200
g feeder_2
usemtl living_sulphur
f 213 211 209 207 205 203 201
f 202 204 206 208 210 212 214
f 201 203 204 202
f 203 205 206 204
f 205 207 208 206
f 207 209 210 208
f 209 211 212 210
f 211 213 214 212
f 213 201 202 214
g feeder_3
usemtl living_sulphur
f 227 225 223 221 219 217 215
f 216 218 220 222 224 226 228
f 215 217 218 216
f 217 219 220 218
f 219 221 222 220
f 221 223 224 222
f 223 225 226 224
f 225 227 228 226
f 227 215 216 228
g crown_3
usemtl carbonate
f 229 230 237 236
f 230 231 238 237
f 231 232 239 238
f 232 233 240 239
f 233 234 241 240
f 234 235 242 241
f 235 229 236 242
f 236 237 244 243
f 237 238 245 244
f 238 239 246 245
f 239 240 247 246
f 240 241 248 247
f 241 242 249 248
f 242 236 243 249
f 243 244 251 250
f 244 245 252 251
f 245 246 253 252
f 246 247 254 253
f 247 248 255 254
f 248 249 256 255
f 249 243 250 256
g feeder_4
usemtl living_sulphur
f 269 267 265 263 261 259 257
f 258 260 262 264 266 268 270
f 257 259 260 258
f 259 261 262 260
f 261 263 264 262
f 263 265 266 264
f 265 267 268 266
f 267 269 270 268
f 269 257 258 270
g feeder_5
usemtl living_sulphur
f 283 281 279 277 275 273 271
f 272 274 276 278 280 282 284
f 271 273 274 272
f 273 275 276 274
f 275 277 278 276
f 277 279 280 278
f 279 281 282 280
f 281 283 284 282
f 283 271 272 284
g feeder_6
usemtl living_sulphur
f 297 295 293 291 289 287 285
f 286 288 290 292 294 296 298
f 285 287 288 286
f 287 289 290 288
f 289 291 292 290
f 291 293 294 292
f 293 295 296 294
f 295 297 298 296
f 297 285 286 298
g crown_6
usemtl carbonate
f 299 300 307 306
f 300 301 308 307
f 301 302 309 308
f 302 303 310 309
f 303 304 311 310
f 304 305 312 311
f 305 299 306 312
f 306 307 314 313
f 307 308 315 314
f 308 309 316 315
f 309 310 317 316
f 310 311 318 317
f 311 312 319 318
f 312 306 313 319
f 313 314 321 320
f 314 315 322 321
f 315 316 323 322
f 316 317 324 323
f 317 318 325 324
f 318 319 326 325
f 319 313 320 326
g feeder_7
usemtl living_sulphur
f 339 337 335 333 331 329 327
f 328 330 332 334 336 338 340
f 327 329 330 328
f 329 331 332 330
f 331 333 334 332
f 333 335 336 334
f 335 337 338 336
f 337 339 340 338
f 339 327 328 340
g feeder_8
usemtl living_sulphur
f 353 351 349 347 345 343 341
f 342 344 346 348 350 352 354
f 341 343 344 342
f 343 345 346 344
f 345 347 348 346
f 347 349 350 348
f 349 351 352 350
f 351 353 354 352
f 353 341 342 354
g feeder_9
usemtl living_sulphur
f 367 365 363 361 359 357 355
f 356 358 360 362 364 366 368
f 355 357 358 356
f 357 359 360 358
f 359 361 362 360
f 361 363 364 362
f 363 365 366 364
f 365 367 368 366
f 367 355 356 368
g crown_9
usemtl carbonate
f 369 370 377 376
f 370 371 378 377
f 371 372 379 378
f 372 373 380 379
f 373 374 381 380
f 374 375 382 381
f 375 369 376 382
f 376 377 384 383
f 377 378 385 384
f 378 379 386 385
f 379 380 387 386
f 380 381 388 387
f 381 382 389 388
f 382 376 383 389
f 383 384 391 390
f 384 385 392 391
f 385 386 393 392
f 386 387 394 393
f 387 388 395 394
f 388 389 396 395
f 389 383 390 396
g feeder_10
usemtl living_sulphur
f 409 407 405 403 401 399 397
f 398 400 402 404 406 408 410
f 397 399 400 398
f 399 401 402 400
f 401 403 404 402
f 403 405 406 404
f 405 407 408 406
f 407 409 410 408
f 409 397 398 410
