# Generated environment blockout: sulphur_crust_b
mtllib environment_blockout.mtl
o sulphur_crust_b
v -1.7 0.0 0.1
v -1.7 0.0 0.1
v -1.7 0.0 0.1
v -1.7 0.0 0.1
v -1.7 0.0 0.1
v -1.7 0.0 0.1
v -1.7 0.0 0.1
v -1.7 0.0 0.1
v -1.7 0.0 0.1
v -1.7 0.0 0.1
v -1.7 0.0 0.1
v -1.7 0.0 0.1
v 0.03205 0.065 0.1
v -0.2 0.065 0.64127
v -0.83397 0.065 1.0375
v -1.7 0.065 1.18253
v -2.56603 0.065 1.0375
v -3.2 0.065 0.64127
v -3.43205 0.065 0.1
v -3.2 0.065 -0.44127
v -2.56603 0.065 -0.8375
v -1.7 0.065 -0.98253
v -0.83397 0.065 -0.8375
v -0.2 0.065 -0.44127
v 0.03205 0.195 0.1
v -0.2 0.195 0.64127
v -0.83397 0.195 1.0375
v -1.7 0.195 1.18253
v -2.56603 0.195 1.0375
v -3.2 0.195 0.64127
v -3.43205 0.195 0.1
v -3.2 0.195 -0.44127
v -2.56603 0.195 -0.8375
v -1.7 0.195 -0.98253
v -0.83397 0.195 -0.8375
v -0.2 0.195 -0.44127
v -1.7 0.26 0.1
v -1.7 0.26 0.1
v -1.7 0.26 0.1
v -1.7 0.26 0.1
v -1.7 0.26 0.1
v -1.7 0.26 0.1
v -1.7 0.26 0.1
v -1.7 0.26 0.1
v -1.7 0.26 0.1
v -1.7 0.26 0.1
v -1.7 0.26 0.1
v -1.7 0.26 0.1
v -1.6 0.2 0.1
v -1.6 0.2 0.1
v -1.6 0.2 0.1
v -1.6 0.2 0.1
v -1.6 0.2 0.1
v -1.6 0.2 0.1
v -1.6 0.2 0.1
v -1.6 0.2 0.1
v -1.6 0.2 0.1
v -1.6 0.2 0.1
v -0.56077 0.23 0.1
v -0.75924 0.23 0.46269
v -1.27886 0.23 0.68684
v -1.92114 0.23 0.68684
v -2.44076 0.23 0.46269
v -2.63923 0.23 0.1
v -2.44076 0.23 -0.26269
v -1.92114 0.23 -0.48684
v -1.27886 0.23 -0.48684
v -0.75924 0.23 -0.26269
v -0.56077 0.29 0.1
v -0.75924 0.29 0.46269
v -1.27886 0.29 0.68684
v -1.92114 0.29 0.68684
v -2.44076 0.29 0.46269
v -2.63923 0.29 0.1
v -2.44076 0.29 -0.26269
v -1.92114 0.29 -0.48684
v -1.27886 0.29 -0.48684
v -0.75924 0.29 -0.26269
v -1.6 0.32 0.1
v -1.6 0.32 0.1
v -1.6 0.32 0.1
v -1.6 0.32 0.1
v -1.6 0.32 0.1
v -1.6 0.32 0.1
v -1.6 0.32 0.1
v -1.6 0.32 0.1
v -1.6 0.32 0.1
v -1.6 0.32 0.1
v 0.5 0.0 -0.5
v 0.5 0.0 -0.5
v 0.5 0.0 -0.5
v 0.5 0.0 -0.5
v 0.5 0.0 -0.5
v 0.5 0.0 -0.5
v 0.5 0.0 -0.5
v 0.5 0.0 -0.5
v 0.5 0.0 -0.5
v 0.5 0.0 -0.5
v 0.5 0.0 -0.5
v 0.5 0.0 -0.5
v 2.57846 0.065 -0.5
v 2.3 0.065 0.10622
v 1.53923 0.065 0.55
v 0.5 0.065 0.71244
v -0.53923 0.065 0.55
v -1.3 0.065 0.10622
v -1.57846 0.065 -0.5
v -1.3 0.065 -1.10622
v -0.53923 0.065 -1.55
v 0.5 0.065 -1.71244
v 1.53923 0.065 -1.55
v 2.3 0.065 -1.10622
v 2.57846 0.195 -0.5
v 2.3 0.195 0.10622
v 1.53923 0.195 0.55
v 0.5 0.195 0.71244
v -0.53923 0.195 0.55
v -1.3 0.195 0.10622
v -1.57846 0.195 -0.5
v -1.3 0.195 -1.10622
v -0.53923 0.195 -1.55
v 0.5 0.195 -1.71244
v 1.53923 0.195 -1.55
v 2.3 0.195 -1.10622
v 0.5 0.26 -0.5
v 0.5 0.26 -0.5
v 0.5 0.26 -0.5
v 0.5 0.26 -0.5
v 0.5 0.26 -0.5
v 0.5 0.26 -0.5
v 0.5 0.26 -0.5
v 0.5 0.26 -0.5
v 0.5 0.26 -0.5
v 0.5 0.26 -0.5
v 0.5 0.26 -0.5
v 0.5 0.26 -0.5
v 0.6 0.2 -0.5
v 0.6 0.2 -0.5
v 0.6 0.2 -0.5
v 0.6 0.2 -0.5
v 0.6 0.2 -0.5
v 0.6 0.2 -0.5
v 0.6 0.2 -0.5
v 0.6 0.2 -0.5
v 0.6 0.2 -0.5
v 0.6 0.2 -0.5
v 1.84708 0.23 -0.5
v 1.60891 0.23 -0.09379
v 0.98537 0.23 0.15726
v 0.21463 0.23 0.15726
v -0.40891 0.23 -0.09379
v -0.64708 0.23 -0.5
v -0.40891 0.23 -0.90621
v 0.21463 0.23 -1.15726
v 0.98537 0.23 -1.15726
v 1.60891 0.23 -0.90621
v 1.84708 0.29 -0.5
v 1.60891 0.29 -0.09379
v 0.98537 0.29 0.15726
v 0.21463 0.29 0.15726
v -0.40891 0.29 -0.09379
v -0.64708 0.29 -0.5
v -0.40891 0.29 -0.90621
v 0.21463 0.29 -1.15726
v 0.98537 0.29 -1.15726
v 1.60891 0.29 -0.90621
v 0.6 0.32 -0.5
v 0.6 0.32 -0.5
v 0.6 0.32 -0.5
v 0.6 0.32 -0.5
v 0.6 0.32 -0.5
v 0.6 0.32 -0.5
v 0.6 0.32 -0.5
v 0.6 0.32 -0.5
v 0.6 0.32 -0.5
v 0.6 0.32 -0.5
v 2.2 0.0 0.55
v 2.2 0.0 0.55
v 2.2 0.0 0.55
v 2.2 0.0 0.55
v 2.2 0.0 0.55
v 2.2 0.0 0.55
v 2.2 0.0 0.55
v 2.2 0.0 0.55
v 2.2 0.0 0.55
v 2.2 0.0 0.55
v 2.2 0.0 0.55
v 2.2 0.0 0.55
v 3.32583 0.065 0.55
v 3.175 0.065 0.93971
v 2.76292 0.065 1.225
v 2.2 0.065 1.32942
v 1.63708 0.065 1.225
v 1.225 0.065 0.93971
v 1.07417 0.065 0.55
v 1.225 0.065 0.16029
v 1.63708 0.065 -0.125
v 2.2 0.065 -0.22942
v 2.76292 0.065 -0.125
v 3.175 0.065 0.16029
v 3.32583 0.195 0.55
v 3.175 0.195 0.93971
v 2.76292 0.195 1.225
v 2.2 0.195 1.32942
v 1.63708 0.195 1.225
v 1.225 0.195 0.93971
v 1.07417 0.195 0.55
v 1.225 0.195 0.16029
v 1.63708 0.195 -0.125
v 2.2 0.195 -0.22942
v 2.76292 0.195 -0.125
v 3.175 0.195 0.16029
v 2.2 0.26 0.55
v 2.2 0.26 0.55
v 2.2 0.26 0.55
v 2.2 0.26 0.55
v 2.2 0.26 0.55
v 2.2 0.26 0.55
v 2.2 0.26 0.55
v 2.2 0.26 0.55
v 2.2 0.26 0.55
v 2.2 0.26 0.55
v 2.2 0.26 0.55
v 2.2 0.26 0.55
v 2.3 0.2 0.55
v 2.3 0.2 0.55
v 2.3 0.2 0.55
v 2.3 0.2 0.55
v 2.3 0.2 0.55
v 2.3 0.2 0.55
v 2.3 0.2 0.55
v 2.3 0.2 0.55
v 2.3 0.2 0.55
v 2.3 0.2 0.55
v 2.9755 0.23 0.55
v 2.84649 0.23 0.81114
v 2.50874 0.23 0.97253
v 2.09126 0.23 0.97253
v 1.75351 0.23 0.81114
v 1.6245 0.23 0.55
v 1.75351 0.23 0.28886
v 2.09126 0.23 0.12747
v 2.50874 0.23 0.12747
v 2.84649 0.23 0.28886
v 2.9755 0.29 0.55
v 2.84649 0.29 0.81114
v 2.50874 0.29 0.97253
v 2.09126 0.29 0.97253
v 1.75351 0.29 0.81114
v 1.6245 0.29 0.55
v 1.75351 0.29 0.28886
v 2.09126 0.29 0.12747
v 2.50874 0.29 0.12747
v 2.84649 0.29 0.28886
v 2.3 0.32 0.55
v 2.3 0.32 0.55
v 2.3 0.32 0.55
v 2.3 0.32 0.55
v 2.3 0.32 0.55
v 2.3 0.32 0.55
v 2.3 0.32 0.55
v 2.3 0.32 0.55
v 2.3 0.32 0.55
v 2.3 0.32 0.55
v -0.3 0.24 0.2
v -0.62 1.39 0.2
v -0.44645 0.24 0.55355
v -0.67272 1.39 0.32728
v -0.8 0.24 0.7
v -0.8 1.39 0.38
v -1.15355 0.24 0.55355
v -0.92728 1.39 0.32728
v -1.3 0.24 0.2
v -0.98 1.39 0.2
v -1.15355 0.24 -0.15355
v -0.92728 1.39 0.07272
v -0.8 0.24 -0.3
v -0.8 1.39 0.02
v -0.44645 0.24 -0.15355
v -0.67272 1.39 0.07272
v 1.7 0.24 -0.35
v 1.38 1.04 -0.35
v 1.55355 0.24 0.00355
v 1.32728 1.04 -0.22272
v 1.2 0.24 0.15
v 1.2 1.04 -0.17
v 0.84645 0.24 0.00355
v 1.07272 1.04 -0.22272
v 0.7 0.24 -0.35
v 1.02 1.04 -0.35
v 0.84645 0.24 -0.70355
v 1.07272 1.04 -0.47728
v 1.2 0.24 -0.85
v 1.2 1.04 -0.53
v 1.55355 0.24 -0.70355
v 1.32728 1.04 -0.47728
g plate_0
usemtl sulphur_crust
f 1 2 14 13
f 2 3 15 14
f 3 4 16 15
f 4 5 17 16
f 5 6 18 17
f 6 7 19 18
f 7 8 20 19
f 8 9 21 20
f 9 10 22 21
f 10 11 23 22
f 11 12 24 23
f 12 1 13 24
f 13 14 26 25
f 14 15 27 26
f 15 16 28 27
f 16 17 29 28
f 17 18 30 29
f 18 19 31 30
f 19 20 32 31
f 20 21 33 32
f 21 22 34 33
f 22 23 35 34
f 23 24 36 35
f 24 13 25 36
f 25 26 38 37
f 26 27 39 38
f 27 28 40 39
f 28 29 41 40
f 29 30 42 41
f 30 31 43 42
f 31 32 44 43
f 32 33 45 44
f 33 34 46 45
f 34 35 47 46
f 35 36 48 47
f 36 25 37 48
g rim_0
usemtl carbonate
f 49 50 60 59
f 50 51 61 60
f 51 52 62 61
f 52 53 63 62
f 53 54 64 63
f 54 55 65 64
f 55 56 66 65
f 56 57 67 66
f 57 58 68 67
f 58 49 59 68
f 59 60 70 69
f 60 61 71 70
f 61 62 72 71
f 62 63 73 72
f 63 64 74 73
f 64 65 75 74
f 65 66 76 75
f 66 67 77 76
f 67 68 78 77
f 68 59 69 78
f 69 70 80 79
f 70 71 81 80
f 71 72 82 81
f 72 73 83 82
f 73 74 84 83
f 74 75 85 84
f 75 76 86 85
f 76 77 87 86
f 77 78 88 87
f 78 69 79 88
g plate_1
usemtl sulphur_crust
f 89 90 102 101
f 90 91 103 102
f 91 92 104 103
f 92 93 105 104
f 93 94 106 105
f 94 95 107 106
f 95 96 108 107
f 96 97 109 108
f 97 98 110 109
f 98 99 111 110
f 99 100 112 111
f 100 89 101 112
f 101 102 114 113
f 102 103 115 114
f 103 104 116 115
f 104 105 117 116
f 105 106 118 117
f 106 107 119 118
f 107 108 120 119
f 108 109 121 120
f 109 110 122 121
f 110 111 123 122
f 111 112 124 123
f 112 101 113 124
f 113 114 126 125
f 114 115 127 126
f 115 116 128 127
f 116 117 129 128
f 117 118 130 129
f 118 119 131 130
f 119 120 132 131
f 120 121 133 132
f 121 122 134 133
f 122 123 135 134
f 123 124 136 135
f 124 113 125 136
g rim_1
usemtl carbonate
f 137 138 148 147
f 138 139 149 148
f 139 140 150 149
f 140 141 151 150
f 141 142 152 151
f 142 143 153 152
f 143 144 154 153
f 144 145 155 154
f 145 146 156 155
f 146 137 147 156
f 147 148 158 157
f 148 149 159 158
f 149 150 160 159
f 150 151 161 160
f 151 152 162 161
f 152 153 163 162
f 153 154 164 163
f 154 155 165 164
f 155 156 166 165
f 156 147 157 166
f 157 158 168 167
f 158 159 169 168
f 159 160 170 169
f 160 161 171 170
f 161 162 172 171
f 162 163 173 172
f 163 164 174 173
f 164 165 175 174
f 165 166 176 175
f 166 157 167 176
g plate_2
usemtl sulphur_crust
f 177 178 190 189
f 178 179 191 190
f 179 180 192 191
f 180 181 193 192
f 181 182 194 193
f 182 183 195 194
f 183 184 196 195
f 184 185 197 196
f 185 186 198 197
f 186 187 199 198
f 187 188 200 199
f 188 177 189 200
f 189 190 202 201
f 190 191 203 202
f 191 192 204 203
f 192 193 205 204
f 193 194 206 205
f 194 195 207 206
f 195 196 208 207
f 196 197 209 208
f 197 198 210 209
f 198 199 211 210
f 199 200 212 211
f 200 189 201 212
f 201 202 214 213
f 202 203 215 214
f 203 204 216 215
f 204 205 217 216
f 205 206 218 217
f 206 207 219 218
f 207 208 220 219
f 208 209 221 220
f 209 210 222 221
f 210 211 223 222
f 211 212 224 223
f 212 201 213 224
g rim_2
usemtl carbonate
f 225 226 236 235
f 226 227 237 236
f 227 228 238 237
f 228 229 239 238
f 229 230 240 239
f 230 231 241 240
f 231 232 242 241
f 232 233 243 242
f 233 234 244 243
f 234 225 235 244
f 235 236 246 245
f 236 237 247 246
f 237 238 248 247
f 238 239 249 248
f 239 240 250 249
f 240 241 251 250
f 241 242 252 251
f 242 243 253 252
f 243 244 254 253
f 244 235 245 254
f 245 246 256 255
f 246 247 257 256
f 247 248 258 257
f 248 249 259 258
f 249 250 260 259
f 250 251 261 260
f 251 252 262 261
f 252 253 263 262
f 253 254 264 263
f 254 245 255 264
g vent_0
usemtl sulphur
f 279 277 275 273 271 269 267 265
f 266 268 270 272 274 276 278 280
f 265 267 268 266
f 267 269 270 268
f 269 271 272 270
f 271 273 274 272
f 273 275 276 274
f 275 277 278 276
f 277 279 280 278
f 279 265 266 280
g vent_1
usemtl sulphur
f 295 293 291 289 287 285 283 281
f 282 284 286 288 290 292 294 296
f 281 283 284 282
f 283 285 286 284
f 285 287 288 286
f 287 289 290 288
f 289 291 292 290
f 291 293 294 292
f 293 295 296 294
f 295 281 282 296
