# Generated environment blockout: sulphur_vent_cluster_a
mtllib environment_blockout.mtl
o sulphur_vent_cluster_a
v 0.0 0.0 0.0
v 0.0 0.0 0.0
v 0.0 0.0 0.0
v 0.0 0.0 0.0
v -0.0 0.0 0.0
v -0.0 0.0 0.0
v -0.0 0.0 0.0
v -0.0 0.0 -0.0
v -0.0 0.0 -0.0
v -0.0 0.0 -0.0
v 0.0 0.0 -0.0
v 0.0 0.0 -0.0
v 3.18198 0.10251 0.0
v 2.75568 0.10251 1.20208
v 1.59099 0.10251 2.08207
v 0.0 0.10251 2.40416
v -1.59099 0.10251 2.08207
v -2.75568 0.10251 1.20208
v -3.18198 0.10251 0.0
v -2.75568 0.10251 -1.20208
v -1.59099 0.10251 -2.08207
v -0.0 0.10251 -2.40416
v 1.59099 0.10251 -2.08207
v 2.75568 0.10251 -1.20208
v 4.5 0.35 0.0
v 3.89711 0.35 1.7
v 2.25 0.35 2.94449
v 0.0 0.35 3.4
v -2.25 0.35 2.94449
v -3.89711 0.35 1.7
v -4.5 0.35 0.0
v -3.89711 0.35 -1.7
v -2.25 0.35 -2.94449
v -0.0 0.35 -3.4
v 2.25 0.35 -2.94449
v 3.89711 0.35 -1.7
v 3.18198 0.59749 0.0
v 2.75568 0.59749 1.20208
v 1.59099 0.59749 2.08207
v 0.0 0.59749 2.40416
v -1.59099 0.59749 2.08207
v -2.75568 0.59749 1.20208
v -3.18198 0.59749 0.0
v -2.75568 0.59749 -1.20208
v -1.59099 0.59749 -2.08207
v -0.0 0.59749 -2.40416
v 1.59099 0.59749 -2.08207
v 2.75568 0.59749 -1.20208
v 0.0 0.7 0.0
v 0.0 0.7 0.0
v 0.0 0.7 0.0
v 0.0 0.7 0.0
v -0.0 0.7 0.0
v -0.0 0.7 0.0
v -0.0 0.7 0.0
v -0.0 0.7 -0.0
v -0.0 0.7 -0.0
v -0.0 0.7 -0.0
v 0.0 0.7 -0.0
v 0.0 0.7 -0.0
v -1.75 0.2 -1.0
v -2.22 3.8 -1.0
v -1.96967 0.2 -0.46967
v -2.30201 3.8 -0.80201
v -2.5 0.2 -0.25
v -2.5 3.8 -0.72
v -3.03033 0.2 -0.46967
v -2.69799 3.8 -0.80201
v -3.25 0.2 -1.0
v -2.78 3.8 -1.0
v -3.03033 0.2 -1.53033
v -2.69799 3.8 -1.19799
v -2.5 0.2 -1.75
v -2.5 3.8 -1.28
v -1.96967 0.2 -1.53033
v -2.30201 3.8 -1.19799
v -2.5 3.88 -1.0
v -2.5 3.88 -1.0
v -2.5 3.88 -1.0
v -2.5 3.88 -1.0
v -2.5 3.88 -1.0
v -2.5 3.88 -1.0
v -2.5 3.88 -1.0
v -2.06699 4.04 -1.0
v -2.23002 4.04 -0.66146
v -2.59635 4.04 -0.57784
v -2.89013 4.04 -0.81212
v -2.89013 4.04 -1.18788
v -2.59635 4.04 -1.42216
v -2.23002 4.04 -1.33854
v -2.06699 4.36 -1.0
v -2.23002 4.36 -0.66146
v -2.59635 4.36 -0.57784
v -2.89013 4.36 -0.81212
v -2.89013 4.36 -1.18788
v -2.59635 4.36 -1.42216
v -2.23002 4.36 -1.33854
v -2.5 4.52 -1.0
v -2.5 4.52 -1.0
v -2.5 4.52 -1.0
v -2.5 4.52 -1.0
v -2.5 4.52 -1.0
v -2.5 4.52 -1.0
v -2.5 4.52 -1.0
v 0.2 0.2 1.1
v -0.52 5.4 1.1
v -0.09289 0.2 1.80711
v -0.60201 5.4 1.29799
v -0.8 0.2 2.1
v -0.8 5.4 1.38
v -1.50711 0.2 1.80711
v -0.99799 5.4 1.29799
v -1.8 0.2 1.1
v -1.08 5.4 1.1
v -1.50711 0.2 0.39289
v -0.99799 5.4 0.90201
v -0.8 0.2 0.1
v -0.8 5.4 0.82
v -0.09289 0.2 0.39289
v -0.60201 5.4 0.90201
v -0.8 5.48 1.1
v -0.8 5.48 1.1
v -0.8 5.48 1.1
v -0.8 5.48 1.1
v -0.8 5.48 1.1
v -0.8 5.48 1.1
v -0.8 5.48 1.1
v -0.36699 5.64 1.1
v -0.53002 5.64 1.43854
v -0.89635 5.64 1.52216
v -1.19013 5.64 1.28788
v -1.19013 5.64 0.91212
v -0.89635 5.64 0.67784
v -0.53002 5.64 0.76146
v -0.36699 5.96 1.1
v -0.53002 5.96 1.43854
v -0.89635 5.96 1.52216
v -1.19013 5.96 1.28788
v -1.19013 5.96 0.91212
v -0.89635 5.96 0.67784
v -0.53002 5.96 0.76146
v -0.8 6.12 1.1
v -0.8 6.12 1.1
v -0.8 6.12 1.1
v -0.8 6.12 1.1
v -0.8 6.12 1.1
v -0.8 6.12 1.1
v -0.8 6.12 1.1
v 1.95 0.2 -0.8
v 1.38 4.5 -0.8
v 1.70104 0.2 -0.19896
v 1.29799 4.5 -0.60201
v 1.1 0.2 0.05
v 1.1 4.5 -0.52
v 0.49896 0.2 -0.19896
v 0.90201 4.5 -0.60201
v 0.25 0.2 -0.8
v 0.82 4.5 -0.8
v 0.49896 0.2 -1.40104
v 0.90201 4.5 -0.99799
v 1.1 0.2 -1.65
v 1.1 4.5 -1.08
v 1.70104 0.2 -1.40104
v 1.29799 4.5 -0.99799
v 1.1 4.58 -0.8
v 1.1 4.58 -0.8
v 1.1 4.58 -0.8
v 1.1 4.58 -0.8
v 1.1 4.58 -0.8
v 1.1 4.58 -0.8
v 1.1 4.58 -0.8
v 1.53301 4.74 -0.8
v 1.36998 4.74 -0.46146
v 1.00365 4.74 -0.37784
v 0.70987 4.74 -0.61212
v 0.70987 4.74 -0.98788
v 1.00365 4.74 -1.22216
v 1.36998 4.74 -1.13854
v 1.53301 5.06 -0.8
v 1.36998 5.06 -0.46146
v 1.00365 5.06 -0.37784
v 0.70987 5.06 -0.61212
v 0.70987 5.06 -0.98788
v 1.00365 5.06 -1.22216
v 1.36998 5.06 -1.13854
v 1.1 5.22 -0.8
v 1.1 5.22 -0.8
v 1.1 5.22 -0.8
v 1.1 5.22 -0.8
v 1.1 5.22 -0.8
v 1.1 5.22 -0.8
v 1.1 5.22 -0.8
v 3.35 0.2 1.0
v 2.98 3.3 1.0
v 3.15962 0.2 1.45962
v 2.89799 3.3 1.19799
v 2.7 0.2 1.65
v 2.7 3.3 1.28
v 2.24038 0.2 1.45962
v 2.50201 3.3 1.19799
v 2.05 0.2 1.0
v 2.42 3.3 1.0
v 2.24038 0.2 0.54038
v 2.50201 3.3 0.80201
v 2.7 0.2 0.35
v 2.7 3.3 0.72
v 3.15962 0.2 0.54038
v 2.89799 3.3 0.80201
v 2.7 3.38 1.0
v 2.7 3.38 1.0
v 2.7 3.38 1.0
v 2.7 3.38 1.0
v 2.7 3.38 1.0
v 2.7 3.38 1.0
v 2.7 3.38 1.0
v 3.13301 3.54 1.0
v 2.96998 3.54 1.33854
v 2.60365 3.54 1.42216
v 2.30987 3.54 1.18788
v 2.30987 3.54 0.81212
v 2.60365 3.54 0.57784
v 2.96998 3.54 0.66146
v 3.13301 3.86 1.0
v 2.96998 3.86 1.33854
v 2.60365 3.86 1.42216
v 2.30987 3.86 1.18788
v 2.30987 3.86 0.81212
v 2.60365 3.86 0.57784
v 2.96998 3.86 0.66146
v 2.7 4.02 1.0
v 2.7 4.02 1.0
v 2.7 4.02 1.0
v 2.7 4.02 1.0
v 2.7 4.02 1.0
v 2.7 4.02 1.0
v 2.7 4.02 1.0
g vent_bed
usemtl rock
f 1 2 14 13
f 2 3 15 14
f 3 4 16 15
f 4 5 17 16
f 5 6 18 17
f 6 7 19 18
f 7 8 20 19
f 8 9 21 20
f 9 10 22 21
f 10 11 23 22
f 11 12 24 23
f 12 1 13 24
f 13 14 26 25
f 14 15 27 26
f 15 16 28 27
f 16 17 29 28
f 17 18 30 29
f 18 19 31 30
f 19 20 32 31
f 20 21 33 32
f 21 22 34 33
f 22 23 35 34
f 23 24 36 35
f 24 13 25 36
f 25 26 38 37
f 26 27 39 38
f 27 28 40 39
f 28 29 41 40
f 29 30 42 41
f 30 31 43 42
f 31 32 44 43
f 32 33 45 44
f 33 34 46 45
f 34 35 47 46
f 35 36 48 47
f 36 25 37 48
f 37 38 50 49
f 38 39 51 50
f 39 40 52 51
f 40 41 53 52
f 41 42 54 53
f 42 43 55 54
f 43 44 56 55
f 44 45 57 56
f 45 46 58 57
f 46 47 59 58
f 47 48 60 59
f 48 37 49 60
g vent_0
usemtl sulphur
f 75 73 71 69 67 65 63 61
f 62 64 66 68 70 72 74 76
f 61 63 64 62
f 63 65 66 64
f 65 67 68 66
f 67 69 70 68
f 69 71 72 70
f 71 73 74 72
f 73 75 76 74
f 75 61 62 76
g vent_crown_0
usemtl carbonate
f 77 78 85 84
f 78 79 86 85
f 79 80 87 86
f 80 81 88 87
f 81 82 89 88
f 82 83 90 89
f 83 77 84 90
f 84 85 92 91
f 85 86 93 92
f 86 87 94 93
f 87 88 95 94
f 88 89 96 95
f 89 90 97 96
f 90 84 91 97
f 91 92 99 98
f 92 93 100 99
f 93 94 101 100
f 94 95 102 101
f 95 96 103 102
f 96 97 104 103
f 97 91 98 104
g vent_1
usemtl sulphur
f 119 117 115 113 111 109 107 105
f 106 108 110 112 114 116 118 120
f 105 107 108 106
f 107 109 110 108
f 109 111 112 110
f 111 113 114 112
f 113 115 116 114
f 115 117 118 116
f 117 119 120 118
f 119 105 106 120
g vent_crown_1
usemtl carbonate
f 121 122 129 128
f 122 123 130 129
f 123 124 131 130
f 124 125 132 131
f 125 126 133 132
f 126 127 134 133
f 127 121 128 134
f 128 129 136 135
f 129 130 137 136
f 130 131 138 137
f 131 132 139 138
f 132 133 140 139
f 133 134 141 140
f 134 128 135 141
f 135 136 143 142
f 136 137 144 143
f 137 138 145 144
f 138 139 146 145
f 139 140 147 146
f 140 141 148 147
f 141 135 142 148
g vent_2
usemtl sulphur
f 163 161 159 157 155 153 151 149
f 150 152 154 156 158 160 162 164
f 149 151 152 150
f 151 153 154 152
f 153 155 156 154
f 155 157 158 156
f 157 159 160 158
f 159 161 162 160
f 161 163 164 162
f 163 149 150 164
g vent_crown_2
usemtl carbonate
f 165 166 173 172
f 166 167 174 173
f 167 168 175 174
f 168 169 176 175
f 169 170 177 176
f 170 171 178 177
f 171 165 172 178
f 172 173 180 179
f 173 174 181 180
f 174 175 182 181
f 175 176 183 182
f 176 177 184 183
f 177 178 185 184
f 178 172 179 185
f 179 180 187 186
f 180 181 188 187
f 181 182 189 188
f 182 183 190 189
f 183 184 191 190
f 184 185 192 191
f 185 179 186 192
g vent_3
usemtl sulphur
f 207 205 203 201 199 197 195 193
f 194 196 198 200 202 204 206 208
f 193 195 196 194
f 195 197 198 196
f 197 199 200 198
f 199 201 202 200
f 201 203 204 202
f 203 205 206 204
f 205 207 208 206
f 207 193 194 208
g vent_crown_3
usemtl carbonate
f 209 210 217 216
f 210 211 218 217
f 211 212 219 218
f 212 213 220 219
f 213 214 221 220
f 214 215 222 221
f 215 209 216 222
f 216 217 224 223
f 217 218 225 224
f 218 219 226 225
f 219 220 227 226
f 220 221 228 227
f 221 222 229 228
f 222 216 223 229
f 223 224 231 230
f 224 225 232 231
f 225 226 233 232
f 226 227 234 233
f 227 228 235 234
f 228 229 236 235
f 229 223 230 236
