# Generated environment blockout: terrain_sand_tile_a
mtllib environment_blockout.mtl
o terrain_sand_tile_a
v -4.0 0.0 -4.0
v -3.0 0.0 -4.0
v -2.0 0.0 -4.0
v -1.0 0.0 -4.0
v 0.0 0.0 -4.0
v 1.0 0.0 -4.0
v 2.0 0.0 -4.0
v 3.0 0.0 -4.0
v 4.0 0.0 -4.0
v -4.0 0.0 -3.0
v -3.0 0.04433 -3.0
v -2.0 0.03272 -3.0
v -1.0 0.05342 -3.0
v 0.0 0.08381 -3.0
v 1.0 0.09068 -3.0
v 2.0 0.06652 -3.0
v 3.0 0.03774 -3.0
v 4.0 0.0 -3.0
v -4.0 0.0 -2.0
v -3.0 0.02644 -2.0
v -2.0 0.02224 -2.0
v -1.0 0.05329 -2.0
v 0.0 0.09887 -2.0
v 1.0 0.10917 -2.0
v 2.0 0.07294 -2.0
v 3.0 0.01984 -2.0
v 4.0 0.0 -2.0
v -4.0 0.0 -1.0
v -3.0 0.03292 -1.0
v -2.0 0.03197 -1.0
v -1.0 0.06302 -1.0
v 0.0 0.1086 -1.0
v 1.0 0.1189 -1.0
v 2.0 0.08267 -1.0
v 3.0 0.02633 -1.0
v 4.0 0.0 -1.0
v -4.0 0.0 0.0
v -3.0 0.05366 0.0
v -2.0 0.06307 0.0
v -1.0 0.09412 0.0
v 0.0 0.1397 0.0
v 1.0 0.15 0.0
v 2.0 0.11377 0.0
v 3.0 0.04706 0.0
v 4.0 0.0 0.0
v -4.0 0.0 1.0
v -3.0 0.05625 1.0
v -2.0 0.06697 1.0
v -1.0 0.09801 1.0
v 0.0 0.14359 1.0
v 1.0 0.1539 1.0
v 2.0 0.11766 1.0
v 3.0 0.04966 1.0
v 4.0 0.0 1.0
v -4.0 0.0 2.0
v -3.0 0.03666 2.0
v -2.0 0.03757 2.0
v -1.0 0.06862 2.0
v 0.0 0.1142 2.0
v 1.0 0.1245 2.0
v 2.0 0.08827 2.0
v 3.0 0.03006 2.0
v 4.0 0.0 2.0
v -4.0 0.0 3.0
v -3.0 0.02548 3.0
v -2.0 0.01387 3.0
v -1.0 0.03457 3.0
v 0.0 0.06495 3.0
v 1.0 0.07182 3.0
v 2.0 0.04766 3.0
v 3.0 0.01888 3.0
v 4.0 0.0 3.0
v -4.0 0.0 4.0
v -3.0 0.0 4.0
v -2.0 0.0 4.0
v -1.0 0.0 4.0
v 0.0 0.0 4.0
v 1.0 0.0 4.0
v 2.0 0.0 4.0
v 3.0 0.0 4.0
v 4.0 0.0 4.0
g surface
usemtl sand
f 1 2 11 10
f 2 3 12 11
f 3 4 13 12
f 4 5 14 13
f 5 6 15 14
f 6 7 16 15
f 7 8 17 16
f 8 9 18 17
f 10 11 20 19
f 11 12 21 20
f 12 13 22 21
f 13 14 23 22
f 14 15 24 23
f 15 16 25 24
f 16 17 26 25
f 17 18 27 26
f 19 20 29 28
f 20 21 30 29
f 21 22 31 30
f 22 23 32 31
f 23 24 33 32
f 24 25 34 33
f 25 26 35 34
f 26 27 36 35
f 28 29 38 37
f 29 30 39 38
f 30 31 40 39
f 31 32 41 40
f 32 33 42 41
f 33 34 43 42
f 34 35 44 43
f 35 36 45 44
f 37 38 47 46
f 38 39 48 47
f 39 40 49 48
f 40 41 50 49
f 41 42 51 50
f 42 43 52 51
f 43 44 53 52
f 44 45 54 53
f 46 47 56 55
f 47 48 57 56
f 48 49 58 57
f 49 50 59 58
f 50 51 60 59
f 51 52 61 60
f 52 53 62 61
f 53 54 63 62
f 55 56 65 64
f 56 57 66 65
f 57 58 67 66
f 58 59 68 67
f 59 60 69 68
f 60 61 70 69
f 61 62 71 70
f 62 63 72 71
f 64 65 74 73
f 65 66 75 74
f 66 67 76 75
f 67 68 77 76
f 68 69 78 77
f 69 70 79 78
f 70 71 80 79
f 71 72 81 80
