# Generated environment blockout: vegetation_mat_b
mtllib environment_blockout.mtl
o vegetation_mat_b
v -2.2 0.0 -0.7
v -2.2 0.0 -0.7
v -2.2 0.0 -0.7
v -2.2 0.0 -0.7
v -2.2 0.0 -0.7
v -2.2 0.0 -0.7
v -2.2 0.0 -0.7
v -2.2 0.0 -0.7
v -2.2 0.0 -0.7
v -2.2 0.0 -0.7
v -2.2 0.0 -0.7
v -2.2 0.0 -0.7
v 0.05167 0.04 -0.7
v -0.25 0.04 0.03612
v -1.07417 0.04 0.575
v -2.2 0.04 0.77224
v -3.32583 0.04 0.575
v -4.15 0.04 0.03612
v -4.45167 0.04 -0.7
v -4.15 0.04 -1.43612
v -3.32583 0.04 -1.975
v -2.2 0.04 -2.17224
v -1.07417 0.04 -1.975
v -0.25 0.04 -1.43612
v 0.05167 0.12 -0.7
v -0.25 0.12 0.03612
v -1.07417 0.12 0.575
v -2.2 0.12 0.77224
v -3.32583 0.12 0.575
v -4.15 0.12 0.03612
v -4.45167 0.12 -0.7
v -4.15 0.12 -1.43612
v -3.32583 0.12 -1.975
v -2.2 0.12 -2.17224
v -1.07417 0.12 -1.975
v -0.25 0.12 -1.43612
v -2.2 0.16 -0.7
v -2.2 0.16 -0.7
v -2.2 0.16 -0.7
v -2.2 0.16 -0.7
v -2.2 0.16 -0.7
v -2.2 0.16 -0.7
v -2.2 0.16 -0.7
v -2.2 0.16 -0.7
v -2.2 0.16 -0.7
v -2.2 0.16 -0.7
v -2.2 0.16 -0.7
v -2.2 0.16 -0.7
v 1.0 0.0 0.3
v 1.0 0.0 0.3
v 1.0 0.0 0.3
v 1.0 0.0 0.3
v 1.0 0.0 0.3
v 1.0 0.0 0.3
v 1.0 0.0 0.3
v 1.0 0.0 0.3
v 1.0 0.0 0.3
v 1.0 0.0 0.3
v 1.0 0.0 0.3
v 1.0 0.0 0.3
v 3.59808 0.04 0.3
v 3.25 0.04 1.12272
v 2.29904 0.04 1.725
v 1.0 0.04 1.94545
v -0.29904 0.04 1.725
v -1.25 0.04 1.12272
v -1.59808 0.04 0.3
v -1.25 0.04 -0.52272
v -0.29904 0.04 -1.125
v 1.0 0.04 -1.34545
v 2.29904 0.04 -1.125
v 3.25 0.04 -0.52272
v 3.59808 0.12 0.3
v 3.25 0.12 1.12272
v 2.29904 0.12 1.725
v 1.0 0.12 1.94545
v -0.29904 0.12 1.725
v -1.25 0.12 1.12272
v -1.59808 0.12 0.3
v -1.25 0.12 -0.52272
v -0.29904 0.12 -1.125
v 1.0 0.12 -1.34545
v 2.29904 0.12 -1.125
v 3.25 0.12 -0.52272
v 1.0 0.16 0.3
v 1.0 0.16 0.3
v 1.0 0.16 0.3
v 1.0 0.16 0.3
v 1.0 0.16 0.3
v 1.0 0.16 0.3
v 1.0 0.16 0.3
v 1.0 0.16 0.3
v 1.0 0.16 0.3
v 1.0 0.16 0.3
v 1.0 0.16 0.3
v 1.0 0.16 0.3
v 2.6 0.0 -1.1
v 2.6 0.0 -1.1
v 2.6 0.0 -1.1
v 2.6 0.0 -1.1
v 2.6 0.0 -1.1
v 2.6 0.0 -1.1
v 2.6 0.0 -1.1
v 2.6 0.0 -1.1
v 2.6 0.0 -1.1
v 2.6 0.0 -1.1
v 2.6 0.0 -1.1
v 2.6 0.0 -1.1
v 4.24545 0.04 -1.1
v 4.025 0.04 -0.53708
v 3.42272 0.04 -0.125
v 2.6 0.04 0.02583
v 1.77728 0.04 -0.125
v 1.175 0.04 -0.53708
v 0.95455 0.04 -1.1
v 1.175 0.04 -1.66292
v 1.77728 0.04 -2.075
v 2.6 0.04 -2.22583
v 3.42272 0.04 -2.075
v 4.025 0.04 -1.66292
v 4.24545 0.12 -1.1
v 4.025 0.12 -0.53708
v 3.42272 0.12 -0.125
v 2.6 0.12 0.02583
v 1.77728 0.12 -0.125
v 1.175 0.12 -0.53708
v 0.95455 0.12 -1.1
v 1.175 0.12 -1.66292
v 1.77728 0.12 -2.075
v 2.6 0.12 -2.22583
v 3.42272 0.12 -2.075
v 4.025 0.12 -1.66292
v 2.6 0.16 -1.1
v 2.6 0.16 -1.1
v 2.6 0.16 -1.1
v 2.6 0.16 -1.1
v 2.6 0.16 -1.1
v 2.6 0.16 -1.1
v 2.6 0.16 -1.1
v 2.6 0.16 -1.1
v 2.6 0.16 -1.1
v 2.6 0.16 -1.1
v 2.6 0.16 -1.1
v 2.6 0.16 -1.1
v -0.3 0.0 1.7
v -0.3 0.0 1.7
v -0.3 0.0 1.7
v -0.3 0.0 1.7
v -0.3 0.0 1.7
v -0.3 0.0 1.7
v -0.3 0.0 1.7
v -0.3 0.0 1.7
v -0.3 0.0 1.7
v -0.3 0.0 1.7
v -0.3 0.0 1.7
v -0.3 0.0 1.7
v 1.77846 0.04 1.7
v 1.5 0.04 2.17631
v 0.73923 0.04 2.525
v -0.3 0.04 2.65263
v -1.33923 0.04 2.525
v -2.1 0.04 2.17631
v -2.37846 0.04 1.7
v -2.1 0.04 1.22369
v -1.33923 0.04 0.875
v -0.3 0.04 0.74737
v 0.73923 0.04 0.875
v 1.5 0.04 1.22369
v 1.77846 0.12 1.7
v 1.5 0.12 2.17631
v 0.73923 0.12 2.525
v -0.3 0.12 2.65263
v -1.33923 0.12 2.525
v -2.1 0.12 2.17631
v -2.37846 0.12 1.7
v -2.1 0.12 1.22369
v -1.33923 0.12 0.875
v -0.3 0.12 0.74737
v 0.73923 0.12 0.875
v 1.5 0.12 1.22369
v -0.3 0.16 1.7
v -0.3 0.16 1.7
v -0.3 0.16 1.7
v -0.3 0.16 1.7
v -0.3 0.16 1.7
v -0.3 0.16 1.7
v -0.3 0.16 1.7
v -0.3 0.16 1.7
v -0.3 0.16 1.7
v -0.3 0.16 1.7
v -0.3 0.16 1.7
v -0.3 0.16 1.7
v -0.30154 0.06 0.54325
v -0.36899 0.65 0.83235
v -0.27198 0.02302 0.62561
v -0.33943 0.61302 0.91471
v -0.17947 0.02302 0.6472
v -0.24691 0.61302 0.93629
v -0.11651 0.06 0.58642
v -0.18396 0.65 0.87551
v -0.14607 0.09698 0.50405
v -0.21352 0.68698 0.79315
v -0.23859 0.09698 0.48247
v -0.30603 0.68698 0.77157
v -0.27647 0.57 0.85393
v -0.27647 0.57 0.85393
v -0.27647 0.57 0.85393
v -0.27647 0.57 0.85393
v -0.27647 0.57 0.85393
v -0.27647 0.57 0.85393
v -0.27647 0.57 0.85393
v -0.08595 0.635 0.85393
v -0.15768 0.635 1.00289
v -0.31887 0.635 1.03968
v -0.44813 0.635 0.9366
v -0.44813 0.635 0.77126
v -0.31887 0.635 0.66818
v -0.15768 0.635 0.70497
v -0.08595 0.765 0.85393
v -0.15768 0.765 1.00289
v -0.31887 0.765 1.03968
v -0.44813 0.765 0.9366
v -0.44813 0.765 0.77126
v -0.31887 0.765 0.66818
v -0.15768 0.765 0.70497
v -0.27647 0.83 0.85393
v -0.27647 0.83 0.85393
v -0.27647 0.83 0.85393
v -0.27647 0.83 0.85393
v -0.27647 0.83 0.85393
v -0.27647 0.83 0.85393
v -0.27647 0.83 0.85393
v -1.30582 0.05351 -1.52981
v -1.37355 1.34351 -1.64994
v -1.36636 0.0536 -1.49467
v -1.43409 1.3436 -1.6148
v -1.36636 0.06009 -1.42497
v -1.43409 1.35009 -1.5451
v -1.30582 0.06649 -1.39041
v -1.37355 1.35649 -1.51054
v -1.24528 0.0664 -1.42556
v -1.31301 1.3564 -1.54568
v -1.24528 0.05991 -1.49526
v -1.31301 1.34991 -1.61538
v 4.18147 0.0622 0.78848
v 4.25182 0.7922 0.81139
v 4.12113 0.06691 0.82365
v 4.19148 0.79691 0.84656
v 4.12113 0.06471 0.89361
v 4.19148 0.79471 0.91652
v 4.18147 0.0578 0.92841
v 4.25182 0.7878 0.95132
v 4.24182 0.05309 0.89325
v 4.31217 0.78309 0.91616
v 4.24182 0.05529 0.82328
v 4.31217 0.78529 0.84619
v -2.1932 0.06505 0.56059
v -2.42014 1.49505 0.66406
v -2.25307 0.05307 0.59481
v -2.48001 1.48307 0.69828
v -2.25307 0.04802 0.66463
v -2.48001 1.47802 0.7681
v -2.1932 0.05495 0.70022
v -2.42014 1.48495 0.80369
v -2.13332 0.06693 0.666
v -2.36026 1.49693 0.76947
v -2.13332 0.07198 0.59618
v -2.36026 1.50198 0.69965
v -2.42014 1.41 0.73387
v -2.42014 1.41 0.73387
v -2.42014 1.41 0.73387
v -2.42014 1.41 0.73387
v -2.42014 1.41 0.73387
v -2.42014 1.41 0.73387
v -2.42014 1.41 0.73387
v -2.22961 1.475 0.73387
v -2.30135 1.475 0.88283
v -2.46253 1.475 0.91962
v -2.59179 1.475 0.81654
v -2.59179 1.475 0.65121
v -2.46253 1.475 0.54813
v -2.30135 1.475 0.58492
v -2.22961 1.605 0.73387
v -2.30135 1.605 0.88283
v -2.46253 1.605 0.91962
v -2.59179 1.605 0.81654
v -2.59179 1.605 0.65121
v -2.46253 1.605 0.54813
v -2.30135 1.605 0.58492
v -2.42014 1.67 0.73387
v -2.42014 1.67 0.73387
v -2.42014 1.67 0.73387
v -2.42014 1.67 0.73387
v -2.42014 1.67 0.73387
v -2.42014 1.67 0.73387
v -2.42014 1.67 0.73387
v 1.6174 0.03406 -2.50027
v 1.72192 0.90406 -2.74719
v 1.53567 0.05612 -2.45715
v 1.64019 0.92612 -2.70407
v 1.53567 0.08206 -2.36576
v 1.64019 0.95206 -2.61268
v 1.6174 0.08594 -2.31749
v 1.72192 0.95594 -2.5644
v 1.69913 0.06388 -2.3606
v 1.80365 0.93388 -2.60752
v 1.69913 0.03794 -2.45199
v 1.80365 0.90794 -2.69891
v 1.60281 0.5115 -2.36631
v 1.95281 0.7254 -2.24631
v 1.63315 0.47445 -2.38878
v 1.98315 0.68835 -2.26878
v 1.64173 0.4886 -2.43902
v 1.99173 0.7025 -2.31902
v 1.61669 0.5344 -2.44761
v 1.96669 0.7483 -2.32761
v 1.59263 0.54855 -2.40267
v 1.94263 0.76245 -2.28267
v 0.72541 0.06369 1.21408
v 0.7549 1.63369 1.29687
v 0.6648 0.06298 1.2491
v 0.69429 1.63298 1.33188
v 0.6648 0.05929 1.319
v 0.69429 1.62929 1.40178
v 0.72541 0.05631 1.35389
v 0.7549 1.62631 1.43667
v 0.78603 0.05702 1.31888
v 0.81551 1.62702 1.40166
v 0.78603 0.06071 1.24898
v 0.81551 1.63071 1.33176
v -3.44905 0.05626 -1.21865
v -3.55128 1.06626 -1.27266
v -3.50937 0.05204 -1.18338
v -3.61159 1.06204 -1.23738
v -3.50937 0.05578 -1.11348
v -3.61159 1.06578 -1.16748
v -3.44905 0.06374 -1.07885
v -3.55128 1.07374 -1.13286
v -3.38874 0.06796 -1.11413
v -3.49096 1.07796 -1.16813
v -3.38874 0.06422 -1.18403
v -3.49096 1.07422 -1.23803
v -3.55128 0.99 -1.20276
v -3.55128 0.99 -1.20276
v -3.55128 0.99 -1.20276
v -3.55128 0.99 -1.20276
v -3.55128 0.99 -1.20276
v -3.55128 0.99 -1.20276
v -3.55128 0.99 -1.20276
v -3.36075 1.055 -1.20276
v -3.43248 1.055 -1.0538
v -3.59367 1.055 -1.01701
v -3.72293 1.055 -1.12009
v -3.72293 1.055 -1.28543
v -3.59367 1.055 -1.38851
v -3.43248 1.055 -1.35172
v -3.36075 1.185 -1.20276
v -3.43248 1.185 -1.0538
v -3.59367 1.185 -1.01701
v -3.72293 1.185 -1.12009
v -3.72293 1.185 -1.28543
v -3.59367 1.185 -1.38851
v -3.43248 1.185 -1.35172
v -3.55128 1.25 -1.20276
v -3.55128 1.25 -1.20276
v -3.55128 1.25 -1.20276
v -3.55128 1.25 -1.20276
v -3.55128 1.25 -1.20276
v -3.55128 1.25 -1.20276
v -3.55128 1.25 -1.20276
v 1.85097 0.057 -0.37606
v 2.13023 1.767 -0.44932
v 1.79114 0.06826 -0.34151
v 2.0704 1.77826 -0.41477
v 1.79114 0.07125 -0.27157
v 2.0704 1.78125 -0.34484
v 1.85097 0.063 -0.23619
v 2.13023 1.773 -0.30945
v 1.9108 0.05174 -0.27074
v 2.19006 1.76174 -0.344
v 1.9108 0.04875 -0.34067
v 2.19006 1.75875 -0.41394
v -1.97602 0.07485 1.84268
v -2.09308 1.22485 2.02465
v -2.05788 0.05929 1.88831
v -2.17494 1.20929 2.07028
v -2.05788 0.04445 1.98214
v -2.17494 1.19445 2.16411
v -1.97602 0.04515 2.03034
v -2.09308 1.19515 2.21232
v -1.89416 0.06071 1.98471
v -2.01122 1.21071 2.16669
v -1.89416 0.07555 1.89088
v -2.01122 1.22555 2.07285
v -1.99061 0.6655 1.97908
v -1.64061 0.9438 2.09908
v -1.95619 0.6313 1.95801
v -1.60619 0.9096 2.07801
v -1.94917 0.64436 1.90723
v -1.59917 0.92266 2.02723
v -1.97925 0.68664 1.89692
v -1.62925 0.96494 2.01692
v -2.00486 0.6997 1.94132
v -1.65486 0.978 2.06132
v -0.28327 0.0528 -1.10413
v -0.29381 0.6428 -1.16514
v -0.34389 0.05533 -1.0692
v -0.35442 0.64533 -1.13021
v -0.34389 0.06253 -0.99957
v -0.35442 0.65253 -1.06058
v -0.28327 0.0672 -0.96487
v -0.29381 0.6572 -1.02588
v -0.22266 0.06467 -0.99979
v -0.23319 0.65467 -1.0608
v -0.22266 0.05747 -1.06942
v -0.23319 0.64747 -1.13043
v -0.29381 0.57 -1.09551
v -0.29381 0.57 -1.09551
v -0.29381 0.57 -1.09551
v -0.29381 0.57 -1.09551
v -0.29381 0.57 -1.09551
v -0.29381 0.57 -1.09551
v -0.29381 0.57 -1.09551
v -0.10328 0.635 -1.09551
v -0.17501 0.635 -0.94655
v -0.3362 0.635 -0.90976
v -0.46546 0.635 -1.01284
v -0.46546 0.635 -1.17817
v -0.3362 0.635 -1.28126
v -0.17501 0.635 -1.24447
v -0.10328 0.765 -1.09551
v -0.17501 0.765 -0.94655
v -0.3362 0.765 -0.90976
v -0.46546 0.765 -1.01284
v -0.46546 0.765 -1.17817
v -0.3362 0.765 -1.28126
v -0.17501 0.765 -1.24447
v -0.29381 0.83 -1.09551
v -0.29381 0.83 -1.09551
v -0.29381 0.83 -1.09551
v -0.29381 0.83 -1.09551
v -0.29381 0.83 -1.09551
v -0.29381 0.83 -1.09551
v -0.29381 0.83 -1.09551
v 2.69484 0.06575 1.24133
v 2.83264 1.35575 1.34767
v 2.63456 0.06927 1.27674
v 2.77236 1.35927 1.38308
v 2.63456 0.06352 1.34651
v 2.77236 1.35352 1.45284
v 2.69484 0.05425 1.38086
v 2.83264 1.34425 1.4872
v 2.75513 0.05073 1.34545
v 2.89292 1.34073 1.45179
v 2.75513 0.05648 1.27569
v 2.89292 1.34648 1.38203
v -1.41164 0.06245 0.00617
v -1.71017 0.79245 0.03171
v -1.46776 0.0383 0.04035
v -1.76629 0.7683 0.06588
v -1.46776 0.03586 0.1103
v -1.76629 0.76586 0.13584
v -1.41164 0.05755 0.14608
v -1.71017 0.78755 0.17162
v -1.35553 0.0817 0.11191
v -1.65406 0.8117 0.13744
v -1.35553 0.08414 0.04195
v -1.65406 0.81414 0.06749
v 2.13446 0.05243 -1.55995
v 2.23939 1.48243 -1.6742
v 2.05241 0.0622 -1.51308
v 2.15733 1.4922 -1.62733
v 2.05241 0.06977 -1.41838
v 2.15733 1.49977 -1.53263
v 2.13446 0.06757 -1.37056
v 2.23939 1.49757 -1.48481
v 2.21651 0.0578 -1.41743
v 2.32144 1.4878 -1.53168
v 2.21651 0.05023 -1.51212
v 2.32144 1.48023 -1.62638
v 2.23939 1.41 -1.5795
v 2.23939 1.41 -1.5795
v 2.23939 1.41 -1.5795
v 2.23939 1.41 -1.5795
v 2.23939 1.41 -1.5795
v 2.23939 1.41 -1.5795
v 2.23939 1.41 -1.5795
v 2.42991 1.475 -1.5795
v 2.35818 1.475 -1.43055
v 2.19699 1.475 -1.39376
v 2.06773 1.475 -1.49684
v 2.06773 1.475 -1.66217
v 2.19699 1.475 -1.76525
v 2.35818 1.475 -1.72846
v 2.42991 1.605 -1.5795
v 2.35818 1.605 -1.43055
v 2.19699 1.605 -1.39376
v 2.06773 1.605 -1.49684
v 2.06773 1.605 -1.66217
v 2.19699 1.605 -1.76525
v 2.35818 1.605 -1.72846
v 2.23939 1.67 -1.5795
v 2.23939 1.67 -1.5795
v 2.23939 1.67 -1.5795
v 2.23939 1.67 -1.5795
v 2.23939 1.67 -1.5795
v 2.23939 1.67 -1.5795
v 2.23939 1.67 -1.5795
v -0.00032 0.06536 0.66681
v -0.00034 0.93536 0.7336
v -0.06095 0.06268 0.7017
v -0.06096 0.93268 0.76849
v -0.06095 0.05732 0.7715
v -0.06096 0.92732 0.83829
v -0.00032 0.05464 0.80639
v -0.00034 0.92464 0.87319
v 0.0603 0.05732 0.7715
v 0.06028 0.92732 0.83829
v 0.0603 0.06268 0.7017
v 0.06028 0.93268 0.76849
v -1.96526 0.05236 -1.42018
v -2.12347 1.62236 -1.59266
v -2.02558 0.05017 -1.38473
v -2.18379 1.62017 -1.55721
v -2.02558 0.05782 -1.31515
v -2.18379 1.62782 -1.48762
v -1.96526 0.06764 -1.28102
v -2.12347 1.63764 -1.45349
v -1.90494 0.06983 -1.31647
v -2.06315 1.63983 -1.48894
v -1.90494 0.06218 -1.38605
v -2.06315 1.63218 -1.55853
v 0.91661 0.06166 -0.02023
v 1.19486 1.07166 0.00373
v 0.85816 0.07692 0.01515
v 1.13641 1.08692 0.0391
v 0.85816 0.07526 0.08513
v 1.13641 1.08526 0.10908
v 0.91661 0.05834 0.11973
v 1.19486 1.06834 0.14369
v 0.97505 0.04308 0.08436
v 1.2533 1.05308 0.10832
v 0.97505 0.04474 0.01438
v 1.2533 1.05474 0.03834
v 1.19486 0.99 0.07371
v 1.19486 0.99 0.07371
v 1.19486 0.99 0.07371
v 1.19486 0.99 0.07371
v 1.19486 0.99 0.07371
v 1.19486 0.99 0.07371
v 1.19486 0.99 0.07371
v 1.38538 1.055 0.07371
v 1.31365 1.055 0.22267
v 1.15246 1.055 0.25946
v 1.0232 1.055 0.15638
v 1.0232 1.055 -0.00895
v 1.15246 1.055 -0.11204
v 1.31365 1.055 -0.07525
v 1.38538 1.185 0.07371
v 1.31365 1.185 0.22267
v 1.15246 1.185 0.25946
v 1.0232 1.185 0.15638
v 1.0232 1.185 -0.00895
v 1.15246 1.185 -0.11204
v 1.31365 1.185 -0.07525
v 1.19486 1.25 0.07371
v 1.19486 1.25 0.07371
v 1.19486 1.25 0.07371
v 1.19486 1.25 0.07371
v 1.19486 1.25 0.07371
v 1.19486 1.25 0.07371
v 1.19486 1.25 0.07371
v -2.10579 0.0634 0.9284
v -2.18528 1.7734 0.98967
v -2.18798 0.05789 0.97573
v -2.26746 1.76789 1.037
v -2.18798 0.05448 1.07067
v -2.26746 1.76448 1.13194
v -2.10579 0.0566 1.11828
v -2.18528 1.7666 1.17955
v -2.02361 0.06211 1.07094
v -2.1031 1.77211 1.13222
v -2.02361 0.06552 0.976
v -2.1031 1.77552 1.03728
v -2.12039 0.9735 1.0659
v -1.77039 1.3806 1.1859
v -2.08034 0.94472 1.04676
v -1.73034 1.35182 1.16676
v -2.07547 0.95571 0.99525
v -1.72547 1.36281 1.11525
v -2.1125 0.99129 0.98255
v -1.7625 1.39839 1.10255
v -2.14026 1.00228 1.02622
v -1.79026 1.40938 1.14622
v 0.75049 0.05395 -2.80147
v 0.76777 1.20395 -2.90122
v 0.68988 0.05788 -2.76668
v 0.70716 1.20788 -2.86643
v 0.68988 0.06393 -2.69694
v 0.70716 1.21393 -2.7967
v 0.75049 0.06605 -2.66199
v 0.76777 1.21605 -2.76175
v 0.81111 0.06212 -2.69678
v 0.82839 1.21212 -2.79654
v 0.81111 0.05607 -2.76652
v 0.82839 1.20607 -2.86628
v 1.30295 0.08595 1.21344
v 1.45426 0.67595 1.44895
v 1.24398 0.08602 1.25116
v 1.39529 0.67602 1.48667
v 1.24398 0.06007 1.31617
v 1.39529 0.65007 1.55168
v 1.30295 0.03405 1.34347
v 1.45426 0.62405 1.57898
v 1.36192 0.03398 1.30575
v 1.51324 0.62398 1.54126
v 1.36192 0.05993 1.24074
v 1.51324 0.64993 1.47625
v 1.45426 0.57 1.51396
v 1.45426 0.57 1.51396
v 1.45426 0.57 1.51396
v 1.45426 0.57 1.51396
v 1.45426 0.57 1.51396
v 1.45426 0.57 1.51396
v 1.45426 0.57 1.51396
v 1.64479 0.635 1.51396
v 1.57306 0.635 1.66292
v 1.41187 0.635 1.69971
v 1.28261 0.635 1.59663
v 1.28261 0.635 1.4313
v 1.41187 0.635 1.32822
v 1.57306 0.635 1.36501
v 1.64479 0.765 1.51396
v 1.57306 0.765 1.66292
v 1.41187 0.765 1.69971
v 1.28261 0.765 1.59663
v 1.28261 0.765 1.4313
v 1.41187 0.765 1.32822
v 1.57306 0.765 1.36501
v 1.45426 0.83 1.51396
v 1.45426 0.83 1.51396
v 1.45426 0.83 1.51396
v 1.45426 0.83 1.51396
v 1.45426 0.83 1.51396
v 1.45426 0.83 1.51396
v 1.45426 0.83 1.51396
v -2.8 0.06 1.1
v -2.8 0.06 1.1
v -2.8 0.06 1.1
v -2.8 0.06 1.1
v -2.8 0.06 1.1
v -2.8 0.06 1.1
v -2.8 0.06 1.1
v -2.8 0.06 1.1
v -2.43627 0.15 1.1
v -2.5428 0.15 1.3572
v -2.8 0.15 1.46373
v -3.0572 0.15 1.3572
v -3.16373 0.15 1.1
v -3.0572 0.15 0.8428
v -2.8 0.15 0.73627
v -2.5428 0.15 0.8428
v -2.43627 0.33 1.1
v -2.5428 0.33 1.3572
v -2.8 0.33 1.46373
v -3.0572 0.33 1.3572
v -3.16373 0.33 1.1
v -3.0572 0.33 0.8428
v -2.8 0.33 0.73627
v -2.5428 0.33 0.8428
v -2.8 0.42 1.1
v -2.8 0.42 1.1
v -2.8 0.42 1.1
v -2.8 0.42 1.1
v -2.8 0.42 1.1
v -2.8 0.42 1.1
v -2.8 0.42 1.1
v -2.8 0.42 1.1
v -1.1 0.06 -1.4
v -1.1 0.06 -1.4
v -1.1 0.06 -1.4
v -1.1 0.06 -1.4
v -1.1 0.06 -1.4
v -1.1 0.06 -1.4
v -1.1 0.06 -1.4
v -1.1 0.06 -1.4
v -0.78823 0.15 -1.4
v -0.87955 0.15 -1.17955
v -1.1 0.15 -1.08823
v -1.32045 0.15 -1.17955
v -1.41177 0.15 -1.4
v -1.32045 0.15 -1.62045
v -1.1 0.15 -1.71177
v -0.87955 0.15 -1.62045
v -0.78823 0.33 -1.4
v -0.87955 0.33 -1.17955
v -1.1 0.33 -1.08823
v -1.32045 0.33 -1.17955
v -1.41177 0.33 -1.4
v -1.32045 0.33 -1.62045
v -1.1 0.33 -1.71177
v -0.87955 0.33 -1.62045
v -1.1 0.42 -1.4
v -1.1 0.42 -1.4
v -1.1 0.42 -1.4
v -1.1 0.42 -1.4
v -1.1 0.42 -1.4
v -1.1 0.42 -1.4
v -1.1 0.42 -1.4
v -1.1 0.42 -1.4
v 0.7 0.06 1.6
v 0.7 0.06 1.6
v 0.7 0.06 1.6
v 0.7 0.06 1.6
v 0.7 0.06 1.6
v 0.7 0.06 1.6
v 0.7 0.06 1.6
v 0.7 0.06 1.6
v 1.13301 0.15 1.6
v 1.00619 0.15 1.90619
v 0.7 0.15 2.03301
v 0.39381 0.15 1.90619
v 0.26699 0.15 1.6
v 0.39381 0.15 1.29381
v 0.7 0.15 1.16699
v 1.00619 0.15 1.29381
v 1.13301 0.33 1.6
v 1.00619 0.33 1.90619
v 0.7 0.33 2.03301
v 0.39381 0.33 1.90619
v 0.26699 0.33 1.6
v 0.39381 0.33 1.29381
v 0.7 0.33 1.16699
v 1.00619 0.33 1.29381
v 0.7 0.42 1.6
v 0.7 0.42 1.6
v 0.7 0.42 1.6
v 0.7 0.42 1.6
v 0.7 0.42 1.6
v 0.7 0.42 1.6
v 0.7 0.42 1.6
v 0.7 0.42 1.6
v 2.8 0.06 0.9
v 2.8 0.06 0.9
v 2.8 0.06 0.9
v 2.8 0.06 0.9
v 2.8 0.06 0.9
v 2.8 0.06 0.9
v 2.8 0.06 0.9
v 2.8 0.06 0.9
v 3.09445 0.15 0.9
v 3.00821 0.15 1.10821
v 2.8 0.15 1.19445
v 2.59179 0.15 1.10821
v 2.50555 0.15 0.9
v 2.59179 0.15 0.69179
v 2.8 0.15 0.60555
v 3.00821 0.15 0.69179
v 3.09445 0.33 0.9
v 3.00821 0.33 1.10821
v 2.8 0.33 1.19445
v 2.59179 0.33 1.10821
v 2.50555 0.33 0.9
v 2.59179 0.33 0.69179
v 2.8 0.33 0.60555
v 3.00821 0.33 0.69179
v 2.8 0.42 0.9
v 2.8 0.42 0.9
v 2.8 0.42 0.9
v 2.8 0.42 0.9
v 2.8 0.42 0.9
v 2.8 0.42 0.9
v 2.8 0.42 0.9
v 2.8 0.42 0.9
g mat_0
usemtl living_olive
f 1 2 14 13
f 2 3 15 14
f 3 4 16 15
f 4 5 17 16
f 5 6 18 17
f 6 7 19 18
f 7 8 20 19
f 8 9 21 20
f 9 10 22 21
f 10 11 23 22
f 11 12 24 23
f 12 1 13 24
f 13 14 26 25
f 14 15 27 26
f 15 16 28 27
f 16 17 29 28
f 17 18 30 29
f 18 19 31 30
f 19 20 32 31
f 20 21 33 32
f 21 22 34 33
f 22 23 35 34
f 23 24 36 35
f 24 13 25 36
f 25 26 38 37
f 26 27 39 38
f 27 28 40 39
f 28 29 41 40
f 29 30 42 41
f 30 31 43 42
f 31 32 44 43
f 32 33 45 44
f 33 34 46 45
f 34 35 47 46
f 35 36 48 47
f 36 25 37 48
g mat_1
usemtl living_green
f 49 50 62 61
f 50 51 63 62
f 51 52 64 63
f 52 53 65 64
f 53 54 66 65
f 54 55 67 66
f 55 56 68 67
f 56 57 69 68
f 57 58 70 69
f 58 59 71 70
f 59 60 72 71
f 60 49 61 72
f 61 62 74 73
f 62 63 75 74
f 63 64 76 75
f 64 65 77 76
f 65 66 78 77
f 66 67 79 78
f 67 68 80 79
f 68 69 81 80
f 69 70 82 81
f 70 71 83 82
f 71 72 84 83
f 72 61 73 84
f 73 74 86 85
f 74 75 87 86
f 75 76 88 87
f 76 77 89 88
f 77 78 90 89
f 78 79 91 90
f 79 80 92 91
f 80 81 93 92
f 81 82 94 93
f 82 83 95 94
f 83 84 96 95
f 84 73 85 96
g mat_2
usemtl living_olive
f 97 98 110 109
f 98 99 111 110
f 99 100 112 111
f 100 101 113 112
f 101 102 114 113
f 102 103 115 114
f 103 104 116 115
f 104 105 117 116
f 105 106 118 117
f 106 107 119 118
f 107 108 120 119
f 108 97 109 120
f 109 110 122 121
f 110 111 123 122
f 111 112 124 123
f 112 113 125 124
f 113 114 126 125
f 114 115 127 126
f 115 116 128 127
f 116 117 129 128
f 117 118 130 129
f 118 119 131 130
f 119 120 132 131
f 120 109 121 132
f 121 122 134 133
f 122 123 135 134
f 123 124 136 135
f 124 125 137 136
f 125 126 138 137
f 126 127 139 138
f 127 128 140 139
f 128 129 141 140
f 129 130 142 141
f 130 131 143 142
f 131 132 144 143
f 132 121 133 144
g mat_3
usemtl living_green
f 145 146 158 157
f 146 147 159 158
f 147 148 160 159
f 148 149 161 160
f 149 150 162 161
f 150 151 163 162
f 151 152 164 163
f 152 153 165 164
f 153 154 166 165
f 154 155 167 166
f 155 156 168 167
f 156 145 157 168
f 157 158 170 169
f 158 159 171 170
f 159 160 172 171
f 160 161 173 172
f 161 162 174 173
f 162 163 175 174
f 163 164 176 175
f 164 165 177 176
f 165 166 178 177
f 166 167 179 178
f 167 168 180 179
f 168 157 169 180
f 169 170 182 181
f 170 171 183 182
f 171 172 184 183
f 172 173 185 184
f 173 174 186 185
f 174 175 187 186
f 175 176 188 187
f 176 177 189 188
f 177 178 190 189
f 178 179 191 190
f 179 180 192 191
f 180 169 181 192
g filter_0
usemtl living_pale
f 203 201 199 197 195 193
f 194 196 198 200 202 204
f 193 195 196 194
f 195 197 198 196
f 197 199 200 198
f 199 201 202 200
f 201 203 204 202
f 203 193 194 204
g crown_0
usemtl living_pale
f 205 206 213 212
f 206 207 214 213
f 207 208 215 214
f 208 209 216 215
f 209 210 217 216
f 210 211 218 217
f 211 205 212 218
f 212 213 220 219
f 213 214 221 220
f 214 215 222 221
f 215 216 223 222
f 216 217 224 223
f 217 218 225 224
f 218 212 219 225
f 219 220 227 226
f 220 221 228 227
f 221 222 229 228
f 222 223 230 229
f 223 224 231 230
f 224 225 232 231
f 225 219 226 232
g filter_1
usemtl living_teal
f 243 241 239 237 235 233
f 234 236 238 240 242 244
f 233 235 236 234
f 235 237 238 236
f 237 239 240 238
f 239 241 242 240
f 241 243 244 242
f 243 233 234 244
g filter_2
usemtl living_teal
f 255 253 251 249 247 245
f 246 248 250 252 254 256
f 245 247 248 246
f 247 249 250 248
f 249 251 252 250
f 251 253 254 252
f 253 255 256 254
f 255 245 246 256
g filter_3
usemtl living_pale
f 267 265 263 261 259 257
f 258 260 262 264 266 268
f 257 259 260 258
f 259 261 262 260
f 261 263 264 262
f 263 265 266 264
f 265 267 268 266
f 267 257 258 268
g crown_3
usemtl living_pale
f 269 270 277 276
f 270 271 278 277
f 271 272 279 278
f 272 273 280 279
f 273 274 281 280
f 274 275 282 281
f 275 269 276 282
f 276 277 284 283
f 277 278 285 284
f 278 279 286 285
f 279 280 287 286
f 280 281 288 287
f 281 282 289 288
f 282 276 283 289
f 283 284 291 290
f 284 285 292 291
f 285 286 293 292
f 286 287 294 293
f 287 288 295 294
f 288 289 296 295
f 289 283 290 296
g filter_4
usemtl living_teal
f 307 305 303 301 299 297
f 298 300 302 304 306 308
f 297 299 300 298
f 299 301 302 300
f 301 303 304 302
f 303 305 306 304
f 305 307 308 306
f 307 297 298 308
g branch_4
usemtl living_teal
f 317 315 313 311 309
f 310 312 314 316 318
f 309 311 312 310
f 311 313 314 312
f 313 315 316 314
f 315 317 318 316
f 317 309 310 318
g filter_5
usemtl living_teal
f 329 327 325 323 321 319
f 320 322 324 326 328 330
f 319 321 322 320
f 321 323 324 322
f 323 325 326 324
f 325 327 328 326
f 327 329 330 328
f 329 319 320 330
g filter_6
usemtl living_pale
f 341 339 337 335 333 331
f 332 334 336 338 340 342
f 331 333 334 332
f 333 335 336 334
f 335 337 338 336
f 337 339 340 338
f 339 341 342 340
f 341 331 332 342
g crown_6
usemtl living_pale
f 343 344 351 350
f 344 345 352 351
f 345 346 353 352
f 346 347 354 353
f 347 348 355 354
f 348 349 356 355
f 349 343 350 356
f 350 351 358 357
f 351 352 359 358
f 352 353 360 359
f 353 354 361 360
f 354 355 362 361
f 355 356 363 362
f 356 350 357 363
f 357 358 365 364
f 358 359 366 365
f 359 360 367 366
f 360 361 368 367
f 361 362 369 368
f 362 363 370 369
f 363 357 364 370
g filter_7
usemtl living_teal
f 381 379 377 375 373 371
f 372 374 376 378 380 382
f 371 373 374 372
f 373 375 376 374
f 375 377 378 376
f 377 379 380 378
f 379 381 382 380
f 381 371 372 382
g filter_8
usemtl living_teal
f 393 391 389 387 385 383
f 384 386 388 390 392 394
f 383 385 386 384
f 385 387 388 386
f 387 389 390 388
f 389 391 392 390
f 391 393 394 392
f 393 383 384 394
g branch_8
usemtl living_teal
f 403 401 399 397 395
f 396 398 400 402 404
f 395 397 398 396
f 397 399 400 398
f 399 401 402 400
f 401 403 404 402
f 403 395 396 404
g filter_9
usemtl living_pale
f 415 413 411 409 407 405
f 406 408 410 412 414 416
f 405 407 408 406
f 407 409 410 408
f 409 411 412 410
f 411 413 414 412
f 413 415 416 414
f 415 405 406 416
g crown_9
usemtl living_pale
f 417 418 425 424
f 418 419 426 425
f 419 420 427 426
f 420 421 428 427
f 421 422 429 428
f 422 423 430 429
f 423 417 424 430
f 424 425 432 431
f 425 426 433 432
f 426 427 434 433
f 427 428 435 434
f 428 429 436 435
f 429 430 437 436
f 430 424 431 437
f 431 432 439 438
f 432 433 440 439
f 433 434 441 440
f 434 435 442 441
f 435 436 443 442
f 436 437 444 443
f 437 431 438 444
g filter_10
usemtl living_teal
f 455 453 451 449 447 445
f 446 448 450 452 454 456
f 445 447 448 446
f 447 449 450 448
f 449 451 452 450
f 451 453 454 452
f 453 455 456 454
f 455 445 446 456
g filter_11
usemtl living_teal
f 467 465 463 461 459 457
f 458 460 462 464 466 468
f 457 459 460 458
f 459 461 462 460
f 461 463 464 462
f 463 465 466 464
f 465 467 468 466
f 467 457 458 468
g filter_12
usemtl living_pale
f 479 477 475 473 471 469
f 470 472 474 476 478 480
f 469 471 472 470
f 471 473 474 472
f 473 475 476 474
f 475 477 478 476
f 477 479 480 478
f 479 469 470 480
g crown_12
usemtl living_pale
f 481 482 489 488
f 482 483 490 489
f 483 484 491 490
f 484 485 492 491
f 485 486 493 492
f 486 487 494 493
f 487 481 488 494
f 488 489 496 495
f 489 490 497 496
f 490 491 498 497
f 491 492 499 498
f 492 493 500 499
f 493 494 501 500
f 494 488 495 501
f 495 496 503 502
f 496 497 504 503
f 497 498 505 504
f 498 499 506 505
f 499 500 507 506
f 500 501 508 507
f 501 495 502 508
g filter_13
usemtl living_teal
f 519 517 515 513 511 509
f 510 512 514 516 518 520
f 509 511 512 510
f 511 513 514 512
f 513 515 516 514
f 515 517 518 516
f 517 519 520 518
f 519 509 510 520
g filter_14
usemtl living_teal
f 531 529 527 525 523 521
f 522 524 526 528 530 532
f 521 523 524 522
f 523 525 526 524
f 525 527 528 526
f 527 529 530 528
f 529 531 532 530
f 531 521 522 532
g filter_15
usemtl living_pale
f 543 541 539 537 535 533
f 534 536 538 540 542 544
f 533 535 536 534
f 535 537 538 536
f 537 539 540 538
f 539 541 542 540
f 541 543 544 542
f 543 533 534 544
g crown_15
usemtl living_pale
f 545 546 553 552
f 546 547 554 553
f 547 548 555 554
f 548 549 556 555
f 549 550 557 556
f 550 551 558 557
f 551 545 552 558
f 552 553 560 559
f 553 554 561 560
f 554 555 562 561
f 555 556 563 562
f 556 557 564 563
f 557 558 565 564
f 558 552 559 565
f 559 560 567 566
f 560 561 568 567
f 561 562 569 568
f 562 563 570 569
f 563 564 571 570
f 564 565 572 571
f 565 559 566 572
g filter_16
usemtl living_teal
f 583 581 579 577 575 573
f 574 576 578 580 582 584
f 573 575 576 574
f 575 577 578 576
f 577 579 580 578
f 579 581 582 580
f 581 583 584 582
f 583 573 574 584
g branch_16
usemtl living_teal
f 593 591 589 587 585
f 586 588 590 592 594
f 585 587 588 586
f 587 589 590 588
f 589 591 592 590
f 591 593 594 592
f 593 585 586 594
g filter_17
usemtl living_teal
f 605 603 601 599 597 595
f 596 598 600 602 604 606
f 595 597 598 596
f 597 599 600 598
f 599 601 602 600
f 601 603 604 602
f 603 605 606 604
f 605 595 596 606
g filter_18
usemtl living_pale
f 617 615 613 611 609 607
f 608 610 612 614 616 618
f 607 609 610 608
f 609 611 612 610
f 611 613 614 612
f 613 615 616 614
f 615 617 618 616
f 617 607 608 618
g crown_18
usemtl living_pale
f 619 620 627 626
f 620 621 628 627
f 621 622 629 628
f 622 623 630 629
f 623 624 631 630
f 624 625 632 631
f 625 619 626 632
f 626 627 634 633
f 627 628 635 634
f 628 629 636 635
f 629 630 637 636
f 630 631 638 637
f 631 632 639 638
f 632 626 633 639
f 633 634 641 640
f 634 635 642 641
f 635 636 643 642
f 636 637 644 643
f 637 638 645 644
f 638 639 646 645
f 639 633 640 646
g filter_cup_0
usemtl living_pale
f 647 648 656 655
f 648 649 657 656
f 649 650 658 657
f 650 651 659 658
f 651 652 660 659
f 652 653 661 660
f 653 654 662 661
f 654 647 655 662
f 655 656 664 663
f 656 657 665 664
f 657 658 666 665
f 658 659 667 666
f 659 660 668 667
f 660 661 669 668
f 661 662 670 669
f 662 655 663 670
f 663 664 672 671
f 664 665 673 672
f 665 666 674 673
f 666 667 675 674
f 667 668 676 675
f 668 669 677 676
f 669 670 678 677
f 670 663 671 678
g filter_cup_1
usemtl living_pale
f 679 680 688 687
f 680 681 689 688
f 681 682 690 689
f 682 683 691 690
f 683 684 692 691
f 684 685 693 692
f 685 686 694 693
f 686 679 687 694
f 687 688 696 695
f 688 689 697 696
f 689 690 698 697
f 690 691 699 698
f 691 692 700 699
f 692 693 701 700
f 693 694 702 701
f 694 687 695 702
f 695 696 704 703
f 696 697 705 704
f 697 698 706 705
f 698 699 707 706
f 699 700 708 707
f 700 701 709 708
f 701 702 710 709
f 702 695 703 710
g filter_cup_2
usemtl living_pale
f 711 712 720 719
f 712 713 721 720
f 713 714 722 721
f 714 715 723 722
f 715 716 724 723
f 716 717 725 724
f 717 718 726 725
f 718 711 719 726
f 719 720 728 727
f 720 721 729 728
f 721 722 730 729
f 722 723 731 730
f 723 724 732 731
f 724 725 733 732
f 725 726 734 733
f 726 719 727 734
f 727 728 736 735
f 728 729 737 736
f 729 730 738 737
f 730 731 739 738
f 731 732 740 739
f 732 733 741 740
f 733 734 742 741
f 734 727 735 742
g filter_cup_3
usemtl living_pale
f 743 744 752 751
f 744 745 753 752
f 745 746 754 753
f 746 747 755 754
f 747 748 756 755
f 748 749 757 756
f 749 750 758 757
f 750 743 751 758
f 751 752 760 759
f 752 753 761 760
f 753 754 762 761
f 754 755 763 762
f 755 756 764 763
f 756 757 765 764
f 757 758 766 765
f 758 751 759 766
f 759 760 768 767
f 760 761 769 768
f 761 762 770 769
f 762 763 771 770
f 763 764 772 771
f 764 765 773 772
f 765 766 774 773
f 766 759 767 774
