# Generated environment blockout: vegetation_mat_c
mtllib environment_blockout.mtl
o vegetation_mat_c
v -2.2 0.0 -0.7
v -2.2 0.0 -0.7
v -2.2 0.0 -0.7
v -2.2 0.0 -0.7
v -2.2 0.0 -0.7
v -2.2 0.0 -0.7
v -2.2 0.0 -0.7
v -2.2 0.0 -0.7
v -2.2 0.0 -0.7
v -2.2 0.0 -0.7
v -2.2 0.0 -0.7
v -2.2 0.0 -0.7
v 0.05167 0.04 -0.7
v -0.25 0.04 0.03612
v -1.07417 0.04 0.575
v -2.2 0.04 0.77224
v -3.32583 0.04 0.575
v -4.15 0.04 0.03612
v -4.45167 0.04 -0.7
v -4.15 0.04 -1.43612
v -3.32583 0.04 -1.975
v -2.2 0.04 -2.17224
v -1.07417 0.04 -1.975
v -0.25 0.04 -1.43612
v 0.05167 0.12 -0.7
v -0.25 0.12 0.03612
v -1.07417 0.12 0.575
v -2.2 0.12 0.77224
v -3.32583 0.12 0.575
v -4.15 0.12 0.03612
v -4.45167 0.12 -0.7
v -4.15 0.12 -1.43612
v -3.32583 0.12 -1.975
v -2.2 0.12 -2.17224
v -1.07417 0.12 -1.975
v -0.25 0.12 -1.43612
v -2.2 0.16 -0.7
v -2.2 0.16 -0.7
v -2.2 0.16 -0.7
v -2.2 0.16 -0.7
v -2.2 0.16 -0.7
v -2.2 0.16 -0.7
v -2.2 0.16 -0.7
v -2.2 0.16 -0.7
v -2.2 0.16 -0.7
v -2.2 0.16 -0.7
v -2.2 0.16 -0.7
v -2.2 0.16 -0.7
v 1.0 0.0 0.3
v 1.0 0.0 0.3
v 1.0 0.0 0.3
v 1.0 0.0 0.3
v 1.0 0.0 0.3
v 1.0 0.0 0.3
v 1.0 0.0 0.3
v 1.0 0.0 0.3
v 1.0 0.0 0.3
v 1.0 0.0 0.3
v 1.0 0.0 0.3
v 1.0 0.0 0.3
v 3.59808 0.04 0.3
v 3.25 0.04 1.12272
v 2.29904 0.04 1.725
v 1.0 0.04 1.94545
v -0.29904 0.04 1.725
v -1.25 0.04 1.12272
v -1.59808 0.04 0.3
v -1.25 0.04 -0.52272
v -0.29904 0.04 -1.125
v 1.0 0.04 -1.34545
v 2.29904 0.04 -1.125
v 3.25 0.04 -0.52272
v 3.59808 0.12 0.3
v 3.25 0.12 1.12272
v 2.29904 0.12 1.725
v 1.0 0.12 1.94545
v -0.29904 0.12 1.725
v -1.25 0.12 1.12272
v -1.59808 0.12 0.3
v -1.25 0.12 -0.52272
v -0.29904 0.12 -1.125
v 1.0 0.12 -1.34545
v 2.29904 0.12 -1.125
v 3.25 0.12 -0.52272
v 1.0 0.16 0.3
v 1.0 0.16 0.3
v 1.0 0.16 0.3
v 1.0 0.16 0.3
v 1.0 0.16 0.3
v 1.0 0.16 0.3
v 1.0 0.16 0.3
v 1.0 0.16 0.3
v 1.0 0.16 0.3
v 1.0 0.16 0.3
v 1.0 0.16 0.3
v 1.0 0.16 0.3
v 2.6 0.0 -1.1
v 2.6 0.0 -1.1
v 2.6 0.0 -1.1
v 2.6 0.0 -1.1
v 2.6 0.0 -1.1
v 2.6 0.0 -1.1
v 2.6 0.0 -1.1
v 2.6 0.0 -1.1
v 2.6 0.0 -1.1
v 2.6 0.0 -1.1
v 2.6 0.0 -1.1
v 2.6 0.0 -1.1
v 4.24545 0.04 -1.1
v 4.025 0.04 -0.53708
v 3.42272 0.04 -0.125
v 2.6 0.04 0.02583
v 1.77728 0.04 -0.125
v 1.175 0.04 -0.53708
v 0.95455 0.04 -1.1
v 1.175 0.04 -1.66292
v 1.77728 0.04 -2.075
v 2.6 0.04 -2.22583
v 3.42272 0.04 -2.075
v 4.025 0.04 -1.66292
v 4.24545 0.12 -1.1
v 4.025 0.12 -0.53708
v 3.42272 0.12 -0.125
v 2.6 0.12 0.02583
v 1.77728 0.12 -0.125
v 1.175 0.12 -0.53708
v 0.95455 0.12 -1.1
v 1.175 0.12 -1.66292
v 1.77728 0.12 -2.075
v 2.6 0.12 -2.22583
v 3.42272 0.12 -2.075
v 4.025 0.12 -1.66292
v 2.6 0.16 -1.1
v 2.6 0.16 -1.1
v 2.6 0.16 -1.1
v 2.6 0.16 -1.1
v 2.6 0.16 -1.1
v 2.6 0.16 -1.1
v 2.6 0.16 -1.1
v 2.6 0.16 -1.1
v 2.6 0.16 -1.1
v 2.6 0.16 -1.1
v 2.6 0.16 -1.1
v 2.6 0.16 -1.1
v -0.3 0.0 1.7
v -0.3 0.0 1.7
v -0.3 0.0 1.7
v -0.3 0.0 1.7
v -0.3 0.0 1.7
v -0.3 0.0 1.7
v -0.3 0.0 1.7
v -0.3 0.0 1.7
v -0.3 0.0 1.7
v -0.3 0.0 1.7
v -0.3 0.0 1.7
v -0.3 0.0 1.7
v 1.77846 0.04 1.7
v 1.5 0.04 2.17631
v 0.73923 0.04 2.525
v -0.3 0.04 2.65263
v -1.33923 0.04 2.525
v -2.1 0.04 2.17631
v -2.37846 0.04 1.7
v -2.1 0.04 1.22369
v -1.33923 0.04 0.875
v -0.3 0.04 0.74737
v 0.73923 0.04 0.875
v 1.5 0.04 1.22369
v 1.77846 0.12 1.7
v 1.5 0.12 2.17631
v 0.73923 0.12 2.525
v -0.3 0.12 2.65263
v -1.33923 0.12 2.525
v -2.1 0.12 2.17631
v -2.37846 0.12 1.7
v -2.1 0.12 1.22369
v -1.33923 0.12 0.875
v -0.3 0.12 0.74737
v 0.73923 0.12 0.875
v 1.5 0.12 1.22369
v -0.3 0.16 1.7
v -0.3 0.16 1.7
v -0.3 0.16 1.7
v -0.3 0.16 1.7
v -0.3 0.16 1.7
v -0.3 0.16 1.7
v -0.3 0.16 1.7
v -0.3 0.16 1.7
v -0.3 0.16 1.7
v -0.3 0.16 1.7
v -0.3 0.16 1.7
v -0.3 0.16 1.7
v -0.82502 0.051 -0.35123
v -0.93881 0.641 -0.40739
v -0.90581 0.04006 -0.30248
v -1.01961 0.63006 -0.35863
v -0.90581 0.04906 -0.20791
v -1.01961 0.63906 -0.26406
v -0.82502 0.069 -0.16209
v -0.93881 0.659 -0.21824
v -0.74422 0.07994 -0.21085
v -0.85802 0.66994 -0.267
v -0.74422 0.07094 -0.30542
v -0.85802 0.66094 -0.36157
v -0.93881 0.57 -0.31282
v -0.93881 0.57 -0.31282
v -0.93881 0.57 -0.31282
v -0.93881 0.57 -0.31282
v -0.93881 0.57 -0.31282
v -0.93881 0.57 -0.31282
v -0.93881 0.57 -0.31282
v -0.74829 0.635 -0.31282
v -0.82002 0.635 -0.16386
v -0.98121 0.635 -0.12707
v -1.11047 0.635 -0.23015
v -1.11047 0.635 -0.39548
v -0.98121 0.635 -0.49857
v -0.82002 0.635 -0.46178
v -0.74829 0.765 -0.31282
v -0.82002 0.765 -0.16386
v -0.98121 0.765 -0.12707
v -1.11047 0.765 -0.23015
v -1.11047 0.765 -0.39548
v -0.98121 0.765 -0.49857
v -0.82002 0.765 -0.46178
v -0.93881 0.83 -0.31282
v -0.93881 0.83 -0.31282
v -0.93881 0.83 -0.31282
v -0.93881 0.83 -0.31282
v -0.93881 0.83 -0.31282
v -0.93881 0.83 -0.31282
v -0.93881 0.83 -0.31282
v 2.55216 0.05878 -0.53995
v 2.62907 1.34878 -0.56242
v 2.49164 0.063 -0.50502
v 2.56856 1.353 -0.52749
v 2.49164 0.06422 -0.43503
v 2.56856 1.35422 -0.4575
v 2.55216 0.06122 -0.39998
v 2.62907 1.35122 -0.42244
v 2.61267 0.057 -0.43491
v 2.68958 1.347 -0.45737
v 2.61267 0.05578 -0.5049
v 2.68958 1.34578 -0.52736
v -2.2761 0.08032 2.30518
v -2.41007 0.81032 2.52665
v -2.33581 0.06013 2.33563
v -2.46978 0.79013 2.5571
v -2.33581 0.0398 2.40261
v -2.46978 0.7698 2.62408
v -2.2761 0.03968 2.43915
v -2.41007 0.76968 2.66062
v -2.21639 0.05987 2.4087
v -2.35036 0.78987 2.63017
v -2.21639 0.0802 2.34172
v -2.35036 0.8102 2.56319
v -0.4755 0.04774 -1.55866
v -0.52671 1.47774 -1.81311
v -0.53609 0.05177 -1.52382
v -0.58729 1.48177 -1.77828
v -0.53609 0.06403 -1.45491
v -0.58729 1.49403 -1.70936
v -0.4755 0.07226 -1.42082
v -0.52671 1.50226 -1.67528
v -0.41492 0.06823 -1.45565
v -0.46612 1.49823 -1.71011
v -0.41492 0.05597 -1.52457
v -0.46612 1.48597 -1.77903
v -0.52671 1.41 -1.74419
v -0.52671 1.41 -1.74419
v -0.52671 1.41 -1.74419
v -0.52671 1.41 -1.74419
v -0.52671 1.41 -1.74419
v -0.52671 1.41 -1.74419
v -0.52671 1.41 -1.74419
v -0.33618 1.475 -1.74419
v -0.40792 1.475 -1.59523
v -0.5691 1.475 -1.55845
v -0.69836 1.475 -1.66153
v -0.69836 1.475 -1.82686
v -0.5691 1.475 -1.92994
v -0.40792 1.475 -1.89315
v -0.33618 1.605 -1.74419
v -0.40792 1.605 -1.59523
v -0.5691 1.605 -1.55845
v -0.69836 1.605 -1.66153
v -0.69836 1.605 -1.82686
v -0.5691 1.605 -1.92994
v -0.40792 1.605 -1.89315
v -0.52671 1.67 -1.74419
v -0.52671 1.67 -1.74419
v -0.52671 1.67 -1.74419
v -0.52671 1.67 -1.74419
v -0.52671 1.67 -1.74419
v -0.52671 1.67 -1.74419
v -0.52671 1.67 -1.74419
v 3.35357 0.06518 1.44544
v 3.41877 0.93518 1.49294
v 3.27153 0.06872 1.49321
v 3.33672 0.93872 1.5407
v 3.27153 0.06354 1.58807
v 3.33672 0.93354 1.63556
v 3.35357 0.05482 1.63516
v 3.41877 0.92482 1.68266
v 3.43562 0.05128 1.5874
v 3.50081 0.92128 1.63489
v 3.43562 0.05646 1.49254
v 3.50081 0.92646 1.54003
v 3.33898 0.5115 1.58287
v 3.68898 0.7254 1.70287
v 3.36933 0.47445 1.5604
v 3.71933 0.68835 1.6804
v 3.3779 0.4886 1.51016
v 3.7279 0.7025 1.63016
v 3.35286 0.5344 1.50157
v 3.70286 0.7483 1.62157
v 3.3288 0.54855 1.54651
v 3.6788 0.76245 1.66651
v -2.14822 0.06063 0.08364
v -2.27346 1.63063 0.09785
v -2.20865 0.0555 0.1186
v -2.33389 1.6255 0.13281
v -2.20865 0.05486 0.1886
v -2.33389 1.62486 0.2028
v -2.14822 0.05937 0.22364
v -2.27346 1.62937 0.23785
v -2.08779 0.0645 0.18868
v -2.21303 1.6345 0.20289
v -2.08779 0.06514 0.11869
v -2.21303 1.63514 0.13289
v 2.55814 0.04501 -1.92491
v 2.75045 1.05501 -2.14629
v 2.49854 0.06333 -1.8931
v 2.69085 1.07333 -2.11448
v 2.49854 0.07832 -1.82472
v 2.69085 1.08832 -2.0461
v 2.55814 0.07499 -1.78816
v 2.75045 1.08499 -2.00954
v 2.61774 0.05667 -1.81998
v 2.81005 1.06667 -2.04136
v 2.61774 0.04168 -1.88835
v 2.81005 1.05168 -2.10973
v 2.75045 0.99 -2.07792
v 2.75045 0.99 -2.07792
v 2.75045 0.99 -2.07792
v 2.75045 0.99 -2.07792
v 2.75045 0.99 -2.07792
v 2.75045 0.99 -2.07792
v 2.75045 0.99 -2.07792
v 2.94097 1.055 -2.07792
v 2.86924 1.055 -1.92896
v 2.70805 1.055 -1.89217
v 2.57879 1.055 -1.99525
v 2.57879 1.055 -2.16058
v 2.70805 1.055 -2.26367
v 2.86924 1.055 -2.22688
v 2.94097 1.185 -2.07792
v 2.86924 1.185 -1.92896
v 2.70805 1.185 -1.89217
v 2.57879 1.185 -1.99525
v 2.57879 1.185 -2.16058
v 2.70805 1.185 -2.26367
v 2.86924 1.185 -2.22688
v 2.75045 1.25 -2.07792
v 2.75045 1.25 -2.07792
v 2.75045 1.25 -2.07792
v 2.75045 1.25 -2.07792
v 2.75045 1.25 -2.07792
v 2.75045 1.25 -2.07792
v 2.75045 1.25 -2.07792
v 0.05233 0.06832 1.13644
v 0.05794 1.77832 1.34114
v -0.00829 0.06436 1.17122
v -0.00269 1.77436 1.37592
v -0.00829 0.05604 1.24072
v -0.00269 1.76604 1.44542
v 0.05233 0.05168 1.27545
v 0.05794 1.76168 1.48015
v 0.11296 0.05564 1.24068
v 0.11856 1.76564 1.44538
v 0.11296 0.06396 1.17117
v 0.11856 1.77396 1.37587
v -2.54242 0.05642 -1.74808
v -2.58444 1.20642 -1.79143
v -2.62464 0.05521 -1.7005
v -2.66666 1.20521 -1.74385
v -2.62464 0.05879 -1.60557
v -2.66666 1.20879 -1.64891
v -2.54242 0.06358 -1.55822
v -2.58444 1.21358 -1.60156
v -2.4602 0.06479 -1.6058
v -2.50223 1.21479 -1.64914
v -2.4602 0.06121 -1.70073
v -2.50223 1.21121 -1.74407
v -2.55701 0.6655 -1.61058
v -2.20701 0.9438 -1.49058
v -2.52259 0.6313 -1.63165
v -2.17259 0.9096 -1.51165
v -2.51557 0.64436 -1.68243
v -2.16557 0.92266 -1.56243
v -2.54565 0.68664 -1.69274
v -2.19565 0.96494 -1.57274
v -2.57127 0.6997 -1.64834
v -2.22127 0.978 -1.52834
v 1.66237 0.06129 -0.00886
v 1.84811 0.65129 0.00197
v 1.60455 0.07884 0.02647
v 1.79028 0.66884 0.0373
v 1.60455 0.07755 0.09645
v 1.79028 0.66755 0.10729
v 1.66237 0.05871 0.13111
v 1.84811 0.64871 0.14195
v 1.7202 0.04116 0.09579
v 1.90594 0.63116 0.10662
v 1.7202 0.04245 0.0258
v 1.90594 0.63245 0.03663
v 1.84811 0.57 0.07196
v 1.84811 0.57 0.07196
v 1.84811 0.57 0.07196
v 1.84811 0.57 0.07196
v 1.84811 0.57 0.07196
v 1.84811 0.57 0.07196
v 1.84811 0.57 0.07196
v 2.03864 0.635 0.07196
v 1.9669 0.635 0.22092
v 1.80571 0.635 0.25771
v 1.67645 0.635 0.15462
v 1.67645 0.635 -0.01071
v 1.80571 0.635 -0.11379
v 1.9669 0.635 -0.077
v 2.03864 0.765 0.07196
v 1.9669 0.765 0.22092
v 1.80571 0.765 0.25771
v 1.67645 0.765 0.15462
v 1.67645 0.765 -0.01071
v 1.80571 0.765 -0.11379
v 1.9669 0.765 -0.077
v 1.84811 0.83 0.07196
v 1.84811 0.83 0.07196
v 1.84811 0.83 0.07196
v 1.84811 0.83 0.07196
v 1.84811 0.83 0.07196
v 1.84811 0.83 0.07196
v 1.84811 0.83 0.07196
v -2.63756 0.07012 1.28734
v -2.86851 1.36012 1.47577
v -2.69725 0.05459 1.32045
v -2.9282 1.34459 1.50887
v -2.69725 0.04448 1.38971
v -2.9282 1.33448 1.57814
v -2.63756 0.04988 1.42587
v -2.86851 1.33988 1.6143
v -2.57786 0.06541 1.39277
v -2.80882 1.35541 1.5812
v -2.57786 0.07552 1.3235
v -2.80882 1.36552 1.51193
v 0.20313 0.04663 -0.95268
v 0.22371 0.77663 -1.09472
v 0.14253 0.05496 -0.91865
v 0.16311 0.78496 -1.06069
v 0.14253 0.06833 -0.84994
v 0.16311 0.79833 -0.99198
v 0.20313 0.07337 -0.81526
v 0.22371 0.80337 -0.9573
v 0.26373 0.06504 -0.8493
v 0.28431 0.79504 -0.99134
v 0.26373 0.05167 -0.91801
v 0.28431 0.78167 -1.06005
v 1.77846 0.06391 1.54844
v 1.81866 1.49391 1.60736
v 1.69622 0.06426 1.59599
v 1.73642 1.49426 1.65491
v 1.69622 0.06035 1.69091
v 1.73642 1.49035 1.74983
v 1.77846 0.05609 1.73828
v 1.81866 1.48609 1.7972
v 1.8607 0.05574 1.69072
v 1.9009 1.48574 1.74964
v 1.8607 0.05965 1.5958
v 1.9009 1.48965 1.65472
v 1.81866 1.41 1.70228
v 1.81866 1.41 1.70228
v 1.81866 1.41 1.70228
v 1.81866 1.41 1.70228
v 1.81866 1.41 1.70228
v 1.81866 1.41 1.70228
v 1.81866 1.41 1.70228
v 2.00918 1.475 1.70228
v 1.93745 1.475 1.85124
v 1.77626 1.475 1.88803
v 1.647 1.475 1.78494
v 1.647 1.475 1.61961
v 1.77626 1.475 1.51653
v 1.93745 1.475 1.55332
v 2.00918 1.605 1.70228
v 1.93745 1.605 1.85124
v 1.77626 1.605 1.88803
v 1.647 1.605 1.78494
v 1.647 1.605 1.61961
v 1.77626 1.605 1.51653
v 1.93745 1.605 1.55332
v 1.81866 1.67 1.70228
v 1.81866 1.67 1.70228
v 1.81866 1.67 1.70228
v 1.81866 1.67 1.70228
v 1.81866 1.67 1.70228
v 1.81866 1.67 1.70228
v 1.81866 1.67 1.70228
v -1.13777 0.05553 -0.23741
v -1.37584 0.92553 -0.29303
v -1.19625 0.04183 -0.20147
v -1.43432 0.91183 -0.25708
v -1.19625 0.0463 -0.13161
v -1.43432 0.9163 -0.18722
v -1.13777 0.06447 -0.0977
v -1.37584 0.93447 -0.15331
v -1.07929 0.07817 -0.13365
v -1.31736 0.94817 -0.18926
v -1.07929 0.0737 -0.2035
v -1.31736 0.9437 -0.25912
v 2.53281 0.05407 -0.96945
v 2.76983 1.62407 -1.103
v 2.47287 0.06602 -0.93534
v 2.70989 1.63602 -1.06889
v 2.47287 0.07195 -0.86559
v 2.70989 1.64195 -0.99914
v 2.53281 0.06593 -0.82996
v 2.76983 1.63593 -0.96351
v 2.59276 0.05398 -0.86407
v 2.82978 1.62398 -0.99761
v 2.59276 0.04805 -0.93381
v 2.82978 1.61805 -1.06736
v -0.28511 0.06603 0.48171
v -0.31356 1.07603 0.56899
v -0.34571 0.06132 0.51643
v -0.37416 1.07132 0.60371
v -0.34571 0.05529 0.58617
v -0.37416 1.06529 0.67345
v -0.28511 0.05397 0.62119
v -0.31356 1.06397 0.70847
v -0.22451 0.05868 0.58646
v -0.25296 1.06868 0.67374
v -0.22451 0.06471 0.51672
v -0.25296 1.07471 0.604
v -0.31356 0.99 0.63873
v -0.31356 0.99 0.63873
v -0.31356 0.99 0.63873
v -0.31356 0.99 0.63873
v -0.31356 0.99 0.63873
v -0.31356 0.99 0.63873
v -0.31356 0.99 0.63873
v -0.12304 1.055 0.63873
v -0.19477 1.055 0.78768
v -0.35596 1.055 0.82447
v -0.48522 1.055 0.72139
v -0.48522 1.055 0.55606
v -0.35596 1.055 0.45298
v -0.19477 1.055 0.48977
v -0.12304 1.185 0.63873
v -0.19477 1.185 0.78768
v -0.35596 1.185 0.82447
v -0.48522 1.185 0.72139
v -0.48522 1.185 0.55606
v -0.35596 1.185 0.45298
v -0.19477 1.185 0.48977
v -0.31356 1.25 0.63873
v -0.31356 1.25 0.63873
v -0.31356 1.25 0.63873
v -0.31356 1.25 0.63873
v -0.31356 1.25 0.63873
v -0.31356 1.25 0.63873
v -0.31356 1.25 0.63873
v -1.10233 0.05441 -1.62019
v -1.14822 1.76441 -1.7209
v -1.18458 0.05501 -1.57264
v -1.23046 1.76501 -1.67335
v -1.18458 0.06059 -1.4778
v -1.23046 1.77059 -1.57852
v -1.10233 0.06559 -1.43051
v -1.14822 1.77559 -1.53123
v -1.02009 0.06499 -1.47806
v -1.06598 1.77499 -1.57878
v -1.02009 0.05941 -1.5729
v -1.06598 1.76941 -1.67361
v -1.11693 0.9735 -1.48278
v -0.76693 1.3806 -1.36278
v -1.07688 0.94472 -1.50192
v -0.72688 1.35182 -1.38192
v -1.07201 0.95571 -1.55344
v -0.72201 1.36281 -1.43344
v -1.10904 0.99129 -1.56614
v -0.75904 1.39839 -1.44614
v -1.1368 1.00228 -1.52247
v -0.7868 1.40938 -1.40247
v 4.04925 0.06676 1.01175
v 4.31266 1.21676 1.12333
v 3.99015 0.07679 1.04788
v 4.25355 1.22679 1.15947
v 3.99015 0.07003 1.11756
v 4.25355 1.22003 1.22914
v 4.04925 0.05324 1.15109
v 4.31266 1.20324 1.26267
v 4.10836 0.04321 1.11495
v 4.37176 1.19321 1.22654
v 4.10836 0.04997 1.04528
v 4.37176 1.19997 1.15686
v -2.27089 0.06876 0.44002
v -2.48004 0.65876 0.51445
v -2.32808 0.04443 0.47223
v -2.53723 0.63443 0.54666
v -2.32808 0.03566 0.54168
v -2.53723 0.62566 0.61611
v -2.27089 0.05124 0.57892
v -2.48004 0.64124 0.65335
v -2.2137 0.07557 0.54672
v -2.42285 0.66557 0.62114
v -2.2137 0.08434 0.47727
v -2.42285 0.67434 0.55169
v -2.48004 0.57 0.5839
v -2.48004 0.57 0.5839
v -2.48004 0.57 0.5839
v -2.48004 0.57 0.5839
v -2.48004 0.57 0.5839
v -2.48004 0.57 0.5839
v -2.48004 0.57 0.5839
v -2.28951 0.635 0.5839
v -2.36125 0.635 0.73286
v -2.52243 0.635 0.76965
v -2.6517 0.635 0.66657
v -2.6517 0.635 0.50124
v -2.52243 0.635 0.39815
v -2.36125 0.635 0.43494
v -2.28951 0.765 0.5839
v -2.36125 0.765 0.73286
v -2.52243 0.765 0.76965
v -2.6517 0.765 0.66657
v -2.6517 0.765 0.50124
v -2.52243 0.765 0.39815
v -2.36125 0.765 0.43494
v -2.48004 0.83 0.5839
v -2.48004 0.83 0.5839
v -2.48004 0.83 0.5839
v -2.48004 0.83 0.5839
v -2.48004 0.83 0.5839
v -2.48004 0.83 0.5839
v -2.48004 0.83 0.5839
v -2.8 0.06 1.1
v -2.8 0.06 1.1
v -2.8 0.06 1.1
v -2.8 0.06 1.1
v -2.8 0.06 1.1
v -2.8 0.06 1.1
v -2.8 0.06 1.1
v -2.8 0.06 1.1
v -2.43627 0.15 1.1
v -2.5428 0.15 1.3572
v -2.8 0.15 1.46373
v -3.0572 0.15 1.3572
v -3.16373 0.15 1.1
v -3.0572 0.15 0.8428
v -2.8 0.15 0.73627
v -2.5428 0.15 0.8428
v -2.43627 0.33 1.1
v -2.5428 0.33 1.3572
v -2.8 0.33 1.46373
v -3.0572 0.33 1.3572
v -3.16373 0.33 1.1
v -3.0572 0.33 0.8428
v -2.8 0.33 0.73627
v -2.5428 0.33 0.8428
v -2.8 0.42 1.1
v -2.8 0.42 1.1
v -2.8 0.42 1.1
v -2.8 0.42 1.1
v -2.8 0.42 1.1
v -2.8 0.42 1.1
v -2.8 0.42 1.1
v -2.8 0.42 1.1
v -1.1 0.06 -1.4
v -1.1 0.06 -1.4
v -1.1 0.06 -1.4
v -1.1 0.06 -1.4
v -1.1 0.06 -1.4
v -1.1 0.06 -1.4
v -1.1 0.06 -1.4
v -1.1 0.06 -1.4
v -0.78823 0.15 -1.4
v -0.87955 0.15 -1.17955
v -1.1 0.15 -1.08823
v -1.32045 0.15 -1.17955
v -1.41177 0.15 -1.4
v -1.32045 0.15 -1.62045
v -1.1 0.15 -1.71177
v -0.87955 0.15 -1.62045
v -0.78823 0.33 -1.4
v -0.87955 0.33 -1.17955
v -1.1 0.33 -1.08823
v -1.32045 0.33 -1.17955
v -1.41177 0.33 -1.4
v -1.32045 0.33 -1.62045
v -1.1 0.33 -1.71177
v -0.87955 0.33 -1.62045
v -1.1 0.42 -1.4
v -1.1 0.42 -1.4
v -1.1 0.42 -1.4
v -1.1 0.42 -1.4
v -1.1 0.42 -1.4
v -1.1 0.42 -1.4
v -1.1 0.42 -1.4
v -1.1 0.42 -1.4
v 0.7 0.06 1.6
v 0.7 0.06 1.6
v 0.7 0.06 1.6
v 0.7 0.06 1.6
v 0.7 0.06 1.6
v 0.7 0.06 1.6
v 0.7 0.06 1.6
v 0.7 0.06 1.6
v 1.13301 0.15 1.6
v 1.00619 0.15 1.90619
v 0.7 0.15 2.03301
v 0.39381 0.15 1.90619
v 0.26699 0.15 1.6
v 0.39381 0.15 1.29381
v 0.7 0.15 1.16699
v 1.00619 0.15 1.29381
v 1.13301 0.33 1.6
v 1.00619 0.33 1.90619
v 0.7 0.33 2.03301
v 0.39381 0.33 1.90619
v 0.26699 0.33 1.6
v 0.39381 0.33 1.29381
v 0.7 0.33 1.16699
v 1.00619 0.33 1.29381
v 0.7 0.42 1.6
v 0.7 0.42 1.6
v 0.7 0.42 1.6
v 0.7 0.42 1.6
v 0.7 0.42 1.6
v 0.7 0.42 1.6
v 0.7 0.42 1.6
v 0.7 0.42 1.6
v 2.8 0.06 0.9
v 2.8 0.06 0.9
v 2.8 0.06 0.9
v 2.8 0.06 0.9
v 2.8 0.06 0.9
v 2.8 0.06 0.9
v 2.8 0.06 0.9
v 2.8 0.06 0.9
v 3.09445 0.15 0.9
v 3.00821 0.15 1.10821
v 2.8 0.15 1.19445
v 2.59179 0.15 1.10821
v 2.50555 0.15 0.9
v 2.59179 0.15 0.69179
v 2.8 0.15 0.60555
v 3.00821 0.15 0.69179
v 3.09445 0.33 0.9
v 3.00821 0.33 1.10821
v 2.8 0.33 1.19445
v 2.59179 0.33 1.10821
v 2.50555 0.33 0.9
v 2.59179 0.33 0.69179
v 2.8 0.33 0.60555
v 3.00821 0.33 0.69179
v 2.8 0.42 0.9
v 2.8 0.42 0.9
v 2.8 0.42 0.9
v 2.8 0.42 0.9
v 2.8 0.42 0.9
v 2.8 0.42 0.9
v 2.8 0.42 0.9
v 2.8 0.42 0.9
g mat_0
usemtl living_olive
f 1 2 14 13
f 2 3 15 14
f 3 4 16 15
f 4 5 17 16
f 5 6 18 17
f 6 7 19 18
f 7 8 20 19
f 8 9 21 20
f 9 10 22 21
f 10 11 23 22
f 11 12 24 23
f 12 1 13 24
f 13 14 26 25
f 14 15 27 26
f 15 16 28 27
f 16 17 29 28
f 17 18 30 29
f 18 19 31 30
f 19 20 32 31
f 20 21 33 32
f 21 22 34 33
f 22 23 35 34
f 23 24 36 35
f 24 13 25 36
f 25 26 38 37
f 26 27 39 38
f 27 28 40 39
f 28 29 41 40
f 29 30 42 41
f 30 31 43 42
f 31 32 44 43
f 32 33 45 44
f 33 34 46 45
f 34 35 47 46
f 35 36 48 47
f 36 25 37 48
g mat_1
usemtl living_green
f 49 50 62 61
f 50 51 63 62
f 51 52 64 63
f 52 53 65 64
f 53 54 66 65
f 54 55 67 66
f 55 56 68 67
f 56 57 69 68
f 57 58 70 69
f 58 59 71 70
f 59 60 72 71
f 60 49 61 72
f 61 62 74 73
f 62 63 75 74
f 63 64 76 75
f 64 65 77 76
f 65 66 78 77
f 66 67 79 78
f 67 68 80 79
f 68 69 81 80
f 69 70 82 81
f 70 71 83 82
f 71 72 84 83
f 72 61 73 84
f 73 74 86 85
f 74 75 87 86
f 75 76 88 87
f 76 77 89 88
f 77 78 90 89
f 78 79 91 90
f 79 80 92 91
f 80 81 93 92
f 81 82 94 93
f 82 83 95 94
f 83 84 96 95
f 84 73 85 96
g mat_2
usemtl living_olive
f 97 98 110 109
f 98 99 111 110
f 99 100 112 111
f 100 101 113 112
f 101 102 114 113
f 102 103 115 114
f 103 104 116 115
f 104 105 117 116
f 105 106 118 117
f 106 107 119 118
f 107 108 120 119
f 108 97 109 120
f 109 110 122 121
f 110 111 123 122
f 111 112 124 123
f 112 113 125 124
f 113 114 126 125
f 114 115 127 126
f 115 116 128 127
f 116 117 129 128
f 117 118 130 129
f 118 119 131 130
f 119 120 132 131
f 120 109 121 132
f 121 122 134 133
f 122 123 135 134
f 123 124 136 135
f 124 125 137 136
f 125 126 138 137
f 126 127 139 138
f 127 128 140 139
f 128 129 141 140
f 129 130 142 141
f 130 131 143 142
f 131 132 144 143
f 132 121 133 144
g mat_3
usemtl living_green
f 145 146 158 157
f 146 147 159 158
f 147 148 160 159
f 148 149 161 160
f 149 150 162 161
f 150 151 163 162
f 151 152 164 163
f 152 153 165 164
f 153 154 166 165
f 154 155 167 166
f 155 156 168 167
f 156 145 157 168
f 157 158 170 169
f 158 159 171 170
f 159 160 172 171
f 160 161 173 172
f 161 162 174 173
f 162 163 175 174
f 163 164 176 175
f 164 165 177 176
f 165 166 178 177
f 166 167 179 178
f 167 168 180 179
f 168 157 169 180
f 169 170 182 181
f 170 171 183 182
f 171 172 184 183
f 172 173 185 184
f 173 174 186 185
f 174 175 187 186
f 175 176 188 187
f 176 177 189 188
f 177 178 190 189
f 178 179 191 190
f 179 180 192 191
f 180 169 181 192
g filter_0
usemtl living_pale
f 203 201 199 197 195 193
f 194 196 198 200 202 204
f 193 195 196 194
f 195 197 198 196
f 197 199 200 198
f 199 201 202 200
f 201 203 204 202
f 203 193 194 204
g crown_0
usemtl living_pale
f 205 206 213 212
f 206 207 214 213
f 207 208 215 214
f 208 209 216 215
f 209 210 217 216
f 210 211 218 217
f 211 205 212 218
f 212 213 220 219
f 213 214 221 220
f 214 215 222 221
f 215 216 223 222
f 216 217 224 223
f 217 218 225 224
f 218 212 219 225
f 219 220 227 226
f 220 221 228 227
f 221 222 229 228
f 222 223 230 229
f 223 224 231 230
f 224 225 232 231
f 225 219 226 232
g filter_1
usemtl living_teal
f 243 241 239 237 235 233
f 234 236 238 240 242 244
f 233 235 236 234
f 235 237 238 236
f 237 239 240 238
f 239 241 242 240
f 241 243 244 242
f 243 233 234 244
g filter_2
usemtl living_teal
f 255 253 251 249 247 245
f 246 248 250 252 254 256
f 245 247 248 246
f 247 249 250 248
f 249 251 252 250
f 251 253 254 252
f 253 255 256 254
f 255 245 246 256
g filter_3
usemtl living_pale
f 267 265 263 261 259 257
f 258 260 262 264 266 268
f 257 259 260 258
f 259 261 262 260
f 261 263 264 262
f 263 265 266 264
f 265 267 268 266
f 267 257 258 268
g crown_3
usemtl living_pale
f 269 270 277 276
f 270 271 278 277
f 271 272 279 278
f 272 273 280 279
f 273 274 281 280
f 274 275 282 281
f 275 269 276 282
f 276 277 284 283
f 277 278 285 284
f 278 279 286 285
f 279 280 287 286
f 280 281 288 287
f 281 282 289 288
f 282 276 283 289
f 283 284 291 290
f 284 285 292 291
f 285 286 293 292
f 286 287 294 293
f 287 288 295 294
f 288 289 296 295
f 289 283 290 296
g filter_4
usemtl living_teal
f 307 305 303 301 299 297
f 298 300 302 304 306 308
f 297 299 300 298
f 299 301 302 300
f 301 303 304 302
f 303 305 306 304
f 305 307 308 306
f 307 297 298 308
g branch_4
usemtl living_teal
f 317 315 313 311 309
f 310 312 314 316 318
f 309 311 312 310
f 311 313 314 312
f 313 315 316 314
f 315 317 318 316
f 317 309 310 318
g filter_5
usemtl living_teal
f 329 327 325 323 321 319
f 320 322 324 326 328 330
f 319 321 322 320
f 321 323 324 322
f 323 325 326 324
f 325 327 328 326
f 327 329 330 328
f 329 319 320 330
g filter_6
usemtl living_pale
f 341 339 337 335 333 331
f 332 334 336 338 340 342
f 331 333 334 332
f 333 335 336 334
f 335 337 338 336
f 337 339 340 338
f 339 341 342 340
f 341 331 332 342
g crown_6
usemtl living_pale
f 343 344 351 350
f 344 345 352 351
f 345 346 353 352
f 346 347 354 353
f 347 348 355 354
f 348 349 356 355
f 349 343 350 356
f 350 351 358 357
f 351 352 359 358
f 352 353 360 359
f 353 354 361 360
f 354 355 362 361
f 355 356 363 362
f 356 350 357 363
f 357 358 365 364
f 358 359 366 365
f 359 360 367 366
f 360 361 368 367
f 361 362 369 368
f 362 363 370 369
f 363 357 364 370
g filter_7
usemtl living_teal
f 381 379 377 375 373 371
f 372 374 376 378 380 382
f 371 373 374 372
f 373 375 376 374
f 375 377 378 376
f 377 379 380 378
f 379 381 382 380
f 381 371 372 382
g filter_8
usemtl living_teal
f 393 391 389 387 385 383
f 384 386 388 390 392 394
f 383 385 386 384
f 385 387 388 386
f 387 389 390 388
f 389 391 392 390
f 391 393 394 392
f 393 383 384 394
g branch_8
usemtl living_teal
f 403 401 399 397 395
f 396 398 400 402 404
f 395 397 398 396
f 397 399 400 398
f 399 401 402 400
f 401 403 404 402
f 403 395 396 404
g filter_9
usemtl living_pale
f 415 413 411 409 407 405
f 406 408 410 412 414 416
f 405 407 408 406
f 407 409 410 408
f 409 411 412 410
f 411 413 414 412
f 413 415 416 414
f 415 405 406 416
g crown_9
usemtl living_pale
f 417 418 425 424
f 418 419 426 425
f 419 420 427 426
f 420 421 428 427
f 421 422 429 428
f 422 423 430 429
f 423 417 424 430
f 424 425 432 431
f 425 426 433 432
f 426 427 434 433
f 427 428 435 434
f 428 429 436 435
f 429 430 437 436
f 430 424 431 437
f 431 432 439 438
f 432 433 440 439
f 433 434 441 440
f 434 435 442 441
f 435 436 443 442
f 436 437 444 443
f 437 431 438 444
g filter_10
usemtl living_teal
f 455 453 451 449 447 445
f 446 448 450 452 454 456
f 445 447 448 446
f 447 449 450 448
f 449 451 452 450
f 451 453 454 452
f 453 455 456 454
f 455 445 446 456
g filter_11
usemtl living_teal
f 467 465 463 461 459 457
f 458 460 462 464 466 468
f 457 459 460 458
f 459 461 462 460
f 461 463 464 462
f 463 465 466 464
f 465 467 468 466
f 467 457 458 468
g filter_12
usemtl living_pale
f 479 477 475 473 471 469
f 470 472 474 476 478 480
f 469 471 472 470
f 471 473 474 472
f 473 475 476 474
f 475 477 478 476
f 477 479 480 478
f 479 469 470 480
g crown_12
usemtl living_pale
f 481 482 489 488
f 482 483 490 489
f 483 484 491 490
f 484 485 492 491
f 485 486 493 492
f 486 487 494 493
f 487 481 488 494
f 488 489 496 495
f 489 490 497 496
f 490 491 498 497
f 491 492 499 498
f 492 493 500 499
f 493 494 501 500
f 494 488 495 501
f 495 496 503 502
f 496 497 504 503
f 497 498 505 504
f 498 499 506 505
f 499 500 507 506
f 500 501 508 507
f 501 495 502 508
g filter_13
usemtl living_teal
f 519 517 515 513 511 509
f 510 512 514 516 518 520
f 509 511 512 510
f 511 513 514 512
f 513 515 516 514
f 515 517 518 516
f 517 519 520 518
f 519 509 510 520
g filter_14
usemtl living_teal
f 531 529 527 525 523 521
f 522 524 526 528 530 532
f 521 523 524 522
f 523 525 526 524
f 525 527 528 526
f 527 529 530 528
f 529 531 532 530
f 531 521 522 532
g filter_15
usemtl living_pale
f 543 541 539 537 535 533
f 534 536 538 540 542 544
f 533 535 536 534
f 535 537 538 536
f 537 539 540 538
f 539 541 542 540
f 541 543 544 542
f 543 533 534 544
g crown_15
usemtl living_pale
f 545 546 553 552
f 546 547 554 553
f 547 548 555 554
f 548 549 556 555
f 549 550 557 556
f 550 551 558 557
f 551 545 552 558
f 552 553 560 559
f 553 554 561 560
f 554 555 562 561
f 555 556 563 562
f 556 557 564 563
f 557 558 565 564
f 558 552 559 565
f 559 560 567 566
f 560 561 568 567
f 561 562 569 568
f 562 563 570 569
f 563 564 571 570
f 564 565 572 571
f 565 559 566 572
g filter_16
usemtl living_teal
f 583 581 579 577 575 573
f 574 576 578 580 582 584
f 573 575 576 574
f 575 577 578 576
f 577 579 580 578
f 579 581 582 580
f 581 583 584 582
f 583 573 574 584
g branch_16
usemtl living_teal
f 593 591 589 587 585
f 586 588 590 592 594
f 585 587 588 586
f 587 589 590 588
f 589 591 592 590
f 591 593 594 592
f 593 585 586 594
g filter_17
usemtl living_teal
f 605 603 601 599 597 595
f 596 598 600 602 604 606
f 595 597 598 596
f 597 599 600 598
f 599 601 602 600
f 601 603 604 602
f 603 605 606 604
f 605 595 596 606
g filter_18
usemtl living_pale
f 617 615 613 611 609 607
f 608 610 612 614 616 618
f 607 609 610 608
f 609 611 612 610
f 611 613 614 612
f 613 615 616 614
f 615 617 618 616
f 617 607 608 618
g crown_18
usemtl living_pale
f 619 620 627 626
f 620 621 628 627
f 621 622 629 628
f 622 623 630 629
f 623 624 631 630
f 624 625 632 631
f 625 619 626 632
f 626 627 634 633
f 627 628 635 634
f 628 629 636 635
f 629 630 637 636
f 630 631 638 637
f 631 632 639 638
f 632 626 633 639
f 633 634 641 640
f 634 635 642 641
f 635 636 643 642
f 636 637 644 643
f 637 638 645 644
f 638 639 646 645
f 639 633 640 646
g filter_cup_0
usemtl living_pale
f 647 648 656 655
f 648 649 657 656
f 649 650 658 657
f 650 651 659 658
f 651 652 660 659
f 652 653 661 660
f 653 654 662 661
f 654 647 655 662
f 655 656 664 663
f 656 657 665 664
f 657 658 666 665
f 658 659 667 666
f 659 660 668 667
f 660 661 669 668
f 661 662 670 669
f 662 655 663 670
f 663 664 672 671
f 664 665 673 672
f 665 666 674 673
f 666 667 675 674
f 667 668 676 675
f 668 669 677 676
f 669 670 678 677
f 670 663 671 678
g filter_cup_1
usemtl living_pale
f 679 680 688 687
f 680 681 689 688
f 681 682 690 689
f 682 683 691 690
f 683 684 692 691
f 684 685 693 692
f 685 686 694 693
f 686 679 687 694
f 687 688 696 695
f 688 689 697 696
f 689 690 698 697
f 690 691 699 698
f 691 692 700 699
f 692 693 701 700
f 693 694 702 701
f 694 687 695 702
f 695 696 704 703
f 696 697 705 704
f 697 698 706 705
f 698 699 707 706
f 699 700 708 707
f 700 701 709 708
f 701 702 710 709
f 702 695 703 710
g filter_cup_2
usemtl living_pale
f 711 712 720 719
f 712 713 721 720
f 713 714 722 721
f 714 715 723 722
f 715 716 724 723
f 716 717 725 724
f 717 718 726 725
f 718 711 719 726
f 719 720 728 727
f 720 721 729 728
f 721 722 730 729
f 722 723 731 730
f 723 724 732 731
f 724 725 733 732
f 725 726 734 733
f 726 719 727 734
f 727 728 736 735
f 728 729 737 736
f 729 730 738 737
f 730 731 739 738
f 731 732 740 739
f 732 733 741 740
f 733 734 742 741
f 734 727 735 742
g filter_cup_3
usemtl living_pale
f 743 744 752 751
f 744 745 753 752
f 745 746 754 753
f 746 747 755 754
f 747 748 756 755
f 748 749 757 756
f 749 750 758 757
f 750 743 751 758
f 751 752 760 759
f 752 753 761 760
f 753 754 762 761
f 754 755 763 762
f 755 756 764 763
f 756 757 765 764
f 757 758 766 765
f 758 751 759 766
f 759 760 768 767
f 760 761 769 768
f 761 762 770 769
f 762 763 771 770
f 763 764 772 771
f 764 765 773 772
f 765 766 774 773
f 766 759 767 774
