# Generated environment blockout: vegetation_mat_a
mtllib environment_blockout.mtl
o vegetation_mat_a
v -2.2 0.0 -0.7
v -2.2 0.0 -0.7
v -2.2 0.0 -0.7
v -2.2 0.0 -0.7
v -2.2 0.0 -0.7
v -2.2 0.0 -0.7
v -2.2 0.0 -0.7
v -2.2 0.0 -0.7
v -2.2 0.0 -0.7
v -2.2 0.0 -0.7
v -2.2 0.0 -0.7
v -2.2 0.0 -0.7
v 0.05167 0.04 -0.7
v -0.25 0.04 0.03612
v -1.07417 0.04 0.575
v -2.2 0.04 0.77224
v -3.32583 0.04 0.575
v -4.15 0.04 0.03612
v -4.45167 0.04 -0.7
v -4.15 0.04 -1.43612
v -3.32583 0.04 -1.975
v -2.2 0.04 -2.17224
v -1.07417 0.04 -1.975
v -0.25 0.04 -1.43612
v 0.05167 0.12 -0.7
v -0.25 0.12 0.03612
v -1.07417 0.12 0.575
v -2.2 0.12 0.77224
v -3.32583 0.12 0.575
v -4.15 0.12 0.03612
v -4.45167 0.12 -0.7
v -4.15 0.12 -1.43612
v -3.32583 0.12 -1.975
v -2.2 0.12 -2.17224
v -1.07417 0.12 -1.975
v -0.25 0.12 -1.43612
v -2.2 0.16 -0.7
v -2.2 0.16 -0.7
v -2.2 0.16 -0.7
v -2.2 0.16 -0.7
v -2.2 0.16 -0.7
v -2.2 0.16 -0.7
v -2.2 0.16 -0.7
v -2.2 0.16 -0.7
v -2.2 0.16 -0.7
v -2.2 0.16 -0.7
v -2.2 0.16 -0.7
v -2.2 0.16 -0.7
v 1.0 0.0 0.3
v 1.0 0.0 0.3
v 1.0 0.0 0.3
v 1.0 0.0 0.3
v 1.0 0.0 0.3
v 1.0 0.0 0.3
v 1.0 0.0 0.3
v 1.0 0.0 0.3
v 1.0 0.0 0.3
v 1.0 0.0 0.3
v 1.0 0.0 0.3
v 1.0 0.0 0.3
v 3.59808 0.04 0.3
v 3.25 0.04 1.12272
v 2.29904 0.04 1.725
v 1.0 0.04 1.94545
v -0.29904 0.04 1.725
v -1.25 0.04 1.12272
v -1.59808 0.04 0.3
v -1.25 0.04 -0.52272
v -0.29904 0.04 -1.125
v 1.0 0.04 -1.34545
v 2.29904 0.04 -1.125
v 3.25 0.04 -0.52272
v 3.59808 0.12 0.3
v 3.25 0.12 1.12272
v 2.29904 0.12 1.725
v 1.0 0.12 1.94545
v -0.29904 0.12 1.725
v -1.25 0.12 1.12272
v -1.59808 0.12 0.3
v -1.25 0.12 -0.52272
v -0.29904 0.12 -1.125
v 1.0 0.12 -1.34545
v 2.29904 0.12 -1.125
v 3.25 0.12 -0.52272
v 1.0 0.16 0.3
v 1.0 0.16 0.3
v 1.0 0.16 0.3
v 1.0 0.16 0.3
v 1.0 0.16 0.3
v 1.0 0.16 0.3
v 1.0 0.16 0.3
v 1.0 0.16 0.3
v 1.0 0.16 0.3
v 1.0 0.16 0.3
v 1.0 0.16 0.3
v 1.0 0.16 0.3
v 2.6 0.0 -1.1
v 2.6 0.0 -1.1
v 2.6 0.0 -1.1
v 2.6 0.0 -1.1
v 2.6 0.0 -1.1
v 2.6 0.0 -1.1
v 2.6 0.0 -1.1
v 2.6 0.0 -1.1
v 2.6 0.0 -1.1
v 2.6 0.0 -1.1
v 2.6 0.0 -1.1
v 2.6 0.0 -1.1
v 4.24545 0.04 -1.1
v 4.025 0.04 -0.53708
v 3.42272 0.04 -0.125
v 2.6 0.04 0.02583
v 1.77728 0.04 -0.125
v 1.175 0.04 -0.53708
v 0.95455 0.04 -1.1
v 1.175 0.04 -1.66292
v 1.77728 0.04 -2.075
v 2.6 0.04 -2.22583
v 3.42272 0.04 -2.075
v 4.025 0.04 -1.66292
v 4.24545 0.12 -1.1
v 4.025 0.12 -0.53708
v 3.42272 0.12 -0.125
v 2.6 0.12 0.02583
v 1.77728 0.12 -0.125
v 1.175 0.12 -0.53708
v 0.95455 0.12 -1.1
v 1.175 0.12 -1.66292
v 1.77728 0.12 -2.075
v 2.6 0.12 -2.22583
v 3.42272 0.12 -2.075
v 4.025 0.12 -1.66292
v 2.6 0.16 -1.1
v 2.6 0.16 -1.1
v 2.6 0.16 -1.1
v 2.6 0.16 -1.1
v 2.6 0.16 -1.1
v 2.6 0.16 -1.1
v 2.6 0.16 -1.1
v 2.6 0.16 -1.1
v 2.6 0.16 -1.1
v 2.6 0.16 -1.1
v 2.6 0.16 -1.1
v 2.6 0.16 -1.1
v -0.3 0.0 1.7
v -0.3 0.0 1.7
v -0.3 0.0 1.7
v -0.3 0.0 1.7
v -0.3 0.0 1.7
v -0.3 0.0 1.7
v -0.3 0.0 1.7
v -0.3 0.0 1.7
v -0.3 0.0 1.7
v -0.3 0.0 1.7
v -0.3 0.0 1.7
v -0.3 0.0 1.7
v 1.77846 0.04 1.7
v 1.5 0.04 2.17631
v 0.73923 0.04 2.525
v -0.3 0.04 2.65263
v -1.33923 0.04 2.525
v -2.1 0.04 2.17631
v -2.37846 0.04 1.7
v -2.1 0.04 1.22369
v -1.33923 0.04 0.875
v -0.3 0.04 0.74737
v 0.73923 0.04 0.875
v 1.5 0.04 1.22369
v 1.77846 0.12 1.7
v 1.5 0.12 2.17631
v 0.73923 0.12 2.525
v -0.3 0.12 2.65263
v -1.33923 0.12 2.525
v -2.1 0.12 2.17631
v -2.37846 0.12 1.7
v -2.1 0.12 1.22369
v -1.33923 0.12 0.875
v -0.3 0.12 0.74737
v 0.73923 0.12 0.875
v 1.5 0.12 1.22369
v -0.3 0.16 1.7
v -0.3 0.16 1.7
v -0.3 0.16 1.7
v -0.3 0.16 1.7
v -0.3 0.16 1.7
v -0.3 0.16 1.7
v -0.3 0.16 1.7
v -0.3 0.16 1.7
v -0.3 0.16 1.7
v -0.3 0.16 1.7
v -0.3 0.16 1.7
v -0.3 0.16 1.7
v 0.92 0.06 -0.095
v 1.1 0.65 -0.095
v 0.84131 0.08401 -0.0475
v 1.02131 0.67401 -0.0475
v 0.84131 0.08401 0.0475
v 1.02131 0.67401 0.0475
v 0.92 0.06 0.095
v 1.1 0.65 0.095
v 0.99869 0.03599 0.0475
v 1.17869 0.62599 0.0475
v 0.99869 0.03599 -0.0475
v 1.17869 0.62599 -0.0475
v 1.1 0.57 0.0
v 1.1 0.57 0.0
v 1.1 0.57 0.0
v 1.1 0.57 0.0
v 1.1 0.57 -0.0
v 1.1 0.57 -0.0
v 1.1 0.57 -0.0
v 1.29053 0.635 0.0
v 1.21879 0.635 0.14896
v 1.0576 0.635 0.18575
v 0.92834 0.635 0.08267
v 0.92834 0.635 -0.08267
v 1.0576 0.635 -0.18575
v 1.21879 0.635 -0.14896
v 1.29053 0.765 0.0
v 1.21879 0.765 0.14896
v 1.0576 0.765 0.18575
v 0.92834 0.765 0.08267
v 0.92834 0.765 -0.08267
v 1.0576 0.765 -0.18575
v 1.21879 0.765 -0.14896
v 1.1 0.83 0.0
v 1.1 0.83 0.0
v 1.1 0.83 0.0
v 1.1 0.83 0.0
v 1.1 0.83 -0.0
v 1.1 0.83 -0.0
v 1.1 0.83 -0.0
v -1.95879 0.07084 1.06429
v -2.17906 1.36084 1.26647
v -2.01856 0.05546 1.09731
v -2.23884 1.34546 1.29949
v -2.01856 0.04462 1.16646
v -2.23884 1.33462 1.36865
v -1.95879 0.04916 1.2026
v -2.17906 1.33916 1.40479
v -1.89901 0.06454 1.16959
v -2.11929 1.35454 1.37177
v -1.89901 0.07538 1.10043
v -2.11929 1.36538 1.30261
v 0.37602 0.04602 -2.83084
v 0.38879 0.77602 -2.97962
v 0.31541 0.05403 -2.79675
v 0.32818 0.78403 -2.94554
v 0.31541 0.06801 -2.72816
v 0.32818 0.79801 -2.87695
v 0.37602 0.07398 -2.69366
v 0.38879 0.80398 -2.84244
v 0.43664 0.06597 -2.72774
v 0.44941 0.79597 -2.87653
v 0.43664 0.05199 -2.79633
v 0.44941 0.78199 -2.94512
v 1.4721 0.06267 1.13333
v 1.51418 1.49267 1.18789
v 1.41151 0.06311 1.16837
v 1.45359 1.49311 1.22293
v 1.41151 0.06045 1.23832
v 1.45359 1.49045 1.29288
v 1.4721 0.05733 1.27323
v 1.51418 1.48733 1.32779
v 1.5327 0.05689 1.23819
v 1.57478 1.48689 1.29275
v 1.5327 0.05955 1.16824
v 1.57478 1.48955 1.2228
v 1.51418 1.41 1.25784
v 1.51418 1.41 1.25784
v 1.51418 1.41 1.25784
v 1.51418 1.41 1.25784
v 1.51418 1.41 1.25784
v 1.51418 1.41 1.25784
v 1.51418 1.41 1.25784
v 1.70471 1.475 1.25784
v 1.63297 1.475 1.4068
v 1.47179 1.475 1.44359
v 1.34253 1.475 1.3405
v 1.34253 1.475 1.17517
v 1.47179 1.475 1.07209
v 1.63297 1.475 1.10888
v 1.70471 1.605 1.25784
v 1.63297 1.605 1.4068
v 1.47179 1.605 1.44359
v 1.34253 1.605 1.3405
v 1.34253 1.605 1.17517
v 1.47179 1.605 1.07209
v 1.63297 1.605 1.10888
v 1.51418 1.67 1.25784
v 1.51418 1.67 1.25784
v 1.51418 1.67 1.25784
v 1.51418 1.67 1.25784
v 1.51418 1.67 1.25784
v 1.51418 1.67 1.25784
v 1.51418 1.67 1.25784
v -4.08853 0.05555 -0.54059
v -4.32432 0.92555 -0.58137
v -4.16794 0.0363 -0.49214
v -4.40374 0.9063 -0.53291
v -4.16794 0.04075 -0.39724
v -4.40374 0.91075 -0.43802
v -4.08853 0.06445 -0.3508
v -4.32432 0.93445 -0.39157
v -4.00911 0.0837 -0.39926
v -4.24491 0.9537 -0.44003
v -4.00911 0.07925 -0.49415
v -4.24491 0.94925 -0.53492
v -4.10312 0.5115 -0.40313
v -3.75312 0.7254 -0.28313
v -4.07278 0.47445 -0.4256
v -3.72278 0.68835 -0.3056
v -4.0642 0.4886 -0.47584
v -3.7142 0.7025 -0.35584
v -4.08924 0.5344 -0.48443
v -3.73924 0.7483 -0.36443
v -4.1133 0.54855 -0.43949
v -3.7633 0.76245 -0.31949
v 1.81859 0.05338 -0.80678
v 2.0506 1.62338 -0.95594
v 1.75861 0.06547 -0.77277
v 1.99062 1.63547 -0.92193
v 1.75861 0.07209 -0.70308
v 1.99062 1.64209 -0.85224
v 1.81859 0.06662 -0.6674
v 2.0506 1.63662 -0.81656
v 1.87857 0.05453 -0.70141
v 2.11057 1.62453 -0.85057
v 1.87857 0.04791 -0.7711
v 2.11057 1.61791 -0.92026
v -0.99088 0.06641 2.30883
v -1.01527 1.07641 2.4017
v -1.05148 0.06175 2.34355
v -1.07587 1.07175 2.43642
v -1.05148 0.05534 2.41326
v -1.07587 1.06534 2.50612
v -0.99088 0.05359 2.44824
v -1.01527 1.06359 2.54111
v -0.93027 0.05825 2.41352
v -0.95466 1.06825 2.50639
v -0.93027 0.06466 2.34382
v -0.95466 1.07466 2.43668
v -1.01527 0.99 2.4714
v -1.01527 0.99 2.4714
v -1.01527 0.99 2.4714
v -1.01527 0.99 2.4714
v -1.01527 0.99 2.4714
v -1.01527 0.99 2.4714
v -1.01527 0.99 2.4714
v -0.82474 1.055 2.4714
v -0.89648 1.055 2.62036
v -1.05766 1.055 2.65715
v -1.18692 1.055 2.55407
v -1.18692 1.055 2.38874
v -1.05766 1.055 2.28565
v -0.89648 1.055 2.32244
v -0.82474 1.185 2.4714
v -0.89648 1.185 2.62036
v -1.05766 1.185 2.65715
v -1.18692 1.185 2.55407
v -1.18692 1.185 2.38874
v -1.05766 1.185 2.28565
v -0.89648 1.185 2.32244
v -1.01527 1.25 2.4714
v -1.01527 1.25 2.4714
v -1.01527 1.25 2.4714
v -1.01527 1.25 2.4714
v -1.01527 1.25 2.4714
v -1.01527 1.25 2.4714
v -1.01527 1.25 2.4714
v -0.89342 0.05617 -1.13674
v -0.94283 1.76617 -1.23032
v -0.95402 0.05634 -1.1017
v -1.00343 1.76634 -1.19528
v -0.95402 0.06017 -1.0318
v -1.00343 1.77017 -1.12538
v -0.89342 0.06383 -0.99695
v -0.94283 1.77383 -1.09053
v -0.83283 0.06366 -1.03199
v -0.88223 1.77366 -1.12557
v -0.83283 0.05983 -1.10189
v -0.88223 1.76983 -1.19547
v 3.44033 0.06783 0.67851
v 3.70699 1.21783 0.77358
v 3.36017 0.08237 0.72738
v 3.62683 1.23237 0.82244
v 3.36017 0.07455 0.82206
v 3.62683 1.22455 0.91712
v 3.44033 0.05217 0.86787
v 3.70699 1.20217 0.96293
v 3.52049 0.03763 0.819
v 3.78715 1.18763 0.91407
v 3.52049 0.04545 0.72433
v 3.78715 1.19545 0.81939
v 3.42574 0.6655 0.81576
v 3.77574 0.9438 0.93576
v 3.46016 0.6313 0.79469
v 3.81016 0.9096 0.91469
v 3.46718 0.64436 0.74391
v 3.81718 0.92266 0.86391
v 3.4371 0.68664 0.7336
v 3.7871 0.96494 0.8536
v 3.41148 0.6997 0.778
v 3.76148 0.978 0.898
v -1.53365 0.0704 0.33973
v -1.74328 0.6604 0.4284
v -1.59085 0.04533 0.37136
v -1.80048 0.63533 0.46002
v -1.59085 0.03493 0.44058
v -1.80048 0.62493 0.52925
v -1.53365 0.0496 0.47818
v -1.74328 0.6396 0.56684
v -1.47646 0.07467 0.44655
v -1.68609 0.66467 0.53522
v -1.47646 0.08507 0.37733
v -1.68609 0.67507 0.466
v -1.74328 0.57 0.49762
v -1.74328 0.57 0.49762
v -1.74328 0.57 0.49762
v -1.74328 0.57 0.49762
v -1.74328 0.57 0.49762
v -1.74328 0.57 0.49762
v -1.74328 0.57 0.49762
v -1.55276 0.635 0.49762
v -1.62449 0.635 0.64658
v -1.78568 0.635 0.68337
v -1.91494 0.635 0.58029
v -1.91494 0.635 0.41496
v -1.78568 0.635 0.31187
v -1.62449 0.635 0.34866
v -1.55276 0.765 0.49762
v -1.62449 0.765 0.64658
v -1.78568 0.765 0.68337
v -1.91494 0.765 0.58029
v -1.91494 0.765 0.41496
v -1.78568 0.765 0.31187
v -1.62449 0.765 0.34866
v -1.74328 0.83 0.49762
v -1.74328 0.83 0.49762
v -1.74328 0.83 0.49762
v -1.74328 0.83 0.49762
v -1.74328 0.83 0.49762
v -1.74328 0.83 0.49762
v -1.74328 0.83 0.49762
v 1.41301 0.05681 -2.0223
v 1.43984 1.34681 -2.0811
v 1.3524 0.05966 -1.9874
v 1.37923 1.34966 -2.0462
v 1.3524 0.06285 -1.91747
v 1.37923 1.35285 -1.97627
v 1.41301 0.06319 -1.88245
v 1.43984 1.35319 -1.94125
v 1.47362 0.06034 -1.91736
v 1.50045 1.35034 -1.97616
v 1.47362 0.05715 -1.98728
v 1.50045 1.34715 -2.04608
v 0.43832 0.07446 0.78089
v 0.48848 0.80446 0.93506
v 0.37784 0.07121 0.81597
v 0.428 0.80121 0.97014
v 0.37784 0.05675 0.88446
v 0.428 0.78675 1.03863
v 0.43832 0.04554 0.91787
v 0.48848 0.77554 1.07203
v 0.49881 0.04879 0.88278
v 0.54897 0.77879 1.03695
v 0.49881 0.06325 0.81429
v 0.54897 0.79325 0.96846
v -2.74837 0.05026 -1.07204
v -3.00963 1.48026 -1.21944
v -2.82931 0.0405 -1.02328
v -3.09058 1.4705 -1.17068
v -2.82931 0.05024 -0.92878
v -3.09058 1.48024 -1.07618
v -2.74837 0.06974 -0.88304
v -3.00963 1.49974 -1.03044
v -2.66742 0.0795 -0.9318
v -2.92868 1.5095 -1.0792
v -2.66742 0.06976 -1.0263
v -2.92868 1.49976 -1.1737
v -3.00963 1.41 -1.12494
v -3.00963 1.41 -1.12494
v -3.00963 1.41 -1.12494
v -3.00963 1.41 -1.12494
v -3.00963 1.41 -1.12494
v -3.00963 1.41 -1.12494
v -3.00963 1.41 -1.12494
v -2.8191 1.475 -1.12494
v -2.89084 1.475 -0.97598
v -3.05203 1.475 -0.93919
v -3.18129 1.475 -1.04227
v -3.18129 1.475 -1.2076
v -3.05203 1.475 -1.31069
v -2.89084 1.475 -1.2739
v -2.8191 1.605 -1.12494
v -2.89084 1.605 -0.97598
v -3.05203 1.605 -0.93919
v -3.18129 1.605 -1.04227
v -3.18129 1.605 -1.2076
v -3.05203 1.605 -1.31069
v -2.89084 1.605 -1.2739
v -3.00963 1.67 -1.12494
v -3.00963 1.67 -1.12494
v -3.00963 1.67 -1.12494
v -3.00963 1.67 -1.12494
v -3.00963 1.67 -1.12494
v -3.00963 1.67 -1.12494
v -3.00963 1.67 -1.12494
v 1.13792 0.05695 -0.23709
v 1.30052 0.92695 -0.27498
v 1.07833 0.06959 -0.20261
v 1.24093 0.93959 -0.2405
v 1.07833 0.07264 -0.13268
v 1.24093 0.94264 -0.17056
v 1.13792 0.06305 -0.09722
v 1.30052 0.93305 -0.13511
v 1.19751 0.05041 -0.13171
v 1.36012 0.92041 -0.1696
v 1.19751 0.04736 -0.20164
v 1.36012 0.91736 -0.23953
v -1.63979 0.06233 1.44346
v -1.67555 1.63233 1.4958
v -1.7004 0.05979 1.4784
v -1.73615 1.62979 1.53074
v -1.7004 0.05746 1.54836
v -1.73615 1.62746 1.6007
v -1.63979 0.05767 1.58338
v -1.67555 1.62767 1.63572
v -1.57919 0.06021 1.54845
v -1.61494 1.63021 1.60079
v -1.57919 0.06254 1.47849
v -1.61494 1.63254 1.53083
v -0.1314 0.04505 -0.64244
v -0.16326 1.05505 -0.86324
v -0.19199 0.0507 -0.60785
v -0.22385 1.0607 -0.82865
v -0.19199 0.06565 -0.53946
v -0.22385 1.07565 -0.76026
v -0.1314 0.07495 -0.50567
v -0.16326 1.08495 -0.72647
v -0.07081 0.0693 -0.54026
v -0.10267 1.0793 -0.76106
v -0.07081 0.05435 -0.60865
v -0.10267 1.06435 -0.82944
v -0.16326 0.99 -0.79485
v -0.16326 0.99 -0.79485
v -0.16326 0.99 -0.79485
v -0.16326 0.99 -0.79485
v -0.16326 0.99 -0.79485
v -0.16326 0.99 -0.79485
v -0.16326 0.99 -0.79485
v 0.02726 1.055 -0.79485
v -0.04447 1.055 -0.64589
v -0.20566 1.055 -0.6091
v -0.33492 1.055 -0.71219
v -0.33492 1.055 -0.87752
v -0.20566 1.055 -0.9806
v -0.04447 1.055 -0.94381
v 0.02726 1.185 -0.79485
v -0.04447 1.185 -0.64589
v -0.20566 1.185 -0.6091
v -0.33492 1.185 -0.71219
v -0.33492 1.185 -0.87752
v -0.20566 1.185 -0.9806
v -0.04447 1.185 -0.94381
v -0.16326 1.25 -0.79485
v -0.16326 1.25 -0.79485
v -0.16326 1.25 -0.79485
v -0.16326 1.25 -0.79485
v -0.16326 1.25 -0.79485
v -0.16326 1.25 -0.79485
v -0.16326 1.25 -0.79485
v 2.05921 0.06998 0.96587
v 2.28034 1.77998 1.14648
v 1.97761 0.07542 1.01421
v 2.19874 1.78542 1.19482
v 1.97761 0.06545 1.10868
v 2.19874 1.77545 1.28929
v 2.05921 0.05002 1.15482
v 2.28034 1.76002 1.33543
v 2.14081 0.04458 1.10648
v 2.36194 1.75458 1.28709
v 2.14081 0.05455 1.012
v 2.36194 1.76455 1.19261
v 2.04462 0.9735 1.10291
v 2.39462 1.3806 1.22291
v 2.08466 0.94472 1.08377
v 2.43466 1.35182 1.20377
v 2.08954 0.95571 1.03225
v 2.43954 1.36281 1.15225
v 2.0525 0.99129 1.01956
v 2.4025 1.39839 1.13956
v 2.02474 1.00228 1.06322
v 2.37474 1.40938 1.18322
v -4.39028 0.06039 0.08989
v -4.49982 1.21039 0.09622
v -4.45063 0.05444 0.12486
v -4.56017 1.20444 0.13119
v -4.45063 0.05406 0.19486
v -4.56017 1.20406 0.20119
v -4.39028 0.05961 0.22989
v -4.49982 1.20961 0.23622
v -4.32993 0.06556 0.19492
v -4.43947 1.21556 0.20125
v -4.32993 0.06594 0.12492
v -4.43947 1.21594 0.13125
v 1.67883 0.05217 -1.15997
v 1.74332 0.64217 -1.22641
v 1.61856 0.06259 -1.12592
v 1.68305 0.65259 -1.19237
v 1.61856 0.07042 -1.05636
v 1.68305 0.66042 -1.12281
v 1.67883 0.06783 -1.02085
v 1.74332 0.65783 -1.08729
v 1.7391 0.05741 -1.0549
v 1.80359 0.64741 -1.12134
v 1.7391 0.04958 -1.12446
v 1.80359 0.63958 -1.1909
v 1.74332 0.57 -1.15685
v 1.74332 0.57 -1.15685
v 1.74332 0.57 -1.15685
v 1.74332 0.57 -1.15685
v 1.74332 0.57 -1.15685
v 1.74332 0.57 -1.15685
v 1.74332 0.57 -1.15685
v 1.93385 0.635 -1.15685
v 1.86211 0.635 -1.00789
v 1.70093 0.635 -0.9711
v 1.57166 0.635 -1.07419
v 1.57166 0.635 -1.23952
v 1.70093 0.635 -1.3426
v 1.86211 0.635 -1.30581
v 1.93385 0.765 -1.15685
v 1.86211 0.765 -1.00789
v 1.70093 0.765 -0.9711
v 1.57166 0.765 -1.07419
v 1.57166 0.765 -1.23952
v 1.70093 0.765 -1.3426
v 1.86211 0.765 -1.30581
v 1.74332 0.83 -1.15685
v 1.74332 0.83 -1.15685
v 1.74332 0.83 -1.15685
v 1.74332 0.83 -1.15685
v 1.74332 0.83 -1.15685
v 1.74332 0.83 -1.15685
v 1.74332 0.83 -1.15685
v -2.8 0.06 1.1
v -2.8 0.06 1.1
v -2.8 0.06 1.1
v -2.8 0.06 1.1
v -2.8 0.06 1.1
v -2.8 0.06 1.1
v -2.8 0.06 1.1
v -2.8 0.06 1.1
v -2.43627 0.15 1.1
v -2.5428 0.15 1.3572
v -2.8 0.15 1.46373
v -3.0572 0.15 1.3572
v -3.16373 0.15 1.1
v -3.0572 0.15 0.8428
v -2.8 0.15 0.73627
v -2.5428 0.15 0.8428
v -2.43627 0.33 1.1
v -2.5428 0.33 1.3572
v -2.8 0.33 1.46373
v -3.0572 0.33 1.3572
v -3.16373 0.33 1.1
v -3.0572 0.33 0.8428
v -2.8 0.33 0.73627
v -2.5428 0.33 0.8428
v -2.8 0.42 1.1
v -2.8 0.42 1.1
v -2.8 0.42 1.1
v -2.8 0.42 1.1
v -2.8 0.42 1.1
v -2.8 0.42 1.1
v -2.8 0.42 1.1
v -2.8 0.42 1.1
v -1.1 0.06 -1.4
v -1.1 0.06 -1.4
v -1.1 0.06 -1.4
v -1.1 0.06 -1.4
v -1.1 0.06 -1.4
v -1.1 0.06 -1.4
v -1.1 0.06 -1.4
v -1.1 0.06 -1.4
v -0.78823 0.15 -1.4
v -0.87955 0.15 -1.17955
v -1.1 0.15 -1.08823
v -1.32045 0.15 -1.17955
v -1.41177 0.15 -1.4
v -1.32045 0.15 -1.62045
v -1.1 0.15 -1.71177
v -0.87955 0.15 -1.62045
v -0.78823 0.33 -1.4
v -0.87955 0.33 -1.17955
v -1.1 0.33 -1.08823
v -1.32045 0.33 -1.17955
v -1.41177 0.33 -1.4
v -1.32045 0.33 -1.62045
v -1.1 0.33 -1.71177
v -0.87955 0.33 -1.62045
v -1.1 0.42 -1.4
v -1.1 0.42 -1.4
v -1.1 0.42 -1.4
v -1.1 0.42 -1.4
v -1.1 0.42 -1.4
v -1.1 0.42 -1.4
v -1.1 0.42 -1.4
v -1.1 0.42 -1.4
v 0.7 0.06 1.6
v 0.7 0.06 1.6
v 0.7 0.06 1.6
v 0.7 0.06 1.6
v 0.7 0.06 1.6
v 0.7 0.06 1.6
v 0.7 0.06 1.6
v 0.7 0.06 1.6
v 1.13301 0.15 1.6
v 1.00619 0.15 1.90619
v 0.7 0.15 2.03301
v 0.39381 0.15 1.90619
v 0.26699 0.15 1.6
v 0.39381 0.15 1.29381
v 0.7 0.15 1.16699
v 1.00619 0.15 1.29381
v 1.13301 0.33 1.6
v 1.00619 0.33 1.90619
v 0.7 0.33 2.03301
v 0.39381 0.33 1.90619
v 0.26699 0.33 1.6
v 0.39381 0.33 1.29381
v 0.7 0.33 1.16699
v 1.00619 0.33 1.29381
v 0.7 0.42 1.6
v 0.7 0.42 1.6
v 0.7 0.42 1.6
v 0.7 0.42 1.6
v 0.7 0.42 1.6
v 0.7 0.42 1.6
v 0.7 0.42 1.6
v 0.7 0.42 1.6
v 2.8 0.06 0.9
v 2.8 0.06 0.9
v 2.8 0.06 0.9
v 2.8 0.06 0.9
v 2.8 0.06 0.9
v 2.8 0.06 0.9
v 2.8 0.06 0.9
v 2.8 0.06 0.9
v 3.09445 0.15 0.9
v 3.00821 0.15 1.10821
v 2.8 0.15 1.19445
v 2.59179 0.15 1.10821
v 2.50555 0.15 0.9
v 2.59179 0.15 0.69179
v 2.8 0.15 0.60555
v 3.00821 0.15 0.69179
v 3.09445 0.33 0.9
v 3.00821 0.33 1.10821
v 2.8 0.33 1.19445
v 2.59179 0.33 1.10821
v 2.50555 0.33 0.9
v 2.59179 0.33 0.69179
v 2.8 0.33 0.60555
v 3.00821 0.33 0.69179
v 2.8 0.42 0.9
v 2.8 0.42 0.9
v 2.8 0.42 0.9
v 2.8 0.42 0.9
v 2.8 0.42 0.9
v 2.8 0.42 0.9
v 2.8 0.42 0.9
v 2.8 0.42 0.9
g mat_0
usemtl living_olive
f 1 2 14 13
f 2 3 15 14
f 3 4 16 15
f 4 5 17 16
f 5 6 18 17
f 6 7 19 18
f 7 8 20 19
f 8 9 21 20
f 9 10 22 21
f 10 11 23 22
f 11 12 24 23
f 12 1 13 24
f 13 14 26 25
f 14 15 27 26
f 15 16 28 27
f 16 17 29 28
f 17 18 30 29
f 18 19 31 30
f 19 20 32 31
f 20 21 33 32
f 21 22 34 33
f 22 23 35 34
f 23 24 36 35
f 24 13 25 36
f 25 26 38 37
f 26 27 39 38
f 27 28 40 39
f 28 29 41 40
f 29 30 42 41
f 30 31 43 42
f 31 32 44 43
f 32 33 45 44
f 33 34 46 45
f 34 35 47 46
f 35 36 48 47
f 36 25 37 48
g mat_1
usemtl living_green
f 49 50 62 61
f 50 51 63 62
f 51 52 64 63
f 52 53 65 64
f 53 54 66 65
f 54 55 67 66
f 55 56 68 67
f 56 57 69 68
f 57 58 70 69
f 58 59 71 70
f 59 60 72 71
f 60 49 61 72
f 61 62 74 73
f 62 63 75 74
f 63 64 76 75
f 64 65 77 76
f 65 66 78 77
f 66 67 79 78
f 67 68 80 79
f 68 69 81 80
f 69 70 82 81
f 70 71 83 82
f 71 72 84 83
f 72 61 73 84
f 73 74 86 85
f 74 75 87 86
f 75 76 88 87
f 76 77 89 88
f 77 78 90 89
f 78 79 91 90
f 79 80 92 91
f 80 81 93 92
f 81 82 94 93
f 82 83 95 94
f 83 84 96 95
f 84 73 85 96
g mat_2
usemtl living_olive
f 97 98 110 109
f 98 99 111 110
f 99 100 112 111
f 100 101 113 112
f 101 102 114 113
f 102 103 115 114
f 103 104 116 115
f 104 105 117 116
f 105 106 118 117
f 106 107 119 118
f 107 108 120 119
f 108 97 109 120
f 109 110 122 121
f 110 111 123 122
f 111 112 124 123
f 112 113 125 124
f 113 114 126 125
f 114 115 127 126
f 115 116 128 127
f 116 117 129 128
f 117 118 130 129
f 118 119 131 130
f 119 120 132 131
f 120 109 121 132
f 121 122 134 133
f 122 123 135 134
f 123 124 136 135
f 124 125 137 136
f 125 126 138 137
f 126 127 139 138
f 127 128 140 139
f 128 129 141 140
f 129 130 142 141
f 130 131 143 142
f 131 132 144 143
f 132 121 133 144
g mat_3
usemtl living_green
f 145 146 158 157
f 146 147 159 158
f 147 148 160 159
f 148 149 161 160
f 149 150 162 161
f 150 151 163 162
f 151 152 164 163
f 152 153 165 164
f 153 154 166 165
f 154 155 167 166
f 155 156 168 167
f 156 145 157 168
f 157 158 170 169
f 158 159 171 170
f 159 160 172 171
f 160 161 173 172
f 161 162 174 173
f 162 163 175 174
f 163 164 176 175
f 164 165 177 176
f 165 166 178 177
f 166 167 179 178
f 167 168 180 179
f 168 157 169 180
f 169 170 182 181
f 170 171 183 182
f 171 172 184 183
f 172 173 185 184
f 173 174 186 185
f 174 175 187 186
f 175 176 188 187
f 176 177 189 188
f 177 178 190 189
f 178 179 191 190
f 179 180 192 191
f 180 169 181 192
g filter_0
usemtl living_pale
f 203 201 199 197 195 193
f 194 196 198 200 202 204
f 193 195 196 194
f 195 197 198 196
f 197 199 200 198
f 199 201 202 200
f 201 203 204 202
f 203 193 194 204
g crown_0
usemtl living_pale
f 205 206 213 212
f 206 207 214 213
f 207 208 215 214
f 208 209 216 215
f 209 210 217 216
f 210 211 218 217
f 211 205 212 218
f 212 213 220 219
f 213 214 221 220
f 214 215 222 221
f 215 216 223 222
f 216 217 224 223
f 217 218 225 224
f 218 212 219 225
f 219 220 227 226
f 220 221 228 227
f 221 222 229 228
f 222 223 230 229
f 223 224 231 230
f 224 225 232 231
f 225 219 226 232
g filter_1
usemtl living_teal
f 243 241 239 237 235 233
f 234 236 238 240 242 244
f 233 235 236 234
f 235 237 238 236
f 237 239 240 238
f 239 241 242 240
f 241 243 244 242
f 243 233 234 244
g filter_2
usemtl living_teal
f 255 253 251 249 247 245
f 246 248 250 252 254 256
f 245 247 248 246
f 247 249 250 248
f 249 251 252 250
f 251 253 254 252
f 253 255 256 254
f 255 245 246 256
g filter_3
usemtl living_pale
f 267 265 263 261 259 257
f 258 260 262 264 266 268
f 257 259 260 258
f 259 261 262 260
f 261 263 264 262
f 263 265 266 264
f 265 267 268 266
f 267 257 258 268
g crown_3
usemtl living_pale
f 269 270 277 276
f 270 271 278 277
f 271 272 279 278
f 272 273 280 279
f 273 274 281 280
f 274 275 282 281
f 275 269 276 282
f 276 277 284 283
f 277 278 285 284
f 278 279 286 285
f 279 280 287 286
f 280 281 288 287
f 281 282 289 288
f 282 276 283 289
f 283 284 291 290
f 284 285 292 291
f 285 286 293 292
f 286 287 294 293
f 287 288 295 294
f 288 289 296 295
f 289 283 290 296
g filter_4
usemtl living_teal
f 307 305 303 301 299 297
f 298 300 302 304 306 308
f 297 299 300 298
f 299 301 302 300
f 301 303 304 302
f 303 305 306 304
f 305 307 308 306
f 307 297 298 308
g branch_4
usemtl living_teal
f 317 315 313 311 309
f 310 312 314 316 318
f 309 311 312 310
f 311 313 314 312
f 313 315 316 314
f 315 317 318 316
f 317 309 310 318
g filter_5
usemtl living_teal
f 329 327 325 323 321 319
f 320 322 324 326 328 330
f 319 321 322 320
f 321 323 324 322
f 323 325 326 324
f 325 327 328 326
f 327 329 330 328
f 329 319 320 330
g filter_6
usemtl living_pale
f 341 339 337 335 333 331
f 332 334 336 338 340 342
f 331 333 334 332
f 333 335 336 334
f 335 337 338 336
f 337 339 340 338
f 339 341 342 340
f 341 331 332 342
g crown_6
usemtl living_pale
f 343 344 351 350
f 344 345 352 351
f 345 346 353 352
f 346 347 354 353
f 347 348 355 354
f 348 349 356 355
f 349 343 350 356
f 350 351 358 357
f 351 352 359 358
f 352 353 360 359
f 353 354 361 360
f 354 355 362 361
f 355 356 363 362
f 356 350 357 363
f 357 358 365 364
f 358 359 366 365
f 359 360 367 366
f 360 361 368 367
f 361 362 369 368
f 362 363 370 369
f 363 357 364 370
g filter_7
usemtl living_teal
f 381 379 377 375 373 371
f 372 374 376 378 380 382
f 371 373 374 372
f 373 375 376 374
f 375 377 378 376
f 377 379 380 378
f 379 381 382 380
f 381 371 372 382
g filter_8
usemtl living_teal
f 393 391 389 387 385 383
f 384 386 388 390 392 394
f 383 385 386 384
f 385 387 388 386
f 387 389 390 388
f 389 391 392 390
f 391 393 394 392
f 393 383 384 394
g branch_8
usemtl living_teal
f 403 401 399 397 395
f 396 398 400 402 404
f 395 397 398 396
f 397 399 400 398
f 399 401 402 400
f 401 403 404 402
f 403 395 396 404
g filter_9
usemtl living_pale
f 415 413 411 409 407 405
f 406 408 410 412 414 416
f 405 407 408 406
f 407 409 410 408
f 409 411 412 410
f 411 413 414 412
f 413 415 416 414
f 415 405 406 416
g crown_9
usemtl living_pale
f 417 418 425 424
f 418 419 426 425
f 419 420 427 426
f 420 421 428 427
f 421 422 429 428
f 422 423 430 429
f 423 417 424 430
f 424 425 432 431
f 425 426 433 432
f 426 427 434 433
f 427 428 435 434
f 428 429 436 435
f 429 430 437 436
f 430 424 431 437
f 431 432 439 438
f 432 433 440 439
f 433 434 441 440
f 434 435 442 441
f 435 436 443 442
f 436 437 444 443
f 437 431 438 444
g filter_10
usemtl living_teal
f 455 453 451 449 447 445
f 446 448 450 452 454 456
f 445 447 448 446
f 447 449 450 448
f 449 451 452 450
f 451 453 454 452
f 453 455 456 454
f 455 445 446 456
g filter_11
usemtl living_teal
f 467 465 463 461 459 457
f 458 460 462 464 466 468
f 457 459 460 458
f 459 461 462 460
f 461 463 464 462
f 463 465 466 464
f 465 467 468 466
f 467 457 458 468
g filter_12
usemtl living_pale
f 479 477 475 473 471 469
f 470 472 474 476 478 480
f 469 471 472 470
f 471 473 474 472
f 473 475 476 474
f 475 477 478 476
f 477 479 480 478
f 479 469 470 480
g crown_12
usemtl living_pale
f 481 482 489 488
f 482 483 490 489
f 483 484 491 490
f 484 485 492 491
f 485 486 493 492
f 486 487 494 493
f 487 481 488 494
f 488 489 496 495
f 489 490 497 496
f 490 491 498 497
f 491 492 499 498
f 492 493 500 499
f 493 494 501 500
f 494 488 495 501
f 495 496 503 502
f 496 497 504 503
f 497 498 505 504
f 498 499 506 505
f 499 500 507 506
f 500 501 508 507
f 501 495 502 508
g filter_13
usemtl living_teal
f 519 517 515 513 511 509
f 510 512 514 516 518 520
f 509 511 512 510
f 511 513 514 512
f 513 515 516 514
f 515 517 518 516
f 517 519 520 518
f 519 509 510 520
g filter_14
usemtl living_teal
f 531 529 527 525 523 521
f 522 524 526 528 530 532
f 521 523 524 522
f 523 525 526 524
f 525 527 528 526
f 527 529 530 528
f 529 531 532 530
f 531 521 522 532
g filter_15
usemtl living_pale
f 543 541 539 537 535 533
f 534 536 538 540 542 544
f 533 535 536 534
f 535 537 538 536
f 537 539 540 538
f 539 541 542 540
f 541 543 544 542
f 543 533 534 544
g crown_15
usemtl living_pale
f 545 546 553 552
f 546 547 554 553
f 547 548 555 554
f 548 549 556 555
f 549 550 557 556
f 550 551 558 557
f 551 545 552 558
f 552 553 560 559
f 553 554 561 560
f 554 555 562 561
f 555 556 563 562
f 556 557 564 563
f 557 558 565 564
f 558 552 559 565
f 559 560 567 566
f 560 561 568 567
f 561 562 569 568
f 562 563 570 569
f 563 564 571 570
f 564 565 572 571
f 565 559 566 572
g filter_16
usemtl living_teal
f 583 581 579 577 575 573
f 574 576 578 580 582 584
f 573 575 576 574
f 575 577 578 576
f 577 579 580 578
f 579 581 582 580
f 581 583 584 582
f 583 573 574 584
g branch_16
usemtl living_teal
f 593 591 589 587 585
f 586 588 590 592 594
f 585 587 588 586
f 587 589 590 588
f 589 591 592 590
f 591 593 594 592
f 593 585 586 594
g filter_17
usemtl living_teal
f 605 603 601 599 597 595
f 596 598 600 602 604 606
f 595 597 598 596
f 597 599 600 598
f 599 601 602 600
f 601 603 604 602
f 603 605 606 604
f 605 595 596 606
g filter_18
usemtl living_pale
f 617 615 613 611 609 607
f 608 610 612 614 616 618
f 607 609 610 608
f 609 611 612 610
f 611 613 614 612
f 613 615 616 614
f 615 617 618 616
f 617 607 608 618
g crown_18
usemtl living_pale
f 619 620 627 626
f 620 621 628 627
f 621 622 629 628
f 622 623 630 629
f 623 624 631 630
f 624 625 632 631
f 625 619 626 632
f 626 627 634 633
f 627 628 635 634
f 628 629 636 635
f 629 630 637 636
f 630 631 638 637
f 631 632 639 638
f 632 626 633 639
f 633 634 641 640
f 634 635 642 641
f 635 636 643 642
f 636 637 644 643
f 637 638 645 644
f 638 639 646 645
f 639 633 640 646
g filter_cup_0
usemtl living_pale
f 647 648 656 655
f 648 649 657 656
f 649 650 658 657
f 650 651 659 658
f 651 652 660 659
f 652 653 661 660
f 653 654 662 661
f 654 647 655 662
f 655 656 664 663
f 656 657 665 664
f 657 658 666 665
f 658 659 667 666
f 659 660 668 667
f 660 661 669 668
f 661 662 670 669
f 662 655 663 670
f 663 664 672 671
f 664 665 673 672
f 665 666 674 673
f 666 667 675 674
f 667 668 676 675
f 668 669 677 676
f 669 670 678 677
f 670 663 671 678
g filter_cup_1
usemtl living_pale
f 679 680 688 687
f 680 681 689 688
f 681 682 690 689
f 682 683 691 690
f 683 684 692 691
f 684 685 693 692
f 685 686 694 693
f 686 679 687 694
f 687 688 696 695
f 688 689 697 696
f 689 690 698 697
f 690 691 699 698
f 691 692 700 699
f 692 693 701 700
f 693 694 702 701
f 694 687 695 702
f 695 696 704 703
f 696 697 705 704
f 697 698 706 705
f 698 699 707 706
f 699 700 708 707
f 700 701 709 708
f 701 702 710 709
f 702 695 703 710
g filter_cup_2
usemtl living_pale
f 711 712 720 719
f 712 713 721 720
f 713 714 722 721
f 714 715 723 722
f 715 716 724 723
f 716 717 725 724
f 717 718 726 725
f 718 711 719 726
f 719 720 728 727
f 720 721 729 728
f 721 722 730 729
f 722 723 731 730
f 723 724 732 731
f 724 725 733 732
f 725 726 734 733
f 726 719 727 734
f 727 728 736 735
f 728 729 737 736
f 729 730 738 737
f 730 731 739 738
f 731 732 740 739
f 732 733 741 740
f 733 734 742 741
f 734 727 735 742
g filter_cup_3
usemtl living_pale
f 743 744 752 751
f 744 745 753 752
f 745 746 754 753
f 746 747 755 754
f 747 748 756 755
f 748 749 757 756
f 749 750 758 757
f 750 743 751 758
f 751 752 760 759
f 752 753 761 760
f 753 754 762 761
f 754 755 763 762
f 755 756 764 763
f 756 757 765 764
f 757 758 766 765
f 758 751 759 766
f 759 760 768 767
f 760 761 769 768
f 761 762 770 769
f 762 763 771 770
f 763 764 772 771
f 764 765 773 772
f 765 766 774 773
f 766 759 767 774
