# Generated Silica Street blockout: civic_first_nursery_a
mtllib silica_street_blockout.mtl
o civic_first_nursery_a
v 0.0 0.0 0.0
v 0.0 0.0 0.0
v 0.0 0.0 0.0
v 0.0 0.0 0.0
v -0.0 0.0 0.0
v -0.0 0.0 0.0
v -0.0 0.0 0.0
v -0.0 0.0 0.0
v -0.0 0.0 -0.0
v -0.0 0.0 -0.0
v -0.0 0.0 -0.0
v 0.0 0.0 -0.0
v 0.0 0.0 -0.0
v 0.0 0.0 -0.0
v 1.9799 0.08201 0.0
v 1.78383 0.08201 0.85905
v 1.23445 0.08201 1.54795
v 0.44057 0.08201 1.93026
v -0.44057 0.08201 1.93026
v -1.23445 0.08201 1.54795
v -1.78383 0.08201 0.85905
v -1.9799 0.08201 0.0
v -1.78383 0.08201 -0.85905
v -1.23445 0.08201 -1.54795
v -0.44057 0.08201 -1.93026
v 0.44057 0.08201 -1.93026
v 1.23445 0.08201 -1.54795
v 1.78383 0.08201 -0.85905
v 2.8 0.28 0.0
v 2.52271 0.28 1.21487
v 1.74577 0.28 2.18913
v 0.62306 0.28 2.7298
v -0.62306 0.28 2.7298
v -1.74577 0.28 2.18913
v -2.52271 0.28 1.21487
v -2.8 0.28 0.0
v -2.52271 0.28 -1.21487
v -1.74577 0.28 -2.18913
v -0.62306 0.28 -2.7298
v 0.62306 0.28 -2.7298
v 1.74577 0.28 -2.18913
v 2.52271 0.28 -1.21487
v 1.9799 0.47799 0.0
v 1.78383 0.47799 0.85905
v 1.23445 0.47799 1.54795
v 0.44057 0.47799 1.93026
v -0.44057 0.47799 1.93026
v -1.23445 0.47799 1.54795
v -1.78383 0.47799 0.85905
v -1.9799 0.47799 0.0
v -1.78383 0.47799 -0.85905
v -1.23445 0.47799 -1.54795
v -0.44057 0.47799 -1.93026
v 0.44057 0.47799 -1.93026
v 1.23445 0.47799 -1.54795
v 1.78383 0.47799 -0.85905
v 0.0 0.56 0.0
v 0.0 0.56 0.0
v 0.0 0.56 0.0
v 0.0 0.56 0.0
v -0.0 0.56 0.0
v -0.0 0.56 0.0
v -0.0 0.56 0.0
v -0.0 0.56 0.0
v -0.0 0.56 -0.0
v -0.0 0.56 -0.0
v -0.0 0.56 -0.0
v 0.0 0.56 -0.0
v 0.0 0.56 -0.0
v 0.0 0.56 -0.0
v 0.0 0.22 0.0
v 0.0 0.22 0.0
v 0.0 0.22 0.0
v 0.0 0.22 0.0
v -0.0 0.22 0.0
v -0.0 0.22 0.0
v -0.0 0.22 0.0
v -0.0 0.22 0.0
v -0.0 0.22 -0.0
v -0.0 0.22 -0.0
v -0.0 0.22 -0.0
v 0.0 0.22 -0.0
v 0.0 0.22 -0.0
v 0.0 0.22 -0.0
v 1.48492 0.3518 0.0
v 1.33787 0.3518 0.64428
v 0.92584 0.3518 1.16096
v 0.33043 0.3518 1.44769
v -0.33043 0.3518 1.44769
v -0.92584 0.3518 1.16096
v -1.33787 0.3518 0.64428
v -1.48492 0.3518 0.0
v -1.33787 0.3518 -0.64428
v -0.92584 0.3518 -1.16096
v -0.33043 0.3518 -1.44769
v 0.33043 0.3518 -1.44769
v 0.92584 0.3518 -1.16096
v 1.33787 0.3518 -0.64428
v 2.1 0.67 0.0
v 1.89203 0.67 0.91116
v 1.30933 0.67 1.64185
v 0.46729 0.67 2.04735
v -0.46729 0.67 2.04735
v -1.30933 0.67 1.64185
v -1.89203 0.67 0.91116
v -2.1 0.67 0.0
v -1.89203 0.67 -0.91116
v -1.30933 0.67 -1.64185
v -0.46729 0.67 -2.04735
v 0.46729 0.67 -2.04735
v 1.30933 0.67 -1.64185
v 1.89203 0.67 -0.91116
v 1.48492 0.9882 0.0
v 1.33787 0.9882 0.64428
v 0.92584 0.9882 1.16096
v 0.33043 0.9882 1.44769
v -0.33043 0.9882 1.44769
v -0.92584 0.9882 1.16096
v -1.33787 0.9882 0.64428
v -1.48492 0.9882 0.0
v -1.33787 0.9882 -0.64428
v -0.92584 0.9882 -1.16096
v -0.33043 0.9882 -1.44769
v 0.33043 0.9882 -1.44769
v 0.92584 0.9882 -1.16096
v 1.33787 0.9882 -0.64428
v 0.0 1.12 0.0
v 0.0 1.12 0.0
v 0.0 1.12 0.0
v 0.0 1.12 0.0
v -0.0 1.12 0.0
v -0.0 1.12 0.0
v -0.0 1.12 0.0
v -0.0 1.12 0.0
v -0.0 1.12 -0.0
v -0.0 1.12 -0.0
v -0.0 1.12 -0.0
v 0.0 1.12 -0.0
v 0.0 1.12 -0.0
v 0.0 1.12 -0.0
v 1.15 0.55 0.0
v 1.15 0.55 0.0
v 1.15 0.55 0.0
v 1.15 0.55 0.0
v 1.15 0.55 0.0
v 1.15 0.55 -0.0
v 1.15 0.55 -0.0
v 1.15 0.55 -0.0
v 1.40456 0.6613 0.0
v 1.33 0.6613 0.18
v 1.15 0.6613 0.25456
v 0.97 0.6613 0.18
v 0.89544 0.6613 0.0
v 0.97 0.6613 -0.18
v 1.15 0.6613 -0.25456
v 1.33 0.6613 -0.18
v 1.51 0.93 0.0
v 1.40456 0.93 0.25456
v 1.15 0.93 0.36
v 0.89544 0.93 0.25456
v 0.79 0.93 0.0
v 0.89544 0.93 -0.25456
v 1.15 0.93 -0.36
v 1.40456 0.93 -0.25456
v 1.40456 1.1987 0.0
v 1.33 1.1987 0.18
v 1.15 1.1987 0.25456
v 0.97 1.1987 0.18
v 0.89544 1.1987 0.0
v 0.97 1.1987 -0.18
v 1.15 1.1987 -0.25456
v 1.33 1.1987 -0.18
v 1.15 1.31 0.0
v 1.15 1.31 0.0
v 1.15 1.31 0.0
v 1.15 1.31 0.0
v 1.15 1.31 0.0
v 1.15 1.31 -0.0
v 1.15 1.31 -0.0
v 1.15 1.31 -0.0
v 2.55 0.12 -0.105
v 1.7 2.5 -0.105
v 2.46436 0.08942 -0.0525
v 1.61436 2.46942 -0.0525
v 2.46436 0.08942 0.0525
v 1.61436 2.46942 0.0525
v 2.55 0.12 0.105
v 1.7 2.5 0.105
v 2.63564 0.15058 0.0525
v 1.78564 2.53058 0.0525
v 2.63564 0.15058 -0.0525
v 1.78564 2.53058 -0.0525
v 0.71701 0.55 0.89911
v 0.71701 0.55 0.89911
v 0.71701 0.55 0.89911
v 0.71701 0.55 0.89911
v 0.71701 0.55 0.89911
v 0.71701 0.55 0.89911
v 0.71701 0.55 0.89911
v 0.71701 0.55 0.89911
v 0.97157 0.6613 0.89911
v 0.89701 0.6613 1.07911
v 0.71701 0.6613 1.15366
v 0.53701 0.6613 1.07911
v 0.46245 0.6613 0.89911
v 0.53701 0.6613 0.71911
v 0.71701 0.6613 0.64455
v 0.89701 0.6613 0.71911
v 1.07701 0.93 0.89911
v 0.97157 0.93 1.15366
v 0.71701 0.93 1.25911
v 0.46245 0.93 1.15366
v 0.35701 0.93 0.89911
v 0.46245 0.93 0.64455
v 0.71701 0.93 0.53911
v 0.97157 0.93 0.64455
v 0.97157 1.1987 0.89911
v 0.89701 1.1987 1.07911
v 0.71701 1.1987 1.15366
v 0.53701 1.1987 1.07911
v 0.46245 1.1987 0.89911
v 0.53701 1.1987 0.71911
v 0.71701 1.1987 0.64455
v 0.89701 1.1987 0.71911
v 0.71701 1.31 0.89911
v 0.71701 1.31 0.89911
v 0.71701 1.31 0.89911
v 0.71701 1.31 0.89911
v 0.71701 1.31 0.89911
v 0.71701 1.31 0.89911
v 0.71701 1.31 0.89911
v 0.71701 1.31 0.89911
v 1.5899 0.09176 1.89254
v 1.05993 2.47176 1.22798
v 1.50099 0.08751 1.94823
v 0.97102 2.46751 1.28368
v 1.50099 0.11575 2.04936
v 0.97102 2.49575 1.38481
v 1.5899 0.14824 2.0948
v 1.05993 2.52824 1.43025
v 1.67881 0.15249 2.03911
v 1.14884 2.53249 1.37455
v 1.67881 0.12425 1.93798
v 1.14884 2.50425 1.27342
v -0.2559 0.55 1.12117
v -0.2559 0.55 1.12117
v -0.2559 0.55 1.12117
v -0.2559 0.55 1.12117
v -0.2559 0.55 1.12117
v -0.2559 0.55 1.12117
v -0.2559 0.55 1.12117
v -0.2559 0.55 1.12117
v -0.00134 0.6613 1.12117
v -0.0759 0.6613 1.30117
v -0.2559 0.6613 1.37573
v -0.4359 0.6613 1.30117
v -0.51046 0.6613 1.12117
v -0.4359 0.6613 0.94117
v -0.2559 0.6613 0.86661
v -0.0759 0.6613 0.94117
v 0.1041 0.93 1.12117
v -0.00134 0.93 1.37573
v -0.2559 0.93 1.48117
v -0.51046 0.93 1.37573
v -0.6159 0.93 1.12117
v -0.51046 0.93 0.86661
v -0.2559 0.93 0.76117
v -0.00134 0.93 0.86661
v -0.00134 1.1987 1.12117
v -0.0759 1.1987 1.30117
v -0.2559 1.1987 1.37573
v -0.4359 1.1987 1.30117
v -0.51046 1.1987 1.12117
v -0.4359 1.1987 0.94117
v -0.2559 1.1987 0.86661
v -0.0759 1.1987 0.94117
v -0.2559 1.31 1.12117
v -0.2559 1.31 1.12117
v -0.2559 1.31 1.12117
v -0.2559 1.31 1.12117
v -0.2559 1.31 1.12117
v -0.2559 1.31 1.12117
v -0.2559 1.31 1.12117
v -0.2559 1.31 1.12117
v -0.56743 0.08547 2.38691
v -0.37829 2.46547 1.55822
v -0.65811 0.10916 2.43425
v -0.46896 2.48916 1.60556
v -0.65811 0.14369 2.53341
v -0.46896 2.52369 1.70472
v -0.56743 0.15453 2.58523
v -0.37829 2.53453 1.75654
v -0.47675 0.13084 2.53788
v -0.28761 2.51084 1.7092
v -0.47675 0.09631 2.43872
v -0.28761 2.47631 1.61003
v -1.03611 0.55 0.49897
v -1.03611 0.55 0.49897
v -1.03611 0.55 0.49897
v -1.03611 0.55 0.49897
v -1.03611 0.55 0.49897
v -1.03611 0.55 0.49897
v -1.03611 0.55 0.49897
v -1.03611 0.55 0.49897
v -0.78156 0.6613 0.49897
v -0.85611 0.6613 0.67897
v -1.03611 0.6613 0.75352
v -1.21611 0.6613 0.67897
v -1.29067 0.6613 0.49897
v -1.21611 0.6613 0.31897
v -1.03611 0.6613 0.24441
v -0.85611 0.6613 0.31897
v -0.67611 0.93 0.49897
v -0.78156 0.93 0.75352
v -1.03611 0.93 0.85897
v -1.29067 0.93 0.75352
v -1.39611 0.93 0.49897
v -1.29067 0.93 0.24441
v -1.03611 0.93 0.13897
v -0.78156 0.93 0.24441
v -0.78156 1.1987 0.49897
v -0.85611 1.1987 0.67897
v -1.03611 1.1987 0.75352
v -1.21611 1.1987 0.67897
v -1.29067 1.1987 0.49897
v -1.21611 1.1987 0.31897
v -1.03611 1.1987 0.24441
v -0.85611 1.1987 0.31897
v -1.03611 1.31 0.49897
v -1.03611 1.31 0.49897
v -1.03611 1.31 0.49897
v -1.03611 1.31 0.49897
v -1.03611 1.31 0.49897
v -1.03611 1.31 0.49897
v -1.03611 1.31 0.49897
v -1.03611 1.31 0.49897
v -2.29747 0.10392 1.00264
v -1.53165 2.48392 0.63384
v -2.38413 0.13919 1.0503
v -1.6183 2.51919 0.6815
v -2.38413 0.15527 1.15406
v -1.6183 2.53527 0.78526
v -2.29747 0.13608 1.21017
v -1.53165 2.51608 0.84136
v -2.21081 0.10081 1.1625
v -1.44499 2.48081 0.7937
v -2.21081 0.08473 1.05874
v -1.44499 2.46473 0.68994
v -1.03611 0.55 -0.49897
v -1.03611 0.55 -0.49897
v -1.03611 0.55 -0.49897
v -1.03611 0.55 -0.49897
v -1.03611 0.55 -0.49897
v -1.03611 0.55 -0.49897
v -1.03611 0.55 -0.49897
v -1.03611 0.55 -0.49897
v -0.78156 0.6613 -0.49897
v -0.85611 0.6613 -0.31897
v -1.03611 0.6613 -0.24441
v -1.21611 0.6613 -0.31897
v -1.29067 0.6613 -0.49897
v -1.21611 0.6613 -0.67897
v -1.03611 0.6613 -0.75352
v -0.85611 0.6613 -0.67897
v -0.67611 0.93 -0.49897
v -0.78156 0.93 -0.24441
v -1.03611 0.93 -0.13897
v -1.29067 0.93 -0.24441
v -1.39611 0.93 -0.49897
v -1.29067 0.93 -0.75352
v -1.03611 0.93 -0.85897
v -0.78156 0.93 -0.75352
v -0.78156 1.1987 -0.49897
v -0.85611 1.1987 -0.31897
v -1.03611 1.1987 -0.24441
v -1.21611 1.1987 -0.31897
v -1.29067 1.1987 -0.49897
v -1.21611 1.1987 -0.67897
v -1.03611 1.1987 -0.75352
v -0.85611 1.1987 -0.67897
v -1.03611 1.31 -0.49897
v -1.03611 1.31 -0.49897
v -1.03611 1.31 -0.49897
v -1.03611 1.31 -0.49897
v -1.03611 1.31 -0.49897
v -1.03611 1.31 -0.49897
v -1.03611 1.31 -0.49897
v -1.03611 1.31 -0.49897
v -2.29747 0.13608 -1.21017
v -1.53165 2.51608 -0.84136
v -2.38413 0.15527 -1.15406
v -1.6183 2.53527 -0.78526
v -2.38413 0.13919 -1.0503
v -1.6183 2.51919 -0.6815
v -2.29747 0.10392 -1.00264
v -1.53165 2.48392 -0.63384
v -2.21081 0.08473 -1.05874
v -1.44499 2.46473 -0.68994
v -2.21081 0.10081 -1.1625
v -1.44499 2.48081 -0.7937
v -0.2559 0.55 -1.12117
v -0.2559 0.55 -1.12117
v -0.2559 0.55 -1.12117
v -0.2559 0.55 -1.12117
v -0.2559 0.55 -1.12117
v -0.2559 0.55 -1.12117
v -0.2559 0.55 -1.12117
v -0.2559 0.55 -1.12117
v -0.00134 0.6613 -1.12117
v -0.0759 0.6613 -0.94117
v -0.2559 0.6613 -0.86661
v -0.4359 0.6613 -0.94117
v -0.51046 0.6613 -1.12117
v -0.4359 0.6613 -1.30117
v -0.2559 0.6613 -1.37573
v -0.0759 0.6613 -1.30117
v 0.1041 0.93 -1.12117
v -0.00134 0.93 -0.86661
v -0.2559 0.93 -0.76117
v -0.51046 0.93 -0.86661
v -0.6159 0.93 -1.12117
v -0.51046 0.93 -1.37573
v -0.2559 0.93 -1.48117
v -0.00134 0.93 -1.37573
v -0.00134 1.1987 -1.12117
v -0.0759 1.1987 -0.94117
v -0.2559 1.1987 -0.86661
v -0.4359 1.1987 -0.94117
v -0.51046 1.1987 -1.12117
v -0.4359 1.1987 -1.30117
v -0.2559 1.1987 -1.37573
v -0.0759 1.1987 -1.30117
v -0.2559 1.31 -1.12117
v -0.2559 1.31 -1.12117
v -0.2559 1.31 -1.12117
v -0.2559 1.31 -1.12117
v -0.2559 1.31 -1.12117
v -0.2559 1.31 -1.12117
v -0.2559 1.31 -1.12117
v -0.2559 1.31 -1.12117
v -0.56743 0.15453 -2.58523
v -0.37829 2.53453 -1.75654
v -0.65811 0.14369 -2.53341
v -0.46896 2.52369 -1.70472
v -0.65811 0.10916 -2.43425
v -0.46896 2.48916 -1.60556
v -0.56743 0.08547 -2.38691
v -0.37829 2.46547 -1.55822
v -0.47675 0.09631 -2.43872
v -0.28761 2.47631 -1.61003
v -0.47675 0.13084 -2.53788
v -0.28761 2.51084 -1.7092
v 0.71701 0.55 -0.89911
v 0.71701 0.55 -0.89911
v 0.71701 0.55 -0.89911
v 0.71701 0.55 -0.89911
v 0.71701 0.55 -0.89911
v 0.71701 0.55 -0.89911
v 0.71701 0.55 -0.89911
v 0.71701 0.55 -0.89911
v 0.97157 0.6613 -0.89911
v 0.89701 0.6613 -0.71911
v 0.71701 0.6613 -0.64455
v 0.53701 0.6613 -0.71911
v 0.46245 0.6613 -0.89911
v 0.53701 0.6613 -1.07911
v 0.71701 0.6613 -1.15366
v 0.89701 0.6613 -1.07911
v 1.07701 0.93 -0.89911
v 0.97157 0.93 -0.64455
v 0.71701 0.93 -0.53911
v 0.46245 0.93 -0.64455
v 0.35701 0.93 -0.89911
v 0.46245 0.93 -1.15366
v 0.71701 0.93 -1.25911
v 0.97157 0.93 -1.15366
v 0.97157 1.1987 -0.89911
v 0.89701 1.1987 -0.71911
v 0.71701 1.1987 -0.64455
v 0.53701 1.1987 -0.71911
v 0.46245 1.1987 -0.89911
v 0.53701 1.1987 -1.07911
v 0.71701 1.1987 -1.15366
v 0.89701 1.1987 -1.07911
v 0.71701 1.31 -0.89911
v 0.71701 1.31 -0.89911
v 0.71701 1.31 -0.89911
v 0.71701 1.31 -0.89911
v 0.71701 1.31 -0.89911
v 0.71701 1.31 -0.89911
v 0.71701 1.31 -0.89911
v 0.71701 1.31 -0.89911
v 1.5899 0.14824 -2.0948
v 1.05993 2.52824 -1.43025
v 1.50099 0.11575 -2.04936
v 0.97102 2.49575 -1.38481
v 1.50099 0.08751 -1.94823
v 0.97102 2.46751 -1.28368
v 1.5899 0.09176 -1.89254
v 1.05993 2.47176 -1.22798
v 1.67881 0.12425 -1.93798
v 1.14884 2.50425 -1.27342
v 1.67881 0.15249 -2.03911
v 1.14884 2.53249 -1.37455
v 0.0 1.1 0.0
v 0.0 1.1 0.0
v 0.0 1.1 0.0
v -0.0 1.1 0.0
v -0.0 1.1 0.0
v -0.0 1.1 -0.0
v -0.0 1.1 -0.0
v 0.0 1.1 -0.0
v 0.0 1.1 -0.0
v 0.24042 1.19958 0.0
v 0.18417 1.19958 0.15454
v 0.04175 1.19958 0.23676
v -0.12021 1.19958 0.20821
v -0.22592 1.19958 0.08223
v -0.22592 1.19958 -0.08223
v -0.12021 1.19958 -0.20821
v 0.04175 1.19958 -0.23676
v 0.18417 1.19958 -0.15454
v 0.34 1.44 0.0
v 0.26046 1.44 0.21855
v 0.05904 1.44 0.33483
v -0.17 1.44 0.29445
v -0.3195 1.44 0.11629
v -0.3195 1.44 -0.11629
v -0.17 1.44 -0.29445
v 0.05904 1.44 -0.33483
v 0.26046 1.44 -0.21855
v 0.24042 1.68042 0.0
v 0.18417 1.68042 0.15454
v 0.04175 1.68042 0.23676
v -0.12021 1.68042 0.20821
v -0.22592 1.68042 0.08223
v -0.22592 1.68042 -0.08223
v -0.12021 1.68042 -0.20821
v 0.04175 1.68042 -0.23676
v 0.18417 1.68042 -0.15454
v 0.0 1.78 0.0
v 0.0 1.78 0.0
v 0.0 1.78 0.0
v -0.0 1.78 0.0
v -0.0 1.78 0.0
v -0.0 1.78 -0.0
v -0.0 1.78 -0.0
v 0.0 1.78 -0.0
v 0.0 1.78 -0.0
g porous_foot
usemtl carbonate
f 1 2 16 15
f 2 3 17 16
f 3 4 18 17
f 4 5 19 18
f 5 6 20 19
f 6 7 21 20
f 7 8 22 21
f 8 9 23 22
f 9 10 24 23
f 10 11 25 24
f 11 12 26 25
f 12 13 27 26
f 13 14 28 27
f 14 1 15 28
f 15 16 30 29
f 16 17 31 30
f 17 18 32 31
f 18 19 33 32
f 19 20 34 33
f 20 21 35 34
f 21 22 36 35
f 22 23 37 36
f 23 24 38 37
f 24 25 39 38
f 25 26 40 39
f 26 27 41 40
f 27 28 42 41
f 28 15 29 42
f 29 30 44 43
f 30 31 45 44
f 31 32 46 45
f 32 33 47 46
f 33 34 48 47
f 34 35 49 48
f 35 36 50 49
f 36 37 51 50
f 37 38 52 51
f 38 39 53 52
f 39 40 54 53
f 40 41 55 54
f 41 42 56 55
f 42 29 43 56
f 43 44 58 57
f 44 45 59 58
f 45 46 60 59
f 46 47 61 60
f 47 48 62 61
f 48 49 63 62
f 49 50 64 63
f 50 51 65 64
f 51 52 66 65
f 52 53 67 66
f 53 54 68 67
f 54 55 69 68
f 55 56 70 69
f 56 43 57 70
g brood_bowl
usemtl shell_teal
f 71 72 86 85
f 72 73 87 86
f 73 74 88 87
f 74 75 89 88
f 75 76 90 89
f 76 77 91 90
f 77 78 92 91
f 78 79 93 92
f 79 80 94 93
f 80 81 95 94
f 81 82 96 95
f 82 83 97 96
f 83 84 98 97
f 84 71 85 98
f 85 86 100 99
f 86 87 101 100
f 87 88 102 101
f 88 89 103 102
f 89 90 104 103
f 90 91 105 104
f 91 92 106 105
f 92 93 107 106
f 93 94 108 107
f 94 95 109 108
f 95 96 110 109
f 96 97 111 110
f 97 98 112 111
f 98 85 99 112
f 99 100 114 113
f 100 101 115 114
f 101 102 116 115
f 102 103 117 116
f 103 104 118 117
f 104 105 119 118
f 105 106 120 119
f 106 107 121 120
f 107 108 122 121
f 108 109 123 122
f 109 110 124 123
f 110 111 125 124
f 111 112 126 125
f 112 99 113 126
f 113 114 128 127
f 114 115 129 128
f 115 116 130 129
f 116 117 131 130
f 117 118 132 131
f 118 119 133 132
f 119 120 134 133
f 120 121 135 134
f 121 122 136 135
f 122 123 137 136
f 123 124 138 137
f 124 125 139 138
f 125 126 140 139
f 126 113 127 140
g brood_vesicle_0
usemtl membrane
f 141 142 150 149
f 142 143 151 150
f 143 144 152 151
f 144 145 153 152
f 145 146 154 153
f 146 147 155 154
f 147 148 156 155
f 148 141 149 156
f 149 150 158 157
f 150 151 159 158
f 151 152 160 159
f 152 153 161 160
f 153 154 162 161
f 154 155 163 162
f 155 156 164 163
f 156 149 157 164
f 157 158 166 165
f 158 159 167 166
f 159 160 168 167
f 160 161 169 168
f 161 162 170 169
f 162 163 171 170
f 163 164 172 171
f 164 157 165 172
f 165 166 174 173
f 166 167 175 174
f 167 168 176 175
f 168 169 177 176
f 169 170 178 177
f 170 171 179 178
f 171 172 180 179
f 172 165 173 180
g canopy_rib_0
usemtl carbonate
f 191 189 187 185 183 181
f 182 184 186 188 190 192
f 181 183 184 182
f 183 185 186 184
f 185 187 188 186
f 187 189 190 188
f 189 191 192 190
f 191 181 182 192
g brood_vesicle_1
usemtl membrane
f 193 194 202 201
f 194 195 203 202
f 195 196 204 203
f 196 197 205 204
f 197 198 206 205
f 198 199 207 206
f 199 200 208 207
f 200 193 201 208
f 201 202 210 209
f 202 203 211 210
f 203 204 212 211
f 204 205 213 212
f 205 206 214 213
f 206 207 215 214
f 207 208 216 215
f 208 201 209 216
f 209 210 218 217
f 210 211 219 218
f 211 212 220 219
f 212 213 221 220
f 213 214 222 221
f 214 215 223 222
f 215 216 224 223
f 216 209 217 224
f 217 218 226 225
f 218 219 227 226
f 219 220 228 227
f 220 221 229 228
f 221 222 230 229
f 222 223 231 230
f 223 224 232 231
f 224 217 225 232
g canopy_rib_1
usemtl carbonate
f 243 241 239 237 235 233
f 234 236 238 240 242 244
f 233 235 236 234
f 235 237 238 236
f 237 239 240 238
f 239 241 242 240
f 241 243 244 242
f 243 233 234 244
g brood_vesicle_2
usemtl membrane
f 245 246 254 253
f 246 247 255 254
f 247 248 256 255
f 248 249 257 256
f 249 250 258 257
f 250 251 259 258
f 251 252 260 259
f 252 245 253 260
f 253 254 262 261
f 254 255 263 262
f 255 256 264 263
f 256 257 265 264
f 257 258 266 265
f 258 259 267 266
f 259 260 268 267
f 260 253 261 268
f 261 262 270 269
f 262 263 271 270
f 263 264 272 271
f 264 265 273 272
f 265 266 274 273
f 266 267 275 274
f 267 268 276 275
f 268 261 269 276
f 269 270 278 277
f 270 271 279 278
f 271 272 280 279
f 272 273 281 280
f 273 274 282 281
f 274 275 283 282
f 275 276 284 283
f 276 269 277 284
g canopy_rib_2
usemtl carbonate
f 295 293 291 289 287 285
f 286 288 290 292 294 296
f 285 287 288 286
f 287 289 290 288
f 289 291 292 290
f 291 293 294 292
f 293 295 296 294
f 295 285 286 296
g brood_vesicle_3
usemtl membrane
f 297 298 306 305
f 298 299 307 306
f 299 300 308 307
f 300 301 309 308
f 301 302 310 309
f 302 303 311 310
f 303 304 312 311
f 304 297 305 312
f 305 306 314 313
f 306 307 315 314
f 307 308 316 315
f 308 309 317 316
f 309 310 318 317
f 310 311 319 318
f 311 312 320 319
f 312 305 313 320
f 313 314 322 321
f 314 315 323 322
f 315 316 324 323
f 316 317 325 324
f 317 318 326 325
f 318 319 327 326
f 319 320 328 327
f 320 313 321 328
f 321 322 330 329
f 322 323 331 330
f 323 324 332 331
f 324 325 333 332
f 325 326 334 333
f 326 327 335 334
f 327 328 336 335
f 328 321 329 336
g canopy_rib_3
usemtl carbonate
f 347 345 343 341 339 337
f 338 340 342 344 346 348
f 337 339 340 338
f 339 341 342 340
f 341 343 344 342
f 343 345 346 344
f 345 347 348 346
f 347 337 338 348
g brood_vesicle_4
usemtl membrane
f 349 350 358 357
f 350 351 359 358
f 351 352 360 359
f 352 353 361 360
f 353 354 362 361
f 354 355 363 362
f 355 356 364 363
f 356 349 357 364
f 357 358 366 365
f 358 359 367 366
f 359 360 368 367
f 360 361 369 368
f 361 362 370 369
f 362 363 371 370
f 363 364 372 371
f 364 357 365 372
f 365 366 374 373
f 366 367 375 374
f 367 368 376 375
f 368 369 377 376
f 369 370 378 377
f 370 371 379 378
f 371 372 380 379
f 372 365 373 380
f 373 374 382 381
f 374 375 383 382
f 375 376 384 383
f 376 377 385 384
f 377 378 386 385
f 378 379 387 386
f 379 380 388 387
f 380 373 381 388
g canopy_rib_4
usemtl carbonate
f 399 397 395 393 391 389
f 390 392 394 396 398 400
f 389 391 392 390
f 391 393 394 392
f 393 395 396 394
f 395 397 398 396
f 397 399 400 398
f 399 389 390 400
g brood_vesicle_5
usemtl membrane
f 401 402 410 409
f 402 403 411 410
f 403 404 412 411
f 404 405 413 412
f 405 406 414 413
f 406 407 415 414
f 407 408 416 415
f 408 401 409 416
f 409 410 418 417
f 410 411 419 418
f 411 412 420 419
f 412 413 421 420
f 413 414 422 421
f 414 415 423 422
f 415 416 424 423
f 416 409 417 424
f 417 418 426 425
f 418 419 427 426
f 419 420 428 427
f 420 421 429 428
f 421 422 430 429
f 422 423 431 430
f 423 424 432 431
f 424 417 425 432
f 425 426 434 433
f 426 427 435 434
f 427 428 436 435
f 428 429 437 436
f 429 430 438 437
f 430 431 439 438
f 431 432 440 439
f 432 425 433 440
g canopy_rib_5
usemtl carbonate
f 451 449 447 445 443 441
f 442 444 446 448 450 452
f 441 443 444 442
f 443 445 446 444
f 445 447 448 446
f 447 449 450 448
f 449 451 452 450
f 451 441 442 452
g brood_vesicle_6
usemtl membrane
f 453 454 462 461
f 454 455 463 462
f 455 456 464 463
f 456 457 465 464
f 457 458 466 465
f 458 459 467 466
f 459 460 468 467
f 460 453 461 468
f 461 462 470 469
f 462 463 471 470
f 463 464 472 471
f 464 465 473 472
f 465 466 474 473
f 466 467 475 474
f 467 468 476 475
f 468 461 469 476
f 469 470 478 477
f 470 471 479 478
f 471 472 480 479
f 472 473 481 480
f 473 474 482 481
f 474 475 483 482
f 475 476 484 483
f 476 469 477 484
f 477 478 486 485
f 478 479 487 486
f 479 480 488 487
f 480 481 489 488
f 481 482 490 489
f 482 483 491 490
f 483 484 492 491
f 484 477 485 492
g canopy_rib_6
usemtl carbonate
f 503 501 499 497 495 493
f 494 496 498 500 502 504
f 493 495 496 494
f 495 497 498 496
f 497 499 500 498
f 499 501 502 500
f 501 503 504 502
f 503 493 494 504
g nursery_organ
usemtl active_amber
f 505 506 515 514
f 506 507 516 515
f 507 508 517 516
f 508 509 518 517
f 509 510 519 518
f 510 511 520 519
f 511 512 521 520
f 512 513 522 521
f 513 505 514 522
f 514 515 524 523
f 515 516 525 524
f 516 517 526 525
f 517 518 527 526
f 518 519 528 527
f 519 520 529 528
f 520 521 530 529
f 521 522 531 530
f 522 514 523 531
f 523 524 533 532
f 524 525 534 533
f 525 526 535 534
f 526 527 536 535
f 527 528 537 536
f 528 529 538 537
f 529 530 539 538
f 530 531 540 539
f 531 523 532 540
f 532 533 542 541
f 533 534 543 542
f 534 535 544 543
f 535 536 545 544
f 536 537 546 545
f 537 538 547 546
f 538 539 548 547
f 539 540 549 548
f 540 532 541 549
