# Generated Silica Street blockout: civic_survey_organ_a
mtllib silica_street_blockout.mtl
o civic_survey_organ_a
v 0.0 0.0 0.0
v 0.0 0.0 0.0
v 0.0 0.0 0.0
v -0.0 0.0 0.0
v -0.0 0.0 0.0
v -0.0 0.0 0.0
v -0.0 0.0 -0.0
v -0.0 0.0 -0.0
v -0.0 0.0 -0.0
v 0.0 0.0 -0.0
v 0.0 0.0 -0.0
v 1.27279 0.08201 0.0
v 1.07074 0.08201 0.59255
v 0.52874 0.08201 0.99697
v -0.18114 0.08201 1.08486
v -0.8335 0.08201 0.82831
v -1.22124 0.08201 0.30878
v -1.22124 0.08201 -0.30878
v -0.8335 0.08201 -0.82831
v -0.18114 0.08201 -1.08486
v 0.52874 0.08201 -0.99697
v 1.07074 0.08201 -0.59255
v 1.8 0.28 0.0
v 1.51426 0.28 0.83799
v 0.74775 0.28 1.40993
v -0.25617 0.28 1.53422
v -1.17875 0.28 1.17141
v -1.72709 0.28 0.43669
v -1.72709 0.28 -0.43669
v -1.17875 0.28 -1.17141
v -0.25617 0.28 -1.53422
v 0.74775 0.28 -1.40993
v 1.51426 0.28 -0.83799
v 1.27279 0.47799 0.0
v 1.07074 0.47799 0.59255
v 0.52874 0.47799 0.99697
v -0.18114 0.47799 1.08486
v -0.8335 0.47799 0.82831
v -1.22124 0.47799 0.30878
v -1.22124 0.47799 -0.30878
v -0.8335 0.47799 -0.82831
v -0.18114 0.47799 -1.08486
v 0.52874 0.47799 -0.99697
v 1.07074 0.47799 -0.59255
v 0.0 0.56 0.0
v 0.0 0.56 0.0
v 0.0 0.56 0.0
v -0.0 0.56 0.0
v -0.0 0.56 0.0
v -0.0 0.56 0.0
v -0.0 0.56 -0.0
v -0.0 0.56 -0.0
v -0.0 0.56 -0.0
v 0.0 0.56 -0.0
v 0.0 0.56 -0.0
v 0.0 0.25 -0.38
v 0.0 3.8 -0.38
v -0.2687 0.25 -0.2687
v -0.2687 3.8 -0.2687
v -0.38 0.25 -0.0
v -0.38 3.8 -0.0
v -0.2687 0.25 0.2687
v -0.2687 3.8 0.2687
v -0.0 0.25 0.38
v -0.0 3.8 0.38
v 0.2687 0.25 0.2687
v 0.2687 3.8 0.2687
v 0.38 0.25 0.0
v 0.38 3.8 0.0
v 0.2687 0.25 -0.2687
v 0.2687 3.8 -0.2687
v -0.03711 2.4 0.14534
v 1.61004 3.1 0.56592
v 0.02013 2.29156 0.10166
v 1.66728 2.99156 0.52225
v 0.06221 2.26478 -0.01856
v 1.70936 2.96478 0.40202
v 0.05745 2.33982 -0.12481
v 1.7046 3.03982 0.29577
v 0.00943 2.46018 -0.13707
v 1.65658 3.16018 0.28351
v -0.04569 2.53522 -0.04612
v 1.60146 3.23522 0.37447
v -0.0664 2.50844 0.07957
v 1.58075 3.20844 0.50016
v 1.64715 3.1 0.42059
v 1.64715 3.1 0.42059
v 1.64715 3.1 0.42059
v 1.64715 3.1 0.42059
v 1.64715 3.1 0.42059
v 1.64715 3.1 0.42059
v 1.64715 3.1 0.42059
v 1.64715 3.1 0.42059
v 1.64715 3.1 0.42059
v 2.08016 3.19 0.42059
v 1.97886 3.19 0.69892
v 1.72234 3.19 0.84702
v 1.43064 3.19 0.79559
v 1.24025 3.19 0.56869
v 1.24025 3.19 0.27249
v 1.43064 3.19 0.04559
v 1.72234 3.19 -0.00585
v 1.97886 3.19 0.14225
v 2.08016 3.37 0.42059
v 1.97886 3.37 0.69892
v 1.72234 3.37 0.84702
v 1.43064 3.37 0.79559
v 1.24025 3.37 0.56869
v 1.24025 3.37 0.27249
v 1.43064 3.37 0.04559
v 1.72234 3.37 -0.00585
v 1.97886 3.37 0.14225
v 1.64715 3.46 0.42059
v 1.64715 3.46 0.42059
v 1.64715 3.46 0.42059
v 1.64715 3.46 0.42059
v 1.64715 3.46 0.42059
v 1.64715 3.46 0.42059
v 1.64715 3.46 0.42059
v 1.64715 3.46 0.42059
v 1.64715 3.46 0.42059
v -0.10731 2.4 -0.10481
v -1.29512 3.38 1.11137
v -0.10783 2.2984 -0.02344
v -1.29565 3.2784 1.19274
v -0.02715 2.2733 0.07557
v -1.21497 3.2533 1.29175
v 0.07397 2.34362 0.11768
v -1.11384 3.32362 1.33386
v 0.11939 2.45638 0.07117
v -1.06842 3.43638 1.28736
v 0.07491 2.5267 -0.02893
v -1.1129 3.5067 1.18725
v -0.02598 2.5016 -0.10725
v -1.2138 3.4816 1.10893
v -1.18781 3.38 1.21618
v -1.18781 3.38 1.21618
v -1.18781 3.38 1.21618
v -1.18781 3.38 1.21618
v -1.18781 3.38 1.21618
v -1.18781 3.38 1.21618
v -1.18781 3.38 1.21618
v -1.18781 3.38 1.21618
v -1.18781 3.38 1.21618
v -0.7548 3.47 1.21618
v -0.85611 3.47 1.49452
v -1.11262 3.47 1.64262
v -1.40432 3.47 1.59118
v -1.59471 3.47 1.36428
v -1.59471 3.47 1.06808
v -1.40432 3.47 0.84118
v -1.11262 3.47 0.78975
v -0.85611 3.47 0.93785
v -0.7548 3.65 1.21618
v -0.85611 3.65 1.49452
v -1.11262 3.65 1.64262
v -1.40432 3.65 1.59118
v -1.59471 3.65 1.36428
v -1.59471 3.65 1.06808
v -1.40432 3.65 0.84118
v -1.11262 3.65 0.78975
v -0.85611 3.65 0.93785
v -1.18781 3.74 1.21618
v -1.18781 3.74 1.21618
v -1.18781 3.74 1.21618
v -1.18781 3.74 1.21618
v -1.18781 3.74 1.21618
v -1.18781 3.74 1.21618
v -1.18781 3.74 1.21618
v -1.18781 3.74 1.21618
v -1.18781 3.74 1.21618
v 0.14442 2.4 -0.04053
v -0.31492 3.66 -1.6773
v 0.07118 2.30578 -0.0925
v -0.38816 3.56578 -1.72927
v -0.05567 2.28251 -0.07482
v -0.515 3.54251 -1.71159
v -0.14059 2.34771 -0.0008
v -0.59993 3.60771 -1.63756
v -0.11965 2.45229 0.07383
v -0.57898 3.71229 -1.56294
v -0.00861 2.51749 0.09286
v -0.46794 3.77749 -1.54391
v 0.10891 2.49422 0.04196
v -0.35042 3.75422 -1.5948
v -0.45934 3.66 -1.63677
v -0.45934 3.66 -1.63677
v -0.45934 3.66 -1.63677
v -0.45934 3.66 -1.63677
v -0.45934 3.66 -1.63677
v -0.45934 3.66 -1.63677
v -0.45934 3.66 -1.63677
v -0.45934 3.66 -1.63677
v -0.45934 3.66 -1.63677
v -0.02632 3.75 -1.63677
v -0.12763 3.75 -1.35843
v -0.38414 3.75 -1.21033
v -0.67584 3.75 -1.26177
v -0.86624 3.75 -1.48867
v -0.86624 3.75 -1.78487
v -0.67584 3.75 -2.01177
v -0.38414 3.75 -2.0632
v -0.12763 3.75 -1.9151
v -0.02632 3.93 -1.63677
v -0.12763 3.93 -1.35843
v -0.38414 3.93 -1.21033
v -0.67584 3.93 -1.26177
v -0.86624 3.93 -1.48867
v -0.86624 3.93 -1.78487
v -0.67584 3.93 -2.01177
v -0.38414 3.93 -2.0632
v -0.12763 3.93 -1.9151
v -0.45934 4.02 -1.63677
v -0.45934 4.02 -1.63677
v -0.45934 4.02 -1.63677
v -0.45934 4.02 -1.63677
v -0.45934 4.02 -1.63677
v -0.45934 4.02 -1.63677
v -0.45934 4.02 -1.63677
v -0.45934 4.02 -1.63677
v -0.45934 4.02 -1.63677
v 0.0 3.75 0.0
v 0.0 3.75 0.0
v 0.0 3.75 0.0
v -0.0 3.75 0.0
v -0.0 3.75 0.0
v -0.0 3.75 -0.0
v -0.0 3.75 -0.0
v 0.0 3.75 -0.0
v 0.0 3.75 -0.0
v 0.29698 3.85544 0.0
v 0.2275 3.85544 0.1909
v 0.05157 3.85544 0.29247
v -0.14849 3.85544 0.2572
v -0.27907 3.85544 0.10157
v -0.27907 3.85544 -0.10157
v -0.14849 3.85544 -0.2572
v 0.05157 3.85544 -0.29247
v 0.2275 3.85544 -0.1909
v 0.42 4.11 0.0
v 0.32174 4.11 0.26997
v 0.07293 4.11 0.41362
v -0.21 4.11 0.36373
v -0.39467 4.11 0.14365
v -0.39467 4.11 -0.14365
v -0.21 4.11 -0.36373
v 0.07293 4.11 -0.41362
v 0.32174 4.11 -0.26997
v 0.29698 4.36456 0.0
v 0.2275 4.36456 0.1909
v 0.05157 4.36456 0.29247
v -0.14849 4.36456 0.2572
v -0.27907 4.36456 0.10157
v -0.27907 4.36456 -0.10157
v -0.14849 4.36456 -0.2572
v 0.05157 4.36456 -0.29247
v 0.2275 4.36456 -0.1909
v 0.0 4.47 0.0
v 0.0 4.47 0.0
v 0.0 4.47 0.0
v -0.0 4.47 0.0
v -0.0 4.47 0.0
v -0.0 4.47 -0.0
v -0.0 4.47 -0.0
v 0.0 4.47 -0.0
v 0.0 4.47 -0.0
g foot
usemtl host_rock
f 1 2 13 12
f 2 3 14 13
f 3 4 15 14
f 4 5 16 15
f 5 6 17 16
f 6 7 18 17
f 7 8 19 18
f 8 9 20 19
f 9 10 21 20
f 10 11 22 21
f 11 1 12 22
f 12 13 24 23
f 13 14 25 24
f 14 15 26 25
f 15 16 27 26
f 16 17 28 27
f 17 18 29 28
f 18 19 30 29
f 19 20 31 30
f 20 21 32 31
f 21 22 33 32
f 22 12 23 33
f 23 24 35 34
f 24 25 36 35
f 25 26 37 36
f 26 27 38 37
f 27 28 39 38
f 28 29 40 39
f 29 30 41 40
f 30 31 42 41
f 31 32 43 42
f 32 33 44 43
f 33 23 34 44
f 34 35 46 45
f 35 36 47 46
f 36 37 48 47
f 37 38 49 48
f 38 39 50 49
f 39 40 51 50
f 40 41 52 51
f 41 42 53 52
f 42 43 54 53
f 43 44 55 54
f 44 34 45 55
g sensor_stem
usemtl carbonate
f 70 68 66 64 62 60 58 56
f 57 59 61 63 65 67 69 71
f 56 58 59 57
f 58 60 61 59
f 60 62 63 61
f 62 64 65 63
f 64 66 67 65
f 66 68 69 67
f 68 70 71 69
f 70 56 57 71
g sensor_branch_0
usemtl shell_teal
f 84 82 80 78 76 74 72
f 73 75 77 79 81 83 85
f 72 74 75 73
f 74 76 77 75
f 76 78 79 77
f 78 80 81 79
f 80 82 83 81
f 82 84 85 83
f 84 72 73 85
g sensor_cup_0
usemtl membrane
f 86 87 96 95
f 87 88 97 96
f 88 89 98 97
f 89 90 99 98
f 90 91 100 99
f 91 92 101 100
f 92 93 102 101
f 93 94 103 102
f 94 86 95 103
f 95 96 105 104
f 96 97 106 105
f 97 98 107 106
f 98 99 108 107
f 99 100 109 108
f 100 101 110 109
f 101 102 111 110
f 102 103 112 111
f 103 95 104 112
f 104 105 114 113
f 105 106 115 114
f 106 107 116 115
f 107 108 117 116
f 108 109 118 117
f 109 110 119 118
f 110 111 120 119
f 111 112 121 120
f 112 104 113 121
g sensor_branch_1
usemtl shell_teal
f 134 132 130 128 126 124 122
f 123 125 127 129 131 133 135
f 122 124 125 123
f 124 126 127 125
f 126 128 129 127
f 128 130 131 129
f 130 132 133 131
f 132 134 135 133
f 134 122 123 135
g sensor_cup_1
usemtl membrane
f 136 137 146 145
f 137 138 147 146
f 138 139 148 147
f 139 140 149 148
f 140 141 150 149
f 141 142 151 150
f 142 143 152 151
f 143 144 153 152
f 144 136 145 153
f 145 146 155 154
f 146 147 156 155
f 147 148 157 156
f 148 149 158 157
f 149 150 159 158
f 150 151 160 159
f 151 152 161 160
f 152 153 162 161
f 153 145 154 162
f 154 155 164 163
f 155 156 165 164
f 156 157 166 165
f 157 158 167 166
f 158 159 168 167
f 159 160 169 168
f 160 161 170 169
f 161 162 171 170
f 162 154 163 171
g sensor_branch_2
usemtl shell_teal
f 184 182 180 178 176 174 172
f 173 175 177 179 181 183 185
f 172 174 175 173
f 174 176 177 175
f 176 178 179 177
f 178 180 181 179
f 180 182 183 181
f 182 184 185 183
f 184 172 173 185
g sensor_cup_2
usemtl membrane
f 186 187 196 195
f 187 188 197 196
f 188 189 198 197
f 189 190 199 198
f 190 191 200 199
f 191 192 201 200
f 192 193 202 201
f 193 194 203 202
f 194 186 195 203
f 195 196 205 204
f 196 197 206 205
f 197 198 207 206
f 198 199 208 207
f 199 200 209 208
f 200 201 210 209
f 201 202 211 210
f 202 203 212 211
f 203 195 204 212
f 204 205 214 213
f 205 206 215 214
f 206 207 216 215
f 207 208 217 216
f 208 209 218 217
f 209 210 219 218
f 210 211 220 219
f 211 212 221 220
f 212 204 213 221
g survey_eye
usemtl active_amber
f 222 223 232 231
f 223 224 233 232
f 224 225 234 233
f 225 226 235 234
f 226 227 236 235
f 227 228 237 236
f 228 229 238 237
f 229 230 239 238
f 230 222 231 239
f 231 232 241 240
f 232 233 242 241
f 233 234 243 242
f 234 235 244 243
f 235 236 245 244
f 236 237 246 245
f 237 238 247 246
f 238 239 248 247
f 239 231 240 248
f 240 241 250 249
f 241 242 251 250
f 242 243 252 251
f 243 244 253 252
f 244 245 254 253
f 245 246 255 254
f 246 247 256 255
f 247 248 257 256
f 248 240 249 257
f 249 250 259 258
f 250 251 260 259
f 251 252 261 260
f 252 253 262 261
f 253 254 263 262
f 254 255 264 263
f 255 256 265 264
f 256 257 266 265
f 257 249 258 266
