# Generated Silica Street blockout: farm_culture_bed_a
mtllib silica_street_blockout.mtl
o farm_culture_bed_a
v 0.0 0.0 -1.5
v 0.0 0.0 -1.5
v 0.0 0.0 -1.5
v -0.0 0.0 -1.5
v -0.0 0.0 -1.5
v -0.0 0.0 -1.5
v -0.0 0.0 -1.5
v -0.0 0.0 -1.5
v -0.0 0.0 -1.5
v 0.0 0.0 -1.5
v 0.0 0.0 -1.5
v 2.38157 0.115 -1.5
v 2.0035 0.115 -1.22844
v 0.98934 0.115 -1.0431
v -0.33893 0.115 -1.00282
v -1.5596 0.115 -1.12039
v -2.2851 0.115 -1.35849
v -2.2851 0.115 -1.64151
v -1.5596 0.115 -1.87961
v -0.33893 0.115 -1.99718
v 0.98934 0.115 -1.9569
v 2.0035 0.115 -1.77156
v 2.38157 0.345 -1.5
v 2.0035 0.345 -1.22844
v 0.98934 0.345 -1.0431
v -0.33893 0.345 -1.00282
v -1.5596 0.345 -1.12039
v -2.2851 0.345 -1.35849
v -2.2851 0.345 -1.64151
v -1.5596 0.345 -1.87961
v -0.33893 0.345 -1.99718
v 0.98934 0.345 -1.9569
v 2.0035 0.345 -1.77156
v 0.0 0.46 -1.5
v 0.0 0.46 -1.5
v 0.0 0.46 -1.5
v -0.0 0.46 -1.5
v -0.0 0.46 -1.5
v -0.0 0.46 -1.5
v -0.0 0.46 -1.5
v -0.0 0.46 -1.5
v -0.0 0.46 -1.5
v 0.0 0.46 -1.5
v 0.0 0.46 -1.5
v 0.0 0.23 -1.5
v 0.0 0.23 -1.5
v 0.0 0.23 -1.5
v -0.0 0.23 -1.5
v -0.0 0.23 -1.5
v -0.0 0.23 -1.5
v -0.0 0.23 -1.5
v -0.0 0.23 -1.5
v 0.0 0.23 -1.5
v 0.0 0.23 -1.5
v 2.12176 0.29 -1.5
v 1.71654 0.29 -1.28111
v 0.65566 0.29 -1.14584
v -0.65566 0.29 -1.14584
v -1.71654 0.29 -1.28111
v -2.12176 0.29 -1.5
v -1.71654 0.29 -1.71889
v -0.65566 0.29 -1.85416
v 0.65566 0.29 -1.85416
v 1.71654 0.29 -1.71889
v 2.12176 0.41 -1.5
v 1.71654 0.41 -1.28111
v 0.65566 0.41 -1.14584
v -0.65566 0.41 -1.14584
v -1.71654 0.41 -1.28111
v -2.12176 0.41 -1.5
v -1.71654 0.41 -1.71889
v -0.65566 0.41 -1.85416
v 0.65566 0.41 -1.85416
v 1.71654 0.41 -1.71889
v 0.0 0.47 -1.5
v 0.0 0.47 -1.5
v 0.0 0.47 -1.5
v -0.0 0.47 -1.5
v -0.0 0.47 -1.5
v -0.0 0.47 -1.5
v -0.0 0.47 -1.5
v -0.0 0.47 -1.5
v 0.0 0.47 -1.5
v 0.0 0.47 -1.5
v -1.75 0.35 -1.5
v -1.75 0.35 -1.5
v -1.75 0.35 -1.5
v -1.75 0.35 -1.5
v -1.75 0.35 -1.5
v -1.75 0.35 -1.5
v -1.75 0.35 -1.5
v -1.55081 0.435 -1.5
v -1.62581 0.435 -1.36458
v -1.79432 0.435 -1.33114
v -1.92946 0.435 -1.42485
v -1.92946 0.435 -1.57515
v -1.79432 0.435 -1.66886
v -1.62581 0.435 -1.63542
v -1.55081 0.605 -1.5
v -1.62581 0.605 -1.36458
v -1.79432 0.605 -1.33114
v -1.92946 0.605 -1.42485
v -1.92946 0.605 -1.57515
v -1.79432 0.605 -1.66886
v -1.62581 0.605 -1.63542
v -1.75 0.69 -1.5
v -1.75 0.69 -1.5
v -1.75 0.69 -1.5
v -1.75 0.69 -1.5
v -1.75 0.69 -1.5
v -1.75 0.69 -1.5
v -1.75 0.69 -1.5
v -0.55 0.35 -1.5
v -0.55 0.35 -1.5
v -0.55 0.35 -1.5
v -0.55 0.35 -1.5
v -0.55 0.35 -1.5
v -0.55 0.35 -1.5
v -0.55 0.35 -1.5
v -0.35081 0.435 -1.5
v -0.42581 0.435 -1.36458
v -0.59432 0.435 -1.33114
v -0.72946 0.435 -1.42485
v -0.72946 0.435 -1.57515
v -0.59432 0.435 -1.66886
v -0.42581 0.435 -1.63542
v -0.35081 0.605 -1.5
v -0.42581 0.605 -1.36458
v -0.59432 0.605 -1.33114
v -0.72946 0.605 -1.42485
v -0.72946 0.605 -1.57515
v -0.59432 0.605 -1.66886
v -0.42581 0.605 -1.63542
v -0.55 0.69 -1.5
v -0.55 0.69 -1.5
v -0.55 0.69 -1.5
v -0.55 0.69 -1.5
v -0.55 0.69 -1.5
v -0.55 0.69 -1.5
v -0.55 0.69 -1.5
v 0.65 0.35 -1.5
v 0.65 0.35 -1.5
v 0.65 0.35 -1.5
v 0.65 0.35 -1.5
v 0.65 0.35 -1.5
v 0.65 0.35 -1.5
v 0.65 0.35 -1.5
v 0.84919 0.435 -1.5
v 0.77419 0.435 -1.36458
v 0.60568 0.435 -1.33114
v 0.47054 0.435 -1.42485
v 0.47054 0.435 -1.57515
v 0.60568 0.435 -1.66886
v 0.77419 0.435 -1.63542
v 0.84919 0.605 -1.5
v 0.77419 0.605 -1.36458
v 0.60568 0.605 -1.33114
v 0.47054 0.605 -1.42485
v 0.47054 0.605 -1.57515
v 0.60568 0.605 -1.66886
v 0.77419 0.605 -1.63542
v 0.65 0.69 -1.5
v 0.65 0.69 -1.5
v 0.65 0.69 -1.5
v 0.65 0.69 -1.5
v 0.65 0.69 -1.5
v 0.65 0.69 -1.5
v 0.65 0.69 -1.5
v 1.8 0.35 -1.5
v 1.8 0.35 -1.5
v 1.8 0.35 -1.5
v 1.8 0.35 -1.5
v 1.8 0.35 -1.5
v 1.8 0.35 -1.5
v 1.8 0.35 -1.5
v 1.99919 0.435 -1.5
v 1.92419 0.435 -1.36458
v 1.75568 0.435 -1.33114
v 1.62054 0.435 -1.42485
v 1.62054 0.435 -1.57515
v 1.75568 0.435 -1.66886
v 1.92419 0.435 -1.63542
v 1.99919 0.605 -1.5
v 1.92419 0.605 -1.36458
v 1.75568 0.605 -1.33114
v 1.62054 0.605 -1.42485
v 1.62054 0.605 -1.57515
v 1.75568 0.605 -1.66886
v 1.92419 0.605 -1.63542
v 1.8 0.69 -1.5
v 1.8 0.69 -1.5
v 1.8 0.69 -1.5
v 1.8 0.69 -1.5
v 1.8 0.69 -1.5
v 1.8 0.69 -1.5
v 1.8 0.69 -1.5
v 0.0 0.0 0.0
v 0.0 0.0 0.0
v 0.0 0.0 0.0
v -0.0 0.0 0.0
v -0.0 0.0 0.0
v -0.0 0.0 0.0
v -0.0 0.0 -0.0
v -0.0 0.0 -0.0
v -0.0 0.0 -0.0
v 0.0 0.0 -0.0
v 0.0 0.0 -0.0
v 2.38157 0.115 0.0
v 2.0035 0.115 0.27156
v 0.98934 0.115 0.4569
v -0.33893 0.115 0.49718
v -1.5596 0.115 0.37961
v -2.2851 0.115 0.14151
v -2.2851 0.115 -0.14151
v -1.5596 0.115 -0.37961
v -0.33893 0.115 -0.49718
v 0.98934 0.115 -0.4569
v 2.0035 0.115 -0.27156
v 2.38157 0.345 0.0
v 2.0035 0.345 0.27156
v 0.98934 0.345 0.4569
v -0.33893 0.345 0.49718
v -1.5596 0.345 0.37961
v -2.2851 0.345 0.14151
v -2.2851 0.345 -0.14151
v -1.5596 0.345 -0.37961
v -0.33893 0.345 -0.49718
v 0.98934 0.345 -0.4569
v 2.0035 0.345 -0.27156
v 0.0 0.46 0.0
v 0.0 0.46 0.0
v 0.0 0.46 0.0
v -0.0 0.46 0.0
v -0.0 0.46 0.0
v -0.0 0.46 0.0
v -0.0 0.46 -0.0
v -0.0 0.46 -0.0
v -0.0 0.46 -0.0
v 0.0 0.46 -0.0
v 0.0 0.46 -0.0
v 0.0 0.23 0.0
v 0.0 0.23 0.0
v 0.0 0.23 0.0
v -0.0 0.23 0.0
v -0.0 0.23 0.0
v -0.0 0.23 0.0
v -0.0 0.23 -0.0
v -0.0 0.23 -0.0
v 0.0 0.23 -0.0
v 0.0 0.23 -0.0
v 2.12176 0.29 0.0
v 1.71654 0.29 0.21889
v 0.65566 0.29 0.35416
v -0.65566 0.29 0.35416
v -1.71654 0.29 0.21889
v -2.12176 0.29 0.0
v -1.71654 0.29 -0.21889
v -0.65566 0.29 -0.35416
v 0.65566 0.29 -0.35416
v 1.71654 0.29 -0.21889
v 2.12176 0.41 0.0
v 1.71654 0.41 0.21889
v 0.65566 0.41 0.35416
v -0.65566 0.41 0.35416
v -1.71654 0.41 0.21889
v -2.12176 0.41 0.0
v -1.71654 0.41 -0.21889
v -0.65566 0.41 -0.35416
v 0.65566 0.41 -0.35416
v 1.71654 0.41 -0.21889
v 0.0 0.47 0.0
v 0.0 0.47 0.0
v 0.0 0.47 0.0
v -0.0 0.47 0.0
v -0.0 0.47 0.0
v -0.0 0.47 0.0
v -0.0 0.47 -0.0
v -0.0 0.47 -0.0
v 0.0 0.47 -0.0
v 0.0 0.47 -0.0
v -1.75 0.35 0.0
v -1.75 0.35 0.0
v -1.75 0.35 0.0
v -1.75 0.35 0.0
v -1.75 0.35 -0.0
v -1.75 0.35 -0.0
v -1.75 0.35 -0.0
v -1.55081 0.455 0.0
v -1.62581 0.455 0.13542
v -1.79432 0.455 0.16886
v -1.92946 0.455 0.07515
v -1.92946 0.455 -0.07515
v -1.79432 0.455 -0.16886
v -1.62581 0.455 -0.13542
v -1.55081 0.665 0.0
v -1.62581 0.665 0.13542
v -1.79432 0.665 0.16886
v -1.92946 0.665 0.07515
v -1.92946 0.665 -0.07515
v -1.79432 0.665 -0.16886
v -1.62581 0.665 -0.13542
v -1.75 0.77 0.0
v -1.75 0.77 0.0
v -1.75 0.77 0.0
v -1.75 0.77 0.0
v -1.75 0.77 -0.0
v -1.75 0.77 -0.0
v -1.75 0.77 -0.0
v -0.55 0.35 0.0
v -0.55 0.35 0.0
v -0.55 0.35 0.0
v -0.55 0.35 0.0
v -0.55 0.35 -0.0
v -0.55 0.35 -0.0
v -0.55 0.35 -0.0
v -0.35081 0.455 0.0
v -0.42581 0.455 0.13542
v -0.59432 0.455 0.16886
v -0.72946 0.455 0.07515
v -0.72946 0.455 -0.07515
v -0.59432 0.455 -0.16886
v -0.42581 0.455 -0.13542
v -0.35081 0.665 0.0
v -0.42581 0.665 0.13542
v -0.59432 0.665 0.16886
v -0.72946 0.665 0.07515
v -0.72946 0.665 -0.07515
v -0.59432 0.665 -0.16886
v -0.42581 0.665 -0.13542
v -0.55 0.77 0.0
v -0.55 0.77 0.0
v -0.55 0.77 0.0
v -0.55 0.77 0.0
v -0.55 0.77 -0.0
v -0.55 0.77 -0.0
v -0.55 0.77 -0.0
v 0.65 0.35 0.0
v 0.65 0.35 0.0
v 0.65 0.35 0.0
v 0.65 0.35 0.0
v 0.65 0.35 -0.0
v 0.65 0.35 -0.0
v 0.65 0.35 -0.0
v 0.84919 0.455 0.0
v 0.77419 0.455 0.13542
v 0.60568 0.455 0.16886
v 0.47054 0.455 0.07515
v 0.47054 0.455 -0.07515
v 0.60568 0.455 -0.16886
v 0.77419 0.455 -0.13542
v 0.84919 0.665 0.0
v 0.77419 0.665 0.13542
v 0.60568 0.665 0.16886
v 0.47054 0.665 0.07515
v 0.47054 0.665 -0.07515
v 0.60568 0.665 -0.16886
v 0.77419 0.665 -0.13542
v 0.65 0.77 0.0
v 0.65 0.77 0.0
v 0.65 0.77 0.0
v 0.65 0.77 0.0
v 0.65 0.77 -0.0
v 0.65 0.77 -0.0
v 0.65 0.77 -0.0
v 1.8 0.35 0.0
v 1.8 0.35 0.0
v 1.8 0.35 0.0
v 1.8 0.35 0.0
v 1.8 0.35 -0.0
v 1.8 0.35 -0.0
v 1.8 0.35 -0.0
v 1.99919 0.455 0.0
v 1.92419 0.455 0.13542
v 1.75568 0.455 0.16886
v 1.62054 0.455 0.07515
v 1.62054 0.455 -0.07515
v 1.75568 0.455 -0.16886
v 1.92419 0.455 -0.13542
v 1.99919 0.665 0.0
v 1.92419 0.665 0.13542
v 1.75568 0.665 0.16886
v 1.62054 0.665 0.07515
v 1.62054 0.665 -0.07515
v 1.75568 0.665 -0.16886
v 1.92419 0.665 -0.13542
v 1.8 0.77 0.0
v 1.8 0.77 0.0
v 1.8 0.77 0.0
v 1.8 0.77 0.0
v 1.8 0.77 -0.0
v 1.8 0.77 -0.0
v 1.8 0.77 -0.0
v 0.0 0.0 1.5
v 0.0 0.0 1.5
v 0.0 0.0 1.5
v -0.0 0.0 1.5
v -0.0 0.0 1.5
v -0.0 0.0 1.5
v -0.0 0.0 1.5
v -0.0 0.0 1.5
v -0.0 0.0 1.5
v 0.0 0.0 1.5
v 0.0 0.0 1.5
v 2.38157 0.115 1.5
v 2.0035 0.115 1.77156
v 0.98934 0.115 1.9569
v -0.33893 0.115 1.99718
v -1.5596 0.115 1.87961
v -2.2851 0.115 1.64151
v -2.2851 0.115 1.35849
v -1.5596 0.115 1.12039
v -0.33893 0.115 1.00282
v 0.98934 0.115 1.0431
v 2.0035 0.115 1.22844
v 2.38157 0.345 1.5
v 2.0035 0.345 1.77156
v 0.98934 0.345 1.9569
v -0.33893 0.345 1.99718
v -1.5596 0.345 1.87961
v -2.2851 0.345 1.64151
v -2.2851 0.345 1.35849
v -1.5596 0.345 1.12039
v -0.33893 0.345 1.00282
v 0.98934 0.345 1.0431
v 2.0035 0.345 1.22844
v 0.0 0.46 1.5
v 0.0 0.46 1.5
v 0.0 0.46 1.5
v -0.0 0.46 1.5
v -0.0 0.46 1.5
v -0.0 0.46 1.5
v -0.0 0.46 1.5
v -0.0 0.46 1.5
v -0.0 0.46 1.5
v 0.0 0.46 1.5
v 0.0 0.46 1.5
v 0.0 0.23 1.5
v 0.0 0.23 1.5
v 0.0 0.23 1.5
v -0.0 0.23 1.5
v -0.0 0.23 1.5
v -0.0 0.23 1.5
v -0.0 0.23 1.5
v -0.0 0.23 1.5
v 0.0 0.23 1.5
v 0.0 0.23 1.5
v 2.12176 0.29 1.5
v 1.71654 0.29 1.71889
v 0.65566 0.29 1.85416
v -0.65566 0.29 1.85416
v -1.71654 0.29 1.71889
v -2.12176 0.29 1.5
v -1.71654 0.29 1.28111
v -0.65566 0.29 1.14584
v 0.65566 0.29 1.14584
v 1.71654 0.29 1.28111
v 2.12176 0.41 1.5
v 1.71654 0.41 1.71889
v 0.65566 0.41 1.85416
v -0.65566 0.41 1.85416
v -1.71654 0.41 1.71889
v -2.12176 0.41 1.5
v -1.71654 0.41 1.28111
v -0.65566 0.41 1.14584
v 0.65566 0.41 1.14584
v 1.71654 0.41 1.28111
v 0.0 0.47 1.5
v 0.0 0.47 1.5
v 0.0 0.47 1.5
v -0.0 0.47 1.5
v -0.0 0.47 1.5
v -0.0 0.47 1.5
v -0.0 0.47 1.5
v -0.0 0.47 1.5
v 0.0 0.47 1.5
v 0.0 0.47 1.5
v -1.75 0.35 1.5
v -1.75 0.35 1.5
v -1.75 0.35 1.5
v -1.75 0.35 1.5
v -1.75 0.35 1.5
v -1.75 0.35 1.5
v -1.75 0.35 1.5
v -1.55081 0.475 1.5
v -1.62581 0.475 1.63542
v -1.79432 0.475 1.66886
v -1.92946 0.475 1.57515
v -1.92946 0.475 1.42485
v -1.79432 0.475 1.33114
v -1.62581 0.475 1.36458
v -1.55081 0.725 1.5
v -1.62581 0.725 1.63542
v -1.79432 0.725 1.66886
v -1.92946 0.725 1.57515
v -1.92946 0.725 1.42485
v -1.79432 0.725 1.33114
v -1.62581 0.725 1.36458
v -1.75 0.85 1.5
v -1.75 0.85 1.5
v -1.75 0.85 1.5
v -1.75 0.85 1.5
v -1.75 0.85 1.5
v -1.75 0.85 1.5
v -1.75 0.85 1.5
v -0.55 0.35 1.5
v -0.55 0.35 1.5
v -0.55 0.35 1.5
v -0.55 0.35 1.5
v -0.55 0.35 1.5
v -0.55 0.35 1.5
v -0.55 0.35 1.5
v -0.35081 0.475 1.5
v -0.42581 0.475 1.63542
v -0.59432 0.475 1.66886
v -0.72946 0.475 1.57515
v -0.72946 0.475 1.42485
v -0.59432 0.475 1.33114
v -0.42581 0.475 1.36458
v -0.35081 0.725 1.5
v -0.42581 0.725 1.63542
v -0.59432 0.725 1.66886
v -0.72946 0.725 1.57515
v -0.72946 0.725 1.42485
v -0.59432 0.725 1.33114
v -0.42581 0.725 1.36458
v -0.55 0.85 1.5
v -0.55 0.85 1.5
v -0.55 0.85 1.5
v -0.55 0.85 1.5
v -0.55 0.85 1.5
v -0.55 0.85 1.5
v -0.55 0.85 1.5
v 0.65 0.35 1.5
v 0.65 0.35 1.5
v 0.65 0.35 1.5
v 0.65 0.35 1.5
v 0.65 0.35 1.5
v 0.65 0.35 1.5
v 0.65 0.35 1.5
v 0.84919 0.475 1.5
v 0.77419 0.475 1.63542
v 0.60568 0.475 1.66886
v 0.47054 0.475 1.57515
v 0.47054 0.475 1.42485
v 0.60568 0.475 1.33114
v 0.77419 0.475 1.36458
v 0.84919 0.725 1.5
v 0.77419 0.725 1.63542
v 0.60568 0.725 1.66886
v 0.47054 0.725 1.57515
v 0.47054 0.725 1.42485
v 0.60568 0.725 1.33114
v 0.77419 0.725 1.36458
v 0.65 0.85 1.5
v 0.65 0.85 1.5
v 0.65 0.85 1.5
v 0.65 0.85 1.5
v 0.65 0.85 1.5
v 0.65 0.85 1.5
v 0.65 0.85 1.5
v 1.8 0.35 1.5
v 1.8 0.35 1.5
v 1.8 0.35 1.5
v 1.8 0.35 1.5
v 1.8 0.35 1.5
v 1.8 0.35 1.5
v 1.8 0.35 1.5
v 1.99919 0.475 1.5
v 1.92419 0.475 1.63542
v 1.75568 0.475 1.66886
v 1.62054 0.475 1.57515
v 1.62054 0.475 1.42485
v 1.75568 0.475 1.33114
v 1.92419 0.475 1.36458
v 1.99919 0.725 1.5
v 1.92419 0.725 1.63542
v 1.75568 0.725 1.66886
v 1.62054 0.725 1.57515
v 1.62054 0.725 1.42485
v 1.75568 0.725 1.33114
v 1.92419 0.725 1.36458
v 1.8 0.85 1.5
v 1.8 0.85 1.5
v 1.8 0.85 1.5
v 1.8 0.85 1.5
v 1.8 0.85 1.5
v 1.8 0.85 1.5
v 1.8 0.85 1.5
v -2.96 0.12 -1.5
v -2.96 0.12 1.5
v -2.905 0.02474 -1.5
v -2.905 0.02474 1.5
v -2.795 0.02474 -1.5
v -2.795 0.02474 1.5
v -2.74 0.12 -1.5
v -2.74 0.12 1.5
v -2.795 0.21526 -1.5
v -2.795 0.21526 1.5
v -2.905 0.21526 -1.5
v -2.905 0.21526 1.5
g trough_0
usemtl organic_dark
f 1 2 13 12
f 2 3 14 13
f 3 4 15 14
f 4 5 16 15
f 5 6 17 16
f 6 7 18 17
f 7 8 19 18
f 8 9 20 19
f 9 10 21 20
f 10 11 22 21
f 11 1 12 22
f 12 13 24 23
f 13 14 25 24
f 14 15 26 25
f 15 16 27 26
f 16 17 28 27
f 17 18 29 28
f 18 19 30 29
f 19 20 31 30
f 20 21 32 31
f 21 22 33 32
f 22 12 23 33
f 23 24 35 34
f 24 25 36 35
f 25 26 37 36
f 26 27 38 37
f 27 28 39 38
f 28 29 40 39
f 29 30 41 40
f 30 31 42 41
f 31 32 43 42
f 32 33 44 43
f 33 23 34 44
g culture_surface_0
usemtl membrane
f 45 46 56 55
f 46 47 57 56
f 47 48 58 57
f 48 49 59 58
f 49 50 60 59
f 50 51 61 60
f 51 52 62 61
f 52 53 63 62
f 53 54 64 63
f 54 45 55 64
f 55 56 66 65
f 56 57 67 66
f 57 58 68 67
f 58 59 69 68
f 59 60 70 69
f 60 61 71 70
f 61 62 72 71
f 62 63 73 72
f 63 64 74 73
f 64 55 65 74
f 65 66 76 75
f 66 67 77 76
f 67 68 78 77
f 68 69 79 78
f 69 70 80 79
f 70 71 81 80
f 71 72 82 81
f 72 73 83 82
f 73 74 84 83
f 74 65 75 84
g culture_bud_0_-1.75
usemtl shell_teal
f 85 86 93 92
f 86 87 94 93
f 87 88 95 94
f 88 89 96 95
f 89 90 97 96
f 90 91 98 97
f 91 85 92 98
f 92 93 100 99
f 93 94 101 100
f 94 95 102 101
f 95 96 103 102
f 96 97 104 103
f 97 98 105 104
f 98 92 99 105
f 99 100 107 106
f 100 101 108 107
f 101 102 109 108
f 102 103 110 109
f 103 104 111 110
f 104 105 112 111
f 105 99 106 112
g culture_bud_0_-0.55
usemtl shell_teal
f 113 114 121 120
f 114 115 122 121
f 115 116 123 122
f 116 117 124 123
f 117 118 125 124
f 118 119 126 125
f 119 113 120 126
f 120 121 128 127
f 121 122 129 128
f 122 123 130 129
f 123 124 131 130
f 124 125 132 131
f 125 126 133 132
f 126 120 127 133
f 127 128 135 134
f 128 129 136 135
f 129 130 137 136
f 130 131 138 137
f 131 132 139 138
f 132 133 140 139
f 133 127 134 140
g culture_bud_0_0.65
usemtl shell_teal
f 141 142 149 148
f 142 143 150 149
f 143 144 151 150
f 144 145 152 151
f 145 146 153 152
f 146 147 154 153
f 147 141 148 154
f 148 149 156 155
f 149 150 157 156
f 150 151 158 157
f 151 152 159 158
f 152 153 160 159
f 153 154 161 160
f 154 148 155 161
f 155 156 163 162
f 156 157 164 163
f 157 158 165 164
f 158 159 166 165
f 159 160 167 166
f 160 161 168 167
f 161 155 162 168
g culture_bud_0_1.8
usemtl shell_teal
f 169 170 177 176
f 170 171 178 177
f 171 172 179 178
f 172 173 180 179
f 173 174 181 180
f 174 175 182 181
f 175 169 176 182
f 176 177 184 183
f 177 178 185 184
f 178 179 186 185
f 179 180 187 186
f 180 181 188 187
f 181 182 189 188
f 182 176 183 189
f 183 184 191 190
f 184 185 192 191
f 185 186 193 192
f 186 187 194 193
f 187 188 195 194
f 188 189 196 195
f 189 183 190 196
g trough_1
usemtl organic_dark
f 197 198 209 208
f 198 199 210 209
f 199 200 211 210
f 200 201 212 211
f 201 202 213 212
f 202 203 214 213
f 203 204 215 214
f 204 205 216 215
f 205 206 217 216
f 206 207 218 217
f 207 197 208 218
f 208 209 220 219
f 209 210 221 220
f 210 211 222 221
f 211 212 223 222
f 212 213 224 223
f 213 214 225 224
f 214 215 226 225
f 215 216 227 226
f 216 217 228 227
f 217 218 229 228
f 218 208 219 229
f 219 220 231 230
f 220 221 232 231
f 221 222 233 232
f 222 223 234 233
f 223 224 235 234
f 224 225 236 235
f 225 226 237 236
f 226 227 238 237
f 227 228 239 238
f 228 229 240 239
f 229 219 230 240
g culture_surface_1
usemtl membrane
f 241 242 252 251
f 242 243 253 252
f 243 244 254 253
f 244 245 255 254
f 245 246 256 255
f 246 247 257 256
f 247 248 258 257
f 248 249 259 258
f 249 250 260 259
f 250 241 251 260
f 251 252 262 261
f 252 253 263 262
f 253 254 264 263
f 254 255 265 264
f 255 256 266 265
f 256 257 267 266
f 257 258 268 267
f 258 259 269 268
f 259 260 270 269
f 260 251 261 270
f 261 262 272 271
f 262 263 273 272
f 263 264 274 273
f 264 265 275 274
f 265 266 276 275
f 266 267 277 276
f 267 268 278 277
f 268 269 279 278
f 269 270 280 279
f 270 261 271 280
g culture_bud_1_-1.75
usemtl shell_teal
f 281 282 289 288
f 282 283 290 289
f 283 284 291 290
f 284 285 292 291
f 285 286 293 292
f 286 287 294 293
f 287 281 288 294
f 288 289 296 295
f 289 290 297 296
f 290 291 298 297
f 291 292 299 298
f 292 293 300 299
f 293 294 301 300
f 294 288 295 301
f 295 296 303 302
f 296 297 304 303
f 297 298 305 304
f 298 299 306 305
f 299 300 307 306
f 300 301 308 307
f 301 295 302 308
g culture_bud_1_-0.55
usemtl shell_teal
f 309 310 317 316
f 310 311 318 317
f 311 312 319 318
f 312 313 320 319
f 313 314 321 320
f 314 315 322 321
f 315 309 316 322
f 316 317 324 323
f 317 318 325 324
f 318 319 326 325
f 319 320 327 326
f 320 321 328 327
f 321 322 329 328
f 322 316 323 329
f 323 324 331 330
f 324 325 332 331
f 325 326 333 332
f 326 327 334 333
f 327 328 335 334
f 328 329 336 335
f 329 323 330 336
g culture_bud_1_0.65
usemtl shell_teal
f 337 338 345 344
f 338 339 346 345
f 339 340 347 346
f 340 341 348 347
f 341 342 349 348
f 342 343 350 349
f 343 337 344 350
f 344 345 352 351
f 345 346 353 352
f 346 347 354 353
f 347 348 355 354
f 348 349 356 355
f 349 350 357 356
f 350 344 351 357
f 351 352 359 358
f 352 353 360 359
f 353 354 361 360
f 354 355 362 361
f 355 356 363 362
f 356 357 364 363
f 357 351 358 364
g culture_bud_1_1.8
usemtl shell_teal
f 365 366 373 372
f 366 367 374 373
f 367 368 375 374
f 368 369 376 375
f 369 370 377 376
f 370 371 378 377
f 371 365 372 378
f 372 373 380 379
f 373 374 381 380
f 374 375 382 381
f 375 376 383 382
f 376 377 384 383
f 377 378 385 384
f 378 372 379 385
f 379 380 387 386
f 380 381 388 387
f 381 382 389 388
f 382 383 390 389
f 383 384 391 390
f 384 385 392 391
f 385 379 386 392
g trough_2
usemtl organic_dark
f 393 394 405 404
f 394 395 406 405
f 395 396 407 406
f 396 397 408 407
f 397 398 409 408
f 398 399 410 409
f 399 400 411 410
f 400 401 412 411
f 401 402 413 412
f 402 403 414 413
f 403 393 404 414
f 404 405 416 415
f 405 406 417 416
f 406 407 418 417
f 407 408 419 418
f 408 409 420 419
f 409 410 421 420
f 410 411 422 421
f 411 412 423 422
f 412 413 424 423
f 413 414 425 424
f 414 404 415 425
f 415 416 427 426
f 416 417 428 427
f 417 418 429 428
f 418 419 430 429
f 419 420 431 430
f 420 421 432 431
f 421 422 433 432
f 422 423 434 433
f 423 424 435 434
f 424 425 436 435
f 425 415 426 436
g culture_surface_2
usemtl membrane
f 437 438 448 447
f 438 439 449 448
f 439 440 450 449
f 440 441 451 450
f 441 442 452 451
f 442 443 453 452
f 443 444 454 453
f 444 445 455 454
f 445 446 456 455
f 446 437 447 456
f 447 448 458 457
f 448 449 459 458
f 449 450 460 459
f 450 451 461 460
f 451 452 462 461
f 452 453 463 462
f 453 454 464 463
f 454 455 465 464
f 455 456 466 465
f 456 447 457 466
f 457 458 468 467
f 458 459 469 468
f 459 460 470 469
f 460 461 471 470
f 461 462 472 471
f 462 463 473 472
f 463 464 474 473
f 464 465 475 474
f 465 466 476 475
f 466 457 467 476
g culture_bud_2_-1.75
usemtl shell_teal
f 477 478 485 484
f 478 479 486 485
f 479 480 487 486
f 480 481 488 487
f 481 482 489 488
f 482 483 490 489
f 483 477 484 490
f 484 485 492 491
f 485 486 493 492
f 486 487 494 493
f 487 488 495 494
f 488 489 496 495
f 489 490 497 496
f 490 484 491 497
f 491 492 499 498
f 492 493 500 499
f 493 494 501 500
f 494 495 502 501
f 495 496 503 502
f 496 497 504 503
f 497 491 498 504
g culture_bud_2_-0.55
usemtl shell_teal
f 505 506 513 512
f 506 507 514 513
f 507 508 515 514
f 508 509 516 515
f 509 510 517 516
f 510 511 518 517
f 511 505 512 518
f 512 513 520 519
f 513 514 521 520
f 514 515 522 521
f 515 516 523 522
f 516 517 524 523
f 517 518 525 524
f 518 512 519 525
f 519 520 527 526
f 520 521 528 527
f 521 522 529 528
f 522 523 530 529
f 523 524 531 530
f 524 525 532 531
f 525 519 526 532
g culture_bud_2_0.65
usemtl shell_teal
f 533 534 541 540
f 534 535 542 541
f 535 536 543 542
f 536 537 544 543
f 537 538 545 544
f 538 539 546 545
f 539 533 540 546
f 540 541 548 547
f 541 542 549 548
f 542 543 550 549
f 543 544 551 550
f 544 545 552 551
f 545 546 553 552
f 546 540 547 553
f 547 548 555 554
f 548 549 556 555
f 549 550 557 556
f 550 551 558 557
f 551 552 559 558
f 552 553 560 559
f 553 547 554 560
g culture_bud_2_1.8
usemtl shell_teal
f 561 562 569 568
f 562 563 570 569
f 563 564 571 570
f 564 565 572 571
f 565 566 573 572
f 566 567 574 573
f 567 561 568 574
f 568 569 576 575
f 569 570 577 576
f 570 571 578 577
f 571 572 579 578
f 572 573 580 579
f 573 574 581 580
f 574 568 575 581
f 575 576 583 582
f 576 577 584 583
f 577 578 585 584
f 578 579 586 585
f 579 580 587 586
f 580 581 588 587
f 581 575 582 588
g feed_spine
usemtl carbonate
f 599 597 595 593 591 589
f 590 592 594 596 598 600
f 589 591 592 590
f 591 593 594 592
f 593 595 596 594
f 595 597 598 596
f 597 599 600 598
f 599 589 590 600
