# Generated Silica Street blockout: farm_photosynthetic_a
mtllib silica_street_blockout.mtl
o farm_photosynthetic_a
v -4.3 0.0 -2.375
v 4.3 0.0 -2.375
v 4.3 0.24 -2.375
v -4.3 0.24 -2.375
v -4.3 0.0 -1.125
v 4.3 0.0 -1.125
v 4.3 0.24 -1.125
v -4.3 0.24 -1.125
v -4.3 0.25 -2.3
v 4.3 0.25 -2.3
v -4.3 0.18938 -2.335
v 4.3 0.18938 -2.335
v -4.3 0.18938 -2.405
v 4.3 0.18938 -2.405
v -4.3 0.25 -2.44
v 4.3 0.25 -2.44
v -4.3 0.31062 -2.405
v 4.3 0.31062 -2.405
v -4.3 0.31062 -2.335
v 4.3 0.31062 -2.335
v -4.3 0.25 -1.06
v 4.3 0.25 -1.06
v -4.3 0.18938 -1.095
v 4.3 0.18938 -1.095
v -4.3 0.18938 -1.165
v 4.3 0.18938 -1.165
v -4.3 0.25 -1.2
v 4.3 0.25 -1.2
v -4.3 0.31062 -1.165
v 4.3 0.31062 -1.165
v -4.3 0.31062 -1.095
v 4.3 0.31062 -1.095
v -3.5 0.22 -1.75
v -3.5 0.22 -1.75
v -3.5 0.22 -1.75
v -3.5 0.22 -1.75
v -3.5 0.22 -1.75
v -3.5 0.22 -1.75
v -3.5 0.22 -1.75
v -3.20555 0.28 -1.75
v -3.31641 0.28 -1.58425
v -3.56552 0.28 -1.54331
v -3.76529 0.28 -1.65802
v -3.76529 0.28 -1.84198
v -3.56552 0.28 -1.95669
v -3.31641 0.28 -1.91575
v -3.20555 0.4 -1.75
v -3.31641 0.4 -1.58425
v -3.56552 0.4 -1.54331
v -3.76529 0.4 -1.65802
v -3.76529 0.4 -1.84198
v -3.56552 0.4 -1.95669
v -3.31641 0.4 -1.91575
v -3.5 0.46 -1.75
v -3.5 0.46 -1.75
v -3.5 0.46 -1.75
v -3.5 0.46 -1.75
v -3.5 0.46 -1.75
v -3.5 0.46 -1.75
v -3.5 0.46 -1.75
v -2.3 0.22 -1.75
v -2.3 0.22 -1.75
v -2.3 0.22 -1.75
v -2.3 0.22 -1.75
v -2.3 0.22 -1.75
v -2.3 0.22 -1.75
v -2.3 0.22 -1.75
v -1.97091 0.28 -1.75
v -2.09482 0.28 -1.56475
v -2.37323 0.28 -1.519
v -2.5965 0.28 -1.64719
v -2.5965 0.28 -1.85281
v -2.37323 0.28 -1.981
v -2.09482 0.28 -1.93525
v -1.97091 0.4 -1.75
v -2.09482 0.4 -1.56475
v -2.37323 0.4 -1.519
v -2.5965 0.4 -1.64719
v -2.5965 0.4 -1.85281
v -2.37323 0.4 -1.981
v -2.09482 0.4 -1.93525
v -2.3 0.46 -1.75
v -2.3 0.46 -1.75
v -2.3 0.46 -1.75
v -2.3 0.46 -1.75
v -2.3 0.46 -1.75
v -2.3 0.46 -1.75
v -2.3 0.46 -1.75
v -1.1 0.22 -1.75
v -1.1 0.22 -1.75
v -1.1 0.22 -1.75
v -1.1 0.22 -1.75
v -1.1 0.22 -1.75
v -1.1 0.22 -1.75
v -1.1 0.22 -1.75
v -0.73627 0.28 -1.75
v -0.87322 0.28 -1.54525
v -1.18094 0.28 -1.49468
v -1.42771 0.28 -1.63637
v -1.42771 0.28 -1.86363
v -1.18094 0.28 -2.00532
v -0.87322 0.28 -1.95475
v -0.73627 0.4 -1.75
v -0.87322 0.4 -1.54525
v -1.18094 0.4 -1.49468
v -1.42771 0.4 -1.63637
v -1.42771 0.4 -1.86363
v -1.18094 0.4 -2.00532
v -0.87322 0.4 -1.95475
v -1.1 0.46 -1.75
v -1.1 0.46 -1.75
v -1.1 0.46 -1.75
v -1.1 0.46 -1.75
v -1.1 0.46 -1.75
v -1.1 0.46 -1.75
v -1.1 0.46 -1.75
v 0.1 0.22 -1.75
v 0.1 0.22 -1.75
v 0.1 0.22 -1.75
v 0.1 0.22 -1.75
v 0.1 0.22 -1.75
v 0.1 0.22 -1.75
v 0.1 0.22 -1.75
v 0.39445 0.28 -1.75
v 0.28359 0.28 -1.58425
v 0.03448 0.28 -1.54331
v -0.16529 0.28 -1.65802
v -0.16529 0.28 -1.84198
v 0.03448 0.28 -1.95669
v 0.28359 0.28 -1.91575
v 0.39445 0.4 -1.75
v 0.28359 0.4 -1.58425
v 0.03448 0.4 -1.54331
v -0.16529 0.4 -1.65802
v -0.16529 0.4 -1.84198
v 0.03448 0.4 -1.95669
v 0.28359 0.4 -1.91575
v 0.1 0.46 -1.75
v 0.1 0.46 -1.75
v 0.1 0.46 -1.75
v 0.1 0.46 -1.75
v 0.1 0.46 -1.75
v 0.1 0.46 -1.75
v 0.1 0.46 -1.75
v 1.3 0.22 -1.75
v 1.3 0.22 -1.75
v 1.3 0.22 -1.75
v 1.3 0.22 -1.75
v 1.3 0.22 -1.75
v 1.3 0.22 -1.75
v 1.3 0.22 -1.75
v 1.62909 0.28 -1.75
v 1.50518 0.28 -1.56475
v 1.22677 0.28 -1.519
v 1.0035 0.28 -1.64719
v 1.0035 0.28 -1.85281
v 1.22677 0.28 -1.981
v 1.50518 0.28 -1.93525
v 1.62909 0.4 -1.75
v 1.50518 0.4 -1.56475
v 1.22677 0.4 -1.519
v 1.0035 0.4 -1.64719
v 1.0035 0.4 -1.85281
v 1.22677 0.4 -1.981
v 1.50518 0.4 -1.93525
v 1.3 0.46 -1.75
v 1.3 0.46 -1.75
v 1.3 0.46 -1.75
v 1.3 0.46 -1.75
v 1.3 0.46 -1.75
v 1.3 0.46 -1.75
v 1.3 0.46 -1.75
v 2.5 0.22 -1.75
v 2.5 0.22 -1.75
v 2.5 0.22 -1.75
v 2.5 0.22 -1.75
v 2.5 0.22 -1.75
v 2.5 0.22 -1.75
v 2.5 0.22 -1.75
v 2.86373 0.28 -1.75
v 2.72678 0.28 -1.54525
v 2.41906 0.28 -1.49468
v 2.17229 0.28 -1.63637
v 2.17229 0.28 -1.86363
v 2.41906 0.28 -2.00532
v 2.72678 0.28 -1.95475
v 2.86373 0.4 -1.75
v 2.72678 0.4 -1.54525
v 2.41906 0.4 -1.49468
v 2.17229 0.4 -1.63637
v 2.17229 0.4 -1.86363
v 2.41906 0.4 -2.00532
v 2.72678 0.4 -1.95475
v 2.5 0.46 -1.75
v 2.5 0.46 -1.75
v 2.5 0.46 -1.75
v 2.5 0.46 -1.75
v 2.5 0.46 -1.75
v 2.5 0.46 -1.75
v 2.5 0.46 -1.75
v 3.7 0.22 -1.75
v 3.7 0.22 -1.75
v 3.7 0.22 -1.75
v 3.7 0.22 -1.75
v 3.7 0.22 -1.75
v 3.7 0.22 -1.75
v 3.7 0.22 -1.75
v 3.99445 0.28 -1.75
v 3.88359 0.28 -1.58425
v 3.63448 0.28 -1.54331
v 3.43471 0.28 -1.65802
v 3.43471 0.28 -1.84198
v 3.63448 0.28 -1.95669
v 3.88359 0.28 -1.91575
v 3.99445 0.4 -1.75
v 3.88359 0.4 -1.58425
v 3.63448 0.4 -1.54331
v 3.43471 0.4 -1.65802
v 3.43471 0.4 -1.84198
v 3.63448 0.4 -1.95669
v 3.88359 0.4 -1.91575
v 3.7 0.46 -1.75
v 3.7 0.46 -1.75
v 3.7 0.46 -1.75
v 3.7 0.46 -1.75
v 3.7 0.46 -1.75
v 3.7 0.46 -1.75
v 3.7 0.46 -1.75
v -4.3 0.0 -0.625
v 4.3 0.0 -0.625
v 4.3 0.24 -0.625
v -4.3 0.24 -0.625
v -4.3 0.0 0.625
v 4.3 0.0 0.625
v 4.3 0.24 0.625
v -4.3 0.24 0.625
v -4.3 0.25 -0.55
v 4.3 0.25 -0.55
v -4.3 0.18938 -0.585
v 4.3 0.18938 -0.585
v -4.3 0.18938 -0.655
v 4.3 0.18938 -0.655
v -4.3 0.25 -0.69
v 4.3 0.25 -0.69
v -4.3 0.31062 -0.655
v 4.3 0.31062 -0.655
v -4.3 0.31062 -0.585
v 4.3 0.31062 -0.585
v -4.3 0.25 0.69
v 4.3 0.25 0.69
v -4.3 0.18938 0.655
v 4.3 0.18938 0.655
v -4.3 0.18938 0.585
v 4.3 0.18938 0.585
v -4.3 0.25 0.55
v 4.3 0.25 0.55
v -4.3 0.31062 0.585
v 4.3 0.31062 0.585
v -4.3 0.31062 0.655
v 4.3 0.31062 0.655
v -3.5 0.22 0.0
v -3.5 0.22 0.0
v -3.5 0.22 0.0
v -3.5 0.22 0.0
v -3.5 0.22 -0.0
v -3.5 0.22 -0.0
v -3.5 0.22 -0.0
v -3.17091 0.28 0.0
v -3.29482 0.28 0.18525
v -3.57323 0.28 0.231
v -3.7965 0.28 0.10281
v -3.7965 0.28 -0.10281
v -3.57323 0.28 -0.231
v -3.29482 0.28 -0.18525
v -3.17091 0.4 0.0
v -3.29482 0.4 0.18525
v -3.57323 0.4 0.231
v -3.7965 0.4 0.10281
v -3.7965 0.4 -0.10281
v -3.57323 0.4 -0.231
v -3.29482 0.4 -0.18525
v -3.5 0.46 0.0
v -3.5 0.46 0.0
v -3.5 0.46 0.0
v -3.5 0.46 0.0
v -3.5 0.46 -0.0
v -3.5 0.46 -0.0
v -3.5 0.46 -0.0
v -2.3 0.22 0.0
v -2.3 0.22 0.0
v -2.3 0.22 0.0
v -2.3 0.22 0.0
v -2.3 0.22 -0.0
v -2.3 0.22 -0.0
v -2.3 0.22 -0.0
v -1.93627 0.28 0.0
v -2.07322 0.28 0.20475
v -2.38094 0.28 0.25532
v -2.62771 0.28 0.11363
v -2.62771 0.28 -0.11363
v -2.38094 0.28 -0.25532
v -2.07322 0.28 -0.20475
v -1.93627 0.4 0.0
v -2.07322 0.4 0.20475
v -2.38094 0.4 0.25532
v -2.62771 0.4 0.11363
v -2.62771 0.4 -0.11363
v -2.38094 0.4 -0.25532
v -2.07322 0.4 -0.20475
v -2.3 0.46 0.0
v -2.3 0.46 0.0
v -2.3 0.46 0.0
v -2.3 0.46 0.0
v -2.3 0.46 -0.0
v -2.3 0.46 -0.0
v -2.3 0.46 -0.0
v -1.1 0.22 0.0
v -1.1 0.22 0.0
v -1.1 0.22 0.0
v -1.1 0.22 0.0
v -1.1 0.22 -0.0
v -1.1 0.22 -0.0
v -1.1 0.22 -0.0
v -0.80555 0.28 0.0
v -0.91641 0.28 0.16575
v -1.16552 0.28 0.20669
v -1.36529 0.28 0.09198
v -1.36529 0.28 -0.09198
v -1.16552 0.28 -0.20669
v -0.91641 0.28 -0.16575
v -0.80555 0.4 0.0
v -0.91641 0.4 0.16575
v -1.16552 0.4 0.20669
v -1.36529 0.4 0.09198
v -1.36529 0.4 -0.09198
v -1.16552 0.4 -0.20669
v -0.91641 0.4 -0.16575
v -1.1 0.46 0.0
v -1.1 0.46 0.0
v -1.1 0.46 0.0
v -1.1 0.46 0.0
v -1.1 0.46 -0.0
v -1.1 0.46 -0.0
v -1.1 0.46 -0.0
v 0.1 0.22 0.0
v 0.1 0.22 0.0
v 0.1 0.22 0.0
v 0.1 0.22 0.0
v 0.1 0.22 -0.0
v 0.1 0.22 -0.0
v 0.1 0.22 -0.0
v 0.42909 0.28 0.0
v 0.30518 0.28 0.18525
v 0.02677 0.28 0.231
v -0.1965 0.28 0.10281
v -0.1965 0.28 -0.10281
v 0.02677 0.28 -0.231
v 0.30518 0.28 -0.18525
v 0.42909 0.4 0.0
v 0.30518 0.4 0.18525
v 0.02677 0.4 0.231
v -0.1965 0.4 0.10281
v -0.1965 0.4 -0.10281
v 0.02677 0.4 -0.231
v 0.30518 0.4 -0.18525
v 0.1 0.46 0.0
v 0.1 0.46 0.0
v 0.1 0.46 0.0
v 0.1 0.46 0.0
v 0.1 0.46 -0.0
v 0.1 0.46 -0.0
v 0.1 0.46 -0.0
v 1.3 0.22 0.0
v 1.3 0.22 0.0
v 1.3 0.22 0.0
v 1.3 0.22 0.0
v 1.3 0.22 -0.0
v 1.3 0.22 -0.0
v 1.3 0.22 -0.0
v 1.66373 0.28 0.0
v 1.52678 0.28 0.20475
v 1.21906 0.28 0.25532
v 0.97229 0.28 0.11363
v 0.97229 0.28 -0.11363
v 1.21906 0.28 -0.25532
v 1.52678 0.28 -0.20475
v 1.66373 0.4 0.0
v 1.52678 0.4 0.20475
v 1.21906 0.4 0.25532
v 0.97229 0.4 0.11363
v 0.97229 0.4 -0.11363
v 1.21906 0.4 -0.25532
v 1.52678 0.4 -0.20475
v 1.3 0.46 0.0
v 1.3 0.46 0.0
v 1.3 0.46 0.0
v 1.3 0.46 0.0
v 1.3 0.46 -0.0
v 1.3 0.46 -0.0
v 1.3 0.46 -0.0
v 2.5 0.22 0.0
v 2.5 0.22 0.0
v 2.5 0.22 0.0
v 2.5 0.22 0.0
v 2.5 0.22 -0.0
v 2.5 0.22 -0.0
v 2.5 0.22 -0.0
v 2.79445 0.28 0.0
v 2.68359 0.28 0.16575
v 2.43448 0.28 0.20669
v 2.23471 0.28 0.09198
v 2.23471 0.28 -0.09198
v 2.43448 0.28 -0.20669
v 2.68359 0.28 -0.16575
v 2.79445 0.4 0.0
v 2.68359 0.4 0.16575
v 2.43448 0.4 0.20669
v 2.23471 0.4 0.09198
v 2.23471 0.4 -0.09198
v 2.43448 0.4 -0.20669
v 2.68359 0.4 -0.16575
v 2.5 0.46 0.0
v 2.5 0.46 0.0
v 2.5 0.46 0.0
v 2.5 0.46 0.0
v 2.5 0.46 -0.0
v 2.5 0.46 -0.0
v 2.5 0.46 -0.0
v 3.7 0.22 0.0
v 3.7 0.22 0.0
v 3.7 0.22 0.0
v 3.7 0.22 0.0
v 3.7 0.22 -0.0
v 3.7 0.22 -0.0
v 3.7 0.22 -0.0
v 4.02909 0.28 0.0
v 3.90518 0.28 0.18525
v 3.62677 0.28 0.231
v 3.4035 0.28 0.10281
v 3.4035 0.28 -0.10281
v 3.62677 0.28 -0.231
v 3.90518 0.28 -0.18525
v 4.02909 0.4 0.0
v 3.90518 0.4 0.18525
v 3.62677 0.4 0.231
v 3.4035 0.4 0.10281
v 3.4035 0.4 -0.10281
v 3.62677 0.4 -0.231
v 3.90518 0.4 -0.18525
v 3.7 0.46 0.0
v 3.7 0.46 0.0
v 3.7 0.46 0.0
v 3.7 0.46 0.0
v 3.7 0.46 -0.0
v 3.7 0.46 -0.0
v 3.7 0.46 -0.0
v -4.3 0.0 1.125
v 4.3 0.0 1.125
v 4.3 0.24 1.125
v -4.3 0.24 1.125
v -4.3 0.0 2.375
v 4.3 0.0 2.375
v 4.3 0.24 2.375
v -4.3 0.24 2.375
v -4.3 0.25 1.2
v 4.3 0.25 1.2
v -4.3 0.18938 1.165
v 4.3 0.18938 1.165
v -4.3 0.18938 1.095
v 4.3 0.18938 1.095
v -4.3 0.25 1.06
v 4.3 0.25 1.06
v -4.3 0.31062 1.095
v 4.3 0.31062 1.095
v -4.3 0.31062 1.165
v 4.3 0.31062 1.165
v -4.3 0.25 2.44
v 4.3 0.25 2.44
v -4.3 0.18938 2.405
v 4.3 0.18938 2.405
v -4.3 0.18938 2.335
v 4.3 0.18938 2.335
v -4.3 0.25 2.3
v 4.3 0.25 2.3
v -4.3 0.31062 2.335
v 4.3 0.31062 2.335
v -4.3 0.31062 2.405
v 4.3 0.31062 2.405
v -3.5 0.22 1.75
v -3.5 0.22 1.75
v -3.5 0.22 1.75
v -3.5 0.22 1.75
v -3.5 0.22 1.75
v -3.5 0.22 1.75
v -3.5 0.22 1.75
v -3.13627 0.28 1.75
v -3.27322 0.28 1.95475
v -3.58094 0.28 2.00532
v -3.82771 0.28 1.86363
v -3.82771 0.28 1.63637
v -3.58094 0.28 1.49468
v -3.27322 0.28 1.54525
v -3.13627 0.4 1.75
v -3.27322 0.4 1.95475
v -3.58094 0.4 2.00532
v -3.82771 0.4 1.86363
v -3.82771 0.4 1.63637
v -3.58094 0.4 1.49468
v -3.27322 0.4 1.54525
v -3.5 0.46 1.75
v -3.5 0.46 1.75
v -3.5 0.46 1.75
v -3.5 0.46 1.75
v -3.5 0.46 1.75
v -3.5 0.46 1.75
v -3.5 0.46 1.75
v -2.3 0.22 1.75
v -2.3 0.22 1.75
v -2.3 0.22 1.75
v -2.3 0.22 1.75
v -2.3 0.22 1.75
v -2.3 0.22 1.75
v -2.3 0.22 1.75
v -2.00555 0.28 1.75
v -2.11641 0.28 1.91575
v -2.36552 0.28 1.95669
v -2.56529 0.28 1.84198
v -2.56529 0.28 1.65802
v -2.36552 0.28 1.54331
v -2.11641 0.28 1.58425
v -2.00555 0.4 1.75
v -2.11641 0.4 1.91575
v -2.36552 0.4 1.95669
v -2.56529 0.4 1.84198
v -2.56529 0.4 1.65802
v -2.36552 0.4 1.54331
v -2.11641 0.4 1.58425
v -2.3 0.46 1.75
v -2.3 0.46 1.75
v -2.3 0.46 1.75
v -2.3 0.46 1.75
v -2.3 0.46 1.75
v -2.3 0.46 1.75
v -2.3 0.46 1.75
v -1.1 0.22 1.75
v -1.1 0.22 1.75
v -1.1 0.22 1.75
v -1.1 0.22 1.75
v -1.1 0.22 1.75
v -1.1 0.22 1.75
v -1.1 0.22 1.75
v -0.77091 0.28 1.75
v -0.89482 0.28 1.93525
v -1.17323 0.28 1.981
v -1.3965 0.28 1.85281
v -1.3965 0.28 1.64719
v -1.17323 0.28 1.519
v -0.89482 0.28 1.56475
v -0.77091 0.4 1.75
v -0.89482 0.4 1.93525
v -1.17323 0.4 1.981
v -1.3965 0.4 1.85281
v -1.3965 0.4 1.64719
v -1.17323 0.4 1.519
v -0.89482 0.4 1.56475
v -1.1 0.46 1.75
v -1.1 0.46 1.75
v -1.1 0.46 1.75
v -1.1 0.46 1.75
v -1.1 0.46 1.75
v -1.1 0.46 1.75
v -1.1 0.46 1.75
v 0.1 0.22 1.75
v 0.1 0.22 1.75
v 0.1 0.22 1.75
v 0.1 0.22 1.75
v 0.1 0.22 1.75
v 0.1 0.22 1.75
v 0.1 0.22 1.75
v 0.46373 0.28 1.75
v 0.32678 0.28 1.95475
v 0.01906 0.28 2.00532
v -0.22771 0.28 1.86363
v -0.22771 0.28 1.63637
v 0.01906 0.28 1.49468
v 0.32678 0.28 1.54525
v 0.46373 0.4 1.75
v 0.32678 0.4 1.95475
v 0.01906 0.4 2.00532
v -0.22771 0.4 1.86363
v -0.22771 0.4 1.63637
v 0.01906 0.4 1.49468
v 0.32678 0.4 1.54525
v 0.1 0.46 1.75
v 0.1 0.46 1.75
v 0.1 0.46 1.75
v 0.1 0.46 1.75
v 0.1 0.46 1.75
v 0.1 0.46 1.75
v 0.1 0.46 1.75
v 1.3 0.22 1.75
v 1.3 0.22 1.75
v 1.3 0.22 1.75
v 1.3 0.22 1.75
v 1.3 0.22 1.75
v 1.3 0.22 1.75
v 1.3 0.22 1.75
v 1.59445 0.28 1.75
v 1.48359 0.28 1.91575
v 1.23448 0.28 1.95669
v 1.03471 0.28 1.84198
v 1.03471 0.28 1.65802
v 1.23448 0.28 1.54331
v 1.48359 0.28 1.58425
v 1.59445 0.4 1.75
v 1.48359 0.4 1.91575
v 1.23448 0.4 1.95669
v 1.03471 0.4 1.84198
v 1.03471 0.4 1.65802
v 1.23448 0.4 1.54331
v 1.48359 0.4 1.58425
v 1.3 0.46 1.75
v 1.3 0.46 1.75
v 1.3 0.46 1.75
v 1.3 0.46 1.75
v 1.3 0.46 1.75
v 1.3 0.46 1.75
v 1.3 0.46 1.75
v 2.5 0.22 1.75
v 2.5 0.22 1.75
v 2.5 0.22 1.75
v 2.5 0.22 1.75
v 2.5 0.22 1.75
v 2.5 0.22 1.75
v 2.5 0.22 1.75
v 2.82909 0.28 1.75
v 2.70518 0.28 1.93525
v 2.42677 0.28 1.981
v 2.2035 0.28 1.85281
v 2.2035 0.28 1.64719
v 2.42677 0.28 1.519
v 2.70518 0.28 1.56475
v 2.82909 0.4 1.75
v 2.70518 0.4 1.93525
v 2.42677 0.4 1.981
v 2.2035 0.4 1.85281
v 2.2035 0.4 1.64719
v 2.42677 0.4 1.519
v 2.70518 0.4 1.56475
v 2.5 0.46 1.75
v 2.5 0.46 1.75
v 2.5 0.46 1.75
v 2.5 0.46 1.75
v 2.5 0.46 1.75
v 2.5 0.46 1.75
v 2.5 0.46 1.75
v 3.7 0.22 1.75
v 3.7 0.22 1.75
v 3.7 0.22 1.75
v 3.7 0.22 1.75
v 3.7 0.22 1.75
v 3.7 0.22 1.75
v 3.7 0.22 1.75
v 4.06373 0.28 1.75
v 3.92678 0.28 1.95475
v 3.61906 0.28 2.00532
v 3.37229 0.28 1.86363
v 3.37229 0.28 1.63637
v 3.61906 0.28 1.49468
v 3.92678 0.28 1.54525
v 4.06373 0.4 1.75
v 3.92678 0.4 1.95475
v 3.61906 0.4 2.00532
v 3.37229 0.4 1.86363
v 3.37229 0.4 1.63637
v 3.61906 0.4 1.49468
v 3.92678 0.4 1.54525
v 3.7 0.46 1.75
v 3.7 0.46 1.75
v 3.7 0.46 1.75
v 3.7 0.46 1.75
v 3.7 0.46 1.75
v 3.7 0.46 1.75
v 3.7 0.46 1.75
g bed_0
usemtl organic_dark
f 1 2 3 4
f 5 8 7 6
f 1 5 6 2
f 2 6 7 3
f 3 7 8 4
f 5 1 4 8
g bed_edge_0
usemtl carbonate
f 19 17 15 13 11 9
f 10 12 14 16 18 20
f 9 11 12 10
f 11 13 14 12
f 13 15 16 14
f 15 17 18 16
f 17 19 20 18
f 19 9 10 20
f 31 29 27 25 23 21
f 22 24 26 28 30 32
f 21 23 24 22
f 23 25 26 24
f 25 27 28 26
f 27 29 30 28
f 29 31 32 30
f 31 21 22 32
g leaf_0_0
usemtl membrane
f 33 34 41 40
f 34 35 42 41
f 35 36 43 42
f 36 37 44 43
f 37 38 45 44
f 38 39 46 45
f 39 33 40 46
f 40 41 48 47
f 41 42 49 48
f 42 43 50 49
f 43 44 51 50
f 44 45 52 51
f 45 46 53 52
f 46 40 47 53
f 47 48 55 54
f 48 49 56 55
f 49 50 57 56
f 50 51 58 57
f 51 52 59 58
f 52 53 60 59
f 53 47 54 60
g leaf_0_1
usemtl membrane
f 61 62 69 68
f 62 63 70 69
f 63 64 71 70
f 64 65 72 71
f 65 66 73 72
f 66 67 74 73
f 67 61 68 74
f 68 69 76 75
f 69 70 77 76
f 70 71 78 77
f 71 72 79 78
f 72 73 80 79
f 73 74 81 80
f 74 68 75 81
f 75 76 83 82
f 76 77 84 83
f 77 78 85 84
f 78 79 86 85
f 79 80 87 86
f 80 81 88 87
f 81 75 82 88
g leaf_0_2
usemtl membrane
f 89 90 97 96
f 90 91 98 97
f 91 92 99 98
f 92 93 100 99
f 93 94 101 100
f 94 95 102 101
f 95 89 96 102
f 96 97 104 103
f 97 98 105 104
f 98 99 106 105
f 99 100 107 106
f 100 101 108 107
f 101 102 109 108
f 102 96 103 109
f 103 104 111 110
f 104 105 112 111
f 105 106 113 112
f 106 107 114 113
f 107 108 115 114
f 108 109 116 115
f 109 103 110 116
g leaf_0_3
usemtl membrane
f 117 118 125 124
f 118 119 126 125
f 119 120 127 126
f 120 121 128 127
f 121 122 129 128
f 122 123 130 129
f 123 117 124 130
f 124 125 132 131
f 125 126 133 132
f 126 127 134 133
f 127 128 135 134
f 128 129 136 135
f 129 130 137 136
f 130 124 131 137
f 131 132 139 138
f 132 133 140 139
f 133 134 141 140
f 134 135 142 141
f 135 136 143 142
f 136 137 144 143
f 137 131 138 144
g leaf_0_4
usemtl membrane
f 145 146 153 152
f 146 147 154 153
f 147 148 155 154
f 148 149 156 155
f 149 150 157 156
f 150 151 158 157
f 151 145 152 158
f 152 153 160 159
f 153 154 161 160
f 154 155 162 161
f 155 156 163 162
f 156 157 164 163
f 157 158 165 164
f 158 152 159 165
f 159 160 167 166
f 160 161 168 167
f 161 162 169 168
f 162 163 170 169
f 163 164 171 170
f 164 165 172 171
f 165 159 166 172
g leaf_0_5
usemtl membrane
f 173 174 181 180
f 174 175 182 181
f 175 176 183 182
f 176 177 184 183
f 177 178 185 184
f 178 179 186 185
f 179 173 180 186
f 180 181 188 187
f 181 182 189 188
f 182 183 190 189
f 183 184 191 190
f 184 185 192 191
f 185 186 193 192
f 186 180 187 193
f 187 188 195 194
f 188 189 196 195
f 189 190 197 196
f 190 191 198 197
f 191 192 199 198
f 192 193 200 199
f 193 187 194 200
g leaf_0_6
usemtl membrane
f 201 202 209 208
f 202 203 210 209
f 203 204 211 210
f 204 205 212 211
f 205 206 213 212
f 206 207 214 213
f 207 201 208 214
f 208 209 216 215
f 209 210 217 216
f 210 211 218 217
f 211 212 219 218
f 212 213 220 219
f 213 214 221 220
f 214 208 215 221
f 215 216 223 222
f 216 217 224 223
f 217 218 225 224
f 218 219 226 225
f 219 220 227 226
f 220 221 228 227
f 221 215 222 228
g bed_1
usemtl organic_dark
f 229 230 231 232
f 233 236 235 234
f 229 233 234 230
f 230 234 235 231
f 231 235 236 232
f 233 229 232 236
g bed_edge_1
usemtl carbonate
f 247 245 243 241 239 237
f 238 240 242 244 246 248
f 237 239 240 238
f 239 241 242 240
f 241 243 244 242
f 243 245 246 244
f 245 247 248 246
f 247 237 238 248
f 259 257 255 253 251 249
f 250 252 254 256 258 260
f 249 251 252 250
f 251 253 254 252
f 253 255 256 254
f 255 257 258 256
f 257 259 260 258
f 259 249 250 260
g leaf_1_0
usemtl membrane
f 261 262 269 268
f 262 263 270 269
f 263 264 271 270
f 264 265 272 271
f 265 266 273 272
f 266 267 274 273
f 267 261 268 274
f 268 269 276 275
f 269 270 277 276
f 270 271 278 277
f 271 272 279 278
f 272 273 280 279
f 273 274 281 280
f 274 268 275 281
f 275 276 283 282
f 276 277 284 283
f 277 278 285 284
f 278 279 286 285
f 279 280 287 286
f 280 281 288 287
f 281 275 282 288
g leaf_1_1
usemtl membrane
f 289 290 297 296
f 290 291 298 297
f 291 292 299 298
f 292 293 300 299
f 293 294 301 300
f 294 295 302 301
f 295 289 296 302
f 296 297 304 303
f 297 298 305 304
f 298 299 306 305
f 299 300 307 306
f 300 301 308 307
f 301 302 309 308
f 302 296 303 309
f 303 304 311 310
f 304 305 312 311
f 305 306 313 312
f 306 307 314 313
f 307 308 315 314
f 308 309 316 315
f 309 303 310 316
g leaf_1_2
usemtl membrane
f 317 318 325 324
f 318 319 326 325
f 319 320 327 326
f 320 321 328 327
f 321 322 329 328
f 322 323 330 329
f 323 317 324 330
f 324 325 332 331
f 325 326 333 332
f 326 327 334 333
f 327 328 335 334
f 328 329 336 335
f 329 330 337 336
f 330 324 331 337
f 331 332 339 338
f 332 333 340 339
f 333 334 341 340
f 334 335 342 341
f 335 336 343 342
f 336 337 344 343
f 337 331 338 344
g leaf_1_3
usemtl membrane
f 345 346 353 352
f 346 347 354 353
f 347 348 355 354
f 348 349 356 355
f 349 350 357 356
f 350 351 358 357
f 351 345 352 358
f 352 353 360 359
f 353 354 361 360
f 354 355 362 361
f 355 356 363 362
f 356 357 364 363
f 357 358 365 364
f 358 352 359 365
f 359 360 367 366
f 360 361 368 367
f 361 362 369 368
f 362 363 370 369
f 363 364 371 370
f 364 365 372 371
f 365 359 366 372
g leaf_1_4
usemtl membrane
f 373 374 381 380
f 374 375 382 381
f 375 376 383 382
f 376 377 384 383
f 377 378 385 384
f 378 379 386 385
f 379 373 380 386
f 380 381 388 387
f 381 382 389 388
f 382 383 390 389
f 383 384 391 390
f 384 385 392 391
f 385 386 393 392
f 386 380 387 393
f 387 388 395 394
f 388 389 396 395
f 389 390 397 396
f 390 391 398 397
f 391 392 399 398
f 392 393 400 399
f 393 387 394 400
g leaf_1_5
usemtl membrane
f 401 402 409 408
f 402 403 410 409
f 403 404 411 410
f 404 405 412 411
f 405 406 413 412
f 406 407 414 413
f 407 401 408 414
f 408 409 416 415
f 409 410 417 416
f 410 411 418 417
f 411 412 419 418
f 412 413 420 419
f 413 414 421 420
f 414 408 415 421
f 415 416 423 422
f 416 417 424 423
f 417 418 425 424
f 418 419 426 425
f 419 420 427 426
f 420 421 428 427
f 421 415 422 428
g leaf_1_6
usemtl membrane
f 429 430 437 436
f 430 431 438 437
f 431 432 439 438
f 432 433 440 439
f 433 434 441 440
f 434 435 442 441
f 435 429 436 442
f 436 437 444 443
f 437 438 445 444
f 438 439 446 445
f 439 440 447 446
f 440 441 448 447
f 441 442 449 448
f 442 436 443 449
f 443 444 451 450
f 444 445 452 451
f 445 446 453 452
f 446 447 454 453
f 447 448 455 454
f 448 449 456 455
f 449 443 450 456
g bed_2
usemtl organic_dark
f 457 458 459 460
f 461 464 463 462
f 457 461 462 458
f 458 462 463 459
f 459 463 464 460
f 461 457 460 464
g bed_edge_2
usemtl carbonate
f 475 473 471 469 467 465
f 466 468 470 472 474 476
f 465 467 468 466
f 467 469 470 468
f 469 471 472 470
f 471 473 474 472
f 473 475 476 474
f 475 465 466 476
f 487 485 483 481 479 477
f 478 480 482 484 486 488
f 477 479 480 478
f 479 481 482 480
f 481 483 484 482
f 483 485 486 484
f 485 487 488 486
f 487 477 478 488
g leaf_2_0
usemtl membrane
f 489 490 497 496
f 490 491 498 497
f 491 492 499 498
f 492 493 500 499
f 493 494 501 500
f 494 495 502 501
f 495 489 496 502
f 496 497 504 503
f 497 498 505 504
f 498 499 506 505
f 499 500 507 506
f 500 501 508 507
f 501 502 509 508
f 502 496 503 509
f 503 504 511 510
f 504 505 512 511
f 505 506 513 512
f 506 507 514 513
f 507 508 515 514
f 508 509 516 515
f 509 503 510 516
g leaf_2_1
usemtl membrane
f 517 518 525 524
f 518 519 526 525
f 519 520 527 526
f 520 521 528 527
f 521 522 529 528
f 522 523 530 529
f 523 517 524 530
f 524 525 532 531
f 525 526 533 532
f 526 527 534 533
f 527 528 535 534
f 528 529 536 535
f 529 530 537 536
f 530 524 531 537
f 531 532 539 538
f 532 533 540 539
f 533 534 541 540
f 534 535 542 541
f 535 536 543 542
f 536 537 544 543
f 537 531 538 544
g leaf_2_2
usemtl membrane
f 545 546 553 552
f 546 547 554 553
f 547 548 555 554
f 548 549 556 555
f 549 550 557 556
f 550 551 558 557
f 551 545 552 558
f 552 553 560 559
f 553 554 561 560
f 554 555 562 561
f 555 556 563 562
f 556 557 564 563
f 557 558 565 564
f 558 552 559 565
f 559 560 567 566
f 560 561 568 567
f 561 562 569 568
f 562 563 570 569
f 563 564 571 570
f 564 565 572 571
f 565 559 566 572
g leaf_2_3
usemtl membrane
f 573 574 581 580
f 574 575 582 581
f 575 576 583 582
f 576 577 584 583
f 577 578 585 584
f 578 579 586 585
f 579 573 580 586
f 580 581 588 587
f 581 582 589 588
f 582 583 590 589
f 583 584 591 590
f 584 585 592 591
f 585 586 593 592
f 586 580 587 593
f 587 588 595 594
f 588 589 596 595
f 589 590 597 596
f 590 591 598 597
f 591 592 599 598
f 592 593 600 599
f 593 587 594 600
g leaf_2_4
usemtl membrane
f 601 602 609 608
f 602 603 610 609
f 603 604 611 610
f 604 605 612 611
f 605 606 613 612
f 606 607 614 613
f 607 601 608 614
f 608 609 616 615
f 609 610 617 616
f 610 611 618 617
f 611 612 619 618
f 612 613 620 619
f 613 614 621 620
f 614 608 615 621
f 615 616 623 622
f 616 617 624 623
f 617 618 625 624
f 618 619 626 625
f 619 620 627 626
f 620 621 628 627
f 621 615 622 628
g leaf_2_5
usemtl membrane
f 629 630 637 636
f 630 631 638 637
f 631 632 639 638
f 632 633 640 639
f 633 634 641 640
f 634 635 642 641
f 635 629 636 642
f 636 637 644 643
f 637 638 645 644
f 638 639 646 645
f 639 640 647 646
f 640 641 648 647
f 641 642 649 648
f 642 636 643 649
f 643 644 651 650
f 644 645 652 651
f 645 646 653 652
f 646 647 654 653
f 647 648 655 654
f 648 649 656 655
f 649 643 650 656
g leaf_2_6
usemtl membrane
f 657 658 665 664
f 658 659 666 665
f 659 660 667 666
f 660 661 668 667
f 661 662 669 668
f 662 663 670 669
f 663 657 664 670
f 664 665 672 671
f 665 666 673 672
f 666 667 674 673
f 667 668 675 674
f 668 669 676 675
f 669 670 677 676
f 670 664 671 677
f 671 672 679 678
f 672 673 680 679
f 673 674 681 680
f 674 675 682 681
f 675 676 683 682
f 676 677 684 683
f 677 671 678 684
