# Generated Silica Street blockout: patch_silicate_a
mtllib silica_street_blockout.mtl
o patch_silicate_a
v 0.0 0.0 0.0
v 0.0 0.0 0.0
v 0.0 0.0 0.0
v 0.0 0.0 0.0
v -0.0 0.0 0.0
v -0.0 0.0 0.0
v -0.0 0.0 0.0
v -0.0 0.0 -0.0
v -0.0 0.0 -0.0
v -0.0 0.0 -0.0
v 0.0 0.0 -0.0
v 0.0 0.0 -0.0
v 2.26274 0.24896 0.0
v 1.95959 0.24896 0.90156
v 1.13137 0.24896 1.56155
v 0.0 0.24896 1.80312
v -1.13137 0.24896 1.56155
v -1.95959 0.24896 0.90156
v -2.26274 0.24896 0.0
v -1.95959 0.24896 -0.90156
v -1.13137 0.24896 -1.56155
v -0.0 0.24896 -1.80312
v 1.13137 0.24896 -1.56155
v 1.95959 0.24896 -0.90156
v 3.2 0.85 0.0
v 2.77128 0.85 1.275
v 1.6 0.85 2.20836
v 0.0 0.85 2.55
v -1.6 0.85 2.20836
v -2.77128 0.85 1.275
v -3.2 0.85 0.0
v -2.77128 0.85 -1.275
v -1.6 0.85 -2.20836
v -0.0 0.85 -2.55
v 1.6 0.85 -2.20836
v 2.77128 0.85 -1.275
v 2.26274 1.45104 0.0
v 1.95959 1.45104 0.90156
v 1.13137 1.45104 1.56155
v 0.0 1.45104 1.80312
v -1.13137 1.45104 1.56155
v -1.95959 1.45104 0.90156
v -2.26274 1.45104 0.0
v -1.95959 1.45104 -0.90156
v -1.13137 1.45104 -1.56155
v -0.0 1.45104 -1.80312
v 1.13137 1.45104 -1.56155
v 1.95959 1.45104 -0.90156
v 0.0 1.7 0.0
v 0.0 1.7 0.0
v 0.0 1.7 0.0
v 0.0 1.7 0.0
v -0.0 1.7 0.0
v -0.0 1.7 0.0
v -0.0 1.7 0.0
v -0.0 1.7 -0.0
v -0.0 1.7 -0.0
v -0.0 1.7 -0.0
v 0.0 1.7 -0.0
v 0.0 1.7 -0.0
v -1.0 0.55 -0.4
v -1.28 2.494 -0.42
v -1.34549 0.55 0.07553
v -1.51493 2.494 -0.09664
v -1.90451 0.55 -0.10611
v -1.89507 2.494 -0.22015
v -1.90451 0.55 -0.69389
v -1.89507 2.494 -0.61985
v -1.34549 0.55 -0.87553
v -1.51493 2.494 -0.74336
v -1.65 3.25 -0.425
v 0.0 0.55 0.2
v -0.26 2.89 0.21
v -0.44914 0.55 0.81819
v -0.56541 2.89 0.63037
v -1.17586 0.55 0.58206
v -1.05959 2.89 0.4698
v -1.17586 0.55 -0.18206
v -1.05959 2.89 -0.0498
v -0.44914 0.55 -0.41819
v -0.56541 2.89 -0.21037
v -0.715 3.8 0.2125
v 0.68 0.55 -0.25
v 0.5424 2.242 -0.2625
v 0.34833 0.55 0.20651
v 0.31686 2.242 0.04792
v -0.18833 0.55 0.03214
v -0.04806 2.242 -0.07065
v -0.18833 0.55 -0.53214
v -0.04806 2.242 -0.45435
v 0.34833 0.55 -0.70651
v 0.31686 2.242 -0.57292
v 0.22 2.9 -0.26562
v 1.45 0.55 0.35
v 1.326 2.638 0.3675
v 1.03541 0.55 0.92063
v 1.04408 2.638 0.75553
v 0.36459 0.55 0.70267
v 0.58792 2.638 0.60732
v 0.36459 0.55 -0.00267
v 0.58792 2.638 0.12768
v 1.03541 0.55 -0.22063
v 1.04408 2.638 -0.02053
v 0.935 3.45 0.37187
v 1.97 0.55 -0.2
v 1.9596 1.99 -0.21
v 1.67979 0.55 0.19944
v 1.76226 1.99 0.06162
v 1.21021 0.55 0.04687
v 1.44294 1.99 -0.04213
v 1.21021 0.55 -0.44687
v 1.44294 1.99 -0.37787
v 1.67979 0.55 -0.59944
v 1.76226 1.99 -0.48162
v 1.705 2.55 -0.2125
v 0.55 0.55 0.8
v 0.454 1.774 0.84
v 0.30816 0.55 1.13287
v 0.28955 1.774 1.06635
v -0.08316 0.55 1.00572
v 0.02345 1.774 0.97989
v -0.08316 0.55 0.59428
v 0.02345 1.774 0.70011
v 0.30816 0.55 0.46713
v 0.28955 1.774 0.61365
v 0.22 2.25 0.85
g host_rock
usemtl host_rock
f 1 2 14 13
f 2 3 15 14
f 3 4 16 15
f 4 5 17 16
f 5 6 18 17
f 6 7 19 18
f 7 8 20 19
f 8 9 21 20
f 9 10 22 21
f 10 11 23 22
f 11 12 24 23
f 12 1 13 24
f 13 14 26 25
f 14 15 27 26
f 15 16 28 27
f 16 17 29 28
f 17 18 30 29
f 18 19 31 30
f 19 20 32 31
f 20 21 33 32
f 21 22 34 33
f 22 23 35 34
f 23 24 36 35
f 24 13 25 36
f 25 26 38 37
f 26 27 39 38
f 27 28 40 39
f 28 29 41 40
f 29 30 42 41
f 30 31 43 42
f 31 32 44 43
f 32 33 45 44
f 33 34 46 45
f 34 35 47 46
f 35 36 48 47
f 36 25 37 48
f 37 38 50 49
f 38 39 51 50
f 39 40 52 51
f 40 41 53 52
f 41 42 54 53
f 42 43 55 54
f 43 44 56 55
f 44 45 57 56
f 45 46 58 57
f 46 47 59 58
f 47 48 60 59
f 48 37 49 60
g facet_0
usemtl silicate_raw
f 69 67 65 63 61
f 61 63 64 62
f 62 64 71
f 63 65 66 64
f 64 66 71
f 65 67 68 66
f 66 68 71
f 67 69 70 68
f 68 70 71
f 69 61 62 70
f 70 62 71
g facet_1
usemtl silicate_raw
f 80 78 76 74 72
f 72 74 75 73
f 73 75 82
f 74 76 77 75
f 75 77 82
f 76 78 79 77
f 77 79 82
f 78 80 81 79
f 79 81 82
f 80 72 73 81
f 81 73 82
g facet_2
usemtl silicate_raw
f 91 89 87 85 83
f 83 85 86 84
f 84 86 93
f 85 87 88 86
f 86 88 93
f 87 89 90 88
f 88 90 93
f 89 91 92 90
f 90 92 93
f 91 83 84 92
f 92 84 93
g facet_3
usemtl silicate_raw
f 102 100 98 96 94
f 94 96 97 95
f 95 97 104
f 96 98 99 97
f 97 99 104
f 98 100 101 99
f 99 101 104
f 100 102 103 101
f 101 103 104
f 102 94 95 103
f 103 95 104
g facet_4
usemtl silicate_raw
f 113 111 109 107 105
f 105 107 108 106
f 106 108 115
f 107 109 110 108
f 108 110 115
f 109 111 112 110
f 110 112 115
f 111 113 114 112
f 112 114 115
f 113 105 106 114
f 114 106 115
g facet_5
usemtl silicate_raw
f 124 122 120 118 116
f 116 118 119 117
f 117 119 126
f 118 120 121 119
f 119 121 126
f 120 122 123 121
f 121 123 126
f 122 124 125 123
f 123 125 126
f 124 116 117 125
f 125 117 126
