# Generated Silica Street blockout: payload_prepared_silica_a
mtllib silica_street_blockout.mtl
o payload_prepared_silica_a
v 0.0 0.0 0.0
v 0.0 0.0 0.0
v -0.0 0.0 0.0
v -0.0 0.0 0.0
v -0.0 0.0 -0.0
v 0.0 0.0 -0.0
v 0.11258 0.055 0.0
v 0.05629 0.055 0.0975
v -0.05629 0.055 0.0975
v -0.11258 0.055 0.0
v -0.05629 0.055 -0.0975
v 0.05629 0.055 -0.0975
v 0.11258 0.165 0.0
v 0.05629 0.165 0.0975
v -0.05629 0.165 0.0975
v -0.11258 0.165 0.0
v -0.05629 0.165 -0.0975
v 0.05629 0.165 -0.0975
v 0.0 0.22 0.0
v 0.0 0.22 0.0
v -0.0 0.22 0.0
v -0.0 0.22 0.0
v -0.0 0.22 -0.0
v 0.0 0.22 -0.0
v 0.13717 0.0 0.172
v 0.13717 0.0 0.172
v 0.13717 0.0 0.172
v 0.13717 0.0 0.172
v 0.13717 0.0 0.172
v 0.13717 0.0 0.172
v 0.24975 0.055 0.172
v 0.19346 0.055 0.2695
v 0.08088 0.055 0.2695
v 0.02458 0.055 0.172
v 0.08088 0.055 0.0745
v 0.19346 0.055 0.0745
v 0.24975 0.165 0.172
v 0.19346 0.165 0.2695
v 0.08088 0.165 0.2695
v 0.02458 0.165 0.172
v 0.08088 0.165 0.0745
v 0.19346 0.165 0.0745
v 0.13717 0.22 0.172
v 0.13717 0.22 0.172
v 0.13717 0.22 0.172
v 0.13717 0.22 0.172
v 0.13717 0.22 0.172
v 0.13717 0.22 0.172
v -0.04895 0.0 0.21448
v -0.04895 0.0 0.21448
v -0.04895 0.0 0.21448
v -0.04895 0.0 0.21448
v -0.04895 0.0 0.21448
v -0.04895 0.0 0.21448
v 0.06363 0.055 0.21448
v 0.00734 0.055 0.31198
v -0.10525 0.055 0.31198
v -0.16154 0.055 0.21448
v -0.10525 0.055 0.11698
v 0.00734 0.055 0.11698
v 0.06363 0.165 0.21448
v 0.00734 0.165 0.31198
v -0.10525 0.165 0.31198
v -0.16154 0.165 0.21448
v -0.10525 0.165 0.11698
v 0.00734 0.165 0.11698
v -0.04895 0.22 0.21448
v -0.04895 0.22 0.21448
v -0.04895 0.22 0.21448
v -0.04895 0.22 0.21448
v -0.04895 0.22 0.21448
v -0.04895 0.22 0.21448
v -0.19821 0.0 0.09545
v -0.19821 0.0 0.09545
v -0.19821 0.0 0.09545
v -0.19821 0.0 0.09545
v -0.19821 0.0 0.09545
v -0.19821 0.0 0.09545
v -0.08563 0.055 0.09545
v -0.14192 0.055 0.19295
v -0.2545 0.055 0.19295
v -0.3108 0.055 0.09545
v -0.2545 0.055 -0.00205
v -0.14192 0.055 -0.00205
v -0.08563 0.165 0.09545
v -0.14192 0.165 0.19295
v -0.2545 0.165 0.19295
v -0.3108 0.165 0.09545
v -0.2545 0.165 -0.00205
v -0.14192 0.165 -0.00205
v -0.19821 0.22 0.09545
v -0.19821 0.22 0.09545
v -0.19821 0.22 0.09545
v -0.19821 0.22 0.09545
v -0.19821 0.22 0.09545
v -0.19821 0.22 0.09545
v -0.19821 0.0 -0.09545
v -0.19821 0.0 -0.09545
v -0.19821 0.0 -0.09545
v -0.19821 0.0 -0.09545
v -0.19821 0.0 -0.09545
v -0.19821 0.0 -0.09545
v -0.08563 0.055 -0.09545
v -0.14192 0.055 0.00205
v -0.2545 0.055 0.00205
v -0.3108 0.055 -0.09545
v -0.2545 0.055 -0.19295
v -0.14192 0.055 -0.19295
v -0.08563 0.165 -0.09545
v -0.14192 0.165 0.00205
v -0.2545 0.165 0.00205
v -0.3108 0.165 -0.09545
v -0.2545 0.165 -0.19295
v -0.14192 0.165 -0.19295
v -0.19821 0.22 -0.09545
v -0.19821 0.22 -0.09545
v -0.19821 0.22 -0.09545
v -0.19821 0.22 -0.09545
v -0.19821 0.22 -0.09545
v -0.19821 0.22 -0.09545
v -0.04895 0.0 -0.21448
v -0.04895 0.0 -0.21448
v -0.04895 0.0 -0.21448
v -0.04895 0.0 -0.21448
v -0.04895 0.0 -0.21448
v -0.04895 0.0 -0.21448
v 0.06363 0.055 -0.21448
v 0.00734 0.055 -0.11698
v -0.10525 0.055 -0.11698
v -0.16154 0.055 -0.21448
v -0.10525 0.055 -0.31198
v 0.00734 0.055 -0.31198
v 0.06363 0.165 -0.21448
v 0.00734 0.165 -0.11698
v -0.10525 0.165 -0.11698
v -0.16154 0.165 -0.21448
v -0.10525 0.165 -0.31198
v 0.00734 0.165 -0.31198
v -0.04895 0.22 -0.21448
v -0.04895 0.22 -0.21448
v -0.04895 0.22 -0.21448
v -0.04895 0.22 -0.21448
v -0.04895 0.22 -0.21448
v -0.04895 0.22 -0.21448
v 0.13717 0.0 -0.172
v 0.13717 0.0 -0.172
v 0.13717 0.0 -0.172
v 0.13717 0.0 -0.172
v 0.13717 0.0 -0.172
v 0.13717 0.0 -0.172
v 0.24975 0.055 -0.172
v 0.19346 0.055 -0.0745
v 0.08088 0.055 -0.0745
v 0.02458 0.055 -0.172
v 0.08088 0.055 -0.2695
v 0.19346 0.055 -0.2695
v 0.24975 0.165 -0.172
v 0.19346 0.165 -0.0745
v 0.08088 0.165 -0.0745
v 0.02458 0.165 -0.172
v 0.08088 0.165 -0.2695
v 0.19346 0.165 -0.2695
v 0.13717 0.22 -0.172
v 0.13717 0.22 -0.172
v 0.13717 0.22 -0.172
v 0.13717 0.22 -0.172
v 0.13717 0.22 -0.172
v 0.13717 0.22 -0.172
g pellet_0
usemtl silicate_prepared
f 1 2 8 7
f 2 3 9 8
f 3 4 10 9
f 4 5 11 10
f 5 6 12 11
f 6 1 7 12
f 7 8 14 13
f 8 9 15 14
f 9 10 16 15
f 10 11 17 16
f 11 12 18 17
f 12 7 13 18
f 13 14 20 19
f 14 15 21 20
f 15 16 22 21
f 16 17 23 22
f 17 18 24 23
f 18 13 19 24
g pellet_1
usemtl silicate_prepared
f 25 26 32 31
f 26 27 33 32
f 27 28 34 33
f 28 29 35 34
f 29 30 36 35
f 30 25 31 36
f 31 32 38 37
f 32 33 39 38
f 33 34 40 39
f 34 35 41 40
f 35 36 42 41
f 36 31 37 42
f 37 38 44 43
f 38 39 45 44
f 39 40 46 45
f 40 41 47 46
f 41 42 48 47
f 42 37 43 48
g pellet_2
usemtl silicate_prepared
f 49 50 56 55
f 50 51 57 56
f 51 52 58 57
f 52 53 59 58
f 53 54 60 59
f 54 49 55 60
f 55 56 62 61
f 56 57 63 62
f 57 58 64 63
f 58 59 65 64
f 59 60 66 65
f 60 55 61 66
f 61 62 68 67
f 62 63 69 68
f 63 64 70 69
f 64 65 71 70
f 65 66 72 71
f 66 61 67 72
g pellet_3
usemtl silicate_prepared
f 73 74 80 79
f 74 75 81 80
f 75 76 82 81
f 76 77 83 82
f 77 78 84 83
f 78 73 79 84
f 79 80 86 85
f 80 81 87 86
f 81 82 88 87
f 82 83 89 88
f 83 84 90 89
f 84 79 85 90
f 85 86 92 91
f 86 87 93 92
f 87 88 94 93
f 88 89 95 94
f 89 90 96 95
f 90 85 91 96
g pellet_4
usemtl silicate_prepared
f 97 98 104 103
f 98 99 105 104
f 99 100 106 105
f 100 101 107 106
f 101 102 108 107
f 102 97 103 108
f 103 104 110 109
f 104 105 111 110
f 105 106 112 111
f 106 107 113 112
f 107 108 114 113
f 108 103 109 114
f 109 110 116 115
f 110 111 117 116
f 111 112 118 117
f 112 113 119 118
f 113 114 120 119
f 114 109 115 120
g pellet_5
usemtl silicate_prepared
f 121 122 128 127
f 122 123 129 128
f 123 124 130 129
f 124 125 131 130
f 125 126 132 131
f 126 121 127 132
f 127 128 134 133
f 128 129 135 134
f 129 130 136 135
f 130 131 137 136
f 131 132 138 137
f 132 127 133 138
f 133 134 140 139
f 134 135 141 140
f 135 136 142 141
f 136 137 143 142
f 137 138 144 143
f 138 133 139 144
g pellet_6
usemtl silicate_prepared
f 145 146 152 151
f 146 147 153 152
f 147 148 154 153
f 148 149 155 154
f 149 150 156 155
f 150 145 151 156
f 151 152 158 157
f 152 153 159 158
f 153 154 160 159
f 154 155 161 160
f 155 156 162 161
f 156 151 157 162
f 157 158 164 163
f 158 159 165 164
f 159 160 166 165
f 160 161 167 166
f 161 162 168 167
f 162 157 163 168
