# Generated Silica Street blockout: payload_raw_silicate_a
mtllib silica_street_blockout.mtl
o payload_raw_silicate_a
v -0.09 0.0 -0.08
v -0.1712 0.396 -0.096
v -0.17983 0.0 0.04364
v -0.23228 0.396 -0.01193
v -0.32517 0.0 -0.00359
v -0.33112 0.396 -0.04404
v -0.32517 0.0 -0.15641
v -0.33112 0.396 -0.14796
v -0.17983 0.0 -0.20364
v -0.23228 0.396 -0.18007
v -0.2695 0.55 -0.1
v 0.21 0.0 0.08
v 0.1678 0.5184 0.096
v 0.09944 0.0 0.23217
v 0.09262 0.5184 0.19947
v -0.07944 0.0 0.17405
v -0.02902 0.5184 0.15995
v -0.07944 0.0 -0.01405
v -0.02902 0.5184 0.03205
v 0.09944 0.0 -0.07217
v 0.09262 0.5184 -0.00747
v 0.06125 0.72 0.1
v 0.38 0.0 -0.02
v 0.3934 0.3456 -0.024
v 0.30399 0.0 0.08462
v 0.34171 0.3456 0.04714
v 0.18101 0.0 0.04466
v 0.25809 0.3456 0.01997
v 0.18101 0.0 -0.08466
v 0.25809 0.3456 -0.06797
v 0.30399 0.0 -0.12462
v 0.34171 0.3456 -0.09514
v 0.33075 0.48 -0.025
v 0.08 0.0 -0.2
v 0.0444 0.3024 -0.24
v 0.0109 0.0 -0.10489
v -0.00259 0.3024 -0.17533
v -0.1009 0.0 -0.14122
v -0.07861 0.3024 -0.20003
v -0.1009 0.0 -0.25878
v -0.07861 0.3024 -0.27997
v 0.0109 0.0 -0.29511
v -0.00259 0.3024 -0.30467
v -0.0245 0.42 -0.25
g facet_0
usemtl silicate_raw
f 9 7 5 3 1
f 1 3 4 2
f 2 4 11
f 3 5 6 4
f 4 6 11
f 5 7 8 6
f 6 8 11
f 7 9 10 8
f 8 10 11
f 9 1 2 10
f 10 2 11
g facet_1
usemtl silicate_raw
f 20 18 16 14 12
f 12 14 15 13
f 13 15 22
f 14 16 17 15
f 15 17 22
f 16 18 19 17
f 17 19 22
f 18 20 21 19
f 19 21 22
f 20 12 13 21
f 21 13 22
g facet_2
usemtl silicate_raw
f 31 29 27 25 23
f 23 25 26 24
f 24 26 33
f 25 27 28 26
f 26 28 33
f 27 29 30 28
f 28 30 33
f 29 31 32 30
f 30 32 33
f 31 23 24 32
f 32 24 33
g facet_3
usemtl silicate_raw
f 42 40 38 36 34
f 34 36 37 35
f 35 37 44
f 36 38 39 37
f 37 39 44
f 38 40 41 39
f 39 41 44
f 40 42 43 41
f 41 43 44
f 42 34 35 43
f 43 35 44
