# Generated Silica Street blockout: proc_mineral_washery_a
mtllib silica_street_blockout.mtl
o proc_mineral_washery_a
v 0.0 0.0 0.0
v 0.0 0.0 0.0
v 0.0 0.0 0.0
v 0.0 0.0 0.0
v -0.0 0.0 0.0
v -0.0 0.0 0.0
v -0.0 0.0 0.0
v -0.0 0.0 0.0
v -0.0 0.0 -0.0
v -0.0 0.0 -0.0
v -0.0 0.0 -0.0
v 0.0 0.0 -0.0
v 0.0 0.0 -0.0
v 0.0 0.0 -0.0
v 2.68701 0.12302 0.0
v 2.42091 0.12302 0.85905
v 1.67532 0.12302 1.54795
v 0.59792 0.12302 1.93026
v -0.59792 0.12302 1.93026
v -1.67532 0.12302 1.54795
v -2.42091 0.12302 0.85905
v -2.68701 0.12302 0.0
v -2.42091 0.12302 -0.85905
v -1.67532 0.12302 -1.54795
v -0.59792 0.12302 -1.93026
v 0.59792 0.12302 -1.93026
v 1.67532 0.12302 -1.54795
v 2.42091 0.12302 -0.85905
v 3.8 0.42 0.0
v 3.42368 0.42 1.21487
v 2.36926 0.42 2.18913
v 0.84558 0.42 2.7298
v -0.84558 0.42 2.7298
v -2.36926 0.42 2.18913
v -3.42368 0.42 1.21487
v -3.8 0.42 0.0
v -3.42368 0.42 -1.21487
v -2.36926 0.42 -2.18913
v -0.84558 0.42 -2.7298
v 0.84558 0.42 -2.7298
v 2.36926 0.42 -2.18913
v 3.42368 0.42 -1.21487
v 2.68701 0.71698 0.0
v 2.42091 0.71698 0.85905
v 1.67532 0.71698 1.54795
v 0.59792 0.71698 1.93026
v -0.59792 0.71698 1.93026
v -1.67532 0.71698 1.54795
v -2.42091 0.71698 0.85905
v -2.68701 0.71698 0.0
v -2.42091 0.71698 -0.85905
v -1.67532 0.71698 -1.54795
v -0.59792 0.71698 -1.93026
v 0.59792 0.71698 -1.93026
v 1.67532 0.71698 -1.54795
v 2.42091 0.71698 -0.85905
v 0.0 0.84 0.0
v 0.0 0.84 0.0
v 0.0 0.84 0.0
v 0.0 0.84 0.0
v -0.0 0.84 0.0
v -0.0 0.84 0.0
v -0.0 0.84 0.0
v -0.0 0.84 0.0
v -0.0 0.84 -0.0
v -0.0 0.84 -0.0
v -0.0 0.84 -0.0
v 0.0 0.84 -0.0
v 0.0 0.84 -0.0
v 0.0 0.84 -0.0
v -2.25 0.35 -0.35
v -2.25 0.35 -0.35
v -2.25 0.35 -0.35
v -2.25 0.35 -0.35
v -2.25 0.35 -0.35
v -2.25 0.35 -0.35
v -2.25 0.35 -0.35
v -2.25 0.35 -0.35
v -2.25 0.35 -0.35
v -2.25 0.35 -0.35
v -1.54289 0.49645 -0.35
v -1.67794 0.49645 0.16953
v -2.03149 0.49645 0.49062
v -2.46851 0.49645 0.49062
v -2.82206 0.49645 0.16953
v -2.95711 0.49645 -0.35
v -2.82206 0.49645 -0.86953
v -2.46851 0.49645 -1.19062
v -2.03149 0.49645 -1.19062
v -1.67794 0.49645 -0.86953
v -1.25 0.85 -0.35
v -1.44098 0.85 0.38473
v -1.94098 0.85 0.83882
v -2.55902 0.85 0.83882
v -3.05902 0.85 0.38473
v -3.25 0.85 -0.35
v -3.05902 0.85 -1.08473
v -2.55902 0.85 -1.53882
v -1.94098 0.85 -1.53882
v -1.44098 0.85 -1.08473
v -1.54289 1.20355 -0.35
v -1.67794 1.20355 0.16953
v -2.03149 1.20355 0.49062
v -2.46851 1.20355 0.49062
v -2.82206 1.20355 0.16953
v -2.95711 1.20355 -0.35
v -2.82206 1.20355 -0.86953
v -2.46851 1.20355 -1.19062
v -2.03149 1.20355 -1.19062
v -1.67794 1.20355 -0.86953
v -2.25 1.35 -0.35
v -2.25 1.35 -0.35
v -2.25 1.35 -0.35
v -2.25 1.35 -0.35
v -2.25 1.35 -0.35
v -2.25 1.35 -0.35
v -2.25 1.35 -0.35
v -2.25 1.35 -0.35
v -2.25 1.35 -0.35
v -2.25 1.35 -0.35
v 0.0 0.45 0.0
v 0.0 0.45 0.0
v 0.0 0.45 0.0
v -0.0 0.45 0.0
v -0.0 0.45 0.0
v -0.0 0.45 0.0
v -0.0 0.45 -0.0
v -0.0 0.45 -0.0
v 0.0 0.45 -0.0
v 0.0 0.45 -0.0
v 0.81317 0.57302 0.0
v 0.65787 0.57302 0.62344
v 0.25128 0.57302 1.00875
v -0.25128 0.57302 1.00875
v -0.65787 0.57302 0.62344
v -0.81317 0.57302 0.0
v -0.65787 0.57302 -0.62344
v -0.25128 0.57302 -1.00875
v 0.25128 0.57302 -1.00875
v 0.65787 0.57302 -0.62344
v 1.15 0.87 0.0
v 0.93037 0.87 0.88168
v 0.35537 0.87 1.42658
v -0.35537 0.87 1.42658
v -0.93037 0.87 0.88168
v -1.15 0.87 0.0
v -0.93037 0.87 -0.88168
v -0.35537 0.87 -1.42658
v 0.35537 0.87 -1.42658
v 0.93037 0.87 -0.88168
v 0.81317 1.16698 0.0
v 0.65787 1.16698 0.62344
v 0.25128 1.16698 1.00875
v -0.25128 1.16698 1.00875
v -0.65787 1.16698 0.62344
v -0.81317 1.16698 0.0
v -0.65787 1.16698 -0.62344
v -0.25128 1.16698 -1.00875
v 0.25128 1.16698 -1.00875
v 0.65787 1.16698 -0.62344
v 0.0 1.29 0.0
v 0.0 1.29 0.0
v 0.0 1.29 0.0
v -0.0 1.29 0.0
v -0.0 1.29 0.0
v -0.0 1.29 0.0
v -0.0 1.29 -0.0
v -0.0 1.29 -0.0
v 0.0 1.29 -0.0
v 0.0 1.29 -0.0
v 2.3 0.35 -0.35
v 2.3 0.35 -0.35
v 2.3 0.35 -0.35
v 2.3 0.35 -0.35
v 2.3 0.35 -0.35
v 2.3 0.35 -0.35
v 2.3 0.35 -0.35
v 2.3 0.35 -0.35
v 2.3 0.35 -0.35
v 3.12272 0.51 -0.35
v 2.93024 0.51 0.318
v 2.44286 0.51 0.67344
v 1.88864 0.51 0.55
v 1.52689 0.51 0.00544
v 1.52689 0.51 -0.70544
v 1.88864 0.51 -1.25
v 2.44286 0.51 -1.37344
v 2.93024 0.51 -1.018
v 3.12272 0.83 -0.35
v 2.93024 0.83 0.318
v 2.44286 0.83 0.67344
v 1.88864 0.83 0.55
v 1.52689 0.83 0.00544
v 1.52689 0.83 -0.70544
v 1.88864 0.83 -1.25
v 2.44286 0.83 -1.37344
v 2.93024 0.83 -1.018
v 2.3 0.99 -0.35
v 2.3 0.99 -0.35
v 2.3 0.99 -0.35
v 2.3 0.99 -0.35
v 2.3 0.99 -0.35
v 2.3 0.99 -0.35
v 2.3 0.99 -0.35
v 2.3 0.99 -0.35
v 2.3 0.99 -0.35
v 3.75 0.12 -0.095
v 2.325 2.484 -0.095
v 3.67954 0.07753 -0.0475
v 2.25454 2.44153 -0.0475
v 3.67954 0.07753 0.0475
v 2.25454 2.44153 0.0475
v 3.75 0.12 0.095
v 2.325 2.484 0.095
v 3.82046 0.16247 0.0475
v 2.39546 2.52647 0.0475
v 3.82046 0.16247 -0.0475
v 2.39546 2.52647 -0.0475
v 2.325 2.484 -0.075
v 0.0 3.45 -0.075
v 2.30008 2.42402 -0.0375
v -0.02492 3.39002 -0.0375
v 2.30008 2.42402 0.0375
v -0.02492 3.39002 0.0375
v 2.325 2.484 0.075
v -0.0 3.45 0.075
v 2.34992 2.54398 0.0375
v 0.02492 3.50998 0.0375
v 2.34992 2.54398 -0.0375
v 0.02492 3.50998 -0.0375
v 3.28463 0.12 1.28752
v 2.05055 2.484 0.76502
v 3.20021 0.07943 1.30335
v 1.96612 2.44343 0.78085
v 3.16317 0.07943 1.39084
v 1.92908 2.44343 0.86834
v 3.21056 0.12 1.46248
v 1.97647 2.484 0.93998
v 3.29498 0.16057 1.44665
v 2.0609 2.52457 0.92415
v 3.33202 0.16057 1.35916
v 2.09794 2.52457 0.83666
v 2.04275 2.484 0.78344
v 0.02924 3.45 -0.06906
v 2.00396 2.42459 0.80773
v -0.00955 3.39059 -0.04477
v 1.97472 2.42459 0.8768
v -0.03879 3.39059 0.0243
v 1.98427 2.484 0.92156
v -0.02924 3.45 0.06906
v 2.02306 2.54341 0.89727
v 0.00955 3.50941 0.04477
v 2.0523 2.54341 0.8282
v 0.03879 3.50941 -0.0243
v 1.94964 0.12 2.3228
v 1.23714 2.484 1.41781
v 1.86657 0.08396 2.29407
v 1.15407 2.44796 1.38908
v 1.79193 0.08396 2.35284
v 1.07943 2.44796 1.44784
v 1.80036 0.12 2.44034
v 1.08786 2.484 1.53534
v 1.88343 0.15604 2.46906
v 1.17093 2.52004 1.56407
v 1.95807 0.15604 2.4103
v 1.24557 2.52004 1.5053
v 1.22143 2.484 1.43018
v 0.05893 3.45 -0.04639
v 1.1736 2.42623 1.43005
v 0.0111 3.39223 -0.04653
v 1.11467 2.42623 1.47644
v -0.04783 3.39223 -0.00013
v 1.10357 2.484 1.52297
v -0.05893 3.45 0.04639
v 1.1514 2.54177 1.5231
v -0.0111 3.50777 0.04653
v 1.21033 2.54177 1.47671
v 0.04783 3.50777 0.00013
v 0.0 0.08159 2.66311
v 0.0 2.44559 1.61811
v -0.08227 0.1008 2.70656
v -0.08227 2.4648 1.66156
v -0.08227 0.1392 2.79344
v -0.08227 2.5032 1.74844
v 0.0 0.15841 2.83689
v 0.0 2.52241 1.79189
v 0.08227 0.1392 2.79344
v 0.08227 2.5032 1.74844
v 0.08227 0.1008 2.70656
v 0.08227 2.4648 1.66156
v 0.075 2.484 1.705
v 0.075 3.45 -0.0
v 0.0375 2.42749 1.67298
v 0.0375 3.39349 -0.03202
v -0.0375 2.42749 1.67298
v -0.0375 3.39349 -0.03202
v -0.075 2.484 1.705
v -0.075 3.45 0.0
v -0.0375 2.54051 1.73702
v -0.0375 3.50651 0.03202
v 0.0375 2.54051 1.73702
v 0.0375 3.50651 0.03202
v -1.80036 0.12 2.44034
v -1.08786 2.484 1.53534
v -1.79193 0.08396 2.35284
v -1.07943 2.44796 1.44784
v -1.86657 0.08396 2.29407
v -1.15407 2.44796 1.38908
v -1.94964 0.12 2.3228
v -1.23714 2.484 1.41781
v -1.95807 0.15604 2.4103
v -1.24557 2.52004 1.5053
v -1.88343 0.15604 2.46906
v -1.17093 2.52004 1.56407
v -1.10357 2.484 1.52297
v 0.05893 3.45 0.04639
v -1.11467 2.42623 1.47644
v 0.04783 3.39223 -0.00013
v -1.1736 2.42623 1.43005
v -0.0111 3.39223 -0.04653
v -1.22143 2.484 1.43018
v -0.05893 3.45 -0.04639
v -1.21033 2.54177 1.47671
v -0.04783 3.50777 0.00013
v -1.1514 2.54177 1.5231
v 0.0111 3.50777 0.04653
v -3.21056 0.12 1.46248
v -1.97647 2.484 0.93998
v -3.16317 0.07943 1.39084
v -1.92908 2.44343 0.86834
v -3.20021 0.07943 1.30335
v -1.96612 2.44343 0.78085
v -3.28463 0.12 1.28752
v -2.05055 2.484 0.76502
v -3.33202 0.16057 1.35916
v -2.09794 2.52457 0.83666
v -3.29498 0.16057 1.44665
v -2.0609 2.52457 0.92415
v -1.98427 2.484 0.92156
v 0.02924 3.45 0.06906
v -1.97472 2.42459 0.8768
v 0.03879 3.39059 0.0243
v -2.00396 2.42459 0.80773
v 0.00955 3.39059 -0.04477
v -2.04275 2.484 0.78344
v -0.02924 3.45 -0.06906
v -2.0523 2.54341 0.8282
v -0.03879 3.50941 -0.0243
v -2.02306 2.54341 0.89727
v -0.00955 3.50941 0.04477
v -3.75 0.12 0.095
v -2.325 2.484 0.095
v -3.67954 0.07753 0.0475
v -2.25454 2.44153 0.0475
v -3.67954 0.07753 -0.0475
v -2.25454 2.44153 -0.0475
v -3.75 0.12 -0.095
v -2.325 2.484 -0.095
v -3.82046 0.16247 -0.0475
v -2.39546 2.52647 -0.0475
v -3.82046 0.16247 0.0475
v -2.39546 2.52647 0.0475
v -2.325 2.484 0.075
v 0.0 3.45 0.075
v -2.30008 2.42402 0.0375
v 0.02492 3.39002 0.0375
v -2.30008 2.42402 -0.0375
v 0.02492 3.39002 -0.0375
v -2.325 2.484 -0.075
v -0.0 3.45 -0.075
v -2.34992 2.54398 -0.0375
v -0.02492 3.50998 -0.0375
v -2.34992 2.54398 0.0375
v -0.02492 3.50998 0.0375
v -3.28463 0.12 -1.28752
v -2.05055 2.484 -0.76502
v -3.20021 0.07943 -1.30335
v -1.96612 2.44343 -0.78085
v -3.16317 0.07943 -1.39084
v -1.92908 2.44343 -0.86834
v -3.21056 0.12 -1.46248
v -1.97647 2.484 -0.93998
v -3.29498 0.16057 -1.44665
v -2.0609 2.52457 -0.92415
v -3.33202 0.16057 -1.35916
v -2.09794 2.52457 -0.83666
v -2.04275 2.484 -0.78344
v -0.02924 3.45 0.06906
v -2.00396 2.42459 -0.80773
v 0.00955 3.39059 0.04477
v -1.97472 2.42459 -0.8768
v 0.03879 3.39059 -0.0243
v -1.98427 2.484 -0.92156
v 0.02924 3.45 -0.06906
v -2.02306 2.54341 -0.89727
v -0.00955 3.50941 -0.04477
v -2.0523 2.54341 -0.8282
v -0.03879 3.50941 0.0243
v -1.94964 0.12 -2.3228
v -1.23714 2.484 -1.41781
v -1.86657 0.08396 -2.29407
v -1.15407 2.44796 -1.38908
v -1.79193 0.08396 -2.35284
v -1.07943 2.44796 -1.44784
v -1.80036 0.12 -2.44034
v -1.08786 2.484 -1.53534
v -1.88343 0.15604 -2.46906
v -1.17093 2.52004 -1.56407
v -1.95807 0.15604 -2.4103
v -1.24557 2.52004 -1.5053
v -1.22143 2.484 -1.43018
v -0.05893 3.45 0.04639
v -1.1736 2.42623 -1.43005
v -0.0111 3.39223 0.04653
v -1.11467 2.42623 -1.47644
v 0.04783 3.39223 0.00013
v -1.10357 2.484 -1.52297
v 0.05893 3.45 -0.04639
v -1.1514 2.54177 -1.5231
v 0.0111 3.50777 -0.04653
v -1.21033 2.54177 -1.47671
v -0.04783 3.50777 -0.00013
v -0.0 0.15841 -2.83689
v -0.0 2.52241 -1.79189
v -0.08227 0.1392 -2.79344
v -0.08227 2.5032 -1.74844
v -0.08227 0.1008 -2.70656
v -0.08227 2.4648 -1.66156
v -0.0 0.08159 -2.66311
v -0.0 2.44559 -1.61811
v 0.08227 0.1008 -2.70656
v 0.08227 2.4648 -1.66156
v 0.08227 0.1392 -2.79344
v 0.08227 2.5032 -1.74844
v -0.075 2.484 -1.705
v -0.075 3.45 0.0
v -0.0375 2.42749 -1.67298
v -0.0375 3.39349 0.03202
v 0.0375 2.42749 -1.67298
v 0.0375 3.39349 0.03202
v 0.075 2.484 -1.705
v 0.075 3.45 -0.0
v 0.0375 2.54051 -1.73702
v 0.0375 3.50651 -0.03202
v -0.0375 2.54051 -1.73702
v -0.0375 3.50651 -0.03202
v 1.80036 0.12 -2.44034
v 1.08786 2.484 -1.53534
v 1.79193 0.08396 -2.35284
v 1.07943 2.44796 -1.44784
v 1.86657 0.08396 -2.29407
v 1.15407 2.44796 -1.38908
v 1.94964 0.12 -2.3228
v 1.23714 2.484 -1.41781
v 1.95807 0.15604 -2.4103
v 1.24557 2.52004 -1.5053
v 1.88343 0.15604 -2.46906
v 1.17093 2.52004 -1.56407
v 1.10357 2.484 -1.52297
v -0.05893 3.45 -0.04639
v 1.11467 2.42623 -1.47644
v -0.04783 3.39223 0.00013
v 1.1736 2.42623 -1.43005
v 0.0111 3.39223 0.04653
v 1.22143 2.484 -1.43018
v 0.05893 3.45 0.04639
v 1.21033 2.54177 -1.47671
v 0.04783 3.50777 -0.00013
v 1.1514 2.54177 -1.5231
v -0.0111 3.50777 -0.04653
v 3.21056 0.12 -1.46248
v 1.97647 2.484 -0.93998
v 3.16317 0.07943 -1.39084
v 1.92908 2.44343 -0.86834
v 3.20021 0.07943 -1.30335
v 1.96612 2.44343 -0.78085
v 3.28463 0.12 -1.28752
v 2.05055 2.484 -0.76502
v 3.33202 0.16057 -1.35916
v 2.09794 2.52457 -0.83666
v 3.29498 0.16057 -1.44665
v 2.0609 2.52457 -0.92415
v 1.98427 2.484 -0.92156
v -0.02924 3.45 -0.06906
v 1.97472 2.42459 -0.8768
v -0.03879 3.39059 -0.0243
v 2.00396 2.42459 -0.80773
v -0.00955 3.39059 0.04477
v 2.04275 2.484 -0.78344
v 0.02924 3.45 0.06906
v 2.0523 2.54341 -0.8282
v 0.03879 3.50941 0.0243
v 2.02306 2.54341 -0.89727
v 0.00955 3.50941 -0.04477
v -1.45 0.75 -0.08
v 1.35 0.75 -0.08
v -1.45 0.66515 -0.11515
v 1.35 0.66515 -0.11515
v -1.45 0.63 -0.2
v 1.35 0.63 -0.2
v -1.45 0.66515 -0.28485
v 1.35 0.66515 -0.28485
v -1.45 0.75 -0.32
v 1.35 0.75 -0.32
v -1.45 0.83485 -0.28485
v 1.35 0.83485 -0.28485
v -1.45 0.87 -0.2
v 1.35 0.87 -0.2
v -1.45 0.83485 -0.11515
v 1.35 0.83485 -0.11515
v -2.8 0.42 1.65
v -2.8 0.42 1.65
v -2.8 0.42 1.65
v -2.8 0.42 1.65
v -2.8 0.42 1.65
v -2.8 0.42 1.65
v -2.8 0.42 1.65
v -2.59215 0.53 1.65
v -2.67041 0.53 1.8125
v -2.84625 0.53 1.85263
v -2.98726 0.53 1.74018
v -2.98726 0.53 1.55982
v -2.84625 0.53 1.44737
v -2.67041 0.53 1.4875
v -2.59215 0.75 1.65
v -2.67041 0.75 1.8125
v -2.84625 0.75 1.85263
v -2.98726 0.75 1.74018
v -2.98726 0.75 1.55982
v -2.84625 0.75 1.44737
v -2.67041 0.75 1.4875
v -2.8 0.86 1.65
v -2.8 0.86 1.65
v -2.8 0.86 1.65
v -2.8 0.86 1.65
v -2.8 0.86 1.65
v -2.8 0.86 1.65
v -2.8 0.86 1.65
v 2.8 0.42 1.65
v 2.8 0.42 1.65
v 2.8 0.42 1.65
v 2.8 0.42 1.65
v 2.8 0.42 1.65
v 2.8 0.42 1.65
v 2.8 0.42 1.65
v 3.00785 0.53 1.65
v 2.92959 0.53 1.8125
v 2.75375 0.53 1.85263
v 2.61274 0.53 1.74018
v 2.61274 0.53 1.55982
v 2.75375 0.53 1.44737
v 2.92959 0.53 1.4875
v 3.00785 0.75 1.65
v 2.92959 0.75 1.8125
v 2.75375 0.75 1.85263
v 2.61274 0.75 1.74018
v 2.61274 0.75 1.55982
v 2.75375 0.75 1.44737
v 2.92959 0.75 1.4875
v 2.8 0.86 1.65
v 2.8 0.86 1.65
v 2.8 0.86 1.65
v 2.8 0.86 1.65
v 2.8 0.86 1.65
v 2.8 0.86 1.65
v 2.8 0.86 1.65
g base
usemtl shell_teal
f 1 2 16 15
f 2 3 17 16
f 3 4 18 17
f 4 5 19 18
f 5 6 20 19
f 6 7 21 20
f 7 8 22 21
f 8 9 23 22
f 9 10 24 23
f 10 11 25 24
f 11 12 26 25
f 12 13 27 26
f 13 14 28 27
f 14 1 15 28
f 15 16 30 29
f 16 17 31 30
f 17 18 32 31
f 18 19 33 32
f 19 20 34 33
f 20 21 35 34
f 21 22 36 35
f 22 23 37 36
f 23 24 38 37
f 24 25 39 38
f 25 26 40 39
f 26 27 41 40
f 27 28 42 41
f 28 15 29 42
f 29 30 44 43
f 30 31 45 44
f 31 32 46 45
f 32 33 47 46
f 33 34 48 47
f 34 35 49 48
f 35 36 50 49
f 36 37 51 50
f 37 38 52 51
f 38 39 53 52
f 39 40 54 53
f 40 41 55 54
f 41 42 56 55
f 42 29 43 56
f 43 44 58 57
f 44 45 59 58
f 45 46 60 59
f 46 47 61 60
f 47 48 62 61
f 48 49 63 62
f 49 50 64 63
f 50 51 65 64
f 51 52 66 65
f 52 53 67 66
f 53 54 68 67
f 54 55 69 68
f 55 56 70 69
f 56 43 57 70
g dirty_intake
usemtl organic_dark
f 71 72 82 81
f 72 73 83 82
f 73 74 84 83
f 74 75 85 84
f 75 76 86 85
f 76 77 87 86
f 77 78 88 87
f 78 79 89 88
f 79 80 90 89
f 80 71 81 90
f 81 82 92 91
f 82 83 93 92
f 83 84 94 93
f 84 85 95 94
f 85 86 96 95
f 86 87 97 96
f 87 88 98 97
f 88 89 99 98
f 89 90 100 99
f 90 81 91 100
f 91 92 102 101
f 92 93 103 102
f 93 94 104 103
f 94 95 105 104
f 95 96 106 105
f 96 97 107 106
f 97 98 108 107
f 98 99 109 108
f 99 100 110 109
f 100 91 101 110
f 101 102 112 111
f 102 103 113 112
f 103 104 114 113
f 104 105 115 114
f 105 106 116 115
f 106 107 117 116
f 107 108 118 117
f 108 109 119 118
f 109 110 120 119
f 110 101 111 120
g wash_basin
usemtl membrane
f 121 122 132 131
f 122 123 133 132
f 123 124 134 133
f 124 125 135 134
f 125 126 136 135
f 126 127 137 136
f 127 128 138 137
f 128 129 139 138
f 129 130 140 139
f 130 121 131 140
f 131 132 142 141
f 132 133 143 142
f 133 134 144 143
f 134 135 145 144
f 135 136 146 145
f 136 137 147 146
f 137 138 148 147
f 138 139 149 148
f 139 140 150 149
f 140 131 141 150
f 141 142 152 151
f 142 143 153 152
f 143 144 154 153
f 144 145 155 154
f 145 146 156 155
f 146 147 157 156
f 147 148 158 157
f 148 149 159 158
f 149 150 160 159
f 150 141 151 160
f 151 152 162 161
f 152 153 163 162
f 153 154 164 163
f 154 155 165 164
f 155 156 166 165
f 156 157 167 166
f 157 158 168 167
f 158 159 169 168
f 159 160 170 169
f 160 151 161 170
g output_shelf
usemtl silicate_prepared
f 171 172 181 180
f 172 173 182 181
f 173 174 183 182
f 174 175 184 183
f 175 176 185 184
f 176 177 186 185
f 177 178 187 186
f 178 179 188 187
f 179 171 180 188
f 180 181 190 189
f 181 182 191 190
f 182 183 192 191
f 183 184 193 192
f 184 185 194 193
f 185 186 195 194
f 186 187 196 195
f 187 188 197 196
f 188 180 189 197
f 189 190 199 198
f 190 191 200 199
f 191 192 201 200
f 192 193 202 201
f 193 194 203 202
f 194 195 204 203
f 195 196 205 204
f 196 197 206 205
f 197 189 198 206
g lattice
usemtl carbonate
f 217 215 213 211 209 207
f 208 210 212 214 216 218
f 207 209 210 208
f 209 211 212 210
f 211 213 214 212
f 213 215 216 214
f 215 217 218 216
f 217 207 208 218
f 229 227 225 223 221 219
f 220 222 224 226 228 230
f 219 221 222 220
f 221 223 224 222
f 223 225 226 224
f 225 227 228 226
f 227 229 230 228
f 229 219 220 230
f 241 239 237 235 233 231
f 232 234 236 238 240 242
f 231 233 234 232
f 233 235 236 234
f 235 237 238 236
f 237 239 240 238
f 239 241 242 240
f 241 231 232 242
f 253 251 249 247 245 243
f 244 246 248 250 252 254
f 243 245 246 244
f 245 247 248 246
f 247 249 250 248
f 249 251 252 250
f 251 253 254 252
f 253 243 244 254
f 265 263 261 259 257 255
f 256 258 260 262 264 266
f 255 257 258 256
f 257 259 260 258
f 259 261 262 260
f 261 263 264 262
f 263 265 266 264
f 265 255 256 266
f 277 275 273 271 269 267
f 268 270 272 274 276 278
f 267 269 270 268
f 269 271 272 270
f 271 273 274 272
f 273 275 276 274
f 275 277 278 276
f 277 267 268 278
f 289 287 285 283 281 279
f 280 282 284 286 288 290
f 279 281 282 280
f 281 283 284 282
f 283 285 286 284
f 285 287 288 286
f 287 289 290 288
f 289 279 280 290
f 301 299 297 295 293 291
f 292 294 296 298 300 302
f 291 293 294 292
f 293 295 296 294
f 295 297 298 296
f 297 299 300 298
f 299 301 302 300
f 301 291 292 302
f 313 311 309 307 305 303
f 304 306 308 310 312 314
f 303 305 306 304
f 305 307 308 306
f 307 309 310 308
f 309 311 312 310
f 311 313 314 312
f 313 303 304 314
f 325 323 321 319 317 315
f 316 318 320 322 324 326
f 315 317 318 316
f 317 319 320 318
f 319 321 322 320
f 321 323 324 322
f 323 325 326 324
f 325 315 316 326
f 337 335 333 331 329 327
f 328 330 332 334 336 338
f 327 329 330 328
f 329 331 332 330
f 331 333 334 332
f 333 335 336 334
f 335 337 338 336
f 337 327 328 338
f 349 347 345 343 341 339
f 340 342 344 346 348 350
f 339 341 342 340
f 341 343 344 342
f 343 345 346 344
f 345 347 348 346
f 347 349 350 348
f 349 339 340 350
f 361 359 357 355 353 351
f 352 354 356 358 360 362
f 351 353 354 352
f 353 355 356 354
f 355 357 358 356
f 357 359 360 358
f 359 361 362 360
f 361 351 352 362
f 373 371 369 367 365 363
f 364 366 368 370 372 374
f 363 365 366 364
f 365 367 368 366
f 367 369 370 368
f 369 371 372 370
f 371 373 374 372
f 373 363 364 374
f 385 383 381 379 377 375
f 376 378 380 382 384 386
f 375 377 378 376
f 377 379 380 378
f 379 381 382 380
f 381 383 384 382
f 383 385 386 384
f 385 375 376 386
f 397 395 393 391 389 387
f 388 390 392 394 396 398
f 387 389 390 388
f 389 391 392 390
f 391 393 394 392
f 393 395 396 394
f 395 397 398 396
f 397 387 388 398
f 409 407 405 403 401 399
f 400 402 404 406 408 410
f 399 401 402 400
f 401 403 404 402
f 403 405 406 404
f 405 407 408 406
f 407 409 410 408
f 409 399 400 410
f 421 419 417 415 413 411
f 412 414 416 418 420 422
f 411 413 414 412
f 413 415 416 414
f 415 417 418 416
f 417 419 420 418
f 419 421 422 420
f 421 411 412 422
f 433 431 429 427 425 423
f 424 426 428 430 432 434
f 423 425 426 424
f 425 427 428 426
f 427 429 430 428
f 429 431 432 430
f 431 433 434 432
f 433 423 424 434
f 445 443 441 439 437 435
f 436 438 440 442 444 446
f 435 437 438 436
f 437 439 440 438
f 439 441 442 440
f 441 443 444 442
f 443 445 446 444
f 445 435 436 446
f 457 455 453 451 449 447
f 448 450 452 454 456 458
f 447 449 450 448
f 449 451 452 450
f 451 453 454 452
f 453 455 456 454
f 455 457 458 456
f 457 447 448 458
f 469 467 465 463 461 459
f 460 462 464 466 468 470
f 459 461 462 460
f 461 463 464 462
f 463 465 466 464
f 465 467 468 466
f 467 469 470 468
f 469 459 460 470
f 481 479 477 475 473 471
f 472 474 476 478 480 482
f 471 473 474 472
f 473 475 476 474
f 475 477 478 476
f 477 479 480 478
f 479 481 482 480
f 481 471 472 482
f 493 491 489 487 485 483
f 484 486 488 490 492 494
f 483 485 486 484
f 485 487 488 486
f 487 489 490 488
f 489 491 492 490
f 491 493 494 492
f 493 483 484 494
g flow_channel
usemtl membrane
f 509 507 505 503 501 499 497 495
f 496 498 500 502 504 506 508 510
f 495 497 498 496
f 497 499 500 498
f 499 501 502 500
f 501 503 504 502
f 503 505 506 504
f 505 507 508 506
f 507 509 510 508
f 509 495 496 510
g activity_organs
usemtl active_amber
f 511 512 519 518
f 512 513 520 519
f 513 514 521 520
f 514 515 522 521
f 515 516 523 522
f 516 517 524 523
f 517 511 518 524
f 518 519 526 525
f 519 520 527 526
f 520 521 528 527
f 521 522 529 528
f 522 523 530 529
f 523 524 531 530
f 524 518 525 531
f 525 526 533 532
f 526 527 534 533
f 527 528 535 534
f 528 529 536 535
f 529 530 537 536
f 530 531 538 537
f 531 525 532 538
f 539 540 547 546
f 540 541 548 547
f 541 542 549 548
f 542 543 550 549
f 543 544 551 550
f 544 545 552 551
f 545 539 546 552
f 546 547 554 553
f 547 548 555 554
f 548 549 556 555
f 549 550 557 556
f 550 551 558 557
f 551 552 559 558
f 552 546 553 559
f 553 554 561 560
f 554 555 562 561
f 555 556 563 562
f 556 557 564 563
f 557 558 565 564
f 558 559 566 565
f 559 553 560 566
