# Generated Silica Street blockout: res_shelter_cluster_a
mtllib silica_street_blockout.mtl
o res_shelter_cluster_a
v 0.0 0.0 0.0
v 0.0 0.0 0.0
v 0.0 0.0 0.0
v 0.0 0.0 0.0
v -0.0 0.0 0.0
v -0.0 0.0 0.0
v -0.0 0.0 0.0
v -0.0 0.0 -0.0
v -0.0 0.0 -0.0
v -0.0 0.0 -0.0
v 0.0 0.0 -0.0
v 0.0 0.0 -0.0
v 2.36881 0.10251 0.0
v 2.05145 0.10251 0.97227
v 1.1844 0.10251 1.68402
v 0.0 0.10251 1.94454
v -1.1844 0.10251 1.68402
v -2.05145 0.10251 0.97227
v -2.36881 0.10251 0.0
v -2.05145 0.10251 -0.97227
v -1.1844 0.10251 -1.68402
v -0.0 0.10251 -1.94454
v 1.1844 0.10251 -1.68402
v 2.05145 0.10251 -0.97227
v 3.35 0.35 0.0
v 2.90119 0.35 1.375
v 1.675 0.35 2.38157
v 0.0 0.35 2.75
v -1.675 0.35 2.38157
v -2.90119 0.35 1.375
v -3.35 0.35 0.0
v -2.90119 0.35 -1.375
v -1.675 0.35 -2.38157
v -0.0 0.35 -2.75
v 1.675 0.35 -2.38157
v 2.90119 0.35 -1.375
v 2.36881 0.59749 0.0
v 2.05145 0.59749 0.97227
v 1.1844 0.59749 1.68402
v 0.0 0.59749 1.94454
v -1.1844 0.59749 1.68402
v -2.05145 0.59749 0.97227
v -2.36881 0.59749 0.0
v -2.05145 0.59749 -0.97227
v -1.1844 0.59749 -1.68402
v -0.0 0.59749 -1.94454
v 1.1844 0.59749 -1.68402
v 2.05145 0.59749 -0.97227
v 0.0 0.7 0.0
v 0.0 0.7 0.0
v 0.0 0.7 0.0
v 0.0 0.7 0.0
v -0.0 0.7 0.0
v -0.0 0.7 0.0
v -0.0 0.7 0.0
v -0.0 0.7 -0.0
v -0.0 0.7 -0.0
v -0.0 0.7 -0.0
v 0.0 0.7 -0.0
v 0.0 0.7 -0.0
v -1.35 0.28 0.0
v -1.35 0.28 0.0
v -1.35 0.28 0.0
v -1.35 0.28 0.0
v -1.35 0.28 0.0
v -1.35 0.28 0.0
v -1.35 0.28 -0.0
v -1.35 0.28 -0.0
v -1.35 0.28 -0.0
v -1.35 0.28 -0.0
v -0.7916 0.46143 0.0
v -0.89825 0.46143 0.46641
v -1.17745 0.46143 0.75467
v -1.52255 0.46143 0.75467
v -1.80175 0.46143 0.46641
v -1.9084 0.46143 0.0
v -1.80175 0.46143 -0.46641
v -1.52255 0.46143 -0.75467
v -1.17745 0.46143 -0.75467
v -0.89825 0.46143 -0.46641
v -0.4465 0.93643 0.0
v -0.61905 0.93643 0.75467
v -1.0708 0.93643 1.22109
v -1.6292 0.93643 1.22109
v -2.08095 0.93643 0.75467
v -2.2535 0.93643 0.0
v -2.08095 0.93643 -0.75467
v -1.6292 0.93643 -1.22109
v -1.0708 0.93643 -1.22109
v -0.61905 0.93643 -0.75467
v -0.4465 1.52357 0.0
v -0.61905 1.52357 0.75467
v -1.0708 1.52357 1.22109
v -1.6292 1.52357 1.22109
v -2.08095 1.52357 0.75467
v -2.2535 1.52357 0.0
v -2.08095 1.52357 -0.75467
v -1.6292 1.52357 -1.22109
v -1.0708 1.52357 -1.22109
v -0.61905 1.52357 -0.75467
v -0.7916 1.99857 0.0
v -0.89825 1.99857 0.46641
v -1.17745 1.99857 0.75467
v -1.52255 1.99857 0.75467
v -1.80175 1.99857 0.46641
v -1.9084 1.99857 0.0
v -1.80175 1.99857 -0.46641
v -1.52255 1.99857 -0.75467
v -1.17745 1.99857 -0.75467
v -0.89825 1.99857 -0.46641
v -1.35 2.18 0.0
v -1.35 2.18 0.0
v -1.35 2.18 0.0
v -1.35 2.18 0.0
v -1.35 2.18 0.0
v -1.35 2.18 0.0
v -1.35 2.18 -0.0
v -1.35 2.18 -0.0
v -1.35 2.18 -0.0
v -1.35 2.18 -0.0
v -1.35 0.38 -1.053
v -1.35 0.38 -1.053
v -1.35 0.38 -1.053
v -1.35 0.38 -1.053
v -1.35 0.38 -1.053
v -1.35 0.38 -1.053
v -1.35 0.38 -1.053
v -1.12786 0.54 -1.053
v -1.2115 0.54 -0.93112
v -1.39943 0.54 -0.90102
v -1.55014 0.54 -0.98536
v -1.55014 0.54 -1.12064
v -1.39943 0.54 -1.20498
v -1.2115 0.54 -1.17488
v -1.12786 0.86 -1.053
v -1.2115 0.86 -0.93112
v -1.39943 0.86 -0.90102
v -1.55014 0.86 -0.98536
v -1.55014 0.86 -1.12064
v -1.39943 0.86 -1.20498
v -1.2115 0.86 -1.17488
v -1.35 1.02 -1.053
v -1.35 1.02 -1.053
v -1.35 1.02 -1.053
v -1.35 1.02 -1.053
v -1.35 1.02 -1.053
v -1.35 1.02 -1.053
v -1.35 1.02 -1.053
v 0.2 0.28 0.55
v 0.2 0.28 0.55
v 0.2 0.28 0.55
v 0.2 0.28 0.55
v 0.2 0.28 0.55
v 0.2 0.28 0.55
v 0.2 0.28 0.55
v 0.2 0.28 0.55
v 0.2 0.28 0.55
v 0.2 0.28 0.55
v 0.87595 0.46143 0.55
v 0.74686 0.46143 0.96459
v 0.40888 0.46143 1.22082
v -0.00888 0.46143 1.22082
v -0.34686 0.46143 0.96459
v -0.47595 0.46143 0.55
v -0.34686 0.46143 0.13541
v -0.00888 0.46143 -0.12082
v 0.40888 0.46143 -0.12082
v 0.74686 0.46143 0.13541
v 1.29371 0.93643 0.55
v 1.08483 0.93643 1.22082
v 0.53798 0.93643 1.63541
v -0.13798 0.93643 1.63541
v -0.68483 0.93643 1.22082
v -0.89371 0.93643 0.55
v -0.68483 0.93643 -0.12082
v -0.13798 0.93643 -0.53541
v 0.53798 0.93643 -0.53541
v 1.08483 0.93643 -0.12082
v 1.29371 1.52357 0.55
v 1.08483 1.52357 1.22082
v 0.53798 1.52357 1.63541
v -0.13798 1.52357 1.63541
v -0.68483 1.52357 1.22082
v -0.89371 1.52357 0.55
v -0.68483 1.52357 -0.12082
v -0.13798 1.52357 -0.53541
v 0.53798 1.52357 -0.53541
v 1.08483 1.52357 -0.12082
v 0.87595 1.99857 0.55
v 0.74686 1.99857 0.96459
v 0.40888 1.99857 1.22082
v -0.00888 1.99857 1.22082
v -0.34686 1.99857 0.96459
v -0.47595 1.99857 0.55
v -0.34686 1.99857 0.13541
v -0.00888 1.99857 -0.12082
v 0.40888 1.99857 -0.12082
v 0.74686 1.99857 0.13541
v 0.2 2.18 0.55
v 0.2 2.18 0.55
v 0.2 2.18 0.55
v 0.2 2.18 0.55
v 0.2 2.18 0.55
v 0.2 2.18 0.55
v 0.2 2.18 0.55
v 0.2 2.18 0.55
v 0.2 2.18 0.55
v 0.2 2.18 0.55
v 0.2 0.38 -0.386
v 0.2 0.38 -0.386
v 0.2 0.38 -0.386
v 0.2 0.38 -0.386
v 0.2 0.38 -0.386
v 0.2 0.38 -0.386
v 0.2 0.38 -0.386
v 0.4689 0.54 -0.386
v 0.36766 0.54 -0.26412
v 0.14016 0.54 -0.23402
v -0.04227 0.54 -0.31836
v -0.04227 0.54 -0.45364
v 0.14016 0.54 -0.53798
v 0.36766 0.54 -0.50788
v 0.4689 0.86 -0.386
v 0.36766 0.86 -0.26412
v 0.14016 0.86 -0.23402
v -0.04227 0.86 -0.31836
v -0.04227 0.86 -0.45364
v 0.14016 0.86 -0.53798
v 0.36766 0.86 -0.50788
v 0.2 1.02 -0.386
v 0.2 1.02 -0.386
v 0.2 1.02 -0.386
v 0.2 1.02 -0.386
v 0.2 1.02 -0.386
v 0.2 1.02 -0.386
v 0.2 1.02 -0.386
v 1.55 0.28 -0.2
v 1.55 0.28 -0.2
v 1.55 0.28 -0.2
v 1.55 0.28 -0.2
v 1.55 0.28 -0.2
v 1.55 0.28 -0.2
v 1.55 0.28 -0.2
v 1.55 0.28 -0.2
v 1.55 0.28 -0.2
v 1.55 0.28 -0.2
v 2.02023 0.46143 -0.2
v 1.93042 0.46143 0.19732
v 1.69531 0.46143 0.44287
v 1.40469 0.46143 0.44287
v 1.16958 0.46143 0.19732
v 1.07977 0.46143 -0.2
v 1.16958 0.46143 -0.59732
v 1.40469 0.46143 -0.84287
v 1.69531 0.46143 -0.84287
v 1.93042 0.46143 -0.59732
v 2.31085 0.93643 -0.2
v 2.16554 0.93643 0.44287
v 1.78511 0.93643 0.84018
v 1.31489 0.93643 0.84018
v 0.93446 0.93643 0.44287
v 0.78915 0.93643 -0.2
v 0.93446 0.93643 -0.84287
v 1.31489 0.93643 -1.24018
v 1.78511 0.93643 -1.24018
v 2.16554 0.93643 -0.84287
v 2.31085 1.52357 -0.2
v 2.16554 1.52357 0.44287
v 1.78511 1.52357 0.84018
v 1.31489 1.52357 0.84018
v 0.93446 1.52357 0.44287
v 0.78915 1.52357 -0.2
v 0.93446 1.52357 -0.84287
v 1.31489 1.52357 -1.24018
v 1.78511 1.52357 -1.24018
v 2.16554 1.52357 -0.84287
v 2.02023 1.99857 -0.2
v 1.93042 1.99857 0.19732
v 1.69531 1.99857 0.44287
v 1.40469 1.99857 0.44287
v 1.16958 1.99857 0.19732
v 1.07977 1.99857 -0.2
v 1.16958 1.99857 -0.59732
v 1.40469 1.99857 -0.84287
v 1.69531 1.99857 -0.84287
v 1.93042 1.99857 -0.59732
v 1.55 2.18 -0.2
v 1.55 2.18 -0.2
v 1.55 2.18 -0.2
v 1.55 2.18 -0.2
v 1.55 2.18 -0.2
v 1.55 2.18 -0.2
v 1.55 2.18 -0.2
v 1.55 2.18 -0.2
v 1.55 2.18 -0.2
v 1.55 2.18 -0.2
v 1.55 0.38 -1.097
v 1.55 0.38 -1.097
v 1.55 0.38 -1.097
v 1.55 0.38 -1.097
v 1.55 0.38 -1.097
v 1.55 0.38 -1.097
v 1.55 0.38 -1.097
v 1.73706 0.54 -1.097
v 1.66663 0.54 -0.97512
v 1.50837 0.54 -0.94502
v 1.38146 0.54 -1.02936
v 1.38146 0.54 -1.16464
v 1.50837 0.54 -1.24898
v 1.66663 0.54 -1.21888
v 1.73706 0.86 -1.097
v 1.66663 0.86 -0.97512
v 1.50837 0.86 -0.94502
v 1.38146 0.86 -1.02936
v 1.38146 0.86 -1.16464
v 1.50837 0.86 -1.24898
v 1.66663 0.86 -1.21888
v 1.55 1.02 -1.097
v 1.55 1.02 -1.097
v 1.55 1.02 -1.097
v 1.55 1.02 -1.097
v 1.55 1.02 -1.097
v 1.55 1.02 -1.097
v 1.55 1.02 -1.097
v 3.3 0.12 -0.095
v 2.046 2.484 -0.095
v 3.22732 0.08145 -0.0475
v 1.97332 2.44545 -0.0475
v 3.22732 0.08145 0.0475
v 1.97332 2.44545 0.0475
v 3.3 0.12 0.095
v 2.046 2.484 0.095
v 3.37268 0.15855 0.0475
v 2.11868 2.52255 0.0475
v 3.37268 0.15855 -0.0475
v 2.11868 2.52255 -0.0475
v 2.046 2.484 -0.075
v 0.0 3.45 -0.075
v 2.01827 2.42527 -0.0375
v -0.02773 3.39127 -0.0375
v 2.01827 2.42527 0.0375
v -0.02773 3.39127 0.0375
v 2.046 2.484 0.075
v -0.0 3.45 0.075
v 2.07373 2.54273 0.0375
v 0.02773 3.50873 0.0375
v 2.07373 2.54273 -0.0375
v 0.02773 3.50873 -0.0375
v 2.82035 0.12 1.37565
v 1.76542 2.484 0.82095
v 2.73322 0.08296 1.3835
v 1.67829 2.44696 0.8288
v 2.68901 0.08296 1.46758
v 1.63408 2.44696 0.91289
v 2.73192 0.12 1.54381
v 1.67699 2.484 0.98912
v 2.81905 0.15704 1.53596
v 1.76412 2.52104 0.98126
v 2.86327 0.15704 1.45188
v 1.80833 2.52104 0.89718
v 1.75611 2.484 0.83865
v 0.0349 3.45 -0.06638
v 1.71308 2.42583 0.85839
v -0.00812 3.39183 -0.04664
v 1.67818 2.42583 0.92478
v -0.04303 3.39183 0.01974
v 1.6863 2.484 0.97142
v -0.0349 3.45 0.06638
v 1.72933 2.54217 0.95167
v 0.00812 3.50817 0.04664
v 1.76423 2.54217 0.88529
v 0.04303 3.50817 -0.01974
v 1.37087 0.08512 2.36764
v 0.84994 2.44912 1.43436
v 1.29027 0.08719 2.41789
v 0.76934 2.45119 1.48461
v 1.29027 0.12208 2.50625
v 0.76934 2.48608 1.57297
v 1.37087 0.15488 2.54437
v 0.84994 2.51888 1.61109
v 1.45147 0.15281 2.49412
v 0.93054 2.51681 1.56084
v 1.45147 0.11792 2.40576
v 0.93054 2.48192 1.47248
v 0.91543 2.484 1.48617
v 0.06549 3.45 -0.03655
v 0.86734 2.42718 1.47696
v 0.0174 3.39318 -0.04576
v 0.80185 2.42718 1.51352
v -0.04808 3.39318 -0.00921
v 0.78445 2.484 1.55928
v -0.06549 3.45 0.03655
v 0.83253 2.54082 1.56848
v -0.0174 3.50682 0.04576
v 0.89802 2.54082 1.53193
v 0.04808 3.50682 0.00921
v -0.46964 0.0825 2.58523
v -0.29118 2.4465 1.56967
v -0.55171 0.10648 2.62663
v -0.37325 2.47048 1.61107
v -0.55171 0.14398 2.71391
v -0.37325 2.50798 1.69836
v -0.46964 0.1575 2.7598
v -0.29118 2.5215 1.74425
v -0.38756 0.13352 2.71841
v -0.2091 2.49752 1.70285
v -0.38756 0.09602 2.63112
v -0.2091 2.46002 1.61556
v -0.21731 2.484 1.66994
v 0.07387 3.45 0.01298
v -0.24864 2.42767 1.6316
v 0.04253 3.39367 -0.02536
v -0.32251 2.42767 1.61862
v -0.03134 3.39367 -0.03834
v -0.36504 2.484 1.64398
v -0.07387 3.45 -0.01298
v -0.33371 2.54033 1.68233
v -0.04253 3.50633 0.02536
v -0.25984 2.54033 1.69531
v 0.03134 3.50633 0.03834
v -2.16104 0.09039 1.95026
v -1.33985 2.45439 1.17486
v -2.23917 0.1297 1.98735
v -1.41797 2.4937 1.21195
v -2.23917 0.15931 2.07762
v -1.41797 2.52331 1.30222
v -2.16104 0.14961 2.13079
v -1.33985 2.51361 1.35539
v -2.08291 0.1103 2.0937
v -1.26172 2.4743 1.3183
v -2.08291 0.08069 2.00343
v -1.26172 2.44469 1.22803
v -1.28835 2.484 1.31966
v 0.05149 3.45 0.05453
v -1.29217 2.42647 1.27169
v 0.04767 3.39247 0.00656
v -1.34366 2.42647 1.21716
v -0.00382 3.39247 -0.04797
v -1.39134 2.484 1.21059
v -0.05149 3.45 -0.05453
v -1.38752 2.54153 1.25856
v -0.04767 3.50753 -0.00656
v -1.33603 2.54153 1.31309
v 0.00382 3.50753 0.04797
v -3.14414 0.12 0.85305
v -1.94093 2.484 0.56399
v -3.08436 0.08185 0.78984
v -1.88115 2.44585 0.50078
v -3.10655 0.08185 0.69747
v -1.90334 2.44585 0.40841
v -3.18852 0.12 0.66831
v -1.98531 2.484 0.37925
v -3.2483 0.15815 0.73152
v -2.04509 2.52215 0.44246
v -3.2261 0.15815 0.82389
v -2.0229 2.52215 0.53483
v -1.9456 2.484 0.54455
v 0.01752 3.45 0.07293
v -1.92711 2.42541 0.50153
v 0.03602 3.39141 0.02991
v -1.94462 2.42541 0.42861
v 0.0185 3.39141 -0.04301
v -1.98064 2.484 0.3987
v -0.01752 3.45 -0.07293
v -1.99914 2.54259 0.44171
v -0.03602 3.50859 -0.02991
v -1.98162 2.54259 0.51463
v -0.0185 3.50859 0.04301
v -3.18852 0.12 -0.66831
v -1.98531 2.484 -0.37925
v -3.10655 0.08185 -0.69747
v -1.90334 2.44585 -0.40841
v -3.08436 0.08185 -0.78984
v -1.88115 2.44585 -0.50078
v -3.14414 0.12 -0.85305
v -1.94093 2.484 -0.56399
v -3.2261 0.15815 -0.82389
v -2.0229 2.52215 -0.53483
v -3.2483 0.15815 -0.73152
v -2.04509 2.52215 -0.44246
v -1.98064 2.484 -0.3987
v -0.01752 3.45 0.07293
v -1.94462 2.42541 -0.42861
v 0.0185 3.39141 0.04301
v -1.92711 2.42541 -0.50153
v 0.03602 3.39141 -0.02991
v -1.9456 2.484 -0.54455
v 0.01752 3.45 -0.07293
v -1.98162 2.54259 -0.51463
v -0.0185 3.50859 -0.04301
v -1.99914 2.54259 -0.44171
v -0.03602 3.50859 0.02991
v -2.16104 0.14961 -2.13079
v -1.33985 2.51361 -1.35539
v -2.23917 0.15931 -2.07762
v -1.41797 2.52331 -1.30222
v -2.23917 0.1297 -1.98735
v -1.41797 2.4937 -1.21195
v -2.16104 0.09039 -1.95026
v -1.33985 2.45439 -1.17486
v -2.08291 0.08069 -2.00343
v -1.26172 2.44469 -1.22803
v -2.08291 0.1103 -2.0937
v -1.26172 2.4743 -1.3183
v -1.39134 2.484 -1.21059
v -0.05149 3.45 0.05453
v -1.34366 2.42647 -1.21716
v -0.00382 3.39247 0.04797
v -1.29217 2.42647 -1.27169
v 0.04767 3.39247 -0.00656
v -1.28835 2.484 -1.31966
v 0.05149 3.45 -0.05453
v -1.33603 2.54153 -1.31309
v 0.00382 3.50753 -0.04797
v -1.38752 2.54153 -1.25856
v -0.04767 3.50753 0.00656
v -0.46964 0.1575 -2.7598
v -0.29118 2.5215 -1.74425
v -0.55171 0.14398 -2.71391
v -0.37325 2.50798 -1.69836
v -0.55171 0.10648 -2.62663
v -0.37325 2.47048 -1.61107
v -0.46964 0.0825 -2.58523
v -0.29118 2.4465 -1.56967
v -0.38756 0.09602 -2.63112
v -0.2091 2.46002 -1.61556
v -0.38756 0.13352 -2.71841
v -0.2091 2.49752 -1.70285
v -0.36504 2.484 -1.64398
v -0.07387 3.45 0.01298
v -0.32251 2.42767 -1.61862
v -0.03134 3.39367 0.03834
v -0.24864 2.42767 -1.6316
v 0.04253 3.39367 0.02536
v -0.21731 2.484 -1.66994
v 0.07387 3.45 -0.01298
v -0.25984 2.54033 -1.69531
v 0.03134 3.50633 -0.03834
v -0.33371 2.54033 -1.68233
v -0.04253 3.50633 -0.02536
v 1.37087 0.15488 -2.54437
v 0.84994 2.51888 -1.61109
v 1.29027 0.12208 -2.50625
v 0.76934 2.48608 -1.57297
v 1.29027 0.08719 -2.41789
v 0.76934 2.45119 -1.48461
v 1.37087 0.08512 -2.36764
v 0.84994 2.44912 -1.43436
v 1.45147 0.11792 -2.40576
v 0.93054 2.48192 -1.47248
v 1.45147 0.15281 -2.49412
v 0.93054 2.51681 -1.56084
v 0.78445 2.484 -1.55928
v -0.06549 3.45 -0.03655
v 0.80185 2.42718 -1.51352
v -0.04808 3.39318 0.00921
v 0.86734 2.42718 -1.47696
v 0.0174 3.39318 0.04576
v 0.91543 2.484 -1.48617
v 0.06549 3.45 0.03655
v 0.89802 2.54082 -1.53193
v 0.04808 3.50682 -0.00921
v 0.83253 2.54082 -1.56848
v -0.0174 3.50682 -0.04576
v 2.73192 0.12 -1.54381
v 1.67699 2.484 -0.98912
v 2.68901 0.08296 -1.46758
v 1.63408 2.44696 -0.91289
v 2.73322 0.08296 -1.3835
v 1.67829 2.44696 -0.8288
v 2.82035 0.12 -1.37565
v 1.76542 2.484 -0.82095
v 2.86327 0.15704 -1.45188
v 1.80833 2.52104 -0.89718
v 2.81905 0.15704 -1.53596
v 1.76412 2.52104 -0.98126
v 1.6863 2.484 -0.97142
v -0.0349 3.45 -0.06638
v 1.67818 2.42583 -0.92478
v -0.04303 3.39183 -0.01974
v 1.71308 2.42583 -0.85839
v -0.00812 3.39183 0.04664
v 1.75611 2.484 -0.83865
v 0.0349 3.45 0.06638
v 1.76423 2.54217 -0.88529
v 0.04303 3.50817 0.01974
v 1.72933 2.54217 -0.95167
v 0.00812 3.50817 -0.04664
v -2.8 0.12 2.11
v 2.7 0.12 2.11
v -2.8 0.02474 2.055
v 2.7 0.02474 2.055
v -2.8 0.02474 1.945
v 2.7 0.02474 1.945
v -2.8 0.12 1.89
v 2.7 0.12 1.89
v -2.8 0.21526 1.945
v 2.7 0.21526 1.945
v -2.8 0.21526 2.055
v 2.7 0.21526 2.055
g foundation
usemtl shell_teal
f 1 2 14 13
f 2 3 15 14
f 3 4 16 15
f 4 5 17 16
f 5 6 18 17
f 6 7 19 18
f 7 8 20 19
f 8 9 21 20
f 9 10 22 21
f 10 11 23 22
f 11 12 24 23
f 12 1 13 24
f 13 14 26 25
f 14 15 27 26
f 15 16 28 27
f 16 17 29 28
f 17 18 30 29
f 18 19 31 30
f 19 20 32 31
f 20 21 33 32
f 21 22 34 33
f 22 23 35 34
f 23 24 36 35
f 24 13 25 36
f 25 26 38 37
f 26 27 39 38
f 27 28 40 39
f 28 29 41 40
f 29 30 42 41
f 30 31 43 42
f 31 32 44 43
f 32 33 45 44
f 33 34 46 45
f 34 35 47 46
f 35 36 48 47
f 36 25 37 48
f 37 38 50 49
f 38 39 51 50
f 39 40 52 51
f 40 41 53 52
f 41 42 54 53
f 42 43 55 54
f 43 44 56 55
f 44 45 57 56
f 45 46 58 57
f 46 47 59 58
f 47 48 60 59
f 48 37 49 60
g chamber_0
usemtl shell_teal
f 61 62 72 71
f 62 63 73 72
f 63 64 74 73
f 64 65 75 74
f 65 66 76 75
f 66 67 77 76
f 67 68 78 77
f 68 69 79 78
f 69 70 80 79
f 70 61 71 80
f 71 72 82 81
f 72 73 83 82
f 73 74 84 83
f 74 75 85 84
f 75 76 86 85
f 76 77 87 86
f 77 78 88 87
f 78 79 89 88
f 79 80 90 89
f 80 71 81 90
f 81 82 92 91
f 82 83 93 92
f 83 84 94 93
f 84 85 95 94
f 85 86 96 95
f 86 87 97 96
f 87 88 98 97
f 88 89 99 98
f 89 90 100 99
f 90 81 91 100
f 91 92 102 101
f 92 93 103 102
f 93 94 104 103
f 94 95 105 104
f 95 96 106 105
f 96 97 107 106
f 97 98 108 107
f 98 99 109 108
f 99 100 110 109
f 100 91 101 110
f 101 102 112 111
f 102 103 113 112
f 103 104 114 113
f 104 105 115 114
f 105 106 116 115
f 106 107 117 116
f 107 108 118 117
f 108 109 119 118
f 109 110 120 119
f 110 101 111 120
g occupancy_0
usemtl active_amber
f 121 122 129 128
f 122 123 130 129
f 123 124 131 130
f 124 125 132 131
f 125 126 133 132
f 126 127 134 133
f 127 121 128 134
f 128 129 136 135
f 129 130 137 136
f 130 131 138 137
f 131 132 139 138
f 132 133 140 139
f 133 134 141 140
f 134 128 135 141
f 135 136 143 142
f 136 137 144 143
f 137 138 145 144
f 138 139 146 145
f 139 140 147 146
f 140 141 148 147
f 141 135 142 148
g chamber_1
usemtl shell_teal
f 149 150 160 159
f 150 151 161 160
f 151 152 162 161
f 152 153 163 162
f 153 154 164 163
f 154 155 165 164
f 155 156 166 165
f 156 157 167 166
f 157 158 168 167
f 158 149 159 168
f 159 160 170 169
f 160 161 171 170
f 161 162 172 171
f 162 163 173 172
f 163 164 174 173
f 164 165 175 174
f 165 166 176 175
f 166 167 177 176
f 167 168 178 177
f 168 159 169 178
f 169 170 180 179
f 170 171 181 180
f 171 172 182 181
f 172 173 183 182
f 173 174 184 183
f 174 175 185 184
f 175 176 186 185
f 176 177 187 186
f 177 178 188 187
f 178 169 179 188
f 179 180 190 189
f 180 181 191 190
f 181 182 192 191
f 182 183 193 192
f 183 184 194 193
f 184 185 195 194
f 185 186 196 195
f 186 187 197 196
f 187 188 198 197
f 188 179 189 198
f 189 190 200 199
f 190 191 201 200
f 191 192 202 201
f 192 193 203 202
f 193 194 204 203
f 194 195 205 204
f 195 196 206 205
f 196 197 207 206
f 197 198 208 207
f 198 189 199 208
g occupancy_1
usemtl active_amber
f 209 210 217 216
f 210 211 218 217
f 211 212 219 218
f 212 213 220 219
f 213 214 221 220
f 214 215 222 221
f 215 209 216 222
f 216 217 224 223
f 217 218 225 224
f 218 219 226 225
f 219 220 227 226
f 220 221 228 227
f 221 222 229 228
f 222 216 223 229
f 223 224 231 230
f 224 225 232 231
f 225 226 233 232
f 226 227 234 233
f 227 228 235 234
f 228 229 236 235
f 229 223 230 236
g chamber_2
usemtl shell_teal
f 237 238 248 247
f 238 239 249 248
f 239 240 250 249
f 240 241 251 250
f 241 242 252 251
f 242 243 253 252
f 243 244 254 253
f 244 245 255 254
f 245 246 256 255
f 246 237 247 256
f 247 248 258 257
f 248 249 259 258
f 249 250 260 259
f 250 251 261 260
f 251 252 262 261
f 252 253 263 262
f 253 254 264 263
f 254 255 265 264
f 255 256 266 265
f 256 247 257 266
f 257 258 268 267
f 258 259 269 268
f 259 260 270 269
f 260 261 271 270
f 261 262 272 271
f 262 263 273 272
f 263 264 274 273
f 264 265 275 274
f 265 266 276 275
f 266 257 267 276
f 267 268 278 277
f 268 269 279 278
f 269 270 280 279
f 270 271 281 280
f 271 272 282 281
f 272 273 283 282
f 273 274 284 283
f 274 275 285 284
f 275 276 286 285
f 276 267 277 286
f 277 278 288 287
f 278 279 289 288
f 279 280 290 289
f 280 281 291 290
f 281 282 292 291
f 282 283 293 292
f 283 284 294 293
f 284 285 295 294
f 285 286 296 295
f 286 277 287 296
g occupancy_2
usemtl active_amber
f 297 298 305 304
f 298 299 306 305
f 299 300 307 306
f 300 301 308 307
f 301 302 309 308
f 302 303 310 309
f 303 297 304 310
f 304 305 312 311
f 305 306 313 312
f 306 307 314 313
f 307 308 315 314
f 308 309 316 315
f 309 310 317 316
f 310 304 311 317
f 311 312 319 318
f 312 313 320 319
f 313 314 321 320
f 314 315 322 321
f 315 316 323 322
f 316 317 324 323
f 317 311 318 324
g lattice
usemtl carbonate
f 335 333 331 329 327 325
f 326 328 330 332 334 336
f 325 327 328 326
f 327 329 330 328
f 329 331 332 330
f 331 333 334 332
f 333 335 336 334
f 335 325 326 336
f 347 345 343 341 339 337
f 338 340 342 344 346 348
f 337 339 340 338
f 339 341 342 340
f 341 343 344 342
f 343 345 346 344
f 345 347 348 346
f 347 337 338 348
f 359 357 355 353 351 349
f 350 352 354 356 358 360
f 349 351 352 350
f 351 353 354 352
f 353 355 356 354
f 355 357 358 356
f 357 359 360 358
f 359 349 350 360
f 371 369 367 365 363 361
f 362 364 366 368 370 372
f 361 363 364 362
f 363 365 366 364
f 365 367 368 366
f 367 369 370 368
f 369 371 372 370
f 371 361 362 372
f 383 381 379 377 375 373
f 374 376 378 380 382 384
f 373 375 376 374
f 375 377 378 376
f 377 379 380 378
f 379 381 382 380
f 381 383 384 382
f 383 373 374 384
f 395 393 391 389 387 385
f 386 388 390 392 394 396
f 385 387 388 386
f 387 389 390 388
f 389 391 392 390
f 391 393 394 392
f 393 395 396 394
f 395 385 386 396
f 407 405 403 401 399 397
f 398 400 402 404 406 408
f 397 399 400 398
f 399 401 402 400
f 401 403 404 402
f 403 405 406 404
f 405 407 408 406
f 407 397 398 408
f 419 417 415 413 411 409
f 410 412 414 416 418 420
f 409 411 412 410
f 411 413 414 412
f 413 415 416 414
f 415 417 418 416
f 417 419 420 418
f 419 409 410 420
f 431 429 427 425 423 421
f 422 424 426 428 430 432
f 421 423 424 422
f 423 425 426 424
f 425 427 428 426
f 427 429 430 428
f 429 431 432 430
f 431 421 422 432
f 443 441 439 437 435 433
f 434 436 438 440 442 444
f 433 435 436 434
f 435 437 438 436
f 437 439 440 438
f 439 441 442 440
f 441 443 444 442
f 443 433 434 444
f 455 453 451 449 447 445
f 446 448 450 452 454 456
f 445 447 448 446
f 447 449 450 448
f 449 451 452 450
f 451 453 454 452
f 453 455 456 454
f 455 445 446 456
f 467 465 463 461 459 457
f 458 460 462 464 466 468
f 457 459 460 458
f 459 461 462 460
f 461 463 464 462
f 463 465 466 464
f 465 467 468 466
f 467 457 458 468
f 479 477 475 473 471 469
f 470 472 474 476 478 480
f 469 471 472 470
f 471 473 474 472
f 473 475 476 474
f 475 477 478 476
f 477 479 480 478
f 479 469 470 480
f 491 489 487 485 483 481
f 482 484 486 488 490 492
f 481 483 484 482
f 483 485 486 484
f 485 487 488 486
f 487 489 490 488
f 489 491 492 490
f 491 481 482 492
f 503 501 499 497 495 493
f 494 496 498 500 502 504
f 493 495 496 494
f 495 497 498 496
f 497 499 500 498
f 499 501 502 500
f 501 503 504 502
f 503 493 494 504
f 515 513 511 509 507 505
f 506 508 510 512 514 516
f 505 507 508 506
f 507 509 510 508
f 509 511 512 510
f 511 513 514 512
f 513 515 516 514
f 515 505 506 516
f 527 525 523 521 519 517
f 518 520 522 524 526 528
f 517 519 520 518
f 519 521 522 520
f 521 523 524 522
f 523 525 526 524
f 525 527 528 526
f 527 517 518 528
f 539 537 535 533 531 529
f 530 532 534 536 538 540
f 529 531 532 530
f 531 533 534 532
f 533 535 536 534
f 535 537 538 536
f 537 539 540 538
f 539 529 530 540
f 551 549 547 545 543 541
f 542 544 546 548 550 552
f 541 543 544 542
f 543 545 546 544
f 545 547 548 546
f 547 549 550 548
f 549 551 552 550
f 551 541 542 552
f 563 561 559 557 555 553
f 554 556 558 560 562 564
f 553 555 556 554
f 555 557 558 556
f 557 559 560 558
f 559 561 562 560
f 561 563 564 562
f 563 553 554 564
f 575 573 571 569 567 565
f 566 568 570 572 574 576
f 565 567 568 566
f 567 569 570 568
f 569 571 572 570
f 571 573 574 572
f 573 575 576 574
f 575 565 566 576
f 587 585 583 581 579 577
f 578 580 582 584 586 588
f 577 579 580 578
f 579 581 582 580
f 581 583 584 582
f 583 585 586 584
f 585 587 588 586
f 587 577 578 588
g service_channel
usemtl membrane
f 599 597 595 593 591 589
f 590 592 594 596 598 600
f 589 591 592 590
f 591 593 594 592
f 593 595 596 594
f 595 597 598 596
f 597 599 600 598
f 599 589 590 600
