# Generated Silica Street blockout: service_maintenance_organ_a
mtllib silica_street_blockout.mtl
o service_maintenance_organ_a
v 0.0 0.0 0.0
v 0.0 0.0 0.0
v 0.0 0.0 0.0
v -0.0 0.0 0.0
v -0.0 0.0 0.0
v -0.0 0.0 0.0
v -0.0 0.0 -0.0
v -0.0 0.0 -0.0
v -0.0 0.0 -0.0
v 0.0 0.0 -0.0
v 0.0 0.0 -0.0
v 1.16673 0.10251 0.0
v 0.98151 0.10251 0.63078
v 0.48468 0.10251 1.06129
v -0.16604 0.10251 1.15485
v -0.76404 0.10251 0.88175
v -1.11947 0.10251 0.3287
v -1.11947 0.10251 -0.3287
v -0.76404 0.10251 -0.88175
v -0.16604 0.10251 -1.15485
v 0.48468 0.10251 -1.06129
v 0.98151 0.10251 -0.63078
v 1.65 0.35 0.0
v 1.38807 0.35 0.89206
v 0.68543 0.35 1.50089
v -0.23482 0.35 1.63321
v -1.08052 0.35 1.24699
v -1.58316 0.35 0.46486
v -1.58316 0.35 -0.46486
v -1.08052 0.35 -1.24699
v -0.23482 0.35 -1.63321
v 0.68543 0.35 -1.50089
v 1.38807 0.35 -0.89206
v 1.16673 0.59749 0.0
v 0.98151 0.59749 0.63078
v 0.48468 0.59749 1.06129
v -0.16604 0.59749 1.15485
v -0.76404 0.59749 0.88175
v -1.11947 0.59749 0.3287
v -1.11947 0.59749 -0.3287
v -0.76404 0.59749 -0.88175
v -0.16604 0.59749 -1.15485
v 0.48468 0.59749 -1.06129
v 0.98151 0.59749 -0.63078
v 0.0 0.7 0.0
v 0.0 0.7 0.0
v 0.0 0.7 0.0
v -0.0 0.7 0.0
v -0.0 0.7 0.0
v -0.0 0.7 0.0
v -0.0 0.7 -0.0
v -0.0 0.7 -0.0
v -0.0 0.7 -0.0
v 0.0 0.7 -0.0
v 0.0 0.7 -0.0
v 0.0 0.42 0.0
v 0.0 0.42 0.0
v 0.0 0.42 0.0
v -0.0 0.42 0.0
v -0.0 0.42 0.0
v -0.0 0.42 -0.0
v -0.0 0.42 -0.0
v 0.0 0.42 -0.0
v 0.0 0.42 -0.0
v 0.42321 0.56897 0.0
v 0.32419 0.56897 0.27203
v 0.07349 0.56897 0.41678
v -0.2116 0.56897 0.36651
v -0.39768 0.56897 0.14474
v -0.39768 0.56897 -0.14474
v -0.2116 0.56897 -0.36651
v 0.07349 0.56897 -0.41678
v 0.32419 0.56897 -0.27203
v 0.68476 0.95897 0.0
v 0.52456 0.95897 0.44016
v 0.11891 0.95897 0.67436
v -0.34238 0.95897 0.59302
v -0.64346 0.95897 0.2342
v -0.64346 0.95897 -0.2342
v -0.34238 0.95897 -0.59302
v 0.11891 0.95897 -0.67436
v 0.52456 0.95897 -0.44016
v 0.68476 1.44103 0.0
v 0.52456 1.44103 0.44016
v 0.11891 1.44103 0.67436
v -0.34238 1.44103 0.59302
v -0.64346 1.44103 0.2342
v -0.64346 1.44103 -0.2342
v -0.34238 1.44103 -0.59302
v 0.11891 1.44103 -0.67436
v 0.52456 1.44103 -0.44016
v 0.42321 1.83103 0.0
v 0.32419 1.83103 0.27203
v 0.07349 1.83103 0.41678
v -0.2116 1.83103 0.36651
v -0.39768 1.83103 0.14474
v -0.39768 1.83103 -0.14474
v -0.2116 1.83103 -0.36651
v 0.07349 1.83103 -0.41678
v 0.32419 1.83103 -0.27203
v 0.0 1.98 0.0
v 0.0 1.98 0.0
v 0.0 1.98 0.0
v -0.0 1.98 0.0
v -0.0 1.98 0.0
v -0.0 1.98 -0.0
v -0.0 1.98 -0.0
v 0.0 1.98 -0.0
v 0.0 1.98 -0.0
v 0.0 1.2 0.0
v 0.0 1.2 0.0
v 0.0 1.2 0.0
v -0.0 1.2 0.0
v -0.0 1.2 0.0
v -0.0 1.2 -0.0
v -0.0 1.2 -0.0
v 0.0 1.2 -0.0
v 0.26847 1.31 0.0
v 0.18984 1.31 0.18984
v 0.0 1.31 0.26847
v -0.18984 1.31 0.18984
v -0.26847 1.31 0.0
v -0.18984 1.31 -0.18984
v -0.0 1.31 -0.26847
v 0.18984 1.31 -0.18984
v 0.26847 1.53 0.0
v 0.18984 1.53 0.18984
v 0.0 1.53 0.26847
v -0.18984 1.53 0.18984
v -0.26847 1.53 0.0
v -0.18984 1.53 -0.18984
v -0.0 1.53 -0.26847
v 0.18984 1.53 -0.18984
v 0.0 1.64 0.0
v 0.0 1.64 0.0
v 0.0 1.64 0.0
v -0.0 1.64 0.0
v -0.0 1.64 0.0
v -0.0 1.64 -0.0
v -0.0 1.64 -0.0
v 0.0 1.64 -0.0
v 0.55 0.64 0.21
v 2.3 0.2 0.21
v 0.50997 0.48077 0.13093
v 2.25997 0.04077 0.13093
v 0.50008 0.44144 -0.04673
v 2.25008 0.00144 -0.04673
v 0.52778 0.55163 -0.1892
v 2.27778 0.11163 -0.1892
v 0.57222 0.72837 -0.1892
v 2.32222 0.28837 -0.1892
v 0.59992 0.83856 -0.04673
v 2.34992 0.39856 -0.04673
v 0.59003 0.79923 0.13093
v 2.34003 0.35923 0.13093
v 2.3 0.2 0.0
v 2.3 0.2 0.0
v 2.3 0.2 0.0
v 2.3 0.2 0.0
v 2.3 0.2 0.0
v 2.3 0.2 -0.0
v 2.3 0.2 -0.0
v 2.3 0.2 -0.0
v 2.75033 0.29 0.0
v 2.61843 0.29 0.24495
v 2.3 0.29 0.34641
v 1.98157 0.29 0.24495
v 1.84967 0.29 0.0
v 1.98157 0.29 -0.24495
v 2.3 0.29 -0.34641
v 2.61843 0.29 -0.24495
v 2.75033 0.47 0.0
v 2.61843 0.47 0.24495
v 2.3 0.47 0.34641
v 1.98157 0.47 0.24495
v 1.84967 0.47 0.0
v 1.98157 0.47 -0.24495
v 2.3 0.47 -0.34641
v 2.61843 0.47 -0.24495
v 2.3 0.56 0.0
v 2.3 0.56 0.0
v 2.3 0.56 0.0
v 2.3 0.56 0.0
v 2.3 0.56 0.0
v 2.3 0.56 -0.0
v 2.3 0.56 -0.0
v 2.3 0.56 -0.0
v -0.45687 0.64 0.37131
v -1.33187 0.2 1.88686
v -0.36837 0.48077 0.37618
v -1.24337 0.04077 1.89172
v -0.20957 0.44144 0.45644
v -1.08457 0.00144 1.97199
v -0.10004 0.55163 0.55167
v -0.97504 0.11163 2.06722
v -0.12225 0.72837 0.59016
v -0.99725 0.28837 2.1057
v -0.25949 0.83856 0.54291
v -1.13449 0.39856 2.05846
v -0.40841 0.79923 0.44552
v -1.28341 0.35923 1.96106
v -1.15 0.2 1.99186
v -1.15 0.2 1.99186
v -1.15 0.2 1.99186
v -1.15 0.2 1.99186
v -1.15 0.2 1.99186
v -1.15 0.2 1.99186
v -1.15 0.2 1.99186
v -1.15 0.2 1.99186
v -0.69967 0.29 1.99186
v -0.83157 0.29 2.23681
v -1.15 0.29 2.33827
v -1.46843 0.29 2.23681
v -1.60033 0.29 1.99186
v -1.46843 0.29 1.74691
v -1.15 0.29 1.64545
v -0.83157 0.29 1.74691
v -0.69967 0.47 1.99186
v -0.83157 0.47 2.23681
v -1.15 0.47 2.33827
v -1.46843 0.47 2.23681
v -1.60033 0.47 1.99186
v -1.46843 0.47 1.74691
v -1.15 0.47 1.64545
v -0.83157 0.47 1.74691
v -1.15 0.56 1.99186
v -1.15 0.56 1.99186
v -1.15 0.56 1.99186
v -1.15 0.56 1.99186
v -1.15 0.56 1.99186
v -1.15 0.56 1.99186
v -1.15 0.56 1.99186
v -1.15 0.56 1.99186
v -0.09313 0.64 -0.58131
v -0.96813 0.2 -2.09686
v -0.14159 0.48077 -0.50711
v -1.01659 0.04077 -2.02265
v -0.29051 0.44144 -0.40972
v -1.16551 0.00144 -1.92526
v -0.42775 0.55163 -0.36247
v -1.30275 0.11163 -1.87802
v -0.44996 0.72837 -0.40095
v -1.32496 0.28837 -1.9165
v -0.34043 0.83856 -0.49618
v -1.21543 0.39856 -2.01173
v -0.18163 0.79923 -0.57645
v -1.05663 0.35923 -2.092
v -1.15 0.2 -1.99186
v -1.15 0.2 -1.99186
v -1.15 0.2 -1.99186
v -1.15 0.2 -1.99186
v -1.15 0.2 -1.99186
v -1.15 0.2 -1.99186
v -1.15 0.2 -1.99186
v -1.15 0.2 -1.99186
v -0.69967 0.29 -1.99186
v -0.83157 0.29 -1.74691
v -1.15 0.29 -1.64545
v -1.46843 0.29 -1.74691
v -1.60033 0.29 -1.99186
v -1.46843 0.29 -2.23681
v -1.15 0.29 -2.33827
v -0.83157 0.29 -2.23681
v -0.69967 0.47 -1.99186
v -0.83157 0.47 -1.74691
v -1.15 0.47 -1.64545
v -1.46843 0.47 -1.74691
v -1.60033 0.47 -1.99186
v -1.46843 0.47 -2.23681
v -1.15 0.47 -2.33827
v -0.83157 0.47 -2.23681
v -1.15 0.56 -1.99186
v -1.15 0.56 -1.99186
v -1.15 0.56 -1.99186
v -1.15 0.56 -1.99186
v -1.15 0.56 -1.99186
v -1.15 0.56 -1.99186
v -1.15 0.56 -1.99186
v -1.15 0.56 -1.99186
g base
usemtl shell_teal
f 1 2 13 12
f 2 3 14 13
f 3 4 15 14
f 4 5 16 15
f 5 6 17 16
f 6 7 18 17
f 7 8 19 18
f 8 9 20 19
f 9 10 21 20
f 10 11 22 21
f 11 1 12 22
f 12 13 24 23
f 13 14 25 24
f 14 15 26 25
f 15 16 27 26
f 16 17 28 27
f 17 18 29 28
f 18 19 30 29
f 19 20 31 30
f 20 21 32 31
f 21 22 33 32
f 22 12 23 33
f 23 24 35 34
f 24 25 36 35
f 25 26 37 36
f 26 27 38 37
f 27 28 39 38
f 28 29 40 39
f 29 30 41 40
f 30 31 42 41
f 31 32 43 42
f 32 33 44 43
f 33 23 34 44
f 34 35 46 45
f 35 36 47 46
f 36 37 48 47
f 37 38 49 48
f 38 39 50 49
f 39 40 51 50
f 40 41 52 51
f 41 42 53 52
f 42 43 54 53
f 43 44 55 54
f 44 34 45 55
g enzyme_vault
usemtl carbonate
f 56 57 66 65
f 57 58 67 66
f 58 59 68 67
f 59 60 69 68
f 60 61 70 69
f 61 62 71 70
f 62 63 72 71
f 63 64 73 72
f 64 56 65 73
f 65 66 75 74
f 66 67 76 75
f 67 68 77 76
f 68 69 78 77
f 69 70 79 78
f 70 71 80 79
f 71 72 81 80
f 72 73 82 81
f 73 65 74 82
f 74 75 84 83
f 75 76 85 84
f 76 77 86 85
f 77 78 87 86
f 78 79 88 87
f 79 80 89 88
f 80 81 90 89
f 81 82 91 90
f 82 74 83 91
f 83 84 93 92
f 84 85 94 93
f 85 86 95 94
f 86 87 96 95
f 87 88 97 96
f 88 89 98 97
f 89 90 99 98
f 90 91 100 99
f 91 83 92 100
f 92 93 102 101
f 93 94 103 102
f 94 95 104 103
f 95 96 105 104
f 96 97 106 105
f 97 98 107 106
f 98 99 108 107
f 99 100 109 108
f 100 92 101 109
g repair_organ
usemtl active_amber
f 110 111 119 118
f 111 112 120 119
f 112 113 121 120
f 113 114 122 121
f 114 115 123 122
f 115 116 124 123
f 116 117 125 124
f 117 110 118 125
f 118 119 127 126
f 119 120 128 127
f 120 121 129 128
f 121 122 130 129
f 122 123 131 130
f 123 124 132 131
f 124 125 133 132
f 125 118 126 133
f 126 127 135 134
f 127 128 136 135
f 128 129 137 136
f 129 130 138 137
f 130 131 139 138
f 131 132 140 139
f 132 133 141 140
f 133 126 134 141
g repair_arm_0
usemtl carbonate
f 154 152 150 148 146 144 142
f 143 145 147 149 151 153 155
f 142 144 145 143
f 144 146 147 145
f 146 148 149 147
f 148 150 151 149
f 150 152 153 151
f 152 154 155 153
f 154 142 143 155
g enzyme_pad_0
usemtl membrane
f 156 157 165 164
f 157 158 166 165
f 158 159 167 166
f 159 160 168 167
f 160 161 169 168
f 161 162 170 169
f 162 163 171 170
f 163 156 164 171
f 164 165 173 172
f 165 166 174 173
f 166 167 175 174
f 167 168 176 175
f 168 169 177 176
f 169 170 178 177
f 170 171 179 178
f 171 164 172 179
f 172 173 181 180
f 173 174 182 181
f 174 175 183 182
f 175 176 184 183
f 176 177 185 184
f 177 178 186 185
f 178 179 187 186
f 179 172 180 187
g repair_arm_1
usemtl carbonate
f 200 198 196 194 192 190 188
f 189 191 193 195 197 199 201
f 188 190 191 189
f 190 192 193 191
f 192 194 195 193
f 194 196 197 195
f 196 198 199 197
f 198 200 201 199
f 200 188 189 201
g enzyme_pad_1
usemtl membrane
f 202 203 211 210
f 203 204 212 211
f 204 205 213 212
f 205 206 214 213
f 206 207 215 214
f 207 208 216 215
f 208 209 217 216
f 209 202 210 217
f 210 211 219 218
f 211 212 220 219
f 212 213 221 220
f 213 214 222 221
f 214 215 223 222
f 215 216 224 223
f 216 217 225 224
f 217 210 218 225
f 218 219 227 226
f 219 220 228 227
f 220 221 229 228
f 221 222 230 229
f 222 223 231 230
f 223 224 232 231
f 224 225 233 232
f 225 218 226 233
g repair_arm_2
usemtl carbonate
f 246 244 242 240 238 236 234
f 235 237 239 241 243 245 247
f 234 236 237 235
f 236 238 239 237
f 238 240 241 239
f 240 242 243 241
f 242 244 245 243
f 244 246 247 245
f 246 234 235 247
g enzyme_pad_2
usemtl membrane
f 248 249 257 256
f 249 250 258 257
f 250 251 259 258
f 251 252 260 259
f 252 253 261 260
f 253 254 262 261
f 254 255 263 262
f 255 248 256 263
f 256 257 265 264
f 257 258 266 265
f 258 259 267 266
f 259 260 268 267
f 260 261 269 268
f 261 262 270 269
f 262 263 271 270
f 263 256 264 271
f 264 265 273 272
f 265 266 274 273
f 266 267 275 274
f 267 268 276 275
f 268 269 277 276
f 269 270 278 277
f 270 271 279 278
f 271 264 272 279
