# Generated Silica Street blockout: service_clean_flow_a
mtllib silica_street_blockout.mtl
o service_clean_flow_a
v 0.0 0.0 0.0
v 0.0 0.0 0.0
v 0.0 0.0 0.0
v -0.0 0.0 0.0
v -0.0 0.0 0.0
v -0.0 0.0 0.0
v -0.0 0.0 -0.0
v -0.0 0.0 -0.0
v 0.0 0.0 -0.0
v 0.0 0.0 -0.0
v 1.0253 0.08787 0.0
v 0.82949 0.08787 0.60266
v 0.31684 0.08787 0.97512
v -0.31684 0.08787 0.97512
v -0.82949 0.08787 0.60266
v -1.0253 0.08787 0.0
v -0.82949 0.08787 -0.60266
v -0.31684 0.08787 -0.97512
v 0.31684 0.08787 -0.97512
v 0.82949 0.08787 -0.60266
v 1.45 0.3 0.0
v 1.17307 0.3 0.85229
v 0.44807 0.3 1.37903
v -0.44807 0.3 1.37903
v -1.17307 0.3 0.85229
v -1.45 0.3 0.0
v -1.17307 0.3 -0.85229
v -0.44807 0.3 -1.37903
v 0.44807 0.3 -1.37903
v 1.17307 0.3 -0.85229
v 1.0253 0.51213 0.0
v 0.82949 0.51213 0.60266
v 0.31684 0.51213 0.97512
v -0.31684 0.51213 0.97512
v -0.82949 0.51213 0.60266
v -1.0253 0.51213 0.0
v -0.82949 0.51213 -0.60266
v -0.31684 0.51213 -0.97512
v 0.31684 0.51213 -0.97512
v 0.82949 0.51213 -0.60266
v 0.0 0.6 0.0
v 0.0 0.6 0.0
v 0.0 0.6 0.0
v -0.0 0.6 0.0
v -0.0 0.6 0.0
v -0.0 0.6 0.0
v -0.0 0.6 -0.0
v -0.0 0.6 -0.0
v 0.0 0.6 -0.0
v 0.0 0.6 -0.0
v 1.42 0.12 -0.095
v 0.8804 1.692 -0.095
v 1.34218 0.09329 -0.0475
v 0.80258 1.66529 -0.0475
v 1.34218 0.09329 0.0475
v 0.80258 1.66529 0.0475
v 1.42 0.12 0.095
v 0.8804 1.692 0.095
v 1.49782 0.14671 0.0475
v 0.95822 1.71871 0.0475
v 1.49782 0.14671 -0.0475
v 0.95822 1.71871 -0.0475
v 0.8804 1.692 -0.075
v 0.0 2.35 -0.075
v 0.84152 1.63997 -0.0375
v -0.03888 2.29797 -0.0375
v 0.84152 1.63997 0.0375
v -0.03888 2.29797 0.0375
v 0.8804 1.692 0.075
v -0.0 2.35 0.075
v 0.91928 1.74403 0.0375
v 0.03888 2.40203 0.0375
v 0.91928 1.74403 -0.0375
v 0.03888 2.40203 -0.0375
v 1.00409 0.09759 0.91177
v 0.62254 1.66959 0.53022
v 0.92402 0.09044 0.96239
v 0.54246 1.66244 0.58083
v 0.92402 0.11285 1.05471
v 0.54246 1.68485 0.67315
v 1.00409 0.14241 1.09641
v 0.62254 1.71441 0.71486
v 1.08417 0.14956 1.0458
v 0.70261 1.72156 0.66424
v 1.08417 0.12715 0.95348
v 0.70261 1.69915 0.57192
v 0.67557 1.692 0.5695
v 0.05303 2.35 -0.05303
v 0.62156 1.63997 0.56853
v -0.00098 2.29797 -0.05401
v 0.56853 1.63997 0.62156
v -0.05401 2.29797 -0.00098
v 0.5695 1.692 0.67557
v -0.05303 2.35 0.05303
v 0.62352 1.74403 0.67655
v 0.00098 2.40203 0.05401
v 0.67655 1.74403 0.62352
v 0.05401 2.40203 0.00098
v 0.0 0.08916 1.33015
v 0.0 1.66116 0.79055
v -0.08227 0.10458 1.37507
v -0.08227 1.67658 0.83547
v -0.08227 0.13542 1.46493
v -0.08227 1.70742 0.92533
v 0.0 0.15084 1.50985
v 0.0 1.72284 0.97025
v 0.08227 0.13542 1.46493
v 0.08227 1.70742 0.92533
v 0.08227 0.10458 1.37507
v 0.08227 1.67658 0.83547
v 0.075 1.692 0.8804
v 0.075 2.35 -0.0
v 0.0375 1.63997 0.84152
v 0.0375 2.29797 -0.03888
v -0.0375 1.63997 0.84152
v -0.0375 2.29797 -0.03888
v -0.075 1.692 0.8804
v -0.075 2.35 -0.0
v -0.0375 1.74403 0.91928
v -0.0375 2.40203 0.03888
v 0.0375 1.74403 0.91928
v 0.0375 2.40203 0.03888
v -1.00409 0.09759 0.91177
v -0.62254 1.66959 0.53022
v -1.08417 0.12715 0.95348
v -0.70261 1.69915 0.57192
v -1.08417 0.14956 1.0458
v -0.70261 1.72156 0.66424
v -1.00409 0.14241 1.09641
v -0.62254 1.71441 0.71486
v -0.92402 0.11285 1.05471
v -0.54246 1.68485 0.67315
v -0.92402 0.09044 0.96239
v -0.54246 1.66244 0.58083
v -0.5695 1.692 0.67557
v 0.05303 2.35 0.05303
v -0.56853 1.63997 0.62156
v 0.05401 2.29797 -0.00098
v -0.62156 1.63997 0.56853
v 0.00098 2.29797 -0.05401
v -0.67557 1.692 0.5695
v -0.05303 2.35 -0.05303
v -0.67655 1.74403 0.62352
v -0.05401 2.40203 0.00098
v -0.62352 1.74403 0.67655
v -0.00098 2.40203 0.05401
v -1.42 0.12 -0.095
v -0.8804 1.692 -0.095
v -1.49782 0.14671 -0.0475
v -0.95822 1.71871 -0.0475
v -1.49782 0.14671 0.0475
v -0.95822 1.71871 0.0475
v -1.42 0.12 0.095
v -0.8804 1.692 0.095
v -1.34218 0.09329 0.0475
v -0.80258 1.66529 0.0475
v -1.34218 0.09329 -0.0475
v -0.80258 1.66529 -0.0475
v -0.8804 1.692 0.075
v 0.0 2.35 0.075
v -0.84152 1.63997 0.0375
v 0.03888 2.29797 0.0375
v -0.84152 1.63997 -0.0375
v 0.03888 2.29797 -0.0375
v -0.8804 1.692 -0.075
v -0.0 2.35 -0.075
v -0.91928 1.74403 -0.0375
v -0.03888 2.40203 -0.0375
v -0.91928 1.74403 0.0375
v -0.03888 2.40203 0.0375
v -1.00409 0.14241 -1.09641
v -0.62254 1.71441 -0.71486
v -1.08417 0.14956 -1.0458
v -0.70261 1.72156 -0.66424
v -1.08417 0.12715 -0.95348
v -0.70261 1.69915 -0.57192
v -1.00409 0.09759 -0.91177
v -0.62254 1.66959 -0.53022
v -0.92402 0.09044 -0.96239
v -0.54246 1.66244 -0.58083
v -0.92402 0.11285 -1.05471
v -0.54246 1.68485 -0.67315
v -0.67557 1.692 -0.5695
v -0.05303 2.35 0.05303
v -0.62156 1.63997 -0.56853
v 0.00098 2.29797 0.05401
v -0.56853 1.63997 -0.62156
v 0.05401 2.29797 0.00098
v -0.5695 1.692 -0.67557
v 0.05303 2.35 -0.05303
v -0.62352 1.74403 -0.67655
v -0.00098 2.40203 -0.05401
v -0.67655 1.74403 -0.62352
v -0.05401 2.40203 -0.00098
v -0.0 0.15084 -1.50985
v -0.0 1.72284 -0.97025
v -0.08227 0.13542 -1.46493
v -0.08227 1.70742 -0.92533
v -0.08227 0.10458 -1.37507
v -0.08227 1.67658 -0.83547
v -0.0 0.08916 -1.33015
v -0.0 1.66116 -0.79055
v 0.08227 0.10458 -1.37507
v 0.08227 1.67658 -0.83547
v 0.08227 0.13542 -1.46493
v 0.08227 1.70742 -0.92533
v -0.075 1.692 -0.8804
v -0.075 2.35 0.0
v -0.0375 1.63997 -0.84152
v -0.0375 2.29797 0.03888
v 0.0375 1.63997 -0.84152
v 0.0375 2.29797 0.03888
v 0.075 1.692 -0.8804
v 0.075 2.35 -0.0
v 0.0375 1.74403 -0.91928
v 0.0375 2.40203 -0.03888
v -0.0375 1.74403 -0.91928
v -0.0375 2.40203 -0.03888
v 1.00409 0.14241 -1.09641
v 0.62254 1.71441 -0.71486
v 0.92402 0.11285 -1.05471
v 0.54246 1.68485 -0.67315
v 0.92402 0.09044 -0.96239
v 0.54246 1.66244 -0.58083
v 1.00409 0.09759 -0.91177
v 0.62254 1.66959 -0.53022
v 1.08417 0.12715 -0.95348
v 0.70261 1.69915 -0.57192
v 1.08417 0.14956 -1.0458
v 0.70261 1.72156 -0.66424
v 0.5695 1.692 -0.67557
v -0.05303 2.35 -0.05303
v 0.56853 1.63997 -0.62156
v -0.05401 2.29797 0.00098
v 0.62156 1.63997 -0.56853
v -0.00098 2.29797 0.05401
v 0.67557 1.692 -0.5695
v 0.05303 2.35 0.05303
v 0.67655 1.74403 -0.62352
v 0.05401 2.40203 -0.00098
v 0.62352 1.74403 -0.67655
v 0.00098 2.40203 -0.05401
v 0.0 0.2 0.0
v 0.0 0.2 0.0
v 0.0 0.2 0.0
v -0.0 0.2 0.0
v -0.0 0.2 0.0
v -0.0 0.2 0.0
v -0.0 0.2 -0.0
v -0.0 0.2 -0.0
v 0.0 0.2 -0.0
v 0.0 0.2 -0.0
v 0.62354 0.29 0.0
v 0.50445 0.29 0.36651
v 0.19268 0.29 0.59302
v -0.19268 0.29 0.59302
v -0.50445 0.29 0.36651
v -0.62354 0.29 0.0
v -0.50445 0.29 -0.36651
v -0.19268 0.29 -0.59302
v 0.19268 0.29 -0.59302
v 0.50445 0.29 -0.36651
v 0.62354 0.47 0.0
v 0.50445 0.47 0.36651
v 0.19268 0.47 0.59302
v -0.19268 0.47 0.59302
v -0.50445 0.47 0.36651
v -0.62354 0.47 0.0
v -0.50445 0.47 -0.36651
v -0.19268 0.47 -0.59302
v 0.19268 0.47 -0.59302
v 0.50445 0.47 -0.36651
v 0.0 0.56 0.0
v 0.0 0.56 0.0
v 0.0 0.56 0.0
v -0.0 0.56 0.0
v -0.0 0.56 0.0
v -0.0 0.56 0.0
v -0.0 0.56 -0.0
v -0.0 0.56 -0.0
v 0.0 0.56 -0.0
v 0.0 0.56 -0.0
v 0.55 0.48 0.11
v 1.35 0.12 0.11
v 0.51091 0.39313 0.055
v 1.31091 0.03313 0.055
v 0.51091 0.39313 -0.055
v 1.31091 0.03313 -0.055
v 0.55 0.48 -0.11
v 1.35 0.12 -0.11
v 0.58909 0.56687 -0.055
v 1.38909 0.20687 -0.055
v 0.58909 0.56687 0.055
v 1.38909 0.20687 0.055
v -0.11 0.48 0.55
v -0.11 0.12 1.35
v -0.055 0.39313 0.51091
v -0.055 0.03313 1.31091
v 0.055 0.39313 0.51091
v 0.055 0.03313 1.31091
v 0.11 0.48 0.55
v 0.11 0.12 1.35
v 0.055 0.56687 0.58909
v 0.055 0.20687 1.38909
v -0.055 0.56687 0.58909
v -0.055 0.20687 1.38909
v -0.55 0.48 -0.11
v -1.35 0.12 -0.11
v -0.51091 0.39313 -0.055
v -1.31091 0.03313 -0.055
v -0.51091 0.39313 0.055
v -1.31091 0.03313 0.055
v -0.55 0.48 0.11
v -1.35 0.12 0.11
v -0.58909 0.56687 0.055
v -1.38909 0.20687 0.055
v -0.58909 0.56687 -0.055
v -1.38909 0.20687 -0.055
v 0.11 0.48 -0.55
v 0.11 0.12 -1.35
v 0.055 0.39313 -0.51091
v 0.055 0.03313 -1.31091
v -0.055 0.39313 -0.51091
v -0.055 0.03313 -1.31091
v -0.11 0.48 -0.55
v -0.11 0.12 -1.35
v -0.055 0.56687 -0.58909
v -0.055 0.20687 -1.38909
v 0.055 0.56687 -0.58909
v 0.055 0.20687 -1.38909
v 0.0 0.65 0.0
v 0.0 0.65 0.0
v -0.0 0.65 0.0
v -0.0 0.65 0.0
v -0.0 0.65 -0.0
v -0.0 0.65 -0.0
v 0.0 0.65 -0.0
v 0.19053 0.825 0.0
v 0.11879 0.825 0.14896
v -0.0424 0.825 0.18575
v -0.17166 0.825 0.08267
v -0.17166 0.825 -0.08267
v -0.0424 0.825 -0.18575
v 0.11879 0.825 -0.14896
v 0.19053 1.175 0.0
v 0.11879 1.175 0.14896
v -0.0424 1.175 0.18575
v -0.17166 1.175 0.08267
v -0.17166 1.175 -0.08267
v -0.0424 1.175 -0.18575
v 0.11879 1.175 -0.14896
v 0.0 1.35 0.0
v 0.0 1.35 0.0
v -0.0 1.35 0.0
v -0.0 1.35 0.0
v -0.0 1.35 -0.0
v -0.0 1.35 -0.0
v 0.0 1.35 -0.0
g base
usemtl shell_teal
f 1 2 12 11
f 2 3 13 12
f 3 4 14 13
f 4 5 15 14
f 5 6 16 15
f 6 7 17 16
f 7 8 18 17
f 8 9 19 18
f 9 10 20 19
f 10 1 11 20
f 11 12 22 21
f 12 13 23 22
f 13 14 24 23
f 14 15 25 24
f 15 16 26 25
f 16 17 27 26
f 17 18 28 27
f 18 19 29 28
f 19 20 30 29
f 20 11 21 30
f 21 22 32 31
f 22 23 33 32
f 23 24 34 33
f 24 25 35 34
f 25 26 36 35
f 26 27 37 36
f 27 28 38 37
f 28 29 39 38
f 29 30 40 39
f 30 21 31 40
f 31 32 42 41
f 32 33 43 42
f 33 34 44 43
f 34 35 45 44
f 35 36 46 45
f 36 37 47 46
f 37 38 48 47
f 38 39 49 48
f 39 40 50 49
f 40 31 41 50
g lattice
usemtl carbonate
f 61 59 57 55 53 51
f 52 54 56 58 60 62
f 51 53 54 52
f 53 55 56 54
f 55 57 58 56
f 57 59 60 58
f 59 61 62 60
f 61 51 52 62
f 73 71 69 67 65 63
f 64 66 68 70 72 74
f 63 65 66 64
f 65 67 68 66
f 67 69 70 68
f 69 71 72 70
f 71 73 74 72
f 73 63 64 74
f 85 83 81 79 77 75
f 76 78 80 82 84 86
f 75 77 78 76
f 77 79 80 78
f 79 81 82 80
f 81 83 84 82
f 83 85 86 84
f 85 75 76 86
f 97 95 93 91 89 87
f 88 90 92 94 96 98
f 87 89 90 88
f 89 91 92 90
f 91 93 94 92
f 93 95 96 94
f 95 97 98 96
f 97 87 88 98
f 109 107 105 103 101 99
f 100 102 104 106 108 110
f 99 101 102 100
f 101 103 104 102
f 103 105 106 104
f 105 107 108 106
f 107 109 110 108
f 109 99 100 110
f 121 119 117 115 113 111
f 112 114 116 118 120 122
f 111 113 114 112
f 113 115 116 114
f 115 117 118 116
f 117 119 120 118
f 119 121 122 120
f 121 111 112 122
f 133 131 129 127 125 123
f 124 126 128 130 132 134
f 123 125 126 124
f 125 127 128 126
f 127 129 130 128
f 129 131 132 130
f 131 133 134 132
f 133 123 124 134
f 145 143 141 139 137 135
f 136 138 140 142 144 146
f 135 137 138 136
f 137 139 140 138
f 139 141 142 140
f 141 143 144 142
f 143 145 146 144
f 145 135 136 146
f 157 155 153 151 149 147
f 148 150 152 154 156 158
f 147 149 150 148
f 149 151 152 150
f 151 153 154 152
f 153 155 156 154
f 155 157 158 156
f 157 147 148 158
f 169 167 165 163 161 159
f 160 162 164 166 168 170
f 159 161 162 160
f 161 163 164 162
f 163 165 166 164
f 165 167 168 166
f 167 169 170 168
f 169 159 160 170
f 181 179 177 175 173 171
f 172 174 176 178 180 182
f 171 173 174 172
f 173 175 176 174
f 175 177 178 176
f 177 179 180 178
f 179 181 182 180
f 181 171 172 182
f 193 191 189 187 185 183
f 184 186 188 190 192 194
f 183 185 186 184
f 185 187 188 186
f 187 189 190 188
f 189 191 192 190
f 191 193 194 192
f 193 183 184 194
f 205 203 201 199 197 195
f 196 198 200 202 204 206
f 195 197 198 196
f 197 199 200 198
f 199 201 202 200
f 201 203 204 202
f 203 205 206 204
f 205 195 196 206
f 217 215 213 211 209 207
f 208 210 212 214 216 218
f 207 209 210 208
f 209 211 212 210
f 211 213 214 212
f 213 215 216 214
f 215 217 218 216
f 217 207 208 218
f 229 227 225 223 221 219
f 220 222 224 226 228 230
f 219 221 222 220
f 221 223 224 222
f 223 225 226 224
f 225 227 228 226
f 227 229 230 228
f 229 219 220 230
f 241 239 237 235 233 231
f 232 234 236 238 240 242
f 231 233 234 232
f 233 235 236 234
f 235 237 238 236
f 237 239 240 238
f 239 241 242 240
f 241 231 232 242
g flow_basin
usemtl membrane
f 243 244 254 253
f 244 245 255 254
f 245 246 256 255
f 246 247 257 256
f 247 248 258 257
f 248 249 259 258
f 249 250 260 259
f 250 251 261 260
f 251 252 262 261
f 252 243 253 262
f 253 254 264 263
f 254 255 265 264
f 255 256 266 265
f 256 257 267 266
f 257 258 268 267
f 258 259 269 268
f 259 260 270 269
f 260 261 271 270
f 261 262 272 271
f 262 253 263 272
f 263 264 274 273
f 264 265 275 274
f 265 266 276 275
f 266 267 277 276
f 267 268 278 277
f 268 269 279 278
f 269 270 280 279
f 270 271 281 280
f 271 272 282 281
f 272 263 273 282
g flow_arms
usemtl membrane
f 293 291 289 287 285 283
f 284 286 288 290 292 294
f 283 285 286 284
f 285 287 288 286
f 287 289 290 288
f 289 291 292 290
f 291 293 294 292
f 293 283 284 294
f 305 303 301 299 297 295
f 296 298 300 302 304 306
f 295 297 298 296
f 297 299 300 298
f 299 301 302 300
f 301 303 304 302
f 303 305 306 304
f 305 295 296 306
f 317 315 313 311 309 307
f 308 310 312 314 316 318
f 307 309 310 308
f 309 311 312 310
f 311 313 314 312
f 313 315 316 314
f 315 317 318 316
f 317 307 308 318
f 329 327 325 323 321 319
f 320 322 324 326 328 330
f 319 321 322 320
f 321 323 324 322
f 323 325 326 324
f 325 327 328 326
f 327 329 330 328
f 329 319 320 330
g activity_organ
usemtl active_amber
f 331 332 339 338
f 332 333 340 339
f 333 334 341 340
f 334 335 342 341
f 335 336 343 342
f 336 337 344 343
f 337 331 338 344
f 338 339 346 345
f 339 340 347 346
f 340 341 348 347
f 341 342 349 348
f 342 343 350 349
f 343 344 351 350
f 344 338 345 351
f 345 346 353 352
f 346 347 354 353
f 347 348 355 354
f 348 349 356 355
f 349 350 357 356
f 350 351 358 357
f 351 345 352 358
