# Generated Silica Street blockout: store_general_a
mtllib silica_street_blockout.mtl
o store_general_a
v 0.0 0.0 0.0
v 0.0 0.0 0.0
v 0.0 0.0 0.0
v 0.0 0.0 0.0
v -0.0 0.0 0.0
v -0.0 0.0 0.0
v -0.0 0.0 0.0
v -0.0 0.0 -0.0
v -0.0 0.0 -0.0
v -0.0 0.0 -0.0
v 0.0 0.0 -0.0
v 0.0 0.0 -0.0
v 2.05061 0.1318 0.0
v 1.77588 0.1318 0.83085
v 1.0253 0.1318 1.43908
v 0.0 0.1318 1.6617
v -1.0253 0.1318 1.43908
v -1.77588 0.1318 0.83085
v -2.05061 0.1318 0.0
v -1.77588 0.1318 -0.83085
v -1.0253 0.1318 -1.43908
v -0.0 0.1318 -1.6617
v 1.0253 0.1318 -1.43908
v 1.77588 0.1318 -0.83085
v 2.9 0.45 0.0
v 2.51147 0.45 1.175
v 1.45 0.45 2.03516
v 0.0 0.45 2.35
v -1.45 0.45 2.03516
v -2.51147 0.45 1.175
v -2.9 0.45 0.0
v -2.51147 0.45 -1.175
v -1.45 0.45 -2.03516
v -0.0 0.45 -2.35
v 1.45 0.45 -2.03516
v 2.51147 0.45 -1.175
v 2.05061 0.7682 0.0
v 1.77588 0.7682 0.83085
v 1.0253 0.7682 1.43908
v 0.0 0.7682 1.6617
v -1.0253 0.7682 1.43908
v -1.77588 0.7682 0.83085
v -2.05061 0.7682 0.0
v -1.77588 0.7682 -0.83085
v -1.0253 0.7682 -1.43908
v -0.0 0.7682 -1.6617
v 1.0253 0.7682 -1.43908
v 1.77588 0.7682 -0.83085
v 0.0 0.9 0.0
v 0.0 0.9 0.0
v 0.0 0.9 0.0
v 0.0 0.9 0.0
v -0.0 0.9 0.0
v -0.0 0.9 0.0
v -0.0 0.9 0.0
v -0.0 0.9 -0.0
v -0.0 0.9 -0.0
v -0.0 0.9 -0.0
v 0.0 0.9 -0.0
v 0.0 0.9 -0.0
v 2.9 0.12 -0.095
v 1.798 1.944 -0.095
v 2.82958 0.07746 -0.0475
v 1.72758 1.90146 -0.0475
v 2.82958 0.07746 0.0475
v 1.72758 1.90146 0.0475
v 2.9 0.12 0.095
v 1.798 1.944 0.095
v 2.97042 0.16254 0.0475
v 1.86842 1.98654 0.0475
v 2.97042 0.16254 -0.0475
v 1.86842 1.98654 -0.0475
v 1.798 1.944 -0.075
v 0.0 2.7 -0.075
v 1.77282 1.88413 -0.0375
v -0.02518 2.64013 -0.0375
v 1.77282 1.88413 0.0375
v -0.02518 2.64013 0.0375
v 1.798 1.944 0.075
v -0.0 2.7 0.075
v 1.82318 2.00387 0.0375
v 0.02518 2.75987 0.0375
v 1.82318 2.00387 -0.0375
v 0.02518 2.75987 -0.0375
v 2.39435 0.12 1.29943
v 1.50281 1.944 0.77454
v 2.30858 0.07941 1.30406
v 1.41704 1.90341 0.77916
v 2.26038 0.07941 1.38592
v 1.36885 1.90341 0.86103
v 2.29795 0.12 1.46316
v 1.40641 1.944 0.93827
v 2.38372 0.16059 1.45854
v 1.49218 1.98459 0.93364
v 2.43192 0.16059 1.37667
v 1.54038 1.98459 0.85178
v 1.49266 1.944 0.79177
v 0.03805 2.7 -0.06463
v 1.45076 1.88472 0.81062
v -0.00385 2.64072 -0.04578
v 1.41271 1.88472 0.87525
v -0.0419 2.64072 0.01885
v 1.41656 1.944 0.92103
v -0.03805 2.7 0.06463
v 1.45847 2.00328 0.90219
v 0.00385 2.75928 0.04578
v 1.49652 2.00328 0.83756
v 0.0419 2.75928 -0.01885
v 0.98433 0.12 2.19963
v 0.64379 1.944 1.35033
v 0.91287 0.08311 2.14905
v 0.57233 1.90711 1.29976
v 0.82469 0.08311 2.18441
v 0.48416 1.90711 1.33511
v 0.80797 0.12 2.27034
v 0.46744 1.944 1.42104
v 0.87943 0.15689 2.32092
v 0.53889 1.98089 1.47162
v 0.96761 0.15689 2.28556
v 0.62707 1.98089 1.43627
v 0.62523 1.944 1.35778
v 0.06961 2.7 -0.02791
v 0.5795 1.88605 1.3445
v 0.02389 2.64205 -0.04119
v 0.50989 1.88605 1.37241
v -0.04573 2.64205 -0.01328
v 0.486 1.944 1.4136
v -0.06961 2.7 0.02791
v 0.53173 2.00195 1.42688
v -0.02389 2.75795 0.04119
v 0.60134 2.00195 1.39897
v 0.04573 2.75795 0.01328
v -0.80797 0.12 2.27034
v -0.46744 1.944 1.42104
v -0.82469 0.08311 2.18441
v -0.48416 1.90711 1.33511
v -0.91287 0.08311 2.14905
v -0.57233 1.90711 1.29976
v -0.98433 0.12 2.19963
v -0.64379 1.944 1.35033
v -0.96761 0.15689 2.28556
v -0.62707 1.98089 1.43627
v -0.87943 0.15689 2.32092
v -0.53889 1.98089 1.47162
v -0.486 1.944 1.4136
v 0.06961 2.7 0.02791
v -0.50989 1.88605 1.37241
v 0.04573 2.64205 -0.01328
v -0.5795 1.88605 1.3445
v -0.02389 2.64205 -0.04119
v -0.62523 1.944 1.35778
v -0.06961 2.7 -0.02791
v -0.60134 2.00195 1.39897
v -0.04573 2.75795 0.01328
v -0.53173 2.00195 1.42688
v 0.02389 2.75795 0.04119
v -2.29795 0.12 1.46316
v -1.40641 1.944 0.93827
v -2.26038 0.07941 1.38592
v -1.36885 1.90341 0.86103
v -2.30858 0.07941 1.30406
v -1.41704 1.90341 0.77916
v -2.39435 0.12 1.29943
v -1.50281 1.944 0.77454
v -2.43192 0.16059 1.37667
v -1.54038 1.98459 0.85178
v -2.38372 0.16059 1.45854
v -1.49218 1.98459 0.93364
v -1.41656 1.944 0.92103
v 0.03805 2.7 0.06463
v -1.41271 1.88472 0.87525
v 0.0419 2.64072 0.01885
v -1.45076 1.88472 0.81062
v 0.00385 2.64072 -0.04578
v -1.49266 1.944 0.79177
v -0.03805 2.7 -0.06463
v -1.49652 2.00328 0.83756
v -0.0419 2.75928 -0.01885
v -1.45847 2.00328 0.90219
v -0.00385 2.75928 0.04578
v -2.9 0.12 0.095
v -1.798 1.944 0.095
v -2.82958 0.07746 0.0475
v -1.72758 1.90146 0.0475
v -2.82958 0.07746 -0.0475
v -1.72758 1.90146 -0.0475
v -2.9 0.12 -0.095
v -1.798 1.944 -0.095
v -2.97042 0.16254 -0.0475
v -1.86842 1.98654 -0.0475
v -2.97042 0.16254 0.0475
v -1.86842 1.98654 0.0475
v -1.798 1.944 0.075
v 0.0 2.7 0.075
v -1.77282 1.88413 0.0375
v 0.02518 2.64013 0.0375
v -1.77282 1.88413 -0.0375
v 0.02518 2.64013 -0.0375
v -1.798 1.944 -0.075
v -0.0 2.7 -0.075
v -1.82318 2.00387 -0.0375
v -0.02518 2.75987 -0.0375
v -1.82318 2.00387 0.0375
v -0.02518 2.75987 0.0375
v -2.39435 0.12 -1.29943
v -1.50281 1.944 -0.77454
v -2.30858 0.07941 -1.30406
v -1.41704 1.90341 -0.77916
v -2.26038 0.07941 -1.38592
v -1.36885 1.90341 -0.86103
v -2.29795 0.12 -1.46316
v -1.40641 1.944 -0.93827
v -2.38372 0.16059 -1.45854
v -1.49218 1.98459 -0.93364
v -2.43192 0.16059 -1.37667
v -1.54038 1.98459 -0.85178
v -1.49266 1.944 -0.79177
v -0.03805 2.7 0.06463
v -1.45076 1.88472 -0.81062
v 0.00385 2.64072 0.04578
v -1.41271 1.88472 -0.87525
v 0.0419 2.64072 -0.01885
v -1.41656 1.944 -0.92103
v 0.03805 2.7 -0.06463
v -1.45847 2.00328 -0.90219
v -0.00385 2.75928 -0.04578
v -1.49652 2.00328 -0.83756
v -0.0419 2.75928 0.01885
v -0.98433 0.12 -2.19963
v -0.64379 1.944 -1.35033
v -0.91287 0.08311 -2.14905
v -0.57233 1.90711 -1.29976
v -0.82469 0.08311 -2.18441
v -0.48416 1.90711 -1.33511
v -0.80797 0.12 -2.27034
v -0.46744 1.944 -1.42104
v -0.87943 0.15689 -2.32092
v -0.53889 1.98089 -1.47162
v -0.96761 0.15689 -2.28556
v -0.62707 1.98089 -1.43627
v -0.62523 1.944 -1.35778
v -0.06961 2.7 0.02791
v -0.5795 1.88605 -1.3445
v -0.02389 2.64205 0.04119
v -0.50989 1.88605 -1.37241
v 0.04573 2.64205 0.01328
v -0.486 1.944 -1.4136
v 0.06961 2.7 -0.02791
v -0.53173 2.00195 -1.42688
v 0.02389 2.75795 -0.04119
v -0.60134 2.00195 -1.39897
v -0.04573 2.75795 -0.01328
v 0.80797 0.12 -2.27034
v 0.46744 1.944 -1.42104
v 0.82469 0.08311 -2.18441
v 0.48416 1.90711 -1.33511
v 0.91287 0.08311 -2.14905
v 0.57233 1.90711 -1.29976
v 0.98433 0.12 -2.19963
v 0.64379 1.944 -1.35033
v 0.96761 0.15689 -2.28556
v 0.62707 1.98089 -1.43627
v 0.87943 0.15689 -2.32092
v 0.53889 1.98089 -1.47162
v 0.486 1.944 -1.4136
v -0.06961 2.7 -0.02791
v 0.50989 1.88605 -1.37241
v -0.04573 2.64205 0.01328
v 0.5795 1.88605 -1.3445
v 0.02389 2.64205 0.04119
v 0.62523 1.944 -1.35778
v 0.06961 2.7 0.02791
v 0.60134 2.00195 -1.39897
v 0.04573 2.75795 -0.01328
v 0.53173 2.00195 -1.42688
v -0.02389 2.75795 -0.04119
v 2.29795 0.12 -1.46316
v 1.40641 1.944 -0.93827
v 2.26038 0.07941 -1.38592
v 1.36885 1.90341 -0.86103
v 2.30858 0.07941 -1.30406
v 1.41704 1.90341 -0.77916
v 2.39435 0.12 -1.29943
v 1.50281 1.944 -0.77454
v 2.43192 0.16059 -1.37667
v 1.54038 1.98459 -0.85178
v 2.38372 0.16059 -1.45854
v 1.49218 1.98459 -0.93364
v 1.41656 1.944 -0.92103
v -0.03805 2.7 -0.06463
v 1.41271 1.88472 -0.87525
v -0.0419 2.64072 -0.01885
v 1.45076 1.88472 -0.81062
v -0.00385 2.64072 0.04578
v 1.49266 1.944 -0.79177
v 0.03805 2.7 0.06463
v 1.49652 2.00328 -0.83756
v 0.0419 2.75928 0.01885
v 1.45847 2.00328 -0.90219
v 0.00385 2.75928 -0.04578
v -1.15 0.32 -0.65
v -1.15 0.32 -0.65
v -1.15 0.32 -0.65
v -1.15 0.32 -0.65
v -1.15 0.32 -0.65
v -1.15 0.32 -0.65
v -1.15 0.32 -0.65
v -1.15 0.32 -0.65
v -0.4745 0.46 -0.65
v -0.67235 0.46 -0.25196
v -1.15 0.46 -0.08708
v -1.62765 0.46 -0.25196
v -1.8255 0.46 -0.65
v -1.62765 0.46 -1.04804
v -1.15 0.46 -1.21292
v -0.67235 0.46 -1.04804
v -0.4745 0.74 -0.65
v -0.67235 0.74 -0.25196
v -1.15 0.74 -0.08708
v -1.62765 0.74 -0.25196
v -1.8255 0.74 -0.65
v -1.62765 0.74 -1.04804
v -1.15 0.74 -1.21292
v -0.67235 0.74 -1.04804
v -1.15 0.88 -0.65
v -1.15 0.88 -0.65
v -1.15 0.88 -0.65
v -1.15 0.88 -0.65
v -1.15 0.88 -0.65
v -1.15 0.88 -0.65
v -1.15 0.88 -0.65
v -1.15 0.88 -0.65
v 1.1 0.32 -0.65
v 1.1 0.32 -0.65
v 1.1 0.32 -0.65
v 1.1 0.32 -0.65
v 1.1 0.32 -0.65
v 1.1 0.32 -0.65
v 1.1 0.32 -0.65
v 1.1 0.32 -0.65
v 1.7755 0.46 -0.65
v 1.57765 0.46 -0.25196
v 1.1 0.46 -0.08708
v 0.62235 0.46 -0.25196
v 0.4245 0.46 -0.65
v 0.62235 0.46 -1.04804
v 1.1 0.46 -1.21292
v 1.57765 0.46 -1.04804
v 1.7755 0.74 -0.65
v 1.57765 0.74 -0.25196
v 1.1 0.74 -0.08708
v 0.62235 0.74 -0.25196
v 0.4245 0.74 -0.65
v 0.62235 0.74 -1.04804
v 1.1 0.74 -1.21292
v 1.57765 0.74 -1.04804
v 1.1 0.88 -0.65
v 1.1 0.88 -0.65
v 1.1 0.88 -0.65
v 1.1 0.88 -0.65
v 1.1 0.88 -0.65
v 1.1 0.88 -0.65
v 1.1 0.88 -0.65
v 1.1 0.88 -0.65
v 0.0 0.32 1.0
v 0.0 0.32 1.0
v 0.0 0.32 1.0
v -0.0 0.32 1.0
v -0.0 0.32 1.0
v -0.0 0.32 1.0
v -0.0 0.32 1.0
v 0.0 0.32 1.0
v 0.6755 0.46 1.0
v 0.47765 0.46 1.39804
v 0.0 0.46 1.56292
v -0.47765 0.46 1.39804
v -0.6755 0.46 1.0
v -0.47765 0.46 0.60196
v -0.0 0.46 0.43708
v 0.47765 0.46 0.60196
v 0.6755 0.74 1.0
v 0.47765 0.74 1.39804
v 0.0 0.74 1.56292
v -0.47765 0.74 1.39804
v -0.6755 0.74 1.0
v -0.47765 0.74 0.60196
v -0.0 0.74 0.43708
v 0.47765 0.74 0.60196
v 0.0 0.88 1.0
v 0.0 0.88 1.0
v 0.0 0.88 1.0
v -0.0 0.88 1.0
v -0.0 0.88 1.0
v -0.0 0.88 1.0
v -0.0 0.88 1.0
v 0.0 0.88 1.0
g base
usemtl shell_teal
f 1 2 14 13
f 2 3 15 14
f 3 4 16 15
f 4 5 17 16
f 5 6 18 17
f 6 7 19 18
f 7 8 20 19
f 8 9 21 20
f 9 10 22 21
f 10 11 23 22
f 11 12 24 23
f 12 1 13 24
f 13 14 26 25
f 14 15 27 26
f 15 16 28 27
f 16 17 29 28
f 17 18 30 29
f 18 19 31 30
f 19 20 32 31
f 20 21 33 32
f 21 22 34 33
f 22 23 35 34
f 23 24 36 35
f 24 13 25 36
f 25 26 38 37
f 26 27 39 38
f 27 28 40 39
f 28 29 41 40
f 29 30 42 41
f 30 31 43 42
f 31 32 44 43
f 32 33 45 44
f 33 34 46 45
f 34 35 47 46
f 35 36 48 47
f 36 25 37 48
f 37 38 50 49
f 38 39 51 50
f 39 40 52 51
f 40 41 53 52
f 41 42 54 53
f 42 43 55 54
f 43 44 56 55
f 44 45 57 56
f 45 46 58 57
f 46 47 59 58
f 47 48 60 59
f 48 37 49 60
g lattice
usemtl carbonate
f 71 69 67 65 63 61
f 62 64 66 68 70 72
f 61 63 64 62
f 63 65 66 64
f 65 67 68 66
f 67 69 70 68
f 69 71 72 70
f 71 61 62 72
f 83 81 79 77 75 73
f 74 76 78 80 82 84
f 73 75 76 74
f 75 77 78 76
f 77 79 80 78
f 79 81 82 80
f 81 83 84 82
f 83 73 74 84
f 95 93 91 89 87 85
f 86 88 90 92 94 96
f 85 87 88 86
f 87 89 90 88
f 89 91 92 90
f 91 93 94 92
f 93 95 96 94
f 95 85 86 96
f 107 105 103 101 99 97
f 98 100 102 104 106 108
f 97 99 100 98
f 99 101 102 100
f 101 103 104 102
f 103 105 106 104
f 105 107 108 106
f 107 97 98 108
f 119 117 115 113 111 109
f 110 112 114 116 118 120
f 109 111 112 110
f 111 113 114 112
f 113 115 116 114
f 115 117 118 116
f 117 119 120 118
f 119 109 110 120
f 131 129 127 125 123 121
f 122 124 126 128 130 132
f 121 123 124 122
f 123 125 126 124
f 125 127 128 126
f 127 129 130 128
f 129 131 132 130
f 131 121 122 132
f 143 141 139 137 135 133
f 134 136 138 140 142 144
f 133 135 136 134
f 135 137 138 136
f 137 139 140 138
f 139 141 142 140
f 141 143 144 142
f 143 133 134 144
f 155 153 151 149 147 145
f 146 148 150 152 154 156
f 145 147 148 146
f 147 149 150 148
f 149 151 152 150
f 151 153 154 152
f 153 155 156 154
f 155 145 146 156
f 167 165 163 161 159 157
f 158 160 162 164 166 168
f 157 159 160 158
f 159 161 162 160
f 161 163 164 162
f 163 165 166 164
f 165 167 168 166
f 167 157 158 168
f 179 177 175 173 171 169
f 170 172 174 176 178 180
f 169 171 172 170
f 171 173 174 172
f 173 175 176 174
f 175 177 178 176
f 177 179 180 178
f 179 169 170 180
f 191 189 187 185 183 181
f 182 184 186 188 190 192
f 181 183 184 182
f 183 185 186 184
f 185 187 188 186
f 187 189 190 188
f 189 191 192 190
f 191 181 182 192
f 203 201 199 197 195 193
f 194 196 198 200 202 204
f 193 195 196 194
f 195 197 198 196
f 197 199 200 198
f 199 201 202 200
f 201 203 204 202
f 203 193 194 204
f 215 213 211 209 207 205
f 206 208 210 212 214 216
f 205 207 208 206
f 207 209 210 208
f 209 211 212 210
f 211 213 214 212
f 213 215 216 214
f 215 205 206 216
f 227 225 223 221 219 217
f 218 220 222 224 226 228
f 217 219 220 218
f 219 221 222 220
f 221 223 224 222
f 223 225 226 224
f 225 227 228 226
f 227 217 218 228
f 239 237 235 233 231 229
f 230 232 234 236 238 240
f 229 231 232 230
f 231 233 234 232
f 233 235 236 234
f 235 237 238 236
f 237 239 240 238
f 239 229 230 240
f 251 249 247 245 243 241
f 242 244 246 248 250 252
f 241 243 244 242
f 243 245 246 244
f 245 247 248 246
f 247 249 250 248
f 249 251 252 250
f 251 241 242 252
f 263 261 259 257 255 253
f 254 256 258 260 262 264
f 253 255 256 254
f 255 257 258 256
f 257 259 260 258
f 259 261 262 260
f 261 263 264 262
f 263 253 254 264
f 275 273 271 269 267 265
f 266 268 270 272 274 276
f 265 267 268 266
f 267 269 270 268
f 269 271 272 270
f 271 273 274 272
f 273 275 276 274
f 275 265 266 276
f 287 285 283 281 279 277
f 278 280 282 284 286 288
f 277 279 280 278
f 279 281 282 280
f 281 283 284 282
f 283 285 286 284
f 285 287 288 286
f 287 277 278 288
f 299 297 295 293 291 289
f 290 292 294 296 298 300
f 289 291 292 290
f 291 293 294 292
f 293 295 296 294
f 295 297 298 296
f 297 299 300 298
f 299 289 290 300
g stock_chamber_0
usemtl silicate_raw
f 301 302 310 309
f 302 303 311 310
f 303 304 312 311
f 304 305 313 312
f 305 306 314 313
f 306 307 315 314
f 307 308 316 315
f 308 301 309 316
f 309 310 318 317
f 310 311 319 318
f 311 312 320 319
f 312 313 321 320
f 313 314 322 321
f 314 315 323 322
f 315 316 324 323
f 316 309 317 324
f 317 318 326 325
f 318 319 327 326
f 319 320 328 327
f 320 321 329 328
f 321 322 330 329
f 322 323 331 330
f 323 324 332 331
f 324 317 325 332
g stock_chamber_1
usemtl silicate_prepared
f 333 334 342 341
f 334 335 343 342
f 335 336 344 343
f 336 337 345 344
f 337 338 346 345
f 338 339 347 346
f 339 340 348 347
f 340 333 341 348
f 341 342 350 349
f 342 343 351 350
f 343 344 352 351
f 344 345 353 352
f 345 346 354 353
f 346 347 355 354
f 347 348 356 355
f 348 341 349 356
f 349 350 358 357
f 350 351 359 358
f 351 352 360 359
f 352 353 361 360
f 353 354 362 361
f 354 355 363 362
f 355 356 364 363
f 356 349 357 364
g stock_chamber_2
usemtl organic_dark
f 365 366 374 373
f 366 367 375 374
f 367 368 376 375
f 368 369 377 376
f 369 370 378 377
f 370 371 379 378
f 371 372 380 379
f 372 365 373 380
f 373 374 382 381
f 374 375 383 382
f 375 376 384 383
f 376 377 385 384
f 377 378 386 385
f 378 379 387 386
f 379 380 388 387
f 380 373 381 388
f 381 382 390 389
f 382 383 391 390
f 383 384 392 391
f 384 385 393 392
f 385 386 394 393
f 386 387 395 394
f 387 388 396 395
f 388 381 389 396
