# Generated Silica Street blockout: unit_general_carrier_a
mtllib silica_street_blockout.mtl
o unit_general_carrier_a
v 0.0 0.18 0.0
v 0.0 0.18 0.0
v 0.0 0.18 0.0
v -0.0 0.18 0.0
v -0.0 0.18 0.0
v -0.0 0.18 0.0
v -0.0 0.18 -0.0
v -0.0 0.18 -0.0
v 0.0 0.18 -0.0
v 0.0 0.18 -0.0
v 0.43841 0.26201 0.0
v 0.35468 0.26201 0.14131
v 0.13547 0.26201 0.22865
v -0.13547 0.26201 0.22865
v -0.35468 0.26201 0.14131
v -0.43841 0.26201 0.0
v -0.35468 0.26201 -0.14131
v -0.13547 0.26201 -0.22865
v 0.13547 0.26201 -0.22865
v 0.35468 0.26201 -0.14131
v 0.62 0.46 0.0
v 0.50159 0.46 0.19985
v 0.19159 0.46 0.32336
v -0.19159 0.46 0.32336
v -0.50159 0.46 0.19985
v -0.62 0.46 0.0
v -0.50159 0.46 -0.19985
v -0.19159 0.46 -0.32336
v 0.19159 0.46 -0.32336
v 0.50159 0.46 -0.19985
v 0.43841 0.65799 0.0
v 0.35468 0.65799 0.14131
v 0.13547 0.65799 0.22865
v -0.13547 0.65799 0.22865
v -0.35468 0.65799 0.14131
v -0.43841 0.65799 0.0
v -0.35468 0.65799 -0.14131
v -0.13547 0.65799 -0.22865
v 0.13547 0.65799 -0.22865
v 0.35468 0.65799 -0.14131
v 0.0 0.74 0.0
v 0.0 0.74 0.0
v 0.0 0.74 0.0
v -0.0 0.74 0.0
v -0.0 0.74 0.0
v -0.0 0.74 0.0
v -0.0 0.74 -0.0
v -0.0 0.74 -0.0
v 0.0 0.74 -0.0
v 0.0 0.74 -0.0
v -0.22 0.48 -0.22
v -0.22 0.48 -0.22
v -0.22 0.48 -0.22
v -0.22 0.48 -0.22
v -0.22 0.48 -0.22
v -0.22 0.48 -0.22
v -0.22 0.48 -0.22
v -0.22 0.48 -0.22
v 0.00627 0.53272 -0.22
v -0.06 0.53272 -0.095
v -0.22 0.53272 -0.04322
v -0.38 0.53272 -0.095
v -0.44627 0.53272 -0.22
v -0.38 0.53272 -0.345
v -0.22 0.53272 -0.39678
v -0.06 0.53272 -0.345
v 0.1 0.66 -0.22
v 0.00627 0.66 -0.04322
v -0.22 0.66 0.03
v -0.44627 0.66 -0.04322
v -0.54 0.66 -0.22
v -0.44627 0.66 -0.39678
v -0.22 0.66 -0.47
v 0.00627 0.66 -0.39678
v 0.00627 0.78728 -0.22
v -0.06 0.78728 -0.095
v -0.22 0.78728 -0.04322
v -0.38 0.78728 -0.095
v -0.44627 0.78728 -0.22
v -0.38 0.78728 -0.345
v -0.22 0.78728 -0.39678
v -0.06 0.78728 -0.345
v -0.22 0.84 -0.22
v -0.22 0.84 -0.22
v -0.22 0.84 -0.22
v -0.22 0.84 -0.22
v -0.22 0.84 -0.22
v -0.22 0.84 -0.22
v -0.22 0.84 -0.22
v -0.22 0.84 -0.22
v -0.22 0.48 0.22
v -0.22 0.48 0.22
v -0.22 0.48 0.22
v -0.22 0.48 0.22
v -0.22 0.48 0.22
v -0.22 0.48 0.22
v -0.22 0.48 0.22
v -0.22 0.48 0.22
v 0.00627 0.53272 0.22
v -0.06 0.53272 0.345
v -0.22 0.53272 0.39678
v -0.38 0.53272 0.345
v -0.44627 0.53272 0.22
v -0.38 0.53272 0.095
v -0.22 0.53272 0.04322
v -0.06 0.53272 0.095
v 0.1 0.66 0.22
v 0.00627 0.66 0.39678
v -0.22 0.66 0.47
v -0.44627 0.66 0.39678
v -0.54 0.66 0.22
v -0.44627 0.66 0.04322
v -0.22 0.66 -0.03
v 0.00627 0.66 0.04322
v 0.00627 0.78728 0.22
v -0.06 0.78728 0.345
v -0.22 0.78728 0.39678
v -0.38 0.78728 0.345
v -0.44627 0.78728 0.22
v -0.38 0.78728 0.095
v -0.22 0.78728 0.04322
v -0.06 0.78728 0.095
v -0.22 0.84 0.22
v -0.22 0.84 0.22
v -0.22 0.84 0.22
v -0.22 0.84 0.22
v -0.22 0.84 0.22
v -0.22 0.84 0.22
v -0.22 0.84 0.22
v -0.22 0.84 0.22
v -0.155 0.25 -0.28
v -0.475 0.1 -0.52
v -0.15926 0.18918 -0.23632
v -0.47926 0.03918 -0.47632
v -0.20426 0.18918 -0.17632
v -0.52426 0.03918 -0.41632
v -0.245 0.25 -0.16
v -0.565 0.1 -0.4
v -0.24074 0.31082 -0.20368
v -0.56074 0.16082 -0.44368
v -0.19574 0.31082 -0.26368
v -0.51574 0.16082 -0.50368
v -0.52 0.0 -0.46
v -0.52 0.0 -0.46
v -0.52 0.0 -0.46
v -0.52 0.0 -0.46
v -0.52 0.0 -0.46
v -0.52 0.0 -0.46
v -0.39876 0.025 -0.46
v -0.45938 0.025 -0.37
v -0.58062 0.025 -0.37
v -0.64124 0.025 -0.46
v -0.58062 0.025 -0.55
v -0.45938 0.025 -0.55
v -0.39876 0.075 -0.46
v -0.45938 0.075 -0.37
v -0.58062 0.075 -0.37
v -0.64124 0.075 -0.46
v -0.58062 0.075 -0.55
v -0.45938 0.075 -0.55
v -0.52 0.1 -0.46
v -0.52 0.1 -0.46
v -0.52 0.1 -0.46
v -0.52 0.1 -0.46
v -0.52 0.1 -0.46
v -0.52 0.1 -0.46
v 0.2616 0.25 -0.1576
v 0.5616 0.1 -0.3576
v 0.22004 0.19003 -0.17496
v 0.52004 0.04003 -0.37496
v 0.17844 0.19003 -0.23736
v 0.47844 0.04003 -0.43736
v 0.1784 0.25 -0.2824
v 0.4784 0.1 -0.4824
v 0.21996 0.30997 -0.26504
v 0.51996 0.15997 -0.46504
v 0.26156 0.30997 -0.20264
v 0.56156 0.15997 -0.40264
v 0.52 0.0 -0.42
v 0.52 0.0 -0.42
v 0.52 0.0 -0.42
v 0.52 0.0 -0.42
v 0.52 0.0 -0.42
v 0.52 0.0 -0.42
v 0.64124 0.025 -0.42
v 0.58062 0.025 -0.33
v 0.45938 0.025 -0.33
v 0.39876 0.025 -0.42
v 0.45938 0.025 -0.51
v 0.58062 0.025 -0.51
v 0.64124 0.075 -0.42
v 0.58062 0.075 -0.33
v 0.45938 0.075 -0.33
v 0.39876 0.075 -0.42
v 0.45938 0.075 -0.51
v 0.58062 0.075 -0.51
v 0.52 0.1 -0.42
v 0.52 0.1 -0.42
v 0.52 0.1 -0.42
v 0.52 0.1 -0.42
v 0.52 0.1 -0.42
v 0.52 0.1 -0.42
v -0.245 0.25 0.16
v -0.565 0.1 0.4
v -0.20426 0.18918 0.17632
v -0.52426 0.03918 0.41632
v -0.15926 0.18918 0.23632
v -0.47926 0.03918 0.47632
v -0.155 0.25 0.28
v -0.475 0.1 0.52
v -0.19574 0.31082 0.26368
v -0.51574 0.16082 0.50368
v -0.24074 0.31082 0.20368
v -0.56074 0.16082 0.44368
v -0.52 0.0 0.46
v -0.52 0.0 0.46
v -0.52 0.0 0.46
v -0.52 0.0 0.46
v -0.52 0.0 0.46
v -0.52 0.0 0.46
v -0.39876 0.025 0.46
v -0.45938 0.025 0.55
v -0.58062 0.025 0.55
v -0.64124 0.025 0.46
v -0.58062 0.025 0.37
v -0.45938 0.025 0.37
v -0.39876 0.075 0.46
v -0.45938 0.075 0.55
v -0.58062 0.075 0.55
v -0.64124 0.075 0.46
v -0.58062 0.075 0.37
v -0.45938 0.075 0.37
v -0.52 0.1 0.46
v -0.52 0.1 0.46
v -0.52 0.1 0.46
v -0.52 0.1 0.46
v -0.52 0.1 0.46
v -0.52 0.1 0.46
v 0.1784 0.25 0.2824
v 0.4784 0.1 0.4824
v 0.17844 0.19003 0.23736
v 0.47844 0.04003 0.43736
v 0.22004 0.19003 0.17496
v 0.52004 0.04003 0.37496
v 0.2616 0.25 0.1576
v 0.5616 0.1 0.3576
v 0.26156 0.30997 0.20264
v 0.56156 0.15997 0.40264
v 0.21996 0.30997 0.26504
v 0.51996 0.15997 0.46504
v 0.52 0.0 0.42
v 0.52 0.0 0.42
v 0.52 0.0 0.42
v 0.52 0.0 0.42
v 0.52 0.0 0.42
v 0.52 0.0 0.42
v 0.64124 0.025 0.42
v 0.58062 0.025 0.51
v 0.45938 0.025 0.51
v 0.39876 0.025 0.42
v 0.45938 0.025 0.33
v 0.58062 0.025 0.33
v 0.64124 0.075 0.42
v 0.58062 0.075 0.51
v 0.45938 0.075 0.51
v 0.39876 0.075 0.42
v 0.45938 0.075 0.33
v 0.58062 0.075 0.33
v 0.52 0.1 0.42
v 0.52 0.1 0.42
v 0.52 0.1 0.42
v 0.52 0.1 0.42
v 0.52 0.1 0.42
v 0.52 0.1 0.42
v 0.46 0.23 0.0
v 0.46 0.23 0.0
v 0.46 0.23 0.0
v 0.46 0.23 0.0
v 0.46 0.23 0.0
v 0.46 0.23 -0.0
v 0.46 0.23 -0.0
v 0.46 0.23 -0.0
v 0.61588 0.29 0.0
v 0.57023 0.29 0.09798
v 0.46 0.29 0.13856
v 0.34977 0.29 0.09798
v 0.30412 0.29 0.0
v 0.34977 0.29 -0.09798
v 0.46 0.29 -0.13856
v 0.57023 0.29 -0.09798
v 0.61588 0.41 0.0
v 0.57023 0.41 0.09798
v 0.46 0.41 0.13856
v 0.34977 0.41 0.09798
v 0.30412 0.41 0.0
v 0.34977 0.41 -0.09798
v 0.46 0.41 -0.13856
v 0.57023 0.41 -0.09798
v 0.46 0.47 0.0
v 0.46 0.47 0.0
v 0.46 0.47 0.0
v 0.46 0.47 0.0
v 0.46 0.47 0.0
v 0.46 0.47 -0.0
v 0.46 0.47 -0.0
v 0.46 0.47 -0.0
g mantle
usemtl shell_teal
f 1 2 12 11
f 2 3 13 12
f 3 4 14 13
f 4 5 15 14
f 5 6 16 15
f 6 7 17 16
f 7 8 18 17
f 8 9 19 18
f 9 10 20 19
f 10 1 11 20
f 11 12 22 21
f 12 13 23 22
f 13 14 24 23
f 14 15 25 24
f 15 16 26 25
f 16 17 27 26
f 17 18 28 27
f 18 19 29 28
f 19 20 30 29
f 20 11 21 30
f 21 22 32 31
f 22 23 33 32
f 23 24 34 33
f 24 25 35 34
f 25 26 36 35
f 26 27 37 36
f 27 28 38 37
f 28 29 39 38
f 29 30 40 39
f 30 21 31 40
f 31 32 42 41
f 32 33 43 42
f 33 34 44 43
f 34 35 45 44
f 35 36 46 45
f 36 37 47 46
f 37 38 48 47
f 38 39 49 48
f 39 40 50 49
f 40 31 41 50
g cargo_left
usemtl membrane
f 51 52 60 59
f 52 53 61 60
f 53 54 62 61
f 54 55 63 62
f 55 56 64 63
f 56 57 65 64
f 57 58 66 65
f 58 51 59 66
f 59 60 68 67
f 60 61 69 68
f 61 62 70 69
f 62 63 71 70
f 63 64 72 71
f 64 65 73 72
f 65 66 74 73
f 66 59 67 74
f 67 68 76 75
f 68 69 77 76
f 69 70 78 77
f 70 71 79 78
f 71 72 80 79
f 72 73 81 80
f 73 74 82 81
f 74 67 75 82
f 75 76 84 83
f 76 77 85 84
f 77 78 86 85
f 78 79 87 86
f 79 80 88 87
f 80 81 89 88
f 81 82 90 89
f 82 75 83 90
g cargo_right
usemtl membrane
f 91 92 100 99
f 92 93 101 100
f 93 94 102 101
f 94 95 103 102
f 95 96 104 103
f 96 97 105 104
f 97 98 106 105
f 98 91 99 106
f 99 100 108 107
f 100 101 109 108
f 101 102 110 109
f 102 103 111 110
f 103 104 112 111
f 104 105 113 112
f 105 106 114 113
f 106 99 107 114
f 107 108 116 115
f 108 109 117 116
f 109 110 118 117
f 110 111 119 118
f 111 112 120 119
f 112 113 121 120
f 113 114 122 121
f 114 107 115 122
f 115 116 124 123
f 116 117 125 124
f 117 118 126 125
f 118 119 127 126
f 119 120 128 127
f 120 121 129 128
f 121 122 130 129
f 122 115 123 130
g limb_0
usemtl carbonate
f 141 139 137 135 133 131
f 132 134 136 138 140 142
f 131 133 134 132
f 133 135 136 134
f 135 137 138 136
f 137 139 140 138
f 139 141 142 140
f 141 131 132 142
g foot_0
usemtl shell_teal
f 143 144 150 149
f 144 145 151 150
f 145 146 152 151
f 146 147 153 152
f 147 148 154 153
f 148 143 149 154
f 149 150 156 155
f 150 151 157 156
f 151 152 158 157
f 152 153 159 158
f 153 154 160 159
f 154 149 155 160
f 155 156 162 161
f 156 157 163 162
f 157 158 164 163
f 158 159 165 164
f 159 160 166 165
f 160 155 161 166
g limb_1
usemtl carbonate
f 177 175 173 171 169 167
f 168 170 172 174 176 178
f 167 169 170 168
f 169 171 172 170
f 171 173 174 172
f 173 175 176 174
f 175 177 178 176
f 177 167 168 178
g foot_1
usemtl shell_teal
f 179 180 186 185
f 180 181 187 186
f 181 182 188 187
f 182 183 189 188
f 183 184 190 189
f 184 179 185 190
f 185 186 192 191
f 186 187 193 192
f 187 188 194 193
f 188 189 195 194
f 189 190 196 195
f 190 185 191 196
f 191 192 198 197
f 192 193 199 198
f 193 194 200 199
f 194 195 201 200
f 195 196 202 201
f 196 191 197 202
g limb_2
usemtl carbonate
f 213 211 209 207 205 203
f 204 206 208 210 212 214
f 203 205 206 204
f 205 207 208 206
f 207 209 210 208
f 209 211 212 210
f 211 213 214 212
f 213 203 204 214
g foot_2
usemtl shell_teal
f 215 216 222 221
f 216 217 223 222
f 217 218 224 223
f 218 219 225 224
f 219 220 226 225
f 220 215 221 226
f 221 222 228 227
f 222 223 229 228
f 223 224 230 229
f 224 225 231 230
f 225 226 232 231
f 226 221 227 232
f 227 228 234 233
f 228 229 235 234
f 229 230 236 235
f 230 231 237 236
f 231 232 238 237
f 232 227 233 238
g limb_3
usemtl carbonate
f 249 247 245 243 241 239
f 240 242 244 246 248 250
f 239 241 242 240
f 241 243 244 242
f 243 245 246 244
f 245 247 248 246
f 247 249 250 248
f 249 239 240 250
g foot_3
usemtl shell_teal
f 251 252 258 257
f 252 253 259 258
f 253 254 260 259
f 254 255 261 260
f 255 256 262 261
f 256 251 257 262
f 257 258 264 263
f 258 259 265 264
f 259 260 266 265
f 260 261 267 266
f 261 262 268 267
f 262 257 263 268
f 263 264 270 269
f 264 265 271 270
f 265 266 272 271
f 266 267 273 272
f 267 268 274 273
f 268 263 269 274
g activity_organ
usemtl active_amber
f 275 276 284 283
f 276 277 285 284
f 277 278 286 285
f 278 279 287 286
f 279 280 288 287
f 280 281 289 288
f 281 282 290 289
f 282 275 283 290
f 283 284 292 291
f 284 285 293 292
f 285 286 294 293
f 286 287 295 294
f 287 288 296 295
f 288 289 297 296
f 289 290 298 297
f 290 283 291 298
f 291 292 300 299
f 292 293 301 300
f 293 294 302 301
f 294 295 303 302
f 295 296 304 303
f 296 297 305 304
f 297 298 306 305
f 298 291 299 306
