# Generated Silica Street blockout: waste_collector
mtllib silica_street_blockout.mtl
o waste_collector
v 0.0 0.0 0.0
v 0.0 0.0 0.0
v 0.0 0.0 0.0
v -0.0 0.0 0.0
v -0.0 0.0 0.0
v -0.0 0.0 0.0
v -0.0 0.0 -0.0
v -0.0 0.0 -0.0
v 0.0 0.0 -0.0
v 0.0 0.0 -0.0
v 1.3435 0.09373 0.0
v 1.08692 0.09373 0.78969
v 0.41517 0.09373 1.27775
v -0.41517 0.09373 1.27775
v -1.08692 0.09373 0.78969
v -1.3435 0.09373 0.0
v -1.08692 0.09373 -0.78969
v -0.41517 0.09373 -1.27775
v 0.41517 0.09373 -1.27775
v 1.08692 0.09373 -0.78969
v 1.9 0.32 0.0
v 1.53713 0.32 1.11679
v 0.58713 0.32 1.80701
v -0.58713 0.32 1.80701
v -1.53713 0.32 1.11679
v -1.9 0.32 0.0
v -1.53713 0.32 -1.11679
v -0.58713 0.32 -1.80701
v 0.58713 0.32 -1.80701
v 1.53713 0.32 -1.11679
v 1.3435 0.54627 0.0
v 1.08692 0.54627 0.78969
v 0.41517 0.54627 1.27775
v -0.41517 0.54627 1.27775
v -1.08692 0.54627 0.78969
v -1.3435 0.54627 0.0
v -1.08692 0.54627 -0.78969
v -0.41517 0.54627 -1.27775
v 0.41517 0.54627 -1.27775
v 1.08692 0.54627 -0.78969
v 0.0 0.64 0.0
v 0.0 0.64 0.0
v 0.0 0.64 0.0
v -0.0 0.64 0.0
v -0.0 0.64 0.0
v -0.0 0.64 0.0
v -0.0 0.64 -0.0
v -0.0 0.64 -0.0
v 0.0 0.64 -0.0
v 0.0 0.64 -0.0
v 1.88 0.12 -0.095
v 1.1656 1.62 -0.095
v 1.80572 0.08462 -0.0475
v 1.09132 1.58462 -0.0475
v 1.80572 0.08462 0.0475
v 1.09132 1.58462 0.0475
v 1.88 0.12 0.095
v 1.1656 1.62 0.095
v 1.95428 0.15538 0.0475
v 1.23988 1.65538 0.0475
v 1.95428 0.15538 -0.0475
v 1.23988 1.65538 -0.0475
v 1.1656 1.62 -0.075
v 0.0 2.25 -0.075
v 1.13472 1.56286 -0.0375
v -0.03088 2.19286 -0.0375
v 1.13472 1.56286 0.0375
v -0.03088 2.19286 0.0375
v 1.1656 1.62 0.075
v -0.0 2.25 0.075
v 1.19648 1.67714 0.0375
v 0.03088 2.30714 0.0375
v 1.19648 1.67714 -0.0375
v 0.03088 2.30714 -0.0375
v 1.44016 0.09219 1.1176
v 0.8929 1.59219 0.65839
v 1.36248 0.08018 1.17095
v 0.81522 1.58018 0.71175
v 1.36248 0.10799 1.26179
v 0.81522 1.60799 0.80259
v 1.44016 0.14781 1.29928
v 0.8929 1.64781 0.84007
v 1.51784 0.15982 1.24593
v 0.97058 1.65982 0.78672
v 1.51784 0.13201 1.15509
v 0.97058 1.63201 0.69588
v 0.94111 1.62 0.69178
v 0.04821 2.25 -0.05745
v 0.89335 1.56286 0.70065
v 0.00045 2.19286 -0.04858
v 0.84514 1.56286 0.75811
v -0.04776 2.19286 0.00888
v 0.84469 1.62 0.80669
v -0.04821 2.25 0.05745
v 0.89246 1.67714 0.79781
v -0.00045 2.30714 0.04858
v 0.94066 1.67714 0.74036
v 0.04776 2.30714 -0.00888
v 0.32646 0.07966 1.76543
v 0.2024 1.57966 1.06188
v 0.24442 0.09427 1.81104
v 0.12036 1.59427 1.1075
v 0.24442 0.13461 1.89705
v 0.12036 1.63461 1.19351
v 0.32646 0.16034 1.93745
v 0.2024 1.66034 1.2339
v 0.4085 0.14573 1.89183
v 0.28445 1.64573 1.18829
v 0.4085 0.10539 1.80583
v 0.28445 1.60539 1.10228
v 0.27626 1.62 1.13487
v 0.07386 2.25 -0.01302
v 0.23397 1.56286 1.11097
v 0.03157 2.19286 -0.03693
v 0.16011 1.56286 1.12399
v -0.04229 2.19286 -0.0239
v 0.12854 1.62 1.16092
v -0.07386 2.25 0.01302
v 0.17084 1.67714 1.18482
v -0.03157 2.30714 0.03693
v 0.2447 1.67714 1.17179
v 0.04229 2.30714 0.0239
v -0.94 0.08378 1.5403
v -0.5828 1.58378 0.92162
v -1.02035 0.11824 1.57747
v -0.66315 1.61824 0.95878
v -1.02035 0.15446 1.66529
v -0.66315 1.65446 1.04661
v -0.94 0.15622 1.71595
v -0.5828 1.65622 1.09726
v -0.85965 0.12176 1.67878
v -0.50245 1.62176 1.0601
v -0.85965 0.08554 1.59096
v -0.50245 1.58554 0.97227
v -0.51785 1.62 1.04694
v 0.06495 2.25 0.0375
v -0.53488 1.56286 1.00144
v 0.04792 2.19286 -0.008
v -0.59983 1.56286 0.96394
v -0.01703 2.19286 -0.0455
v -0.64775 1.62 0.97194
v -0.06495 2.25 -0.0375
v -0.63072 1.67714 1.01744
v -0.04792 2.30714 0.008
v -0.56577 1.67714 1.05494
v 0.01703 2.30714 0.0455
v -1.76662 0.10473 0.54923
v -1.09531 1.60473 0.30489
v -1.84188 0.14517 0.59077
v -1.17056 1.64517 0.34643
v -1.84188 0.16045 0.68454
v -1.17056 1.66045 0.4402
v -1.76662 0.13527 0.73676
v -1.09531 1.63527 0.49242
v -1.69136 0.09483 0.69522
v -1.02005 1.59483 0.45089
v -1.69136 0.07955 0.60146
v -1.02005 1.57955 0.35712
v -1.06965 1.62 0.46914
v 0.02565 2.25 0.07048
v -1.05346 1.56286 0.42333
v 0.04185 2.19286 0.02468
v -1.07911 1.56286 0.35286
v 0.0162 2.19286 -0.0458
v -1.12096 1.62 0.32818
v -0.02565 2.25 -0.07048
v -1.13715 1.67714 0.37398
v -0.04185 2.30714 -0.02468
v -1.1115 1.67714 0.44446
v -0.0162 2.30714 0.0458
v -1.76662 0.13527 -0.73676
v -1.09531 1.63527 -0.49242
v -1.84188 0.16045 -0.68454
v -1.17056 1.66045 -0.4402
v -1.84188 0.14517 -0.59077
v -1.17056 1.64517 -0.34643
v -1.76662 0.10473 -0.54923
v -1.09531 1.60473 -0.30489
v -1.69136 0.07955 -0.60146
v -1.02005 1.57955 -0.35712
v -1.69136 0.09483 -0.69522
v -1.02005 1.59483 -0.45089
v -1.12096 1.62 -0.32818
v -0.02565 2.25 0.07048
v -1.07911 1.56286 -0.35286
v 0.0162 2.19286 0.0458
v -1.05346 1.56286 -0.42333
v 0.04185 2.19286 -0.02468
v -1.06965 1.62 -0.46914
v 0.02565 2.25 -0.07048
v -1.1115 1.67714 -0.44446
v -0.0162 2.30714 -0.0458
v -1.13715 1.67714 -0.37398
v -0.04185 2.30714 0.02468
v -0.94 0.15622 -1.71595
v -0.5828 1.65622 -1.09726
v -1.02035 0.15446 -1.66529
v -0.66315 1.65446 -1.04661
v -1.02035 0.11824 -1.57747
v -0.66315 1.61824 -0.95878
v -0.94 0.08378 -1.5403
v -0.5828 1.58378 -0.92162
v -0.85965 0.08554 -1.59096
v -0.50245 1.58554 -0.97227
v -0.85965 0.12176 -1.67878
v -0.50245 1.62176 -1.0601
v -0.64775 1.62 -0.97194
v -0.06495 2.25 0.0375
v -0.59983 1.56286 -0.96394
v -0.01703 2.19286 0.0455
v -0.53488 1.56286 -1.00144
v 0.04792 2.19286 0.008
v -0.51785 1.62 -1.04694
v 0.06495 2.25 -0.0375
v -0.56577 1.67714 -1.05494
v 0.01703 2.30714 -0.0455
v -0.63072 1.67714 -1.01744
v -0.04792 2.30714 -0.008
v 0.32646 0.16034 -1.93745
v 0.2024 1.66034 -1.2339
v 0.24442 0.13461 -1.89705
v 0.12036 1.63461 -1.19351
v 0.24442 0.09427 -1.81104
v 0.12036 1.59427 -1.1075
v 0.32646 0.07966 -1.76543
v 0.2024 1.57966 -1.06188
v 0.4085 0.10539 -1.80583
v 0.28445 1.60539 -1.10228
v 0.4085 0.14573 -1.89183
v 0.28445 1.64573 -1.18829
v 0.12854 1.62 -1.16092
v -0.07386 2.25 -0.01302
v 0.16011 1.56286 -1.12399
v -0.04229 2.19286 0.0239
v 0.23397 1.56286 -1.11097
v 0.03157 2.19286 0.03693
v 0.27626 1.62 -1.13487
v 0.07386 2.25 0.01302
v 0.2447 1.67714 -1.17179
v 0.04229 2.30714 -0.0239
v 0.17084 1.67714 -1.18482
v -0.03157 2.30714 -0.03693
v 1.44016 0.14781 -1.29928
v 0.8929 1.64781 -0.84007
v 1.36248 0.10799 -1.26179
v 0.81522 1.60799 -0.80259
v 1.36248 0.08018 -1.17095
v 0.81522 1.58018 -0.71175
v 1.44016 0.09219 -1.1176
v 0.8929 1.59219 -0.65839
v 1.51784 0.13201 -1.15509
v 0.97058 1.63201 -0.69588
v 1.51784 0.15982 -1.24593
v 0.97058 1.65982 -0.78672
v 0.84469 1.62 -0.80669
v -0.04821 2.25 -0.05745
v 0.84514 1.56286 -0.75811
v -0.04776 2.19286 -0.00888
v 0.89335 1.56286 -0.70065
v 0.00045 2.19286 0.04858
v 0.94111 1.62 -0.69178
v 0.04821 2.25 0.05745
v 0.94066 1.67714 -0.74036
v 0.04776 2.30714 0.00888
v 0.89246 1.67714 -0.79781
v -0.00045 2.30714 -0.04858
v -0.75 0.28 -0.55
v -0.75 0.28 -0.55
v -0.75 0.28 -0.55
v -0.75 0.28 -0.55
v -0.75 0.28 -0.55
v -0.75 0.28 -0.55
v -0.75 0.28 -0.55
v -0.75 0.28 -0.55
v -0.24771 0.47 -0.55
v -0.39482 0.47 -0.19482
v -0.75 0.47 -0.04771
v -1.10518 0.47 -0.19482
v -1.25229 0.47 -0.55
v -1.10518 0.47 -0.90518
v -0.75 0.47 -1.05229
v -0.39482 0.47 -0.90518
v -0.24771 0.85 -0.55
v -0.39482 0.85 -0.19482
v -0.75 0.85 -0.04771
v -1.10518 0.85 -0.19482
v -1.25229 0.85 -0.55
v -1.10518 0.85 -0.90518
v -0.75 0.85 -1.05229
v -0.39482 0.85 -0.90518
v -0.75 1.04 -0.55
v -0.75 1.04 -0.55
v -0.75 1.04 -0.55
v -0.75 1.04 -0.55
v -0.75 1.04 -0.55
v -0.75 1.04 -0.55
v -0.75 1.04 -0.55
v -0.75 1.04 -0.55
v 0.75 0.28 -0.55
v 0.75 0.28 -0.55
v 0.75 0.28 -0.55
v 0.75 0.28 -0.55
v 0.75 0.28 -0.55
v 0.75 0.28 -0.55
v 0.75 0.28 -0.55
v 0.75 0.28 -0.55
v 1.25229 0.47 -0.55
v 1.10518 0.47 -0.19482
v 0.75 0.47 -0.04771
v 0.39482 0.47 -0.19482
v 0.24771 0.47 -0.55
v 0.39482 0.47 -0.90518
v 0.75 0.47 -1.05229
v 1.10518 0.47 -0.90518
v 1.25229 0.85 -0.55
v 1.10518 0.85 -0.19482
v 0.75 0.85 -0.04771
v 0.39482 0.85 -0.19482
v 0.24771 0.85 -0.55
v 0.39482 0.85 -0.90518
v 0.75 0.85 -1.05229
v 1.10518 0.85 -0.90518
v 0.75 1.04 -0.55
v 0.75 1.04 -0.55
v 0.75 1.04 -0.55
v 0.75 1.04 -0.55
v 0.75 1.04 -0.55
v 0.75 1.04 -0.55
v 0.75 1.04 -0.55
v 0.75 1.04 -0.55
v 0.0 0.28 0.7
v 0.0 0.28 0.7
v 0.0 0.28 0.7
v -0.0 0.28 0.7
v -0.0 0.28 0.7
v -0.0 0.28 0.7
v -0.0 0.28 0.7
v 0.0 0.28 0.7
v 0.50229 0.47 0.7
v 0.35518 0.47 1.05518
v 0.0 0.47 1.20229
v -0.35518 0.47 1.05518
v -0.50229 0.47 0.7
v -0.35518 0.47 0.34482
v -0.0 0.47 0.19771
v 0.35518 0.47 0.34482
v 0.50229 0.85 0.7
v 0.35518 0.85 1.05518
v 0.0 0.85 1.20229
v -0.35518 0.85 1.05518
v -0.50229 0.85 0.7
v -0.35518 0.85 0.34482
v -0.0 0.85 0.19771
v 0.35518 0.85 0.34482
v 0.0 1.04 0.7
v 0.0 1.04 0.7
v 0.0 1.04 0.7
v -0.0 1.04 0.7
v -0.0 1.04 0.7
v -0.0 1.04 0.7
v -0.0 1.04 0.7
v 0.0 1.04 0.7
v 0.0 0.45 0.0
v 0.0 0.45 0.0
v -0.0 0.45 0.0
v -0.0 0.45 0.0
v -0.0 0.45 -0.0
v -0.0 0.45 -0.0
v 0.0 0.45 -0.0
v 0.19053 0.575 0.0
v 0.11879 0.575 0.14896
v -0.0424 0.575 0.18575
v -0.17166 0.575 0.08267
v -0.17166 0.575 -0.08267
v -0.0424 0.575 -0.18575
v 0.11879 0.575 -0.14896
v 0.19053 0.825 0.0
v 0.11879 0.825 0.14896
v -0.0424 0.825 0.18575
v -0.17166 0.825 0.08267
v -0.17166 0.825 -0.08267
v -0.0424 0.825 -0.18575
v 0.11879 0.825 -0.14896
v 0.0 0.95 0.0
v 0.0 0.95 0.0
v -0.0 0.95 0.0
v -0.0 0.95 0.0
v -0.0 0.95 -0.0
v -0.0 0.95 -0.0
v 0.0 0.95 -0.0
g base
usemtl shell_teal
f 1 2 12 11
f 2 3 13 12
f 3 4 14 13
f 4 5 15 14
f 5 6 16 15
f 6 7 17 16
f 7 8 18 17
f 8 9 19 18
f 9 10 20 19
f 10 1 11 20
f 11 12 22 21
f 12 13 23 22
f 13 14 24 23
f 14 15 25 24
f 15 16 26 25
f 16 17 27 26
f 17 18 28 27
f 18 19 29 28
f 19 20 30 29
f 20 11 21 30
f 21 22 32 31
f 22 23 33 32
f 23 24 34 33
f 24 25 35 34
f 25 26 36 35
f 26 27 37 36
f 27 28 38 37
f 28 29 39 38
f 29 30 40 39
f 30 21 31 40
f 31 32 42 41
f 32 33 43 42
f 33 34 44 43
f 34 35 45 44
f 35 36 46 45
f 36 37 47 46
f 37 38 48 47
f 38 39 49 48
f 39 40 50 49
f 40 31 41 50
g lattice
usemtl carbonate
f 61 59 57 55 53 51
f 52 54 56 58 60 62
f 51 53 54 52
f 53 55 56 54
f 55 57 58 56
f 57 59 60 58
f 59 61 62 60
f 61 51 52 62
f 73 71 69 67 65 63
f 64 66 68 70 72 74
f 63 65 66 64
f 65 67 68 66
f 67 69 70 68
f 69 71 72 70
f 71 73 74 72
f 73 63 64 74
f 85 83 81 79 77 75
f 76 78 80 82 84 86
f 75 77 78 76
f 77 79 80 78
f 79 81 82 80
f 81 83 84 82
f 83 85 86 84
f 85 75 76 86
f 97 95 93 91 89 87
f 88 90 92 94 96 98
f 87 89 90 88
f 89 91 92 90
f 91 93 94 92
f 93 95 96 94
f 95 97 98 96
f 97 87 88 98
f 109 107 105 103 101 99
f 100 102 104 106 108 110
f 99 101 102 100
f 101 103 104 102
f 103 105 106 104
f 105 107 108 106
f 107 109 110 108
f 109 99 100 110
f 121 119 117 115 113 111
f 112 114 116 118 120 122
f 111 113 114 112
f 113 115 116 114
f 115 117 118 116
f 117 119 120 118
f 119 121 122 120
f 121 111 112 122
f 133 131 129 127 125 123
f 124 126 128 130 132 134
f 123 125 126 124
f 125 127 128 126
f 127 129 130 128
f 129 131 132 130
f 131 133 134 132
f 133 123 124 134
f 145 143 141 139 137 135
f 136 138 140 142 144 146
f 135 137 138 136
f 137 139 140 138
f 139 141 142 140
f 141 143 144 142
f 143 145 146 144
f 145 135 136 146
f 157 155 153 151 149 147
f 148 150 152 154 156 158
f 147 149 150 148
f 149 151 152 150
f 151 153 154 152
f 153 155 156 154
f 155 157 158 156
f 157 147 148 158
f 169 167 165 163 161 159
f 160 162 164 166 168 170
f 159 161 162 160
f 161 163 164 162
f 163 165 166 164
f 165 167 168 166
f 167 169 170 168
f 169 159 160 170
f 181 179 177 175 173 171
f 172 174 176 178 180 182
f 171 173 174 172
f 173 175 176 174
f 175 177 178 176
f 177 179 180 178
f 179 181 182 180
f 181 171 172 182
f 193 191 189 187 185 183
f 184 186 188 190 192 194
f 183 185 186 184
f 185 187 188 186
f 187 189 190 188
f 189 191 192 190
f 191 193 194 192
f 193 183 184 194
f 205 203 201 199 197 195
f 196 198 200 202 204 206
f 195 197 198 196
f 197 199 200 198
f 199 201 202 200
f 201 203 204 202
f 203 205 206 204
f 205 195 196 206
f 217 215 213 211 209 207
f 208 210 212 214 216 218
f 207 209 210 208
f 209 211 212 210
f 211 213 214 212
f 213 215 216 214
f 215 217 218 216
f 217 207 208 218
f 229 227 225 223 221 219
f 220 222 224 226 228 230
f 219 221 222 220
f 221 223 224 222
f 223 225 226 224
f 225 227 228 226
f 227 229 230 228
f 229 219 220 230
f 241 239 237 235 233 231
f 232 234 236 238 240 242
f 231 233 234 232
f 233 235 236 234
f 235 237 238 236
f 237 239 240 238
f 239 241 242 240
f 241 231 232 242
f 253 251 249 247 245 243
f 244 246 248 250 252 254
f 243 245 246 244
f 245 247 248 246
f 247 249 250 248
f 249 251 252 250
f 251 253 254 252
f 253 243 244 254
f 265 263 261 259 257 255
f 256 258 260 262 264 266
f 255 257 258 256
f 257 259 260 258
f 259 261 262 260
f 261 263 264 262
f 263 265 266 264
f 265 255 256 266
g waste_chamber_0
usemtl organic_dark
f 267 268 276 275
f 268 269 277 276
f 269 270 278 277
f 270 271 279 278
f 271 272 280 279
f 272 273 281 280
f 273 274 282 281
f 274 267 275 282
f 275 276 284 283
f 276 277 285 284
f 277 278 286 285
f 278 279 287 286
f 279 280 288 287
f 280 281 289 288
f 281 282 290 289
f 282 275 283 290
f 283 284 292 291
f 284 285 293 292
f 285 286 294 293
f 286 287 295 294
f 287 288 296 295
f 288 289 297 296
f 289 290 298 297
f 290 283 291 298
g waste_chamber_1
usemtl organic_dark
f 299 300 308 307
f 300 301 309 308
f 301 302 310 309
f 302 303 311 310
f 303 304 312 311
f 304 305 313 312
f 305 306 314 313
f 306 299 307 314
f 307 308 316 315
f 308 309 317 316
f 309 310 318 317
f 310 311 319 318
f 311 312 320 319
f 312 313 321 320
f 313 314 322 321
f 314 307 315 322
f 315 316 324 323
f 316 317 325 324
f 317 318 326 325
f 318 319 327 326
f 319 320 328 327
f 320 321 329 328
f 321 322 330 329
f 322 315 323 330
g waste_chamber_2
usemtl organic_dark
f 331 332 340 339
f 332 333 341 340
f 333 334 342 341
f 334 335 343 342
f 335 336 344 343
f 336 337 345 344
f 337 338 346 345
f 338 331 339 346
f 339 340 348 347
f 340 341 349 348
f 341 342 350 349
f 342 343 351 350
f 343 344 352 351
f 344 345 353 352
f 345 346 354 353
f 346 339 347 354
f 347 348 356 355
f 348 349 357 356
f 349 350 358 357
f 350 351 359 358
f 351 352 360 359
f 352 353 361 360
f 353 354 362 361
f 354 347 355 362
g activity_organ
usemtl active_amber
f 363 364 371 370
f 364 365 372 371
f 365 366 373 372
f 366 367 374 373
f 367 368 375 374
f 368 369 376 375
f 369 363 370 376
f 370 371 378 377
f 371 372 379 378
f 372 373 380 379
f 373 374 381 380
f 374 375 382 381
f 375 376 383 382
f 376 370 377 383
f 377 378 385 384
f 378 379 386 385
f 379 380 387 386
f 380 381 388 387
f 381 382 389 388
f 382 383 390 389
f 383 377 384 390
